<svg enable-background="new 0 0 110.9 128" viewBox="0 0 110.9 128" xmlns="http://www.w3.org/2000/svg"><path d="m55.4 0-55.4 32v64l55.4 32 55.5-32v-64z" fill="#766a68"/><path d="m9.4 90.6v-53.2l46-26.6 46 26.6v53.1l-46 26.6zm-9.4-58.6v64l55.4 32 55.4-32v-64l-55.4-32z" fill="#df9079" opacity=".38"/><path d="m11.8 89.2v-50.4l43.7-25.2 43.7 25.2v50.4l-43.7 25.2zm43.6-78.3-46 26.6v53.1l46 26.6 46-26.6v-53.2z" fill="#df9079" opacity=".13"/><path d="m41.4 95.1c-.7 0-1.3 0-1.9-.1-.8-.1-1.4-.9-1.2-1.7.1-.8.9-1.4 1.7-1.2 1.4.2 3.7 0 5.7-.3 1.4-.2 2.7-.3 3.8-.3 3.1 0 3.5-.8 4.1-2.1 1.2-2.5 2.6-4.5 9.1-4.5 5.5 0 6.5 3.2 7.2 5.2.5 1.4.7 1.8 1.3 2 .8.2 1.3 1 1.1 1.8s-1 1.3-1.8 1.1c-2.4-.6-3-2.5-3.5-4-.6-1.9-1-3.2-4.4-3.2-5.1 0-5.7 1.3-6.4 2.8-1 2.1-2.2 3.9-6.8 3.9-.9 0-2.1.1-3.5.3-1.4.1-3 .3-4.5.3z" fill="#df9079"/><path d="m47.2 91.3c-1.4 0-3-.2-4.8-.7-3.5-.9-7.2-1.5-10.1-1.5-.8 0-1.5-.7-1.5-1.5s.7-1.5 1.5-1.5c1.8 0 5.7.3 10.8 1.6 7.3 1.9 9.6-1.2 11.9-4.5 1.5-2.1 3-4.3 5.8-4.6 3.1-.4 7 1.7 12.7 6.7.6.5.7 1.5.1 2.1-.5.6-1.5.7-2.1.1-4.8-4.2-8.3-6.2-10.4-6-1.4.2-2.3 1.4-3.8 3.4-1.7 2.8-4.2 6.4-10.1 6.4z" fill="#df9079"/><path d="m41.5 85.1c-2.4 0-4.8-.3-7.2-1.1l-.1-.1c-2.6-1.2-4.8-1-6.8-.8-.7.1-1.3.1-1.9.1-.8 0-1.5-.7-1.5-1.5s.7-1.5 1.5-1.5c.5 0 1 0 1.6-.1 2-.2 4.9-.4 8.2 1 6.6 2.2 12.8.3 19.4-1.6 6.7-2 13.6-4 21-1.6.8.3 1.6.5 2.3.8 2.5.9 4.2 1.5 7.4 1.5.8 0 1.5.7 1.5 1.5s-.7 1.5-1.5 1.5c-3.7 0-5.9-.8-8.4-1.7-.7-.2-1.4-.5-2.2-.7-6.5-2.1-12.7-.3-19.2 1.6-4.6 1.3-9.3 2.7-14.1 2.7z" fill="#df9079"/><path d="m40 82.3c-4.8 0-10-1.7-15.1-5.1-.7-.5-.9-1.4-.4-2.1s1.4-.9 2.1-.4c6.6 4.4 12.9 5.7 18.7 3.8 3-.8 5.9-1.9 8.8-2.9 10.3-3.6 20.9-7.4 32.1-1.2.7.4 1 1.3.6 2s-1.3 1-2 .6c-10.1-5.6-19.6-2.2-29.7 1.4-2.9 1-5.9 2.1-8.9 2.9-2.1.7-4.1 1-6.2 1z" fill="#df9079"/><path d="m39 76.7c-4.6 0-9.4-1.5-14.5-5.5-.6-.5-.8-1.5-.2-2.1.5-.6 1.5-.8 2.1-.2 10.3 8.3 18.8 4.5 28.7.1 5-2.2 10.1-4.5 15.7-5.3h.2c4.6 0 10.5.6 15.3 5.1.6.6.6 1.5.1 2.1-.6.6-1.5.6-2.1.1-4-3.7-8.9-4.3-13.1-4.3-5.2.8-10.1 2.9-14.8 5-5.6 2.4-11.3 5-17.4 5z" fill="#df9079"/><path d="m39 71.1c-4.3 0-9.4-2-14.5-5.7-.7-.5-.8-1.4-.3-2.1s1.4-.8 2.1-.3c5.8 4.2 11.6 6 15.6 4.6 2.1-.7 4.6-1.9 7.2-3.1 9.9-4.6 23.4-10.9 36.6-2.1.8.1 1.4.7 1.4 1.5s-.7 1.5-1.5 1.5h-.8l-.4-.3c-11.9-8.2-24.2-2.5-34.1 2.1-2.7 1.3-5.3 2.5-7.5 3.2-1.1.5-2.4.7-3.8.7z" fill="#df9079"/><path d="m37.6 64.1c-1.9 0-11.6-1.4-13.5-5.2-.4-.7-.1-1.6.7-2 .7-.4 1.6-.1 2 .7.9 1.8 8 3.6 10.8 3.6 6.8 0 12.5-2.8 18-5.5 9.1-4.5 18.5-9.1 30.7 1.4.6.5.7 1.5.2 2.1s-1.5.7-2.1.2c-10.7-9.2-18.1-5.6-27.4-1-5.9 2.7-11.9 5.7-19.4 5.7z" fill="#df9079"/><path d="m35.4 56.4c-3.5 0-7.1-.8-10.7-2.8-.7-.4-1-1.3-.6-2s1.3-1 2-.6c7.8 4.4 15.4 1.9 23.4-.7 7.1-2.4 14.5-4.8 22.6-2.6 1.8.4 3.6.9 5.4 1.4 2.9.8 5.6 1.5 7.9 1.7.8.1 1.4.8 1.4 1.6-.1.8-.8 1.4-1.6 1.4-2.6-.2-5.4-1-8.5-1.8-1.7-.5-3.5-.9-5.3-1.3-7.3-2-14.2.3-21 2.5-4.8 1.5-9.8 3.2-15 3.2z" fill="#df9079"/><path d="m39.1 51.8c-1.2 0-2.3-.1-3.3-.3-1.2-.2-2.4-.9-3.7-1.6-1.9-1-4.2-2.1-6.5-2.1-.8 0-1.5-.7-1.5-1.5s.7-1.5 1.5-1.5c3.1 0 5.8 1.4 7.9 2.5 1.1.6 2.2 1.1 3 1.3 4.2.9 10-.6 16.1-2.2 8.5-2.2 18.1-4.7 26.4-1.5.8.3 1.2 1.2.9 1.9-.3.8-1.2 1.2-1.9.9-7.4-2.8-16.1-.5-24.6 1.6-5.3 1.3-10.1 2.5-14.3 2.5z" fill="#df9079"/><path d="m49 48c-3.5 0-7.3-1.5-11.5-5.8-.6-.6-.6-1.5 0-2.1s1.5-.6 2.1 0c7.3 7.5 12.4 4.8 18.4 1.8 4.1-2.1 8.2-4.2 13.1-3h.4c.8 0 1.5.7 1.5 1.5s-.7 1.5-1.5 1.5h-1c-3.9-1-7.4.8-11.2 2.7-3.1 1.6-6.5 3.4-10.3 3.4z" fill="#df9079"/><g fill="#e6d9a5"><path d="m32.4 89.1c.8 0 1.5-.7 1.5-1.5s-.7-1.5-1.5-1.5h-20.6v3z"/><path d="m25.5 83.2c.8 0 1.5-.7 1.5-1.5s-.7-1.5-1.5-1.5h-13.7v3z"/><path d="m13.7 77.3h11.4c.2.1.4.1.6.1.5 0 1-.2 1.2-.7.5-.7.3-1.6-.4-2.1l-.5-.3h-.5c-4.5 0-8.5 0-11.9 0h-1.9v3z"/><path d="m71 91.9c-.8 0-1.5.7-1.5 1.5s.7 1.5 1.5 1.5h18.1l5.2-3z"/><path d="m79 100.8 5.2-3h-57.5l5.2 3z"/><path d="m39.8 94.9c.8 0 1.5-.7 1.5-1.5s-.7-1.5-1.5-1.5h-23.3l5.2 3z"/><path d="m13.7 59.6c3.1 0 6.7 0 10.6.1h1.1c.8 0 1.5-.7 1.5-1.5s-.7-1.5-1.5-1.5h-1.1c-4 0-7.6-.1-10.7-.1h-1.9v3z"/><path d="m13.7 53.7h11.8c.8 0 1.5-.7 1.5-1.5s-.7-1.5-1.5-1.5c-4.4 0-8.4 0-11.8 0h-1.9v3z"/><path d="m25.5 47.8c.8 0 1.5-.7 1.5-1.5s-.7-1.5-1.5-1.5h-13.7v3z"/><path d="m25.5 41.9c4.3 0 9.1 0 12.9.7h.3c.7 0 1.3-.5 1.5-1.2.1-.8-.4-1.6-1.2-1.7-4-.7-9-.7-13.4-.7h-13.8v3h13.7z"/><path d="m13.7 65.6c3.1 0 6.7 0 10.6.1h1.1c.8 0 1.5-.7 1.5-1.5s-.7-1.5-1.5-1.5h-1.1c-4 0-7.6-.1-10.7-.1h-1.9v3z"/><path d="m13.7 71.4c3.1 0 6.6 0 10.6.1h1.2c.8 0 1.5-.7 1.5-1.5s-.7-1.5-1.5-1.5h-1.2c-4 0-7.6-.1-10.6-.1h-1.9v3z"/><path d="m85.4 86.1c-4.2 0-9 0-12.2-1.1-.8-.3-1.6.1-1.9.9s.1 1.6.9 1.9c3.7 1.3 8.7 1.3 13.2 1.3h13.7v-3z"/><path d="m97.2 50.7c-3.4 0-7.4 0-11.8 0-.8 0-1.5.7-1.5 1.5s.7 1.5 1.5 1.5h11.8 1.9v-3z"/><path d="m42.1 21.3-5.2 3h37.1l-5.2-3z"/><path d="m85.4 80.2c-.8 0-1.5.7-1.5 1.5s.7 1.5 1.5 1.5h13.7v-3z"/><path d="m31.9 27.2-5.2 3h57.5l-5.2-3z"/><path d="m74 103.7h-37.1l5.2 3h26.7z"/><path d="m47.1 18.4h16.7l-5.2-3h-6.3z"/><path d="m63.8 109.6h-16.7l5.2 3h6.3z"/><path d="m21.7 33.1-5.2 3h77.9l-5.2-3z"/><path d="m71.6 38.9c-.8 0-1.5.7-1.5 1.5s.7 1.5 1.5 1.5h27.5v-3z"/><path d="m97.2 62.5c-3.3 0-7.2 0-11.4-.1-.9 0-1.5.7-1.5 1.5s.7 1.5 1.5 1.5c4.3 0 8.2.1 11.5.1h1.9v-3z"/><path d="m97.2 74.3c-3.4 0-7.4 0-11.8 0-.8 0-1.5.7-1.5 1.5s.7 1.5 1.5 1.5h11.8 1.9v-3z"/><path d="m97.2 68.4c-3.4 0-7.4 0-11.8-.1-.8 0-1.5.7-1.5 1.5s.7 1.5 1.5 1.5c4.4 0 8.4.1 11.8.1h1.9v-3z"/><path d="m85.4 44.8c-2.2 0-4.6 0-7-.1-.8 0-1.5.6-1.5 1.5 0 .8.6 1.5 1.5 1.5 2.5.1 4.9.1 7.1.1h13.7v-3z"/><path d="m97.2 56.6c-3.4 0-7.4 0-11.8 0-.9 0-1.5.7-1.5 1.5s.7 1.5 1.5 1.5h11.8 1.9v-3z"/></g></svg>