<?xml version="1.0" encoding="utf-8"?>
<!-- Generator: Adobe Illustrator 23.0.2, SVG Export Plug-In . SVG Version: 6.00 Build 0)  -->
<svg version="1.1" id="Layer_1" xmlns="http://www.w3.org/2000/svg" xmlns:xlink="http://www.w3.org/1999/xlink" x="0px" y="0px"
	 viewBox="0 0 110.86 127.99" style="enable-background:new 0 0 110.86 127.99;" xml:space="preserve">
<style type="text/css">
	.st0{fill:#F3862B;}
	.st1{fill:#0D023B;}
	.st2{fill:#FFFFFF;fill-opacity:0.15;}
	.st3{clip-path:url(#SVGID_2_);fill:#483B7A;}
	.st4{opacity:0.9;enable-background:new    ;}
	.st5{fill:#2C1F59;}
	.st6{clip-path:url(#XMLID_4_);fill:#FFFFFF;}
	.st7{clip-path:url(#XMLID_5_);fill:#F4F4F4;}
	.st8{fill:#F05A0E;}
	.st9{fill:#FFFFFF;}
	.st10{fill:#FFB273;}
	.st11{fill:#DE521F;}
	.st12{fill:#F37A24;}
	.st13{display:none;fill:#F37A24;}
	.st14{fill:#F1641C;}
</style>
<g id="Layer_63_8_">
	<polygon class="st0" points="110.85,32 110.85,96 55.43,128 11.08,102.4 10.88,102.28 0,96 0,32 55.43,0 	"/>
</g>
<g id="Layer_63_7_">
	<polygon class="st1" points="101.57,37.43 101.57,90.56 55.56,117.13 9.54,90.56 9.54,37.43 55.56,10.86 	"/>
</g>
<g id="Layer_2">
	<path class="st2" d="M70.19,62.01c-2.78-0.9-5.75-1.39-8.84-1.39c-13.18,0-24.24,8.86-27.33,20.83c-0.21-1.21-0.32-2.45-0.32-3.72
		c0-11.95,9.69-21.63,21.63-21.63C61.08,56.1,66.31,58.35,70.19,62.01z"/>
	<g id="Layer_63_1_">
		<g>
			<defs>
				<polygon id="SVGID_1_" points="101.44,37.43 101.44,90.56 55.43,117.13 9.42,90.56 9.42,37.43 55.43,10.86 				"/>
			</defs>
			<use xlink:href="#SVGID_1_"  style="overflow:visible;fill:#190C3C;"/>
			<clipPath id="SVGID_2_">
				<use xlink:href="#SVGID_1_"  style="overflow:visible;"/>
			</clipPath>
			<rect x="-52.63" y="15.75" class="st3" width="195.18" height="1.59"/>
			<rect x="-52.27" y="19.55" class="st3" width="195.18" height="1.59"/>
			<rect x="-51.92" y="23.34" class="st3" width="195.18" height="1.59"/>
			<rect x="-51.57" y="27.13" class="st3" width="195.18" height="1.59"/>
			<rect x="-51.21" y="30.93" class="st3" width="195.18" height="1.59"/>
			<rect x="-50.86" y="34.72" class="st3" width="195.18" height="1.59"/>
			<rect x="-50.51" y="38.52" class="st3" width="195.18" height="1.59"/>
			<rect x="-50.16" y="42.31" class="st3" width="195.18" height="1.59"/>
			<rect x="-49.8" y="46.1" class="st3" width="195.18" height="1.59"/>
			<rect x="-49.45" y="49.9" class="st3" width="195.18" height="1.59"/>
			<rect x="-49.1" y="53.69" class="st3" width="195.18" height="1.59"/>
			<rect x="-48.74" y="57.49" class="st3" width="195.18" height="1.59"/>
			<rect x="-48.39" y="61.28" class="st3" width="195.18" height="1.59"/>
			<rect x="-48.04" y="65.07" class="st3" width="195.18" height="1.59"/>
			<rect x="-47.69" y="68.87" class="st3" width="195.18" height="1.59"/>
			<rect x="-47.33" y="72.66" class="st3" width="195.18" height="1.59"/>
			<rect x="-46.98" y="76.46" class="st3" width="195.18" height="1.59"/>
			<rect x="-46.63" y="80.25" class="st3" width="195.18" height="1.59"/>
			<rect x="-46.27" y="84.05" class="st3" width="195.18" height="1.59"/>
			<rect x="-45.92" y="87.84" class="st3" width="195.18" height="1.59"/>
			<rect x="-45.57" y="91.63" class="st3" width="195.18" height="1.59"/>
			<rect x="-45.21" y="95.43" class="st3" width="195.18" height="1.59"/>
			<rect x="-44.86" y="99.22" class="st3" width="195.18" height="1.59"/>
			<rect x="-44.51" y="103.02" class="st3" width="195.18" height="1.59"/>
			<rect x="-44.16" y="106.81" class="st3" width="195.18" height="1.59"/>
			<rect x="-43.8" y="110.6" class="st3" width="195.18" height="1.59"/>
			<rect x="-43.45" y="114.4" class="st3" width="195.18" height="1.59"/>
			<rect x="-43.1" y="118.19" class="st3" width="195.18" height="1.59"/>
		</g>
	</g>
</g>
<g id="Layer_63_6_" class="st4">
	<path class="st5" d="M55.42,10.86L9.41,37.43v53.13l46.01,26.57l46.01-26.57V37.43L55.42,10.86z M99.72,89.5L55.54,115L11.36,89.5
		V38.49l44.18-25.51l44.18,25.51V89.5z"/>
</g>
<g>
	<g>
		<g>
			<defs>
				<polygon id="XMLID_9_" points="79.13,35.5 79.13,62.27 55.43,94.97 31.73,62.27 31.73,35.5 				"/>
			</defs>
			<use xlink:href="#XMLID_9_"  style="overflow:visible;fill:#226786;"/>
			<clipPath id="XMLID_4_">
				<use xlink:href="#XMLID_9_"  style="overflow:visible;"/>
			</clipPath>
			<rect x="46.56" y="23.22" class="st6" width="17.75" height="80.04"/>
		</g>
		<g>
			<defs>
				<polygon id="XMLID_8_" points="79.13,35.5 79.13,62.27 55.43,94.97 31.73,62.27 31.73,35.5 				"/>
			</defs>
			<clipPath id="XMLID_5_">
				<use xlink:href="#XMLID_8_"  style="overflow:visible;"/>
			</clipPath>
			<rect x="46.56" y="23.22" class="st7" width="17.75" height="80.04"/>
		</g>
		<g>
			<defs>
				<polygon id="XMLID_7_" points="79.13,35.5 79.13,62.27 55.43,94.97 31.73,62.27 31.73,35.5 				"/>
			</defs>
			<clipPath id="XMLID_6_">
				<use xlink:href="#XMLID_7_"  style="overflow:visible;"/>
			</clipPath>
		</g>
	</g>
	<path class="st8" d="M79.21,37.53H31.65c-1.46,0-2.64-1.18-2.64-2.64v-0.55c0-1.46,1.18-2.64,2.64-2.64h47.56
		c1.46,0,2.64,1.18,2.64,2.64v0.55C81.85,36.35,80.67,37.53,79.21,37.53z"/>
	<path class="st0" d="M79.21,36.85H31.65c-1.46,0-2.64-1.18-2.64-2.64v-0.55c0-1.46,1.18-2.64,2.64-2.64h47.56
		c1.46,0,2.64,1.18,2.64,2.64v0.55C81.85,35.67,80.67,36.85,79.21,36.85z"/>
	<path class="st9" d="M56.42,33.94h20.36c0.55,0,0.99-0.44,0.99-0.99v0c0-0.55-0.44-0.99-0.99-0.99H56.42
		c-0.55,0-0.99,0.44-0.99,0.99v0C55.43,33.5,55.87,33.94,56.42,33.94z"/>
	<path class="st9" d="M45.98,33.94h7.04c0.35,0,0.64-0.29,0.64-0.64v-0.7c0-0.35-0.29-0.64-0.64-0.64h-7.04
		c-0.35,0-0.64,0.29-0.64,0.64v0.7C45.34,33.65,45.62,33.94,45.98,33.94z"/>
	<circle class="st8" cx="55.43" cy="82.84" r="23.99"/>
	<circle class="st0" cx="55.43" cy="81.39" r="23.99"/>
	<circle class="st10" cx="55.43" cy="82.06" r="17.45"/>
	<path class="st11" d="M72.88,81.74c0,0.25-0.01,0.5-0.02,0.75c-0.39-9.29-8.05-16.7-17.44-16.7c-9.39,0-17.05,7.41-17.44,16.7
		c-0.01-0.25-0.02-0.5-0.02-0.75c0-9.64,7.81-17.45,17.45-17.45C65.07,64.29,72.88,72.1,72.88,81.74z"/>
	<g>
		<g>
			<g>
				<path class="st12" d="M63.81,70.99c0.66,0.64,0.78,1.64,0.78,1.64s-0.96-0.03-1.62-0.67c-0.66-0.64-0.78-1.64-0.78-1.64
					S63.15,70.35,63.81,70.99z"/>
				<g>
					<g>
						<path class="st12" d="M59.14,94.46c-0.57,0.77-0.61,1.68-0.6,1.69c0,0.01,1.2-0.34,1.74-1.19c0.54-0.84,0.28-1.71,0.28-1.71
							C60.57,93.25,59.71,93.69,59.14,94.46z"/>
						<path class="st12" d="M59.99,97.13c-1.06-0.19-1.45-1.03-1.45-1.02c0.01,0,1.14-0.34,2.12-0.22c0.98,0.13,1.56,0.77,1.56,0.78
							C62.23,96.67,61.05,97.32,59.99,97.13z"/>
					</g>
					<g>
						<path class="st12" d="M61.23,93.49c-0.39,0.85-0.25,1.73-0.24,1.73c0,0.01,1.06-0.54,1.41-1.46c0.36-0.91-0.05-1.7-0.04-1.7
							C62.35,92.07,61.62,92.65,61.23,93.49z"/>
						<path class="st12" d="M62.52,95.92c-1.03,0-1.55-0.74-1.55-0.73c0.01,0,1-0.53,1.95-0.58c0.95-0.05,1.62,0.47,1.62,0.47
							C64.56,95.08,63.55,95.92,62.52,95.92z"/>
					</g>
					<g>
						<path class="st12" d="M63.03,92.19c-0.22,0.89,0.07,1.72,0.08,1.72c0,0.01,0.91-0.71,1.09-1.66c0.18-0.94-0.35-1.64-0.34-1.64
							C63.86,90.61,63.25,91.31,63.03,92.19z"/>
						<path class="st12" d="M64.7,94.31c-0.98,0.19-1.61-0.44-1.61-0.43c0.01,0,0.86-0.69,1.76-0.91c0.91-0.22,1.65,0.16,1.65,0.16
							C66.51,93.13,65.69,94.13,64.7,94.31z"/>
					</g>
					<g>
						<path class="st12" d="M64.53,90.6c-0.06,0.9,0.37,1.65,0.38,1.65c0,0.01,0.75-0.85,0.76-1.81c0.02-0.95-0.61-1.53-0.61-1.54
							C65.07,88.91,64.6,89.7,64.53,90.6z"/>
						<path class="st12" d="M66.51,92.36c-0.91,0.36-1.63-0.13-1.63-0.13c0.01,0,0.71-0.82,1.54-1.21c0.84-0.38,1.63-0.15,1.63-0.14
							C68.07,90.88,67.44,92,66.51,92.36z"/>
					</g>
					<g>
						<path class="st12" d="M65.72,88.78c0.09,0.89,0.64,1.54,0.64,1.54c0,0.01,0.59-0.97,0.45-1.91c-0.14-0.93-0.85-1.38-0.84-1.39
							C65.97,87.03,65.64,87.89,65.72,88.78z"/>
						<path class="st12" d="M67.94,90.12c-0.83,0.52-1.61,0.17-1.6,0.18c0.01,0,0.55-0.93,1.3-1.46c0.76-0.53,1.57-0.45,1.57-0.44
							C69.22,88.39,68.79,89.6,67.94,90.12z"/>
					</g>
					<g>
						<path class="st12" d="M66.59,86.78c0.23,0.86,0.87,1.39,0.88,1.38c0,0.01,0.42-1.05,0.13-1.95c-0.28-0.89-1.05-1.2-1.04-1.2
							C66.56,85.02,66.37,85.93,66.59,86.78z"/>
						<path class="st12" d="M68.98,87.68c-0.73,0.66-1.54,0.47-1.54,0.47c0.01,0,0.39-1.01,1.04-1.67c0.66-0.66,1.46-0.73,1.47-0.73
							C69.96,85.75,69.72,87.01,68.98,87.68z"/>
					</g>
					<g>
						<path class="st12" d="M67.13,84.66c0.36,0.8,1.07,1.2,1.08,1.19c0.01,0.01,0.24-1.11-0.18-1.94
							c-0.42-0.82-1.22-0.98-1.21-0.99C66.82,82.93,66.77,83.86,67.13,84.66z"/>
						<path class="st12" d="M69.61,85.09c-0.61,0.79-1.44,0.75-1.43,0.75c0.01-0.01,0.22-1.06,0.76-1.84c0.54-0.78,1.32-1,1.32-0.99
							C70.26,83,70.23,84.3,69.61,85.09z"/>
					</g>
					<g>
						<path class="st12" d="M67.31,82.46c0.48,0.72,1.24,0.98,1.24,0.97c0.01,0.01,0.06-1.14-0.49-1.88
							c-0.54-0.73-1.35-0.74-1.35-0.75C66.73,80.82,66.84,81.75,67.31,82.46z"/>
						<path class="st12" d="M69.81,82.42c-0.47,0.89-1.29,1.01-1.28,1.01c0.01-0.01,0.05-1.09,0.45-1.96
							c0.41-0.87,1.13-1.24,1.13-1.23C70.11,80.24,70.29,81.53,69.81,82.42z"/>
					</g>
					<g>
						<path class="st12" d="M67.14,80.26c0.59,0.62,1.38,0.74,1.38,0.73c0.01,0.01-0.13-1.14-0.79-1.77
							c-0.65-0.63-1.45-0.49-1.45-0.49C66.29,78.73,66.56,79.64,67.14,80.26z"/>
						<path class="st12" d="M69.58,79.75c-0.31,0.97-1.1,1.24-1.09,1.25c0-0.01-0.13-1.09,0.11-2.03c0.25-0.95,0.89-1.45,0.89-1.44
							C69.5,77.51,69.9,78.76,69.58,79.75z"/>
					</g>
					<g>
						<path class="st12" d="M66.59,78.09c0.69,0.51,1.47,0.48,1.48,0.47c0.01,0.01-0.32-1.11-1.09-1.62
							c-0.76-0.51-1.51-0.22-1.51-0.23C65.48,76.72,65.91,77.58,66.59,78.09z"/>
						<path class="st12" d="M68.89,77.12c-0.14,1.03-0.86,1.45-0.85,1.45c0-0.01-0.32-1.06-0.25-2.05c0.07-0.99,0.6-1.62,0.61-1.61
							C68.41,74.9,69.03,76.08,68.89,77.12z"/>
					</g>
					<g>
						<path class="st12" d="M65.66,76.02c0.77,0.39,1.54,0.21,1.54,0.2c0.01,0-0.52-1.06-1.38-1.43c-0.85-0.37-1.54,0.05-1.54,0.05
							C64.29,74.83,64.89,75.63,65.66,76.02z"/>
						<path class="st12" d="M67.73,74.62c0.06,1.06-0.57,1.61-0.56,1.61c0-0.01-0.51-1-0.63-2.01c-0.12-1.02,0.27-1.74,0.28-1.74
							C66.82,72.47,67.68,73.55,67.73,74.62z"/>
					</g>
					<g>
						<path class="st12" d="M64.32,74.1c0.85,0.25,1.56-0.07,1.56-0.08c0.01,0-0.73-0.97-1.66-1.2c-0.92-0.23-1.53,0.33-1.53,0.32
							C62.71,73.14,63.49,73.84,64.32,74.1z"/>
						<path class="st12" d="M66.09,72.31c0.28,1.06-0.24,1.73-0.23,1.73c0-0.01-0.7-0.92-1.05-1.92c-0.34-1.01-0.11-1.82-0.1-1.82
							C64.72,70.29,65.82,71.23,66.09,72.31z"/>
					</g>
				</g>
				<g>
					<path class="st12" d="M67.87,77.33c-0.76-2.31-2.13-4.13-4.05-5.38l-0.1,0.17c1.88,1.23,3.22,3.01,3.97,5.28
						c0.7,2.12,0.88,4.6,0.53,7.4c-0.42,3.41-2.02,6.47-4.5,8.61c-1.2,1.03-2.53,1.8-3.98,2.29C59.37,95.81,59,95.92,58.63,96
						c0.02,0.06,0.03,0.13,0.03,0.19c0.38-0.09,0.76-0.19,1.13-0.32c1.47-0.5,2.83-1.28,4.04-2.33c2.52-2.17,4.14-5.28,4.57-8.74
						C68.76,81.99,68.58,79.47,67.87,77.33z"/>
				</g>
			</g>
			<g>
				<path class="st12" d="M47.02,70.99c-0.66,0.64-0.78,1.64-0.78,1.64s0.96-0.03,1.62-0.67c0.66-0.64,0.78-1.64,0.78-1.64
					S47.68,70.35,47.02,70.99z"/>
				<g>
					<g>
						<path class="st12" d="M52.28,96.11C52.28,96.11,52.28,96.1,52.28,96.11c-0.01-0.19-0.09-0.97-0.6-1.65
							c-0.57-0.76-1.42-1.21-1.43-1.22c0.01,0-0.25,0.87,0.28,1.71c0.51,0.8,1.59,1.16,1.72,1.19
							C52.27,96.13,52.28,96.12,52.28,96.11z"/>
						<path class="st12" d="M52.28,96.11C52.28,96.11,52.28,96.11,52.28,96.11c-0.08-0.02-1.17-0.34-2.11-0.22
							c-0.98,0.13-1.56,0.77-1.56,0.78c-0.01,0,1.16,0.66,2.23,0.46c0.82-0.15,1.24-0.69,1.39-0.91
							C52.25,96.18,52.26,96.14,52.28,96.11z"/>
					</g>
					<g>
						<path class="st12" d="M49.6,93.49c0.39,0.85,0.25,1.73,0.24,1.73c0,0.01-1.06-0.54-1.41-1.46c-0.36-0.91,0.05-1.7,0.04-1.7
							C48.48,92.07,49.21,92.65,49.6,93.49z"/>
						<path class="st12" d="M48.31,95.92c1.03,0,1.55-0.74,1.55-0.73c-0.01,0-1-0.53-1.95-0.58c-0.95-0.05-1.62,0.47-1.62,0.47
							C46.27,95.08,47.28,95.92,48.31,95.92z"/>
					</g>
					<g>
						<path class="st12" d="M47.8,92.19c0.22,0.89-0.07,1.72-0.08,1.72c0,0.01-0.91-0.71-1.09-1.66c-0.18-0.94,0.35-1.64,0.34-1.64
							C46.97,90.61,47.58,91.31,47.8,92.19z"/>
						<path class="st12" d="M46.13,94.31c0.98,0.19,1.61-0.44,1.61-0.43c-0.01,0-0.86-0.69-1.76-0.91
							c-0.91-0.22-1.65,0.16-1.65,0.16C44.32,93.13,45.14,94.13,46.13,94.31z"/>
					</g>
					<g>
						<path class="st12" d="M46.3,90.6c0.06,0.9-0.37,1.65-0.38,1.65c0,0.01-0.75-0.85-0.76-1.81c-0.02-0.95,0.61-1.53,0.61-1.54
							C45.76,88.91,46.23,89.7,46.3,90.6z"/>
						<path class="st12" d="M44.32,92.36c0.91,0.36,1.63-0.13,1.63-0.13c-0.01,0-0.71-0.82-1.54-1.21
							c-0.84-0.38-1.63-0.15-1.63-0.14C42.76,90.88,43.39,92,44.32,92.36z"/>
					</g>
					<g>
						<path class="st12" d="M45.1,88.78c-0.09,0.89-0.64,1.54-0.64,1.54c0,0.01-0.59-0.97-0.45-1.91c0.14-0.93,0.85-1.38,0.84-1.39
							C44.86,87.03,45.19,87.89,45.1,88.78z"/>
						<path class="st12" d="M42.89,90.12c0.83,0.52,1.61,0.17,1.6,0.18c-0.01,0-0.55-0.93-1.3-1.46c-0.76-0.53-1.57-0.45-1.57-0.44
							C41.6,88.39,42.04,89.6,42.89,90.12z"/>
					</g>
					<g>
						<path class="st12" d="M44.24,86.78c-0.23,0.86-0.87,1.39-0.88,1.38c0,0.01-0.42-1.05-0.13-1.95c0.28-0.89,1.05-1.2,1.04-1.2
							C44.27,85.02,44.46,85.93,44.24,86.78z"/>
						<path class="st12" d="M41.85,87.68c0.73,0.66,1.54,0.47,1.54,0.47c-0.01,0-0.39-1.01-1.04-1.67
							c-0.66-0.66-1.46-0.73-1.47-0.73C40.87,85.75,41.11,87.01,41.85,87.68z"/>
					</g>
					<g>
						<path class="st12" d="M43.7,84.66c-0.36,0.8-1.07,1.2-1.08,1.19c-0.01,0.01-0.24-1.11,0.18-1.94
							c0.42-0.82,1.22-0.98,1.21-0.99C44.01,82.93,44.06,83.86,43.7,84.66z"/>
						<path class="st12" d="M41.22,85.09c0.61,0.79,1.44,0.75,1.43,0.75c-0.01-0.01-0.22-1.06-0.76-1.84
							c-0.54-0.78-1.32-1-1.32-0.99C40.57,83,40.6,84.3,41.22,85.09z"/>
					</g>
					<g>
						<path class="st12" d="M43.51,82.46c-0.48,0.72-1.24,0.98-1.24,0.97c-0.01,0.01-0.06-1.14,0.49-1.88
							c0.54-0.73,1.35-0.74,1.35-0.75C44.1,80.82,43.99,81.75,43.51,82.46z"/>
						<path class="st12" d="M41.02,82.42c0.47,0.89,1.29,1.01,1.28,1.01c-0.01-0.01-0.05-1.09-0.45-1.96
							c-0.41-0.87-1.13-1.24-1.13-1.23C40.72,80.24,40.53,81.53,41.02,82.42z"/>
					</g>
					<g>
						<path class="st12" d="M43.69,80.26c-0.59,0.62-1.38,0.74-1.38,0.73c-0.01,0.01,0.13-1.14,0.79-1.77
							c0.65-0.63,1.45-0.49,1.45-0.49C44.54,78.73,44.27,79.64,43.69,80.26z"/>
						<path class="st12" d="M41.25,79.75c0.31,0.97,1.1,1.24,1.09,1.25c0-0.01,0.13-1.09-0.11-2.03c-0.25-0.95-0.89-1.45-0.89-1.44
							C41.33,77.51,40.93,78.76,41.25,79.75z"/>
					</g>
					<g>
						<path class="st12" d="M44.24,78.09c-0.69,0.51-1.47,0.48-1.48,0.47c-0.01,0.01,0.32-1.11,1.09-1.62
							c0.76-0.51,1.51-0.22,1.51-0.23C45.35,76.72,44.92,77.58,44.24,78.09z"/>
						<path class="st12" d="M41.94,77.12c0.14,1.03,0.86,1.45,0.85,1.45c0-0.01,0.32-1.06,0.25-2.05c-0.07-0.99-0.6-1.62-0.61-1.61
							C42.42,74.9,41.8,76.08,41.94,77.12z"/>
					</g>
					<g>
						<path class="st12" d="M45.17,76.02c-0.77,0.39-1.54,0.21-1.54,0.2c-0.01,0,0.52-1.06,1.38-1.43c0.85-0.37,1.54,0.05,1.54,0.05
							C46.54,74.83,45.94,75.63,45.17,76.02z"/>
						<path class="st12" d="M43.1,74.62c-0.06,1.06,0.57,1.61,0.56,1.61c0-0.01,0.51-1,0.63-2.01c0.12-1.02-0.27-1.74-0.28-1.74
							C44.01,72.47,43.15,73.55,43.1,74.62z"/>
					</g>
					<g>
						<path class="st12" d="M46.51,74.1c-0.85,0.25-1.56-0.07-1.56-0.08c-0.01,0,0.73-0.97,1.66-1.2c0.92-0.23,1.53,0.33,1.53,0.32
							C48.12,73.14,47.34,73.84,46.51,74.1z"/>
						<path class="st12" d="M44.74,72.31c-0.28,1.06,0.24,1.73,0.23,1.73c0-0.01,0.7-0.92,1.05-1.92c0.34-1.01,0.11-1.82,0.1-1.82
							C46.11,70.29,45.01,71.23,44.74,72.31z"/>
					</g>
				</g>
				<g>
					<path class="st12" d="M52.29,96.11c0-0.03,0.01-0.06,0.01-0.08c-0.4-0.09-0.81-0.2-1.2-0.33c-1.45-0.49-2.79-1.26-3.98-2.29
						c-2.48-2.14-4.08-5.2-4.5-8.61c-0.35-2.79-0.17-5.28,0.53-7.4c0.75-2.27,2.09-4.05,3.97-5.28l-0.1-0.17
						c-1.92,1.26-3.28,3.07-4.05,5.38c-0.71,2.14-0.89,4.66-0.54,7.49c0.43,3.46,2.05,6.56,4.57,8.74c1.21,1.05,2.57,1.83,4.04,2.33
						c0.39,0.13,0.79,0.24,1.19,0.33C52.25,96.17,52.26,96.14,52.29,96.11z"/>
				</g>
			</g>
		</g>
		<polygon class="st13" points="55.36,95.42 53.95,96.51 55.36,97.6 56.77,96.51 		"/>
	</g>
	<path class="st14" d="M51.45,90.05v-2.34h3.09V76.1c-1.27,0.63-2.27,0.87-3.19,0.87v-2.09c2.13-0.07,4.05-1.17,4.99-2.63h1.66
		v15.45h3.07v2.34H51.45z"/>
	<path class="st12" d="M50.81,89.63v-2.34h3.09v-11.6c-1.27,0.63-2.27,0.87-3.19,0.87v-2.09c2.13-0.07,4.05-1.17,4.99-2.63h1.66
		v15.45h3.07v2.34H50.81z"/>
</g>
</svg>
