<?xml version="1.0" encoding="utf-8"?>
<!-- Generator: Adobe Illustrator 23.0.2, SVG Export Plug-In . SVG Version: 6.00 Build 0)  -->
<svg version="1.1" id="Layer_1" xmlns="http://www.w3.org/2000/svg" xmlns:xlink="http://www.w3.org/1999/xlink" x="0px" y="0px"
	 viewBox="0 0 110.86 127.99" style="enable-background:new 0 0 110.86 127.99;" xml:space="preserve">
<style type="text/css">
	.st0{fill:#9D9D9D;}
	.st1{clip-path:url(#SVGID_2_);fill:#483B7A;}
	.st2{opacity:0.3;enable-background:new    ;}
	.st3{clip-path:url(#XMLID_5_);fill:#FFFFFF;}
	.st4{clip-path:url(#XMLID_9_);fill:#F4F4F4;}
	.st5{fill:#7F7F7F;}
	.st6{fill:#FFFFFF;}
	.st7{fill:#C1C1C1;}
	.st8{fill:#707070;}
	.st9{fill:#FFFFFF;fill-opacity:0.15;}
	.st10{display:none;fill:#7F7F7F;}
	.st11{fill:#5B5B5B;}
	.st12{fill:#717171;}
</style>
<g id="Layer_63_8_">
	<polygon class="st0" points="110.85,31 110.85,95 55.43,127 11.08,101.4 10.88,101.28 0,95 0,31 55.43,-1 	"/>
</g>
<g id="Layer_63_7_">
	<g>
		<defs>
			<polygon id="SVGID_1_" points="101.43,37.43 101.43,90.56 55.43,117.13 9.41,90.56 9.41,37.43 55.43,10.86 			"/>
		</defs>
		<use xlink:href="#SVGID_1_"  style="overflow:visible;fill:#190C3C;"/>
		<clipPath id="SVGID_2_">
			<use xlink:href="#SVGID_1_"  style="overflow:visible;"/>
		</clipPath>
		<rect x="-52.64" y="15.75" class="st1" width="195.18" height="1.59"/>
		<rect x="-52.28" y="19.55" class="st1" width="195.18" height="1.59"/>
		<rect x="-51.93" y="23.34" class="st1" width="195.18" height="1.59"/>
		<rect x="-51.58" y="27.13" class="st1" width="195.18" height="1.59"/>
		<rect x="-51.22" y="30.93" class="st1" width="195.18" height="1.59"/>
		<rect x="-50.87" y="34.72" class="st1" width="195.18" height="1.59"/>
		<rect x="-50.52" y="38.52" class="st1" width="195.18" height="1.59"/>
		<rect x="-50.16" y="42.31" class="st1" width="195.18" height="1.59"/>
		<rect x="-49.81" y="46.1" class="st1" width="195.18" height="1.59"/>
		<rect x="-49.46" y="49.9" class="st1" width="195.18" height="1.59"/>
		<rect x="-49.11" y="53.69" class="st1" width="195.18" height="1.59"/>
		<rect x="-48.75" y="57.49" class="st1" width="195.18" height="1.59"/>
		<rect x="-48.4" y="61.28" class="st1" width="195.18" height="1.59"/>
		<rect x="-48.05" y="65.07" class="st1" width="195.18" height="1.59"/>
		<rect x="-47.69" y="68.87" class="st1" width="195.18" height="1.59"/>
		<rect x="-47.34" y="72.66" class="st1" width="195.18" height="1.59"/>
		<rect x="-46.99" y="76.46" class="st1" width="195.18" height="1.59"/>
		<rect x="-46.64" y="80.25" class="st1" width="195.18" height="1.59"/>
		<rect x="-46.28" y="84.05" class="st1" width="195.18" height="1.59"/>
		<rect x="-45.93" y="87.84" class="st1" width="195.18" height="1.59"/>
		<rect x="-45.58" y="91.63" class="st1" width="195.18" height="1.59"/>
		<rect x="-45.22" y="95.43" class="st1" width="195.18" height="1.59"/>
		<rect x="-44.87" y="99.22" class="st1" width="195.18" height="1.59"/>
		<rect x="-44.52" y="103.02" class="st1" width="195.18" height="1.59"/>
		<rect x="-44.16" y="106.81" class="st1" width="195.18" height="1.59"/>
		<rect x="-43.81" y="110.6" class="st1" width="195.18" height="1.59"/>
		<rect x="-43.46" y="114.4" class="st1" width="195.18" height="1.59"/>
		<rect x="-43.11" y="118.19" class="st1" width="195.18" height="1.59"/>
	</g>
</g>
<g id="Layer_63_6_" class="st2">
	<path d="M55.42,10.86L9.41,37.43v53.13l46.01,26.57l46.01-26.57V37.43L55.42,10.86z M99.72,89.5L55.54,115L11.36,89.5V38.49
		l44.18-25.51l44.18,25.51V89.5z"/>
</g>
<g>
	<g>
		<defs>
			<polygon id="XMLID_8_" points="79.1,35.45 79.1,62.19 55.43,94.85 31.76,62.19 31.76,35.45 			"/>
		</defs>
		<use xlink:href="#XMLID_8_"  style="overflow:visible;fill:#226786;"/>
		<clipPath id="XMLID_5_">
			<use xlink:href="#XMLID_8_"  style="overflow:visible;"/>
		</clipPath>
		<rect x="46.57" y="23.19" class="st3" width="17.72" height="79.93"/>
	</g>
	<g>
		<defs>
			<polygon id="XMLID_7_" points="79.1,35.45 79.1,62.19 55.43,94.85 31.76,62.19 31.76,35.45 			"/>
		</defs>
		<clipPath id="XMLID_9_">
			<use xlink:href="#XMLID_7_"  style="overflow:visible;"/>
		</clipPath>
		<rect x="46.57" y="23.19" class="st4" width="17.72" height="79.93"/>
	</g>
	<g>
		<defs>
			<polygon id="XMLID_6_" points="79.1,35.45 79.1,62.19 55.43,94.85 31.76,62.19 31.76,35.45 			"/>
		</defs>
		<clipPath id="XMLID_10_">
			<use xlink:href="#XMLID_6_"  style="overflow:visible;"/>
		</clipPath>
	</g>
</g>
<path class="st5" d="M79.18,37.48h-47.5c-1.45,0-2.63-1.18-2.63-2.63V34.3c0-1.45,1.18-2.63,2.63-2.63h47.5
	c1.45,0,2.63,1.18,2.63,2.63v0.55C81.81,36.3,80.63,37.48,79.18,37.48z"/>
<path class="st0" d="M79.18,36.8h-47.5c-1.45,0-2.63-1.18-2.63-2.63v-0.55c0-1.45,1.18-2.63,2.63-2.63h47.5
	c1.45,0,2.63,1.18,2.63,2.63v0.55C81.81,35.62,80.63,36.8,79.18,36.8z"/>
<path class="st6" d="M59.26,33.9H79.6c0.55,0,0.99-0.44,0.99-0.99v0c0-0.55-0.44-0.99-0.99-0.99H59.26c-0.55,0-0.99,0.44-0.99,0.99
	v0C58.27,33.45,58.72,33.9,59.26,33.9z"/>
<path class="st6" d="M47.92,33.9h7.03c0.35,0,0.64-0.29,0.64-0.64v-0.69c0-0.35-0.29-0.64-0.64-0.64h-7.03
	c-0.35,0-0.64,0.29-0.64,0.64v0.69C47.28,33.61,47.56,33.9,47.92,33.9z"/>
<circle class="st0" cx="55.43" cy="81.28" r="23.95"/>
<circle class="st0" cx="55.43" cy="82.67" r="23.95"/>
<circle class="st7" cx="55.43" cy="82.23" r="17.43"/>
<path class="st8" d="M72.86,81.63c0,0.25-0.01,0.5-0.02,0.75C72.45,73.1,64.8,65.7,55.43,65.7c-9.38,0-17.02,7.4-17.42,16.68
	c-0.01-0.25-0.02-0.5-0.02-0.75c0-9.63,7.8-17.43,17.43-17.43C65.06,64.2,72.86,72.01,72.86,81.63z"/>
<path class="st9" d="M72.16,64.37c-3.08-1-6.37-1.54-9.79-1.54c-14.59,0-26.84,9.81-30.26,23.07c-0.23-1.34-0.35-2.72-0.35-4.12
	c0-13.23,10.72-23.95,23.95-23.95C62.08,57.83,67.87,60.31,72.16,64.37z"/>
<g>
	<g>
		<g>
			<path class="st5" d="M63.82,70.89c0.66,0.64,0.78,1.63,0.78,1.63s-0.96-0.03-1.62-0.67c-0.66-0.64-0.78-1.63-0.78-1.63
				S63.15,70.26,63.82,70.89z"/>
			<g>
				<g>
					<path class="st5" d="M59.15,94.33c-0.57,0.77-0.61,1.68-0.6,1.68c0,0.01,1.2-0.34,1.74-1.19c0.54-0.84,0.28-1.71,0.28-1.71
						C60.57,93.12,59.72,93.57,59.15,94.33z"/>
					<path class="st5" d="M59.99,97c-1.05-0.19-1.45-1.03-1.45-1.02c0.01,0,1.14-0.34,2.11-0.22c0.98,0.13,1.56,0.77,1.56,0.77
						C62.24,96.54,61.06,97.19,59.99,97z"/>
				</g>
				<g>
					<path class="st5" d="M61.24,93.37c-0.39,0.84-0.25,1.73-0.24,1.73c0,0.01,1.05-0.54,1.41-1.46c0.36-0.91-0.05-1.7-0.04-1.7
						C62.36,91.95,61.63,92.53,61.24,93.37z"/>
					<path class="st5" d="M62.52,95.8c-1.02,0-1.55-0.74-1.54-0.73c0.01,0,1-0.53,1.95-0.58c0.95-0.05,1.62,0.46,1.62,0.47
						C64.56,94.96,63.56,95.79,62.52,95.8z"/>
				</g>
				<g>
					<path class="st5" d="M63.03,92.07c-0.22,0.89,0.07,1.72,0.08,1.72c0,0.01,0.9-0.71,1.08-1.66c0.18-0.94-0.35-1.64-0.34-1.64
						C63.86,90.49,63.26,91.19,63.03,92.07z"/>
					<path class="st5" d="M64.7,94.19c-0.98,0.19-1.61-0.44-1.6-0.43c0.01,0,0.86-0.69,1.75-0.91c0.91-0.22,1.64,0.16,1.65,0.16
						C66.51,93.01,65.69,94,64.7,94.19z"/>
				</g>
				<g>
					<path class="st5" d="M64.53,90.48c-0.06,0.9,0.37,1.65,0.38,1.65c0,0.01,0.75-0.85,0.76-1.81c0.02-0.95-0.61-1.53-0.6-1.53
						C65.07,88.8,64.6,89.58,64.53,90.48z"/>
					<path class="st5" d="M66.51,92.23c-0.91,0.36-1.63-0.13-1.62-0.13c0.01,0,0.7-0.82,1.54-1.2c0.84-0.38,1.63-0.15,1.63-0.14
						C68.07,90.76,67.43,91.87,66.51,92.23z"/>
				</g>
				<g>
					<path class="st5" d="M65.73,88.66c0.09,0.89,0.64,1.54,0.64,1.54c0,0.01,0.59-0.96,0.44-1.9c-0.14-0.93-0.85-1.38-0.84-1.38
						C65.97,86.92,65.64,87.78,65.73,88.66z"/>
					<path class="st5" d="M67.94,90c-0.83,0.52-1.6,0.17-1.6,0.18c0.01,0,0.55-0.93,1.3-1.46c0.76-0.53,1.57-0.45,1.57-0.44
						C69.22,88.28,68.78,89.48,67.94,90z"/>
				</g>
				<g>
					<path class="st5" d="M66.59,86.66c0.23,0.85,0.87,1.39,0.87,1.38c0,0.01,0.42-1.05,0.13-1.94c-0.28-0.89-1.05-1.2-1.04-1.2
						C66.56,84.91,66.37,85.82,66.59,86.66z"/>
					<path class="st5" d="M68.98,87.56c-0.73,0.66-1.54,0.46-1.54,0.47c0.01,0,0.39-1.01,1.04-1.67c0.66-0.66,1.46-0.73,1.47-0.73
						C69.96,85.63,69.72,86.9,68.98,87.56z"/>
				</g>
				<g>
					<path class="st5" d="M67.13,84.54c0.36,0.8,1.07,1.2,1.08,1.19c0.01,0.01,0.24-1.11-0.18-1.93c-0.42-0.82-1.22-0.98-1.21-0.99
						C66.82,82.82,66.77,83.75,67.13,84.54z"/>
					<path class="st5" d="M69.61,84.98c-0.61,0.79-1.44,0.75-1.43,0.75c0.01-0.01,0.22-1.06,0.76-1.83c0.54-0.78,1.32-1,1.32-0.99
						C70.26,82.89,70.23,84.19,69.61,84.98z"/>
				</g>
				<g>
					<path class="st5" d="M67.31,82.35c0.48,0.72,1.24,0.98,1.24,0.97c0.01,0.01,0.06-1.14-0.49-1.88
						c-0.54-0.73-1.35-0.74-1.35-0.75C66.73,80.71,66.84,81.64,67.31,82.35z"/>
					<path class="st5" d="M69.81,82.31c-0.47,0.89-1.29,1.01-1.28,1.01c0.01-0.01,0.05-1.09,0.45-1.95
						c0.41-0.87,1.12-1.24,1.13-1.23C70.11,80.13,70.29,81.42,69.81,82.31z"/>
				</g>
				<g>
					<path class="st5" d="M67.14,80.15c0.59,0.62,1.37,0.74,1.38,0.73c0.01,0.01-0.13-1.14-0.79-1.77
						c-0.65-0.63-1.45-0.49-1.45-0.49C66.29,78.62,66.56,79.53,67.14,80.15z"/>
					<path class="st5" d="M69.57,79.64c-0.31,0.97-1.1,1.24-1.09,1.25c0-0.01-0.13-1.09,0.11-2.02c0.25-0.94,0.89-1.44,0.89-1.44
						C69.5,77.41,69.9,78.66,69.57,79.64z"/>
				</g>
				<g>
					<path class="st5" d="M66.59,77.99c0.69,0.51,1.47,0.48,1.47,0.47c0.01,0.01-0.32-1.11-1.08-1.62
						c-0.75-0.51-1.51-0.22-1.51-0.23C65.48,76.61,65.91,77.48,66.59,77.99z"/>
					<path class="st5" d="M68.89,77.02c-0.14,1.03-0.86,1.45-0.85,1.45c0-0.01-0.32-1.06-0.25-2.04c0.07-0.99,0.6-1.61,0.61-1.61
						C68.4,74.8,69.03,75.98,68.89,77.02z"/>
				</g>
				<g>
					<path class="st5" d="M65.66,75.92c0.77,0.39,1.53,0.21,1.54,0.2c0.01,0-0.52-1.06-1.38-1.43c-0.84-0.37-1.54,0.05-1.54,0.05
						C64.29,74.74,64.9,75.53,65.66,75.92z"/>
					<path class="st5" d="M67.73,74.52c0.06,1.06-0.57,1.61-0.56,1.61c0-0.01-0.51-1-0.63-2.01c-0.12-1.01,0.27-1.74,0.28-1.74
						C66.82,72.37,67.67,73.45,67.73,74.52z"/>
				</g>
				<g>
					<path class="st5" d="M64.32,74c0.84,0.25,1.56-0.07,1.56-0.08c0.01,0-0.73-0.97-1.66-1.2c-0.92-0.23-1.53,0.33-1.52,0.32
						C62.71,73.04,63.49,73.74,64.32,74z"/>
					<path class="st5" d="M66.09,72.21c0.28,1.06-0.24,1.73-0.23,1.73c0-0.01-0.7-0.92-1.05-1.92c-0.34-1.01-0.11-1.81-0.1-1.81
						C64.72,70.2,65.82,71.14,66.09,72.21z"/>
				</g>
			</g>
			<g>
				<path class="st5" d="M67.86,77.22c-0.76-2.31-2.12-4.12-4.04-5.38l-0.1,0.17c1.88,1.23,3.22,3.01,3.97,5.28
					c0.7,2.11,0.88,4.6,0.53,7.39c-0.42,3.41-2.02,6.46-4.5,8.6c-1.19,1.03-2.53,1.8-3.98,2.29c-0.37,0.12-0.74,0.23-1.11,0.31
					c0.02,0.06,0.03,0.13,0.03,0.19c0.38-0.09,0.76-0.19,1.13-0.32c1.47-0.5,2.83-1.28,4.04-2.32c2.51-2.17,4.13-5.27,4.56-8.72
					C68.75,81.88,68.57,79.37,67.86,77.22z"/>
			</g>
		</g>
		<g>
			<path class="st5" d="M47.04,70.89c-0.66,0.64-0.78,1.63-0.78,1.63s0.96-0.03,1.62-0.67c0.66-0.64,0.78-1.63,0.78-1.63
				S47.71,70.26,47.04,70.89z"/>
			<g>
				<g>
					<path class="st5" d="M52.3,95.98C52.3,95.98,52.3,95.98,52.3,95.98c-0.01-0.19-0.09-0.97-0.6-1.65
						c-0.57-0.76-1.42-1.21-1.42-1.21c0.01,0-0.25,0.87,0.28,1.71c0.5,0.8,1.59,1.15,1.72,1.19C52.29,96,52.3,95.99,52.3,95.98z"/>
					<path class="st5" d="M52.3,95.98C52.3,95.98,52.3,95.98,52.3,95.98c-0.08-0.02-1.17-0.34-2.11-0.22
						c-0.98,0.13-1.56,0.77-1.56,0.77c-0.01,0,1.16,0.65,2.23,0.46c0.82-0.15,1.24-0.68,1.38-0.91
						C52.26,96.05,52.28,96.01,52.3,95.98z"/>
				</g>
				<g>
					<path class="st5" d="M49.62,93.37c0.39,0.84,0.25,1.73,0.24,1.73c0,0.01-1.05-0.54-1.41-1.46c-0.36-0.91,0.05-1.7,0.04-1.7
						C48.5,91.95,49.23,92.53,49.62,93.37z"/>
					<path class="st5" d="M48.34,95.8c1.02,0,1.55-0.74,1.54-0.73c-0.01,0-1-0.53-1.95-0.58c-0.95-0.05-1.62,0.46-1.62,0.47
						C46.3,94.96,47.3,95.79,48.34,95.8z"/>
				</g>
				<g>
					<path class="st5" d="M47.83,92.07c0.22,0.89-0.07,1.72-0.08,1.72c0,0.01-0.9-0.71-1.08-1.66C46.48,91.18,47,90.48,47,90.48
						C47,90.49,47.6,91.19,47.83,92.07z"/>
					<path class="st5" d="M46.16,94.19c0.98,0.19,1.61-0.44,1.6-0.43c-0.01,0-0.86-0.69-1.75-0.91c-0.91-0.22-1.64,0.16-1.65,0.16
						C44.35,93.01,45.17,94,46.16,94.19z"/>
				</g>
				<g>
					<path class="st5" d="M46.32,90.48c0.06,0.9-0.37,1.65-0.38,1.65c0,0.01-0.75-0.85-0.76-1.81c-0.02-0.95,0.61-1.53,0.6-1.53
						C45.79,88.8,46.26,89.58,46.32,90.48z"/>
					<path class="st5" d="M44.35,92.23c0.91,0.36,1.63-0.13,1.62-0.13c-0.01,0-0.7-0.82-1.54-1.2c-0.84-0.38-1.63-0.15-1.63-0.14
						C42.79,90.76,43.42,91.87,44.35,92.23z"/>
				</g>
				<g>
					<path class="st5" d="M45.13,88.66c-0.09,0.89-0.64,1.54-0.64,1.54c0,0.01-0.59-0.96-0.44-1.9c0.14-0.93,0.85-1.38,0.84-1.38
						C44.88,86.92,45.22,87.78,45.13,88.66z"/>
					<path class="st5" d="M42.92,90c0.83,0.52,1.6,0.17,1.6,0.18c-0.01,0-0.55-0.93-1.3-1.46c-0.76-0.53-1.57-0.45-1.57-0.44
						C41.64,88.28,42.08,89.48,42.92,90z"/>
				</g>
				<g>
					<path class="st5" d="M44.26,86.66c-0.23,0.85-0.87,1.39-0.87,1.38c0,0.01-0.42-1.05-0.13-1.94c0.28-0.89,1.05-1.2,1.04-1.2
						C44.3,84.91,44.49,85.82,44.26,86.66z"/>
					<path class="st5" d="M41.88,87.56c0.73,0.66,1.54,0.46,1.54,0.47c-0.01,0-0.39-1.01-1.04-1.67c-0.66-0.66-1.46-0.73-1.47-0.73
						C40.9,85.63,41.14,86.9,41.88,87.56z"/>
				</g>
				<g>
					<path class="st5" d="M43.73,84.54c-0.36,0.8-1.07,1.2-1.08,1.19c-0.01,0.01-0.24-1.11,0.18-1.93c0.42-0.82,1.22-0.98,1.21-0.99
						C44.04,82.82,44.09,83.75,43.73,84.54z"/>
					<path class="st5" d="M41.25,84.98c0.61,0.79,1.44,0.75,1.43,0.75c-0.01-0.01-0.22-1.06-0.76-1.83c-0.54-0.78-1.32-1-1.32-0.99
						C40.6,82.89,40.63,84.19,41.25,84.98z"/>
				</g>
				<g>
					<path class="st5" d="M43.55,82.35c-0.48,0.72-1.24,0.98-1.24,0.97c-0.01,0.01-0.06-1.14,0.49-1.88
						c0.54-0.73,1.35-0.74,1.35-0.75C44.13,80.71,44.02,81.64,43.55,82.35z"/>
					<path class="st5" d="M41.05,82.31c0.47,0.89,1.29,1.01,1.28,1.01c-0.01-0.01-0.05-1.09-0.45-1.95
						c-0.41-0.87-1.12-1.24-1.13-1.23C40.75,80.13,40.57,81.42,41.05,82.31z"/>
				</g>
				<g>
					<path class="st5" d="M43.72,80.15c-0.59,0.62-1.37,0.74-1.38,0.73c-0.01,0.01,0.13-1.14,0.79-1.77
						c0.65-0.63,1.45-0.49,1.45-0.49C44.57,78.62,44.3,79.53,43.72,80.15z"/>
					<path class="st5" d="M41.29,79.64c0.31,0.97,1.1,1.24,1.09,1.25c0-0.01,0.13-1.09-0.11-2.02c-0.25-0.94-0.89-1.44-0.89-1.44
						C41.36,77.41,40.96,78.66,41.29,79.64z"/>
				</g>
				<g>
					<path class="st5" d="M44.27,77.99c-0.69,0.51-1.47,0.48-1.47,0.47c-0.01,0.01,0.32-1.11,1.08-1.62
						c0.75-0.51,1.51-0.22,1.51-0.23C45.38,76.61,44.95,77.48,44.27,77.99z"/>
					<path class="st5" d="M41.97,77.02c0.14,1.03,0.86,1.45,0.85,1.45c0-0.01,0.32-1.06,0.25-2.04c-0.07-0.99-0.6-1.61-0.61-1.61
						C42.46,74.8,41.83,75.98,41.97,77.02z"/>
				</g>
				<g>
					<path class="st5" d="M45.2,75.92c-0.77,0.39-1.53,0.21-1.54,0.2c-0.01,0,0.52-1.06,1.38-1.43c0.84-0.37,1.54,0.05,1.54,0.05
						C46.57,74.74,45.96,75.53,45.2,75.92z"/>
					<path class="st5" d="M43.13,74.52c-0.06,1.06,0.57,1.61,0.56,1.61c0-0.01,0.51-1,0.63-2.01c0.12-1.01-0.27-1.74-0.28-1.74
						C44.04,72.37,43.19,73.45,43.13,74.52z"/>
				</g>
				<g>
					<path class="st5" d="M46.53,74c-0.84,0.25-1.56-0.07-1.56-0.08c-0.01,0,0.73-0.97,1.66-1.2c0.92-0.23,1.53,0.33,1.52,0.32
						C48.14,73.04,47.37,73.74,46.53,74z"/>
					<path class="st5" d="M44.77,72.21c-0.28,1.06,0.24,1.73,0.23,1.73c0-0.01,0.7-0.92,1.05-1.92c0.34-1.01,0.11-1.81,0.1-1.81
						C46.14,70.2,45.04,71.14,44.77,72.21z"/>
				</g>
			</g>
			<g>
				<path class="st5" d="M52.3,95.98c0-0.03,0.01-0.06,0.01-0.08c-0.4-0.09-0.8-0.2-1.2-0.33c-1.44-0.49-2.78-1.26-3.98-2.29
					c-2.48-2.14-4.07-5.19-4.5-8.6c-0.35-2.79-0.17-5.27,0.53-7.39c0.75-2.27,2.08-4.04,3.97-5.28l-0.1-0.17
					c-1.92,1.26-3.28,3.07-4.04,5.38c-0.71,2.14-0.89,4.66-0.54,7.47c0.43,3.45,2.05,6.55,4.56,8.72c1.21,1.05,2.57,1.83,4.04,2.32
					c0.39,0.13,0.79,0.24,1.19,0.33C52.27,96.04,52.28,96.01,52.3,95.98z"/>
			</g>
		</g>
	</g>
	<polygon class="st10" points="55.37,95.3 53.97,96.38 55.37,97.47 56.78,96.38 	"/>
</g>
<path class="st11" d="M53.75,82.46v-2.34h0.75c2.06,0,3.86-1.05,3.86-2.95c0-1.57-1.15-2.53-2.81-2.53c-1.66,0-3.04,1.29-3.07,3.23
	l-3.18-0.12c0.21-2.88,2.55-5.27,6.34-5.27s5.99,1.99,5.99,4.54c0,2.15-1.66,3.58-3.84,4.17c2.72,0.49,4.66,1.83,4.66,4.45
	c0,3.18-2.97,5.22-6.79,5.22c-3.89,0-6.58-2.11-6.83-5.69l3.23-0.14c0.14,2.01,1.36,3.67,3.51,3.65c2.18-0.02,3.32-1.5,3.32-3.07
	c0-2.01-1.59-3.16-4.38-3.16H53.75z"/>
<path class="st12" d="M53.38,82.07v-2.34h0.75c2.06,0,3.86-1.05,3.86-2.95c0-1.57-1.15-2.53-2.81-2.53s-3.04,1.29-3.07,3.23
	l-3.18-0.12c0.21-2.88,2.55-5.27,6.34-5.27s5.99,1.99,5.99,4.54c0,2.15-1.66,3.58-3.84,4.17c2.71,0.49,4.66,1.83,4.66,4.45
	c0,3.18-2.97,5.22-6.79,5.22c-3.89,0-6.58-2.11-6.84-5.69l3.23-0.14c0.14,2.01,1.36,3.67,3.51,3.65c2.18-0.02,3.32-1.5,3.32-3.07
	c0-2.01-1.59-3.16-4.38-3.16H53.38z"/>
</svg>
