<?xml version="1.0" encoding="UTF-8" standalone="no"?>
<!-- Generator: Adobe Illustrator 21.0.2, SVG Export Plug-In . SVG Version: 6.00 Build 0)  -->

<svg
   xmlns:dc="http://purl.org/dc/elements/1.1/"
   xmlns:cc="http://creativecommons.org/ns#"
   xmlns:rdf="http://www.w3.org/1999/02/22-rdf-syntax-ns#"
   xmlns:svg="http://www.w3.org/2000/svg"
   xmlns="http://www.w3.org/2000/svg"
   xmlns:sodipodi="http://sodipodi.sourceforge.net/DTD/sodipodi-0.dtd"
   xmlns:inkscape="http://www.inkscape.org/namespaces/inkscape"
   version="1.1"
   x="0px"
   y="0px"
   viewBox="0 0 110.979 128.417"
   enable-background="new 0 0 110.979 128.417"
   xml:space="preserve"
   id="svg415"
   sodipodi:docname="90_11.svg"
   inkscape:version="0.92.2 5c3e80d, 2017-08-06"><metadata
     id="metadata421"><rdf:RDF><cc:Work
         rdf:about=""><dc:format>image/svg+xml</dc:format><dc:type
           rdf:resource="http://purl.org/dc/dcmitype/StillImage" /><dc:title /></cc:Work></rdf:RDF></metadata><defs
     id="defs419" /><sodipodi:namedview
     pagecolor="#ffffff"
     bordercolor="#666666"
     borderopacity="1"
     objecttolerance="10"
     gridtolerance="10"
     guidetolerance="10"
     inkscape:pageopacity="0"
     inkscape:pageshadow="2"
     inkscape:window-width="1440"
     inkscape:window-height="808"
     id="namedview417"
     showgrid="false"
     inkscape:zoom="3.4234713"
     inkscape:cx="-7.0482254"
     inkscape:cy="63.192535"
     inkscape:window-x="0"
     inkscape:window-y="1"
     inkscape:window-maximized="1"
     inkscape:current-layer="svg415"
     showguides="true"
     inkscape:guide-bbox="true" /><g
     id="g5"
     transform="translate(0.15372898,0.37381641)"
     style="fill:#d5c7a4;fill-opacity:1;stroke:#000000;stroke-opacity:1;stroke-width:1.8;stroke-miterlimit:4;stroke-dasharray:none"><polygon
       style="fill:#d5c7a4;fill-opacity:1;stroke:#000000;stroke-opacity:1;stroke-width:1.8;stroke-miterlimit:4;stroke-dasharray:none"
       id="polygon3"
       points="55.556,127.881 0.417,96.047 0.417,32.377 55.556,0.542 110.696,32.377 110.696,96.046 " /></g><g
     id="Layer_1" /><g
     id="g13"
     enable-background="new    "
     transform="translate(0.15372898,0.37381641)"
     style="fill:#000000;fill-opacity:1"><path
       style="fill:#000000;fill-opacity:1"
       inkscape:connector-curvature="0"
       id="path11"
       d="M 55.555,10.618 9.073,37.416 V 91.01 L 55.555,117.805 102.04,91.01 V 37.416 Z M 100.158,89.93 55.555,115.646 10.951,89.93 V 38.506 L 55.555,12.79 100.158,38.506 Z" /></g><g
     id="g9"
     transform="translate(0.15372898,0.37381641)"
     style="fill:#000000;fill-opacity:0.29523811"><polygon
       style="fill:#000000;fill-opacity:0.29523811"
       id="polygon7"
       points="55.422,116.822 10.109,90.66 10.109,38.337 55.422,12.175 100.736,38.337 100.736,90.66 " /></g><g
     id="border" /><g
     id="g6263"
     transform="matrix(0.04851667,0,0,0.04165631,44.135969,68.925307)" /><g
     id="g6265"
     transform="matrix(0.04851667,0,0,0.04165631,44.135969,68.925307)" /><g
     id="g6267"
     transform="matrix(0.04851667,0,0,0.04165631,44.135969,68.925307)" /><g
     id="g6269"
     transform="matrix(0.04851667,0,0,0.04165631,44.135969,68.925307)" /><g
     id="g6271"
     transform="matrix(0.04851667,0,0,0.04165631,44.135969,68.925307)" /><g
     id="g6273"
     transform="matrix(0.04851667,0,0,0.04165631,44.135969,68.925307)" /><g
     id="g6275"
     transform="matrix(0.04851667,0,0,0.04165631,44.135969,68.925307)" /><g
     id="g6277"
     transform="matrix(0.04851667,0,0,0.04165631,44.135969,68.925307)" /><g
     id="g6279"
     transform="matrix(0.04851667,0,0,0.04165631,44.135969,68.925307)" /><g
     id="g6281"
     transform="matrix(0.04851667,0,0,0.04165631,44.135969,68.925307)" /><g
     id="g6283"
     transform="matrix(0.04851667,0,0,0.04165631,44.135969,68.925307)" /><g
     id="g6285"
     transform="matrix(0.04851667,0,0,0.04165631,44.135969,68.925307)" /><g
     id="g6287"
     transform="matrix(0.04851667,0,0,0.04165631,44.135969,68.925307)" /><g
     id="g6289"
     transform="matrix(0.04851667,0,0,0.04165631,44.135969,68.925307)" /><g
     id="g6291"
     transform="matrix(0.04851667,0,0,0.04165631,44.135969,68.925307)" /><path
     style="fill:#e8e8e8;stroke-width:0.11126517;fill-opacity:1"
     inkscape:connector-curvature="0"
     d="m 31.397345,46.004655 h 28.48388 v 44.506068 h -28.48388 z m 0,0"
     id="path960" /><path
     style="fill:#f4f4e6;stroke-width:0.11126517"
     inkscape:connector-curvature="0"
     d="m 34.957835,49.565141 h 21.36291 v 19.58267 h -21.36291 z m 0,0"
     id="path966" /><path
     style="fill:#f4f4e6;stroke-width:0.11126517;fill-opacity:1"
     inkscape:connector-curvature="0"
     d="m 52.760255,79.829267 c 0,3.932963 -3.188,7.120971 -7.12097,7.120971 -3.93296,0 -7.12097,-3.188008 -7.12097,-7.120971 0,-3.932963 3.18801,-7.120971 7.12097,-7.120971 3.93297,0 7.12097,3.188008 7.12097,7.120971 z m 0,0"
     id="path968" /><path
     style="fill:#5a6470;stroke-width:0.11126517"
     inkscape:connector-curvature="0"
     d="m 76.793535,70.037932 c -0.49157,0 -0.89012,0.398555 -0.89012,0.890121 v 16.022185 h -4.45061 V 58.466354 c 0,-0.491566 -0.39855,-0.890121 -0.89012,-0.890121 -0.49156,0 -0.89012,0.398555 -0.89012,0.890121 v 28.483884 h -4.45061 V 38.883684 c 0,-0.491566 -0.39855,-0.890121 -0.89012,-0.890121 h -26.70364 c -0.49157,0 -0.89012,0.398555 -0.89012,0.890121 v 3.560486 c 0,0.491566 0.39855,0.890121 0.89012,0.890121 0.49157,0 0.89012,-0.398555 0.89012,-0.890121 v -2.670364 h 24.9234 v 48.066553 c 0,0.491566 0.39856,0.890122 0.89012,0.890122 h 12.4617 c 0.49157,0 0.89012,-0.398556 0.89012,-0.890122 V 70.928053 c 0,-0.491566 -0.39855,-0.890121 -0.89012,-0.890121 z m 0,0"
     id="path970" /><path
     style="fill:#e8e8e8;stroke-width:0.11126517;fill-opacity:1"
     inkscape:connector-curvature="0"
     d="m 48.309655,79.829267 c 0,1.474698 -1.19567,2.670364 -2.67037,2.670364 -1.4747,0 -2.67036,-1.195666 -2.67036,-2.670364 0,-1.474699 1.19566,-2.670364 2.67036,-2.670364 1.4747,0 2.67037,1.195665 2.67037,2.670364 z m 0,0"
     id="path972" /><path
     style="fill:#5a6470;stroke-width:0.11126517"
     inkscape:connector-curvature="0"
     d="m 37.628195,52.235505 h 2.67036 v 1.780242 h -2.67036 z m 0,0"
     id="path974" /><path
     style="fill:#5a6470;stroke-width:0.11126517"
     inkscape:connector-curvature="0"
     d="m 37.628195,64.697204 h 16.02219 v 1.780243 h -16.02219 z m 0,0"
     id="path976" /><path
     style="fill:#f98c96;stroke-width:0.11126517"
     inkscape:connector-curvature="0"
     d="m 71.850495,47.691453 -0.79537,-1.593352 1.2878,-0.643687 v -3.560485 l 2.27268,-1.136557 0.79537,1.593352 -1.2878,0.643687 v 3.560485 z m 0,0"
     id="path980" /><path
     style="fill:#f98c96;stroke-width:0.11126517"
     inkscape:connector-curvature="0"
     d="m 79.861585,61.043273 -0.79537,-1.593352 1.28781,-0.643686 v -3.560486 l 2.27267,-1.136557 0.79538,1.593353 -1.28781,0.643686 v 3.560485 z m 0,0"
     id="path982" /><g
     id="g1070"
     style="fill:#df994f;fill-opacity:1"
     transform="translate(-92.742125,-0.29210115)"><path
       id="path962"
       d="m 175.76651,73.000397 h -3.56049 v -8.901214 h 3.56049 z m 0,0"
       inkscape:connector-curvature="0"
       style="fill:#df994f;fill-opacity:1;stroke-width:0.11126517" /><path
       id="path964"
       d="m 169.53566,60.538698 h -3.56048 v -8.901214 h 3.56048 z m 0,0"
       inkscape:connector-curvature="0"
       style="fill:#df994f;fill-opacity:1;stroke-width:0.11126517" /><path
       id="path978"
       d="m 141.9419,59.648577 -5.34073,2.670364 v -5.340728 z m 0,0"
       inkscape:connector-curvature="0"
       style="fill:#df994f;fill-opacity:1;stroke-width:0.11126517" /><path
       id="path984"
       d="m 128.59008,42.736271 h 3.56048 v 3.560485 h -3.56048 z m 0,0"
       inkscape:connector-curvature="0"
       style="fill:#df994f;fill-opacity:1;stroke-width:0.11126517" /></g><g
     id="g1054"
     style="fill:#e8e8e8;fill-opacity:1"><path
       id="path986"
       d="m 79.463895,70.928053 h -2.67036 c -1.4747,0 -2.67036,-1.195665 -2.67036,-2.670364 0,-1.474698 1.19566,-2.670364 2.67036,-2.670364 h 2.67036 z m 0,0"
       inkscape:connector-curvature="0"
       style="fill:#e8e8e8;stroke-width:0.11126517;fill-opacity:1" /><path
       id="path988"
       d="m 73.233055,58.466354 h -2.67037 c -1.4747,0 -2.67036,-1.195665 -2.67036,-2.670364 0,-1.474698 1.19566,-2.670364 2.67036,-2.670364 h 2.67037 z m 0,0"
       inkscape:connector-curvature="0"
       style="fill:#e8e8e8;stroke-width:0.11126517;fill-opacity:1" /></g><path
     inkscape:connector-curvature="0"
     d="m 83.024385,62.916961 h -3.56049 c -0.49156,0 -0.89012,0.398555 -0.89012,0.890121 v 0.890122 h -1.78024 c -1.79067,-0.0022 -3.30318,1.328228 -3.52919,3.104993 -0.22644,1.776331 0.9049,3.443136 2.63907,3.8895 v 15.258541 h -4.45061 V 59.356476 h 0.89012 v 0.890121 c 0,0.491566 0.39856,0.890121 0.89013,0.890121 h 3.56048 c 0.49157,0 0.89012,-0.398555 0.89012,-0.890121 v -8.901214 c 0,-0.491566 -0.39855,-0.890121 -0.89012,-0.890121 h -3.56048 c -0.49157,0 -0.89013,0.398555 -0.89013,0.890121 v 0.890122 h -1.78024 c -1.79067,-0.0022 -3.30318,1.328228 -3.52919,3.104993 -0.22644,1.776331 0.9049,3.443136 2.63907,3.8895 v 27.72024 h -4.45061 V 38.883684 c 0,-0.491566 -0.39855,-0.890121 -0.89012,-0.890121 h -26.70364 c -0.49157,0 -0.89012,0.398555 -0.89012,0.890121 v 2.670364 h -0.89012 c -0.49157,0 -0.89012,0.398556 -0.89012,0.890122 v 2.670364 h -3.56049 c -0.49156,0 -0.89012,0.398555 -0.89012,0.890121 v 44.506068 c 0,0.491566 0.39856,0.890122 0.89012,0.890122 h 28.48388 c 0.49157,0 0.89013,-0.398556 0.89013,-0.890122 V 46.004655 c 0,-0.491566 -0.39856,-0.890121 -0.89013,-0.890121 H 40.298555 V 42.44417 c 0,-0.491566 -0.39855,-0.890122 -0.89012,-0.890122 h -0.89012 v -1.780242 h 24.9234 v 48.066553 c 0,0.491566 0.39856,0.890122 0.89012,0.890122 h 12.4617 c 0.49157,0 0.89012,-0.398556 0.89012,-0.890122 V 71.818175 h 0.89012 v 0.890121 c 0,0.491566 0.39856,0.890121 0.89012,0.890121 h 3.56049 c 0.49157,0 0.89012,-0.398555 0.89012,-0.890121 v -8.901214 c 0,-0.491566 -0.39855,-0.890121 -0.89012,-0.890121 z m -8.90121,-10.681456 h 1.78024 v 7.120971 h -1.78024 z m -37.3851,-8.901214 h 1.78024 v 1.780243 h -1.78024 z m 22.25303,3.560486 V 89.620602 H 32.287465 V 46.894777 Z m 9.79134,8.901213 c 0,-0.983132 0.79711,-1.780243 1.78024,-1.780243 h 1.78024 v 3.560486 h -1.78024 c -0.98313,0 -1.78024,-0.79711 -1.78024,-1.780243 z m 9.79133,14.241942 h -1.78024 c -0.98313,0 -1.78024,-0.79711 -1.78024,-1.780243 0,-0.983132 0.79711,-1.780242 1.78024,-1.780242 h 1.78024 z m 3.56049,1.780243 h -1.78024 v -7.120971 h 1.78024 z m 0,0"
     id="path990"
     style="stroke-width:0.11126517" /><path
     inkscape:connector-curvature="0"
     d="m 34.067715,49.565141 v 19.58267 c 0,0.491566 0.39855,0.890121 0.89012,0.890121 h 21.36291 c 0.49157,0 0.89012,-0.398555 0.89012,-0.890121 v -19.58267 c 0,-0.491566 -0.39855,-0.890122 -0.89012,-0.890122 h -21.36291 c -0.49157,0 -0.89012,0.398556 -0.89012,0.890122 z m 1.78024,0.890121 h 19.58267 v 17.802427 h -19.58267 z m 0,0"
     id="path992"
     style="stroke-width:0.11126517" /><path
     inkscape:connector-curvature="0"
     d="m 45.639285,71.818175 c -4.42453,0 -8.01109,3.586562 -8.01109,8.011092 0,4.424528 3.58656,8.011092 8.01109,8.011092 4.42453,0 8.0111,-3.586564 8.0111,-8.011092 -0.005,-4.422356 -3.58874,-8.005877 -8.0111,-8.011092 z m 0,14.241941 c -3.44139,0 -6.23085,-2.789452 -6.23085,-6.230849 0,-3.441397 2.78946,-6.23085 6.23085,-6.23085 3.4414,0 6.23085,2.789453 6.23085,6.23085 -0.004,3.439658 -2.79119,6.226937 -6.23085,6.230849 z m 0,0"
     id="path994"
     style="stroke-width:0.11126517" /><path
     inkscape:connector-curvature="0"
     d="m 45.639285,76.268781 c -1.96626,0 -3.56048,1.594221 -3.56048,3.560486 0,1.966264 1.59422,3.560485 3.56048,3.560485 1.96627,0 3.56049,-1.594221 3.56049,-3.560485 0,-1.966265 -1.59422,-3.560486 -3.56049,-3.560486 z m 0,5.340729 c -0.98313,0 -1.78024,-0.797111 -1.78024,-1.780243 0,-0.983132 0.79711,-1.780243 1.78024,-1.780243 0.98314,0 1.78025,0.797111 1.78025,1.780243 0,0.983132 -0.79711,1.780243 -1.78025,1.780243 z m 0,0"
     id="path996"
     style="stroke-width:0.11126517" /><path
     inkscape:connector-curvature="0"
     d="m 37.628195,52.235505 h 2.67036 v 1.780242 h -2.67036 z m 0,0"
     id="path998"
     style="stroke-width:0.11126517" /><path
     inkscape:connector-curvature="0"
     d="m 37.628195,64.697204 h 16.02219 v 1.780243 h -16.02219 z m 0,0"
     id="path1000"
     style="stroke-width:0.11126517" /><path
     inkscape:connector-curvature="0"
     d="m 43.390945,62.784399 c 0.26209,0.162116 0.5898,0.176895 0.86579,0.03912 l 5.34072,-2.670364 c 0.30251,-0.150383 0.49331,-0.458969 0.49331,-0.796676 0,-0.337708 -0.1908,-0.646294 -0.49331,-0.796677 l -5.34072,-2.670364 c -0.27599,-0.137777 -0.6037,-0.123 -0.86579,0.03912 -0.26251,0.16255 -0.42202,0.448971 -0.42202,0.757559 v 5.340728 c 0,0.308587 0.15951,0.595008 0.42202,0.757559 z m 1.35822,-4.657925 2.46044,1.230002 -2.46044,1.230002 z m 0,0"
     id="path1002"
     style="stroke-width:0.11126517" /><path
     inkscape:connector-curvature="0"
     d="m 74.123175,42.994411 1.2878,-0.643687 -0.79537,-1.593352 -2.27268,1.136557 v 3.560485 l -1.2878,0.643687 0.79537,1.593352 2.27268,-1.136557 z m 0,0"
     id="path1004"
     style="stroke-width:0.11126517" /><path
     inkscape:connector-curvature="0"
     d="m 82.134265,59.906716 v -3.560485 l 1.28781,-0.643686 -0.79538,-1.593353 -2.27267,1.136557 v 3.560486 l -1.28781,0.643686 0.79537,1.593352 z m 0,0"
     id="path1006"
     style="stroke-width:0.11126517" /></svg>