<?xml version="1.0" encoding="UTF-8" standalone="no"?>
<!-- Generator: Adobe Illustrator 21.0.2, SVG Export Plug-In . SVG Version: 6.00 Build 0)  -->

<svg
   xmlns:dc="http://purl.org/dc/elements/1.1/"
   xmlns:cc="http://creativecommons.org/ns#"
   xmlns:rdf="http://www.w3.org/1999/02/22-rdf-syntax-ns#"
   xmlns:svg="http://www.w3.org/2000/svg"
   xmlns="http://www.w3.org/2000/svg"
   xmlns:sodipodi="http://sodipodi.sourceforge.net/DTD/sodipodi-0.dtd"
   xmlns:inkscape="http://www.inkscape.org/namespaces/inkscape"
   version="1.1"
   x="0px"
   y="0px"
   viewBox="0 0 110.979 128.417"
   enable-background="new 0 0 110.979 128.417"
   xml:space="preserve"
   id="svg415"
   sodipodi:docname="90_1i.svg"
   inkscape:version="0.92.2 5c3e80d, 2017-08-06"><metadata
     id="metadata421"><rdf:RDF><cc:Work
         rdf:about=""><dc:format>image/svg+xml</dc:format><dc:type
           rdf:resource="http://purl.org/dc/dcmitype/StillImage" /><dc:title /></cc:Work></rdf:RDF></metadata><defs
     id="defs419" /><sodipodi:namedview
     pagecolor="#ffffff"
     bordercolor="#666666"
     borderopacity="1"
     objecttolerance="10"
     gridtolerance="10"
     guidetolerance="10"
     inkscape:pageopacity="0"
     inkscape:pageshadow="2"
     inkscape:window-width="1440"
     inkscape:window-height="808"
     id="namedview417"
     showgrid="false"
     inkscape:zoom="4.8415195"
     inkscape:cx="66.776462"
     inkscape:cy="59.800757"
     inkscape:window-x="0"
     inkscape:window-y="1"
     inkscape:window-maximized="1"
     inkscape:current-layer="svg415"
     showguides="true"
     inkscape:guide-bbox="true" /><g
     id="g5"
     transform="translate(0.15372898,0.37381641)"
     style="fill:#e5ce99;fill-opacity:1;stroke:#000000;stroke-opacity:1;stroke-width:1.8;stroke-miterlimit:4;stroke-dasharray:none"><polygon
       style="fill:#e5ce99;fill-opacity:1;stroke:#000000;stroke-opacity:1;stroke-width:1.8;stroke-miterlimit:4;stroke-dasharray:none"
       id="polygon3"
       points="55.556,127.881 0.417,96.047 0.417,32.377 55.556,0.542 110.696,32.377 110.696,96.046 " /></g><g
     id="Layer_1" /><g
     id="g13"
     enable-background="new    "
     transform="translate(0.15372898,0.37381641)"
     style="fill:#000000;fill-opacity:1"><path
       style="fill:#000000;fill-opacity:1"
       inkscape:connector-curvature="0"
       id="path11"
       d="M 55.555,10.618 9.073,37.416 V 91.01 L 55.555,117.805 102.04,91.01 V 37.416 Z M 100.158,89.93 55.555,115.646 10.951,89.93 V 38.506 L 55.555,12.79 100.158,38.506 Z" /></g><g
     id="g9"
     transform="translate(0.15372898,0.37381641)"
     style="fill:#000000;fill-opacity:0.29523811"><polygon
       style="fill:#000000;fill-opacity:0.29523811"
       id="polygon7"
       points="55.422,116.822 10.109,90.66 10.109,38.337 55.422,12.175 100.736,38.337 100.736,90.66 " /></g><g
     id="border" /><g
     id="g6263"
     transform="matrix(0.04851667,0,0,0.04165631,44.135969,68.925307)" /><g
     id="g6265"
     transform="matrix(0.04851667,0,0,0.04165631,44.135969,68.925307)" /><g
     id="g6267"
     transform="matrix(0.04851667,0,0,0.04165631,44.135969,68.925307)" /><g
     id="g6269"
     transform="matrix(0.04851667,0,0,0.04165631,44.135969,68.925307)" /><g
     id="g6271"
     transform="matrix(0.04851667,0,0,0.04165631,44.135969,68.925307)" /><g
     id="g6273"
     transform="matrix(0.04851667,0,0,0.04165631,44.135969,68.925307)" /><g
     id="g6275"
     transform="matrix(0.04851667,0,0,0.04165631,44.135969,68.925307)" /><g
     id="g6277"
     transform="matrix(0.04851667,0,0,0.04165631,44.135969,68.925307)" /><g
     id="g6279"
     transform="matrix(0.04851667,0,0,0.04165631,44.135969,68.925307)" /><g
     id="g6281"
     transform="matrix(0.04851667,0,0,0.04165631,44.135969,68.925307)" /><g
     id="g6283"
     transform="matrix(0.04851667,0,0,0.04165631,44.135969,68.925307)" /><g
     id="g6285"
     transform="matrix(0.04851667,0,0,0.04165631,44.135969,68.925307)" /><g
     id="g6287"
     transform="matrix(0.04851667,0,0,0.04165631,44.135969,68.925307)" /><g
     id="g6289"
     transform="matrix(0.04851667,0,0,0.04165631,44.135969,68.925307)" /><g
     id="g6291"
     transform="matrix(0.04851667,0,0,0.04165631,44.135969,68.925307)" /><g
     id="g1045"
     transform="matrix(0.88347276,0,0,0.88347276,84.777958,14.429552)"><polygon
       transform="matrix(0.12462984,0,0,0.12462984,-64.778236,24.568807)"
       id="polygon3859"
       points="7.502,480.117 7.502,504.498 504.499,504.498 504.499,481.993 444.484,390.095 69.392,390.095 "
       style="fill:#ded4b9" /><rect
       id="rect3861"
       height="3.2722809"
       width="61.939907"
       style="fill:#847553;fill-opacity:1;stroke-width:0.12462983"
       y="84.405716"
       x="-63.843262" /><polyline
       transform="matrix(0.12462984,0,0,0.12462984,-64.778236,24.568807)"
       id="polyline3863"
       points="91.898,391.971 91.898,7.502 421.979,7.502 421.979,391.971 "
       style="fill:#ded4b9" /><rect
       id="rect3865"
       height="26.178621"
       width="31.788336"
       style="fill:#ffffff;stroke-width:0.12462983"
       y="30.17852"
       x="-48.650887" /><rect
       id="rect3867"
       height="6.5446868"
       width="41.137939"
       style="fill:#847553;fill-opacity:1;stroke-width:0.12462983"
       y="66.641602"
       x="-53.325626" /><path
       id="path3869"
       d="m -22.237836,53.552348 h -21.036395 c -1.420031,0 -2.571113,-1.151081 -2.571113,-2.571114 v -15.42668 c 0,-1.420033 1.151082,-2.571114 2.571113,-2.571114 h 21.036395 c 1.420033,0 2.571114,1.151081 2.571114,2.571114 v 15.42668 c 0,1.420033 -1.151081,2.571114 -2.571114,2.571114 z"
       style="fill:#a2916c;fill-opacity:1;stroke-width:0.12462983"
       inkscape:connector-curvature="0" /><path
       id="path3871"
       d="m -42.105577,39.528001 c 0,-1.420031 1.151082,-2.571113 2.571114,-2.571113 h 19.867741 v -1.402334 c 0,-1.420033 -1.151081,-2.571114 -2.571114,-2.571114 h -21.036395 c -1.420031,0 -2.571113,1.151081 -2.571113,2.571114 v 15.42668 c 0,1.420033 1.151082,2.571114 2.571113,2.571114 h 1.168654 z"
       style="fill:#847553;fill-opacity:1;stroke-width:0.12462983"
       inkscape:connector-curvature="0" /><rect
       id="rect3873"
       height="6.5446868"
       width="9.1151772"
       style="fill:#a2916c;fill-opacity:1;stroke-width:0.12462983"
       y="66.641602"
       x="-53.325626" /><rect
       id="rect3875"
       height="3.0386"
       width="41.137939"
       style="fill:#ffffff;stroke-width:0.12462983"
       y="63.602375"
       x="-53.325626" /><rect
       id="rect3877"
       height="2.8047945"
       width="15.192377"
       style="fill:#ded4b9;fill-opacity:1;stroke-width:0.12462983"
       y="63.836803"
       x="-31.821745" /><rect
       id="rect3879"
       height="6.3108811"
       width="9.5832863"
       style="fill:#69777c;stroke-width:0.12462983"
       y="63.836803"
       x="-29.25001" /><rect
       id="rect3881"
       height="3.2722809"
       width="9.3494806"
       style="fill:#d3d3d3;stroke-width:0.12462983"
       y="63.602375"
       x="-53.325626" /><g
       style="fill:#69777c;fill-opacity:1"
       transform="matrix(0.12462984,0,0,0.12462984,-64.778236,24.568807)"
       id="g3905"><rect
         id="rect3883"
         height="15.004"
         width="15.004"
         style="fill:#69777c;fill-opacity:1"
         y="405.099"
         x="84.390999" /><rect
         id="rect3885"
         height="15.004"
         width="15.004"
         style="fill:#69777c;fill-opacity:1"
         y="405.099"
         x="114.398" /><rect
         id="rect3887"
         height="15.004"
         width="15.004"
         style="fill:#69777c;fill-opacity:1"
         y="427.604"
         x="399.46799" /><rect
         id="rect3889"
         height="15.004"
         width="135.033"
         style="fill:#69777c;fill-opacity:1"
         y="450.10999"
         x="174.41299" /><rect
         id="rect3891"
         height="15.004"
         width="22.504999"
         style="fill:#69777c;fill-opacity:1"
         y="450.10999"
         x="444.479" /><rect
         id="rect3893"
         height="15.004"
         width="15.004"
         style="fill:#69777c;fill-opacity:1"
         y="277.56799"
         x="121.9" /><rect
         id="rect3895"
         height="15.004"
         width="15.004"
         style="fill:#69777c;fill-opacity:1"
         y="277.56799"
         x="376.96301" /><rect
         id="rect3897"
         height="15.004"
         width="15.004"
         style="fill:#69777c;fill-opacity:1"
         y="277.56799"
         x="346.95499" /><rect
         id="rect3899"
         height="15.004"
         width="15.004"
         style="fill:#69777c;fill-opacity:1"
         y="277.56799"
         x="316.948" /><rect
         id="rect3901"
         height="15.004"
         width="15.004"
         style="fill:#69777c;fill-opacity:1"
         y="307.57501"
         x="234.42799" /><rect
         id="rect3903"
         height="15.004"
         width="15.004"
         style="fill:#69777c;fill-opacity:1"
         y="307.57501"
         x="211.922" /></g><g
       transform="matrix(0.12462984,0,0,0.12462984,-64.778236,24.568807)"
       id="g3913"><path
         id="path3907"
         d="m 189.422,157.538 h -15.004 v -39.385 c 0,-15.512 12.62,-28.132 28.132,-28.132 v 15.004 c -7.239,0 -13.128,5.889 -13.128,13.128 z"
         style="fill:#ffffff"
         inkscape:connector-curvature="0" /><rect
         id="rect3909"
         height="15.004"
         width="15.004"
         style="fill:#ffffff"
         y="165.03999"
         x="174.41299" /><rect
         id="rect3911"
         height="15.004"
         width="30.007"
         style="fill:#ffffff"
         y="337.582"
         x="309.44601" /></g><g
       transform="matrix(0.12462984,0,0,0.12462984,-64.778236,24.568807)"
       id="g3987"><path
         id="path3915"
         d="M 429.48,382.593 V 0 H 84.396 V 382.593 H 65.446 L 0,477.788 v 34.213 H 512 V 479.76 L 448.544,382.593 Z M 99.4,345.084 H 249.437 V 330.08 H 99.4 v -7.502 H 202.55 V 307.574 H 99.4 V 15.004 h 315.077 v 292.571 h -15.004 v 15.004 h 15.004 v 7.502 h -15.004 v 15.004 h 15.004 v 37.509 H 99.4 Z M 15.004,496.996 v -9.377 H 211.927 V 472.615 H 21.764 L 73.34,397.597 h 367.085 l 48.991,75.018 h -29.927 v 15.004 h 37.509 v 9.377 H 15.004 Z"
         style="fill:#1d1d1b"
         inkscape:connector-curvature="0" /><rect
         id="rect3917"
         height="15.004"
         width="30.007"
         style="fill:#1d1d1b"
         y="472.61499"
         x="226.92599" /><rect
         id="rect3919"
         height="15.004"
         width="15.004"
         style="fill:#1d1d1b"
         y="472.61499"
         x="271.93701" /><rect
         id="rect3921"
         height="15.004"
         width="15.004"
         style="fill:#1d1d1b"
         y="405.099"
         x="144.40601" /><rect
         id="rect3923"
         height="15.004"
         width="15.004"
         style="fill:#1d1d1b"
         y="405.099"
         x="174.41299" /><rect
         id="rect3925"
         height="15.004"
         width="15.004"
         style="fill:#1d1d1b"
         y="405.099"
         x="204.42" /><rect
         id="rect3927"
         height="15.004"
         width="15.004"
         style="fill:#1d1d1b"
         y="405.099"
         x="234.42799" /><rect
         id="rect3929"
         height="15.004"
         width="15.004"
         style="fill:#1d1d1b"
         y="405.099"
         x="264.435" /><rect
         id="rect3931"
         height="15.004"
         width="15.004"
         style="fill:#1d1d1b"
         y="405.099"
         x="294.44199" /><rect
         id="rect3933"
         height="15.004"
         width="15.004"
         style="fill:#1d1d1b"
         y="405.099"
         x="324.45001" /><rect
         id="rect3935"
         height="15.004"
         width="15.004"
         style="fill:#1d1d1b"
         y="405.099"
         x="354.457" /><rect
         id="rect3937"
         height="15.004"
         width="15.004"
         style="fill:#1d1d1b"
         y="405.099"
         x="384.46399" /><rect
         id="rect3939"
         height="15.004"
         width="15.004"
         style="fill:#1d1d1b"
         y="405.099"
         x="414.47198" /><rect
         id="rect3941"
         height="15.004"
         width="15.004"
         style="fill:#1d1d1b"
         y="450.10999"
         x="84.390999" /><rect
         id="rect3943"
         height="15.004"
         width="15.004"
         style="fill:#1d1d1b"
         y="450.10999"
         x="114.398" /><rect
         id="rect3945"
         height="15.004"
         width="15.004"
         style="fill:#1d1d1b"
         y="450.10999"
         x="144.40601" /><rect
         id="rect3947"
         height="15.004"
         width="15.004"
         style="fill:#1d1d1b"
         y="450.10999"
         x="324.45001" /><rect
         id="rect3949"
         height="15.004"
         width="15.004"
         style="fill:#1d1d1b"
         y="450.10999"
         x="354.457" /><rect
         id="rect3951"
         height="15.004"
         width="15.004"
         style="fill:#1d1d1b"
         y="450.10999"
         x="384.46399" /><rect
         id="rect3953"
         height="15.004"
         width="15.004"
         style="fill:#1d1d1b"
         y="450.10999"
         x="414.47198" /><rect
         id="rect3955"
         height="15.004"
         width="15.004"
         style="fill:#1d1d1b"
         y="427.604"
         x="69.387001" /><rect
         id="rect3957"
         height="15.004"
         width="15.004"
         style="fill:#1d1d1b"
         y="427.604"
         x="99.394997" /><rect
         id="rect3959"
         height="15.004"
         width="15.004"
         style="fill:#1d1d1b"
         y="427.604"
         x="129.40199" /><rect
         id="rect3961"
         height="15.004"
         width="15.004"
         style="fill:#1d1d1b"
         y="427.604"
         x="159.409" /><rect
         id="rect3963"
         height="15.004"
         width="15.004"
         style="fill:#1d1d1b"
         y="427.604"
         x="189.41701" /><rect
         id="rect3965"
         height="15.004"
         width="15.004"
         style="fill:#1d1d1b"
         y="427.604"
         x="219.424" /><rect
         id="rect3967"
         height="15.004"
         width="15.004"
         style="fill:#1d1d1b"
         y="427.604"
         x="249.431" /><rect
         id="rect3969"
         height="15.004"
         width="15.004"
         style="fill:#1d1d1b"
         y="427.604"
         x="279.439" /><rect
         id="rect3971"
         height="15.004"
         width="15.004"
         style="fill:#1d1d1b"
         y="427.604"
         x="309.44601" /><rect
         id="rect3973"
         height="15.004"
         width="15.004"
         style="fill:#1d1d1b"
         y="427.604"
         x="339.453" /><rect
         id="rect3975"
         height="15.004"
         width="15.004"
         style="fill:#1d1d1b"
         y="427.604"
         x="369.461" /><rect
         id="rect3977"
         height="15.004"
         width="15.004"
         style="fill:#1d1d1b"
         y="427.604"
         x="429.47501" /><rect
         id="rect3979"
         height="15.004"
         width="22.504999"
         style="fill:#1d1d1b"
         y="450.10999"
         x="46.887001" /><path
         id="path3981"
         d="M 121.905,262.564 H 391.971 V 37.509 H 121.905 Z M 136.909,52.513 H 376.968 V 247.56 H 136.909 Z"
         style="fill:#1d1d1b"
         inkscape:connector-curvature="0" /><path
         id="path3983"
         d="M 341.334,60.015 H 172.543 c -15.512,0 -28.132,12.62 -28.132,28.132 v 123.78 c 0,15.512 12.62,28.132 28.132,28.132 h 168.791 c 15.512,0 28.132,-12.62 28.132,-28.132 V 88.147 c 0,-15.512 -12.62,-28.132 -28.132,-28.132 z m 13.128,151.912 c 0,7.239 -5.889,13.128 -13.128,13.128 H 172.543 c -7.239,0 -13.128,-5.889 -13.128,-13.128 V 88.147 c 0,-7.239 5.889,-13.128 13.128,-13.128 h 168.791 c 7.239,0 13.128,5.889 13.128,13.128 z"
         style="fill:#1d1d1b"
         inkscape:connector-curvature="0" /><path
         id="path3985"
         d="m 256.938,345.084 h 22.505 v 28.132 h 90.022 v -28.132 h 22.506 V 307.575 H 256.938 Z m 37.509,13.128 v -35.634 h 60.015 v 35.634 z m 82.521,-28.131 h -7.502 v -7.502 h 7.502 z m -105.026,-7.502 h 7.502 v 7.502 h -7.502 z"
         style="fill:#1d1d1b"
         inkscape:connector-curvature="0" /></g></g><g
     id="g3989"
     transform="matrix(0.12826054,0,0,0.12826054,24.117173,29.848657)" /><g
     id="g3991"
     transform="matrix(0.12826054,0,0,0.12826054,24.117173,29.848657)" /><g
     id="g3993"
     transform="matrix(0.12826054,0,0,0.12826054,24.117173,29.848657)" /><g
     id="g3995"
     transform="matrix(0.12826054,0,0,0.12826054,24.117173,29.848657)" /><g
     id="g3997"
     transform="matrix(0.12826054,0,0,0.12826054,24.117173,29.848657)" /><g
     id="g3999"
     transform="matrix(0.12826054,0,0,0.12826054,24.117173,29.848657)" /><g
     id="g4001"
     transform="matrix(0.12826054,0,0,0.12826054,24.117173,29.848657)" /><g
     id="g4003"
     transform="matrix(0.12826054,0,0,0.12826054,24.117173,29.848657)" /><g
     id="g4005"
     transform="matrix(0.12826054,0,0,0.12826054,24.117173,29.848657)" /><g
     id="g4007"
     transform="matrix(0.12826054,0,0,0.12826054,24.117173,29.848657)" /><g
     id="g4009"
     transform="matrix(0.12826054,0,0,0.12826054,24.117173,29.848657)" /><g
     id="g4011"
     transform="matrix(0.12826054,0,0,0.12826054,24.117173,29.848657)" /><g
     id="g4013"
     transform="matrix(0.12826054,0,0,0.12826054,24.117173,29.848657)" /><g
     id="g4015"
     transform="matrix(0.12826054,0,0,0.12826054,24.117173,29.848657)" /><g
     id="g4017"
     transform="matrix(0.12826054,0,0,0.12826054,24.117173,29.848657)" /></svg>