<?xml version="1.0" encoding="UTF-8" standalone="no"?>
<!-- Generator: Adobe Illustrator 21.0.2, SVG Export Plug-In . SVG Version: 6.00 Build 0)  -->

<svg
   xmlns:dc="http://purl.org/dc/elements/1.1/"
   xmlns:cc="http://creativecommons.org/ns#"
   xmlns:rdf="http://www.w3.org/1999/02/22-rdf-syntax-ns#"
   xmlns:svg="http://www.w3.org/2000/svg"
   xmlns="http://www.w3.org/2000/svg"
   xmlns:sodipodi="http://sodipodi.sourceforge.net/DTD/sodipodi-0.dtd"
   xmlns:inkscape="http://www.inkscape.org/namespaces/inkscape"
   version="1.1"
   x="0px"
   y="0px"
   viewBox="0 0 110.979 128.417"
   enable-background="new 0 0 110.979 128.417"
   xml:space="preserve"
   id="svg415"
   sodipodi:docname="90_12.svg"
   inkscape:version="0.92.2 5c3e80d, 2017-08-06"><metadata
     id="metadata421"><rdf:RDF><cc:Work
         rdf:about=""><dc:format>image/svg+xml</dc:format><dc:type
           rdf:resource="http://purl.org/dc/dcmitype/StillImage" /><dc:title></dc:title></cc:Work></rdf:RDF></metadata><defs
     id="defs419" /><sodipodi:namedview
     pagecolor="#ffffff"
     bordercolor="#666666"
     borderopacity="1"
     objecttolerance="10"
     gridtolerance="10"
     guidetolerance="10"
     inkscape:pageopacity="0"
     inkscape:pageshadow="2"
     inkscape:window-width="1440"
     inkscape:window-height="808"
     id="namedview417"
     showgrid="false"
     inkscape:zoom="4.8415195"
     inkscape:cx="65.362153"
     inkscape:cy="70.776048"
     inkscape:window-x="0"
     inkscape:window-y="1"
     inkscape:window-maximized="1"
     inkscape:current-layer="svg415"
     showguides="true"
     inkscape:guide-bbox="true" /><g
     id="g5"
     transform="translate(0.15372898,0.37381641)"
     style="fill:#cc93dc;fill-opacity:1;stroke:#000000;stroke-opacity:1;stroke-width:1.8;stroke-miterlimit:4;stroke-dasharray:none"><polygon
       style="fill:#cc93dc;fill-opacity:1;stroke:#000000;stroke-opacity:1;stroke-width:1.8;stroke-miterlimit:4;stroke-dasharray:none"
       id="polygon3"
       points="55.556,127.881 0.417,96.047 0.417,32.377 55.556,0.542 110.696,32.377 110.696,96.046 " /></g><g
     id="Layer_1" /><g
     id="g13"
     enable-background="new    "
     transform="translate(0.15372898,0.37381641)"
     style="fill:#000000;fill-opacity:1"><path
       style="fill:#000000;fill-opacity:1"
       inkscape:connector-curvature="0"
       id="path11"
       d="M 55.555,10.618 9.073,37.416 V 91.01 L 55.555,117.805 102.04,91.01 V 37.416 Z M 100.158,89.93 55.555,115.646 10.951,89.93 V 38.506 L 55.555,12.79 100.158,38.506 Z" /></g><g
     id="g9"
     transform="translate(0.15372898,0.37381641)"
     style="fill:#000000;fill-opacity:0.29523811"><polygon
       style="fill:#000000;fill-opacity:0.29523811"
       id="polygon7"
       points="55.422,116.822 10.109,90.66 10.109,38.337 55.422,12.175 100.736,38.337 100.736,90.66 " /></g><g
     id="border" /><g
     id="g6263"
     transform="matrix(0.04851667,0,0,0.04165631,44.135969,68.925307)" /><g
     id="g6265"
     transform="matrix(0.04851667,0,0,0.04165631,44.135969,68.925307)" /><g
     id="g6267"
     transform="matrix(0.04851667,0,0,0.04165631,44.135969,68.925307)" /><g
     id="g6269"
     transform="matrix(0.04851667,0,0,0.04165631,44.135969,68.925307)" /><g
     id="g6271"
     transform="matrix(0.04851667,0,0,0.04165631,44.135969,68.925307)" /><g
     id="g6273"
     transform="matrix(0.04851667,0,0,0.04165631,44.135969,68.925307)" /><g
     id="g6275"
     transform="matrix(0.04851667,0,0,0.04165631,44.135969,68.925307)" /><g
     id="g6277"
     transform="matrix(0.04851667,0,0,0.04165631,44.135969,68.925307)" /><g
     id="g6279"
     transform="matrix(0.04851667,0,0,0.04165631,44.135969,68.925307)" /><g
     id="g6281"
     transform="matrix(0.04851667,0,0,0.04165631,44.135969,68.925307)" /><g
     id="g6283"
     transform="matrix(0.04851667,0,0,0.04165631,44.135969,68.925307)" /><g
     id="g6285"
     transform="matrix(0.04851667,0,0,0.04165631,44.135969,68.925307)" /><g
     id="g6287"
     transform="matrix(0.04851667,0,0,0.04165631,44.135969,68.925307)" /><g
     id="g6289"
     transform="matrix(0.04851667,0,0,0.04165631,44.135969,68.925307)" /><g
     id="g6291"
     transform="matrix(0.04851667,0,0,0.04165631,44.135969,68.925307)" /><g
     id="g2063"
     transform="matrix(1.144962,0,0,1.144962,19.732141,30.381756)"><g
       id="g1885"><path
         id="path1883"
         d="M 48,33 61.37,16.764 C 61.777,16.27 62,15.65 62,15.01 V 14.76 C 62,13.235 60.764,12 59.24,12 v 0 c -0.788,0 -1.539,0.337 -2.063,0.926 L 42,30"
         style="fill:#946c5a"
         inkscape:connector-curvature="0" /></g><g
       id="g1889"><polygon
         id="polygon1887"
         points="54.26,16.208 51.455,19.364 56.142,23.113 58.823,19.858 "
         style="fill:#d1d8db" /></g><g
       id="g1893"><path
         id="path1891"
         d="M 16,33 2.63,16.764 C 2.223,16.27 2,15.65 2,15.01 V 14.76 C 2,13.236 3.236,12 4.76,12 v 0 c 0.788,0 1.539,0.337 2.063,0.926 L 22,30"
         style="fill:#946c5a"
         inkscape:connector-curvature="0" /></g><g
       id="g1897"><polygon
         id="polygon1895"
         points="9.74,16.208 12.545,19.364 7.858,23.113 5.177,19.858 "
         style="fill:#d1d8db" /></g><g
       id="g1901"><path
         id="path1899"
         d="m 48,39 v 3.858 c 0,2.652 -1.054,5.196 -2.929,7.071 L 45,50 H 19 L 18.929,49.929 C 17.054,48.054 16,45.51 16,42.858 V 39"
         style="fill:#946c5a"
         inkscape:connector-curvature="0" /></g><g
       id="g1905"><path
         id="path1903"
         d="M 22,30 7,37 c -2.761,0 -5,2.239 -5,5 0,2.761 2.239,5 5,5 2.761,0 5,-2.239 5,-5 l 9,-2 -1,7 -4,12 v 0 c 0,1.657 1.343,3 3,3 h 6 l 4,-8 h 6 v 0 l 4,8 h 6 c 1.657,0 3,-1.343 3,-3 v 0 L 44,47 43,40 c 0,0 9,2 9,2 0,2.761 2.239,5 5,5 2.761,0 5,-2.239 5,-5 0,-2.761 -2.239,-5 -5,-5 L 42,30"
         style="fill:#67ac5b"
         inkscape:connector-curvature="0" /></g><g
       id="g1909"><polyline
         id="polyline1907"
         points="39,31 43,40 44,47 35,50 29,50 20,47 21,40 25,31   "
         style="fill:#fae0b8" /></g><g
       id="g1913"><circle
         id="circle1911"
         r="2"
         cy="48"
         cx="32"
         style="fill:#74564a" /></g><g
       id="g1917"><polygon
         id="polygon1915"
         points="45.9,52.7 47.313,56.937 37.455,58.909 36,56 "
         style="fill:#9037aa" /></g><g
       id="g1921"><polygon
         id="polygon1919"
         points="18.1,52.7 16.688,56.938 26.545,58.909 28,56 "
         style="fill:#9037aa" /></g><g
       id="g1925"><polygon
         id="polygon1923"
         points="46.965,32.317 52.119,34.722 49.261,41.391 46.036,40.675 "
         style="fill:#9037aa" /></g><g
       id="g1929"><polygon
         id="polygon1927"
         points="17.964,40.675 14.739,41.391 11.881,34.722 17.035,32.317 "
         style="fill:#9037aa" /></g><g
       id="g1933"><path
         id="path1931"
         d="M 50,22 C 50,19.309 48.076,16.87 44.964,15.073 44.586,6.317 38.936,2 32,2 25.064,2 19.414,6.317 19.036,15.073 15.924,16.87 14,19.309 14,22 c 0,4.206 4.68,7.799 11.3,9.276 1.958,1.7 4.245,2.724 6.7,2.724 2.455,0 4.742,-1.024 6.7,-2.724 C 45.32,29.799 50,26.206 50,22 Z"
         style="fill:#97c05c"
         inkscape:connector-curvature="0" /></g><g
       id="g1937"><path
         id="path1935"
         d="M 47.661,17.097 C 46.911,16.361 46.011,15.678 44.963,15.073 44.9,13.606 44.677,12.275 44.336,11.056 L 38,10 l -6,2 -6,-2 -6.337,1.056 c -0.341,1.218 -0.564,2.55 -0.627,4.017 -1.048,0.605 -1.947,1.288 -2.698,2.024 L 23,19 26.229,17.924 C 28.064,17.312 29.986,17 31.921,17 h 0.158 c 1.935,0 3.857,0.312 5.692,0.924 L 41,19 Z"
         style="fill:#9037aa"
         inkscape:connector-curvature="0" /></g><g
       id="g1941"><path
         id="path1939"
         d="M 32,35 C 29.498,35 27.027,34.032 24.838,32.197 17.638,30.525 13,26.539 13,22 13,19.169 14.795,16.517 18.067,14.487 18.641,6.273 24.059,1 32,1 39.941,1 45.359,6.273 45.933,14.487 49.205,16.517 51,19.169 51,22 51,26.539 46.362,30.525 39.162,32.197 36.973,34.032 34.502,35 32,35 Z M 32,3 C 24.942,3 20.357,7.643 20.035,15.116 20.02,15.458 19.832,15.768 19.536,15.939 16.611,17.628 15,19.781 15,22 c 0,3.561 4.227,6.896 10.518,8.3 0.162,0.036 0.312,0.112 0.438,0.221 3.736,3.243 8.354,3.243 12.09,0 0.125,-0.109 0.275,-0.185 0.438,-0.221 C 44.773,28.896 49,25.561 49,22 49,19.781 47.389,17.628 44.464,15.938 44.168,15.767 43.98,15.457 43.965,15.115 43.643,7.643 39.058,3 32,3 Z"
         inkscape:connector-curvature="0" /></g><g
       id="g1945"><path
         id="path1943"
         d="m 32,13 c -0.106,0 -0.214,-0.017 -0.316,-0.051 l -5.765,-1.921 -5.755,0.959 -0.328,-1.973 6,-1 C 25.995,8.988 26.162,9 26.316,9.052 L 32,10.946 37.684,9.051 c 0.155,-0.052 0.322,-0.065 0.48,-0.038 l 6,1 -0.328,1.973 -5.755,-0.959 -5.765,1.921 C 32.214,12.983 32.106,13 32,13 Z"
         inkscape:connector-curvature="0" /></g><g
       id="g1949"><path
         id="path1947"
         d="m 41,20 c -0.106,0 -0.214,-0.017 -0.316,-0.051 L 37.455,18.873 C 35.718,18.293 33.909,18 32.079,18 h -0.158 c -1.83,0 -3.639,0.293 -5.376,0.873 l -3.229,1.076 c -0.191,0.063 -0.397,0.068 -0.591,0.013 l -7,-2 0.549,-1.923 6.703,1.915 2.935,-0.979 C 27.854,16.328 29.876,16 31.921,16 h 0.158 c 2.045,0 4.066,0.328 6.009,0.975 l 2.935,0.979 6.703,-1.915 0.549,1.923 -7,2 C 41.185,19.987 41.093,20 41,20 Z"
         inkscape:connector-curvature="0" /></g><g
       id="g1955"><g
         id="g1953"><circle
           id="circle1951"
           r="2"
           cy="14"
           cx="25" /></g></g><g
       id="g1961"><g
         id="g1959"><circle
           id="circle1957"
           r="2"
           cy="14"
           cx="39" /></g></g><g
       id="g1965"><path
         id="path1963"
         d="m 32.155,29 h -0.311 c -3.367,0 -6.628,-0.987 -9.431,-2.855 l -1.969,-1.313 1.109,-1.664 1.969,1.313 C 25.996,26.129 28.874,27 31.845,27 h 0.311 c 2.971,0 5.849,-0.871 8.321,-2.519 l 1.969,-1.313 1.109,1.664 -1.969,1.313 C 38.783,28.013 35.522,29 32.155,29 Z"
         inkscape:connector-curvature="0" /></g><g
       id="g1969"><rect
         id="rect1967"
         height="2.0009999"
         width="9.849"
         transform="matrix(0.4061,-0.9138,0.9138,0.4061,-18.7815,42.0998)"
         y="34.5"
         x="18.076" /></g><g
       id="g1973"><rect
         id="rect1971"
         height="9.849"
         width="2.0009999"
         transform="matrix(0.9138,-0.4061,0.4061,0.9138,-10.8842,19.7114)"
         y="30.576"
         x="40" /></g><g
       id="g1977"><rect
         id="rect1975"
         height="12"
         width="2"
         y="34"
         x="31" /></g><g
       id="g1981"><path
         id="path1979"
         d="m 32,42 h -6 c -0.155,0 -0.309,-0.036 -0.447,-0.105 l -4,-2 0.895,-1.789 L 26.236,40 H 32 Z"
         inkscape:connector-curvature="0" /></g><g
       id="g1985"><path
         id="path1983"
         d="m 32,51 c -1.654,0 -3,-1.346 -3,-3 0,-1.654 1.346,-3 3,-3 1.654,0 3,1.346 3,3 0,1.654 -1.346,3 -3,3 z m 0,-4 c -0.552,0 -1,0.449 -1,1 0,0.551 0.448,1 1,1 0.552,0 1,-0.449 1,-1 0,-0.551 -0.448,-1 -1,-1 z"
         inkscape:connector-curvature="0" /></g><g
       id="g1989"><path
         id="path1987"
         d="m 38,42 h -6 v -2 h 5.764 l 3.789,-1.895 0.895,1.789 -4,2 C 38.309,41.964 38.155,42 38,42 Z"
         inkscape:connector-curvature="0" /></g><g
       id="g1993"><path
         id="path1991"
         d="m 45,63 h -6 c -0.379,0 -0.725,-0.214 -0.895,-0.553 L 34.382,55 h -4.764 l -3.724,7.447 C 25.725,62.786 25.379,63 25,63 h -6 c -2.206,0 -4,-1.794 -4,-4 0,-0.107 0.018,-0.214 0.052,-0.316 l 4,-12 1.896,0.633 -3.943,11.83 C 17.08,60.181 17.946,61 19,61 h 5.382 l 3.724,-7.447 C 28.275,53.214 28.621,53 29,53 h 6 c 0.379,0 0.725,0.214 0.895,0.553 L 39.618,61 H 45 c 1.054,0 1.92,-0.819 1.995,-1.854 l -3.943,-11.83 1.896,-0.633 4,12 C 48.982,58.786 49,58.893 49,59 c 0,2.206 -1.794,4 -4,4 z"
         inkscape:connector-curvature="0" /></g><g
       id="g1997"><rect
         id="rect1995"
         height="9.4870005"
         width="2"
         transform="matrix(0.3162,-0.9487,0.9487,0.3162,-35.6346,59.5596)"
         y="49.757"
         x="22.5" /></g><g
       id="g2001"><rect
         id="rect1999"
         height="10.198"
         width="2"
         transform="matrix(0.1961,-0.9806,0.9806,0.1961,-39.1882,68.198)"
         y="52.901001"
         x="21" /></g><g
       id="g2005"><rect
         id="rect2003"
         height="2"
         width="9.4870005"
         transform="matrix(0.9486,-0.3164,0.3164,0.9486,-15.1621,15.6126)"
         y="53.5"
         x="35.757" /></g><g
       id="g2009"><rect
         id="rect2007"
         height="2"
         width="10.198"
         transform="matrix(0.9805,-0.1963,0.1963,0.9805,-10.5684,9.3733)"
         y="57"
         x="36.901001" /></g><g
       id="g2013"><rect
         id="rect2011"
         height="9.0550003"
         width="2"
         transform="matrix(0.9939,-0.1104,0.1104,0.9939,-3.9237,2.1558)"
         y="31.972"
         x="16.5" /></g><g
       id="g2017"><rect
         id="rect2015"
         height="7.6160002"
         width="2"
         transform="matrix(0.9191,-0.3939,0.3939,0.9191,-14.0744,8.4308)"
         y="34.692001"
         x="12.5" /></g><g
       id="g2021"><rect
         id="rect2019"
         height="2"
         width="9.0550003"
         transform="matrix(0.1103,-0.9939,0.9939,0.1103,5.0927,78.6893)"
         y="35.5"
         x="41.972" /></g><g
       id="g2025"><rect
         id="rect2023"
         height="2"
         width="7.6160002"
         transform="matrix(0.3941,-0.9191,0.9191,0.3941,-4.786,69.7403)"
         y="37.5"
         x="46.692001" /></g><g
       id="g2029"><path
         id="path2027"
         d="m 35,51 h -6 c -0.107,0 -0.214,-0.017 -0.316,-0.051 l -9,-3 c -0.458,-0.153 -0.742,-0.612 -0.674,-1.09 l 0.796,-5.568 -6.86,1.524 C 12.546,45.739 10.032,48 7,48 3.691,48 1,45.309 1,42 1,38.769 3.567,36.126 6.769,36.004 l 14.809,-6.911 0.846,1.812 -15,7 C 7.29,37.968 7.146,38 7,38 c -2.206,0 -4,1.794 -4,4 0,2.206 1.794,4 4,4 2.206,0 4,-1.794 4,-4 0,-0.469 0.325,-0.875 0.783,-0.976 l 9,-2 c 0.321,-0.071 0.654,0.02 0.896,0.242 0.24,0.223 0.356,0.55 0.311,0.875 L 21.108,46.315 29.162,49 h 5.676 l 8.054,-2.685 -0.882,-6.174 c -0.046,-0.325 0.07,-0.652 0.311,-0.875 0.242,-0.223 0.574,-0.314 0.896,-0.242 l 9,2 C 52.675,41.125 53,41.531 53,42 c 0,2.206 1.794,4 4,4 2.206,0 4,-1.794 4,-4 0,-2.206 -1.794,-4 -4,-4 -0.146,0 -0.29,-0.032 -0.423,-0.094 l -15,-7 0.846,-1.812 14.809,6.911 C 60.433,36.126 63,38.769 63,42 c 0,3.309 -2.691,6 -6,6 -3.032,0 -5.546,-2.261 -5.945,-5.186 l -6.86,-1.524 0.796,5.568 c 0.068,0.479 -0.216,0.938 -0.674,1.09 l -9,3 C 35.214,50.983 35.107,51 35,51 Z"
         inkscape:connector-curvature="0" /></g><g
       id="g2033"><path
         id="path2031"
         d="M 15.229,33.636 1.858,17.4 C 1.305,16.729 1,15.879 1,15.01 V 14.76 C 1,12.687 2.688,11 4.761,11 c 1.073,0 2.097,0.46 2.81,1.262 l 7.177,8.074 -1.494,1.329 -7.177,-8.074 C 5.742,13.215 5.263,13 4.761,13 3.79,13 3,13.79 3,14.76 v 0.25 c 0,0.407 0.143,0.805 0.402,1.119 l 13.369,16.235 z"
         inkscape:connector-curvature="0" /></g><g
       id="g2037"><rect
         id="rect2035"
         height="2"
         width="6.4029999"
         transform="matrix(0.7807,-0.6249,0.6249,0.7807,-9.6039,8.6348)"
         y="17"
         x="4.2979999" /></g><g
       id="g2041"><rect
         id="rect2039"
         height="2"
         width="6.4029999"
         transform="matrix(0.7807,-0.6249,0.6249,0.7807,-10.8207,11.1676)"
         y="20"
         x="7.2979999" /></g><g
       id="g2045"><path
         id="path2043"
         d="M 48.771,33.636 47.228,32.365 60.598,16.13 C 60.857,15.814 61,15.417 61,15.01 V 14.76 C 61,13.79 60.21,13 59.239,13 c -0.502,0 -0.981,0.215 -1.315,0.591 l -7.177,8.074 -1.494,-1.329 7.177,-8.074 C 57.143,11.46 58.166,11 59.239,11 61.312,11 63,12.687 63,14.76 v 0.25 c 0,0.87 -0.305,1.719 -0.857,2.391 z"
         inkscape:connector-curvature="0" /></g><g
       id="g2049"><rect
         id="rect2047"
         height="6.4029999"
         width="2"
         transform="matrix(0.6247,-0.7809,0.7809,0.6247,7.1491,50.8746)"
         y="14.798"
         x="55.5" /></g><g
       id="g2053"><rect
         id="rect2051"
         height="6.4029999"
         width="2"
         transform="matrix(0.6247,-0.7809,0.7809,0.6247,3.6806,49.6579)"
         y="17.798"
         x="52.5" /></g><g
       id="g2057"><path
         id="path2055"
         d="M 18.293,50.707 18.222,50.636 C 16.145,48.558 15,45.796 15,42.858 V 41 h 2 v 1.858 c 0,2.404 0.937,4.664 2.636,6.364 l 0.071,0.071 z"
         inkscape:connector-curvature="0" /></g><g
       id="g2061"><path
         id="path2059"
         d="m 45.707,50.707 -1.414,-1.414 0.071,-0.071 C 46.063,47.522 47,45.262 47,42.858 V 41 h 2 v 1.858 c 0,2.938 -1.145,5.7 -3.222,7.778 z"
         inkscape:connector-curvature="0" /></g></g></svg>