<svg xmlns="http://www.w3.org/2000/svg" viewBox="0 0 110.979 128.417"><path d="M55.71 128.255L.57 96.42V32.75L55.71.916l55.14 31.835V96.42z" fill="#cc93dc" stroke="#000" stroke-width="1.8"/><path d="M55.709 10.992L9.227 37.79v53.594l46.482 26.795 46.485-26.795V37.79zm44.603 79.312L55.709 116.02 11.105 90.304V38.88l44.604-25.716 44.603 25.716z"/><path d="M55.576 117.196L10.263 91.034V38.71l45.313-26.162L100.89 38.71v52.323z" fill-opacity=".295"/><path d="M74.69 68.166l15.308-18.59a3.159 3.159 0 0 0 .722-2.008v-.287a3.162 3.162 0 1 0-5.522-2.1L67.82 64.732" fill="#946c5a"/><path fill="#d1d8db" d="M81.858 48.94l-3.212 3.613 5.367 4.292 3.07-3.727z"/><path d="M38.052 68.166l-15.309-18.59a3.159 3.159 0 0 1-.72-2.008v-.287a3.162 3.162 0 1 1 5.522-2.1l17.376 19.55" fill="#946c5a"/><path fill="#d1d8db" d="M30.884 48.94l3.212 3.613-5.367 4.292-3.07-3.727z"/><path d="M74.69 75.035v4.418a11.45 11.45 0 0 1-3.353 8.096l-.082.08H41.486l-.08-.08a11.45 11.45 0 0 1-3.354-8.096v-4.418" fill="#946c5a"/><path d="M44.921 64.73l-17.174 8.015a5.725 5.725 0 1 0 5.725 5.725l10.304-2.29-1.145 8.015-4.58 13.74a3.435 3.435 0 0 0 3.435 3.434h6.87l4.58-9.16h6.87l4.58 9.16h6.87a3.435 3.435 0 0 0 3.434-3.434l-4.58-13.74-1.144-8.015 10.304 2.29a5.725 5.725 0 1 0 5.725-5.725l-17.174-8.014" fill="#67ac5b"/><path fill="#fae0b8" d="M64.386 65.876l4.58 10.304 1.144 8.015-10.304 3.435h-6.87l-10.305-3.435 1.145-8.015 4.58-10.304"/><circle r="2" cy="48" cx="32" fill="#74564a" transform="translate(19.732 30.382) scale(1.14496)"/><path fill="#9037aa" d="M72.286 90.721l1.618 4.851-11.287 2.258-1.666-3.33zM40.456 90.721l-1.617 4.853 11.286 2.256 1.666-3.33zM73.505 67.383l5.901 2.754-3.272 7.636-3.692-.82zM40.3 76.953l-3.692.82-3.273-7.636 5.902-2.754z"/><path d="M76.98 55.57c0-3.08-2.203-5.873-5.766-7.93-.433-10.026-6.902-14.968-14.843-14.968-7.942 0-14.41 4.942-14.843 14.968-3.563 2.057-5.766 4.85-5.766 7.93 0 4.817 5.358 8.93 12.938 10.622 2.242 1.946 4.86 3.118 7.67 3.118 2.812 0 5.43-1.172 7.672-3.118C71.622 64.5 76.98 60.387 76.98 55.57z" fill="#97c05c"/><path d="M74.302 49.957a15.35 15.35 0 0 0-3.089-2.317 20.2 20.2 0 0 0-.718-4.6l-7.254-1.209-6.87 2.29-6.87-2.29-7.255 1.21a20.19 20.19 0 0 0-.718 4.599c-1.2.692-2.23 1.474-3.09 2.317l7.628 2.179 3.697-1.232a20.599 20.599 0 0 1 6.517-1.058h.181c2.216 0 4.416.357 6.518 1.058l3.697 1.232z" fill="#9037aa"/><path d="M56.37 70.455c-2.864 0-5.693-1.108-8.2-3.209-8.243-1.914-13.553-6.478-13.553-11.675 0-3.241 2.055-6.278 5.801-8.602.657-9.405 6.86-15.442 15.953-15.442 9.092 0 15.295 6.037 15.953 15.442 3.746 2.324 5.801 5.36 5.801 8.602 0 5.197-5.31 9.76-13.554 11.675-2.506 2.101-5.335 3.21-8.2 3.21zm0-36.638c-8.08 0-13.33 5.316-13.699 13.872a1.145 1.145 0 0 1-.57.942c-3.35 1.934-5.194 4.4-5.194 6.94 0 4.077 4.84 7.896 12.042 9.503.186.041.358.128.502.253 4.277 3.713 9.565 3.713 13.842 0 .143-.125.315-.212.502-.253 7.2-1.607 12.04-5.426 12.04-9.503 0-2.54-1.844-5.006-5.193-6.94a1.145 1.145 0 0 1-.572-.943c-.368-8.555-5.618-13.871-13.7-13.871z"/><path d="M56.37 45.266a1.15 1.15 0 0 1-.36-.058l-6.602-2.2-6.589 1.098-.375-2.259 6.87-1.145c.181-.03.373-.016.549.044l6.508 2.169 6.508-2.17c.177-.06.369-.075.55-.044l6.87 1.145-.376 2.26-6.59-1.099-6.6 2.2c-.117.04-.24.06-.362.06zM66.676 53.281a1.15 1.15 0 0 1-.362-.058l-3.697-1.232a19.4 19.4 0 0 0-6.156-1h-.18a19.4 19.4 0 0 0-6.156 1l-3.697 1.232a1.155 1.155 0 0 1-.677.014l-8.014-2.29.628-2.201 7.675 2.192 3.36-1.12a21.73 21.73 0 0 1 6.88-1.117h.181c2.342 0 4.656.376 6.88 1.116l3.36 1.121 7.676-2.192.628 2.202-8.015 2.29a1.174 1.174 0 0 1-.314.043z"/><circle r="2" cy="14" cx="25" transform="translate(19.732 30.382) scale(1.14496)"/><circle r="2" cy="14" cx="39" transform="translate(19.732 30.382) scale(1.14496)"/><path d="M56.548 63.586h-.356a19.41 19.41 0 0 1-10.798-3.27l-2.254-1.503 1.27-1.905 2.254 1.504a17.136 17.136 0 0 0 9.53 2.884h.356c3.401 0 6.696-.998 9.527-2.884l2.254-1.504 1.27 1.905-2.254 1.504a19.41 19.41 0 0 1-10.799 3.269zM42.729 75.714l4.58-10.305 2.093.93-4.58 10.305zM63.338 66.342l2.093-.93 4.58 10.305-2.094.93zM55.226 69.31h2.29v13.74h-2.29z"/><path d="M56.37 78.47h-6.869c-.177 0-.354-.041-.512-.12l-4.58-2.29 1.025-2.048 4.337 2.168h6.6zM56.37 88.775a3.44 3.44 0 0 1-3.434-3.435 3.44 3.44 0 0 1 3.435-3.435 3.44 3.44 0 0 1 3.435 3.435 3.44 3.44 0 0 1-3.435 3.435zm0-4.58a1.146 1.146 0 0 0 0 2.29 1.146 1.146 0 0 0 0-2.29z"/><path d="M63.24 78.47h-6.87v-2.29h6.6l4.339-2.17 1.024 2.049-4.58 2.29c-.159.08-.335.121-.512.121zM71.255 102.514h-6.87c-.433 0-.83-.245-1.024-.633l-4.263-8.526h-5.454l-4.264 8.526c-.194.388-.59.633-1.024.633h-6.87a4.584 4.584 0 0 1-4.58-4.58c0-.122.021-.245.06-.361l4.58-13.74 2.17.725-4.514 13.545a2.293 2.293 0 0 0 2.284 2.121h6.163l4.263-8.526c.194-.388.59-.633 1.024-.633h6.87c.434 0 .83.245 1.025.633l4.262 8.526h6.162a2.293 2.293 0 0 0 2.285-2.122l-4.515-13.545 2.17-.725 4.58 13.74c.04.117.06.24.06.363a4.584 4.584 0 0 1-4.58 4.58z"/><path d="M41.125 92.149l.724-2.172 10.305 3.434-.724 2.173zM38.973 96.766l.449-2.246 11.45 2.29-.45 2.246zM60.59 93.411l10.303-3.437.725 2.172-10.304 3.437zM61.87 96.81l11.448-2.292.45 2.246-11.45 2.292zM38.058 67.148l2.276-.253 1.144 10.304-2.276.253zM32.418 70.905l2.104-.902 3.435 8.014-2.104.902zM71.262 77.198l1.143-10.304 2.276.252-1.143 10.305zM74.784 78.017l3.436-8.014 2.105.902-3.437 8.015z"/><path d="M59.806 88.775h-6.87c-.122 0-.245-.02-.362-.059L42.27 85.282c-.525-.176-.85-.701-.772-1.248l.911-6.376-7.854 1.745c-.458 3.348-3.337 5.937-6.808 5.937a6.877 6.877 0 0 1-6.87-6.87c0-3.7 2.94-6.725 6.605-6.865l16.956-7.913.969 2.075-17.175 8.015a1.138 1.138 0 0 1-.485.108 4.584 4.584 0 0 0-4.58 4.58 4.584 4.584 0 0 0 4.58 4.58 4.584 4.584 0 0 0 4.58-4.58c0-.537.372-1.002.896-1.117l10.305-2.29c.367-.082.749.023 1.026.277.275.255.407.63.356 1.002L43.9 83.41l9.222 3.074h6.498l9.222-3.074-1.01-7.07a1.146 1.146 0 0 1 1.382-1.278l10.305 2.29c.524.115.896.58.896 1.117a4.584 4.584 0 0 0 4.58 4.58 4.584 4.584 0 0 0 4.58-4.58 4.584 4.584 0 0 0-4.58-4.58c-.167 0-.332-.036-.484-.107l-17.175-8.015.969-2.075 16.956 7.913a6.877 6.877 0 0 1 6.604 6.864 6.877 6.877 0 0 1-6.87 6.87c-3.472 0-6.35-2.589-6.807-5.938l-7.854-1.745.911 6.375a1.145 1.145 0 0 1-.772 1.248L60.17 88.715c-.118.04-.24.06-.363.06z"/><path d="M37.169 68.894l-15.31-18.59a4.316 4.316 0 0 1-.982-2.736v-.287a4.311 4.311 0 0 1 4.306-4.305c1.229 0 2.401.527 3.218 1.445l8.217 9.245-1.71 1.521-8.218-9.244a2.018 2.018 0 0 0-3.523 1.338v.287c0 .466.164.921.46 1.28l15.307 18.59z"/><path d="M24.741 52.389l5.724-4.581 1.43 1.787-5.723 4.582zM28.176 55.824l5.724-4.581 1.43 1.788-5.723 4.58zM75.573 68.894l-1.767-1.456L89.115 48.85c.296-.362.46-.816.46-1.282v-.287a2.015 2.015 0 1 0-3.522-1.338l-8.217 9.244-1.711-1.521 8.217-9.245a4.306 4.306 0 0 1 3.217-1.445 4.311 4.311 0 0 1 4.306 4.305v.287c0 .996-.35 1.968-.981 2.737z"/><path d="M80.845 49.593l1.43-1.788 5.726 4.58-1.43 1.788zM77.41 53.028l1.431-1.788 5.725 4.58-1.43 1.788zM40.677 88.44l-.081-.082a12.516 12.516 0 0 1-3.69-8.905v-2.128h2.29v2.128c0 2.752 1.073 5.34 3.019 7.286l.08.081zM72.065 88.44l-1.62-1.62.082-.08a10.242 10.242 0 0 0 3.018-7.287v-2.128h2.29v2.128c0 3.363-1.31 6.526-3.689 8.905z"/></svg>