<?xml version="1.0" encoding="UTF-8" standalone="no"?>
<!-- Generator: Adobe Illustrator 21.0.2, SVG Export Plug-In . SVG Version: 6.00 Build 0)  -->

<svg
   xmlns:dc="http://purl.org/dc/elements/1.1/"
   xmlns:cc="http://creativecommons.org/ns#"
   xmlns:rdf="http://www.w3.org/1999/02/22-rdf-syntax-ns#"
   xmlns:svg="http://www.w3.org/2000/svg"
   xmlns="http://www.w3.org/2000/svg"
   xmlns:sodipodi="http://sodipodi.sourceforge.net/DTD/sodipodi-0.dtd"
   xmlns:inkscape="http://www.inkscape.org/namespaces/inkscape"
   version="1.1"
   x="0px"
   y="0px"
   viewBox="0 0 110.979 128.417"
   enable-background="new 0 0 110.979 128.417"
   xml:space="preserve"
   id="svg415"
   sodipodi:docname="90_10.svg"
   inkscape:version="0.92.2 5c3e80d, 2017-08-06"><metadata
     id="metadata421"><rdf:RDF><cc:Work
         rdf:about=""><dc:format>image/svg+xml</dc:format><dc:type
           rdf:resource="http://purl.org/dc/dcmitype/StillImage" /><dc:title /></cc:Work></rdf:RDF></metadata><defs
     id="defs419" /><sodipodi:namedview
     pagecolor="#ffffff"
     bordercolor="#666666"
     borderopacity="1"
     objecttolerance="10"
     gridtolerance="10"
     guidetolerance="10"
     inkscape:pageopacity="0"
     inkscape:pageshadow="2"
     inkscape:window-width="1440"
     inkscape:window-height="808"
     id="namedview417"
     showgrid="false"
     inkscape:zoom="4.8415195"
     inkscape:cx="10.36931"
     inkscape:cy="79.048678"
     inkscape:window-x="0"
     inkscape:window-y="1"
     inkscape:window-maximized="1"
     inkscape:current-layer="svg415"
     showguides="true"
     inkscape:guide-bbox="true" /><g
     id="g5"
     transform="translate(0.15372898,0.37381641)"
     style="fill:#c3c1a3;fill-opacity:1;stroke:#000000;stroke-opacity:1;stroke-width:1.8;stroke-miterlimit:4;stroke-dasharray:none"><polygon
       style="fill:#c3c1a3;fill-opacity:1;stroke:#000000;stroke-opacity:1;stroke-width:1.8;stroke-miterlimit:4;stroke-dasharray:none"
       id="polygon3"
       points="55.556,127.881 0.417,96.047 0.417,32.377 55.556,0.542 110.696,32.377 110.696,96.046 " /></g><g
     id="Layer_1" /><g
     id="g13"
     enable-background="new    "
     transform="translate(0.15372898,0.37381641)"
     style="fill:#000000;fill-opacity:1"><path
       style="fill:#000000;fill-opacity:1"
       inkscape:connector-curvature="0"
       id="path11"
       d="M 55.555,10.618 9.073,37.416 V 91.01 L 55.555,117.805 102.04,91.01 V 37.416 Z M 100.158,89.93 55.555,115.646 10.951,89.93 V 38.506 L 55.555,12.79 100.158,38.506 Z" /></g><g
     id="g9"
     transform="translate(0.15372898,0.37381641)"
     style="fill:#fefefe;fill-opacity:0.29523811;stroke:#000000;stroke-opacity:1;stroke-width:1.4;stroke-miterlimit:4;stroke-dasharray:none"><polygon
       style="fill:#fefefe;fill-opacity:0.29523811;stroke:#000000;stroke-opacity:1;stroke-width:1.4;stroke-miterlimit:4;stroke-dasharray:none"
       id="polygon7"
       points="55.422,116.822 10.109,90.66 10.109,38.337 55.422,12.175 100.736,38.337 100.736,90.66 " /></g><g
     id="border" /><g
     id="g6263"
     transform="matrix(0.04851667,0,0,0.04165631,44.135969,68.925307)" /><g
     id="g6265"
     transform="matrix(0.04851667,0,0,0.04165631,44.135969,68.925307)" /><g
     id="g6267"
     transform="matrix(0.04851667,0,0,0.04165631,44.135969,68.925307)" /><g
     id="g6269"
     transform="matrix(0.04851667,0,0,0.04165631,44.135969,68.925307)" /><g
     id="g6271"
     transform="matrix(0.04851667,0,0,0.04165631,44.135969,68.925307)" /><g
     id="g6273"
     transform="matrix(0.04851667,0,0,0.04165631,44.135969,68.925307)" /><g
     id="g6275"
     transform="matrix(0.04851667,0,0,0.04165631,44.135969,68.925307)" /><g
     id="g6277"
     transform="matrix(0.04851667,0,0,0.04165631,44.135969,68.925307)" /><g
     id="g6279"
     transform="matrix(0.04851667,0,0,0.04165631,44.135969,68.925307)" /><g
     id="g6281"
     transform="matrix(0.04851667,0,0,0.04165631,44.135969,68.925307)" /><g
     id="g6283"
     transform="matrix(0.04851667,0,0,0.04165631,44.135969,68.925307)" /><g
     id="g6285"
     transform="matrix(0.04851667,0,0,0.04165631,44.135969,68.925307)" /><g
     id="g6287"
     transform="matrix(0.04851667,0,0,0.04165631,44.135969,68.925307)" /><g
     id="g6289"
     transform="matrix(0.04851667,0,0,0.04165631,44.135969,68.925307)" /><g
     id="g6291"
     transform="matrix(0.04851667,0,0,0.04165631,44.135969,68.925307)" /><g
     id="g9294"
     transform="matrix(0.87382354,0,0,0.87382354,7.609019,10.077301)"
     style="stroke:#000000;stroke-opacity:0.88151658;stroke-width:1.80127901;stroke-miterlimit:4;stroke-dasharray:none"><path
       stroke-miterlimit="2.6131"
       d="m 29.130229,50.707147 c 0.01931,-0.03189 0.03979,-0.06332 0.06027,-0.09416 3.309589,-5.117014 8.530215,-8.111937 13.439626,-8.111937 4.99911,0 8.141632,2.751918 12.273875,2.751918 4.009504,0 6.451645,-2.755891 12.231295,-2.755891 4.366792,0 8.996631,2.387878 12.294353,6.516865 -0.911775,0.501432 -1.734314,1.070741 -2.469481,1.69648 z"
       id="path5"
       inkscape:connector-curvature="0"
       style="clip-rule:evenodd;fill:#61bb46;fill-rule:evenodd;stroke:#000000;stroke-width:1.80127901;stroke-miterlimit:4;stroke-dasharray:none;stroke-opacity:0.88151658" /><path
       stroke-miterlimit="2.6131"
       d="m 62.751282,37.886632 c 2.097884,-2.705653 3.693634,-6.525977 3.115296,-10.431936 -3.430002,0.236112 -7.441833,2.429001 -9.785083,5.283612 -2.126271,2.593264 -3.881642,6.439289 -3.198248,10.175262 3.744708,0.116947 7.61844,-2.128399 9.868035,-5.026938 z"
       id="path7"
       inkscape:connector-curvature="0"
       style="clip-rule:evenodd;fill:#61bb46;fill-rule:evenodd;stroke:#000000;stroke-width:1.80127901;stroke-miterlimit:4;stroke-dasharray:none;stroke-opacity:0.88151658" /><path
       stroke-miterlimit="2.6131"
       d="m 29.178577,50.622618 c -1.425265,2.242295 -2.450418,5.465392 -2.712121,8.284322 l 45.878524,-0.0012 c 0.499942,-3.084008 2.122939,-6.069268 4.757784,-8.309323 l -47.531676,0.03533 z"
       id="path9"
       style="clip-rule:evenodd;fill:#fdb827;fill-rule:evenodd;stroke:#000000;stroke-width:1.80127901;stroke-miterlimit:4;stroke-dasharray:none;stroke-opacity:0.88151658"
       inkscape:connector-curvature="0"
       sodipodi:nodetypes="cccccc" /><path
       stroke-miterlimit="2.6131"
       d="M 26.706238,67.108369 C 26.256924,64.229223 26.18421,61.453472 26.466456,58.90694 l 45.878524,-0.0012 c -0.448732,2.761615 -0.07213,5.635503 1.062904,8.204349 z"
       id="path11-9"
       inkscape:connector-curvature="0"
       style="clip-rule:evenodd;fill:#f5821f;fill-rule:evenodd;stroke:#000000;stroke-width:1.80127901;stroke-miterlimit:4;stroke-dasharray:none;stroke-opacity:0.88151658" /><path
       stroke-miterlimit="2.6131"
       d="m 28.948386,75.309213 c -1.08338,-2.755306 -1.825177,-5.522646 -2.242148,-8.200844 l 46.701646,0.0018 c 1.445785,3.273327 4.121424,6.054219 7.888936,7.483277 -0.111921,0.249898 -0.219887,0.488931 -0.323781,0.719318 z"
       id="path13"
       inkscape:connector-curvature="0"
       style="clip-rule:evenodd;fill:#e03a3e;fill-rule:evenodd;stroke:#000000;stroke-width:1.80127901;stroke-miterlimit:4;stroke-dasharray:none;stroke-opacity:0.88151658" /><path
       stroke-miterlimit="2.6131"
       d="m 80.972923,75.3126 c -1.293493,2.855663 -2.043319,4.337762 -3.833362,7.073674 -0.240827,0.367429 -0.489684,0.74327 -0.748778,1.122615 l -43.10795,0.004 c -0.138098,-0.206556 -0.274916,-0.412993 -0.409641,-0.617795 -1.61169,-2.464984 -2.916467,-5.020629 -3.924806,-7.585971 z"
       id="path15"
       inkscape:connector-curvature="0"
       style="clip-rule:evenodd;fill:#963d97;fill-rule:evenodd;stroke:#000000;stroke-width:1.80127901;stroke-miterlimit:4;stroke-dasharray:none;stroke-opacity:0.88151658" /><path
       stroke-miterlimit="2.6131"
       d="m 76.390783,83.508889 c -2.637014,3.879089 -6.177309,8.147804 -10.473131,8.188343 -4.191811,0.0382 -5.267163,-2.7393 -10.954206,-2.70799 -5.687042,0.03189 -6.874315,2.756474 -11.066126,2.717103 -4.481621,-0.04159 -7.96165,-4.2339 -10.614487,-8.193483 z"
       id="path19"
       inkscape:connector-curvature="0"
       style="clip-rule:evenodd;fill:#009ddc;fill-rule:evenodd;stroke:#000000;stroke-width:1.80127901;stroke-miterlimit:4;stroke-dasharray:none;stroke-opacity:0.88151658" /></g></svg>