<?xml version="1.0" encoding="UTF-8" standalone="no"?>
<!-- Generator: Adobe Illustrator 21.0.2, SVG Export Plug-In . SVG Version: 6.00 Build 0)  -->

<svg
   xmlns:dc="http://purl.org/dc/elements/1.1/"
   xmlns:cc="http://creativecommons.org/ns#"
   xmlns:rdf="http://www.w3.org/1999/02/22-rdf-syntax-ns#"
   xmlns:svg="http://www.w3.org/2000/svg"
   xmlns="http://www.w3.org/2000/svg"
   xmlns:sodipodi="http://sodipodi.sourceforge.net/DTD/sodipodi-0.dtd"
   xmlns:inkscape="http://www.inkscape.org/namespaces/inkscape"
   version="1.1"
   x="0px"
   y="0px"
   viewBox="0 0 110.979 128.417"
   enable-background="new 0 0 110.979 128.417"
   xml:space="preserve"
   id="svg415"
   sodipodi:docname="90_2.svg"
   inkscape:version="0.92.2 5c3e80d, 2017-08-06"><metadata
     id="metadata421"><rdf:RDF><cc:Work
         rdf:about=""><dc:format>image/svg+xml</dc:format><dc:type
           rdf:resource="http://purl.org/dc/dcmitype/StillImage" /><dc:title /></cc:Work></rdf:RDF></metadata><defs
     id="defs419" /><sodipodi:namedview
     pagecolor="#ffffff"
     bordercolor="#666666"
     borderopacity="1"
     objecttolerance="10"
     gridtolerance="10"
     guidetolerance="10"
     inkscape:pageopacity="0"
     inkscape:pageshadow="2"
     inkscape:window-width="1440"
     inkscape:window-height="808"
     id="namedview417"
     showgrid="false"
     inkscape:zoom="4.8415196"
     inkscape:cx="52.650587"
     inkscape:cy="64.726435"
     inkscape:window-x="0"
     inkscape:window-y="1"
     inkscape:window-maximized="1"
     inkscape:current-layer="svg415"
     showguides="true"
     inkscape:guide-bbox="true" /><g
     id="g5"
     transform="translate(0.15372898,0.37381641)"
     style="fill:#e3c68f;fill-opacity:1;stroke:#000000;stroke-opacity:1;stroke-width:1.8;stroke-miterlimit:4;stroke-dasharray:none"><polygon
       style="fill:#e3c68f;fill-opacity:1;stroke:#000000;stroke-opacity:1;stroke-width:1.8;stroke-miterlimit:4;stroke-dasharray:none"
       id="polygon3"
       points="55.556,127.881 0.417,96.047 0.417,32.377 55.556,0.542 110.696,32.377 110.696,96.046 " /></g><g
     id="Layer_1" /><g
     id="g13"
     enable-background="new    "
     transform="translate(0.15372898,0.37381641)"
     style="fill:#000000;fill-opacity:1"><path
       style="fill:#000000;fill-opacity:1"
       inkscape:connector-curvature="0"
       id="path11"
       d="M 55.555,10.618 9.073,37.416 V 91.01 L 55.555,117.805 102.04,91.01 V 37.416 Z M 100.158,89.93 55.555,115.646 10.951,89.93 V 38.506 L 55.555,12.79 100.158,38.506 Z" /></g><g
     id="g9"
     transform="translate(0.15372898,0.37381641)"
     style="fill:#000000;fill-opacity:0.29523811"><polygon
       style="fill:#000000;fill-opacity:0.29523811"
       id="polygon7"
       points="55.422,116.822 10.109,90.66 10.109,38.337 55.422,12.175 100.736,38.337 100.736,90.66 " /></g><g
     id="border" /><g
     id="g6263"
     transform="matrix(0.04851667,0,0,0.04165631,44.135969,68.925307)" /><g
     id="g6265"
     transform="matrix(0.04851667,0,0,0.04165631,44.135969,68.925307)" /><g
     id="g6267"
     transform="matrix(0.04851667,0,0,0.04165631,44.135969,68.925307)" /><g
     id="g6269"
     transform="matrix(0.04851667,0,0,0.04165631,44.135969,68.925307)" /><g
     id="g6271"
     transform="matrix(0.04851667,0,0,0.04165631,44.135969,68.925307)" /><g
     id="g6273"
     transform="matrix(0.04851667,0,0,0.04165631,44.135969,68.925307)" /><g
     id="g6275"
     transform="matrix(0.04851667,0,0,0.04165631,44.135969,68.925307)" /><g
     id="g6277"
     transform="matrix(0.04851667,0,0,0.04165631,44.135969,68.925307)" /><g
     id="g6279"
     transform="matrix(0.04851667,0,0,0.04165631,44.135969,68.925307)" /><g
     id="g6281"
     transform="matrix(0.04851667,0,0,0.04165631,44.135969,68.925307)" /><g
     id="g6283"
     transform="matrix(0.04851667,0,0,0.04165631,44.135969,68.925307)" /><g
     id="g6285"
     transform="matrix(0.04851667,0,0,0.04165631,44.135969,68.925307)" /><g
     id="g6287"
     transform="matrix(0.04851667,0,0,0.04165631,44.135969,68.925307)" /><g
     id="g6289"
     transform="matrix(0.04851667,0,0,0.04165631,44.135969,68.925307)" /><g
     id="g6291"
     transform="matrix(0.04851667,0,0,0.04165631,44.135969,68.925307)" /><g
     id="g3989"
     transform="matrix(0.12826054,0,0,0.12826054,24.117173,29.848657)" /><g
     id="g3991"
     transform="matrix(0.12826054,0,0,0.12826054,24.117173,29.848657)" /><g
     id="g3993"
     transform="matrix(0.12826054,0,0,0.12826054,24.117173,29.848657)" /><g
     id="g3995"
     transform="matrix(0.12826054,0,0,0.12826054,24.117173,29.848657)" /><g
     id="g3997"
     transform="matrix(0.12826054,0,0,0.12826054,24.117173,29.848657)" /><g
     id="g3999"
     transform="matrix(0.12826054,0,0,0.12826054,24.117173,29.848657)" /><g
     id="g4001"
     transform="matrix(0.12826054,0,0,0.12826054,24.117173,29.848657)" /><g
     id="g4003"
     transform="matrix(0.12826054,0,0,0.12826054,24.117173,29.848657)" /><g
     id="g4005"
     transform="matrix(0.12826054,0,0,0.12826054,24.117173,29.848657)" /><g
     id="g4007"
     transform="matrix(0.12826054,0,0,0.12826054,24.117173,29.848657)" /><g
     id="g4009"
     transform="matrix(0.12826054,0,0,0.12826054,24.117173,29.848657)" /><g
     id="g4011"
     transform="matrix(0.12826054,0,0,0.12826054,24.117173,29.848657)" /><g
     id="g4013"
     transform="matrix(0.12826054,0,0,0.12826054,24.117173,29.848657)" /><g
     id="g4015"
     transform="matrix(0.12826054,0,0,0.12826054,24.117173,29.848657)" /><g
     id="g4017"
     transform="matrix(0.12826054,0,0,0.12826054,24.117173,29.848657)" /><g
     id="g5362"
     transform="matrix(0.80372756,0,0,0.80372756,-60.499247,7.7349756)"><rect
       id="rect5178"
       style="fill:#dfbe80;fill-opacity:1;stroke-width:1.12227225"
       height="29.179079"
       width="53.869072"
       y="46.107838"
       x="118.72925" /><rect
       id="rect5180"
       style="fill:#113142;stroke-width:1.12227225"
       height="4.489089"
       width="22.445446"
       y="41.618748"
       x="134.44106" /><rect
       id="rect5182"
       style="fill:#72551d;fill-opacity:1;stroke-width:1.12227225"
       height="6.733634"
       width="6.733634"
       y="50.596924"
       x="161.3756" /><circle
       id="circle5186"
       style="fill:#72551d;fill-opacity:1;stroke-width:1.12227225"
       r="3.366817"
       cy="62.941921"
       cx="126.58515" /><rect
       id="rect5188"
       style="fill:#113142;stroke-width:1.12227225"
       ry="2.2445445"
       rx="2.2445445"
       height="20.200901"
       width="20.200901"
       y="50.596924"
       x="135.56334" /><rect
       id="rect5190"
       style="fill:#ecd7b1;fill-opacity:1;stroke-width:1.12227225"
       height="11.222723"
       width="11.222723"
       y="55.086014"
       x="140.05243" /><rect
       id="rect5192"
       style="fill:#473512;fill-opacity:1;stroke-width:1.12227225"
       height="4.489089"
       width="53.869072"
       y="75.286919"
       x="118.72925" /><rect
       id="rect5194"
       style="fill:#473512;fill-opacity:1;stroke-width:1.12227225"
       height="8.978178"
       width="53.869072"
       y="79.776009"
       x="118.72925" /><rect
       id="rect5196"
       style="fill:#bfbfbf;stroke-width:1.12227225"
       height="22.445446"
       width="38.157257"
       y="84.265091"
       x="126.58515" /><rect
       id="rect5198"
       style="fill:#e8e8e8;stroke-width:1.12227225"
       height="15.711812"
       width="29.179079"
       y="84.265091"
       x="131.07425" /><rect
       id="rect5200"
       style="fill:#113142;stroke-width:1.12227225"
       height="2.2445445"
       width="44.890892"
       y="83.142822"
       x="123.21834" /><rect
       id="rect5202"
       style="fill:#4da19a;stroke-width:1.12227225"
       height="2.2445445"
       width="2.2445445"
       y="69.675552"
       x="166.98695" /><rect
       id="rect5204"
       style="fill:#4da19a;stroke-width:1.12227225"
       height="2.2445445"
       width="2.2445445"
       y="69.675552"
       x="162.49786" /><rect
       id="rect5206"
       style="fill:#4da19a;stroke-width:1.12227225"
       height="2.2445445"
       width="2.2445445"
       y="60.697376"
       x="143.41924" /><path
       style="stroke-width:1.12227225"
       id="path5208"
       d="m 133.31879,40.496475 v 4.489089 h -15.71181 v 44.890892 h 7.8559 v 17.956354 h 40.4018 V 89.876456 h 7.85591 V 44.985564 h -15.71181 v -4.489089 z m 2.24454,2.244544 h 20.2009 v 2.244545 h -20.2009 z m 28.05681,62.847251 H 127.70743 V 85.387367 h 2.24454 V 101.09918 H 161.3756 V 85.387367 h 2.24454 z M 132.19652,98.854634 V 85.387367 h 26.93453 v 13.467267 z m 39.27953,-11.222723 h -5.61137 v -2.244544 h 2.24455 v -2.244545 h -44.89089 v 2.244545 h 2.24454 v 2.244544 h -5.61136 v -6.733634 h 51.62453 z m 0,-8.978178 h -51.62453 v -2.244545 h 51.62453 z m 0,-31.423625 V 74.164644 H 119.85152 V 47.230108 Z"
       inkscape:connector-curvature="0" /><path
       style="stroke-width:1.12227225"
       id="path5210"
       d="m 161.3756,58.452831 h 6.73363 a 1.1222723,1.1222723 0 0 0 1.12227,-1.122272 v -6.733634 a 1.1222723,1.1222723 0 0 0 -1.12227,-1.122272 h -6.73363 a 1.1222723,1.1222723 0 0 0 -1.12228,1.122272 v 6.733634 a 1.1222723,1.1222723 0 0 0 1.12228,1.122272 z m 1.12227,-6.733633 h 4.48909 v 4.489089 h -4.48909 z"
       inkscape:connector-curvature="0" /><path
       style="stroke-width:1.12227225"
       id="path5214"
       d="m 126.58515,58.452831 a 4.4890892,4.4890892 0 1 0 4.48909,4.48909 4.4890892,4.4890892 0 0 0 -4.48909,-4.48909 z m 0,6.733634 a 2.2445446,2.2445446 0 1 1 2.24455,-2.244544 2.2445446,2.2445446 0 0 1 -2.24455,2.244544 z"
       inkscape:connector-curvature="0" /><path
       style="stroke-width:1.12227225"
       id="path5216"
       d="m 153.51969,49.474653 h -15.71181 a 3.3668169,3.3668169 0 0 0 -3.36682,3.366817 v 15.711812 a 3.3668169,3.3668169 0 0 0 3.36682,3.366817 h 15.71181 a 3.3668169,3.3668169 0 0 0 3.36682,-3.366817 V 52.84147 a 3.3668169,3.3668169 0 0 0 -3.36682,-3.366817 z m 1.12227,19.078629 a 1.1222723,1.1222723 0 0 1 -1.12227,1.122272 h -15.71181 a 1.1222723,1.1222723 0 0 1 -1.12227,-1.122272 V 52.84147 a 1.1222723,1.1222723 0 0 1 1.12227,-1.122272 h 15.71181 a 1.1222723,1.1222723 0 0 1 1.12227,1.122272 z"
       inkscape:connector-curvature="0" /><path
       style="stroke-width:1.12227225"
       id="path5218"
       d="m 151.27515,53.963742 h -11.22273 a 1.1222723,1.1222723 0 0 0 -1.12227,1.122273 v 11.222723 a 1.1222723,1.1222723 0 0 0 1.12227,1.122272 h 11.22273 a 1.1222723,1.1222723 0 0 0 1.12227,-1.122272 V 55.086015 a 1.1222723,1.1222723 0 0 0 -1.12227,-1.122273 z m -1.12228,11.222723 h -8.97818 v -8.978178 h 8.97818 z"
       inkscape:connector-curvature="0" /><rect
       style="stroke-width:1.12227225"
       id="rect5220"
       height="2.2445445"
       width="2.2445445"
       y="69.675552"
       x="166.98695" /><rect
       style="stroke-width:1.12227225"
       id="rect5222"
       height="2.2445445"
       width="2.2445445"
       y="69.675552"
       x="162.49786" /><rect
       style="stroke-width:1.12227225"
       id="rect5224"
       height="2.2445445"
       width="2.2445445"
       y="60.697376"
       x="143.41924" /></g></svg>