<?xml version="1.0" encoding="UTF-8" standalone="no"?>
<!-- Generator: Adobe Illustrator 21.0.2, SVG Export Plug-In . SVG Version: 6.00 Build 0)  -->

<svg
   xmlns:dc="http://purl.org/dc/elements/1.1/"
   xmlns:cc="http://creativecommons.org/ns#"
   xmlns:rdf="http://www.w3.org/1999/02/22-rdf-syntax-ns#"
   xmlns:svg="http://www.w3.org/2000/svg"
   xmlns="http://www.w3.org/2000/svg"
   xmlns:sodipodi="http://sodipodi.sourceforge.net/DTD/sodipodi-0.dtd"
   xmlns:inkscape="http://www.inkscape.org/namespaces/inkscape"
   version="1.1"
   x="0px"
   y="0px"
   viewBox="0 0 110.979 128.417"
   enable-background="new 0 0 110.979 128.417"
   xml:space="preserve"
   id="svg415"
   sodipodi:docname="90_3.svg"
   inkscape:version="0.92.2 5c3e80d, 2017-08-06"><metadata
     id="metadata421"><rdf:RDF><cc:Work
         rdf:about=""><dc:format>image/svg+xml</dc:format><dc:type
           rdf:resource="http://purl.org/dc/dcmitype/StillImage" /><dc:title></dc:title></cc:Work></rdf:RDF></metadata><defs
     id="defs419" /><sodipodi:namedview
     pagecolor="#ffffff"
     bordercolor="#666666"
     borderopacity="1"
     objecttolerance="10"
     gridtolerance="10"
     guidetolerance="10"
     inkscape:pageopacity="0"
     inkscape:pageshadow="2"
     inkscape:window-width="1440"
     inkscape:window-height="808"
     id="namedview417"
     showgrid="false"
     inkscape:zoom="3.4234713"
     inkscape:cx="61.074445"
     inkscape:cy="77.18004"
     inkscape:window-x="0"
     inkscape:window-y="1"
     inkscape:window-maximized="1"
     inkscape:current-layer="svg415"
     showguides="true"
     inkscape:guide-bbox="true" /><g
     id="g5"
     transform="translate(0.15372898,0.37381641)"
     style="fill:#e8d2a7;fill-opacity:1;stroke:#000000;stroke-opacity:1;stroke-width:1.8;stroke-miterlimit:4;stroke-dasharray:none"><polygon
       style="fill:#e8d2a7;fill-opacity:1;stroke:#000000;stroke-opacity:1;stroke-width:1.8;stroke-miterlimit:4;stroke-dasharray:none"
       id="polygon3"
       points="55.556,127.881 0.417,96.047 0.417,32.377 55.556,0.542 110.696,32.377 110.696,96.046 " /></g><g
     id="Layer_1" /><g
     id="g13"
     enable-background="new    "
     transform="translate(0.15372898,0.37381641)"
     style="fill:#000000;fill-opacity:1"><path
       style="fill:#000000;fill-opacity:1"
       inkscape:connector-curvature="0"
       id="path11"
       d="M 55.555,10.618 9.073,37.416 V 91.01 L 55.555,117.805 102.04,91.01 V 37.416 Z M 100.158,89.93 55.555,115.646 10.951,89.93 V 38.506 L 55.555,12.79 100.158,38.506 Z" /></g><g
     id="g9"
     transform="translate(0.15372898,0.37381641)"
     style="fill:#000000;fill-opacity:0.29523811"><polygon
       style="fill:#000000;fill-opacity:0.29523811"
       id="polygon7"
       points="55.422,116.822 10.109,90.66 10.109,38.337 55.422,12.175 100.736,38.337 100.736,90.66 " /></g><g
     id="border" /><g
     id="g6263"
     transform="matrix(0.04851667,0,0,0.04165631,44.135969,68.925307)" /><g
     id="g6265"
     transform="matrix(0.04851667,0,0,0.04165631,44.135969,68.925307)" /><g
     id="g6267"
     transform="matrix(0.04851667,0,0,0.04165631,44.135969,68.925307)" /><g
     id="g6269"
     transform="matrix(0.04851667,0,0,0.04165631,44.135969,68.925307)" /><g
     id="g6271"
     transform="matrix(0.04851667,0,0,0.04165631,44.135969,68.925307)" /><g
     id="g6273"
     transform="matrix(0.04851667,0,0,0.04165631,44.135969,68.925307)" /><g
     id="g6275"
     transform="matrix(0.04851667,0,0,0.04165631,44.135969,68.925307)" /><g
     id="g6277"
     transform="matrix(0.04851667,0,0,0.04165631,44.135969,68.925307)" /><g
     id="g6279"
     transform="matrix(0.04851667,0,0,0.04165631,44.135969,68.925307)" /><g
     id="g6281"
     transform="matrix(0.04851667,0,0,0.04165631,44.135969,68.925307)" /><g
     id="g6283"
     transform="matrix(0.04851667,0,0,0.04165631,44.135969,68.925307)" /><g
     id="g6285"
     transform="matrix(0.04851667,0,0,0.04165631,44.135969,68.925307)" /><g
     id="g6287"
     transform="matrix(0.04851667,0,0,0.04165631,44.135969,68.925307)" /><g
     id="g6289"
     transform="matrix(0.04851667,0,0,0.04165631,44.135969,68.925307)" /><g
     id="g6291"
     transform="matrix(0.04851667,0,0,0.04165631,44.135969,68.925307)" /><g
     id="g3989"
     transform="matrix(0.12826054,0,0,0.12826054,24.117173,29.848657)" /><g
     id="g3991"
     transform="matrix(0.12826054,0,0,0.12826054,24.117173,29.848657)" /><g
     id="g3993"
     transform="matrix(0.12826054,0,0,0.12826054,24.117173,29.848657)" /><g
     id="g3995"
     transform="matrix(0.12826054,0,0,0.12826054,24.117173,29.848657)" /><g
     id="g3997"
     transform="matrix(0.12826054,0,0,0.12826054,24.117173,29.848657)" /><g
     id="g3999"
     transform="matrix(0.12826054,0,0,0.12826054,24.117173,29.848657)" /><g
     id="g4001"
     transform="matrix(0.12826054,0,0,0.12826054,24.117173,29.848657)" /><g
     id="g4003"
     transform="matrix(0.12826054,0,0,0.12826054,24.117173,29.848657)" /><g
     id="g4005"
     transform="matrix(0.12826054,0,0,0.12826054,24.117173,29.848657)" /><g
     id="g4007"
     transform="matrix(0.12826054,0,0,0.12826054,24.117173,29.848657)" /><g
     id="g4009"
     transform="matrix(0.12826054,0,0,0.12826054,24.117173,29.848657)" /><g
     id="g4011"
     transform="matrix(0.12826054,0,0,0.12826054,24.117173,29.848657)" /><g
     id="g4013"
     transform="matrix(0.12826054,0,0,0.12826054,24.117173,29.848657)" /><g
     id="g4015"
     transform="matrix(0.12826054,0,0,0.12826054,24.117173,29.848657)" /><g
     id="g4017"
     transform="matrix(0.12826054,0,0,0.12826054,24.117173,29.848657)" /><g
     id="g6214"
     transform="matrix(0.13069972,0,0,0.13069972,25.030658,28.693865)"><path
       id="path5743"
       d="M 40.011719,88.003906 H 424.01172 c 17.67187,0 32,14.324224 32,32.000004 v 336 c 0,8.83593 -7.16406,16 -16,16 H 24.011719 c -8.835938,0 -16,-7.16407 -16,-16 v -336 c 0,-17.67578 14.328125,-32.000004 32,-32.000004 z m 0,0"
       inkscape:connector-curvature="0"
       style="fill:#a88e74" /><path
       id="path5745"
       d="M 48.011719,120.00391 H 416.01172 c 4.41797,0 8,3.57812 8,8 v 216 H 40.011719 v -216 c 0,-4.42188 3.582031,-8 8,-8 z m 0,0"
       inkscape:connector-curvature="0"
       style="fill:#a8a8a8" /><path
       id="path5747"
       d="M 8.011719,344.00391 H 456.01172 v 112 c 0,8.83593 -7.16406,16 -16,16 H 24.011719 c -8.835938,0 -16,-7.16407 -16,-16 z m 0,0"
       inkscape:connector-curvature="0"
       style="fill:#eaeae8" /><path
       id="path5749"
       d="m 424.01172,408.00391 c 0,17.67187 -14.32813,32 -32,32 -17.67188,0 -32,-14.32813 -32,-32 0,-17.67579 14.32812,-32 32,-32 17.67187,0 32,14.32421 32,32 z m 0,0"
       inkscape:connector-curvature="0"
       style="fill:#cbcbcb" /><path
       id="path5751"
       d="m 328.01172,408.00391 c 0,17.67187 -14.32813,32 -32,32 -17.67188,0 -32,-14.32813 -32,-32 0,-17.67579 14.32812,-32 32,-32 17.67187,0 32,14.32421 32,32 z m 0,0"
       inkscape:connector-curvature="0"
       style="fill:#cbcbcb" /><path
       id="path5753"
       d="M 40.011719,376.00391 H 232.01172 v 64 H 40.011719 Z m 0,0"
       inkscape:connector-curvature="0"
       style="fill:#f3af3e" /><path
       id="path5755"
       d="m 80.011719,416.00391 h 16 v 24 h -16 z m 0,0"
       inkscape:connector-curvature="0"
       style="fill:#da922a" /><path
       id="path5757"
       d="m 112.01172,416.00391 h 16 v 24 h -16 z m 0,0"
       inkscape:connector-curvature="0"
       style="fill:#e06661" /><path
       id="path5759"
       d="m 144.01172,416.00391 h 16 v 24 h -16 z m 0,0"
       inkscape:connector-curvature="0"
       style="fill:#da922a" /><path
       id="path5761"
       d="m 176.01172,416.00391 h 16 v 24 h -16 z m 0,0"
       inkscape:connector-curvature="0"
       style="fill:#da922a" /><path
       id="path5763"
       d="m 64.011719,376.00391 h 16 v 24 h -16 z m 0,0"
       inkscape:connector-curvature="0"
       style="fill:#da922a" /><path
       id="path5765"
       d="m 96.011719,376.00391 h 16.000001 v 24 H 96.011719 Z m 0,0"
       inkscape:connector-curvature="0"
       style="fill:#da922a" /><path
       id="path5767"
       d="m 128.01172,376.00391 h 16 v 24 h -16 z m 0,0"
       inkscape:connector-curvature="0"
       style="fill:#da922a" /><path
       id="path5769"
       d="m 160.01172,376.00391 h 16 v 24 h -16 z m 0,0"
       inkscape:connector-curvature="0"
       style="fill:#da922a" /><path
       id="path5771"
       d="m 192.01172,376.00391 h 16 v 24 h -16 z m 0,0"
       inkscape:connector-curvature="0"
       style="fill:#da922a" /><path
       id="path5773"
       d="m 286.66797,379.5625 c -0.44141,-0.58203 -0.96094,-1.09766 -1.54297,-1.53516 -4.8125,1.74219 -9.13281,4.61328 -12.60156,8.375 0.17187,0.70703 0.4414,1.39063 0.80078,2.02344 l 16,24 c 2.44922,3.67578 7.41797,4.66797 11.09375,2.21485 3.67578,-2.44922 4.66797,-7.41797 2.21875,-11.09375 z m 0,0"
       inkscape:connector-curvature="0"
       style="fill:#f3f3f0" /><path
       id="path5775"
       d="m 382.66797,379.5625 c -0.46094,-0.58984 -0.9961,-1.11328 -1.60156,-1.55078 -4.40235,1.55859 -8.40625,4.07422 -11.71875,7.36719 -0.32813,0.32031 -0.55078,0.70312 -0.85547,1.03906 0.16406,0.71094 0.43359,1.39062 0.80078,2.02344 l 16,24 c 2.44922,3.67578 7.41797,4.66797 11.09375,2.21484 3.67578,-2.44922 4.66797,-7.41797 2.21484,-11.09375 z m 0,0"
       inkscape:connector-curvature="0"
       style="fill:#f3f3f0" /><g
       id="g5909"
       style="fill:#9c9c9c"><path
         id="path5777"
         d="m 64.011719,144.00391 h 16 v 16 h -16 z m 0,0"
         inkscape:connector-curvature="0" /><path
         id="path5779"
         d="m 96.011719,144.00391 h 16.000001 v 16 H 96.011719 Z m 0,0"
         inkscape:connector-curvature="0" /><path
         id="path5781"
         d="m 128.01172,144.00391 h 16 v 16 h -16 z m 0,0"
         inkscape:connector-curvature="0" /><path
         id="path5783"
         d="m 160.01172,144.00391 h 16 v 16 h -16 z m 0,0"
         inkscape:connector-curvature="0" /><path
         id="path5785"
         d="m 192.01172,144.00391 h 16 v 16 h -16 z m 0,0"
         inkscape:connector-curvature="0" /><path
         id="path5787"
         d="m 224.01172,144.00391 h 16 v 16 h -16 z m 0,0"
         inkscape:connector-curvature="0" /><path
         id="path5789"
         d="m 256.01172,144.00391 h 16 v 16 h -16 z m 0,0"
         inkscape:connector-curvature="0" /><path
         id="path5791"
         d="m 288.01172,144.00391 h 16 v 16 h -16 z m 0,0"
         inkscape:connector-curvature="0" /><path
         id="path5793"
         d="m 320.01172,144.00391 h 16 v 16 h -16 z m 0,0"
         inkscape:connector-curvature="0" /><path
         id="path5795"
         d="m 352.01172,144.00391 h 16 v 16 h -16 z m 0,0"
         inkscape:connector-curvature="0" /><path
         id="path5797"
         d="m 64.011719,176.00391 h 16 v 16 h -16 z m 0,0"
         inkscape:connector-curvature="0" /><path
         id="path5799"
         d="m 96.011719,176.00391 h 16.000001 v 16 H 96.011719 Z m 0,0"
         inkscape:connector-curvature="0" /><path
         id="path5801"
         d="m 128.01172,176.00391 h 16 v 16 h -16 z m 0,0"
         inkscape:connector-curvature="0" /><path
         id="path5803"
         d="m 160.01172,176.00391 h 16 v 16 h -16 z m 0,0"
         inkscape:connector-curvature="0" /><path
         id="path5805"
         d="m 192.01172,176.00391 h 16 v 16 h -16 z m 0,0"
         inkscape:connector-curvature="0" /><path
         id="path5807"
         d="m 224.01172,176.00391 h 16 v 16 h -16 z m 0,0"
         inkscape:connector-curvature="0" /><path
         id="path5809"
         d="m 256.01172,176.00391 h 16 v 16 h -16 z m 0,0"
         inkscape:connector-curvature="0" /><path
         id="path5811"
         d="m 288.01172,176.00391 h 16 v 16 h -16 z m 0,0"
         inkscape:connector-curvature="0" /><path
         id="path5813"
         d="m 320.01172,176.00391 h 16 v 16 h -16 z m 0,0"
         inkscape:connector-curvature="0" /><path
         id="path5815"
         d="m 352.01172,176.00391 h 16 v 16 h -16 z m 0,0"
         inkscape:connector-curvature="0" /><path
         id="path5817"
         d="m 64.011719,208.00391 h 16 v 16 h -16 z m 0,0"
         inkscape:connector-curvature="0" /><path
         id="path5819"
         d="m 96.011719,208.00391 h 16.000001 v 16 H 96.011719 Z m 0,0"
         inkscape:connector-curvature="0" /><path
         id="path5821"
         d="m 128.01172,208.00391 h 16 v 16 h -16 z m 0,0"
         inkscape:connector-curvature="0" /><path
         id="path5823"
         d="m 160.01172,208.00391 h 16 v 16 h -16 z m 0,0"
         inkscape:connector-curvature="0" /><path
         id="path5825"
         d="m 192.01172,208.00391 h 16 v 16 h -16 z m 0,0"
         inkscape:connector-curvature="0" /><path
         id="path5827"
         d="m 224.01172,208.00391 h 16 v 16 h -16 z m 0,0"
         inkscape:connector-curvature="0" /><path
         id="path5829"
         d="m 256.01172,208.00391 h 16 v 16 h -16 z m 0,0"
         inkscape:connector-curvature="0" /><path
         id="path5831"
         d="m 288.01172,208.00391 h 16 v 16 h -16 z m 0,0"
         inkscape:connector-curvature="0" /><path
         id="path5833"
         d="m 320.01172,208.00391 h 16 v 16 h -16 z m 0,0"
         inkscape:connector-curvature="0" /><path
         id="path5835"
         d="m 352.01172,208.00391 h 16 v 16 h -16 z m 0,0"
         inkscape:connector-curvature="0" /><path
         id="path5837"
         d="m 64.011719,240.00391 h 16 v 16 h -16 z m 0,0"
         inkscape:connector-curvature="0" /><path
         id="path5839"
         d="m 96.011719,240.00391 h 16.000001 v 16 H 96.011719 Z m 0,0"
         inkscape:connector-curvature="0" /><path
         id="path5841"
         d="m 128.01172,240.00391 h 16 v 16 h -16 z m 0,0"
         inkscape:connector-curvature="0" /><path
         id="path5843"
         d="m 160.01172,240.00391 h 16 v 16 h -16 z m 0,0"
         inkscape:connector-curvature="0" /><path
         id="path5845"
         d="m 192.01172,240.00391 h 16 v 16 h -16 z m 0,0"
         inkscape:connector-curvature="0" /><path
         id="path5847"
         d="m 224.01172,240.00391 h 16 v 16 h -16 z m 0,0"
         inkscape:connector-curvature="0" /><path
         id="path5849"
         d="m 256.01172,240.00391 h 16 v 16 h -16 z m 0,0"
         inkscape:connector-curvature="0" /><path
         id="path5851"
         d="m 288.01172,240.00391 h 16 v 16 h -16 z m 0,0"
         inkscape:connector-curvature="0" /><path
         id="path5853"
         d="m 320.01172,240.00391 h 16 v 16 h -16 z m 0,0"
         inkscape:connector-curvature="0" /><path
         id="path5855"
         d="m 352.01172,240.00391 h 16 v 16 h -16 z m 0,0"
         inkscape:connector-curvature="0" /><path
         id="path5857"
         d="m 64.011719,272.00391 h 16 v 16 h -16 z m 0,0"
         inkscape:connector-curvature="0" /><path
         id="path5859"
         d="m 96.011719,272.00391 h 16.000001 v 16 H 96.011719 Z m 0,0"
         inkscape:connector-curvature="0" /><path
         id="path5861"
         d="m 128.01172,272.00391 h 16 v 16 h -16 z m 0,0"
         inkscape:connector-curvature="0" /><path
         id="path5863"
         d="m 160.01172,272.00391 h 16 v 16 h -16 z m 0,0"
         inkscape:connector-curvature="0" /><path
         id="path5865"
         d="m 192.01172,272.00391 h 16 v 16 h -16 z m 0,0"
         inkscape:connector-curvature="0" /><path
         id="path5867"
         d="m 224.01172,272.00391 h 16 v 16 h -16 z m 0,0"
         inkscape:connector-curvature="0" /><path
         id="path5869"
         d="m 256.01172,272.00391 h 16 v 16 h -16 z m 0,0"
         inkscape:connector-curvature="0" /><path
         id="path5871"
         d="m 288.01172,272.00391 h 16 v 16 h -16 z m 0,0"
         inkscape:connector-curvature="0" /><path
         id="path5873"
         d="m 320.01172,272.00391 h 16 v 16 h -16 z m 0,0"
         inkscape:connector-curvature="0" /><path
         id="path5875"
         d="m 352.01172,272.00391 h 16 v 16 h -16 z m 0,0"
         inkscape:connector-curvature="0" /><path
         id="path5877"
         d="m 64.011719,304.00391 h 16 v 16 h -16 z m 0,0"
         inkscape:connector-curvature="0" /><path
         id="path5879"
         d="m 96.011719,304.00391 h 16.000001 v 16 H 96.011719 Z m 0,0"
         inkscape:connector-curvature="0" /><path
         id="path5881"
         d="m 128.01172,304.00391 h 16 v 16 h -16 z m 0,0"
         inkscape:connector-curvature="0" /><path
         id="path5883"
         d="m 160.01172,304.00391 h 16 v 16 h -16 z m 0,0"
         inkscape:connector-curvature="0" /><path
         id="path5885"
         d="m 192.01172,304.00391 h 16 v 16 h -16 z m 0,0"
         inkscape:connector-curvature="0" /><path
         id="path5887"
         d="m 224.01172,304.00391 h 16 v 16 h -16 z m 0,0"
         inkscape:connector-curvature="0" /><path
         id="path5889"
         d="m 256.01172,304.00391 h 16 v 16 h -16 z m 0,0"
         inkscape:connector-curvature="0" /><path
         id="path5891"
         d="m 288.01172,304.00391 h 16 v 16 h -16 z m 0,0"
         inkscape:connector-curvature="0" /><path
         id="path5893"
         d="m 320.01172,304.00391 h 16 v 16 h -16 z m 0,0"
         inkscape:connector-curvature="0" /><path
         id="path5895"
         d="m 352.01172,304.00391 h 16 v 16 h -16 z m 0,0"
         inkscape:connector-curvature="0" /><path
         id="path5897"
         d="m 384.01172,144.00391 h 16 v 16 h -16 z m 0,0"
         inkscape:connector-curvature="0" /><path
         id="path5899"
         d="m 384.01172,176.00391 h 16 v 16 h -16 z m 0,0"
         inkscape:connector-curvature="0" /><path
         id="path5901"
         d="m 384.01172,208.00391 h 16 v 16 h -16 z m 0,0"
         inkscape:connector-curvature="0" /><path
         id="path5903"
         d="m 384.01172,240.00391 h 16 v 16 h -16 z m 0,0"
         inkscape:connector-curvature="0" /><path
         id="path5905"
         d="m 384.01172,272.00391 h 16 v 16 h -16 z m 0,0"
         inkscape:connector-curvature="0" /><path
         id="path5907"
         d="m 384.01172,304.00391 h 16 v 16 h -16 z m 0,0"
         inkscape:connector-curvature="0" /></g><path
       id="path5911"
       d="M 425.58072,81.572903 H 366.82681 L 241.49098,7.5169465 c -6.36235,-3.1783544 -11.87234,-2.2584897 -14.0337,1.9232606 -2.02944,3.9265129 -2.23052,8.5269179 3.67885,12.2850939 L 336.491,82.095902 40.011719,80.003906 C 17.929688,80.027344 0.0390625,97.921875 0.0117188,120.00391 v 336 c 0,13.2539 10.7460932,24 24.0000002,24 H 440.01172 c 13.2539,0 24,-10.7461 24,-24 v -336 c -0.0274,-22.082035 -16.35288,-38.407569 -38.431,-38.431007 z M 40.011719,96.003906 425.58072,97.572903 c 13.25379,0.05393 22.431,9.173187 22.431,22.431007 v 216 h -16 v -216 c 0,-4.42188 -2.01307,-6.41303 -6.431,-6.431 l -385.569001,-1.569 c -4.417932,-0.018 -8,3.57812 -8,8 v 216 h -16 v -216 c 0,-13.25782 10.746203,-24.053938 24,-24.000004 z M 416.01172,336.00391 H 48.011719 v -208 H 416.01172 Z m 32,120 c 0,4.41797 -3.58203,8 -8,8 H 24.011719 c -4.417969,0 -8,-3.58203 -8,-8 v -104 H 448.01172 Z"
       inkscape:connector-curvature="0"
       sodipodi:nodetypes="cccsccccssssccsssccssssccsscccccssssccs" /><path
       id="path5913"
       d="m 392.01172,368.00391 c -22.09375,0 -40,17.90625 -40,40 0,22.08984 17.90625,40 40,40 22.08984,0 40,-17.91016 40,-40 -0.0274,-22.08204 -17.92188,-39.97657 -40,-40 z m 0,64 c -13.25391,0 -24,-10.7461 -24,-24 0.0156,-5.17188 1.71484,-10.19922 4.84765,-14.3125 l 12.4961,18.75 c 2.45312,3.67578 7.41797,4.66796 11.09765,2.21484 3.67579,-2.44922 4.66797,-7.41797 2.21485,-11.09375 l -12.50391,-18.76172 c 1.90625,-0.51172 3.8711,-0.77734 5.84766,-0.79687 13.2539,0 24,10.74218 24,24 0,13.2539 -10.7461,24 -24,24 z m 0,0"
       inkscape:connector-curvature="0" /><path
       id="path5915"
       d="m 296.01172,368.00391 c -22.09375,0 -40,17.90625 -40,40 0,22.08984 17.90625,40 40,40 22.08984,0 40,-17.91016 40,-40 -0.0274,-22.08204 -17.92188,-39.97657 -40,-40 z m 0,64 c -13.25391,0 -24,-10.7461 -24,-24 0.0156,-5.17188 1.71484,-10.19922 4.84765,-14.3125 l 12.4961,18.75 c 2.45312,3.67578 7.41797,4.66796 11.09765,2.21484 3.67579,-2.44922 4.66797,-7.41797 2.21485,-11.09375 l -12.50391,-18.76172 c 1.90625,-0.51172 3.8711,-0.77734 5.84766,-0.79687 13.2539,0 24,10.74218 24,24 0,13.2539 -10.7461,24 -24,24 z m 0,0"
       inkscape:connector-curvature="0" /><path
       id="path5917"
       d="M 232.01172,368.00391 H 40.011719 c -4.417969,0 -8,3.57812 -8,8 v 64 c 0,4.41796 3.582031,8 8,8 H 232.01172 c 4.41797,0 8,-3.58204 8,-8 v -64 c 0,-4.42188 -3.58203,-8 -8,-8 z m -8,64 h -32 v -16 h -16 v 16 h -16 v -16 h -16 v 16 h -16 v -16 h -16 v 16 H 96.011719 v -16 h -16 v 16 h -32 v -48 h 16 v 16 h 16 v -16 h 16 v 16 h 16.000001 v -16 h 16 v 16 h 16 v -16 h 16 v 16 h 16 v -16 h 16 v 16 h 16 v -16 h 16 z m 0,0"
       inkscape:connector-curvature="0" /><path
       id="path5919"
       d="m 64.011719,144.00391 h 16 v 16 h -16 z m 0,0"
       inkscape:connector-curvature="0" /><path
       id="path5921"
       d="m 96.011719,144.00391 h 16.000001 v 16 H 96.011719 Z m 0,0"
       inkscape:connector-curvature="0" /><path
       id="path5923"
       d="m 128.01172,144.00391 h 16 v 16 h -16 z m 0,0"
       inkscape:connector-curvature="0" /><path
       id="path5925"
       d="m 160.01172,144.00391 h 16 v 16 h -16 z m 0,0"
       inkscape:connector-curvature="0" /><path
       id="path5927"
       d="m 192.01172,144.00391 h 16 v 16 h -16 z m 0,0"
       inkscape:connector-curvature="0" /><path
       id="path5929"
       d="m 224.01172,144.00391 h 16 v 16 h -16 z m 0,0"
       inkscape:connector-curvature="0" /><path
       id="path5931"
       d="m 256.01172,144.00391 h 16 v 16 h -16 z m 0,0"
       inkscape:connector-curvature="0" /><path
       id="path5933"
       d="m 288.01172,144.00391 h 16 v 16 h -16 z m 0,0"
       inkscape:connector-curvature="0" /><path
       id="path5935"
       d="m 320.01172,144.00391 h 16 v 16 h -16 z m 0,0"
       inkscape:connector-curvature="0" /><path
       id="path5937"
       d="m 352.01172,144.00391 h 16 v 16 h -16 z m 0,0"
       inkscape:connector-curvature="0" /><path
       id="path5939"
       d="m 64.011719,176.00391 h 16 v 16 h -16 z m 0,0"
       inkscape:connector-curvature="0" /><path
       id="path5941"
       d="m 96.011719,176.00391 h 16.000001 v 16 H 96.011719 Z m 0,0"
       inkscape:connector-curvature="0" /><path
       id="path5943"
       d="m 128.01172,176.00391 h 16 v 16 h -16 z m 0,0"
       inkscape:connector-curvature="0" /><path
       id="path5945"
       d="m 160.01172,176.00391 h 16 v 16 h -16 z m 0,0"
       inkscape:connector-curvature="0" /><path
       id="path5947"
       d="m 192.01172,176.00391 h 16 v 16 h -16 z m 0,0"
       inkscape:connector-curvature="0" /><path
       id="path5949"
       d="m 224.01172,176.00391 h 16 v 16 h -16 z m 0,0"
       inkscape:connector-curvature="0" /><path
       id="path5951"
       d="m 256.01172,176.00391 h 16 v 16 h -16 z m 0,0"
       inkscape:connector-curvature="0" /><path
       id="path5953"
       d="m 288.01172,176.00391 h 16 v 16 h -16 z m 0,0"
       inkscape:connector-curvature="0" /><path
       id="path5955"
       d="m 320.01172,176.00391 h 16 v 16 h -16 z m 0,0"
       inkscape:connector-curvature="0" /><path
       id="path5957"
       d="m 352.01172,176.00391 h 16 v 16 h -16 z m 0,0"
       inkscape:connector-curvature="0" /><path
       id="path5959"
       d="m 64.011719,208.00391 h 16 v 16 h -16 z m 0,0"
       inkscape:connector-curvature="0" /><path
       id="path5961"
       d="m 96.011719,208.00391 h 16.000001 v 16 H 96.011719 Z m 0,0"
       inkscape:connector-curvature="0" /><path
       id="path5963"
       d="m 128.01172,208.00391 h 16 v 16 h -16 z m 0,0"
       inkscape:connector-curvature="0" /><path
       id="path5965"
       d="m 160.01172,208.00391 h 16 v 16 h -16 z m 0,0"
       inkscape:connector-curvature="0" /><path
       id="path5967"
       d="m 192.01172,208.00391 h 16 v 16 h -16 z m 0,0"
       inkscape:connector-curvature="0" /><path
       id="path5969"
       d="m 224.01172,208.00391 h 16 v 16 h -16 z m 0,0"
       inkscape:connector-curvature="0" /><path
       id="path5971"
       d="m 256.01172,208.00391 h 16 v 16 h -16 z m 0,0"
       inkscape:connector-curvature="0" /><path
       id="path5973"
       d="m 288.01172,208.00391 h 16 v 16 h -16 z m 0,0"
       inkscape:connector-curvature="0" /><path
       id="path5975"
       d="m 320.01172,208.00391 h 16 v 16 h -16 z m 0,0"
       inkscape:connector-curvature="0" /><path
       id="path5977"
       d="m 352.01172,208.00391 h 16 v 16 h -16 z m 0,0"
       inkscape:connector-curvature="0" /><path
       id="path5979"
       d="m 64.011719,240.00391 h 16 v 16 h -16 z m 0,0"
       inkscape:connector-curvature="0" /><path
       id="path5981"
       d="m 96.011719,240.00391 h 16.000001 v 16 H 96.011719 Z m 0,0"
       inkscape:connector-curvature="0" /><path
       id="path5983"
       d="m 128.01172,240.00391 h 16 v 16 h -16 z m 0,0"
       inkscape:connector-curvature="0" /><path
       id="path5985"
       d="m 160.01172,240.00391 h 16 v 16 h -16 z m 0,0"
       inkscape:connector-curvature="0" /><path
       id="path5987"
       d="m 192.01172,240.00391 h 16 v 16 h -16 z m 0,0"
       inkscape:connector-curvature="0" /><path
       id="path5989"
       d="m 224.01172,240.00391 h 16 v 16 h -16 z m 0,0"
       inkscape:connector-curvature="0" /><path
       id="path5991"
       d="m 256.01172,240.00391 h 16 v 16 h -16 z m 0,0"
       inkscape:connector-curvature="0" /><path
       id="path5993"
       d="m 288.01172,240.00391 h 16 v 16 h -16 z m 0,0"
       inkscape:connector-curvature="0" /><path
       id="path5995"
       d="m 320.01172,240.00391 h 16 v 16 h -16 z m 0,0"
       inkscape:connector-curvature="0" /><path
       id="path5997"
       d="m 352.01172,240.00391 h 16 v 16 h -16 z m 0,0"
       inkscape:connector-curvature="0" /><path
       id="path5999"
       d="m 64.011719,272.00391 h 16 v 16 h -16 z m 0,0"
       inkscape:connector-curvature="0" /><path
       id="path6001"
       d="m 96.011719,272.00391 h 16.000001 v 16 H 96.011719 Z m 0,0"
       inkscape:connector-curvature="0" /><path
       id="path6003"
       d="m 128.01172,272.00391 h 16 v 16 h -16 z m 0,0"
       inkscape:connector-curvature="0" /><path
       id="path6005"
       d="m 160.01172,272.00391 h 16 v 16 h -16 z m 0,0"
       inkscape:connector-curvature="0" /><path
       id="path6007"
       d="m 192.01172,272.00391 h 16 v 16 h -16 z m 0,0"
       inkscape:connector-curvature="0" /><path
       id="path6009"
       d="m 224.01172,272.00391 h 16 v 16 h -16 z m 0,0"
       inkscape:connector-curvature="0" /><path
       id="path6011"
       d="m 256.01172,272.00391 h 16 v 16 h -16 z m 0,0"
       inkscape:connector-curvature="0" /><path
       id="path6013"
       d="m 288.01172,272.00391 h 16 v 16 h -16 z m 0,0"
       inkscape:connector-curvature="0" /><path
       id="path6015"
       d="m 320.01172,272.00391 h 16 v 16 h -16 z m 0,0"
       inkscape:connector-curvature="0" /><path
       id="path6017"
       d="m 352.01172,272.00391 h 16 v 16 h -16 z m 0,0"
       inkscape:connector-curvature="0" /><path
       id="path6019"
       d="m 64.011719,304.00391 h 16 v 16 h -16 z m 0,0"
       inkscape:connector-curvature="0" /><path
       id="path6021"
       d="m 96.011719,304.00391 h 16.000001 v 16 H 96.011719 Z m 0,0"
       inkscape:connector-curvature="0" /><path
       id="path6023"
       d="m 128.01172,304.00391 h 16 v 16 h -16 z m 0,0"
       inkscape:connector-curvature="0" /><path
       id="path6025"
       d="m 160.01172,304.00391 h 16 v 16 h -16 z m 0,0"
       inkscape:connector-curvature="0" /><path
       id="path6027"
       d="m 192.01172,304.00391 h 16 v 16 h -16 z m 0,0"
       inkscape:connector-curvature="0" /><path
       id="path6029"
       d="m 224.01172,304.00391 h 16 v 16 h -16 z m 0,0"
       inkscape:connector-curvature="0" /><path
       id="path6031"
       d="m 256.01172,304.00391 h 16 v 16 h -16 z m 0,0"
       inkscape:connector-curvature="0" /><path
       id="path6033"
       d="m 288.01172,304.00391 h 16 v 16 h -16 z m 0,0"
       inkscape:connector-curvature="0" /><path
       id="path6035"
       d="m 320.01172,304.00391 h 16 v 16 h -16 z m 0,0"
       inkscape:connector-curvature="0" /><path
       id="path6037"
       d="m 352.01172,304.00391 h 16 v 16 h -16 z m 0,0"
       inkscape:connector-curvature="0" /><path
       id="path6039"
       d="m 384.01172,144.00391 h 16 v 16 h -16 z m 0,0"
       inkscape:connector-curvature="0" /><path
       id="path6041"
       d="m 384.01172,176.00391 h 16 v 16 h -16 z m 0,0"
       inkscape:connector-curvature="0" /><path
       id="path6043"
       d="m 384.01172,208.00391 h 16 v 16 h -16 z m 0,0"
       inkscape:connector-curvature="0" /><path
       id="path6045"
       d="m 384.01172,240.00391 h 16 v 16 h -16 z m 0,0"
       inkscape:connector-curvature="0" /><path
       id="path6047"
       d="m 384.01172,272.00391 h 16 v 16 h -16 z m 0,0"
       inkscape:connector-curvature="0" /><path
       id="path6049"
       d="m 384.01172,304.00391 h 16 v 16 h -16 z m 0,0"
       inkscape:connector-curvature="0" /></g></svg>