<?xml version="1.0" encoding="UTF-8" standalone="no"?>
<!-- Generator: Adobe Illustrator 21.0.2, SVG Export Plug-In . SVG Version: 6.00 Build 0)  -->

<svg
   xmlns:dc="http://purl.org/dc/elements/1.1/"
   xmlns:cc="http://creativecommons.org/ns#"
   xmlns:rdf="http://www.w3.org/1999/02/22-rdf-syntax-ns#"
   xmlns:svg="http://www.w3.org/2000/svg"
   xmlns="http://www.w3.org/2000/svg"
   xmlns:sodipodi="http://sodipodi.sourceforge.net/DTD/sodipodi-0.dtd"
   xmlns:inkscape="http://www.inkscape.org/namespaces/inkscape"
   version="1.1"
   x="0px"
   y="0px"
   viewBox="0 0 110.979 128.417"
   enable-background="new 0 0 110.979 128.417"
   xml:space="preserve"
   id="svg415"
   sodipodi:docname="90_13.svg"
   inkscape:version="0.92.2 5c3e80d, 2017-08-06"><metadata
     id="metadata421"><rdf:RDF><cc:Work
         rdf:about=""><dc:format>image/svg+xml</dc:format><dc:type
           rdf:resource="http://purl.org/dc/dcmitype/StillImage" /><dc:title></dc:title></cc:Work></rdf:RDF></metadata><defs
     id="defs419" /><sodipodi:namedview
     pagecolor="#ffffff"
     bordercolor="#666666"
     borderopacity="1"
     objecttolerance="10"
     gridtolerance="10"
     guidetolerance="10"
     inkscape:pageopacity="0"
     inkscape:pageshadow="2"
     inkscape:window-width="1440"
     inkscape:window-height="808"
     id="namedview417"
     showgrid="false"
     inkscape:zoom="3.4234713"
     inkscape:cx="65.362153"
     inkscape:cy="59.092001"
     inkscape:window-x="0"
     inkscape:window-y="1"
     inkscape:window-maximized="1"
     inkscape:current-layer="svg415"
     showguides="true"
     inkscape:guide-bbox="true" /><g
     id="g5"
     transform="translate(0.15372898,0.37381641)"
     style="fill:#ea8477;fill-opacity:1;stroke:#000000;stroke-opacity:1;stroke-width:1.8;stroke-miterlimit:4;stroke-dasharray:none"><polygon
       style="fill:#ea8477;fill-opacity:1;stroke:#000000;stroke-opacity:1;stroke-width:1.8;stroke-miterlimit:4;stroke-dasharray:none"
       id="polygon3"
       points="55.556,127.881 0.417,96.047 0.417,32.377 55.556,0.542 110.696,32.377 110.696,96.046 " /></g><g
     id="Layer_1" /><g
     id="g13"
     enable-background="new    "
     transform="translate(0.15372898,0.37381641)"
     style="fill:#000000;fill-opacity:1"><path
       style="fill:#000000;fill-opacity:1"
       inkscape:connector-curvature="0"
       id="path11"
       d="M 55.555,10.618 9.073,37.416 V 91.01 L 55.555,117.805 102.04,91.01 V 37.416 Z M 100.158,89.93 55.555,115.646 10.951,89.93 V 38.506 L 55.555,12.79 100.158,38.506 Z" /></g><g
     id="g9"
     transform="translate(0.15372898,0.37381641)"
     style="fill:#000000;fill-opacity:0.29523811"><polygon
       style="fill:#000000;fill-opacity:0.29523811"
       id="polygon7"
       points="55.422,116.822 10.109,90.66 10.109,38.337 55.422,12.175 100.736,38.337 100.736,90.66 " /></g><g
     id="border" /><g
     id="g6263"
     transform="matrix(0.04851667,0,0,0.04165631,44.135969,68.925307)" /><g
     id="g6265"
     transform="matrix(0.04851667,0,0,0.04165631,44.135969,68.925307)" /><g
     id="g6267"
     transform="matrix(0.04851667,0,0,0.04165631,44.135969,68.925307)" /><g
     id="g6269"
     transform="matrix(0.04851667,0,0,0.04165631,44.135969,68.925307)" /><g
     id="g6271"
     transform="matrix(0.04851667,0,0,0.04165631,44.135969,68.925307)" /><g
     id="g6273"
     transform="matrix(0.04851667,0,0,0.04165631,44.135969,68.925307)" /><g
     id="g6275"
     transform="matrix(0.04851667,0,0,0.04165631,44.135969,68.925307)" /><g
     id="g6277"
     transform="matrix(0.04851667,0,0,0.04165631,44.135969,68.925307)" /><g
     id="g6279"
     transform="matrix(0.04851667,0,0,0.04165631,44.135969,68.925307)" /><g
     id="g6281"
     transform="matrix(0.04851667,0,0,0.04165631,44.135969,68.925307)" /><g
     id="g6283"
     transform="matrix(0.04851667,0,0,0.04165631,44.135969,68.925307)" /><g
     id="g6285"
     transform="matrix(0.04851667,0,0,0.04165631,44.135969,68.925307)" /><g
     id="g6287"
     transform="matrix(0.04851667,0,0,0.04165631,44.135969,68.925307)" /><g
     id="g6289"
     transform="matrix(0.04851667,0,0,0.04165631,44.135969,68.925307)" /><g
     id="g6291"
     transform="matrix(0.04851667,0,0,0.04165631,44.135969,68.925307)" /><g
     id="g2637"
     transform="matrix(1.1309109,0,0,1.1309109,20.055316,30.648727)"><g
       id="g2435"><path
         id="path2433"
         d="m 48,39 v 3.858 c 0,2.652 -1.054,5.196 -2.929,7.071 L 45,50 H 19 L 18.929,49.929 C 17.054,48.054 16,45.51 16,42.858 V 39"
         style="fill:#946c5a"
         inkscape:connector-curvature="0" /></g><g
       id="g2439"><path
         id="path2437"
         d="M 22,30 7,37 c -2.761,0 -5,2.239 -5,5 0,2.761 2.239,5 5,5 2.761,0 5,-2.239 5,-5 l 9,-2 -1,7 -4,12 v 0 c 0,1.657 1.343,3 3,3 h 6 l 4,-8 h 6 v 0 l 4,8 h 6 c 1.657,0 3,-1.343 3,-3 v 0 L 44,47 43,40 c 0,0 9,2 9,2 0,2.761 2.239,5 5,5 2.761,0 5,-2.239 5,-5 0,-2.761 -2.239,-5 -5,-5 L 42,30"
         style="fill:#67ac5b"
         inkscape:connector-curvature="0" /></g><g
       id="g2443"><polygon
         id="polygon2441"
         points="6,8 8,2 10,8 11,50 5,50 "
         style="fill:#d1d8db" /></g><g
       id="g2447"><rect
         id="rect2445"
         height="18"
         width="6"
         style="fill:#946c5a"
         y="32"
         x="5" /></g><g
       id="g2451"><polygon
         id="polygon2449"
         points="54,8 56,2 58,8 59,50 53,50 "
         style="fill:#d1d8db" /></g><g
       id="g2455"><rect
         id="rect2453"
         height="18"
         width="6"
         style="fill:#946c5a"
         y="32"
         x="53" /></g><g
       id="g2459"><polyline
         id="polyline2457"
         points="39,31 43,40 44,47 35,50 29,50 20,47 21,40 25,31   "
         style="fill:#fae0b8" /></g><g
       id="g2463"><circle
         id="circle2461"
         r="2"
         cy="48"
         cx="32"
         style="fill:#74564a" /></g><g
       id="g2467"><polygon
         id="polygon2465"
         points="45.9,52.7 47.313,56.937 37.455,58.909 36,56 "
         style="fill:#e25341" /></g><g
       id="g2471"><polygon
         id="polygon2469"
         points="18.1,52.7 16.688,56.938 26.545,58.909 28,56 "
         style="fill:#e25341" /></g><g
       id="g2475"><polygon
         id="polygon2473"
         points="46.965,32.317 52.119,34.722 49.261,41.391 46.036,40.675 "
         style="fill:#e25341" /></g><g
       id="g2479"><polygon
         id="polygon2477"
         points="17.964,40.675 14.739,41.391 11.881,34.722 17.035,32.317 "
         style="fill:#e25341" /></g><g
       id="g2483"><path
         id="path2481"
         d="M 50,22 C 50,19.309 48.076,16.87 44.964,15.073 44.586,6.317 38.936,2 32,2 25.064,2 19.414,6.317 19.036,15.073 15.924,16.87 14,19.309 14,22 c 0,4.206 4.68,7.799 11.3,9.276 1.958,1.7 4.245,2.724 6.7,2.724 2.455,0 4.742,-1.024 6.7,-2.724 C 45.32,29.799 50,26.206 50,22 Z"
         style="fill:#97c05c"
         inkscape:connector-curvature="0" /></g><g
       id="g2487"><path
         id="path2485"
         d="M 47.661,17.097 C 46.911,16.361 46.011,15.678 44.963,15.073 44.9,13.606 44.677,12.275 44.336,11.056 L 38,10 l -6,2 -6,-2 -6.337,1.056 c -0.341,1.218 -0.564,2.55 -0.627,4.017 -1.048,0.605 -1.947,1.288 -2.698,2.024 L 23,19 26.229,17.924 C 28.064,17.312 29.986,17 31.921,17 h 0.158 c 1.935,0 3.857,0.312 5.692,0.924 L 41,19 Z"
         style="fill:#e25341"
         inkscape:connector-curvature="0" /></g><g
       id="g2491"><path
         id="path2489"
         d="M 32,35 C 29.499,35 27.028,34.032 24.838,32.197 17.637,30.525 13,26.539 13,22 13,19.169 14.794,16.516 18.068,14.487 18.64,6.273 24.059,1 32,1 39.941,1 45.36,6.273 45.932,14.487 49.206,16.516 51,19.168 51,22 51,26.539 46.363,30.525 39.162,32.197 36.972,34.032 34.501,35 32,35 Z M 32,3 C 24.942,3 20.358,7.643 20.036,15.116 20.021,15.458 19.833,15.768 19.537,15.939 16.611,17.628 15,19.781 15,22 c 0,3.561 4.227,6.896 10.518,8.3 0.162,0.036 0.312,0.112 0.438,0.221 3.735,3.244 8.354,3.244 12.089,0 C 38.17,30.413 38.321,30.336 38.483,30.3 44.773,28.896 49,25.561 49,22 49,19.781 47.389,17.628 44.463,15.939 44.167,15.768 43.979,15.458 43.964,15.116 43.643,7.643 39.058,3 32,3 Z"
         inkscape:connector-curvature="0" /></g><g
       id="g2495"><path
         id="path2493"
         d="m 32,13 c -0.107,0 -0.213,-0.017 -0.316,-0.051 l -5.764,-1.921 -5.755,0.959 -0.329,-1.973 6,-1 C 25.998,8.987 26.162,9 26.316,9.051 L 32,10.946 37.684,9.051 C 37.838,9 38.003,8.986 38.165,9.014 l 6,1 -0.329,1.973 -5.755,-0.959 -5.764,1.921 C 32.213,12.983 32.107,13 32,13 Z"
         inkscape:connector-curvature="0" /></g><g
       id="g2499"><path
         id="path2497"
         d="m 41,20 c -0.107,0 -0.214,-0.017 -0.316,-0.051 L 37.455,18.873 C 35.718,18.293 33.909,18 32.079,18 h -0.158 c -1.83,0 -3.639,0.293 -5.375,0.873 l -3.229,1.076 c -0.191,0.064 -0.397,0.069 -0.591,0.013 l -7,-2 0.55,-1.923 6.702,1.915 2.936,-0.979 C 27.854,16.328 29.875,16 31.921,16 h 0.158 c 2.045,0 4.067,0.328 6.008,0.975 l 2.936,0.979 6.702,-1.915 0.55,1.923 -7,2 C 41.185,19.987 41.092,20 41,20 Z"
         inkscape:connector-curvature="0" /></g><g
       id="g2505"><g
         id="g2503"><circle
           id="circle2501"
           r="2"
           cy="14"
           cx="25" /></g></g><g
       id="g2511"><g
         id="g2509"><circle
           id="circle2507"
           r="2"
           cy="14"
           cx="39" /></g></g><g
       id="g2515"><path
         id="path2513"
         d="m 32.156,29 h -0.312 c -3.367,0 -6.627,-0.987 -9.43,-2.855 l -1.969,-1.313 1.109,-1.664 1.969,1.313 c 2.473,1.648 5.35,2.519 8.32,2.519 h 0.312 c 2.971,0 5.848,-0.871 8.32,-2.519 l 1.969,-1.313 1.109,1.664 -1.969,1.313 C 38.783,28.013 35.522,29 32.156,29 Z"
         inkscape:connector-curvature="0" /></g><g
       id="g2519"><rect
         id="rect2517"
         height="2"
         width="9.849"
         transform="matrix(0.4063,-0.9137,0.9137,0.4063,-18.7828,42.0915)"
         y="34.5"
         x="18.076" /></g><g
       id="g2523"><rect
         id="rect2521"
         height="9.849"
         width="2"
         transform="matrix(0.9138,-0.4061,0.4061,0.9138,-10.8842,19.7114)"
         y="30.576"
         x="40" /></g><g
       id="g2527"><rect
         id="rect2525"
         height="12"
         width="2"
         y="34"
         x="31" /></g><g
       id="g2531"><path
         id="path2529"
         d="m 32,42 h -6 c -0.155,0 -0.309,-0.036 -0.447,-0.105 l -4,-2 0.895,-1.789 L 26.236,40 H 32 Z"
         inkscape:connector-curvature="0" /></g><g
       id="g2535"><path
         id="path2533"
         d="m 32,51 c -1.654,0 -3,-1.346 -3,-3 0,-1.654 1.346,-3 3,-3 1.654,0 3,1.346 3,3 0,1.654 -1.346,3 -3,3 z m 0,-4 c -0.551,0 -1,0.449 -1,1 0,0.551 0.449,1 1,1 0.551,0 1,-0.449 1,-1 0,-0.551 -0.449,-1 -1,-1 z"
         inkscape:connector-curvature="0" /></g><g
       id="g2539"><path
         id="path2537"
         d="m 38,42 h -6 v -2 h 5.764 l 3.789,-1.895 0.895,1.789 -4,2 C 38.309,41.964 38.155,42 38,42 Z"
         inkscape:connector-curvature="0" /></g><g
       id="g2543"><path
         id="path2541"
         d="m 45,63 h -6 c -0.379,0 -0.725,-0.214 -0.895,-0.553 L 34.382,55 h -4.764 l -3.724,7.447 C 25.725,62.786 25.379,63 25,63 h -6 c -2.206,0 -4,-1.794 -4,-4 0,-0.107 0.017,-0.214 0.051,-0.316 l 4,-12 1.897,0.633 -3.943,11.83 C 17.081,60.181 17.946,61 19,61 h 5.382 l 3.724,-7.447 C 28.275,53.214 28.621,53 29,53 h 6 c 0.379,0 0.725,0.214 0.895,0.553 L 39.618,61 H 45 c 1.054,0 1.919,-0.819 1.995,-1.854 l -3.943,-11.83 1.897,-0.633 4,12 C 48.983,58.786 49,58.893 49,59 c 0,2.206 -1.794,4 -4,4 z"
         inkscape:connector-curvature="0" /></g><g
       id="g2547"><rect
         id="rect2545"
         height="2"
         width="12.53"
         transform="matrix(0.8778,-0.479,0.479,0.8778,-13.7899,11.934)"
         y="32"
         x="10.235" /></g><g
       id="g2551"><rect
         id="rect2549"
         height="12.53"
         width="2"
         transform="matrix(0.4789,-0.8779,0.8779,0.4789,-4.216,58.8979)"
         y="26.735001"
         x="46.5" /></g><g
       id="g2555"><path
         id="path2553"
         d="m 35,51 h -6 c -0.107,0 -0.214,-0.017 -0.316,-0.051 l -9,-3 c -0.458,-0.153 -0.742,-0.612 -0.673,-1.09 l 0.795,-5.568 -6.86,1.524 c -0.136,1.009 -0.525,1.96 -1.146,2.787 L 10.201,44.4 C 10.724,43.704 11,42.874 11,42 c 0,-0.469 0.326,-0.875 0.783,-0.976 l 9,-2 c 0.322,-0.071 0.655,0.02 0.896,0.242 0.241,0.223 0.357,0.55 0.31,0.875 L 21.107,46.315 29.162,49 h 5.676 l 8.054,-2.685 -0.882,-6.174 c -0.047,-0.325 0.069,-0.652 0.31,-0.875 0.241,-0.223 0.576,-0.315 0.896,-0.242 l 9,2 C 52.674,41.125 53,41.531 53,42 c 0,0.874 0.276,1.704 0.799,2.399 l -1.6,1.201 c -0.62,-0.826 -1.009,-1.777 -1.146,-2.786 l -6.86,-1.524 0.795,5.568 c 0.068,0.479 -0.215,0.938 -0.673,1.09 l -9,3 C 35.214,50.983 35.107,51 35,51 Z"
         inkscape:connector-curvature="0" /></g><g
       id="g2559"><rect
         id="rect2557"
         height="9.4870005"
         width="2"
         transform="matrix(0.3162,-0.9487,0.9487,0.3162,-35.6346,59.5596)"
         y="49.757"
         x="22.5" /></g><g
       id="g2563"><rect
         id="rect2561"
         height="10.198"
         width="2"
         transform="matrix(0.1961,-0.9806,0.9806,0.1961,-39.1882,68.198)"
         y="52.901001"
         x="21" /></g><g
       id="g2567"><rect
         id="rect2565"
         height="2"
         width="9.4870005"
         transform="matrix(0.9486,-0.3164,0.3164,0.9486,-15.1621,15.6126)"
         y="53.5"
         x="35.757" /></g><g
       id="g2571"><rect
         id="rect2569"
         height="2"
         width="10.198"
         transform="matrix(0.9805,-0.1963,0.1963,0.9805,-10.5684,9.3733)"
         y="57"
         x="36.901001" /></g><g
       id="g2575"><rect
         id="rect2573"
         height="9.0550003"
         width="2"
         transform="matrix(0.9939,-0.1104,0.1104,0.9939,-3.9237,2.1558)"
         y="31.972"
         x="16.5" /></g><g
       id="g2579"><rect
         id="rect2577"
         height="7.6160002"
         width="2"
         transform="matrix(0.9191,-0.3939,0.3939,0.9191,-14.0744,8.4308)"
         y="34.692001"
         x="12.5" /></g><g
       id="g2583"><rect
         id="rect2581"
         height="2"
         width="9.0550003"
         transform="matrix(0.1104,-0.9939,0.9939,0.1104,5.0905,78.6871)"
         y="35.5"
         x="41.972" /></g><g
       id="g2587"><rect
         id="rect2585"
         height="2"
         width="7.6160002"
         transform="matrix(0.3941,-0.9191,0.9191,0.3941,-4.786,69.7403)"
         y="37.5"
         x="46.692001" /></g><g
       id="g2591"><path
         id="path2589"
         d="M 11,51 H 5 C 4.73,51 4.473,50.891 4.285,50.699 4.096,50.506 3.994,50.246 4,49.976 l 1,-42 C 5.002,7.877 5.02,7.778 5.051,7.684 l 2,-6 C 7.188,1.275 7.569,1 8,1 8.431,1 8.812,1.275 8.949,1.684 l 2,6 C 10.98,7.778 10.998,7.877 11,7.976 l 1,42 c 0.007,0.27 -0.096,0.53 -0.284,0.723 C 11.527,50.891 11.27,51 11,51 Z M 6.024,49 H 9.976 L 9.004,8.174 8,5.162 6.996,8.174 Z"
         inkscape:connector-curvature="0" /></g><g
       id="g2595"><path
         id="path2593"
         d="M 18.293,50.707 18.222,50.636 C 16.144,48.558 15,45.796 15,42.858 V 41 h 2 v 1.858 c 0,2.404 0.936,4.664 2.636,6.364 l 0.071,0.071 z"
         inkscape:connector-curvature="0" /></g><g
       id="g2599"><path
         id="path2597"
         d="m 45.707,50.707 -1.414,-1.414 0.071,-0.071 C 46.064,47.522 47,45.262 47,42.858 V 41 h 2 v 1.858 c 0,2.938 -1.144,5.7 -3.222,7.778 z"
         inkscape:connector-curvature="0" /></g><g
       id="g2603"><path
         id="path2601"
         d="M 4.6,47.5 C 2.413,46.545 1,44.386 1,42 1,39.158 3.019,36.685 5.801,36.12 l 0.398,1.96 C 4.345,38.457 3,40.105 3,42 c 0,1.591 0.942,3.031 2.4,3.667 z"
         inkscape:connector-curvature="0" /></g><g
       id="g2607"><path
         id="path2605"
         d="M 59.4,47.5 58.6,45.667 C 60.058,45.031 61,43.591 61,42 61,40.105 59.655,38.457 57.801,38.08 l 0.398,-1.96 C 60.981,36.685 63,39.158 63,42 c 0,2.386 -1.413,4.545 -3.6,5.5 z"
         inkscape:connector-curvature="0" /></g><g
       id="g2611"><path
         id="path2609"
         d="M 12,33 H 4 C 2.346,33 1,31.654 1,30 v -8 h 2 v 8 c 0,0.551 0.449,1 1,1 h 8 c 0.551,0 1,-0.449 1,-1 v -8 h 2 v 8 c 0,1.654 -1.346,3 -3,3 z"
         inkscape:connector-curvature="0" /></g><g
       id="g2615"><rect
         id="rect2613"
         height="2"
         width="6"
         y="45"
         x="5" /></g><g
       id="g2619"><rect
         id="rect2617"
         height="2"
         width="8.4849997"
         transform="matrix(0.7071,-0.7071,0.7071,0.7071,-25.9411,17.3726)"
         y="39"
         x="3.757" /></g><g
       id="g2623"><path
         id="path2621"
         d="m 59,51 h -6 c -0.27,0 -0.527,-0.109 -0.715,-0.301 -0.188,-0.193 -0.291,-0.453 -0.284,-0.723 l 1,-42 c 0.002,-0.099 0.02,-0.198 0.051,-0.292 l 2,-6 C 55.188,1.275 55.569,1 56,1 c 0.431,0 0.812,0.275 0.949,0.684 l 2,6 C 58.98,7.778 58.998,7.877 59,7.976 l 1,42 c 0.007,0.27 -0.096,0.53 -0.284,0.723 C 59.527,50.891 59.27,51 59,51 Z m -4.976,-2 h 3.952 L 57.004,8.174 56,5.162 54.996,8.174 Z"
         inkscape:connector-curvature="0" /></g><g
       id="g2627"><path
         id="path2625"
         d="m 60,33 h -8 c -1.654,0 -3,-1.346 -3,-3 v -8 h 2 v 8 c 0,0.551 0.449,1 1,1 h 8 c 0.551,0 1,-0.449 1,-1 v -8 h 2 v 8 c 0,1.654 -1.346,3 -3,3 z"
         inkscape:connector-curvature="0" /></g><g
       id="g2631"><rect
         id="rect2629"
         height="2"
         width="6"
         y="45"
         x="53" /></g><g
       id="g2635"><rect
         id="rect2633"
         height="8.4849997"
         width="2"
         transform="matrix(0.7071,-0.7071,0.7071,0.7071,-11.8823,51.3137)"
         y="35.757"
         x="55" /></g></g></svg>