<?xml version="1.0" encoding="UTF-8" standalone="no"?>
<!-- Generator: Adobe Illustrator 21.0.2, SVG Export Plug-In . SVG Version: 6.00 Build 0)  -->

<svg
   xmlns:dc="http://purl.org/dc/elements/1.1/"
   xmlns:cc="http://creativecommons.org/ns#"
   xmlns:rdf="http://www.w3.org/1999/02/22-rdf-syntax-ns#"
   xmlns:svg="http://www.w3.org/2000/svg"
   xmlns="http://www.w3.org/2000/svg"
   xmlns:sodipodi="http://sodipodi.sourceforge.net/DTD/sodipodi-0.dtd"
   xmlns:inkscape="http://www.inkscape.org/namespaces/inkscape"
   version="1.1"
   x="0px"
   y="0px"
   viewBox="0 0 110.979 128.417"
   enable-background="new 0 0 110.979 128.417"
   xml:space="preserve"
   id="svg415"
   sodipodi:docname="90_5.svg"
   inkscape:version="0.92.2 5c3e80d, 2017-08-06"><metadata
     id="metadata421"><rdf:RDF><cc:Work
         rdf:about=""><dc:format>image/svg+xml</dc:format><dc:type
           rdf:resource="http://purl.org/dc/dcmitype/StillImage" /><dc:title /></cc:Work></rdf:RDF></metadata><defs
     id="defs419" /><sodipodi:namedview
     pagecolor="#ffffff"
     bordercolor="#666666"
     borderopacity="1"
     objecttolerance="10"
     gridtolerance="10"
     guidetolerance="10"
     inkscape:pageopacity="0"
     inkscape:pageshadow="2"
     inkscape:window-width="1440"
     inkscape:window-height="808"
     id="namedview417"
     showgrid="false"
     inkscape:zoom="3.4234713"
     inkscape:cx="72.797789"
     inkscape:cy="41.444327"
     inkscape:window-x="0"
     inkscape:window-y="1"
     inkscape:window-maximized="1"
     inkscape:current-layer="svg415"
     showguides="true"
     inkscape:guide-bbox="true" /><g
     id="g5"
     transform="translate(0.15372898,0.37381641)"
     style="fill:#4b4b4b;fill-opacity:1;stroke:#000000;stroke-opacity:1;stroke-width:1.8;stroke-miterlimit:4;stroke-dasharray:none"><polygon
       style="fill:#4b4b4b;fill-opacity:1;stroke:#000000;stroke-opacity:1;stroke-width:1.8;stroke-miterlimit:4;stroke-dasharray:none"
       id="polygon3"
       points="55.556,127.881 0.417,96.047 0.417,32.377 55.556,0.542 110.696,32.377 110.696,96.046 " /></g><g
     id="Layer_1" /><g
     id="g13"
     enable-background="new    "
     transform="translate(0.15372898,0.37381641)"
     style="fill:#000000;fill-opacity:1"><path
       style="fill:#000000;fill-opacity:1"
       inkscape:connector-curvature="0"
       id="path11"
       d="M 55.555,10.618 9.073,37.416 V 91.01 L 55.555,117.805 102.04,91.01 V 37.416 Z M 100.158,89.93 55.555,115.646 10.951,89.93 V 38.506 L 55.555,12.79 100.158,38.506 Z" /></g><g
     id="g9"
     transform="translate(0.15372898,0.37381641)"
     style="fill:#000000;fill-opacity:0.29523811"><polygon
       style="fill:#000000;fill-opacity:0.29523811"
       id="polygon7"
       points="55.422,116.822 10.109,90.66 10.109,38.337 55.422,12.175 100.736,38.337 100.736,90.66 " /></g><g
     id="border" /><g
     id="g6263"
     transform="matrix(0.04851667,0,0,0.04165631,44.135969,68.925307)" /><g
     id="g6265"
     transform="matrix(0.04851667,0,0,0.04165631,44.135969,68.925307)" /><g
     id="g6267"
     transform="matrix(0.04851667,0,0,0.04165631,44.135969,68.925307)" /><g
     id="g6269"
     transform="matrix(0.04851667,0,0,0.04165631,44.135969,68.925307)" /><g
     id="g6271"
     transform="matrix(0.04851667,0,0,0.04165631,44.135969,68.925307)" /><g
     id="g6273"
     transform="matrix(0.04851667,0,0,0.04165631,44.135969,68.925307)" /><g
     id="g6275"
     transform="matrix(0.04851667,0,0,0.04165631,44.135969,68.925307)" /><g
     id="g6277"
     transform="matrix(0.04851667,0,0,0.04165631,44.135969,68.925307)" /><g
     id="g6279"
     transform="matrix(0.04851667,0,0,0.04165631,44.135969,68.925307)" /><g
     id="g6281"
     transform="matrix(0.04851667,0,0,0.04165631,44.135969,68.925307)" /><g
     id="g6283"
     transform="matrix(0.04851667,0,0,0.04165631,44.135969,68.925307)" /><g
     id="g6285"
     transform="matrix(0.04851667,0,0,0.04165631,44.135969,68.925307)" /><g
     id="g6287"
     transform="matrix(0.04851667,0,0,0.04165631,44.135969,68.925307)" /><g
     id="g6289"
     transform="matrix(0.04851667,0,0,0.04165631,44.135969,68.925307)" /><g
     id="g6291"
     transform="matrix(0.04851667,0,0,0.04165631,44.135969,68.925307)" /><polygon
     style="fill:#006600;fill-opacity:1"
     points="338.286,404.128 338.286,205.597 139.755,205.597 139.755,106.332 338.286,106.332 338.286,7.067 40.49,7.067 40.49,304.863 239.02,304.863 239.02,404.128 239.02,503.393 338.286,503.393 437.551,503.393 437.551,404.128 "
     id="polygon1996"
     transform="matrix(0.10713746,0.07918629,-0.0865891,0.0979779,52.391877,21.447583)" /><g
     id="g2008"
     transform="matrix(0.10713746,0.07918629,-0.0865891,0.0979779,52.391877,21.447583)"
     style="fill:#3e8104;fill-opacity:1"><rect
       x="239.02"
       y="404.125"
       style="fill:#3e8104;fill-opacity:1"
       width="99.264999"
       height="99.264999"
       id="rect1998" /><rect
       x="239.02"
       y="205.59399"
       style="fill:#3e8104;fill-opacity:1"
       width="99.264999"
       height="99.264999"
       id="rect2000" /><rect
       x="40.490002"
       y="205.59399"
       style="fill:#3e8104;fill-opacity:1"
       width="99.264999"
       height="99.264999"
       id="rect2002" /><rect
       x="40.490002"
       y="7.0669999"
       style="fill:#3e8104;fill-opacity:1"
       width="99.264999"
       height="99.264999"
       id="rect2004" /><rect
       x="239.02"
       y="7.0669999"
       style="fill:#3e8104;fill-opacity:1"
       width="99.264999"
       height="99.264999"
       id="rect2006" /></g><path
     inkscape:connector-curvature="0"
     d="M 72.283889,68.307351 51.013886,52.586495 58.252041,44.396325 79.522152,60.117261 89.474616,48.855779 55.890238,24.033254 28.747238,54.746287 50.017348,70.467223 32.826727,89.918872 55.775994,106.88089 65.72846,95.619407 55.093462,87.758981 72.283996,68.307429 Z m 5.198513,-25.776468 8.955833,6.619339 -7.238157,8.190169 -8.955833,-6.619339 z m -25.785888,29.177427 8.955832,6.619338 -7.238156,8.190169 -8.955833,-6.61934 z m 15.150881,-37.037859 8.955841,6.619346 -7.238156,8.190168 -8.95584,-6.619345 z m -18.551754,1.097596 7.916756,-8.958021 8.955834,6.619338 -7.238158,8.19017 -6.437032,-4.757671 -1.35711,1.535608 6.437032,4.75767 -7.238156,8.190169 -8.955833,-6.619339 z m -7.556294,25.303057 -8.955727,-6.61926 7.238156,-8.190168 8.955833,6.619339 -7.238155,8.190168 z m 1.679271,1.241165 7.238157,-8.190167 19.590839,14.479769 -7.238157,8.19017 -8.955832,-6.619339 5.202446,-5.886709 -1.679165,-1.241086 -5.202447,5.886708 z m 20.273372,33.601679 -7.238156,8.190172 -8.955832,-6.619343 5.202445,-5.886708 -1.679164,-1.241086 -5.202447,5.886708 -8.955833,-6.619339 7.238157,-8.190169 z"
     id="path2010"
     style="stroke-width:0.13173373" /><rect
     x="63.529659"
     y="40.168243"
     width="2.0880356"
     height="2.0493512"
     id="rect2016"
     style="fill:#7b7b7b;fill-opacity:1;stroke-width:0.13198514"
     transform="matrix(0.80418429,0.59438004,-0.66221489,0.74931398,0,0)" /><rect
     x="109.17374"
     y="-7.4561076"
     width="2.0880356"
     height="2.0493512"
     id="rect2018"
     style="fill:#7b7b7b;fill-opacity:1;stroke-width:0.13198514"
     transform="matrix(0.80418429,0.59438004,-0.66221489,0.74931398,0,0)" /><g
     id="g2046"
     transform="matrix(0.10713746,0.07918629,-0.0865891,0.0979779,52.391877,21.447583)"
     style="fill:#5b5b5b;fill-opacity:1"><rect
       x="64"
       y="31.347"
       style="fill:#5b5b5b;fill-opacity:1"
       width="15.673"
       height="15.673"
       id="rect2022" /><rect
       x="64"
       y="62.694"
       style="fill:#5b5b5b;fill-opacity:1"
       width="15.673"
       height="15.673"
       id="rect2024" /><rect
       x="64"
       y="130.612"
       style="fill:#5b5b5b;fill-opacity:1"
       width="15.673"
       height="15.673"
       id="rect2026" /><rect
       x="64"
       y="161.959"
       style="fill:#5b5b5b;fill-opacity:1"
       width="15.673"
       height="15.673"
       id="rect2028" /><rect
       x="64"
       y="229.87801"
       style="fill:#5b5b5b;fill-opacity:1"
       width="15.673"
       height="15.673"
       id="rect2030" /><rect
       x="64"
       y="261.224"
       style="fill:#5b5b5b;fill-opacity:1"
       width="15.673"
       height="15.673"
       id="rect2032" /><rect
       x="262.53101"
       y="229.87801"
       style="fill:#5b5b5b;fill-opacity:1"
       width="15.673"
       height="15.673"
       id="rect2034" /><rect
       x="262.53101"
       y="261.224"
       style="fill:#5b5b5b;fill-opacity:1"
       width="15.673"
       height="15.673"
       id="rect2036" /><rect
       x="262.53101"
       y="329.14301"
       style="fill:#5b5b5b;fill-opacity:1"
       width="15.673"
       height="15.673"
       id="rect2038" /><rect
       x="262.53101"
       y="360.48999"
       style="fill:#5b5b5b;fill-opacity:1"
       width="15.673"
       height="15.673"
       id="rect2040" /><rect
       x="262.53101"
       y="428.40799"
       style="fill:#5b5b5b;fill-opacity:1"
       width="15.673"
       height="15.673"
       id="rect2042" /><rect
       x="262.53101"
       y="459.755"
       style="fill:#5b5b5b;fill-opacity:1"
       width="15.673"
       height="15.673"
       id="rect2044" /></g><g
     id="g2048"
     transform="matrix(0.1314522,0,0,0.1314522,118.30034,30.268222)" /><g
     id="g2050"
     transform="matrix(0.1314522,0,0,0.1314522,118.30034,30.268222)" /><g
     id="g2052"
     transform="matrix(0.1314522,0,0,0.1314522,118.30034,30.268222)" /><g
     id="g2054"
     transform="matrix(0.1314522,0,0,0.1314522,118.30034,30.268222)" /><g
     id="g2056"
     transform="matrix(0.1314522,0,0,0.1314522,118.30034,30.268222)" /><g
     id="g2058"
     transform="matrix(0.1314522,0,0,0.1314522,118.30034,30.268222)" /><g
     id="g2060"
     transform="matrix(0.1314522,0,0,0.1314522,118.30034,30.268222)" /><g
     id="g2062"
     transform="matrix(0.1314522,0,0,0.1314522,118.30034,30.268222)" /><g
     id="g2064"
     transform="matrix(0.1314522,0,0,0.1314522,118.30034,30.268222)" /><g
     id="g2066"
     transform="matrix(0.1314522,0,0,0.1314522,118.30034,30.268222)" /><g
     id="g2068"
     transform="matrix(0.1314522,0,0,0.1314522,118.30034,30.268222)" /><g
     id="g2070"
     transform="matrix(0.1314522,0,0,0.1314522,118.30034,30.268222)" /><g
     id="g2072"
     transform="matrix(0.1314522,0,0,0.1314522,118.30034,30.268222)" /><g
     id="g2074"
     transform="matrix(0.1314522,0,0,0.1314522,118.30034,30.268222)" /><g
     id="g2076"
     transform="matrix(0.1314522,0,0,0.1314522,118.30034,30.268222)" /></svg>