<?xml version="1.0" encoding="UTF-8" standalone="no"?>
<!-- Generator: Adobe Illustrator 21.0.2, SVG Export Plug-In . SVG Version: 6.00 Build 0)  -->

<svg
   xmlns:dc="http://purl.org/dc/elements/1.1/"
   xmlns:cc="http://creativecommons.org/ns#"
   xmlns:rdf="http://www.w3.org/1999/02/22-rdf-syntax-ns#"
   xmlns:svg="http://www.w3.org/2000/svg"
   xmlns="http://www.w3.org/2000/svg"
   xmlns:sodipodi="http://sodipodi.sourceforge.net/DTD/sodipodi-0.dtd"
   xmlns:inkscape="http://www.inkscape.org/namespaces/inkscape"
   version="1.1"
   x="0px"
   y="0px"
   viewBox="0 0 110.979 128.417"
   enable-background="new 0 0 110.979 128.417"
   xml:space="preserve"
   id="svg415"
   sodipodi:docname="90_6.svg"
   inkscape:version="0.92.2 5c3e80d, 2017-08-06"><metadata
     id="metadata421"><rdf:RDF><cc:Work
         rdf:about=""><dc:format>image/svg+xml</dc:format><dc:type
           rdf:resource="http://purl.org/dc/dcmitype/StillImage" /><dc:title></dc:title></cc:Work></rdf:RDF></metadata><defs
     id="defs419" /><sodipodi:namedview
     pagecolor="#ffffff"
     bordercolor="#666666"
     borderopacity="1"
     objecttolerance="10"
     gridtolerance="10"
     guidetolerance="10"
     inkscape:pageopacity="0"
     inkscape:pageshadow="2"
     inkscape:window-width="1440"
     inkscape:window-height="808"
     id="namedview417"
     showgrid="false"
     inkscape:zoom="4.8415195"
     inkscape:cx="49.304411"
     inkscape:cy="80.956596"
     inkscape:window-x="0"
     inkscape:window-y="1"
     inkscape:window-maximized="1"
     inkscape:current-layer="svg415"
     showguides="true"
     inkscape:guide-bbox="true" /><g
     id="g5"
     transform="translate(0.15372898,0.37381641)"
     style="fill:#535353;fill-opacity:0.97156399;stroke:#000000;stroke-opacity:1;stroke-width:1.8;stroke-miterlimit:4;stroke-dasharray:none"><polygon
       style="fill:#535353;fill-opacity:0.97156399;stroke:#000000;stroke-opacity:1;stroke-width:1.8;stroke-miterlimit:4;stroke-dasharray:none"
       id="polygon3"
       points="55.556,127.881 0.417,96.047 0.417,32.377 55.556,0.542 110.696,32.377 110.696,96.046 " /></g><g
     id="Layer_1" /><g
     id="g13"
     enable-background="new    "
     transform="translate(0.15372898,0.37381641)"
     style="fill:#000000;fill-opacity:1"><path
       style="fill:#000000;fill-opacity:1"
       inkscape:connector-curvature="0"
       id="path11"
       d="M 55.555,10.618 9.073,37.416 V 91.01 L 55.555,117.805 102.04,91.01 V 37.416 Z M 100.158,89.93 55.555,115.646 10.951,89.93 V 38.506 L 55.555,12.79 100.158,38.506 Z" /></g><g
     id="g9"
     transform="translate(0.15372898,0.37381641)"
     style="fill:#000000;fill-opacity:0.29523811"><polygon
       style="fill:#000000;fill-opacity:0.29523811"
       id="polygon7"
       points="55.422,116.822 10.109,90.66 10.109,38.337 55.422,12.175 100.736,38.337 100.736,90.66 " /></g><g
     id="border" /><g
     id="g6263"
     transform="matrix(0.04851667,0,0,0.04165631,44.135969,68.925307)" /><g
     id="g6265"
     transform="matrix(0.04851667,0,0,0.04165631,44.135969,68.925307)" /><g
     id="g6267"
     transform="matrix(0.04851667,0,0,0.04165631,44.135969,68.925307)" /><g
     id="g6269"
     transform="matrix(0.04851667,0,0,0.04165631,44.135969,68.925307)" /><g
     id="g6271"
     transform="matrix(0.04851667,0,0,0.04165631,44.135969,68.925307)" /><g
     id="g6273"
     transform="matrix(0.04851667,0,0,0.04165631,44.135969,68.925307)" /><g
     id="g6275"
     transform="matrix(0.04851667,0,0,0.04165631,44.135969,68.925307)" /><g
     id="g6277"
     transform="matrix(0.04851667,0,0,0.04165631,44.135969,68.925307)" /><g
     id="g6279"
     transform="matrix(0.04851667,0,0,0.04165631,44.135969,68.925307)" /><g
     id="g6281"
     transform="matrix(0.04851667,0,0,0.04165631,44.135969,68.925307)" /><g
     id="g6283"
     transform="matrix(0.04851667,0,0,0.04165631,44.135969,68.925307)" /><g
     id="g6285"
     transform="matrix(0.04851667,0,0,0.04165631,44.135969,68.925307)" /><g
     id="g6287"
     transform="matrix(0.04851667,0,0,0.04165631,44.135969,68.925307)" /><g
     id="g6289"
     transform="matrix(0.04851667,0,0,0.04165631,44.135969,68.925307)" /><g
     id="g6291"
     transform="matrix(0.04851667,0,0,0.04165631,44.135969,68.925307)" /><g
     id="g1330"
     transform="translate(-108.18071,1.6832514)"><rect
       y="59.754604"
       x="125.39719"
       height="21.917032"
       width="6.7437029"
       id="rect1218"
       style="opacity:1;fill:#d2d2d2;fill-opacity:0.73459712;fill-rule:nonzero;stroke:none;stroke-width:2.0085578;stroke-miterlimit:4;stroke-dasharray:none;stroke-dashoffset:0;stroke-opacity:1" /><g
       transform="matrix(1.1543436,0,0,1.1543436,-36.149993,-18.354664)"
       style="fill:#d2d2d2;fill-opacity:0.73459712"
       id="g1212"><path
         id="path1005"
         d="m 194.57284,61.570421 v -6.106625 h -6.0951 v -6.095105 h -6.09511 v 6.095105 h -18.29669 v -6.095105 h -6.09511 v 6.095105 h -6.09497 v 6.106625 h -6.10662 v 6.095104 h 6.10662 v 18.296698 h 6.09511 v -6.095104 h 30.4869 v 6.095104 h 6.09511 V 67.665525 h 6.10662 v -6.095104 z m -30.4869,6.095104 h -6.09511 v -6.095104 h 6.09511 z m 24.3918,0 h -6.09511 v -6.095104 h 6.09511 z"
         style="fill:#d2d2d2;fill-opacity:0.73459712;stroke-width:0.13553411"
         inkscape:connector-curvature="0" /><g
         style="fill:#d2d2d2;fill-opacity:0.73459712"
         id="g1013"
         transform="matrix(0.13553411,0,0,0.13553411,138.53762,32.968793)"><polygon
           id="polygon1009"
           points="188.51,435.977 233.506,435.977 233.506,390.98 188.51,390.98 143.514,390.98 143.514,435.977 "
           style="fill:#d2d2d2;fill-opacity:0.73459712" /><polygon
           id="polygon1011"
           points="278.494,435.977 323.49,435.977 368.486,435.977 368.486,390.98 323.49,390.98 278.494,390.98 "
           style="fill:#d2d2d2;fill-opacity:0.73459712" /></g><rect
         id="rect1015"
         height="6.0984926"
         width="6.0984926"
         style="fill:#d2d2d2;fill-opacity:0.73459712;stroke-width:0.13553411"
         y="43.272503"
         x="151.89003" /><g
         style="fill:#d2d2d2;fill-opacity:0.73459712"
         id="g1029"
         transform="matrix(0.13553411,0,0,0.13553411,138.53762,32.968793)"><rect
           id="rect1019"
           height="44.995998"
           width="44.995998"
           style="fill:#d2d2d2;fill-opacity:0.73459712"
           y="76.014999"
           x="368.52899" /><polygon
           id="polygon1021"
           points="458.47,256 458.47,300.996 458.47,345.984 458.47,390.98 503.467,390.98 503.467,345.984 503.467,300.996 503.467,256 "
           style="fill:#d2d2d2;fill-opacity:0.73459712" /><path
           id="path1023"
           d="m 160.597,121.003 v 44.971 h 27.904 v -44.971 z m 179.968,0 v 44.971 h 27.904 v -44.971 z m 44.971,44.97 v 45.056 h 27.904 v -45.056 z m 0,90.027 V 390.997 H 413.44 V 256 Z m 45.056,-44.971 V 256 h 27.904 v -44.971 z"
           style="fill:#d2d2d2;fill-opacity:0.73459712"
           inkscape:connector-curvature="0" /><polygon
           id="polygon1025"
           points="188.51,435.977 233.506,435.977 233.506,390.98 188.51,390.98 143.514,390.98 143.514,435.977 "
           style="fill:#d2d2d2;fill-opacity:0.73459712" /><rect
           id="rect1027"
           height="44.971001"
           width="89.941002"
           style="fill:#d2d2d2;fill-opacity:0.73459712"
           y="390.99701"
           x="278.52802" /></g><g
         style="fill:#d2d2d2;fill-opacity:0.73459712"
         id="g1037"
         transform="matrix(0.13553411,0,0,0.13553411,138.53762,32.968793)"><rect
           id="rect1033"
           height="42.667"
           width="42.667"
           style="fill:#d2d2d2;fill-opacity:0.73459712"
           y="213.33299"
           x="145.067" /><rect
           id="rect1035"
           height="42.667"
           width="42.667"
           style="fill:#d2d2d2;fill-opacity:0.73459712"
           y="213.33299"
           x="324.267" /></g></g><rect
       x="167.34122"
       y="80.87262"
       style="fill:#a3a3a3;fill-opacity:0.50236966;stroke-width:0.1677471"
       width="9.2918282"
       height="7.0125628"
       id="rect1031" /><path
       inkscape:connector-curvature="0"
       style="fill:#a3a3a3;fill-opacity:0.50236966;stroke-width:0.15645292"
       d="m 184.08826,52.718757 v -7.049143 h -7.03585 v -7.035846 h -2.67018 v 7.035846 h -25.48634 v -7.035846 h -2.67018 v 7.035846 h -7.03569 v 7.049143 h -7.04914 v 7.035845 h 7.04914 v 21.120684 h 7.03585 v -7.035851 h 35.19236 v 7.035851 h 2.67018 V 59.754602 h 7.04915 v -7.035845 z m -30.8267,7.035845 h -7.03585 v -7.035845 h 7.03585 z m 28.15652,0 h -7.03585 v -7.035845 h 7.03585 z"
       id="path1007" /><path
       style="stroke-width:0.15645292"
       id="path1039"
       d="m 202.86156,59.039637 h -5.70005 v -5.700049 c 1.5e-4,-0.35421 -0.14034,-0.693869 -0.39082,-0.944194 -0.25048,-0.250481 -0.59014,-0.390976 -0.9442,-0.390819 h -5.71444 v -5.714443 c 1.6e-4,-0.35421 -0.14034,-0.693869 -0.39082,-0.944194 -0.25048,-0.250481 -0.59014,-0.390976 -0.94419,-0.390819 h -5.70162 v -4.363942 h 5.70663 c 0.3542,1.57e-4 0.69386,-0.140338 0.94419,-0.390819 0.25048,-0.250481 0.39097,-0.590141 0.39082,-0.944194 v -7.03913 c 1.5e-4,-0.354209 -0.14034,-0.693869 -0.39082,-0.944193 -0.25048,-0.250325 -0.59014,-0.390976 -0.94419,-0.39082 h -7.03913 c -0.35421,-1.56e-4 -0.69387,0.140338 -0.9442,0.39082 -0.25048,0.250481 -0.39097,0.59014 -0.39082,0.944193 v 5.701458 h -5.70271 c -0.35421,-1.57e-4 -0.69387,0.140338 -0.94419,0.390819 -0.25048,0.250481 -0.39098,0.590141 -0.39082,0.944194 v 5.701457 h -18.45112 v -5.701457 c 1.6e-4,-0.35421 -0.14034,-0.693869 -0.39082,-0.944194 -0.25048,-0.250481 -0.59014,-0.390976 -0.94419,-0.390819 h -5.70271 v -5.701458 c 1.5e-4,-0.354209 -0.14034,-0.693869 -0.39082,-0.944193 -0.25048,-0.250482 -0.59014,-0.390976 -0.94419,-0.39082 h -7.03914 c -0.3542,-1.56e-4 -0.69386,0.140338 -0.94419,0.39082 -0.25048,0.250481 -0.39097,0.59014 -0.39082,0.944193 v 7.03913 c -1.5e-4,0.35421 0.14034,0.693869 0.39082,0.944194 0.25048,0.250481 0.59014,0.390976 0.94419,0.390819 h 5.70663 v 4.363785 h -5.70146 c -0.35421,-1.56e-4 -0.69387,0.140338 -0.9442,0.39082 -0.25048,0.250481 -0.39097,0.59014 -0.39081,0.944193 v 5.714443 h -5.71445 c -0.35421,-1.56e-4 -0.69387,0.140339 -0.94419,0.39082 -0.25048,0.250481 -0.39098,0.59014 -0.39082,0.944193 v 5.70005 h -5.70021 c -0.35421,-1.57e-4 -0.69387,0.140338 -0.94419,0.390819 -0.25033,0.250481 -0.39098,0.590141 -0.39082,0.94435 v 21.118486 c -1.6e-4,0.354209 0.14034,0.693869 0.39082,0.944193 0.25048,0.250325 0.59014,0.390976 0.94419,0.39082 h 7.03913 c 0.35421,1.56e-4 0.69387,-0.140338 0.9442,-0.39082 0.25048,-0.250481 0.39097,-0.59014 0.39082,-0.944193 V 61.709663 h 4.37552 v 19.786133 c -1.6e-4,0.354209 0.14033,0.693868 0.39081,0.944193 0.25049,0.250481 0.59014,0.390976 0.9442,0.390819 h 5.6988 v 5.701458 c -1.6e-4,0.35421 0.14033,0.693869 0.39082,0.944194 0.25048,0.250481 0.59014,0.390975 0.94419,0.390819 h 14.07826 c 0.35421,1.56e-4 0.69387,-0.140338 0.94419,-0.390819 0.25048,-0.250482 0.39098,-0.590141 0.39082,-0.944194 v -7.03913 c 1.6e-4,-0.35421 -0.14034,-0.693869 -0.39082,-0.944194 -0.25048,-0.250481 -0.59014,-0.390975 -0.94419,-0.390819 h -12.74059 v -4.363785 h 32.5214 v 4.363785 h -12.74043 c -0.35421,-1.56e-4 -0.69387,0.140338 -0.94419,0.390819 -0.25048,0.250482 -0.39098,0.590141 -0.39082,0.944194 v 7.03913 c -1.6e-4,0.35421 0.14034,0.693869 0.39082,0.944194 0.25048,0.250481 0.59014,0.390975 0.94419,0.390819 h 14.07826 c 0.35421,1.56e-4 0.69387,-0.140338 0.94419,-0.390819 0.25049,-0.250482 0.39098,-0.590141 0.39082,-0.944194 v -5.701458 h 5.6988 c 0.35421,1.57e-4 0.69387,-0.140338 0.9442,-0.390819 0.25048,-0.250481 0.39097,-0.59014 0.39082,-0.944193 V 61.709663 h 4.37551 v 19.783473 c -1.5e-4,0.354209 0.14034,0.693869 0.39082,0.944193 0.25048,0.250482 0.59014,0.390976 0.9442,0.39082 h 7.03913 c 0.35421,1.56e-4 0.69387,-0.140338 0.94419,-0.39082 0.25048,-0.250481 0.39098,-0.59014 0.39082,-0.944193 V 60.37465 c 1.6e-4,-0.354209 -0.14034,-0.693869 -0.39082,-0.944193 -0.25048,-0.250481 -0.59014,-0.391133 -0.94419,-0.39082 z m -19.78348,-25.48759 h 4.36895 v 4.368948 h -4.36895 z m -37.86692,4.368948 h -4.36895 v -4.368948 h 4.36895 z M 131.1318,80.158123 h -4.36895 v -18.44846 h 4.36895 z m 28.15762,7.03913 h -11.40808 v -4.368948 h 11.40808 z m 21.11848,0 h -11.40808 v -4.368948 h 11.40808 z m 8.36898,-28.157616 c -0.35421,-1.56e-4 -0.69387,0.140339 -0.94419,0.39082 -0.25048,0.250481 -0.39098,0.59014 -0.39082,0.944193 v 19.786133 h -4.36645 v -5.701458 c 1.6e-4,-0.354209 -0.14033,-0.693869 -0.39081,-0.944193 -0.25049,-0.250325 -0.59015,-0.390976 -0.9442,-0.39082 h -35.19158 c -0.35421,-1.56e-4 -0.69387,0.140339 -0.9442,0.39082 -0.25048,0.250481 -0.39097,0.59014 -0.39081,0.944193 v 5.701458 h -4.36629 V 60.37465 c 1.5e-4,-0.354209 -0.14034,-0.693869 -0.39082,-0.944193 -0.25048,-0.250481 -0.59014,-0.390976 -0.9442,-0.39082 h -5.7146 V 54.6746 h 5.71445 c 0.35421,1.57e-4 0.69387,-0.140338 0.94419,-0.390819 0.25048,-0.250481 0.39098,-0.59014 0.39082,-0.944193 v -5.714444 h 5.70146 c 0.35421,1.57e-4 0.69387,-0.140338 0.94419,-0.390819 0.25048,-0.250481 0.39098,-0.590141 0.39082,-0.944193 v -5.701458 h 4.36504 v 5.701458 c -1.6e-4,0.354209 0.14034,0.693868 0.39082,0.944193 0.25048,0.250325 0.59014,0.390976 0.94419,0.390819 h 21.12115 c 0.35421,1.57e-4 0.69387,-0.140338 0.94419,-0.390819 0.25048,-0.250481 0.39098,-0.590141 0.39082,-0.944193 v -5.701458 h 4.36504 v 5.701458 c -1.6e-4,0.354209 0.14033,0.693868 0.39082,0.944193 0.25048,0.250481 0.59014,0.390976 0.94419,0.390819 h 5.70146 v 5.714444 c -1.6e-4,0.354209 0.14033,0.693868 0.39082,0.944193 0.25048,0.250481 0.59014,0.390976 0.94419,0.390819 h 5.71444 v 4.365037 z m 12.74951,21.118486 h -4.36895 v -18.44846 h 4.36895 z"
       inkscape:connector-curvature="0" /><path
       style="stroke-width:0.15645292"
       id="path1041"
       d="m 153.58405,52.004418 h -7.03522 c -0.35421,-1.56e-4 -0.69387,0.140339 -0.9442,0.39082 -0.25048,0.250481 -0.39097,0.59014 -0.39081,0.944193 v 7.035219 c -1.6e-4,0.35421 0.14033,0.693869 0.39081,0.944194 0.25049,0.250481 0.59015,0.390975 0.9442,0.390819 h 7.03522 c 0.35421,1.56e-4 0.69387,-0.140338 0.94419,-0.390819 0.25048,-0.250482 0.39098,-0.590141 0.39082,-0.944194 v -7.035219 c 1.6e-4,-0.354209 -0.14034,-0.693869 -0.39082,-0.944193 -0.25032,-0.250481 -0.58998,-0.390976 -0.94419,-0.39082 z m -1.33502,7.035219 H 147.884 V 54.6746 h 4.36503 z"
       inkscape:connector-curvature="0" /><path
       style="stroke-width:0.15645292"
       id="path1043"
       d="m 181.74041,52.004418 h -7.03522 c -0.35421,-1.56e-4 -0.69387,0.140339 -0.94419,0.39082 -0.25048,0.250481 -0.39098,0.59014 -0.39082,0.944193 v 7.035219 c -1.6e-4,0.35421 0.14034,0.693869 0.39082,0.944194 0.25048,0.250481 0.59014,0.390975 0.94419,0.390819 h 7.03522 c 0.35421,1.56e-4 0.69387,-0.140338 0.9442,-0.390819 0.25032,-0.250482 0.39097,-0.590141 0.39081,-0.944194 v -7.035219 c 1.6e-4,-0.354209 -0.14033,-0.693869 -0.39081,-0.944193 -0.25033,-0.250481 -0.59015,-0.390976 -0.9442,-0.39082 z m -1.33517,7.035219 h -4.36503 V 54.6746 h 4.36503 z"
       inkscape:connector-curvature="0" /></g><g
     id="g1049"
     transform="matrix(0.13553411,0,0,0.13553411,138.53762,32.968793)" /><g
     id="g1051"
     transform="matrix(0.13553411,0,0,0.13553411,138.53762,32.968793)" /><g
     id="g1053"
     transform="matrix(0.13553411,0,0,0.13553411,138.53762,32.968793)" /><g
     id="g1055"
     transform="matrix(0.13553411,0,0,0.13553411,138.53762,32.968793)" /><g
     id="g1057"
     transform="matrix(0.13553411,0,0,0.13553411,138.53762,32.968793)" /><g
     id="g1059"
     transform="matrix(0.13553411,0,0,0.13553411,138.53762,32.968793)" /><g
     id="g1061"
     transform="matrix(0.13553411,0,0,0.13553411,138.53762,32.968793)" /><g
     id="g1063"
     transform="matrix(0.13553411,0,0,0.13553411,138.53762,32.968793)" /><g
     id="g1065"
     transform="matrix(0.13553411,0,0,0.13553411,138.53762,32.968793)" /><g
     id="g1067"
     transform="matrix(0.13553411,0,0,0.13553411,138.53762,32.968793)" /><g
     id="g1069"
     transform="matrix(0.13553411,0,0,0.13553411,138.53762,32.968793)" /><g
     id="g1071"
     transform="matrix(0.13553411,0,0,0.13553411,138.53762,32.968793)" /><g
     id="g1073"
     transform="matrix(0.13553411,0,0,0.13553411,138.53762,32.968793)" /><g
     id="g1075"
     transform="matrix(0.13553411,0,0,0.13553411,138.53762,32.968793)" /><g
     id="g1077"
     transform="matrix(0.13553411,0,0,0.13553411,138.53762,32.968793)" /></svg>