<?xml version="1.0" encoding="UTF-8" standalone="no"?>
<!-- Generator: Adobe Illustrator 21.0.2, SVG Export Plug-In . SVG Version: 6.00 Build 0)  -->

<svg
   xmlns:dc="http://purl.org/dc/elements/1.1/"
   xmlns:cc="http://creativecommons.org/ns#"
   xmlns:rdf="http://www.w3.org/1999/02/22-rdf-syntax-ns#"
   xmlns:svg="http://www.w3.org/2000/svg"
   xmlns="http://www.w3.org/2000/svg"
   xmlns:sodipodi="http://sodipodi.sourceforge.net/DTD/sodipodi-0.dtd"
   xmlns:inkscape="http://www.inkscape.org/namespaces/inkscape"
   version="1.1"
   x="0px"
   y="0px"
   viewBox="0 0 110.979 128.417"
   enable-background="new 0 0 110.979 128.417"
   xml:space="preserve"
   id="svg415"
   sodipodi:docname="90_7.svg"
   inkscape:version="0.92.2 5c3e80d, 2017-08-06"><metadata
     id="metadata421"><rdf:RDF><cc:Work
         rdf:about=""><dc:format>image/svg+xml</dc:format><dc:type
           rdf:resource="http://purl.org/dc/dcmitype/StillImage" /><dc:title /></cc:Work></rdf:RDF></metadata><defs
     id="defs419" /><sodipodi:namedview
     pagecolor="#ffffff"
     bordercolor="#666666"
     borderopacity="1"
     objecttolerance="10"
     gridtolerance="10"
     guidetolerance="10"
     inkscape:pageopacity="0"
     inkscape:pageshadow="2"
     inkscape:window-width="1440"
     inkscape:window-height="808"
     id="namedview417"
     showgrid="false"
     inkscape:zoom="4.8415195"
     inkscape:cx="40.946123"
     inkscape:cy="84.672351"
     inkscape:window-x="0"
     inkscape:window-y="1"
     inkscape:window-maximized="1"
     inkscape:current-layer="svg415"
     showguides="true"
     inkscape:guide-bbox="true" /><g
     id="g5"
     transform="translate(0.15372898,0.37381641)"
     style="fill:#f29c37;fill-opacity:1;stroke:#000000;stroke-opacity:1;stroke-width:1.8;stroke-miterlimit:4;stroke-dasharray:none"><polygon
       style="fill:#f29c37;fill-opacity:1;stroke:#000000;stroke-opacity:1;stroke-width:1.8;stroke-miterlimit:4;stroke-dasharray:none"
       id="polygon3"
       points="55.556,127.881 0.417,96.047 0.417,32.377 55.556,0.542 110.696,32.377 110.696,96.046 " /></g><g
     id="Layer_1" /><g
     id="g13"
     enable-background="new    "
     transform="translate(0.15372898,0.37381641)"
     style="fill:#000000;fill-opacity:1"><path
       style="fill:#000000;fill-opacity:1"
       inkscape:connector-curvature="0"
       id="path11"
       d="M 55.555,10.618 9.073,37.416 V 91.01 L 55.555,117.805 102.04,91.01 V 37.416 Z M 100.158,89.93 55.555,115.646 10.951,89.93 V 38.506 L 55.555,12.79 100.158,38.506 Z" /></g><g
     id="g9"
     transform="translate(0.15372898,0.37381641)"
     style="fill:#000000;fill-opacity:0.29523811"><polygon
       style="fill:#000000;fill-opacity:0.29523811"
       id="polygon7"
       points="55.422,116.822 10.109,90.66 10.109,38.337 55.422,12.175 100.736,38.337 100.736,90.66 " /></g><g
     id="border" /><g
     id="g6263"
     transform="matrix(0.04851667,0,0,0.04165631,44.135969,68.925307)" /><g
     id="g6265"
     transform="matrix(0.04851667,0,0,0.04165631,44.135969,68.925307)" /><g
     id="g6267"
     transform="matrix(0.04851667,0,0,0.04165631,44.135969,68.925307)" /><g
     id="g6269"
     transform="matrix(0.04851667,0,0,0.04165631,44.135969,68.925307)" /><g
     id="g6271"
     transform="matrix(0.04851667,0,0,0.04165631,44.135969,68.925307)" /><g
     id="g6273"
     transform="matrix(0.04851667,0,0,0.04165631,44.135969,68.925307)" /><g
     id="g6275"
     transform="matrix(0.04851667,0,0,0.04165631,44.135969,68.925307)" /><g
     id="g6277"
     transform="matrix(0.04851667,0,0,0.04165631,44.135969,68.925307)" /><g
     id="g6279"
     transform="matrix(0.04851667,0,0,0.04165631,44.135969,68.925307)" /><g
     id="g6281"
     transform="matrix(0.04851667,0,0,0.04165631,44.135969,68.925307)" /><g
     id="g6283"
     transform="matrix(0.04851667,0,0,0.04165631,44.135969,68.925307)" /><g
     id="g6285"
     transform="matrix(0.04851667,0,0,0.04165631,44.135969,68.925307)" /><g
     id="g6287"
     transform="matrix(0.04851667,0,0,0.04165631,44.135969,68.925307)" /><g
     id="g6289"
     transform="matrix(0.04851667,0,0,0.04165631,44.135969,68.925307)" /><g
     id="g6291"
     transform="matrix(0.04851667,0,0,0.04165631,44.135969,68.925307)" /><g
     id="g3523"
     transform="matrix(1.0544621,0,0,1.0544621,21.832944,33.403707)"><g
       id="g3297"><rect
         id="rect3295"
         height="16"
         width="4"
         style="fill:#946c5a"
         transform="rotate(-180,7,10)"
         y="2"
         x="5" /></g><g
       id="g3301"><path
         id="path3299"
         d="m 48,39 v 3.858 c 0,2.652 -1.054,5.196 -2.929,7.071 L 45,50 H 19 L 18.929,49.929 C 17.054,48.054 16,45.51 16,42.858 V 39"
         style="fill:#946c5a"
         inkscape:connector-curvature="0" /></g><g
       id="g3305"><path
         id="path3303"
         d="M 22,30 7,37 c -2.761,0 -5,2.239 -5,5 0,2.761 2.239,5 5,5 2.761,0 5,-2.239 5,-5 l 9,-2 -1,7 -4,12 v 0 c 0,1.657 1.343,3 3,3 h 6 l 4,-8 h 6 v 0 l 4,8 h 6 c 1.657,0 3,-1.343 3,-3 v 0 L 44,47 43,40 c 0,0 9,2 9,2 0,2.761 2.239,5 5,5 2.761,0 5,-2.239 5,-5 0,-2.761 -2.239,-5 -5,-5 L 42,30"
         style="fill:#67ac5b"
         inkscape:connector-curvature="0" /></g><g
       id="g3309"><rect
         id="rect3307"
         height="16"
         width="4"
         style="fill:#946c5a"
         transform="rotate(180,57,42)"
         y="34"
         x="55" /></g><g
       id="g3313"><rect
         id="rect3311"
         height="16"
         width="4"
         style="fill:#946c5a"
         y="2"
         x="55" /></g><g
       id="g3317"><rect
         id="rect3315"
         height="16"
         width="4"
         style="fill:#946c5a"
         y="34"
         x="5" /></g><g
       id="g3321"><rect
         id="rect3319"
         height="4"
         width="4"
         style="fill:#657b88"
         y="34"
         x="5" /></g><g
       id="g3325"><rect
         id="rect3323"
         height="4"
         width="4"
         style="fill:#657b88"
         y="14"
         x="5" /></g><g
       id="g3329"><rect
         id="rect3327"
         height="4"
         width="4"
         style="fill:#657b88"
         y="34"
         x="55" /></g><g
       id="g3333"><rect
         id="rect3331"
         height="4"
         width="4"
         style="fill:#657b88"
         y="14"
         x="55" /></g><g
       id="g3337"><polyline
         id="polyline3335"
         points="39,31 43,40 44,47 35,50 29,50 20,47 21,40 25,31   "
         style="fill:#fae0b8" /></g><g
       id="g3341"><circle
         id="circle3339"
         r="2"
         cy="48"
         cx="32"
         style="fill:#74564a" /></g><g
       id="g3345"><polygon
         id="polygon3343"
         points="45.9,52.7 47.313,56.937 37.455,58.909 36,56 "
         style="fill:#f29c37" /></g><g
       id="g3349"><polygon
         id="polygon3347"
         points="18.1,52.7 16.688,56.938 26.545,58.909 28,56 "
         style="fill:#f29c37" /></g><g
       id="g3353"><polygon
         id="polygon3351"
         points="46.965,32.317 52.119,34.722 49.261,41.391 46.036,40.675 "
         style="fill:#f29c37" /></g><g
       id="g3357"><polygon
         id="polygon3355"
         points="17.964,40.675 14.739,41.391 11.881,34.722 17.035,32.317 "
         style="fill:#f29c37" /></g><g
       id="g3361"><path
         id="path3359"
         d="M 50,22 C 50,19.309 48.076,16.87 44.964,15.073 44.586,6.317 38.936,2 32,2 25.064,2 19.414,6.317 19.036,15.073 15.924,16.87 14,19.309 14,22 c 0,4.206 4.68,7.799 11.3,9.276 1.958,1.7 4.245,2.724 6.7,2.724 2.455,0 4.742,-1.024 6.7,-2.724 C 45.32,29.799 50,26.206 50,22 Z"
         style="fill:#97c05c"
         inkscape:connector-curvature="0" /></g><g
       id="g3365"><path
         id="path3363"
         d="M 47.661,17.097 C 46.911,16.361 46.011,15.678 44.963,15.073 44.9,13.606 44.677,12.275 44.336,11.056 L 38,10 l -6,2 -6,-2 -6.337,1.056 c -0.341,1.218 -0.564,2.55 -0.627,4.017 -1.048,0.605 -1.947,1.288 -2.698,2.024 L 23,19 26.229,17.924 C 28.064,17.312 29.986,17 31.921,17 h 0.158 c 1.935,0 3.857,0.312 5.692,0.924 L 41,19 Z"
         style="fill:#f29c37"
         inkscape:connector-curvature="0" /></g><g
       id="g3369"><path
         id="path3367"
         d="M 32,35 C 29.499,35 27.028,34.032 24.838,32.197 17.637,30.525 13,26.539 13,22 13,19.169 14.794,16.516 18.068,14.487 18.64,6.273 24.059,1 32,1 39.941,1 45.36,6.273 45.932,14.487 49.206,16.516 51,19.168 51,22 51,26.539 46.363,30.525 39.162,32.197 36.972,34.032 34.501,35 32,35 Z M 32,3 C 24.942,3 20.358,7.643 20.036,15.116 20.021,15.458 19.833,15.768 19.537,15.939 16.611,17.628 15,19.781 15,22 c 0,3.561 4.227,6.896 10.518,8.3 0.162,0.036 0.312,0.112 0.438,0.221 3.735,3.244 8.354,3.244 12.089,0 C 38.17,30.413 38.321,30.336 38.483,30.3 44.773,28.896 49,25.561 49,22 49,19.781 47.389,17.628 44.463,15.939 44.167,15.768 43.979,15.458 43.964,15.116 43.643,7.643 39.058,3 32,3 Z"
         inkscape:connector-curvature="0" /></g><g
       id="g3373"><path
         id="path3371"
         d="m 32,13 c -0.107,0 -0.213,-0.017 -0.316,-0.051 l -5.764,-1.921 -5.755,0.959 -0.329,-1.973 6,-1 C 25.998,8.987 26.162,9 26.316,9.051 L 32,10.946 37.684,9.051 C 37.838,9 38.003,8.986 38.165,9.014 l 6,1 -0.329,1.973 -5.755,-0.959 -5.764,1.921 C 32.213,12.983 32.107,13 32,13 Z"
         inkscape:connector-curvature="0" /></g><g
       id="g3377"><path
         id="path3375"
         d="m 41,20 c -0.107,0 -0.214,-0.017 -0.316,-0.051 L 37.455,18.873 C 35.718,18.293 33.909,18 32.079,18 h -0.158 c -1.83,0 -3.639,0.293 -5.375,0.873 l -3.229,1.076 c -0.19,0.064 -0.398,0.069 -0.591,0.013 l -7,-2 0.55,-1.923 6.702,1.915 2.936,-0.979 C 27.854,16.328 29.875,16 31.921,16 h 0.158 c 2.045,0 4.067,0.328 6.008,0.975 l 2.936,0.979 6.702,-1.915 0.55,1.923 -7,2 C 41.185,19.987 41.092,20 41,20 Z"
         inkscape:connector-curvature="0" /></g><g
       id="g3383"><g
         id="g3381"><circle
           id="circle3379"
           r="2"
           cy="14"
           cx="25" /></g></g><g
       id="g3389"><g
         id="g3387"><circle
           id="circle3385"
           r="2"
           cy="14"
           cx="39" /></g></g><g
       id="g3393"><path
         id="path3391"
         d="m 32.156,29 h -0.312 c -3.367,0 -6.627,-0.987 -9.43,-2.855 l -1.969,-1.313 1.109,-1.664 1.969,1.313 c 2.473,1.648 5.35,2.519 8.32,2.519 h 0.312 c 2.971,0 5.848,-0.871 8.32,-2.519 l 1.969,-1.313 1.109,1.664 -1.969,1.313 C 38.783,28.013 35.522,29 32.156,29 Z"
         inkscape:connector-curvature="0" /></g><g
       id="g3397"><rect
         id="rect3395"
         height="2"
         width="9.849"
         transform="matrix(0.4063,-0.9137,0.9137,0.4063,-18.7828,42.0915)"
         y="34.5"
         x="18.076" /></g><g
       id="g3401"><rect
         id="rect3399"
         height="9.849"
         width="2"
         transform="matrix(0.9138,-0.4061,0.4061,0.9138,-10.8842,19.7114)"
         y="30.576"
         x="40" /></g><g
       id="g3405"><rect
         id="rect3403"
         height="12"
         width="2"
         y="34"
         x="31" /></g><g
       id="g3409"><path
         id="path3407"
         d="m 32,42 h -6 c -0.155,0 -0.309,-0.036 -0.447,-0.105 l -4,-2 0.895,-1.789 L 26.236,40 H 32 Z"
         inkscape:connector-curvature="0" /></g><g
       id="g3413"><path
         id="path3411"
         d="m 32,51 c -1.654,0 -3,-1.346 -3,-3 0,-1.654 1.346,-3 3,-3 1.654,0 3,1.346 3,3 0,1.654 -1.346,3 -3,3 z m 0,-4 c -0.551,0 -1,0.449 -1,1 0,0.551 0.449,1 1,1 0.551,0 1,-0.449 1,-1 0,-0.551 -0.449,-1 -1,-1 z"
         inkscape:connector-curvature="0" /></g><g
       id="g3417"><path
         id="path3415"
         d="m 38,42 h -6 v -2 h 5.764 l 3.789,-1.895 0.895,1.789 -4,2 C 38.309,41.964 38.155,42 38,42 Z"
         inkscape:connector-curvature="0" /></g><g
       id="g3421"><path
         id="path3419"
         d="m 45,63 h -6 c -0.379,0 -0.725,-0.214 -0.895,-0.553 L 34.382,55 h -4.764 l -3.724,7.447 C 25.725,62.786 25.379,63 25,63 h -6 c -2.206,0 -4,-1.794 -4,-4 0,-0.107 0.017,-0.214 0.051,-0.316 l 4,-12 1.897,0.633 -3.943,11.83 C 17.081,60.181 17.946,61 19,61 h 5.382 l 3.724,-7.447 C 28.275,53.214 28.621,53 29,53 h 6 c 0.379,0 0.725,0.214 0.895,0.553 L 39.618,61 H 45 c 1.054,0 1.919,-0.819 1.995,-1.854 l -3.943,-11.83 1.897,-0.633 4,12 C 48.983,58.786 49,58.893 49,59 c 0,2.206 -1.794,4 -4,4 z"
         inkscape:connector-curvature="0" /></g><g
       id="g3425"><rect
         id="rect3423"
         height="2"
         width="14.346"
         transform="matrix(0.9062,-0.4228,0.4228,0.9062,-12.5138,9.6522)"
         y="32.033001"
         x="8.3269997" /></g><g
       id="g3429"><path
         id="path3427"
         d="M 4.682,47.517 C 2.479,46.564 1,44.347 1,41.999 c 0,-2.386 1.414,-4.544 3.6,-5.5 l 0.8,1.834 C 3.942,38.969 3,40.409 3,41.999 c 0,1.562 0.995,3.042 2.476,3.682 z"
         inkscape:connector-curvature="0" /></g><g
       id="g3433"><path
         id="path3431"
         d="m 35,51 h -6 c -0.107,0 -0.214,-0.017 -0.316,-0.051 l -9,-3 c -0.458,-0.153 -0.742,-0.612 -0.673,-1.09 l 0.795,-5.568 -6.861,1.524 c -0.281,2.053 -1.609,3.84 -3.544,4.686 L 8.6,45.668 C 10.058,45.03 11,43.591 11,42 c 0,-0.469 0.326,-0.875 0.783,-0.976 l 9,-2 c 0.321,-0.071 0.655,0.02 0.896,0.242 0.241,0.223 0.357,0.55 0.31,0.875 L 21.107,46.315 29.162,49 h 5.676 l 8.054,-2.685 -0.882,-6.174 c -0.047,-0.325 0.069,-0.652 0.31,-0.875 0.241,-0.223 0.576,-0.315 0.896,-0.242 l 9,2 C 52.674,41.125 53,41.531 53,42 c 0,1.591 0.942,3.031 2.4,3.667 L 54.6,47.5 c -1.935,-0.845 -3.264,-2.633 -3.544,-4.686 l -6.861,-1.524 0.795,5.568 c 0.068,0.479 -0.215,0.938 -0.673,1.09 l -9,3 C 35.214,50.983 35.107,51 35,51 Z"
         inkscape:connector-curvature="0" /></g><g
       id="g3437"><path
         id="path3435"
         d="M 59.413,47.475 58.588,45.653 C 60.031,44.999 61,43.531 61,41.999 61,40.388 60.041,38.941 58.556,38.313 l 0.779,-1.842 c 2.226,0.942 3.665,3.112 3.665,5.528 0,2.339 -1.408,4.488 -3.587,5.476 z"
         inkscape:connector-curvature="0" /></g><g
       id="g3441"><rect
         id="rect3439"
         height="14.346"
         width="2"
         transform="matrix(0.4229,-0.9062,0.9062,0.4229,-1.9447,63.0132)"
         y="25.860001"
         x="47.5" /></g><g
       id="g3445"><rect
         id="rect3443"
         height="9.4870005"
         width="2"
         transform="matrix(0.3162,-0.9487,0.9487,0.3162,-35.6346,59.5596)"
         y="49.757"
         x="22.5" /></g><g
       id="g3449"><rect
         id="rect3447"
         height="10.198"
         width="2"
         transform="matrix(0.1961,-0.9806,0.9806,0.1961,-39.1882,68.198)"
         y="52.901001"
         x="21" /></g><g
       id="g3453"><rect
         id="rect3451"
         height="2"
         width="9.4870005"
         transform="matrix(0.9486,-0.3164,0.3164,0.9486,-15.1621,15.6126)"
         y="53.5"
         x="35.757" /></g><g
       id="g3457"><rect
         id="rect3455"
         height="2"
         width="10.198"
         transform="matrix(0.9805,-0.1963,0.1963,0.9805,-10.5684,9.3733)"
         y="57"
         x="36.901001" /></g><g
       id="g3461"><rect
         id="rect3459"
         height="9.0550003"
         width="2"
         transform="matrix(0.9939,-0.1104,0.1104,0.9939,-3.9237,2.1558)"
         y="31.972"
         x="16.5" /></g><g
       id="g3465"><rect
         id="rect3463"
         height="7.6160002"
         width="2"
         transform="matrix(0.9191,-0.3939,0.3939,0.9191,-14.0744,8.4308)"
         y="34.692001"
         x="12.5" /></g><g
       id="g3469"><rect
         id="rect3467"
         height="2"
         width="9.0550003"
         transform="matrix(0.1104,-0.9939,0.9939,0.1104,5.0905,78.6871)"
         y="35.5"
         x="41.972" /></g><g
       id="g3473"><rect
         id="rect3471"
         height="2"
         width="7.6160002"
         transform="matrix(0.3941,-0.9191,0.9191,0.3941,-4.786,69.7403)"
         y="37.5"
         x="46.692001" /></g><g
       id="g3477"><path
         id="path3475"
         d="M 9,51 H 5 C 4.448,51 4,50.552 4,50 V 34 c 0,-0.552 0.448,-1 1,-1 h 4 c 0.552,0 1,0.448 1,1 v 16 c 0,0.552 -0.448,1 -1,1 z M 6,49 H 8 V 35 H 6 Z"
         inkscape:connector-curvature="0" /></g><g
       id="g3481"><path
         id="path3479"
         d="M 9,19 H 5 C 4.448,19 4,18.552 4,18 V 2 C 4,1.448 4.448,1 5,1 h 4 c 0.552,0 1,0.448 1,1 v 16 c 0,0.552 -0.448,1 -1,1 z M 6,17 H 8 V 3 H 6 Z"
         inkscape:connector-curvature="0" /></g><g
       id="g3485"><path
         id="path3483"
         d="m 59,51 h -4 c -0.552,0 -1,-0.448 -1,-1 V 34 c 0,-0.552 0.448,-1 1,-1 h 4 c 0.552,0 1,0.448 1,1 v 16 c 0,0.552 -0.448,1 -1,1 z m -3,-2 h 2 V 35 h -2 z"
         inkscape:connector-curvature="0" /></g><g
       id="g3489"><rect
         id="rect3487"
         height="2"
         width="4"
         y="37"
         x="5" /></g><g
       id="g3493"><rect
         id="rect3491"
         height="2"
         width="4"
         y="13"
         x="5" /></g><g
       id="g3497"><path
         id="path3495"
         d="M 7.707,34.707 6.293,33.293 8.261,31.325 C 8.737,30.848 9,30.214 9,29.54 9,28.452 8.307,27.489 7.274,27.145 L 6.093,26.751 C 4.243,26.135 3,24.411 3,22.46 3,21.252 3.471,20.115 4.325,19.261 l 1.968,-1.968 1.414,1.414 -1.968,1.968 C 5.263,21.152 5,21.786 5,22.46 c 0,1.088 0.693,2.051 1.726,2.395 l 1.181,0.394 c 1.85,0.616 3.093,2.34 3.093,4.291 0,1.208 -0.471,2.345 -1.325,3.199 z"
         inkscape:connector-curvature="0" /></g><g
       id="g3501"><path
         id="path3499"
         d="M 56.293,34.707 54.325,32.739 C 53.471,31.885 53,30.749 53,29.54 c 0,-1.951 1.243,-3.675 3.094,-4.292 l 1.18,-0.394 C 58.307,24.511 59,23.548 59,22.46 59,21.786 58.737,21.152 58.261,20.675 l -1.968,-1.968 1.414,-1.414 1.968,1.968 c 0.854,0.854 1.325,1.99 1.325,3.199 0,1.951 -1.243,3.675 -3.094,4.292 l -1.18,0.394 C 55.693,27.489 55,28.452 55,29.54 c 0,0.674 0.263,1.308 0.739,1.785 l 1.968,1.968 z"
         inkscape:connector-curvature="0" /></g><g
       id="g3505"><path
         id="path3503"
         d="m 59,19 h -4 c -0.552,0 -1,-0.448 -1,-1 V 2 c 0,-0.552 0.448,-1 1,-1 h 4 c 0.552,0 1,0.448 1,1 v 16 c 0,0.552 -0.448,1 -1,1 z m -3,-2 h 2 V 3 h -2 z"
         inkscape:connector-curvature="0" /></g><g
       id="g3509"><rect
         id="rect3507"
         height="2"
         width="4"
         y="37"
         x="55" /></g><g
       id="g3513"><rect
         id="rect3511"
         height="2"
         width="4"
         y="13"
         x="55" /></g><g
       id="g3517"><path
         id="path3515"
         d="M 18.293,50.707 18.222,50.636 C 16.144,48.558 15,45.796 15,42.858 V 41 h 2 v 1.858 c 0,2.404 0.936,4.664 2.636,6.364 l 0.071,0.071 z"
         inkscape:connector-curvature="0" /></g><g
       id="g3521"><path
         id="path3519"
         d="m 45.707,50.707 -1.414,-1.414 0.071,-0.071 C 46.064,47.522 47,45.262 47,42.858 V 41 h 2 v 1.858 c 0,2.938 -1.144,5.7 -3.222,7.778 z"
         inkscape:connector-curvature="0" /></g></g></svg>