<?xml version="1.0" encoding="UTF-8" standalone="no"?>
<!-- Generator: Adobe Illustrator 21.0.2, SVG Export Plug-In . SVG Version: 6.00 Build 0)  -->

<svg
   xmlns:dc="http://purl.org/dc/elements/1.1/"
   xmlns:cc="http://creativecommons.org/ns#"
   xmlns:rdf="http://www.w3.org/1999/02/22-rdf-syntax-ns#"
   xmlns:svg="http://www.w3.org/2000/svg"
   xmlns="http://www.w3.org/2000/svg"
   xmlns:sodipodi="http://sodipodi.sourceforge.net/DTD/sodipodi-0.dtd"
   xmlns:inkscape="http://www.inkscape.org/namespaces/inkscape"
   version="1.1"
   x="0px"
   y="0px"
   viewBox="0 0 110.979 128.417"
   enable-background="new 0 0 110.979 128.417"
   xml:space="preserve"
   id="svg415"
   sodipodi:docname="90_9.svg"
   inkscape:version="0.92.2 5c3e80d, 2017-08-06"><metadata
     id="metadata421"><rdf:RDF><cc:Work
         rdf:about=""><dc:format>image/svg+xml</dc:format><dc:type
           rdf:resource="http://purl.org/dc/dcmitype/StillImage" /><dc:title></dc:title></cc:Work></rdf:RDF></metadata><defs
     id="defs419" /><sodipodi:namedview
     pagecolor="#ffffff"
     bordercolor="#666666"
     borderopacity="1"
     objecttolerance="10"
     gridtolerance="10"
     guidetolerance="10"
     inkscape:pageopacity="0"
     inkscape:pageshadow="2"
     inkscape:window-width="1440"
     inkscape:window-height="808"
     id="namedview417"
     showgrid="false"
     inkscape:zoom="4.8415195"
     inkscape:cx="58.765771"
     inkscape:cy="64.182275"
     inkscape:window-x="0"
     inkscape:window-y="1"
     inkscape:window-maximized="1"
     inkscape:current-layer="svg415"
     showguides="true"
     inkscape:guide-bbox="true" /><g
     id="g5"
     transform="translate(0.15372898,0.37381641)"
     style="fill:#8697ad;fill-opacity:1;stroke:#000000;stroke-opacity:1;stroke-width:1.8;stroke-miterlimit:4;stroke-dasharray:none"><polygon
       style="fill:#8697ad;fill-opacity:1;stroke:#000000;stroke-opacity:1;stroke-width:1.8;stroke-miterlimit:4;stroke-dasharray:none"
       id="polygon3"
       points="55.556,127.881 0.417,96.047 0.417,32.377 55.556,0.542 110.696,32.377 110.696,96.046 " /></g><g
     id="Layer_1" /><g
     id="g13"
     enable-background="new    "
     transform="translate(0.15372898,0.37381641)"
     style="fill:#000000;fill-opacity:1"><path
       style="fill:#000000;fill-opacity:1"
       inkscape:connector-curvature="0"
       id="path11"
       d="M 55.555,10.618 9.073,37.416 V 91.01 L 55.555,117.805 102.04,91.01 V 37.416 Z M 100.158,89.93 55.555,115.646 10.951,89.93 V 38.506 L 55.555,12.79 100.158,38.506 Z" /></g><g
     id="g9"
     transform="translate(0.15372898,0.37381641)"
     style="fill:#000000;fill-opacity:0.29523811"><polygon
       style="fill:#000000;fill-opacity:0.29523811"
       id="polygon7"
       points="55.422,116.822 10.109,90.66 10.109,38.337 55.422,12.175 100.736,38.337 100.736,90.66 " /></g><g
     id="border" /><g
     id="g6263"
     transform="matrix(0.04851667,0,0,0.04165631,44.135969,68.925307)" /><g
     id="g6265"
     transform="matrix(0.04851667,0,0,0.04165631,44.135969,68.925307)" /><g
     id="g6267"
     transform="matrix(0.04851667,0,0,0.04165631,44.135969,68.925307)" /><g
     id="g6269"
     transform="matrix(0.04851667,0,0,0.04165631,44.135969,68.925307)" /><g
     id="g6271"
     transform="matrix(0.04851667,0,0,0.04165631,44.135969,68.925307)" /><g
     id="g6273"
     transform="matrix(0.04851667,0,0,0.04165631,44.135969,68.925307)" /><g
     id="g6275"
     transform="matrix(0.04851667,0,0,0.04165631,44.135969,68.925307)" /><g
     id="g6277"
     transform="matrix(0.04851667,0,0,0.04165631,44.135969,68.925307)" /><g
     id="g6279"
     transform="matrix(0.04851667,0,0,0.04165631,44.135969,68.925307)" /><g
     id="g6281"
     transform="matrix(0.04851667,0,0,0.04165631,44.135969,68.925307)" /><g
     id="g6283"
     transform="matrix(0.04851667,0,0,0.04165631,44.135969,68.925307)" /><g
     id="g6285"
     transform="matrix(0.04851667,0,0,0.04165631,44.135969,68.925307)" /><g
     id="g6287"
     transform="matrix(0.04851667,0,0,0.04165631,44.135969,68.925307)" /><g
     id="g6289"
     transform="matrix(0.04851667,0,0,0.04165631,44.135969,68.925307)" /><g
     id="g6291"
     transform="matrix(0.04851667,0,0,0.04165631,44.135969,68.925307)" /><g
     data-name="Filled outline"
     id="Filled_outline"
     transform="matrix(1.1031724,0,0,1.1031724,20.259555,28.725639)"><rect
       id="rect7732"
       style="fill:#6b809b"
       height="22"
       width="30"
       y="11"
       x="17" /><rect
       id="rect7734"
       style="fill:#113142"
       height="20"
       width="34"
       y="41"
       x="15" /><rect
       id="rect7736"
       style="fill:#e8e8e8"
       height="8"
       width="34"
       y="33"
       x="15" /><rect
       id="rect7738"
       style="fill:#113142"
       height="8"
       width="34"
       y="3"
       x="15" /><rect
       id="rect7740"
       style="fill:#bfbfbf"
       height="14"
       width="22"
       y="15"
       x="21" /><rect
       id="rect7742"
       style="fill:#ffffff"
       transform="rotate(-45,28.499496,25.500122)"
       height="2"
       width="9.8990002"
       y="24.5"
       x="23.549999" /><rect
       id="rect7744"
       style="fill:#ffffff"
       transform="rotate(-45,34.50025,25.499528)"
       height="2"
       width="9.8990002"
       y="24.5"
       x="29.549999" /><rect
       id="rect7746"
       style="fill:#bfbfbf"
       height="2"
       width="6"
       y="6"
       x="29" /><rect
       id="rect7748"
       style="fill:#bfbfbf"
       height="2"
       width="2"
       y="6"
       x="25" /><rect
       id="rect7750"
       style="fill:#bfbfbf"
       height="2"
       width="2"
       y="6"
       x="37" /><rect
       id="rect7752"
       style="fill:#98a1a1"
       height="10"
       width="18"
       y="45"
       x="23" /><rect
       id="rect7754"
       height="4"
       width="2"
       y="48"
       x="26" /><rect
       id="rect7756"
       style="fill:#113142"
       height="2"
       width="2"
       y="49"
       x="36" /><rect
       id="rect7758"
       style="fill:#e8e8e8"
       height="10"
       width="8"
       y="45"
       x="23" /><path
       id="path7760"
       style="fill:#7d8d9c"
       d="m 54,51 h -5 v -2 h 5 a 1,1 0 0 0 1,-1 v -4 a 3,3 0 0 1 3,-3 h 4 v 2 h -4 a 1,1 0 0 0 -1,1 v 4 a 3,3 0 0 1 -3,3 z"
       inkscape:connector-curvature="0" /><rect
       id="rect7762"
       style="fill:#6b809b"
       height="4"
       width="2"
       y="37"
       x="25" /><rect
       id="rect7764"
       style="fill:#6b809b"
       height="4"
       width="4"
       y="37"
       x="33" /><rect
       id="rect7766"
       style="fill:#98a1a1"
       height="4"
       width="4"
       y="37"
       x="37" /><circle
       id="circle7768"
       style="fill:#dd3e46"
       r="4"
       cy="34"
       cx="26" /><path
       id="path7770"
       d="M 44,14 H 20 V 30 H 44 Z M 42,28 H 33.414 L 38.707,22.707 37.293,21.293 30.586,28 H 27.414 L 32.707,22.707 31.293,21.293 24.586,28 H 22 V 16 h 20 z"
       inkscape:connector-curvature="0" /><rect
       id="rect7772"
       height="2"
       width="6"
       y="6"
       x="29" /><rect
       id="rect7774"
       height="2"
       width="2"
       y="6"
       x="25" /><rect
       id="rect7776"
       height="2"
       width="2"
       y="6"
       x="37" /><rect
       id="rect7778"
       height="4"
       width="2"
       y="48"
       x="26" /><rect
       id="rect7780"
       height="2"
       width="2"
       y="49"
       x="36" /><path
       id="path7782"
       d="M 22,44 V 56 H 42 V 44 Z m 8,10 h -6 v -8 h 6 z m 10,0 h -8 v -8 h 8 z"
       inkscape:connector-curvature="0" /><path
       id="path7784"
       d="m 55,44 v 4 c 0,0.552285 -0.447715,1 -1,1 H 50 V 32 H 48 V 12 h 2 V 2 H 14 v 10 h 2 V 32 H 14 V 62 H 50 V 51 h 4 c 1.656854,0 3,-1.343146 3,-3 v -4 c 0,-0.552285 0.447715,-1 1,-1 H 72.877719 V 41 H 58 c -1.656854,0 -3,1.343146 -3,3 z M 16,4 h 32 v 6 H 16 Z m 10,26 c -1.422598,0.0045 -2.735024,0.766648 -3.444,2 H 18 V 12 H 46 V 32 H 29.444 C 28.735024,30.766648 27.422598,30.004496 26,30 Z m 2,4 c 0,1.781934 -2.154277,2.674006 -3.414142,1.414142 C 23.325994,34.154277 24.218066,32 26,32 c 1.104569,0 2,0.895431 2,2 z m -12,0 h 6 c 0.0068,1.818412 1.239315,3.403407 3,3.858 V 40 H 16 Z M 48,60 H 16 V 42 H 48 Z M 34,40 v -2 h 2 v 2 z m 4,0 v -2 h 2 v 2 z m 10,0 H 42 V 36 H 32 v 4 H 27 V 37.858 C 28.760685,37.403407 29.993185,35.818412 30,34 h 18 z"
       inkscape:connector-curvature="0"
       sodipodi:nodetypes="sssccccccccccccccssssccsscccccccccccccssssccccccccccccccccccccccccccccccc" /></g></svg>