<svg version="1.1" id="Layer_1" x="0px" y="0px" viewBox="0 0 512 512" xml:space="preserve" width="110.86" height="128">
  <g>
    <path d="M485.291,129.408l-224-128c-3.285-1.877-7.296-1.877-10.581,0l-224,128c-3.328,1.899-5.376,5.44-5.376,9.259v234.667    c0,3.819,2.048,7.36,5.376,9.259l224,128c1.643,0.939,3.456,1.408,5.291,1.408s3.648-0.469,5.291-1.408l224-128    c3.328-1.899,5.376-5.44,5.376-9.259V138.667C490.667,134.848,488.619,131.307,485.291,129.408z" fill="#e69851"/>
  </g>
  <g transform="matrix(0.785678 0 0 0.785678 54.8663 54.8663)">
    <path d="M 512 256 C 512 397.386719 397.386719 512 256 512 C 114.613281 512 0 397.386719 0 256 C 0 114.613281 114.613281 0 256 0 C 397.386719 0 512 114.613281 512 256 Z M 512 256 " style="fill:#F4D706"/>
    <path d="M 258.570312 511.96875 C 398.609375 510.585938 511.734375 396.789062 511.992188 256.484375 L 322.847656 67.339844 L 189.152344 116.003906 L 275.847656 202.699219 L 159.3125 412.707031 Z M 258.570312 511.96875 " style="fill:#D6BD09"/>
    <path d="M 305.726562 189.53125 L 305.726562 75.359375 L 206.273438 75.359375 L 206.273438 189.53125 C 155.550781 209.40625 119.632812 258.78125 119.632812 316.546875 C 119.632812 391.859375 180.683594 452.914062 256 452.914062 C 331.316406 452.914062 392.367188 391.859375 392.367188 316.546875 C 392.367188 258.78125 356.449219 209.40625 305.726562 189.53125 Z M 305.726562 189.53125 " style=" stroke:none;fill-rule:nonzero;fill:rgb(100%,100%,100%);fill-opacity:1;"/>
    <path d="M 305.726562 189.53125 L 305.726562 75.359375 L 255.605469 75.359375 L 255.605469 452.910156 C 255.738281 452.910156 255.867188 452.914062 256 452.914062 C 331.316406 452.914062 392.367188 391.859375 392.367188 316.546875 C 392.367188 258.78125 356.449219 209.40625 305.726562 189.53125 Z M 305.726562 189.53125 " style=" stroke:none;fill-rule:nonzero;fill:rgb(94.901961%,96.470588%,98.823529%);fill-opacity:1;"/>
    <path d="M 324.554688 295.582031 C 308.285156 299.066406 292.019531 294.421875 275.753906 289.773438 C 237.191406 277.773438 199.890625 260.105469 161.0625 253.976562 C 148.390625 272.460938 140.96875 294.828125 140.96875 318.929688 C 140.96875 382.460938 192.46875 433.960938 256 433.960938 C 319.53125 433.960938 371.03125 382.460938 371.03125 318.929688 C 371.03125 301.929688 367.335938 285.796875 360.714844 271.277344 C 350.570312 282.101562 340.128906 292.195312 324.554688 295.582031 Z M 324.554688 295.582031 " style="fill:#22D140"/>
    <path d="M 360.714844 271.277344 C 350.570312 282.101562 340.128906 292.195312 324.554688 295.582031 C 308.289062 299.066406 292.019531 294.417969 275.753906 289.769531 C 269.003906 287.671875 262.292969 285.394531 255.605469 283.039062 L 255.605469 433.957031 C 255.738281 433.957031 255.867188 433.960938 256 433.960938 C 319.53125 433.960938 371.03125 382.460938 371.03125 318.929688 C 371.03125 301.929688 367.335938 285.796875 360.714844 271.277344 Z M 360.714844 271.277344 " style="fill:#21B869"/>
    <path d="M 189.152344 67.339844 L 322.847656 67.339844 L 322.847656 116.003906 L 189.152344 116.003906 Z M 189.152344 67.339844 " style=" stroke:none;fill-rule:nonzero;fill:rgb(88.235294%,88.235294%,90.196078%);fill-opacity:1;"/>
    <path d="M 255.605469 67.339844 L 322.847656 67.339844 L 322.847656 116.003906 L 255.605469 116.003906 Z M 255.605469 67.339844 " style=" stroke:none;fill-rule:nonzero;fill:rgb(82.352941%,82.352941%,84.313725%);fill-opacity:1;"/>
    <path d="M 239.96875 321.484375 C 239.96875 333.902344 229.902344 343.96875 217.484375 343.96875 C 205.066406 343.96875 195 333.902344 195 321.484375 C 195 309.066406 205.066406 299 217.484375 299 C 229.902344 299 239.96875 309.066406 239.96875 321.484375 Z M 239.96875 321.484375 " style=" stroke:none;fill-rule:nonzero;fill:rgb(10.980392%,90.980392%,47.058824%);fill-opacity:1;"/>
    <path d="M 305.675781 241.652344 C 305.675781 254.070312 295.609375 264.140625 283.191406 264.140625 C 270.773438 264.140625 260.707031 254.070312 260.707031 241.652344 C 260.707031 229.234375 270.773438 219.167969 283.191406 219.167969 C 295.609375 219.167969 305.675781 229.234375 305.675781 241.652344 Z M 305.675781 241.652344 " style="fill:#00E065"/>
    <path d="M 302.382812 381.296875 C 302.382812 391.894531 293.792969 400.488281 283.191406 400.488281 C 272.59375 400.488281 264 391.894531 264 381.296875 C 264 370.695312 272.59375 362.101562 283.191406 362.101562 C 293.792969 362.101562 302.382812 370.695312 302.382812 381.296875 Z M 302.382812 381.296875 " style="fill:#00E065"/>
    <path d="M 250 157.226562 C 250 165.296875 243.457031 171.839844 235.390625 171.839844 C 227.320312 171.839844 220.777344 165.296875 220.777344 157.226562 C 220.777344 149.15625 227.320312 142.617188 235.390625 142.617188 C 243.457031 142.617188 250 149.15625 250 157.226562 Z M 250 157.226562 " style=" stroke:none;fill-rule:nonzero;fill:rgb(10.980392%,90.980392%,47.058824%);fill-opacity:1;"/>
  </g>
</svg>