<svg enable-background="new 8.125 -8.542 111.375 127.875" height="127.875" viewBox="8.125 -8.542 111.375 127.875" width="111.375" xmlns="http://www.w3.org/2000/svg"><path d="m119.587 87.45-55.58 31.87-55.58-31.87v-63.74l55.58-31.87 55.58 31.87z" fill="#20a091"/><path d="m64.022 2.921 46.016 26.441v52.915l-10.397 5.996-.22.12-.109.06-.112.059-1.084.618-1.905 1.095-.099.059-1.004.578-4.011 2.302-2.005 1.153-2.006 1.157-.863.498-.14.08-4.01 2.301-3.01 1.732-.361.21-1.644.944-1.371.787-1.175.679-2.467 1.414-2.007 1.154-.952.548-.05.031-1.004.567-.449.259-.553.319-3.008 1.732-.372-.208-3.558-2.052-2.719-1.565-.14-.079-2.256-1.295-.009-.009-.462-.259-.231-.129-3.16-1.814v-.009l-5.142-2.957-1.746-.997-.26-.149-1.003-.578-24.959-14.352v-52.915z" fill="#29cc91"/><path d="m114.125 74.308v-15.999c-1.273.846-2.613 1.601-3.858 2.319-5.001 2.881-11.62 2.425-17.168 3.532-12.635 2.521-26.032-.831-38.524-2.976-11.736-2.017-23.817-2.96-35.716-1.978-2.797.23-5.392 1.003-7.608 2.278v11.392c.932.67 1.908 1.286 2.91 1.868-.018.303.061.625.286.947 1.194 1.721 2.408 3.423 3.635 5.11-.063.228-.105.462-.136.697-.359.014-.707.128-.993.337-.01-.003-.018-.007-.026-.01-.001.002-.001.004-.002.006-.132-.058-.262-.122-.397-.177-1.761-.713-3.036 2.344-1.293 3.086 1.183.504 2.318 1.074 3.429 1.688 1.045.612 2.047 1.294 3.039 1.996.035.048.07.098.103.146 2.621-1.822 5.621-3.188 8.12-3.887 8.164-2.285 17-2.618 25.295-.77 9.885 2.203 19.134 4.448 29.346 4.832 4.612.174 10.305-.197 14.38-2.716 2.664-1.649 7.542-4.862 8.84-7.777.849-1.902 3.071-1.246 3.821.248.093-.402.176-.808.238-1.226.113-.757.106-1.48.011-2.162.768-.235 1.526-.504 2.268-.804zm-39.347 8.743c0 1.229-1.02 2.249-2.237 2.249s-2.236-1.021-2.236-2.249v-.141c0-1.227 1.019-2.251 2.236-2.251s2.237 1.024 2.237 2.251zm25.444.114c-3.113 1.583-6.327 2.696-9.803 3.129-3.646.447-7.107-.031-10.749-.007-2.884.02-2.884-4.483 0-4.502 6.068-.038 11.311.507 16.908-1.867.261-.347.66-.613 1.226-.727.232-.048.465-.094.698-.14 2.362-.475 4.103 2.904 1.72 4.114z" fill="#20a091"/><path d="m99.474 91.251c-8.331 2.415-16.529 1.796-25.063.804-9.511-1.109-18.515-5.194-28.174-5.059-6.342.09-16.376 1.072-21.708 6.194.84.511 1.679 1.027 2.518 1.546.446.276.903.524 1.354.786 5.924-3.501 14.599-4.863 20.545-3.212 2.778.77 1.596 5.115-1.19 4.343-3.903-1.084-9.806-.44-14.472 1.461 5.504 2.669 11.199 4.831 16.583 7.842.938.524 1.659 1.161 2.198 1.863 10.447-.317 9.315 2.847 19.769 2.598 2.997-2.333 17.531-8.038 20.613-10.278 1.559-1.133 3.188-2.226 4.92-3.051 2.642-3.559 5.637-6.582 10.031-7.377 1.302-2.074 2.749-4.056 3.955-6.167-3.122 3.503-8.221 6.645-11.879 7.707zm-45.534 6.605c-2.884 0-2.884-4.503 0-4.503 2.886.001 2.886 4.503 0 4.503z" fill="#20a091"/><path d="m105 60h-.201c.006 1 0 2-.021 2h-.633c.006 1 0 3-.021 3h-.531c.008 1 .008 2-.013 2h-.58v1.23c0 .264-.123 1.492-.326 1.701-1.191 1.313-3.027 2.127-4.561 2.971-2.57 1.406-4.896 1.313-7.721 1.598-2.414.245-4.916 1.057-7.354.885-2.759-.191-5.586-1.021-8.353-.885-2.185.105-4.318.146-6.496.086-2.739-.072-5.49.212-8.205.146l-.423-.728-3.036-5.278-.328-1.103c1.149.134 2.341.377 3.534-.623h-3.586l-2.654-4.086-.138.027-.623-.947-.518-.838-.445-.738-1.691-2.928-.36-1.043c1.717-.052 3.198-.447 4.673-.447h50.611z" fill="#ef9f2b"/><path d="m51.774 45.073c-.02-.026.013-.052.026-.079-.007.027-.013.053-.026.079z" fill="#fffefd"/><path d="m80.641 40.678c0 .013.024.046.065.092-.021 0-.041.006-.065.006z" fill="#fffefd"/><path d="m81.891 52.182c.008-.139.008-.356.014-.614.027-.205.015-.403 0-.595.008-.099-.032-.198-.032-.297.086-.317.119-.858.21-1.479 0 .039-.13.085-.13.138v-.35c.655-.877.655-1.861 0-2.541v-.409c0 .045.039.092.063.139-.024-.152.008-.285-.078-.377.047-.594-.014-1.215-.039-1.815.117-.719.105-2.93-.104-3.102-.164-.138-.472-.158-1.087-.112 0 .006.007.014.02.027-.584.078-1.305.263-2.024.468-2.603-.073-5.252.416-7.847.35-2.127-.061-4.252-.012-6.375.04 0-.588-.004-1.06-.02-1.06-.6-.007-1.191-.042-1.789.031-.227.029-.448.07-.668.114-.889-.251-1.777-.428-2.728-.457-.724-.021-1.723-.18-2.462.083-.486-.015-.967-.019-1.426-.019l-.099.171-.655 1.105-1.947 3.343h-.007l-1.192 2.122-.089.177-.17.314-.007.012-.852 1.488-.052.093-1.03 1.79-1.35 2.343-.138.244 1.141 1.98.21.362c1.036.298 2.32.324 3.067.39 3.277.297 7.394.502 10.612-.145 3.213-.646 6.343-.839 9.452.271 1.58.566 3.677-.119 5.295-.219 1.39-.086 3.211.125 4.426-.606.13-.08.148-3.162-.008-3.3-.032-.033-.064-.065-.105-.098z" fill="#fff"/><path d="m68.928 34.478c.069-.908.152-2.725-.045-2.832-.074-.041-.171-.072-.275-.099-.004-.035-.006-.072-.012-.107-.078-.451-.31-.423-.697-.289-.365.128-.383.633-.387.95-.017.917-.018 1.837.004 2.754-.16.279-.268 1.345-.268 1.616 0 .039-.248.129-.248.238v.102c0-.018 0-.024 0-.051v.396c0 .03-.012.056-.012.087-.008.787.012 1.951.012 2.759v.057c0-.012.256-.022.258-.035.02.068.162.138.189.2-.043-.099.029-.258.059-.438.01-.022.053-.043.063-.064.004.129-.551.212-.543.212.178-.004-.026.009-.026.043v-.016c0 .007.791.002.898.016 0 0 .287-.053.289-.124.109-.013.36-.027.471-.041.016-.002-.344-.09-.336-.229.021.01-.322.019-.322.023v-1.295c0-.183.458-.323.458-.355 0-.179.312-.902.284-1.336.016-.684.217-1.634.186-2.142z" fill="#ef9f2b"/><path d="m70.896 36.063c.127-.121.274-.221.444-.287.042-.023.081-.044.122-.068.104-.061.203-.125.309-.183.23-.125.449-.257.668-.4.211-.138.451-.189.689-.179-.005-.362-.02-.798-.033-1.209-.172-.063-.332-.159-.471-.292-.029-.027-.047-.045-.061-.06-.105-.071-.215-.142-.326-.201-.026-.014-.053-.025-.079-.038-.011-.004-.019-.006-.034-.012-.079-.022-.152-.039-.232-.05-.27-.039-.488-.193-.65-.402-.241.114-.502.188-.768.251-.004-.212.028-.374.004-.38-.338-.082-.981-.004-.981-.041v1.272c0 .854-.235 1.853-.144 2.027.082.155.144.22.144.253v.366c.532-.139.976-.229 1.399-.367z" fill="#0c754a"/><path d="m70.115 46.14c-1.391.031-2.985.964-3.1 2.373-.043.121-.086.241-.106.365-.239 1.435.894 2.621 2.209 2.952 1.649.414 2.866-.783 3.247-2.309.416-1.672-.374-3.423-2.25-3.381z" fill="#00b1ff"/><path d="m59.277 48.278c-.111-.753-.616-1.319-1.194-1.756-.767-.58-1.787-.406-2.59-.049-.728.322-1.373.73-1.557 1.508-.327.538-.477 1.183-.355 1.858.291 1.623 2.526 2.154 3.871 1.914 1.548-.277 2.02-2.157 1.825-3.475z" fill="#00b1ff"/><path d="m60.081 45.117c-.37-1.042-1.864-.782-1.954.103-1.301 2.19-2.908 4.364-4.482 6.35-.783.986.6 2.397 1.391 1.399 1.18-1.489 2.219-3.087 3.349-4.614.478-.647 2.024-2.312 1.696-3.238z" fill="#fff"/><path d="m70.287 45.087c-.617 1.36-1.289 2.731-2.086 3.993-.733 1.161-1.544 2.178-2.068 3.462-.482 1.18 1.42 1.689 1.895.526.509-1.241 1.416-2.269 2.127-3.392.707-1.122 1.283-2.383 1.83-3.59.523-1.152-1.172-2.159-1.698-.999z" fill="#fff"/><path d="m105.43 58.182c-.041.295-.087.594-.146.877.007.094 0 .178-.021.275-.053.252-.111.495-.178.732-.033 1.301-.684 2.777-1.152 3.631-.072.139-.164.238-.275.316-.465 1.393-.949 2.719-1.592 3.926-1.148 2.529-2.643 4.832-5.198 6.271-.407.226-.886.146-1.187-.146-1.103.601-2.309.817-3.586.356-.17-.06-.309-.118-.418-.231-.35.396-.709 1.045-1.084 1.428-.758.759-1.853.383-1.65-.617h-29.003l-.38-1.012-1.514-2.988h33.544c.23-1 .439-1 .656-2h-34.96l-.761-.797-.328-.84-.052-.363h37.229c.56-1 1.056-2 1.534-2h-40.277l-1.14-2h42.282c.582-2 1.127-3 1.658-5h-46.594l-.761-.906-.36-.845-.02-.249h48.496c.479 0 1.555-.092 1.763.527.093.02.166.346.235.386l.238-.134c.377-.377 1.01-.322 1.387.054.1.101.174.243.22.362.522.048 1.032.199 1.506.43.445-1.207 2.059-.68 1.889.557z" fill="#c17816"/><path d="m82.718 52.01c-.04.732-.11 1.398-.269 2.079.006.106-.008.21-.041.323-.07.225-.15.442-.223.66-.183.555-.615.752-1.028.693-.235.21-.558.315-.892.21-.033-.013-.065-.039-.1-.052-.216.112-.464.132-.721.066-.008-.006-.014-.153-.021-.16-.153.217-.402.171-.75.171h-29.35l-.171-.205-.21-.418-.76-1.377h29.818v-13c0-1 2-1 2 0v.048c0-.04.588.185.721.674.223-.021.258-.027.436-.008.326-.785 1.626-.916 1.771.073.117.799-.044 1.412-.313 1.834-.053.389-.112.786-.133 1.188 0 .245-.017.502-.029.765-.014.312-.146.542-.326.7.374 1.564.266 3.254.169 4.943.261.166.434.43.422.793z" fill="#ccc"/><path d="m22 60h-.158c-.006 1 0 2 .02 2h.636c-.006 1 0 3 .021 3h.53c-.007 1-.007 2 .013 2h.938v1.23c0 .264-.057 1.492.148 1.701 1.192 1.313 2.937 2.127 4.47 2.971 2.569 1.406 4.851 1.313 7.676 1.598 2.412.245 4.893 1.057 7.331.885 2.76-.191 5.577-1.021 8.343-.885 2.183.105 4.312.146 6.488.086 2.74-.072 5.489.212 8.203.146l.421-.728 3.033-5.278.328-1.103c-1.145.134-2.337.377-3.53-.623h3.585l2.654-4.086.137.027.624-.947.519-.838.445-.738 1.689-2.928.36-1.043c-1.715-.052-3.197-.447-4.671-.447h-50.253z" fill="#ef9f2b"/><path d="m74.869 45.073c.02-.026-.014-.052-.027-.079.008.027.013.053.027.079z" fill="#fffefd"/><path d="m46.001 40.678c0 .013-.025.046-.065.092.021 0 .04.006.065.006z" fill="#fffefd"/><path d="m44.645 52.28c-.157.139-.137 3.221-.007 3.3 1.213.732 3.035.521 4.425.607 1.619.099 3.716.785 5.296.217 3.107-1.108 6.239-.917 9.45-.271 3.22.646 7.335.44 10.612.146.748-.066 2.032-.092 3.067-.391l.209-.362 1.142-1.98-.137-.244-1.351-2.343-1.031-1.79-.051-.093-.853-1.488-.008-.012-.169-.314-.086-.174-1.192-2.122h-.008l-1.946-3.343-.654-1.105-.099-.171c-.46 0-.94.004-1.427.019-.739-.263-1.737-.104-2.462-.083-.949.028-1.839.206-2.728.457-.221-.043-.443-.085-.668-.114-.597-.073-1.189-.038-1.789-.031-.014 0-.02.472-.02 1.06-2.125-.052-4.249-.101-6.376-.04-2.595.066-5.243-.423-7.846-.35-.72-.205-1.442-.39-2.024-.468.013-.014.019-.021.019-.027-.616-.046-.923-.026-1.087.112-.21.171-.224 2.383-.105 3.102-.026.6-.084 1.221-.04 1.815-.085.092-.052.225-.079.377.027-.047.066-.093.066-.139v.409c-.655.68-.655 1.663 0 2.541v.35c0-.053-.131-.099-.131-.138.092.62.125 1.161.21 1.479 0 .099-.039.198-.032.297-.013.191-.027.39 0 .595.006.257.006.475.012.614-.037.031-.069.063-.102.096z" fill="#fff"/><path d="m56.526 46.14c1.391.031 2.984.964 3.099 2.373.043.121.086.241.107.365.24 1.435-.894 2.621-2.209 2.952-1.649.414-2.867-.783-3.247-2.309-.416-1.672.374-3.423 2.25-3.381z" fill="#00b1ff"/><path d="m67.363 48.278c.111-.753.617-1.319 1.193-1.756.769-.58 1.789-.406 2.592-.049.728.322 1.373.73 1.557 1.508.326.538.477 1.183.355 1.858-.291 1.623-2.525 2.154-3.871 1.914-1.548-.277-2.02-2.157-1.826-3.475z" fill="#00b1ff"/><path d="m66.561 45.117c.371-1.042 1.864-.782 1.955.103 1.299 2.19 2.907 4.364 4.481 6.35.782.986-.599 2.397-1.392 1.399-1.182-1.489-2.219-3.087-3.35-4.614-.478-.647-2.025-2.312-1.694-3.238z" fill="#fff"/><path d="m56.355 45.087c.617 1.36 1.289 2.731 2.085 3.993.733 1.161 1.545 2.178 2.069 3.462.483 1.18-1.42 1.689-1.895.526-.508-1.241-1.417-2.269-2.126-3.392-.708-1.122-1.284-2.383-1.832-3.59-.522-1.152 1.173-2.159 1.699-.999z" fill="#fff"/><path d="m36.233 71.529h-9.546c.829 1.053 1.828 1.973 3.087 2.681.405.226.884.146 1.186-.146 1.102.601 2.307.817 3.585.356.171-.06.308-.118.42-.231.347.396.708.879 1.081 1.262.76.759 1.855-.126 1.652-.786h29.002l.382-.66 1.514-2.64h-31.722c-.177.102-.388.164-.641.164z" fill="#c17816"/><path d="m35.66 63.445c.353.683.75 1.345 1.184 1.98h35.166l1.143-1.98z" fill="#c17816"/><path d="m38.966 68.064c.667.709 1.366 1.359 2.084 1.98h28.306l.761-1.318.325-.568.055-.094z" fill="#c17816"/><path d="m34.217 56.848c-.029.664-.026 1.328.023 1.979h41.565l.76-1.32.361-.627.02-.032z" fill="#c17816"/><path d="m43.924 52.01c.04.732.112 1.398.269 2.079-.006.106.007.21.04.323.072.225.15.442.223.66.183.555.616.752 1.029.693.235.21.557.315.891.21.033-.013.065-.039.099-.052.215.112.465.132.72.066.007-.006.013-.153.02-.16.157.217.406.171.753.171h29.351l.17-.205.211-.418.759-1.377h-29.459v-13c0-1-2-1-2 0v.048c0-.04-.768.185-.899.674-.223-.021-.347-.027-.523-.008-.329-.785-1.672-.916-1.816.073-.119.799.019 1.412.288 1.834.052.389.101.786.122 1.188 0 .245.011.502.024.765.013.312.147.542.325.7-.375 1.564-.269 3.254-.17 4.943-.264.166-.44.43-.427.793z" fill="#ccc"/><g fill="#050535"><path d="m94.986 75.461c-.15.111-.195.379-.432.379l-33.854-.188-1.141-2.006 34.869.217c1.076-.002 1.241 1.121.558 1.598z"/><path d="m94.021 75.848c8.619.137 13.131-12.093 12.998-19.248-.022-1.274-1.99-1.277-1.967 0 .112 6.025-3.627 17.385-11.031 17.27-1.269-.02-1.267 1.957 0 1.978z"/><path d="m105.546 57h-55.47l-1.134-2h34.975 21.629c.185 0 .343.303.474.375.006-.006.006-.127.006-.121.805.409.647 1.746-.48 1.746z"/><path d="m84 56s0-9 0-14c0-1-2-1-2 0v14c0 1 2 1 2 0 0 0 0 1 0 0z"/><path d="m87 42h-32.369l1.133-2h14.388 16.848c1 0 1 2 0 2z"/><path d="m67.749 41.536c-.651 0-1.749-.651-1.749-1.518v-8.018c0-2 3-2 3 0v9h.378c-.221 0-1.146.536-1.629.536zm-.249-10.097c-.303 0-.5.173-.5.66v7.919c0 .487.197.66.5.66.305 0 .5-.173.5-.66v-7.919c0-.487-.195-.66-.5-.66z"/><path d="m69.34 36.619c1.663-.534 3.275-1.296 4.834-2.093.528-.271.064-1.085-.462-.815-1.489.762-3.026 1.486-4.614 1.998-.563.181-.323 1.092.242.91z"/><path d="m69.12 32.621c1.604.313 3.183.995 4.553 1.59.521.226 1.011-.301.496-.525-1.446-.627-3.092-1.321-4.787-1.651-.607-.118-.864.469-.262.586z"/><path d="m69.662 52.393c-1.854 0-3.359-1.518-3.359-3.383s1.506-3.382 3.359-3.382c1.852 0 3.357 1.517 3.357 3.382.001 1.865-1.505 3.383-3.357 3.383zm0-6.105c-1.492 0-2.705 1.221-2.705 2.722s1.213 2.723 2.705 2.723c1.488 0 2.703-1.221 2.703-2.723 0-1.501-1.215-2.722-2.703-2.722z"/><path d="m56.552 52.393c-1.852 0-3.359-1.518-3.359-3.383s1.507-3.382 3.359-3.382c1.853 0 3.359 1.517 3.359 3.382s-1.507 3.383-3.359 3.383zm0-6.105c-1.491 0-2.704 1.221-2.704 2.722s1.213 2.723 2.704 2.723 2.704-1.221 2.704-2.723c0-1.501-1.214-2.722-2.704-2.722z"/><path d="m102.234 67.969c-.027.006-.594.031-.621.031h-45.088l-.38-1h45.468c.183 0 1.15.021 1.23.094.203.177-.198.849-.609.875z"/><path d="m105 63h-51.509l-.38-1h51.073.816c1 0 1 1 0 1z"/><path d="m31.655 75.461c.15.111.384.387.62.387l33.665-.195 1.144-2.006-34.964.213c-1.076-.003-1.147 1.124-.465 1.601z"/><path d="m32.62 75.848c-8.619.137-13.132-12.093-13-19.248.024-1.274 1.99-1.277 1.966 0-.111 6.025 3.628 17.385 11.033 17.27 1.27-.02 1.268 1.957.001 1.978z"/><path d="m21.095 57h55.469l1.136-2h-34.975c-11.995 0-21.63 0-21.63 0-.184 0-.34.303-.472.375-.007-.006-.007-.127-.007-.121-.805.409-.649 1.746.479 1.746z"/><path d="m43 56s0-9 0-14c0-1 2-1 2 0v14c0 1-2 1-2 0 0 0 0 1 0 0z"/><path d="m40 42h32.01l-1.133-2h-14.388c-8.619 0-16.489 0-16.489 0-1 0-1 2 0 2z"/><path d="m56.981 52.393c-1.853 0-3.36-1.518-3.36-3.383s1.507-3.382 3.36-3.382c1.852 0 3.359 1.517 3.359 3.382s-1.507 3.383-3.359 3.383zm0-6.105c-1.491 0-2.705 1.221-2.705 2.722s1.213 2.723 2.705 2.723c1.49 0 2.704-1.221 2.704-2.723 0-1.501-1.214-2.722-2.704-2.722z"/><path d="m70.089 52.393c-1.853 0-3.358-1.518-3.358-3.383s1.508-3.382 3.358-3.382c1.854 0 3.358 1.517 3.358 3.382s-1.506 3.383-3.358 3.383zm0-6.105c-1.489 0-2.702 1.221-2.702 2.722s1.213 2.723 2.702 2.723c1.491 0 2.704-1.221 2.704-2.723 0-1.501-1.213-2.722-2.704-2.722z"/><path d="m24.141 68.016c.026.005.86-.016.887-.016h45.088l.38-1c-19.205 0-45.468 0-45.468 0-.184 0-1.247.037-1.325.109-.203.178.025.881.438.907z"/><path d="m22 63h51.15l.379-1h-51.071c-.458 0-.458 0-.458 0-1 0-1 1 0 1z"/></g><path d="m18.344 29.383v52.935l45.933 26.467 45.934-26.467v-52.936l-45.935-26.467zm90.007 1.078v50.791l-44.074 25.401-44.077-25.401v-50.791l44.076-25.401z" opacity=".13"/></svg>