<svg enable-background="new 0 0 110.979 128.417" height="128.417" viewBox="0 0 110.979 128.417" width="110.979" xmlns="http://www.w3.org/2000/svg" xmlns:xlink="http://www.w3.org/1999/xlink"><radialGradient id="a" cx="55.25" cy="63.542" gradientUnits="userSpaceOnUse" r="32.6255"><stop offset=".1237" stop-color="#945538"/><stop offset=".3329" stop-color="#915236" stop-opacity=".7612"/><stop offset=".5069" stop-color="#864930" stop-opacity=".5627"/><stop offset=".6681" stop-color="#753926" stop-opacity=".3787"/><stop offset=".8217" stop-color="#5d2317" stop-opacity=".2034"/><stop offset=".9687" stop-color="#3e0705" stop-opacity=".0358"/><stop offset="1" stop-color="#360000" stop-opacity="0"/></radialGradient><path d="m110.849 96.417-55.426 32-55.423-32v-64l55.423-32 55.426 32z" fill="#604943"/><path d="m101.926 38.143v53.131l-.009.01-1.42.819-6.281 3.62-2.719 1.57-.241.121-.13.059-.11.061-3.03 1.74-1.869 1.079-.04.03-3.25 1.88-.87.511-1.38.79-1.46.85-.181.099-.019.011-1.71.989-.96.551-4.621 2.67-.629.369-.061.03-3.5 2.021-4.04 2.33-.01.01-.429.25-7.081 4.089-7.57-4.379-.04-.021-2.069-1.199-5.361-3.101-.69-.399-5.09-2.941-.389-.229-.491-.28-.33-.191-1.849-1.069-.571-.33-1.71-.99-2.509-1.451-2.911-1.679-.089-.05-4.67-2.7-2.111-1.221-7.5-4.329v-53.131l14.33-8.279 1.991-1.151 4.929-2.839 1.58-.911.17-.099 1.66-.95 1.161-.67 1.54-.901.519-.3 2.28-1.309.69-.401 1.46-.839 5.721-3.3.46-.261 6.069-3.51 1.44-.83 1.06.611 6.49 3.75 14.53 8.389 1.04.601 2.3 1.319.87.5 1.52.88 1.37.79.801.46.09.051 1.809 1.04 3.78 2.189.04.021v.01l.26.149.66.381 1.46.84 1.941 1.12.779.449.441.25 1.939 1.12z" fill="#2b2927"/><path d="m54.208 103.958h4.345l31.322-20.042-.313-38.645-34.041-21.563-33.49 21.274-.072 39.226 31.936 19.813c.097-.03.193-.063.313-.063z" fill="#1c1713"/><circle cx="55.25" cy="63.542" fill="url(#a)" r="32.625"/><circle cx="21.334" cy="63.875" fill="#544439" r="7.916"/><circle cx="89.496" cy="63.769" fill="#544439" r="7.916"/><path d="m43.52 92.041h23.126v12.251h-23.126z" fill="#544439"/><path d="m43.52 24.124h23.126v12.251h-23.126z" fill="#544439"/><g fill="none" stroke-miterlimit="10" stroke-width=".5"><path d="m43.52 92.041h23.126v12.251h-23.126z" stroke="#afa194"/><path d="m43.52 24.041h23.126v12.251h-23.126z" stroke="#afa194"/><circle cx="89.613" cy="63.946" r="8.041" stroke="#afa194"/><circle cx="21.375" cy="63.917" r="8.041" stroke="#afa194"/><path d="m66.75 98.875 23.125-14.958" stroke="#e2d5af"/><path d="m101.771 91.042h-23.104" stroke="#e2d5af"/><path d="m89.917 72.208v18.75" stroke="#e2d5af"/><path d="m89.75 84.208-17.417-6.583" stroke="#e2d5af"/><path d="m54.896 91.875v-7.25" stroke="#e2d5af"/><path d="m66.437 30.313 23.125 14.959" stroke="#e2d5af"/><path d="m101.396 38.147h-23.041" stroke="#e2d5af"/><path d="m89.605 55.75v-17.52" stroke="#e2d5af"/><path d="m89.437 44.98-17.416 6.583" stroke="#e2d5af"/><path d="m43.49 98.005-21.845-14.172" stroke="#e2d5af"/><path d="m10.271 90.958h22.582" stroke="#e2d5af"/><path d="m21.603 72.125v18.75" stroke="#e2d5af"/><path d="m21.77 84.125 17.417-6.583" stroke="#e2d5af"/><path d="m56.5 91.855v-7.25" stroke="#e2d5af"/><path d="m43.396 31.349-21.438 13.84" stroke="#e2d5af"/><path d="m10.583 38.064h22.582" stroke="#e2d5af"/><path d="m21.915 55.667v-17.52" stroke="#e2d5af"/><path d="m22.083 44.897 17.417 6.583" stroke="#e2d5af"/></g><path d="m69.913 103.689-.05-1.01.848-.547.899.461.051 1.009-.849.548z" fill="#e0a477"/><path d="m73.246 101.689-.05-1.01.848-.547.899.461.051 1.009-.849.548z" fill="#e0a477"/><path d="m76.579 99.689-.05-1.01.848-.547.899.461.051 1.009-.849.548z" fill="#e0a477"/><path d="m79.912 97.689-.05-1.01.848-.547.899.461.051 1.009-.849.548z" fill="#e0a477"/><path d="m83.245 95.689-.05-1.01.848-.547.899.461.051 1.009-.849.548z" fill="#e0a477"/><path d="m85.027 35.605.05-1.009-.849-.547-.898.461-.051 1.009.848.547z" fill="#e0a477"/><path d="m81.694 33.605.05-1.009-.849-.547-.898.461-.051 1.009.848.547z" fill="#e0a477"/><path d="m78.361 31.605.05-1.009-.849-.547-.898.461-.051 1.009.848.547z" fill="#e0a477"/><path d="m75.028 29.605.05-1.009-.849-.547-.898.461-.051 1.009.848.547z" fill="#e0a477"/><path d="m71.695 27.605.05-1.009-.849-.547-.898.461-.051 1.009.848.547z" fill="#e0a477"/><path d="m40.089 103.251.05-1.009-.848-.547-.899.461-.051 1.009.849.547z" fill="#e0a477"/><path d="m36.756 101.251.05-1.009-.848-.547-.899.461-.051 1.009.849.547z" fill="#e0a477"/><path d="m33.423 99.251.05-1.009-.848-.547-.899.461-.051 1.009.849.547z" fill="#e0a477"/><path d="m30.09 97.251.05-1.009-.848-.547-.899.461-.051 1.009.849.547z" fill="#e0a477"/><path d="m26.757 95.251.05-1.009-.849-.547-.898.461-.051 1.009.849.547z" fill="#e0a477"/><path d="m24.975 35.168-.05-1.01.849-.547.898.461.051 1.009-.848.548z" fill="#e0a477"/><path d="m28.308 33.168-.05-1.01.849-.547.898.461.051 1.009-.848.548z" fill="#e0a477"/><path d="m31.641 31.168-.05-1.01.849-.547.898.461.051 1.009-.848.548z" fill="#e0a477"/><path d="m34.974 29.168-.05-1.01.849-.547.898.461.051 1.009-.848.548z" fill="#e0a477"/><path d="m38.307 27.168-.05-1.01.849-.547.898.461.051 1.009-.848.548z" fill="#e0a477"/><path d="m53.772 111.043-.123-2.476 2.083-1.344 2.205 1.132.124 2.476-2.083 1.343z" fill="#b26347"/><path d="m53.772 20.21-.123-2.476 2.083-1.344 2.205 1.132.124 2.476-2.083 1.343z" fill="#b26347"/><path d="m55.663 35.783 6.256 19.256h20.248l-16.38 11.902 6.255 19.256-16.379-11.901-16.381 11.901 6.257-19.256-16.38-11.902h20.247z" fill="#e0a477"/><circle cx="55.688" cy="64.141" fill="#544439" r="19.688"/><circle cx="55.771" cy="64.208" fill="none" r="21.063" stroke="#afa194" stroke-miterlimit="10" stroke-width=".5"/><path d="m52.396 72.271h4.938v4.688h-4.938z" fill="#afa194"/><path d="m64.715 69.561-3.618-6.268 3.618-6.265h7.237l3.618 6.265-3.618 6.268z" fill="#e0a477"/><path d="m39.882 69.561-3.618-6.268 3.618-6.265h7.236l3.618 6.265-3.618 6.268z" fill="#e0a477"/><path d="m73.881 45.216h-36.18c-2.489 0-4.506 2.017-4.506 4.508v24.349c0 2.491 2.017 4.507 4.506 4.507h14.035v3.226h-3.959c-.532 0-.965.162-.965.362v3.581c0 .199.433.359.965.359h16.029c.533 0 .965-.16.965-.359v-3.581c0-.2-.432-.362-.965-.362h-3.959v-3.226h14.034c2.488 0 4.509-2.016 4.509-4.507v-24.349c0-2.491-2.02-4.508-4.509-4.508z" fill="#d1bcaa" stroke="#544439" stroke-miterlimit="10"/><path clip-rule="evenodd" d="m50.619 70.949c-.506.512-1.055 1.065-1.604 1.616-.285.287-.389.288-.677.003-.949-.946-1.895-1.893-2.84-2.842-.299-.302-.297-.393.012-.701.553-.545 1.108-1.09 1.6-1.574-.327-.835-.635-1.594-.915-2.363-.069-.188-.173-.188-.32-.188-.714.003-1.428.003-2.141 0-.35 0-.446-.094-.447-.451-.002-1.361-.002-2.722.001-4.083.002-.368.097-.455.476-.456.702-.002 1.405-.002 2.107 0 .145 0 .252.002.321-.187.282-.771.59-1.53.912-2.349-.471-.468-.998-.993-1.526-1.516-.396-.395-.398-.459-.011-.846.923-.925 1.847-1.848 2.771-2.77.288-.288.388-.286.676.003.551.55 1.099 1.103 1.603 1.61.824-.321 1.609-.619 2.384-.938.077-.031.147-.175.149-.27.012-.702.003-1.404.005-2.107.001-.42.082-.502.497-.502 1.339-.002 2.678-.001 4.016 0 .39 0 .477.086.479.489.002.778 0 1.556 0 2.294.85.354 1.665.693 2.522 1.049.516-.521 1.071-1.08 1.63-1.637.267-.267.392-.269.657-.001.956.952 1.91 1.907 2.861 2.864.281.283.277.389-.015.677-.553.549-1.105 1.097-1.604 1.59.324.835.622 1.621.94 2.4.029.072.18.134.272.136.704.011 1.406.005 2.109.008.413.001.494.082.495.504 0 1.339 0 2.678-.001 4.019 0 .376-.089.467-.464.467-.714.003-1.426.004-2.141 0-.158-.003-.242.028-.307.204-.277.758-.581 1.508-.917 2.367.358.344.79.758 1.223 1.174.158.153.308.314.467.463.192.181.195.354.011.538-1.001.999-2.003 2-3.003 3.003-.207.21-.379.137-.558-.047-.562-.571-1.126-1.138-1.638-1.652-.826.324-1.603.621-2.37.937-.082.034-.16.188-.164.287-.014.701-.007 1.403-.008 2.104-.002.406-.081.49-.479.492-1.349.001-2.699.001-4.048 0-.374-.002-.461-.094-.463-.472-.003-.713-.006-1.427.001-2.14.001-.168-.046-.239-.213-.301-.754-.276-1.504-.583-2.323-.905zm5.016-2.614c3.264.011 5.947-2.646 5.958-5.895.011-3.267-2.643-5.954-5.891-5.966-3.301-.015-5.98 2.639-5.992 5.931-.011 3.244 2.663 5.921 5.925 5.93z" fill="#231d19" fill-rule="evenodd"/><path d="m49.02 96.076v4.092h.474v.518h-1.033v-5.124h1.033v.515h-.474z" fill="#e0a477"/><path d="m51.955 97.409v.73c-.125-.153-.238-.259-.337-.315-.098-.059-.212-.088-.344-.088-.207 0-.378.072-.515.218-.137.145-.205.326-.205.544 0 .223.066.406.198.55.133.143.304.215.51.215.132 0 .248-.029.349-.086.098-.056.212-.163.344-.322v.725c-.223.116-.446.174-.669.174-.368 0-.675-.119-.923-.356-.248-.239-.371-.536-.371-.892 0-.354.125-.654.376-.898s.558-.365.923-.365c.234-.002.455.053.664.166z" fill="#e0a477"/><path d="m52.375 98.478c0-.344.123-.636.369-.876.246-.241.545-.361.898-.361.355 0 .656.121.903.363.244.242.366.54.366.894 0 .356-.123.655-.369.896-.248.24-.551.359-.911.359-.356 0-.655-.122-.896-.366-.24-.242-.36-.545-.36-.909zm.561.01c0 .237.063.426.19.563.13.141.302.211.515.211.215 0 .387-.069.515-.208s.193-.323.193-.554-.064-.416-.193-.555c-.13-.14-.302-.21-.515-.21-.21 0-.38.07-.51.21s-.195.321-.195.543z" fill="#e0a477"/><path d="m57.246 95.561h.551v4.123h-.551v-.249c-.217.212-.462.317-.735.317-.325 0-.596-.119-.811-.356-.213-.242-.32-.545-.32-.908 0-.354.106-.651.32-.889.211-.239.478-.358.798-.358.279 0 .527.113.748.342zm-1.305 2.927c0 .228.061.413.183.557.125.145.283.218.474.218.204 0 .368-.07.493-.211.125-.145.188-.328.188-.551 0-.224-.063-.407-.188-.553-.125-.141-.288-.212-.488-.212-.189 0-.347.071-.474.215-.125.144-.188.324-.188.537z" fill="#e0a477"/><path d="m60.656 98.625h-1.704c.015.195.078.351.19.466.113.114.256.172.432.172.137 0 .25-.033.34-.098.088-.065.188-.186.301-.361l.463.258c-.07.123-.146.228-.227.314s-.166.158-.256.215c-.092.056-.189.097-.295.123-.107.026-.221.039-.346.039-.354 0-.639-.114-.854-.342-.215-.229-.322-.534-.322-.913 0-.376.104-.681.313-.913.209-.229.488-.344.834-.344.35 0 .627.111.83.334.203.222.303.528.303.92zm-.565-.45c-.076-.293-.26-.439-.553-.439-.068 0-.131.01-.189.03s-.111.05-.16.088c-.047.038-.088.084-.123.139-.033.053-.06.114-.078.183h1.103z" fill="#e0a477"/><path d="m61.65 100.167v-4.092h-.477v-.515h1.033v5.124h-1.033v-.518h.477z" fill="#e0a477"/><path d="m49.02 28.138v4.092h.474v.518h-1.033v-5.124h1.033v.515h-.474z" fill="#e0a477"/><path d="m51.955 29.471v.73c-.125-.153-.238-.259-.337-.315-.098-.059-.212-.088-.344-.088-.207 0-.378.072-.515.218-.137.145-.205.326-.205.544 0 .223.066.406.198.55.133.143.304.215.51.215.132 0 .248-.029.349-.086.098-.056.212-.163.344-.322v.725c-.223.116-.446.174-.669.174-.368 0-.675-.119-.923-.356-.248-.239-.371-.536-.371-.892 0-.354.125-.654.376-.898s.558-.365.923-.365c.234-.002.455.054.664.166z" fill="#e0a477"/><path d="m52.375 30.541c0-.344.123-.636.369-.876.246-.241.545-.361.898-.361.355 0 .656.121.903.363.244.242.366.54.366.894 0 .356-.123.655-.369.896-.248.24-.551.359-.911.359-.356 0-.655-.122-.896-.366-.24-.242-.36-.545-.36-.909zm.561.009c0 .237.063.426.19.563.13.141.302.211.515.211.215 0 .387-.069.515-.208s.193-.323.193-.554-.064-.416-.193-.555c-.13-.14-.302-.21-.515-.21-.21 0-.38.07-.51.21s-.195.322-.195.543z" fill="#e0a477"/><path d="m57.246 27.624h.551v4.123h-.551v-.249c-.217.212-.462.317-.735.317-.325 0-.596-.119-.811-.356-.213-.242-.32-.545-.32-.908 0-.354.106-.651.32-.889.211-.239.478-.358.798-.358.279 0 .527.113.748.342zm-1.305 2.926c0 .228.061.413.183.557.125.145.283.218.474.218.204 0 .368-.07.493-.211.125-.145.188-.328.188-.551 0-.224-.063-.407-.188-.553-.125-.141-.288-.212-.488-.212-.189 0-.347.071-.474.215-.125.145-.188.324-.188.537z" fill="#e0a477"/><path d="m60.656 30.687h-1.704c.015.195.078.351.19.466.113.114.256.172.432.172.137 0 .25-.033.34-.098.088-.065.188-.186.301-.361l.463.258c-.07.123-.146.228-.227.314s-.166.158-.256.215c-.092.056-.189.097-.295.123-.107.026-.221.039-.346.039-.354 0-.639-.114-.854-.342-.215-.229-.322-.534-.322-.913 0-.376.104-.681.313-.913.209-.229.488-.344.834-.344.35 0 .627.111.83.334.203.222.303.528.303.92zm-.565-.449c-.076-.293-.26-.439-.553-.439-.068 0-.131.01-.189.03s-.111.05-.16.088c-.047.038-.088.084-.123.139-.033.053-.06.114-.078.183h1.103z" fill="#e0a477"/><path d="m61.65 32.23v-4.092h-.477v-.515h1.033v5.124h-1.033v-.517z" fill="#e0a477"/><path d="m46.575 55.602 2.665-2.235-.516-.645-2.493 2.407" fill="#724f3f"/><path d="m53.945 51.309 3.476.139.052-.824-3.464.104" fill="#724f3f"/><path d="m44.587 64.034.209-3.472-.822-.069.034 3.465" fill="#724f3f"/><path d="m62.217 53.345 2.361 2.555.617-.546-2.523-2.375" fill="#724f3f"/><path d="m46.085 69.292 2.36 2.554.618-.546-2.522-2.374" fill="#724f3f"/><path d="m54.046 73.882 3.474.154.056-.823-3.463.089" fill="#724f3f"/><path d="m62.631 71.85 2.515-2.403-.555-.607-2.332 2.56" fill="#724f3f"/><path d="m67.115 63.994.061-3.478-.82-.033.177 3.458" fill="#724f3f"/><circle cx="55.789" cy="62.377" fill="none" r="7.909" stroke="#724f3f" stroke-miterlimit="10" stroke-width=".75"/><path clip-rule="evenodd" d="m21.389 58.811c.705 0 1.41.016 2.115-.004.604-.018 1.027.218 1.326.746.707 1.246 1.431 2.482 2.152 3.719.299.512.311 1.014.009 1.532-.72 1.238-1.435 2.479-2.144 3.724-.31.544-.771.793-1.391.791-1.41-.007-2.82-.003-4.23 0-.596.001-1.025-.255-1.321-.776-.708-1.245-1.42-2.489-2.15-3.722-.323-.547-.299-1.047.021-1.586.719-1.211 1.418-2.434 2.114-3.66.294-.518.703-.785 1.314-.767.727.02 1.456.004 2.185.003zm-.011 2.286c-1.706-.003-2.976 1.267-2.97 2.971.005 1.65 1.293 2.938 2.942 2.941 1.689.005 2.98-1.293 2.967-2.983-.011-1.677-1.265-2.926-2.939-2.929z" fill="#d1bcaa" fill-rule="evenodd"/><path clip-rule="evenodd" d="m89.513 58.811c.705 0 1.41.016 2.115-.004.604-.018 1.027.218 1.326.746.707 1.246 1.431 2.482 2.152 3.719.299.512.311 1.014.008 1.532-.72 1.238-1.434 2.479-2.144 3.724-.31.544-.771.793-1.391.791-1.41-.007-2.82-.003-4.229 0-.596.001-1.025-.255-1.322-.776-.707-1.245-1.42-2.489-2.149-3.722-.323-.547-.299-1.047.021-1.586.719-1.211 1.418-2.434 2.114-3.66.294-.518.702-.785 1.314-.767.728.02 1.457.004 2.185.003zm-.01 2.286c-1.705-.003-2.976 1.267-2.971 2.971.006 1.65 1.293 2.938 2.943 2.941 1.689.005 2.979-1.293 2.967-2.983-.011-1.677-1.265-2.926-2.939-2.929z" fill="#d1bcaa" fill-rule="evenodd"/><path d="m55.021 36.583v7.98" fill="none" stroke="#e2d5af" stroke-miterlimit="10" stroke-width=".5"/><path d="m56.5 36.5v7.98" fill="none" stroke="#e2d5af" stroke-miterlimit="10" stroke-width=".5"/><path d="m9.826 38.141v53.121l46.072 26.559 46.074-26.559v-53.121l-46.074-26.561zm90.281 1.08v50.971l-44.209 25.489-44.211-25.489v-50.971l44.211-25.489z" opacity=".13"/></svg>