<svg height="129" viewBox="0 0 113 129" width="113" xmlns="http://www.w3.org/2000/svg" xmlns:xlink="http://www.w3.org/1999/xlink"><defs><path id="a" d="m92.8 25.9 1 53.1-45.6 27.3-10.5-5.7-.3-.2v-.1l-.2-.1-1-.6-1.6-.8-.4-.3h-.1l-1-.5-4.1-2.3-.5-.3-1.1-.6-.3-.2-2.1-1.1-.9-.5-.1-.1-4.1-2.2-3-1.7-.3-.3-1.7-.8-1.4-.8-1.1-.6-2.6-1.4-2-1.2-1-.5-1-.5-.4-.4-.6-.2-3-1.7-.1-.4v-4.1l-.1-3.1v-.2-2.6-.6l-.1-.3-.1-3.6.1-.1-.1-5.9-.1-1.9.1-.3-.1-1.2-.4-28.8 45.5-27.4z"/><linearGradient id="b"><stop offset="0" stop-color="#f7b900"/><stop offset=".44" stop-color="#f7b700"/><stop offset=".67" stop-color="#f7af00"/><stop offset=".86" stop-color="#f7a100"/><stop offset=".98" stop-color="#f79c00"/></linearGradient><linearGradient id="c" x1="13.212052%" x2="87.672706%" xlink:href="#b" y1="75.920708%" y2="24.573736%"/><linearGradient id="d" x1="12.981464%" x2="87.37298%" xlink:href="#b" y1="75.385647%" y2="24.556986%"/><linearGradient id="e" x1="12.939976%" x2="87.400629%" xlink:href="#b" y1="75.169713%" y2="23.822741%"/><linearGradient id="f" x1="-4.291054%" x2="117.541246%" xlink:href="#b" y1="69.504745%" y2="19.188804%"/><linearGradient id="g" x1="12.688057%" x2="87.684382%" xlink:href="#b" y1="75.544139%" y2="24.244843%"/><linearGradient id="h" x1="-2.840566%" x2="114.81537%" xlink:href="#b" y1="70.182218%" y2="20.02062%"/><linearGradient id="i" x1="12.761395%" x2="87.152911%" xlink:href="#b" y1="75.183343%" y2="23.884046%"/><linearGradient id="j" x1="-2.19009%" x2="115.827864%" xlink:href="#b" y1="69.537109%" y2="19.852533%"/><linearGradient id="k" x1="13.133984%" x2="87.5255%" xlink:href="#b" y1="74.908222%" y2="23.608926%"/><linearGradient id="l" x1="12.503194%" x2="86.963847%" xlink:href="#b" y1="75.473352%" y2="24.12638%"/><linearGradient id="m" x1="12.68869%" x2="87.149343%" xlink:href="#b" y1="75.289794%" y2="24.413895%"/><linearGradient id="n" x1="13.31948%" x2="87.710996%" xlink:href="#b" y1="75.421792%" y2="24.122495%"/><linearGradient id="o" x1="-3.505014%" x2="114.512941%" xlink:href="#b" y1="70.40902%" y2="20.724444%"/><linearGradient id="p" x1="-2.660848%" x2="115.357107%" xlink:href="#b" y1="71.274973%" y2="20.80692%"/><linearGradient id="q" x1="-2.495321%" x2="117.658695%" xlink:href="#b" y1="69.177145%" y2="18.833102%"/><linearGradient id="r" x1="-4.820847%" x2="117.011453%" xlink:href="#b" y1="70.837635%" y2="20.521694%"/><linearGradient id="s" x1="12.17194%" x2="86.036908%" xlink:href="#b" y1="75.127362%" y2="24.251463%"/><linearGradient id="t" x1="12.277612%" x2="86.073996%" xlink:href="#b" y1="75.509866%" y2="24.210569%"/><linearGradient id="u" x1="-3.960511%" x2="114.057443%" xlink:href="#b" y1="70.623925%" y2="20.307984%"/><linearGradient id="v" x1="12.790738%" x2="87.251391%" xlink:href="#b" y1="75.314125%" y2="23.967153%"/><linearGradient id="w" x1="12.966399%" x2="87.427052%" xlink:href="#b" y1="75.879255%" y2="24.532282%"/><linearGradient id="x" x1="13.193419%" x2="87.654073%" xlink:href="#b" y1="75.546278%" y2="24.199306%"/><linearGradient id="y" x1="-2.911891%" x2="115.106063%" xlink:href="#b" y1="69.986729%" y2="19.670788%"/><linearGradient id="z" x1="12.638843%" x2="87.030359%" xlink:href="#b" y1="76.021486%" y2="24.72219%"/><linearGradient id="A" x1="-3.276611%" x2="114.379325%" xlink:href="#b" y1="69.053574%" y2="19.521405%"/><linearGradient id="B" x1="12.745367%" x2="87.136883%" xlink:href="#b" y1="75.708366%" y2="24.409069%"/><linearGradient id="C" x1="-2.586313%" x2="115.431641%" xlink:href="#b" y1="70.608671%" y2="20.29273%"/><linearGradient id="D" x1="13.355903%" x2="87.816557%" xlink:href="#b" y1="76.117444%" y2="24.770472%"/><linearGradient id="E" x1="12.693423%" x2="87.154077%" xlink:href="#b" y1="75.625708%" y2="24.278736%"/><linearGradient id="F" x1="-2.853491%" x2="115.164464%" xlink:href="#b" y1="70.312455%" y2="20.62788%"/><linearGradient id="G" x1="-5.401705%" x2="112.616249%" xlink:href="#b" y1="70.766969%" y2="21.082393%"/><linearGradient id="H" x1="13.007097%" x2="87.46775%" xlink:href="#b" y1="75.71287%" y2="24.365898%"/><linearGradient id="I" x1="-2.662609%" x2="117.491407%" xlink:href="#b" y1="71.088074%" y2="20.802876%"/><linearGradient id="J" x1="12.721992%" x2="87.113508%" xlink:href="#b" y1="75.113694%" y2="23.814398%"/><linearGradient id="K" x1="-4.101063%" x2="115.535781%" xlink:href="#b" y1="69.303769%" y2="19.018571%"/><linearGradient id="L" x1="12.828516%" x2="87.220032%" xlink:href="#b" y1="75.7265%" y2="24.427204%"/><linearGradient id="M" x1="-1.412058%" x2="115.731971%" xlink:href="#b" y1="68.038869%" y2="17.90792%"/><linearGradient id="N" x1="13.221867%" x2="87.613383%" xlink:href="#b" y1="75.491069%" y2="24.191773%"/><linearGradient id="O" x1="12.591077%" x2="87.05173%" xlink:href="#b" y1="75.130273%" y2="23.783301%"/><linearGradient id="P" x1="12.755811%" x2="87.216464%" xlink:href="#b" y1="75.604153%" y2="24.257181%"/><linearGradient id="Q" x1="12.580149%" x2="86.971665%" xlink:href="#b" y1="75.039023%" y2="23.739727%"/><linearGradient id="R" x1="-2.816535%" x2="115.201419%" xlink:href="#b" y1="69.192158%" y2="18.876217%"/><linearGradient id="S" x1="-2.000635%" x2="116.017319%" xlink:href="#b" y1="70.487309%" y2="20.171367%"/><linearGradient id="T" x1="-2.157422%" x2="117.996595%" xlink:href="#b" y1="70.913374%" y2="20.569331%"/><linearGradient id="U" x1="-1.483343%" x2="116.534611%" xlink:href="#b" y1="69.634854%" y2="19.950278%"/><linearGradient id="V" x1="12.666657%" x2="87.127311%" xlink:href="#b" y1="75.74994%" y2="24.402968%"/><linearGradient id="W" x1="-4.592057%" x2="115.044787%" xlink:href="#b" y1="70.550542%" y2="20.265344%"/><linearGradient id="X" x1="13.188004%" x2="87.648657%" xlink:href="#b" y1="75.150764%" y2="23.803792%"/><linearGradient id="Y" x1="-2.31513%" x2="117.321714%" xlink:href="#b" y1="68.622417%" y2="18.337219%"/><linearGradient id="Z" x1="12.488077%" x2="86.879593%" xlink:href="#b" y1="75.763569%" y2="24.464273%"/><linearGradient id="aa" x1="-4.00095%" x2="114.017005%" xlink:href="#b" y1="70.707721%" y2="20.39178%"/><linearGradient id="ab" x1="12.90219%" x2="87.293706%" xlink:href="#b" y1="77.20865%" y2="25.429921%"/><linearGradient id="ac" x1="13.077851%" x2="87.538504%" xlink:href="#b" y1="76.132958%" y2="24.785986%"/><linearGradient id="ad" x1="13.221823%" x2="87.682476%" xlink:href="#b" y1="75.641222%" y2="24.29425%"/><linearGradient id="ae" x1="13.046161%" x2="87.437677%" xlink:href="#b" y1="75.076093%" y2="23.776796%"/><linearGradient id="af" x1="-3.58913%" x2="118.24317%" xlink:href="#b" y1="69.348141%" y2="19.0322%"/><linearGradient id="ag" x1="-4.038456%" x2="113.979498%" xlink:href="#b" y1="70.177612%" y2="19.86167%"/><linearGradient id="ah" x1="-2.466091%" x2="115.551863%" xlink:href="#b" y1="70.517121%" y2="20.20118%"/><linearGradient id="ai" x1="-3.266771%" x2="114.751184%" xlink:href="#b" y1="69.625936%" y2="19.94136%"/><linearGradient id="aj" x1="12.297432%" x2="86.758085%" xlink:href="#b" y1="76.061718%" y2="24.714745%"/><linearGradient id="ak" x1="-3.613803%" x2="118.218496%" xlink:href="#b" y1="69.155939%" y2="18.839998%"/><linearGradient id="al" x1="12.818778%" x2="87.210294%" xlink:href="#b" y1="75.462542%" y2="24.163245%"/><linearGradient id="am" x1="-1.849676%" x2="115.80626%" xlink:href="#b" y1="70.22916%" y2="20.067562%"/><linearGradient id="an" x1="12.925302%" x2="87.316819%" xlink:href="#b" y1="76.075347%" y2="24.776051%"/><linearGradient id="ao" x1="-1.427503%" x2="116.590452%" xlink:href="#b" y1="69.31702%" y2="19.632444%"/><linearGradient id="ap" x1="12.49144%" x2="86.882956%" xlink:href="#b" y1="74.874301%" y2="23.575005%"/><linearGradient id="aq" x1="12.667101%" x2="87.127754%" xlink:href="#b" y1="75.439431%" y2="24.092458%"/><linearGradient id="ar" x1="12.873359%" x2="87.334012%" xlink:href="#b" y1="75.99269%" y2="24.645718%"/><linearGradient id="as" x1="12.697698%" x2="87.089214%" xlink:href="#b" y1="76.353486%" y2="25.05419%"/><linearGradient id="at" x1="-2.632341%" x2="115.385613%" xlink:href="#b" y1="69.812129%" y2="19.496188%"/><linearGradient id="au" x1="-1.831662%" x2="116.186293%" xlink:href="#b" y1="71.089292%" y2="20.77335%"/><linearGradient id="av" x1="-3.177875%" x2="118.654425%" xlink:href="#b" y1="68.927778%" y2="18.611837%"/><linearGradient id="aw" x1="-4.004433%" x2="117.827867%" xlink:href="#b" y1="70.648157%" y2="20.332215%"/><linearGradient id="ax" x1="12.731061%" x2="87.191714%" xlink:href="#b" y1="75.567088%" y2="24.220116%"/><linearGradient id="ay" x1="-2.228538%" x2="115.789416%" xlink:href="#b" y1="70.662695%" y2="20.346754%"/><linearGradient id="az" x1="12.445956%" x2="86.906609%" xlink:href="#b" y1="75.893838%" y2="24.546866%"/><linearGradient id="aA" x1="-3.753996%" x2="114.263958%" xlink:href="#b" y1="68.736847%" y2="18.420906%"/><linearGradient id="aB" x1="12.55248%" x2="87.013133%" xlink:href="#b" y1="75.580718%" y2="24.233745%"/><linearGradient id="aC" x1="-3.163629%" x2="114.854326%" xlink:href="#b" y1="70.706818%" y2="20.390877%"/><linearGradient id="aD" x1="12.966593%" x2="87.358109%" xlink:href="#b" y1="75.384977%" y2="24.085681%"/><linearGradient id="aE" x1="13.037116%" x2="86.902084%" xlink:href="#b" y1="75.024181%" y2="23.677208%"/><linearGradient id="aF" x1="12.500536%" x2="86.96119%" xlink:href="#b" y1="76.423986%" y2="25.077014%"/><linearGradient id="aG" x1="13.131327%" x2="87.522843%" xlink:href="#b" y1="75.858857%" y2="24.55956%"/><linearGradient id="aH" x1="-4.446743%" x2="113.571212%" xlink:href="#b" y1="71.413157%" y2="20.945103%"/><linearGradient id="aI" x1="-3.646063%" x2="114.371892%" xlink:href="#b" y1="69.77894%" y2="19.462999%"/><linearGradient id="aJ" x1="-1.682322%" x2="116.335632%" xlink:href="#b" y1="70.581012%" y2="20.265071%"/><linearGradient id="aK" x1="-2.483002%" x2="115.534952%" xlink:href="#b" y1="69.303849%" y2="18.987908%"/><linearGradient id="aL" x1="13.498916%" x2="87.363884%" xlink:href="#b" y1="75.624875%" y2="24.277903%"/><linearGradient id="aM" x1="-2.244998%" x2="115.772957%" xlink:href="#b" y1="70.360542%" y2="20.675967%"/><linearGradient id="aN" x1="12.904851%" x2="87.296367%" xlink:href="#b" y1="75.316532%" y2="24.017236%"/><linearGradient id="aO" x1="-1.388793%" x2="116.267143%" xlink:href="#b" y1="70.211102%" y2="20.678933%"/><linearGradient id="aP" x1="12.550609%" x2="87.011262%" xlink:href="#b" y1="75.690958%" y2="24.343986%"/><linearGradient id="aQ" x1="-3.237165%" x2="114.780789%" xlink:href="#b" y1="71.052416%" y2="20.736475%"/><linearGradient id="aR" x1="12.657133%" x2="87.117786%" xlink:href="#b" y1="76.303764%" y2="24.956792%"/><linearGradient id="aS" x1="-2.268841%" x2="115.387095%" xlink:href="#b" y1="69.877695%" y2="19.716098%"/><linearGradient id="aT" x1="12.967436%" x2="87.428089%" xlink:href="#b" y1="75.909574%" y2="24.562602%"/><linearGradient id="aU" x1="13.143097%" x2="87.60375%" xlink:href="#b" y1="75.548778%" y2="24.201806%"/><linearGradient id="aV" x1="12.60519%" x2="87.065843%" xlink:href="#b" y1="75.52183%" y2="24.645931%"/><linearGradient id="aW" x1="13.23598%" x2="87.696633%" xlink:href="#b" y1="75.655977%" y2="24.309005%"/><linearGradient id="aX" x1="-3.121678%" x2="119.150735%" xlink:href="#b" y1="70.428635%" y2="20.112694%"/><linearGradient id="aY" x1="-3.041849%" x2="114.976105%" xlink:href="#b" y1="69.092303%" y2="19.407727%"/><linearGradient id="aZ" x1="-1.205002%" x2="116.812952%" xlink:href="#b" y1="69.644234%" y2="19.959658%"/><linearGradient id="a0" x1="-1.278625%" x2="120.993788%" xlink:href="#b" y1="70.92464%" y2="20.456587%"/><linearGradient id="a1" x1="13.040343%" x2="87.431859%" xlink:href="#b" y1="75.655764%" y2="24.356468%"/><linearGradient id="a2" x1="-3.994641%" x2="117.837659%" xlink:href="#b" y1="70.854702%" y2="20.538761%"/><linearGradient id="a3" x1="12.686101%" x2="87.146754%" xlink:href="#b" y1="75.104264%" y2="23.757292%"/><linearGradient id="a4" x1="-2.557453%" x2="115.460502%" xlink:href="#b" y1="69.053873%" y2="18.737932%"/><linearGradient id="a5" x1="12.792625%" x2="87.184141%" xlink:href="#b" y1="75.717069%" y2="24.417773%"/><linearGradient id="a6" x1="-1.637648%" x2="116.018288%" xlink:href="#b" y1="70.883392%" y2="20.721794%"/><linearGradient id="a7" x1="12.584825%" x2="87.65085%" xlink:href="#b" y1="75.680088%" y2="24.333116%"/><linearGradient id="a8" x1="12.658996%" x2="87.119649%" xlink:href="#b" y1="75.319292%" y2="23.972319%"/><linearGradient id="a9" x1="12.740682%" x2="87.201335%" xlink:href="#b" y1="75.634412%" y2="24.28744%"/><linearGradient id="ba" x1="12.56502%" x2="87.025673%" xlink:href="#b" y1="75.069282%" y2="23.72231%"/><linearGradient id="bb" x1="-2.278251%" x2="115.739703%" xlink:href="#b" y1="70.019938%" y2="19.703997%"/><linearGradient id="bc" x1="-2.612794%" x2="116.657066%" xlink:href="#b" y1="71.031978%" y2="20.901029%"/><linearGradient id="bd" x1="-4.80093%" x2="112.855006%" xlink:href="#b" y1="70.259046%" y2="20.097448%"/><linearGradient id="be" x1=".872731%" x2="120.926481%" xlink:href="#b" y1="69.607245%" y2="19.922669%"/><linearGradient id="bf" x1="13.087956%" x2="87.479472%" xlink:href="#b" y1="76.016579%" y2="24.717282%"/><linearGradient id="bg" x1="-5.173648%" x2="112.482288%" xlink:href="#b" y1="69.266335%" y2="19.734166%"/><linearGradient id="bh" x1="12.733714%" x2="87.12523%" xlink:href="#b" y1="76.391005%" y2="25.091708%"/><linearGradient id="bi" x1="-2.805771%" x2="115.212184%" xlink:href="#b" y1="70.087933%" y2="19.771992%"/><linearGradient id="bj" x1="12.771101%" x2="87.231754%" xlink:href="#b" y1="76.12556%" y2="24.778588%"/><linearGradient id="bk" x1="-1.993876%" x2="115.66206%" xlink:href="#b" y1="69.310446%" y2="19.778277%"/><linearGradient id="bl" x1="13.102165%" x2="87.562819%" xlink:href="#b" y1="75.77106%" y2="24.424088%"/><linearGradient id="bm" x1="12.492137%" x2="86.95279%" xlink:href="#b" y1="76.37588%" y2="25.028907%"/><linearGradient id="bn" x1="12.698395%" x2="87.159048%" xlink:href="#b" y1="75.077287%" y2="23.730315%"/><linearGradient id="bo" x1="12.522734%" x2="86.983387%" xlink:href="#b" y1="75.663422%" y2="24.787523%"/><linearGradient id="bp" x1="-6.188437%" x2="115.643863%" xlink:href="#b" y1="70.20122%" y2="19.885279%"/><linearGradient id="bq" x1="-2.369769%" x2="115.648185%" xlink:href="#b" y1="71.028721%" y2="20.560668%"/><linearGradient id="br" x1="-3.8504%" x2="114.167554%" xlink:href="#b" y1="69.840558%" y2="19.524617%"/><linearGradient id="bs" x1="-7.174198%" x2="112.893367%" xlink:href="#b" y1="68.318247%" y2="18.898634%"/><linearGradient id="bt" x1="13.97321%" x2="88.364726%" xlink:href="#b" y1="76.212648%" y2="24.913352%"/><linearGradient id="bu" x1="-3.199077%" x2="118.633223%" xlink:href="#b" y1="69.788477%" y2="19.472536%"/><linearGradient id="bv" x1="12.691436%" x2="87.152089%" xlink:href="#b" y1="75.626167%" y2="24.279194%"/><linearGradient id="bw" x1="12.651923%" x2="87.112577%" xlink:href="#b" y1="75.904857%" y2="24.557884%"/><linearGradient id="bx" x1="-2.70243%" x2="115.315524%" xlink:href="#b" y1="68.954712%" y2="19.270136%"/><linearGradient id="by" x1="13.17327%" x2="87.564786%" xlink:href="#b" y1="76.231607%" y2="24.93231%"/><linearGradient id="bz" x1="-4.268428%" x2="113.749526%" xlink:href="#b" y1="70.040383%" y2="20.355807%"/><linearGradient id="bA" x1="12.473343%" x2="86.864859%" xlink:href="#b" y1="74.99256%" y2="23.693264%"/><linearGradient id="bB" x1="-4.774%" x2="114.862844%" xlink:href="#b" y1="69.047592%" y2="18.703549%"/><linearGradient id="bC" x1="12.866694%" x2="87.327347%" xlink:href="#b" y1="75.683056%" y2="24.336083%"/><linearGradient id="bD" x1="13.042355%" x2="87.503008%" xlink:href="#b" y1="76.248185%" y2="24.901213%"/><linearGradient id="bE" x1="12.421399%" x2="86.882052%" xlink:href="#b" y1="75.835829%" y2="24.488857%"/><linearGradient id="bF" x1="13.05219%" x2="87.512843%" xlink:href="#b" y1="76.196625%" y2="24.849653%"/><linearGradient id="bG" x1="-4.902435%" x2="113.115519%" xlink:href="#b" y1="69.928557%" y2="20.243981%"/><linearGradient id="bH" x1="-3.793004%" x2="114.224951%" xlink:href="#b" y1="71.188497%" y2="20.872556%"/><linearGradient id="bI" x1="-2.822921%" x2="115.195033%" xlink:href="#b" y1="70.816174%" y2="20.500233%"/><linearGradient id="bJ" x1="-3.623601%" x2="114.394353%" xlink:href="#b" y1="69.921237%" y2="20.236661%"/><linearGradient id="bK" x1="12.705996%" x2="87.166649%" xlink:href="#b" y1="75.652773%" y2="24.305801%"/><linearGradient id="bL" x1="-2.453277%" x2="115.564677%" xlink:href="#b" y1="70.829586%" y2="20.513645%"/><linearGradient id="bM" x1="12.420891%" x2="86.812407%" xlink:href="#b" y1="75.979523%" y2="24.680227%"/><linearGradient id="bN" x1="-3.320164%" x2="118.512136%" xlink:href="#b" y1="69.044191%" y2="18.72825%"/><linearGradient id="bO" x1="13.261161%" x2="87.652677%" xlink:href="#b" y1="75.544056%" y2="24.244759%"/><linearGradient id="bP" x1="13.0855%" x2="87.477016%" xlink:href="#b" y1="75.904852%" y2="24.605556%"/><linearGradient id="bQ" x1="-4.593162%" x2="113.424792%" xlink:href="#b" y1="71.743473%" y2="21.27542%"/><linearGradient id="bR" x1="-3.994737%" x2="114.023217%" xlink:href="#b" y1="69.799353%" y2="19.483412%"/><linearGradient id="bS" x1="12.552004%" x2="87.012657%" xlink:href="#b" y1="75.776894%" y2="24.429921%"/><linearGradient id="bT" x1="-3.019358%" x2="114.636578%" xlink:href="#b" y1="70.845281%" y2="20.532038%"/><linearGradient id="bU" x1="13.073351%" x2="87.464867%" xlink:href="#b" y1="75.177718%" y2="23.878421%"/><linearGradient id="bV" x1="-4.874253%" x2="113.143701%" xlink:href="#b" y1="69.534894%" y2="19.850318%"/><linearGradient id="bW" x1="12.373423%" x2="86.76494%" xlink:href="#b" y1="75.790523%" y2="24.491227%"/><linearGradient id="bX" x1="-4.316467%" x2="113.701487%" xlink:href="#b" y1="71.044349%" y2="20.576295%"/><linearGradient id="bY" x1="12.746012%" x2="87.206665%" xlink:href="#b" y1="75.515403%" y2="24.168431%"/><linearGradient id="bZ" x1="12.921673%" x2="87.382327%" xlink:href="#b" y1="75.382546%" y2="24.506647%"/><linearGradient id="b0" x1="13.127932%" x2="87.588585%" xlink:href="#b" y1="75.707866%" y2="24.360894%"/><linearGradient id="b1" x1="12.244565%" x2="87.310589%" xlink:href="#b" y1="76.068662%" y2="24.72169%"/><linearGradient id="b2" x1="-1.175404%" x2="116.842551%" xlink:href="#b" y1="69.425064%" y2="19.740488%"/><linearGradient id="b3" x1="-4.57359%" x2="113.444365%" xlink:href="#b" y1="70.324485%" y2="20.008543%"/><linearGradient id="b4" x1="-4.413297%" x2="115.223547%" xlink:href="#b" y1="70.828346%" y2="20.543148%"/><linearGradient id="b5" x1="-3.73151%" x2="114.286444%" xlink:href="#b" y1="69.615582%" y2="19.299641%"/><linearGradient id="b6" x1="13.058367%" x2="87.51902%" xlink:href="#b" y1="75.115069%" y2="23.768097%"/><linearGradient id="b7" x1="-3.873307%" x2="117.958993%" xlink:href="#b" y1="69.073435%" y2="18.757494%"/><linearGradient id="b8" x1="12.704125%" x2="87.164778%" xlink:href="#b" y1="75.489495%" y2="24.142523%"/><linearGradient id="b9" x1="-2.463074%" x2="115.554881%" xlink:href="#b" y1="70.301%" y2="19.985059%"/><linearGradient id="ca" x1="12.810649%" x2="87.271302%" xlink:href="#b" y1="75.176375%" y2="23.829403%"/><linearGradient id="cb" x1="-1.641014%" x2="116.014922%" xlink:href="#b" y1="69.174651%" y2="19.013053%"/><linearGradient id="cc" x1="12.376786%" x2="86.83744%" xlink:href="#b" y1="74.901255%" y2="23.554282%"/><linearGradient id="cd" x1="12.552448%" x2="87.013101%" xlink:href="#b" y1="75.466384%" y2="24.119412%"/><linearGradient id="ce" x1="12.80023%" x2="87.260883%" xlink:href="#b" y1="75.173097%" y2="23.826125%"/><linearGradient id="cf" x1="12.624569%" x2="87.085222%" xlink:href="#b" y1="75.533894%" y2="24.186921%"/><linearGradient id="cg" x1="-4.214844%" x2="115.055016%" xlink:href="#b" y1="69.969536%" y2="19.838587%"/><linearGradient id="ch" x1="-3.332649%" x2="116.304195%" xlink:href="#b" y1="68.332391%" y2="18.047193%"/><linearGradient id="ci" x1="-2.094398%" x2="118.059619%" xlink:href="#b" y1="68.769286%" y2="18.484087%"/><linearGradient id="cj" x1="-2.980406%" x2="116.80504%" xlink:href="#b" y1="70.40643%" y2="20.275481%"/><linearGradient id="ck" x1="12.619125%" x2="87.079778%" xlink:href="#b" y1="75.394125%" y2="24.047153%"/><linearGradient id="cl" x1="-2.690723%" x2="115.327231%" xlink:href="#b" y1="70.249232%" y2="19.933291%"/><linearGradient id="cm" x1="13.140472%" x2="87.531988%" xlink:href="#b" y1="75.720875%" y2="24.421579%"/><linearGradient id="cn" x1="-3.24015%" x2="118.218431%" xlink:href="#b" y1="68.329558%" y2="18.16796%"/><linearGradient id="co" x1="12.440544%" x2="86.901198%" xlink:href="#b" y1="75.407755%" y2="24.060782%"/><linearGradient id="cp" x1="-3.612768%" x2="114.043168%" xlink:href="#b" y1="70.308775%" y2="20.147177%"/><linearGradient id="cq" x1="12.731224%" x2="86.527608%" xlink:href="#b" y1="75.172324%" y2="23.873028%"/><linearGradient id="cr" x1="13.009557%" x2="87.47021%" xlink:href="#b" y1="75.737454%" y2="24.390482%"/><linearGradient id="cs" x1="13.195052%" x2="87.655706%" xlink:href="#b" y1="75.325097%" y2="23.978125%"/><linearGradient id="ct" x1="12.915236%" x2="86.71162%" xlink:href="#b" y1="75.685894%" y2="24.386597%"/><linearGradient id="cu" x1="-3.754048%" x2="118.078252%" xlink:href="#b" y1="71.281669%" y2="20.965728%"/><linearGradient id="cv" x1="-4.140983%" x2="113.876971%" xlink:href="#b" y1="69.134659%" y2="18.818718%"/><linearGradient id="cw" x1="-2.72221%" x2="115.295744%" xlink:href="#b" y1="69.385792%" y2="19.069851%"/><linearGradient id="cx" x1="-3.395898%" x2="114.622056%" xlink:href="#b" y1="68.50907%" y2="18.193129%"/><linearGradient id="cy" x1="12.397488%" x2="86.858141%" xlink:href="#b" y1="75.438482%" y2="24.562583%"/><linearGradient id="cz" x1="-4.542697%" x2="113.475257%" xlink:href="#b" y1="69.230398%" y2="19.545823%"/><linearGradient id="cA" x1="12.918835%" x2="87.310351%" xlink:href="#b" y1="75.53781%" y2="24.238514%"/><linearGradient id="cB" x1="-2.181343%" x2="115.836612%" xlink:href="#b" y1="70.043831%" y2="19.72789%"/><linearGradient id="cC" x1="12.956222%" x2="87.416875%" xlink:href="#b" y1="75.272366%" y2="23.925394%"/><linearGradient id="cD" x1="-1.255015%" x2="116.400921%" xlink:href="#b" y1="69.273969%" y2="19.7418%"/><linearGradient id="cE" x1="12.549972%" x2="86.941488%" xlink:href="#b" y1="74.87019%" y2="23.570894%"/><linearGradient id="cF" x1="12.725633%" x2="87.186286%" xlink:href="#b" y1="75.660684%" y2="24.784784%"/><linearGradient id="cG" x1="13.60784%" x2="87.472808%" xlink:href="#b" y1="75.724112%" y2="23.897262%"/><linearGradient id="cH" x1="12.735468%" x2="87.126984%" xlink:href="#b" y1="76.08828%" y2="24.309551%"/><linearGradient id="cI" x1="-1.018326%" x2="115.769548%" xlink:href="#b" y1="70.544083%" y2="20.382485%"/><linearGradient id="cJ" x1="-3.957344%" x2="114.06061%" xlink:href="#b" y1="68.803968%" y2="18.488027%"/><linearGradient id="cK" x1="-2.525355%" x2="116.769792%" xlink:href="#b" y1="69.744133%" y2="19.582535%"/><linearGradient id="cL" x1="12.721488%" x2="87.182141%" xlink:href="#b" y1="75.434968%" y2="24.087995%"/><linearGradient id="cM" x1="-2.372157%" x2="115.645797%" xlink:href="#b" y1="70.124475%" y2="19.808533%"/><linearGradient id="cN" x1="13.242835%" x2="87.634351%" xlink:href="#b" y1="75.761718%" y2="24.462421%"/><linearGradient id="cO" x1="-4.093336%" x2="113.5626%" xlink:href="#b" y1="70.912449%" y2="20.750851%"/><linearGradient id="cP" x1="12.644882%" x2="87.641207%" xlink:href="#b" y1="75.448597%" y2="24.149301%"/><linearGradient id="cQ" x1="12.915496%" x2="87.376149%" xlink:href="#b" y1="75.173477%" y2="23.826505%"/><linearGradient id="cR" x1="13.160294%" x2="87.620948%" xlink:href="#b" y1="75.690931%" y2="24.343958%"/><linearGradient id="cS" x1="12.560101%" x2="86.951617%" xlink:href="#b" y1="75.318264%" y2="24.018968%"/><linearGradient id="cT" x1="13.121754%" x2="87.582407%" xlink:href="#b" y1="75.726736%" y2="24.379764%"/><linearGradient id="cU" x1="-4.662114%" x2="113.35584%" xlink:href="#b" y1="70.876295%" y2="20.560354%"/><linearGradient id="cV" x1="-3.870131%" x2="114.147823%" xlink:href="#b" y1="69.532799%" y2="19.848223%"/><linearGradient id="cW" x1="-2.043372%" x2="115.974582%" xlink:href="#b" y1="69.785812%" y2="19.469871%"/><linearGradient id="cX" x1="-2.844052%" x2="115.173902%" xlink:href="#b" y1="68.50865%" y2="18.192709%"/><linearGradient id="cY" x1="-7.348463%" x2="90.785027%" xlink:href="#b" y1="74.685285%" y2="-20.837543%"/><linearGradient id="cZ"><stop offset="0" stop-color="#ff9c00"/><stop offset=".22" stop-color="#fc9800"/><stop offset=".44" stop-color="#f28b00"/><stop offset=".67" stop-color="#e27700"/><stop offset=".89" stop-color="#cb5a00"/><stop offset="1" stop-color="#bf4a00"/></linearGradient><linearGradient id="c0" x1="1.226696%" x2="97.447469%" xlink:href="#cZ" y1="92.20106%" y2="6.060639%"/><linearGradient id="c1" x1="-1.362509%" x2="96.659241%" xlink:href="#cZ" y1="90.577693%" y2="3.321797%"/><linearGradient id="c2" x1="-4.832932%" x2="94.768395%" xlink:href="#cZ" y1="86.028062%" y2="-4.800132%"/><linearGradient id="c3" x1="2.496719%" x2="98.618917%" xlink:href="#cZ" y1="93.712895%" y2="7.74112%"/><linearGradient id="c4" x1="3.224893%" x2="101.08162%" xlink:href="#cZ" y1="96.073819%" y2="9.136306%"/><linearGradient id="c5" x1="15.38037%" x2="89.446385%" xlink:href="#cZ" y1="118.269429%" y2="46.439576%"/><linearGradient id="c6" x1="20.843785%" x2="117.686151%" xlink:href="#cZ" y1="77.441178%" y2="27.790928%"/><mask id="c7" fill="#fff"><use fill="#fff" fill-rule="evenodd" xlink:href="#a"/></mask></defs><g fill="none" fill-rule="evenodd"><path d="m57.3 128.8-56-31.1-1.1-64 54.9-32.9 55.9 31 1.1 64z" fill="#000" fill-rule="nonzero"/><path d="m10.4 39.1 1 53.1 46.4 25.8 45.6-27.3-1-53.2-46.4-25.8z"/><g fill-rule="nonzero"><g transform="translate(9 12)"><use fill="#ffce08" xlink:href="#a"/><g mask="url(#c7)"><g transform="translate(-41 -22)"><path d="m23.7 59.1 6.2-.1 3-5.4-3.2-5.3-6.2.1-3 5.4zm-1.1-5.3 2-3.7 4.2-.1 2.1 3.6-2.1 3.7-4.2.1z" fill="url(#c)"/><path d="m20.7 65.2 3.2 5.3 6.2-.1 3-5.4-3.1-5.4-6.2.1zm10.4-.2-2.1 3.6-4.2.1-2.1-3.6 2.1-3.7 4.2-.1z" fill="url(#d)"/><path d="m31.4 70.4 3.2 5.3 6.2-.1 3-5.4-3.2-5.3-6.1.1zm10.4-.2-2 3.6-4.2.1-2.1-3.6 2-3.7 4.2-.1z" fill="url(#e)"/><path d="m35.1 71.4.2.2c-.4-1-.1-2.2.8-2.8.3-.2.5-.4.9-.5-.6-.1-1.2 0-1.7.4-.7.7-.8 1.9-.2 2.7z" fill="url(#f)"/><path d="m44.3 69.8 6.2-.1 3-5.4-3.1-5.3-6.2.1-3 5.4zm-1.1-5.3 2.1-3.7 4.2-.1 2.1 3.6-2.1 3.7-4.2.1z" fill="url(#g)"/><path d="m45.1 62.8c-.8.7-.9 1.9-.2 2.7.1.1.2.1.2.2-.4-1-.1-2.2.8-2.8.3-.2.5-.4.9-.5-.6-.1-1.2 0-1.7.4z" fill="url(#h)"/><path d="m54.1 64 6.2-.1 3-5.4-3.2-5.3-6.2.1-3 5.4zm-1.2-5.4 2.1-3.7 4.2-.1 2.1 3.6-2.1 3.7-4.2.1z" fill="url(#i)"/><path d="m54.8 57c-.8.7-.9 1.9-.2 2.7.1.1.1.2.2.2-.4-1-.1-2.2.8-2.8.3-.2.5-.4.9-.5-.6-.2-1.2 0-1.7.4z" fill="url(#j)"/><path d="m41.3 75.9 3.2 5.3 6.2-.1 3-5.4-3.2-5.3-6.2.1zm10.4-.3-2.1 3.7-4.2.1-2.1-3.6 2.1-3.7 4.2-.1z" fill="url(#k)"/><path d="m51.1 70 3.2 5.3 6.2-.1 3-5.4-3.2-5.3-6.2.1zm10.3-.2-2.1 3.7-4.2.1-2.1-3.6 2.1-3.7 4.2-.1z" fill="url(#l)"/><path d="m53.3 52.8-3.2-5.3-6.2.2-3 5.4 3.2 5.3 6.2-.1zm-10.4.2 2-3.6 4.2-.1 2.1 3.6-2.1 3.7h-4.1z" fill="url(#m)"/><path d="m34.3 64.2 6.2-.1 3-5.4-3.2-5.3-6.2.1-3 5.4zm-1.2-5.3 2.1-3.7 4.2-.1 2.1 3.6-2 3.6-4.2.1z" fill="url(#n)"/><path d="m35.1 57.2c-.8.7-.9 1.9-.2 2.7.1.1.1.2.2.2-.4-1-.1-2.2.8-2.8.3-.2.5-.4.9-.5-.6-.2-1.2 0-1.7.4z" fill="url(#o)"/><path d="m45 51.2c-.8.7-.9 1.9-.2 2.7.1.1.1.2.2.2-.4-1-.1-2.2.8-2.8.3-.2.5-.4.9-.5-.6-.1-1.2.1-1.7.4z" fill="url(#p)"/><path d="m55.1 71.2c.1.1.1.2.2.2-.4-1-.1-2.2.8-2.8.3-.2.5-.4.9-.5-1-.2-2.1.5-2.3 1.5-.1.5.1 1.1.4 1.6z" fill="url(#q)"/><path d="m45.2 77.1c.1.1.1.2.2.2-.4-1-.1-2.2.8-2.8.3-.2.5-.4.9-.5-.6-.1-1.2 0-1.7.4-.7.7-.8 1.9-.2 2.7z" fill="url(#r)"/><path d="m30.7 82.8-6.2.2-3 5.4 3.2 5.3 6.2-.2 3.1-5.3zm1.2 5.4-2.1 3.6-4.2.2-2.2-3.6 2.1-3.7 4.2-.1z" fill="url(#s)"/><path d="m31.2 82.5 3.2 5.3 6.2-.2 3.1-5.3-3.3-5.3-6.2.1zm10.3-.2-2 3.6-4.2.2-2.2-3.6 2.1-3.7 4.2-.1z" fill="url(#t)"/><path d="m34.9 83.5c.1.1.1.2.2.2-.4-1-.1-2.2.8-2.8.3-.2.5-.4.9-.5-.6-.1-1.2 0-1.7.4-.8.7-.9 1.9-.2 2.7z" fill="url(#u)"/><path d="m24.8 105 6.2-.1 3-5.4-3.2-5.3-6.2.1-3 5.4zm-1.2-5.3 2.1-3.7 4.2-.1 2.1 3.6-2 3.7-4.2.1z" fill="url(#v)"/><path d="m43.7 93.6-3.2-5.3-6.2.1-3 5.4 3.2 5.3 6.2-.1zm-10.4.2 2.1-3.7 4.2-.1 2.1 3.6-2 3.7-4.2.1z" fill="url(#w)"/><path d="m21.1 76.9 3.2 5.3 6.2-.1 3-5.4-3.2-5.3-6.2.1zm10.4-.2-2 3.7-4.2.1-2.1-3.6 2.1-3.7 4.2-.1z" fill="url(#x)"/><path d="m35.6 92.3c-.8.7-.9 1.9-.2 2.7.1.1.2.2.2.2-.4-1-.1-2.2.8-2.8.3-.2.5-.4.9-.5-.6-.1-1.2 0-1.7.4z" fill="url(#y)"/><path d="m43.9 116.4-3.2-5.3-6.2.1-3 5.4 3.2 5.3 6.2-.1zm-10.4.2 2.1-3.7 4.2-.1 2.1 3.6-2.1 3.7-4.2.1z" fill="url(#z)"/><path d="m35.4 115c-.8.7-.9 1.9-.2 2.7.1.1.2.1.2.2-.4-1-.1-2.2.8-2.8.3-.2.5-.4.9-.5-.6-.2-1.2 0-1.7.4z" fill="url(#A)"/><path d="m44.4 116.1 6.2-.1 3-5.4-3.2-5.3-6.2.1-3 5.4zm-1.2-5.3 2.1-3.7 4.2-.1 2.1 3.6-2.1 3.7-4.2.1z" fill="url(#B)"/><path d="m45.1 109.1c-.8.7-.9 1.9-.2 2.7.1.1.1.2.2.2-.4-1-.1-2.2.8-2.8.3-.2.5-.4.9-.5-.6-.1-1.2 0-1.7.4z" fill="url(#C)"/><path d="m44.5 127.4 6.2-.1 3-5.4-3.2-5.3-6.2.2-3 5.4zm-1.2-5.3 2.1-3.6 4.2-.2 2.2 3.6-2.1 3.7-4.2.1z" fill="url(#D)"/><path d="m43.6 105-3.2-5.3-6.2.1-3 5.4 3.2 5.3 6.2-.1zm-10.4.2 2.1-3.7 4.2-.1 2.1 3.6-2.1 3.7-4.2.1z" fill="url(#E)"/><path d="m35.3 103.4c-.8.7-.9 1.9-.2 2.7.1.1.1.2.2.2-.4-1-.1-2.2.8-2.8.3-.2.5-.4.9-.5-.6-.2-1.2 0-1.7.4z" fill="url(#F)"/><path d="m45.7 120.6c-.8.7-.9 1.9-.2 2.7.1.1.1.2.2.2-.4-1-.1-2.2.8-2.8.3-.2.5-.4.9-.5-.6-.2-1.2 0-1.7.4z" fill="url(#G)"/><path d="m41.7 99.1 3.2 5.3 6.2-.1 3-5.4-3.2-5.3-6.2.1zm10.4-.2-2.1 3.7-4.2.1-2.1-3.6 2.1-3.7 4.2-.1z" fill="url(#H)"/><path d="m45.4 100.1c.1.1.1.2.2.2-.4-1-.1-2.2.8-2.8.3-.2.5-.4.9-.5-1-.2-2.1.4-2.3 1.5-.1.6.1 1.2.4 1.6z" fill="url(#I)"/><path d="m51.5 93.3 3.2 5.3 6.2-.1 3-5.4-3.2-5.3-6.2.1zm10.3-.2-2.1 3.7-4.2.1-2.1-3.6 2.1-3.7 4.2-.1z" fill="url(#J)"/><path d="m55.2 94.3c.1.1.2.1.2.2-.4-1-.1-2.2.8-2.8.3-.2.5-.4.9-.5-1-.2-2.1.4-2.3 1.5-.1.5 0 1.1.4 1.6z" fill="url(#K)"/><path d="m61.2 87.4 3.2 5.3 6.2-.1 3-5.4-3.2-5.3-6.2.1zm10.4-.2-2 3.7-4.3.1-2.1-3.6 2.1-3.7 4.2-.1z" fill="url(#L)"/><path d="m64.9 88.5c.1.1.1.2.2.2-.4-1-.1-2.2.8-2.8.3-.2.5-.4.9-.5-1-.2-2.1.4-2.3 1.5-.2.5 0 1.1.4 1.6z" fill="url(#M)"/><path d="m54.8 109.9 6.2-.1 3-5.4-3.2-5.3-6.2.1-3 5.4zm-1.2-5.3 2.1-3.7 4.2-.1 2.1 3.6-2 3.7-4.2.1z" fill="url(#N)"/><path d="m61.4 98.8 3.2 5.3 6.2-.1 3-5.4-3.2-5.3-6.2.1zm10.3-.2-2.1 3.7-4.2.1-2.1-3.6 2.1-3.7 4.2-.1z" fill="url(#O)"/><path d="m51.2 81.8 3.2 5.3 6.2-.1 3-5.4-3.2-5.3-6.2.1zm10.4-.2-2.1 3.7-4.2.1-2.1-3.6 2.1-3.7 4.2-.1z" fill="url(#P)"/><path d="m41.5 87.7 3.2 5.3 6.2-.1 3-5.4-3.2-5.3-6.2.1zm10.3-.2-2 3.7-4.2.1-2.1-3.6 2.1-3.7 4.2-.1z" fill="url(#Q)"/><path d="m45.2 88.7c.1.1.2.1.2.2-.4-1-.1-2.2.8-2.8.3-.2.5-.4.9-.5-.6-.1-1.2 0-1.7.4-.8.7-.9 1.9-.2 2.7z" fill="url(#R)"/><path d="m55.1 82.7c.1.1.1.1.2.2-.4-1-.1-2.2.8-2.8.3-.2.5-.4.9-.5-.6-.1-1.2 0-1.7.4-.8.7-.9 1.9-.2 2.7z" fill="url(#S)"/><path d="m65.4 99.9.2.2c-.4-1-.1-2.2.8-2.8.3-.2.5-.4.9-.5-1-.2-2.1.5-2.3 1.5-.1.6.1 1.2.4 1.6z" fill="url(#T)"/><path d="m55.7 103.2c-.8.7-.9 1.9-.2 2.7.1.1.2.1.2.2-.4-1-.1-2.2.8-2.8.3-.2.5-.4.9-.5-.6-.2-1.2 0-1.7.4z" fill="url(#U)"/><path d="m71.8 104.1 3.2 5.3 6.2-.1 3-5.4-3.2-5.3-6.2.1zm10.4-.2-2.1 3.7-4.2.1-2.1-3.6 2.1-3.7 4.2-.1z" fill="url(#V)"/><path d="m75.5 105.1c.1.1.1.2.2.2-.4-1-.1-2.2.8-2.8.3-.2.5-.4.9-.5-1-.2-2.1.4-2.3 1.5-.1.6 0 1.2.4 1.6z" fill="url(#W)"/><path d="m81.5 98.3 3.2 5.3 6.2-.1 3-5.4-3.2-5.3-6.2.1zm10.4-.2-2.1 3.7-4.1.1-2.1-3.6 2.1-3.7 4.2-.1z" fill="url(#X)"/><path d="m85.2 99.3c.1.1.2.1.2.2-.4-1-.1-2.2.8-2.8.3-.2.5-.4.9-.5-1-.2-2.1.4-2.3 1.5-.1.5 0 1.1.4 1.6z" fill="url(#Y)"/><path d="m103.7 92.2-3.2-5.3-6.2.1-3 5.4 3.2 5.3 6.2-.1zm-10.4.2 2.1-3.7 4.2-.1 2.1 3.6-2.1 3.7-4.2.1z" fill="url(#Z)"/><path d="m95.2 90.7c-.8.7-.9 1.9-.2 2.7.1.1.1.2.2.2-.4-1-.1-2.2.8-2.8.3-.2.5-.4.9-.5-.6-.1-1.3 0-1.7.4z" fill="url(#aa)"/><path d="m94.1 109.3-3.2-5.3-6.2.1-3 5.4 3.2 5.2 6.2-.1zm-10.4.3 2.1-3.6 4.2-.2 2.1 3.6-2.1 3.6-4.2.1z" fill="url(#ab)"/><path d="m103.8 103.5-3.2-5.3-6.2.2-3 5.4 3.2 5.2 6.2-.1zm-10.4.2 2.1-3.6 4.2-.2 2.1 3.6-2.1 3.7-4.2.1z" fill="url(#ac)"/><path d="m93.6 86.6-3.2-5.3-6.2.1-3 5.4 3.2 5.3 6.2-.1zm-10.3.2 2.1-3.7 4.2-.1 2.1 3.6-2.1 3.7-4.2.1z" fill="url(#ad)"/><path d="m71.5 92.7 3.2 5.3 6.2-.1 3-5.4-3.2-5.3-6.2.1zm10.4-.2-2.1 3.7-4.2.1-2.1-3.6 2.1-3.7 4.2-.1z" fill="url(#ae)"/><path d="m75.2 93.7c.1.1.1.2.2.2-.4-1-.1-2.2.8-2.8.3-.2.5-.4.9-.5-.6-.1-1.2 0-1.7.4-.7.7-.8 1.9-.2 2.7z" fill="url(#af)"/><path d="m85.4 85c-.8.7-.9 1.9-.2 2.7.1.1.1.2.2.2-.4-1-.1-2.2.8-2.8.3-.2.5-.4.9-.5-.6-.1-1.3 0-1.7.4z" fill="url(#ag)"/><path d="m95.7 102.2c-.8.7-.9 1.9-.2 2.7l.2.2c-.4-1-.1-2.2.8-2.8.3-.2.5-.4.9-.5-.6-.1-1.2 0-1.7.4z" fill="url(#ah)"/><path d="m85.8 108.2c-.8.7-.9 1.9-.2 2.7l.2.2c-.4-1-.1-2.2.8-2.8.3-.2.5-.4.9-.5-.6-.2-1.2 0-1.7.4z" fill="url(#ai)"/><path d="m111 104-6.2.1-3 5.4 3.2 5.3 6.2-.1 3-5.4zm1.1 5.4-2.1 3.7-4.2.1-2.1-3.6 2-3.7 4.2-.1z" fill="url(#aj)"/><path d="m105.4 110.6c.1.1.1.2.2.2-.4-1-.1-2.2.8-2.8.3-.2.5-.4.9-.5-.6-.1-1.2 0-1.7.4-.7.6-.8 1.9-.2 2.7z" fill="url(#ak)"/><path d="m120.7 98.2-6.2.1-3 5.4 3.2 5.3 6.2-.1 3-5.4zm1.2 5.3-2.1 3.7-4.2.1-2.1-3.6 2.1-3.7 4.2-.1z" fill="url(#al)"/><path d="m115.2 104.7c.1.1.1.2.2.2-.4-1-.1-2.2.8-2.8.3-.2.5-.4.9-.5-.6-.1-1.2 0-1.7.4-.8.7-.9 1.9-.2 2.7z" fill="url(#am)"/><path d="m133.6 97.6-3.2-5.3-6.2.1-3 5.4 3.2 5.3 6.2-.1zm-10.4.2 2.1-3.7 4.2-.1 2.1 3.6-2.1 3.7-4.2.1z" fill="url(#an)"/><path d="m125.1 96.2c-.8.7-.9 1.9-.2 2.7.1.1.1.2.2.2-.4-1-.1-2.2.8-2.8.3-.2.5-.4.9-.5-.6-.2-1.2 0-1.7.4z" fill="url(#ao)"/><path d="m111.7 115.1 3.2 5.3 6.2-.1 3-5.4-3.2-5.3-6.2.1zm10.3-.3-2.1 3.7-4.2.1-2.1-3.6 2.1-3.7 4.2-.1z" fill="url(#ap)"/><path d="m130.6 103.7-6.2.1-3 5.4 3.2 5.3 6.2-.1 3-5.4zm1.2 5.3-2.1 3.7-4.2.1-2.1-3.6 2-3.7 4.2-.1z" fill="url(#aq)"/><path d="m123.6 92-3.2-5.3-6.2.1-3 5.4 3.2 5.3 6.2-.1zm-10.4.2 2.1-3.7 4.2-.1 2.1 3.6-2.1 3.7-4.2.1z" fill="url(#ar)"/><path d="m113.9 97.8-3.2-5.3-6.2.1-3 5.4 3.2 5.3 6.2-.1zm-10.4.3 2.1-3.7 4.2-.1 2.1 3.6-2.1 3.7-4.2.1z" fill="url(#as)"/><path d="m105.4 96.4c-.8.7-.9 1.9-.2 2.7.1.1.1.1.2.2-.4-1-.1-2.2.8-2.8.3-.2.5-.4.9-.5-.6-.1-1.2 0-1.7.4z" fill="url(#at)"/><path d="m115.3 90.4c-.8.7-.9 1.9-.2 2.7l.2.2c-.4-1-.1-2.2.8-2.8.3-.2.5-.4.9-.5-.6-.1-1.2 0-1.7.4z" fill="url(#au)"/><path d="m125.4 110.4c.1.1.1.2.2.2-.4-1-.1-2.2.8-2.8.3-.2.5-.4.9-.5-.6-.1-1.2 0-1.7.4-.7.6-.8 1.9-.2 2.7z" fill="url(#av)"/><path d="m115.5 116.3c.1.1.1.1.2.2-.4-1-.1-2.2.8-2.8.3-.2.5-.4.9-.5-.6-.1-1.2 0-1.7.4-.7.7-.8 1.9-.2 2.7z" fill="url(#aw)"/><path d="m91.7 127.5-6.2.1-3 5.4 3.2 5.3 6.2-.1 3-5.4zm1.2 5.3-2 3.7-4.2.1-2.1-3.6 2.1-3.7 4.2-.1z" fill="url(#ax)"/><path d="m86.2 134c.1.1.1.2.2.2-.4-1-.1-2.2.8-2.8.3-.2.5-.4.9-.5-.6-.1-1.2 0-1.7.4-.8.7-.9 1.9-.2 2.7z" fill="url(#ay)"/><path d="m101.5 121.6-6.2.1-3 5.4 3.2 5.3 6.2-.1 3-5.4zm1.2 5.3-2.1 3.7-4.2.1-2.1-3.6 2.1-3.7 4.2-.1z" fill="url(#az)"/><path d="m96 128.2c.1.1.1.1.2.2-.4-1-.1-2.2.8-2.8.3-.2.5-.4.9-.5-.6-.1-1.2 0-1.7.4-.8.6-.9 1.8-.2 2.7z" fill="url(#aA)"/><path d="m102 121.3 3.2 5.3 6.2-.1 3-5.4-3.2-5.3-6.2.1zm10.3-.2-2.1 3.7-4.2.1-2.1-3.6 2.1-3.7 4.2-.1z" fill="url(#aB)"/><path d="m105.7 122.3c.1.1.1.1.2.2-.4-1-.1-2.2.8-2.8.3-.2.5-.4.9-.5-.6-.1-1.2 0-1.7.4-.8.7-.9 1.9-.2 2.7z" fill="url(#aC)"/><path d="m92.4 138.5 3.2 5.3 6.2-.1 3-5.4-3.2-5.3-6.2.1zm10.4-.2-2.1 3.7-4.2.1-2.1-3.6 2.1-3.7 4.2-.1z" fill="url(#aD)"/><path d="m102.1 132.7 3.2 5.3 6.2-.1 3.1-5.4-3.2-5.3-6.2.1zm10.4-.3-2 3.7-4.2.1-2.1-3.6 2.1-3.7 4.2-.1z" fill="url(#aE)"/><path d="m104.4 115.4-3.2-5.3-6.2.1-3 5.4 3.2 5.3 6.2-.1zm-10.4.2 2.1-3.7 4.2-.1 2.1 3.6-2.1 3.7-4.2.1z" fill="url(#aF)"/><path d="m94.6 121.3-3.2-5.3-6.2.1-3 5.4 3.2 5.3 6.2-.1zm-10.3.2 2.1-3.7 4.2-.1 2.1 3.6-2.1 3.7-4.2.1z" fill="url(#aG)"/><path d="m86.2 119.8c-.8.7-.9 1.9-.2 2.7.1.1.1.2.2.2-.4-1-.1-2.2.8-2.8.3-.2.5-.4.9-.5-.6-.1-1.3.1-1.7.4z" fill="url(#aH)"/><path d="m96.1 113.9c-.8.7-.9 1.9-.2 2.7.1.1.2.2.2.2-.4-1-.1-2.2.8-2.8.3-.2.5-.4.9-.5-.6-.1-1.2 0-1.7.4z" fill="url(#aI)"/><path d="m106.2 133.8c.1.1.2.2.2.2-.4-1-.1-2.2.8-2.8.3-.2.5-.4.9-.5-.6-.1-1.2 0-1.7.4-.8.7-.9 1.9-.2 2.7z" fill="url(#aJ)"/><path d="m96.3 139.8c.1.1.1.2.2.2-.4-1-.1-2.2.8-2.8.3-.2.5-.4.9-.5-.6-.1-1.2 0-1.7.4-.8.7-.9 1.9-.2 2.7z" fill="url(#aK)"/><path d="m84.3 138.7-3.2-5.3-6.2.1-3.1 5.4 3.2 5.3 6.2-.1zm-10.4.2 2-3.7 4.2-.1 2.1 3.6-2.1 3.7-4.2.1z" fill="url(#aL)"/><path d="m76 137.1c-.8.7-.9 1.9-.2 2.7.1.1.1.2.2.2-.4-1-.1-2.2.8-2.8.3-.2.5-.4.9-.5-.6-.2-1.2 0-1.7.4z" fill="url(#aM)"/><path d="m55.1 133 6.2-.1 3-5.4-3.2-5.3-6.2.1-3 5.4zm-1.2-5.3 2.1-3.7 4.2-.1 2.1 3.6-2.1 3.7-4.2.1z" fill="url(#aN)"/><path d="m55.8 126c-.8.7-.9 1.9-.2 2.7.1.1.1.2.2.2-.4-1-.1-2.2.8-2.8.3-.2.5-.4.9-.5-.6-.2-1.2 0-1.7.4z" fill="url(#aO)"/><path d="m74.1 121.6-3.2-5.3-6.2.1-3 5.4 3.2 5.3 6.1-.1zm-10.4.2 2-3.7 4.2-.1 2.1 3.6-2.1 3.7-4.2.1z" fill="url(#aP)"/><path d="m65.6 120.1c-.8.7-.9 1.9-.2 2.7l.2.2c-.4-1-.1-2.2.8-2.8.3-.2.5-.4.9-.5-.6-.1-1.2 0-1.7.4z" fill="url(#aQ)"/><path d="m83.8 115.7-3.2-5.3-6.2.1-3 5.4 3.2 5.3 6.2-.1zm-10.4.2 2-3.7 4.2-.1 2.1 3.6-2.1 3.7-4.2.1z" fill="url(#aR)"/><path d="m75.3 114.3c-.8.7-.9 1.9-.2 2.7.1.1.1.2.2.2-.4-1-.1-2.2.8-2.8.3-.2.5-.4.9-.5-.6-.1-1.2 0-1.7.4z" fill="url(#aS)"/><path d="m74.2 132.9-3.2-5.3-6.2.1-3 5.4 3.2 5.3 6.2-.1zm-10.4.2 2.1-3.7 4.2-.1 2.1 3.6-2 3.7-4.2.1z" fill="url(#aT)"/><path d="m83.9 127.1-3.2-5.3-6.2.1-3 5.4 3.2 5.3 6.2-.1zm-10.3.2 2.1-3.7 4.2-.1 2.1 3.6-2.1 3.7-4.2.1z" fill="url(#aU)"/><path d="m73.8 110.1-3.2-5.3-6.2.2-3 5.4 3.2 5.3 6.2-.1zm-10.4.2 2.1-3.7 4.2-.1 2.1 3.6-2.1 3.7-4.2.1z" fill="url(#aV)"/><path d="m54.8 121.5 6.2-.1 3-5.4-3.2-5.3-6.2.1-3 5.4zm-1.1-5.3 2.1-3.7 4.2-.1 2 3.6-2 3.7-4.2.1z" fill="url(#aW)"/><path d="m55.6 114.5c-.8.7-.9 1.9-.3 2.7.1.1.2.2.2.2-.4-1-.1-2.2.8-2.8.3-.2.5-.4.9-.5-.5-.1-1.1 0-1.6.4z" fill="url(#aX)"/><path d="m65.5 108.6c-.8.7-.9 1.9-.2 2.7.1.1.2.2.2.2-.4-1-.1-2.2.8-2.8.3-.2.5-.4.9-.5-.6-.2-1.2 0-1.7.4z" fill="url(#aY)"/><path d="m75.8 125.8c-.8.7-.9 1.9-.2 2.7l.2.2c-.4-1-.1-2.2.8-2.8.3-.2.5-.4.9-.5-.6-.2-1.2 0-1.7.4z" fill="url(#aZ)"/><path d="m65.9 131.7c-.8.7-.9 1.9-.3 2.7.1.1.2.1.2.2-.4-1-.1-2.2.8-2.8.3-.2.5-.4.9-.5-.5-.1-1.1.1-1.6.4z" fill="url(#a0)"/><path d="m91.3 80.6 3.2 5.3 6.2-.1 3-5.4-3.2-5.3-6.2.1zm10.4-.2-2 3.6-4.2.1-2.1-3.6 2.1-3.7 4.2-.1z" fill="url(#a1)"/><path d="m95 81.6c.1.1.1.1.2.2-.4-1-.1-2.2.8-2.8.3-.2.5-.4.9-.5-.6-.1-1.2 0-1.7.4-.7.7-.8 1.9-.2 2.7z" fill="url(#a2)"/><path d="m101.1 74.8 3.2 5.3 6.2-.1 3-5.4-3.2-5.3-6.2.1zm10.4-.2-2 3.6-4.2.1-2.1-3.6 2.1-3.7 4.2-.1z" fill="url(#a3)"/><path d="m104.8 75.8c.1.1.1.2.2.2-.4-1-.1-2.2.8-2.8.3-.2.5-.4.9-.5-.6-.1-1.2 0-1.7.4-.8.6-.9 1.9-.2 2.7z" fill="url(#a4)"/><path d="m110.8 68.9 3.2 5.3 6.2-.1 3-5.4-3.2-5.3-6.2.1zm10.4-.2-2 3.6-4.2.1-2.1-3.6 2-3.7 4.2-.1z" fill="url(#a5)"/><path d="m114.5 69.9c.1.1.1.2.2.2-.4-1-.1-2.2.8-2.8.3-.2.5-.4.9-.5-.6-.1-1.2 0-1.7.4-.8.7-.9 1.9-.2 2.7z" fill="url(#a6)"/><path d="m113.6 85.8-3.1-5.2-6.2.1-3 5.4 3.2 5.3 6.2-.1zm-10.3.3 2.1-3.7h4.2l2.1 3.6-2.1 3.7-4.2.1z" fill="url(#a7)"/><path d="m123.4 80-3.1-5.2-6.3.1-3 5.4 3.2 5.3 6.2-.1zm-10.4.2 2.1-3.7h4.2l2.1 3.6-2.1 3.7-4.2.1z" fill="url(#a8)"/><path d="m100.8 63.3 3.2 5.3 6.2-.1 3-5.4-3.2-5.3-6.2.1zm10.4-.2-2.1 3.7-4.2.1-2.1-3.6 2.1-3.7 4.2-.1z" fill="url(#a9)"/><path d="m91.1 69.2 3.2 5.3 6.2-.1 3-5.4-3.2-5.3-6.2.1zm10.3-.2-2.1 3.7-4.2.1-2.1-3.7 2.1-3.7 4.2-.1z" fill="url(#ba)"/><path d="m94.8 70.2c.1.1.1.2.2.2-.4-1-.1-2.2.8-2.8.3-.2.5-.4.9-.5-.6-.1-1.2 0-1.7.4-.8.7-.9 1.9-.2 2.7z" fill="url(#bb)"/><path d="m104.7 64.2c.1.1.2.2.2.2-.4-1-.1-2.2.8-2.8.3-.2.5-.4.9-.5-1-.2-2.1.4-2.3 1.5-.1.6 0 1.2.4 1.6z" fill="url(#bc)"/><path d="m115.3 78.7c-.8.7-.9 1.9-.2 2.7l.2.2c-.4-1-.1-2.2.8-2.8.3-.2.5-.4.9-.5-.7-.1-1.3 0-1.7.4z" fill="url(#bd)"/><path d="m105.3 84.7c-.8.7-1 1.9-.3 2.7.1.1.1.2.2.2-.4-1-.1-2.2.8-2.8.3-.2.5-.4.9-.5-.5-.2-1.1 0-1.6.4z" fill="url(#be)"/><path d="m123.4 57-3.2-5.3-6.2.1-3 5.4 3.2 5.3 6.2-.1zm-10.3.2 2-3.6 4.2-.1 2.1 3.6-2.1 3.7-4.2.1z" fill="url(#bf)"/><path d="m115 55.6c-.8.7-.9 1.9-.2 2.7.1.1.1.2.2.2-.4-1-.1-2.2.8-2.8.3-.2.5-.4.9-.5-.7-.2-1.3 0-1.7.4z" fill="url(#bg)"/><path d="m133.2 51.1-3.2-5.3-6.2.1-3 5.4 3.2 5.3 6.2-.1zm-10.4.3 2.1-3.7 4.1-.1 2.1 3.6-2.1 3.7-4.2.1z" fill="url(#bh)"/><path d="m124.7 49.7c-.8.7-.9 1.9-.2 2.7.1.1.1.2.2.2-.4-1-.1-2.2.8-2.8.3-.2.5-.4.9-.5-.6-.1-1.2 0-1.7.4z" fill="url(#bi)"/><path d="m142.9 45.3-3.2-5.3-6.2.1-3 5.4 3.2 5.3 6.2-.1zm-10.4.2 2-3.7 4.2-.1 2.1 3.6-2.1 3.7-4.2.1z" fill="url(#bj)"/><path d="m134.4 43.9c-.8.7-.9 1.9-.2 2.7.1.1.1.1.2.2-.4-1-.1-2.2.8-2.8.3-.2.5-.4.9-.5-.6-.2-1.2 0-1.7.4z" fill="url(#bk)"/><path d="m133.3 62.5-3.2-5.3-6.2.1-3 5.4 3.2 5.3 6.2-.1zm-10.3.2 2-3.6 4.2-.1 2.1 3.6-2 3.7-4.2.1z" fill="url(#bl)"/><path d="m143.1 56.6-3.2-5.3-6.2.1-3 5.4 3.2 5.3 6.2-.1zm-10.4.3 2-3.6 4.2-.1 2.1 3.6-2.1 3.7-4.2.1z" fill="url(#bm)"/><path d="m123.7 45.3 6.2-.1 3-5.4-3.2-5.3-6.2.1-3 5.4zm-1.2-5.4 2-3.7 4.2-.1 2.1 3.6-2.1 3.7-4.2.1z" fill="url(#bn)"/><path d="m110.8 45.8 3.2 5.3 6.2-.2 3-5.4-3.2-5.3-6.2.1zm10.3-.2-2 3.7-4.2.1-2.1-3.6 2.1-3.7 4.1-.1z" fill="url(#bo)"/><path d="m114.5 46.8c.1.1.2.1.2.2-.4-1-.1-2.2.8-2.8.3-.2.5-.4.9-.5-.6-.1-1.2 0-1.7.4-.7.7-.8 1.9-.2 2.7z" fill="url(#bp)"/><path d="m124.6 38.1c-.8.7-.9 1.9-.2 2.7.1.1.2.1.2.2-.4-1-.1-2.2.8-2.8.3-.2.5-.4.9-.5-.6-.1-1.2.1-1.7.4z" fill="url(#bq)"/><path d="m135 55.4c-.8.7-.9 1.9-.2 2.7.1.1.2.1.2.2-.4-1-.1-2.2.8-2.8.3-.2.5-.4.9-.5-.6-.1-1.3 0-1.7.4z" fill="url(#br)"/><path d="m125.1 61.4c-.8.7-.8 1.9-.2 2.7.1.1.2.1.2.2-.4-1-.1-2.2.8-2.8.3-.2.5-.4.9-.5-.6-.2-1.3-.1-1.7.4z" fill="url(#bs)"/><path d="m150.2 56.7-6.2.2-3.1 5.3 3.2 5.3 6.2-.1 3-5.4zm1.2 5.3-2.1 3.7-4.2.1-2.1-3.6 2.1-3.6 4.2-.2z" fill="url(#bt)"/><path d="m144.7 63.3c.1.1.2.1.2.2-.4-1-.1-2.2.8-2.8.3-.2.5-.4.9-.5-.6-.1-1.2 0-1.7.4-.7.7-.8 1.9-.2 2.7z" fill="url(#bu)"/><path d="m140.8 50.8 3.2 5.3 6.2-.1 3-5.4-3.2-5.3-6.2.1zm10.4-.2-2 3.7-4.2.1-2.1-3.6 2.1-3.7 4-.1z" fill="url(#bv)"/><path d="m133.5 85.8-3.2-5.3-6.2.1-3 5.4 3.2 5.3 6.2-.1zm-10.4.2 2-3.7 4.2-.1 2.1 3.6-2 3.7-4.2.1z" fill="url(#bw)"/><path d="m125 84.4c-.8.7-.9 1.9-.2 2.7l.2.2c-.4-1-.1-2.2.8-2.8.3-.2.5-.4.9-.5-.6-.2-1.2 0-1.7.4z" fill="url(#bx)"/><path d="m143.2 79.9-3.2-5.3-6.2.1-3 5.4 3.2 5.3 6.2-.1zm-10.3.2 2-3.7 4.2-.1 2.1 3.6-2.1 3.7-4.2.1z" fill="url(#by)"/><path d="m134.8 78.5c-.8.7-.9 1.9-.2 2.7.1.1.2.1.2.2-.4-1-.1-2.2.8-2.8.3-.2.5-.4.9-.5-.6-.2-1.3 0-1.7.4z" fill="url(#bz)"/><path d="m140.6 74.4 3.2 5.3 6.2-.1 3-5.4-3.2-5.3-6.2.1zm10.3-.2-2.1 3.7-4.2.1-2.1-3.6 2.1-3.7 4.2-.1z" fill="url(#bA)"/><path d="m144.3 75.4c.1.1.1.2.2.2-.4-1-.1-2.2.8-2.8.3-.2.5-.4.9-.5-1-.2-2.1.5-2.3 1.5-.1.5 0 1.1.4 1.6z" fill="url(#bB)"/><path d="m143.4 91.3-3.2-5.3-6.2.1-3 5.4 3.2 5.3 6.2-.1zm-10.4.2 2.1-3.7 4.2-.1 2.1 3.6-2.1 3.7-4.2.1z" fill="url(#bC)"/><path d="m153.1 85.4-3.2-5.3-6.2.1-3 5.4 3.2 5.3 6.2-.1zm-10.3.2 2-3.7 4.2-.1 2.1 3.6-2.1 3.7-4.2.1z" fill="url(#bD)"/><path d="m139.8 63.2-6.2.1-3 5.4 3.2 5.3 6.2-.1 3-5.4zm1.1 5.3-2.1 3.7-4.2.1-2.1-3.6 2-3.7 4.2-.1z" fill="url(#bE)"/><path d="m133.2 74.3-3.2-5.3-6.2.1-3 5.4 3.2 5.3 6.2-.1zm-10.3.2 2.1-3.7 4.2-.1 2.1 3.6-2.1 3.7-4.2.1z" fill="url(#bF)"/><path d="m124.8 72.9c-.8.7-.9 1.9-.2 2.7.1.1.1.2.2.2-.4-1-.1-2.2.8-2.8.3-.2.5-.4.9-.5-.6-.2-1.3 0-1.7.4z" fill="url(#bG)"/><path d="m134.5 69.6c.1.1.1.2.2.2-.4-1-.1-2.2.8-2.8.3-.2.5-.4.9-.5-.6-.1-1.2 0-1.7.4-.8.7-.9 1.9-.2 2.7z" fill="url(#bH)"/><path d="m145 84.1c-.8.7-.9 1.9-.2 2.7.1.1.1.2.2.2-.4-1-.1-2.2.8-2.8.3-.2.5-.4.9-.5-.6-.1-1.2 0-1.7.4z" fill="url(#bI)"/><path d="m135.1 90.1c-.8.7-.9 1.9-.2 2.7.1.1.1.2.2.2-.4-1-.1-2.2.8-2.8.3-.2.5-.4.9-.5-.6-.2-1.2 0-1.7.4z" fill="url(#bJ)"/><path d="m140.9 109.2-6.2.1-3 5.4 3.2 5.3 6.2-.1 3-5.4zm1.2 5.3-2.1 3.7-4.2.1-2.1-3.6 2.1-3.7 4.2-.1z" fill="url(#bK)"/><path d="m135.4 115.7c.1.1.1.2.2.2-.4-1-.1-2.2.8-2.8.3-.2.5-.4.9-.5-.6-.1-1.2 0-1.7.4-.8.7-.9 1.9-.2 2.7z" fill="url(#bL)"/><path d="m150.7 103.3-6.2.1-3 5.4 3.2 5.3 6.2-.1 3-5.4zm1.1 5.3-2.1 3.7-4.2.1-2.1-3.6 2-3.7 4.2-.1z" fill="url(#bM)"/><path d="m145.1 109.9c.1.1.1.2.2.2-.4-1-.1-2.2.8-2.8.3-.2.5-.4.9-.5-.6-.1-1.2 0-1.7.4-.7.6-.8 1.8-.2 2.7z" fill="url(#bN)"/><path d="m153.5 97.2-3.2-5.3-6.2.1-3 5.4 3.2 5.3 6.2-.1zm-10.3.2 2.1-3.7 4.2-.1 2.1 3.6-2.1 3.7-4.2.1z" fill="url(#bO)"/><path d="m143.8 103-3.2-5.3-6.2.1-3 5.4 3.2 5.3 6.2-.1zm-10.3.2 2.1-3.7 4.2-.1 2.1 3.6-2.1 3.7-4.2.1z" fill="url(#bP)"/><path d="m135.4 101.5c-.8.7-.9 1.9-.2 2.7.1.1.1.1.2.2-.4-1-.1-2.2.8-2.8.3-.2.5-.4.9-.5-.6-.1-1.3.1-1.7.4z" fill="url(#bQ)"/><path d="m145.3 95.6c-.8.7-.9 1.9-.2 2.7l.2.2c-.4-1-.1-2.2.8-2.8.3-.2.5-.4.9-.5-.6-.1-1.2 0-1.7.4z" fill="url(#bR)"/><path d="m63.5 46.8-3.2-5.3-6.2.1-3 5.4 3.2 5.3 6.2-.1zm-10.4.2 2-3.7 4.2-.1 2.1 3.6-2.1 3.7-4.2.1z" fill="url(#bS)"/><path d="m55 45.3c-.8.7-.9 1.9-.2 2.7l.2.2c-.4-1-.1-2.2.8-2.8.3-.2.5-.4.9-.5-.6-.1-1.2.1-1.7.4z" fill="url(#bT)"/><path d="m64 46.5 6.2-.1 3-5.4-3.2-5.3-6.2.1-3 5.4zm-1.2-5.4 2.1-3.7 4.2-.1 2.1 3.6-2.1 3.7-4.1.1z" fill="url(#bU)"/><path d="m64.8 39.5c-.8.7-.9 1.9-.2 2.7.1.1.1.2.2.2-.4-1-.1-2.2.8-2.8.3-.2.5-.4.9-.5-.6-.2-1.3 0-1.7.4z" fill="url(#bV)"/><path d="m73.7 40.6 6.2-.1 3.1-5.4-3.2-5.3-6.2.2-3 5.4zm-1.2-5.3 2.1-3.7 4.2-.1 2.1 3.6-2.1 3.7-4.2.1z" fill="url(#bW)"/><path d="m74.5 33.6c-.8.7-.9 1.9-.2 2.7.1.1.1.2.2.2-.4-1-.1-2.2.8-2.8.3-.2.5-.4.9-.5-.6-.1-1.3.1-1.7.4z" fill="url(#bX)"/><path d="m61 52.5 3.2 5.3 6.2-.1 3-5.4-3.2-5.3-6.2.1zm10.4-.2-2.1 3.7-4.2.1-2.1-3.6 2.1-3.7 4.2-.1z" fill="url(#bY)"/><path d="m70.7 46.7 3.2 5.3 6.2-.1 3-5.4-3.1-5.4-6.2.1zm10.4-.2-2.1 3.6-4.2.1-2.1-3.6 2.1-3.7 4.2-.1z" fill="url(#bZ)"/><path d="m72.9 29.5-3.2-5.3-6.2.1-3 5.4 3.2 5.3 6.2-.1zm-10.3.2 2.1-3.7 4.2-.1 2.1 3.6-2.1 3.7-4.2.1z" fill="url(#b0)"/><path d="m63.2 35.3-3.1-5.3-6.2.1-3 5.4 3.2 5.3 6.2-.1zm-10.4.2 2.1-3.7 4.2-.1 2.1 3.6-2 3.7-4.2.1z" fill="url(#b1)"/><path d="m54.7 33.9c-.8.7-.9 1.9-.2 2.7.1.1.1.2.2.2-.4-1-.1-2.2.8-2.8.3-.2.5-.4.9-.5-.6-.2-1.2 0-1.7.4z" fill="url(#b2)"/><path d="m64.7 27.9c-.8.7-.9 1.9-.2 2.7.1.1.2.2.2.2-.4-1-.1-2.2.8-2.8.3-.2.5-.4.9-.5-.6-.1-1.3 0-1.7.4z" fill="url(#b3)"/><path d="m74.8 47.8c.1.1.1.2.2.2-.4-1-.1-2.2.8-2.8.3-.2.5-.4.9-.5-1-.2-2.1.4-2.3 1.5-.1.6 0 1.2.4 1.6z" fill="url(#b4)"/><path d="m64.9 53.8c.1.1.1.1.2.2-.4-1-.1-2.2.8-2.8.3-.2.5-.4.9-.5-.6-.1-1.2 0-1.7.4-.8.7-.9 1.9-.2 2.7z" fill="url(#b5)"/><path d="m81 52.5 3.2 5.3 6.2-.1 3-5.4-3.2-5.3-6.2.1zm10.4-.2-2 3.7h-4.2l-2.2-3.6 2.1-3.7 4.2-.1z" fill="url(#b6)"/><path d="m84.7 53.5c.1.1.2.1.2.2-.4-1-.1-2.2.8-2.8.3-.2.5-.4.9-.5-.6-.1-1.2 0-1.7.4-.7.7-.8 1.9-.2 2.7z" fill="url(#b7)"/><path d="m90.8 46.6 3.2 5.3 6.2-.1 3-5.4-3.2-5.3-6.2.1zm10.4-.2-2 3.7-4.2.1-2.2-3.6 2-3.7 4.2-.1z" fill="url(#b8)"/><path d="m94.5 47.6c.1.1.1.2.2.2-.4-1-.1-2.2.8-2.8.3-.2.5-.4.9-.5-.6-.1-1.2 0-1.7.4-.8.7-.9 1.9-.2 2.7z" fill="url(#b9)"/><path d="m100.5 40.8 3.2 5.3 6.2-.1 3-5.4-3.2-5.3-6.2.1zm10.4-.2-2 3.7-4.2.1-2.2-3.6 2-3.7 4.2-.1z" fill="url(#ca)"/><path d="m104.2 41.8c.1.1.1.1.2.2-.4-1-.1-2.2.8-2.8.3-.2.5-.4.9-.5-.6-.1-1.2 0-1.7.4-.8.7-.9 1.9-.2 2.7z" fill="url(#cb)"/><path d="m91 58 3.2 5.3 6.2-.1 3-5.4-3.2-5.3h-6.2zm10.3-.3-2 3.7-4.2.1-2.1-3.6 2.1-3.7 4.2-.1z" fill="url(#cc)"/><path d="m100.7 52.1 3.2 5.3 6.2-.1 3-5.4-3.2-5.3-6.2.1zm10.3-.2-2 3.7-4.2.1-2.1-3.6 2.1-3.7 4.2-.1z" fill="url(#cd)"/><path d="m90.5 35.2 3.2 5.3 6.2-.1 3-5.4-3.2-5.3-6.2.1zm10.4-.2-2 3.6-4.2.1-2.1-3.6 2.1-3.7 4.2-.1z" fill="url(#ce)"/><path d="m80.8 41 3.2 5.3 6.2-.1 3-5.4-3.2-5.3-6.2.1zm10.3-.2-2 3.6-4.2.1-2.1-3.5 2.1-3.7 4.2-.1z" fill="url(#cf)"/><path d="m84.5 42c.1.1.1.1.2.2-.4-1-.1-2.2.8-2.8.3-.2.5-.4.9-.5-1-.2-2.1.4-2.3 1.5-.1.5 0 1.2.4 1.6z" fill="url(#cg)"/><path d="m94.4 36.1c.1.1.1.2.2.2-.4-1-.1-2.2.8-2.8.3-.2.5-.4.9-.5-1-.2-2.1.4-2.3 1.5-.1.5 0 1.1.4 1.6z" fill="url(#ch)"/><path d="m104.7 53.3c.1.1.1.1.2.2-.4-1-.1-2.2.8-2.8.3-.2.5-.4.9-.5-1-.2-2.1.4-2.3 1.5-.1.5.1 1.1.4 1.6z" fill="url(#ci)"/><path d="m94.8 59.2c.1.1.2.1.2.2-.4-1-.1-2.2.8-2.8.3-.2.5-.4.9-.5-1-.2-2.1.4-2.3 1.5-.1.6.1 1.2.4 1.6z" fill="url(#cj)"/><path d="m61.4 75.8 3.2 5.3 6.2-.1 3-5.4-3.2-5.3-6.2.1zm10.4-.2-2.1 3.7-4.2.1-2.1-3.6 2-3.7 4.2-.1z" fill="url(#ck)"/><path d="m65.1 76.8c.1.1.1.2.2.2-.4-1-.1-2.2.8-2.8.3-.2.5-.4.9-.5-.6-.1-1.2 0-1.7.4-.8.7-.9 1.9-.2 2.7z" fill="url(#cl)"/><path d="m71.1 69.9 3.2 5.3 6.2-.1 3-5.4-3.2-5.3-6.2.1zm10.4-.2-2 3.7-4.2.1-2.1-3.6 2.1-3.7 4.2-.1z" fill="url(#cm)"/><path d="m74.8 71c.1.1.2.1.2.2-.4-1-.1-2.2.8-2.8.3-.2.5-.4.9-.5-.6-.1-1.2 0-1.7.4-.7.6-.8 1.8-.2 2.7z" fill="url(#cn)"/><path d="m80.9 64.1 3.2 5.3 6.2-.1 3-5.4-3.2-5.3-6.2.1zm10.3-.2-2.1 3.7h-4.1l-2.1-3.6 2.1-3.7 4.2-.1z" fill="url(#co)"/><path d="m84.6 65.1c.1.1.1.2.2.2-.4-1-.1-2.2.8-2.8.3-.2.5-.4.9-.5-.6-.1-1.2 0-1.7.4-.8.7-.9 1.9-.2 2.7z" fill="url(#cp)"/><path d="m71.3 81.3 3.2 5.3 6.2-.1 3.1-5.4-3.2-5.3-6.2.1zm10.4-.2-2 3.7-4.2.1-2.1-3.6 2.1-3.7 4.2-.1z" fill="url(#cq)"/><path d="m81 75.4 3.2 5.3 6.2-.1 3-5.4-3.2-5.3-6.1.1zm10.4-.2-2.1 3.7-4.2.1-2.1-3.6 2.1-3.7 4.2-.1z" fill="url(#cr)"/><path d="m70.8 58.5 3.2 5.3 6.2-.1 3-5.4-3.1-5.3-6.2.1zm10.4-.2-2 3.7h-4.2l-2.1-3.6 2.1-3.7 4.2-.1z" fill="url(#cs)"/><path d="m61.1 64.3 3.2 5.3 6.2-.1 3.1-5.4-3.2-5.3-6.2.1zm10.4-.2-2 3.7-4.2.1-2.1-3.6 2.1-3.7 4.2-.1z" fill="url(#ct)"/><path d="m64.8 65.3c.1.1.2.2.2.2-.4-1-.1-2.2.8-2.8.3-.2.5-.4.9-.5-.6-.1-1.2 0-1.7.4-.7.7-.8 1.9-.2 2.7z" fill="url(#cu)"/><path d="m74.8 59.4c.1.1.1.2.2.2-.4-1-.1-2.2.8-2.8.3-.2.5-.4.9-.5-.6-.1-1.2 0-1.7.4-.8.7-.9 1.9-.2 2.7z" fill="url(#cv)"/><path d="m85.1 76.6c.1.1.1.2.2.2-.4-1-.1-2.2.8-2.8.3-.2.5-.4.9-.5-.6-.1-1.2 0-1.7.4-.8.7-.9 1.9-.2 2.7z" fill="url(#cw)"/><path d="m75.2 82.6c.1.1.1.1.2.2-.4-1-.1-2.2.8-2.8.3-.2.5-.4.9-.5-.6-.1-1.2 0-1.7.4-.8.6-.9 1.8-.2 2.7z" fill="url(#cx)"/><path d="m83.4 23.4-3.2-5.3-6.2.2-3 5.4 3.2 5.3 6.2-.1zm-10.4.2 2-3.6 4.2-.1 2.1 3.6-2.1 3.7-4.2.1z" fill="url(#cy)"/><path d="m74.9 22c-.8.7-.9 1.9-.2 2.7l.2.2c-.4-1-.1-2.2.8-2.8.3-.2.5-.4.9-.5-.6-.2-1.3 0-1.7.4z" fill="url(#cz)"/><path d="m83.9 23.1 6.2-.1 3-5.4-3.2-5.3-6.2.1-3 5.4zm-1.2-5.3 2.1-3.7 4.2-.1 2.1 3.6-2 3.7-4.2.1z" fill="url(#cA)"/><path d="m84.6 16.1c-.8.7-.9 1.9-.2 2.7.1.1.2.1.2.2-.4-1-.1-2.2.8-2.8.3-.2.6-.4.9-.5-.6-.1-1.2 0-1.7.4z" fill="url(#cB)"/><path d="m93.6 17.3 6.2-.1 3-5.4-3.2-5.3-6.2.1-3 5.4zm-1.2-5.4 2-3.7 4.2-.1 2.1 3.6-2.1 3.7-4.2.1z" fill="url(#cC)"/><path d="m94.3 10.3c-.8.7-.9 1.9-.2 2.7.1.1.1.2.2.2-.4-1-.1-2.2.8-2.8.3-.2.6-.4.9-.5-.6-.2-1.2 0-1.7.4z" fill="url(#cD)"/><path d="m80.9 29.2 3.2 5.3 6.2-.1 3-5.4-3.2-5.3-6.2.1zm10.3-.3-2.1 3.7-4.1.1-2.1-3.6 2.1-3.7 4.2-.1z" fill="url(#cE)"/><path d="m90.6 23.3 3.2 5.3 6.2-.2 3-5.4-3.2-5.3-6.2.1zm10.4-.2-2 3.6-4.2.1-2.1-3.6 2.1-3.7 4.2-.1z" fill="url(#cF)"/><path d="m92.8 6.1-3.2-5.2-6.2.1-3.1 5.4 3.2 5.2 6.2-.1zm-10.4.2 2.1-3.6 4.2-.1 2.1 3.5-2 3.7-4.3.1z" fill="url(#cG)"/><path d="m83.1 11.9-3.2-5.2-6.2.1-3 5.4 3.2 5.2 6.2-.1zm-10.4.3 2.1-3.7 4.2-.1 2.1 3.5-2.1 3.7h-4.2z" fill="url(#cH)"/><path d="m74.6 10.5c-.8.7-.9 1.9-.3 2.7.1.1.2.2.3.2-.4-1-.1-2.2.8-2.8.3-.2.5-.4.9-.5-.6-.1-1.2 0-1.7.4z" fill="url(#cI)"/><path d="m94.7 24.5c.1.1.1.2.2.2-.4-1-.1-2.2.8-2.8.3-.2.5-.4.9-.5-.6-.1-1.2 0-1.7.4-.8.6-.9 1.8-.2 2.7z" fill="url(#cJ)"/><path d="m84.7 30.4c.1.1.1.1.2.2-.4-1-.1-2.2.8-2.8.3-.2.5-.4.9-.5-.6-.1-1.2 0-1.7.4-.7.6-.9 1.9-.2 2.7z" fill="url(#cK)"/><path d="m100.3 29 3.2 5.3 6.2-.1 3-5.4-3.2-5.3-6.2.1zm10.4-.2-2 3.7-4.2.1-2.2-3.6 2.1-3.7 4.2-.1z" fill="url(#cL)"/><path d="m104 30c.1.1.1.2.2.2-.4-1-.1-2.2.8-2.8.3-.2.5-.4.9-.5-.6-.1-1.2 0-1.7.4-.8.7-.9 1.9-.2 2.7z" fill="url(#cM)"/><path d="m113.2 28.4 6.2-.1 3-5.4-3.2-5.3-6.2.1-3 5.4zm-1.2-5.3 2.1-3.7 4.2-.1 2.1 3.6-2.1 3.7-4.2.1z" fill="url(#cN)"/><path d="m114 21.4c-.8.7-.9 1.9-.2 2.7.1.1.1.1.2.2-.4-1-.1-2.2.8-2.8.3-.2.5-.4.9-.5-.6-.1-1.3 0-1.7.4z" fill="url(#cO)"/><path d="m122.9 22.6 6.2-.1 3-5.4-3.1-5.3-6.2.1-3 5.4zm-1.1-5.3 2.1-3.7 4.2-.1 2.1 3.6-2 3.7-4.2.1z" fill="url(#cP)"/><path d="m110.2 34.5 3.2 5.3 6.2-.1 3-5.4-3.2-5.3-6.2.1zm10.4-.2-2.1 3.7h-4.2l-2.1-3.6 2.1-3.7 4.2-.1z" fill="url(#cQ)"/><path d="m119.9 28.6 3.2 5.3 6.2-.1 3-5.4-3.2-5.3-6.2.1zm10.4-.2-2.1 3.7-4.2.1-2.1-3.6 2.1-3.6 4.2-.1z" fill="url(#cR)"/><path d="m122.2 11.4-3.2-5.2-6.2.1-3 5.4 3.1 5.3 6.2-.1zm-10.4.2 2-3.6 4.1-.1 2.1 3.6-2.1 3.7-4.2.1z" fill="url(#cS)"/><path d="m103.2 22.8 6.2-.1 3-5.4-3.2-5.3-6.2.2-3 5.4zm-1.2-5.3 2-3.6 4.2-.1 2.1 3.6-1.9 3.6-4.2.1z" fill="url(#cT)"/><path d="m104 15.8c-.8.7-.9 1.9-.2 2.7.1.1.1.1.2.2-.4-1-.1-2.2.8-2.8.3-.2.5-.4.9-.5-.6-.1-1.3 0-1.7.4z" fill="url(#cU)"/><path d="m113.9 9.9c-.8.7-.9 1.9-.2 2.7.1.1.1.1.2.2-.4-1-.1-2.2.8-2.8.3-.2.5-.4.9-.5-.6-.2-1.2 0-1.7.4z" fill="url(#cV)"/><path d="m124 29.8c.1.1.1.1.2.2-.4-1-.1-2.2.8-2.8.3-.2.5-.4.9-.5-.6-.1-1.2 0-1.7.4-.8.7-.9 1.9-.2 2.7z" fill="url(#cW)"/><path d="m114.1 35.8c.1.1.1.1.2.2-.4-1-.1-2.2.8-2.8.3-.2.5-.4.9-.5-.6-.1-1.2 0-1.7.4-.8.6-.9 1.8-.2 2.7z" fill="url(#cX)"/><path d="m141.6 120.2.2.3 2.5-1.5 1.4-2.5 2.8-.1 2.5-1.4-.2-.3-6.2.1z" fill="url(#cY)"/></g></g></g><g opacity=".13" transform="translate(9 12)"><path d="m46.6 0-45.6 27.3 1 53.2 46.5 25.8 45.5-27.3-.9-53.2zm45.5 77.9-43.7 26.3-44.6-24.8-.9-51 43.7-26.3 44.6 24.8z" fill="#fff"/><path d="m46.5 0-45.6 27.4 1 53.2 46.5 25.8 45.5-27.4-.9-53.2zm45.5 78-43.7 26.3-44.6-24.8-.9-51.1 43.7-26.3 44.6 24.8z" fill="#000"/></g><path d="m82 48.1c1-.5 1.3-1.7.8-2.7-.1-.1-.1-.2-.2-.3l-2.7-3.3c-.9-.9-2.3-1.2-3.5-.5l-49.3 29.5c-1.1.7-1.6 2.1-1.2 3.4l1.6 3.9c.4 1 1.6 1.5 2.6 1.1.1 0 .2-.1.3-.2z" fill="url(#c0)"/><path d="m73.4 38.2c.7-.3 1.1-1.2.7-1.9-.1-.3-.3-.5-.6-.6l-4.2-2.8c-1.2-.6-2.7-.6-3.9 0l-40.3 24.1c-1.2.8-1.9 2.1-1.9 3.5l.5 5c0 .8.7 1.4 1.5 1.4.3 0 .6-.1.8-.3z" fill="url(#c1)"/><path d="m60.7 30.7c1.1-.7 1-1.4-.3-1.8l-9-1.4c-1.5 0-3 .4-4.3 1.1l-17 10.3c-1.2.8-2.3 1.9-3 3.3l-3 8.6c-.3 1.2.3 1.7 1.4 1.1z" fill="url(#c2)"/><path d="m88 59.6c1.1-.7 1.6-2.1 1.1-3.3l-1.7-3.9c-.5-1-1.8-1.5-2.8-1-.1 0-.1.1-.2.1l-51.6 31c-1 .6-1.3 1.9-.8 2.9 0 .1.1.1.1.2l2.6 3.3c.9 1 2.3 1.2 3.5.6z" fill="url(#c3)"/><path d="m89.3 63.7-48 28.8c-.8.3-1.1 1.2-.7 2 .1.3.3.5.6.6l4 2.9c1.2.7 2.7.7 3.9.1l11.3-6.8c-.4-3.1 1.1-6.2 3.8-7.8l5.9-3.5c2.7-1.6 6.1-1.5 8.7.3l11.8-7.1c1.2-.8 1.8-2.1 1.8-3.5l-.7-4.9c-.1-.8-.8-1.4-1.6-1.4-.3.1-.6.2-.8.3z" fill="url(#c4)"/><path d="m65.4 101.2-3.5-5.9-8.5 5.1c-1.1.7-1 1.4.3 1.6 3.8.7 7.7 1.1 11.6 1.2-.2-.7-.1-1.4.1-2z" fill="url(#c5)"/><path d="m90.5 78.1-8.9 5.3 3.3 5.5c.9 0 1.8.3 2.4.9 1.8-3.5 3.3-7.1 4.4-10.8.4-1.1-.2-1.5-1.2-.9z" fill="url(#c6)"/><path d="m70 94.6-1 .2c-.4.1-.8.1-1.2.2v.9c.4-.1.9-.1 1.3-.2.5-.1.8-.2 1.1-.2-.1-.3-.2-.6-.2-.9z" fill="#000"/><path d="m67.5 97.9c.7-.1 1.3-.2 2-.3s1.1-.2 1.7-.4c-.2-.3-.3-.5-.5-.8-.4.1-.9.2-1.3.3s-1.1.3-1.7.3c0 .3-.1.6-.2.9z" fill="#000"/><path d="m75.8 94.9c-1.4-.9-3.1-1.4-4.7-1.5-.2 0-.5 0-.7.2-.1.2-.1.4 0 .5l.1.1v.1c.7 1.5 1.7 2.9 3.1 3.8.7.5 1.6.8 2.5.8.5 0 1-.2 1.4-.6h.1c.2-.4.3-1 .1-1.4-.4-.8-1.1-1.5-1.9-2z" fill="#000"/><path d="m71.9 98.1c-.7.2-1.4.4-2.2.5-.8.2-1.7.3-2.5.3-.1.3-.2.6-.4.9l-.1.2c.7.8 1.6 1.4 2.7 1.5l.3.8v-.1.1l.4-1c1.1-.4 2-1.3 2.5-2.4 0 0-.1-.1-.1-.1-.2-.2-.4-.4-.6-.7zm-.3 1.9c-.5.1-1 .2-1.6.4s-1.2.2-1.8.3c-.4-.2-.7-.5-1-.8.9-.1 1.8-.2 2.7-.4s1.6-.3 2.3-.5c-.1.3-.3.7-.6 1z" fill="#000"/><path d="m67.4 94.9v-.2c0-.2-.1-.4-.2-.5-.2-.1-.5 0-.7.1-1.6.6-2.9 1.7-4 3-.6.7-.9 1.7-.9 2.6 0 .5.2 1 .5 1.3v.1c.5.3 1 .3 1.5 0 .8-.3 1.6-.9 2.1-1.7.9-1.4 1.5-3 1.6-4.7z" fill="#000"/><path d="m67.5 94.7-.1-.1c0-.2-.1-.3-.2-.4s-.3.1-.4.2c-.9 1-1.4 2.2-1.6 3.5-.1.8 0 1.6.3 2.4.1.4.4.8.8 1 .4.1.7 0 1-.3.5-.5.7-1.2.8-1.9 0-1.5-.1-3-.6-4.4z" fill="#000"/><path d="m71 93.8s-.1-.1-.1-.1c-.1-.1-.3-.1-.4-.1h-.1c-.1.1-.2.3-.2.4-.1 1.3.2 2.6.9 3.7.4.7 1 1.3 1.7 1.7.4.2.8.3 1.2.3h.1c.4-.1.6-.5.6-.9 0-.7-.2-1.4-.6-2-.7-1.2-1.8-2.2-3.1-3z" fill="#000"/><path d="m69 89.3c-.1 0-.2.1-.2.1-.1 0-.2-.1-.3-.1v-.1c0-.3 0-.5.2-.8l-.2-.1c-.2.3-.3.6-.2.9-.1 0-.3 0-.4 0s-.3.1-.4.1c-.1-.3-.2-.6-.5-.8l-.2.1c.2.2.4.4.4.7v.1c-.1 0-.2.1-.3.2-.1 0-.2-.1-.3 0-.2 0-.4.3-.4.5 0 .1.1.2.1.2-.1.3-.1.6-.1.9.2 1 1.1 1.6 2.1 1.4s1.6-1.1 1.4-2.1c-.1-.3-.2-.6-.4-.8 0-.1.1-.2 0-.3.2 0 0-.2-.3-.1z" fill="#000"/><path d="m70.5 91.9-.4-.2-.2.3.3.2c.1.1.2.1.3.2l-.8.2c-.7.5-1.7.7-2.6.5l-.8.1c.1-.1.1-.2.2-.3l.2-.4c-.2 0-.3-.2-.3-.2l-.3.5c-.3.5-.6 1.1-.7 1.7.2-.1.4-.2.5-.3l.2-.1c.3-.2.7-.3 1-.2.1 0 .1.1.1.1.5-.1.9-.1 1.3-.2s.8-.2 1.1-.2c0-.1.1-.1.1-.2.3-.3.7-.4 1-.2.3 0 .6.1.9.1-.1-.6-.6-1-1.1-1.4z" fill="#000"/><path d="m53.1 31.7c.3.1.7.2 1 .3s.8.2 1.2.4c.1-.3.2-.5.4-.8-.4-.2-.8-.3-1.3-.4-.4-.1-.7-.2-1.1-.3-.1.2-.2.5-.2.8z" fill="#000"/><path d="m56.7 29.8c-.6-.2-1.3-.4-1.9-.6-.7-.2-1.1-.3-1.7-.4 0 .3.1.6.1.9.4.1.9.2 1.4.3s1.1.3 1.6.5c.2-.2.4-.4.5-.7z" fill="#000"/><path d="m48 28.8c.8 1.5 2.1 2.7 3.6 3.5.2.1.5.2.7.1h.1c.1-.1.2-.3.2-.5 0-.1 0-.1 0-.2.1-1.7-.2-3.3-1-4.8-.4-.8-1-1.5-1.8-1.9-.4-.3-1-.3-1.5-.1h-.1-.1c-.4.3-.7.7-.7 1.2-.1.9.1 1.8.6 2.7z" fill="#000"/><path d="m52.9 27.6c.7.1 1.4.3 2.1.5.8.2 1.6.5 2.4.8.2-.2.5-.5.8-.7l.1-.1c-.2-1-.8-2-1.7-2.5l.1-.9-.1.1.1-.1-.8.7c-1.2-.1-2.4.3-3.3 1.1 0 .1.1.1.1.2.1.4.2.7.2.9zm1.2-1.5c.5.1 1 .2 1.6.4.5.2 1.2.4 1.8.6.2.4.4.8.5 1.2-.8-.3-1.7-.6-2.6-.9-.8-.2-1.6-.4-2.3-.6.2-.3.6-.5 1-.7z" fill="#000"/><path d="m55.5 32.6-.1.1c-.1.2-.1.4-.1.5v.1c.1.2.4.2.6.3 1.7.2 3.4-.1 4.9-.9.8-.4 1.5-1.1 2-1.9.2-.4.3-.9.1-1.4l-.1-.1c-.3-.4-.8-.7-1.3-.7-.9-.1-1.8.1-2.6.6-1.4.7-2.6 1.9-3.4 3.4z" fill="#000"/><path d="m55.3 32.8v.1c0 .2 0 .3.1.5v.1c.1.1.3 0 .5 0 1.2-.5 2.3-1.3 3-2.4.5-.7.8-1.4.9-2.3.1-.4 0-.9-.3-1.2v-.1-.1c-.3-.3-.7-.3-1-.2-.6.3-1.2.7-1.5 1.3-.9 1.3-1.4 2.7-1.7 4.3z" fill="#000"/><path d="m51.8 31.9.1.1c.1.1.2.3.3.3.2 0 .3-.2.4-.3.7-1.1 1-2.4.9-3.7 0-.8-.3-1.6-.7-2.3-.2-.4-.6-.7-1-.8-.4 0-.7.2-.9.5-.3.6-.5 1.3-.4 2 .2 1.6.6 3 1.3 4.2z" fill="#000"/><path d="m51.5 36.9h.3c0 .1.1.2.2.2-.1.2-.3.5-.5.6l.1.2c.3-.1.5-.4.6-.7.1.1.3.1.4.2.1 0 .3.1.4.1-.1.3 0 .6.1.9h.2c-.1-.3-.2-.5-.1-.8h.3l.2.2c.2.1.5-.1.6-.3 0-.1 0-.2 0-.3.2-.2.4-.5.5-.8.3-.9-.2-1.9-1.1-2.2s-1.9.2-2.2 1.1v.1c-.1.3-.1.6 0 .9-.1.1-.1.1-.2.2-.1.2 0 .5.2.6-.1-.2-.1-.2 0-.2z" fill="#000"/><path d="m51.3 33.8.2.4.3-.2-.2-.3c-.1-.1-.1-.2-.2-.3l.8.2c.4-.1.9 0 1.3.1s.8.3 1.2.6c.3.1.5.2.7.3l-.5.4c.1.1.2.3.2.3l.5-.3c.6-.3 1-.7 1.4-1.2-.2 0-.4.1-.6.1l-.2-.1c-.4 0-.8-.1-1-.3 0 0-.1-.1-.1-.2-.4-.2-.9-.3-1.3-.4s-.7-.2-1.1-.3l-.2.1c-.3.1-.6 0-1-.3-.3-.2-.5-.3-.7-.5 0 .8.2 1.4.5 1.9z" fill="#000"/><path d="m73 81.2c-.2.4-.4.8-.6 1.2s-.5.9-.8 1.4c.3.2.6.4.9.7.3-.5.6-1 .9-1.5s.5-.9.7-1.3c-.4-.2-.7-.3-1.1-.5z" fill="#000"/><path d="m74.3 86.4c.5-.7.9-1.5 1.4-2.3.4-.8.7-1.3 1-2-.4 0-.8-.1-1.2-.2-.3.5-.5 1.1-.8 1.6s-.8 1.3-1.2 1.9c.3.4.6.7.8 1z" fill="#000"/><path d="m78.1 75.6c-2.1.7-4 1.9-5.4 3.6-.2.2-.4.5-.4.8l.1.1c.1.2.3.4.5.4.1 0 .1.1.2.1 2.1.6 4.3.7 6.4.1 1.1-.3 2.2-.9 3-1.8.5-.5.7-1.2.6-1.9l-.1-.1-.1-.1c-.2-.6-.7-1.1-1.4-1.2-1-.4-2.2-.4-3.4 0z" fill="#000"/><path d="m78.2 82.2c-.4.8-.8 1.7-1.3 2.6-.6 1-1.1 2-1.7 2.8.2.4.4.7.6 1.1l.1.2c1.4 0 2.8-.5 3.7-1.5l1.1.4-.7-1.3c.5-1.5.4-3.1-.3-4.5h-.3c-.4.1-.8.2-1.2.2zm1.6 1.9c-.3.6-.6 1.3-1 1.9s-.8 1.4-1.2 2.1c-.5.2-1.1.3-1.6.3.7-1 1.3-2 1.8-3 .5-.9 1-1.9 1.4-2.8.3.4.5.9.6 1.5z" fill="#000"/><path d="m71.1 84-.1-.1c-.2-.2-.4-.2-.6-.2h-.1c-.3.1-.4.5-.5.7-.7 2.1-.8 4.3-.2 6.5.3 1.2.9 2.3 1.8 3.1.5.4 1.1.6 1.8.5l.1-.1h.1c.6-.3 1.1-.8 1.3-1.5.3-1.1.3-2.4 0-3.5-.7-2-1.9-3.9-3.6-5.4z" fill="#000"/><path d="m71 83.8-.2-.1c-.2-.1-.4-.1-.6 0h-.1c-.1.2-.1.5-.1.7.3 1.7 1 3.3 2.2 4.5.7.8 1.6 1.4 2.6 1.7.5.2 1.1.2 1.6 0l.1-.1h.1c.4-.3.6-.8.5-1.3-.2-.9-.6-1.7-1.3-2.4-1.3-1.3-2.9-2.3-4.8-3z" fill="#000"/><path d="m73.1 79.5-.2.1c-.2 0-.4.2-.5.3-.1.2.1.4.3.6 1.2 1.2 2.8 1.9 4.5 2.2 1.1.2 2.1.1 3.1-.2.5-.1 1-.4 1.3-.9h.1.1c.2-.5 0-1-.4-1.3-.7-.6-1.5-1-2.5-1.1-2-.4-3.9-.3-5.8.3z" fill="#000"/><path d="m66.8 77.7c-.1.1-.1.2-.1.4-.1.1-.2.1-.3.2v-.1c-.3-.2-.5-.5-.6-.8l-.2.1c.1.4.4.8.7 1-.1.1-.2.3-.3.4-.1.2-.2.3-.2.5-.4-.2-.8-.2-1.2-.1v.3c.4-.1.7 0 1.1.1v.1.4c-.1.1-.2.1-.3.2-.2.3-.1.7.2.8.1.1.2.1.4.1.2.3.5.6.9.8 1.1.6 2.5.2 3.1-.9s.2-2.5-.9-3.1c-.3-.2-.7-.3-1.1-.3-.1-.1-.1-.2-.3-.3-.4-.2-.7-.1-.9.2z" fill="#000"/><path d="m70.7 78.4-.6.2.3.4.4-.1.5-.1-.5 1c-.1 1.2-.7 2.3-1.6 3l-.6.9c-.1-.1-.1-.3-.1-.5l-.2-.6c-.1.2-.5.1-.5.1l.2.7c.2.8.6 1.5 1.1 2.2 0-.3.1-.6.1-.8l.1-.3c0-.5.3-.9.7-1.1h.1c.1 0 .2 0 .2-.1.3-.5.6-1 .9-1.5s.5-.9.7-1.3c0-.1-.1-.2-.1-.2 0-.5.2-.9.6-1.2.3-.3.6-.5.9-.8-.9-.2-1.7-.1-2.6.1z" fill="#000"/><path d="m32.7 78.8c-.3-.1-.7-.2-1.1-.4l-1.2-.5c-.1.3-.3.6-.5.8.4.2.9.4 1.4.6s.8.3 1.2.4c0-.3.1-.6.2-.9z" fill="#333"/><path d="m28.5 80.5c.7.3 1.3.6 2.1.9.7.3 1.2.5 1.8.6 0-.3 0-.7 0-1-.5-.1-.9-.3-1.5-.5s-1.2-.5-1.7-.7c-.2.2-.4.4-.7.7z" fill="#333"/><path d="m37.9 82.5c-.8-1.7-2-3.1-3.6-4.1-.2-.1-.5-.3-.7-.2h-.1c-.2.1-.3.3-.3.5v.2c-.3 1.8-.1 3.7.6 5.4.4.9 1 1.7 1.8 2.2.5.3 1.1.4 1.6.3l.1-.1h.1c.4-.3.7-.7.8-1.2.3-1.1.2-2.1-.3-3z" fill="#333"/><path d="m32.5 83.2c-.8-.2-1.5-.5-2.3-.8-.9-.3-1.7-.7-2.5-1.1-.3.2-.6.4-.9.5l-.2.2c.1 1.2.7 2.2 1.7 2.9l-.3.9 1-.7c1.3.3 2.6 0 3.7-.8 0-.1 0-.1-.1-.2 0-.3-.1-.6-.1-.9zm-1.4 1.6c-.5-.2-1.1-.4-1.7-.6s-1.3-.5-1.9-.8c-.2-.4-.4-.9-.4-1.3.9.4 1.8.9 2.7 1.2 1 .4 1.6.6 2.5.9-.4.2-.8.4-1.2.6z" fill="#333"/><path d="m30.1 77.6.1-.1c.1-.2.2-.4.1-.6v-.1c-.1-.2-.5-.3-.7-.3-1.8-.3-3.7-.2-5.4.5-1 .4-1.8 1-2.4 1.9-.3.4-.4 1-.2 1.5l.1.1v.1c.3.5.8.8 1.4.9 1 .2 2 0 2.9-.4 1.6-.8 3.1-2 4.1-3.5z" fill="#333"/><path d="m30.3 77.4v-.2c0-.2 0-.3 0-.5v-.1c-.1-.2-.4-.1-.5 0-1.4.4-2.6 1.2-3.5 2.3-.6.7-1 1.5-1.2 2.4-.1.5-.1.9.2 1.3l.1.1c.3.3.7.4 1.1.3.7-.2 1.4-.7 1.8-1.3 1-1.2 1.7-2.7 2-4.3z" fill="#333"/><path d="m34.2 78.7s-.1-.1-.1-.1c-.1-.2-.2-.3-.3-.4-.2 0-.3.2-.4.3-.8 1.2-1.3 2.5-1.4 4 0 .9.1 1.8.5 2.6.2.4.5.8 1 1 .4.1.8-.1 1.1-.5.4-.6.7-1.4.6-2.1 0-1.8-.3-3.4-1-4.8z" fill="#333"/><path d="m34.9 73.3c-.1 0-.2 0-.3 0-.1-.1-.1-.2-.2-.2h.1c.1-.3.3-.5.6-.6l-.1-.2c-.3.1-.6.4-.7.7-.1-.1-.3-.2-.4-.2-.1-.1-.3-.1-.4-.1.1-.3.1-.7 0-1h-.3c.1.3.1.6 0 .9-.1 0-.2 0-.3 0-.1-.1-.1-.2-.2-.2-.3-.1-.6 0-.7.3v.3c-.3.2-.5.5-.6.8-.4 1 .1 2.1 1.1 2.5s2.1-.1 2.5-1.1c.1-.3.2-.6.1-1 .1-.1.2-.1.2-.2 0-.4-.1-.6-.4-.7z" fill="#333"/><path d="m34.8 76.6-.3-.4-.4.2.2.3c.1.1.1.3.2.4-.3-.1-.6-.2-.9-.3-.5 0-1 0-1.4-.2-.5-.2-.9-.4-1.3-.8-.3-.1-.5-.3-.8-.4l.3-.2.6-.2c-.2-.1-.2-.4-.2-.4l-.6.3c-.6.3-1.2.7-1.6 1.1h.7.3c.5 0 .8.1 1 .4 0 .1.1.1.1.2.4.2.9.4 1.4.6s.8.3 1.2.4c.1 0 .1-.1.2-.1.3-.1.7.1 1 .4.3.2.5.4.7.7 0-.8-.2-1.4-.4-2z" fill="#333"/><path d="m89.9 42.4c-.1.3-.2.7-.4 1.1-.1.4-.3.8-.5 1.2.3.1.6.3.8.4.2-.5.4-.9.6-1.4s.3-.8.4-1.2c-.3 0-.6 0-.9-.1z" fill="#000"/><path d="m91.6 46.5c.3-.7.6-1.4.9-2.1s.4-1.2.6-1.8c-.3 0-.7 0-1 0-.2.5-.3.9-.5 1.4s-.5 1.2-.7 1.7c.2.4.4.6.7.8z" fill="#000"/><path d="m93.5 37.1c-1.7.8-3.1 2-4.1 3.6-.1.2-.3.5-.2.7v.1c.1.2.3.3.5.3h.2c1.8.3 3.7 0 5.3-.7.9-.4 1.7-1 2.2-1.8.3-.5.4-1.1.2-1.6l-.1-.1v-.1c-.3-.5-.7-.8-1.3-.9-.8-.1-1.8.1-2.7.5z" fill="#000"/><path d="m94.3 42.5c-.2.8-.5 1.5-.8 2.3s-.7 1.8-1.1 2.6c.2.3.4.5.6.8l.1.2c1.2-.1 2.2-.8 2.9-1.7l.9.2-.6-.9c.2-1.3-.1-2.6-.9-3.7l-.2.1c-.3 0-.6.1-.9.1zm1.6 1.4c-.2.5-.4 1.1-.6 1.7s-.5 1.3-.8 1.9c-.4.2-.9.4-1.3.5.4-.9.8-1.8 1.2-2.8s.6-1.7.8-2.5c.3.4.5.8.7 1.2z" fill="#000"/><path d="m88.7 44.9s-.1-.1-.1-.1c-.2-.1-.4-.2-.6-.1h-.1c-.2.1-.3.5-.3.7-.3 1.8-.2 3.7.5 5.4.4 1 1.1 1.8 1.9 2.3.4.3 1 .4 1.5.2l.1-.1h.1c.5-.3.8-.8.9-1.4.2-1 0-2-.4-2.9-.7-1.5-1.9-2.9-3.5-4z" fill="#000"/><path d="m88.5 44.8h-.2c-.2 0-.4 0-.5 0h-.1c-.2.1-.1.4 0 .5.4 1.4 1.2 2.6 2.4 3.5.7.6 1.5 1 2.4 1.1.5.1.9 0 1.3-.2h.1.1c.3-.3.4-.7.3-1.1-.2-.7-.7-1.4-1.3-1.8-1.4-1-2.9-1.7-4.5-2z" fill="#000"/><path d="m89.7 40.9-.2.1c-.2.1-.3.2-.4.3 0 .2.2.3.3.4 1.2.8 2.6 1.3 4 1.3.9 0 1.8-.2 2.6-.6.4-.2.8-.5.9-1v-.1c.1-.4-.1-.8-.5-1-.6-.4-1.4-.6-2.2-.6-1.5.2-3.1.6-4.5 1.2z" fill="#000"/><path d="m84.3 40.3v.3l-.2.2c-.3-.1-.5-.3-.6-.6l-.2.1c.1.3.4.6.7.7-.1.1-.2.3-.2.4-.1.1-.1.3-.1.4-.3-.1-.7-.1-1 0v.3c.3-.1.6-.1.9 0v.3c-.1.1-.2.1-.2.2-.1.3 0 .5.3.6h.3c.2.3.5.5.8.6 1 .4 2.1-.1 2.5-1.1s-.1-2.1-1.1-2.5c-.3-.1-.7-.2-1-.1 0 0-.1-.1-.2-.1-.3-.1-.6 0-.7.3z" fill="#000"/><path d="m87.6 40.3-.4.3.2.4.3-.2.4-.2-.3.9c.1 1-.3 2-.9 2.7l-.4.8c-.1-.1-.1-.2-.2-.3l-.3-.4c-.1.2-.4.2-.4.2l.3.6c.3.6.7 1.2 1.2 1.6 0-.2 0-.5 0-.7 0-.1 0-.2 0-.3 0-.4.1-.8.4-1 0 0 .1-.1.2-.1.2-.5.4-.9.6-1.4.2-.4.3-.8.4-1.2 0-.1-.1-.1-.1-.2-.1-.4.1-.8.4-1 .2-.3.4-.5.6-.7-.7-.2-1.3-.1-2 .2z" fill="#000"/><path d="m51.4 57.2 2.3-6.8s9.9-6.1 17.2 4.4l.3 2.7-2.1 5.6-2.3 1.7-12-2.9c-1.4-1.3-2.6-2.9-3.4-4.7z" fill="#ffce08"/><path d="m59.3 53.6c-.2.7-.5 1.3-.7 2-.3.7-.7 1.6-.9 2.3.5.3 1.1.5 1.5.9.4-.8.7-1.7 1.1-2.6s.6-1.5.8-2.3c-.6 0-1.2-.2-1.8-.3z" fill="#000"/><path d="m62.6 61.5c.6-1.3 1.1-2.6 1.7-4 .4-1.1.8-2.3 1.1-3.4-.6 0-1.3 0-1.9 0-.3.9-.6 1.8-.9 2.7-.5 1.2-.9 2.3-1.4 3.3.4.5.9.9 1.4 1.4z" fill="#000"/><path d="m66.2 43.5c-3.2 1.5-5.9 3.9-7.8 6.9h-.1c-.2.3-.6 1-.4 1.4v.1.1c.2.3.6.5 1 .6l.3.1h.1c3.5.5 7 0 10.2-1.3 1.7-.7 3.2-2 4.3-3.5.6-.9.8-2 .5-3.1l-.1-.2-.1-.1c-.5-.9-1.4-1.5-2.5-1.7-1.7-.5-3.7-.2-5.4.7z" fill="#000"/><path d="m67.7 53.9c-.4 1.4-.9 2.9-1.5 4.4-.7 1.7-1.4 3.4-2.1 4.9.4.5.8 1.1 1.2 1.6l.2.3c2.2-.3 4.2-1.4 5.5-3.3l1.9.4-.1-.2.1.2-1.3-1.8c.5-2.5-.1-5-1.6-7.1l-.4.1c-.6.3-1.3.4-1.9.5zm3.1 2.7c-.3 1.1-.7 2.1-1.1 3.2s-1 2.4-1.5 3.6c-.8.4-1.6.7-2.5.9.8-1.7 1.6-3.5 2.3-5.3.6-1.6 1.1-3.2 1.5-4.7.6.6 1 1.4 1.3 2.3z" fill="#000"/><path d="m57 58.5c-.1-.1-.2-.1-.3-.2-.3-.2-.7-.4-1.1-.3h-.1-.1c-.4.2-.6.9-.6 1.3-.6 3.5-.2 7.1 1.1 10.3.7 1.8 1.9 3.4 3.5 4.5.9.6 1.9.7 2.9.4l.2-.1h.1l.1-.1c1-.6 1.6-1.5 1.7-2.6.3-1.9 0-3.8-.8-5.5-1.3-3-3.6-5.7-6.6-7.7z" fill="#000"/><path d="m56.7 58.1-.3-.1c-.3-.1-.7 0-1 .1l-.1.1c-.3.2-.2.7-.1 1 .8 2.6 2.4 4.9 4.5 6.6 1.3 1.1 2.9 1.8 4.6 2.2.9.2 1.8.1 2.6-.4l.1-.1.1-.1c.6-.5.8-1.4.5-2.1-.5-1.4-1.4-2.6-2.6-3.5-2.4-1.8-5.3-3.1-8.2-3.7z" fill="#000"/><path d="m59 50.8-.2.2c-.3.1-.6.4-.8.7-.1.3.3.7.5.9 2.2 1.6 4.9 2.4 7.6 2.5 1.7.1 3.4-.2 5-1 .8-.4 1.5-1 1.8-1.9v-.1-.1c.1-.8-.2-1.6-.9-2-1.2-.8-2.7-1.2-4.2-1.2-2.9 0-5.9.6-8.8 2z" fill="#000"/><path d="m48.7 49.4c-.1.2-.1.4 0 .6-.2.1-.3.3-.5.4h-.2c-.5-.2-.9-.6-1.2-1.1l-.3.2c.2.6.7 1.1 1.3 1.4-.2.2-.3.5-.4.8s-.2.6-.2.9c-.6-.2-1.3-.2-1.9 0v.5c.6-.2 1.2-.2 1.8-.1h.1c0 .2 0 .4.1.6-.2.1-.3.3-.4.5-.2.5.1 1 .6 1.2.2.1.4.1.6 0 .4.5 1 .9 1.6 1.1 1.9.7 4.1-.3 4.8-2.2s-.3-4.1-2.2-4.8c-.6-.2-1.3-.3-1.9-.2-.1-.2-.3-.3-.5-.4-.5-.1-1 .2-1.2.6z" fill="#000"/><path d="m55 49.6-.9.5.4.7.7-.3c.2-.1.5-.2.7-.3-.2.6-.3 1.1-.5 1.7.1.9-.1 1.9-.4 2.7-.3.9-.9 1.7-1.5 2.4l-.7 1.6c-.1-.2-.2-.5-.3-.7l-.5-.9c-.2.3-.8.4-.8.4l.5 1.1c.6 1.2 1.3 2.3 2.3 3.2 0-.4-.1-.9 0-1.4 0-.2 0-.5.1-.7-.1-.7.2-1.5.8-2l.1-.1c.1-.1.2-.1.4-.2.4-.9.7-1.7 1.1-2.6.3-.9.6-1.5.8-2.3-.1-.1-.2-.2-.2-.3-.2-.6.1-1.3.7-2 .4-.5.8-1 1.2-1.4-1.4 0-2.7.3-4 .9z" fill="#000"/></g></g></svg>