<svg enable-background="new 0 0 110.979 128.417" height="128.417" viewBox="0 0 110.979 128.417" width="110.979" xmlns="http://www.w3.org/2000/svg"><path d="m110.979 96.171-55.499 32.058-55.5-32.058v-64.115l55.5-32.056 55.499 32.056z" fill="#190c3c"/><path d="m101.923 38.139v53.14l-.01.01-.3.18-.15.08c-.01.01-.01.01-.02.01l-.16.091-.79.449-6.28 3.62-2.72 1.57-.24.13-.13.05-.11.07-2.779 1.6-.25.141-.271.16-.63.359-.67.38-.3.17-.04.03-.76.44-.87.5-.28.159-1 .58-.34.2-.87.521-1.38.79-1.46.85-.181.09-.02.021-1.71.979-.96.561-4.62 2.67-.38.22-.25.14-.061.03-1.54.9-.239.13-.38.22-1.19.69-.15.09-.449.26-.9.521-.43.25-1.15.659-1.11.641-.01.01-.43.25-1.45.84-.11.061-1.819 1.05-.65.37-1.35.779-.971.561-.729.42-3.05-1.76-.65-.38-1.81-1.04-.13-.08-1.69-.971-.24-.14-.04-.03-1.01-.58-.1-.06-.96-.55-.05-.03-.49-.28-.87-.51-1.3-.75-.5-.29-.6-.35-1.55-.9-.3-.17-.39-.22-5.09-2.95-.39-.22-.49-.28-.33-.2-1.85-1.06-.57-.33-.57-.33-1.14-.66-.16-.09-1.24-.72-.43-.25-.26-.15-.42-.25-.17-.1-1.94-1.11-.16-.09-.64-.37-.09-.05-.4-.23-3.45-2-.82-.47-.78-.45-.22-.13-1.11-.65-6.83-3.939-.08-.04-.59-.34v-53.14l.91-.52.27-.16 2.02-1.17.46-.26 2.85-1.64.27-.16 2.79-1.61.82-.47.62-.36.27-.16 1.65-.95.29-.17.27-.16.41-.23.19-.11.24-.14 1.99-1.16 4.02-2.31.8-.46.11-.06 1.58-.92.17-.09 1.66-.95 1.16-.67 1.54-.91.52-.3 2.28-1.3.69-.41 1.46-.83 5.72-3.3.46-.27 2.23-1.29 3.84-2.22 1.44-.83 1.061.62 6.489 3.75 13.62 7.86.45.26.04.02.36.21.06.03 1.04.61 1.9 1.08.399.23.87.5 1.521.88 1.369.79.03.02.521.3.25.14.09.06.7.4 1.109.64 3.78 2.18.02.01.021.02v.01l.26.14.66.39 1.46.84 1.94 1.12.779.44.44.25 1.939 1.12z" fill="#fff"/><path d="m9.826 38.141v53.121l46.072 26.559 46.074-26.559v-53.121l-46.074-26.561zm90.281 1.08v50.971l-44.209 25.489-44.211-25.489v-50.971l44.211-25.489z" opacity=".13"/><path d="m99.103 36.508-1.939-1.12-.44-.25-.779-.44-1.94-1.12-1.46-.84-.66-.39-.26-.14v-.01l-.021-.02c-.01.01-.029.01-.039.01-2.221.39-4.461.84-6.711.98-9.09.58-18.84.76-27.1-3.7-3.79-2.04-7.89-5.55-7.96-10.22-.03-1.62.37-3.18 1.1-4.61h-.25l-2.23 1.29-.46.27-5.72 3.3-1.46.83-.69.41-2.28 1.3-.52.3-1.54.91-1.16.67-1.66.95-.17.09-1.39.81c-.346.229-.71.438-1.106.612.002.006.003.012.006.019l-4.02 2.31-1.99 1.16-.24.14-.19.11-.41.23-.27.16-.29.17-1.65.95-.27.16-.62.36-.82.47-2.79 1.61-.27.16-2.85 1.64-.46.26-2.02 1.17-.27.16-.91.52v.959c.201 1.054.197 2.136 0 3.185v18.166h92v-22.31z" fill="#c0ffc0"/><circle cx="36.772" cy="51.216" fill="#f9fceb" r="14.406"/><path d="m11.482 42.087c3.002 1.214 6.005 2.426 9.007 3.639.545.221.78-.661.242-.879-3.002-1.213-6.004-2.426-9.006-3.639-.546-.22-.78.662-.243.879z" fill="#f9fceb"/><path d="m18.554 50.758c-2.88-.22-5.75-.45-8.63-.67v-.91c2.86.23 5.72.45 8.59.67.579.05.619.961.04.91z" fill="#f9fceb"/><path d="m25.023 38.588c-.31-.33-.62-.67-.92-1-.08-.08-.15-.15-.22-.23-.21-.24-.43-.47-.65-.7-.09-.11-.19-.21-.28-.31-1.15-1.25-2.31-2.49-3.46-3.73l.82-.47c1.3 1.41 2.6 2.82 3.91 4.23.09.1.19.21.28.31.08.08.16.17.24.25l.21.24c.24.25.48.51.71.76.4.431-.24 1.081-.64.65z" fill="#f9fceb"/><path d="m33.624 33.548c-.02-.05-.04-.11-.06-.16-.02-.07-.05-.15-.07-.22-.01-.03-.02-.07-.04-.1v-.01c-.02-.07-.05-.15-.07-.22-.01-.01-.01-.03-.02-.04-.01-.04-.02-.07-.03-.11-.48-1.44-.97-2.87-1.45-4.31-.04-.13-.08-.25-.12-.38-.02-.03-.03-.07-.04-.1-.02-.06-.04-.11-.06-.17 0-.01 0-.01 0-.02-.01-.01-.01-.01-.01-.02-.01-.03-.02-.06-.03-.09 0-.01-.01-.02-.01-.04-.03-.07-.05-.15-.08-.22-.15-.459-.31-.918-.459-1.376-.259.154-.533.292-.817.418.002.006.003.012.006.019.19.56.37 1.13.56 1.69.04.11.08.22.11.33.34 1 .67 2 1.01 3 .16.47.31.93.47 1.4.21.63.42 1.25.63 1.88.08.24.16.48.24.72.18.55 1.06.31.88-.25-.181-.541-.36-1.081-.54-1.621z" fill="#f9fceb"/><path d="m41.494 25.538c-.504 3.2-1.008 6.397-1.512 9.597-.09.574.788.822.879.242.503-3.198 1.007-6.397 1.511-9.597.09-.574-.787-.822-.878-.242z" fill="#f9fceb"/><path d="m42.22 24.342c.023-.007.048-.011.073-.018.242-.054.382-.329.319-.561-.068-.247-.319-.373-.561-.318-.024.006-.049.011-.074.017-.242.055-.383.329-.318.561.069.248.318.373.561.319z" fill="#f9fceb"/><path d="m51.27 29.3c-1.792 2.698-3.583 5.396-5.373 8.094-.327.491.464.947.787.46 1.79-2.698 3.581-5.396 5.372-8.094.327-.491-.464-.946-.786-.46z" fill="#f9fceb"/><path d="m52.425 28.44c.023.005.049.01.074.016.243.051.492-.067.56-.317.063-.228-.074-.51-.318-.562-.025-.004-.049-.01-.075-.015-.242-.051-.49.067-.56.318-.064.228.074.51.319.56z" fill="#f9fceb"/><path d="m58.83 35.357c-2.715 1.767-5.427 3.535-8.14 5.302-.491.319-.036 1.109.459.788 2.714-1.768 5.426-3.534 8.14-5.302.491-.32.033-1.109-.459-.788z" fill="#f9fceb"/><path d="m60.245 35.091c.021.015.041.029.062.044.204.143.507.036.623-.164.136-.229.04-.481-.162-.623-.021-.015-.042-.029-.063-.043-.201-.145-.504-.038-.622.162-.135.228-.041.481.162.624z" fill="#f9fceb"/><path d="m61.833 47.206c-3.066 1.044-6.132 2.087-9.198 3.132-.553.188-.315 1.068.243.877 3.065-1.042 6.131-2.086 9.196-3.13.555-.188.316-1.068-.241-.879z" fill="#f9fceb"/><path d="m66.05 46.271c.018.019.034.038.052.057.16.189.478.167.644 0 .186-.184.163-.456 0-.644-.018-.02-.033-.039-.051-.058-.162-.188-.479-.165-.645 0-.184.187-.161.458 0 .645z" fill="#7bff8e"/><path d="m78.933 104.508.181-.09 1.46-.85 1.38-.79.87-.521.34-.2 1-.58.28-.159.87-.5.76-.44.04-.03.3-.17.67-.38.63-.359.271-.16.25-.141 2.779-1.6.11-.07.13-.05.24-.13 2.72-1.57 6.28-3.62.79-.449.16-.091c.01 0 .01 0 .02-.01l.15-.08.3-.18.01-.01v-39.58c-.229-.04-.399.1-.47.27-.47.33-.96.59-1.45.81-1.13.19-2.22.52-3.3.9-.87.16-1.771.29-2.67.47-1.37-.45-2.681-.98-4.12-1.15-1.32-.15-2.62.75-3.8 1.16-1.66.58-3.54-.56-5.07-1.11-.79-.28-1.63-.39-2.479-.43-.221-.01-.44-.01-.66-.01-.08-.01-.15-.01-.23-.01h-1.13c-.08 0-.15.02-.21.05-.8-.61-1.89-.88-2.82-1.17-1.59-.49-3.18-.67-4.84-.69-1.87-.02-3.689.41-5.55.5-.45.02-1.13 0-1.79.06-.04 0-.07 0-.11.01-.31.03-.62.07-.899.15-.36.09-.681.24-.891.45-.069.08-.109.16-.119.25-2.25.53-4.63.21-6.871.84-.49.14-.98.31-1.46.49-.79.3-1.57.63-2.38.89-1.65.53-3.41.45-5.12.38-3.33-.15-6.84-.79-9.65-2.67-2.15-1.43-3.69-2.48-6.33-1.55-.08.03-.14.08-.19.13-.81.23-2.26-.49-3.01-.68-.68-.17-1.27-.19-1.88-.09-.37.05-.75.15-1.16.27-1.54.45-2.99 1.2-4.45 1.84-.7.31-1.34.74-2.04 1.01-.23.09-1.59-.68-2.04-.73-.91-.09-1.86.06-2.81.23v38.71l.59.34v.12c.03-.03.05-.061.08-.08l6.83 3.939 1.11.65.22.13.78.45.82.47 3.45 2 .4.23.09.05.64.37.16.09 1.94 1.11.17.1.42.25.26.15.43.25 1.24.72.16.09 1.14.66.57.33.57.33 1.85 1.06.33.2.49.28.39.22 5.09 2.95.39.22.3.17 1.55.9.6.35.5.29 1.3.75.87.51.49.28.05.03.96.55.1.06 1.01.58.04.03.24.14 1.69.971.13.08 1.81 1.04.65.38 3.05 1.76.729-.42.971-.561 1.35-.779.65-.37 1.819-1.05.11-.061 1.45-.84.43-.25.01-.01 1.11-.641 1.15-.659.43-.25.9-.521.449-.26.15-.09 1.19-.69.38-.22.239-.13 1.54-.9.061-.03.25-.14.38-.22 4.62-2.67.96-.561 1.71-.979z" fill="#77e084"/><path d="m91.053 69.289c-.01.07-.02.14-.029.2-.011.06-.021.109-.03.16-.031-.54.059-.761.059-.36z" fill="#77e084"/><path d="m68.124 51.708c.41-.02.84-.03 1.27-.02-.67.02-1.34.05-1.989.07.238-.02.478-.04.719-.05z" fill="#77e084"/><path d="m18.543 52.278c-.22.13-.44.25-.67.37-.08.04-.15.08-.2.11-.08.03-.17.06-.3.11-.14.06-.28.11-.43.16.531-.259 1.06-.509 1.6-.75z" fill="#77e084"/><circle cx="35.778" cy="40.802" fill="#f8fffc" r=".334"/><path d="m36.253 40.718c-.01-.05-.03-.1-.05-.15-.01-.03-.03-.05-.06-.08-.03-.04-.07-.08-.11-.09-.05-.05-.1-.07-.16-.07-.03-.02-.06-.02-.1-.02h-.01c-.03 0-.04.01-.07.01-.06.01-.11.03-.16.06-.02.01-.04.03-.06.05-.08.06-.13.14-.16.23-.02.07-.02.15-.01.23.01.05.03.1.05.15.05.09.13.17.23.2.06.04.12.05.19.05.03 0 .06 0 .09-.01.08-.01.14-.04.2-.09.04-.02.08-.06.11-.11 0-.01.01-.01.01-.02.07-.1.101-.22.07-.34zm-.66.12c-.01-.1.05-.2.15-.22h.04c.08 0 .16.06.18.15 0 .05-.01.1-.04.14-.02.04-.07.06-.11.07-.1.021-.2-.049-.22-.14z" fill="#12ad5f"/><circle cx="37.533" cy="42.704" fill="#f8fffc" r=".334"/><path d="m37.974 42.519v-.01c-.04-.1-.12-.18-.21-.22-.09-.06-.2-.08-.32-.06-.04.01-.07.02-.1.04-.1.03-.18.1-.23.19-.06.09-.08.21-.06.33.01.03.01.06.03.08.03.1.1.19.19.24.08.05.16.08.26.08h.09c.12-.03.23-.1.31-.21.03-.04.05-.09.07-.13.02-.07.02-.15.01-.23-.011-.04-.02-.071-.04-.1zm-.62.219c-.02-.1.05-.2.15-.21.01-.01.02-.01.03-.01.09 0 .16.07.18.15.01.05 0 .1-.03.14s-.07.07-.12.07c-.101.02-.19-.04-.21-.14z" fill="#12ad5f"/><circle cx="27.211" cy="39.675" fill="#f8fffc" r=".334"/><path d="m27.653 39.479c-.09-.2-.3-.32-.53-.28-.05.01-.09.02-.13.05-.07.03-.14.08-.18.15-.02.02-.03.05-.04.08-.02.02-.03.04-.03.07-.02.06-.02.14-.01.21.01.04.02.07.04.1 0 .03.02.06.04.08.04.08.12.14.21.18l.02.01c.05.02.11.03.17.03.02 0 .05 0 .08-.01.02 0 .04-.01.05-.02.11-.02.19-.08.26-.17l.01-.01c.04-.05.06-.1.07-.16.02-.06.02-.13.01-.2-.009-.041-.02-.081-.04-.11zm-.619.229c-.01-.05 0-.1.03-.14s.07-.06.12-.07c.01-.01.02-.01.03-.01.09 0 .16.07.18.15.01.05-.01.1-.03.14-.03.04-.07.07-.12.08-.1.011-.201-.049-.21-.15z" fill="#12ad5f"/><circle cx="30.775" cy="46.58" fill="#f8fffc" r=".334"/><path d="m31.193 46.338c0-.01-.02-.02-.02-.02-.03-.06-.09-.12-.15-.15h-.01c-.02-.02-.04-.04-.07-.05-.08-.03-.16-.04-.25-.02-.02 0-.04.01-.05.02-.11.02-.19.09-.26.17l-.01.01c-.06.09-.09.2-.09.31 0 .02.01.04.01.06.02.09.06.18.13.24.08.1.21.16.35.16.03 0 .06-.01.09-.01.26-.05.44-.3.39-.56-.009-.06-.029-.109-.06-.16zm-.6.27c-.01-.05 0-.09.03-.13s.07-.07.12-.08h.03c.09 0 .17.06.18.15.02.1-.05.19-.15.21-.099.02-.19-.05-.21-.15z" fill="#12ad5f"/><circle cx="42.097" cy="38.282" fill="#f8fffc" r=".334"/><path d="m42.483 37.988c-.01 0-.01-.01-.01-.01-.03-.03-.05-.06-.08-.08-.09-.07-.22-.11-.35-.09h-.01c-.01 0-.01 0-.02 0h-.02c-.11.02-.19.07-.26.16-.08.08-.13.2-.13.33 0 .03.01.04.01.07.02.08.05.14.09.2l.01.02c.01 0 .01 0 .02.01.07.08.16.14.27.15.03.02.06.02.09.02s.06 0 .09-.01c.04-.01.08-.02.12-.05.08-.02.14-.08.19-.15.07-.09.1-.19.08-.31v-.05c-.01-.079-.05-.15-.09-.21zm-.42.111h.03c.09 0 .17.06.18.15.01.05 0 .1-.03.14-.02.04-.07.06-.12.07-.09.02-.19-.05-.21-.14-.01-.101.05-.2.15-.22z" fill="#12ad5f"/><circle cx="46.531" cy="41.937" fill="#f8fffc" r=".335"/><path d="m46.983 41.769v-.01c0-.02-.01-.03-.02-.04-.04-.09-.12-.17-.21-.21-.05-.03-.11-.05-.17-.05-.04-.01-.09-.01-.14 0-.06.01-.11.03-.16.06-.06.03-.11.08-.15.14-.08.11-.1.23-.08.36 0 .01 0 .01.01.02.02.11.07.2.15.26.08.08.2.12.32.12h.08c.17-.04.31-.15.37-.3.03-.08.04-.17.03-.27-.01-.031-.01-.051-.03-.08zm-.629.199c-.01-.05 0-.1.03-.14.02-.04.07-.06.12-.07h.03c.09 0 .16.06.18.15s-.05.19-.15.21c-.101.01-.19-.05-.21-.15z" fill="#12ad5f"/><circle cx="39.715" cy="35.122" fill="#f8fffc" r=".334"/><path d="m40.144 34.889c-.03-.04-.06-.08-.1-.12-.06-.06-.14-.11-.24-.12-.05-.02-.11-.02-.17-.01-.05.01-.1.03-.14.05-.1.05-.18.14-.22.24-.04.08-.05.18-.04.28 0 .01 0 .02.01.03.01.06.03.11.06.15.06.09.15.15.24.19.06.02.11.03.17.03.03 0 .06 0 .09-.01h.01c.09-.02.18-.06.24-.13.01 0 .02-.01.02-.03.02-.01.03-.02.04-.04.05-.07.08-.13.08-.21v-.01c.01-.04.01-.09 0-.14-.01-.051-.03-.101-.05-.15zm-.46.049h.03c.09 0 .17.06.18.15.01.05 0 .1-.03.14s-.07.06-.12.07c-.1.02-.19-.05-.21-.15-.02-.089.049-.19.15-.21z" fill="#12ad5f"/><circle cx="42.103" cy="44.035" fill="#f8fffc" r=".335"/><path d="m42.574 43.918c-.02-.08-.05-.15-.11-.2-.03-.04-.07-.08-.12-.1-.05-.04-.12-.06-.19-.06-.04-.01-.09-.01-.13 0-.09.01-.18.05-.25.13-.03.01-.05.04-.07.07-.04.06-.07.13-.08.2-.01.05-.01.11 0 .16.04.23.24.4.48.4h.08c.15-.03.27-.12.34-.24.05-.08.08-.18.06-.28v-.03c0-.01 0-.01 0-.02-.001-.01-.001-.019-.01-.03zm-.651.15c-.01-.05 0-.1.03-.14s.07-.07.12-.07c.01-.01.02-.01.03-.01.09 0 .16.07.18.15.02.1-.05.2-.15.22-.099.011-.19-.05-.21-.15z" fill="#12ad5f"/><circle cx="61.325" cy="36.248" fill="#f8fffc" r=".335"/><path d="m61.803 36.159c-.02-.1-.06-.18-.14-.25-.1-.11-.26-.17-.42-.14-.03 0-.061.01-.08.03-.1.02-.18.08-.24.17v.01c-.05.07-.07.14-.08.21-.01.04-.01.09 0 .14.01.06.03.11.061.16 0 .01.02.03.029.05.061.09.15.15.25.18h.011c.04.01.09.02.13.02.029 0 .06-.01.09-.01.01 0 .01 0 .02-.01.101-.01.19-.07.261-.16.01 0 .02-.02.029-.03.061-.1.091-.21.091-.32-.012-.021-.012-.03-.012-.05zm-.45.27c-.1.02-.189-.05-.21-.15-.01-.05 0-.1.03-.13.03-.04.07-.07.12-.08h.03c.09 0 .17.06.18.15.01.05 0 .09-.03.13-.029.04-.069.069-.12.08z" fill="#12ad5f"/><circle cx="54.72" cy="45.633" fill="#f8fffc" r=".335"/><path d="m55.184 45.488c-.01-.04-.03-.08-.05-.11 0-.01-.01-.02-.02-.03-.08-.11-.21-.19-.35-.19-.04-.01-.09-.01-.13 0-.06.01-.12.03-.17.07-.09.05-.16.13-.2.23-.03.08-.04.17-.02.26 0 .02.01.04.02.06 0 .01 0 .01.01.02v.01c.05.15.19.27.35.29.03.02.06.02.1.02.03 0 .05 0 .08-.01.08-.01.16-.05.22-.1.04-.03.07-.06.1-.1s.05-.08.06-.12c.02-.04.02-.07.02-.11.01-.04.01-.09 0-.13 0-.02-.011-.04-.02-.06zm-.5-.039h.04c.09 0 .16.07.18.15.01.05-.01.1-.03.14-.03.04-.07.07-.12.07-.1.02-.2-.05-.21-.14-.021-.101.049-.201.14-.22z" fill="#12ad5f"/><circle cx="72.627" cy="35.942" fill="#f8fffc" r=".335"/><path d="m72.543 35.458c-.27.05-.44.3-.4.57 0 .01 0 .01.011.02.029.12.1.22.189.29l.061.03c.069.04.14.06.22.06h.02c.021 0 .051 0 .07-.01.26-.04.44-.3.39-.56-.04-.259-.29-.44-.561-.4zm-.099.51c-.011-.09.05-.19.149-.21h.03c.09 0 .17.06.18.15.021.1-.05.2-.14.21-.099.021-.2-.05-.219-.15z" fill="#12ad5f"/><circle cx="67.311" cy="35.987" fill="#f8fffc" r=".335"/><path d="m67.753 35.789c-.09-.2-.3-.32-.53-.28-.13.02-.239.09-.31.2-.01.02-.03.04-.03.06-.06.1-.069.2-.05.3.01.08.04.15.11.21.05.09.149.16.27.17.03.02.061.02.101.02h.079l.011-.01c.109-.02.21-.08.279-.16.011-.01.021-.02.03-.03.04-.06.061-.12.08-.18.01-.06.01-.13 0-.19-.009-.041-.019-.081-.04-.11zm-.41.379c-.1.02-.2-.05-.21-.15-.01-.05 0-.1.03-.14s.07-.06.12-.07h.03c.09 0 .159.06.18.15.01.04 0 .09-.03.13s-.07.071-.12.08z" fill="#12ad5f"/><circle cx="71.351" cy="40.292" fill="#f8fffc" r=".334"/><path d="m71.713 39.979v-.01c-.06-.06-.13-.11-.21-.13-.08-.03-.16-.04-.24-.02-.04.01-.08.02-.109.04-.101.04-.181.11-.221.2-.04.05-.06.11-.06.18-.01.05-.01.09 0 .14s.03.09.05.14v.01c.01.01.01.01.01.02.091.14.24.23.42.23.021 0 .051 0 .08-.01.271-.04.44-.3.4-.56-.019-.09-.059-.17-.12-.23zm-.54.35c-.02-.1.05-.2.141-.22h.039c.091 0 .16.06.181.15.01.1-.05.2-.15.21-.1.019-.19-.051-.211-.14z" fill="#12ad5f"/><circle cx="51.046" cy="37.115" fill="#f8fffc" r=".335"/><path d="m51.514 37.019c0-.01 0-.01 0-.01 0-.03-.01-.06-.03-.09-.06-.16-.21-.27-.38-.28-.04-.01-.09-.01-.14 0-.06.01-.12.03-.17.07-.02 0-.04.02-.06.04-.04.02-.06.05-.09.09-.04.05-.06.11-.08.17-.01.06-.01.13 0 .19.01.05.03.1.05.14.05.09.13.17.22.2.05.04.11.05.17.05.01.01.03.01.04.01h.09c.06-.02.11-.04.17-.08h.01c.05-.03.1-.08.13-.13.01-.02.02-.03.03-.05.02-.03.03-.06.04-.1.02-.06.02-.14.01-.21zm-.651.129c-.01-.05 0-.1.03-.14s.07-.06.12-.07c.01 0 .02-.01.03-.01.09 0 .17.07.18.16.01.04 0 .09-.03.13s-.07.07-.12.08c-.099.011-.19-.049-.21-.15z" fill="#12ad5f"/><circle cx="44.053" cy="34.228" fill="#f8fffc" r=".334"/><g fill="#12ad5f"><path d="m44.503 34.059c-.01-.06-.04-.11-.09-.15-.06-.08-.16-.14-.26-.15-.06-.02-.12-.02-.19-.01-.02 0-.04.01-.05.02-.1.02-.18.08-.25.17l-.01.01c-.05.07-.07.14-.08.22-.01.04-.01.09 0 .14.01.06.03.11.06.16.02.05.05.09.1.13.05.05.12.09.2.1.02.01.05.02.08.01.01.01.03.01.04.01.03 0 .06-.01.08-.01.01 0 .02-.01.03-.01.03-.01.06-.02.09-.04.07-.02.12-.07.17-.13.01 0 .02-.01.03-.02.03-.04.05-.08.06-.12.02-.08.03-.16.02-.25-.01-.031-.01-.06-.03-.08zm-.629.199c-.01-.05 0-.09.03-.13.03-.05.07-.07.12-.08h.03c.09 0 .16.06.18.15.01.05 0 .09-.03.13s-.07.07-.12.08c-.101.021-.19-.05-.21-.15z"/><path d="m25.469 42.994h7.074v.303h-7.074z" transform="matrix(.4429 .8966 -.8966 .4429 54.8405 -1.9704)"/><path d="m33.151 40.207h.304v6.863h-.304z" transform="matrix(.7574 .6529 -.6529 .7574 36.57 -11.1589)"/><path d="m35.839 41.613h1.795v.305h-1.795z" transform="matrix(.6358 .7718 -.7718 .6358 45.613 -13.145)"/><path d="m38.705 36.473h.304v5.951h-.304z" transform="matrix(.3368 .9416 -.9416 .3368 62.9111 -10.4258)"/><path d="m37.771 43.104h4.138v.304h-4.138z" transform="matrix(.9555 .2951 -.2951 .9555 14.5404 -9.8309)"/><path d="m39.651 41.043h5.169v.304h-5.169z" transform="matrix(.0311 .9995 -.9995 .0311 82.0974 -2.3002)"/><path d="m44.192 41h.303v4.273h-.303z" transform="matrix(.4734 .8808 -.8808 .4734 61.3466 -16.3447)"/><path d="m41.663 37.917h7.414v.303h-7.414z" transform="matrix(.2973 .9548 -.9548 .2973 68.2303 -16.568)"/><path d="m43.026 34.389h.304v3.982h-.304z" transform="matrix(.9265 .3764 -.3764 .9265 16.8675 -13.5759)"/><path d="m44.096 35.398h6.956v.304h-6.956z" transform="matrix(.9178 .3971 -.3971 .9178 18.028 -15.968)"/><path d="m46.404 43.633h8.443v.304h-8.443z" transform="matrix(.8922 .4517 -.4517 .8922 25.235 -18.1456)"/><path d="m48.569 41.222h8.626v.304h-8.626z" transform="matrix(.4123 .911 -.911 .4123 68.7718 -23.8632)"/><path d="m57.339 41.882h.304v5.306h-.304z" transform="matrix(.3945 .9189 -.9189 .3945 75.7345 -25.8625)"/><path d="m51.325 37.463h6.218v.303h-6.218z" transform="matrix(.9838 .1793 -.1793 .9838 7.6254 -9.1495)"/><path d="m59.328 35.174h.303v3.158h-.303z" transform="matrix(.2832 .9591 -.9591 .2832 77.8823 -30.701)"/><path d="m60.324 36.281h.303v2.041h-.303z" transform="matrix(.753 .658 -.658 .753 39.485 -30.5816)"/><path d="m48.654 36.525h.304v5.979h-.304z" transform="matrix(.7331 .6801 -.6801 .7331 39.8973 -22.6469)"/><path d="m43.12 34.482h.303v9.568h-.303z" transform="matrix(.9851 .1722 -.1722 .9851 7.4092 -6.8657)"/><path d="m39.273 36.55h3.265v.304h-3.265z" transform="matrix(.6284 .7779 -.7779 .6284 43.7474 -18.1817)"/><path d="m41.732 32.794h.304v3.76h-.304z" transform="matrix(.2072 .9783 -.9783 .2072 67.1265 -13.4862)"/><path d="m37.568 34.819h.304v6.249h-.304z" transform="matrix(.8231 .568 -.568 .8231 28.2244 -14.7097)"/><path d="m39.624 37.537h.302v5.748h-.302z" transform="matrix(.7191 .6949 -.6949 .7191 39.253 -16.2887)"/><path d="m27.514 39.926h8.087v.303h-8.087z" transform="matrix(.9935 .1141 -.1141 .9935 4.7796 -3.3394)"/><path d="m34.019 41.054h.303v7.053h-.303z" transform="matrix(.4683 .8836 -.8836 .4683 57.5565 -6.4896)"/><path d="m64.142 33.324h.305v5.33h-.305z" transform="matrix(.0288 .9996 -.9996 .0288 98.4176 -29.3158)"/><path d="m66.674 38.02h5.243v.304h-5.243z" transform="matrix(.6998 .7143 -.7143 .6998 48.0696 -38.0406)"/><path d="m69.106 39.086h.304v3.72h-.304z" transform="matrix(.321 .9471 -.9471 .321 85.8025 -37.7913)"/><path d="m66.105 36.089h.303v4.534h-.303z" transform="matrix(.9254 .3789 -.3789 .9254 19.4723 -22.244)"/><path d="m60.624 37.969h3.758v.303h-3.758z" transform="matrix(.5379 .843 -.843 .5379 61.0177 -35.0751)"/><path d="m67.637 35.92h4.804v.304h-4.804z" transform="matrix(.9982 .06 -.06 .9982 2.2894 -4.1355)"/><path d="m71.925 36.205h.304v3.803h-.304z" transform="matrix(.9713 .238 -.238 .9713 11.1401 -16.0589)"/></g><circle cx="38.946" cy="28.816" fill="#f8fffc" r=".335"/><path d="m39.374 28.599c-.11-.24-.42-.34-.65-.22-.06.03-.12.08-.16.14v.01c-.03.04-.06.08-.08.14v.02.01c-.04.11-.03.23.03.34.03.05.06.09.1.13.02.02.05.04.08.06s.08.04.12.05h.01c.04.01.08.02.12.02h.02.03c.02 0 .05-.01.07-.01.04-.01.07-.02.1-.04.04-.02.07-.04.1-.08.01.01.01 0 .02-.02.01 0 .02-.01.03-.02v-.01c.05-.04.08-.09.1-.15.02-.05.02-.1.02-.15 0-.081-.02-.151-.06-.22zm-.34.38c-.09.04-.21.01-.25-.08-.02-.04-.03-.09-.01-.14.01-.05.05-.08.09-.11.03-.01.05-.02.08-.02.07 0 .13.04.16.1.03.05.03.1.02.14-.02.049-.05.089-.09.11z" fill="#12ad5f"/><circle cx="36.713" cy="27.505" fill="#f8fffc" r=".334"/><path d="m37.144 27.289c-.12-.24-.42-.33-.65-.22-.17.09-.27.26-.27.44 0 .08.02.15.06.22.01.03.03.06.06.08l.01.01c.06.08.15.14.26.15.03.02.07.02.1.02.08 0 .15-.02.22-.05.03-.02.06-.04.09-.07.07-.05.12-.12.15-.21.01-.02.01-.03.01-.04v-.01c.029-.121.009-.231-.04-.32zm-.59.299c-.05-.09-.01-.2.08-.25.02-.01.05-.02.08-.02.07 0 .13.04.16.1.02.05.03.1.01.14-.01.05-.04.09-.09.11-.09.04-.201.011-.24-.08z" fill="#12ad5f"/><circle cx="47.47" cy="27.403" fill="#f8fffc" r=".335"/><path d="m47.903 27.179c-.12-.23-.42-.33-.65-.21-.18.09-.28.28-.27.47.01.07.02.13.05.19.02.04.04.07.07.1.01.01.03.02.04.03.08.07.17.12.28.12.02.01.03.01.05.01s.03 0 .05-.01h.01c.05 0 .11-.02.16-.04.04-.02.08-.05.11-.08.02-.01.03-.03.04-.05.07-.08.11-.18.11-.29.01-.081-.01-.161-.05-.24zm-.52.059c.03-.01.06-.02.09-.02.07 0 .13.04.16.1.04.09.01.2-.08.25-.09.04-.2 0-.25-.08-.039-.09-.01-.199.08-.25z" fill="#12ad5f"/><circle cx="33.632" cy="33.063" fill="#f8fffc" r=".335"/><path d="m34.093 32.918c0-.01-.01-.03-.02-.04v-.01c0-.01 0-.02-.01-.03-.03-.05-.07-.1-.12-.14-.02-.02-.04-.03-.06-.04-.09-.06-.2-.09-.31-.08-.05.01-.11.03-.16.05-.03.01-.06.03-.08.06-.01 0-.02.01-.03.02-.14.13-.2.33-.12.51 0 .02.01.04.02.06.05.11.14.19.25.23.05.03.11.04.17.04h.01c.07 0 .15-.02.22-.05 0 0 .01 0 .01-.01.1-.05.17-.13.2-.23.061-.099.07-.23.03-.34zm-.599.25c-.01 0-.02-.01-.02-.02-.01-.03-.02-.06-.02-.08v-.01c0-.07.04-.12.1-.16.02-.01.05-.02.08-.02.07 0 .13.04.16.1.05.09.01.2-.08.25-.081.041-.18.01-.22-.06z" fill="#12ad5f"/><circle cx="28.327" cy="30.855" fill="#f8fffc" r=".335"/><path d="m28.764 30.639c0-.01-.01-.02-.01-.02-.06-.09-.14-.16-.23-.2-.13-.07-.28-.07-.42 0-.11.06-.2.16-.24.29-.01.04-.02.07-.01.11-.02.08 0 .17.04.26.01.03.03.05.05.07 0 .01.01.03.03.04.06.07.16.12.26.14.03.01.06.01.09.01s.06 0 .09-.01c.05-.01.09-.02.13-.04.05-.03.1-.06.14-.1.05-.05.09-.11.11-.18.039-.131.03-.26-.03-.37zm-.6.299c-.02-.04-.02-.09-.01-.14.02-.05.05-.08.09-.11.03-.01.05-.02.08-.02.07 0 .14.04.17.1.02.05.02.1.01.14-.02.05-.05.09-.09.11-.09.041-.21.01-.25-.08z" fill="#12ad5f"/><circle cx="36.829" cy="35.394" fill="#f8fffc" r=".335"/><path d="m37.264 35.179c-.03-.06-.08-.11-.13-.15-.08-.07-.18-.11-.28-.12-.08-.01-.16.01-.24.05-.01 0-.02.01-.02.01-.1.05-.17.13-.2.23-.02.02-.02.03-.03.05-.02.07-.03.15-.01.22 0 .05.01.1.04.15s.06.09.1.12c.09.09.21.14.34.14.07 0 .15-.02.22-.05.08-.04.14-.1.18-.17l.01-.01c.06-.1.08-.21.06-.32 0-.051-.011-.1-.04-.15zm-.6.3c-.02-.04-.02-.09-.01-.14.02-.05.05-.08.09-.11.03-.01.06-.02.09-.02.07 0 .13.04.16.1.04.09.01.2-.08.25-.09.04-.201.009-.25-.08z" fill="#12ad5f"/><circle cx="31.954" cy="27.56" fill="#f8fffc" r=".335"/><path d="m32.423 27.488c0-.05-.01-.1-.04-.15-.11-.23-.42-.33-.65-.21-.1.05-.17.12-.2.21-.02.02-.03.05-.04.07s-.01.04-.01.06c-.02.08-.01.18.02.26 0 .02.01.03.02.05 0 .01.02.02.02.02.03.08.09.14.16.18.02.01.04.02.06.02.02.02.05.03.08.03.03.02.07.02.11.02.03 0 .05 0 .08-.01h.01c.05-.01.09-.02.13-.04.09-.05.16-.12.2-.21.05-.089.07-.189.05-.3zm-.63.151c-.02-.04-.03-.09-.01-.14.01-.04.04-.08.09-.1.02-.01.05-.02.08-.02.07 0 .13.04.16.1.05.09.01.2-.08.24-.09.05-.2.01-.24-.08z" fill="#12ad5f"/><circle cx="25.409" cy="36.781" fill="#f8fffc" r=".335"/><path d="m25.843 36.559c-.02-.04-.06-.08-.09-.12-.07-.07-.17-.12-.27-.13-.06-.01-.11-.01-.17 0-.05.01-.09.02-.13.04s-.08.05-.11.08c-.01.01-.02.03-.03.04-.06.07-.1.15-.11.23-.01.05-.01.1 0 .15 0 .05.02.1.04.15s.05.09.09.12c.09.1.21.15.35.15.03 0 .05 0 .08-.01.05-.01.1-.02.14-.04.05-.03.09-.06.13-.1.02-.02.04-.05.05-.08.03-.03.05-.07.06-.11.02-.06.03-.12.02-.19.001-.06-.019-.12-.05-.18zm-.599.31c-.04-.09-.01-.2.08-.25.03-.01.06-.02.08-.02.07 0 .14.04.17.1.02.04.02.09.01.14-.02.04-.05.08-.09.11-.091.039-.201 0-.25-.08z" fill="#12ad5f"/><circle cx="32.939" cy="37.51" fill="#f8fffc" r=".334"/><path d="m33.374 37.289c-.01-.02-.03-.04-.05-.06-.01-.02-.03-.05-.05-.06-.04-.04-.09-.07-.14-.09-.06-.04-.14-.05-.22-.05-.03 0-.06.01-.09.01-.03.01-.06.03-.1.04-.01 0-.01.01-.02.02-.03.01-.06.03-.08.05-.06.05-.11.11-.13.18-.01.01-.02.02-.02.03-.01.04-.02.07-.01.11-.01.01-.01.02-.01.02-.01.08.01.17.05.24.01.02.03.05.05.07.08.13.23.2.39.2.04 0 .07-.01.11-.01.04-.01.07-.02.11-.04.06-.03.11-.07.16-.13.03-.04.06-.1.08-.16.02-.07.03-.15.01-.23 0-.051-.011-.1-.04-.14zm-.601.31c-.02-.05-.02-.1-.01-.14.02-.05.04-.07.07-.1l.01-.01h.01c.03-.01.06-.02.09-.02.06 0 .13.04.16.1.02.04.02.09.01.14-.02.05-.05.08-.09.1-.089.049-.199.01-.25-.07z" fill="#12ad5f"/><path d="m36.85 28.02h1.795v.304h-1.795z" fill="#12ad5f" transform="matrix(.8327 .5537 -.5537 .8327 21.9131 -16.188)"/><path d="m36.241 28.03h.304v5.95h-.304z" fill="#12ad5f" transform="matrix(.5941 .8044 -.8044 .5941 39.7138 -16.6894)"/><path d="m32.277 27.495h4.138v.304h-4.138z" fill="#12ad5f" transform="matrix(1 .0047 -.0047 1 .1309 -.1618)"/><path d="m30.067 30.164h5.17v.302h-5.17z" fill="#12ad5f" transform="matrix(.32 .9474 -.9474 .32 50.9253 -10.3204)"/><path d="m29.919 26.935h.304v4.273h-.304z" fill="#12ad5f" transform="matrix(.7087 .7055 -.7055 .7087 29.2691 -12.7469)"/><path d="m26.856 34.066h7.412v.304h-7.412z" fill="#12ad5f" transform="matrix(.562 .8271 -.8271 .562 41.6875 -10.2916)"/><path d="m33 33.206h.303v3.981h-.303z" fill="#12ad5f" transform="matrix(.9959 .0902 -.0902 .9959 3.3116 -2.8481)"/><path d="m25.706 37.116h6.957v.305h-6.957z" fill="#12ad5f" transform="matrix(.9936 .1133 -.1133 .9936 4.4093 -3.066)"/><path d="m28.054 30.858-.02.141v.009l-.02.091-.011.06h-.02l-.04-.011-4.529-.799.41-.23 4.03.699.14.031z" fill="#12ad5f"/><path d="m25.374 36.378-.11.101-.12.1-.07-.08-.031-.031-.06-.07-4.049-4.609.27-.161 4.109 4.681z" fill="#12ad5f"/><path d="m26.703 30.845h.304v5.979h-.304z" fill="#12ad5f" transform="matrix(.8989 .4382 -.4382 .8989 17.5418 -8.3465)"/><path d="m27.438 32.31h9.567v.304h-9.567z" fill="#12ad5f" transform="matrix(.1183 .993 -.993 .1183 60.6439 -3.3736)"/><path d="m33.598 34.077h3.265v.303h-3.265z" fill="#12ad5f" transform="matrix(.8271 .562 -.562 .8271 25.3263 -13.8829)"/><path d="m34.732 34.572h.304v3.76h-.304z" fill="#12ad5f" transform="matrix(.4841 .875 -.875 .4841 49.8908 -11.7189)"/><path d="m37.767 28.991h.304v6.249h-.304z" fill="#12ad5f" transform="matrix(.9517 .307 -.307 .9517 11.6927 -10.0916)"/><path d="m35.083 27.476h.303v5.748h-.303z" fill="#12ad5f" transform="matrix(.8909 .4543 -.4543 .8909 17.6333 -12.6942)"/><path d="m43.044 24.238h.303v8.086h-.303z" fill="#12ad5f" transform="matrix(.1806 .9836 -.9836 .1806 63.2108 -19.3109)"/><circle cx="22.805" cy="45.786" fill="#f8fffc" r=".335"/><path d="m23.133 45.429c-.06-.05-.13-.09-.2-.1-.05-.02-.08-.03-.13-.01h-.02c-.13 0-.25.05-.34.14-.04.04-.07.08-.09.13v.01c-.01.03-.02.06-.02.1-.01.04-.01.07-.01.11v.02c0 .06.02.12.04.17.03.06.07.11.11.15.09.08.21.12.33.12.1 0 .2-.03.28-.09h.01c.03-.02.05-.03.07-.06.07-.07.11-.15.11-.24.04-.161-.009-.331-.14-.45zm-.449.489c-.04-.03-.06-.08-.06-.13 0-.04.01-.09.05-.13.03-.03.08-.05.13-.05s.09.01.12.04c.08.07.08.19.02.26-.07.071-.191.08-.26.01z" fill="#12ad5f"/><circle cx="23.253" cy="43.236" fill="#f8fffc" r=".335"/><path d="m23.724 43.128v-.01c-.02-.1-.07-.17-.14-.24-.01-.01-.02-.02-.03-.02-.13-.1-.3-.13-.46-.07-.08.02-.15.06-.2.12-.02.02-.04.05-.05.08-.02 0-.02.01-.01.02-.06.09-.08.2-.06.3v.01c.01.1.06.2.15.28.03.02.06.04.09.05.07.05.16.07.24.07.02 0 .04 0 .06-.01.12-.01.22-.06.3-.14.09-.1.13-.22.13-.35 0-.03-.011-.059-.02-.09zm-.6-.02c.03-.03.08-.05.13-.05s.09.01.12.04c.04.04.06.08.06.13s-.01.1-.05.13c-.06.07-.18.08-.25.01-.08-.07-.08-.18-.01-.26z" fill="#12ad5f"/><circle cx="16.969" cy="42.29" fill="#f8fffc" r=".335"/><path d="m17.403 42.068c-.03-.05-.07-.1-.11-.14-.03-.03-.07-.05-.11-.07-.16-.08-.36-.06-.5.06l-.02.01c-.02 0-.03.01-.05.03-.09.09-.13.21-.13.33 0 .13.05.27.16.36l.01.01c.08.07.18.11.29.11.01.01.02.01.03.01.1 0 .2-.04.29-.1 0-.01.01-.01.02-.01l.14-.23c.01-.01.02-.03.01-.05.02-.04.02-.08.02-.12.001-.069-.019-.14-.05-.2zm-.56.361c-.07-.07-.08-.19-.01-.26.04-.04.08-.06.14-.06.04 0 .09.02.12.05s.06.08.06.12c0 .05-.02.1-.05.14-.069.069-.189.069-.26.01z" fill="#12ad5f"/><circle cx="17.185" cy="36.549" fill="#f8fffc" r=".335"/><path d="m17.543 36.229c-.01-.02-.02-.03-.03-.04-.13-.11-.31-.15-.47-.09-.08.01-.16.06-.22.12-.02.02-.03.04-.04.07-.01.01-.02.02-.03.04-.04.07-.06.15-.05.24 0 .02 0 .05.01.07 0 .06.03.11.06.16.02.04.05.08.08.11.04.04.09.07.14.09.06.03.13.04.19.04.14 0 .27-.06.36-.16.01-.01.01-.01.01-.02.07-.08.11-.18.11-.28.01-.02.01-.03.01-.05-.009-.111-.049-.22-.13-.3zm-.48.459c-.04-.04-.06-.08-.06-.13s.01-.1.05-.13c.03-.04.08-.06.13-.06s.09.02.12.05c.04.03.06.07.06.12.01.05-.01.1-.04.13-.07.081-.19.081-.26.02z" fill="#12ad5f"/><circle cx="15.9" cy="46.101" fill="#f8fffc" r=".335"/><path d="m16.354 45.958c-.01-.08-.06-.16-.12-.22-.01-.01-.01-.01-.02-.01-.08-.07-.18-.1-.28-.1-.1-.01-.18 0-.26.06h-.01c-.05.01-.09.04-.12.08-.04.04-.07.08-.09.13-.08.19-.04.42.12.56.09.08.2.13.33.13s.26-.06.36-.16c.04-.05.08-.1.09-.16v-.01c.04-.099.04-.199 0-.3zm-.581.28c-.07-.07-.07-.19-.01-.26.04-.04.09-.06.14-.06.04 0 .09.02.12.05.07.07.08.18.01.26-.07.07-.179.07-.26.01z" fill="#12ad5f"/><circle cx="21.54" cy="38.796" fill="#f8fffc" r=".335"/><path d="m21.983 38.619c-.01-.05-.04-.1-.08-.14v-.01c-.02-.02-.02-.02-.03-.03-.03-.03-.07-.05-.11-.06-.1-.06-.21-.07-.31-.04-.09 0-.17.04-.23.1-.02.01-.03.02-.04.03s-.02.02-.02.03c-.05.06-.09.13-.1.21-.01.04-.01.07-.01.11 0 .01 0 .03.01.04 0 .06.02.12.06.18.02.04.05.08.09.12.07.06.15.1.25.11.02.01.05.01.08.01.08 0 .16-.02.23-.07.05-.01.09-.04.12-.08.09-.09.13-.21.13-.32 0-.06-.009-.13-.04-.19zm-.569.31c-.03-.03-.05-.08-.06-.12 0-.05.02-.1.05-.14.04-.03.08-.06.14-.06.04 0 .09.02.12.05.07.07.08.19.01.26-.07.069-.191.08-.26.01z" fill="#12ad5f"/><circle cx="12.559" cy="43.194" fill="#f8fffc" r=".334"/><path d="m13.014 43.008c-.02-.03-.03-.05-.05-.08s-.05-.06-.08-.09c-.01-.01-.01-.01-.02-.01-.03-.03-.06-.05-.09-.05-.07-.04-.14-.06-.21-.06-.05 0-.1.01-.15.03-.08.01-.15.06-.21.12-.02.02-.04.05-.05.08-.12.19-.09.44.08.6.09.09.2.13.33.13.08 0 .16-.02.23-.06.04-.02.09-.06.12-.1.04-.04.07-.08.08-.13.03-.06.05-.11.05-.17v-.04c-.001-.059-.01-.119-.03-.17zm-.58.321c-.07-.07-.08-.18-.01-.26.04-.04.08-.06.14-.06.04 0 .08.02.12.05.03.03.06.08.06.13s-.02.09-.05.13c-.07.07-.191.079-.26.01z" fill="#12ad5f"/><path d="m22.838 43.541h.305v1.796h-.305z" fill="#12ad5f" transform="matrix(.9734 .2293 -.2293 .9734 10.8029 -4.0876)"/><path d="m16.886 44.008h5.951v.303h-5.951z" fill="#12ad5f" transform="matrix(.8392 .5438 -.5438 .8392 27.2054 -3.7007)"/><path d="m20.224 40.916h4.138v.303h-4.138z" fill="#12ad5f" transform="matrix(.3446 .9388 -.9388 .3446 53.1642 5.9888)"/><path d="m19.049 37.827h.304v5.171h-.304z" fill="#12ad5f" transform="matrix(.6337 .7736 -.7736 .6337 38.2974 -.0497)"/><path d="m17.33 37.407h4.273v.305h-4.273z" fill="#12ad5f" transform="matrix(.9114 .4116 -.4116 .9114 17.1859 -4.6832)"/><path d="m14.661 36.11h.304v7.414h-.304z" fill="#12ad5f" transform="matrix(.8172 .5764 -.5764 .8172 25.6572 -1.2591)"/><path d="m14.649 40.595h.304v3.981h-.304z" fill="#12ad5f" transform="matrix(.2618 .9651 -.9651 .2618 52.0275 17.1527)"/><path d="m12.463 42.929-.15.039-.149.04-.011-.059-.17-.66-.259-1.081h-.011l-.88-3.589.271-.161.97 3.891.269 1.089.071.311.04.129z" fill="#12ad5f"/><path d="m17.083 36.298-.149.031-.06.009h-.011l-.07.011v-.02l-.009-.04-.35-1.9.27-.16.339 1.87.031.139z" fill="#12ad5f"/><path d="m16.874 36.338-.02.19v.011l-.011.109-.13-.009-3.589-.35.459-.261 3.17.301h.04l.07.009z" fill="#12ad5f"/><path d="m16.887 35.976h.304v9.567h-.304z" fill="#12ad5f" transform="matrix(.4562 .8899 -.8899 .4562 45.5371 7.0027)"/><path d="m16.283 42.564h.304v3.265h-.304z" fill="#12ad5f" transform="matrix(.9718 .2357 -.2357 .9718 10.8819 -2.6289)"/><path d="m12.35 44.495h3.76v.305h-3.76z" fill="#12ad5f" transform="matrix(.7578 .6525 -.6525 .7578 32.5784 1.5288)"/><path d="m19.202 42.852h.304v6.248h-.304z" fill="#12ad5f" transform="matrix(.0418 .9991 -.9991 .0418 64.4821 24.7193)"/><path d="m17.197 42.693h5.747v.304h-5.747z" fill="#12ad5f" transform="matrix(.9935 .1141 -.1141 .9935 5.0195 -2.0102)"/><path d="m24.871 38.123h2.765v.304h-2.765z" fill="#12ad5f" transform="matrix(.5018 .865 -.865 .5018 46.1872 -3.6407)"/><path d="m32.533 38.989h3.743v.304h-3.743z" fill="#12ad5f" transform="matrix(.7023 .7119 -.7119 .7023 38.1085 -12.8398)"/><path d="m38.112 34.14h.304v2.295h-.304z" fill="#12ad5f" transform="matrix(.2011 .9796 -.9796 .2011 65.1372 -9.2897)"/><path d="m36.524 31.8h5.707v.305h-5.707z" fill="#12ad5f" transform="matrix(.0981 .9952 -.9952 .0981 67.3109 -10.3701)"/><path d="m38.105 31.34h6.697v.305h-6.697z" fill="#12ad5f" transform="matrix(.7036 .7106 -.7106 .7036 34.6625 -20.122)"/><path d="m45.622 27.34h.303v7.012h-.303z" fill="#12ad5f" transform="matrix(.8947 .4466 -.4466 .8947 18.5926 -17.1942)"/><path d="m44.462 32.091h9.687v.305h-9.687z" fill="#12ad5f" transform="matrix(.3475 .9377 -.9377 .3475 62.4066 -25.1932)"/><path d="m46.572 31.55h15.742v.304h-15.742z" fill="#12ad5f" transform="matrix(.8452 .5345 -.5345 .8452 25.374 -24.1913)"/><path d="m23.031 46.244h7.429v.304h-7.429z" fill="#12ad5f" transform="matrix(.9946 .1033 -.1033 .9946 4.9366 -2.515)"/><path d="m25.116 39.272h.304v4.517h-.304z" fill="#12ad5f" transform="matrix(.6683 .7439 -.7439 .6683 39.2727 -5.0218)"/><path d="m21.812 39.023h5.131v.304h-5.131z" fill="#12ad5f" transform="matrix(.9761 .2175 -.2175 .9761 9.1025 -4.3638)"/><path d="m23.285 35.884h.305v3.715h-.305z" fill="#12ad5f" transform="matrix(.4356 .9001 -.9001 .4356 47.199 .2028)"/><path d="m17.518 36.313h7.558v.303h-7.558z" fill="#12ad5f" transform="matrix(.9998 .0222 -.0222 .9998 .8157 -.4643)"/><path d="m90.723 85.008c-.08-.1-.159-.189-.25-.28-.05-.06-.109-.109-.17-.159-.149-.16-.31-.301-.489-.41-.58-.391-1.271-.61-1.94-.58-.12 0-.24.01-.36.03-.05.01-.09.02-.13.029-.02 0-.03.011-.05.021-.15.02-.29.08-.43.149-.061.021-.11.051-.17.08 0-.06-.011-.109-.04-.16-.011-.01-.011-.02-.021-.029v-.01c-.03-.04-.05-.08-.09-.12-.35-.431-1.07-.551-1.57-.391-.12.04-.22.12-.29.221-.54-.091-1.09-.131-1.659-.141-1.771-.01-4.221.2-5.86 1.13-.3-.01-.59-.02-.89-.02-.171 0-.351.01-.521.01.18-.189.35-.38.51-.58 1.42-1.729 2.11-3.91 3.74-5.5 2.26-2.2 4.54-5.88 3.98-9.13-.261-1.479-.971-2.74-1.851-3.9.05-.09.101-.189.13-.29.07-.159.12-.319.15-.479.05-.21.08-.43.09-.65.1-.06.17-.13.2-.25.02-.1.02-.23-.04-.32-.01-.01-.021-.02-.021-.02 0-.01-.01-.04-.01-.06 0-.04.01-.08.01-.12 0-.07.011-.12.021-.19 0-.01.01-.02.01-.04.021-.13-.01-.25-.13-.32-.01-.01-.02-.01-.04-.01-.05-.02-.12-.03-.19-.01-.039-.12-.09-.24-.149-.35l-.14-.27c-.28-.55-.681-.92-1.141-1.15-.06-.09-.12-.19-.189-.29-.07-.11-.141-.22-.23-.33-.25-1.67-1.36-3.18-1.72-4.84-.09-.45-.32-.85-.62-1.19-.07-.49-.18-.98-.26-1.48-.03-.11-.04-.22-.061-.33-.05-.38-.31-.83-.43-1.2l-.12-.39c-.01-.03-.01-.05-.02-.08.17-.91-.091-2-.75-2.7-.181-1.15-1.03-2.24-1.921-3.09-.18-.71-.52-1.34-1.21-1.74-.159-.08-.39-.16-.649-.24-.05-.63-.4-1.25-1.12-1.54-.48-.18-.94-.36-1.41-.51-.17-.05-.34-.1-.52-.15-.471-.12-.95-.2-1.45-.19-.21.01-.42.02-.63.06-.021-.01-.03-.01-.04-.01s-.021 0-.021.02c-.01 0-.02.01-.029.01-.011-.02-.03-.05-.04-.07-.04-.08-.091-.16-.141-.23l-.01-.01c-.34-.45-.82-.67-1.41-.66-.02 0-.05 0-.07.01-.039-.01-.09 0-.13.01-.05-.01-.09 0-.14.01-.01 0-.01 0-.02 0h-.011c-.01 0-.02 0-.029.01-.23.03-.46.07-.681.13-.09.02-.189.04-.279.07-.171.05-.341.11-.5.17-.171-.12-.351-.22-.551-.26-.069-.02-.14-.03-.21-.04-.58-.13-1.17-.21-1.739-.35-.601-.13-1.091-.87-1.49-1.32-.021-.03-.05-.06-.07-.08-.05-.05-.09-.1-.14-.15-.23-.26-.471-.51-.71-.76-.08-.08-.17-.17-.25-.25-.08-.07-.16-.14-.23-.21-.24-.21-.49-.41-.75-.59h-.01c-.26-.18-.51-.33-.8-.46-1.83-.83-3.39-.2-4.36 1.13-.16.07-.32.16-.46.26 0 0 0 0-.01 0-.06.05-.1.09-.16.15-.08.08-.16.17-.22.27-.07.11-.13.23-.18.36-.05.15-.08.32-.08.5v.09c-.01.19-.04.38-.08.57-.11.47-.32.92-.53 1.36-.37-.08-.7.1-.92.39-.24.32-.27.78.15.94.06.02.12.02.17 0-.19.55-.27 1.13-.08 1.77.02.07.04.15.07.22.05.15.1.29.17.43.08.21.18.41.29.61.06.1.12.2.19.3v.01c.21.31.48.61.76.84.01 0 .02.01.03.02.04.03.09.07.13.1.23.19.53.3.83.38.04.02.08.05.13.06.35.09.74.1 1.16.01.18-.03.35-.09.51-.17.13-.04.25-.1.37-.18.07-.03.13-.07.19-.13.1-.06.2-.13.28-.22.02-.01.04-.03.06-.05.02-.01.03-.02.05-.04 0 .01.01.03.01.04.01.01.01.03.01.04.06.19.11.36.14.56v.01c0 .08.01.16.01.24.01.91.99 1.79 1.88 1.57.12-.02.229-.07.34-.14.04-.02.08-.05.12-.08.27-.21.59-.17.93-.06.13.05.261.1.391.15.029.02.069.03.1.04h.01c.061.03.12.06.181.09h.01c.05.02.1.03.149.05.091.03.171.06.261.08.279.06.569.09.85.09.01 0 .01.01.021 0 .05 0 .109 0 .159-.02h.011c.199 0 .38-.03.569-.09h.011c.22-.05.42-.12.619-.23.011 0 .011-.01.011-.01h.02c.061-.02.101-.05.15-.08-.01.02-.01.04-.021.06-.04.17-.09.34-.14.5-.31 1.07-.69 2.08-1.15 3.07-.39.88-.859 1.76-1.38 2.64-.649 1.09-1.02 1.86-1.56 2.46-.62.66-1.32 1.36-1.61 2.23-.02.03-.03.06-.04.09v.01c-.04.11-.06.22-.08.34-.01.01-.01.02-.01.03-.02.12-.04.24-.05.36v.06c-.01.08-.021.15-.01.23-.011.05-.011.1-.011.15-1.709-.05-3.61-.08-5.07.49-.48.18-.92.43-1.28.77-.44-.04-.87-.09-1.29-.16-.41-.07-.97-.03-1.52-.03-.59-.01-1.15-.08-1.49-.41-.06-.06-.12-.12-.19-.17-.29-.23-.65-.38-1.02-.46-.01 0-.01-.01-.02-.01-.43-.1-.88-.09-1.29.02-.04.01-.08.03-.11.04-.19.05-.37.13-.53.25-.06.03-.11.06-.16.1l-.06.06c-.06.05-.11.1-.15.16l-.01.01c-.07.09-.14.17-.2.28-.06.09-.1.19-.13.29-.07.2-.09.4-.07.6 0 .09.02.19.04.28-.04 0-.08 0-.12.01-.03-.01-.07 0-.1 0-.24.02-.5.09-.73.2-.38.19-.7.49-.82.88-.05.12-.07.25-.07.38-.01.01-.01.01 0 .01 0 .05 0 .09.01.14.02.14.04.28.06.41.05.32.13.61.29.89.02.05.04.09.07.14s.07.09.1.14c.16.21.42.41.59.62.1.12.17.24.19.37.05.23.15.431.3.601.32.39.84.609 1.33.64.13.01.26.01.38 0h.01c.19 0 .37-.03.54-.08h.01c.86-.2 1.55-.77 2.12-1.53.16-.22.3-.42.46-.609.14-.181.3-.34.5-.471.02-.02.03-.029.05-.04.4-.27 1.44.15 1.86.23.63.11 1.26.25 1.91.39.73.16 1.47.32 2.21.44.07.01.14.02.21.03.28.04.55.069.82.08.18.02.35.029.53.039-.04.03-.09.061-.13.091-1.39.6-2.55 1.399-2.96 3.17-.18.76-.11 1.62.26 2.33-.03.35 0 .72.13 1.06.53 1.44 1.31 3.1 2.31 4.41-.06 1.47.71 2.7 1.16 4.06.52 1.57 1.11 3.44 1.27 5.08.09.94-.03 2.17.04 3.33.03.47.09.92.21 1.33.141.54.391 1.021.78 1.4.899.859 2.04.819 2.97.12 1.01.739 2.271 1.05 3.26.279.631-.489.99-1.06 1.16-1.689.01-.04.021-.07.03-.11 0 .01.01.03.01.05.4 1.58 1.17 19.301 2.42 20.17.011.011.021.011.03.011l1.19-.69.38-.22.239-.13 1.54-.9.061-.03.25-.14.38-.22 4.62-2.67.96-.561 1.71-.979.02-.021.181-.09 1.46-.85 1.38-.79.87-.521.34-.2 1-.58.28-.159.87-.5c.55-3.801 1.109-7.23 1.64-7.42 1.88-.65 3.02-2.12 3.66-3.851.13-.33.239-.68.319-1.03.15-.569.25-1.159.311-1.739.071-.642-.14-1.262-.52-1.772zm-22.399-4.679c-.19.21-.37.43-.54.649-.01.011-.021.03-.03.051-1.15 1.46-2.08 3.189-2.57 4.96v.02c-.109.391-.199.75-.26 1.141-.03.13-.04.25-.06.38-.03-.11-.061-.221-.09-.34-.381-1.511-.681-3.11-1.19-4.591-.02-.08-.06-.159-.09-.239-.29-1.66-1.15-3.33-2.26-4.46-.16-.41-.32-.801-.5-1.2-.04-.101-.08-.21-.131-.311.011-.02.021-.05.03-.069.15-.4.25-.811.32-1.24.02-.19.04-.39.05-.59.11.05.21.1.32.149 2.56 1.2 5.7 1.771 8.75 1.561.109 0 .22-.01.33-.021.14-.01.29-.02.43-.04-.89 1.12-1.82 2.34-2.33 3.66-.07.169-.129.35-.179.53zm-5.09-15.451s.01 0 0-.01c-.021-.3-.051-.6-.08-.89h.1.01c.12 0 .221-.01.34-.03.33-.04.65-.14.931-.29.12-.07.24-.14.35-.23.12-.09.23-.2.33-.32.36-.45.59-.82.78-1.32.01-.01.01-.01.01-.02.03-.05.05-.12.08-.18 0-.01.01-.02.01-.03.061-.17.11-.33.17-.49.021-.07.04-.13.061-.19.02-.05.04-.1.06-.15.01.02.01.05.021.07v.03c.199.64.46 1.25.85 1.8.26.37.57.68.91.93-.021.17-.03.34-.03.52.03.35.07.71.13 1.07-.029.06-.06.109-.08.17-.119.229-.189.47-.22.71-.01.01-.01.029-.01.04-1.51-.431-3.12-.57-4.66-.2 0-.061 0-.11-.01-.17-.01-.21-.021-.41-.04-.62-.003-.07-.013-.129-.013-.2z" fill="#4eb58d"/><path d="m66.183 61.119c-.109.05-.239.06-.359.03h-.01c.01.02.02.03.029.04.061.11.141.23.221.36-.011.07-.03.15-.061.22.03-.05.05-.12.08-.18 0-.01.01-.02.01-.03.061-.17.11-.33.17-.49-.029.01-.05.03-.08.05z" fill="#4eb58d"/><path d="m66.183 61.119c-.109.05-.239.06-.359.03 0 .01.01.03.02.04.061.11.141.23.221.36-.011.07-.03.15-.061.22.03-.05.05-.12.08-.18 0-.01.01-.02.01-.03.061-.17.11-.33.17-.49-.03.01-.051.03-.081.05z" fill="#4eb58d"/><path d="m66.183 61.119c-.109.05-.239.06-.359.03 0 .01.01.03.02.04.061.11.141.23.221.36-.011.07-.03.15-.061.22.03-.05.05-.12.08-.18 0-.01.01-.02.01-.03.061-.17.11-.33.17-.49-.03.01-.051.03-.081.05z" fill="#4eb58d"/><path d="m66.183 61.119c-.109.05-.239.06-.359.03 0 .01.01.03.02.04.061.11.141.23.221.36-.011.07-.03.15-.061.22.03-.05.05-.12.08-.18 0-.01.01-.02.01-.03.061-.17.11-.33.17-.49-.03.01-.051.03-.081.05z" fill="#4eb58d"/><path d="m66.183 61.119c-.109.05-.239.06-.359.03 0 .01.01.03.02.04.061.11.141.23.221.36-.011.07-.03.15-.061.22.03-.05.05-.12.08-.18 0-.01.01-.02.01-.03.061-.17.11-.33.17-.49-.03.01-.051.03-.081.05z" fill="#4eb58d"/><path d="m66.183 61.119c-.109.05-.239.06-.359.03 0 .01.01.03.02.04.061.11.141.23.221.36-.011.07-.03.15-.061.22.03-.05.05-.12.08-.18 0-.01.01-.02.01-.03.061-.17.11-.33.17-.49-.03.01-.051.03-.081.05z" fill="#4eb58d"/><path d="m66.183 61.119c-.109.05-.239.06-.359.03 0 .01.01.03.02.04.061.11.141.23.221.36-.011.07-.03.15-.061.22.03-.05.05-.12.08-.18 0-.01.01-.02.01-.03.061-.17.11-.33.17-.49-.03.01-.051.03-.081.05z" fill="#4eb58d"/><path d="m66.183 61.119c-.109.05-.239.06-.359.03 0 .01.01.03.02.04.061.11.141.23.221.36-.011.07-.03.15-.061.22.03-.05.05-.12.08-.18 0-.01.01-.02.01-.03.061-.17.11-.33.17-.49-.03.01-.051.03-.081.05z" fill="#4eb58d"/><path d="m66.183 61.119c-.109.05-.239.06-.359.03 0 .01.01.03.02.04.061.11.141.23.221.36-.011.07-.03.15-.061.22.03-.05.05-.12.08-.18 0-.01.01-.02.01-.03.061-.17.11-.33.17-.49-.03.01-.051.03-.081.05z" fill="#4eb58d"/><path d="m78.933 104.508.181-.09 1.46-.85 1.38-.79.87-.521.34-.2 1-.58.28-.159.87-.5.76-.44.04-.03.3-.17.67-.38.63-.359.271-.16.25-.141 2.779-1.6.11-.07.13-.05.24-.13 2.72-1.57 6.28-3.62.79-.449.16-.091c.01 0 .01 0 .02-.01l.15-.08c-.03-.29-.061-.58-.07-.87.09-.56.22-1.09.38-1.6v-3.64c-.43.779-.77 1.6-1.04 2.46-.02.02-.05.05-.069.08-.311.59-.461 1.18-.5 1.76-.08.18-.16.359-.221.55-.01-.32-.01-.63 0-.94.46-1.56 1.09-3.04 1.83-4.47v-2.149c-.63.829-1.189 1.75-1.68 2.71-.04-.03-.08-.04-.13-.051.12-.239.25-.479.38-.71.14-.26-.15-.529-.38-.42.31-1.359.67-2.71.97-4.09.06-.3-.33-.479-.5-.21-1.21 2.021-1.86 4.45-2.19 6.91-.39.96-.609 1.99-.689 3.03-.12.75-.19 1.51-.21 2.27-.09-.07-.19-.12-.28-.18-.02-1.57-.02-3.15-.25-4.7.21-1.78.74-3.41 1.271-5.13.09-.3-.311-.54-.521-.311-.76.811-1.27 1.79-1.6 2.86-.141-.17-.44-.24-.61-.06-.5.5-.85 1.05-1.12 1.64-.04-.25-.08-.49-.12-.73-.22-1.22-.31-2.699-1.14-3.689-.11-.13-.29-.01-.3.13-.05.521-.03 1.08.04 1.65-.24 1.13-.19 2.29-.2 3.439-.021 1.05-.04 2.09.12 3.11-.47-.04-.96-.061-1.45-.07-.05-.12-.09-.25-.13-.38v-.01c-.12-.37-.21-.75-.271-1.141-.109-.67-.149-1.359-.17-2.06-.02-.38-.02-.78-.029-1.16.01-.01 0-.02 0-.02 0-.09-.011-.181-.011-.271-.01-.43-.029-.87-.06-1.3-.01-.13-.021-.25-.03-.38-.02-.23-.38-.41-.5-.13-.04.09-.08.189-.109.29-.091.21-.15.439-.21.67-.021.069-.04.14-.051.22-.34 1.49-.21 3.19.28 4.73-.11-.08-.22-.15-.33-.23-.01-.01-.01-.03-.02-.04-.44-1.149-.45-2.37-.771-3.55-.06-.22-.399-.23-.46 0-.25 1.02-.12 2 .12 3.01.01 0 .01.01.01.01-.01 0-.02-.01-.029-.01-.881-.35-1.561.79-1.15 1.5.16.29.35.561.54.83-.28.13-.51.3-.7.49-.04.01-.09.01-.13.02 0-.01-.01-.01-.01-.02-.11-.23-.221-.45-.351-.66-.05-.48-.09-.95-.12-1.43-.069-1.181-.1-2.37-.229-3.57-.01-.14-.09-.24-.19-.29-.18-.11-.439-.07-.51.2-.3 1.17-.36 2.479-.22 3.79-.03-.01-.07-.01-.11-.01-.3-.24-.63-.41-1-.48-.28-.05-.64.13-.71.41-.08-.14-.229-.2-.37-.18-.17-1.08-.319-2.16-.569-3.25-.051-.21-.4-.221-.44 0-.19 1.149-.17 2.34.03 3.51-.09-.11-.17-.22-.25-.32-.311-.38-.82.04-.75.44-.05-.061-.101-.11-.16-.16-.84-.82-1.49-1.93-1.78-3.061-.14-.54-.899-.3-.819.221.149.949.489 1.72 1.1 2.47.06.08.13.15.2.229-.101.08-.181.2-.181.33-.01.21-.05.57-.01.9-1.09-1.33-1.91-2.8-2.83-4.26-.14-.23-.479-.08-.43.18.33 1.69 1.15 3.07 2.2 4.3-.19-.01-.41.04-.67.15-.101.04-.16.11-.2.2-.71-.891-1.23-1.891-1.94-2.761-.13-.17-.45-.04-.43.181.12 1.029.62 2.01 1.32 2.899-.13-.069-.261-.149-.4-.21-.17-.09-.32-.08-.45-.02-.45-1.08-.72-2.25-1.04-3.351-.08-.27-.47-.21-.479.07-.04 1.17.17 2.28.56 3.33-.069.05-.12.11-.17.19-.13-.131-.26-.25-.399-.37-.33-1.641-.49-3.33-.83-5.05-.051-.261-.44-.29-.54-.07-.091.02-.16.07-.2.18-.4 1.141-.61 2.51-.601 3.87-.18-.35-.67-.3-.829-.02-.03.01-.07.02-.101.029-.12-1.68.12-3.3.26-4.979.03-.25-.359-.351-.47-.13-1.04 2.12-.96 4.569-.59 6.84-.14-.021-.271-.05-.35-.061-.221-.029-.36.16-.381.351-.149-.03-.29-.061-.439-.09-.18-1.69-.05-3.45-.19-5.141-.02-.279-.439-.37-.51-.069-.36 1.63-.51 3.46-.28 5.22-.109.09-.17.24-.16.38-.14-.03-.27-.06-.399-.07-.07-1.6.31-3.649.22-4.39-.02-.19-.24-.271-.359-.1-.48.699-.86 2.71-.721 4.409-.229 0-.46.011-.68.04.02-.41.07-.83.18-1.27.221-.87.51-1.73.601-2.63.029-.24-.311-.28-.42-.11-.41.61-.87 1.55-1.171 2.55-.01.05-.029.101-.039.15 0-.021.01-.05.01-.07.05-.27.09-.55.12-.81.02-.25.01-.49.02-.7 0-.01 0-.021-.01-.04-.021-.19-.28-.3-.38-.11-.32.62-.58 1.36-.681 2.101-.029-.16-.069-.311-.109-.471-.36-1.609-.891-3.17-1.86-4.5-.12-.17-.399-.079-.34.141.57 2.06 1.25 4.08 1.77 6.16-.21-.051-.409-.09-.609-.141-1.32-1.68-1.17-3.93-2.4-5.699-.08-.11-.25-.101-.3.01-.12-.13-.37-.09-.36.12.04 1.42.011 2.84-.04 4.25-.359-.11-.72-.21-1.069-.29.12-1.09.22-2.181.31-3.25.01-.101-.04-.16-.12-.19.351-.99.551-2 .511-2.939-.011-.23-.351-.36-.46-.131-.48 1.03-.761 2.15-1.141 3.23-.03.03-.05.07-.06.12-.021.05-.03.1-.04.149-.061.141-.11.29-.17.44-.061.12-.11.24-.17.36-.091-.11-.301-.141-.37.02-.101.22-.221.44-.34.66-.011.01 0 .02 0 .02-.101.171-.2.32-.311.49-.17.311-.37.62-.55.931-.14.229-.28.47-.41.699-.04-1.47-.17-2.949-.51-4.39-.08-.36-.69-.39-.75 0-.22 1.43-.24 2.88-.23 4.33-.06 0-.13.01-.2.02-.18.04-.37.08-.55.13.26-2.01.42-4.029.57-5.97.04-.43-.57-.45-.7-.1-.72 2.01-1.06 4.109-1.42 6.2-.13-.19-.25-.4-.33-.49-.26-.271-.56-.5-.89-.65.56-1.729 1.52-3.34 2.04-5.1.08-.26-.33-.45-.46-.19-.78 1.65-1.7 3.351-2.21 5.13-.13-.01-.27-.01-.41 0 .43-1.47.87-2.93 1.15-4.43.04-.26-.31-.45-.45-.189-.42.789-.79 1.6-1.12 2.43-.06-.391-.12-.771-.19-1.15-.04-.229-.4-.17-.4.061-.02.819.01 1.649.07 2.479-.14.41-.27.811-.4 1.22-.12.061-.24.12-.36.19-.03-.65-.04-1.31-.03-1.97.02-.57.06-1.15.12-1.721.28-.579.57-1.159.86-1.739.13-.271-.2-.55-.43-.33-.08.09-.16.18-.24.26-.07-.13-.23-.2-.34-.11-.05-.1-.15-.17-.26-.18.34-.75.65-1.51.92-2.28.09-.26-.28-.489-.46-.27-1.84 2.24-3.18 5.06-4.33 7.75.07-.64.12-1.28.15-1.93.26-.641.5-1.29.66-1.971.07-.31-.3-.54-.54-.31-1.21 1.13-1.92 2.52-2.42 4.06.28-1.859.51-3.72.65-5.58.02-.33-.45-.359-.55-.08-.74 2.12-1.2 4.351-1.51 6.62-.12-.13-.26-.229-.42-.279.35-1.301.69-2.61.62-3.91-.02-.32-.42-.431-.59-.16-.52.79-.87 1.71-1.1 2.68-.02-.029-.03-.06-.05-.09.56-1.56 1.09-3.13 1.46-4.729.05-.21-.26-.37-.36-.15-.76 1.58-1.53 3.229-2.21 4.91-.04.069-.07.149-.09.24-.17.43-.34.869-.5 1.31-.01.01-.02.03-.04.05-.03-.01-.06-.01-.09-.01-.02-.39-.07-.771-.16-1.12.54-1.16 1.12-2.31 1.46-3.56.06-.2-.23-.33-.33-.15-.54 1-1.11 2.021-1.61 3.07-.05-.011-.11 0-.17.01.45-1.771.86-3.56 1.21-5.36.05-.25-.28-.33-.37-.1-.92 2.26-1.56 4.61-2.21 6.96-.1-.22-.24-.42-.43-.59.02-.061.03-.13.04-.19.34-1.2.66-2.399.93-3.609.11-.471-.52-.61-.7-.19-.28.68-.55 1.37-.8 2.07-.04.02-.09.05-.13.09-.43.47-.7 1.1-.84 1.79-.35.41-.53 1.14-.63 1.81h-.06c.07-.47.16-.939.27-1.41.42-1.869 1.32-3.63 1.63-5.52.05-.33-.39-.72-.66-.38-.4.51-.76 1.09-1.08 1.71-.74.75-1.4 1.61-1.95 2.56.37-.91.76-1.81.98-2.76.08-.33-.32-.58-.57-.33-.83.8-1.4 1.87-1.84 3.01.38-1.699.9-3.47.83-5.13-.01-.33-.47-.59-.72-.29-.01.021-.03.04-.05.061-.08-.01-.17.01-.25.09-.41.49-.75 1.05-1.05 1.64v.011c-.93 1.68-1.54 3.5-1.99 5.38-.03-.37-.07-.74-.11-1.11.13-2.01.62-3.98 1.08-5.94.06-.26-.26-.38-.41-.17-.71 1.011-1.19 2.13-1.49 3.301-.06.149-.12.31-.18.47.1-.46.2-.91.28-1.37.06-.37-.37-.54-.59-.25-.59.77-1 1.68-1.26 2.65.01-.08.03-.16.04-.24 0-.01 0-.01 0-.021.25-1.35.58-2.689.72-4.05.03-.3-.4-.37-.53-.149-1.1 1.84-1.58 4.039-1.72 6.279h-.14c.08-2.1.28-4.24.04-6.29-.05-.41-.56-.479-.72-.09-.63 1.5-.73 3.25-.69 4.96-.14-1.12-.34-2.229-.69-3.28-.09-.29-.59-.359-.64 0-.19 1.33-.2 2.721-.09 4.131-.16.189-.27.42-.3.659-.01.04-.01.07-.01.101-.06-.12-.11-.24-.17-.36-.04-.07-.11-.12-.18-.149-.35-1.62-.78-3.23-1.49-4.671-.12-.26-.49-.14-.53.11-.05-.37-.1-.729-.17-1.09-.04-.23-.42-.23-.47 0-.39 2.12-.06 4.44.47 6.64-.03.07-.07.141-.09.2-.59-1.43-1.06-2.91-1.65-4.33-.1-.25-.5-.24-.49.061.03 1.37.42 2.67.92 3.93-.13.01-.25.04-.36.07-.52-1.471-1-2.96-1.65-4.38-.06-.141-.2-.171-.32-.131-.4-1.38-.9-2.71-1.55-3.939-.14-.25-.47-.061-.43.18.38 2.58 1.09 5.12 1.76 7.66-.4-.46-.81-.9-1.25-1.32-.03-.029-.06-.05-.09-.06-.07-1.05-.22-2.09-.56-3.05v6l.59.34c0-.28.01-.55.01-.83v-.36c.15.32.31.63.48.931-.15.06-.29.159-.41.3l6.83 3.939 1.11.65.22.13.78.45.82.47 3.45 2 .4.23.09.05.64.37.16.09 1.94 1.11.17.1.42.25.26.15.43.25 1.24.72.16.09 1.14.66.57.33.57.33 1.85 1.06.33.2.49.28.39.22 5.09 2.95.39.22.3.17 1.55.9.6.35.5.29 1.3.75.87.51.49.28.05.03.96.55.1.06 1.01.58.04.03.24.14 1.69.971.13.08 1.81 1.04.65.38 3.05 1.76.729-.42.971-.561 1.35-.779.65-.37 1.819-1.05.11-.061 1.45-.84.43-.25.01-.01 1.11-.641 1.15-.659.43-.25.9-.521.449-.26.15-.09 1.19-.69.38-.22.239-.13 1.54-.9.061-.03.25-.14.38-.22 4.62-2.67.96-.561 1.71-.979zm14.801-16.8c.04.13.08.25.119.38-.109.7-.14 1.42-.13 2.15-.02 0-.04-.011-.06-.011.041-.839.05-1.679.071-2.519zm-77.331 1.89c-.07-.37-.14-.739-.2-1.12-.05-.289-.08-.569-.11-.859.12.649.26 1.3.42 1.939-.039.011-.079.03-.11.04zm30.68-2.979c-1.06 1.51-1.81 3.27-2.37 5.12h-.23c.77-2.03 1.82-3.95 2.76-5.91-.059.259-.11.519-.16.79zm11.35 3.78c-.109-.021-.21-.03-.319-.051.08-.39.149-.779.22-1.159.17-.33.34-.66.49-1-.12.729-.26 1.47-.391 2.21zm2.46.699c-.01-.71-.04-1.409-.09-2.109.19.85.46 1.68.851 2.439-.25-.12-.5-.229-.761-.33z" fill="#4f9e59"/><path d="m4.083 119.338c.13.05.28.05.4 0-.14.01-.27.01-.4 0z" fill="#4f9e59"/><path d="m72.303 92.659c-.01-.09-.04-.17-.09-.23.021-.09.04-.18.061-.27.029.05.06.1.09.149v.07c.02.14.02.25.02.34-.031-.019-.051-.04-.081-.059z" fill="#4f9e59"/><path d="m95.664 86.739c-.05.12-.09.239-.14.35.069-.27.14-.55.22-.83-.031.159-.061.32-.08.48z" fill="#4f9e59"/><path d="m51.889 37.009c-.829.783-1.137 1.757-.951 2.874.146-.191.292-.384.438-.576-3.884.03-.303 5.726-.06 7.412.084.58.962.332.878-.242-.162-1.127-3.089-6.242-.818-6.259.319-.003.486-.288.439-.577-.136-.824.138-1.439.718-1.987.429-.404-.218-1.049-.644-.645z" fill="#15013d"/><path d="m51.134 45.157c.325.437.861.765.942 1.333.034.247.344.378.56.319.262-.072.354-.315.318-.561-.101-.702-.643-1.028-1.033-1.552-.148-.199-.391-.301-.624-.164-.195.116-.311.425-.163.625z" fill="#15013d"/><path d="m52.138 37.649c.995-.567 1.835-1.353 2.813-1.947 1.877-1.141 3.179.442 4.17 1.858 1.365 1.951 3.786 2.938 6.125 2.338.568-.146.326-1.025-.243-.879-1.956.502-3.925-.329-5.095-1.918-.729-.99-1.324-1.93-2.469-2.479-2.181-1.049-4.076 1.279-5.76 2.24-.512.291-.052 1.078.459.787z" fill="#15013d"/><path d="m50.951 45.366c1.101.158 4.193 2.715 4.813.669.172-.564-.708-.803-.878-.242-.145.475-3.19-1.234-3.694-1.306-.573-.082-.821.796-.241.879z" fill="#15013d"/><path d="m54.961 45.808c.21.849.66 1.749 1.257 2.388.277.295.635.474 1.041.396.463-.086.675-.648.785-1.038.157-.566-.722-.808-.88-.243-.041.146-.083.275-.162.404-.009.014.043-.012.075.001-.217-.094-.368-.338-.495-.524-.328-.489-.601-1.055-.742-1.628-.138-.57-1.018-.327-.879.244z" fill="#15013d"/><path d="m57.756 47.965c.308.017.601.134.911.151-.131-.075-.262-.149-.393-.224.08.107.16.205.259.296.082.076.21.142.272.235.154.236.508.318.715.092.202-.219.322-.454.42-.732.199-.556-.683-.792-.877-.242-.045.128-.095.229-.187.33.239.03.477.061.716.092-.156-.238-.405-.426-.604-.624-.149-.15-.353-.125-.544-.166-.23-.049-.451-.106-.689-.119-.587-.034-.584.878.001.911z" fill="#15013d"/><path d="m59.577 48.358c.399.187.752.613 1.173.73.323.089.721-.086.995-.243.648-.372 1.021-1.15 1.343-1.79.262-.523-.524-.986-.787-.46-.224.445-.447.896-.785 1.268-.101.109-.404.398-.572.29-.308-.196-.573-.427-.905-.582-.532-.246-.995.54-.462.787z" fill="#15013d"/><path d="m65.259 40.642c.069-.495.21-.88.566-1.166-.254-.148-.508-.295-.762-.444-.487 1.768-1.402 3.297-2.055 4.988-.634 1.638-.971 3.361-1.636 4.992-1.269 3.108-2.858 6.904-5.229 9.339-.412.421.232 1.066.644.645 2.277-2.338 3.738-5.795 5.04-8.742.718-1.624 1.197-3.276 1.695-4.976.608-2.074 1.841-3.9 2.42-6.003.13-.476-.426-.713-.762-.443-.268.214-.718.971-.801 1.567-.081.576.799.823.88.243z" fill="#15013d"/><path d="m56.662 58.69c-.101-.025-.202-.051-.304-.077-.409-.102-.819.46-.442.761 1.515 1.216 3.263 2.196 4.931 3.179.557.329 3.386 2.391 4.068 1.53.36-.455-.279-1.104-.645-.643.161-.205.204-.058-.166-.193-.356-.132-.699-.322-1.038-.497-.877-.454-1.728-.961-2.573-1.469-1.323-.795-2.727-1.583-3.934-2.551-.147.254-.297.508-.444.762.102.025.203.05.306.076.57.143.811-.735.241-.878z" fill="#15013d"/><path d="m65.427 63.837c.039-.665.353-1.328.55-1.962.058-.186.103-.379.15-.568.026-.102.053-.2.082-.3.062-.225.187-.266-.086-.175-.149-.039-.297-.078-.444-.117.012.009.022.018.034.027.45.369 1.099-.272.644-.644-.633-.519-.935.331-1.067.813-.266.955-.715 1.938-.773 2.926-.036.588.875.585.91 0z" fill="#15013d"/><path d="m66.416 60.725c0-.101 0-.203 0-.304-.3.041-.598.08-.896.122.308 1.093 3.593 4.704 2.472 5.633-.453.375.196 1.016.645.644 1.916-1.587-1.806-4.99-2.236-6.519-.141-.495-.895-.396-.895.121v.304c-.002.586.91.586.91-.001z" fill="#15013d"/><path d="m68.543 66.408c-2.388-1.827-6.265-1.18-9.09-1.384-2.909-.208-6.271-.092-8.091 2.534-1.705 2.461.605 6.448 1.669 8.701 2.06 4.36 3.053 9.432 3.128 14.238.011.587.922.587.912 0-.061-3.834-.762-7.699-1.93-11.344-.976-3.048-2.99-5.863-3.358-9.077-.46-4.019 4.504-4.31 7.311-4.163 1.319.068 2.623.166 3.946.184 1.699.024 3.633.02 5.044 1.097.466.357.919-.435.459-.786z" fill="#15013d"/><path d="m60.415 74.547c-.034 2.732 1.692 4.976 2.674 7.414.499 1.234.845 2.536 1.125 3.837.158.735.25 1.479.312 2.229.029.352.181 2.138-.087 2.306-.497.31-.041 1.099.459.786.644-.402.543-1.533.565-2.19.055-1.593-.304-3.227-.698-4.759-.375-1.452-.915-2.84-1.579-4.183-.854-1.73-1.884-3.449-1.859-5.439.006-.589-.905-.588-.912-.001z" fill="#15013d"/><path d="m65.32 86.337c-.012-.005-.022-.008-.035-.01.11.146.224.292.334.438-.044-.804.429-1.851.704-2.603.761-2.078 1.706-3.851 3.064-5.599.845-1.087 1.718-2.133 2.36-3.357.746-1.429.82-2.957.82-4.532 0-.587-.912-.587-.912 0 0 1.908-.251 3.452-1.282 5.084-.893 1.412-2.064 2.633-2.985 4.029-.888 1.342-1.44 2.755-1.99 4.257-.292.795-.737 1.859-.69 2.721.012.206.131.384.335.44.012.003.022.006.036.01.566.159.806-.721.241-.878z" fill="#15013d"/><path d="m60.522 74.987c1.787.328 3.435 1.132 5.224 1.457 1.391.252 2.829.298 4.238.307.588.003.588-.908 0-.911-1.479-.01-2.962-.087-4.418-.352-1.645-.299-3.154-1.078-4.803-1.381-.574-.105-.818.773-.241.88z" fill="#15013d"/><path d="m81.829 65.131c.288.526.583.938 1.001 1.365.809.823.993 1.965 1.07 3.066.14 2.013-.392 3.696-1.457 5.39-1.037 1.646-2.41 3.076-3.683 4.542-1.427 1.641-2.479 3.539-3.856 5.211-.372.451.27 1.099.644.646 1.473-1.786 2.621-3.79 4.144-5.543 1.434-1.649 2.896-3.269 4.004-5.162 1.013-1.732 1.222-3.562 1.086-5.534-.138-1.975-1.294-2.846-2.165-4.44-.283-.516-1.07-.056-.788.459z" fill="#15013d"/><path d="m76.029 84.786c2.104-.49 4.239-.547 6.371-.807.816-.101 4.141-.867 4.66-.011.305.502 1.093.044.786-.461-.741-1.225-3.182-.702-4.31-.578-2.584.279-5.212.387-7.75.977-.571.133-.328 1.013.243.88z" fill="#15013d"/><path d="m86.633 83.388c-.62 2.064-.735 4.367-1.003 6.502-.073.581.839.575.912 0 .257-2.054.372-4.271.971-6.258.169-.565-.71-.804-.88-.244z" fill="#15013d"/><path d="m87.725 84.48c.586-.123 1.163-.171 1.76-.144.93.042 1.274.53 1.308 1.413.043 1.182-.413 2.354-.301 3.532.056.581.967.586.911 0-.136-1.423.947-3.652.014-4.938-.871-1.202-2.647-1.016-3.934-.74-.573.122-.33.999.242.877z" fill="#15013d"/><path d="m68.572 67.316c3.377 1.27 7.219 1.172 10.447-.414 1.008-.494 5.668-2.67 4.347-4.433-.349-.464-1.141-.011-.787.46.677.901-3.9 3.132-4.535 3.435-2.798 1.331-6.384 1.143-9.229.072-.552-.206-.787.675-.243.88z" fill="#15013d"/><path d="m65.578 39.624c.408.221.876.319 1.291.532.8.409-.76 1.689-1.076 2.141-.546.777-.863 1.727-1.279 2.575-.53 1.079-1.619 1.399-2.446 2.164-.433.398.214 1.042.644.644.979-.904 1.918-1.127 2.588-2.349.808-1.468 1.325-2.801 2.539-4.02 1.356-1.364-.909-1.994-1.801-2.475-.519-.278-.979.508-.46.788z" fill="#15013d"/><path d="m67.756 40.547c2.637.058 4.917 2.28 6.406 4.276 1.598 2.142 2.492 4.765 3.34 7.269.744 2.193 1.204 4.444 2.237 6.529.777 1.572 1.167 3.456 2.914 4.244.531.24.996-.546.46-.788-1.178-.53-1.65-1.688-2.114-2.813-.443-1.066-.979-2.085-1.35-3.18-.889-2.617-1.538-5.274-2.604-7.836-1.538-3.704-4.792-8.513-9.29-8.612-.587-.013-.586.898.001.911z" fill="#15013d"/><path d="m57.377 59.875c-1.955-1.149-4.292.125-6.27.585-1.552.36-3.592.556-4.958-.359-.609-.407-1.272-1.21-2.065-1.198-.586.008-.587.92 0 .911.629-.008 1.623 1.109 2.158 1.421.92.539 2.209.419 3.215.345 1.151-.086 2.227-.303 3.326-.639 1.286-.395 2.87-1.021 4.136-.278.507.297.966-.49.458-.788z" fill="#15013d"/><path d="m46.591 65.281c2.406-.008 4.797-.095 7.095.744.552.201.791-.68.241-.879-2.373-.866-4.846-.785-7.336-.775-.588.001-.588.914 0 .91z" fill="#15013d"/><path d="m61.979 65.57c.842-.124 1.596-.772 1.626-1.655.02-.588-.892-.587-.912 0-.016.482-.544.715-.957.775-.246.036-.378.344-.318.562.072.26.315.353.561.318z" fill="#15013d"/><path d="m46.197 64.673c-.454.708-.938 1.389-1.501 2.013-.128.141-.263.271-.401.4-.08.075-.028.101-.12-.073-.111-.208-.142-.483-.183-.713-.097-.579-.977-.334-.877.241.1.579.438 1.788 1.29 1.5.565-.189.964-.726 1.332-1.169.457-.549.863-1.14 1.249-1.741.318-.495-.47-.952-.789-.458z" fill="#15013d"/><path d="m43.674 66.817c-.505-.097-.936.08-1.433.126-.252.023-.242-.091-.225-.311.018-.249.084-.492.093-.743.022-.589-.889-.585-.911 0-.027.695-.292 1.332.378 1.815.578.417 1.253-.124 1.855-.009.575.11.82-.769.243-.878z" fill="#15013d"/><path d="m41.808 66.028c-.424-.222-.727-.505-1.045-.858-.041-.045-.089-.092-.125-.143-.08-.107.017.017.003.072.043-.168.185-.348.268-.499.284-.516-.503-.975-.787-.459-.239.438-.583.919-.233 1.398.388.529.878.973 1.462 1.275.518.272.979-.515.457-.786z" fill="#15013d"/><path d="m40.68 64.368c-.216-.29-.5-.568-.643-.905-.151-.36.608-.505.803-.557.653-.169 1.167-.437 1.511-1.041.29-.512-.497-.97-.787-.459-.424.748-1.404.551-2.01 1.081-.886.772-.203 1.616.339 2.34.348.465 1.14.012.787-.459z" fill="#15013d"/><path d="m42.66 61.314c-.162-.2-.554-.578-.297-.814.342-.318.928-.478 1.345-.672.531-.25.068-1.036-.46-.788-.609.286-1.319.506-1.741 1.061-.461.608.136 1.396.511 1.856.369.458 1.009-.19.642-.643z" fill="#15013d"/><path d="m41.35 59.875c-.289.127-.488.381-.701.603-.142.148-.177.373-.072.553.182.313.307.619.318.984.017.587.929.589.911 0-.016-.526-.18-.992-.443-1.444-.022.184-.046.369-.069.552.16-.167.297-.366.514-.46.539-.236.073-1.022-.458-.788z" fill="#15013d"/></svg>