<svg enable-background="new 0 0 110.979 128.417" height="128.417" viewBox="0 0 110.979 128.417" width="110.979" xmlns="http://www.w3.org/2000/svg"><path d="m110.849 96.417-55.426 32-55.423-32v-64l55.423-32 55.426 32z" fill="#15003e"/><path d="m101.923 38.139v53.14l-.009.01-1.42.809-6.281 3.62-2.719 1.571-.241.129-.129.05-.111.071-3.029 1.74-1.87 1.069-.04.03-3.25 1.88-.87.521-1.38.79-1.46.849-.181.09-.019.021-1.71.979-.96.561-4.62 2.67-.63.359-.061.03-3.5 2.031-4.04 2.33-.01.01-.3.169-.129.081-.17.099-.441.25-.42.24-.049.031-.281.16-3.49 2.019-.979.561-1.221.699-.029.021-.031-.021-1.219-.699-1.05-.61-3.901-2.25-1.369-.791-.04-.03-2.071-1.189-5.36-3.111-.689-.389-5.09-2.95-.39-.22-.491-.28-.33-.201-1.849-1.059-.571-.33-.409-.241-1.301-.75-2.509-1.459-2.911-1.67-.089-.05-.701-.41-.02-.01h-.009l-.98-.57-2.96-1.71-2.111-1.231-7.5-4.319v-53.14l1.42-.821.421-.239.239-.141 12.25-7.069 1.991-1.161 4.929-2.83 1.58-.92.17-.089 1.66-.951 1.161-.669 1.54-.911.52-.299 2.279-1.301.69-.409 1.46-.83 3.73-2.15 1.991-1.15.46-.27 6.069-3.511.221-.129 1.219-.701 1.061.62 6.489 3.75 14.53 8.38 1.04.611 2.3 1.309.87.5 1.521.881 1.369.79.801.46.09.06 1.809 1.039 3.78 2.18.041.031v.009l.259.141.66.389 1.46.841.401.23.26.149.11.07.239.131.051.029.09.061h.01l.049.029.021.011.099.06.611.35.779.44.441.25 1.939 1.119z" fill="#b20b2f"/><path d="m101.923 38.139v53.14l-.009.01-1.42.809-6.281 3.62-2.719 1.571-.241.129-.129.05-.111.071-3.029 1.74-1.87 1.069-.04.03-3.25 1.88-.87.521-1.38.79-1.46.849-.181.09-.019.021-1.71.979-.96.561-4.62 2.67-.63.359-.061.03-3.5 2.031-4.04 2.33-.01.01-.3.169-.129.081-.17.099-.441.25-.42.24-.049.031-.281.16-3.49 2.019-.979.561-1.221.699-.029.021-.031-.021-1.219-.699-1.05-.61-3.901-2.25-1.369-.791-.04-.03-2.071-1.189-5.36-3.111-.689-.389-5.09-2.95-.39-.22-.491-.28-.33-.201-1.849-1.059-.571-.33-.409-.241-1.301-.75-2.509-1.459-2.911-1.67-.089-.05-.701-.41-.02-.01h-.009l-.98-.57-2.96-1.71-2.111-1.231-7.5-4.319v-53.14l1.42-.821.421-.239.239-.141 12.25-7.069 1.991-1.161 4.929-2.83 1.58-.92.17-.089 1.66-.951 1.161-.669 1.54-.911.52-.299 2.279-1.301.69-.409 1.46-.83 3.73-2.15 1.991-1.15.46-.27 6.069-3.511.221-.129 1.219-.701 1.061.62 6.489 3.75 14.53 8.38 1.04.611 2.3 1.309.87.5 1.521.881 1.369.79.801.46.09.06 1.809 1.039 3.78 2.18.041.031v.009l.259.141.66.389 1.46.841.401.23.26.149.11.07.239.131.051.029.09.061h.01l.049.029.021.011.099.06.611.35.779.44.441.25 1.939 1.119z" fill="#cdf9e5"/><path d="m89.781 74.126c.762-2.872 1.172-5.891 1.172-9.005 0-19.165-15.398-34.699-34.394-34.699-18.994 0-34.393 15.535-34.393 34.699 0 3.114.41 6.133 1.172 9.005z" fill="#25e899"/><path d="m88.274 61.411h8.264v.155h-8.264z" fill="#15003e" transform="matrix(.1075 .9942 -.9942 .1075 143.6011 -36.9934)"/><path d="m91.313 58.781h4.019v.157h-4.019z" fill="#15003e" transform="matrix(.6774 .7356 -.7356 .6774 73.4017 -49.6614)"/><path d="m83.808 50.924h11.584v.157h-11.584z" fill="#15003e" transform="matrix(.3195 .9476 -.9476 .3195 109.3022 -50.1965)"/><path d="m40.408 73.531c-2.438-1.865-2.589-4.946-2.438-7.827.176-3.318 1.134-6.542 1.268-9.867.063-1.55-.117-3.126-.329-4.66-.224-1.621-.579-3.203-1.208-4.719-.551-1.331-1.31-2.505-2.38-3.476-.982-.892-2.167-1.536-3.328-2.163-.694-.375-1.328.367-1.153.94-.764.239-1.227.989-1.31 1.806.039-.388.041-.185-.123.078-.108.176-.273.33-.515.586-.543.574-1.079 1.13-1.524 1.788-.392.576-.607 1.325-.821 2.049-.495.225-.886.671-1.084 1.227-.063.173-.127.353-.185.534-.096.149-.202.294-.298.44-.372.565-.505 1.184-.587 1.843-.007.049-.012.098-.019.148-.132.087-.251.196-.355.327 0 .006.002.013.002.02-.021 1.03-.539 1.842-.856 2.792-.311.93-.272 1.875-.684 2.79-.44.978-.53 2-.838 3.019-.184.608-.139 1.012.013 1.617.07.283.112.542.098.822.021.054.032.116.029.184-.024.787.156 1.568.121 2.35-.019.419-.094.845-.15 1.271.009.027.018.056.029.084.045.596.08 1.193.096 1.791.184.536.451 1.041.555 1.602.019.104.034.211.047.316.069.067.142.131.221.186-.073.113-.128.228-.17.343.04.47.089.94.287 1.358.052.109.059.217.039.313.358.442.907.749 1.491.787.7.049 1.336-.223 1.989-.433.292.079.617.088.972 0 .737-.18 1.717.242 2.481.277.443.019.823-.126 1.122-.365.264.16.586.257.972.26.379.003.811.014 1.257 0h1.359.031c.3.108.596.216.885.345.211.118.424.235.645.34 1.171.556 2.235-.05 2.643-.933.352.388.752.759 1.208 1.109.806.615 1.289-.694.495-1.299z" fill="#0fce7c"/><path d="m76.761 36.62c-.348-.054-.699-.099-1.051-.141-.607-.947-1.566-1.598-2.588-2.118-1.41-.716-2.928-1.227-4.434-1.699-3.67-1.15-7.25-2.858-11.195-2.398-.635-.165-1.355-.035-1.795.481-.964 1.135-1.447 2.551-1.785 3.983-.36 1.514-.486 2.869.175 4.317.561 1.228 1.864 2.137 3.021 2.738 1.305.677 2.707 1.066 4.139 1.375 3.473.75 7.396 1.193 10.924.562 2.604-.466 5.834-2.374 5.973-5.285.038-.758-.595-1.693-1.384-1.815z" fill="#0fce7c"/><path d="m23.152 73.447c4.001 14.689 17.333 25.483 33.166 25.485 15.832 0 29.162-10.795 33.164-25.485z" fill="#25e899"/><path d="m21.541 73.447 3.513 10.417.149-.05-3.497-10.367z" fill="#15003e"/><path d="m23.049 73.447c.113.371.159.728.108 1.096.126-.359.234-.721.323-1.088.004-.003.007-.006.01-.008z" fill="#1dbcb4"/><path d="m36.114 92.733c.351.054.703.101 1.054.141.606.946 1.564 1.599 2.588 2.119 1.409.715 2.927 1.226 4.431 1.695 3.67 1.153 7.252 2.859 11.195 2.399.636.167 1.358.035 1.795-.48.965-1.134 1.447-2.552 1.787-3.983.359-1.515.486-2.87-.178-4.317-.559-1.228-1.861-2.137-3.018-2.738-1.307-.678-2.708-1.065-4.139-1.374-3.472-.751-7.397-1.193-10.924-.562-2.604.466-5.834 2.374-5.974 5.283-.036.76.595 1.695 1.383 1.817z" fill="#1dbcb4"/><path d="m91.193 64.949c.051-.249.076-.496.086-.742-.318-1.535-.391-3.139-.471-4.701-.033-.259-.066-.517-.098-.776-.049-.395-.088-.804-.137-1.217-.264-.52-.564-1.035-.73-1.551-.125-.392-.178-.763-.125-1.149-.104.303-.197.611-.277.921-.018-.447-.088-.893-.209-1.325-.098-.348-.264-.772-.492-1.163-.012-.128-.025-.258-.033-.386-.119-1.42-.307-2.645-1.16-3.81-.256-.35-.678-.368-.945-.168-.225-.648-.436-1.31-.766-1.9-.07-.127-.303-.116-.328.043-.133.815.057 1.568.295 2.355.305 1.014.369 2.081.695 3.101.064.208.133.416.201.623.09 1.086.223 2.165.248 3.257.031 1.188-.359 2.189-1.01 3.049-.258.114-.516.222-.764.322-1.801.725-3.74 1.162-5.453 2.09-1.541.833-2.605 2.108-3.174 3.65-.117.077-.238.158-.357.24-.486.337-.973.685-1.51.915-.125-.064-.256-.121-.389-.169-.777-.288-1.787-.381-2.764.484-1.055.937-1.6 2.634-1.727 4.389-.051.693.051 1.728.334 2.246.453 2.333 1.74 3.249 3.002 3.986.746.435 1.506.815 2.123 1.572.672.816 1.168 1.968 1.607 3.202.404 1.135.775 2.343 1.029 3.688.135.728.223 1.515.355 2.246.051.294.047.554.037.9-.01.395.012.676.086.914.107.793.791.457 1.164-.352.24.061.563-.191.809-.642.016-.014.033-.03.059-.052.133-.106.262-.196.393-.302.318-.261.627-.655.93-1.045.629-.81 1.273-1.527 1.895-2.381.574-.788 1.15-1.651 1.711-2.492.201-.306.385-.642.559-.992.68-.46 1.244-1.368 1.525-1.995.225-.495.322-.981.391-1.518.018-.135.035-.274.051-.415.373-.602.752-1.188 1.1-1.841.475-.892 1.068-2.262 1.051-3.15.17-.514.336-1.022.412-1.558.092-.668.113-1.385.455-1.961-.023-.319-.049-.627-.068-.918-.064-1.117.139-2.166.424-3.211-.044-.085-.064-.192-.04-.311z" fill="#1dbcb4"/><path d="m41.423 75.441c-.495-1.666-1.843-3.124-3.497-3.665-.307-.101-.628.011-.861.224-.402-.322-.917-.303-1.32-.077-.876-.685-1.989-1.177-2.836-.546-.052.04-.1.08-.147.121-.084-.054-.167-.109-.253-.159-.689-.415-1.454-.046-1.759.556-.291-.129-.586-.242-.889-.334-.835-.254-1.411.449-1.417 1.188-.224-.311-.458-.609-.68-.899-.456-.595-1.175-.909-1.884-.494-.342.2-.559.523-.639.881-.529-1.021-2.5-.667-2.348.622.015.113.032.222.052.331-.002 0-.005 0-.008.002.02.089.042.178.065.266.141.596.369 1.146.646 1.674.288.618.599 1.226.837 1.854.555 1.469.998 2.963 1.639 4.399.553 1.237 1.207 2.503 2.138 3.495.258.276.567.508.902.694-.071.317-.033.66.158.987.28.479.757.69 1.229.679-.004.005-.009.012-.014.019 2.186-.125 3.983-.947 5.817-2.093 1.666-1.042 3.163-2.32 4.28-3.945.586-.849.588-1.781.842-2.74.281-1.052.257-1.997-.053-3.04z" fill="#0fce7c"/><circle cx="84.112" cy="64.145" fill="#fff" r=".472"/><path d="m84.111 64.693c-.303 0-.549-.245-.549-.548 0-.304.246-.549.549-.549s.551.246.551.549-.248.548-.551.548zm0-.942c-.215 0-.393.177-.393.393 0 .217.178.392.393.392.217 0 .393-.175.393-.392-.001-.215-.176-.393-.393-.393z" fill="#15003e"/><circle cx="88.822" cy="68.775" fill="#fff" r=".471"/><path d="m88.822 69.325c-.303 0-.551-.247-.551-.55 0-.304.248-.549.551-.549s.549.245.549.549c0 .303-.246.55-.549.55zm0-.942c-.215 0-.393.176-.393.392 0 .218.178.393.393.393.217 0 .393-.175.393-.393-.001-.216-.176-.392-.393-.392z" fill="#15003e"/><circle cx="93.099" cy="66.028" fill="#fff" r=".471"/><path d="m93.099 66.578c-.303 0-.549-.248-.549-.55 0-.304.246-.549.549-.549.305 0 .551.245.551.549 0 .302-.246.55-.551.55zm0-.943c-.215 0-.393.176-.393.393s.178.392.393.392c.217 0 .391-.175.391-.392s-.174-.393-.391-.393z" fill="#15003e"/><circle cx="95.023" cy="60.73" fill="#fff" r=".471"/><path d="m95.023 61.28c-.303 0-.549-.247-.549-.549 0-.304.246-.55.549-.55.301 0 .549.247.549.55 0 .302-.248.549-.549.549zm0-.944c-.217 0-.395.177-.395.394 0 .216.178.392.395.392s.391-.176.391-.392c0-.217-.174-.394-.391-.394z" fill="#15003e"/><circle cx="91.764" cy="56.961" fill="#fff" r=".472"/><path d="m91.765 57.511c-.303 0-.549-.247-.549-.55 0-.302.246-.549.549-.549s.549.247.549.549c0 .304-.246.55-.549.55zm0-.942c-.217 0-.395.176-.395.392 0 .217.178.393.395.393s.393-.176.393-.393c0-.216-.176-.392-.393-.392z" fill="#15003e"/><circle cx="93.961" cy="51.427" fill="#fff" r=".472"/><path d="m93.962 51.978c-.303 0-.549-.247-.549-.55s.246-.549.549-.549.551.247.551.549-.248.55-.551.55zm0-.943c-.217 0-.393.176-.393.392s.176.393.393.393.393-.176.393-.393c0-.216-.176-.392-.393-.392z" fill="#15003e"/><circle cx="92.079" cy="47.346" fill="#fff" r=".472"/><path d="m92.078 47.896c-.303 0-.549-.247-.549-.55s.246-.549.549-.549.551.247.551.549c-.001.303-.249.55-.551.55zm0-.942c-.217 0-.391.176-.391.392s.174.393.391.393.395-.177.395-.393-.179-.392-.395-.392z" fill="#15003e"/><circle cx="72.494" cy="57.55" fill="#fff" r=".471"/><path d="m72.494 58.1c-.303 0-.547-.247-.547-.549s.244-.549.547-.549.549.247.549.549-.247.549-.549.549zm0-.942c-.217 0-.393.176-.393.392 0 .217.176.393.393.393s.395-.176.395-.393c-.001-.216-.179-.392-.395-.392z" fill="#15003e"/><circle cx="64.095" cy="59.121" fill="#fff" r=".471"/><path d="m64.095 59.67c-.303 0-.549-.247-.549-.549s.246-.55.549-.55.549.247.549.55-.246.549-.549.549zm0-.941c-.217 0-.393.175-.393.392 0 .216.176.392.393.392s.393-.176.393-.392c0-.217-.176-.392-.393-.392z" fill="#15003e"/><circle cx="57.397" cy="52.186" fill="#fff" r=".47"/><path d="m57.398 52.736c-.305 0-.551-.247-.551-.55 0-.302.246-.549.551-.549.301 0 .549.247.549.549 0 .303-.248.55-.549.55zm0-.942c-.217 0-.393.175-.393.392s.176.393.393.393c.215 0 .391-.176.391-.393 0-.216-.176-.392-.391-.392z" fill="#15003e"/><circle cx="66.292" cy="50.25" fill="#fff" r=".472"/><path d="m66.292 50.8c-.303 0-.549-.246-.549-.549s.246-.55.549-.55.551.247.551.55-.248.549-.551.549zm0-.942c-.217 0-.391.176-.391.393s.174.392.391.392.393-.176.393-.392-.176-.393-.393-.393z" fill="#15003e"/><circle cx="73.017" cy="51.873" fill="#fff" r=".471"/><path d="m73.017 52.422c-.303 0-.549-.247-.549-.55s.246-.549.549-.549c.305 0 .549.247.549.549s-.244.55-.549.55zm0-.942c-.215 0-.391.176-.391.393 0 .216.176.393.391.393.217 0 .393-.177.393-.393 0-.217-.176-.393-.393-.393z" fill="#15003e"/><circle cx="81.862" cy="48.733" fill="#fff" r=".47"/><path d="m81.863 49.282c-.305 0-.551-.246-.551-.549s.246-.55.551-.55c.301 0 .547.247.547.55s-.246.549-.547.549zm0-.942c-.219 0-.395.176-.395.393 0 .216.176.392.395.392.215 0 .393-.176.393-.392-.001-.217-.178-.393-.393-.393z" fill="#15003e"/><circle cx="87.748" cy="45.043" fill="#fff" r=".471"/><path d="m87.748 45.593c-.303 0-.547-.247-.547-.55s.244-.549.547-.549.551.246.551.549-.249.55-.551.55zm0-.942c-.217 0-.391.176-.391.392 0 .217.174.394.391.394.219 0 .393-.177.393-.394-.001-.216-.175-.392-.393-.392z" fill="#15003e"/><circle cx="87.629" cy="41.393" fill="#fff" r=".472"/><path d="m87.63 41.943c-.303 0-.549-.247-.549-.55 0-.302.246-.549.549-.549s.551.247.551.549c0 .303-.248.55-.551.55zm0-.943c-.217 0-.393.176-.393.392 0 .217.176.393.393.393s.393-.176.393-.393c0-.215-.176-.392-.393-.392z" fill="#15003e"/><circle cx="82.333" cy="37.272" fill="#fff" r=".47"/><path d="m82.332 37.822c-.303 0-.549-.247-.549-.549 0-.303.246-.549.549-.549s.549.246.549.549c-.001.302-.247.549-.549.549zm0-.942c-.215 0-.393.176-.393.393 0 .216.178.392.393.392.217 0 .393-.176.393-.392-.001-.217-.177-.393-.393-.393z" fill="#15003e"/><circle cx="81.43" cy="34.407" fill="#fff" r=".47"/><path d="m81.431 34.957c-.303 0-.551-.247-.551-.55 0-.302.248-.549.551-.549.301 0 .547.247.547.549 0 .303-.246.55-.547.55zm0-.942c-.219 0-.395.176-.395.392 0 .217.176.393.395.393.215 0 .391-.176.391-.393 0-.216-.176-.392-.391-.392z" fill="#15003e"/><circle cx="75.818" cy="31.817" fill="#fff" r=".471"/><path d="m75.816 32.366c-.303 0-.549-.247-.549-.549 0-.304.246-.55.549-.55.305 0 .551.247.551.55s-.246.549-.551.549zm0-.941c-.217 0-.391.175-.391.392 0 .216.174.392.391.392s.395-.176.395-.392c-.001-.216-.178-.392-.395-.392z" fill="#15003e"/><circle cx="74.22" cy="29.213" fill="#fff" r=".471"/><path d="m74.22 29.762c-.303 0-.547-.245-.547-.549 0-.303.244-.549.547-.549s.551.247.551.549c0 .304-.248.549-.551.549zm0-.941c-.217 0-.393.176-.393.392 0 .217.176.393.393.393s.393-.176.393-.393c0-.216-.176-.392-.393-.392z" fill="#15003e"/><circle cx="72.545" cy="32.301" fill="#fff" r=".472"/><path d="m72.546 32.851c-.303 0-.549-.246-.549-.549s.246-.55.549-.55.549.247.549.55-.246.549-.549.549zm0-.943c-.217 0-.391.177-.391.393s.174.392.391.392.393-.176.393-.392-.176-.393-.393-.393z" fill="#15003e"/><circle cx="68.464" cy="28.559" fill="#fff" r=".471"/><path d="m68.464 29.109c-.303 0-.549-.247-.549-.55s.246-.549.549-.549c.305 0 .551.246.551.549s-.246.55-.551.55zm0-.942c-.215 0-.393.176-.393.392 0 .217.178.392.393.392.217 0 .393-.175.393-.392 0-.216-.176-.392-.393-.392z" fill="#15003e"/><circle cx="66.32" cy="26.152" fill="#fff" r=".471"/><path d="m66.318 26.702c-.301 0-.549-.247-.549-.55 0-.302.248-.549.549-.549.303 0 .551.247.551.549 0 .303-.248.55-.551.55zm0-.943c-.215 0-.391.177-.391.393 0 .217.176.393.391.393.217 0 .393-.176.393-.393-.001-.216-.176-.393-.393-.393z" fill="#15003e"/><circle cx="63.441" cy="28.246" fill="#fff" r=".471"/><path d="m63.441 28.795c-.303 0-.551-.246-.551-.549s.248-.55.551-.55.549.247.549.55-.246.549-.549.549zm0-.942c-.215 0-.393.177-.393.393s.178.393.393.393c.217 0 .393-.176.393-.393s-.176-.393-.393-.393z" fill="#15003e"/><circle cx="54.675" cy="26.832" fill="#fff" r=".471"/><path d="m54.675 27.382c-.302 0-.548-.247-.548-.55 0-.302.247-.549.548-.549.303 0 .55.247.55.549 0 .304-.246.55-.55.55zm0-.942c-.216 0-.392.176-.392.392 0 .217.176.393.392.393.217 0 .393-.176.393-.393 0-.216-.175-.392-.393-.392z" fill="#15003e"/><circle cx="55.801" cy="25.498" fill="#fff" r=".47"/><path d="m55.801 26.047c-.303 0-.55-.246-.55-.549s.247-.55.55-.55c.302 0 .55.247.55.55s-.248.549-.55.549zm0-.941c-.216 0-.392.176-.392.392s.176.393.392.393.392-.176.392-.393-.176-.392-.392-.392z" fill="#15003e"/><circle cx="49.913" cy="25.498" fill="#fff" r=".471"/><path d="m49.915 26.047c-.304 0-.551-.246-.551-.549s.247-.55.551-.55c.302 0 .548.247.548.55s-.247.549-.548.549zm0-.941c-.218 0-.394.176-.394.392s.176.393.394.393c.216 0 .392-.176.392-.393s-.176-.392-.392-.392z" fill="#15003e"/><circle cx="46.695" cy="27.827" fill="#fff" r=".471"/><path d="m46.696 28.375c-.304 0-.55-.246-.55-.548 0-.303.247-.55.55-.55s.55.247.55.55c0 .302-.247.548-.55.548zm0-.941c-.216 0-.393.176-.393.393 0 .216.176.392.393.392.215 0 .392-.176.392-.392-.001-.217-.177-.393-.392-.393z" fill="#15003e"/><circle cx="46.46" cy="29.449" fill="#fff" r=".471"/><path d="m46.459 29.998c-.303 0-.549-.245-.549-.548s.246-.55.549-.55c.304 0 .55.247.55.55s-.246.548-.55.548zm0-.941c-.217 0-.392.176-.392.393 0 .216.175.392.392.392.216 0 .392-.176.392-.392.001-.218-.176-.393-.392-.393z" fill="#15003e"/><circle cx="41.462" cy="32.065" fill="#fff" r=".47"/><path d="m41.462 32.615c-.303 0-.551-.246-.551-.549s.248-.55.551-.55.549.247.549.55-.246.549-.549.549zm0-.942c-.216 0-.392.176-.392.392s.176.393.392.393.392-.177.392-.393c0-.215-.175-.392-.392-.392z" fill="#15003e"/><circle cx="39.5" cy="33.034" fill="#fff" r=".471"/><path d="m39.5 33.583c-.304 0-.549-.247-.549-.55s.245-.549.549-.549.55.246.55.549-.247.55-.55.55zm0-.942c-.216 0-.391.176-.391.393s.175.393.391.393c.217 0 .393-.176.393-.393s-.176-.393-.393-.393z" fill="#15003e"/><circle cx="36.962" cy="29.947" fill="#fff" r=".471"/><path d="m36.962 30.496c-.303 0-.549-.247-.549-.549 0-.303.246-.55.549-.55.302 0 .55.247.55.55 0 .302-.248.549-.55.549zm0-.942c-.217 0-.393.176-.393.393 0 .216.176.392.393.392.216 0 .393-.176.393-.392-.001-.217-.177-.393-.393-.393z" fill="#15003e"/><circle cx="35.234" cy="31.28" fill="#fff" r=".471"/><path d="m35.235 31.83c-.304 0-.549-.247-.549-.55 0-.302.246-.548.549-.548s.549.247.549.548c0 .303-.246.55-.549.55zm0-.942c-.216 0-.393.176-.393.392 0 .218.177.394.393.394.217 0 .394-.176.394-.394-.001-.216-.177-.392-.394-.392z" fill="#15003e"/><circle cx="32.305" cy="33.897" fill="#fff" r=".471"/><path d="m32.305 34.447c-.303 0-.55-.247-.55-.55s.247-.549.55-.549c.302 0 .549.246.549.549s-.247.55-.549.55zm0-.943c-.217 0-.393.177-.393.393 0 .217.176.392.393.392.216 0 .392-.175.392-.392-.001-.216-.176-.393-.392-.393z" fill="#15003e"/><circle cx="30.289" cy="34.381" fill="#fff" r=".47"/><path d="m30.29 34.931c-.303 0-.55-.247-.55-.55 0-.302.248-.549.55-.549s.549.247.549.549c0 .303-.247.55-.549.55zm0-.942c-.217 0-.392.176-.392.392 0 .217.175.393.392.393.216 0 .392-.176.392-.393 0-.216-.176-.392-.392-.392z" fill="#15003e"/><circle cx="29.191" cy="36.801" fill="#fff" r=".471"/><path d="m29.191 37.351c-.303 0-.551-.247-.551-.549 0-.303.248-.549.551-.549s.549.246.549.549c.001.302-.245.549-.549.549zm0-.942c-.218 0-.394.176-.394.393 0 .216.175.392.394.392.216 0 .392-.176.392-.392 0-.218-.175-.393-.392-.393z" fill="#15003e"/><circle cx="24.586" cy="43.369" fill="#fff" r=".472"/><path d="m24.585 43.919c-.303 0-.549-.247-.549-.55 0-.304.247-.55.549-.55s.55.247.55.55c.001.303-.247.55-.55.55zm0-.942c-.216 0-.393.176-.393.392s.177.392.393.392.393-.176.393-.392-.176-.392-.393-.392z" fill="#15003e"/><circle cx="23.278" cy="44.52" fill="#fff" r=".471"/><path d="m23.277 45.07c-.302 0-.548-.247-.548-.55 0-.302.246-.549.548-.549.303 0 .55.247.55.549 0 .303-.247.55-.55.55zm0-.943c-.216 0-.392.177-.392.393s.176.392.392.392c.217 0 .394-.176.394-.392s-.177-.393-.394-.393z" fill="#15003e"/><circle cx="21.446" cy="50.76" fill="#fff" r=".471"/><path d="m21.446 51.31c-.303 0-.55-.247-.55-.55s.247-.548.55-.548c.302 0 .548.246.548.548s-.245.55-.548.55zm0-.942c-.217 0-.393.176-.393.392 0 .217.176.393.393.393.216 0 .392-.176.392-.393 0-.216-.176-.392-.392-.392z" fill="#15003e"/><circle cx="18.201" cy="52.382" fill="#fff" r=".471"/><path d="m18.202 52.932c-.303 0-.55-.247-.55-.55s.247-.549.55-.549.548.246.548.549c0 .304-.245.55-.548.55zm0-.942c-.216 0-.393.176-.393.392 0 .218.177.393.393.393s.393-.175.393-.393c-.001-.216-.177-.392-.393-.392z" fill="#15003e"/><circle cx="17.468" cy="57.354" fill="#fff" r=".47"/><path d="m17.468 57.904c-.302 0-.549-.247-.549-.549 0-.303.247-.55.549-.55.303 0 .55.247.55.55 0 .302-.247.549-.55.549zm0-.943c-.216 0-.392.176-.392.393 0 .216.176.392.392.392.217 0 .394-.176.394-.392-.001-.217-.177-.393-.394-.393z" fill="#15003e"/><circle cx="17.024" cy="62.639" fill="#fff" r=".47"/><path d="m17.024 63.189c-.303 0-.549-.247-.549-.55 0-.302.246-.549.549-.549.302 0 .549.247.549.549 0 .303-.247.55-.549.55zm0-.941c-.217 0-.393.176-.393.391 0 .217.176.392.393.392.216 0 .392-.175.392-.392 0-.215-.176-.391-.392-.391z" fill="#15003e"/><circle cx="16.239" cy="67.534" fill="#fff" r=".47"/><path d="m16.239 68.082c-.303 0-.549-.247-.549-.548 0-.304.247-.551.549-.551s.55.247.55.551c0 .3-.247.548-.55.548zm0-.941c-.217 0-.394.174-.394.393 0 .215.176.392.394.392.216 0 .392-.177.392-.392 0-.219-.176-.393-.392-.393z" fill="#15003e"/><circle cx="18.593" cy="69.312" fill="#fff" r=".471"/><path d="m18.594 69.861c-.304 0-.551-.246-.551-.549 0-.304.247-.549.551-.549.303 0 .549.245.549.549.001.303-.246.549-.549.549zm0-.943c-.217 0-.393.178-.393.394s.176.394.393.394c.216 0 .392-.178.392-.394s-.175-.394-.392-.394z" fill="#15003e"/><circle cx="21.654" cy="44.677" fill="#fff" r=".471"/><path d="m21.655 45.227c-.303 0-.549-.247-.549-.549s.247-.55.549-.55.55.247.55.55-.247.549-.55.549zm0-.943c-.216 0-.392.176-.392.393 0 .216.176.393.392.393s.393-.177.393-.393c0-.217-.177-.393-.393-.393z" fill="#15003e"/><circle cx="87.042" cy="39.784" fill="#fff" r=".472"/><path d="m87.041 40.333c-.303 0-.549-.246-.549-.549s.246-.549.549-.549c.305 0 .551.246.551.549s-.247.549-.551.549zm0-.941c-.215 0-.391.176-.391.393s.176.393.391.393c.219 0 .393-.177.393-.393s-.175-.393-.393-.393z" fill="#15003e"/><circle cx="73.435" cy="41.956" fill="#fff" r=".471"/><path d="m73.435 42.506c-.303 0-.547-.248-.547-.55 0-.303.244-.55.547-.55s.551.247.551.55c0 .302-.248.55-.551.55zm0-.943c-.217 0-.393.177-.393.393 0 .215.176.393.393.393s.393-.177.393-.393-.176-.393-.393-.393z" fill="#15003e"/><circle cx="68.359" cy="42.714" fill="#fff" r=".471"/><path d="m68.359 43.264c-.303 0-.549-.246-.549-.55 0-.302.246-.548.549-.548.305 0 .551.246.551.548 0 .304-.246.55-.551.55zm0-.942c-.215 0-.391.176-.391.392 0 .217.176.394.391.394.217 0 .393-.177.393-.394-.001-.216-.176-.392-.393-.392z" fill="#15003e"/><circle cx="59.568" cy="44.363" fill="#fff" r=".471"/><path d="m59.568 44.912c-.303 0-.549-.246-.549-.549s.246-.549.549-.549.551.247.551.549c0 .303-.248.549-.551.549zm0-.941c-.217 0-.393.176-.393.392 0 .217.176.393.393.393s.391-.176.391-.393c-.001-.216-.174-.392-.391-.392z" fill="#15003e"/><circle cx="63.912" cy="32.746" fill="#fff" r=".471"/><path d="m63.912 33.296c-.303 0-.549-.247-.549-.55s.246-.549.549-.549.551.246.551.549-.249.55-.551.55zm0-.942c-.217 0-.391.175-.391.392 0 .216.174.392.391.392.215 0 .393-.176.393-.392-.001-.217-.179-.392-.393-.392z" fill="#15003e"/><circle cx="54.911" cy="34.132" fill="#fff" r=".471"/><path d="m54.911 34.682c-.303 0-.549-.247-.549-.55s.246-.549.549-.549c.304 0 .549.246.549.549s-.246.55-.549.55zm0-.942c-.216 0-.392.176-.392.393 0 .216.176.393.392.393s.392-.177.392-.393c0-.217-.176-.393-.392-.393z" fill="#15003e"/><circle cx="48.658" cy="36.068" fill="#fff" r=".471"/><path d="m48.657 36.618c-.303 0-.55-.246-.55-.549 0-.302.247-.549.55-.549.304 0 .549.247.549.549 0 .303-.245.549-.549.549zm0-.942c-.216 0-.392.177-.392.393 0 .217.176.393.392.393s.392-.176.392-.393c0-.216-.175-.393-.392-.393z" fill="#15003e"/><circle cx="44.157" cy="41.668" fill="#fff" r=".471"/><path d="m44.157 42.217c-.304 0-.551-.247-.551-.549 0-.303.247-.549.551-.549.303 0 .549.246.549.549.001.303-.246.549-.549.549zm0-.942c-.217 0-.393.176-.393.393s.176.393.393.393.393-.176.393-.393c0-.216-.176-.393-.393-.393z" fill="#15003e"/><circle cx="50.358" cy="46.822" fill="#fff" r=".471"/><path d="m50.358 47.372c-.302 0-.549-.247-.549-.55 0-.302.247-.549.549-.549.303 0 .549.247.549.549 0 .303-.246.55-.549.55zm0-.942c-.215 0-.393.177-.393.392 0 .217.178.394.393.394.217 0 .393-.176.393-.394-.001-.215-.176-.392-.393-.392z" fill="#15003e"/><circle cx="44.628" cy="50.616" fill="#fff" r=".47"/><path d="m44.627 51.166c-.303 0-.55-.247-.55-.55s.247-.549.55-.549.55.247.55.549c0 .303-.246.55-.55.55zm0-.942c-.216 0-.392.176-.392.392s.176.393.392.393c.217 0 .393-.177.393-.393.001-.216-.175-.392-.393-.392z" fill="#15003e"/><circle cx="57.162" cy="67.938" fill="#fff" r=".471"/><path d="m57.162 68.487c-.303 0-.55-.245-.55-.549 0-.303.247-.549.55-.549.301 0 .549.246.549.549-.001.304-.249.549-.549.549zm0-.943c-.217 0-.393.177-.393.394 0 .218.176.392.393.392.215 0 .393-.174.393-.392-.001-.217-.179-.394-.393-.394z" fill="#15003e"/><circle cx="68.896" cy="70.568" fill="#fff" r=".471"/><path d="m68.896 71.117c-.303 0-.549-.247-.549-.549 0-.304.246-.55.549-.55s.549.246.549.55c0 .302-.246.549-.549.549zm0-.942c-.215 0-.393.176-.393.393 0 .216.178.393.393.393.217 0 .393-.177.393-.393 0-.217-.176-.393-.393-.393z" fill="#15003e"/><circle cx="53.354" cy="70.253" fill="#fff" r=".471"/><path d="m53.354 70.803c-.303 0-.55-.247-.55-.55 0-.304.247-.548.55-.548.302 0 .549.244.549.548.001.303-.246.55-.549.55zm0-.942c-.217 0-.393.177-.393.393s.176.393.393.393c.216 0 .391-.177.391-.393s-.175-.393-.391-.393z" fill="#15003e"/><circle cx="46.289" cy="63.071" fill="#fff" r=".471"/><path d="m46.29 63.621c-.303 0-.55-.248-.55-.55s.247-.549.55-.549c.304 0 .549.246.549.549s-.245.55-.549.55zm0-.943c-.217 0-.393.176-.393.393s.176.392.393.392c.215 0 .392-.175.392-.392s-.177-.393-.392-.393z" fill="#15003e"/><circle cx="39.5" cy="58.048" fill="#fff" r=".471"/><path d="m39.5 58.597c-.304 0-.549-.247-.549-.549 0-.303.246-.55.549-.55s.55.247.55.55c0 .302-.247.549-.55.549zm0-.942c-.216 0-.391.176-.391.393 0 .216.175.392.391.392.217 0 .393-.176.393-.392-.001-.217-.176-.393-.393-.393z" fill="#15003e"/><circle cx="34.201" cy="47.726" fill="#fff" r=".471"/><path d="m34.202 48.274c-.304 0-.55-.246-.55-.549s.246-.549.55-.549c.303 0 .549.247.549.549s-.246.549-.549.549zm0-.941c-.216 0-.394.176-.394.393 0 .216.177.392.394.392.215 0 .392-.176.392-.392 0-.217-.177-.393-.392-.393z" fill="#15003e"/><circle cx="28.589" cy="50.081" fill="#fff" r=".471"/><path d="m28.589 50.63c-.304 0-.55-.247-.55-.55 0-.304.247-.55.55-.55s.548.246.548.55c.001.303-.244.55-.548.55zm0-.942c-.217 0-.393.176-.393.393 0 .216.176.392.393.392.215 0 .392-.175.392-.392s-.176-.393-.392-.393z" fill="#15003e"/><circle cx="48.331" cy="56.125" fill="#fff" r=".471"/><path d="m48.33 56.674c-.303 0-.549-.246-.549-.549s.247-.549.549-.549c.304 0 .55.247.55.549 0 .303-.246.549-.55.549zm0-.942c-.217 0-.392.176-.392.393s.175.393.392.393c.216 0 .392-.176.392-.393s-.176-.393-.392-.393z" fill="#15003e"/><circle cx="51.627" cy="49.727" fill="#fff" r=".471"/><path d="m51.627 50.276c-.303 0-.549-.247-.549-.549 0-.303.246-.549.549-.549s.55.247.55.549-.247.549-.55.549zm0-.942c-.216 0-.392.177-.392.393 0 .217.176.393.392.393s.394-.176.394-.393c0-.216-.178-.393-.394-.393z" fill="#15003e"/><circle cx="42.011" cy="57.223" fill="#fff" r=".472"/><path d="m42.012 57.774c-.303 0-.549-.247-.549-.551 0-.303.247-.549.549-.549s.549.247.549.549c0 .304-.247.551-.549.551zm0-.944c-.217 0-.394.177-.394.393s.176.392.394.392c.216 0 .393-.176.393-.392s-.177-.393-.393-.393z" fill="#15003e"/><circle cx="37.969" cy="67.27" fill="#fff" r=".471"/><path d="m37.97 67.819c-.304 0-.55-.245-.55-.549s.246-.549.55-.549c.303 0 .548.245.548.549s-.246.549-.548.549zm0-.941c-.216 0-.393.176-.393.392 0 .218.176.393.393.393.216 0 .393-.175.393-.393-.001-.216-.177-.392-.393-.392z" fill="#15003e"/><circle cx="26.313" cy="68.998" fill="#fff" r=".471"/><path d="m26.312 69.547c-.302 0-.549-.246-.549-.55 0-.303.247-.55.549-.55.303 0 .55.247.55.55 0 .304-.247.55-.55.55zm0-.942c-.216 0-.392.177-.392.393 0 .217.176.393.392.393.217 0 .393-.176.393-.393 0-.216-.176-.393-.393-.393z" fill="#15003e"/><circle cx="26.587" cy="59.107" fill="#fff" r=".471"/><path d="m26.587 59.657c-.303 0-.549-.247-.549-.55s.247-.549.549-.549c.303 0 .549.246.549.549s-.246.55-.549.55zm0-.943c-.215 0-.392.176-.392.393 0 .216.177.393.392.393.216 0 .392-.177.392-.393 0-.217-.176-.393-.392-.393z" fill="#15003e"/><circle cx="30.119" cy="60.441" fill="#fff" r=".471"/><path d="m30.119 60.991c-.303 0-.548-.247-.548-.55s.246-.549.548-.549c.303 0 .55.246.55.549s-.247.55-.55.55zm0-.942c-.217 0-.393.176-.393.392 0 .217.176.393.393.393s.393-.176.393-.393c0-.216-.176-.392-.393-.392z" fill="#15003e"/><circle cx="34.555" cy="65.74" fill="#fff" r=".471"/><path d="m34.555 66.29c-.303 0-.549-.246-.549-.55s.246-.548.549-.548.548.244.548.548-.246.55-.548.55zm0-.942c-.216 0-.393.175-.393.392s.177.392.393.392.392-.175.392-.392-.176-.392-.392-.392z" fill="#15003e"/><circle cx="31.753" cy="73.159" fill="#fff" r=".471"/><path d="m31.752 73.707c-.303 0-.55-.246-.55-.548 0-.303.247-.55.55-.55.302 0 .549.247.549.55 0 .301-.246.548-.549.548zm0-.941c-.216 0-.392.174-.392.393 0 .217.176.392.392.392s.393-.175.393-.392c.001-.219-.176-.393-.393-.393z" fill="#15003e"/><circle cx="55.042" cy="55.103" fill="#fff" r=".471"/><path d="m55.042 55.653c-.302 0-.549-.247-.549-.55 0-.302.247-.548.549-.548.304 0 .55.246.55.548-.001.304-.247.55-.55.55zm0-.942c-.216 0-.392.176-.392.392 0 .217.176.394.392.394.217 0 .393-.177.393-.394-.001-.216-.177-.392-.393-.392z" fill="#15003e"/><circle cx="52.256" cy="62.208" fill="#fff" r=".471"/><path d="m52.256 62.757c-.304 0-.55-.247-.55-.549s.246-.549.55-.549c.301 0 .548.247.548.549.001.302-.246.549-.548.549zm0-.942c-.218 0-.393.175-.393.392 0 .216.175.395.393.395.215 0 .391-.178.391-.395 0-.216-.175-.392-.391-.392z" fill="#15003e"/><circle cx="80.371" cy="61.894" fill="#fff" r=".471"/><path d="m80.371 62.444c-.303 0-.551-.247-.551-.55 0-.304.248-.55.551-.55s.549.246.549.55c-.001.303-.247.55-.549.55zm0-.943c-.217 0-.393.176-.393.393s.176.392.393.392c.215 0 .391-.175.391-.392s-.177-.393-.391-.393z" fill="#15003e"/><circle cx="70.192" cy="63.383" fill="#fff" r=".472"/><path d="m70.191 63.935c-.303 0-.549-.246-.549-.551 0-.301.246-.548.549-.548.305 0 .551.247.551.548 0 .305-.246.551-.551.551zm0-.943c-.217 0-.393.175-.393.391 0 .219.176.395.393.395s.393-.175.393-.395c-.001-.216-.176-.391-.393-.391z" fill="#15003e"/><circle cx="70.217" cy="67.401" fill="#fff" r=".472"/><path d="m70.218 67.952c-.305 0-.549-.247-.549-.551 0-.302.244-.549.549-.549.303 0 .551.247.551.549 0 .304-.248.551-.551.551zm0-.944c-.217 0-.393.177-.393.393 0 .217.176.394.393.394.215 0 .391-.177.391-.394 0-.216-.176-.393-.391-.393z" fill="#15003e"/><circle cx="79.99" cy="69.757" fill="#fff" r=".471"/><path d="m79.99 70.305c-.303 0-.551-.245-.551-.548 0-.304.248-.55.551-.55s.551.246.551.55c0 .303-.249.548-.551.548zm0-.941c-.217 0-.391.177-.391.394 0 .215.174.392.391.392.219 0 .393-.177.393-.392-.001-.217-.175-.394-.393-.394z" fill="#15003e"/><path d="m67.209 43.08h.158v6.804h-.158z" fill="#15003e" transform="matrix(.9656 .26 -.26 .9656 14.3978 -15.8947)"/><circle cx="18.914" cy="77.924" fill="#fff" r=".471"/><path d="m18.914 78.475c-.302 0-.549-.247-.549-.551 0-.303.247-.549.549-.549.304 0 .55.246.55.549 0 .304-.247.551-.55.551zm0-.942c-.216 0-.392.176-.392.392 0 .217.176.394.392.394.217 0 .393-.177.393-.394-.001-.217-.177-.392-.393-.392z" fill="#15003e"/><circle cx="20.798" cy="82.007" fill="#fff" r=".471"/><path d="m20.798 82.557c-.302 0-.549-.247-.549-.55s.247-.55.549-.55c.303 0 .55.247.55.55s-.247.55-.55.55zm0-.942c-.216 0-.392.177-.392.393 0 .217.176.392.392.392.217 0 .392-.175.392-.392 0-.216-.175-.393-.392-.393z" fill="#15003e"/><circle cx="55.48" cy="77.166" fill="#fff" r=".471"/><path d="m55.48 77.715c-.304 0-.55-.245-.55-.55 0-.303.246-.547.55-.547.303 0 .548.244.548.547.001.305-.245.55-.548.55zm0-.94c-.216 0-.392.176-.392.391 0 .217.176.394.392.394s.392-.177.392-.394c.001-.215-.175-.391-.392-.391z" fill="#15003e"/><circle cx="46.584" cy="79.103" fill="#fff" r=".471"/><path d="m46.583 79.654c-.302 0-.55-.249-.55-.551 0-.303.248-.55.55-.55.304 0 .55.247.55.55.001.302-.246.551-.55.551zm0-.943c-.216 0-.392.174-.392.392 0 .217.176.393.392.393.217 0 .393-.176.393-.393 0-.218-.175-.392-.393-.392z" fill="#15003e"/><path d="m39.389 77.479c0-.259.211-.469.471-.469s.472.21.472.469c0 .262-.212.473-.472.473s-.471-.211-.471-.473z" fill="#fff"/><path d="m39.859 78.032c-.303 0-.55-.249-.55-.553 0-.302.247-.548.55-.548s.548.246.548.548c.001.304-.244.553-.548.553zm0-.945c-.217 0-.394.175-.394.392 0 .219.177.395.394.395.216 0 .393-.176.393-.395 0-.217-.176-.392-.393-.392z" fill="#15003e"/><circle cx="31.016" cy="80.62" fill="#fff" r=".471"/><path d="m31.017 81.169c-.304 0-.55-.246-.55-.55 0-.302.247-.548.55-.548s.548.246.548.548c0 .304-.246.55-.548.55zm0-.942c-.216 0-.393.177-.393.393 0 .218.177.395.393.395.215 0 .392-.177.392-.395-.001-.216-.178-.393-.392-.393z" fill="#15003e"/><circle cx="25.129" cy="84.31" fill="#fff" r=".471"/><path d="m25.129 84.859c-.303 0-.549-.245-.549-.549s.246-.549.549-.549.548.245.548.549-.245.549-.548.549zm0-.942c-.217 0-.393.175-.393.393 0 .216.176.392.393.392.216 0 .392-.176.392-.392 0-.218-.176-.393-.392-.393z" fill="#15003e"/><circle cx="25.246" cy="87.96" fill="#fff" r=".471"/><path d="m25.246 88.509c-.303 0-.549-.246-.549-.549 0-.304.246-.551.549-.551s.55.247.55.551c0 .303-.247.549-.55.549zm0-.941c-.217 0-.393.176-.393.393s.176.392.393.392c.216 0 .392-.175.392-.392s-.176-.393-.392-.393z" fill="#15003e"/><circle cx="30.545" cy="92.081" fill="#fff" r=".471"/><path d="m30.544 92.631c-.302 0-.549-.246-.549-.551 0-.303.247-.549.549-.549.303 0 .55.246.55.549 0 .305-.246.551-.55.551zm0-.943c-.216 0-.392.177-.392.393 0 .217.176.393.392.393.217 0 .393-.176.393-.393 0-.216-.176-.393-.393-.393z" fill="#15003e"/><circle cx="31.448" cy="94.946" fill="#fff" r=".47"/><path d="m31.447 95.496c-.302 0-.549-.247-.549-.55 0-.302.247-.55.549-.55s.549.248.549.55c.001.303-.246.55-.549.55zm0-.943c-.217 0-.393.177-.393.393s.176.392.393.392.393-.176.393-.392-.176-.393-.393-.393z" fill="#15003e"/><circle cx="37.06" cy="97.537" fill="#fff" r=".471"/><path d="m37.06 98.084c-.303 0-.548-.244-.548-.548 0-.303.245-.549.548-.549s.551.246.551.549c-.001.304-.248.548-.551.548zm0-.939c-.217 0-.393.174-.393.392 0 .217.176.394.393.394.216 0 .393-.177.393-.394-.001-.218-.177-.392-.393-.392z" fill="#15003e"/><circle cx="38.656" cy="100.139" fill="#fff" r=".47"/><path d="m38.656 100.69c-.303 0-.55-.248-.55-.551 0-.301.247-.551.55-.551.302 0 .549.25.549.551 0 .303-.247.551-.549.551zm0-.942c-.216 0-.392.176-.392.392 0 .217.176.394.392.394s.392-.177.392-.394-.175-.392-.392-.392z" fill="#15003e"/><circle cx="40.331" cy="97.051" fill="#fff" r=".471"/><path d="m40.331 97.602c-.304 0-.551-.246-.551-.551 0-.303.247-.548.551-.548.303 0 .549.245.549.548 0 .305-.246.551-.549.551zm0-.941c-.217 0-.393.175-.393.391 0 .217.176.394.393.394.216 0 .392-.177.392-.394s-.176-.391-.392-.391z" fill="#15003e"/><circle cx="44.412" cy="100.794" fill="#fff" r=".47"/><path d="m44.413 101.343c-.303 0-.55-.246-.55-.549 0-.305.247-.549.55-.549s.549.244.549.549c0 .303-.247.549-.549.549zm0-.942c-.217 0-.394.176-.394.394 0 .217.177.392.394.392.216 0 .392-.175.392-.392-.001-.218-.176-.394-.392-.394z" fill="#15003e"/><circle cx="46.557" cy="103.202" fill="#fff" r=".471"/><path d="m46.558 103.75c-.304 0-.55-.248-.55-.549 0-.303.247-.551.55-.551s.549.248.549.551c0 .301-.246.549-.549.549zm0-.942c-.217 0-.393.175-.393.394 0 .216.176.393.393.393.215 0 .392-.177.392-.393 0-.219-.177-.394-.392-.394z" fill="#15003e"/><circle cx="49.436" cy="101.109" fill="#fff" r=".471"/><path d="m49.437 101.657c-.303 0-.551-.247-.551-.548 0-.304.248-.551.551-.551s.548.247.548.551c-.001.301-.246.548-.548.548zm0-.942c-.216 0-.393.177-.393.394 0 .216.176.393.393.393s.392-.177.392-.393c0-.217-.176-.394-.392-.394z" fill="#15003e"/><circle cx="58.203" cy="102.52" fill="#fff" r=".471"/><path d="m58.201 103.07c-.301 0-.549-.245-.549-.55 0-.303.248-.549.549-.549.303 0 .551.246.551.549-.001.305-.249.55-.551.55zm0-.942c-.217 0-.393.175-.393.392 0 .219.176.394.393.394s.393-.175.393-.394c-.001-.217-.177-.392-.393-.392z" fill="#15003e"/><circle cx="57.077" cy="103.854" fill="#fff" r=".472"/><path d="m57.076 104.405c-.303 0-.549-.247-.549-.551 0-.302.246-.548.549-.548.305 0 .551.246.551.548-.001.304-.247.551-.551.551zm0-.943c-.217 0-.393.176-.393.392 0 .218.176.393.393.393s.393-.175.393-.393c-.001-.216-.177-.392-.393-.392z" fill="#15003e"/><circle cx="62.962" cy="103.854" fill="#fff" r=".471"/><path d="m62.962 104.405c-.301 0-.547-.247-.547-.551 0-.302.246-.548.547-.548.305 0 .549.246.549.548 0 .304-.244.551-.549.551zm0-.943c-.215 0-.391.176-.391.392 0 .218.176.393.391.393.219 0 .395-.175.395-.393 0-.216-.176-.392-.395-.392z" fill="#15003e"/><circle cx="66.182" cy="101.526" fill="#fff" r=".472"/><path d="m66.183 102.077c-.305 0-.553-.248-.553-.551 0-.302.248-.55.553-.55.301 0 .549.248.549.55 0 .303-.248.551-.549.551zm0-.943c-.219 0-.393.176-.393.392 0 .217.174.394.393.394.215 0 .391-.177.391-.394 0-.216-.176-.392-.391-.392z" fill="#15003e"/><circle cx="66.417" cy="99.904" fill="#fff" r=".471"/><path d="m66.417 100.454c-.303 0-.551-.246-.551-.55 0-.303.248-.549.551-.549s.549.246.549.549c0 .304-.246.55-.549.55zm0-.942c-.215 0-.395.175-.395.392s.18.394.395.394c.217 0 .391-.177.391-.394s-.174-.392-.391-.392z" fill="#15003e"/><circle cx="71.415" cy="97.287" fill="#fff" r=".472"/><path d="m71.416 97.837c-.305 0-.551-.248-.551-.551 0-.302.246-.548.551-.548.303 0 .549.246.549.548-.001.303-.247.551-.549.551zm0-.941c-.217 0-.393.175-.393.391s.176.395.393.395c.215 0 .391-.179.391-.395s-.177-.391-.391-.391z" fill="#15003e"/><circle cx="73.378" cy="96.319" fill="#fff" r=".471"/><path d="m73.378 96.869c-.303 0-.551-.247-.551-.55s.248-.55.551-.55c.301 0 .547.247.547.55s-.246.55-.547.55zm0-.943c-.217 0-.393.177-.393.393s.176.393.393.393c.215 0 .393-.177.393-.393s-.178-.393-.393-.393z" fill="#15003e"/><circle cx="75.915" cy="99.408" fill="#fff" r=".472"/><path d="m75.914 99.956c-.303 0-.547-.245-.547-.548 0-.304.244-.55.547-.55.305 0 .551.246.551.55-.001.302-.247.548-.551.548zm0-.94c-.217 0-.391.175-.391.392 0 .215.174.393.391.393s.395-.178.395-.393c-.001-.217-.179-.392-.395-.392z" fill="#15003e"/><circle cx="77.643" cy="98.074" fill="#fff" r=".47"/><path d="m77.642 98.622c-.303 0-.549-.245-.549-.548 0-.304.246-.551.549-.551s.549.247.549.551c0 .302-.246.548-.549.548zm0-.941c-.217 0-.393.176-.393.393 0 .216.176.392.393.392s.391-.176.391-.392c0-.217-.174-.393-.391-.393z" fill="#15003e"/><circle cx="80.572" cy="95.457" fill="#fff" r=".471"/><path d="m80.572 96.006c-.303 0-.549-.247-.549-.55s.246-.551.549-.551.551.248.551.551-.248.55-.551.55zm0-.943c-.217 0-.391.177-.391.394s.174.393.391.393.393-.176.393-.393-.176-.394-.393-.394z" fill="#15003e"/><circle cx="82.587" cy="94.973" fill="#fff" r=".471"/><path d="m82.587 95.521c-.303 0-.549-.245-.549-.548s.246-.55.549-.55.549.247.549.55-.246.548-.549.548zm0-.941c-.217 0-.393.177-.393.394 0 .216.176.393.393.393.215 0 .393-.177.393-.393 0-.218-.178-.394-.393-.394z" fill="#15003e"/><circle cx="83.687" cy="92.552" fill="#fff" r=".471"/><path d="m83.687 93.102c-.303 0-.551-.246-.551-.55 0-.303.248-.549.551-.549s.549.246.549.549c0 .304-.246.55-.549.55zm0-.942c-.217 0-.393.177-.393.393s.176.393.393.393c.215 0 .393-.177.393-.393s-.178-.393-.393-.393z" fill="#15003e"/><circle cx="88.291" cy="85.985" fill="#fff" r=".471"/><path d="m88.291 86.534c-.303 0-.547-.245-.547-.549s.244-.55.547-.55.551.246.551.55-.249.549-.551.549zm0-.942c-.217 0-.393.176-.393.393 0 .216.176.392.393.392.219 0 .393-.176.393-.392-.001-.217-.175-.393-.393-.393z" fill="#15003e"/><circle cx="89.599" cy="84.834" fill="#fff" r=".471"/><path d="m89.599 85.381c-.303 0-.549-.244-.549-.547 0-.304.246-.55.549-.55.305 0 .549.246.549.55 0 .303-.244.547-.549.547zm0-.941c-.217 0-.393.178-.393.395 0 .216.176.392.393.392s.395-.176.395-.392c0-.217-.178-.395-.395-.395z" fill="#15003e"/><circle cx="91.431" cy="78.593" fill="#fff" r=".471"/><path d="m91.431 79.143c-.303 0-.549-.246-.549-.55s.246-.551.549-.551.549.247.549.551-.246.55-.549.55zm0-.942c-.217 0-.393.175-.393.393 0 .217.176.392.393.392s.393-.175.393-.392c0-.219-.176-.393-.393-.393z" fill="#15003e"/><circle cx="94.675" cy="76.972" fill="#fff" r=".471"/><path d="m94.675 77.52c-.303 0-.549-.245-.549-.548 0-.304.246-.552.549-.552.305 0 .549.248.549.552 0 .303-.244.548-.549.548zm0-.942c-.215 0-.393.178-.393.395 0 .215.178.391.393.391.217 0 .393-.176.393-.391 0-.218-.176-.395-.393-.395z" fill="#15003e"/><circle cx="91.222" cy="84.676" fill="#fff" r=".471"/><path d="m91.222 85.226c-.305 0-.549-.247-.549-.55 0-.304.244-.55.549-.55.303 0 .549.246.549.55 0 .303-.246.55-.549.55zm0-.941c-.217 0-.393.175-.393.392 0 .216.176.392.393.392.215 0 .393-.176.393-.392 0-.218-.178-.392-.393-.392z" fill="#15003e"/><circle cx="25.835" cy="89.568" fill="#fff" r=".471"/><path d="m25.835 90.119c-.303 0-.549-.247-.549-.551 0-.302.247-.548.549-.548s.549.246.549.548c0 .304-.246.551-.549.551zm0-.942c-.217 0-.393.176-.393.391 0 .218.176.393.393.393.216 0 .392-.175.392-.393 0-.215-.176-.391-.392-.391z" fill="#15003e"/><circle cx="39.441" cy="87.397" fill="#fff" r=".471"/><path d="m39.441 87.946c-.303 0-.549-.245-.549-.549 0-.303.246-.548.549-.548s.55.245.55.548c0 .304-.247.549-.55.549zm0-.941c-.216 0-.393.177-.393.392 0 .218.176.392.393.392s.392-.174.392-.392c0-.215-.175-.392-.392-.392z" fill="#15003e"/><circle cx="44.518" cy="86.639" fill="#fff" r=".471"/><path d="m44.518 87.189c-.303 0-.551-.248-.551-.55 0-.303.248-.55.551-.55s.548.247.548.55c0 .302-.245.55-.548.55zm0-.942c-.217 0-.393.176-.393.393 0 .216.176.392.393.392.216 0 .392-.176.392-.392-.001-.218-.177-.393-.392-.393z" fill="#15003e"/><circle cx="53.308" cy="84.99" fill="#fff" r=".471"/><path d="m53.309 85.541c-.303 0-.549-.248-.549-.551 0-.301.246-.549.549-.549s.55.248.55.549c0 .302-.248.551-.55.551zm0-.944c-.216 0-.392.176-.392.393 0 .218.176.392.392.392s.394-.174.394-.392c-.001-.217-.179-.393-.394-.393z" fill="#15003e"/><circle cx="48.965" cy="96.607" fill="#fff" r=".471"/><path d="m48.965 97.157c-.303 0-.55-.246-.55-.55 0-.301.247-.548.55-.548.304 0 .551.247.551.548 0 .304-.247.55-.551.55zm0-.941c-.217 0-.392.175-.392.391 0 .219.175.393.392.393s.393-.174.393-.393c-.001-.216-.176-.391-.393-.391z" fill="#15003e"/><circle cx="57.966" cy="95.221" fill="#fff" r=".471"/><path d="m57.966 95.769c-.303 0-.549-.246-.549-.548 0-.304.246-.55.549-.55s.549.246.549.55c0 .302-.246.548-.549.548zm0-.939c-.217 0-.393.175-.393.392 0 .216.176.393.393.393s.393-.177.393-.393c0-.218-.176-.392-.393-.392z" fill="#15003e"/><circle cx="64.22" cy="93.284" fill="#fff" r=".471"/><path d="m64.22 93.833c-.303 0-.549-.246-.549-.55 0-.302.246-.548.549-.548s.549.246.549.548c0 .304-.246.55-.549.55zm0-.942c-.217 0-.393.177-.393.393 0 .218.176.394.393.394s.393-.176.393-.394c0-.216-.176-.393-.393-.393z" fill="#15003e"/><circle cx="68.72" cy="87.686" fill="#fff" r=".471"/><path d="m68.72 88.236c-.303 0-.551-.247-.551-.55 0-.304.248-.55.551-.55s.549.246.549.55c0 .303-.246.55-.549.55zm0-.944c-.217 0-.393.177-.393.394 0 .216.176.393.393.393s.393-.177.393-.393c0-.217-.176-.394-.393-.394z" fill="#15003e"/><circle cx="62.52" cy="82.531" fill="#fff" r=".472"/><path d="m62.519 83.079c-.303 0-.549-.246-.549-.548 0-.303.246-.549.549-.549s.549.246.549.549c0 .302-.246.548-.549.548zm0-.942c-.217 0-.393.176-.393.394 0 .216.176.394.393.394s.393-.178.393-.394c0-.218-.176-.394-.393-.394z" fill="#15003e"/><circle cx="68.25" cy="78.737" fill="#fff" r=".471"/><path d="m68.25 79.287c-.303 0-.551-.247-.551-.55s.248-.55.551-.55.549.247.549.55-.247.55-.549.55zm0-.943c-.217 0-.393.177-.393.393s.176.394.393.394.393-.178.393-.394-.177-.393-.393-.393z" fill="#15003e"/><circle cx="78.675" cy="81.628" fill="#fff" r=".471"/><path d="m78.677 82.177c-.305 0-.551-.245-.551-.549 0-.303.246-.55.551-.55.303 0 .549.247.549.55 0 .304-.246.549-.549.549zm0-.942c-.217 0-.393.177-.393.394s.176.392.393.392c.215 0 .391-.175.391-.392s-.176-.394-.391-.394z" fill="#15003e"/><circle cx="84.288" cy="79.273" fill="#fff" r=".472"/><path d="m84.289 79.824c-.305 0-.549-.248-.549-.551s.244-.55.549-.55c.303 0 .551.247.551.55s-.249.551-.551.551zm0-.943c-.217 0-.393.175-.393.392 0 .216.176.392.393.392s.393-.176.393-.392c-.001-.217-.177-.392-.393-.392z" fill="#15003e"/><circle cx="61.25" cy="79.627" fill="#fff" r=".471"/><path d="m61.25 80.176c-.303 0-.549-.247-.549-.549 0-.304.246-.552.549-.552s.551.248.551.552c-.001.302-.249.549-.551.549zm0-.942c-.215 0-.393.175-.393.394 0 .215.178.392.393.392.217 0 .393-.177.393-.392-.001-.219-.177-.394-.393-.394z" fill="#15003e"/><circle cx="57.835" cy="74.25" fill="#fff" r=".471"/><g fill="#15003e"><path d="m57.835 74.798c-.305 0-.549-.246-.549-.549 0-.304.244-.55.549-.55.303 0 .549.246.549.55 0 .303-.246.549-.549.549zm0-.942c-.217 0-.395.176-.395.394 0 .215.178.392.395.392s.393-.177.393-.392c0-.218-.176-.394-.393-.394z"/><path d="m45.511 79.47h.157v6.802h-.157z" transform="matrix(.9618 .2739 -.2739 .9618 24.4417 -9.3178)"/><path d="m81.228 39.985c-6.617-6.617-15.416-10.261-24.773-10.261-9.358 0-18.156 3.644-24.773 10.261-6.618 6.618-10.262 15.416-10.262 24.773 0 3.407.484 6.738 1.419 9.918.272-.022.545-.04.819-.043-.944-3.127-1.454-6.441-1.454-9.875 0-18.885 15.364-34.25 34.25-34.25 18.885 0 34.25 15.365 34.25 34.25 0 3.501-.527 6.879-1.506 10.06.283-.037.574-.075.863-.108.939-3.189 1.428-6.532 1.428-9.951.001-9.358-3.646-18.156-10.261-24.774z"/><path d="m19.062 69.122h6.807v.157h-6.807z"/><path d="m33.01 65.934h.157v7.018h-.157z" transform="matrix(.9276 .3735 -.3735 .9276 28.3343 -7.3331)"/><path d="m29.39 62.967h5.906v.157h-5.906z" transform="matrix(.6424 .7664 -.7664 .6424 59.884 -2.241)"/><path d="m26.947 59.722h2.76v.157h-2.76z" transform="matrix(.9292 .3697 -.3697 .9292 24.114 -6.2358)"/><path d="m17.839 58.244h8.351v.157h-8.351z" transform="matrix(.9822 .188 -.188 .9822 11.3595 -3.0992)"/><path d="m24.913 47.399h.157v6.173h-.157z" transform="matrix(.0872 .9962 -.9962 .0872 73.1065 21.1891)"/><path d="m19.732 50.144h.157v2.646h-.157z" transform="matrix(.4334 .9012 -.9012 .4334 57.6045 11.3062)"/><path d="m31.362 46.318h.157v5.17h-.157z" transform="matrix(.3644 .9312 -.9312 .3644 65.5237 1.8038)"/><path d="m22.604 47.136h6.79v.157h-6.79z" transform="matrix(.7013 .7128 -.7128 .7013 41.4215 -4.4312)"/><path d="m23.905 43.629h.157v.815h-.157z" transform="matrix(.7133 .7009 -.7009 .7133 37.7405 -4.1838)"/><path d="m26.862 36.527h.156v7.09h-.156z" transform="matrix(.8223 .569 -.569 .8223 27.59 -8.2095)"/><path d="m30.682 33.671h.158v3.304h-.158z" transform="matrix(.6543 .7562 -.7562 .6543 37.3441 -11.0517)"/><path d="m31.232 33.553h.157v1.263h-.157z" transform="matrix(.0998 .995 -.995 .0998 62.1985 -.3814)"/><path d="m29.452 34.634h.157v1.849h-.157z" transform="matrix(.9035 .4285 -.4285 .9035 18.0845 -9.2237)"/><path d="m33.757 31.242h.157v2.876h-.157z" transform="matrix(.6607 .7507 -.7507 .6607 36.0117 -14.3103)"/><path d="m32.631 30.219h.157v5.053h-.157z" transform="matrix(.4998 .8661 -.8661 .4998 44.723 -11.9518)"/><path d="m35.641 32.039h3.584v.157h-3.584z" transform="matrix(.9495 .3139 -.3139 .9495 11.9737 -10.1267)"/><path d="m35.823 30.309h.157v6.313h-.157z" transform="matrix(.1336 .991 -.991 .1336 64.2715 -6.5846)"/><path d="m35.954 29.947h.158v1.227h-.158z" transform="matrix(.5653 .8249 -.8249 .5653 40.8703 -16.4389)"/><path d="m37.138 30.94h4.044v.158h-4.044z" transform="matrix(.9188 .3946 -.3946 .9188 15.4193 -12.9361)"/><path d="m43.909 28.539h.156v4.646h-.156z" transform="matrix(.4472 .8944 -.8944 .4472 51.9191 -22.2832)"/><path d="m43.948 27.043h.157v5.754h-.157z" transform="matrix(.6236 .7818 -.7818 .6236 39.9639 -23.156)"/><path d="m48.16 25.151h.157v3.048h-.157z" transform="matrix(.5367 .8438 -.8438 .5367 44.8589 -28.3441)"/><path d="m48.148 25.414h.156v4.276h-.156z" transform="matrix(.7947 .607 -.607 .7947 26.6237 -23.6164)"/><path d="m43.294 21.268h.157v12.751h-.157z" transform="matrix(.3265 .9452 -.9452 .3265 55.3418 -22.3775)"/><path d="m41.776 24.422h.157v8.929h-.157z" transform="matrix(.2027 .9792 -.9792 .2027 61.6567 -17.9548)"/><path d="m50.594 23.724h.157v7.121h-.157z" transform="matrix(.124 .9923 -.9923 .124 71.4605 -26.3813)"/><path d="m46.314 31.686h8.689v.157h-8.689z" transform="matrix(.8763 .4818 -.4818 .8763 21.5731 -20.4784)"/><path d="m51.529 30.423h6.398v.157h-6.398z" transform="matrix(.0164 .9999 -.9999 .0164 84.3282 -24.7194)"/><path d="m55.16 25.751h.157v.722h-.157z" transform="matrix(.7286 .685 -.685 .7286 32.8801 -30.7491)"/><path d="m50.385 25.465h4.947v.156h-4.947z" transform="matrix(.9998 .0186 -.0186 .9998 .4831 -.9765)"/><path d="m56.263 25.792h9.593v.157h-9.593z" transform="matrix(.9983 .0587 -.0587 .9983 1.6236 -3.5389)"/><path d="m55.074 27.559h7.944v.157h-7.944z" transform="matrix(.9882 .1532 -.1532 .9882 4.9301 -8.7182)"/><path d="m61.882 30.416h3.59v.159h-3.59z" transform="matrix(.1311 .9914 -.9914 .1311 85.5612 -36.6299)"/><path d="m66.175 28.079h.157v5.278h-.157z" transform="matrix(.6721 .7405 -.7405 .6721 44.4744 -38.987)"/><path d="m66.382 27.211h2.232v.157h-2.232z" transform="matrix(.6336 .7736 -.7736 .6336 45.8424 -42.2207)"/><path d="m64.775 25.945h.158v2.614h-.158z" transform="matrix(.5689 .8224 -.8224 .5689 50.3713 -41.5885)"/><path d="m68.223 30.326h4.537v.156h-4.537z" transform="matrix(.7434 .6688 -.6688 .7434 38.4226 -39.3459)"/><path d="m68.912 28.808h4.861v.157h-4.861z" transform="matrix(.9909 .1346 -.1346 .9909 4.5378 -9.3405)"/><path d="m66.562 27.525h7.549v.158h-7.549z" transform="matrix(.9328 .3605 -.3605 .9328 14.6802 -23.4997)"/><path d="m74.055 30.403h2.111v.159h-2.111z" transform="matrix(.4968 .8678 -.8678 .4968 64.2473 -49.8467)"/><path d="m74.142 31.011h.157v2.41h-.157z" transform="matrix(.0624 .9981 -.9981 .0624 101.7438 -43.8692)"/><path d="m76.026 33.021h5.156v.156h-5.156z" transform="matrix(.9183 .3959 -.3959 .9183 19.5252 -28.4139)"/><path d="m77.884 35.086h.157v9.056h-.157z" transform="matrix(.4596 .8881 -.8881 .4596 77.3141 -47.8329)"/><path d="m68.612 37.049h8.759v.159h-8.759z" transform="matrix(.1015 .9948 -.9948 .1015 102.523 -39.2533)"/><path d="m70.244 32.293h.156v10.338h-.156z" transform="matrix(.9245 .3811 -.3811 .9245 19.5813 -23.9705)"/><path d="m61.107 37.599h10.005v.158h-10.005z" transform="matrix(.4027 .9153 -.9153 .4027 73.9743 -38.0075)"/><path d="m63.9 39.617h.157v8.015h-.157z" transform="matrix(.1865 .9824 -.9824 .1865 94.9018 -27.3687)"/><path d="m52.003 39.183h10.372v.157h-10.372z" transform="matrix(.424 .9057 -.9057 .424 68.4996 -29.1787)"/><path d="m59.32 29.355h.157v8.167h-.157z" transform="matrix(.1366 .9906 -.9906 .1366 84.4079 -29.9721)"/><path d="m73.148 42.422h.156v8.984h-.156z" transform="matrix(.999 .0437 -.0437 .999 2.1205 -3.1557)"/><path d="m65.915 47.228h9.34v.158h-9.34z" transform="matrix(.454 .891 -.891 .454 80.6899 -37.0613)"/><path d="m70.78 40.317h.157v4.141h-.157z" transform="matrix(.1366 .9906 -.9906 .1366 103.1666 -33.5988)"/><path d="m72.705 45.252h9.86v.159h-9.86z" transform="matrix(.7775 .6289 -.6289 .7775 45.7855 -38.7384)"/><path d="m84.686 43.643h.157v6.098h-.157z" transform="matrix(.583 .8125 -.8125 .583 73.2835 -49.3987)"/><path d="m86.263 43.173h2.774v.156h-2.774z" transform="matrix(.0141 .9999 -.9999 .0141 129.6627 -44.999)"/><path d="m82.533 38.464h4.281v.156h-4.281z" transform="matrix(.898 .4401 -.4401 .898 25.6018 -33.3303)"/><path d="m80.991 36.945h6.815v.157h-6.815z" transform="matrix(.7371 .6757 -.6757 .7371 47.2029 -47.2989)"/><path d="m73.885 31.594h8.078v.157h-8.078z" transform="matrix(.8194 .5733 -.5733 .8194 32.2309 -38.9495)"/><path d="m80.901 35.755h2.053v.157h-2.053z" transform="matrix(.294 .9558 -.9558 .294 92.0947 -53.0077)"/><path d="m87.923 46.169h3.968v.156h-3.968z" transform="matrix(.8765 .4813 -.4813 .8765 33.3603 -37.5653)"/><path d="m86.701 44.219h6.464v.157h-6.464z" transform="matrix(.5871 .8095 -.8095 .5871 72.996 -54.5122)"/><path d="m86.992 40.477h.756v.159h-.756z" transform="matrix(.243 .97 -.97 .243 105.4804 -54.0495)"/><path d="m92.825 51.705h.158v4.992h-.158z" transform="matrix(.9413 .3375 -.3375 .9413 23.7451 -28.1758)"/><path d="m90.418 56.085h8.529v.158h-8.529z" transform="matrix(.1349 .9909 -.9909 .1349 137.5612 -45.2289)"/><path d="m91.328 49.299h3.425v.156h-3.425z" transform="matrix(.4123 .9111 -.9111 .4123 99.6688 -55.7452)"/><path d="m94.001 61.097h.157v4.655h-.157z" transform="matrix(.9327 .3606 -.3606 .9327 29.205 -29.6611)"/><path d="m90.889 65.345h.156v4.139h-.156z" transform="matrix(.5777 .8163 -.8163 .5777 93.4465 -45.7819)"/><path d="m83.671 66.433h5.58v.158h-5.58z" transform="matrix(.72 .6939 -.6939 .72 70.3624 -41.3774)"/><path d="m81.927 63.902h.156v5.952h-.156z" transform="matrix(.8163 .5777 -.5777 .8163 53.7001 -35.0839)"/><path d="m80.546 62.966h3.311v.158h-3.311z" transform="matrix(.8383 .5451 -.5451 .8383 47.6561 -34.6195)"/><path d="m87.866 55.745h.158v9.497h-.158z" transform="matrix(.6788 .7343 -.7343 .6788 72.6712 -45.1494)"/><path d="m91.739 47.801h.156v8.692h-.156z" transform="matrix(.9994 .0344 -.0344 .9994 1.8457 -3.1236)"/><path d="m80.749 52.821h11.905v.157h-11.905z" transform="matrix(.7714 .6363 -.6363 .7714 53.4787 -43.0785)"/><path d="m81.036 49.158h.159v12.31h-.159z" transform="matrix(.9932 .1165 -.1165 .9932 6.9954 -9.0723)"/><path d="m77.047 47.191h.156v11.77h-.156z" transform="matrix(.6767 .7362 -.7362 .6767 64.0104 -39.6236)"/><path d="m72.506 52.367h.159v4.716h-.159z" transform="matrix(.9932 .1165 -.1165 .9932 6.8688 -8.0826)"/><path d="m72.242 59.735h8.145v.157h-8.145z" transform="matrix(.8866 .4626 -.4626 .8866 36.3254 -28.5176)"/><path d="m74.573 59.614h.158v13.378h-.158z" transform="matrix(.6186 .7857 -.7857 .6186 80.5615 -33.3669)"/><path d="m69.419 67.698h.157v2.494h-.157z" transform="matrix(.9065 .4222 -.4222 .9065 35.6069 -22.8959)"/><path d="m68.753 65.302h3.074v.158h-3.074z" transform="matrix(.0133 .9999 -.9999 .0133 134.7278 -5.7756)"/><path d="m62.425 63.227h9.305v.159h-9.305z" transform="matrix(.5907 .8069 -.8069 .5907 78.5402 -28.2126)"/><path d="m68.216 54.474h.157v7.618h-.157z" transform="matrix(.1619 .9868 -.9868 .1619 114.7536 -18.5453)"/><path d="m71.277 57.859h.155v5.296h-.155z" transform="matrix(.9448 .3275 -.3275 .9448 23.7547 -20.0341)"/><path d="m65.062 53.835h8.637v.158h-8.637z" transform="matrix(.6422 .7665 -.7665 .6422 66.1467 -33.8921)"/><path d="m65.089 50.585h.157v8.173h-.157z" transform="matrix(.9694 .2455 -.2455 .9694 15.4134 -14.3234)"/><path d="m56.309 55.614h8.715v.156h-8.715z" transform="matrix(.6965 .7175 -.7175 .6965 58.372 -26.629)"/><path d="m61.753 47.055h.156v8.247h-.156z" transform="matrix(.1997 .9799 -.9799 .1997 99.6307 -19.6282)"/><path d="m59.011 47.189h7.945v.157h-7.945z" transform="matrix(.7609 .6489 -.6489 .7609 45.7324 -29.5666)"/><path d="m58.312 44.655h.158v7.201h-.158z" transform="matrix(.9616 .2743 -.2743 .9616 15.4771 -14.1664)"/><path d="m51.903 50.8h5.255v.156h-5.255z" transform="matrix(.9106 .4133 -.4133 .9106 25.9005 -17.9877)"/><path d="m50.544 52.396h5.411v.157h-5.411z" transform="matrix(.5175 .8557 -.8557 .5175 70.5948 -20.2458)"/><path d="m56.142 52.284h.157v2.735h-.157z" transform="matrix(.7793 .6266 -.6266 .7793 46.0228 -23.3887)"/><path d="m51.353 65.007h6.566v.158h-6.566z" transform="matrix(.6576 .7534 -.7534 .6576 67.7419 -18.8758)"/><path d="m53.563 55.323h.157v6.653h-.157z" transform="matrix(.9244 .3815 -.3815 .9244 26.4343 -16.0296)"/><path d="m58.064 55.005h.156v11.264h-.156z" transform="matrix(.2536 .9673 -.9673 .2536 102.0549 -10.9804)"/><path d="m49.221 60.177h.157v5.004h-.157z" transform="matrix(.1528 .9883 -.9883 .1528 103.7113 4.3839)"/><path d="m47.088 56.463h.158v6.263h-.158z" transform="matrix(.9606 .278 -.278 .9606 18.4253 -10.7627)"/><path d="m47.232 59.041h6.173v.158h-6.173z" transform="matrix(.5339 .8455 -.8455 .5339 73.4388 -14.9923)"/><path d="m51.566 52.719h.157v5.836h-.157z" transform="matrix(.1279 .9918 -.9918 .1279 100.2197 -2.6977)"/><path d="m43.622 53.302h5.702v.158h-5.702z" transform="matrix(.5784 .8157 -.8157 .5784 63.1353 -15.4061)"/><path d="m48.023 47.123h.157v6.04h-.157z" transform="matrix(.1026 .9947 -.9947 .1026 93.0451 -2.8487)"/><path d="m54.892 41.281h.156v8.558h-.156z" transform="matrix(.2528 .9675 -.9675 .2528 85.1539 -19.1426)"/><path d="m49.866 48.18h2.22v.157h-2.22z" transform="matrix(.4506 .8927 -.8927 .4506 71.0849 -18.9959)"/><path d="m43.72 44.176h7.037v.156h-7.037z" transform="matrix(.7695 .6386 -.6386 .7695 39.1482 -19.9676)"/><path d="m46.25 35.746h.157v6.219h-.157z" transform="matrix(.7818 .6236 -.6236 .7818 34.3389 -20.4094)"/><path d="m51.653 32.256h.157v5.61h-.157z" transform="matrix(.2586 .966 -.966 .2586 72.2206 -23.9783)"/><path d="m44.556 32.746h5.927v.156h-5.927z" transform="matrix(.2869 .9579 -.9579 .2869 65.3282 -22.1156)"/><path d="m41.285 34.12h7.234v.157h-7.234z" transform="matrix(.8787 .4774 -.4774 .8787 21.774 -17.2877)"/><path d="m40.39 32.099h.156v1.266h-.156z" transform="matrix(.4941 .8694 -.8694 .4941 48.9293 -18.6241)"/><path d="m37.292 37.312h8.838v.156h-8.838z" transform="matrix(.4707 .8823 -.8823 .4707 55.0664 -17.0105)"/><path d="m34.293 30.098h.157v10.109h-.157z" transform="matrix(.345 .9386 -.9386 .345 55.5085 -9.2356)"/><path d="m36.635 33.015h.157v14.69h-.157z" transform="matrix(.9358 .3525 -.3525 .9358 16.5829 -10.3505)"/><path d="m39.054 39.336h.157v10.761h-.157z" transform="matrix(.5213 .8534 -.8534 .5213 56.8915 -11.9897)"/><path d="m24.68 45.396h9.544v.157h-9.544z" transform="matrix(.9211 .3893 -.3893 .9211 20.0251 -7.878)"/><path d="m25.253 35.644h.158v9.981h-.158z" transform="matrix(.7374 .6754 -.6754 .7374 34.0981 -6.4399)"/><path d="m21.433 45.144h.158v5.15h-.158z" transform="matrix(.9985 .0556 -.0556 .9985 2.6885 -1.123)"/><path d="m19.745 44.701h.158v7.567h-.158z" transform="matrix(.9156 .4021 -.4021 .9156 21.1696 -3.8787)"/><path d="m17.678 52.833h.157v4.071h-.157z" transform="matrix(.9906 .1371 -.1371 .9906 7.6877 -1.9158)"/><path d="m19.632 54.895h8.728v.156h-8.728z" transform="matrix(.5245 .8514 -.8514 .5245 58.2161 5.7098)"/><path d="m24.753 55.156h9.477v.157h-9.477z" transform="matrix(.1518 .9884 -.9884 .1518 79.6073 17.6979)"/><path d="m34.738 54.871h.158v8.682h-.158z" transform="matrix(.2447 .9696 -.9696 .2447 83.7078 10.9639)"/><path d="m40.69 56.795h.158v1.721h-.158z" transform="matrix(.2882 .9576 -.9576 .2882 84.2284 2.0002)"/><path d="m45.086 53.999h.157v5.454h-.157z" transform="matrix(.1865 .9824 -.9824 .1865 92.4695 1.773)"/><path d="m40.88 60.141h6.266v.156h-6.266z" transform="matrix(.5804 .8143 -.8143 .5804 67.5069 -10.5734)"/><path d="m43.137 50.884h.157v6.059h-.157z" transform="matrix(.928 .3725 -.3725 .928 23.1902 -12.2169)"/><path d="m34.438 49.138h9.863v.157h-9.863z" transform="matrix(.9656 .26 -.26 .9656 14.1513 -8.5437)"/><path d="m32.524 52.436h11.231v.157h-11.231z" transform="matrix(.6338 .7735 -.7735 .6338 54.5897 -10.2689)"/><path d="m31.533 52.814h10.647v.157h-10.647z" transform="matrix(.4521 .892 -.892 .4521 67.3708 -3.8959)"/><path d="m34.939 66.353h2.79v.158h-2.79z" transform="matrix(.9194 .3934 -.3934 .9194 29.0619 -8.9371)"/><path d="m38.597 58.433h.156v8.387h-.156z" transform="matrix(.9896 .1436 -.1436 .9896 9.3944 -4.9049)"/><path d="m39.02 60.631h7.619v.157h-7.619z" transform="matrix(.7847 .6199 -.6199 .7847 46.8529 -13.478)"/><path d="m42.051 61.034h.157v8.366h-.157z" transform="matrix(.4497 .8932 -.8932 .4497 81.4349 -1.7399)"/><path d="m45.218 66.578h9.102v.157h-9.102z" transform="matrix(.7099 .7043 -.7043 .7099 61.3824 -15.716)"/><path d="m55.146 67.323h.158v3.48h-.158z" transform="matrix(.4888 .8724 -.8724 .4888 88.4825 -12.8726)"/><path d="m49.688 69.417h.157v10.314h-.157z" transform="matrix(.7845 .6201 -.6201 .7845 56.9724 -14.7908)"/><path d="m34.332 72.22h9.413v.156h-9.413z" transform="matrix(.1744 .9847 -.9847 .1744 103.4199 21.249)"/><path d="m31.672 75.254h8.226v.156h-8.226z" transform="matrix(.8698 .4934 -.4934 .8698 41.8255 -7.8483)"/><path d="m34.843 66.467h.157v7.625h-.157z" transform="matrix(.6802 .733 -.733 .6802 62.6833 -3.1238)"/><path d="m63.612 61.55h.154v12.123h-.154z" transform="matrix(.0379 .9993 -.9993 .0379 128.8343 1.4021)"/><path d="m57.411 69.344h11.113v.157h-11.113z" transform="matrix(.9765 .2155 -.2155 .9765 16.4383 -11.9373)"/><path d="m74.358 65.211h.159v10.152h-.159z" transform="matrix(.0739 .9973 -.9973 .0739 139.0333 -9.1388)"/><path d="m77.438 74.317h9.518v.157h-9.518z" transform="matrix(.389 .9212 -.9212 .389 118.7528 -30.269)"/><path d="m86.427 68.752h.157v10.464h-.157z" transform="matrix(.9065 .4222 -.4222 .9065 39.3249 -29.6055)"/><path d="m85.446 73.606h9.208v.156h-9.208z" transform="matrix(.267 .9637 -.9637 .267 137.0119 -32.7725)"/><path d="m66.857 75.965h13.87v.157h-13.87z" transform="matrix(.6852 .7284 -.7284 .6852 78.6168 -29.8086)"/><path d="m68.41 71.084h.157v7.112h-.157z" transform="matrix(.9967 .081 -.081 .9967 6.2695 -5.3013)"/><path d="m53.092 72.13h4.982v.158h-4.982z" transform="matrix(.7501 .6613 -.6613 .7501 61.6425 -18.7136)"/><path d="m40.303 78.254h5.898v.156h-5.898z" transform="matrix(.9701 .2429 -.2429 .9701 20.3211 -8.1597)"/><path d="m54.83 71.042h5.498v.157h-5.498z" transform="matrix(.0931 .9957 -.9957 .0931 123.0324 7.1716)"/><path d="m16.364 68.433h1.934v.155h-1.934z" transform="matrix(.7509 .6605 -.6605 .7509 49.5671 5.6227)"/><path d="m14.943 65.885h5.921v.157h-5.921z" transform="matrix(.2331 .9724 -.9724 .2331 77.8752 33.1752)"/><path d="m16.546 63.088h.158v3.958h-.158z" transform="matrix(.9915 .1301 -.1301 .9915 8.6088 -1.6102)"/><path d="m21.825 56.382h.157v9.322h-.157z" transform="matrix(.333 .9429 -.9429 .333 72.1699 20.063)"/><path d="m22.62 58.227h.157v12.07h-.157z" transform="matrix(.7735 .6337 -.6337 .7735 45.8661 .1676)"/><path d="m28.144 60.579h.156v8.328h-.156z" transform="matrix(.9112 .4119 -.4119 .9112 29.1745 -5.8774)"/><path d="m30.378 63.524h.157v7.938h-.157z" transform="matrix(.3762 .9265 -.9265 .3762 81.5329 13.883)"/><path d="m26.172 59.646h.157v8.958h-.157z" transform="matrix(.9988 .0496 -.0496 .9988 3.2147 -1.2237)"/><path d="m15.023 73.578h7.606v.159h-7.606z" transform="matrix(.0612 .9981 -.9981 .0612 91.1939 50.3598)"/><path d="m12.57 72.674h9.815v.157h-9.815z" transform="matrix(.2524 .9676 -.9676 .2524 83.4631 37.4796)"/><path d="m23.862 68.568h.158v5.973h-.158z" transform="matrix(.6754 .7374 -.7374 .6754 60.5351 5.5689)"/><path d="m17.129 57.84h.156v4.378h-.156z" transform="matrix(.9959 .0905 -.0905 .9959 5.5055 -1.3113)"/><path d="m88.679 71.454h10.149v.157h-10.149z" transform="matrix(.1058 .9944 -.9944 .1058 154.9603 -29.266)"/><path d="m87.103 72.837h9.18v.154h-9.18z" transform="matrix(.5657 .8246 -.8246 .5657 99.9412 -43.9449)"/><path d="m94.908 61.115h.156v15.392h-.156z"/><path d="m84.209 39.484h.157v9.366h-.157z" transform="matrix(.8722 .4891 -.4891 .8722 32.3696 -35.5804)"/><path d="m89.511 73.447c-3.912 14.607-17.264 25.397-33.09 25.397-15.825 0-29.175-10.79-33.087-25.397h-.824c1.548 5.97 4.662 11.444 9.138 15.921 6.617 6.617 15.415 10.263 24.773 10.263 9.359 0 18.158-3.646 24.775-10.262 4.475-4.478 7.588-9.952 9.137-15.922z"/><path d="m87.808 75.781h.156v6.173h-.156z" transform="matrix(.1001 .995 -.995 .1001 157.5576 -16.4739)"/><path d="m92.988 76.564h.158v2.646h-.158z" transform="matrix(.4323 .9017 -.9017 .4323 123.063 -39.7059)"/><path d="m81.358 77.866h.156v5.168h-.156z" transform="matrix(.3627 .9319 -.9319 .3627 126.8658 -24.6222)"/><path d="m83.484 82.059h6.79v.159h-6.79z" transform="matrix(.7013 .7128 -.7128 .7013 84.4991 -37.3979)"/><path d="m88.815 84.911h.158v.813h-.158z" transform="matrix(.704 .7102 -.7102 .704 86.9029 -37.8786)"/><path d="m85.858 85.736h.157v7.091h-.157z" transform="matrix(.8204 .5718 -.5718 .8204 66.4851 -33.103)"/><path d="m82.037 92.379h.158v3.302h-.158z" transform="matrix(.6559 .7549 -.7549 .6559 99.2391 -29.6284)"/><path d="m81.489 94.537h.156v1.263h-.156z" transform="matrix(.1001 .995 -.995 .1001 168.0904 4.4829)"/><path d="m83.268 92.871h.157v1.848h-.157z" transform="matrix(.9089 .4171 -.4171 .9089 46.716 -26.2146)"/><path d="m78.963 95.236h.157v2.875h-.157z" transform="matrix(.6589 .7522 -.7522 .6589 99.6744 -26.4834)"/><path d="m80.088 94.081h.157v5.053h-.157z" transform="matrix(.4988 .8667 -.8667 .4988 123.9081 -21.0629)"/><path d="m73.652 97.157h3.584v.157h-3.584z" transform="matrix(.9494 .3139 -.3139 .9494 34.34 -18.7688)"/><path d="m76.898 92.731h.155v6.313h-.155z" transform="matrix(.1388 .9903 -.9903 .1388 161.2531 6.3509)"/><path d="m76.766 98.177h.156v1.229h-.156z" transform="matrix(.5633 .8262 -.8262 .5633 115.1793 -20.3522)"/><path d="m71.696 98.257h4.045v.156h-4.045z" transform="matrix(.9189 .3945 -.3945 .9189 44.7723 -21.1066)"/><path d="m68.812 96.169h.157v4.645h-.157z" transform="matrix(.4472 .8944 -.8944 .4472 126.1752 -7.1723)"/><path d="m68.772 96.556h.158v5.755h-.158z" transform="matrix(.6322 .7748 -.7748 .6322 102.361 -16.7757)"/><path d="m64.559 101.153h.157v3.05h-.157z" transform="matrix(.5461 .8377 -.8377 .5461 115.3577 -7.5418)"/><path d="m64.573 99.665h.156v4.274h-.156z" transform="matrix(.7894 .6139 -.6139 .7894 76.1188 -18.2475)"/><path d="m69.426 95.335h.159v12.752h-.159z" transform="matrix(.3199 .9474 -.9474 .3199 143.6346 3.319)"/><path d="m70.943 96.003h.157v8.93h-.157z" transform="matrix(.1985 .9801 -.9801 .1985 155.3925 10.9161)"/><path d="m62.125 98.508h.156v7.122h-.156z" transform="matrix(.1248 .9922 -.9922 .1248 155.7118 27.6135)"/><path d="m57.873 97.509h8.69v.159h-8.69z" transform="matrix(.8763 .4818 -.4818 .8763 54.7097 -17.9029)"/><path d="m54.951 98.773h6.397v.156h-6.397z" transform="matrix(.0165 .9999 -.9999 .0165 156.0289 39.0794)"/><path d="m57.56 102.88h.157v.721h-.157z" transform="matrix(.7194 .6946 -.6946 .7194 87.8839 -11.0666)"/><path d="m57.546 103.73h4.946v.157h-4.946z" transform="matrix(.9998 .0184 -.0184 .9998 1.9162 -1.0846)"/><path d="m47.021 103.404h9.593v.157h-9.593z" transform="matrix(.9983 .0587 -.0587 .9983 6.168 -2.8651)"/><path d="m49.86 101.638h7.943v.157h-7.943z" transform="matrix(.9882 .1534 -.1534 .9882 16.2452 -7.0554)"/><path d="m47.406 98.779h3.588v.157h-3.588z" transform="matrix(.1308 .9914 -.9914 .1308 140.7761 37.1526)"/><path d="m46.544 95.996h.158v5.278h-.158z" transform="matrix(.669 .7433 -.7433 .669 88.7488 -2.0027)"/><path d="m44.265 101.984h2.23v.157h-2.23z" transform="matrix(.6334 .7738 -.7738 .6334 95.6096 2.2972)"/><path d="m47.945 100.796h.157v2.613h-.157z" transform="matrix(.5768 .8169 -.8169 .5768 103.7286 3.9794)"/><path d="m40.114 98.871h4.539v.158h-4.539z" transform="matrix(.7436 .6686 -.6686 .7436 77.0276 -2.9682)"/><path d="m39.105 100.388h4.859v.157h-4.859z" transform="matrix(.9909 .1347 -.1347 .9909 13.9077 -4.6781)"/><path d="m38.768 101.67h7.546v.157h-7.546z" transform="matrix(.9327 .3607 -.3607 .9327 39.5595 -8.4949)"/><path d="m36.711 98.792h2.11v.157h-2.11z" transform="matrix(.4961 .8682 -.8682 .4961 104.8725 17.0271)"/><path d="m38.578 95.93h.157v2.414h-.157z" transform="matrix(.0748 .9972 -.9972 .0748 132.6305 51.3241)"/><path d="m31.695 96.175h5.158v.157h-5.158z" transform="matrix(.9183 .3959 -.3959 .9183 40.9042 -5.7046)"/><path d="m34.836 85.209h.156v9.059h-.156z" transform="matrix(.4597 .8881 -.8881 .4597 98.5605 17.4811)"/><path d="m35.508 92.147h8.758v.157h-8.758z" transform="matrix(.1016 .9948 -.9948 .1016 127.5831 43.1766)"/><path d="m42.476 86.722h.157v10.339h-.157z" transform="matrix(.928 .3725 -.3725 .928 37.2877 -9.2382)"/><path d="m41.764 91.597h10.005v.157h-10.005z" transform="matrix(.4027 .9153 -.9153 .4027 111.8501 11.9528)"/><path d="m48.821 81.723h.158v8.014h-.158z" transform="matrix(.1884 .9821 -.9821 .1884 123.8826 21.5551)"/><path d="m50.503 90.013h10.372v.157h-10.372z" transform="matrix(.4238 .9058 -.9058 .4238 113.6907 1.4707)"/><path d="m53.4 91.832h.158v8.166h-.158z" transform="matrix(.1453 .9894 -.9894 .1453 140.6037 29.0658)"/><path d="m39.571 77.946h.158v8.985h-.158z" transform="matrix(.9991 .0433 -.0433 .9991 3.607 -1.6396)"/><path d="m37.624 81.969h9.338v.156h-9.338z" transform="matrix(.4539 .891 -.891 .4539 96.2013 7.1184)"/><path d="m41.941 84.895h.157v4.142h-.157z" transform="matrix(.134 .991 -.991 .134 122.57 33.6723)"/><path d="m30.311 83.944h9.86v.157h-9.86z" transform="matrix(.7774 .629 -.629 .7774 60.6944 -3.464)"/><path d="m28.033 79.612h.156v6.098h-.156z" transform="matrix(.5747 .8184 -.8184 .5747 79.6013 12.1497)"/><path d="m23.84 86.024h2.774v.157h-2.774z" transform="matrix(.0141 .9999 -.9999 .0141 110.9655 59.6656)"/><path d="m26.062 90.732h4.283v.159h-4.283z" transform="matrix(.8981 .4398 -.4398 .8981 42.8141 -3.1496)"/><path d="m25.07 92.25h6.815v.158h-6.815z" transform="matrix(.7371 .6758 -.6758 .7371 69.8803 5.0284)"/><path d="m30.914 97.603h8.079v.157h-8.079z" transform="matrix(.8193 .5733 -.5733 .8193 62.3156 -2.3922)"/><path d="m29.923 93.442h2.054v.157h-2.054z" transform="matrix(.2929 .9561 -.9561 .2929 111.3042 36.5369)"/><path d="m20.984 83.027h3.971v.158h-3.971z" transform="matrix(.8767 .4811 -.4811 .8767 42.8127 -.8015)"/><path d="m19.711 84.976h6.465v.158h-6.465z" transform="matrix(.5869 .8096 -.8096 .5869 78.3427 16.5586)"/><path d="m25.13 88.719h.755v.157h-.755z" transform="matrix(.2413 .9704 -.9704 .2413 105.525 42.6155)"/><path d="m18.124 79.898h3.425v.157h-3.425z" transform="matrix(.4127 .9109 -.9109 .4127 84.4994 28.9037)"/><path d="m22.405 73.447 8.311 6.854.102-.122-8.167-6.732z"/><path d="m31.755 73.628-.818 6.514.157.018.819-6.532z"/><path d="m50.966 74.051h.158v8.247h-.158z" transform="matrix(.1943 .9809 -.9809 .1943 117.8094 12.91)"/><path d="m45.922 82.007h7.943v.157h-7.943z" transform="matrix(.7609 .6489 -.6489 .7609 65.1982 -12.747)"/><path d="m54.407 77.498h.157v7.201h-.157z" transform="matrix(.9636 .2673 -.2673 .9636 23.6623 -11.6139)"/><path d="m55.716 78.397h5.257v.157h-5.257z" transform="matrix(.9106 .4133 -.4133 .9106 37.6515 -17.0982)"/><path d="m56.922 76.8h5.411v.156h-5.411z" transform="matrix(.5173 .8558 -.8558 .5173 94.58 -13.9183)"/><path d="m56.58 74.335h.156v2.735h-.156z" transform="matrix(.7809 .6247 -.6247 .7809 59.7063 -18.8052)"/><path d="m64.697 76.191h.155v6.039h-.155z" transform="matrix(.1008 .9949 -.9949 .1008 137.0562 6.7846)"/><path d="m57.828 79.515h.158v8.558h-.158z" transform="matrix(.26 .9656 -.9656 .26 123.7648 6.0937)"/><path d="m60.789 81.017h2.22v.155h-2.22z" transform="matrix(.4504 .8928 -.8928 .4504 106.4255 -10.6942)"/><path d="m62.12 85.02h7.038v.158h-7.038z" transform="matrix(.7695 .6387 -.6387 .7695 69.4789 -22.305)"/><path d="m66.469 87.386h.159v6.222h-.159z" transform="matrix(.788 .6156 -.6156 .788 69.8206 -21.7869)"/><path d="m61.067 91.486h.157v5.613h-.157z" transform="matrix(.2731 .962 -.962 .2731 135.1567 9.7211)"/><path d="m62.394 96.451h5.93v.159h-5.93z" transform="matrix(.2872 .9579 -.9579 .2872 139.0488 6.1993)"/><path d="m64.356 95.076h7.235v.157h-7.235z" transform="matrix(.8787 .4773 -.4773 .8787 53.6598 -20.9052)"/><path d="m72.33 95.988h.158v1.266h-.158z" transform="matrix(.5054 .8629 -.8629 .5054 119.1859 -14.6928)"/><path d="m66.746 91.885h8.838v.157h-8.838z" transform="matrix(.4709 .8822 -.8822 .4709 118.7805 -14.1243)"/><path d="m78.427 89.145h.156v10.11h-.156z" transform="matrix(.3498 .9368 -.9368 .3498 139.2984 -12.2938)"/><path d="m76.085 81.65h.159v14.688h-.159z" transform="matrix(.9343 .3565 -.3565 .9343 36.7315 -21.3056)"/><path d="m73.667 79.256h.155v10.762h-.155z" transform="matrix(.5283 .8491 -.8491 .5283 106.6466 -22.6904)"/><path d="m78.652 83.801h9.544v.157h-9.544z" transform="matrix(.9211 .3894 -.3894 .9211 39.2496 -25.8657)"/><path d="m87.467 83.727h.156v9.982h-.156z" transform="matrix(.7377 .6752 -.6752 .7377 82.8644 -35.8338)"/><path d="m91.287 79.058h.156v5.151h-.156z" transform="matrix(.9984 .0562 -.0562 .9984 4.7289 -5.0024)"/><path d="m92.974 77.085h.158v7.568h-.158z" transform="matrix(.9133 .4073 -.4073 .9133 41.0042 -30.8878)"/><path d="m68.577 80.06h9.865v.155h-9.865z" transform="matrix(.9656 .2601 -.2601 .9656 23.3696 -16.3594)"/><path d="m28.511 80.503h.157v9.367h-.157z" transform="matrix(.8702 .4928 -.4928 .8702 45.69 -3.027)"/></g><path d="m9.826 38.141v53.121l46.072 26.559 46.074-26.559v-53.121l-46.074-26.561zm90.281 1.08v50.971l-44.209 25.489-44.211-25.489v-50.971l44.211-25.489z" opacity=".13"/></svg>