<?xml version="1.0" encoding="utf-8"?>
<!-- Generator: Adobe Illustrator 16.0.0, SVG Export Plug-In . SVG Version: 6.00 Build 0)  -->
<!DOCTYPE svg PUBLIC "-//W3C//DTD SVG 1.1//EN" "http://www.w3.org/Graphics/SVG/1.1/DTD/svg11.dtd">
<svg version="1.1" id="Layer_1" xmlns="http://www.w3.org/2000/svg" xmlns:xlink="http://www.w3.org/1999/xlink" x="0px" y="0px"
	 width="110.833px" height="128px" viewBox="0 0 110.833 128" enable-background="new 0 0 110.833 128" xml:space="preserve">
<g>
	<defs>
		<polygon id="SVGID_1_" points="86.6,10.152 24.399,10.152 -6.7,64.05 24.399,117.95 86.6,117.95 117.699,64.05 		"/>
	</defs>
	<clipPath id="SVGID_2_">
		<use xlink:href="#SVGID_1_"  overflow="visible"/>
	</clipPath>
	<g clip-path="url(#SVGID_2_)">
		<path fill="#343433" d="M3.602,91.016c-0.075-4.396-0.214-8.791-0.387-13.184c-0.016,0.075-0.027,0.15-0.044,0.227
			C3.026,82.416,3.118,86.747,3.602,91.016z"/>
		<path fill="#343433" d="M90.152,8.249c1.863,1.983,3.481,4.188,4.878,6.58c0.459,0.786-0.259,1.54-0.987,1.469
			c0.105,0.178,0.218,0.352,0.32,0.531c0.057,0.098,0.081,0.195,0.104,0.291c2.521,1.877,5.033,3.767,7.407,5.84
			c0.633,0.553,0.164,1.518-0.498,1.703c0.165,0.156,0.336,0.304,0.498,0.464c0.635,0.628,0.074,1.835-0.793,1.701
			c0.264,0.268,0.536,0.523,0.793,0.799c0.371,0.398,0.396,1.019,0,1.414c-0.167,0.167-0.333,0.333-0.5,0.5
			c-0.173,0.173-0.364,0.242-0.554,0.267c0.521,0.434,1.042,0.87,1.554,1.319c0.647,0.568,0.103,1.753-0.687,1.725
			c-0.3,0.337-0.768,0.503-1.192,0.178c-0.702-0.537-1.4-1.081-2.101-1.622c-5.763-2.916-10.766-6.982-16.066-10.711
			c-4.381-3.082-8.683-6.258-12.885-9.565c-1.026-0.704-1.997-1.459-2.865-2.287c-0.241-0.196-0.478-0.399-0.719-0.596H50.478
			c-0.076,0.105-0.174,0.202-0.307,0.281c-7.548,4.485-15.603,8.419-22.667,13.667c-6.595,4.899-12.498,10.656-19.5,15
			C7,37.82,6.062,36.448,6.793,35.626c0.121-0.135,0.256-0.263,0.379-0.397c-0.813,0.582-1.632,1.154-2.455,1.722
			c0.205,0.847,0.313,1.72,0.366,2.604c0.578-0.127,1.273,0.22,1.25,0.945c-0.129,4.053-0.479,8.181-0.902,12.35
			c0.136,3.401,0.41,6.808,0.394,10.117c-0.04,8.233-0.149,16.467-0.159,24.7c0,0.194-0.056,0.35-0.133,0.485
			C5.636,92.6,5.7,97.049,5.667,101.5c-0.008,1.14-1.644,1.348-1.964,0.266c-0.418-1.41-0.771-2.831-1.076-4.26
			c-0.091,1.476-0.238,2.95-0.496,4.427c-0.171,0.984-1.719,0.932-1.929,0c-0.184-0.813-0.315-1.64-0.426-2.472
			c-0.249-0.155-0.437-0.41-0.443-0.794c-0.05-3.218-0.068-6.436-0.072-9.652c-0.048-0.428-0.081-0.854-0.122-1.281
			c-0.108,0.146-0.246,0.262-0.412,0.325c-0.068,0.148-0.124,0.299-0.197,0.446c-0.087,0.174-0.22,0.299-0.374,0.379
			c-0.089,1.264-1.836,1.178-1.989-0.051c-0.004-0.037-0.008-0.074-0.013-0.112c-0.463,0.686-1.729,0.488-1.82-0.554
			c-0.188-2.127-0.349-4.257-0.484-6.39c-0.12,0.774-0.247,1.549-0.385,2.321c-0.002,0.013-0.01,0.02-0.012,0.032
			c-0.087,0.846-0.18,1.691-0.286,2.536c-0.157,1.251-1.936,1.32-2,0C-9.105,81.078-8.89,75.52-8.38,69.985
			c0.509-6.933,1.604-13.826,2.879-20.675c0.285-2.364,0.624-4.724,1.037-7.076C-4.27,41.124-2.414,41.38-2.5,42.5
			c-0.008,0.101-0.02,0.202-0.028,0.303c0.018,0.024,0.037,0.048,0.052,0.074c0.036-0.686,0.071-1.372,0.108-2.058
			c-0.474-0.331-0.695-1.042-0.173-1.526c0.919-0.854,1.867-1.674,2.818-2.491c-0.02-0.244-0.042-0.488-0.055-0.73
			c-0.423-0.359-0.606-1.017-0.096-1.445c0.027-0.023,0.055-0.044,0.083-0.066c0.017-0.62,0.061-1.232,0.16-1.826
			c0.137-0.82,0.984-0.878,1.514-0.482c0.039-0.038,0.065-0.082,0.112-0.116c1.186-0.861,2.379-1.708,3.57-2.558
			c-0.322-0.339-0.41-0.857,0.062-1.286c2.013-1.828,4.117-3.538,6.269-5.184c-0.787,0.391-1.596,0.749-2.463,1.022
			c-1.017,0.32-1.592-0.96-0.973-1.671c3.347-3.845,7.414-6.756,11.576-9.65c1.332-0.926,2.657-1.889,4.008-2.808
			c-2.586,1.456-4.944,3.557-7.372,5.028c-1.708,1.036-3.466,2.005-5.125,3.119c-0.237,0.159-6.619,5.619-6.28,5.721
			c1.232,0.37,0.707,2.3-0.531,1.929c-0.586-0.176-0.813-0.342-1.275-0.757c-0.238-0.213-0.383-0.667-0.257-0.973
			c2.259-5.484,7.915-7.583,12.459-10.765c2.31-1.617,4.759-3.612,7.402-5.054h-37.07v110.947h34.167
			c-1.134-1.573-2.119-3.229-2.768-5.041c-0.197-0.272-0.404-0.534-0.59-0.817c-0.368-0.56-0.065-1.102,0.413-1.34
			c-0.42-0.429-0.843-0.855-1.257-1.291c-0.649-0.684-0.161-1.478,0.531-1.613c-0.217-0.33-0.428-0.664-0.635-1.002
			c-0.577-0.516-1.157-1.029-1.729-1.552c-0.488-0.445-0.298-1.131,0.125-1.493c-0.477-0.582-0.959-1.16-1.412-1.759
			c-0.225-0.143-0.453-0.282-0.678-0.425c-0.428-0.275-0.521-0.711-0.42-1.096c-1.681-2.378-3.187-4.885-4.438-7.596
			c-0.342-0.741,0.129-1.378,0.749-1.454c0-0.823,0.9-1.447,1.655-0.758c0.407,0.371,0.787,0.763,1.171,1.15
			c0.26-0.16,0.597-0.193,0.96,0.026c6.335,3.824,11.858,9.33,17.683,14.089c6.786,3.951,13.53,7.975,20.291,11.971h11.869
			c6.519-4.846,12.985-9.81,19.895-14.079c2.7-1.669,5.372-3.356,8.125-4.92c4.413-3.298,9.033-6.312,14.2-7.994
			c1.229-0.401,1.752,1.53,0.531,1.928c-0.854,0.278-1.692,0.605-2.524,0.956c0.094,0.067,0.177,0.146,0.244,0.234
			c2.774-1.365,5.589-2.655,8.464-3.831c0.016-0.007,0.03-0.014,0.046-0.021c0,0,0,0,0,0.001c0.021-0.009,0.044-0.019,0.065-0.028
			c-0.424-0.062-0.826-0.38-0.895-0.942c-0.075-0.62-0.133-1.24-0.196-1.86c-0.372-0.03-0.703-0.244-0.768-0.707
			c-0.013-0.089-0.021-0.178-0.034-0.266c-0.001,0-0.001,0-0.002,0v-0.019c-0.61-4.434-1.01-8.881-1.276-13.338
			c-1.516-9.617-3.483-19.51-0.514-28.547c0.039-0.976,0.089-1.951,0.158-2.924c-0.007-0.038-0.016-0.076-0.023-0.114
			c-0.741-3.698-1.875-7.915-0.975-11.657c0.301-1.254,2.229-0.722,1.928,0.531c-0.391,1.624-0.419,3.375-0.244,5.173
			c0.222-1.408,0.486-2.81,0.816-4.204c0.203-0.861,1.318-0.893,1.768-0.323c0.023-0.114,0.042-0.23,0.065-0.344
			c0.233-1.123,1.969-0.844,1.964,0.266c-0.013,2.768-0.082,5.538-0.176,8.308c0.149,0.082,0.283,0.192,0.372,0.354
			c0.27,0.489,0.447,0.993,0.586,1.501c0.191-0.866,0.386-1.732,0.587-2.596c0.252-1.083,2.083-0.866,1.964,0.266
			c-0.069,0.659-0.132,1.32-0.194,1.98c0.279,0.148,0.497,0.434,0.528,0.853c0.121,1.626,0.21,3.252,0.279,4.878
			c0.088-0.492,0.163-0.986,0.257-1.478c0.213-1.116,2.006-0.851,1.964,0.266c-0.102,2.728-0.226,5.455-0.354,8.181
			c0.292,0.03,0.565,0.181,0.717,0.48c1.707,3.374,2.581,7.452,3.192,11.152c0.352,2.129,1.478,6.234-0.516,7.894
			c-0.983,0.819-2.406-0.588-1.414-1.414c2.005-1.669-0.109-9.185-1.771-13.685c-0.576,4.042-0.438,8.113-0.522,12.225
			c-0.008,0.368-0.178,0.619-0.408,0.777c-0.029,1.019-0.07,2.037-0.092,3.057c-0.015,0.71-0.601,1.014-1.136,0.942
			c-0.014,1.131-0.027,2.261-0.031,3.391c-0.001,0.301-0.115,0.524-0.279,0.686c0.336,3.863,0.471,7.743,0.279,11.647
			c-0.059,1.187-1.548,1.285-1.964,0.266c-0.791-1.938-1.349-4.041-1.754-6.22c0.019,1.318,0.047,2.636,0.052,3.954
			c0.002,0.54-0.435,0.887-0.896,0.965c-0.074,0.251-0.227,0.427-0.414,0.534c0.779,0.15,1.191,1.487,0.315,1.864
			c-4.263,1.837-8.48,3.816-12.617,5.955c-0.999,0.805-2.047,1.565-3.111,2.309c0.754-0.341,1.534-0.606,2.344-0.771
			c3.386-2.027,6.811-3.986,10.375-5.72c1.162-0.565,2.076,0.997,1.01,1.727c-0.832,0.569-1.676,1.118-2.526,1.654
			c0.567,0.347,0.778,1.212,0.026,1.68c-0.763,0.476-1.527,0.965-2.292,1.448c0.316-0.169,0.628-0.346,0.948-0.509
			c0.96-0.488,2.14,0.822,1.212,1.57c-0.066,0.054-0.138,0.1-0.205,0.153l0.003,0.003c-0.008,0.004-0.017,0.009-0.024,0.013
			c-0.396,0.313-0.809,0.594-1.215,0.888c0.44,0.337,0.625,0.962,0.108,1.443c-1.04,0.971-2.152,1.833-3.298,2.644
			c0.444,0.395,0.569,1.225-0.071,1.68c-3.668,2.61-7.098,5.536-10.762,8.144c-0.794,0.565-1.596,1.126-2.395,1.689h36.177V8.249
			H90.152z"/>
		<path fill="#343433" d="M-0.382,41.142c0.313,0.156,0.553,0.45,0.548,0.858c-0.006,0.508-0.021,1.017-0.028,1.525
			c0.185-0.172,0.421-0.285,0.666-0.32c0.058-0.423,0.127-0.844,0.188-1.267c-0.123-0.753-0.25-1.515-0.367-2.279
			c-0.319,0.201-0.642,0.396-0.963,0.593C-0.354,40.549-0.366,40.846-0.382,41.142z"/>
		<path fill="#343433" d="M113.82,80.717c0.133,1.266,0.302,2.519,0.518,3.748c-0.057-1.318-0.142-2.636-0.253-3.95
			C114.009,80.603,113.92,80.669,113.82,80.717z"/>
		<path fill="#343433" d="M76.895,113.126c-0.957,0.742-1.9,1.5-2.835,2.271c4.169-2.652,8.156-5.596,12.511-7.983
			c1.115-0.611,2.242-1.201,3.366-1.797c0.45-0.379,0.907-0.76,1.373-1.136c-3.863,2.365-7.858,4.555-11.534,6.882
			C78.843,111.953,77.878,112.54,76.895,113.126z"/>
		<polygon fill="#989897" points="87.678,69.608 46.38,69.608 39.719,60.728 87.898,60.728 		"/>
		<polygon fill="#FFFFFF" points="87.85,62.663 87.898,60.728 39.719,60.728 41.171,62.663 		"/>
		<path fill="#989897" d="M74.06,115.397c4.169-2.652,8.156-5.596,12.511-7.983c0.514-0.282,1.035-0.55,1.551-0.828v-0.196
			c-2.835,1.665-5.675,3.283-8.346,4.974c-0.933,0.59-1.897,1.177-2.881,1.763C75.938,113.868,74.994,114.626,74.06,115.397z"/>
		<path fill="#989897" d="M17.393,114.155c-0.197-0.272-0.404-0.534-0.59-0.817c-0.368-0.56-0.065-1.102,0.413-1.34
			c-0.42-0.429-0.843-0.855-1.257-1.291c-0.649-0.684-0.161-1.478,0.531-1.613c-0.217-0.33-0.428-0.664-0.635-1.002
			c-0.577-0.516-1.157-1.029-1.729-1.552c-0.488-0.445-0.298-1.131,0.125-1.493c-0.477-0.582-0.959-1.16-1.412-1.759
			c-0.225-0.143-0.453-0.282-0.678-0.425c-0.428-0.275-0.521-0.711-0.42-1.096c-1.681-2.378-3.187-4.885-4.438-7.596
			c-0.182-0.395-0.129-0.757,0.049-1.023H5.622c0.041,2.783,0.066,5.566,0.045,8.352c-0.008,1.14-1.644,1.348-1.964,0.266
			c-0.418-1.41-0.771-2.831-1.076-4.26c-0.091,1.476-0.238,2.95-0.496,4.427c-0.171,0.984-1.719,0.932-1.929,0
			c-0.184-0.813-0.315-1.64-0.426-2.472c-0.249-0.155-0.437-0.41-0.443-0.794c-0.028-1.84-0.03-3.679-0.042-5.519h-13.298v26.048
			h34.167C19.026,117.623,18.042,115.968,17.393,114.155z"/>
		<path fill="#989897" d="M11.856,93.148c6.328,3.824,11.846,9.323,17.665,14.077c6.786,3.951,13.53,7.975,20.291,11.971h11.869
			c6.519-4.846,12.985-9.81,19.895-14.079c2.178-1.346,4.347-2.688,6.545-3.983v-7.985H11.856z"/>
		<path fill="#FFFFFF" d="M-0.708,93.148h-13.298v1.032H-0.7C-0.703,93.837-0.706,93.492-0.708,93.148z"/>
		<path fill="#FFFFFF" d="M11.856,93.148c0.542,0.327,1.071,0.682,1.602,1.032h74.663v-1.032H11.856z"/>
		<path fill="#989897" d="M3.602,91.016c-0.049-2.844-0.13-5.687-0.224-8.528H3.124C3.146,85.35,3.282,88.197,3.602,91.016z"/>
		<path fill="#989897" d="M-0.739,89.015c-0.048-0.428-0.081-0.854-0.122-1.281c-0.108,0.146-0.246,0.262-0.412,0.325
			c-0.068,0.148-0.124,0.299-0.197,0.446c-0.087,0.174-0.22,0.299-0.374,0.379c-0.089,1.264-1.836,1.178-1.989-0.051
			c-0.004-0.037-0.008-0.074-0.013-0.112c-0.463,0.686-1.729,0.488-1.82-0.554c-0.167-1.891-0.305-3.784-0.431-5.68h-0.171
			c-0.086,0.537-0.171,1.075-0.267,1.611c-0.002,0.013-0.01,0.02-0.012,0.032c-0.087,0.846-0.18,1.691-0.286,2.536
			c-0.157,1.251-1.936,1.32-2,0c-0.068-1.396-0.105-2.788-0.115-4.18h-5.058v8.883h13.285C-0.724,90.585-0.738,89.8-0.739,89.015z"
			/>
		<path fill="#989897" d="M5.695,82.487c-0.009,1.727-0.026,3.453-0.028,5.18c0,0.194-0.056,0.35-0.133,0.485
			c0.024,1.072,0.037,2.146,0.057,3.218h82.531v-8.883H5.695z"/>
		<path fill="#FFFFFF" d="M-8.949,82.487h-5.058v0.923h5.083C-8.928,83.103-8.947,82.795-8.949,82.487z"/>
		<path fill="#FFFFFF" d="M5.695,82.487c-0.001,0.308-0.003,0.615-0.005,0.923h82.431v-0.923H5.695z"/>
		<path fill="#989897" d="M112.461,34.974c-0.031,1.833-0.074,3.667-0.137,5.5c0.149,0.082,0.283,0.192,0.372,0.354
			c0.27,0.489,0.447,0.993,0.586,1.501c0.191-0.866,0.386-1.732,0.587-2.596c0.252-1.083,2.083-0.866,1.964,0.266
			c-0.069,0.659-0.132,1.32-0.194,1.98c0.279,0.148,0.497,0.434,0.528,0.853c0.025,0.341,0.036,0.682,0.059,1.023h9.133v-8.883
			H112.461z"/>
		<path fill="#989897" d="M107.178,42.725c-0.491-2.453-1.144-5.132-1.272-7.751H11.322c-1.084,0.769-2.183,1.52-3.317,2.223
			C7,37.82,6.062,36.448,6.793,35.626c0.121-0.135,0.256-0.263,0.379-0.397c-0.813,0.582-1.632,1.154-2.455,1.722
			c0.205,0.847,0.313,1.72,0.366,2.604c0.578-0.127,1.273,0.22,1.25,0.945c-0.036,1.113-0.09,2.233-0.156,3.357h100.969
			c0.02-0.339,0.03-0.679,0.055-1.018C107.194,42.801,107.186,42.763,107.178,42.725z"/>
		<path fill="#989897" d="M-0.382,41.142c0.313,0.156,0.553,0.45,0.548,0.858c-0.006,0.508-0.021,1.017-0.028,1.525
			c0.185-0.172,0.421-0.285,0.666-0.32c0.058-0.423,0.127-0.844,0.188-1.267c-0.123-0.753-0.25-1.515-0.367-2.279
			c-0.319,0.201-0.642,0.396-0.963,0.593C-0.354,40.549-0.366,40.846-0.382,41.142z"/>
		<path fill="#989897" d="M-4.464,42.234C-4.27,41.124-2.414,41.38-2.5,42.5c-0.008,0.101-0.02,0.202-0.028,0.303
			c0.018,0.024,0.037,0.048,0.052,0.074c0.036-0.686,0.071-1.372,0.108-2.058c-0.474-0.331-0.695-1.042-0.173-1.526
			c0.919-0.854,1.867-1.674,2.818-2.491c-0.02-0.244-0.042-0.488-0.055-0.729c-0.316-0.271-0.493-0.713-0.339-1.099h-13.89v8.883
			h9.282C-4.637,43.316-4.559,42.774-4.464,42.234z"/>
		<path fill="#FFFFFF" d="M9.657,36.113h96.335c-0.039-0.381-0.068-0.76-0.087-1.14H11.322C10.774,35.362,10.217,35.74,9.657,36.113
			z"/>
		<path fill="#FFFFFF" d="M0.223,36.068c-0.318-0.272-0.493-0.708-0.339-1.095h-13.89v1.14H0.225
			C0.224,36.098,0.223,36.083,0.223,36.068z"/>
		<path fill="#FFFFFF" d="M112.461,34.974c-0.006,0.38-0.008,0.76-0.016,1.14h12.913v-1.14H112.461z"/>
		<path fill="#989897" d="M5.706,80.489H31.28l-6.661-8.881H5.762C5.737,74.568,5.725,77.529,5.706,80.489z"/>
		<path fill="#989897" d="M-8.507,71.608h-5.5v8.881h5.081C-8.893,77.521-8.747,74.562-8.507,71.608z"/>
		<path fill="#989897" d="M5.825,62.967c-0.011,2.214-0.031,4.428-0.049,6.642h18.399l-6.883-8.881h-11.5
			C5.814,61.478,5.829,62.226,5.825,62.967z"/>
		<path fill="#989897" d="M-7.371,60.728h-6.636v8.881h5.662C-8.118,66.641-7.778,63.681-7.371,60.728z"/>
		<path fill="#FFFFFF" d="M-7.371,60.728h-6.636v1.505h6.442C-7.5,61.731-7.44,61.229-7.371,60.728z"/>
		<path fill="#FFFFFF" d="M17.293,60.728h-11.5c0.014,0.504,0.018,1.005,0.021,1.505h11.478l5.716,7.376h1.167L17.293,60.728z"/>
		<path fill="#989897" d="M5.432,52.85c0.087,2.19,0.226,4.38,0.313,6.547h10.66l-9.77-13.322H6.03
			C5.867,48.318,5.662,50.577,5.432,52.85z"/>
		<path fill="#989897" d="M-5.501,49.31c0.13-1.08,0.275-2.158,0.43-3.235h-8.935v13.322h6.813
			C-6.703,56.024-6.125,52.662-5.501,49.31z"/>
		<path fill="#FFFFFF" d="M-5.1,46.29h-8.907v1.075h8.764C-5.195,47.007-5.15,46.648-5.1,46.29z"/>
		<path fill="#FFFFFF" d="M6.636,46.29h-0.62c-0.026,0.358-0.056,0.717-0.084,1.075h0.705l8.98,12.247h0.79L6.636,46.29z"/>
		<path fill="#989897" d="M27.505,22.197c-4.624,3.435-8.914,7.284-13.475,10.779h55.661l-9.77-12.655H30.149
			C29.255,20.929,28.372,21.553,27.505,22.197z"/>
		<path fill="#989897" d="M0.369,32.734c0.136-0.817,0.977-0.879,1.507-0.487c0.038-0.038,0.072-0.077,0.119-0.11
			c1.186-0.861,2.379-1.708,3.57-2.558c-0.322-0.339-0.41-0.857,0.062-1.286c2.013-1.828,4.117-3.538,6.269-5.184
			c-0.787,0.391-1.596,0.749-2.463,1.022c-1.017,0.32-1.592-0.96-0.973-1.671c0.652-0.749,1.338-1.454,2.041-2.139H8.999
			c-1.828,1.594-3.932,3.489-3.733,3.548c1.232,0.37,0.707,2.3-0.531,1.929c-0.586-0.176-0.813-0.342-1.275-0.757
			c-0.238-0.213-0.383-0.667-0.257-0.973c0.603-1.463,1.453-2.681,2.453-3.747h-19.662v12.655H0.34
			C0.352,32.896,0.356,32.814,0.369,32.734z"/>
		<path fill="#FFFFFF" d="M5.655,20.321h-19.662v1.506H4.436C4.809,21.291,5.216,20.79,5.655,20.321z"/>
		<path fill="#FFFFFF" d="M8.999,20.321c-0.569,0.496-1.158,1.016-1.703,1.506h1.745c0.474-0.518,0.96-1.02,1.459-1.506H8.999z"/>
		<path fill="#FFFFFF" d="M59.922,20.321H30.149c-0.718,0.488-1.422,0.995-2.124,1.506h31.896l8.607,11.149h1.162L59.922,20.321z"/>
		<path fill="#989897" d="M11.546,18.148c-0.034,0.023-0.204,0.163-0.452,0.372l1.358-0.001c2.387-2.062,4.966-3.889,7.583-5.709
			c1.332-0.926,2.657-1.889,4.008-2.808c-2.586,1.456-4.944,3.557-7.372,5.028C14.963,16.065,13.206,17.035,11.546,18.148z"/>
		<path fill="#989897" d="M101.64,24.538c-0.083,0.054-0.171,0.098-0.264,0.124c0.165,0.156,0.336,0.304,0.498,0.464
			c0.635,0.628,0.074,1.835-0.793,1.701c0.264,0.268,0.536,0.523,0.793,0.799c0.371,0.398,0.396,1.019,0,1.414
			c-0.167,0.167-0.333,0.333-0.5,0.5c-0.173,0.173-0.364,0.242-0.554,0.267c0.521,0.434,1.042,0.87,1.554,1.319
			c0.647,0.568,0.103,1.753-0.687,1.725c-0.3,0.337-0.768,0.503-1.192,0.178c-0.702-0.537-1.4-1.081-2.101-1.622
			c-3.813-1.93-7.293-4.364-10.748-6.87h-5.3l-6.794-8.743c-2.057-1.528-4.096-3.08-6.109-4.664
			c-1.026-0.704-1.997-1.459-2.865-2.287c-0.241-0.196-0.478-0.399-0.719-0.596H50.478c-0.076,0.105-0.174,0.202-0.307,0.281
			c-5.671,3.37-11.627,6.429-17.235,9.967l28.737-0.031l10.46,14.955h33.769c0.034-0.798,0.116-1.587,0.301-2.354
			c0.301-1.254,2.229-0.722,1.928,0.531c-0.142,0.59-0.222,1.202-0.276,1.822h0.666c0.062-0.284,0.115-0.57,0.183-0.854
			c0.203-0.861,1.318-0.893,1.768-0.323c0.023-0.114,0.042-0.23,0.065-0.344c0.233-1.123,1.969-0.844,1.964,0.266
			c-0.002,0.418-0.013,0.836-0.018,1.255h12.876v-8.883H101.64z"/>
		<path fill="#989897" d="M15.662,13.303c2.31-1.617,4.759-3.612,7.402-5.054h-37.07v10.298l21.643-0.023
			C10.116,16.583,13.068,15.119,15.662,13.303z"/>
		<path fill="#FFFFFF" d="M50.171,8.53c-0.65,0.386-1.309,0.765-1.965,1.144l19.271-0.051c-0.304-0.256-0.614-0.508-0.898-0.778
			c-0.241-0.196-0.478-0.399-0.719-0.596H50.478C50.402,8.354,50.304,8.451,50.171,8.53z"/>
		<path fill="#FFFFFF" d="M23.063,8.249h-37.07v1.589l34.627-0.091C21.417,9.211,22.23,8.703,23.063,8.249z"/>
		<path fill="#FFFFFF" d="M87.646,24.538h-5.3l-6.794-8.743c-0.902-0.67-1.786-1.365-2.681-2.046l9.475,12.295h7.402
			C89.046,25.547,88.346,25.045,87.646,24.538z"/>
		<path fill="#FFFFFF" d="M101.64,24.538c-0.083,0.054-0.171,0.098-0.264,0.124c0.165,0.156,0.336,0.304,0.498,0.464
			c0.257,0.254,0.312,0.602,0.235,0.918h23.249v-1.506H101.64z"/>
		<path fill="#989897" d="M116.206,82.269c0.213,3.175,0.284,6.361,0.127,9.564c-0.059,1.187-1.548,1.285-1.964,0.266
			c-0.791-1.938-1.349-4.041-1.754-6.22c0.019,1.318,0.047,2.636,0.052,3.954c0.002,0.54-0.435,0.887-0.896,0.965
			c-0.074,0.251-0.227,0.427-0.414,0.534c0.779,0.15,1.191,1.487,0.315,1.864c-4.263,1.837-8.48,3.816-12.617,5.955
			c-1.001,0.806-2.049,1.567-3.115,2.311c0.756-0.342,1.536-0.608,2.348-0.772c3.386-2.027,6.811-3.986,10.375-5.72
			c1.162-0.565,2.076,0.997,1.01,1.727c-0.832,0.569-1.676,1.118-2.526,1.654c0.567,0.347,0.778,1.212,0.026,1.68
			c-0.763,0.476-1.527,0.965-2.292,1.448c0.316-0.169,0.628-0.346,0.948-0.509c0.96-0.488,2.14,0.822,1.212,1.57
			c-0.066,0.054-0.138,0.1-0.205,0.153l0.003,0.003c-0.008,0.004-0.017,0.009-0.024,0.013c-0.396,0.313-0.809,0.594-1.215,0.888
			c0.44,0.337,0.625,0.962,0.108,1.443c-1.04,0.971-2.152,1.833-3.298,2.644c0.444,0.395,0.569,1.225-0.071,1.68
			c-3.668,2.61-7.098,5.536-10.762,8.144c-0.337,0.239-0.677,0.477-1.016,0.715v0.975h34.798V82.269H116.206z"/>
		<path fill="#989897" d="M104.433,94.131c-0.854,0.278-1.692,0.605-2.524,0.956c0.094,0.067,0.177,0.146,0.244,0.234
			c2.774-1.365,5.589-2.655,8.464-3.831c0.016-0.007,0.03-0.014,0.046-0.021c0,0,0,0,0,0.001c0.021-0.009,0.044-0.019,0.065-0.028
			c-0.424-0.062-0.826-0.38-0.895-0.942c-0.075-0.62-0.133-1.24-0.196-1.86c-0.372-0.03-0.703-0.244-0.768-0.707
			c-0.013-0.089-0.021-0.178-0.034-0.266c-0.001,0-0.001,0-0.002,0v-0.019c-0.247-1.791-0.45-3.585-0.634-5.38H90.561v17.299
			c4.154-3.047,8.507-5.79,13.341-7.364C105.131,91.802,105.653,93.733,104.433,94.131z"/>
		<path fill="#FFFFFF" d="M116.206,82.269c0.017,0.242,0.039,0.484,0.054,0.728h9.099v-0.728H116.206z"/>
		<path fill="#FFFFFF" d="M108.199,82.269H90.561v0.728h17.715C108.25,82.754,108.225,82.511,108.199,82.269z"/>
		<path fill="#989897" d="M118.02,70.055h3.082c-0.005-3.064-1.402-7.758-2.579-10.947C118.006,62.73,118.063,66.377,118.02,70.055z
			"/>
		<path fill="#989897" d="M106.82,46.521h-16.26v23.533h16.316C105.612,62.072,104.593,54.017,106.82,46.521z"/>
		<path fill="#989897" d="M118.666,46.521c-0.102,2.721-0.225,5.44-0.353,8.16c0.292,0.03,0.565,0.181,0.717,0.48
			c1.707,3.374,2.581,7.452,3.192,11.152c0.161,0.975,0.481,2.362,0.594,3.741h2.542V46.521H118.666z"/>
		<path fill="#FFFFFF" d="M118.666,46.521c-0.018,0.46-0.041,0.92-0.06,1.381h6.752v-1.381H118.666z"/>
		<path fill="#FFFFFF" d="M106.82,46.521h-16.26v1.381h15.883C106.557,47.44,106.685,46.98,106.82,46.521z"/>
		<path fill="#989897" d="M82.328,20.697c-0.504-0.354-0.996-0.724-1.498-1.081l2.408,3.148h1.968
			C84.252,22.07,83.296,21.377,82.328,20.697z"/>
		<path fill="#989897" d="M90.152,8.249c1.863,1.983,3.481,4.188,4.878,6.58c0.459,0.786-0.259,1.54-0.987,1.469
			c0.105,0.178,0.218,0.352,0.32,0.531c0.057,0.098,0.081,0.195,0.104,0.291c2.44,1.817,4.869,3.649,7.176,5.645h23.716V8.249
			H90.152z"/>
		<path fill="#FFFFFF" d="M90.152,8.249c0.482,0.514,0.942,1.047,1.393,1.589h33.813V8.249H90.152z"/>
		<polygon fill="#989897" points="88.121,59.397 38.387,59.397 27.951,46.075 88.121,46.075 		"/>
		<polygon fill="#FFFFFF" points="27.951,46.075 28.961,47.365 88.121,47.365 88.121,46.075 		"/>
		<path fill="#989897" d="M107.557,74.311c-0.13-0.824-0.263-1.651-0.396-2.479H45.046L24.397,45.634L9.3,45.856l25.532,34.856
			h73.211C107.845,78.581,107.685,76.447,107.557,74.311z"/>
		<path fill="#989897" d="M122.807,71.832c-0.108,0.958-0.421,1.81-1.1,2.375c-0.983,0.819-2.406-0.588-1.414-1.414
			c0.267-0.222,0.456-0.553,0.588-0.961h-3.024c-0.07,0.112-0.16,0.206-0.265,0.278c-0.029,1.019-0.07,2.037-0.092,3.057
			c-0.015,0.71-0.601,1.014-1.136,0.942c-0.014,1.131-0.027,2.261-0.031,3.391c-0.001,0.301-0.115,0.524-0.279,0.686
			c0.016,0.175,0.024,0.351,0.038,0.526h9.267v-8.88H122.807z"/>
		<path fill="#FFFFFF" d="M120.881,71.832h-3.024c-0.07,0.112-0.16,0.206-0.265,0.278c-0.014,0.48-0.027,0.962-0.043,1.442h2.428
			c-0.036-0.259,0.041-0.53,0.316-0.76C120.56,72.571,120.749,72.24,120.881,71.832z"/>
		<path fill="#FFFFFF" d="M107.16,71.832H45.046L24.397,45.634L9.3,45.856l1.247,1.701l13.85-0.202l20.648,26.198h62.39
			C107.345,72.979,107.253,72.406,107.16,71.832z"/>
		<path fill="#FFFFFF" d="M122.807,71.832c-0.072,0.64-0.238,1.23-0.542,1.721h3.094v-1.721H122.807z"/>
		<linearGradient id="SVGID_3_" gradientUnits="userSpaceOnUse" x1="14.5137" y1="97.1563" x2="61.833" y2="97.1563">
			<stop  offset="0" style="stop-color:#989897"/>
			<stop  offset="1" style="stop-color:#F9EC23"/>
		</linearGradient>
		<path fill="url(#SVGID_3_)" d="M16.768,96.526c0.542,0.412,1.08,0.832,1.614,1.26h43.451v-1.26H16.768z"/>
		<linearGradient id="SVGID_4_" gradientUnits="userSpaceOnUse" x1="101.624" y1="95.4355" x2="118.832" y2="95.4355">
			<stop  offset="0" style="stop-color:#989897"/>
			<stop  offset="1" style="stop-color:#F9EC23"/>
		</linearGradient>
		<path fill="url(#SVGID_4_)" d="M108.042,94.805c-0.915,0.415-1.829,0.833-2.738,1.262h1.232c0.709-0.366,1.407-0.747,2.126-1.097
			c0.883-0.43,1.617,0.368,1.454,1.097h8.716v-1.262H108.042z"/>
		<linearGradient id="SVGID_5_" gradientUnits="userSpaceOnUse" x1="101.624" y1="98.6621" x2="118.832" y2="98.6621">
			<stop  offset="0" style="stop-color:#989897"/>
			<stop  offset="1" style="stop-color:#F9EC23"/>
		</linearGradient>
		<path fill="url(#SVGID_5_)" d="M107.632,98.032c-0.163,0.104-0.322,0.215-0.486,0.318c0.327,0.2,0.528,0.572,0.502,0.941h11.185
			v-1.26H107.632z"/>
		<linearGradient id="SVGID_6_" gradientUnits="userSpaceOnUse" x1="101.624" y1="101.8887" x2="118.832" y2="101.8887">
			<stop  offset="0" style="stop-color:#989897"/>
			<stop  offset="1" style="stop-color:#F9EC23"/>
		</linearGradient>
		<path fill="url(#SVGID_6_)" d="M107.105,101.259c0.32,0.355,0.405,0.876-0.048,1.261h11.774v-1.261H107.105z"/>
		<linearGradient id="SVGID_7_" gradientUnits="userSpaceOnUse" x1="101.624" y1="105.1143" x2="118.832" y2="105.1143">
			<stop  offset="0" style="stop-color:#989897"/>
			<stop  offset="1" style="stop-color:#F9EC23"/>
		</linearGradient>
		<path fill="url(#SVGID_7_)" d="M106.008,104.483c-0.026,0.191-0.115,0.384-0.301,0.557c-0.266,0.248-0.548,0.47-0.822,0.705
			h13.947v-1.262H106.008z"/>
		<linearGradient id="SVGID_8_" gradientUnits="userSpaceOnUse" x1="101.624" y1="108.3408" x2="118.832" y2="108.3408">
			<stop  offset="0" style="stop-color:#989897"/>
			<stop  offset="1" style="stop-color:#F9EC23"/>
		</linearGradient>
		<path fill="url(#SVGID_8_)" d="M102.437,107.711c0.315,0.303,0.45,0.826,0.236,1.26h16.159v-1.26H102.437z"/>
		<linearGradient id="SVGID_9_" gradientUnits="userSpaceOnUse" x1="14.5137" y1="100.8438" x2="61.833" y2="100.8438">
			<stop  offset="0" style="stop-color:#989897"/>
			<stop  offset="1" style="stop-color:#F9EC23"/>
		</linearGradient>
		<path fill="url(#SVGID_9_)" d="M21.318,100.213c0.492,0.418,0.983,0.838,1.473,1.261h39.042v-1.261H21.318z"/>
		<linearGradient id="SVGID_10_" gradientUnits="userSpaceOnUse" x1="14.5137" y1="105.3604" x2="61.833" y2="105.3604">
			<stop  offset="0" style="stop-color:#989897"/>
			<stop  offset="1" style="stop-color:#000000"/>
		</linearGradient>
		<path fill="url(#SVGID_10_)" d="M26.559,104.73c0.493,0.424,0.989,0.843,1.484,1.26h33.79v-1.26H26.559z"/>
		<linearGradient id="SVGID_11_" gradientUnits="userSpaceOnUse" x1="14.5137" y1="108.3711" x2="61.833" y2="108.3711">
			<stop  offset="0" style="stop-color:#989897"/>
			<stop  offset="1" style="stop-color:#000000"/>
		</linearGradient>
		<path fill="url(#SVGID_11_)" d="M30.4,107.742c0.715,0.417,1.427,0.84,2.141,1.259h29.292v-1.259H30.4z"/>
		<linearGradient id="SVGID_12_" gradientUnits="userSpaceOnUse" x1="14.5137" y1="111.3828" x2="61.833" y2="111.3828">
			<stop  offset="0" style="stop-color:#989897"/>
			<stop  offset="1" style="stop-color:#000000"/>
		</linearGradient>
		<path fill="url(#SVGID_12_)" d="M35.519,110.752c0.714,0.421,1.43,0.839,2.144,1.261h24.17v-1.261H35.519z"/>
		<linearGradient id="SVGID_13_" gradientUnits="userSpaceOnUse" x1="-11.7275" y1="41.6938" x2="35.5923" y2="41.6938">
			<stop  offset="0" style="stop-color:#989897"/>
			<stop  offset="1" style="stop-color:#000000"/>
		</linearGradient>
		<path fill="url(#SVGID_13_)" d="M6.309,41.064c-0.016,0.419-0.037,0.839-0.056,1.26h29.34v-1.26H6.309z"/>
		<linearGradient id="SVGID_14_" gradientUnits="userSpaceOnUse" x1="-11.7275" y1="41.6938" x2="35.5923" y2="41.6938">
			<stop  offset="0" style="stop-color:#989897"/>
			<stop  offset="1" style="stop-color:#000000"/>
		</linearGradient>
		<path fill="url(#SVGID_14_)" d="M-4.464,42.234c0.184-1.046,1.82-0.869,1.94,0.089h0.077c0.021-0.42,0.044-0.84,0.066-1.26h-9.347
			v1.26h7.249C-4.474,42.294-4.47,42.264-4.464,42.234z"/>
		<linearGradient id="SVGID_15_" gradientUnits="userSpaceOnUse" x1="-11.7275" y1="38.6826" x2="35.5923" y2="38.6826">
			<stop  offset="0" style="stop-color:#989897"/>
			<stop  offset="1" style="stop-color:#000000"/>
		</linearGradient>
		<path fill="url(#SVGID_15_)" d="M-2.541,39.293c0.458-0.425,0.936-0.826,1.403-1.24h-10.59v1.26h9.173
			C-2.548,39.307-2.547,39.299-2.541,39.293z"/>
		<linearGradient id="SVGID_16_" gradientUnits="userSpaceOnUse" x1="-11.7275" y1="38.6826" x2="35.5923" y2="38.6826">
			<stop  offset="0" style="stop-color:#989897"/>
			<stop  offset="1" style="stop-color:#000000"/>
		</linearGradient>
		<path fill="url(#SVGID_16_)" d="M4.925,38.053c0.062,0.416,0.107,0.836,0.138,1.26h30.529v-1.26H4.925z"/>
	</g>
</g>
<g>
	<linearGradient id="SVGID_17_" gradientUnits="userSpaceOnUse" x1="3.228" y1="117.7744" x2="3.228" y2="11.1451">
		<stop  offset="0.0024" style="stop-color:#85262D"/>
		<stop  offset="1" style="stop-color:#8D3A2D;stop-opacity:0"/>
	</linearGradient>
	<path fill="url(#SVGID_17_)" d="M3.171,78.059c-0.033,1.002-0.05,2.002-0.057,3.001l0.227,0.394
		c-0.042-1.207-0.079-2.414-0.126-3.621C3.199,77.907,3.188,77.982,3.171,78.059z"/>
	<linearGradient id="SVGID_18_" gradientUnits="userSpaceOnUse" x1="56.7393" y1="117.7744" x2="56.7393" y2="11.1451">
		<stop  offset="0.0024" style="stop-color:#85262D"/>
		<stop  offset="1" style="stop-color:#8D3A2D;stop-opacity:0"/>
	</linearGradient>
	<path fill="url(#SVGID_18_)" d="M107.557,74.311c-1.516-9.617-3.483-19.51-0.514-28.547c0.002-0.055,0.007-0.11,0.009-0.166
		l-7.81-13.536c-0.282-0.218-0.565-0.436-0.848-0.654c-5.763-2.916-10.766-6.982-16.066-10.711
		c-4.381-3.082-8.683-6.258-12.885-9.565c-0.458-0.314-0.899-0.643-1.331-0.979H47.384c-6.715,3.843-13.679,7.438-19.879,12.044
		c-6.188,4.598-11.779,9.935-18.229,14.167l-2.989,5.18c-0.151,3.718-0.469,7.494-0.855,11.307c0.136,3.401,0.41,6.808,0.394,10.117
		c-0.037,7.513-0.124,15.024-0.147,22.537l3.582,6.208c0.149,0.043,0.3,0.114,0.447,0.248c0.407,0.371,0.787,0.763,1.171,1.15
		c0.26-0.16,0.597-0.193,0.96,0.026c6.335,3.824,11.858,9.33,17.683,14.089c6.081,3.541,12.13,7.139,18.187,10.725h15.646
		c5.956-4.444,11.904-8.929,18.223-12.833c2.7-1.669,5.372-3.356,8.125-4.92c3.494-2.611,7.124-5.033,11.047-6.769l7.3-12.651
		C107.848,78.624,107.686,76.469,107.557,74.311z"/>
	<linearGradient id="SVGID_19_" gradientUnits="userSpaceOnUse" x1="82.707" y1="117.7744" x2="82.707" y2="11.1451">
		<stop  offset="0.0024" style="stop-color:#85262D"/>
		<stop  offset="1" style="stop-color:#8D3A2D;stop-opacity:0"/>
	</linearGradient>
	<path fill="url(#SVGID_19_)" d="M89.937,105.617c0.464-0.391,0.936-0.784,1.417-1.173c-3.876,2.381-7.887,4.581-11.578,6.919
		c-0.933,0.59-1.897,1.177-2.881,1.763c-0.957,0.742-1.9,1.5-2.835,2.271c4.169-2.652,8.156-5.596,12.511-7.983
		C87.686,106.803,88.813,106.213,89.937,105.617z"/>
</g>
<g opacity="0.35">
	<linearGradient id="SVGID_20_" gradientUnits="userSpaceOnUse" x1="3.228" y1="117.7744" x2="3.228" y2="11.1451">
		<stop  offset="0" style="stop-color:#00FFFF;stop-opacity:0"/>
		<stop  offset="0.9976" style="stop-color:#29ABE2"/>
	</linearGradient>
	<path fill="url(#SVGID_20_)" d="M3.171,78.059c-0.033,1.002-0.05,2.002-0.057,3.001l0.227,0.394
		c-0.042-1.207-0.079-2.414-0.126-3.621C3.199,77.907,3.188,77.982,3.171,78.059z"/>
	<linearGradient id="SVGID_21_" gradientUnits="userSpaceOnUse" x1="56.7393" y1="117.7744" x2="56.7393" y2="11.1451">
		<stop  offset="0" style="stop-color:#00FFFF;stop-opacity:0"/>
		<stop  offset="0.9976" style="stop-color:#29ABE2"/>
	</linearGradient>
	<path fill="url(#SVGID_21_)" d="M107.557,74.311c-1.516-9.617-3.483-19.51-0.514-28.547c0.002-0.055,0.007-0.11,0.009-0.166
		l-7.81-13.536c-0.282-0.218-0.565-0.436-0.848-0.654c-5.763-2.916-10.766-6.982-16.066-10.711
		c-4.381-3.082-8.683-6.258-12.885-9.565c-0.458-0.314-0.899-0.643-1.331-0.979H47.384c-6.715,3.843-13.679,7.438-19.879,12.044
		c-6.188,4.598-11.779,9.935-18.229,14.167l-2.989,5.18c-0.151,3.718-0.469,7.494-0.855,11.307c0.136,3.401,0.41,6.808,0.394,10.117
		c-0.037,7.513-0.124,15.024-0.147,22.537l3.582,6.208c0.149,0.043,0.3,0.114,0.447,0.248c0.407,0.371,0.787,0.763,1.171,1.15
		c0.26-0.16,0.597-0.193,0.96,0.026c6.335,3.824,11.858,9.33,17.683,14.089c6.081,3.541,12.13,7.139,18.187,10.725h15.646
		c5.956-4.444,11.904-8.929,18.223-12.833c2.7-1.669,5.372-3.356,8.125-4.92c3.494-2.611,7.124-5.033,11.047-6.769l7.3-12.651
		C107.848,78.624,107.686,76.469,107.557,74.311z"/>
	<linearGradient id="SVGID_22_" gradientUnits="userSpaceOnUse" x1="82.707" y1="117.7744" x2="82.707" y2="11.1451">
		<stop  offset="0" style="stop-color:#00FFFF;stop-opacity:0"/>
		<stop  offset="0.9976" style="stop-color:#29ABE2"/>
	</linearGradient>
	<path fill="url(#SVGID_22_)" d="M89.937,105.617c0.464-0.391,0.936-0.784,1.417-1.173c-3.876,2.381-7.887,4.581-11.578,6.919
		c-0.933,0.59-1.897,1.177-2.881,1.763c-0.957,0.742-1.9,1.5-2.835,2.271c4.169-2.652,8.156-5.596,12.511-7.983
		C87.686,106.803,88.813,106.213,89.937,105.617z"/>
</g>
<path opacity="0.5" d="M71.235,24.98c-14.727-2.793-26.603-1.213-36.364,3.806c-10.661,5.479-9.246,17.452-9.876,21.351
	c-0.829,5.148-13.252,9.146-13.329,10.094c-0.564,6.898,7.359,4.771,6.922,6.91c-0.441,2.142-1.825,3.921-1.744,5.218
	c0.123,1.977,0.915,2.611,1.737,2.726c-0.428,0.252-0.766,0.637-0.797,1.235c-0.156,3.044,1.895,4.714,1.895,6.851
	c0,2.143-2.965,4.2,0.742,9.548c3.373,4.864,17.036,3.431,18.799,3.858c1.761,0.428,3.614,15.425,3.614,15.425h38.578
	c0.669-0.767,1.414-1.453,2.168-2.131c0.358-0.382,0.725-0.758,1.096-1.127c-2.595-3.782-6.23-10.379-5.825-17.207
	c0.607-10.141,15.303-12.807,16.393-30.774C96.494,40.06,84.871,27.567,71.235,24.98z"/>
<radialGradient id="SVGID_23_" cx="60.8242" cy="45.0889" r="40.5723" gradientUnits="userSpaceOnUse">
	<stop  offset="0" style="stop-color:#00FFFF"/>
	<stop  offset="1" style="stop-color:#B3B3B3"/>
</radialGradient>
<path opacity="0.5" fill="url(#SVGID_23_)" d="M45.683,111.291c0,0-3.094-19.502-4.692-19.901
	c-1.599-0.399-15.667,1.635-18.465-1.962c-2.796-3.598,0.411-6.752,0.411-8.752c0-1.996-2.273-2.364-2.132-5.207
	c0.082-1.638,2.532-1.588,2.532-1.588s-3.528-0.261-3.385-2.11c0.095-1.21,1.386-3.485,1.787-5.483c0.396-2-6.268-0.664-6.483-5.842
	c-0.037-0.887,11.337-4.619,12.088-9.426c0.571-3.642-0.711-14.847,8.956-19.964c8.853-4.687,19.625-6.163,32.979-3.554
	c12.367,2.416,21.465,14.135,20.328,33.469c-0.988,16.778-14.854,18.994-15.403,28.463c-0.566,9.809,7.3,21.858,7.3,21.858H45.683z"
	/>
<g>
	<path opacity="0.5" d="M91.19,60.97c1.137-19.333-7.961-31.053-20.328-33.469c-4.628-0.904-8.939-1.307-12.975-1.266
		c3.6,0.063,7.416,0.473,11.475,1.266C81.729,29.917,90.827,41.636,89.69,60.97c-0.988,16.778-14.854,18.994-15.403,28.463
		c-0.566,9.809,7.3,21.858,7.3,21.858h1.5c0,0-7.866-12.05-7.3-21.858C76.336,79.964,90.202,77.748,91.19,60.97z"/>
</g>
<g>
	<linearGradient id="SVGID_24_" gradientUnits="userSpaceOnUse" x1="40.8604" y1="101.3135" x2="47.2827" y2="101.3135">
		<stop  offset="0.0024" style="stop-color:#00FFFF"/>
		<stop  offset="1" style="stop-color:#00FFFF;stop-opacity:0"/>
	</linearGradient>
	<path opacity="0.5" fill="url(#SVGID_24_)" d="M42.591,91.39c-0.266-0.066-0.883-0.064-1.73-0.033
		c0.091,0.008,0.172,0.019,0.23,0.033c1.598,0.399,4.692,19.901,4.692,19.901h1.5C47.283,111.291,44.188,91.789,42.591,91.39z"/>
	<linearGradient id="SVGID_25_" gradientUnits="userSpaceOnUse" x1="15.355" y1="58.917" x2="57.9053" y2="58.917">
		<stop  offset="0.0024" style="stop-color:#00FFFF"/>
		<stop  offset="1" style="stop-color:#00FFFF;stop-opacity:0"/>
	</linearGradient>
	<path opacity="0.5" fill="url(#SVGID_25_)" d="M24.125,89.428c-2.796-3.598,0.411-6.752,0.411-8.752
		c0-1.996-2.273-2.364-2.132-5.207c0.082-1.638,0.932-1.588,0.932-1.588s-1.929-0.261-1.785-2.11
		c0.095-1.21,1.386-3.485,1.787-5.483c0.396-2-6.268-0.664-6.483-5.842c-0.037-0.887,11.337-4.619,12.088-9.426
		c0.571-3.642-0.711-14.847,8.956-19.964c5.785-3.063,12.396-4.743,20.006-4.82c-8.248-0.144-15.343,1.557-21.506,4.82
		c-9.667,5.117-8.385,16.322-8.956,19.964c-0.751,4.808-12.125,8.539-12.088,9.426c0.215,5.178,6.879,3.843,6.483,5.842
		c-0.401,1.998-1.692,4.273-1.787,5.483c-0.144,1.85,3.385,2.11,3.385,2.11s-2.45-0.05-2.532,1.588
		c-0.142,2.843,2.132,3.211,2.132,5.207c0,2-3.207,5.154-0.411,8.752c1.473,1.893,6.064,2.226,10.318,2.175
		C29.159,91.554,25.426,91.099,24.125,89.428z"/>
</g>
<g>
	<path fill="none" stroke="#000000" stroke-width="0.5" d="M45.899,111.291c0,0-3.095-19.502-4.692-19.901
		s-15.666,1.635-18.465-1.962c-2.797-3.598,0.41-6.752,0.41-8.752c0-1.996-2.273-2.364-2.131-5.207
		c0.082-1.638,2.531-1.588,2.531-1.588s-3.528-0.261-3.385-2.11c0.095-1.21,1.386-3.485,1.787-5.483
		c0.396-2-6.269-0.664-6.483-5.842c-0.036-0.887,11.337-4.619,12.089-9.426c0.57-3.642-4.394-18.684,20.94-24.184"/>
	<path opacity="0.9231" fill="none" stroke="#0C0A09" stroke-width="0.5" d="M48.608,111.24c0,0-3.264-19.018-4.851-19.804
		c-1.392-0.69-14.429,1.168-16.938-2.359c-2.467-3.467,0.628-6.54,0.667-8.425c0.039-1.881-1.922-2.369-1.727-5.047
		c0.115-1.566,2.49-1.657,2.51-1.687c0.019-0.029-3.13-0.434-2.961-2.198c0.113-1.178,1.36-3.372,1.765-5.369
		c0.386-1.909-5.72-0.9-5.898-5.902c-0.038-1.05,10.607-4.647,11.13-9.422c0.446-4.074-4.447-19.282,16.592-24.244"/>
	<path opacity="0.8462" fill="none" stroke="#181512" stroke-width="0.5" d="M51.318,111.188c0,0-3.676-18.117-5.009-19.705
		c-1.348-0.591-13.188,0.71-15.413-2.756c-2.137-3.33,0.847-6.329,0.924-8.098c0.077-1.767-1.569-2.376-1.322-4.887
		c0.147-1.497,2.45-1.729,2.488-1.786c0.039-0.058-2.73-0.607-2.537-2.286c0.132-1.146,1.333-3.259,1.743-5.255
		c0.373-1.819-5.162-1.138-5.313-5.962c-0.038-1.212,9.845-4.685,10.171-9.418c0.311-4.516-4.5-19.88,12.244-24.303"/>
	<path opacity="0.7692" fill="none" stroke="#231F1B" stroke-width="0.5" d="M54.028,111.138c0,0-3.967-17.425-5.167-19.607
		c-1.223-0.687-11.944,0.261-13.886-3.153c-1.811-3.183,1.065-6.116,1.181-7.771c0.115-1.65-1.216-2.381-0.918-4.727
		c0.181-1.427,2.409-1.798,2.466-1.885s-2.329-0.779-2.113-2.373c0.151-1.115,1.306-3.146,1.721-5.142
		c0.359-1.729-4.598-1.374-4.728-6.022c-0.039-1.375,9.059-4.728,9.213-9.415c0.163-4.962-4.553-20.479,7.896-24.363"/>
	<path opacity="0.6923" fill="none" stroke="#2F2924" stroke-width="0.5" d="M56.737,111.086c0,0-4.257-16.731-5.325-19.508
		c-1.098-0.783-10.701-0.177-12.36-3.551c-1.488-3.025,1.284-5.905,1.438-7.443c0.154-1.536-0.859-2.389-0.514-4.566
		c0.215-1.358,2.368-1.869,2.445-1.984c0.077-0.115-1.927-0.953-1.689-2.461c0.171-1.084,1.278-3.033,1.699-5.027
		c0.346-1.639-4.032-1.611-4.143-6.083c-0.038-1.537,8.252-4.772,8.254-9.41c0.001-5.412-4.605-21.076,3.548-24.422"/>
	<path opacity="0.6154" fill="none" stroke="#3B342D" stroke-width="0.5" d="M59.447,111.035c0,0-4.548-16.04-5.483-19.41
		c-0.974-0.879-9.458-0.601-10.834-3.948c-1.174-2.856,1.502-5.693,1.695-7.116c0.192-1.421-0.5-2.396-0.109-4.406
		c0.251-1.289,2.327-1.938,2.423-2.083c0.096-0.145-1.524-1.127-1.266-2.549c0.191-1.053,1.25-2.921,1.677-4.913
		c0.332-1.549-3.463-1.849-3.557-6.143c-0.037-1.699,7.431-4.819,7.295-9.406c-0.174-5.863-4.659-21.674-0.8-24.482"/>
	<path opacity="0.5385" fill="none" stroke="#473E36" stroke-width="0.5" d="M62.157,110.984c0,0-4.84-15.348-5.643-19.313
		c-0.848-0.975-8.221-1.011-9.308-4.345c-0.872-2.675,1.721-5.482,1.952-6.79c0.231-1.306-0.139-2.403,0.295-4.246
		c0.287-1.22,2.286-2.009,2.401-2.182s-1.12-1.3-0.842-2.637c0.212-1.021,1.221-2.808,1.655-4.799
		c0.317-1.459-2.893-2.086-2.972-6.203c-0.036-1.862,6.598-4.865,6.336-9.402c-0.364-6.313-4.711-22.272-5.147-24.542"/>
	<path opacity="0.4615" fill="none" stroke="#52483F" stroke-width="0.5" d="M64.867,110.933c0,0-5.131-14.654-5.801-19.214
		c-0.724-1.071-6.994-1.406-7.782-4.742c-0.585-2.479,1.939-5.27,2.208-6.462c0.269-1.19,0.226-2.411,0.699-4.086
		c0.326-1.152,2.245-2.079,2.38-2.281s-0.714-1.474-0.418-2.724c0.234-0.99,1.192-2.695,1.633-4.685
		c0.303-1.37-2.32-2.324-2.387-6.264c-0.034-2.025,5.755-4.911,5.377-9.399c-0.569-6.762-4.765-22.87-9.496-24.601"/>
	<path opacity="0.3846" fill="none" stroke="#5E5248" stroke-width="0.5" d="M67.576,110.882c0,0-5.421-13.962-5.958-19.116
		c-0.599-1.167-5.788-1.788-6.256-5.139c-0.318-2.276,2.157-5.059,2.466-6.136c0.308-1.075,0.594-2.418,1.104-3.926
		c0.366-1.084,2.204-2.149,2.357-2.38c0.154-0.23-0.308-1.646,0.006-2.812c0.258-0.958,1.163-2.582,1.61-4.57
		c0.288-1.28-1.748-2.562-1.801-6.324c-0.03-2.188,4.905-4.955,4.419-9.395c-0.79-7.208-4.818-23.468-13.844-24.661"/>
	<path opacity="0.3077" fill="none" stroke="#6A5D51" stroke-width="0.5" d="M70.286,110.831c0,0-4.89-13.389-6.117-19.019
		c-0.287-1.317-4.61-2.164-4.729-5.536c-0.073-2.066,2.377-4.847,2.723-5.809c0.346-0.96,0.966-2.425,1.508-3.766
		c0.41-1.014,2.163-2.219,2.337-2.479c0.173-0.26,0.101-1.817,0.43-2.899c0.281-0.927,1.134-2.47,1.588-4.456
		c0.272-1.19-1.174-2.799-1.216-6.384c-0.027-2.35,4.049-4.996,3.46-9.391c-1.026-7.652-4.871-24.066-18.192-24.72"/>
	<path opacity="0.2308" fill="none" stroke="#76675A" stroke-width="0.5" d="M72.996,110.779c0,0-5.346-12.64-6.275-18.919
		c-0.205-1.389-3.475-2.542-3.203-5.934c0.148-1.859,2.595-4.636,2.979-5.481c0.384-0.846,1.344-2.43,1.912-3.605
		c0.456-0.944,2.122-2.29,2.314-2.578s0.511-1.99,0.854-2.987c0.308-0.895,1.104-2.357,1.566-4.342
		c0.257-1.102-0.6-3.036-0.631-6.445c-0.022-2.512,3.188-5.035,2.501-9.387c-1.277-8.091-4.924-24.664-22.54-24.78"/>
	<path opacity="0.1538" fill="none" stroke="#817163" stroke-width="0.5" d="M75.706,110.729c0,0-5.833-11.909-6.434-18.821
		c-0.127-1.467-2.393-2.939-1.678-6.331c0.351-1.663,2.813-4.423,3.236-5.154c0.423-0.729,1.726-2.431,2.316-3.445
		c0.507-0.871,2.082-2.359,2.293-2.677c0.212-0.317,0.923-2.161,1.277-3.074c0.335-0.861,1.073-2.246,1.545-4.229
		c0.241-1.012-0.025-3.273-0.046-6.505c-0.017-2.675,2.323-5.071,1.542-9.383c-1.546-8.524-4.977-25.262-26.887-24.839"/>
	<path opacity="0.0769" fill="none" stroke="#8D7C6C" stroke-width="0.5" d="M78.415,110.677c0,0-6.349-11.196-6.592-18.723
		c-0.05-1.553-1.361-3.377-0.15-6.728c0.538-1.488,3.031-4.212,3.493-4.827c0.461-0.615,2.112-2.428,2.721-3.285
		c0.563-0.794,2.04-2.431,2.271-2.776c0.23-0.346,1.336-2.332,1.701-3.162c0.364-0.827,1.039-2.134,1.521-4.114
		c0.225-0.923,0.55-3.51,0.54-6.565c-0.009-2.837,1.456-5.106,0.584-9.379c-1.827-8.953-5.03-25.86-31.236-24.899"/>
	<path opacity="0" fill="none" stroke="#998675" stroke-width="0.5" d="M81.125,110.626c0,0-6.875-10.5-6.75-18.625
		C74.4,90.354,74,88.126,75.75,84.876c0.724-1.343,3.25-4,3.75-4.5s2.5-2.417,3.125-3.125s2-2.5,2.25-2.875s1.75-2.5,2.125-3.25
		c0.396-0.791,1.006-2.022,1.5-4c0.208-0.833,1.125-3.748,1.125-6.625c0-3,0.586-5.137-0.375-9.375
		c-2.125-9.375-5.083-26.458-35.583-24.958"/>
</g>
<linearGradient id="SVGID_26_" gradientUnits="userSpaceOnUse" x1="58.7227" y1="29.6543" x2="58.7227" y2="98.2423">
	<stop  offset="0.0024" style="stop-color:#00FFFF"/>
	<stop  offset="1" style="stop-color:#00FFFF;stop-opacity:0"/>
</linearGradient>
<path fill="url(#SVGID_26_)" d="M88.443,53.61c0-4.805-2.632-8.875-6.274-10.308c0.111-0.674,0.173-1.368,0.173-2.08
	c0-6.001-4.099-10.865-9.155-10.865c-1.862,0-3.588,0.66-5.03,1.788c-1.654-2.808-4.396-4.648-7.498-4.648
	c-3.095,0-5.828,1.825-7.486,4.607c-1.479-1.22-3.276-1.939-5.214-1.939c-4.128,0-7.617,3.244-8.759,7.699
	c-0.342-0.044-0.687-0.074-1.041-0.074c-5.054,0-9.157,4.865-9.157,10.865s4.103,10.865,9.157,10.865
	c1.302,0,2.539-0.327,3.66-0.907c1.313,4.092,4.64,7.006,8.551,7.006c1.505,0,2.921-0.438,4.174-1.201
	c0.855,0.733,4.232,4.539,3.208,10.833C56,86.001,59.137,95.46,61.387,98.967c-2.193-7.479-3.945-17.484-1.64-26.572
	c1.374-5.413-4.299-9.377-5.07-10.018c-1.127,0.666-2.403,1.049-3.758,1.049c-3.522,0-6.519-2.547-7.702-6.123
	c-1.008,0.507-2.124,0.793-3.295,0.793c-4.553,0-8.247-4.253-8.247-9.496c0-5.245,3.694-9.496,8.247-9.496
	c0.319,0,0.629,0.024,0.937,0.065c1.028-3.894,4.17-6.729,7.888-6.729c1.746,0,3.364,0.628,4.697,1.695
	c1.493-2.433,3.95-4.027,6.736-4.027c2.795,0,5.264,1.608,6.755,4.063c1.3-0.986,2.854-1.563,4.529-1.563
	c4.553,0,8.244,4.251,8.244,9.496c0,0.623-0.058,1.229-0.155,1.818c3.283,1.253,5.651,4.81,5.651,9.009
	c0,4.039-2.192,7.481-5.28,8.854c0.137,0.688,0.219,1.403,0.219,2.142c0,2.086-0.594,4.011-1.583,5.579
	c-0.035,0.145-0.082,0.283-0.155,0.415c-2.024,3.669-6.229,6.562-7.961,10.662c-1.805,4.272-1.154,10.338,0.166,15.853
	c-0.371-3.973-0.275-11.538,1.021-14.74c1.905-4.698,10.032-8.499,11.191-15.504c0.138-0.834-0.091-1.664-0.241-2.451
	C86.009,62.17,88.443,58.231,88.443,53.61z"/>
<linearGradient id="SVGID_27_" gradientUnits="userSpaceOnUse" x1="58.4404" y1="60.0024" x2="58.4404" y2="102.9492">
	<stop  offset="0" style="stop-color:#FFFFFF"/>
	<stop  offset="1" style="stop-color:#B3B3B3;stop-opacity:0"/>
</linearGradient>
<path fill="url(#SVGID_27_)" d="M85.205,52.931c0-4.2-2.368-7.756-5.651-9.009c0.098-0.589,0.155-1.196,0.155-1.818
	c0-5.245-3.691-9.496-8.244-9.496c-1.676,0-3.229,0.577-4.529,1.563c-1.491-2.454-3.96-4.063-6.755-4.063
	c-2.786,0-5.243,1.594-6.736,4.027c-1.333-1.066-2.951-1.695-4.697-1.695c-3.718,0-6.86,2.835-7.888,6.729
	c-0.308-0.041-0.618-0.065-0.937-0.065c-4.553,0-8.247,4.251-8.247,9.496c0,5.243,3.694,9.496,8.247,9.496
	c1.171,0,2.287-0.287,3.295-0.793c1.183,3.576,4.179,6.123,7.702,6.123c1.354,0,2.631-0.383,3.758-1.049
	c0.771,0.641,6.444,4.604,5.07,10.018c-4.407,17.369,6.003,38.106,6.003,38.106l9.5-0.497c0,0-8.986-19.521-4.806-29.421
	c1.732-4.101,5.937-6.993,7.961-10.662c0.073-0.132,0.12-0.271,0.155-0.415c0.989-1.567,1.583-3.492,1.583-5.579
	c0-0.739-0.082-1.454-0.219-2.142C83.013,60.413,85.205,56.97,85.205,52.931z"/>
<g>
	<path fill="#333333" d="M55.549,117.2L9.45,90.602v-53.2l46.099-26.6l46.102,26.6v53.2L55.549,117.2z M0.05,96l55.499,32l55.4-32
		V32.001l-55.4-31.999L0.05,32.001V96z"/>
	<g>
		<g opacity="0.13">
			<g>
				<path d="M11.85,38.801l43.7-25.2l43.601,25.2v50.4l-43.601,25.2l-43.7-25.2V38.801z M9.55,37.401v53.2l46,26.6l45.999-26.6
					V37.501l-45.999-26.6L9.55,37.401z"/>
			</g>
		</g>
	</g>
</g>
<g>
	<path fill="#CCCCCC" d="M74.919,38.937H46.611c-0.829,0-1.502,0.674-1.502,1.503v18.81c0,0.83,0.673,1.503,1.502,1.503h28.308
		c0.83,0,1.502-0.673,1.502-1.503V40.44C76.421,39.611,75.749,38.937,74.919,38.937z"/>
	<path fill="#CCCCCC" d="M56.756,35.328c0-0.389,0.314-0.705,0.704-0.705h6.612c0.388,0,0.705,0.316,0.705,0.705v2.967h1.057v-3.583
		c0-0.649-0.527-1.175-1.175-1.175h-7.787c-0.648,0-1.176,0.526-1.176,1.175v3.583h1.06V35.328z"/>
</g>
<g>
	<path fill="#603813" d="M75.174,57.709c0,0.797-0.646,1.443-1.441,1.443H46.544c-0.796,0-1.443-0.646-1.443-1.443V39.644
		c0-0.797,0.647-1.444,1.443-1.444h27.188c0.796,0,1.441,0.646,1.441,1.444V57.709z"/>
	<path fill="#603813" d="M56.286,37.583v-2.85c0-0.374,0.303-0.677,0.677-0.677h6.352c0.372,0,0.676,0.303,0.676,0.677v2.85h1.016
		v-3.442c0-0.624-0.507-1.128-1.128-1.128h-7.479c-0.623,0-1.128,0.504-1.128,1.128v3.442H56.286z"/>
	<path fill="#754C24" stroke="#C7A315" stroke-width="0.2177" stroke-dasharray="0.8706" d="M73.747,56.736
		c0,0.48-0.391,0.871-0.87,0.871H47.354c-0.48,0-0.87-0.391-0.87-0.871V40.521c0-0.48,0.39-0.871,0.87-0.871h25.522
		c0.479,0,0.87,0.391,0.87,0.871V56.736z"/>
</g>
<g>
	<circle fill="#AF890E" cx="60.096" cy="48.501" r="7.166"/>
	<linearGradient id="SVGID_28_" gradientUnits="userSpaceOnUse" x1="60.0957" y1="55.1216" x2="60.0957" y2="41.7219">
		<stop  offset="0" style="stop-color:#C7A315"/>
		<stop  offset="1" style="stop-color:#EBD065"/>
	</linearGradient>
	<circle fill="url(#SVGID_28_)" cx="60.096" cy="48.501" r="6.777"/>
	<linearGradient id="SVGID_29_" gradientUnits="userSpaceOnUse" x1="60.0957" y1="42.8931" x2="60.0957" y2="54.1478">
		<stop  offset="0" style="stop-color:#C7A315"/>
		<stop  offset="1" style="stop-color:#EBD065"/>
	</linearGradient>
	<circle fill="url(#SVGID_29_)" cx="60.095" cy="48.501" r="5.608"/>
	<linearGradient id="SVGID_30_" gradientUnits="userSpaceOnUse" x1="60.0957" y1="53.6416" x2="60.0957" y2="43.3604">
		<stop  offset="0" style="stop-color:#C7A315"/>
		<stop  offset="1" style="stop-color:#EBD065"/>
	</linearGradient>
	<circle fill="url(#SVGID_30_)" cx="60.096" cy="48.501" r="5.141"/>
	<g>
		<g>
			<linearGradient id="SVGID_31_" gradientUnits="userSpaceOnUse" x1="59.9863" y1="53.4468" x2="59.9863" y2="50.5252">
				<stop  offset="0" style="stop-color:#C7A315"/>
				<stop  offset="1" style="stop-color:#EBD065"/>
			</linearGradient>
			<polygon fill="url(#SVGID_31_)" points="59.986,49.326 58.086,48.252 59.986,44.962 61.887,48.252 			"/>
		</g>
		<g>
			<linearGradient id="SVGID_32_" gradientUnits="userSpaceOnUse" x1="59.9863" y1="53.4468" x2="59.9863" y2="50.525">
				<stop  offset="0" style="stop-color:#C7A315"/>
				<stop  offset="1" style="stop-color:#EBD065"/>
			</linearGradient>
			<polygon fill="url(#SVGID_32_)" points="59.986,49.746 58.086,48.663 59.986,51.954 61.887,48.663 			"/>
		</g>
	</g>
	<g>
		<g>
			<polygon fill="#AF890E" points="59.986,49.338 58.25,48.357 58.086,48.642 59.986,49.715 61.887,48.642 61.723,48.357 			"/>
		</g>
		<g>
			<polygon fill="#AF890E" points="59.986,51.967 58.41,49.236 58.086,49.052 59.986,52.344 61.887,49.052 61.563,49.236 			"/>
		</g>
	</g>
	<g opacity="0.6">
		<g>
			<polygon fill="#FFFFFF" points="59.986,45.332 61.727,48.344 61.887,48.252 59.986,44.962 58.086,48.252 58.248,48.344 			"/>
		</g>
		<g>
			<polygon fill="#FFFFFF" points="59.986,50.115 61.568,49.214 61.887,48.663 59.986,49.746 58.086,48.663 58.404,49.214 			"/>
		</g>
	</g>
	<path opacity="0.6" fill="#FFFFFF" d="M60.096,53.901c-3.053,0-5.528-2.438-5.601-5.471c-0.001,0.045-0.007,0.09-0.007,0.136
		c0,3.097,2.511,5.608,5.608,5.608s5.607-2.511,5.607-5.608c0-0.046-0.004-0.09-0.008-0.136
		C65.623,51.464,63.146,53.901,60.096,53.901z"/>
</g>
</svg>
