<svg enable-background="new 0 0 111 128.479" height="128.479" viewBox="0 0 111 128.479" width="111" xmlns="http://www.w3.org/2000/svg" xmlns:xlink="http://www.w3.org/1999/xlink"><radialGradient id="a" cx="55.9243" cy="64.7686" gradientUnits="userSpaceOnUse" r="49.688"><stop offset="0" stop-color="#00d431"/><stop offset="1" stop-color="#007f5a"/></radialGradient><path d="m110.851 96.479-55.428 32-55.423-32v-64l55.423-32 55.428 32z" fill="#ea2f21"/><path d="m101.925 38.199v53.14l-.01.01-.68.391-.74.42-4.15 2.39-.201.12-1.93 1.11-2.719 1.569-.24.13-.131.051-.109.069-3.029 1.74-.521.3-.299.17-1.051.601-.039.029-1.23.71-.451.261-.02.02h-.01l-1.539.89-.24.141-.631.38-1.26.72-.119.07-.08.05-.41.24-.031.01-.16.09v.011l-.779.449-.18.09-.02.021-.041.02-1.01.58-.16.091-.129.079-.371.21-.24.141h-.01l-.709.42-3.41 1.97-1.211.7-.629.36-.061.029-2.971 1.721-.529.31-4.041 2.33-.01.01-.301.17-.129.08-4.75 2.74-.961.55-.561.32h-.01l-.32.189-.479.28-1.42-.82-.852-.489-.029-.011-.24-.14-1.5-.87-3.369-1.95-.16-.09-.041-.029-2.068-1.19-2.611-1.51-2.75-1.601-.689-.39-1.439-.83-3.65-2.12-.391-.22-.49-.28-.33-.2-.01-.01-1.839-1.05-.57-.33-1.71-.99-.75-.439-1.76-1.021-2.09-1.2-.82-.47-.09-.05-.12-.07-.38-.22-.01-.01-.21-.12h-.011l-1.04-.601c-.01-.01-.01-.01-.02-.01l-1.86-1.08-1.02-.59-2.11-1.229-.29-.17s-.01 0-.02-.011l-.28-.16-3.3-1.899-3.5-2.021-.08-.04-.03-.02v-53.14l.93-.54 13.4-7.73 1.99-1.16 4.93-2.83 1.579-.92.17-.09 1.66-.95.781-.449.379-.221.439-.26 1.102-.65.52-.3 1.299-.74.98-.56.691-.41 1.398-.8h.01l.051-.03 5.721-3.3.189-.11.27-.159 6.07-3.511 1.439-.83 1.061.62 6.49 3.75 2.602 1.5 4.91 2.83 7.02 4.05 1.039.61 2.301 1.31.869.5.92.551h.021l.58.33 1.369.79.801.46.09.06 1.809 1.04 1.65.95 2.131 1.229.039.03v.01l.26.141.66.39 1.461.84 1.939 1.12.779.44.441.25 1.939 1.119z" fill="url(#a)"/><path d="m75.351 95.048 4.166 2.417 3.917-2.167 4.25-.25-7.167-11.25 3.834-.25-6.75-10.916 1.75-.334-7.417-11.666 2.667-.084-7-10.583.666-1.5-6.333-10.333-6-3.917-5.25 3.583-6.833 9.917 1.333 2-7.75 11.167 3.25-.167-7.667 11.25 1.834.417-7.167 11.166 3.583.167-6.666 10.917 3.5.416 3.916 2.417 4.75-2.417 5 2.417 5.084-2.333 3.5 2.666 5.583-2.75 5.333 2.5 5.084-2.833 3.583 2.917z" fill="#1fa338"/><path d="m61.125 114.859-.17.101-.2.12-4.17 2.399-.69.401-.23-.13-.61-.351-3.01-1.739-.03-.02-.031-.01-.029-.021-.24-.139-.221-.13-.029-.02-.45-.26v-9.28l.053-6.659 4.557-3.401.1-.21.21-.46.179.4.13.29 5.012 3.006-.321 7.374.139 6.63z" fill="#604530"/><circle cx="47.662" cy="66.652" fill="#ffce08" r="1.563"/><ellipse cx="48.183" cy="66.122" fill="#fff" rx=".646" ry=".398" transform="matrix(.6123 .7907 -.7907 .6123 70.9617 -12.4579)"/><circle cx="56.225" cy="67.184" fill="#8e2abe" r="1.563"/><ellipse cx="56.745" cy="66.653" fill="#fff" rx=".646" ry=".398" transform="matrix(.6123 .7907 -.7907 .6123 74.7017 -19.0218)"/><circle cx="70.818" cy="69.215" fill="#8e2abe" r="1.563"/><ellipse cx="71.339" cy="68.685" fill="#fff" rx=".646" ry=".398" transform="matrix(.6123 .7907 -.7907 .6123 81.9662 -29.7729)"/><circle cx="75.475" cy="76.621" fill="#3e00ff" r="1.563"/><ellipse cx="75.995" cy="76.091" fill="#fff" rx=".646" ry=".398" transform="matrix(.6123 .7907 -.7907 .6123 89.6274 -30.5827)"/><circle cx="53.318" cy="79.965" fill="#3e00ff" r="1.563"/><ellipse cx="53.839" cy="79.435" fill="#fff" rx=".646" ry=".398" transform="matrix(.6123 .7907 -.7907 .6123 83.6804 -11.7683)"/><circle cx="49.475" cy="87.902" fill="#25e899" r="1.563"/><ellipse cx="49.995" cy="87.372" fill="#fff" rx=".646" ry=".398" transform="matrix(.6123 .7907 -.7907 .6123 88.4659 -5.6516)"/><circle cx="60.568" cy="87.121" fill="#ffce08" r="1.563"/><ellipse cx="61.089" cy="86.591" fill="#fff" rx=".646" ry=".398" transform="matrix(.6123 .7907 -.7907 .6123 92.1496 -14.7258)"/><circle cx="71.662" cy="90.184" fill="#3e00ff" r="1.563"/><ellipse cx="72.183" cy="89.653" fill="#fff" rx=".646" ry=".398" transform="matrix(.6123 .7907 -.7907 .6123 98.8724 -22.3096)"/><circle cx="39.193" cy="90.621" fill="#8e2abe" r="1.563"/><ellipse cx="39.714" cy="90.091" fill="#fff" rx=".646" ry=".398" transform="matrix(.6123 .7907 -.7907 .6123 86.629 3.5315)"/><circle cx="37.287" cy="78.496" fill="#f9006c" r="1.563"/><ellipse cx="37.808" cy="77.966" fill="#fff" rx=".646" ry=".398" transform="matrix(.6123 .7907 -.7907 .6123 76.3032 .3374)"/><circle cx="65.787" cy="57.152" fill="#25e899" r="1.563"/><ellipse cx="66.308" cy="56.622" fill="#fff" rx=".646" ry=".398" transform="matrix(.6123 .7907 -.7907 .6123 70.4782 -30.4719)"/><circle cx="55.912" cy="42.902" fill="#25e899" r="1.563"/><ellipse cx="56.433" cy="42.372" fill="#fff" rx=".646" ry=".398" transform="matrix(.6123 .7907 -.7907 .6123 55.3825 -28.1895)"/><path d="m56.309 21.097 2.046 6.3h6.625l-5.359 3.894 2.047 6.301-5.359-3.894-5.36 3.894 2.047-6.301-5.359-3.894h6.625z" fill="#ffce08"/><path d="m53.306 81.95c-1.5 1.122-2.977-1.571-1.932-2.747.712-.801 1.683-1.225 1.767-2.405.046-.644-.954-.64-1 0-.061.845-1.261 1.355-1.72 1.988-.51.702-.54 1.474-.312 2.291.427 1.529 2.256 2.818 3.7 1.736.51-.381.013-1.25-.503-.863z" fill="#007018"/><path d="m72.618 70.703c-.127-.065-.247-.133-.364-.213-.012-.008-.016-.019-.027-.027-.317.191-.613.406-.939.614-.631.404-1.954.187-2.392-.418-.479-.664-.402-2.369.62-2.486.633-.072.64-1.073 0-1-1.713.196-2.23 2.176-1.674 3.608.327.842 1.181 1.349 2.059 1.432.532.051 1.071.04 1.582-.128.518-.17.863-.621 1.347-.849-.037-.039-.072-.084-.099-.145-.061-.137-.094-.262-.113-.388z" fill="#007018"/><path d="m87.191 93.816c-.573-.084-1.121-.033-1.698-.011-.753.028-1.469-.188-2.227-.09-.343.045-.494.359-.465.625-.735.297-1.456.618-2.17.978-.381.192-.866.398-1.252.686-.909-.614-1.832-1.224-2.551-2.059-.039-.045-.082-.07-.124-.096.076-.041.154-.078.23-.119.568-.307.063-1.17-.504-.863-1.439.777-2.926 1.487-4.418 2.157-.401.181-1.083.404-1.63.723-.981-.43-1.927-.974-2.74-1.654.073-.017.14-.048.215-.062.634-.112.364-1.076-.266-.965-1.044.186-1.964.704-2.88 1.215-1.194.665-2.45 1.261-3.745 1.702-.08.027-.144.069-.194.119-1.281-.69-2.521-1.458-3.814-2.128-.039-.32-.373-.614-.735-.399-.021.013-.044.022-.064.034-.204-.015-.381.099-.48.257-1.058.554-2.217.987-3.326 1.392-.028.011-.059.023-.087.034-1.789-.83-3.101-1.183-4.311-3.031-.527-.807-.9-1.603-1.127-2.403.005.007.009.013.014.02.671.867 1.873.935 2.849.654.618-.178.355-1.144-.266-.965-1.687.485-2.766-.982-1.94-2.514.175-.324.418-.614.651-.898.122-.148.253-.286.388-.424.257-.262.276-.103.135-.312 0 0 .001-.001.002-.001.241.343.694.229.863-.043.021.066.059.133.118.194.508.525 1.217.663 1.852.974.186.091.36.057.497-.033.313.142.604.322.896.5.134.082.436.172.605.273-.054.384.469.769.856.432.726-.63 1.873-.895 2.711-1.359.178-.099.36-.189.542-.281-.33.845-.322 1.831.086 2.777.338.783 1.156 1.52 2.03 1.592 1.207.099 1.984-.559 2.798-1.354.462-.451-.246-1.158-.707-.707-.408.398-.781.799-1.327 1.003-.041-.071-.098-.138-.192-.186-.501-.254-1.331-.505-1.52-1.097-.07-.221-.242-.324-.422-.343-.234-1.159.552-2.349 1.697-2.709.201-.063.297-.211.325-.372.054.009.106.01.159.009.019.013.023.031.047.042 2.065.941 4.251 1.678 6.292 2.646.022.011.044.009.066.017.134.188.372.291.625.13.926-.589 1.913-1.091 2.869-1.628.298-.167.856-.394 1.346-.672 1.535.758 3.075 1.406 4.692 2.003.121.267.436.424.69.226.217 0 .368-.157.418-.354.195-.134.409-.251.594-.378.364-.253.723-.515 1.078-.779.583-.434 1.077-.994 1.75-1.292.589-.261.08-1.122-.504-.863-.75.332-1.315.968-1.965 1.451-.488.363-1.132.683-1.626 1.092-1.483-.541-2.901-1.132-4.307-1.811.023-.042.056-.083.069-.127.189-.6-.715-.857-.942-.306-.002-.001-.003-.002-.005-.003.071-.185.141-.181-.055-.057-.009.006-.019.011-.027.017-.061-.031-.12-.059-.181-.09-.452-.234-.854.256-.722.618-.39.224-.78.446-1.173.665-.742.416-1.5.817-2.227 1.262-.435-.205-.876-.398-1.321-.587-.021-.033-.032-.07-.065-.101-.224-.202-.573-.296-.861-.367-.299-.074-.592-.193-.884-.321.339-.202.392-.8-.095-.908-1.298-.29-2.422-1.032-3.779-1.08-.459-.016-.584.481-.391.78-.109-.034-.229-.04-.36.038-.585.347-1.2.644-1.816.939-.077-.061-.175-.102-.307-.091-.839.066-1.464.592-2.221.896-.39.156-1.013.348-1.272.744-.19-.1-.392-.187-.569-.292-.4-.238-.813-.442-1.221-.666-.308-.169-.605-.354-.902-.541-.17-.107-.338-.219-.503-.334-.295-.204-.119-.231-.146.068.032-.359-.267-.509-.546-.465.024-.266-.13-.56-.474-.577-.67-.035-1.313.828-1.794 1.193-.224.17-.445.329-.66.487.022-.058.037-.114.062-.173.249-.595-.72-.852-.965-.266-.084.201-.147.393-.217.586-.147-.377-.801-.46-.95.039-.12.403-.21.803-.29 1.202-.063-.114-.163-.191-.28-.231.03-.185-.03-.376-.236-.478-.353-.174-.705-.33-1.055-.489.285-.183.396-.638.012-.845-.047-.025-.082-.073-.127-.104.011-.067.008-.141-.017-.221-.536-1.796-1.09-3.305-.825-5.24.153-1.129.854-2.538 1.798-3.612.386-.232.769-.467 1.143-.721.197-.134.376-.283.554-.434.55.368 1.16.618 1.779.91.413.194.928.58 1.431.741.031.28.258.537.604.428 1.102-.35 2.061-.976 3.077-1.509.674-.353 1.396-.589 2.105-.859 1.656 1.002 3.616 1.482 5.081 2.781.143.127.304.146.449.11.167.228.483.333.716.057.501-.597 1.189-.938 1.854-1.316-.152.55-.208 1.129-.18 1.604.048.828.598 1.706 1.284 2.162.384.256.73.376 1.188.404.573.035.948-.475 1.466-.602.626-.154.36-1.119-.266-.965-.573.142-1.023.749-1.666.444-.586-.277-.981-1.011-1.018-1.632-.047-.798.261-2.42 1.316-2.33.188.016.313-.063.391-.177.101-.059.184-.142.217-.273.011-.029.021-.059.032-.089.063-.115.068-.226.049-.327 1.078.793 2.444 1.23 3.645 1.787.448.208 1.249.89 1.847.852.14.108.33.149.53.034.166-.095.316-.208.464-.325-.047.18-.065.357-.085.534-.146.14-.21.35-.063.57.022.033.041.067.063.102.007.063 0 .133.012.195.188.973 1.138 1.952 2.068 2.243.507.159.965.18 1.483.07.694-.146 1.046-.798 1.641-1.098.576-.29.07-1.152-.504-.863-.505.254-.828.721-1.319.935-.051-.118-.146-.221-.296-.277-.517-.193-1.171-.309-1.577-.701-.242-.234-.399-.575-.571-.881-.069-1.108 1.149-2.664 2.183-2.602.441.026.571-.431.407-.736.006-.001.012-.001.017-.002.186-.033.371-.067.558-.097.084-.014.17-.021.255-.025.188-.013.175.074-.006-.078.489.414 1.2-.29.707-.707-.334-.283-.774-.233-1.188-.161.276-.5-.529-.942-.89-.445-.077.106-.168.203-.255.303-.174-.092-.395-.101-.584.054-.61.497-1.22.992-1.807 1.518-.955.855-1.394.911-2.466.321-1.157-.637-2.299-1.321-3.616-1.551-.118-.021-.219.005-.308.048-.15-.258-.495-.406-.762-.127-1.337 1.398-3.438 1.916-4.757 3.296-.384-.333-.798-.611-1.229-.859.049-.193.004-.412-.2-.557-.953-.675-1.834-1.457-2.875-2-.023-.013-.046-.012-.069-.02-.076-.07-.173-.117-.279-.125-.041-.066-.094-.123-.167-.161-.081-.096-.201-.165-.361-.18-.397-.036-.796.036-1.062.355-.029.036-.049.073-.068.11-.005.006-.011.009-.016.015-.041.049-.07.1-.09.151-.191.124-.307.344-.216.546-.422.162-.847.317-1.265.485-.955.386-1.803.979-2.744 1.384-.014-.02-.016-.046-.033-.063.173-.22.191-.55-.13-.707-.502-.245-1.174-.456-1.706-.79.035-.177-.031-.36-.252-.46-.208-.094-.396-.202-.584-.334-.113-.079-.232-.093-.344-.066-.043-.033-.091-.063-.144-.081-.104-.271-.451-.446-.725-.269-.754.489-1.516.963-2.283 1.432-.107-.094-.252-.147-.431-.107-.338.077-.789.348-1.137.696-.208-.187-.576-.227-.787.075-.145.207-.261.429-.355.661-.027-.031-.049-.064-.086-.091-.09-.071-.181-.143-.271-.213.04-.226-.054-.457-.348-.504-.165-.026-.316-.076-.466-.133-.085-.067-.173-.098-.26-.108l-.1-.044c-.343-.229-.671-.42-1.001-.543.003-.184-.064-.334-.222-.455-.343-.264-.747-.296-1.16-.231-.094-.125-.249-.192-.407-.207-1.363-.131-2.41.873-3.116 1.952-.041.063-.059.127-.066.191-.178.238-.35.482-.514.735-.412.339-.697.806-.95 1.3-.233.371-.457.783-.647 1.21-.339.572-.716 1.123-1.101 1.664-.521.733-1.084 2.217-1.875 2.678-.529.308-.143.985.385.914.195-.026.362-.063.512-.111.207.19.576.228.787-.077.053-.077.101-.156.153-.233.027.014.041.038.073.047.324.089.646.145.966.175.438.188.86.382 1.356.478.021.004.044.005.065.009.242.199.568.361.923.487.367.329.738.653 1.123.961.035.119.094.23.197.298.023.015.039.024.061.038-.069.021-.141.043-.202.095.001-.005.002-.009.003-.014.072-.432-.321-.778-.734-.564-.145.074-.279.16-.408.254-.081-.279-.381-.399-.648-.298.034-.14.006-.271-.067-.374.005-.008.01-.016.016-.023.384-.524-.48-1.007-.863-.504-.82 1.075-1.555 2.201-2.259 3.348-.558.682-.992 1.427-1.374 2.231-.013.011-.027.016-.039.027-.886.881-1.573 1.83-2.161 2.935-.068.129-.066.264-.025.386-.092.116-.184.233-.271.353-.215.054-.415.227-.438.473-.01.099-.019.195-.028.294-.064.02-.122.036-.188.057-.527.163-.446 1.002.133.982.468-.016.85-.106 1.215-.32.094-.027.188-.051.281-.076.412-.09.832-.147 1.295-.146.059 0 .109-.014.158-.031.022.032.039.064.072.094s.069.049.103.076c0 .001-.001.001-.001.002.004.002.008.004.012.007 1.306 1.102 2.818 1.663 4.363 2.368.435.198.804-.18.736-.534.075-.004.152-.015.226-.05.577-.273.571-.277 1.022-.671.609-.117 1.122-.361 1.579-.865.117-.129.148-.271.13-.404.571.318 1.167.585 1.779.811.457.224.921.437 1.36.672.214.101.417.049.56-.07.025.006.05.014.075.021-.059.16-.035.353.097.514.868 1.056 1.902.595 2.843-.15.701-.296 1.294-.792 2.022-1.061.378-.14.755-.383.912-.759.309.465.633.928.979 1.409.338.472 1.074.103.927-.361.207.138.415.276.62.416.378.258.831.651 1.305.976-.004.376.469.645.78.426.171.065.341.116.508.126.52.031.61-.604.294-.876.199-.109.421-.194.645-.274.083-.008.157-.035.224-.078.337-.112.669-.213.941-.337.913-.418 1.861-.739 2.755-1.19 1.745.88 3.376 1.965 5.14 2.813.562.271 1.046-.53.544-.833.803-.312 1.59-.662 2.365-1.038.794-.385 1.548-.862 2.353-1.215.023.075.062.149.137.216.007.006.015.011.021.017-.145.179-.187.438.02.65.792.813 1.861 1.12 2.83 1.64.084.136.238.215.399.23.3.188.578.009.685-.246.145.056.286.119.432.171.511.181.769-.465.485-.806.449-.22.905-.424 1.361-.628 1.023-.456 2.036-.957 3.034-1.475-.021.091-.01.186.022.279-.195.173-.292.489-.082.75.582.725 1.528.979 2.269 1.495.176.123.345.103.478.016.044.029.087.06.131.089.039.315.377.534.654.441.316.208.739-.085.739-.436v-.209c0-.004-.002-.006-.002-.009.31-.18.676-.322.913-.44.893-.446 1.779-.857 2.722-1.193.158-.057.254-.166.303-.291.259.017.517.046.781.076.662.076 1.325-.091 1.983.007.632.089.903-.875.266-.969zm-52.329-15.91c.21-.259.397-.531.56-.821.234-.238.44-.496.646-.756.037.006.072.015.114.011.341-.029.614-.136.919-.287.385-.191.805.006 1.162.177.043.021.084.023.126.032.013.089.04.179.106.265.368.472.365.479.745.712.128.118.271.229.405.343.002.284-.011.572-.039.864-.063.099-.098.219-.074.36.012.064.022.13.033.194-.002.017-.01.03-.009.048.002.07.009.139.013.208-.058.039-.109.092-.152.165-.223.377-.771 1.1-1.361 1.466-.025-.01-.046-.023-.074-.029-.574-.108-1.363-.285-2.043-.604-.383-.671-.588-1.721-1.077-2.348zm1.513 7.607c.033-.111.039-.233.003-.345.542-.146 1.031-.343 1.482-.607-.438.288-.811.664-1.116 1.083-.105-.096-.232-.148-.369-.131zm4.041 7.008c-.843.052-1.697.265-2.484.064-.233-.226-.482-.427-.742-.616.139-.851-.129-1.677-.228-2.496.01-.014.019-.027.028-.04.023-.01.047-.018.07-.035.25-.188.48-.392.709-.599.232-.09.469-.17.706-.244.729.009 1.454.1 2.185.141.18.25.36.501.531.755-.002.02-.009.036-.008.057.027.524.063.822.143 1.342.01.065.033.119.06.166-.37.476-.697.96-.97 1.505zm.925-8.167c-.058-.216-.272-.405-.49-.389-.258.021-.482.085-.692.17-.091-.155-.254-.271-.433-.254-.567.054-1.119.245-1.619.53.151-.103.3-.212.441-.335.073-.001.147-.015.22-.056.485-.275 1.029-.583 1.507-.951.14.195.295.38.435.563.197.261.508.279.715.14.149.406.341.779.576 1.094-.231-.146-.45-.318-.66-.512z" fill="#005b25"/><path d="m73.355 90.776c-.518 1.056-1.333 2.201-2.658 1.592-1.057-.485-1.387-2.737-.221-3.283.584-.273.076-1.135-.504-.863-1.711.802-1.442 3.575-.257 4.681 1.733 1.618 3.691.036 4.503-1.622.283-.577-.579-1.084-.863-.505z" fill="#007018"/><path d="m71.256 60.265c-.085-.034-.179-.054-.289-.032-.795.157-1.411.839-1.976 1.372-.253.239-.516.475-.783.707-.593.421-1.192.833-1.791 1.242-.03-.026-.058-.055-.102-.071-.938-.358-1.804-.879-2.709-1.314-.035-.149-.136-.287-.333-.353-.219-.072-.424-.169-.628-.27-.021-.123-.095-.235-.253-.305-.154-.067-.303-.111-.455-.144.314-.265.222-.9-.297-.883-.416.015-.854.339-1.249.697-.256-.012-.5.223-.521.497-.102.1-.199.194-.286.27-.289.251-.587.479-.888.705-.126-.059-.275-.067-.434.024-.78.456-1.591.815-2.243 1.444-.014-.134-.074-.265-.211-.361-.569-.401-1.112-.995-1.806-1.18-.498-.315-.99-.641-1.475-.979-.02-.016-.03-.035-.053-.049-.061-.037-.121-.073-.183-.109.222-.325-.039-.9-.535-.775-.225.057-.44.135-.656.214-.317-.295-.852-.028-.84.362-1.585.79-2.999 2.004-4.64 2.633-.203-.132-.422-.244-.643-.352.21-.154.219-.486.058-.707.165.103.335.203.518.307.234.133.487.038.636-.137.047.061.088.127.138.184.423.488 1.127-.222.707-.707-1.95-2.255-1.046-8.119.771-10.88.457-.268.908-.547 1.372-.805.475-.264.955-.518 1.427-.786.133-.07.259-.149.378-.239.032-.023.067-.042.102-.06.584.498 1.266.861 1.951 1.198.381.187.733.417 1.09.645.428.271 1.18.58 1.479.991.144.197.358.244.549.201.076.003.156-.007.238-.043.771-.339 1.433-.935 2.167-1.354.81-.461 1.588-.966 2.373-1.462.481.339 1.081.574 1.576.788.474.204.864.423 1.297.694.43.271 1.038.304 1.44.63.106.086.222.113.333.112.173.202.476.286.707.034.203-.221.378-.463.591-.675.197-.197.4-.348.571-.573.392-.513-.479-1.01-.863-.504-.136.179-.347.303-.506.461-.104.104-.194.22-.286.335-.594-.407-1.336-.568-1.932-.979-.427-.295-.976-.447-1.44-.668-.189-.09-.48-.209-.738-.351.026-.33-.284-.672-.647-.525-.165-.091-.361-.074-.514.014-.039.02-.063.05-.095.077-.021.02-.042.036-.06.059-.02.027-.035.054-.049.086-.032.067-.051.14-.042.22-.621.396-1.239.796-1.877 1.168-.23.135-.46.284-.688.437-.098-.165-.277-.263-.516-.166-.528.215-1.048.45-1.567.688-.01.005-.02.004-.03.009-.006.003.143-.114.137-.112-.401-.27-.99-.383-1.379-.63-.855-.544-1.85-.891-2.621-1.562-.019-.174-.127-.329-.356-.372-.298-.056-.627.092-.943.286.027-.096.021-.201-.014-.299.35-.354.054-.92-.415-.836-.517-2.686.813-5.866 2.1-8.498 1.215-1.186 2.564-2.309 4.001-3.232.819.445 1.59.942 2.39 1.451.527.335 1.025.747 1.519 1.131.459.358 1.196.792 1.528 1.273.363.527 1.23.028.863-.504-.659-.957-1.862-1.647-2.792-2.329-.848-.621-1.718-1.208-2.632-1.717.115-.374-.28-.849-.718-.593-.064.038-.125.086-.189.124-.026-.013-.052-.027-.078-.04-.438-.207-.833.235-.748.582-.742.501-1.469 1.036-2.16 1.618-.092-.398-.672-.624-.9-.167-.212.425-.438.871-.666 1.332-.184-.137-.443-.163-.631.046-.998 1.111-1.923 2.442-2.619 3.844-.066.115-.134.23-.198.345-.192.305-.362.623-.538.938-.103.009-.204.042-.29.123-1.244 1.179-1.822 2.524-2.792 3.869-.107.149-.073.353 0 .505.009.019.016.029.024.047-.236.158-.354.486-.087.744.209.201.392.424.577.644-.047.161-.027.342.11.481.474.483.481.482 1.061.85.296.188.58.017.688-.237.249-.005.5-.047.757-.102-.169.182-.332.38-.488.599-.122.072-.245.144-.368.214-.213-.085-.48-.043-.623.196-.013.021-.022.046-.035.067-.114-.134-.22-.274-.327-.414.136-.335-.224-.683-.557-.645-.421-.245-1.053.192-.706.642.007.009.014.019.021.027-.388.506-.726 1.016-1.031 1.539-.529.811-1.013 1.646-1.466 2.499-.09.016-.18.057-.258.142-1.113 1.206-1.909 2.654-2.559 4.156-.28.252-.524.54-.728.883-.238.401.15.813.564.734h.149c.107.068.241.105.392.083.181-.028.361-.056.542-.083.337-.052.428-.45.298-.721.031-.065.063-.13.094-.196.094.006.188-.013.269-.077.101.199.252.406.479.615.049.045.103.077.157.101.091.221.222.428.426.649.126.137.288.153.438.118.064.152.138.294.22.428-.228-.145-.458-.285-.712-.342-.137-.03-.248-.002-.345.049.093-.456-.423-.929-.809-.503-.695.768-1.35 1.672-1.504 2.721-.009.061-.001.114.009.168-1.059 1.437-2.17 3.029-3.072 4.687l-.003.003c-.847.882-1.515 1.963-2.62 2.552-.447.237-.233.932.252.932h.197c.061.086.147.149.25.181.189.085.428.059.578-.084.041.023.084.046.136.056.154.228.494.347.776.118.08-.065.154-.137.232-.203.028.003.048.02.08.017.75-.075 1.449.115 2.166.277.123.094.247.187.374.279.181.132.355.108.489.014.021.398.062.795.155 1.188.151.627 1.115.361.965-.266-.457-1.9.95-8.485 3.535-9.8.484.383 1.082.586 1.583.946.042.053.101.087.161.115-.081.058-.163.114-.238.176-.411.334-.609.922-.745 1.413-.267.961.14 1.838.834 2.48.565.523 1.354.979 2.131 1.057.912.091 1.345-.341 1.813-1.045.358-.538-.509-1.039-.863-.504-.343.516-.566.651-1.189.478-.554-.154-1.057-.548-1.449-.951-.588-.604-.365-1.663.178-2.221.445-.459.991-.636 1.324-1.219.072-.126.078-.247.05-.355 1.228-.694 2.385-1.579 3.657-2.155.47.388 1.055.658 1.569.959.563.331 1.084.773 1.62 1.148.21.146.471.288.718.442-1.445.808-2.338 2.211-1.653 3.884.662 1.617 2.528 2.582 4.109 1.632.553-.332.05-1.196-.504-.863-1.186.712-2.309-.224-2.761-1.327-.497-1.215.594-2.129 1.557-2.602.051-.025.083-.059.118-.092.158.026.313-.054.422-.18.067.026.14.042.218.036.104.144.272.233.497.162 1.03-.325 1.995-1.348 2.815-2.009.307-.247.602-.508.897-.766.563.402 1.259.644 1.886.891 1.196.472 2.528.865 3.642 1.499.066.038.133.058.196.065.117.042.252.044.392-.023.791-.379 1.467-.924 2.129-1.49.364-.26.73-.517 1.084-.788.576-.442 1.232-.758 1.824-1.169.178-.018.343-.124.401-.352.007-.026.013-.052.02-.078.129-.505-.429-.769-.804-.504zm-27.363 2.136c-.028-.143-.11-.274-.24-.356.08-.089.159-.179.238-.268.022-.025.029-.052.046-.078.259.264.542.479.849.683-.037-.011-.059-.038-.102-.042-.281-.023-.543.002-.791.061z" fill="#005b25"/><path d="m56.684 44.55c-.826.808-2.213.327-2.715-.569-.415-.741-.233-2.011.528-2.438.563-.314.059-1.179-.504-.863-1.33.744-1.453 2.533-.888 3.806.695 1.566 3.091 1.938 4.285.771.463-.451-.245-1.158-.706-.707z" fill="#007018"/><path d="m52.159 56.188c-.064.328-.075.66-.133.988-.112.648-.996.653-1.491.691-1.235.095-1.796-1.37-1.453-2.373.053-.152.031-.283-.033-.385-.036.071-.086.139-.166.193-.309.212-.743.627-.887 1.056.104 1.194.863 2.434 2.118 2.511.716.045 1.554-.053 2.175-.43.746-.451.688-1.246.835-1.986.124-.63-.84-.898-.965-.265z" fill="#007018"/><path d="m67.033 58.271c-.207.984-1.47 1.046-2.213.691-1.08-.517-1.135-1.817-.602-2.744.322-.56-.542-1.063-.863-.504-.841 1.46-.541 3.237.96 4.111 1.259.732 3.352.283 3.683-1.289.132-.629-.832-.896-.965-.265z" fill="#007018"/><path d="m73.625 59.744c-.026-.034-.058-.063-.085-.097.003-.002.005-.003.007-.005-2.188-2.533-3.446-5.662-5.234-8.461-.133-.209-.343-.261-.531-.217-.063-.201-.12-.401-.168-.602-.149-.627-1.114-.361-.965.266.434 1.82 1.461 3.544 2.156 5.281.457 1.139.981 2.229 1.506 3.326-1.17.925-2.623 1.429-3.838 2.297-.521.371-.021 1.239.504.863 1.193-.852 2.58-1.38 3.758-2.236.067.155.204.276.428.273h.031c.275-.005.438-.199.471-.428.02.022.029.038.051.063.244.28.625.144.779-.124.078.087.159.171.232.263.039.047.073.097.113.143.368.427 1.133-.155.785-.605z" fill="#2ad621"/><path d="m76.457 68.096c-1.524-1.901-3.369-4.033-4.457-6.227-.108-.219-.294-.284-.47-.249-.108-.231-.226-.462-.323-.694-.246-.585-1.215-.328-.965.266.762 1.809 1.845 3.509 2.76 5.249.631 1.2 1.276 2.401 1.967 3.574-.539.642-1.253 1.087-1.91 1.597-.834.647-1.583 1.427-2.344 2.156-.467.447.242 1.153.707.707.767-.734 1.535-1.467 2.344-2.156.541-.461 1.135-.824 1.639-1.315-.074.287.063.628.445.618.037-.001.069.005.105.005.041.061.078.124.119.185.25.364.708.286.888-.083.489.095.962.236 1.474.376.375.102.706-.248.615-.615-.307-1.238-1.817-2.425-2.594-3.394z" fill="#2ad621"/><path d="m83.602 82.346c-.087-.055-.179-.095-.269-.141-.102-.1-.203-.199-.299-.304-.37-.461-.724-.923-1.07-1.388-1.063-1.604-1.861-3.419-3.136-4.871-.063-.071-.132-.11-.201-.135-.188-.308-.375-.612-.561-.925-.02-.055-.041-.108-.082-.159-.042-.052-.083-.104-.125-.156-.055-.068-.119-.107-.186-.132-.048-.1-.094-.199-.143-.298-.283-.58-1.146-.072-.863.504.718 1.468 1.417 2.944 2.138 4.411.511 1.039 1.147 2.073 1.714 3.121-.724.475-1.445.947-2.149 1.455-.532.384-1.093.732-1.645 1.091-.059-.076-.144-.138-.274-.156-1.273-.183-2.275-1.109-3.531-1.375-.629-.133-.896.831-.266.965 1.112.234 2.023.988 3.109 1.284-.233.417.201 1.035.65.696.687-.519 1.465-.938 2.172-1.438.789-.557 1.58-1.101 2.382-1.633.128.267.261.533.368.803.235.592 1.203.334.965-.266-.035-.09-.082-.178-.121-.267.077.02.156.034.233.054.236.075.471.153.71.234.199.067.379-.017.496-.157.268-.185.342-.592-.016-.817z" fill="#2ad621"/><path d="m87.173 93.854c.011-.103.002-.206-.048-.298-.093-.173-.197-.333-.303-.492-.019-.08-.051-.159-.119-.234-.076-.084-.153-.167-.229-.251-.362-.465-.762-.897-1.177-1.343-.047-.051-.101-.086-.156-.109-.649-.718-1.277-1.45-1.828-2.241-.279-.529-.573-1.046-.906-1.517-.118-.168-.278-.228-.432-.225-.426-.746-.813-1.519-.955-2.281-.055-.293-.291-.387-.517-.347-.038-.63-1.023-.631-.997.011.061 1.468.972 2.704 1.514 4.031.828 2.027 1.897 3.935 2.773 5.939.163.373.566.305.777.057.725.335 1.59.339 2.35.08.326-.112.469-.503.253-.78z" fill="#2ad621"/><path d="m68.051 48.176c-.51-1.513-1.861-2.882-2.738-4.213-1.176-1.787-2.734-3.82-3.48-5.818-.224-.599-1.19-.34-.965.266.605 1.619 1.74 2.98 2.594 4.476.554.968 1.197 1.881 1.785 2.827.271.438.716.964 1.109 1.492-.449.423-.902.843-1.361 1.255-.836-.369-1.705-.668-2.574-.946-.537-.171-.895.66-.385.914.041.021.083.042.125.063.058.028.113.038.168.046.639.205 1.273.421 1.893.674-.187.418.229.987.662.655.094-.071.175-.156.266-.23.357.181.708.377 1.043.605.534.364 1.033-.502.504-.863-.04-.027-.084-.048-.124-.074.013-.013.026-.024.039-.037.235-.179.436-.4.583-.638.318.349 1.036.083.856-.454z" fill="#2ad621"/><path d="m61.247 36.013c-3.319-1.576-7.196-5.833-6.332-9.873.134-.629-.83-.896-.965-.266-.078.364-.111.729-.126 1.095-.07.075-.126.166-.142.287-.009.073-.009.145-.016.216-.304-.097-.594-.11-.949-.015-.693-.164-1.281-.246-2.024-.2-.713.043-1.46-.325-2.219-.292-.391.018-.607.408-.432.752.389.762 1.061 1.073 1.81 1.438 1.057.515 1.989 1.873 3.169 2.131-.386 1.38-1.095 2.627-1.467 4.004-.047.176-.007.315.074.419-.101.147-.199.296-.3.444-.429.5.205 1.096.707.707 1.106-.856 2.223-2.192 3.461-2.839.134-.07.205-.168.234-.273.19-.118.37-.259.544-.427 1.272 1.539 2.883 2.803 4.468 3.555.58.275 1.088-.587.505-.863z" fill="#af8015"/><path d="m61.35 98.893c.29-.068.545-.391.369-.742-.358-.717-1.113-1.052-1.953-1.217-.271-.227-.559-.417-.858-.527.043-.227-.044-.471-.331-.549-.551-.148-1.115-.205-1.682-.21.009-.088-.003-.182-.051-.278-.004-.008-.007-.015-.011-.022-.095-.191-.364-.296-.564-.229-.519.172-.982.462-1.435.773-.844.202-1.665.514-2.441.896-.287.129-.579.244-.895.289-.235.033-.342.213-.353.408-.077.048-.159.093-.235.143-.37.242-.299.774.119.914.063.021.125.041.188.063.044.015.082.014.12.014-.119.119-.239.238-.341.369-.112.144-.128.303-.093.448-.084.496.64.862.909.345.081-.155.188-.29.288-.431.013-.012.027-.016.04-.03.172-.198.393-.363.63-.515 2.318-1.356 6.517-1.251 7.897.819.355.534 1.223.034.863-.504-.052-.082-.121-.151-.18-.227z" fill="#422817"/><path d="m78.226 43.925c0-.265 0-.53 0-.795 0-.645-1-.645-1 0v.34c0 .645 1 .645 1 0 0-.265 0-.53 0-.795 0-.645-1-.645-1 0v.795c0 .645 1 .645 1 0 0-.113 0-.227 0-.34 0-.645-1-.645-1 0v.795c0 .645 1 .645 1 0z" fill="#eae134"/><path d="m77.706 41.237c.645 0 .645-1 0-1s-.644 1 0 1z" fill="#eae134"/><path d="m79.361 41.133h1.219c.645 0 .645-1 0-1-.406 0-.813 0-1.219 0-.644 0-.644 1 0 1z" fill="#eae134"/><path d="m78.299 38.82c0-.354 0-.708 0-1.063 0-.645-1-.645-1 0v1.063c0 .645 1 .645 1 0z" fill="#eae134"/><path d="m76.08 40.289c-.448 0-.896 0-1.344 0-.645 0-.645 1 0 1h1.344c.645 0 .645-1 0-1z" fill="#eae134"/><path d="m92.578 46.943c0-.265 0-.53 0-.795 0-.645-1-.645-1 0v.34c0 .645 1 .645 1 0 0-.265 0-.53 0-.795 0-.645-1-.645-1 0v.795c0 .645 1 .645 1 0 0-.113 0-.227 0-.34 0-.645-1-.645-1 0v.795c0 .645 1 .645 1 0z" fill="#eae134"/><path d="m92.059 44.256c.645 0 .645-1 0-1s-.645 1 0 1z" fill="#eae134"/><path d="m93.714 44.151h1.219c.645 0 .645-1 0-1-.406 0-.813 0-1.219 0-.645 0-.645 1 0 1z" fill="#eae134"/><path d="m92.651 41.839c0-.354 0-.708 0-1.063 0-.645-1-.645-1 0v1.063c0 .645 1 .645 1 0z" fill="#eae134"/><path d="m90.433 43.308c-.448 0-.896 0-1.344 0-.645 0-.645 1 0 1h1.344c.644 0 .644-1 0-1z" fill="#eae134"/><path d="m82.994 58.11c0-.265 0-.53 0-.795 0-.645-1-.645-1 0v.34c0 .645 1 .645 1 0 0-.265 0-.53 0-.795 0-.645-1-.645-1 0v.795c0 .645 1 .645 1 0 0-.113 0-.227 0-.34 0-.645-1-.645-1 0v.795c0 .645 1 .645 1 0z" fill="#eae134"/><path d="m82.475 55.423c.645 0 .645-1 0-1s-.645 1 0 1z" fill="#eae134"/><path d="m84.13 55.318h1.219c.645 0 .645-1 0-1-.406 0-.813 0-1.219 0-.645 0-.645 1 0 1z" fill="#eae134"/><path d="m83.067 53.006c0-.354 0-.708 0-1.063 0-.645-1-.645-1 0v1.063c0 .645 1 .645 1 0z" fill="#eae134"/><path d="m80.849 54.475c-.448 0-.896 0-1.344 0-.645 0-.645 1 0 1h1.344c.644 0 .644-1 0-1z" fill="#eae134"/><path d="m94.412 63.944c0-.265 0-.53 0-.795 0-.645-1-.645-1 0v.34c0 .645 1 .645 1 0 0-.265 0-.53 0-.795 0-.645-1-.645-1 0v.795c0 .645 1 .645 1 0 0-.113 0-.227 0-.34 0-.645-1-.645-1 0v.795c0 .645 1 .645 1 0z" fill="#eae134"/><path d="m93.893 61.257c.645 0 .645-1 0-1s-.645 1 0 1z" fill="#eae134"/><path d="m95.548 61.152h1.219c.645 0 .645-1 0-1-.406 0-.813 0-1.219 0-.645 0-.645 1 0 1z" fill="#eae134"/><path d="m94.485 58.84c0-.354 0-.708 0-1.063 0-.645-1-.645-1 0v1.063c0 .645 1 .645 1 0z" fill="#eae134"/><path d="m92.267 60.309c-.448 0-.896 0-1.344 0-.645 0-.645 1 0 1h1.344c.644 0 .644-1 0-1z" fill="#eae134"/><path d="m87.912 73.86c0-.266 0-.53 0-.795 0-.646-1-.646-1 0v.34c0 .645 1 .645 1 0 0-.266 0-.529 0-.795 0-.645-1-.645-1 0v.795c0 .645 1 .645 1 0 0-.113 0-.227 0-.34 0-.646-1-.646-1 0v.795c0 .645 1 .645 1 0z" fill="#eae134"/><path d="m87.393 71.173c.645 0 .645-1 0-1s-.645 1 0 1z" fill="#eae134"/><path d="m89.048 71.068h1.219c.645 0 .645-1 0-1-.406 0-.813 0-1.219 0-.645 0-.645 1 0 1z" fill="#eae134"/><path d="m87.985 68.756c0-.354 0-.708 0-1.063 0-.646-1-.646-1 0v1.063c0 .645 1 .645 1 0z" fill="#eae134"/><path d="m85.767 70.225c-.448 0-.896 0-1.344 0-.645 0-.645 1 0 1h1.344c.644 0 .644-1 0-1z" fill="#eae134"/><path d="m93.495 85.693c0-.266 0-.53 0-.796 0-.645-1-.645-1 0v.341c0 .645 1 .645 1 0 0-.265 0-.53 0-.795 0-.645-1-.645-1 0v.795c0 .645 1 .645 1 0 0-.113 0-.227 0-.341 0-.645-1-.645-1 0v.796c0 .645 1 .645 1 0z" fill="#eae134"/><path d="m92.976 83.006c.645 0 .645-1 0-1s-.645 1 0 1z" fill="#eae134"/><path d="m94.631 82.901h1.219c.645 0 .645-1 0-1-.406 0-.813 0-1.219 0-.645 0-.645 1 0 1z" fill="#eae134"/><path d="m93.568 80.589c0-.354 0-.708 0-1.063 0-.645-1-.645-1 0v1.063c0 .644 1 .644 1 0z" fill="#eae134"/><path d="m91.35 82.058c-.448 0-.896 0-1.344 0-.645 0-.645 1 0 1h1.344c.644 0 .644-1 0-1z" fill="#eae134"/><path d="m26.244 74.944c0-.266 0-.53 0-.795 0-.646-1-.646-1 0v.34c0 .645 1 .645 1 0 0-.266 0-.529 0-.795 0-.645-1-.645-1 0v.795c0 .645 1 .645 1 0 0-.113 0-.227 0-.34 0-.646-1-.646-1 0v.795c0 .645 1 .645 1 0z" fill="#eae134"/><path d="m25.725 72.257c.645 0 .645-1 0-1s-.645 1 0 1z" fill="#eae134"/><path d="m27.38 72.152h1.219c.645 0 .645-1 0-1-.406 0-.813 0-1.219 0-.645 0-.645 1 0 1z" fill="#eae134"/><path d="m26.317 69.84c0-.354 0-.708 0-1.063 0-.646-1-.646-1 0v1.063c0 .645 1 .645 1 0z" fill="#eae134"/><path d="m24.099 71.309c-.448 0-.896 0-1.344 0-.645 0-.645 1 0 1h1.344c.645 0 .645-1 0-1z" fill="#eae134"/><path d="m20.411 86.778c0-.265 0-.53 0-.796 0-.645-1-.645-1 0v.341c0 .645 1 .645 1 0 0-.265 0-.53 0-.795 0-.645-1-.645-1 0v.795c0 .645 1 .645 1 0 0-.113 0-.227 0-.341 0-.645-1-.645-1 0v.796c0 .645 1 .645 1 0z" fill="#eae134"/><path d="m19.892 84.091c.645 0 .645-1 0-1s-.645 1 0 1z" fill="#eae134"/><path d="m21.547 83.986h1.219c.645 0 .645-1 0-1-.406 0-.813 0-1.219 0-.645 0-.645 1 0 1z" fill="#eae134"/><path d="m20.484 81.674c0-.354 0-.708 0-1.063 0-.645-1-.645-1 0v1.063c0 .644 1 .644 1 0z" fill="#eae134"/><path d="m18.266 83.143c-.448 0-.896 0-1.344 0-.645 0-.645 1 0 1h1.344c.645 0 .645-1 0-1z" fill="#eae134"/><path d="m19.079 65.694c0-.266 0-.53 0-.796 0-.645-1-.645-1 0v.341c0 .645 1 .645 1 0 0-.265 0-.53 0-.795 0-.645-1-.645-1 0v.795c0 .645 1 .645 1 0 0-.113 0-.228 0-.341 0-.645-1-.645-1 0v.796c0 .645 1 .645 1 0z" fill="#eae134"/><path d="m18.56 63.007c.645 0 .645-1 0-1s-.645 1 0 1z" fill="#eae134"/><path d="m20.215 62.902h1.219c.645 0 .645-1 0-1-.406 0-.813 0-1.219 0-.645 0-.645 1 0 1z" fill="#eae134"/><path d="m19.152 60.59c0-.354 0-.708 0-1.063 0-.645-1-.645-1 0v1.063c0 .645 1 .645 1 0z" fill="#eae134"/><path d="m16.934 62.059c-.448 0-.896 0-1.344 0-.645 0-.645 1 0 1h1.344c.645 0 .645-1 0-1z" fill="#eae134"/><path d="m31.827 55.61c0-.265 0-.53 0-.795 0-.645-1-.645-1 0v.34c0 .645 1 .645 1 0 0-.265 0-.53 0-.795 0-.645-1-.645-1 0v.795c0 .645 1 .645 1 0 0-.113 0-.227 0-.34 0-.645-1-.645-1 0v.795c0 .645 1 .645 1 0z" fill="#eae134"/><path d="m31.308 52.923c.645 0 .645-1 0-1s-.645 1 0 1z" fill="#eae134"/><path d="m32.963 52.818h1.219c.645 0 .645-1 0-1-.406 0-.813 0-1.219 0-.645 0-.645 1 0 1z" fill="#eae134"/><path d="m31.9 50.506c0-.354 0-.708 0-1.063 0-.645-1-.645-1 0v1.063c0 .645 1 .645 1 0z" fill="#eae134"/><path d="m29.682 51.975c-.448 0-.896 0-1.344 0-.645 0-.645 1 0 1h1.344c.645 0 .645-1 0-1z" fill="#eae134"/><path d="m22.745 46.36c0-.265 0-.53 0-.795 0-.645-1-.645-1 0v.34c0 .645 1 .645 1 0 0-.265 0-.53 0-.795 0-.645-1-.645-1 0v.795c0 .645 1 .645 1 0 0-.113 0-.227 0-.34 0-.645-1-.645-1 0v.795c0 .645 1 .645 1 0z" fill="#eae134"/><path d="m22.226 43.673c.645 0 .645-1 0-1s-.645 1 0 1z" fill="#eae134"/><path d="m23.881 43.568h1.219c.645 0 .645-1 0-1-.406 0-.813 0-1.219 0-.645 0-.645 1 0 1z" fill="#eae134"/><path d="m22.818 41.256c0-.354 0-.708 0-1.063 0-.645-1-.645-1 0v1.063c0 .645 1 .645 1 0z" fill="#eae134"/><path d="m20.6 42.725c-.448 0-.896 0-1.344 0-.645 0-.645 1 0 1h1.344c.645 0 .645-1 0-1z" fill="#eae134"/><path d="m39.495 41.277c0-.265 0-.53 0-.795 0-.645-1-.645-1 0v.34c0 .645 1 .645 1 0 0-.265 0-.53 0-.795 0-.645-1-.645-1 0v.795c0 .645 1 .645 1 0 0-.113 0-.227 0-.34 0-.645-1-.645-1 0v.795c0 .645 1 .645 1 0z" fill="#eae134"/><path d="m38.976 38.59c.645 0 .645-1 0-1s-.645 1 0 1z" fill="#eae134"/><path d="m40.631 38.485h1.219c.645 0 .645-1 0-1-.406 0-.813 0-1.219 0-.645 0-.645 1 0 1z" fill="#eae134"/><path d="m39.568 36.173c0-.354 0-.708 0-1.063 0-.645-1-.645-1 0v1.063c0 .645 1 .645 1 0z" fill="#eae134"/><path d="m37.35 37.642c-.448 0-.896 0-1.344 0-.645 0-.645 1 0 1h1.344c.645 0 .645-1 0-1z" fill="#eae134"/><path d="m56.225 20.368 2.196 6.761h7.108l-5.75 4.179 2.197 6.759-5.751-4.177-5.751 4.177 2.196-6.759-5.75-4.179h7.108z" fill="none" stroke="#1b1b1b" stroke-miterlimit="10"/><g fill="#1b1b1b"><path d="m60.585 36.925c2.486 3.695 4.972 7.39 7.458 11.084.357.532 1.225.032.863-.504-2.486-3.695-4.972-7.39-7.458-11.084-.357-.532-1.224-.032-.863.504z"/><path d="m68.246 47.633c-.861.861-1.722 1.722-2.583 2.583-.456.456.251 1.163.707.707.861-.861 1.722-1.722 2.583-2.583.456-.456-.251-1.163-.707-.707z"/><path d="m66.116 50.159c-1.705-.758-3.412-1.515-5.118-2.271-.584-.259-1.093.603-.504.863 1.705.758 3.412 1.514 5.118 2.271.583.26 1.093-.601.504-.863z"/><path d="m56.685 50.979c1.988-1.032 3.977-2.063 5.965-3.095.573-.297.067-1.16-.504-.863-1.989 1.031-3.978 2.063-5.965 3.095-.574.297-.068 1.16.504.863z"/><path d="m66.647 49.737c2.486 3.653 4.972 7.307 7.458 10.959.36.53 1.228.03.863-.504-2.486-3.653-4.972-7.307-7.458-10.959-.36-.53-1.227-.03-.863.504z"/><path d="m74.662 60.174c-1.344.003-2.688.007-4.031.01-.645.001-.645 1.001 0 1 1.344-.003 2.688-.007 4.031-.01.645-.001.645-1.001 0-1z"/><path d="m66.675 63.626c1.75-1.051 3.5-2.101 5.25-3.15.553-.331.05-1.196-.504-.863-1.751 1.05-3.501 2.1-5.25 3.15-.553.331-.05 1.196.504.863z"/><path d="m66.477 62.689c-1.527-.841-3.055-1.681-4.583-2.521-.565-.312-1.069.553-.504.863 1.527.84 3.056 1.68 4.583 2.521.564.312 1.069-.552.504-.863z"/><path d="m56.508 63.834c1.844-1.278 3.688-2.555 5.531-3.833.526-.364.027-1.232-.504-.863-1.844 1.278-3.688 2.555-5.531 3.833-.526.364-.027 1.231.504.863z"/><path d="m71.48 61.279c2.486 3.695 4.972 7.39 7.458 11.084.357.532 1.225.032.863-.504-2.486-3.695-4.972-7.39-7.458-11.084-.357-.532-1.224-.032-.863.504z"/><path d="m79.495 71.841c-1.632.003-3.264.007-4.896.01-.645.001-.645 1.001 0 1 1.632-.003 3.264-.007 4.896-.01.645-.001.645-1.001 0-1z"/><path d="m71.609 75.215c1.405-1.153 2.813-2.306 4.219-3.459.499-.409-.213-1.112-.707-.707-1.406 1.153-2.813 2.306-4.219 3.459-.499.409.213 1.112.707.707z"/><path d="m71.31 74.356c-1.735-.831-3.472-1.66-5.208-2.489-.578-.276-1.086.586-.504.863 1.735.83 3.472 1.659 5.208 2.489.578.278 1.086-.584.504-.863z"/><path d="m60.789 76.146c2.125-1.519 4.298-2.97 6.411-4.505.517-.375.019-1.243-.504-.863-2.114 1.535-4.287 2.985-6.411 4.505-.519.371-.021 1.239.504.863z"/><path d="m76.834 72.8c2.424 3.591 4.847 7.182 7.271 10.771.358.531 1.226.032.863-.504-2.424-3.591-4.847-7.182-7.271-10.771-.358-.531-1.225-.032-.863.504z"/><path d="m84.661 83.049c-1.344.003-2.688.007-4.031.01-.645.001-.645 1.001 0 1 1.344-.003 2.688-.007 4.031-.01.645-.001.645-1.001 0-1z"/><path d="m76.674 86.501c1.331-.799 2.662-1.598 3.993-2.396.553-.331.05-1.196-.504-.863-1.331.799-2.663 1.597-3.993 2.396-.553.331-.05 1.196.504.863z"/><path d="m76.476 85.564c-1.526-.841-3.055-1.681-4.583-2.521-.564-.312-1.069.553-.504.863 1.527.84 3.056 1.68 4.583 2.521.564.312 1.069-.552.504-.863z"/><path d="m67.632 86.501c1.804-1.083 3.608-2.165 5.411-3.248.553-.331.05-1.196-.504-.863-1.804 1.083-3.607 2.165-5.411 3.248-.553.331-.05 1.196.504.863z"/><path d="m67.434 85.564c-2.172-.991-4.346-1.979-6.52-2.969-.582-.266-1.091.597-.504.863 2.173.99 4.347 1.978 6.52 2.969.582.266 1.09-.595.504-.863z"/><path d="m79.854 83.862c2.486 3.695 4.972 7.39 7.458 11.084.357.532 1.225.032.863-.504-2.486-3.695-4.972-7.39-7.458-11.084-.357-.532-1.224-.032-.863.504z"/><path d="m87.869 94.424c-1.344.003-2.688.007-4.031.01-.645.001-.645 1.001 0 1 1.344-.003 2.688-.007 4.031-.01.645-.001.645-1.001 0-1z"/><path d="m79.882 97.876c1.331-.799 2.662-1.598 3.993-2.396.553-.331.05-1.196-.504-.863-1.332.799-2.663 1.597-3.993 2.396-.553.331-.05 1.196.504.863z"/><path d="m79.684 96.939c-1.527-.841-3.055-1.681-4.583-2.521-.565-.312-1.069.553-.504.863 1.527.84 3.056 1.68 4.583 2.521.564.312 1.069-.552.504-.863z"/><path d="m70.652 98.001c2.196-1.318 4.394-2.637 6.59-3.954.553-.331.05-1.196-.504-.863-2.197 1.317-4.395 2.635-6.59 3.954-.552.331-.049 1.196.504.863z"/><path d="m70.454 97.064c-1.43-.803-2.859-1.604-4.29-2.406-.563-.315-1.066.548-.504.863l4.29 2.406c.563.317 1.067-.547.504-.863z"/><path d="m61.777 98.001c2.143-1.287 4.287-2.573 6.43-3.859.553-.331.05-1.196-.504-.863-2.144 1.286-4.287 2.572-6.43 3.859-.552.331-.049 1.196.504.863z"/><path d="m61.579 97.064c-1.814-.824-3.631-1.646-5.446-2.469-.582-.265-1.091.598-.504.863 1.814.823 3.631 1.646 5.446 2.469.582.265 1.091-.597.504-.863z"/><path d="m61.755 97.81v16.69l-.63.359-.17.101-.2.12v-17.27c0-.01 0-.01 0-.02.01-.23.149-.38.319-.44h.011c.27-.09.609.04.659.38.011.02.011.05.011.08z"/><path d="m50.771 36.421c-2.486 3.694-4.972 7.389-7.458 11.084-.361.536.506 1.036.863.504 2.486-3.694 4.972-7.389 7.458-11.084.361-.536-.506-1.036-.863-.504z"/><path d="m43.266 48.34 2.583 2.583c.456.456 1.163-.251.707-.707-.861-.861-1.722-1.722-2.583-2.583-.456-.456-1.163.251-.707.707z"/><path d="m46.606 51.022c1.706-.758 3.413-1.514 5.118-2.271.589-.261.08-1.122-.504-.863-1.706.757-3.413 1.514-5.118 2.271-.588.262-.079 1.123.504.863z"/><path d="m56.497 50.2c-2.14-1.062-4.282-2.12-6.424-3.179-.575-.285-1.082.577-.504.863 2.142 1.06 4.283 2.118 6.424 3.179.575.286 1.082-.577.504-.863z"/><path d="m44.708 49.233c-2.486 3.652-4.972 7.306-7.458 10.959-.364.534.503 1.034.863.504 2.486-3.652 4.972-7.306 7.458-10.959.365-.534-.503-1.034-.863-.504z"/><path d="m37.557 61.174c1.344.003 2.688.007 4.031.01.645.001.645-.999 0-1-1.344-.003-2.688-.007-4.031-.01-.645-.001-.645.999 0 1z"/><path d="m46.048 62.763c-1.749-1.051-3.499-2.101-5.25-3.15-.554-.333-1.057.532-.504.863 1.75 1.05 3.5 2.1 5.25 3.15.554.333 1.057-.532.504-.863z"/><path d="m46.246 63.553c1.645-.917 3.29-1.833 4.934-2.75.563-.314.06-1.178-.504-.863-1.645.917-3.29 1.832-4.934 2.75-.563.314-.059 1.177.504.863z"/><path d="m56.508 62.971c-1.87-1.229-3.742-2.458-5.613-3.688-.54-.355-1.041.511-.504.863 1.87 1.23 3.742 2.458 5.613 3.688.54.355 1.041-.511.504-.863z"/><path d="m39.875 60.775c-2.486 3.694-4.972 7.389-7.458 11.084-.361.536.506 1.036.863.504 2.486-3.694 4.972-7.389 7.458-11.084.362-.536-.506-1.036-.863-.504z"/><path d="m32.724 72.841c1.632.003 3.264.007 4.896.01.645.001.645-.999 0-1-1.632-.003-3.264-.007-4.896-.01-.645-.001-.645.999 0 1z"/><path d="m41.316 74.508c-1.405-1.153-2.813-2.306-4.219-3.459-.494-.405-1.206.298-.707.707 1.406 1.153 2.813 2.306 4.219 3.459.495.405 1.206-.298.707-.707z"/><path d="m41.413 75.22c1.527-.841 3.056-1.681 4.583-2.521.565-.311.061-1.174-.504-.863-1.528.84-3.057 1.68-4.583 2.521-.565.31-.06 1.174.504.863z"/><path d="m50.152 74.43c-1.885-1.311-3.771-2.618-5.656-3.928-.531-.369-1.03.498-.504.863 1.885 1.31 3.771 2.618 5.656 3.928.531.369 1.03-.498.504-.863z"/><path d="m50.351 75.22c1.527-.841 3.056-1.681 4.583-2.521.565-.311.061-1.174-.504-.863-1.528.84-3.057 1.68-4.583 2.521-.566.31-.061 1.174.504.863z"/><path d="m60.664 75.346c-2.057-1.419-4.004-2.989-6.063-4.406-.532-.367-1.031.5-.504.863 2.058 1.417 4.005 2.987 6.063 4.406.532.367 1.031-.5.504-.863z"/><path d="m34.521 72.296c-2.424 3.59-4.847 7.181-7.271 10.771-.362.536.505 1.035.863.504 2.424-3.59 4.847-7.181 7.271-10.771.363-.536-.504-1.035-.863-.504z"/><path d="m27.558 84.049c1.344.003 2.688.007 4.031.01.645.001.645-.999 0-1-1.344-.003-2.688-.007-4.031-.01-.645-.001-.645.999 0 1z"/><path d="m36.049 85.638c-1.33-.8-2.662-1.598-3.993-2.396-.554-.333-1.057.532-.504.863 1.331.799 2.662 1.598 3.993 2.396.554.333 1.057-.532.504-.863z"/><path d="m36.247 86.428c1.527-.841 3.056-1.681 4.583-2.521.565-.311.061-1.175-.504-.863-1.528.84-3.057 1.68-4.583 2.521-.565.31-.06 1.174.504.863z"/><path d="m45.091 85.638c-1.804-1.083-3.607-2.165-5.411-3.248-.554-.333-1.057.532-.504.863 1.803 1.083 3.607 2.165 5.411 3.248.554.333 1.057-.532.504-.863z"/><path d="m45.289 86.428c1.527-.841 3.056-1.681 4.583-2.521.565-.311.062-1.175-.504-.863-1.528.84-3.056 1.68-4.583 2.521-.565.31-.06 1.174.504.863z"/><path d="m54.133 85.638c-1.723-1.035-3.446-2.068-5.17-3.103-.554-.333-1.057.532-.504.863 1.723 1.034 3.446 2.067 5.17 3.103.554.333 1.057-.532.504-.863z"/><path d="m54.331 86.428c2.111-.948 4.223-1.896 6.333-2.844.588-.264.079-1.125-.504-.863-2.111.947-4.223 1.896-6.333 2.844-.588.263-.079 1.124.504.863z"/><path d="m31.501 83.358c-2.486 3.694-4.972 7.389-7.458 11.084-.361.536.506 1.036.863.504 2.486-3.694 4.972-7.389 7.458-11.084.362-.536-.506-1.036-.863-.504z"/><path d="m24.35 95.424c1.344.003 2.688.007 4.031.01.645.001.645-.999 0-1-1.344-.003-2.688-.007-4.031-.01-.645-.001-.645.999 0 1z"/><path d="m32.841 97.013c-1.33-.8-2.661-1.598-3.993-2.396-.554-.333-1.057.532-.504.863 1.331.799 2.662 1.598 3.993 2.396.554.333 1.057-.532.504-.863z"/><path d="m33.039 97.803c1.527-.841 3.056-1.681 4.583-2.521.565-.311.062-1.175-.504-.863-1.528.84-3.056 1.68-4.583 2.521-.565.31-.06 1.174.504.863z"/><path d="m42.07 97.138c-2.195-1.319-4.393-2.637-6.59-3.954-.554-.333-1.057.532-.504.863 2.196 1.317 4.394 2.636 6.59 3.954.554.333 1.057-.532.504-.863z"/><path d="m42.269 97.928c1.527-.841 3.056-1.681 4.583-2.521.565-.311.061-1.175-.504-.863-1.528.84-3.057 1.68-4.583 2.521-.566.31-.061 1.174.504.863z"/><path d="m50.945 97.138c-2.143-1.287-4.286-2.573-6.43-3.859-.554-.333-1.057.532-.504.863 2.143 1.286 4.287 2.572 6.43 3.859.554.333 1.057-.532.504-.863z"/><path d="m51.144 97.928c1.611-.792 3.223-1.583 4.833-2.375.579-.284.072-1.146-.504-.863-1.611.792-3.223 1.583-4.833 2.375-.579.284-.073 1.146.504.863z"/><path d="m51.465 97.77v17.551l-.45-.261-.04-.02-.15-.08-.359-.21v-16.94c0-.029 0-.05.01-.069 0-.011 0-.011 0-.011.05-.34.39-.47.66-.38h.01c.168.06.298.2.319.42z"/></g><circle cx="65.788" cy="57.132" fill="none" r="1.917" stroke="#1b1b1b" stroke-miterlimit="10"/><path d="m66.256 55.184c0-.552 0-1.104 0-1.656 0-.645-1-.645-1 0v1.656c0 .645 1 .645 1 0z" fill="#1b1b1b"/><circle cx="60.663" cy="87.027" fill="none" r="1.917" stroke="#1b1b1b" stroke-miterlimit="10"/><path d="m61.131 85.079c0-.552 0-1.104 0-1.656 0-.645-1-.645-1 0v1.656c0 .645 1 .645 1 0z" fill="#1b1b1b"/><circle cx="71.663" cy="90.152" fill="none" r="1.917" stroke="#1b1b1b" stroke-miterlimit="10"/><path d="m72.131 88.204c0-.552 0-1.104 0-1.656 0-.645-1-.645-1 0v1.656c0 .645 1 .645 1 0z" fill="#1b1b1b"/><circle cx="49.538" cy="87.902" fill="none" r="1.917" stroke="#1b1b1b" stroke-miterlimit="10"/><path d="m50.006 85.954c0-.552 0-1.104 0-1.656 0-.645-1-.645-1 0v1.656c0 .645 1 .645 1 0z" fill="#1b1b1b"/><circle cx="39.163" cy="90.59" fill="none" r="1.917" stroke="#1b1b1b" stroke-miterlimit="10"/><path d="m39.631 88.642c0-.552 0-1.104 0-1.656 0-.645-1-.645-1 0v1.656c0 .644 1 .644 1 0z" fill="#1b1b1b"/><circle cx="53.288" cy="79.902" fill="none" r="1.917" stroke="#1b1b1b" stroke-miterlimit="10"/><path d="m53.756 77.954c0-.552 0-1.104 0-1.656 0-.645-1-.645-1 0v1.656c0 .645 1 .645 1 0z" fill="#1b1b1b"/><circle cx="37.351" cy="78.465" fill="none" r="1.917" stroke="#1b1b1b" stroke-miterlimit="10"/><path d="m37.818 76.517c0-.553 0-1.104 0-1.656 0-.645-1-.645-1 0v1.656c0 .644 1 .644 1 0z" fill="#1b1b1b"/><circle cx="75.476" cy="76.59" fill="none" r="1.917" stroke="#1b1b1b" stroke-miterlimit="10"/><path d="m75.943 74.642c0-.553 0-1.104 0-1.656 0-.645-1-.645-1 0v1.656c0 .644 1 .644 1 0z" fill="#1b1b1b"/><circle cx="47.663" cy="66.652" fill="none" r="1.917" stroke="#1b1b1b" stroke-miterlimit="10"/><path d="m48.131 64.704c0-.552 0-1.104 0-1.656 0-.645-1-.645-1 0v1.656c0 .645 1 .645 1 0z" fill="#1b1b1b"/><circle cx="55.933" cy="42.902" fill="none" r="1.917" stroke="#1b1b1b" stroke-miterlimit="10"/><path d="m56.4 40.954c0-.552 0-1.104 0-1.656 0-.645-1-.645-1 0v1.656c0 .645 1 .645 1 0z" fill="#1b1b1b"/><circle cx="56.163" cy="67.132" fill="none" r="1.917" stroke="#1b1b1b" stroke-miterlimit="10"/><path d="m56.631 65.184c0-.552 0-1.104 0-1.656 0-.645-1-.645-1 0v1.656c0 .645 1 .645 1 0z" fill="#1b1b1b"/><path d="m72.077 67.87.464.914-.353 1.496-.838-.685.147-1.097z" fill="#fff"/><path d="m70.838 67.563c-.097 0-.176-.079-.176-.175v-1.378c0-.097.079-.175.176-.175.096 0 .174.078.174.175v1.379c0 .095-.078.174-.174.174" fill="#15003e"/><path d="m70.577 67.389h.541" fill="#fff"/><path d="m71.118 67.563h-.541c-.097 0-.175-.079-.175-.175 0-.097.078-.175.175-.175h.541c.097 0 .175.078.175.175 0 .096-.078.175-.175.175" fill="#15003e"/><path d="m72.077 67.87.574-.542c-.439-.439-1.047-.712-1.718-.712-1.343 0-2.431 1.088-2.431 2.43 0 1.343 1.088 2.431 2.431 2.431.5 0 .939.183 1.326-.076l.481.066-.015-.781-1.377-1.091.297-1.395z" fill="#fff"/><path d="m70.934 71.715c-1.472 0-2.669-1.197-2.669-2.669 0-1.471 1.197-2.668 2.669-2.668.713 0 1.383.277 1.887.781l.174.174-.754.71-.327-.347.386-.364c-.387-.31-.863-.478-1.365-.478-1.209 0-2.191.983-2.191 2.191 0 1.209.982 2.192 2.191 2.192" fill="#15003e"/><path d="m72.272 70.344-.343-.332c.253-.26.392-.603.392-.966 0-.378-.149-.731-.421-.995l-.179-.174.191-.181.163.173.156-.161c.365.354.565.83.565 1.338.002.487-.185.948-.524 1.298" fill="#0fce7c"/><path d="m70.385 69.046c0-.303.245-.548.549-.548.303 0 .549.245.549.548 0 .304-.246.549-.549.549-.304 0-.549-.245-.549-.549" fill="#eff4ee"/><path d="m70.934 69.833c-.435 0-.787-.353-.787-.787s.353-.787.787-.787.787.354.787.787c0 .434-.354.787-.787.787m0-1.097c-.172 0-.311.139-.311.31s.139.311.311.311c.171 0 .311-.14.311-.311s-.141-.31-.311-.31" fill="#15003e"/><path d="m72.651 67.328-1.386 1.281" fill="#15003e"/><path d="m71.72 67.025h.476v1.888h-.476z" fill="#15003e" transform="matrix(.6789 .7343 -.7343 .6789 73.0138 -31.0093)"/><path d="m71.192 69.53.996.75.539.406v1.029l-1.081-.052" fill="#fff"/><path d="m72.966 71.715h-2.075v-.477h1.597v-.433l-1.439-1.084.287-.381 1.63 1.226z" fill="#15003e"/><path d="m70.01 68.044c-.097 0-.175-.078-.175-.174v-1.86c0-.097.078-.175.175-.175s.175.078.175.175v1.86c0 .096-.079.174-.175.174" fill="#15003e"/><path d="m71.579 66.59c0-.729 0-1.459 0-2.188 0-.322-.5-.322-.5 0v2.188c0 .322.5.322.5 0z" fill="#15003e"/><path d="m52.379 54.519.464.914-.353 1.496-.839-.686.148-1.097z" fill="#fff"/><path d="m51.14 54.212c-.097 0-.176-.079-.176-.175v-1.379c0-.097.079-.175.176-.175.096 0 .174.078.174.175v1.379c-.001.096-.079.175-.174.175" fill="#15003e"/><path d="m50.879 54.037h.541" fill="#fff"/><path d="m51.42 54.212h-.541c-.097 0-.175-.079-.175-.175 0-.097.078-.175.175-.175h.541c.097 0 .175.078.175.175 0 .096-.078.175-.175.175" fill="#15003e"/><path d="m52.379 54.519.574-.542c-.439-.439-1.047-.712-1.718-.712-1.343 0-2.431 1.088-2.431 2.43 0 1.343 1.088 2.431 2.431 2.431.5 0 .939.183 1.326-.076l.481.066-.015-.781-1.377-1.091.297-1.395z" fill="#fff"/><path d="m51.235 58.363c-1.472 0-2.669-1.197-2.669-2.669 0-1.471 1.197-2.668 2.669-2.668.713 0 1.383.277 1.887.781l.174.174-.754.71-.327-.347.386-.364c-.387-.31-.863-.478-1.365-.478-1.209 0-2.191.983-2.191 2.191 0 1.209.982 2.192 2.191 2.192" fill="#15003e"/><path d="m52.574 56.992-.343-.332c.253-.26.392-.603.392-.966 0-.378-.149-.731-.421-.995l-.179-.174.191-.181.163.173.156-.161c.365.354.565.83.565 1.338.002.488-.185.949-.524 1.298" fill="#0fce7c"/><path d="m50.687 55.694c0-.303.245-.548.549-.548.303 0 .549.245.549.548 0 .304-.246.549-.549.549-.304 0-.549-.245-.549-.549" fill="#eff4ee"/><path d="m51.235 56.481c-.435 0-.787-.353-.787-.787s.353-.787.787-.787.787.354.787.787c0 .435-.353.787-.787.787m0-1.096c-.172 0-.311.139-.311.31s.139.311.311.311c.171 0 .311-.14.311-.311s-.14-.31-.311-.31" fill="#15003e"/><path d="m52.953 53.977-1.387 1.281" fill="#15003e"/><path d="m52.022 53.673h.476v1.888h-.476z" fill="#15003e" transform="matrix(.6789 .7343 -.7343 .6789 56.8848 -20.8334)"/><path d="m51.494 56.179.996.75.538.405v1.029l-1.08-.051" fill="#fff"/><path d="m53.268 58.363h-2.076v-.476h1.598v-.434l-1.439-1.084.287-.381 1.63 1.227z" fill="#15003e"/><path d="m50.312 54.692c-.097 0-.175-.078-.175-.174v-1.86c0-.097.078-.175.175-.175s.175.078.175.175v1.86c-.001.096-.079.174-.175.174" fill="#15003e"/><path d="m51.881 53.238c0-.729 0-1.458 0-2.188 0-.322-.5-.322-.5 0v2.188c0 .323.5.323.5 0z" fill="#15003e"/><path d="m67.066 75.394.464.914-.352 1.496-.839-.686.147-1.097z" fill="#fff"/><path d="m65.827 75.087c-.097 0-.176-.079-.176-.175v-1.379c0-.097.079-.175.176-.175.096 0 .174.078.174.175v1.379c0 .096-.078.175-.174.175" fill="#15003e"/><path d="m65.566 74.912h.541" fill="#fff"/><path d="m66.107 75.087h-.541c-.097 0-.175-.079-.175-.175 0-.097.078-.175.175-.175h.541c.097 0 .175.078.175.175 0 .096-.078.175-.175.175" fill="#15003e"/><path d="m67.066 75.394.574-.542c-.439-.439-1.047-.712-1.718-.712-1.343 0-2.431 1.088-2.431 2.43 0 1.343 1.088 2.431 2.431 2.431.5 0 .939.183 1.326-.076l.481.066-.015-.781-1.377-1.091.297-1.395z" fill="#fff"/><path d="m65.923 79.238c-1.472 0-2.669-1.197-2.669-2.669 0-1.471 1.197-2.668 2.669-2.668.713 0 1.383.277 1.887.781l.174.174-.754.71-.327-.347.386-.364c-.387-.31-.863-.478-1.365-.478-1.209 0-2.191.983-2.191 2.191 0 1.209.982 2.192 2.191 2.192" fill="#15003e"/><path d="m67.262 77.867-.343-.332c.253-.26.392-.603.392-.966 0-.378-.149-.731-.421-.995l-.179-.174.191-.181.163.173.156-.161c.365.354.565.83.565 1.338.001.488-.185.949-.524 1.298" fill="#0fce7c"/><path d="m65.374 76.569c0-.303.245-.548.549-.548.303 0 .549.245.549.548 0 .304-.246.549-.549.549-.304 0-.549-.245-.549-.549" fill="#eff4ee"/><path d="m65.923 77.356c-.435 0-.787-.353-.787-.787s.353-.787.787-.787.787.354.787.787c0 .435-.354.787-.787.787m0-1.096c-.172 0-.311.139-.311.31s.139.311.311.311c.171 0 .311-.14.311-.311s-.14-.31-.311-.31" fill="#15003e"/><path d="m67.641 74.852-1.387 1.281" fill="#15003e"/><path d="m66.71 74.548h.476v1.888h-.476z" fill="#15003e" transform="matrix(.6789 .7343 -.7343 .6789 76.9289 -24.9142)"/><path d="m66.182 77.054.996.75.538.405v1.029l-1.08-.051" fill="#fff"/><path d="m67.955 79.238h-2.075v-.476h1.598v-.434l-1.44-1.084.287-.381 1.63 1.227z" fill="#15003e"/><path d="m64.999 75.567c-.097 0-.175-.078-.175-.174v-1.86c0-.097.078-.175.175-.175s.175.078.175.175v1.86c0 .096-.078.174-.175.174" fill="#15003e"/><path d="m66.568 74.113c0-.729 0-1.458 0-2.188 0-.322-.5-.322-.5 0v2.188c0 .323.5.323.5 0z" fill="#15003e"/><path d="m58.596 68.592-2.455 1.417-2.454-1.417v-2.834l2.454-1.417 2.455 1.417z" fill="#ea2f21" stroke="#0d2801" stroke-miterlimit="10" stroke-width=".5"/><path d="m68.658 58.404-2.455 1.417-2.454-1.417v-2.834l2.454-1.417 2.455 1.417z" fill="#ea2f21" stroke="#0d2801" stroke-miterlimit="10" stroke-width=".5"/><path d="m98.034 35.93-.09-.05-1.77-1.03h-.01l-1.37-.79-2.971-1.71-7.84-4.52-1.34-.771-1.77-1.02-1.24-.71-8.07-4.65-1.88-1.09-7.12-4.1-.92-.53-.96-.55-4.79-2.771-2.479 1.431-4.021 2.319-1.87 1.08-5.47 3.15-3.521 2.029-4.14 2.391-1.83 1.05-1.7.98-.18.1-1.15.67-4.26 2.45-.64.37-1.43.819-11.021 6.36-2.06 1.19-.297.173v53.12l9.181 5.31h.02l.51.29.07.05.05.021h.03l.99.59 3.899 2.25.49.279.561.32.6.34 6.1 3.521.391.22 2.979 1.72 1.33.771 7.15 4.13.49.28 2.239 1.29.24.14.05.03.05.029.45.261.15.08.32.189.09.05 1.14.65v.01l.75.431.32.18.359.21.15.08.04.02.45.261.029.02.221.13.24.14.029.021.03.01.03.021 3.01 1.739.61.351.229.13.69-.4 4.17-2.399.2-.12.17-.101.63-.359 1.6-.92.19-.11.39-.229.021-.011 1.569-.899.07-.04 1.47-.851 1.09-.63.13-.069.271-.16.05-.03.22-.13.131-.07 1.109-.64.09-.05 1.34-.771.4-.229 2.23-1.28.52-.3.14-.08 3.69-2.13.21-.12.59-.34 2.08-1.2 1.03-.601.39-.22.24-.14.09-.05.101-.061.699-.399 2.79-1.61.521-.3.43-.25 3.47-2 .141-.08.069-.04 3.07-1.771.311-.199.13-.08h.04l.52-.301.03-.02.46-.26.88-.51.02-.011 5.19-2.989v-53.125zm2.07 54.32-4.42 2.55-2.42 1.4-.11.06-.09.05-.47.271-.43.25-.99.569-.5.29-3.07 1.771-.07.04-.14.08-3.47 2-.44.25-.52.3-.38.22-.94.54-.25.15-.04.02-.57.33-1.409.811-.091.05-3.75 2.16-.59.34-.21.12-2.479 1.43-.42.24-.79.46-.141.08-.449.26-1.021.59-.24.141-.1.06-.18.1-.24.141-.03.02-1.06.601-1.15.67-.09.05-2.98 1.72-.22.13-.31.181-.15.08-.81.47-.07.04-.05.029-.681.391-.319.189-3.511 2.021-1.35.78-.62-.36-.729-.42-2.13-1.22-.03-.021-.12-.07-.05-.029-.141-.08-.369-.21-.24-.141-.26-.149-.101-.061-.09-.05-.55-.31-.36-.21-.14-.08-.07-.04-.89-.51-1.271-.73-.09-.06-.14-.08-.67-.38-.101-.061-.02-.01-2.931-1.69-3.06-1.77-3.9-2.25-2.72-1.57-.54-.31-5.26-3.04-.23-.13-.6-.341-2.41-1.39-.68-.39-1.75-1.01-.311-.181-.29-.17-.119-.06s0 0-.011 0l-10.22-5.91v-50.972l.521-.301 2.659-1.529 7.521-4.341 2.66-1.529.21-.12 4.77-2.76.29-.17.37-.21 1.88-1.08.03-.021 9.59-5.53 2.271-1.31 3.069-1.771 1.87-1.079 5.38-3.101 1.12-.64 4.79 2.76 1.88 1.09.26.15 2.92 1.68 3.94 2.271 1.88 1.08 2.11 1.22 3.96 2.28 2.76 1.6.72.41 1.17.68 8.75 5.05 1.271.73.52.3 1.32.76.14.08.37.21 1.65.95.26.15 3.54 2.04v50.971z" opacity=".13"/></svg>