<svg enable-background="new 0 0 111 127.873" height="127.873" viewBox="0 0 111 127.873" width="111" xmlns="http://www.w3.org/2000/svg" xmlns:xlink="http://www.w3.org/1999/xlink"><linearGradient id="a"><stop offset="0" stop-color="#c7def5"/><stop offset="1" stop-color="#0085b0"/></linearGradient><linearGradient id="b" gradientUnits="userSpaceOnUse" x1="55.5679" x2="55.5679" xlink:href="#a" y1="14.8501" y2="116.0725"/><linearGradient id="c" gradientUnits="userSpaceOnUse" x1="12.1318" x2="91.5051" y1="64.5146" y2="59.906"><stop offset="0" stop-color="#e0e0e0"/><stop offset="1" stop-color="#5d5d5d"/></linearGradient><linearGradient id="d" gradientUnits="userSpaceOnUse" x1="54.4326" x2="54.1324" y1="69.7441" y2="64.0408"><stop offset="0" stop-color="#999"/><stop offset="1" stop-color="#4d4d4d"/></linearGradient><linearGradient id="e" gradientUnits="userSpaceOnUse" x1="94.876" x2="111.8301" xlink:href="#a" y1="64.8457" y2="64.8457"/><linearGradient id="f" gradientUnits="userSpaceOnUse" x1="32.8398" x2="100.2481" y1="72.0762" y2="73.0717"><stop offset="0" stop-color="#edffff"/><stop offset=".6364" stop-color="#289abd"/><stop offset="1" stop-color="#c7def5"/></linearGradient><linearGradient id="g"><stop offset="0" stop-color="#c7def5"/><stop offset=".503" stop-color="#0085b0"/><stop offset="1" stop-color="#c7def5"/></linearGradient><linearGradient id="h" gradientUnits="userSpaceOnUse" x1="43.3262" x2="105.0853" xlink:href="#g" y1="71.1689" y2="71.8598"/><linearGradient id="i" gradientUnits="userSpaceOnUse" x1="42.0322" x2="115.158" xlink:href="#g" y1="69.5342" y2="70.1025"/><linearGradient id="j" gradientUnits="userSpaceOnUse" x1="80.707" x2="114.9894" xlink:href="#g" y1="67.1689" y2="67.4354"/><linearGradient id="k"><stop offset="0" stop-color="#0085b0"/><stop offset=".4364" stop-color="#c7def5"/><stop offset="1" stop-color="#0085b0"/></linearGradient><linearGradient id="l" gradientUnits="userSpaceOnUse" x1="22.9409" x2="37.9043" xlink:href="#k" y1="82.3535" y2="82.3535"/><linearGradient id="m" gradientUnits="userSpaceOnUse" x1="16.3159" x2="31.2793" xlink:href="#k" y1="82.6035" y2="82.6035"/><linearGradient id="n" gradientUnits="userSpaceOnUse" x1="14.0215" x2="28.9849" xlink:href="#k" y1="80.5898" y2="80.5898"/><linearGradient id="o" gradientUnits="userSpaceOnUse" x1="34.812" x2="45.646" xlink:href="#k" y1="78.7129" y2="78.7129"/><linearGradient id="p" gradientUnits="userSpaceOnUse" x1="17.7104" x2="28.5444" xlink:href="#k" y1="76.7441" y2="76.7441"/><linearGradient id="q" gradientUnits="userSpaceOnUse" x1="21.1943" x2="32.0283" xlink:href="#k" y1="78.8086" y2="78.8086"/><linearGradient id="r" gradientUnits="userSpaceOnUse" x1="45.5815" x2="56.416" xlink:href="#k" y1="77.3896" y2="77.3896"/><linearGradient id="s" gradientUnits="userSpaceOnUse" x1="38.4849" x2="49.3193" xlink:href="#k" y1="81.5186" y2="81.5186"/><linearGradient id="t" gradientUnits="userSpaceOnUse" x1="70.4844" x2="81.3184" xlink:href="#k" y1="79.583" y2="79.583"/><linearGradient id="u" gradientUnits="userSpaceOnUse" x1="55.6455" x2="66.4795" xlink:href="#k" y1="81.002" y2="81.002"/><linearGradient id="v" gradientUnits="userSpaceOnUse" x1="48.3984" x2="59.2324" xlink:href="#k" y1="80.207" y2="80.207"/><linearGradient id="w" gradientUnits="userSpaceOnUse" x1="51.8984" x2="62.7324" xlink:href="#k" y1="79.582" y2="79.582"/><linearGradient id="x" gradientUnits="userSpaceOnUse" x1="61.8594" x2="72.6934" xlink:href="#k" y1="77.2881" y2="77.2881"/><linearGradient id="y" gradientUnits="userSpaceOnUse" x1="80.5693" x2="91.4033" xlink:href="#k" y1="80.9014" y2="80.9014"/><linearGradient id="z" gradientUnits="userSpaceOnUse" x1="68.1816" x2="79.0156" xlink:href="#k" y1="82.8369" y2="82.8369"/><linearGradient id="A" gradientUnits="userSpaceOnUse" x1="84.0527" x2="94.8867" xlink:href="#k" y1="83.6113" y2="83.6113"/><linearGradient id="B" gradientUnits="userSpaceOnUse" x1="78.8916" x2="89.7256" xlink:href="#k" y1="83.8691" y2="83.8691"/><linearGradient id="C" gradientUnits="userSpaceOnUse" x1="89.3428" x2="100.1768" xlink:href="#k" y1="76.9014" y2="76.9014"/><linearGradient id="D" gradientUnits="userSpaceOnUse" x1="73.9883" x2="84.8223" xlink:href="#k" y1="76.7715" y2="76.7715"/><linearGradient id="E" gradientUnits="userSpaceOnUse" x1="69.9355" x2="77.7363" xlink:href="#k" y1="75.1973" y2="75.1973"/><linearGradient id="F" gradientUnits="userSpaceOnUse" x1="53.624" x2="61.4248" xlink:href="#k" y1="74.5273" y2="74.5273"/><linearGradient id="G" gradientUnits="userSpaceOnUse" x1="83.1729" x2="90.9736" xlink:href="#k" y1="75.1738" y2="75.1738"/><linearGradient id="H" gradientUnits="userSpaceOnUse" x1="63.5938" x2="71.3945" xlink:href="#k" y1="70.709" y2="70.709"/><linearGradient id="I" gradientUnits="userSpaceOnUse" x1="74.5615" x2="82.3623" xlink:href="#k" y1="68.7734" y2="68.7734"/><linearGradient id="J" gradientUnits="userSpaceOnUse" x1="75.9805" x2="83.7813" xlink:href="#k" y1="70.709" y2="70.709"/><linearGradient id="K" gradientUnits="userSpaceOnUse" x1="91.7227" x2="99.5234" xlink:href="#k" y1="73.9355" y2="73.9355"/><linearGradient id="L" gradientUnits="userSpaceOnUse" x1="35.1729" x2="42.9736" xlink:href="#k" y1="74.5273" y2="74.5273"/><linearGradient id="M" gradientUnits="userSpaceOnUse" x1="32.4629" x2="40.2637" xlink:href="#k" y1="74.9141" y2="74.9141"/><linearGradient id="N" gradientUnits="userSpaceOnUse" x1="44.2051" x2="52.0059" xlink:href="#k" y1="74.5273" y2="74.5273"/><linearGradient id="O" gradientUnits="userSpaceOnUse" x1="14.5273" x2="22.3281" xlink:href="#k" y1="75.0449" y2="75.0449"/><linearGradient id="P" gradientUnits="userSpaceOnUse" x1="8.979" x2="16.7798" xlink:href="#k" y1="72.334" y2="72.334"/><linearGradient id="Q" gradientUnits="userSpaceOnUse" x1="17.6064" x2="25.4072" xlink:href="#k" y1="72.8672" y2="72.8672"/><linearGradient id="R" gradientUnits="userSpaceOnUse" x1="25.7358" x2="33.5366" xlink:href="#k" y1="74.416" y2="74.416"/><linearGradient id="S" gradientUnits="userSpaceOnUse" x1="10.7681" x2="15.6465" xlink:href="#k" y1="69.2559" y2="69.2559"/><linearGradient id="T" gradientUnits="userSpaceOnUse" x1="7.1523" x2="12.0308" xlink:href="#k" y1="67.3232" y2="67.3232"/><linearGradient id="U" gradientUnits="userSpaceOnUse" x1="9.835" x2="13.188" xlink:href="#k" y1="60.042" y2="60.042"/><linearGradient id="V" gradientUnits="userSpaceOnUse" x1="18.3511" x2="21.7041" xlink:href="#k" y1="59.7842" y2="59.7842"/><linearGradient id="W" gradientUnits="userSpaceOnUse" x1="12.5444" x2="15.8975" xlink:href="#k" y1="58.3652" y2="58.3652"/><linearGradient id="X" gradientUnits="userSpaceOnUse" x1="14.48" x2="17.833" xlink:href="#k" y1="60.4297" y2="60.4297"/><linearGradient id="Y" gradientUnits="userSpaceOnUse" x1="18.0928" x2="21.4458" xlink:href="#k" y1="58.2363" y2="58.2363"/><linearGradient id="Z" gradientUnits="userSpaceOnUse" x1="88.1582" x2="91.5107" xlink:href="#k" y1="55.2686" y2="55.2686"/><linearGradient id="aa" gradientUnits="userSpaceOnUse" x1="95.7705" x2="99.123" xlink:href="#k" y1="56.4297" y2="56.4297"/><linearGradient id="ab" gradientUnits="userSpaceOnUse" x1="92.6738" x2="96.0264" xlink:href="#k" y1="54.752" y2="54.752"/><linearGradient id="ac" gradientUnits="userSpaceOnUse" x1="98.9961" x2="102.3486" xlink:href="#k" y1="57.8486" y2="57.8486"/><linearGradient id="ad" gradientUnits="userSpaceOnUse" x1="100.8027" x2="104.1553" xlink:href="#k" y1="61.5908" y2="61.5908"/><linearGradient id="ae" gradientUnits="userSpaceOnUse" x1="98.5078" x2="103.3857" xlink:href="#k" y1="67.9678" y2="67.9678"/><linearGradient id="af" gradientUnits="userSpaceOnUse" x1="86.249" x2="91.127" xlink:href="#k" y1="68.7422" y2="68.7422"/><linearGradient id="ag" gradientUnits="userSpaceOnUse" x1="100.3135" x2="105.1914" xlink:href="#k" y1="63.5811" y2="63.5811"/><linearGradient id="ah" gradientUnits="userSpaceOnUse" x1="31.7915" x2="53.3813" xlink:href="#k" y1="86.7949" y2="86.7949"/><linearGradient id="ai" gradientUnits="userSpaceOnUse" x1="39.5332" x2="61.123" xlink:href="#k" y1="88.0859" y2="88.0859"/><linearGradient id="aj" gradientUnits="userSpaceOnUse" x1="62.0371" x2="77.7754" xlink:href="#k" y1="85.9111" y2="85.9111"/><linearGradient id="ak" gradientUnits="userSpaceOnUse" x1="46.8281" x2="62.5664" xlink:href="#k" y1="84.085" y2="84.085"/><linearGradient id="al" gradientUnits="userSpaceOnUse" x1="52.7637" x2="68.502" xlink:href="#k" y1="84.8594" y2="84.8594"/><linearGradient id="am" gradientUnits="userSpaceOnUse" x1="28.6177" x2="63.6543" xlink:href="#k" y1="101.2871" y2="101.2871"/><linearGradient id="an" gradientUnits="userSpaceOnUse" x1="42.2813" x2="77.3174" xlink:href="#k" y1="103.3242" y2="103.3242"/><linearGradient id="ao" gradientUnits="userSpaceOnUse" x1="23.2393" x2="48.8267" xlink:href="#k" y1="94.4063" y2="94.4063"/><linearGradient id="ap" gradientUnits="userSpaceOnUse" x1="35.3682" x2="60.9551" xlink:href="#k" y1="91.5684" y2="91.5684"/><linearGradient id="aq" gradientUnits="userSpaceOnUse" x1="12.4004" x2="37.9873" xlink:href="#k" y1="88.3418" y2="88.3418"/><linearGradient id="ar" gradientUnits="userSpaceOnUse" x1="68.4404" x2="94.0273" xlink:href="#k" y1="89.6172" y2="89.6172"/><linearGradient id="as" gradientUnits="userSpaceOnUse" x1="73.8154" x2="99.4023" xlink:href="#k" y1="91.7578" y2="91.7578"/><linearGradient id="at" gradientUnits="userSpaceOnUse" x1="67.7549" x2="93.3418" xlink:href="#k" y1="97.7617" y2="97.7617"/><linearGradient id="au" gradientUnits="userSpaceOnUse" x1="48.6641" x2="83.7002" xlink:href="#k" y1="98.3027" y2="98.3027"/><linearGradient id="av" gradientUnits="userSpaceOnUse" x1="17.583" x2="98.5498" y1="67.4834" y2="67.4834"><stop offset="0" stop-color="#b82926"/><stop offset="1" stop-color="#4d4d4d"/></linearGradient><linearGradient id="aw" gradientUnits="userSpaceOnUse" x1="17.9189" x2="98.2373" y1="66.7129" y2="66.7129"><stop offset="0" stop-color="#e68a70"/><stop offset="1" stop-color="#4d4d4d"/></linearGradient><linearGradient id="ax"><stop offset="0" stop-color="#fff"/><stop offset="1" stop-color="#fff" stop-opacity="0"/></linearGradient><linearGradient id="ay" gradientUnits="userSpaceOnUse" x1="80.748" x2="80.748" xlink:href="#ax" y1="46.8896" y2="60.6304"/><linearGradient id="az" gradientUnits="userSpaceOnUse" x1="74.9785" x2="74.9785" y1="46.0879" y2="59.6826"><stop offset="0"/><stop offset="1" stop-color="#fff" stop-opacity="0"/></linearGradient><linearGradient id="aA" gradientUnits="userSpaceOnUse" x1="81.7168" x2="81.7168" xlink:href="#ax" y1="46.8271" y2="60.5679"/><linearGradient id="aB" gradientUnits="userSpaceOnUse" x1="82.6855" x2="82.6855" xlink:href="#ax" y1="46.7646" y2="60.5054"/><linearGradient id="aC" gradientUnits="userSpaceOnUse" x1="83.6543" x2="83.6543" xlink:href="#ax" y1="46.7021" y2="60.4429"/><linearGradient id="aD" gradientUnits="userSpaceOnUse" x1="84.623" x2="84.623" xlink:href="#ax" y1="46.6396" y2="60.3804"/><linearGradient id="aE" gradientUnits="userSpaceOnUse" x1="85.5918" x2="85.5918" xlink:href="#ax" y1="46.5771" y2="60.3179"/><linearGradient id="aF" gradientUnits="userSpaceOnUse" x1="86.5605" x2="86.5605" xlink:href="#ax" y1="46.5146" y2="60.2554"/><linearGradient id="aG" gradientTransform="matrix(1 0 .021 1 -.6227 0)" gradientUnits="userSpaceOnUse" x1="76.8174" x2="77.3884" y1="48.5396" y2="44.9993"><stop offset="0" stop-color="#fff"/><stop offset="1" stop-color="#78a6e0"/></linearGradient><linearGradient id="aH"><stop offset="0" stop-color="#dbeaf9"/><stop offset="1" stop-color="#fff"/></linearGradient><linearGradient id="aI" gradientUnits="userSpaceOnUse" x1="58.1016" x2="58.1016" xlink:href="#aH" y1="29.7544" y2="26.9019"/><linearGradient id="aJ" gradientUnits="userSpaceOnUse" x1="37.1323" x2="37.1323" xlink:href="#aH" y1="34.1519" y2="32.0474"/><linearGradient id="aK" gradientUnits="userSpaceOnUse" x1="76.6689" x2="76.6689" xlink:href="#aH" y1="34.6694" y2="33.6151"/><linearGradient id="aL" gradientUnits="userSpaceOnUse" x1="40.7104" x2="40.7104" xlink:href="#aH" y1="23.4116" y2="22.7664"/><linearGradient id="aM" gradientUnits="userSpaceOnUse" x1="46.7808" x2="46.7808" xlink:href="#aH" y1="25.1587" y2="23.9439"/><linearGradient id="aN" gradientUnits="userSpaceOnUse" x1="56.0479" x2="56.0479" y1="34.3042" y2="41.268"><stop offset=".0024" stop-color="#00a99d"/><stop offset="1" stop-color="#00a99d" stop-opacity="0"/></linearGradient><linearGradient id="aO" gradientUnits="userSpaceOnUse" x1="65.2363" x2="65.2363" y1="87.8057" y2="92.5178"><stop offset="0" stop-color="#bae5ee"/><stop offset="1" stop-color="#5ab3ce"/></linearGradient><linearGradient id="aP" gradientTransform="matrix(.9998 -.0199 .0199 .9998 2.217 -7.6208)" gradientUnits="userSpaceOnUse" x1="70.9541" x2="67.0393" y1="105.2783" y2="102.6453"><stop offset="0" stop-color="#0085b0"/><stop offset="1" stop-color="#c7def5"/></linearGradient><linearGradient id="aQ" gradientUnits="userSpaceOnUse" x1="82.5068" x2="81.6973" y1="42.7744" y2="42.5916"><stop offset="0" stop-color="#ccc" stop-opacity="0"/><stop offset=".503" stop-color="#ccc"/><stop offset="1" stop-color="#ccc" stop-opacity="0"/></linearGradient><path d="m63.335 119.754c5.076-3.356 10.326-6.56 15.153-10.242 4.43-3.379 8.877-6.87 14.464-7.953 1.645-.792 3.34-1.504 5.122-2.09.479-.157.963-.252 1.448-.307l9.991-17.317c-.122-13.572-.504-27.131-2.837-40.509l-6.182-10.714c-.972-.554-1.947-1.104-2.926-1.646-6.759-3.75-13.22-7.892-19.859-11.804-3.105-1.83-7.959-5.046-11.176-8.826h-26.051c-3.008 1.784-5.961 3.656-8.821 5.666-3.88 2.726-7.314 6.004-11.232 8.542-.995 1.234-2.473 2.19-4.501 2.641-.5.111-1 .223-1.5.333-.371.083-.732.139-1.087.181l-5.863 10.158c.982 1.683 1.359 3.79.719 6.224-2.547 9.679-3.995 19.538-5.226 29.456-.437 3.514-.899 7.024-1.348 10.536l8.547 14.814c.865-.035 1.739.085 2.589.404.444.167.889.333 1.333.5.462.174.905.38 1.332.607 8.276 3.479 16.292 7.45 23.67 12.633 4.057 2.85 7.992 5.87 12.045 8.712h12.196z" fill="url(#b)"/><path d="m8.566 62.995s4.693 2.708 19.88 2.625c4.436-.024 70.96-5.464 70.96-5.464l-12.922-2.034s-50.753 3.923-55.898 4.151c-8.122.361-12.454 1.083-22.02.722z" fill="url(#c)"/><path d="m31.075 61.294c5.145-.229 55.897-4.151 55.897-4.151l11.313 1.772c1.187-.079 1.146-.259 1.146-.259l-12.946-2.001s-50.753 3.923-55.898 4.151c-8.123.362-12.401 1.22-21.967.859 0 0 .326.076 1.172.375 9.047.297 13.375-.393 21.283-.746z" fill="#4d4d4d"/><path d="m16.602 64.464c-4.482-.704-8.036-1.469-8.036-1.469s4.122 3.317 9.684 6.067c-1.375.125-1.371 2.271 2.833 2.271 6.563 0 74.355-5.458 74.355-5.458s3.175-1.348 3.755-2.891c.388-1.032.237-2.959.237-2.959s-63.29 5.596-70.984 5.596c-3.538-.002-8.027-.558-11.844-1.157z" fill="url(#d)"/><path d="m80.42 61.153-5.395-1.198-.399-14.276 5.392.8z" fill="#ccc"/><path d="m76.301 55.171-.49-.082-.038-1.255.491.045z" fill="#666"/><path d="m77.725 55.401-.491-.082-.037-1.254.491.045z" fill="#666"/><path d="m79.148 55.731-.49-.082-.037-1.254.49.045z" fill="#666"/><path d="m76.301 51.015-.49-.082-.038-1.255.491.045z" fill="#666"/><path d="m77.725 51.245-.491-.082-.037-1.254.491.045z" fill="#666"/><path d="m79.148 51.575-.49-.082-.037-1.254.49.045z" fill="#666"/><path d="m76.301 57.921-.49-.082-.038-1.255.491.045z" fill="#666"/><path d="m77.725 58.151-.491-.082-.037-1.254.491.045z" fill="#666"/><path d="m79.148 58.481-.49-.082-.037-1.254.49.045z" fill="#666"/><path d="m80.018 46.479 7.313-.48.678 14.755-7.589.399z" fill="#999"/><path d="m87.498 45.999-.207.014.677 14.741h.208z" fill="#666"/><path d="m74.626 45.679 6.921-.508 5.784.806-7.313.502z" fill="#f2f2f2"/><path d="m78.105 45.643 2.923-.214 2.566.367-3 .219z" fill="#666"/><path d="m105.515 63.945c-.018-.075-.023-.152-.039-.227-.976.003-1.653-.026-2.063-.026-.723 0-5.161.453-5.161.453s-1.584 1.417-3.375 1.854c0 0 5.783-.132 7.782-.132.599 0 1.717-.049 2.959-.109-.035-.605-.068-1.208-.103-1.813z" fill="url(#e)"/><path d="m31.844 72.124s12.791-.884 17.482-.163c4.693.723 16.965.361 19.314.361 2.346 0 12.814.182 14.799.182s11.624.027 12.528.027c.902 0 13.032-.516 13.032-.516s1.572.387.129.387c-1.445 0-26.686 1.032-28.129 1.032 0 0-16.077.324-18.965.258-7.864-.182-12.348-.827-15.596-1.009-3.248-.179-14.594-.559-14.594-.559z" fill="url(#f)"/><path d="m37.002 71.37s18.555-1.132 22.693-.409c4.135.721 14.953.359 17.021.359s11.299.18 13.049.18c1.748 0 18.438-.129 19.235-.129.795 0-.661.386-1.937.386-1.271 0-19.688.286-20.959.286 0 0-13.684 0-16.229 0-2.547 0-9.863-.18-12.727-.361-2.863-.182-20.146-.312-20.146-.312z" fill="url(#h)"/><path d="m105.766 68.66c-3.254.064-6.563.13-7.604.13-2.07 0-15.864 1.368-20 .646-4.136-.721-42.192 1.419-42.192 1.419s36.782-.878 39.647-.696c2.863.18 10.182.361 12.727.361h16.229c.221 0 .678-.063 1.261-.161-.021-.566-.043-1.132-.068-1.699z" fill="url(#i)"/><path d="m105.666 66.626c-5.139.343-9.084 1.106-11.891.616-4.136-.721-15.91.541-15.91.541s10.5 0 13.365.182c2.863.18 10.712-.466 13.257-.466.319 0 .738-.012 1.22-.033-.015-.28-.026-.56-.041-.84z" fill="url(#j)"/><path d="m28.936 66.011c7.336 0 64.007-5.088 70.501-5.561-.006-.317-.006-.524-.006-.524s-63.29 5.595-70.984 5.595-19.828-2.484-19.828-2.484.236.179.696.517c1.519.318 12.469 2.457 19.621 2.457z" fill="#333"/><path d="m12.606 61.909v1.269" fill="none" stroke="#4d4d4d" stroke-width=".5"/><path d="m16.741 61.815v1.269" fill="none" stroke="#4d4d4d" stroke-width=".5"/><path d="m20.876 61.721v1.269" fill="none" stroke="#4d4d4d" stroke-width=".5"/><path d="m88.908 57.398v1.269" fill="none" stroke="#4d4d4d" stroke-width=".5"/><path d="m91.352 57.774v1.269" fill="none" stroke="#4d4d4d" stroke-width=".5"/><path d="m93.795 58.15v1.269" fill="none" stroke="#4d4d4d" stroke-width=".5"/><path d="m96.238 58.526v1.269" fill="none" stroke="#4d4d4d" stroke-width=".5"/><path d="m73.686 57.944v1.268" fill="none" stroke="#4d4d4d" stroke-width=".5"/><path d="m22.941 82.396s1.895.082 3.626-.018c2.465-.141 3.626-.669 3.626-.669s.497.48 2.781.774c2.285.295 4.929.501 4.929.501s-3.239.098-5.457-.289c-1.656-.289-2.289-.458-2.289-.458s-2.428.461-4.049.388c-1.62-.073-3.167-.229-3.167-.229z" fill="url(#l)"/><path d="m16.316 82.646s1.895.082 3.626-.018c2.465-.141 3.626-.669 3.626-.669s.497.48 2.781.774c2.285.295 4.929.501 4.929.501s-3.239.098-5.457-.289c-1.656-.289-2.289-.458-2.289-.458s-2.428.461-4.049.388c-1.62-.073-3.167-.229-3.167-.229z" fill="url(#m)"/><path d="m14.021 80.634s1.895.082 3.626-.018c2.465-.141 3.626-.669 3.626-.669s.497.48 2.781.774c2.285.295 4.929.501 4.929.501s-3.239.098-5.457-.289c-1.656-.289-2.289-.458-2.289-.458s-2.428.461-4.049.388c-1.619-.074-3.167-.229-3.167-.229z" fill="url(#n)"/><path d="m34.812 78.744s1.372.06 2.625-.013c1.785-.102 2.626-.484 2.626-.484s.359.348 2.014.561c1.654.214 3.569.363 3.569.363s-2.345.07-3.951-.21c-1.199-.209-1.657-.331-1.657-.331s-1.758.334-2.932.28-2.294-.166-2.294-.166z" fill="url(#o)"/><path d="m17.71 76.775s1.372.06 2.625-.013c1.785-.102 2.626-.484 2.626-.484s.359.348 2.014.561c1.654.214 3.569.363 3.569.363s-2.345.07-3.951-.21c-1.199-.209-1.657-.331-1.657-.331s-1.758.334-2.932.28c-1.173-.053-2.294-.166-2.294-.166z" fill="url(#p)"/><path d="m21.194 78.84s1.372.06 2.625-.013c1.785-.102 2.626-.484 2.626-.484s.359.348 2.014.561c1.654.214 3.569.363 3.569.363s-2.345.07-3.951-.21c-1.199-.209-1.657-.331-1.657-.331s-1.758.334-2.932.28-2.294-.166-2.294-.166z" fill="url(#q)"/><path d="m45.582 77.421s1.372.06 2.625-.013c1.785-.102 2.626-.484 2.626-.484s.359.348 2.014.561c1.654.214 3.569.363 3.569.363s-2.346.07-3.952-.21c-1.199-.209-1.657-.331-1.657-.331s-1.758.334-2.932.28c-1.173-.054-2.293-.166-2.293-.166z" fill="url(#r)"/><path d="m38.485 81.55s1.372.06 2.625-.013c1.785-.102 2.626-.484 2.626-.484s.359.348 2.014.561c1.654.214 3.569.363 3.569.363s-2.346.07-3.952-.21c-1.199-.209-1.657-.331-1.657-.331s-1.758.334-2.932.28c-1.173-.054-2.293-.166-2.293-.166z" fill="url(#s)"/><path d="m70.484 79.614s1.372.06 2.625-.013c1.785-.102 2.627-.484 2.627-.484s.359.348 2.014.561c1.654.214 3.568.363 3.568.363s-2.346.07-3.951-.21c-1.199-.209-1.656-.331-1.656-.331s-1.758.334-2.932.28c-1.175-.053-2.295-.166-2.295-.166z" fill="url(#t)"/><path d="m55.646 81.033s1.372.06 2.625-.013c1.785-.102 2.627-.484 2.627-.484s.359.348 2.014.561c1.654.214 3.568.363 3.568.363s-2.346.07-3.951-.21c-1.199-.209-1.656-.331-1.656-.331s-1.758.334-2.932.28c-1.175-.053-2.295-.166-2.295-.166z" fill="url(#u)"/><path d="m48.398 80.238s1.372.06 2.625-.013c1.785-.102 2.627-.484 2.627-.484s.359.348 2.014.561c1.654.214 3.568.363 3.568.363s-2.346.07-3.951-.21c-1.199-.209-1.656-.331-1.656-.331s-1.758.334-2.932.28c-1.174-.053-2.295-.166-2.295-.166z" fill="url(#v)"/><path d="m51.898 79.613s1.372.06 2.625-.013c1.785-.102 2.627-.484 2.627-.484s.359.348 2.014.561c1.654.214 3.568.363 3.568.363s-2.346.07-3.951-.21c-1.199-.209-1.656-.331-1.656-.331s-1.758.334-2.932.28c-1.174-.053-2.295-.166-2.295-.166z" fill="url(#w)"/><path d="m61.859 77.319s1.372.06 2.625-.013c1.785-.102 2.627-.484 2.627-.484s.359.348 2.014.561c1.654.214 3.568.363 3.568.363s-2.346.07-3.951-.21c-1.199-.209-1.656-.331-1.656-.331s-1.758.334-2.932.28c-1.175-.053-2.295-.166-2.295-.166z" fill="url(#x)"/><path d="m80.569 80.933s1.372.06 2.625-.013c1.785-.102 2.627-.484 2.627-.484s.359.348 2.014.561c1.654.214 3.568.363 3.568.363s-2.346.07-3.951-.21c-1.199-.209-1.656-.331-1.656-.331s-1.758.334-2.932.28c-1.175-.054-2.295-.166-2.295-.166z" fill="url(#y)"/><path d="m68.182 82.868s1.372.06 2.625-.013c1.785-.102 2.627-.484 2.627-.484s.359.348 2.014.561c1.654.214 3.568.363 3.568.363s-2.346.07-3.951-.21c-1.199-.209-1.656-.331-1.656-.331s-1.758.334-2.932.28c-1.175-.054-2.295-.166-2.295-.166z" fill="url(#z)"/><path d="m84.053 83.643s1.372.06 2.625-.013c1.785-.102 2.627-.484 2.627-.484s.359.348 2.014.561c1.654.214 3.568.363 3.568.363s-2.346.07-3.951-.21c-1.199-.209-1.656-.331-1.656-.331s-1.758.334-2.932.28c-1.175-.054-2.295-.166-2.295-.166z" fill="url(#A)"/><path d="m78.892 83.9s1.372.06 2.625-.013c1.785-.102 2.627-.484 2.627-.484s.359.348 2.014.561c1.654.214 3.568.363 3.568.363s-2.346.07-3.951-.21c-1.199-.209-1.656-.331-1.656-.331s-1.758.334-2.932.28c-1.175-.053-2.295-.166-2.295-.166z" fill="url(#B)"/><path d="m89.343 76.933s1.372.06 2.625-.013c1.785-.102 2.627-.484 2.627-.484s.359.348 2.014.561c1.654.214 3.568.363 3.568.363s-2.346.07-3.951-.21c-1.199-.209-1.656-.331-1.656-.331s-1.758.334-2.932.28c-1.175-.054-2.295-.166-2.295-.166z" fill="url(#C)"/><path d="m73.988 76.803s1.372.06 2.625-.013c1.785-.102 2.627-.484 2.627-.484s.359.348 2.014.561c1.654.214 3.568.363 3.568.363s-2.346.07-3.951-.21c-1.199-.209-1.656-.331-1.656-.331s-1.758.334-2.932.28c-1.175-.054-2.295-.166-2.295-.166z" fill="url(#D)"/><path d="m69.936 75.219s.988.043 1.891-.009c1.285-.073 1.891-.349 1.891-.349s.259.25 1.45.403c1.191.154 2.569.262 2.569.262s-1.689.051-2.845-.151c-.863-.15-1.192-.238-1.192-.238s-1.266.24-2.111.201c-.847-.038-1.653-.119-1.653-.119z" fill="url(#E)"/><path d="m53.624 74.55s.988.043 1.891-.009c1.285-.073 1.891-.349 1.891-.349s.259.25 1.45.403c1.191.154 2.569.262 2.569.262s-1.689.051-2.845-.151c-.863-.15-1.192-.238-1.192-.238s-1.266.24-2.111.201c-.846-.038-1.653-.119-1.653-.119z" fill="url(#F)"/><path d="m83.173 75.195s.988.043 1.891-.009c1.285-.073 1.891-.349 1.891-.349s.259.25 1.45.403c1.191.154 2.569.262 2.569.262s-1.689.051-2.845-.151c-.863-.15-1.192-.238-1.192-.238s-1.266.24-2.111.201c-.847-.038-1.653-.119-1.653-.119z" fill="url(#G)"/><path d="m63.594 70.731s.988.043 1.891-.009c1.285-.073 1.891-.349 1.891-.349s.259.25 1.45.403c1.191.154 2.569.262 2.569.262s-1.689.051-2.845-.151c-.863-.15-1.192-.238-1.192-.238s-1.266.24-2.111.201c-.847-.037-1.653-.119-1.653-.119z" fill="url(#H)"/><path d="m74.562 68.796s.988.043 1.891-.009c1.285-.073 1.891-.349 1.891-.349s.259.25 1.45.403c1.191.154 2.569.262 2.569.262s-1.689.051-2.845-.151c-.863-.15-1.192-.238-1.192-.238s-1.266.24-2.111.201c-.847-.038-1.653-.119-1.653-.119z" fill="url(#I)"/><path d="m75.98 70.731s.988.043 1.891-.009c1.285-.073 1.891-.349 1.891-.349s.259.25 1.45.403c1.191.154 2.569.262 2.569.262s-1.689.051-2.845-.151c-.863-.15-1.192-.238-1.192-.238s-1.266.24-2.111.201c-.846-.037-1.653-.119-1.653-.119z" fill="url(#J)"/><path d="m91.723 73.957s.988.043 1.891-.009c1.285-.073 1.891-.349 1.891-.349s.259.25 1.45.403c1.191.154 2.569.262 2.569.262s-1.689.051-2.845-.151c-.863-.15-1.192-.238-1.192-.238s-1.266.24-2.111.201c-.847-.038-1.653-.119-1.653-.119z" fill="url(#K)"/><path d="m35.173 74.55s.988.043 1.891-.009c1.285-.073 1.891-.349 1.891-.349s.259.25 1.45.403c1.191.154 2.569.262 2.569.262s-1.689.051-2.845-.151c-.863-.15-1.192-.238-1.192-.238s-1.266.24-2.111.201c-.847-.038-1.653-.119-1.653-.119z" fill="url(#L)"/><path d="m32.463 74.937s.988.043 1.891-.009c1.285-.073 1.891-.349 1.891-.349s.259.25 1.45.403c1.191.154 2.569.262 2.569.262s-1.689.051-2.845-.151c-.863-.15-1.192-.238-1.192-.238s-1.266.24-2.111.201c-.846-.038-1.653-.119-1.653-.119z" fill="url(#M)"/><path d="m44.205 74.55s.988.043 1.891-.009c1.285-.073 1.891-.349 1.891-.349s.259.25 1.45.403c1.191.154 2.569.262 2.569.262s-1.689.051-2.845-.151c-.863-.15-1.192-.238-1.192-.238s-1.266.24-2.111.201c-.846-.038-1.653-.119-1.653-.119z" fill="url(#N)"/><path d="m14.527 75.066s.988.043 1.891-.009c1.285-.073 1.891-.349 1.891-.349s.259.25 1.45.403c1.191.154 2.569.262 2.569.262s-1.689.051-2.845-.151c-.863-.15-1.192-.238-1.192-.238s-1.266.24-2.111.201c-.846-.038-1.653-.119-1.653-.119z" fill="url(#O)"/><path d="m8.979 72.356s.988.043 1.891-.009c1.285-.073 1.891-.349 1.891-.349s.259.25 1.45.403c1.191.154 2.569.262 2.569.262s-1.689.051-2.845-.151c-.863-.15-1.192-.238-1.192-.238s-1.266.24-2.111.201c-.846-.037-1.653-.119-1.653-.119z" fill="url(#P)"/><path d="m17.606 72.89s.988.043 1.891-.009c1.285-.073 1.891-.349 1.891-.349s.259.25 1.45.403c1.191.154 2.569.262 2.569.262s-1.689.051-2.845-.151c-.863-.15-1.192-.238-1.192-.238s-1.266.24-2.111.201c-.846-.038-1.653-.119-1.653-.119z" fill="url(#Q)"/><path d="m25.736 74.438s.988.043 1.891-.009c1.285-.073 1.891-.349 1.891-.349s.259.25 1.45.403c1.191.154 2.569.262 2.569.262s-1.689.051-2.845-.151c-.863-.15-1.192-.238-1.192-.238s-1.266.24-2.111.201c-.847-.037-1.653-.119-1.653-.119z" fill="url(#R)"/><path d="m10.768 69.27s.618.026 1.182-.006c.804-.046 1.183-.218 1.183-.218s.162.156.907.252c.745.097 1.607.164 1.607.164s-1.057.031-1.779-.095c-.54-.095-.746-.149-.746-.149s-.792.15-1.32.126-1.034-.074-1.034-.074z" fill="url(#S)"/><path d="m7.152 67.337s.618.026 1.182-.006c.804-.046 1.183-.218 1.183-.218s.162.156.907.252c.745.097 1.607.164 1.607.164s-1.057.031-1.779-.095c-.54-.095-.746-.149-.746-.149s-.792.15-1.32.126-1.034-.074-1.034-.074z" fill="url(#T)"/><path d="m9.835 60.052s.425.018.813-.004c.552-.032.813-.15.813-.15s.111.107.623.173 1.104.113 1.104.113-.726.021-1.223-.065c-.371-.065-.512-.103-.512-.103s-.544.104-.908.087c-.363-.017-.71-.051-.71-.051z" fill="url(#U)"/><path d="m18.351 59.794s.425.018.813-.004c.552-.032.813-.15.813-.15s.111.107.623.173 1.104.113 1.104.113-.726.021-1.223-.065c-.371-.065-.512-.103-.512-.103s-.544.104-.908.087c-.363-.017-.71-.051-.71-.051z" fill="url(#V)"/><path d="m12.544 58.375s.425.018.813-.004c.552-.032.813-.15.813-.15s.111.107.623.173 1.104.113 1.104.113-.726.021-1.223-.065c-.371-.065-.512-.103-.512-.103s-.544.104-.908.087c-.363-.017-.71-.051-.71-.051z" fill="url(#W)"/><path d="m14.48 60.439s.425.018.813-.004c.552-.032.813-.15.813-.15s.111.107.623.173 1.104.113 1.104.113-.726.021-1.223-.065c-.371-.065-.512-.103-.512-.103s-.544.104-.908.087c-.363-.017-.71-.051-.71-.051z" fill="url(#X)"/><path d="m18.093 58.246s.425.018.813-.004c.552-.032.813-.15.813-.15s.111.107.623.173 1.104.113 1.104.113-.726.021-1.223-.065c-.371-.065-.512-.103-.512-.103s-.544.104-.908.087-.71-.051-.71-.051z" fill="url(#Y)"/><path d="m88.158 55.278s.424.018.813-.004c.552-.032.813-.15.813-.15s.111.107.623.173 1.104.113 1.104.113-.726.021-1.224-.065c-.37-.065-.512-.103-.512-.103s-.544.104-.908.087c-.363-.017-.709-.051-.709-.051z" fill="url(#Z)"/><path d="m95.771 56.439s.424.018.813-.004c.552-.032.813-.15.813-.15s.111.107.623.173 1.104.113 1.104.113-.726.021-1.224-.065c-.37-.065-.512-.103-.512-.103s-.544.104-.908.087-.709-.051-.709-.051z" fill="url(#aa)"/><path d="m92.674 54.762s.424.018.813-.004c.552-.032.813-.15.813-.15s.111.107.623.173 1.104.113 1.104.113-.726.021-1.224-.065c-.37-.065-.512-.103-.512-.103s-.544.104-.908.087c-.363-.017-.709-.051-.709-.051z" fill="url(#ab)"/><path d="m98.996 57.858s.424.018.813-.004c.552-.032.813-.15.813-.15s.111.107.623.173 1.104.113 1.104.113-.726.021-1.224-.065c-.37-.065-.512-.103-.512-.103s-.544.104-.908.087c-.363-.016-.709-.051-.709-.051z" fill="url(#ac)"/><path d="m100.803 61.601s.424.018.813-.004c.552-.032.813-.15.813-.15s.111.107.623.173 1.104.113 1.104.113-.726.021-1.224-.065c-.37-.065-.512-.103-.512-.103s-.544.104-.908.087-.709-.051-.709-.051z" fill="url(#ad)"/><path d="m98.508 67.981s.617.026 1.182-.006c.804-.046 1.183-.218 1.183-.218s.161.156.907.252c.744.097 1.606.164 1.606.164s-1.057.031-1.779-.095c-.54-.095-.745-.149-.745-.149s-.792.15-1.32.126c-.53-.024-1.034-.074-1.034-.074z" fill="url(#ae)"/><path d="m86.249 68.756s.617.026 1.182-.006c.804-.046 1.183-.218 1.183-.218s.161.156.907.252c.744.097 1.606.164 1.606.164s-1.057.031-1.779-.095c-.54-.095-.745-.149-.745-.149s-.792.15-1.32.126c-.53-.024-1.034-.074-1.034-.074z" fill="url(#af)"/><path d="m100.313 63.595s.617.026 1.182-.006c.804-.046 1.183-.218 1.183-.218s.161.156.907.252c.744.097 1.606.164 1.606.164s-1.057.031-1.779-.095c-.54-.095-.745-.149-.745-.149s-.792.15-1.32.126c-.53-.024-1.034-.074-1.034-.074z" fill="url(#ag)"/><path d="m31.792 86.857s2.734.118 5.232-.025c3.556-.203 5.232-.965 5.232-.965s.716.693 4.013 1.117c3.296.426 7.112.724 7.112.724s-4.674.14-7.874-.418c-2.389-.417-3.302-.661-3.302-.661s-3.502.666-5.842.56c-2.339-.107-4.571-.332-4.571-.332z" fill="url(#ah)"/><path d="m39.533 88.147s2.734.118 5.232-.025c3.556-.203 5.232-.965 5.232-.965s.716.693 4.013 1.117c3.295.426 7.112.724 7.112.724s-4.674.14-7.874-.418c-2.389-.417-3.302-.661-3.302-.661s-3.502.666-5.842.56c-2.338-.107-4.571-.332-4.571-.332z" fill="url(#ai)"/><path d="m62.037 85.956s1.993.086 3.814-.019c2.593-.147 3.814-.703 3.814-.703s.522.506 2.926.814c2.401.311 5.184.527 5.184.527s-3.407.102-5.74-.305c-1.741-.304-2.406-.481-2.406-.481s-2.553.485-4.259.407c-1.706-.076-3.333-.24-3.333-.24z" fill="url(#aj)"/><path d="m46.828 84.13s1.993.086 3.814-.019c2.593-.147 3.814-.703 3.814-.703s.522.506 2.926.814c2.401.311 5.184.527 5.184.527s-3.407.102-5.74-.305c-1.741-.304-2.406-.481-2.406-.481s-2.553.485-4.259.407c-1.706-.076-3.333-.24-3.333-.24z" fill="url(#ak)"/><path d="m52.764 84.904s1.993.086 3.814-.019c2.593-.147 3.814-.703 3.814-.703s.522.506 2.926.814c2.401.311 5.184.527 5.184.527s-3.407.102-5.74-.305c-1.741-.304-2.406-.481-2.406-.481s-2.553.485-4.259.407c-1.706-.076-3.333-.24-3.333-.24z" fill="url(#al)"/><path d="m28.618 101.388s4.437.191 8.491-.042c5.771-.329 8.492-1.565 8.492-1.565s1.162 1.126 6.513 1.813c5.349.69 11.541 1.174 11.541 1.174s-7.585.227-12.776-.678c-3.878-.677-5.361-1.073-5.361-1.073s-5.683 1.08-9.48.908c-3.797-.173-7.42-.537-7.42-.537z" fill="url(#am)"/><path d="m42.281 103.425s4.437.191 8.492-.042c5.771-.329 8.491-1.565 8.491-1.565s1.163 1.126 6.514 1.813c5.349.691 11.54 1.174 11.54 1.174s-7.585.227-12.775-.678c-3.879-.677-5.361-1.073-5.361-1.073s-5.683 1.081-9.48.908c-3.797-.172-7.421-.537-7.421-.537z" fill="url(#an)"/><path d="m23.239 94.48s3.24.14 6.201-.03c4.215-.24 6.202-1.144 6.202-1.144s.849.822 4.756 1.324c3.906.505 8.429.857 8.429.857s-5.54.166-9.331-.495c-2.832-.494-3.914-.783-3.914-.783s-4.15.789-6.924.663c-2.773-.125-5.419-.392-5.419-.392z" fill="url(#ao)"/><path d="m35.368 91.642s3.24.14 6.201-.03c4.215-.24 6.202-1.144 6.202-1.144s.849.822 4.756 1.324c3.907.505 8.428.857 8.428.857s-5.54.166-9.331-.495c-2.832-.494-3.914-.783-3.914-.783s-4.15.789-6.924.663c-2.772-.126-5.418-.392-5.418-.392z" fill="url(#ap)"/><path d="m12.4 88.416s3.24.14 6.201-.03c4.215-.24 6.202-1.144 6.202-1.144s.849.822 4.756 1.324c3.906.505 8.428.857 8.428.857s-5.54.166-9.331-.495c-2.832-.494-3.914-.783-3.914-.783s-4.15.789-6.924.663c-2.772-.125-5.418-.392-5.418-.392z" fill="url(#aq)"/><path d="m68.44 89.69s3.24.14 6.201-.03c4.216-.24 6.202-1.144 6.202-1.144s.848.822 4.756 1.324c3.906.505 8.428.857 8.428.857s-5.539.166-9.33-.495c-2.832-.494-3.914-.783-3.914-.783s-4.15.789-6.924.663-5.419-.392-5.419-.392z" fill="url(#ar)"/><path d="m73.815 91.831s3.24.14 6.201-.03c4.216-.24 6.202-1.144 6.202-1.144s.848.822 4.756 1.324c3.906.505 8.428.857 8.428.857s-5.539.166-9.33-.495c-2.832-.494-3.914-.783-3.914-.783s-4.15.789-6.924.663-5.419-.392-5.419-.392z" fill="url(#as)"/><path d="m67.755 97.836s3.24.14 6.201-.03c4.216-.24 6.202-1.144 6.202-1.144s.848.822 4.756 1.324c3.906.505 8.428.857 8.428.857s-5.539.166-9.33-.495c-2.832-.494-3.914-.783-3.914-.783s-4.15.789-6.924.663-5.419-.392-5.419-.392z" fill="url(#at)"/><path d="m48.664 98.403s4.437.191 8.491-.042c5.771-.329 8.491-1.565 8.491-1.565s1.163 1.126 6.513 1.813c5.349.691 11.541 1.174 11.541 1.174s-7.585.227-12.776-.678c-3.879-.677-5.361-1.073-5.361-1.073s-5.682 1.08-9.479.908-7.42-.537-7.42-.537z" fill="url(#au)"/><ellipse cx="17.938" cy="66.062" fill="#333" rx="1.313" ry=".313"/><path d="m19.583 68.916s-1.821-.15-1.99.927c-.387 2.473 9.806.877 17.579.675 7.416-.192 58.836-4.247 59.807-4.539 2.771-.833 3.57-2.221 3.57-2.221s-73.632 5.325-78.966 5.158z" fill="url(#av)"/><path d="m19.667 68.965s-1.777.027-1.748.542c4 .269 13.771-.174 21.176-.6 9.526-.548 57.114-4.283 58.114-4.386 1-.104 1.028-.685 1.028-.685s-73.237 5.232-78.57 5.129z" fill="url(#aw)"/><path d="m87.311 46.608 5.298-.457-.031-.541-5.284.385z" fill="#808080"/><path d="m87.438 47.968 2.312-1.565-2.391.196z" fill="#666"/><path d="m80.361 46.479.403 13.739.372-.062-.496-13.678z" fill="url(#ay)" opacity=".3"/><path d="m74.623 45.68.402 13.457.31.138-.457-13.564z" fill="url(#az)" opacity=".3"/><path d="m81.33 46.417.402 13.739.372-.062-.496-13.679z" fill="url(#aA)" opacity=".3"/><path d="m82.299 46.354.402 13.739.372-.062-.496-13.678z" fill="url(#aB)" opacity=".3"/><path d="m83.268 46.292.402 13.739.372-.062-.496-13.679z" fill="url(#aC)" opacity=".3"/><path d="m84.236 46.229.403 13.739.372-.062-.496-13.678z" fill="url(#aD)" opacity=".3"/><path d="m85.205 46.167.402 13.739.372-.062-.496-13.679z" fill="url(#aE)" opacity=".3"/><path d="m86.174 46.104.402 13.739.372-.062-.496-13.678z" fill="url(#aF)" opacity=".3"/><path d="m87.331 45.977 5.136-.387-6.096-.744-4.753.33z" fill="#ccc"/><path d="m79.645 48.479-4.453-.808-.066-1.513 4.496.665z" fill="url(#aG)"/><path d="m75.198 47.779 4.455.775.01-.104-4.48-.779z" fill="#666"/><path d="m75.133 46.285 4.493.692.006-.154-4.514-.646z" fill="#666"/><path d="m75.269 47.791-.118-.02-.033-1.594.117.019z" fill="#666"/><path d="m76.014 46.348h.117v1.557h-.117z" fill="#666"/><path d="m76.892 46.495h.118v1.556h-.118z" fill="#666"/><path d="m77.771 46.643h.119v1.556h-.119z" fill="#666"/><path d="m78.65 46.774h.119v1.556h-.119z" fill="#666"/><path d="m79.663 48.461h-.118l-.033-1.556h.118z" fill="#666"/><path d="m82.136 55.604-.646.073v-1.032l.646-.074z" fill="#666"/><path d="m85.948 55.229-.645.073v-1.032l.645-.074z" fill="#666"/><path d="m82.104 51.322-.645.074v-1.033l.645-.073z" fill="#666"/><path d="m85.917 50.947-.646.074v-1.033l.646-.073z" fill="#666"/><path d="m75.841 26.209c-2.968-.129-5.109 1.753-5.039 2.144-.3-.298-1.066-.65-3.025-.68-1.874-.028-2.417 1.039-3.033 1.245-.36-.262-1.634-1.138-3.028-1.245-2.262-.174-3.682 1.375-3.682 1.375s-1.668-.955-3.332-.85c-1.666.105-2.022.473-2.022.473s-.826.345-1.657.397c-.832.052-2.859-.083-4.524.076-1.664.158-2.496.315-3.804.367-1.308.053-12.599.105-3.922.473 0 0 8.401-.162 11.39-.162 4 0 7.428.383 11.828.278 4.396-.105 7.442-.09 10.414-.037 2.971.052 5.193-.204 6.489-.092 2.753.238 2.752-3.51-3.053-3.762z" fill="url(#aI)" opacity=".8"/><path d="m49.734 32.315c-1.65-1.06-2.838-1.179-4.739.484-.497.436-1.812-.875-1.783-.713-3.09 0-2.062.96-2.852.951-.755-.013-4.682.109-4.93.195-.146-.108-.434-.191-.997-.164-1.436.065-1.819.172-1.866.26-.048.085-.048.26-.048.26s-.24-.347-.91-.303c-.67.043-.813.194-.813.194s.19.129-.144.153c-.335.021-1.675-.023-2.345.042-.671.066-1.005.131-1.533.153-.525.021-5.073.042-1.578.195 0 0 4.115.021 5.313.151 1.196.131 1.866.173 3.637.131 1.771-.044 3.208-.153 4.405-.131 1.196.021 10.968.397 11.447.18s.62-1.47-.264-2.038z" fill="url(#aJ)" opacity=".4"/><path d="m83.218 34.275c.063-1.371-2.783-.842-3.739-.7-.951.142-2.176.883-2.159.917-.063-.026-.234-.275-.636-.277-.382-.003-.589.234-.715.252-.074-.023-.272-.207-.557-.201-.728.014-.87.203-.893.221-.025.018-.025.055-.025.055s-.144-.157-.482-.147c-.342.009-.391.125-.391.125s.097.027-.073.031c-.17.005-.849-.004-1.189.009-.339.014-.508.027-.775.032-.268.004-2.571.009-.801.041 0 0 2.086.005 2.692.032.606.028.947.037 1.844.028.896-.009 1.625-.032 2.232-.028.605.004 5.29.17 4.449.086-1.268-.125 1.177.422 1.218-.476z" fill="url(#aK)" opacity=".4"/><path d="m32.747 23.313c2.244 0 4.937-.163 5.924-.243.987-.082 2.435-.281 4.14-.281s3.31-.246 3.939-.165c.628.081 1.615.162 1.885.487.269.324-.897.326-1.832.326-.823 0-1.669.039-2.836.039s-1.436.04-2.962 0c-1.526-.041-8.258-.163-8.258-.163z" fill="url(#aL)" opacity=".5"/><path d="m42.599 24.751s5.146 0 6.224-.209c1.077-.209.119-1.255 2.034-.767s1.557.836 1.557.836.238-1.185 1.315-.767c1.078.418 3.183 1.552-.717 1.464-.841-.018-14.722-.348-14.722-.348z" fill="url(#aM)" opacity=".7"/><path d="m34.551 32.918c1.163-.733 7.993 3.621 10.323 4.258 8.274 2.263 14.823-1.388 16.501-.928 7.75 2.125 13.621 1 15.5 1 4.125 0 9.264 1.699 12.875 1.75 8.391.118 10.846 1.757 10.846 1.757l-89.096.244s17.115-4.338 23.051-8.081z" fill="url(#aN)"/><path d="m69.208 94.018c-.378.116-.984.066-1.225.034-.238-.039-.299.398-1.38.633-.539.116-.925.174-1.271.185-.024.045-.092.133-.097.217-.019.366.493.49.416.56-.07.06-.686.007-1.253-.358-.279-.183-.503-.547-.496-.632-.006-.001-1.179-.561-1.309-.975-.053-.151.039-.312-.152-.501-.135-.136-.229-.263-.061-.371.084-.055.163-.053.247-.037 0-.002-.006-.012-.004-.01 0 0 .044.006.06.011 0 0 .005.01.006.016.144.053.311.164.558.308.244.147.356.133.803.348.248-.023.687-.05.886.03.289.106.068.129-.043.156-.065.021-.188.053-.28.086.499.206 1.022.236 1.307.251.5.032 1.703-.128 1.806-.144.103-.011.148-.229.24-.539.096-.304.459-.374.459-.374s-.247.393.204.702c.483.334 1.02.167 1.02.167s-.065.117-.441.237z" fill="#231f20" opacity=".3"/><path d="m68.54 90.451c-.348-.287-.955-.375-1.197-.387-.243-.009-.226-.707-1.249-1.371-.515-.329-.881-.525-1.222-.634-.015-.081-.068-.236-.059-.373.045-.572.569-.626.509-.749-.06-.12-.673-.208-1.299.207-.305.205-.588.721-.595.857-.007 0-1.258.555-1.46 1.159-.075.228-.017.506-.238.747-.155.171-.271.343-.121.558.215.312.434.066.899-.203.27-.158.378-.113.854-.328.242.106.671.27.877.205.305-.089.092-.196-.016-.271-.061-.044-.175-.125-.261-.207.528-.187 1.05-.083 1.331-.033.498.09 1.657.674 1.755.719.1.045.104.399.144.907.038.509.389.719.389.719s-.178-.689.318-1.051c.534-.389 1.035.018 1.035.018s-.041-.205-.394-.489z" fill="url(#aO)"/><circle cx="62.388" cy="89.326" fill="#666" r=".106"/><path d="m61.902 90.613s.05-.24.314-.355c.296-.13.544-.212.601-.304.088-.142.026-.235.008-.3-.022-.075-.077-.038-.077.007 0 .043.142.151-.02.293-.071.063-.361.181-.528.237-.173.057-.381.288-.357.425 0 0 .044 0 .059-.003z" fill="#666"/><path d="m72.347 94.664c-.033-.371-.154-.511-.044-.98.111-.473.199-.563.219-.75.042-.373-.316-.418-.359-.135-.041.279-.058.703-.052 1.123.008.42.117.792.214.975.103.188-.186.339-.557.066-.37-.271-.503-.418-.617-.461-.196-.075-.557-.224-.75.107-.259.437.302.143.708.175.403.028 1.121.614 1.205.722 2.133 2.685 2.342 1.537.27-.414-.128-.12-.237-.428-.237-.428z" fill="url(#aP)" opacity=".5"/><path d="m33.544 70.611s5.192-.438 5.551-.48c1.165-.137 1.62-.386 2.124-.444.813-.094 1.024.307 1.024.307s.691 0 .941 0 .826-.02 1.743-.186 1.283-.333 1.533-.083.759-.579 1.259-.413 1.831.329 1.831.329-16.008 1.126-16.006.97z" fill="#fff"/><path d="m56 69.083c.917.083 2.168-.668 2.834-.584s1.834-.584 2.25-.25.666.334 1.666.167 1.916-.417 2.5-.25 1.666-.167 2.5-.167 5.638-.112 5.638-.112l-3.054.196s-5.94.735-10.387.987c-3.544.201-7.811.386-7.811.386z" fill="#fff"/><path d="m90.334 66.499s4.166-.166 5.416-.333 3.642-.404 4.476-.474c1.549-.129 3.5-.258 4-.258s5.024-.35 4.774-.517-3.684.046-4.517.13-3.733.035-4.483.035-1.082-.5-1.416-.5-.667.25-.667.25l-.583.583s-.418-.417-.834-.417-.916.25-.916.25l-.084.335s-.293-.309-.626-.309-.957.059-.957.309-.751-.25-1.167-.167-.916.417-.916.417-1.584.25-1.917.25-.334.166-1.167.166-5.854.806-5.854.806z" fill="#fff"/><path d="m55.6 117.198-46.1-26.598v-53.2l46.1-26.6 46.102 26.6v53.2zm-55.499-21.2 55.499 32 55.4-32v-63.999l-55.4-31.999-55.499 31.999z" fill="#0071bc"/><path d="m11.917 38.734 43.73-25.217 43.63 25.217v50.434l-43.63 25.218-43.73-25.218zm-2.301-1.401v53.236l46.031 26.618 46.03-26.618v-53.136l-46.03-26.618z" opacity=".13"/><path d="m17.516 71.112c1.298.621 3.313.821 4.809.874 3.892.308 9.854.328 18.363.224 0 0-5.213-.206-6.8-.617-1.585-.413-5.38-2.065-10.726-1.18-1.273.211-2.861.099-3.551.009-1.47-.191-.783-1.539.371-1.695-.831-.527-1.537-.164-1.537-.164-.418-1.033.773-1.083.773-1.083-.733-.218-2.361-.161-2.893 1.502-.196.615-.057 1.104.289 1.497.005.006.008.014.014.02.033.038.074.071.112.107.093.095.203.187.337.271.049.033.108.06.16.092.09.048.174.099.279.143z" fill="#fff" opacity=".7"/><path d="m19.633 67.849s.592.202.8.357c.207.156.257.498.522.303.522-.383-1.322-.66-1.322-.66z" fill="#fff" opacity=".7"/><path d="m20.432 69.642c-.219-.017-.139-.382-.484-.398-.198-.009-.242.055-.242.055s.174-.219.467-.088c.294.129.484.449.259.431z" fill="#fff" opacity=".7"/><path d="m14.858 68.707c.262.038.309-.564.719-.495.233.043.261.156.261.156s-.118-.398-.511-.272c-.392.122-.738.58-.469.611z" fill="#fff" opacity=".7"/><path d="m24.047 70.314s2.893-.688 5.379-.198c1.267.25 3.221 1.096 3.221 1.096s-1.989-.411-3.533-.643c-1.806-.271-5.067-.255-5.067-.255z" fill="#fff"/><path d="m19.276 71.679s-2.498-.545-2.896-1.554c-.341-.865-.125-.947.084-1.511.209-.566-1.538-1.186-1.538-1.186s.672-.026 1.937.703c.208.122.415.33.078.739-.327.397-.171 1.131.173 1.527.442.505.82.798 2.162 1.282z" fill="#fff"/><path d="m80.079 46.354-5.001-.714-.452.039 5.392.8 7.332-.486-.569-.082z" fill="#666"/><path d="m80.69 41.815s2.203-.477 1.966.418c-.141.531.917.061 1.172.203l-.25 1.234s-1.761.318-1.594-.375c.172-.714-1.297-.063-1.297-.063z" fill="#fff"/><path d="m79.778 45.733.878.125.009-.754-.886-.13z" fill="#ccc"/><path d="m80.665 45.104.813-.067.008.744-.83.077z" fill="#999"/><path d="m79.761 44.975.743-.05.974.112-.813.067z" fill="#e6e6e6"/><path d="m80.571 41.492h.15v3.526h-.15z" fill="#808080"/><circle cx="80.645" cy="41.521" fill="#808080" r=".158"/><path d="m82.391 43.733.266-1.313s.047-.328-.047-.516c-.109-.219-.734-.219-.734-.219l-.25 1.25s.443.063.365.281c-.176.491.4.517.4.517z" fill="url(#aQ)"/><path d="m58.544 55.605h16.787v5.179h-16.787z" fill="#009245" transform="matrix(.9979 -.0655 .0655 .9979 -3.6697 4.5117)"/><path d="m58.732 61.329-1.84-.81-.312-4.869 1.812.511z" fill="#39b54a"/><path d="m56.356 55.517 2.236.58 16.606-1.028-4.195-.491z" fill="#8cc63f"/><path d="m61.438 56.706h16.787v5.18h-16.787z" fill="#009245" transform="matrix(.9978 -.0656 .0656 .9978 -3.7389 4.708)"/><path d="m61.88 62.505-2.315-.838-.245-4.997 2.16.529z" fill="#39b54a"/><path d="m59.246 56.619 2.234.58 16.614-1.027-4.2-.491z" fill="#8cc63f"/><path d="m58.27 50.066h16.788v5.18h-16.788z" fill="#0071bc" transform="matrix(.9978 -.0656 .0656 .9978 -3.3086 4.4836)"/><path d="m58.457 55.791-1.84-.811-.311-4.869 1.812.511z" fill="#29abe2"/><path d="m56.306 50.111 1.812.511 16.808-1.09-4.197-.49z" fill="#0ff"/><path d="m61.3 51.141h16.787v5.179h-16.787z" fill="#c1272d" transform="matrix(.9978 -.0656 .0656 .9978 -3.3741 4.6869)"/><path d="m61.487 56.865-1.839-.574-.311-5.104 1.811.51z" fill="#ed1c24"/><path d="m59.337 51.187 1.811.51 16.809-1.091-4.198-.492z" fill="#f7931e"/><path d="m56.06 61.882-16.75 1.099-.338-5.168 16.754-1.099z" fill="#009245"/><path d="m39.31 62.981-1.84-.809-.313-4.87 1.815.511z" fill="#39b54a"/><path d="m36.933 57.17 2.234.58 16.611-1.027-4.197-.491z" fill="#8cc63f"/><path d="m42.016 58.36h16.788v5.178h-16.788z" fill="#7042a5" transform="matrix(.9978 -.0656 .0656 .9978 -3.8874 3.436)"/><path d="m42.204 64.083-1.841-.574-.441-5.215 1.942.622z" fill="#96c"/><path d="m39.827 58.271 2.113.663 16.73-1.109-4.195-.492z" fill="#c9f"/><path d="m38.849 51.72h16.786v5.179h-16.786z" fill="#c1272d" transform="matrix(.9979 -.0655 .0655 .9979 -3.4563 3.2114)"/><path d="m39.037 57.443-1.843-.81-.311-4.868 1.815.51z" fill="#ed1c24"/><path d="m36.883 51.765 1.815.51 16.804-1.09-4.196-.491z" fill="#f7931e"/><path d="m41.88 52.793h16.787v5.18h-16.787z" fill="#0071bc" transform="matrix(.9978 -.0656 .0656 .9978 -3.5244 3.4168)"/><path d="m42.068 58.518-1.842-.574-.312-5.224 1.815.629z" fill="#29abe2"/><path d="m39.914 52.72 1.815.629 16.805-1.09-4.196-.491z" fill="#0ff"/><path d="m21.492 58.91h16.788v5.181h-16.788z" fill="#009245" transform="matrix(.9978 -.0657 .0657 .9978 -3.9762 2.0965)"/><path d="m21.68 64.637-1.84-.574-.314-5.107 1.814.511z" fill="#39b54a"/><path d="m19.526 58.956 1.814.511 16.808-1.091-4.198-.49z" fill="#8cc63f"/><path d="m21.217 53.403h16.787v5.178h-16.787z" fill="#f7931e" transform="matrix(.9979 -.0655 .0655 .9979 -3.6025 2.0589)"/><path d="m21.404 59.125-1.841-.573-.313-5.224 1.815.63z" fill="#fbb03b"/><path d="m19.25 53.328 1.815.63 16.806-1.092-4.198-.49z" fill="#fcee21"/><path d="m58.367 44.654h16.786v5.18h-16.786z" fill="#f7931e" transform="matrix(.9979 -.0655 .0655 .9979 -2.9527 4.4768)"/><path d="m58.579 50.333-2.016-.654-.384-5.113 2.037.643z" fill="#fbb03b"/><path d="m56.179 44.566 2.037.643 16.807-1.09-4.197-.49z" fill="#fcee21"/><text fill="#961b2a" font-family="'Arial-BoldMT'" font-size="4.6681" transform="matrix(.9979 -.0643 .0643 .9979 23.2314 58.2695)">HTML</text><text fill="#01374f" font-family="'Arial-BoldMT'" font-size="4.6681" transform="matrix(.9979 -.0643 .0643 .9979 45.3867 57.5542)">XML</text><text fill="#5b0e08" font-family="'Arial-BoldMT'" font-size="2.9867" transform="matrix(.9979 -.0643 .0643 .9979 62.418 55.6196)">Javascript</text><text fill="#003a1d" font-family="'Arial-BoldMT'" font-size="4.6681" transform="matrix(.9979 -.0643 .0643 .9979 25.0542 63.71)">PHP</text><text fill="#003a1d" font-family="'Arial-BoldMT'" font-size="4.6681" transform="matrix(.9979 -.0643 .0643 .9979 65.501 61.2725)">C++</text><text fill="#2b1504" font-family="'Arial-BoldMT'" font-size="4.2846" transform="matrix(.9979 -.0643 .0643 .9979 47.3408 62.6973)">Go</text><path d="m38.636 46.287h16.786v5.181h-16.786z" fill="#ed1e79" transform="matrix(.9978 -.0657 .0657 .9978 -3.1074 3.193)"/><path d="m38.824 52.013-1.842-.575-.313-5.223 1.815.629z" fill="#f69"/><path d="m36.746 46.231 1.738.613 16.807-1.091-4.2-.491z" fill="#f9c"/><text fill="#961b2a" font-family="'Arial-BoldMT'" font-size="4.6681" transform="matrix(.9979 -.0643 .0643 .9979 61.5195 49.2451)">Java</text><text fill="#603" font-family="'Arial-BoldMT'" font-size="3.993" transform="matrix(.9979 -.0643 .0643 .9979 40.1182 50.8911)">Python</text><g fill="#fff" opacity=".5"><path d="m42.211 58.528-.177.006-.339-5.191 16.768-1.091-.004.238-16.49 1.093z"/><path d="m21.582 59.119-.178.006-.339-5.167 16.768-1.092-.004.215-16.49 1.092z"/><path d="m21.828 64.274-.178-.015-.339-4.796 16.769-1.09-.004.215-16.49 1.091z"/><path d="m39.208 57.437-.178.005-.339-5.167 16.769-1.091-.004.215-16.49 1.091z"/><path d="m39.038 51.995-.179.005-.338-5.167 16.769-1.091-.005.215-16.49 1.091z"/><path d="m42.358 63.501-.177.019-.304-4.587 16.769-1.091-.04.261-16.49 1.092z"/><path d="m58.754 50.404-.178.006-.338-5.225 16.77-1.091-.005.273-16.49 1.091z"/><path d="m61.659 56.854-.179.007-.335-5.168 16.768-1.091-.005.214-16.491 1.092z"/><path d="m62.005 61.956-.179.006-.339-4.744 16.572-1.091-.005.216-16.292 1.092z"/><path d="m40.217 57.95v-.233l-1.23.081.339 5.168.177-.007-.242-4.946z"/><path d="m58.14 50.612.102 1.555h.237l-.066-1.339 16.49-1.092.004-.215z"/><path d="m58.729 56.154v.234l.887-.06v-.232z"/></g><path d="m29.895 64.776c7.336 0 64.007-5.088 70.501-5.561-.006-.317-.006-.524-.006-.524s-63.29 5.595-70.984 5.595-19.881-2.623-19.881-2.623.209.19.67.528c1.518.318 12.548 2.585 19.7 2.585z" fill="#4d4d4d"/><g fill="none" stroke="#4d4d4d"><path d="m13.076 62.823v1.269" stroke-width=".5"/><path d="m17.117 63.396v1.348" stroke-width=".456"/><path d="m21.157 64.026v1.268" stroke-width=".5"/><path d="m25.198 64.447v1.268" stroke-width=".5"/><path d="m29.238 64.504v1.267" stroke-width=".5"/><path d="m33.279 64.309v1.267" stroke-width=".5"/><path d="m37.319 64.071v1.268" stroke-width=".5"/><path d="m41.36 63.694v1.268" stroke-width=".5"/><path d="m45.4 63.407v1.268" stroke-width=".5"/><path d="m49.441 63.13v1.268" stroke-width=".5"/><path d="m53.481 62.754v1.268" stroke-width=".5"/><path d="m57.521 62.378v1.268" stroke-width=".5"/><path d="m61.563 62.096v1.268" stroke-width=".5"/><path d="m65.604 61.751v1.268" stroke-width=".5"/><path d="m69.645 61.535v1.267" stroke-width=".5"/><path d="m73.686 61.153v1.267" stroke-width=".5"/><path d="m77.727 60.723v1.268" stroke-width=".5"/><path d="m81.768 60.384v1.267" stroke-width=".5"/><path d="m85.809 60.028v1.267" stroke-width=".5"/><path d="m89.85 59.687v1.268" stroke-width=".5"/><path d="m93.891 59.338v1.268" stroke-width=".5"/><path d="m97.932 59.074v1.267" stroke-width=".5"/></g></svg>