<?xml version="1.0" encoding="utf-8"?>
<!-- Generator: Adobe Illustrator 16.0.0, SVG Export Plug-In . SVG Version: 6.00 Build 0)  -->
<!DOCTYPE svg PUBLIC "-//W3C//DTD SVG 1.1//EN" "http://www.w3.org/Graphics/SVG/1.1/DTD/svg11.dtd">
<svg version="1.1" xmlns="http://www.w3.org/2000/svg" xmlns:xlink="http://www.w3.org/1999/xlink" x="0px" y="0px"
	 width="110.979px" height="128.417px" viewBox="0 0 110.979 128.417" enable-background="new 0 0 110.979 128.417"
	 xml:space="preserve">
<g id="Layer_1">
</g>
<g id="Layer_4">
	<g>
		<g>
			<g>
				<g>
					<g>
						<g>
							<polygon fill="#1F87BA" points="110.945,32.217 55.545,0.219 0.047,32.217 0.047,96.216 55.545,128.215 110.945,96.216 
															"/>
							<g>
								<g>
									<g>
										<defs>
											<polygon id="SVGID_1_" points="107.943,33.918 55.545,3.619 3.047,33.918 3.047,94.516 55.545,124.815 107.943,94.516 
																							"/>
										</defs>
										<clipPath id="SVGID_2_">
											<use xlink:href="#SVGID_1_"  overflow="visible"/>
										</clipPath>
										<g opacity="0.13" clip-path="url(#SVGID_2_)">
											<path d="M140.443,38.218c-2.7,0-57.098,12.299-101.897,22.5c-1.1,0.299,1.701-54.599,0.6-54.299
												c-30.599,7-59.998,67.897-59.998,67.897l-8.6,80.199c0,0,152.895-22.801,157.094-33.5
												C131.844,110.316,140.443,38.218,140.443,38.218z"/>
										</g>
									</g>
								</g>
								<g>
									<g>
										<defs>
											<polygon id="SVGID_3_" points="107.943,33.918 55.545,3.619 3.047,33.918 3.047,94.516 55.545,124.815 107.943,94.516 
																							"/>
										</defs>
										<clipPath id="SVGID_4_">
											<use xlink:href="#SVGID_3_"  overflow="visible"/>
										</clipPath>
										<g clip-path="url(#SVGID_4_)">
											<g>
												<path fill="#115D82" d="M29.247,27.618l-0.299,2.3c-0.4,2.5-1.4,4.899-2.9,7l-1.401,1.9l-1.899,1.399
													c-2.1,1.5-4.5,2.5-7,2.901l-2.3,0.299l-2.3-0.299c-2.5-0.4-5-1.4-6.999-2.901l-1.9-1.399l-1.4-1.9
													c-1.5-2.101-2.5-4.5-2.9-7l-0.3-2.3l0.3-2.3c0.4-2.5,1.4-4.9,2.9-6.999l1.4-1.9l1.9-1.399
													c2.099-1.5,4.5-2.501,6.999-2.901l2.3-0.3l2.3,0.3c2.5,0.4,4.9,1.401,7,2.901l1.899,1.399l1.401,1.9
													c1.5,2.1,2.5,4.5,2.9,6.999L29.247,27.618 M64.545,32.518v-9.7l-12.6-0.9c-1-6.499-3.5-12.499-7.3-17.599l8.3-9.5
													l-0.2-6.899h-6.7l-9.5,8.299c-5.101-3.8-11.1-6.3-17.6-7.3l5.8-12.599H8.347l-0.9,12.599c-6.5,1-12.5,3.5-17.599,7.3
													l-2.901-8.299h-6.7l-6.899,6.899l8.299,9.5c-3.799,5.1-6.299,11.1-7.299,17.599l-12.6,0.9v9.7l12.6,0.899
													c1,6.5,3.5,12.501,7.299,17.6l-8.299,9.5l6.899,6.9h6.7l2.901-8.3c5.1,3.8,11.099,6.299,17.599,7.3l0.9,12.6h6.7
													l3.899-12.6c6.5-1.001,12.5-3.5,17.6-7.3l9.5,8.3h6.7l0.2-6.9l-8.3-9.5c3.8-5.099,6.299-11.1,7.3-17.6L64.545,32.518
													L64.545,32.518z"/>
												<path fill="#FF7F00" d="M96.945,90.617l0.5,2.299c0.6,2.501,0.6,5.1-0.102,7.601l-0.599,2.3l-1.2,2
													c-1.299,2.199-3.2,4-5.398,5.299l-2.002,1.2l-2.3,0.501c-2.499,0.6-5.099,0.6-7.599-0.101l-2.301-0.601l-2-1.198
													c-2.199-1.301-4.001-3.201-5.3-5.401l-1.2-1.999l-0.499-2.4c-0.601-2.5-0.601-5.1,0.099-7.599l0.602-2.302l1.199-2
													c1.3-2.199,3.2-3.999,5.4-5.298l2-1.201l2.4-0.5c2.5-0.601,5.099-0.601,7.599,0.101l2.301,0.6l2,1.2
													c2.199,1.3,3.999,3.199,5.3,5.399L96.945,90.617 M131.643,82.016l3.101-9h-6.698l-12.002,3.9
													c-3.299-5.7-7.898-10.4-13.299-13.699l4.199-11.9l-2.3-3.8h-6.699l-5.8,11.2c-6.1-1.601-12.6-1.8-19-0.301l1.2-11.398
													h-6.699l-9,3.599l3.899,12c-5.7,3.299-10.299,7.9-13.599,13.3l-5.201-4.199h-6.699l-3.8,8.898l11.2,5.802
													c-1.6,6.1-1.801,12.599-0.301,18.998l-11.399,5.501l3.6,8.997h6.699l5.3-3.899c3.299,5.701,7.901,10.301,13.3,13.601
													l-4.199,11.9l8.898,3.8h6.7l-0.898-11.2c6.098,1.601,12.598,1.8,18.997,0.3l5.501,11.4h6.699l2.301-3.602l-3.901-11.999
													c5.7-3.299,10.3-7.9,13.6-13.298l11.902,4.198h6.697l-2.799-8.899l-11.199-5.7c1.6-6.1,1.8-12.6,0.298-18.998
													L131.643,82.016L131.643,82.016z"/>
											</g>
											<g>
												<path fill="#E3FBFF" d="M15.146,78.917h9.7l0.9-12.601c6.5-1,12.5-3.5,17.6-7.3l9.499,8.299l6.9-6.899l-8.299-9.499
													c3.798-5.1,6.3-11.099,7.299-17.599l12.601-0.901v-9.699l-12.601-0.9c-0.999-6.5-3.501-12.5-7.299-17.6l8.299-9.5
													l-6.9-6.9l-9.499,8.3c-5.1-3.8-11.1-6.3-17.6-7.3l-0.9-12.599h-9.7l-0.9,12.599c-6.5,1-12.5,3.5-17.599,7.3l-9.5-8.3
													l-6.9,6.9l8.3,9.5c-3.8,5.1-6.3,11.1-7.299,17.6l-12.6,0.9v9.699l12.6,0.901c1,6.5,3.499,12.5,7.299,17.599l-8.3,9.499
													l6.9,6.899l9.5-8.298c5.1,3.799,11.1,6.3,17.599,7.299L15.146,78.917z M17.647,43.118c-2.5-0.4-5-1.4-7-2.9l-1.9-1.4
													l-1.4-1.9c-1.5-2.101-2.5-4.5-2.9-7l-0.299-2.3l0.299-2.299c0.401-2.5,1.4-4.9,2.9-7l1.4-1.9l1.9-1.399
													c2.101-1.5,4.5-2.5,7-2.9l2.3-0.3l2.3,0.3c2.5,0.4,4.9,1.4,7,2.9l1.9,1.399l1.399,1.9c1.5,2.1,2.5,4.5,2.9,7l0.3,2.299
													l-0.3,2.3c-0.4,2.5-1.401,4.899-2.9,7l-1.399,1.9l-1.9,1.4c-2.1,1.5-4.5,2.5-7,2.9l-2.3,0.3L17.647,43.118z"/>
											</g>
											<g>
												<path fill="#FFFFFF" d="M97.845,134.515l5.499,11.4l9-3.601l-3.898-12c5.698-3.3,10.299-7.899,13.599-13.3l11.898,4.2
													l3.8-8.899l-11.199-5.801c1.601-6.1,1.8-12.6,0.301-18.998l11.397-5.501l-3.598-9l-12.001,3.9
													c-3.299-5.7-7.899-10.4-13.299-13.699l4.2-11.9l-8.9-3.8l-5.8,11.2c-6.1-1.601-12.6-1.8-18.999-0.301l-5.5-11.398
													l-8.999,3.599l3.899,12c-5.699,3.299-10.301,7.9-13.601,13.3l-11.899-4.199l-3.8,8.898l11.2,5.802
													c-1.599,6.099-1.8,12.599-0.299,18.997l-11.4,5.5l3.6,8.999l12-3.899c3.3,5.701,7.9,10.301,13.299,13.601l-4.2,11.9
													l8.9,3.8l5.799-11.2C84.946,135.915,91.445,136.015,97.845,134.515z M84.845,111.616l-2.3-0.6l-2.002-1.201
													c-2.198-1.299-3.998-3.2-5.299-5.398l-1.201-2l-0.499-2.301c-0.599-2.5-0.599-5.1,0.1-7.599l0.701-2.302l1.2-2
													c1.3-2.199,3.2-3.999,5.399-5.298l1.999-1.201l2.303-0.5c2.499-0.601,5.098-0.601,7.597,0.101l2.302,0.6l1.999,1.2
													c2.199,1.3,4.001,3.199,5.301,5.399l1.2,2.001l0.499,2.299c0.6,2.5,0.6,5.101-0.1,7.6l-0.601,2.299l-1.2,2.002
													c-1.3,2.199-3.2,3.999-5.399,5.299l-2,1.201l-2.3,0.499C89.944,112.316,87.344,112.316,84.845,111.616z"/>
											</g>
											<g>
												<path fill="#FFB000" d="M136.245,81.216l-10.101,4.8l-1.101,0.501l0.301,1.199c0.699,2.801,0.999,5.699,0.999,8.6
													c0,3.201-0.4,6.5-1.3,9.6l-0.301,1.201l1.102,0.6l9.898,5.1l-2.699,6.301l-10.499-3.7l-1.201-0.401l-0.699,1.101
													c-3.201,5.3-7.8,9.699-13.101,12.698l-1.1,0.601l0.401,1.201l3.399,10.6l-6.3,2.499l-4.8-10.1l-0.5-1.1l-1.2,0.299
													c-6,1.4-12.3,1.301-18.3-0.198l-1.2-0.301l-0.599,1.1l-5.102,9.899l-6.3-2.698l3.699-10.501l0.401-1.2l-1.1-0.699
													c-5.301-3.201-9.701-7.8-12.699-13.1l-0.601-1.101l-1.2,0.4l-10.601,3.4l-2.5-6.3l10.1-4.801l1.1-0.5l-0.3-1.199
													c-0.7-2.8-0.999-5.701-0.999-8.601c0-3.198,0.398-6.499,1.299-9.6l0.4-1.1l-1.1-0.6l-9.9-5.101l2.7-6.3l10.5,3.699
													l1.2,0.401l0.602-1c3.199-5.3,7.799-9.699,13.1-12.7l1.098-0.6l-0.398-1.3l-3.4-10.599l6.3-2.5l4.801,10.099
													l0.499,1.101l1.2-0.3c6-1.4,12.3-1.299,18.3,0.201l1.2,0.3l0.601-1.1l5.098-9.899l6.3,2.7l-3.7,10.5l-0.399,1.2
													l1.102,0.699c5.299,3.201,9.699,7.801,12.698,13.1l0.602,1.101l1.2-0.4l10.601-3.398L136.245,81.216 M138.242,82.016
													l-3.598-9l-12.001,3.9c-3.299-5.7-7.899-10.4-13.299-13.699l4.2-11.9l-8.9-3.8l-5.8,11.2
													c-6.1-1.601-12.6-1.8-18.999-0.301l-5.5-11.398l-8.999,3.599l3.899,12c-5.699,3.299-10.301,7.9-13.601,13.3
													l-11.899-4.199l-3.8,8.898l11.2,5.802c-0.9,3.198-1.3,6.6-1.3,9.999c0,2.999,0.3,6,1.1,8.998l-11.399,5.5l3.6,8.999
													l12-3.899c3.299,5.701,7.901,10.301,13.3,13.601l-4.2,11.9l8.899,3.8l5.799-11.2c6.101,1.601,12.601,1.8,19.001,0.3
													l5.499,11.4l8.999-3.602l-3.898-11.999c5.699-3.299,10.3-7.9,13.599-13.298l11.899,4.198l3.8-8.899l-11.198-5.8
													c0.898-3.2,1.299-6.599,1.299-9.999c0-3.001-0.299-6-1.099-9L138.242,82.016L138.242,82.016z"/>
											</g>
											<path fill="#472E1C" d="M74.246,47.117"/>
											<g>
												<g>
													<path fill="#0F6E93" d="M69.746,31.018l-11.1,0.799l-1.199,0.101l-0.201,1.2c-0.9,6.1-3.3,11.899-7,16.9l-0.699,0.999
														l0.799,0.9l7.299,8.399l-4.8,4.801l-8.398-7.3l-0.9-0.8l-1,0.7c-4.899,3.7-10.8,6.1-16.899,7l-1.2,0.2l-0.1,1.2
														l-0.8,11.101h-6.8l-0.9-11.001l-0.1-1.199l-1.2-0.2c-6.1-0.9-11.899-3.299-16.899-7l-1-0.701l-0.9,0.8l-8.4,7.3
														l-4.8-4.801l7.3-8.4l0.8-0.899l-0.701-1c-3.699-4.9-6.099-10.799-6.999-16.899l-0.2-1.2l-1.2-0.099l-11.1-0.8v-6.9
														l11.1-0.8l1.2-0.099l0.2-1.2c0.9-6.101,3.3-11.9,6.999-16.9l0.701-1l-0.8-0.9l-7.3-8.4l4.8-4.799l8.4,7.299l0.9,0.8
														l1-0.7c5-3.7,10.799-6.1,16.899-7l1.2-0.201l0.1-1.199l0.8-11.1h6.8l0.8,11.1l0.1,1.199l1.2,0.201
														c6.1,0.9,11.899,3.299,16.899,7l1,0.7l0.9-0.8l8.4-7.299l4.8,4.799l-7.301,8.4l-0.8,0.9l0.701,1
														c3.7,5.001,6.1,10.8,6.999,16.9l0.2,1.2l1.201,0.099l11.199,0.8V31.018 M71.245,32.518v-9.7l-12.599-0.9
														c-1.001-6.499-3.5-12.499-7.3-17.599l8.3-9.5l-6.9-6.899l-9.5,8.299c-5.1-3.8-11.1-6.3-17.599-7.3l-0.9-12.599h-9.7
														l-0.9,12.599c-6.5,1-12.5,3.5-17.6,7.3l-9.5-8.299l-6.9,6.899l8.3,9.5c-3.8,5.1-6.3,11.1-7.3,17.599l-12.6,0.9v9.7
														l12.6,0.899c1,6.5,3.5,12.501,7.3,17.6l-8.3,9.5l6.9,6.9l9.5-8.3c5.1,3.8,11.1,6.299,17.6,7.3l0.9,12.6h9.7l0.9-12.6
														c6.5-1.001,12.499-3.5,17.599-7.3l9.5,8.3l6.9-6.9l-8.3-9.5c3.8-5.099,6.299-11.1,7.3-17.6L71.245,32.518
														L71.245,32.518z"/>
												</g>
											</g>
										</g>
									</g>
								</g>
							</g>
						</g>
					</g>
				</g>
			</g>
		</g>
		<g>
			<path fill="#115D82" d="M101.544,90.816l-46.098,26.599L9.347,90.816V37.618l46.099-26.599l46.098,26.599V90.816 M110.945,96.216
				V32.218l-55.499-32l-55.399,32v63.998l55.399,31.999L110.945,96.216L110.945,96.216z"/>
			<g opacity="0.13">
				<path d="M99.145,89.416l-43.699,25.2l-43.599-25.2V39.018l43.599-25.2l43.699,25.2V89.416 M101.443,90.816V37.618L55.446,11.019
					L9.448,37.618v53.098l45.999,26.599L101.443,90.816L101.443,90.816z"/>
			</g>
		</g>
	</g>
</g>
<g id="Layer_3">
</g>
<g id="Layer_2">
</g>
</svg>
