<?xml version="1.0" encoding="UTF-8" standalone="no"?>
<!-- Generator: Adobe Illustrator 21.0.2, SVG Export Plug-In . SVG Version: 6.00 Build 0)  -->

<svg
   xmlns:dc="http://purl.org/dc/elements/1.1/"
   xmlns:cc="http://creativecommons.org/ns#"
   xmlns:rdf="http://www.w3.org/1999/02/22-rdf-syntax-ns#"
   xmlns:svg="http://www.w3.org/2000/svg"
   xmlns="http://www.w3.org/2000/svg"
   xmlns:sodipodi="http://sodipodi.sourceforge.net/DTD/sodipodi-0.dtd"
   xmlns:inkscape="http://www.inkscape.org/namespaces/inkscape"
   version="1.1"
   x="0px"
   y="0px"
   viewBox="0 0 110.979 128.417"
   enable-background="new 0 0 110.979 128.417"
   xml:space="preserve"
   id="svg476"
   sodipodi:docname="connector.svg"
   inkscape:version="0.92.2 5c3e80d, 2017-08-06"><metadata
     id="metadata482"><rdf:RDF><cc:Work
         rdf:about=""><dc:format>image/svg+xml</dc:format><dc:type
           rdf:resource="http://purl.org/dc/dcmitype/StillImage" /><dc:title></dc:title></cc:Work></rdf:RDF></metadata><defs
     id="defs480"><radialGradient
       gradientUnits="userSpaceOnUse"
       r="49.6877"
       cy="64.6317"
       cx="56.0982"
       id="SVGID_1_"><stop
         id="stop11"
         style="stop-color:#FFF200"
         offset="0" /><stop
         id="stop13"
         style="stop-color:#F7941E"
         offset="1" /></radialGradient><radialGradient
       gradientUnits="userSpaceOnUse"
       r="31.3333"
       cy="66.2647"
       cx="56.0515"
       id="SVGID_2_"><stop
         id="stop468"
         style="stop-color:#FFF200"
         offset="0.099" /><stop
         id="stop470"
         style="stop-color:#FFF200;stop-opacity:0"
         offset="1" /></radialGradient></defs><sodipodi:namedview
     pagecolor="#ffffff"
     bordercolor="#666666"
     borderopacity="1"
     objecttolerance="10"
     gridtolerance="10"
     guidetolerance="10"
     inkscape:pageopacity="0"
     inkscape:pageshadow="2"
     inkscape:window-width="1440"
     inkscape:window-height="779"
     id="namedview478"
     showgrid="false"
     inkscape:zoom="1.8377628"
     inkscape:cx="55.489498"
     inkscape:cy="64.208504"
     inkscape:window-x="0"
     inkscape:window-y="1"
     inkscape:window-maximized="1"
     inkscape:current-layer="svg476" /><g
     id="Layer_1" /><g
     id="Layer_4" /><g
     id="Layer_63_23_"><g
       id="g8"><g
         id="g6"><polygon
           style="fill:#008cff"
           id="polygon4"
           points="0.104,96.351 0.104,32.351 55.528,0.351 110.954,32.351 110.954,96.351 55.528,128.351 " /></g></g></g><path
     inkscape:connector-curvature="0"
     style="fill:url(#SVGID_1_)"
     id="path16"
     d="m 102.098,38.062 v 53.14 l -0.01,0.01 -0.02,0.01 -0.41,0.24 -0.37,0.21 -0.62,0.35 -4.15,2.39 -0.01,0.01 -0.13,0.08 -0.06,0.03 -0.55,0.32 -0.8,0.45 -0.1,0.06 -0.48,0.28 -1.13,0.65 -0.85,0.49 -0.74,0.43 -0.24,0.13 -0.13,0.05 -0.11,0.07 -1,0.57 -0.03,0.02 -2,1.15 -0.51,0.29 -0.14,0.08 -0.03,0.02 -0.14,0.08 -0.01,0.01 -1.04,0.59 -0.04,0.03 -0.07,0.04 -1.16,0.67 -0.45,0.26 -0.02,0.02 h -0.01 l -0.42,0.24 -1.12,0.65 -0.87,0.52 -1.18,0.67 -0.08,0.05 -0.12,0.07 -0.04,0.03 -0.04,0.02 -0.02,0.01 -0.1,0.06 -0.29,0.17 -0.03,0.01 -0.16,0.09 v 0.01 l -0.4,0.23 -0.27,0.16 -0.11,0.06 -0.18,0.09 -0.02,0.02 -0.04,0.02 -0.69,0.39 -0.06,0.04 -0.24,0.14 -0.02,0.01 -0.29,0.17 -0.15,0.08 -0.22,0.13 -0.24,0.14 h -0.01 l -0.42,0.25 -0.29,0.17 -0.03,0.02 -0.3,0.17 -1.36,0.79 -0.5,0.29 -0.25,0.14 -0.7,0.4 -0.03,0.02 h -0.01 l -0.31,0.18 -0.05,0.03 -0.24,0.15 -0.84,0.48 -0.63,0.36 -0.06,0.03 -0.5,0.29 c -0.01,0.01 -0.01,0.01 -0.01,0 l -0.53,0.31 -0.29,0.17 -0.76,0.44 -0.05,0.03 -0.05,0.03 -0.03,0.01 c 0,0.01 -0.01,0.01 -0.01,0.01 l -0.02,0.02 -0.25,0.14 -1,0.58 -0.17,0.1 -0.04,0.02 -0.38,0.22 -1.42,0.82 -0.36,0.21 -0.09,0.05 -0.24,0.14 -0.8,0.46 -0.26,0.15 -0.28,0.16 -0.01,0.01 -0.2,0.12 -0.23,0.13 -0.35,0.2 -0.83,0.48 -0.01,0.01 -0.09,0.05 -1.32,0.76 -0.02,0.01 -0.79,0.46 -0.61,0.35 h -0.01 l -1.41,0.81 -0.02,0.02 -0.19,0.1 -0.06,0.04 -0.56,0.32 h -0.01 l -0.13,0.08 -0.19,0.11 -0.27,0.16 h -0.01 l -0.2,0.12 -0.06,-0.03 -1.14,-0.66 -0.02,-0.01 -0.2,-0.12 -0.85,-0.49 -0.03,-0.01 -0.33,-0.19 -0.01,-0.01 -1.4,-0.81 -0.01,-0.01 -0.02,-0.01 -1.37,-0.79 -0.03,-0.02 h -0.01 l -0.83,-0.48 -0.06,-0.04 -0.34,-0.19 -0.18,-0.11 -0.02,-0.01 -0.66,-0.38 -0.04,-0.03 -0.09,-0.05 -0.1,-0.06 -0.13,-0.07 -0.27,-0.16 -0.12,-0.07 h -0.01 l -0.72,-0.42 -0.24,-0.13 -0.39,-0.23 -0.05,-0.03 -0.03,-0.02 -1.4,-0.81 h -0.01 l -0.11,-0.07 -0.37,-0.22 h -0.01 l -0.27,-0.16 -0.62,-0.36 -0.03,-0.01 -0.06,-0.04 -0.04,-0.02 -1.29,-0.75 -0.39,-0.23 -0.68,-0.39 -0.58,-0.33 -0.11,-0.06 -1,-0.58 -1.72,-1 c -0.01,-0.01 -0.02,-0.02 -0.03,-0.02 l -1.32,-0.76 -3.92,-2.26 -0.16,-0.09 -0.57,-0.33 -0.47,-0.27 -0.44,-0.26 -0.3,-0.17 -0.38,-0.22 -0.99,-0.58 -0.04,-0.02 -2.74,-1.59 -0.1,-0.06 -0.18,-0.1 -0.67,-0.38 -0.82,-0.47 -0.09,-0.05 -0.5,-0.29 -0.01,-0.01 -0.08,-0.05 h -0.01 l -0.12,-0.07 h -0.01 l -0.31,-0.18 -0.73,-0.42 c -0.01,-0.01 -0.01,-0.01 -0.02,-0.01 l -1.86,-1.08 -1.02,-0.59 -2.11,-1.23 -0.09,-0.05 -0.2,-0.12 c 0,0 -0.01,0 -0.02,-0.01 l -0.28,-0.16 -0.53,-0.3 -0.82,-0.48 -0.06,-0.04 h -0.01 c 0,0 0,0 -0.01,0 l -0.49,-0.29 -0.7,-0.4 -0.68,-0.39 -1.22,-0.71 -0.1,-0.06 h -0.01 l -0.33,-0.19 -0.41,-0.24 h -0.01 l -0.43,-0.25 -0.99,-0.57 -0.08,-0.04 -0.03,-0.02 v -53.14 l 0.78,-0.45 1.59,-0.92 0.36,-0.21 3.38,-1.95 1.06,-0.61 5.78,-3.34 h 0.01 l 0.91,-0.52 1.05,-0.62 1.82,-1.05 h 0.01 l 0.87,-0.51 3.63,-2.08 0.64,-0.38 0.94,-0.54 0.17,-0.09 1.66,-0.95 0.78,-0.45 0.38,-0.22 0.44,-0.26 0.67,-0.39 0.43,-0.26 0.52,-0.3 0.5,-0.28 0.59,-0.34 1.19,-0.68 0.69,-0.41 0.75,-0.43 0.65,-0.37 h 0.01 l 0.05,-0.03 0.43,-0.25 5.29,-3.05 0.11,-0.06 0.08,-0.05 0.27,-0.16 5.52,-3.19 0.55,-0.32 1.44,-0.83 0.51,0.3 1.09,0.63 2.86,1.65 3.09,1.79 2.6,1.5 0.22,0.13 4.69,2.7 0.98,0.57 5.13,2.96 0.91,0.52 1.04,0.61 2.3,1.31 0.87,0.5 0.69,0.4 0.83,0.48 0.49,0.28 0.58,0.34 0.3,0.17 0.8,0.46 0.09,0.06 1.81,1.04 2.16,1.24 1.12,0.65 0.5,0.29 0.04,0.03 v 0.01 l 0.26,0.14 0.66,0.39 1.46,0.84 1.94,1.12 0.78,0.44 0.44,0.25 0.49,0.28 1.45,0.84 0.17,0.1 0.85,0.49 z" /><g
     id="Layer_2_19_"><g
       id="Layer_16_19_"><path
         style="opacity:0.12999998"
         inkscape:connector-curvature="0"
         id="path74"
         d="m 56.158,11.572 -46.07,26.56 v 53.12 l 1.67,0.96 0.63,0.37 h 0.01 l 14.8,8.53 4.01,2.31 1.04,0.6 2.18,1.26 0.49,0.28 0.44,0.26 0.36,0.21 3.13,1.8 3.31,1.91 1.29,0.74 v 0.01 l 12.71,7.32 46.07,-26.56 v -53.12 z m 44.21,78.61 -44.21,25.49 -12.51,-7.21 -17.89,-10.32 -13.81,-7.96 v -50.97 l 44.21,-25.49 44.21,25.49 z"
         enable-background="new    " /></g></g><g
     id="g1767"
     transform="matrix(0.14112903,0,0,0.14112903,21.428001,23.342001)"><path
       id="path1648"
       d="M 432,248 C 432,349.62109 349.62109,432 248,432 146.37891,432 64,349.62109 64,248 64,146.37891 146.37891,64 248,64 c 101.62109,0 184,82.37891 184,184 z m 0,0"
       inkscape:connector-curvature="0"
       style="fill:#b4dd7f" /><path
       id="path1650"
       d="M 360.07812,376.16016 C 360,376.07812 360,376 360,376 l -57.19922,17.12109 C 289.28125,397.19922 280,409.67969 280,423.83984 V 488 h 208 v -64.16016 c 0,-14.16015 -9.28125,-26.64062 -22.80078,-30.71875 L 408,376 c 0,0 0,0.0781 -0.0781,0.16016 z m 0,0"
       inkscape:connector-curvature="0"
       style="fill:#e6e9ed" /><path
       id="path1652"
       d="m 392,424 8,64 h -32 l 8,-64 z m 0,0"
       inkscape:connector-curvature="0"
       style="fill:#ff826e" /><path
       id="path1654"
       d="M 407.92187,376.16016 392,424 H 376 L 360.07812,376.16016 C 361.03906,377.92188 368.96094,392 384,392 c 15.03906,0 22.96094,-14.07813 23.92187,-15.83984 z m 0,0"
       inkscape:connector-curvature="0"
       style="fill:#ff826e" /><path
       id="path1656"
       d="M 88.078125,376.16016 C 88,376.07812 88,376 88,376 L 30.800781,393.12109 C 17.28125,397.19922 8,409.67969 8,423.83984 V 488 h 208 v -64.16016 c 0,-14.16015 -9.28125,-26.64062 -22.80078,-30.71875 L 136,376 c 0,0 0,0.0781 -0.0781,0.16016 z m 0,0"
       inkscape:connector-curvature="0"
       style="fill:#e6e9ed" /><path
       id="path1658"
       d="m 120,424 8,64 H 96 l 8,-64 z m 0,0"
       inkscape:connector-curvature="0"
       style="fill:#ef7385" /><path
       id="path1660"
       d="M 135.92187,376.16016 120,424 H 104 L 88.078125,376.16016 C 89.039062,377.92188 96.960938,392 112,392 c 15.03906,0 22.96094,-14.07813 23.92187,-15.83984 z m 0,0"
       inkscape:connector-curvature="0"
       style="fill:#ed5565" /><path
       id="path1662"
       d="m 383.76172,360 c 8.8789,0 17.11719,-2.32031 24.23828,-6.48047 V 376 c 0,0 0,0.0781 -0.0781,0.16016 C 406.96094,377.92187 399.03906,392 384,392 368.96094,392 361.03906,377.92187 360.07812,376.16016 360,376.07813 360,376 360,376 V 354.23828 C 366.71875,357.92188 374.39844,360 382.55859,360 Z m 0,0"
       inkscape:connector-curvature="0"
       style="fill:#f5e0cd" /><path
       id="path1664"
       d="m 360,354.23828 c -14.32031,-8 -24.07813,-23.27734 -24.07813,-40.87891 L 336,289.12109 c 0,-0.40234 0,-0.72265 0.0781,-1.12109 10.5625,0 20.80079,-2.48047 30.24219,-7.12109 L 368,280 l 15.67969,5.19922 C 389.19922,287.03906 394.96094,288 400.71875,288 h 2.40234 c 10.32032,0 20.16016,-2.96094 28.64063,-8.32031 L 432,280 v 32 c 0,17.67969 -9.60156,33.19922 -24,41.51953 C 400.87891,357.67969 392.64062,360 383.76172,360 h -1.20313 C 374.39844,360 366.71875,357.92187 360,354.23828 Z m 0,0"
       inkscape:connector-curvature="0"
       style="fill:#f5e0cd" /><g
       id="g1676"
       style="fill:#b27946"><path
         id="path1666"
         d="M 437.28125,260.39844 448,264 c -4.23828,6.48047 -9.83984,11.76172 -16.23828,15.67969 C 423.28125,285.03906 413.44141,288 403.12109,288 h -2.40234 c -5.75781,0 -11.51953,-0.96094 -17.03906,-2.80078 L 368,280 l -1.67969,0.87891 C 356.87891,285.51953 346.64062,288 336.07812,288 c 0.24219,-12.39844 5.04297,-23.51953 12.88282,-32 H 352 v -3.03906 C 360.71875,244.87891 372.32031,240 385.12109,240 c 9.67969,0 19.19922,2.87891 27.27735,8.23828 5.76172,3.83984 11.92187,7.12109 18.32031,9.76172 2.16016,0.87891 4.32031,1.67969 6.5625,2.39844 z m 0,0"
         inkscape:connector-curvature="0" /><path
         id="path1668"
         d="M 200,53.28125 C 200,28.238281 220.23828,8 245.28125,8 c 12,0 23.51953,4.800781 32,13.28125 L 280,24 c 9.83984,4.878906 16,14.960938 16,25.921875 V 56 H 267.28125 C 260.07812,56 253.12109,53.121094 248,48 c -5.12109,5.121094 -12.07813,8 -19.28125,8 H 200 Z m 0,0"
         inkscape:connector-curvature="0" /><path
         id="path1670"
         d="M 166.23828,333.44141 C 170.32031,343.28125 176.32031,352.32031 184,360 c -10.23828,10.23828 -24.16016,16 -38.64063,16 H 136 V 353.51953 C 150.32031,345.28125 160,329.76172 160,312 v -9.92188 c 0,10.88282 2.16016,21.44141 6.23828,31.36329 z m 0,0"
         inkscape:connector-curvature="0" /><path
         id="path1672"
         d="m 144,256 c 9.83984,4.87891 16,14.96094 16,25.92187 V 296 H 145.28125 C 128.55859,296 111.92188,293.28125 96,288 l -1.679688,0.87891 C 84.878906,293.51953 74.558594,296 64,296 v -10.71875 c 0,-4.5625 0.71875,-9.04297 1.921875,-13.20313 2.238281,-7.19921 6.15625,-13.67968 11.359375,-18.79687 8.160156,-8.24219 19.519531,-13.28125 32,-13.28125 12,0 23.51953,4.80078 32,13.28125 z m 0,0"
         inkscape:connector-curvature="0" /><path
         id="path1674"
         d="M 88,353.51953 V 376 H 78.640625 C 64.160156,376 50.238281,370.23828 40,360 55.359375,344.64062 64,325.76172 64,304 v 8 c 0,13.28125 5.359375,25.28125 14.078125,33.92187 2.960937,2.95704 6.242187,5.51954 9.921875,7.59766 z m 0,0"
         inkscape:connector-curvature="0" /></g><path
       id="path1678"
       d="M 136,353.51953 V 376 c 0,0 0,0.0781 -0.0781,0.16016 C 134.96094,377.92187 127.03906,392 112,392 96.960938,392 89.039062,377.92187 88.078125,376.16016 88,376.07813 88,376 88,376 V 353.51953 C 95.039062,357.67969 103.19922,360 112,360 c 8.80078,0 16.96094,-2.32031 24,-6.48047 z m 0,0"
       inkscape:connector-curvature="0"
       style="fill:#f0d0b4" /><path
       id="path1680"
       d="M 136,353.51953 C 128.96094,357.67969 120.80078,360 112,360 c -8.80078,0 -16.960938,-2.32031 -24,-6.48047 -3.679688,-2.07812 -6.960938,-4.64062 -9.921875,-7.59766 C 69.359375,337.28125 64,325.28125 64,312 v -16 c 10.558594,0 20.878906,-2.48047 30.320312,-7.12109 L 96,288 c 15.92188,5.28125 32.55859,8 49.28125,8 H 160 v 16 c 0,17.76172 -9.67969,33.28125 -24,41.51953 z m 0,0"
       inkscape:connector-curvature="0"
       style="fill:#f0d0b4" /><path
       id="path1682"
       d="M 224.07812,144.16016 C 224,144.07812 224,144 224,144 l -57.19922,17.12109 C 153.28125,165.19922 144,177.67969 144,191.83984 V 256 h 204.96094 c 0.39843,-0.55859 0.8789,-1.03906 1.4375,-1.60156 0.5625,-0.5586 1.04297,-1.03907 1.60156,-1.4375 v -61.1211 c 0,-14.16015 -9.28125,-26.64062 -22.80078,-30.71875 L 272,144 c 0,0 0,0.0781 -0.0781,0.16016 z m 0,0"
       inkscape:connector-curvature="0"
       style="fill:#e6e9ed" /><path
       id="path1684"
       d="m 256,192 8,64 h -32 l 8,-64 z m 0,0"
       inkscape:connector-curvature="0"
       style="fill:#ff826e" /><path
       id="path1686"
       d="M 271.92187,144.16016 256,192 H 240 L 224.07812,144.16016 C 225.03906,145.92187 232.96094,160 248,160 c 15.03906,0 22.96094,-14.07813 23.92187,-15.83984 z m 0,0"
       inkscape:connector-curvature="0"
       style="fill:#ff826e" /><path
       id="path1688"
       d="M 224,121.51953 248,128 c 8.80078,0 16.96094,-2.32031 24,-6.48047 V 144 c 0,0 0,0.0781 -0.0781,0.16016 C 270.96094,145.92187 263.03906,160 248,160 232.96094,160 225.03906,145.92187 224.07812,144.16016 224,144.07812 224,144 224,144 Z m 0,0"
       inkscape:connector-curvature="0"
       style="fill:#f0d0b4" /><path
       id="path1690"
       d="M 296,70.320312 V 80 c 0,17.761719 -9.67969,33.28125 -24,41.51953 C 264.96094,125.67969 256.80078,128 248,128 l -24,-6.48047 c -3.67969,-2.07812 -6.96094,-4.64062 -9.92188,-7.59765 C 205.35937,105.28125 200,93.28125 200,80 V 56 h 28.71875 c 7.20312,0 14.16016,-2.878906 19.28125,-8 5.12109,5.121094 12.07812,8 19.28125,8 H 296 Z m 0,0"
       inkscape:connector-curvature="0"
       style="fill:#f0d0b4" /><path
       id="path1692"
       d="M 467.49609,385.49609 416,370.04687 V 357.81641 C 430.48828,347.67187 440,330.9375 440,312 v -28.14453 c 5.65625,-4.19141 10.63281,-9.38281 14.65625,-15.42188 l 5.80859,-8.71484 -20.57031,-6.85547 C 439.9375,251.24609 440,249.63281 440,248 440,163.44922 384.34375,88.9375 304,64.457031 V 49.886719 c 0,-13.621094 -7.32812,-25.910157 -19.20703,-32.414063 l -1.88281,-1.871094 C 272.85547,5.535156 259.48828,0 245.25781,0 215.88672,0 192,23.886719 192,53.257812 V 64.457031 C 111.65625,88.9375 56,163.44922 56,248 c 0,8.23828 0.535156,16.51953 1.574219,24.625 C 56.585938,276.67969 56,280.89453 56,285.25781 V 304 c 0,19.03125 -7.289062,35.97656 -21.65625,50.34375 L 28.679688,360 l 5.664062,5.65625 c 5.351562,5.35156 11.535156,9.55078 18.214844,12.61719 l -24.054688,7.21484 C 11.457031,390.60937 0,406.00781 0,423.81641 V 496 h 224 v -57.67188 c 7.95313,0.99219 15.96875,1.67188 24,1.67188 8.03125,0 16.04688,-0.67969 24,-1.67188 V 496 h 224 v -72.18359 c 0,-17.8086 -11.45703,-33.20704 -28.50391,-38.32032 z M 383.0625,432 h 1.88281 l 6,48 H 377.0625 Z m 3.16797,-16 h -4.46875 l -5.6836,-17.03125 C 378.53516,399.60937 381.15234,400 384,400 c 2.84766,0 5.46484,-0.39063 7.91016,-1.03125 z M 400,373.80078 C 398.01562,376.86328 392.50391,384 384,384 c -8.50391,0 -14.01563,-7.14453 -16,-10.19922 V 366 c 4.6875,1.28906 9.56641,2 14.55859,2 h 1.21094 c 5.63672,0 11.08594,-0.85547 16.23047,-2.39844 z M 424,312 c 0,22.05469 -18.04688,40 -40.23047,40 h -1.21094 c -10.32031,0 -20.01562,-4.01563 -27.3125,-11.3125 -7.28515,-7.29688 -11.30078,-17 -11.29297,-27.32031 l 0.008,-17.79297 c 8.51172,-0.91016 16.88672,-3.26172 24.63281,-6.94141 l 12.58203,4.19141 C 387.51172,294.92969 394.09766,296 400.74219,296 h 2.41015 c 7.21485,0 14.2461,-1.24609 20.83985,-3.60156 V 312 Z M 296,192 v 56 h -24.9375 l -6.89453,-55.19141 12.97656,-38.92187 49.75781,14.92969 c 10.22657,3.07031 17.09766,12.32031 17.09766,23 V 248 h -32 v -56 z m -112,0 v 56 h -32 v -56.18359 c 0,-10.67969 6.87109,-19.92188 17.10547,-22.99219 l 49.75781,-14.92969 12.97656,38.92188 L 224.9375,248 H 200 V 192 Z M 72,304 v -0.44922 c 8.519531,-0.91016 16.894531,-3.25391 24.640625,-6.93359 C 112.40625,301.51172 128.76172,304 145.29687,304 H 152 v 8 c 0,22.05469 -17.94531,40 -40,40 -22.054688,0 -40,-17.94531 -40,-40 z m 37.25781,-56 c 9.95703,0 19.3086,3.87109 26.34375,10.92187 l 3.66406,3.65235 1.16016,0.57812 C 147.55859,266.72656 152,273.90234 152,281.88672 V 288 h -6.70313 c -15.92187,0 -31.65624,-2.55078 -46.769526,-7.58594 l -3.144532,-1.05469 -4.648437,2.32813 C 84.863281,284.625 78.496094,286.51953 72,287.39844 v -2.14063 C 72,264.71094 88.710938,248 109.25781,248 Z M 112,368 c 5.55859,0 10.92969,-0.83984 16,-2.35938 v 8.15235 C 126.01563,376.86328 120.50391,384 112,384 c -8.50391,0 -14.015625,-7.14453 -16,-10.19922 v -8.15234 C 101.07031,367.16016 106.44141,368 112,368 Z m -0.9375,64 h 1.88281 l 6,48 H 105.0625 Z m 3.16797,-16 h -4.46875 l -5.68359,-17.03125 C 106.52734,399.60937 109.15234,400 112,400 c 2.84766,0 5.47266,-0.39063 7.91016,-1.03125 z M 144,368 v -10.11328 c 6.67969,-4.67188 12.27344,-10.76563 16.39062,-17.83203 3.19532,6.84765 7.25782,13.30468 12.15235,19.22656 C 164.66406,364.94531 155.25781,368 145.36719,368 Z M 208,64 h 20.6875 C 235.65625,64 242.3125,62 248,58.265625 253.6875,62 260.34375,64 267.3125,64 H 288 v 16 c 0,22.05469 -17.94531,40 -40,40 -22.05469,0 -40,-17.94531 -40,-40 z m 42.23047,120 h -4.46875 l -5.6836,-17.03125 C 242.53516,167.60937 245.15234,168 248,168 c 2.84766,0 5.46484,-0.39063 7.91016,-1.03125 z M 248,136 c 5.55859,0 10.92969,-0.83984 16,-2.35938 v 8.15235 C 262.01562,144.86328 256.50391,152 248,152 c -8.50391,0 -14.01563,-7.14453 -16,-10.19922 v -8.15234 C 237.07031,135.16016 242.44141,136 248,136 Z m -0.9375,64 h 1.88281 l 6,48 H 241.0625 Z m 156.09766,80 h -2.40625 c -4.9375,0 -9.81641,-0.79297 -14.51563,-2.35156 l -18.84766,-6.28907 -4.64843,2.32813 c -5.51953,2.76172 -11.47657,4.64844 -17.57422,5.60156 C 349.60156,261.34375 365.83203,248 385.12109,248 c 8.15235,0 16.03907,2.39062 22.82422,6.91016 8.16016,5.4414 17.01563,9.80078 26.32813,12.9375 C 425.89453,275.58594 414.83984,280 403.16016,280 Z m 20.74218,-34.32813 c -2.38281,-1.3125 -4.8125,-2.55078 -7.07812,-4.07031 C 407.39844,235.32031 396.44141,232 385.12891,232 c -9.01563,0 -17.52735,2.16016 -25.1211,5.89453 v -46.08594 c 0,-17.80859 -11.45703,-33.19922 -28.5039,-38.32031 L 280,138.04687 v -12.16015 c 14.17578,-9.91797 23.54297,-26.207032 23.9375,-44.687501 70.42969,23.593751 118.96484,89.542971 119.96484,164.472651 z M 245.25781,16 c 9.95703,0 19.3086,3.871094 26.34375,10.921875 l 3.66407,3.652344 1.16015,0.578125 c 6.5586,3.28125 10.66406,9.648437 11.30859,16.839844 H 267.3125 c -5.16016,0 -10.00781,-2.007813 -13.65625,-5.65625 L 248,36.679688 242.33594,42.34375 C 238.69531,45.992188 233.84766,48 228.6875,48 h -20.15234 c 2.57812,-18.039062 17.97656,-32 36.72265,-32 z M 192.0625,81.207031 C 192.45703,99.6875 201.82422,115.97656 216,125.89453 v 12.16016 l -51.49609,15.44922 C 147.45703,158.60937 136,174.00781 136,191.81641 v 47.42968 C 127.96094,234.55078 118.81641,232 109.25781,232 94.777344,232 81.640625,237.82422 72.03125,247.23828 72.359375,171.66406 121.13672,104.96094 192.0625,81.207031 Z M 63.785156,340.33594 C 67.878906,347.28125 73.40625,353.28125 80,357.88672 V 368 h -1.367188 c -9.871093,0 -19.273437,-3.04687 -27.136718,-8.69531 4.984375,-5.94531 9.089844,-12.29688 12.289062,-18.96875 z M 16,423.81641 c 0,-10.67969 6.871094,-19.92188 17.105469,-22.99219 L 82.863281,385.89453 95.839844,424.81641 88.9375,480 H 64 V 424 H 48 v 56 H 16 Z M 208,480 h -32 v -56 h -16 v 56 h -24.9375 l -6.89453,-55.19141 12.97656,-38.92187 49.75781,14.92969 c 10.22657,3.07031 17.09766,12.32031 17.09766,23 z m 64.12891,-57.80859 c -15.96094,2.18359 -32.30469,2.18359 -48.25782,0 -0.67968,-17.10157 -11.85546,-31.73438 -28.375,-36.69532 l -24.05468,-7.21484 c 6.67968,-3.06641 12.86328,-7.26563 18.22265,-12.625 L 195.32031,360 189.65625,354.34375 C 175.6875,340.375 168,321.81641 168,302.0625 V 281.88672 C 168,275.46484 166.32031,269.35937 163.35156,264 h 170.52735 c -3.74219,7.59375 -5.90235,16.09766 -5.91016,25.12109 l -0.008,24.23828 c -0.008,14.59375 5.66406,28.3125 15.98437,38.63282 2.4961,2.49609 5.19922,4.71093 8.0625,6.65625 v 11.39843 l -51.49609,15.44922 c -16.52734,4.95313 -27.70313,19.59375 -28.38281,36.69532 z M 288,423.81641 c 0,-10.67969 6.87109,-19.92188 17.10547,-22.99219 l 49.75781,-14.92969 12.97656,38.92188 L 360.9375,480 H 336 v -56 h -16 v 56 H 288 Z M 480,480 h -32 v -56 h -16 v 56 h -24.9375 l -6.89453,-55.19141 12.97656,-38.92187 49.75781,14.92969 c 10.22657,3.07031 17.09766,12.32031 17.09766,23 z m 0,0"
       inkscape:connector-curvature="0" /><path
       id="path1694"
       d="m 161.0625,113.44141 13.84766,-8 7.99609,13.84765 -13.84766,8 z m 0,0"
       inkscape:connector-curvature="0" /><path
       id="path1696"
       d="m 129.21875,140.51562 11.32031,-11.30859 11.3086,11.32031 -11.31641,11.3086 z m 0,0"
       inkscape:connector-curvature="0" /><path
       id="path1698"
       d="m 105.42969,174.92969 8,-13.85547 13.85547,8 -8,13.85547 z m 0,0"
       inkscape:connector-curvature="0" /><path
       id="path1700"
       d="m 91.375,214.30859 4.140625,-15.45312 15.453125,4.14062 -4.14062,15.45313 z m 0,0"
       inkscape:connector-curvature="0" /><path
       id="path1702"
       d="m 240,392 h 16 v 16 h -16 z m 0,0"
       inkscape:connector-curvature="0" /><path
       id="path1704"
       d="m 385.01172,203 15.45312,-4.14063 4.14063,15.45313 -15.45313,4.14062 z m 0,0"
       inkscape:connector-curvature="0" /><path
       id="path1706"
       d="m 368.71094,169.08594 13.85937,-8 7.9961,13.85937 -13.85547,7.9961 z m 0,0"
       inkscape:connector-curvature="0" /><path
       id="path1708"
       d="m 344.1875,140.51172 11.30859,-11.31641 11.32032,11.3086 -11.3125,11.3164 z m 0,0"
       inkscape:connector-curvature="0" /><path
       id="path1710"
       d="m 313.05859,119.30469 8,-13.84766 13.84766,7.9961 -8,13.84765 z m 0,0"
       inkscape:connector-curvature="0" /><path
       id="path1712"
       d="m 240,280 h 16 v 96 h -16 z m 0,0"
       inkscape:connector-curvature="0" /><path
       id="path1714"
       d="m 272,280 h 16 v 16 h -16 z m 0,0"
       inkscape:connector-curvature="0" /><path
       id="path1716"
       d="m 272,312 h 16 v 64 h -16 z m 0,0"
       inkscape:connector-curvature="0" /><path
       id="path1718"
       d="m 208,280 h 16 v 16 h -16 z m 0,0"
       inkscape:connector-curvature="0" /><path
       id="path1720"
       d="m 208,312 h 16 v 64 h -16 z m 0,0"
       inkscape:connector-curvature="0" /></g></svg>