<svg enable-background="new 0 0 110.979 128.417" height="128.417" viewBox="0 0 110.979 128.417" width="110.979" xmlns="http://www.w3.org/2000/svg"><path d="m110.849 96.417-55.426 32-55.423-32v-64l55.423-32 55.426 32z" fill="#1a0d3c"/><path d="m101.923 38.139v53.14l-.009.01-1.42.809-6.281 3.62-2.719 1.571-.241.129-.129.05-.111.071-3.029 1.74-.221.13-.96.549-.689.39-.04.03-2.92 1.691-.33.189-.63.38-.24.141-1.38.79-1.46.849-.181.09-.019.021-1.71.979-.96.561-4.01 2.319-.61.351-.35.2-.28.159-.061.03-3.309 1.92-.191.111-.769.439-3.271 1.891-.01.01-.3.169-.129.081-.17.099-.441.25-.42.24-.049.031-.281.16-3.49 2.019-.979.561-.731.42-.49.279-.029.021-.031-.021-.409-.239-.81-.46-1.05-.61-1.79-1.031-.96-.559-1.151-.66-1.369-.791-.04-.03-2.071-1.189-4.199-2.441-.96-.549-.201-.121-.689-.389-2.761-1.601-.96-.559-1.369-.79-.39-.22-.491-.28-.33-.201-1.849-1.059-.571-.33-.409-.241-1.301-.75-2.509-1.459-.65-.371-.961-.549-1.3-.75-.089-.05-.701-.41-.02-.01h-.009l-.98-.57-.551-.321-.96-.55-1.449-.839-2.111-1.231-7.5-4.319v-53.14l1.42-.821.421-.239.239-.141 12.25-7.069 1.991-1.161 4.929-2.83 1.58-.92.17-.089 1.66-.951 1.161-.669 1.54-.911.52-.299 2.279-1.301.69-.409 1.46-.83 3.73-2.15 1.991-1.15.46-.27 6.069-3.511.221-.129 1.219-.701 1.061.62 6.489 3.75 14.53 8.38 1.04.611 2.3 1.309.87.5 1.521.881 1.369.79.801.46.09.06 1.809 1.039 3.78 2.18.041.031v.009l.259.141.66.389 1.46.841.401.23.26.149.11.07.239.131.051.029.09.061h.01l.049.029.021.011.099.06.611.35.779.44.441.25 1.939 1.119z" fill="#fff"/><path d="m28.017 80.748c-.167-.117-.331-.238-.494-.358.028.603.101 1.2.11 1.805v.038c-.052.18.007.373.235.471.096.041.189.087.284.132-.285-.671-.29-1.375-.135-2.088z" fill="#31ffa6"/><path d="m26.554 80.298v20.58l-.96-.55-1.3-.75-.09-.05-.7-.41-.02-.01h-.01l-.98-.57-.55-.32-.96-.55v-17.37c0-.27.19-.42.4-.46v-.189c-.04-.03-.1-.061-.14-.11-.16-.15-.32-.311-.47-.46.14.02.28.04.42.06.88.13 1.76.221 2.64.301.86.079 1.68.26 2.54.09h.01v.399c.099.079.17.199.17.369z" fill="#3e00ff"/><path d="m12.681 71.148c-.259.072-.362.344-.307.579-.083.161-.079.363.086.532.195.201.402.391.611.577-.129-.563-.255-1.128-.39-1.688z" fill="#31ffa6"/><path d="m32.614 80.57c-.048.209-.11.414-.186.617-.021.059-.047.111-.077.165.098-.05.171-.142.211-.249.068-.098.104-.223.079-.368-.01-.056-.017-.11-.027-.165z" fill="#31ffa6"/><path d="m30.59 82.858c-.118.053-.247.087-.379.101 0 .002 0 .006-.002.01-.083.32-.297.538-.558.649.066.035.131.071.197.105.084.092.202.128.322.117.349.016.611-.386.477-.679-.02-.102-.039-.202-.057-.303z" fill="#31ffa6"/><path d="m41.994 64.869v44.93l-.96-.55-.2-.12-.69-.39-2.76-1.601-.96-.56v-41.71c0-.27.19-.43.4-.46v-.2c-.05-.02-.1-.05-.15-.1l-.84-.84c.25.01.5.02.75.03.58.09 1.17.1 1.77.11.05 0 .1.01.16.01.12.08.27.12.44.12.23 0 .47 0 .7.01h.01c.37.09.75.18 1.13.25.36.07.69-.01.95-.18.01 0 .01.01.02.01.07.09.15.18.22.27-.05-.04-.11-.08-.16-.12l-.07.06c.04.06.06.14.06.22v.44c.1.081.18.201.18.371z" fill="#31ffa6"/><path d="m59.234 51.818c-.17.32-.381.6-.61.87-.01-.72-.45-1.45-.88-1.98-.19-.22-.46-.23-.68-.12-.051-.01-.101-.01-.16.01-.24.07-.32.29-.29.51.02.11.04.22.08.32.08.79.479 1.67 1.189 2.03.01.01.021.01.03.01l-.061.03s0 0-.01 0c-.12.06-.26.06-.42-.05 0 0 0 0 0-.01-.14-.1-.29-.2-.43-.3-.16-.12-.33-.24-.49-.35l-.01-.01c-.01-.01-.021-.01-.021-.02-.09-.06-.17-.12-.26-.18l-.06.06c.04.07.06.15.06.23v.44c.101.07.16.17.17.31.01.01.01.03.01.05v63.86l-.49.279-.03.021-.03-.021-.41-.239-.81-.46-1.05-.61-1.79-1.03-.96-.56v-61.24c0-.27.19-.42.4-.45v-.2c-.05-.02-.1-.06-.15-.1-.99-.99-1.98-1.97-2.97-2.95-.44-.44.24-1.11.68-.68.98.98 1.97 1.97 2.96 2.95.06-.03.12-.04.2-.04h3.38c.03-.07.06-.14.12-.19l.58-.58v-5.13c0-.61.96-.61.96 0v3.2c.729.52 1.479 1.01 2.21 1.53.303.21.242.6.043.79z" fill="#ffce08"/><path d="m67.557 51.958v-1.105c0-.618.961-.618.961 0v1.105c0 .62-.961.62-.961 0z" fill="#31ffa6"/><path d="m69.142 51.862v-1.441c0-.618.96-.618.96 0v1.441c0 .619-.96.619-.96 0z" fill="#31ffa6"/><path d="m71.158 51.862v-1.681c0-.619.96-.619.96 0v1.681c0 .619-.96.619-.96 0z" fill="#31ffa6"/><path d="m76.303 51.918c-.3.22-.6.43-.899.64.02.05.029.1.029.15v1.34c0 .24-.159.39-.34.44-.01.09-.05.19-.14.27l-2.98 2.96c-.04.04-.09.08-.14.1v.2c.21.03.4.18.4.45v49.92l-.61.351-.35.2-.28.159-.061.03-3.31 1.92-.19.11-.77.439v-53.13c0-.16.07-.29.17-.36v-.44c0-.09.03-.16.06-.23-.02-.02-.04-.04-.06-.06l-.24.18h-.01c-.01.01-.02.01-.03.02-.16.12-.33.24-.489.36-.011 0-.011.01-.021.01-.13.1-.27.2-.41.29 0 .01-.01.01-.01.01-.08.06-.19.08-.29.06-.01 0-.01 0-.01 0-.16 0-.32-.09-.42-.23-.061-.08-.12-.15-.17-.22.06.01.13.01.199-.01.181-.05.33-.14.46-.25.15.27.57.25.801.08.3-.24.54-.47.63-.86.09-.38.14-.85.05-1.23-.05-.26-.23-.4-.43-.45-.13-.33-.46-.56-.88-.44-.051.01-.091.03-.141.05.22-.15.43-.3.65-.45v-3.2c0-.62.96-.62.96 0v5.13.01l.58.57c.05.05.09.12.109.19h3.391c.069 0 .14.01.189.04.99-.99 1.98-1.97 2.971-2.95.06-.06.13-.1.199-.12v-.62c-.04.01-.09.02-.13.02h-.859c-.271 0-.48-.22-.48-.48 0-.01 0-.02 0-.02-.12-.08-.21-.21-.21-.39v-1.81c0-.61.96-.61.96 0v1.74h.32c.04-.06.09-.12.16-.17.06-.05.119-.09.18-.13.37-.27.74-.53 1.11-.8-.32-.5-.62-1-.94-1.5-.34-.52.49-1 .82-.48.41.63.79 1.28 1.21 1.91.222.311-.018.621-.308.681z" fill="#f9006c"/><path d="m64.418 56.004c.148-.31.326-.633.57-.879-.378.26-.757.52-1.129.785-.302.219-.243.611-.038.805.089.174.192.334.305.49-.04-.408.122-.849.292-1.201z" fill="#31ffa6"/><path d="m80.65 53.919c-1.148-1.512-2.297-3.027-3.446-4.541-.375-.493.459-.971.827-.485 1.04 1.367 2.074 2.732 3.111 4.099.323-.245.648-.491.971-.737-.376-.496-.749-.992-1.127-1.487-.159-.209-.033-.537.172-.657.245-.144.498-.035.656.172.428.565.857 1.129 1.288 1.693.132.173.065.429-.077.578-.013.147-.103.284-.235.384-.432.328-.864.657-1.296.985-.004.001-.006.004-.01.006-.182.221-.599.299-.834-.01z" fill="#31ffa6"/><path d="m96.859 69.768c.351-.177.735-.26 1.095-.212 0-.028-.001-.059-.002-.086-.007-.169-.078-.29-.185-.363 0-.002-.002-.002-.002-.002-.07-.129-.204-.22-.399-.214-.359.012-.723.021-1.085.033-.081.002-.154.022-.216.054-.059-.027-.122-.04-.19-.04-.254 0-.488.216-.479.479.001.062.003.122.005.185.456-.175 1.013-.102 1.458.166z" fill="#31ffa6"/><path d="m78.317 72.025c.245-.053.489-.104.737-.149.025-.022.053-.044.083-.064-.065-.182-.104-.373-.114-.569-.083.002-.165.004-.249.008-.369.016-.518.362-.446.636-.005.046-.008.092-.011.138z" fill="#31ffa6"/><path d="m87.364 77.308v.311c.21.03.399.18.399.45v21.34l-.96.55-.689.39-.04.03-2.92 1.69-.33.189-.63.38v-24.569c0-.17.069-.29.18-.37v-.44c0-.08.02-.16.05-.22-.05-.061-.1-.11-.16-.16.771 0 1.54-.05 2.311-.09.8.02 1.59.09 2.38.189.24.03.42-.06.55-.199.53.01 1.04 0 1.54-.11.03.01.05.01.07.01-.021.011-.04.011-.061.021-.621.098-1.211.178-1.69.608z" fill="#8e2abe"/><g fill="#171650"><path d="m37.383 65.029v42.109l-.96-.56v-41.55c0-.271.19-.43.4-.45.17-.03.36.03.47.17.05.071.09.17.09.281z"/><path d="m41.994 65.029v44.77l-.96-.55v-44.22c0-.11.03-.21.09-.28.16-.21.49-.24.69-.09.1.08.18.2.18.37z"/><path d="m36.918 65.706h4.224c.619 0 .619-.961 0-.961-1.408 0-2.815 0-4.224 0-.618 0-.618.961 0 .961z"/><path d="m37.783 64.168v.577c0 .233-.177.434-.401.472-.026.007-.052.009-.079.009-.258 0-.474-.214-.481-.471v-.586c0-.22.158-.412.365-.465.037-.009.075-.014.116-.014.048 0 .095.007.143.021.194.062.337.247.337.457z"/><path d="m37.542 64.504h3.649c.619 0 .619-.958 0-.958-1.216 0-2.432 0-3.649 0-.618-.001-.618.958 0 .958z"/><path d="m41.815 64.216v.528c0 .163-.087.312-.215.399-.078.049-.167.081-.266.081-.115 0-.222-.042-.305-.114-.106-.088-.175-.221-.175-.366v-.528c0-.112.042-.217.108-.299.088-.109.225-.181.372-.181.105 0 .208.037.287.099.057.042.103.096.136.159.037.065.058.142.058.222z"/><path d="m42.438 63.12c0 .025-.003.048-.008.074 0 .011-.004.021-.005.032-.02.083-.063.162-.125.227-.142.142-.281.283-.424.424l-.152.152c-.023.022-.046.04-.071.057-.187.125-.446.106-.609-.057-.031-.035-.059-.071-.08-.111-.061-.113-.073-.25-.037-.372.023-.072.062-.139.117-.197l.577-.576c.002-.001.002-.001.003-.003.187-.181.492-.179.676.003.092.095.138.221.138.347z"/><path d="m42.583 57.593v5.184c0 .152-.058.267-.146.343-.018.016-.035.03-.054.041-.045.028-.095.049-.149.063-.247.061-.549-.053-.602-.348-.006-.031-.01-.065-.01-.1v-5.184c0-.492.606-.592.857-.301.064.075.104.175.104.302z"/><path d="m42.486 57.209c0 .027-.001.054-.007.082-.041.223-.24.397-.472.397h-.721c-.069 0-.132-.015-.191-.042-.169-.075-.289-.246-.289-.437v-.003c0-.106.037-.203.097-.282.075-.102.19-.173.318-.192.021-.001.042-.003.064-.003h.721c.262 0 .48.218.48.48z"/><path d="m41.095 58.408c0-.368 0-.736 0-1.104 0-.62-.96-.62-.96 0v1.104c0 .619.96.619.96 0z"/><path d="m41.222 56.732c-.002.142-.056.285-.166.375-.063.054-.147.09-.25.1-.016.003-.03.003-.047.003h-1.487c-.203 0-.339-.103-.407-.241-.087-.169-.074-.39.038-.544.039-.051.087-.097.152-.127.061-.031.132-.049.218-.049h1.487c.31-.001.463.241.462.483z"/><path d="m38.551 56.873v1.44c0 .618.959.618.959 0 0-.481 0-.961 0-1.44 0-.62-.959-.62-.959 0z"/><path d="m38.864 56.968c-.062.03-.133.048-.218.048h-1.392c-.073 0-.138-.013-.194-.037-.164-.069-.253-.227-.269-.392-.014-.149.035-.306.144-.412.077-.073.183-.12.319-.12h1.392c.202 0 .337.102.407.241.018.036.033.075.042.115.051.21-.027.456-.231.557z"/><path d="m37.494 56.633v1.68c0 .618-.959.618-.959 0v-1.68c0-.035.002-.066.01-.096.038-.215.208-.334.391-.361.263-.039.558.113.558.457z"/><path d="m37.062 57.017c0 .261-.217.48-.48.48h-.768c-.034 0-.071-.004-.104-.011-.214-.049-.376-.243-.376-.469 0-.104.033-.2.093-.278.006-.014.017-.025.027-.037.09-.102.218-.165.36-.165h.768c.075 0 .146.02.21.051.15.072.256.221.269.392.001.011.001.025.001.037z"/><path d="m35.863 57.161v1.824c0 .186-.087.317-.209.391-.282.171-.751.041-.751-.391v-1.824c0-.304.231-.459.467-.464.028 0 .058.002.085.005.215.027.408.18.408.459z"/><path d="m34.183 59.225v1.344c0 .372-.348.519-.624.443-.185-.05-.336-.198-.336-.443v-1.344c0-.057.008-.108.023-.154.054-.175.204-.275.365-.301.188-.033.396.032.5.199.036.051.059.114.069.187.001.02.003.044.003.069z"/><path d="m37.203 64.361c-.116.055-.252.069-.38.012-.051-.023-.101-.058-.146-.105-.992-.991-1.984-1.985-2.977-2.976-.088-.088-.131-.185-.14-.28-.032-.317.309-.621.624-.522.066.021.134.061.196.123.988.99 1.977 1.979 2.967 2.969.002.001.005.006.008.007.038.039.069.079.091.121.134.249-.017.536-.243.651z"/><path d="m34.183 59.661c-.079-.002-.161-.029-.246-.091-.032-.023-.064-.044-.095-.067v-.002c-.031-.019-.059-.042-.089-.063-.004-.001-.006-.004-.008-.006-.167-.121-.334-.243-.5-.361-.189-.137-.38-.275-.568-.411-.125-.089-.247-.179-.372-.27-.211-.153-.248-.391-.177-.586.092-.266.372-.45.661-.243.48.348.962.696 1.442 1.043.064.044.127.09.191.136.069.052.122.115.155.18.162.32-.071.746-.394.741z"/><path d="m43.441 64.856c-.119.06-.266.056-.414-.052-.003 0-.004-.002-.007-.004-.002-.002-.002-.002-.004-.002-.14-.102-.283-.205-.425-.308-.161-.117-.326-.235-.489-.353-.001-.002-.006-.004-.008-.007-.007-.006-.017-.012-.025-.018-.083-.06-.167-.122-.251-.181-.076-.056-.152-.109-.228-.166-.006-.003-.015-.01-.02-.013-.059-.043-.103-.092-.136-.146-.162-.257-.035-.609.198-.731.121-.062.272-.062.424.047.108.079.218.158.327.237.015.012.029.022.045.033.042.031.084.062.124.092l.027.018c.001.001.003.003.005.006.164.115.328.234.491.353h.002c.006.004.013.008.016.011.044.034.091.066.135.099.092.067.182.133.274.197.004.004.005.006.01.008.349.254.216.742-.071.88z"/><path d="m34.311 59.881h.864c.261 0 .48-.219.48-.48s-.219-.48-.48-.48c-.288 0-.576 0-.864 0-.262 0-.48.219-.48.48s.218.48.48.48z"/><path d="m35.711 57.485c-.114.228-.371.371-.636.178-.057-.042-.115-.083-.173-.125-.311-.224-.622-.447-.931-.671-.205-.147-.411-.299-.617-.446-.497-.359-.018-1.192.484-.829.058.042.116.082.172.124.454.329.906.655 1.358.98.019.015.038.028.058.042.043.033.087.063.131.097.236.168.255.444.154.65z"/><path d="m44.832 63.164c-.133.127-.324.17-.523.028-.139-.103-.282-.202-.424-.3-.432-.303-.869-.599-1.301-.9-.181-.125-.36-.25-.538-.379-.498-.357-.019-1.19.483-.829.018.014.037.024.055.039.73.521 1.479 1.015 2.21 1.539.3.219.242.61.038.802z"/><path d="m33.971 56.867c-.222.312-.773.353-.836-.111-.083-.609-.034-1.227-.051-1.839-.004-.215-.017-.432-.046-.646-.012-.086-.003-.166.02-.234.031-.097.09-.175.163-.234.184-.153.458-.186.618-.041.063.056.11.14.125.254.079.564.042 1.135.047 1.701.002.264.015.524.049.784.019.143-.017.268-.089.366z"/><path d="m32.677 58.66c-.04.021-.087.036-.138.044-.759.123-1.517.244-2.276.366-.188.03-.343-.039-.449-.151-.003-.004-.011-.01-.013-.015-.219-.25-.205-.694.207-.759.102-.017.206-.033.308-.05.179-.029.356-.058.534-.086.426-.067.852-.136 1.278-.205.051-.009.104-.019.156-.025.553-.091.816.676.393.881z"/><path d="m33.51 54.181c.007.084-.021.177-.088.269-.112.156-.224.312-.337.467-.742 1.03-1.488 2.061-2.234 3.093-.093.13-.188.261-.283.391-.077.108-.155.216-.231.324-.133.184-.333.234-.512.197-.001 0-.005 0-.009-.001-.157-.035-.295-.135-.358-.269-.06-.119-.057-.266.051-.414.116-.159.23-.318.346-.478.913-1.266 1.828-2.531 2.742-3.795.047-.066.101-.114.162-.147.146-.083.32-.078.464-.015.159.068.282.211.287.378z"/><path d="m29.894 58.971c-.023-.018-.046-.033-.069-.05-.007-.005-.015-.011-.022-.017-.116-.084-.23-.167-.345-.253-1.175-.855-2.338-1.727-3.516-2.579-.35-.256-.215-.745.073-.884.12-.058.266-.053.414.054.159.115.317.232.478.35.985.717 1.962 1.448 2.949 2.167.153.111.307.224.462.336.021.015.042.03.063.046.1.071.159.163.188.258.114.388-.272.864-.675.572z"/><path d="m29.986 51.324c-.079.107-.155.217-.234.324-.209.29-.419.578-.626.869-.189.263-.379.523-.57.787-.204.282-.407.566-.612.849-.187.258-.374.518-.561.777-.159.221-.318.442-.478.663-.039.052-.076.101-.111.153-.36.495-1.193.017-.829-.486.017-.024.034-.048.049-.071 1.05-1.449 2.097-2.899 3.145-4.349.023-.033.048-.06.076-.084.385-.352 1.092.098.751.568z"/><path d="m33.839 53.761c-.028.193-.158.368-.329.419-.107.032-.232.016-.357-.075-.031-.023-.063-.046-.095-.069-.1-.072-.203-.146-.301-.219-1.003-.724-2.004-1.445-3.005-2.169-.119-.086-.241-.173-.359-.259-.226-.165-.249-.431-.158-.634.106-.238.372-.392.644-.197 1.254.907 2.506 1.812 3.759 2.717.176.127.23.314.201.486z"/><path d="m44.876 63.079c-.013.029-.028.056-.045.085-.282.55-.706.979-1.077 1.469-.085.108-.193.189-.313.223-.11.028-.227.019-.345-.05-.017-.012-.036-.023-.052-.037-.066-.053-.122-.13-.153-.212-.056-.135-.058-.291.031-.408.055-.071.111-.14.167-.209.039-.05.08-.1.121-.148.003-.007.008-.015.017-.021.232-.286.464-.564.656-.879.06-.094.114-.194.163-.295.273-.558 1.1-.071.83.482z"/><path d="m51.784 53.738v61.73l-.96-.56v-61.17c0-.27.19-.43.4-.46.17-.02.36.03.47.18.05.07.09.161.09.28z"/><path d="m56.393 53.738v63.791l-.49.279-.03.021-.03-.021-.41-.239v-63.831c0-.12.03-.21.09-.28.16-.21.49-.24.69-.09.08.06.14.14.17.25.01.041.01.081.01.12z"/><path d="m51.318 54.413h4.224c.618 0 .618-.959 0-.959-1.407 0-2.815 0-4.224 0-.618 0-.618.959 0 .959z"/><path d="m52.182 52.876v.577c0 .233-.176.433-.4.471-.027.007-.053.009-.079.009-.258 0-.474-.213-.48-.471v-.586c0-.22.157-.412.364-.464.036-.01.076-.016.116-.016.047 0 .095.008.141.023h.002c.193.062.336.247.336.457z"/><path d="m56.052 52.796c-.025.217-.179.417-.462.417h-3.647c-.151 0-.265-.058-.341-.144-.159-.177-.162-.474-.015-.656.041-.053.094-.095.159-.123.057-.023.121-.036.197-.036h3.647c.097 0 .179.022.244.063.066.038.119.094.155.159.012.021.022.044.031.067.03.081.042.168.032.253z"/><path d="m56.215 52.925v.528c0 .163-.087.311-.215.399-.077.049-.168.081-.266.081-.115 0-.223-.044-.306-.115-.104-.087-.175-.219-.175-.365v-.528c0-.112.04-.215.107-.298.09-.111.223-.183.373-.183.105 0 .207.036.286.098.058.042.104.096.137.159.038.069.059.143.059.224z"/><path d="m56.837 51.831c0 .025-.002.048-.009.071 0 .011-.002.023-.007.033-.018.085-.06.163-.123.226l-.576.578c-.022.021-.046.039-.07.059-.188.124-.446.104-.61-.059-.031-.033-.059-.069-.08-.11-.062-.116-.073-.252-.035-.374.023-.073.061-.141.115-.196l.577-.577c.002-.001.002-.001.003-.003.187-.181.493-.178.677.003.094.095.138.222.138.349z"/><path d="m56.983 46.302v5.183c0 .154-.058.269-.146.346-.019.013-.036.027-.053.039-.036.025-.078.043-.121.058-.003.001-.008.001-.011.001-.019.004-.035.009-.052.013-.002.002-.007.002-.008.002-.24.04-.509-.08-.563-.357-.004-.031-.009-.065-.009-.1v-5.183c.002-.622.963-.622.963-.002z"/><path d="m55.687 46.397h.719c.263 0 .479-.218.479-.48 0-.261-.217-.479-.479-.479-.238 0-.479 0-.719 0-.262 0-.48.218-.48.479 0 .262.218.48.48.48z"/><path d="m55.495 47.118c0-.369 0-.736 0-1.104 0-.619-.959-.619-.959 0v1.104c0 .618.959.618.959 0z"/><path d="m53.671 45.917h1.488c.618 0 .618-.959 0-.959-.496 0-.993 0-1.488 0-.619 0-.619.959 0 .959z"/><path d="m52.95 45.582v1.439c0 .619.96.619.96 0 0-.479 0-.96 0-1.439 0-.62-.96-.62-.96 0z"/><path d="m51.655 45.725h1.392c.619 0 .619-.96 0-.96-.464 0-.927 0-1.392 0-.619 0-.619.96 0 .96z"/><path d="m50.935 45.342v1.679c0 .619.961.619.961 0 0-.56 0-1.121 0-1.679 0-.619-.961-.619-.961 0z"/><path d="m50.214 46.206h.768c.263 0 .481-.22.481-.481s-.218-.479-.481-.479c-.255 0-.511 0-.768 0-.261 0-.48.218-.48.479s.219.481.48.481z"/><path d="m49.302 45.869v1.824c0 .619.962.619.962 0 0-.608 0-1.216 0-1.824 0-.619-.962-.619-.962 0z"/><path d="m47.623 47.933v1.344c0 .62.961.62.961 0 0-.448 0-.896 0-1.344 0-.619-.961-.619-.961 0z"/><path d="m51.602 53.069c-.117.058-.251.069-.379.012-.052-.023-.102-.058-.148-.104-.991-.993-1.984-1.983-2.976-2.977-.437-.438.243-1.118.68-.68.988.991 1.978 1.979 2.967 2.969.003.001.006.006.008.007.038.039.07.081.09.123h.002c.133.252-.017.536-.244.65z"/><path d="m46.705 47.099c.544.394 1.088.787 1.632 1.18.501.364.98-.469.483-.829-.06-.044-.122-.088-.183-.133-.503-.363-.981.47-.485.829.063.044.123.088.185.132.162-.276.322-.552.483-.829-.544-.394-1.088-.787-1.632-1.179-.501-.362-.98.47-.483.829z"/><path d="m57.853 53.56c-.002.002-.002.002-.005.002-.12.062-.27.062-.421-.048-.003-.001-.005-.001-.006-.006-.142-.101-.285-.207-.43-.308-.159-.117-.325-.236-.489-.353-.002-.002-.005-.004-.007-.006-.009-.008-.018-.013-.026-.019-.083-.06-.165-.12-.251-.181-.076-.054-.15-.108-.229-.165-.005-.003-.013-.01-.02-.014-.059-.042-.103-.091-.136-.145-.162-.258-.035-.61.196-.732.122-.062.275-.062.427.048.108.079.217.158.327.236.016.012.031.022.044.032.044.031.086.062.126.092.008.007.017.012.024.018.002.001.006.004.007.006.163.117.326.234.486.352.002 0 .002.002.003.002 0 0 .003 0 .003.002.05.036.101.07.149.106.093.068.184.133.274.198.005.003.006.005.01.008.346.249.222.728-.056.875z"/><path d="m48.712 48.589h.863c.262 0 .48-.217.48-.48 0-.261-.218-.479-.48-.479-.288 0-.577 0-.863 0-.262 0-.481.218-.481.479 0 .263.219.48.481.48z"/><path d="m49.959 45.542c-.572-.414-1.146-.827-1.719-1.242-.504-.363-.981.471-.485.829.574.415 1.146.828 1.718 1.242.505.364.983-.469.486-.829z"/><path d="m59.231 51.875c-.13.126-.324.167-.522.025-.14-.102-.28-.202-.424-.299-.432-.304-.87-.599-1.302-.901-.182-.125-.359-.25-.538-.378-.497-.358-.019-1.191.484-.83.018.014.035.025.054.039.729.524 1.48 1.017 2.209 1.54.302.219.244.61.039.804z"/><path d="m59.278 51.79c-.014.029-.029.056-.047.084-.281.549-.704.977-1.077 1.467-.08.105-.187.186-.301.218-.002.002-.002.002-.005.002-.11.034-.231.021-.352-.048-.017-.009-.033-.022-.049-.034-.067-.054-.123-.131-.156-.216-.055-.134-.058-.289.033-.406.054-.072.107-.141.165-.21.04-.05.08-.099.121-.148.004-.007.009-.015.017-.021.232-.286.464-.563.657-.878.06-.094.113-.194.164-.296.27-.556 1.097-.068.83.486z"/><path d="m72.234 58.579v49.81l-.61.351-.35.2v-50.36c0-.12.029-.21.09-.29.109-.13.29-.19.47-.17.209.028.4.189.4.459z"/><path d="m67.624 58.579v52.47l-.19.11-.77.439v-53.02c0-.17.07-.29.17-.37.21-.15.54-.12.7.08.049.081.09.17.09.291z"/><path d="m71.734 58.293c-1.407 0-2.814 0-4.223 0-.619 0-.619.96 0 .96h4.223c.619.001.619-.96 0-.96z"/><path d="m71.831 57.717v.585c-.007.26-.221.471-.48.471-.026 0-.055-.002-.079-.008-.224-.037-.401-.236-.401-.472v-.577c0-.21.145-.395.341-.459h.001c.044-.012.091-.021.139-.021.04 0 .079.006.115.015.207.054.364.246.364.466z"/><path d="m71.452 57.91c-.077.086-.189.144-.341.144h-3.648c-.282 0-.437-.2-.46-.418-.011-.086 0-.175.031-.254.008-.023.021-.044.032-.065 0-.001 0-.001 0-.001.035-.063.087-.12.152-.158.065-.041.147-.063.244-.063h3.648c.073 0 .14.013.197.038.064.029.115.068.157.12.152.18.147.479-.012.657z"/><path d="m67.798 57.765v.528c0 .147-.067.28-.175.367-.083.071-.19.113-.305.113-.099 0-.189-.031-.268-.083-.127-.086-.214-.233-.214-.397v-.528c0-.08.022-.157.059-.225.034-.063.08-.117.138-.16.08-.059.179-.096.285-.096.149 0 .284.071.372.183.07.081.108.186.108.298z"/><path d="m67.691 57.468c-.021.04-.049.076-.081.109-.162.164-.422.183-.607.058-.024-.018-.049-.037-.069-.058-.013-.012-.025-.025-.037-.037-.021-.019-.042-.041-.061-.059-.023-.024-.044-.045-.066-.067-.138-.139-.274-.274-.412-.413-.068-.067-.113-.148-.13-.236-.002-.006-.004-.014-.004-.021-.006-.024-.007-.05-.007-.075-.001-.125.043-.251.141-.345.181-.185.488-.187.673-.004.003.001.003.001.004.004l.576.576c.056.056.093.123.117.195.036.12.023.257-.037.373z"/><path d="m67.03 51.142v5.184c0 .035-.004.069-.01.099-.045.255-.272.375-.492.363-.002 0-.002 0-.002 0-.066-.002-.131-.015-.188-.042-.024-.009-.047-.021-.068-.034-.02-.013-.036-.027-.054-.043-.088-.076-.146-.191-.146-.343v-5.184c0-.619.96-.619.96 0z"/><path d="m67.366 50.278c-.238 0-.479 0-.719 0-.261 0-.479.218-.479.48 0 .261.219.48.479.48h.719c.263 0 .481-.219.481-.48 0-.262-.219-.48-.481-.48z"/><path d="m68.518 50.854v1.105c0 .619-.961.619-.961 0v-1.105c0-.618.961-.618.961 0z"/><path d="m69.381 49.798c-.494 0-.99 0-1.486 0-.618 0-.618.96 0 .96h1.486c.619 0 .619-.96 0-.96z"/><path d="m70.102 50.421v1.441c0 .619-.96.619-.96 0v-1.441c0-.618.96-.618.96 0z"/><path d="m71.398 49.606c-.464 0-.928 0-1.391 0-.62 0-.62.96 0 .96h1.391c.619 0 .619-.96 0-.96z"/><path d="m72.118 50.181v1.681c0 .619-.96.619-.96 0v-1.681c0-.618.96-.618.96 0z"/><path d="m72.838 50.086c-.255 0-.512 0-.767 0-.263 0-.48.217-.48.48 0 .262.218.48.48.48h.767c.262 0 .481-.218.481-.48.001-.262-.219-.48-.481-.48z"/><path d="m73.75 50.709v1.823c0 .433-.467.563-.749.393-.122-.074-.211-.203-.211-.393v-1.823c.001-.618.96-.618.96 0z"/><path d="m75.429 52.773v1.344c0 .246-.151.396-.337.443-.274.079-.622-.072-.622-.443v-1.344c0-.023.002-.046.004-.067.011-.075.033-.138.069-.19.104-.164.31-.231.497-.199h.003c.16.026.311.127.363.302.017.047.023.098.023.154z"/><path d="m75.092 54.561c-.006.095-.052.192-.139.28l-2.976 2.976c-.047.047-.096.082-.147.105-.13.057-.263.045-.379-.012-.229-.114-.378-.4-.241-.652h.001c.021-.042.051-.08.089-.118.002-.003.006-.006.008-.008.988-.991 1.978-1.98 2.968-2.968.063-.062.127-.099.194-.122.318-.103.655.202.622.519z"/><path d="m76.35 51.94c-.016.011-.032.023-.048.035-.301.215-.6.432-.896.645-.167.122-.335.242-.5.363-.004 0-.005.002-.006.004-.03.021-.058.042-.088.063l-.097.069c-.084.062-.167.088-.246.091-.321.008-.557-.423-.394-.74.032-.065.084-.126.156-.179.06-.043.122-.088.183-.132.37-.269.739-.536 1.108-.803.114-.082.227-.163.341-.246.504-.362.983.471.487.83z"/><path d="m67.218 57.157c-.032.054-.077.104-.137.146-.006.003-.01.007-.016.011v.001c-.079.054-.153.11-.23.166-.082.057-.162.117-.244.176-.002.002-.007.004-.009.006-.007.005-.017.012-.024.018-.166.119-.331.24-.497.361-.007.004-.011.007-.016.007-.137.102-.276.202-.413.299-.002.004-.004.004-.006.006-.088.064-.195.081-.298.065-.001 0-.001 0-.003 0-.147-.025-.285-.118-.355-.239-.143-.241-.04-.503.173-.656.001-.002.005-.004.006-.004.092-.067.184-.133.278-.202.047-.036.098-.073.147-.107 0 0 .002 0 .002-.002.002 0 .002-.001.004-.001.162-.118.325-.235.485-.353.003-.001.006-.004.008-.005.008-.005.017-.012.025-.017.043-.032.081-.06.124-.091.015-.012.031-.021.047-.032.109-.079.219-.16.327-.239.152-.109.303-.109.423-.048.234.123.363.474.199.734z"/><path d="m74.823 52.95c0 .036-.004.067-.01.1-.037.173-.174.315-.343.361-.041.012-.083.019-.126.019h-.865c-.263 0-.479-.219-.479-.48 0-.007 0-.017.001-.024.011-.25.222-.456.478-.456h.865c.069 0 .137.017.199.047.164.074.28.243.28.433z"/><path d="m73.579 51.213c.574-.415 1.146-.829 1.721-1.243.496-.358.019-1.192-.486-.829-.572.414-1.146.827-1.72 1.242-.497.36-.018 1.194.485.83z"/><path d="m66.61 55.162c-.18.129-.359.255-.54.38-.432.301-.87.598-1.301.899-.143.1-.285.2-.425.299-.197.142-.392.1-.522-.025-.205-.194-.264-.585.038-.805.729-.522 1.48-1.015 2.21-1.54.018-.013.037-.024.053-.038.505-.36.985.472.487.83z"/><path d="m65.761 58.107c-.032.084-.087.159-.154.213-.016.012-.032.025-.049.035-.078.045-.154.065-.229.065-.001 0-.001 0-.003 0-.166 0-.318-.097-.425-.239-.375-.489-.797-.918-1.079-1.467-.017-.029-.032-.055-.046-.084-.269-.554.559-1.042.829-.485.05.1.104.201.164.295.19.315.426.593.658.879.004.006.011.013.017.021.033.038.063.077.095.117.065.079.128.16.19.241.089.117.088.275.032.409z"/><path d="m21.943 80.598v17.62l-.96-.55v-17.07c0-.279.19-.43.4-.46.18-.02.36.03.47.17.061.07.09.17.09.29z"/><path d="m26.554 80.598v20.28l-.96-.55v-19.73c0-.12.04-.22.09-.29.16-.199.49-.229.7-.08.099.08.17.2.17.37z"/><path d="m21.485 81.269h4.223c.62 0 .62-.959 0-.959-1.408 0-2.815 0-4.223 0-.62 0-.62.959 0 .959z"/><path d="m22.347 79.734v.576c0 .234-.174.434-.401.473-.024.006-.052.007-.079.007-.256 0-.474-.213-.48-.471v-.585c0-.221.158-.413.365-.464.036-.011.075-.017.115-.017.052 0 .097.008.142.023h.002c.195.061.336.247.336.458z"/><path d="m22.107 80.07h3.648c.62 0 .62-.96 0-.96-1.216 0-2.431 0-3.648 0-.617 0-.617.96 0 .96z"/><path d="m26.38 79.783v.527c0 .163-.084.309-.213.397-.077.052-.17.082-.267.082-.116 0-.221-.044-.306-.113-.105-.087-.174-.22-.174-.366v-.527c0-.112.038-.216.106-.298.088-.112.224-.183.373-.183.105 0 .207.035.286.098.057.042.103.096.137.156.037.069.058.145.058.227z"/><path d="m27.001 78.686c0 .024-.001.048-.005.073-.001.011-.005.022-.007.032-.019.084-.061.164-.125.227-.143.142-.283.281-.425.424-.019.02-.037.036-.055.056-.02.02-.041.04-.061.059-.011.014-.023.026-.035.037-.021.021-.047.041-.072.061-.185.123-.443.103-.606-.061-.033-.032-.062-.068-.083-.108-.061-.115-.073-.253-.037-.375.024-.072.062-.141.12-.196l.578-.577c.183-.183.491-.183.676.002.094.092.139.219.137.346z"/><path d="m27.148 73.158v5.184c0 .151-.057.268-.146.345-.017.015-.034.028-.052.039-.045.03-.095.053-.148.063-.015.003-.028.007-.042.01-.241.039-.509-.079-.562-.356-.005-.031-.008-.065-.008-.101v-5.184c0-.491.608-.593.855-.301.063.074.103.175.103.301z"/><path d="m27.052 72.774c0 .028-.002.056-.008.083-.04.222-.237.396-.472.396h-.72c-.067 0-.133-.015-.193-.04-.167-.077-.286-.245-.286-.439v-.001c0-.106.036-.202.095-.284.075-.101.19-.172.321-.19.021-.003.043-.005.063-.005h.72c.263-.001.48.218.48.48z"/><path d="m25.661 73.973c0-.367 0-.735 0-1.104 0-.618-.961-.618-.961 0v1.104c0 .619.961.619.961 0z"/><path d="m25.789 72.298c-.002.142-.056.286-.167.376-.062.054-.146.088-.249.099-.015.001-.031.001-.049.001h-1.488c-.202 0-.336-.102-.407-.239-.087-.17-.073-.391.038-.544.038-.055.09-.099.154-.129.062-.031.131-.048.215-.048h1.488c.311 0 .467.242.465.484z"/><path d="m23.117 72.438v1.44c0 .618.961.618.961 0 0-.48 0-.961 0-1.44 0-.619-.961-.619-.961 0z"/><path d="m23.429 72.535c-.062.03-.133.048-.218.048h-1.391c-.073 0-.138-.015-.194-.036-.164-.072-.252-.229-.266-.396-.015-.148.033-.308.143-.411.076-.072.183-.117.316-.117h1.392c.204 0 .338.102.41.239.02.036.032.076.042.119.047.209-.031.454-.234.554z"/><path d="m22.061 72.198v1.681c0 .617-.961.617-.961 0v-1.681c0-.035.002-.065.009-.095.04-.216.209-.339.395-.363.263-.037.557.116.557.458z"/><path d="m21.629 72.583c0 .261-.217.479-.48.479h-.769c-.035 0-.069-.004-.104-.011-.213-.049-.377-.243-.377-.469 0-.104.035-.2.092-.279.008-.011.018-.022.029-.034.086-.103.217-.166.359-.166h.768c.076 0 .147.017.212.048.147.074.253.225.266.396.004.01.004.024.004.036z"/><path d="m20.428 72.726v1.824c0 .186-.086.315-.209.39-.283.173-.751.042-.751-.39v-1.824c0-.305.232-.457.468-.463.028-.002.055 0 .084.006.214.026.408.178.408.457z"/><path d="m18.748 74.79v1.345c0 .37-.346.521-.622.445-.185-.051-.339-.198-.339-.445v-1.345c0-.056.009-.107.023-.153.054-.174.204-.276.367-.304h.002c.189-.028.391.037.496.2.036.052.059.115.068.188.003.022.005.044.005.069z"/><path d="m21.767 79.925c-.116.058-.253.069-.38.012-.048-.023-.099-.057-.145-.103-.993-.993-1.985-1.984-2.977-2.978-.085-.086-.128-.182-.139-.277-.035-.317.306-.625.622-.525.067.021.134.063.195.123l2.97 2.97c.001.001.006.005.007.006.039.04.068.081.089.124h.002c.134.252-.018.536-.244.648z"/><path d="m18.748 75.225c-.079-.002-.161-.028-.246-.09-.032-.022-.064-.045-.095-.069-.028-.021-.06-.041-.088-.063-.168-.123-.34-.244-.509-.367-.24-.174-.478-.346-.717-.518-.076-.056-.148-.107-.225-.162-.296-.215-.244-.602-.045-.799.131-.131.329-.176.53-.031.483.348.962.695 1.441 1.043.064.045.127.09.19.137.072.052.124.112.156.181.167.316-.069.745-.392.738z"/><path d="m27.593 80.37c-.001 0-.005-.003-.007-.004-.009-.009-.019-.015-.028-.021-.008-.007-.016-.012-.023-.021-.006-.002-.01-.006-.016-.01-.119-.085-.237-.172-.358-.258h-.001c-.006-.005-.01-.009-.015-.013-.158-.114-.316-.228-.474-.341-.004-.003-.004-.005-.009-.006-.006-.009-.017-.014-.024-.021-.084-.059-.167-.121-.251-.18-.077-.056-.152-.11-.229-.165l-.001-.002c-.006-.004-.01-.008-.016-.012-.058-.042-.104-.091-.134-.144-.166-.26-.039-.61.193-.733.121-.061.273-.061.425.048.109.079.219.157.328.235.016.013.031.023.046.034.04.029.083.059.123.09.01.006.018.013.027.019.002.003.002.003.004.003.166.121.328.239.493.357.138.099.279.201.417.301.006.005.012.009.017.013.034.025.063.052.088.081.341.388-.107 1.089-.575.75z"/><path d="m18.877 75.446h.863c.262 0 .481-.219.481-.479 0-.262-.219-.48-.481-.48-.288 0-.576 0-.863 0-.263 0-.481.219-.481.48 0 .26.218.479.481.479z"/><path d="m20.276 73.051c-.111.228-.37.369-.636.178-.057-.042-.115-.083-.172-.124-.408-.295-.813-.588-1.219-.88-.111-.081-.22-.16-.329-.238 0 0 0-.002-.002-.002-.205-.149-.242-.382-.178-.575.087-.271.372-.464.666-.253.108.079.215.156.322.233.404.291.807.582 1.208.873.019.014.036.026.055.04.045.032.089.064.132.097.236.168.253.445.153.651z"/><path d="m29.146 78.843c-.085.006-.178-.019-.272-.087-.568-.409-1.151-.801-1.726-1.2-.181-.124-.358-.252-.538-.378-.498-.359-.019-1.192.484-.83.018.015.037.025.054.04.718.512 1.451.995 2.167 1.508.015.011.029.021.043.032.407.289.165.897-.212.915z"/><path d="m18.25 72.225c-.133-.025-.254-.103-.329-.238 0 0 0-.002-.002-.002-.013-.024-.024-.052-.034-.08-.057-.163-.104-.327-.144-.495-.158-.636-.227-1.3-.445-1.921-.021-.056-.031-.111-.031-.159-.002-.383.518-.554.807-.312.063.05.116.123.148.216.245.696.303 1.447.508 2.156.023.086.051.172.081.259.136.395-.24.639-.559.576z"/><path d="m87.763 78.348v21.061l-.96.55v-21.61c0-.12.03-.22.09-.29.11-.14.29-.189.471-.17.21.029.399.18.399.459z"/><path d="m83.154 78.348v23.721l-.33.189-.63.38v-24.29c0-.17.069-.29.18-.37.2-.149.53-.119.69.08.05.07.09.17.09.29z"/><path d="m87.266 78.06c-1.409 0-2.818 0-4.225 0-.619 0-.619.961 0 .961h4.225c.618 0 .618-.961 0-.961z"/><path d="m87.362 77.484v.585c-.006.257-.222.471-.481.471-.027 0-.054-.002-.079-.007-.223-.04-.4-.239-.4-.473v-.576c0-.123.048-.235.126-.321.089-.097.216-.159.354-.159.041 0 .082.006.118.016.206.053.362.243.362.464z"/><path d="m86.641 76.86c-1.216 0-2.431 0-3.646 0-.619 0-.619.96 0 .96h3.646c.619 0 .619-.96 0-.96z"/><path d="m83.33 77.533v.527c0 .146-.068.278-.176.366-.083.069-.188.113-.305.113-.099 0-.188-.03-.265-.08-.13-.089-.215-.236-.215-.399v-.527c0-.082.021-.158.058-.226.033-.063.08-.115.137-.157.077-.062.181-.098.285-.098.149 0 .285.07.373.182.07.083.108.186.108.299z"/><path d="m83.222 77.234c-.021.041-.048.078-.082.109-.163.164-.424.183-.607.059-.025-.019-.048-.037-.069-.059-.013-.011-.025-.025-.036-.036-.182-.18-.358-.359-.54-.54-.09-.09-.138-.209-.14-.329-.003-.127.044-.254.14-.35.183-.183.489-.185.673-.004.004.002.004.002.005.004l.575.575c.056.057.095.123.118.196.034.123.024.26-.037.375z"/><path d="m82.56 70.908v5.184c0 .467-.544.582-.813.347-.088-.078-.146-.192-.146-.347v-5.184c0-.127.041-.227.104-.301.249-.293.855-.19.855.301z"/><path d="m83.377 70.522v.002c0 .194-.119.363-.29.439-.059.024-.123.04-.19.04h-.721c-.232 0-.432-.174-.471-.396-.006-.028-.009-.055-.009-.083 0-.261.22-.479.479-.479h.721c.021 0 .043.001.063.003.132.02.246.091.32.191.061.081.098.178.098.283z"/><path d="m84.049 71.724c0-.368 0-.736 0-1.104 0-.618-.96-.618-.96 0v1.104c0 .619.96.619.96 0z"/><path d="m85.321 70.284c-.069.139-.205.24-.408.24h-1.488c-.018 0-.032 0-.047-.002-.102-.011-.186-.046-.249-.1-.109-.091-.164-.232-.168-.375 0-.241.152-.484.464-.484h1.488c.085 0 .155.018.218.049.063.03.115.074.153.128.111.154.125.374.037.544z"/><path d="m84.674 70.189v1.439c0 .619.96.619.96 0 0-.48 0-.96 0-1.439 0-.62-.96-.62-.96 0z"/><path d="m87.391 69.901c-.015.166-.102.323-.27.395-.054.023-.121.036-.192.036h-1.393c-.081 0-.153-.018-.216-.048-.205-.099-.281-.346-.233-.555.011-.043.022-.08.043-.117.069-.139.206-.241.406-.241h1.393c.135 0 .242.047.318.118.11.103.158.262.144.412z"/><path d="m87.649 69.948v1.681c0 .619-.96.619-.96 0v-1.681c0-.345.295-.495.559-.459.184.026.354.147.392.363.008.03.009.061.009.096z"/><path d="m88.848 70.332c0 .262-.216.48-.479.48h-.768c-.261 0-.48-.219-.48-.48 0-.012 0-.025.001-.036.015-.171.121-.32.27-.395.063-.031.135-.049.21-.049h.768c.145 0 .273.064.36.167.075.084.118.193.118.313z"/><path d="m89.281 70.476v1.823c0 .513-.656.601-.884.266-.047-.069-.075-.158-.075-.266v-1.823c0-.278.193-.431.407-.457.261-.038.552.116.552.457z"/><path d="m90.75 74.241v1.37c0 .051-.005.096-.017.135-.125.471-.9.44-.941-.092-.001-.014-.001-.027-.001-.043v-1.349c.001-.122.039-.222.104-.294.134-.161.378-.204.572-.129.153.061.273.194.283.402z"/><path d="m90.609 76.219c-.449.405-.955.638-1.554.741-.618.108-1.209.182-1.693.617-.004.003-.006.003-.009.006-.126.113-.268.146-.396.121-.259-.04-.471-.292-.431-.542.015-.09.062-.179.149-.259.014-.014.028-.027.043-.038.448-.392.951-.633 1.544-.737.543-.096 1.081-.15 1.528-.475.048-.035.095-.072.141-.113.3-.27.69-.077.801.205.06.152.038.329-.123.474z"/><path d="m82.402 74.169c-.268.002-.534.004-.8.008-.879.012-1.756.037-2.634.085-.188.009-.317-.071-.392-.192-.167-.271-.035-.744.392-.769.125-.005.248-.013.372-.017.751-.037 1.507-.056 2.262-.067.242-.004.484-.006.728-.008.034.192.076.385.127.574-.061.126-.078.261-.055.386z"/><path d="m93.847 74.179h-.015c-.086.004-.172.008-.26.01-.097.004-.192.008-.29.01-.843.028-1.688.042-2.533.042-.207.002-.417.002-.626 0h-.166c-.016-.092-.036-.183-.063-.272-.058-.194-.135-.385-.197-.584-.01-.027-.018-.056-.026-.083v-.002c-.002-.006-.003-.013-.006-.021h.021c1.117.008 2.232.002 3.347-.031.271-.007.544-.018.814-.028.053-.002.101.004.146.016.004 0 .011.001.017.004.451.134.393.917-.163.939z"/><path d="m89.99 73.301c-.288 0-.575 0-.864 0-.262 0-.479.219-.479.48 0 .263.218.48.479.48h.864c.263 0 .48-.218.48-.48 0-.261-.218-.48-.48-.48z"/><path d="m93.981 72.13c-.008 0-.014 0-.022.002-.192.01-.386.019-.576.028-.13.005-.257.009-.383.013-1.235.041-2.472.04-3.709.022h-.01c-.033-.002-.067-.002-.101-.002-.021-.072-.039-.146-.06-.217-.067-.229-.134-.455-.198-.683-.01-.023-.018-.043-.027-.065.129.002.258.003.386.005 1.567.022 3.135.022 4.7-.063.051-.001.097.007.135.028.306.153.26.91-.135.932z"/><path d="m82.349 71.174c-.01.062-.011.121-.017.183-.035.047-.059.107-.064.18-.015.2-.024.399-.024.599-.215.001-.428.003-.642.006-.779.009-1.556.024-2.334.051-.165.004-.328.012-.494.017-.249.011-.399-.14-.446-.323-.071-.273.077-.62.446-.636.941-.038 1.885-.06 2.828-.069.248-.005.499-.006.747-.008z"/><path d="m79.383 73.743c.033.478-.525.585-.807.327-.084-.075-.141-.186-.153-.327-.046-.624-.163-1.228-.096-1.857.002-.019.004-.037.005-.056.033-.259.193-.479.481-.479.237 0 .512.221.479.479-.016.121-.024.241-.025.362-.01.367.032.729.072 1.093.017.151.034.304.044.458z"/><path d="m27.092 54.684c.345.307.716.586 1.121.811.541.301 1.025-.529.485-.83-.335-.186-.642-.406-.928-.661-.196-.172-.485-.192-.678 0-.177.179-.196.506 0 .68z"/><path d="m28.403 53.148c.244.274.558.489.866.683.221.14.528.048.657-.172.136-.231.049-.518-.173-.657-.274-.173-.454-.289-.67-.533-.173-.196-.502-.176-.679 0-.193.193-.175.484-.001.679z"/><path d="m88.375 72.377c.041.441.17.882.426 1.249.148.215.418.313.656.174.212-.127.323-.443.173-.658-.157-.226-.271-.504-.295-.765s-.2-.481-.479-.481c-.245 0-.505.22-.481.481z"/><path d="m94.01 73.801c.006.177-.067.301-.178.378-.015.01-.028.02-.045.026-.152.083-.353.079-.505-.007-.131-.073-.227-.205-.232-.397-.007-.185-.011-.369-.018-.554-.01-.359-.021-.716-.033-1.074-.005-.158-.01-.317-.016-.475-.008-.29.198-.445.421-.463h.003c.253-.02.527.135.538.463.002.145.007.29.013.434 0 .01.002.021.002.03.012.357.021.715.033 1.072v.006c.005.186.011.375.017.561z"/><path d="m95.7 74.147c-.053.002-.108.004-.161.006-.585.017-1.167.034-1.751.053-.02 0-.037.003-.057.003-.057.002-.111-.006-.158-.02-.455-.135-.401-.923.158-.941.087-.001.175-.005.263-.007.004 0 .011-.002.017-.002.499-.016.998-.031 1.499-.046.063-.003.127-.004.19-.006.617-.02.616.94 0 .96z"/><path d="m96.028 71.695c-.028.215-.183.409-.46.419-.029 0-.062.002-.09.002-.508.017-1.014.031-1.518.047-.143.004-.283.011-.426.015-.057.002-.105-.004-.152-.017-.425-.12-.416-.802.022-.925h.003c.038-.011.08-.017.127-.02.192-.005.387-.011.581-.018.443-.015.887-.028 1.331-.042.041-.001.081-.001.121-.003.065-.003.126.008.176.023.22.077.314.306.285.519z"/><path d="m96.513 74.642c.005.133-.035.237-.102.312-.246.278-.844.174-.858-.312 0-.017-.002-.032-.002-.051-.004-.146-.007-.293-.013-.438-.011-.321-.019-.643-.029-.96-.01-.359-.021-.719-.031-1.077-.011-.321-.02-.64-.031-.959-.009-.309-.018-.616-.027-.925v-.038c.011-.315.286-.455.539-.421.01 0 .021.002.03.003.081.017.163.054.228.106.005.004.011.01.016.015.054.047.096.108.121.186.011.034.021.07.024.11 0 .013.002.025.002.039 0 .012 0 .023.001.035.003.076.004.151.007.228.002.063.004.129.005.192.003.021.003.043.003.067.01.318.02.639.03.96.029.975.059 1.95.087 2.928z"/><path d="m96.412 74.954c-.016.098-.062.191-.132.269-.072.077-.144.151-.216.229-.158.168-.316.338-.476.504-.179.193-.497.181-.678 0-.042-.039-.074-.085-.095-.134-.085-.177-.048-.394.095-.542.215-.229.428-.458.641-.688.017-.017.033-.031.049-.049.18-.19.498-.181.68 0 .112.112.153.266.132.411z"/><path d="m97.506 76.214c-.074.095-.192.156-.348.163-.632.02-1.265.039-1.899.058-.374.013-.521-.334-.443-.614.052-.182.199-.338.443-.346.269-.008.538-.016.805-.024.365-.01.731-.021 1.095-.033h.016c.45-.002.563.522.331.796z"/><path d="m98.146 75.781c.011.387-.356.53-.64.434-.173-.056-.313-.202-.321-.434-.004-.121-.006-.241-.011-.363-.038-1.242-.078-2.482-.114-3.723-.006-.181-.011-.362-.017-.544-.004-.137-.008-.278-.013-.416 0-.047-.003-.091-.004-.137-.009-.245-.017-.49-.024-.734 0-.018 0-.037-.001-.055-.001-.109-.006-.218-.01-.328v-.011c-.013-.452.492-.572.774-.365 0 0 .002 0 .002.002.106.073.178.194.185.363.065 2.104.129 4.206.194 6.311z"/><path d="m97.366 69.852c-.049.001-.103.003-.15.003-.011.002-.02.002-.03.002-.062.003-.12.004-.183.007-.045 0-.092.002-.139.004-.026 0-.057.002-.085.002-.136.004-.274.007-.411.013-.029 0-.058.002-.087.002-.017 0-.033 0-.049-.002h-.016c-.097-.008-.175-.043-.235-.09-.007-.006-.014-.015-.022-.02-.221-.208-.185-.643.106-.795.062-.031.135-.052.216-.054.362-.012.726-.021 1.085-.033.195-.006.329.085.399.214 0 0 .002 0 .002.002.155.279.023.731-.401.745z"/><path d="m96.377 70.164v.029c-.003.031-.005.063-.014.091-.01.039-.025.076-.043.109-.01.014-.016.027-.027.04-.087.127-.236.209-.396.209-.257 0-.455-.199-.478-.448 0-.007-.002-.02-.002-.03-.008-.249-.016-.498-.022-.746-.009-.264.226-.479.479-.479.068 0 .132.013.19.04.168.075.284.245.289.439 0 .018.002.037.002.054 0 .021.002.042.002.063.005.115.008.232.01.348.005.063.006.127.007.189.001.031.003.059.003.092z"/><path d="m97.22 70.729c-.34.012-.679.021-1.018.032-.618.02-.619.979 0 .96.339-.011.678-.021 1.018-.032.616-.019.617-.978 0-.96z"/><path d="m97.362 70.583c-.078-.278-.152-.557-.196-.843-.293.122-.585.247-.878.369.083.161-.013-.06.027.068.013.04.023.08.036.12.197-.196.395-.395.592-.592-.121-.04.087.048-.054-.024-.071-.038-.076-.042-.116-.078-.196-.172-.485-.193-.677 0-.179.177-.197.507 0 .681.174.155.367.271.591.349.339.115.703-.253.59-.59-.048-.144-.092-.281-.161-.418-.093-.189-.343-.274-.541-.221-.274.075-.374.332-.334.591.043.286.115.564.194.843.17.594 1.095.341.927-.255z"/><path d="m76.302 51.975c-.182.041-.385-.01-.515-.208-.09-.137-.178-.273-.264-.412-.318-.501-.623-1.012-.945-1.513-.336-.524.496-1.003.829-.486.409.637.79 1.295 1.21 1.926.212.32-.025.625-.315.693z"/><path d="m76.216 50.727c.486-.352 1.004-.66 1.504-.992.515-.339.034-1.171-.483-.829-.501.332-1.018.64-1.505.992-.211.153-.313.414-.171.657.121.209.444.325.655.172z"/><path d="m81.484 53.929c-.182.221-.599.298-.834-.01-1.148-1.512-2.297-3.027-3.446-4.541-.375-.493.459-.971.827-.485 1.04 1.367 2.074 2.732 3.111 4.099.113.148.227.295.338.444.139.182.111.362.004.493z"/><path d="m83.025 52.554c-.013.147-.103.284-.235.384-.432.328-.864.657-1.296.985-.004.001-.006.004-.01.006-.21.147-.53.023-.646-.179-.146-.246-.037-.499.17-.657.044-.034.09-.066.135-.102.323-.245.648-.491.971-.737.063-.047.129-.097.193-.146.209-.16.535-.033.654.173.055.094.075.185.064.273z"/><path d="m83.025 52.554c-.029.031-.064.058-.098.079-.245.143-.498.037-.656-.171-.053-.069-.105-.139-.158-.208-.376-.496-.749-.992-1.127-1.487-.159-.209-.033-.537.172-.657.245-.144.498-.035.656.172.428.565.857 1.129 1.288 1.693.132.174.065.43-.077.579z"/><path d="m80.938 51.361c.54-.41 1.082-.822 1.622-1.232.209-.158.316-.41.172-.656-.119-.206-.448-.332-.656-.173-.541.411-1.081.821-1.62 1.231-.21.159-.317.411-.175.657.121.206.45.331.657.173z"/><path d="m77.083 42.886c1.673 2.204 3.307 4.435 4.978 6.64.369.486 1.203.009.829-.485-1.672-2.203-3.305-4.435-4.978-6.638-.37-.487-1.204-.01-.829.483z"/><path d="m74.974 44.423c1.623 2.138 3.248 4.276 4.871 6.415.37.486 1.205.009.829-.484-1.624-2.139-3.248-4.278-4.871-6.416-.371-.486-1.204-.009-.829.485z"/><path d="m75.831 44.372c.604-.319 1.173-.695 1.732-1.087.502-.353.023-1.186-.484-.829-.559.393-1.128.769-1.732 1.087-.547.289-.062 1.118.484.829z"/><path d="m49.574 40.436c-2.081 3.208-4.16 6.414-6.242 9.621-.337.521.495 1.001.83.484 2.081-3.207 4.161-6.414 6.24-9.62.339-.521-.493-1.003-.828-.485z"/><path d="m43.941 49.758c-.668-2.458-1.337-4.917-2.006-7.376-.163-.597-1.09-.343-.926.256.669 2.458 1.338 4.917 2.008 7.375.162.597 1.087.343.924-.255z"/><path d="m41.599 42.839c2.833-.656 5.697-1.171 8.538-1.8.604-.134.347-1.06-.256-.926-2.84.63-5.704 1.145-8.537 1.8-.602.141-.347 1.066.255.926z"/><path d="m17.111 74.119h-2.303c-.111 0-.2-.031-.271-.082-.329-.229-.238-.879.271-.879h2.303c.622 0 .622.961 0 .961z"/><path d="m14.538 74.037c-.079-.015-.157-.053-.23-.121-.614-.557-1.27-1.063-1.848-1.656-.165-.169-.169-.371-.086-.532.133-.265.495-.42.764-.146.185.188.375.367.571.541.39.352.797.684 1.189 1.035.032.026.059.052.088.078.387.351-.034.885-.448.801z"/><path d="m15.541 71.887c-.049.105-.149.186-.31.209-.511.07-1.016.054-1.521.026-.295-.014-.59-.03-.886-.035-.256-.004-.405-.168-.449-.36-.064-.274.086-.603.449-.599.711.009 1.441.141 2.152.041.008-.002.016-.002.023-.002.431-.042.68.431.542.72z"/><path d="m16.715 70.535c-.009.033-.025.063-.046.093-.264.37-.617.674-.865 1.056-.071.111-.164.175-.264.204-.371.105-.829-.278-.563-.689.008-.01.014-.021.021-.03.239-.359.566-.648.821-.997.007-.01.014-.021.021-.028.15-.213.416-.313.657-.171.181.104.291.356.218.562z"/><path d="m16.784 70.265c.004.108-.023.2-.069.27-.217.329-.87.236-.891-.27-.001-.031-.001-.063-.004-.095-.025-.553-.063-1.104-.147-1.649-.047-.313.174-.531.412-.589.227-.054.467.036.513.331.035.229.066.458.088.688.048.435.079.874.098 1.314z"/><path d="m18.072 69.018c-.054.292-.374.553-.715.366-.031-.02-.061-.036-.092-.055-.201-.114-.388-.248-.579-.379-.157-.108-.316-.217-.481-.312-.296-.172-.281-.499-.12-.707.133-.172.363-.262.605-.12.396.227.749.522 1.152.741.201.112.26.296.23.466z"/><path d="m28.591 82.194c.007.604-.913.618-.958.038 0-.011 0-.025 0-.038-.009-.628-.089-1.25-.114-1.879v-.005c-.003-.064-.005-.132-.005-.2-.001-.017-.001-.036-.001-.053-.004-.264.167-.416.365-.453.057-.012.112-.014.171-.009.039.004.08.014.118.027.167.06.304.203.306.435.008.642.092 1.279.115 1.921.001.071.001.144.003.216z"/><path d="m30.17 83.84c-.067 0-.14-.019-.213-.058-.036-.019-.074-.037-.109-.06-.655-.347-1.298-.728-1.979-1.021-.229-.098-.287-.291-.235-.471.076-.265.385-.501.721-.357.079.032.155.067.232.104.325.15.643.316.958.49.3.16.595.328.896.485.101.055.169.127.206.208.134.295-.128.696-.477.68z"/><path d="m30.17 83.84c-.12.011-.238-.025-.322-.117-.054-.052-.094-.128-.112-.226-.063-.344-.127-.686-.191-1.029-.084-.455-.168-.908-.238-1.365-.002-.003-.002-.004-.002-.006-.067-.43.38-.687.678-.58.101.034.185.112.227.238.01.027.015.054.021.085.014.097.03.196.047.296.111.678.246 1.351.369 2.025.005.026.01.052.015.079.065.351-.22.585-.492.6z"/><path d="m30.657 80.735c-.006.003-.012.006-.017.009-.025.021-.047.045-.073.069-.014.016-.027.029-.038.044-.05.053-.096.104-.142.158-.037.041-.073.082-.11.121-.083.09-.167.17-.269.247-.209.158-.535.033-.657-.173-.021-.037-.037-.073-.045-.107-.002-.003-.002-.004-.002-.006-.056-.195.032-.386.19-.52-.017.015-.028.022-.034.026.008-.012.042-.039.057-.054.027-.029.055-.058.08-.088.063-.067.12-.138.179-.206.105-.119.222-.244.359-.326.002-.002.002-.002.004-.002.01-.008.021-.017.033-.021.231-.126.522-.06.657.171.131.221.057.533-.172.658z"/><path d="m32.563 81.103c-.077.209-.274.358-.547.257-.492-.184-.985-.354-1.486-.503-.081-.026-.162-.05-.242-.073-.028-.007-.053-.017-.078-.028-.116-.055-.19-.139-.227-.238-.08-.2-.012-.453.153-.587.002-.002.002-.002.004-.002.01-.008.021-.017.033-.021.001-.001.003-.002.004-.002.098-.062.22-.089.366-.048.351.1.699.211 1.042.33.232.079.458.161.687.246.303.114.376.432.291.669z"/><path d="m32.278 78.561c-.023.217-.177.408-.458.392-.147-.01-.297-.018-.446-.027-.703-.036-1.406-.067-2.109-.069-.042 0-.082-.003-.118-.013-.501-.114-.459-.948.118-.947h.051c.836.004 1.669.049 2.504.096.333.019.486.31.458.568z"/><path d="m32.563 81.103c-.213.312-.763.35-.847-.113-.046-.268-.088-.535-.132-.803-.066-.421-.132-.843-.211-1.262-.005-.032-.01-.063-.016-.096-.117-.601.793-.858.921-.269.002.004.004.008.004.013.136.717.234 1.441.36 2.161.024.146-.011.271-.079.369z"/></g><path d="m24.497 41.312c.428 0 .428-.662 0-.662s-.428.662 0 .662z" fill="#31ffa6"/><path d="m24.21 42.48v4.057c0 .427.662.427.662 0 0-1.351 0-2.705 0-4.057 0-.426-.662-.426-.662 0z" fill="#171650"/><path d="m24.872 39.569c0-.94 0-1.881 0-2.823 0-.426-.662-.426-.662 0v2.823c0 .427.662.427.662 0z" fill="#171650"/><path d="m24.541 35.754c.426 0 .426-.661 0-.661-.427.001-.427.661 0 .661z" fill="#171650"/><path d="m25.775 41.224h4.411c.426 0 .426-.662 0-.662-1.471 0-2.941 0-4.411 0-.426 0-.426.662 0 .662z" fill="#171650"/><path d="m31.245 41.135c.427 0 .427-.662 0-.662s-.427.662 0 .662z" fill="#171650"/><path d="m23.041 40.562c-1.176 0-2.352 0-3.528 0-.426 0-.426.662 0 .662h3.528c.427 0 .427-.662 0-.662z" fill="#171650"/><path d="m18.278 41.312c.426 0 .426-.662 0-.662s-.426.662 0 .662z" fill="#171650"/><path d="m26.6 38.453c-.323.324-.646.647-.97.971-.302.302.166.77.468.468.323-.324.646-.646.97-.97.302-.303-.166-.771-.468-.469z" fill="#171650"/><path d="m22.278 39.098c.265.265.529.529.793.794.302.301.77-.166.468-.468-.265-.265-.53-.528-.794-.793-.302-.302-.769.165-.467.467z" fill="#171650"/><path d="m25.542 42.45c.323.323.647.646.971.97.302.302.77-.165.467-.467-.324-.324-.647-.647-.97-.971-.302-.302-.771.166-.468.468z" fill="#171650"/><path d="m22.852 42.159c-.206.206-.412.411-.617.617-.302.302.166.77.468.468.205-.206.411-.412.617-.618.301-.302-.167-.77-.468-.467z" fill="#171650"/><path d="m27.364 44.31c.426 0 .426-.661 0-.661-.427 0-.427.661 0 .661z" fill="#171650"/><path d="m27.54 38.4c.426 0 .426-.661 0-.661-.427 0-.427.661 0 .661z" fill="#171650"/><path d="m21.807 37.784c.426 0 .426-.662 0-.662-.427 0-.427.662 0 .662z" fill="#171650"/><path d="m21.322 44.046c.426 0 .426-.663 0-.663-.427 0-.427.663 0 .663z" fill="#171650"/><path d="m64.594 29.45c.499 0 .499-.773 0-.773s-.499.773 0 .773z" fill="#31ffa6"/><path d="m64.259 30.818v4.748c0 .498.774.498.774 0 0-1.583 0-3.166 0-4.748.001-.5-.774-.5-.774 0z" fill="#171650"/><path d="m65.034 27.413c0-1.102 0-2.202 0-3.303 0-.5-.774-.5-.774 0v3.303c-.001.498.774.498.774 0z" fill="#171650"/><path d="m64.646 22.949c.499 0 .499-.773 0-.773s-.499.773 0 .773z" fill="#171650"/><path d="m66.09 29.348h5.16c.5 0 .5-.774 0-.774-1.719 0-3.44 0-5.16 0-.499 0-.499.774 0 .774z" fill="#171650"/><path d="m72.489 29.244c.499 0 .499-.774 0-.774s-.499.774 0 .774z" fill="#171650"/><path d="m62.892 28.574c-1.376 0-2.753 0-4.128 0-.499 0-.499.774 0 .774h4.128c.5 0 .5-.774 0-.774z" fill="#171650"/><path d="m57.319 29.45c.499 0 .499-.773 0-.773s-.499.773 0 .773z" fill="#171650"/><path d="m67.056 26.107c-.379.378-.757.757-1.135 1.135-.354.353.193.9.548.547.377-.377.756-.755 1.134-1.135.355-.353-.194-.901-.547-.547z" fill="#171650"/><path d="m61.999 26.86c.311.31.62.619.929.928.354.354.902-.194.548-.547-.31-.31-.619-.619-.929-.929-.354-.353-.901.194-.548.548z" fill="#171650"/><path d="m65.818 30.782c.378.379.757.757 1.134 1.135.354.354.901-.194.548-.547-.378-.378-.757-.757-1.135-1.135-.354-.353-.902.194-.547.547z" fill="#171650"/><path d="m62.669 30.441c-.24.241-.481.481-.722.723-.354.354.193.9.547.547.241-.242.481-.482.724-.723.353-.353-.195-.9-.549-.547z" fill="#171650"/><path d="m67.948 32.96c.5 0 .5-.774 0-.774-.499 0-.499.774 0 .774z" fill="#171650"/><path d="m68.156 26.046c.498 0 .498-.775 0-.775-.5 0-.5.775 0 .775z" fill="#171650"/><path d="m61.446 25.322c.5 0 .5-.773 0-.773-.498 0-.498.773 0 .773z" fill="#171650"/><path d="m60.879 32.65c.499 0 .499-.774 0-.774s-.499.774 0 .774z" fill="#171650"/><path d="m93.841 56.09c.395 0 .395-.615 0-.615-.397.001-.397.615 0 .615z" fill="#31ffa6"/><path d="m93.574 57.176v3.77c0 .396.615.396.615 0 0-1.257 0-2.513 0-3.77 0-.397-.615-.397-.615 0z" fill="#171650"/><path d="m94.189 54.471c0-.874 0-1.749 0-2.623 0-.396-.615-.396-.615 0v2.623c0 .397.615.397.615 0z" fill="#171650"/><path d="m93.881 50.926c.396 0 .396-.615 0-.615-.395.001-.395.615 0 .615z" fill="#171650"/><path d="m95.03 56.008h4.096c.396 0 .396-.615 0-.615-1.364 0-2.729 0-4.096 0-.397 0-.397.615 0 .615z" fill="#171650"/><path d="m100.111 55.926c.395 0 .395-.615 0-.615-.398 0-.398.615 0 .615z" fill="#171650"/><path d="m92.488 55.393c-1.092 0-2.185 0-3.278 0-.396 0-.396.615 0 .615h3.278c.396 0 .396-.615 0-.615z" fill="#171650"/><path d="m88.062 56.09c.397 0 .397-.615 0-.615-.396.001-.396.615 0 .615z" fill="#171650"/><path d="m95.795 53.434c-.301.301-.602.601-.901.901-.281.28.153.715.434.435.301-.301.603-.602.902-.901.28-.281-.154-.715-.435-.435z" fill="#171650"/><path d="m91.779 54.032c.245.246.492.492.737.738.281.28.716-.155.435-.435-.246-.246-.491-.492-.737-.737-.281-.281-.715.154-.435.434z" fill="#171650"/><path d="m94.812 57.147c.3.301.601.601.901.902.28.28.714-.154.434-.435-.299-.3-.6-.601-.9-.901-.281-.281-.715.154-.435.434z" fill="#171650"/><path d="m92.313 56.876c-.192.191-.384.383-.575.573-.281.281.154.716.436.435.189-.191.382-.382.573-.573.28-.28-.155-.715-.434-.435z" fill="#171650"/><path d="m96.503 58.877c.396 0 .396-.615 0-.615s-.396.615 0 .615z" fill="#171650"/><path d="m96.668 53.385c.396 0 .396-.615 0-.615-.398 0-.398.615 0 .615z" fill="#171650"/><path d="m91.34 52.811c.396 0 .396-.614 0-.614s-.396.614 0 .614z" fill="#171650"/><path d="m90.89 58.63c.396 0 .396-.614 0-.614s-.395.614 0 .614z" fill="#171650"/><path d="m9.826 38.141v53.121l46.072 26.559 46.074-26.559v-53.121l-46.074-26.561zm90.281 1.08v50.971l-44.209 25.489-44.211-25.489v-50.971l44.211-25.489z" opacity=".13"/></svg>