<svg height="843" viewBox="0 0 730 843" width="730" xmlns="http://www.w3.org/2000/svg" xmlns:xlink="http://www.w3.org/1999/xlink"><mask id="a" fill="#fff"><path d="m333.445.775-333 185 14 370 336 199 332-197-22-390z" fill="#fff" fill-rule="evenodd"/></mask><g fill="none" fill-rule="evenodd"><path d="m668.156 596.559v-349.91l-303.211-174.955-303.212 174.955v349.91l303.212 174.955z" fill="#2e3192" fill-rule="nonzero"/><g fill="#fff" font-family="Helvetica" font-size="24.9647" mask="url(#a)" opacity=".2448" transform="translate(20 51)"><g transform="translate(-90 -2)"><text><tspan x=".844" y="24.6501">00111101 0011010 0 1100 10 000111101 0011010 0 1100</tspan></text><text><tspan x=".844" y="51.865">001 0011 010 0 110 00001 0011 010 0 110 00</tspan></text><text><tspan x=".844" y="79.0798">0 101 00 11010 0 1100 100000 01 00 11 010 0 1100 100000</tspan></text><text><tspan x=".844" y="160.7244">0 101 00 1 00 100 000 101 00 110 10 0 110</tspan></text><text><tspan x=".844" y="106.2947">00111 00 110 10 0 110 0 10 011 00 11 0 10 0 11</tspan></text><text><tspan x=".844" y="133.5173">001 010 0 110 0 1 010 0 110 0 100</tspan></text><text><tspan x=".844" y="187.947">00111101 0011010 0 1100 10 11101 0011010 0 1100</tspan></text><text><tspan x=".844" y="215.1619">001 0011 010 0 110 00001 0011 010 0 110 00</tspan></text><text><tspan x=".844" y="242.3767">0 101 00 1 00 100000 01 00 11 010 0 1100 100000</tspan></text><text><tspan x=".844" y="324.0173">0 101 00 11010 0 1100 100 000 101 00 110 10 0 110</tspan></text><text><tspan x=".844" y="269.5916">00111 0 110 0 10 011 00 11 0 10 0 11</tspan></text><text><tspan x=".844" y="296.8025">001 010 0 110 0 100 01 010 0 110 0 100</tspan></text><text><tspan x=".844" y="351.2322">00111101 0011010 0 11101 0011010 0 1100</tspan></text><text><tspan x=".844" y="378.447">001 0 0 0 110 00001 0011 010 0 110 00</tspan></text><text><tspan x=".844" y="405.6619">0 101 00 11 100 100000 01 00 11 010 0 1100 100000</tspan></text><text><tspan x=".844" y="487.3142">0 101 00 11010 0 1100 100 000 101 00 110 10 0 110</tspan></text><text><tspan x=".844" y="432.8845">00111 00 110 10 0 110 0 10 011 00 11 0 10 0 11</tspan></text><text><tspan x=".844" y="460.0916">001 010 0 110 0 100 01 010 0 110 0 100</tspan></text><text><tspan x=".844" y="568.9587">0 101 00 11010 0 1100 100 000 101 00 110 10 0 110</tspan></text><text><tspan x=".844" y="514.5291">00111 0 110 0 10 011 00 11 0 10 0 11</tspan></text><text><tspan x=".844" y="541.7439">001 010 0 110 0 100 01 010 0 110 0 100</tspan></text><text><tspan x=".844" y="596.1736">00111101 0011010 0 11101 0011010 0 1100</tspan></text><text><tspan x=".844" y="623.3884">001 0 0 0 110 00001 0011 010 0 110 00</tspan></text><text><tspan x=".844" y="650.6033">0 101 00 11 100 100000 01 00 11 010 0 1100 100000</tspan></text><text><tspan x=".844" y="732.2517">0 101 00 11010 0 1100 100 000 101 00 110 10 0 110</tspan></text><text><tspan x=".844" y="677.8181">00111 00 110 10 0 110 0 10 011 00 11 0 10 0 11</tspan></text><text><tspan x=".844" y="705.033">001 010 0 110 0 100 01 010 0 110 0 100</tspan></text></g></g><g fill-rule="nonzero"><g><path d="m365.274 771.185-303.212-174.955v-349.91l303.212-174.955 303.212 174.955v349.91zm-365.038-139.437 365.038 210.472 364.38-210.472v-420.946l-364.38-210.472-365.038 210.472z" fill="#662d91"/><path d="m15.847 183.528 287.427-165.747 286.769 165.747v331.494l-286.769 165.747-287.427-165.747zm-15.128-9.208v349.91l302.555 174.955 302.553-174.955v-349.253l-302.553-174.955z" fill="#000" opacity=".13" transform="translate(62 72)"/></g><path d="m532.007 272.958c-1.315-5.919-21.705-9.866-46.698-9.866-.658 0-1.974 0-2.631 0-1.974-5.919-7.893-9.865-14.471-9.865-2.631 0-4.604.657-6.577 1.315-1.315-12.497-12.497-23.021-25.651-23.021-7.234 0-13.154 2.631-17.758 7.234-4.604-11.181-15.128-19.074-27.625-19.074-1.973 0-3.289 0-5.262.658-4.604-11.839-15.785-19.731-28.282-21.705-1.315-13.154-12.497-24.336-25.651-24.336-14.47 0-26.31 11.839-26.31 26.31v1.973c-13.154 2.631-23.02 13.813-23.02 27.625 0 1.315 0 3.288.657 4.604h-.657c-13.155 0-23.679 9.866-24.336 23.021-7.235-1.973-16.443-2.631-25.651-2.631-25.651 0-46.698 7.235-46.698 15.786 0 1.315.657 1.973 1.315 3.288-20.39 1.315-32.887 4.604-36.176 6.577-36.175 18.417 134.834 13.813 165.747 11.182s140.096-2.631 167.063-1.974c26.31.658 110.498 2.631 100.632-9.865-5.919-4.605-33.544-5.263-51.96-7.236z" fill="#92c1f4"/><g transform="translate(154 231)"><path d="m201.737 59.058-55.908-29.597 55.908-28.94 55.906 28.94z" fill="#fcf295"/><g transform="translate(146 30)"><path d="m55.737 242.82v-213.762l-55.249-28.939v213.761z" fill="#fcee21"/><path d="m55.737 242.82v-213.762l55.249-28.939v213.761z" fill="#b7a611"/></g><path d="m128.729 156.402-55.906-28.939 55.906-29.598 55.249 29.598z" fill="#fcf295"/><g transform="translate(72 127)"><path d="m56.729 183.968v-154.566l-55.906-28.939v154.565z" fill="#fcee21"/><path d="m56.729 183.968v-154.566l55.249-28.939v154.565z" fill="#b7a611"/></g><path d="m55.721 272.162-55.249-29.598 55.249-28.939 55.907 28.939z" fill="#fcf295"/><g transform="translate(0 243)"><path d="m55.721 106.116v-76.954l-55.249-28.94v76.955z" fill="#fcee21"/><path d="m55.721 106.116v-76.954l55.907-28.94v76.955z" fill="#b7a611"/></g><path d="m280.663 133.382-55.906-29.598 55.906-28.94 55.249 28.94z" fill="#8cc63f"/><g transform="translate(224 103)"><path d="m56.663 209.283v-178.901l-55.906-29.598v179.56z" fill="#39b54a"/><path d="m56.663 209.283v-178.901l55.249-29.598v179.56z" fill="#009245"/></g><path d="m206.998 230.067-55.249-29.598 55.249-28.939 55.907 28.939z" fill="#8cc63f"/><g transform="translate(151 201)"><path d="m55.998 149.431v-120.364l-55.249-28.939v120.364z" fill="#39b54a"/><path d="m55.998 149.431v-120.364l55.907-28.939v120.364z" fill="#009245"/></g><path d="m134.649 311.626-55.908-29.598 55.908-28.94 55.906 28.94z" fill="#8cc63f"/><g transform="translate(79 282)"><path d="m55.649 106.58v-76.954l-55.249-29.598v77.611z" fill="#39b54a"/><path d="m55.649 106.58v-76.954l55.249-29.598v77.611z" fill="#009245"/></g><path d="m358.933 202.443-55.249-28.94 55.249-29.598 55.907 29.598z" fill="#78d3f4"/><g transform="translate(303 173)"><path d="m55.933 178.747v-149.304l-55.249-28.94v148.646z" fill="#29abe2"/><path d="m55.933 178.747v-149.304l55.907-28.94v148.646z" fill="#0071bc"/></g><path d="m285.925 293.867-55.249-29.598 55.249-28.939 55.907 28.939z" fill="#78d3f4"/><g transform="translate(230 264)"><path d="m55.925 125.895v-96.028l-55.249-28.94v96.028z" fill="#29abe2"/><path d="m55.925 125.895v-96.028l55.249-28.94v96.028z" fill="#0071bc"/></g><path d="m213.575 350.431-55.906-28.939 55.906-29.598 55.249 29.598z" fill="#78d3f4"/><g transform="translate(157 321)"><path d="m56.575 107.043v-77.612l-55.906-28.939v77.611z" fill="#29abe2"/><path d="m56.575 107.043v-77.612l55.249-28.939v77.611z" fill="#0071bc"/></g></g></g></g></svg>