<?xml version="1.0" encoding="utf-8"?>
<!-- Generator: Adobe Illustrator 16.0.0, SVG Export Plug-In . SVG Version: 6.00 Build 0)  -->
<!DOCTYPE svg PUBLIC "-//W3C//DTD SVG 1.1//EN" "http://www.w3.org/Graphics/SVG/1.1/DTD/svg11.dtd">
<svg version="1.1" xmlns="http://www.w3.org/2000/svg" xmlns:xlink="http://www.w3.org/1999/xlink" x="0px" y="0px"
	 width="110.979px" height="128.417px" viewBox="0 0 110.979 128.417" enable-background="new 0 0 110.979 128.417"
	 xml:space="preserve">
<g id="Layer_1">
</g>
<g id="Layer_4">
	<g>
		<polygon fill="#2E3192" points="101.633,90.945 101.633,37.572 55.557,10.886 9.479,37.572 9.479,90.945 55.557,117.632 		"/>
	</g>
	<g opacity="0.48" enable-background="new    ">
		<g>
			<g>
				<defs>
					<polygon id="SVGID_1_" points="53.809,7.848 3.205,36.066 5.333,92.503 56.392,122.859 106.844,92.81 103.501,33.321 					"/>
				</defs>
				<clipPath id="SVGID_2_">
					<use xlink:href="#SVGID_1_"  overflow="visible"/>
				</clipPath>
				<g opacity="0.51" clip-path="url(#SVGID_2_)">
					<text transform="matrix(0.9963 0 0 1 -10.4106 11.1851)" fill="#FFFFFF" font-family="'Verdana'" font-size="3.808">00111101     0011010  0        1100 10 000111101     0011010  0        1100</text>
					<text transform="matrix(0.9963 0 0 1 -10.4106 15.3364)" fill="#FFFFFF" font-family="'Verdana'" font-size="3.808">001      0011  010  0        110      00001      0011  010  0        110      00  </text>
					<text transform="matrix(0.9963 0 0 1 -10.4106 19.4868)" fill="#FFFFFF" font-family="'Verdana'" font-size="3.808">0   101     00 11010  0    1100 100000  01     00 11   010  0    1100 100000   </text>
					<text transform="matrix(0.9963 0 0 1 -10.4106 31.9409)" fill="#FFFFFF" font-family="'Verdana'" font-size="3.808">0   101     00 1                      00 100    000   101     00 110   10  0    110 </text>
					<text transform="matrix(0.9963 0 0 1 -10.4106 23.6382)" fill="#FFFFFF" font-family="'Verdana'" font-size="3.808">00111     00 110  10  0        110   0 10   011     00 11     0  10  0        11  </text>
					<text transform="matrix(0.9963 0 0 1 -10.4106 27.7905)" fill="#FFFFFF" font-family="'Verdana'" font-size="3.808">001         010  0        110       0 1         010  0        110       0 100</text>
					<text transform="matrix(0.9963 0 0 1 -10.4106 36.0933)" fill="#FFFFFF" font-family="'Verdana'" font-size="3.808">00111101     0011010  0        1100 10        11101     0011010  0        1100</text>
					<text transform="matrix(0.9963 0 0 1 -10.4106 40.2446)" fill="#FFFFFF" font-family="'Verdana'" font-size="3.808">001      0011  010  0        110      00001      0011  010  0        110      00  </text>
					<text transform="matrix(0.9963 0 0 1 -10.4106 44.396)" fill="#FFFFFF" font-family="'Verdana'" font-size="3.808">0   101     00 1               00 100000  01     00 11   010  0    1100 100000   </text>
					<text transform="matrix(0.9963 0 0 1 -10.4106 56.8481)" fill="#FFFFFF" font-family="'Verdana'" font-size="3.808">0   101     00 11010  0    1100 100    000   101     00 110   10  0    110 </text>
					<text transform="matrix(0.9963 0 0 1 -10.4106 48.5474)" fill="#FFFFFF" font-family="'Verdana'" font-size="3.808">00111                         0        110   0 10   011     00 11     0  10  0        11  </text>
					<text transform="matrix(0.9963 0 0 1 -10.4106 52.6968)" fill="#FFFFFF" font-family="'Verdana'" font-size="3.808">001         010  0        110       0 100 01         010  0        110       0 100</text>
					<text transform="matrix(0.9963 0 0 1 -10.4106 60.9995)" fill="#FFFFFF" font-family="'Verdana'" font-size="3.808">00111101     0011010  0                      11101     0011010  0        1100</text>
					<text transform="matrix(0.9963 0 0 1 -10.4106 65.1509)" fill="#FFFFFF" font-family="'Verdana'" font-size="3.808">001      0                0  0        110      00001      0011  010  0        110      00  </text>
					<text transform="matrix(0.9963 0 0 1 -10.4106 69.3022)" fill="#FFFFFF" font-family="'Verdana'" font-size="3.808">0   101     00 11               100 100000  01     00 11   010  0    1100 100000   </text>
					<text transform="matrix(0.9963 0 0 1 -10.4106 81.7573)" fill="#FFFFFF" font-family="'Verdana'" font-size="3.808">0   101     00 11010  0    1100 100    000   101     00 110   10  0    110 </text>
					<text transform="matrix(0.9963 0 0 1 -10.4106 73.4546)" fill="#FFFFFF" font-family="'Verdana'" font-size="3.808">00111     00 110  10  0        110   0 10   011     00 11     0  10  0        11  </text>
					<text transform="matrix(0.9963 0 0 1 -10.4106 77.604)" fill="#FFFFFF" font-family="'Verdana'" font-size="3.808">001         010  0        110       0 100 01         010  0        110       0 100</text>
					<text transform="matrix(0.9963 0 0 1 -10.4106 94.2104)" fill="#FFFFFF" font-family="'Verdana'" font-size="3.808">0   101     00 11010  0    1100 100    000   101     00 110   10  0    110 </text>
					<text transform="matrix(0.9963 0 0 1 -10.4106 85.9077)" fill="#FFFFFF" font-family="'Verdana'" font-size="3.808">00111                         0        110   0 10   011     00 11     0  10  0        11  </text>
					<text transform="matrix(0.9963 0 0 1 -10.4106 90.0591)" fill="#FFFFFF" font-family="'Verdana'" font-size="3.808">001         010  0        110       0 100 01         010  0        110       0 100</text>
					<text transform="matrix(0.9963 0 0 1 -10.4106 98.3618)" fill="#FFFFFF" font-family="'Verdana'" font-size="3.808">00111101     0011010  0                      11101     0011010  0        1100</text>
					<text transform="matrix(0.9963 0 0 1 -10.4106 102.5122)" fill="#FFFFFF" font-family="'Verdana'" font-size="3.808">001      0                0  0        110      00001      0011  010  0        110      00  </text>
					<text transform="matrix(0.9963 0 0 1 -10.4106 106.6646)" fill="#FFFFFF" font-family="'Verdana'" font-size="3.808">0   101     00 11               100 100000  01     00 11   010  0    1100 100000   </text>
					<text transform="matrix(0.9963 0 0 1 -10.4106 119.1177)" fill="#FFFFFF" font-family="'Verdana'" font-size="3.808">0   101     00 11010  0    1100 100    000   101     00 110   10  0    110 </text>
					<text transform="matrix(0.9963 0 0 1 -10.4106 110.8149)" fill="#FFFFFF" font-family="'Verdana'" font-size="3.808">00111     00 110  10  0        110   0 10   011     00 11     0  10  0        11  </text>
					<text transform="matrix(0.9963 0 0 1 -10.4106 114.9663)" fill="#FFFFFF" font-family="'Verdana'" font-size="3.808">001         010  0        110       0 100 01         010  0        110       0 100</text>
				</g>
			</g>
		</g>
	</g>
	<g>
		<path fill="#662D91" d="M55.607,117.582L9.529,90.895V37.522l46.078-26.686l46.077,26.686v53.373L55.607,117.582z M0.134,96.313
			l55.473,32.104l55.372-32.104V32.104L55.607,0L0.134,32.104V96.313z"/>
		<g>
			<g opacity="0.13">
				<g>
					<path d="M11.928,38.926l43.679-25.281l43.578,25.281v50.565l-43.578,25.281L11.928,89.492V38.926z M9.629,37.522v53.373
						l45.978,26.687l45.977-26.687V37.623L55.607,10.936L9.629,37.522z"/>
				</g>
			</g>
		</g>
	</g>
	<path fill="#92C1F4" d="M80.945,41.586c-0.2-0.903-3.299-1.505-7.098-1.505c-0.1,0-0.299,0-0.399,0
		c-0.3-0.904-1.198-1.505-2.199-1.505c-0.399,0-0.7,0.1-1,0.201c-0.199-1.906-1.898-3.512-3.897-3.512
		c-1.099,0-1.999,0.401-2.698,1.103c-0.7-1.705-2.299-2.91-4.198-2.91c-0.3,0-0.499,0-0.799,0.101
		c-0.7-1.806-2.399-3.01-4.299-3.311c-0.2-2.006-1.899-3.712-3.898-3.712c-2.199,0-3.998,1.806-3.998,4.014c0,0.1,0,0.2,0,0.301
		c-1.999,0.402-3.499,2.107-3.499,4.214c0,0.201,0,0.501,0.101,0.702h-0.101c-1.999,0-3.598,1.505-3.698,3.512
		c-1.1-0.301-2.499-0.401-3.898-0.401c-3.898,0-7.096,1.103-7.096,2.408c0,0.201,0.1,0.301,0.2,0.502
		c-3.099,0.201-4.998,0.702-5.498,1.003c-5.498,2.81,20.489,2.106,25.188,1.706c4.698-0.401,21.289-0.401,25.388-0.301
		c3.997,0.1,16.791,0.401,15.291-1.505C87.941,41.987,83.743,41.887,80.945,41.586z"/>
	<g>
		<polygon fill="#FCF295" points="54.157,44.194 45.661,39.68 54.157,35.265 62.653,39.68 		"/>
		<g>
			<polygon fill="#FCEE21" points="54.157,76.8 54.157,44.194 45.762,39.78 45.762,72.385 			"/>
			<polygon fill="#B7A611" points="54.157,76.8 54.157,44.194 62.553,39.78 62.553,72.385 			"/>
		</g>
		<polygon fill="#FCF295" points="43.063,59.042 34.567,54.628 43.063,50.113 51.459,54.628 		"/>
		<g>
			<polygon fill="#FCEE21" points="43.063,82.619 43.063,59.042 34.567,54.628 34.567,78.205 			"/>
			<polygon fill="#B7A611" points="43.063,82.619 43.063,59.042 51.459,54.628 51.459,78.205 			"/>
		</g>
		<polygon fill="#FCF295" points="31.968,76.7 23.572,72.185 31.968,67.771 40.464,72.185 		"/>
		<g>
			<polygon fill="#FCEE21" points="31.968,88.438 31.968,76.7 23.572,72.286 23.572,84.024 			"/>
			<polygon fill="#B7A611" points="31.968,88.438 31.968,76.7 40.464,72.286 40.464,84.024 			"/>
		</g>
		<polygon fill="#8CC63F" points="66.151,55.531 57.656,51.016 66.151,46.602 74.547,51.016 		"/>
		<g>
			<polygon fill="#39B54A" points="66.151,82.819 66.151,55.531 57.656,51.016 57.656,78.405 			"/>
			<polygon fill="#009245" points="66.151,82.819 66.151,55.531 74.547,51.016 74.547,78.405 			"/>
		</g>
		<polygon fill="#8CC63F" points="54.957,70.279 46.561,65.764 54.957,61.35 63.453,65.764 		"/>
		<g>
			<polygon fill="#39B54A" points="54.957,88.638 54.957,70.279 46.561,65.865 46.561,84.224 			"/>
			<polygon fill="#009245" points="54.957,88.638 54.957,70.279 63.453,65.865 63.453,84.224 			"/>
		</g>
		<polygon fill="#8CC63F" points="43.962,82.719 35.466,78.205 43.962,73.791 52.458,78.205 		"/>
		<g>
			<polygon fill="#39B54A" points="43.962,94.458 43.962,82.719 35.566,78.205 35.566,90.043 			"/>
			<polygon fill="#009245" points="43.962,94.458 43.962,82.719 52.358,78.205 52.358,90.043 			"/>
		</g>
		<polygon fill="#78D3F4" points="78.045,66.065 69.65,61.651 78.045,57.136 86.541,61.651 		"/>
		<g>
			<polygon fill="#29ABE2" points="78.045,88.838 78.045,66.065 69.65,61.651 69.65,84.325 			"/>
			<polygon fill="#0071BC" points="78.045,88.838 78.045,66.065 86.541,61.651 86.541,84.325 			"/>
		</g>
		<polygon fill="#78D3F4" points="66.951,80.01 58.554,75.496 66.951,71.082 75.446,75.496 		"/>
		<g>
			<polygon fill="#29ABE2" points="66.951,94.659 66.951,80.01 58.554,75.596 58.554,90.244 			"/>
			<polygon fill="#0071BC" points="66.951,94.659 66.951,80.01 75.347,75.596 75.347,90.244 			"/>
		</g>
		<polygon fill="#78D3F4" points="55.956,88.638 47.46,84.224 55.956,79.708 64.352,84.224 		"/>
		<g>
			<polygon fill="#29ABE2" points="55.956,100.477 55.956,88.638 47.46,84.224 47.46,96.062 			"/>
			<polygon fill="#0071BC" points="55.956,100.477 55.956,88.638 64.352,84.224 64.352,96.062 			"/>
		</g>
	</g>
</g>
<g id="Layer_3">
</g>
<g id="Layer_2">
</g>
</svg>
