<svg enable-background="new 8.75 -8.833 110.833 128.833" height="128.833" viewBox="8.75 -8.833 110.833 128.833" width="110.833" xmlns="http://www.w3.org/2000/svg"><path d="m119.744 87.5-55.425 32-55.426-32v-64l55.426-32 55.425 32z" fill="#13a36f"/><path d="m110.82 29.23v53.13l-10.43 6.02-.24.12-.13.06-.11.06-1.09.62-1.9 1.1-.1.06-1 .58-4 2.31-4 2.32-.46.27-.4.23-.14.08-.29.17-.18.1-.15.09-1.27.73-2.11 1.22-3 1.74-.36.21-1.64.95-1.37.79-1.17.68-2.46 1.42-2 1.16-.95.55-.05.03-1 .57-.45.26-.55.32-3 1.74-.37-.21-3.55-2.06-2.71-1.57-.14-.08-2.25-1.3-.01-.01-.46-.26-.3-.13-3.21-1.82v-.01l-5.07-2.97-1.7-1-.25-.15-.42-.24-.04-.01-.58-.33-.49-.28-24.45-14.13v-53.13l46-26.55z" fill="#1ec498"/><path d="m79.025 6.752c-.08.094-.162.188-.242.281-.813.944-1.197 1.975-1.268 2.982-2.859 13.373-2.225 28.254-.131 42.332 1.215 8.184 3.691 16.515 6.959 24.111 2.514 5.836 6.051 14.006 11.189 18.021 5.018 3.92 12.146-3.104 7.07-7.071-4.516-3.525-7.754-11.324-9.799-16.525-2.67-6.791-4.582-14.002-5.777-21.191-2.084-12.518-2.449-25.84.354-38.074 1.046-4.555-4.892-8.887-8.355-4.866z" fill="#13a36f"/><path d="m46.623 6.364c-4.181 17.392-4.331 36.446.789 53.578 2.713 9.081 6.512 17.718 10.894 26.104 2.221 4.252 4.577 8.36 7.431 12.223 2.512 3.4 6.043 5.977 8.391 9.447 3.592 5.309 12.26.311 8.635-5.047-2.014-2.978-4.563-5.301-7.053-7.86-2.934-3.017-5.07-6.978-7.072-10.64-4.132-7.563-7.671-15.252-10.461-23.41-5.522-16.144-5.962-33.963-2.156-50.629.367-.842.526-1.813.372-2.893-.042-.292-.083-.583-.125-.875-.72-5.022-8.553-4.539-9.645.002z" fill="#13a36f"/><path d="m13.819 29.943c-.568 6.041 1.384 11.859 3.12 17.563 1.911 6.281 3.552 12.65 5.65 18.871 2.049 6.076 4.753 11.916 7.842 17.526 3.026 5.495 5.816 11.906 10.228 16.45 4.499 4.633 11.563-2.445 7.071-7.071-3.302-3.399-5.485-8.616-7.746-12.743-2.995-5.467-5.661-10.938-7.752-16.82-1.995-5.609-3.428-11.434-5.128-17.137-1.619-5.433-3.826-10.882-3.284-16.64.603-6.42-9.403-6.362-10.001.001z" fill="#13a36f"/><path d="m72.422 62.113c-.025-.014-.038-.016-.056-.022-.009-.01-.011-.016-.021-.028-.58-.668-1.705-.592-2.296 0-.659.658-.579 1.627 0 2.295.201.232.456.428.734.559.798.38 1.743.229 2.22-.582.419-.715.22-1.844-.581-2.222z" fill="#ffc37b"/><path d="m77.104 66.523c-.197-.037-.365.014-.498.104-.069-.255-.197-.493-.405-.678-.367-.325-.646-.728-.981-1.082-.287-.306-.681-.452-1.078-.466-.072-.133-.139-.266-.223-.398-.059-.201-.123-.396-.209-.587-.137-.304-.475-.368-.756-.274-.204-.207-.409-.402-.602-.557-1.506-1.212-3.666-3.313-5.701-3.374-1.254-.037-2.447-.5-3.683-.379-1.039.103-1.996.839-2.995 1.097-.979.252-1.989.332-2.891.625-.316.025-.633.047-.955.057-.362.033-.569.299-.614.578-.26-.103-.491-.209-.676-.315-.446-.259-1.081-.19-1.362.271-.726 1.189-.588 3.053-.35 4.557-.276-.129-.565-.084-.844.082-1.208-.23-1.882.879-2.016 1.979-.101.834-.019 2.2.823 2.658.191.221.456.378.813.436.344.056.703-.084.798-.453.134-.521.123-1.006.043-1.537-.099-.67-.016-1.238.101-1.863.067.016.133.016.196.003.023.04.051.076.084.112-.043 1.646.086 3.335.044 4.984-.012.441.003.901.028 1.369-.003.154-.005.309-.008.461-.018 1.243.303 2.694-.01 3.908-.03.116-.127.219-.104.313.006.134-.073.28-.073.44v.305c0 .519.312.918.616 1.188.266.795.75 1.519 1.142 2.306.194.392.689.379.986.162.146.106.322.193.507.242.048.014.068.021.091.023.021.015.038.027.077.05.073.04.155.046.231.073.671.619 1.445.968 2.345 1.125.578.326 1.199.525 1.875.729.087.027.171.033.249.025.154.06.31.117.465.172-.073.1-.116.221-.108.365.034.69.171 1.343.348 2.011.039.146.116.255.212.33.015.028.023.065.041.091.039.859.349 1.618 1.285 1.469.018.006.029.018.05.023.556.135 1.304.429 1.979.441.069.008.137.004.205-.008.232-.02.452-.078.647-.197.098.021.204.019.323-.021.313-.104.564-.229.774-.365.339.016.706-.258.728-.639.01-.164.01-.327.012-.491.003-.046.002-.094.002-.142 0-.026.002-.053.002-.078.085-.295.08-.547.007-.758.382-.59.56-1.483.412-2.19.067-.043.134-.086.199-.128.241-.053.479-.113.718-.186.008.031.016.063.023.092.129.425.763.688 1.084.287.389-.485.701-1.004 1.006-1.537.59-.223 1.154-.494 1.613-.965.174-.18.322-.365.455-.555.15-.078.291-.174.398-.312.154-.193.314-.375.423-.599.106-.22.161-.449.183-.68.354-.436.541-1.035.527-1.613-.01-.379-.089-.763-.152-1.137.113.67.039-.209.051-.374.009-.12.091-.431.131-.608.109-.475.509-.986.26-1.367.081-1.393-.4-2.739-.427-4.139.297.418.774.705 1.308.68.09-.004.18-.008.27-.016.568.01 1.13-.267 1.437-.789.021-.035.031-.07.05-.105.072-.053.139-.127.189-.229.571-1.114.39-3.742-1.145-4.032zm-13.606 19.368c-.004.03-.004.057-.008.086-.036-.015-.071-.025-.107-.035-.127-.146-.324-.233-.52-.238-.024-.109-.048-.219-.072-.329.006.001.011.002.017.005.269.098.538.184.805.258-.053.066-.097.146-.115.253zm5.66-16.668c-.063-.054-.137-.088-.215-.117-.229-.252-.463-.498-.702-.74.048.02.094.041.141.06.154.058.29.054.404.009.206.193.422.371.646.512-.116.047-.215.135-.274.276zm6.526-.632c.045-.019.086-.047.131-.069v.039c-.044.013-.09.011-.131.03zm-.032.014c-.289.129-.533.33-.707.588-.002-.035-.002-.071-.004-.108-.004-.136-.01-.267-.014-.397.246.024.494.007.725-.083z" fill="#ffc37b"/><path d="m75.827 58.387c-.027-.166-.104-.281-.203-.357-.028-.407-.121-.813-.269-1.202-.117-.591-.281-1.161-.621-1.729-.182-.306-.476-.371-.726-.284-.036-.037-.075-.073-.114-.108.02-.128-.002-.27-.078-.418-.774-1.488-2.188-1.829-3.707-1.741-.74-.206-1.547-.283-2.559-.13-1.324.2-2.625.519-3.95.735-.734.119-1.254.494-1.809.842-.414.169-.823.37-1.238.602-.278.155-.352.442-.291.699-.331.179-.669.38-1.012.554-.561.047-1.076.153-1.616.476-.082.05-.141.112-.19.183-.594.166-1.183.346-1.748.553-.07-.033-.143-.058-.22-.065-1.242-.136-2.266.89-3.448.672-.705-.131-1.158.788-.5 1.187.156.105.312.215.468.32.053.082.128.157.235.219.126.071.252.145.378.217.108.062.221.082.329.076.097.133.228.258.409.363.419.245.919.26 1.437.145 1.014.093 2.065.027 3.026-.282 1.161-.183 2.236-.638 3.403-.832.241-.039.38-.203.434-.401.771-.066 1.535-.182 2.298-.363.211-.051.419-.121.623-.203.768-.01 1.523.246 2.285.435.972.558 1.979 1.022 2.994 1.496.778.362 1.319.871 2.156 1.065.234.521.53.998 1.01 1.373.139.109.322.154.502.146.17.31.326.631.478.966.155.352.546.385.843.235.37.291 1.064.065 1.068-.509 0-.25-.008-.502-.014-.754.326-1.394.173-2.781-.063-4.181z" fill="#ffc931"/><path d="m49.02 89.4c-.02.01-.02.02-.02.02v-.21h.07c0 .01-.01.021-.01.03-.02.05-.04.1-.04.16z" fill="#ff4633"/><path d="m86.53 96.36-.181.1-.149.09-1.271.73-2.109 1.22-3 1.74-.36.21-1.64.95-1.37.79-1.17.68-2.46 1.42-2 1.16-.95.55-.05.03-1 .569-.45.261-.55.319-3 1.74-.37-.21-3.55-2.06-2.71-1.57-.14-.079-2.25-1.3-.01-.01-.46-.261-.3-.13-3.21-1.819v-.011l-5.07-2.97-1.7-1-.25-.15-.42-.239-.04-.01c.03-.35.06-.699.11-1.05 0-.09.01-.17.02-.25.22-1.72.61-3.24 1.26-3.91-.01-.1-.02-.199-.02-.3 0-.45.15-.92.46-1.01.19-.04.37-.09.55-.14.36-.101.71-.19 1.06-.25.03-.07.07-.16.11-.221.26-.41.59-.359.83-.069.03 0 .07-.341.11-.351.05 0 .11-.06.17-.13v.1c0-.039 0-.079.02-.119.04-.07.1-.141.16-.181.02 0 .03-.01.05-.01h-.16c.05-.08.11-.15.18-.2.16-.13.38-.18.57-.149.5.08 1.11.229 1.61.239.05 0 .11.021.16.051l.01.01c.16.07.414-.467.494-.316.64-.16 1.13.073 1.75.063.11 0 .266.313.366.324l.103-.231c.23.02.405-.039.625.031.29.1.125-.13.375 0 .19-.101.749.254.969.094.47-.38 1.069-.575 1.509-.235 1.16.851 1.8.32 2.96.32h.12c.19 0 .33.1.47.21.07.04.13.09.21.13.03.03.06.13.1.15.05.03.1.12.15.149.35.23.39-1.18.25-.729.1-.05.2-.05.3-.021.24.08.48.17.71.28.24.04.47.101.7.18.26.04.53.07.8.091.131.02.25.1.351.21.42-.23.555.836.965.546.109-.271.585.193.835.254.271-.17.521-.3.76-.36.261-.08.521-.2.78-.35.06-.03.12-.07.18-.12.09-.05.17-.11.261-.16.239-.15.479-.3.72-.46.12-.07.24-.14.359-.21.44-.23.87-.41 1.301-.39 2.04.029 3.949-.16 5.979.29.33-.021.69.029 1.05.1.061.01.11.02.16.04.23.05.46.11.681.17.29.08.56.14.819.19.141-.08.271-.15.41-.21.311-.141.63-.24.93-.28.07-.01.141-.021.21-.021.301-.029.58 0 .851.11.14.05.28.12.41.21.109.08.21.17.31.28.11.109.18.26.23.41 0 .01.01.01.01.01 0 .01.01.03.01.04.17.319.33.67.49 1 .1.22.189.43.29.66.04-.101.08-.16.13-.221.06-.06.12-.1.18-.14.12-.06.24-.07.36-.02.16.039.31.17.42.42.44.939.93 2.159 1.26 3.449.107.413.197.843.267 1.263z" fill="#ff4633"/><path d="m53.606 90.396c-.357-1.436-1.675-1.982-3.022-1.815.497-.062-.392.025-.48.033-.429.039-.854.079-1.271.186-.785.199-1.542.665-2.107 1.249-.626.152-1.201.55-1.627 1.109-.799 1.05-.732 2.614-.392 3.82.757 2.678 4.749 2.313 4.903-.484.003-.014.005-.022.008-.034.021-.031.049-.077.089-.149.111-.201.246-.389.378-.576.012-.017.015-.021.025-.036.013-.013.03-.03.05-.053.046-.018.103-.04.16-.06.118-.016.28-.039.323-.042.384-.029.766-.078 1.148-.125 1.35-.167 2.113-1.826 1.815-3.023z" fill="#ff4633"/><path d="m53 61v19c0 1 1 1 1 0v-19c0-1-1-1-1 0z" fill="#ffdebb"/><path d="m75.197 65.762c-.018-.018-.033-.033-.051-.051.1-.152.141-.348.076-.577-.51-1.843-2.449-3.718-4.095-4.614-2.251-1.229-4.688-2.594-7.37-1.617-.336.123-.492.4-.509.685-2.616.216-5.188 1.054-7.917.747-.96-.107-.95 1.395 0 1.5 2.939.329 5.662-.775 8.592-.908 4.492-.201 7.188 2.997 10.075 5.766v14.307c0 1 1 1 1 0v-14.07c.398-.221.625-.765.199-1.168z" fill="#d8944a"/><path d="m77.947 66.971c-.862-.761-2.25-.119-2.547.914-.267.932 1.182 1.326 1.447.396-.004.013.066-.071.107-.1.049-.033.081-.047.102-.054.706.366 1.564-.564.891-1.156z" fill="#d8944a"/><path d="m67.318 85.76c.097-.236-.396.043-.602.092-.429.104-.874.14-1.313.172-1.015.072-2.139-.121-2.958-.762-.752-.589-1.822.465-1.061 1.061 1.225.959 2.71 1.296 4.248 1.185 1.098-.079 2.655-.185 3.133-1.349.367-.897-1.085-1.283-1.447-.399z" fill="#d8944a"/><path d="m51 66v4c0 1 2 1 2 0v-4c0-.969-2-.969-2 0z" fill="#d8944a"/><path d="m86.35 96.46-.15.09-1.271.73c-.01-.101-.01-.21-.01-.32-.03-1.59-.13-3.52-1.07-4.89-1.05-1.551-2.279-1.78-3.97-2.011-.07-.01-.13-.04-.189-.06h-10.69c-.26 0-.45-.07-.57-.17-.13-.09-.18-.22-.18-.35.01-.16.12-.32.35-.41.1-.039.23-.069.39-.069h.779 9.431c.069-.28.29 0 .68 0h.01c.091 0 .181-.28.301-.28.22 0 .38-.029.5.101.14.029.279-.011.409.04.07.01.141.02.21.029.19.03.37.051.551.11h1.139c.73 0 .92.53.58.82.229.16.439.33.64.52.9.83 1.521 2.01 1.87 3.67.08.36.13.721.17 1.09.05.45.08.9.09 1.36z" fill="#d1261e"/><g fill="#030928"><path d="m52 61v17h1c0-6 0-12 0-17 0-1-1-1-1 0z"/><path d="m75 65v13h1c0-4 0-8 0-13z"/><path d="m52.127 78.055c.536 5.957 7.715 8.026 12.796 8.133 2.867.06 5.909-.474 8.226-2.225 2.298-1.736 2.851-4.179 2.851-6.343 0-1.082-.984-1.437-.984-.354 0 2.164-.838 4.428-3.063 5.973-2.021 1.4-4.627 1.72-7.027 1.723-4.255.006-11.336-1.906-11.793-6.99-.074-.826-.861-.898-.787-.066z"/><path d="m61.288 78.723c1.968 1.893 5.323 2.149 7.257.072.568-.611-.346-1.531-.917-.917-1.45 1.56-3.946 1.347-5.423-.071-.602-.58-1.521.336-.917.916z"/><ellipse cx="59.081" cy="67.528" rx="1.426" ry="2.27"/><ellipse cx="69.456" cy="67.528" rx="1.426" ry="2.27"/><path d="m62.347 72.24c.558 2.105 3.534 2.009 4.24.07.286-.787-.967-1.123-1.25-.345-.287.788-1.53.722-1.74-.071-.215-.806-1.466-.462-1.25.346z"/><path d="m50.415 58.705c1.992 3.729 5.979 2.916 9.348 1.729 2.813-.99 4.991-1.484 7.946-.523 2.949.962 6.05 3.089 7.245 6.027.312.763 1.565.429 1.251-.347-1.664-4.09-6.447-7.137-10.794-7.556-2.386-.229-4.269.541-6.473 1.316-2.652.937-5.82 1.664-7.403-1.302-.394-.736-1.514-.08-1.12.656z"/><path d="m76.255 66.87c.831-.688 1.388 1.573 1.448 2.044.08.607.054 1.273-.211 1.836-.359.757-.957.581-1.617.801-.789.262-.449 1.516.346 1.25.492-.164.961-.117 1.443-.379.411-.223.725-.617.947-1.018.505-.907.477-2.026.313-3.018-.273-1.683-1.773-3.939-3.587-2.435-.644.535.278 1.447.918.919z"/><path d="m52.515 64.502c-4.507-.316-3.515 7.639-.515 7.639 1 0 1-1.297 0-1.297-2 0-2.532-5.246.329-5.045.836.058 1.014-1.238.186-1.297z"/><path d="m50.831 58.611s.865-1.297 0-1.297c-.864 0-.864 1.297 0 1.297z"/><path d="m50.777 58.126c6.191.646 10.98-4.499 16.997-5.084 2.565-.25 5.244.317 6.815 2.508 2.083 2.904 1.447 7.4.313 10.509-.287.787.966 1.123 1.25.344 1.964-5.375 1.481-13.127-5.189-14.52-2.867-.598-6.121.1-8.753 1.261-3.703 1.636-7.198 4.125-11.432 3.684-.833-.086-.824 1.211-.001 1.298z"/><path d="m61 86v3h1c0-1 0-2 0-3s-1-1-1 0z"/><path d="m68 86v2s1 1 1 0 0-2 0-2c0-1-1-1-1 0z"/><path d="m60.7 88.876c1.468 2.388 7.437 2.545 8.687-.162.348-.754-.771-1.413-1.121-.653-.813 1.762-5.463 1.758-6.445.162-.438-.711-1.56-.061-1.121.653z"/><path d="m61.21 88.17s-6.62-.04-9.74-.12c-1.99-.05-3.76.271-5.49 1.38-1.72 1.11-2.27 3.891-2.55 5.721-.07.46-.12.899-.16 1.34l.49.279.58.33.04.011c.01-.36.03-.71.07-1.061 0-.09.01-.17.02-.25.16-1.59.52-3.069 1.24-4.21.28-.439.61-.82 1.01-1.149.12-.091.25-.19.38-.271.51-.33 1.22-.78 1.9-.92.02-.01.04-.01.06-.01.04-.021.08-.021.12-.021.08-.02.15-.02.22-.02.68-.07 1.45-.061 2.19-.05l.01.01c.63.01 1.24.04 1.75.05.18 0 .37 0 .55.01.11 0 .21 0 .31.011h.03c.71.01 1.42.039 2.12.069 1.63.061 3.24.13 4.85.13.04 0 .09 0 .13-.01.08-.01.15-.04.21-.08.5-.279.39-1.169-.34-1.169zm-11.96.84c.03 0 .05.05.07.09z"/><path d="m87.36 95.88-.4.23-.14.08-.29.17-.181.1-.149.09c-.15-2.13-.57-4.09-1.62-5.319-.16-.2-.34-.37-.54-.53-.14-.11-.271-.34-.42-.42-.16-.101-.32-.24-.5-.37 0 0-.01 0-.01-.01-.17-.12-.351-.24-.54-.29-.801-.19-1.601-.33-2.4-.42-.63-.07-1.27-.12-1.91-.15-.66-.031-1.32-.041-1.98-.041h-6.51c-.479 0-.779 0-.779 0-.11 0-.21.16-.3.12-.03-.01-.07-.03-.091-.05-.46-.29-.319-1.021.391-1.021 3.46 0 6.72.05 10.06 0 1.75-.02 4.38.3 5.75 1.601 1.669 1.58 2.319 3.85 2.559 6.23z"/><path d="m39.728 53.208c2.416 2.277 5.042 4.315 7.457 6.592.608.574 1.526-.342.917-.917-2.416-2.275-5.042-4.314-7.457-6.592-.608-.573-1.527.342-.917.917z"/><path d="m39.538 52.749c.122 1.264.319 2.519.432 3.782.073.826 1.371.834 1.297 0-.113-1.264-.31-2.519-.432-3.782-.08-.824-1.377-.832-1.297 0z"/><path d="m40.228 53.544c1.269.033 2.538-.01 3.807.032.837.027.834-1.27 0-1.297-1.269-.042-2.539.001-3.807-.032-.836-.021-.835 1.275 0 1.297z"/><path d="m51.761 40.574c.993 3.167 2.271 6.235 3.266 9.402.249.796 1.501.456 1.25-.344-.993-3.167-2.272-6.235-3.266-9.403-.249-.795-1.501-.455-1.25.345z"/><path d="m51.826 40.074c-.514 1.161-.956 2.353-1.478 3.509-.341.755.776 1.416 1.12.654.522-1.157.964-2.348 1.478-3.508.336-.758-.781-1.418-1.12-.655z"/><path d="m52.024 41.109c1.089.651 2.218 1.234 3.302 1.895.716.436 1.368-.686.655-1.12-1.085-.66-2.213-1.243-3.303-1.896-.719-.429-1.37.692-.654 1.121z"/><path d="m76.602 38.661c-1.543 2.939-2.81 6.012-4.354 8.952-.389.739.73 1.395 1.12.654 1.544-2.939 2.81-6.011 4.354-8.951.387-.74-.732-1.396-1.12-.655z"/><path d="m76.988 38.363c-1.186.456-2.34.983-3.528 1.431-.774.291-.438 1.545.347 1.25 1.188-.447 2.342-.975 3.527-1.431.771-.296.437-1.55-.346-1.25z"/><path d="m76.406 39.24c.309 1.231.689 2.443.988 3.677.197.813 1.448.468 1.25-.345-.297-1.234-.68-2.446-.987-3.677-.203-.81-1.454-.466-1.251.345z"/><path d="m91.154 54.454c-2.932 1.56-5.705 3.39-8.637 4.948-.738.394-.084 1.514.655 1.121 2.931-1.561 5.704-3.391 8.636-4.95.739-.393.085-1.512-.654-1.119z"/><path d="m91.652 54.388c-1.233-.29-2.486-.504-3.721-.804-.813-.196-1.156 1.054-.345 1.25 1.233.299 2.485.514 3.722.804.815.191 1.161-1.059.344-1.25z"/><path d="m90.705 54.833c-.438 1.192-.805 2.408-1.252 3.597-.295.783.959 1.119 1.251.344.446-1.188.813-2.404 1.251-3.595.289-.787-.964-1.123-1.25-.346z"/><path d="m36.282 42.45c-2.06-.005-3.709-1.669-3.703-3.735.007-2.042 1.677-3.694 3.726-3.687 2.048.008 3.701 1.67 3.695 3.718-.005 2.055-1.667 3.71-3.718 3.704z"/><path d="m30.454 47.772c0-.114-.005-.222 0-.329.052-.921.426-1.704 1.035-2.382.435-.484.95-.863 1.528-1.163 1.146-.594 2.368-.826 3.648-.765 1.185.056 2.299.367 3.31 1.001.758.476 1.375 1.087 1.777 1.896.258.521.383 1.07.378 1.65 0 .073-.023.092-.095.092-1.704-.002-3.409-.002-5.114-.002-2.114 0-4.228 0-6.341 0-.038.002-.077.002-.126.002z"/><path d="m52.377 30.427c-2.06-.005-3.71-1.669-3.704-3.735.007-2.042 1.677-3.694 3.726-3.687 2.048.007 3.701 1.67 3.695 3.718-.004 2.054-1.666 3.709-3.717 3.704z"/><path d="m46.548 35.749c0-.115-.005-.222.001-.329.052-.921.426-1.704 1.035-2.382.435-.484.951-.863 1.528-1.163 1.146-.594 2.367-.827 3.648-.766 1.185.056 2.299.367 3.31 1.001.759.475 1.376 1.087 1.778 1.898.258.52.383 1.07.378 1.65 0 .072-.023.092-.095.092-1.704-.002-3.409-.001-5.114-.001-2.114 0-4.228 0-6.341 0-.039 0-.078 0-.128 0z"/><path d="m79.104 30.859c-2.061-.005-3.709-1.669-3.701-3.735.006-2.042 1.676-3.694 3.726-3.687 2.048.008 3.7 1.67 3.694 3.718-.007 2.054-1.667 3.709-3.719 3.704z"/><path d="m73.275 36.181c0-.115-.004-.222.002-.329.052-.921.426-1.704 1.033-2.382.437-.484.951-.863 1.529-1.163 1.146-.594 2.367-.826 3.646-.765 1.187.056 2.299.367 3.311 1.001.76.476 1.376 1.087 1.777 1.898.258.52.384 1.069.379 1.65 0 .073-.021.092-.096.092-1.705-.002-3.408-.002-5.113-.002-2.113 0-4.227 0-6.342 0-.036 0-.075 0-.126 0z"/><path d="m92.993 45.498c-2.06-.005-3.71-1.669-3.703-3.735.008-2.042 1.677-3.694 3.728-3.687 2.047.007 3.7 1.67 3.694 3.718-.005 2.054-1.667 3.708-3.719 3.704z"/><path d="m87.166 50.819c0-.115-.006-.222 0-.329.053-.921.426-1.704 1.036-2.382.435-.484.95-.863 1.526-1.163 1.146-.594 2.367-.827 3.647-.766 1.187.056 2.299.367 3.312 1.001.758.475 1.375 1.087 1.777 1.898.258.52.383 1.07.378 1.65-.001.073-.022.092-.095.092-1.706-.002-3.41-.001-5.114-.001-2.114 0-4.229 0-6.342 0-.037 0-.076 0-.125 0z"/></g><circle cx="58.72" cy="66.232" fill="#fff" r=".81"/><circle cx="69.096" cy="66.232" fill="#fff" r=".81"/><path d="m18.73 29.234v53.12l46.074 26.56 46.073-26.56v-53.12l-46.073-26.56zm90.282 1.08v50.97l-44.209 25.49-44.211-25.49v-50.97l44.211-25.489z" opacity=".13"/></svg>