<svg enable-background="new 9 -8.521 110.667 128.688" height="128.688" viewBox="9 -8.521 110.667 128.688" width="110.667" xmlns="http://www.w3.org/2000/svg" xmlns:xlink="http://www.w3.org/1999/xlink"><linearGradient id="a" gradientUnits="userSpaceOnUse" x1="65.3525" x2="64.6831" y1="103.1318" y2="43.664"><stop offset=".0178" stop-color="#22b573"/><stop offset="1" stop-color="#8ee021"/></linearGradient><linearGradient id="b" gradientTransform="matrix(-.00000004 -1 -1 .00000004 319.543 4.8755)" gradientUnits="userSpaceOnUse" x1="-50.8945" x2="-50.8945" y1="293.7051" y2="278.8633"><stop offset=".0178" stop-color="#0056e9"/><stop offset="1" stop-color="#6ad3ff"/></linearGradient><linearGradient id="c" gradientTransform="matrix(-.00000004 -1 -1 .00000004 319.543 4.8755)" gradientUnits="userSpaceOnUse" x1="-51.5625" x2="-51.0415" y1="299.5273" y2="290.6862"><stop offset="0" stop-color="#ccc"/><stop offset="1" stop-color="#ccc" stop-opacity="0"/></linearGradient><linearGradient id="d"><stop offset="0" stop-color="#3c1517" stop-opacity=".7"/><stop offset="1" stop-color="#ff5f2a" stop-opacity="0"/></linearGradient><linearGradient id="e" gradientTransform="matrix(1 0 0 -1 126.9912 273.9375)" gradientUnits="userSpaceOnUse" x1="-35.0684" x2="-35.0684" xlink:href="#d" y1="226.8867" y2="223.3867"/><linearGradient id="f"><stop offset="0" stop-color="#00685e"/><stop offset="1" stop-color="#39b54a"/></linearGradient><linearGradient id="g" gradientTransform="matrix(1 0 0 -1 126.9912 273.9375)" gradientUnits="userSpaceOnUse" x1="-35.3198" x2="-35.3742" xlink:href="#f" y1="246.9775" y2="231.0423"/><linearGradient id="h"><stop offset="0" stop-color="#78ff3f"/><stop offset="1" stop-color="#39b54a" stop-opacity="0"/></linearGradient><radialGradient id="i" cx="-39.4443" cy="247.7686" gradientTransform="matrix(1 0 0 -1 126.9912 273.9375)" gradientUnits="userSpaceOnUse" r="15.8806" xlink:href="#h"/><linearGradient id="j" gradientTransform="matrix(1 0 0 -1 126.9912 273.9375)" gradientUnits="userSpaceOnUse" x1="-20.6934" x2="-20.6934" xlink:href="#d" y1="229.2617" y2="225.7617"/><linearGradient id="k" gradientUnits="userSpaceOnUse" x1="104.373" x2="104.3315" xlink:href="#f" y1="38.7607" y2="26.5912"/><radialGradient id="l" cx="101.9238" cy="38.0767" gradientUnits="userSpaceOnUse" r="14.2446" xlink:href="#h"/><linearGradient id="m" gradientTransform="matrix(1 0 0 -1 126.9912 273.9375)" gradientUnits="userSpaceOnUse" x1="-44.1934" x2="-44.1934" xlink:href="#d" y1="249.1855" y2="245.6855"/><linearGradient id="n" gradientUnits="userSpaceOnUse" x1="82.4766" x2="82.4478" xlink:href="#f" y1="19.9595" y2="11.5247"/><radialGradient id="o" cx="78.4238" cy="19.0972" gradientUnits="userSpaceOnUse" r="12.9302" xlink:href="#h"/><linearGradient id="p" gradientTransform="matrix(1 0 0 -1 126.9912 273.9375)" gradientUnits="userSpaceOnUse" x1="-61.0684" x2="-61.0684" xlink:href="#d" y1="254.8105" y2="251.3105"/><linearGradient id="q" gradientUnits="userSpaceOnUse" x1="65.5996" x2="65.5653" xlink:href="#f" y1="13.8545" y2="3.796"/><radialGradient id="r" cx="61.5488" cy="13.061" gradientUnits="userSpaceOnUse" r="13.4671" xlink:href="#h"/><linearGradient id="s" gradientTransform="matrix(1 0 0 -1 126.9912 273.9375)" gradientUnits="userSpaceOnUse" x1="-77.8179" x2="-77.8179" xlink:href="#d" y1="249.1855" y2="245.6855"/><linearGradient id="t" gradientUnits="userSpaceOnUse" x1="48.8516" x2="48.8212" xlink:href="#f" y1="19.8228" y2="10.9212"/><radialGradient id="u" cx="44.7988" cy="19.3286" gradientUnits="userSpaceOnUse" r="12.6895" xlink:href="#h"/><linearGradient id="v" gradientUnits="userSpaceOnUse" x1="101.5596" x2="101.5596" xlink:href="#d" y1="85.8105" y2="82.4702"/><linearGradient id="w" gradientTransform="matrix(1 0 0 -1 165.1279 325.0742)" gradientUnits="userSpaceOnUse" x1="-63.8193" x2="-63.8736" xlink:href="#f" y1="260.9766" y2="245.0434"/><radialGradient id="x" cx="-67.9434" cy="261.7676" gradientTransform="matrix(1 0 0 -1 165.1279 325.0742)" gradientUnits="userSpaceOnUse" r="15.8801" xlink:href="#h"/><linearGradient id="y" gradientTransform="matrix(1 0 0 -1 165.1279 325.0742)" gradientUnits="userSpaceOnUse" x1="-78.5679" x2="-78.5679" xlink:href="#d" y1="233.1367" y2="229.6367"/><linearGradient id="z" gradientTransform="matrix(1 0 0 -1 165.1279 325.0742)" gradientUnits="userSpaceOnUse" x1="-78.8193" x2="-78.8736" xlink:href="#f" y1="253.2256" y2="237.2924"/><radialGradient id="A" cx="-82.9434" cy="254.0176" gradientTransform="matrix(1 0 0 -1 165.1279 325.0742)" gradientUnits="userSpaceOnUse" r="15.8801" xlink:href="#h"/><linearGradient id="B" gradientTransform="matrix(1 0 0 -1 165.1279 325.0742)" gradientUnits="userSpaceOnUse" x1="-91.0679" x2="-91.0679" xlink:href="#d" y1="230.3867" y2="226.8867"/><linearGradient id="C" gradientTransform="matrix(1 0 0 -1 165.1279 325.0742)" gradientUnits="userSpaceOnUse" x1="-91.3193" x2="-91.3736" xlink:href="#f" y1="250.4756" y2="234.5424"/><radialGradient id="D" cx="-95.4434" cy="251.2676" gradientTransform="matrix(1 0 0 -1 165.1279 325.0742)" gradientUnits="userSpaceOnUse" r="15.8801" xlink:href="#h"/><linearGradient id="E" gradientUnits="userSpaceOnUse" x1="63.3101" x2="63.3101" xlink:href="#d" y1="107.4863" y2="105.8862"/><linearGradient id="F" gradientUnits="userSpaceOnUse" x1="63.2515" x2="63.197" xlink:href="#f" y1="101.0605" y2="85.0842"/><radialGradient id="G" cx="58.9346" cy="100.5264" gradientUnits="userSpaceOnUse" r="15.87" xlink:href="#h"/><radialGradient id="H" cx="-60.4697" cy="270.1641" fx="-54.8497" fy="267.0349" gradientTransform="matrix(1 0 0 -1 114.9512 354.1016)" gradientUnits="userSpaceOnUse" r="6.4324"><stop offset=".0178" stop-color="#ed1e79"/><stop offset="1" stop-color="#ed1c24"/></radialGradient><path d="m119.744 87.5-55.426 32-55.424-32v-63.999l55.424-32 55.426 32z" fill="#1f91dd"/><path d="m110.82 29.23v53.13l-4.83 2.79-1.45.83-1.78 1.029-.06.04-.141.08-1.199.69-.801.46-.17.1-.239.12-.131.06-.109.061-2.08 1.2-.83.48-2 1.16-1.56.81-4.57 2.551h-.01l-.051.12-1.25.77-.18.11-.899.529-.76.45-.16.09-3.31 1.92-.24.141-1.63.95-6.12 3.529-.069.04-3.261 1.88-.63.36-2.479 1.42v.01l-3.07 1.78-.44-.25-2-1.16-3.23-1.87-2.47-1.43-.93-.54-.05-.02-16.681-9.65-2.92-1.69-5.85-3.39-.51-.29-2.47-1.43-4.05-2.34-4.33-2.5v-53.13l2-1.16.56-.32 1.53-.88 2.23-1.29 1.73-1 9.27-5.35 2.52-1.46 4.69-2.7.06-.04 5.41-3.12 2.66-1.53.84-.46 2.08-1.14.08.04h.01l.01-.09.03-.07.48-.3.2-.12.7-.42 1.5-.87.04-.02 4.44-2.56.04-.03.91-.52 1.98-1.14.699.4.801.47.12.07 3.02 1.74 4.26 2.46.101.05.29.17.199.12 1.7.98 2.53 1.46.04.02 3.87 2.24 2.37 1.37 1.09.63 2.13 1.23.229.13 8.731 5.03 6.91 3.99.02.01 1.92 1.11.4.23 2.53 1.46z" fill="url(#a)"/><path d="m64.818 2.679 20 11.551 12.18 7.02v69.05l-9.619 5.561-19.521 11.27c.979-5.62 2.44-16.7 2.71-24.43.48-13.96 1.109-39.25-1.029-53.08-1.41-9.021-3.75-17.55-6.701-25.8z" fill="#2bdb1d" opacity=".5"/><path d="m84.818 14.229 21.43 12.359c.512.432 1.342.623 1.852 1.043.921.57 1.466.795 2.375 1.375.102.062.265.144.345.224v53.129l-10.431 6.02-.239.12-.13.061-.11.06-12.53 7.24c2.352-4.36 3.49-9.58 4.102-14.87.04-2.67.35-5.391.58-7.641.1-2.18.16-4.289.229-6.289.34-9.98.42-20.311-1.109-30.2-1.254-7.991-3.514-15.431-6.364-22.631z" fill="#30cc1f" opacity=".5"/><path d="m38.658 17.77c.41 1.399.63 2.78.99 3.96 3.29 10.83-1.771 23.029 1.84 33.72 2.74 8.149 5.43 17.8 3.399 26.35-.739 3.101-3.08 8.69-5.939 12.2l-2.92-1.69-5.851-3.39c.42-1.07.851-2.149 1.311-3.229.319-3.48-.07-8.101-.19-9.061-.43-3.18-1.069-6.29-1.6-9.439-.45-2.74-.9-5.521-.91-8.311 0-.43.37-3.229.5-4.999-.4-.971-.75-1.971-.91-3.101-.22-1.56.96-2.771 2.21-2.8-.45-4.721-.189-9.74-.069-14.352-.28-.148-.551-.369-.79-.68-.771-1-1.33-2.479-1.66-4.13-.61-1.12-.811-2.511-.71-4-.16-.08-.33-.149-.49-.24l9.27-5.35z" fill="#00aa45"/><path d="m36.138 19.229c1.681 2.13 1.863 4.607 2.515 6.507 3.29 9.71-1.777 20.659 1.833 30.25 2.739 7.31 5.434 15.974 3.402 23.644-.899 3.38-4.159 10.07-7.859 12.681l-6.36-3.681-2.47-1.43c.3-.39.77-.62 1.37-.53.12.021.22.01.319 0 .511-1.17 1.04-2.359 1.601-3.55.319-3.12-.07-7.271-.19-8.13-.43-2.851-1.069-5.641-1.6-8.47-.45-2.46-.9-4.95-.91-7.46 0-.381.37-2.891.5-4.479-.4-.871-.75-1.771-.91-2.779-.22-1.4.96-2.49 2.21-2.512-.45-4.238-.189-8.738-.069-12.88-.28-.13-.551-.329-.79-.608-.771-.9-1.33-2.221-1.66-3.7-.61-1.011-.811-2.261-.71-3.591-1.051-.43-2.061-.949-3.101-1.43-.13-.061-.25-.131-.35-.211l2.229-1.289z" fill="url(#b)"/><path d="m72.908 27.939c10.58 0 9.16 1.351 9.16 36.939 0 0-.311 1.94 1.689 1.94s3.061 0 3.061 0 2 .55 2-.87-.05-7.17 1.12-9.34c.97-1.771 3.26-2.79 7.569-2.79h13.311v8h-10.061s-4.41-1.271-4.41 7.76c0 11.06-22.529 10.91-22.529-2.48 0 0 0-22.859 0-29.588 0-1.94-.38-2.33-3.25-2.33-1.79 0-4.54.148-8.75.17-1 0-1.62.76-1.87 1.66l-.12 25.809h5.99l-10.06 11.44-9.939-11.439h6v-28.75c0-6.08 4.689-5.57 4.689-5.57l2.601-.199-.011-.039c0-.003 12.451-.323 13.81-.323z" fill="#5e5e5e"/><path d="m25.138 25.579s3.236 2.897 3.993 4.115c3.052 4.916 5.688 16.005 2.567 23.005-3.13 7 1.12 9.24 1.12 9.24s2.54.38 3 10.26c.439 9.56-4.17 14.689-6.141 16.43l-10.859-6.27v-53.13z" fill="#758987"/><path d="m58.099 29.257.012.045-2.604.197s-4.688-.514-4.688 5.569v28.75h-6l9.938 11.438 10.063-11.437h-5.995l.123-25.814c.254-.892.872-1.656 1.872-1.656v-.002c11-.06 12-.989 12 2.16v29.592c0 13.391 22.525 13.539 22.525 2.482 0-9.028 4.412-7.763 4.412-7.763h11.063v-8s-10 0-14.313 0-6.6 1.016-7.563 2.791c-1.179 2.171-1.124 7.916-1.124 9.335 0 1.421-2 .875-2 .875s-1.063 0-3.063 0-1.688-1.939-1.688-1.939c0-35.592 1.417-36.936-9.164-36.936-1.358 0-13.806.313-13.806.313z" fill="#727272"/><path d="m21.378 27.749c2.15 1.541 3.61 4.82 4.061 7.021.72 3.5.18 7.061-.73 10.47-.89 3.3-2.74 7.92-2.939 11.38-.301 4.92 3.3 7.61 3.949 12.14.45 3.221 1.59 6.301 1.03 9.57-.39 2.32-1.67 4.93-3.59 6.53l-4.34-2.5v-53.13z" fill="url(#c)"/><path d="m90.923 44.463h2v8h-2z" fill="#60452c"/><path d="m90.923 44.463h2v7h-2z" fill="url(#e)"/><path d="m83.548 44.613 7.857-22.314 8.268 22.396z" fill="url(#g)"/><path d="m91.379 22.436.327 20.517-7.626.3z" fill="url(#i)"/><path d="m105.298 42.088h2v8h-2z" fill="#60452c"/><path d="m105.298 42.088h2v7h-2z" fill="url(#j)"/><path d="m110.82 33.57v8.73l-3.52-.01-2-.01-6.54-.04h-.84l.41-1.17 5.58-15.83.02.01 1.92 1.11.4.23 2.53 1.46z" fill="url(#k)"/><path d="m106.08 40.58-7.62.3 5.47-15.63 1.92 1.11z" fill="url(#l)"/><path d="m81.798 22.164h2v8h-2z" fill="#60452c"/><path d="m81.798 22.164h2v7h-2z" fill="url(#m)"/><path d="m90.55 22.4-6.75-.04-2-.01-7.38-.04 4.12-11.71.04.02 3.87 2.24 2.37 1.37 1.09.63 2.13 1.23.23.13z" fill="url(#n)"/><path d="m82.58 20.65-7.62.3 3.62-10.33 3.87 2.24z" fill="url(#o)"/><path d="m64.923 16.539h2v8h-2z" fill="#60452c"/><path d="m64.923 16.539h2v7h-2z" fill="url(#p)"/><path d="m73.67 16.77-6.75-.03-2-.01-7.37-.04 4.34-12.32.04-.03.91-.52 1.98-1.14.7.4.8.47.12.07 3.02 1.74z" fill="url(#q)"/><path d="m65.71 15.03-7.63.3 3.85-10.99.91-.52 1.98-1.14.7.4z" fill="url(#r)"/><path d="m48.173 22.164h2v8h-2z" fill="#60452c"/><path d="m48.173 22.164h2v7h-2z" fill="url(#s)"/><path d="m56.92 22.4-6.75-.04-2-.01-7.37-.04 2.55-7.24.06-.04 5.41-3.12 2.66-1.53.84-.46z" fill="url(#t)"/><path d="m48.96 20.65-7.63.3 2.08-5.92 5.41-3.12z" fill="url(#u)"/><path d="m102.56 81.6v5.53l-1.2.69-.8.46v-6.68z" fill="#60452c"/><path d="m102.56 81.6v5.53l-1.2.69-.8.46v-6.68z" fill="url(#v)"/><path d="m93.186 81.75 7.857-22.314 8.268 22.396z" fill="url(#w)"/><path d="m101.017 59.572.327 20.518-7.626.3z" fill="url(#x)"/><path d="m87.56 96.35v-.64-6.16-.2h-2v.19 6.81.54z" fill="#60452c"/><path d="m85.561 89.35h2v7h-2z" fill="url(#y)"/><path d="m78.186 89.5 7.857-22.314 8.268 22.396z" fill="url(#z)"/><path d="m86.017 67.322.327 20.518-7.626.3z" fill="url(#A)"/><path d="m73.061 92.1h2v8h-2z" fill="#60452c"/><path d="m73.061 92.1h2v7h-2z" fill="url(#B)"/><path d="m65.686 92.25 7.857-22.314 8.268 22.396z" fill="url(#C)"/><path d="m73.517 70.072.327 20.518-7.626.3z" fill="url(#D)"/><path d="m64.31 105.47v3.2l-2-1.16v-2.04z" fill="#60452c"/><path d="m64.31 105.47v3.2l-2-1.16v-2.04z" fill="url(#E)"/><path d="m71.06 105.71h-.76l-5.99-.04-2-.01-3.23-.02-2.47-1.43-1.14.05.21-.59-.05-.02 7.16-20.34 3.1 8.38.2.56 4.84 13.1z" fill="url(#F)"/><path d="m63.09 103.96-6.48.25-1.14.05.21-.59 7.09-20.22z" fill="url(#G)"/><path d="m59.262 83.1c0-2.767-2.243-5.108-5.01-5.108-2.766 0-5.009 2.195-5.009 4.961 0 1.001.251 1.749.801 2.688l4.128 7.536 4.29-7.309.027.092c.487-1.1.773-1.88.773-2.86z" fill="url(#H)" stroke="#fff" stroke-miterlimit="10" stroke-width=".75"/><g fill="#fff"><path d="m54.249 79.92c-1.855 0-3.359 1.504-3.359 3.359 0 1.862 1.503 3.366 3.359 3.366 1.861 0 3.366-1.504 3.366-3.366.001-1.855-1.505-3.359-3.366-3.359zm0 5.88c-1.389 0-2.514-1.124-2.514-2.521 0-1.389 1.125-2.514 2.514-2.514 1.395 0 2.52 1.125 2.52 2.514 0 1.397-1.125 2.521-2.52 2.521z"/><path d="m103.818 57.819h3v1h-3z"/><path d="m96.818 57.819h3v1h-3z"/><path d="m92.821 59.821h1v3h-1z" transform="matrix(.9201 .3917 -.3917 .9201 31.4742 -31.6523)"/><path d="m90.817 65.821h1v3h-1z" transform="matrix(.9996 .0273 -.0273 .9996 1.8742 -2.4709)"/><path d="m88.822 70.815h.999v3h-.999z" transform="matrix(.6273 .7788 -.7788 .6273 89.605 -42.6098)"/><path d="m82.821 71.817h1v3h-1z" transform="matrix(.0088 1 -1 .0088 155.9026 -10.645)"/><path d="m76.817 68.822h1v3h-1z" transform="matrix(-.9151 .4033 -.4033 -.9151 176.4298 103.4859)"/><path d="m76.819 61.823h1.001v3h-1.001z" transform="matrix(-1 .0068 -.0068 -1 155.0693 126.116)"/><path d="m76.819 54.823h1.001v3h-1.001z" transform="matrix(-1 .0068 -.0068 -1 155.0215 112.1162)"/><path d="m76.82 46.821h1.001v3h-1.001z" transform="matrix(-1 .0078 -.0078 -1 155.0164 96.0376)"/><path d="m76.82 37.821h1.001v3h-1.001z" transform="matrix(-1 .0078 -.0078 -1 154.9461 78.0379)"/><path d="m74.817 32.817h1.001v3h-1.001z" transform="matrix(-.5637 .826 -.826 -.5637 146.1169 -8.5527)"/><path d="m69.82 30.821h1v3.001h-1z" transform="matrix(.0195 .9998 -.9998 .0195 101.2623 -38.6168)"/><path d="m63.82 30.821h1v3.001h-1z" transform="matrix(.0195 .9998 -.9998 .0195 95.3794 -32.6179)"/><path d="m56.817 31.815h1.001v3h-1.001z" transform="matrix(.6963 .7178 -.7178 .6963 41.3196 -31.0217)"/><path d="m54.817 38.818h1.001v3h-1.001z"/><path d="m54.817 44.818h1.001v3h-1.001z"/><path d="m54.817 50.818h1.001v3h-1.001z"/><path d="m54.817 57.818h1.001v3h-1.001z"/></g><path d="m18.729 29.235v53.12l46.073 26.56 46.074-26.56v-53.12l-46.073-26.56zm90.283 1.08v50.97l-44.21 25.49-44.211-25.49v-50.97l44.211-25.489z" opacity=".13"/></svg>