<svg enable-background="new 0 0 110.979 128.417" height="128.417" viewBox="0 0 110.979 128.417" width="110.979" xmlns="http://www.w3.org/2000/svg"><path d="m110.85 96.417-55.426 32-55.424-32v-63.998l55.424-32 55.426 32z" fill="#edb72c"/><path d="m55.924 11.597 15.141 8.74.689.4 5.891 3.401 1.4.809 2.299 1.32.871.5 3.69 2.13.09.05 1.81 1.04 3.779 2.19.041.02v.011l.26.149.66.38 1.459.84 1.94 1.12.781.45.44.25 1.939 1.12 2.82 1.63v53.13l-.009.01-1.42.82-9 5.189-.241.121-.129.061-.111.059-3.029 1.74-1.871 1.08-.039.029-3.25 1.881-2.25 1.301-1.66.959-1.711.99-.959.551-4.62 2.67-.63.369-.061.029-3.5 2.022-11.559 6.679-9.681-5.599-5.36-3.102-.689-.398-5.09-2.942-3.06-1.769-.571-.33-7.129-4.119-.091-.051-4.67-2.699-9.609-5.551v-53.13l14.329-8.28 6.92-3.989 3.41-1.961 1.161-.67 1.539-.9 2.8-1.61.69-.4 1.461-.84 5.719-3.3z" fill="#f4d706"/><path d="m86.454 43.713c-9.979-12.187-18.027-13.26-23.117-16.164-3.645-2.079-7.006-5.74-11.279-10.845-.021.209-.045.419-.068.628 2.197 5.503 1.648 8.875-4.202 11.549-.201.092-.665.509.137.668 2.375.471-.789 4.134-2.157 5.407-1.576 1.467-3.697 3.656-8.979 7.197-5.283 3.541-10.979 5.977-12.466 4.979-1.971-1.326.55-4.209 3.107-7.429-6.378 6.204-11.504 15.365-11.504 27.583 0 8.857 3.416 18.391 9.864 25.732 6.862 7.816 17.129 13.17 29.317 13.111 10.898-.053 19.846-3.609 26.572-9.42 7.867-6.793 12.611-16.773 12.611-29.426 0-9.315-2.78-17.39-7.836-23.57zm-11.034 54.296c-4.816 4.02-17.84 6.309-24.031 1.197-.611-.508-.634-1.266-.229-1.707.299-.324.561-.479.924-.686.453-.258 1.03-.158 1.418.199 2.444 2.254 13.979 4.146 20.915-.516.256-.172.582-.287.867-.166.211.092.336.207.365.443.047.394.074.984-.229 1.236zm-16.218-6.08c.018-.582.178-.939.588-1.348 2.379-2.365 4.902-3.766 7.736-3.695 4.525.111 4.721 1.176 6.031 3.824.266.539.113 1-.059 1.273-.092.15-.609.646-.787.646-.436 0-.596-.156-.773-.604-1.078-2.695-2.682-2.707-4.699-2.707-3.109 0-4.465 1.518-6.301 3.037-.459.379-.891.662-1.232.373-.28-.23-.508-.555-.504-.799zm24.285-.984c-4.322-.334-9.146-10.287-13.902-10.205-6.262.107-15.438 10.646-25.745 10.492-5.257-.078-10.923-1.992-11.095-10.006-.143-6.676 6.375-13.609 14.648-13.416 11.002.258 16.424 9.885 21.932 9.918 5.389.035 11.725-8.383 17.172-8.512 2.906-.07 5.146 2.727 5.361 6.623.326 5.846-3.393 15.491-8.371 15.106z" fill="#edb72c"/><path d="m33.071 55.172v2.268c0 5.422-2.398 8.382-9.521 8.382h-8.5c-.115 0-.209-.094-.209-.209v-18.767c0-.115.094-.209.209-.209h8.503c7.008 0 9.518 3.05 9.518 8.535zm61.32-8.867-3.938.637c-.104.017-.176.103-.176.207v15.121c0 3.236 2.92 4.238 6.385 3.402.139-.033.277-.064.416-.094.113-.021.186-.131.164-.242l-.385-2.081c-.014-.073-.078-.09-.131-.09-1.66 0-2.094.024-2.094-.896v-15.757c0-.063-.023-.118-.072-.159-.05-.041-.106-.058-.169-.048zm-20.805 13.759v-3.334c0-3.239-2.186-5-6.902-4.852-4.717.15-6.563.524-6.563 4.379v14.777c0 .063.025.119.074.158.049.041.105.059.168.049l3.938-.637c.104-.018.178-.105.178-.207v-2.93c0-.576-.402-1.031-.369-1.873 1.256.398 2.711.535 4.406.494 1.957-.044 5.07-1.055 5.07-6.024zm-9.107 3.224v-7.029c0-1.375.08-1.761 2.268-1.761s2.486 1.292 2.486 2.234v3.971c0 2.109-.707 2.893-2.566 2.884-.94-.006-1.428-.153-2.188-.299zm-15.688-11.401-3.938.637c-.101.016-.175.103-.175.207v9.033c0 3.238 2.95 4.328 6.386 4.388 3.434.061 6.803-.92 6.803-4.388v-9.668c0-.063-.025-.118-.074-.16-.049-.04-.105-.057-.17-.047l-3.936.637c-.104.016-.177.103-.177.207v9.034c0 .957-.513 1.762-2.267 1.762-1.756 0-2.208-.819-2.208-1.762v-9.669c0-.063-.025-.118-.074-.16s-.107-.061-.17-.051zm30.288 9.162v1.319c0 1.296 2.375 1.278 3.67 1.276.701 0 .984-.267.984-.984v-2.989c0-.062-.023-.112-.066-.153-.045-.039-.098-.06-.158-.056-1.542.115-4.43.169-4.43 1.587zm-4.268 1.319v-1.319c0-3.199 5.318-3.688 8.73-3.996.107-.01.189-.099.189-.207v-.75c0-.778-.283-1.407-1.4-1.521-1.967-.2-3.15.081-5.832.672-.109.024-.219-.042-.248-.15l-.496-1.861c-.025-.105.029-.213.131-.251 1.65-.612 3.836-1.167 6.266-1.036 2.371.129 5.789-.038 5.789 4.147v6.563c0 2.862-2.049 3.368-6.523 3.418-3.389.042-6.606-1.169-6.606-3.709zm-35.311 3.395h-3.942c-.115 0-.209-.094-.209-.209v-11.852c0-.039.01-.072.028-.106.606-1.03 4.278-1.552 7.813-1.5.112.001.205.095.205.209v2.348c0 .06-.021.111-.064.153-.043.04-.096.061-.155.056-2.092-.111-3.319.117-3.457.572-.006.021-.009.039-.009.061v10.062c-.002.112-.096.206-.21.206zm-11.172-8.324v-2.268c0-4.193-1.356-5.4-4.774-5.4h-3.969v13.066h3.965c4.015.001 4.778-2.04 4.778-5.398z" fill="#055993"/><path d="m32.466 53.608v2.267c0 5.423-2.397 8.384-9.521 8.384h-8.5c-.115 0-.209-.095-.209-.21v-18.767c0-.115.094-.209.209-.209h8.502c7.009 0 9.519 3.052 9.519 8.535zm61.322-8.865-3.938.637c-.104.017-.178.103-.178.207v15.12c0 3.236 2.922 4.238 6.387 3.402.139-.033.277-.063.416-.094.111-.021.186-.131.164-.242l-.387-2.08c-.012-.073-.076-.09-.131-.09-1.658 0-2.092.023-2.092-.896v-15.759c0-.063-.025-.118-.074-.159s-.105-.057-.167-.046zm-20.805 13.758v-3.333c0-3.239-2.186-5.001-6.902-4.852-4.717.15-6.563.524-6.563 4.379v14.777c0 .063.025.119.072.158.051.041.107.059.17.049l3.938-.637c.104-.018.176-.104.176-.207v-2.93c0-.576-.4-1.03-.369-1.873 1.258.398 2.711.535 4.408.494 1.957-.046 5.07-1.056 5.07-6.025zm-9.109 3.225v-7.03c0-1.375.08-1.761 2.27-1.761 2.188 0 2.484 1.292 2.484 2.234v3.971c0 2.109-.707 2.894-2.564 2.885-.94-.006-1.431-.155-2.19-.299zm-15.688-11.402-3.938.637c-.102.016-.176.103-.176.207v9.033c0 3.237 2.951 4.327 6.386 4.388s6.802-.92 6.802-4.388v-9.669c0-.063-.023-.118-.072-.16-.049-.04-.105-.057-.17-.047l-3.937.637c-.103.016-.177.103-.177.207v9.033c0 .957-.512 1.762-2.266 1.762-1.756 0-2.209-.818-2.209-1.762v-9.669c0-.063-.025-.118-.074-.16s-.105-.059-.169-.049zm30.287 9.162v1.318c0 1.297 2.375 1.279 3.67 1.277.701-.001.984-.268.984-.984v-2.99c0-.061-.021-.112-.064-.152-.045-.04-.1-.061-.158-.057-1.541.117-4.432.17-4.432 1.588zm-4.265 1.32v-1.32c0-3.199 5.318-3.688 8.73-3.996.107-.01.189-.098.189-.207v-.749c0-.779-.283-1.408-1.4-1.521-1.967-.2-3.15.081-5.832.672-.109.024-.221-.042-.248-.15l-.496-1.861c-.027-.105.027-.213.131-.251 1.65-.612 3.836-1.167 6.266-1.036 2.369.129 5.789-.038 5.789 4.147v6.563c0 2.862-2.051 3.368-6.523 3.42-3.392.039-6.606-1.172-6.606-3.711zm-35.313 3.395h-3.942c-.115 0-.209-.096-.209-.209v-11.853c0-.039.01-.072.028-.106.605-1.03 4.277-1.552 7.813-1.5.113.001.206.095.206.209v2.348c0 .06-.022.111-.065.153-.043.04-.096.061-.154.056-2.092-.111-3.319.117-3.457.57-.006.021-.01.04-.01.061v10.063c-.001.112-.096.208-.21.208zm-11.172-8.326v-2.267c0-4.193-1.356-5.4-4.775-5.4h-3.969v13.066h3.965c4.016.001 4.779-2.04 4.779-5.399z" fill="#008ecc"/><path clip-rule="evenodd" d="m73.942 90.611c.041-.844-.281-1.582-.568-2.334-.162-.422-.4-.75-.779-.973-.088-.824-.422-1.607-.957-2.242.441-.189.676-.627.58-1.211-.066-.406-.18-.773-.357-1.092-.004-1.391-.992-2.463-2.111-3.164-.248-.154-.523-.305-.813-.441-.201-.129-.424-.223-.654-.273-.379-.139-.768-.238-1.152-.291-.01-.031-.018-.063-.025-.098-.025-.113-.057-.225-.09-.33-.059-.262-.174-.523-.35-.775-.207-.338-.465-.607-.766-.809-2.182-1.984-5.066-3.15-7.896-2.463-.25-.213-.568-.379-.967-.479-.24-.059-.49-.109-.742-.158-.295-.092-.598-.145-.91-.139-2.695-.324-5.848.039-7.973 1.475-.58.391-1 .949-1.166 1.572-.018-.008-.035-.016-.055-.023-.582-.238-1.178-.508-1.82-.422-.865.117-1.654.449-2.334 1.021-.123.104-.219.203-.303.303-.328-.063-.662-.068-.975-.006-1.135.234-1.887.791-2.598 1.676-.236.293-.354.641-.379 1-.193.418-.262.908-.098 1.402.1.299-.008.459-.273.559-.113.043-.229.08-.344.115-.891.271-1.628.764-2.182 1.518-1.172 1.604-1.162 3.471.045 5.143.322.447.702.764 1.109.967.387.928 1.111 1.656 2.016 2.105-.08.107-.047.248.111.418.348.373.682.768 1.107 1.063 1.314.908 2.781 1.254 4.32 1.188.406 0 .771-.006 1.137.002.297.006.416.121.363.461-.141.9-.01 1.791.381 2.6.496 1.031 1.307 1.705 2.299 2.098.188.357.424.701.689 1.063.344.465.771.895 1.25 1.27-.113.096-.139.232-.041.416.125.236.285.443.506.617.895.705 1.93.604 2.947.514.361-.031.656-.002.957.186.953.592 1.996.811 3.092.584.762-.156 1.455-.229 2 .459.033.041.078.076.119.109 1.031.797 2.209 1.227 3.484.928 2.029-.479 3.385-1.77 3.975-3.793.096-.326.244-.389.537-.381.508.014 1.051.109 1.521-.029 1.736-.512 2.766-1.75 2.648-3.619-.039-.652.182-1.033.553-1.441 1.162-1.287 1.893-2.746 1.938-4.523.013-.448-.028-.888-.006-1.323zm-31.033-10.914c.496-.449 1.236.285.736.734-.635.574.809 1.793 1.332 1.93.648.17.373 1.174-.277 1.004-1.282-.336-3.127-2.461-1.791-3.668zm4.865 10.197c-1.162-1.525-3.998-.65-5.639-.789-1.387-.117-2.318-.857-2.809-2.135-.242-.627.764-.896 1.002-.277.803 2.088 3.475 1.268 5.197 1.314 1.279.037 2.348.313 3.146 1.359.408.536-.497 1.053-.897.528zm5.578 6.053c-.941 1.314-2.352 1.664-3.893 1.688-.672.012-.67-1.029 0-1.041 1.301-.02 2.449-.279 3.193-1.449.777-1.223 1.43-2.697.652-4.08-.33-.584.568-1.109.898-.525 1.019 1.805.283 3.829-.85 5.407zm.662-12.776c-2.414-.014-4.953-1.652-6.176-3.691-.346-.576.555-1.1.898-.525.879 1.465 2.512 2.607 4.172 3.027 1.676.426 3.734-.322 3.773-2.309.014-.67 1.057-.672 1.043 0-.04 1.967-1.718 3.512-3.71 3.498zm8.397 14.268c-1.158-.072-2.324.16-3.021 1.18-.568.832-.881 1.775-1.162 2.734-.189.643-1.193.369-1.004-.277.359-1.229.783-2.631 1.732-3.547.955-.924 2.15-1.213 3.455-1.131.666.043.67 1.084 0 1.041zm3.131-8.479c-.455.064-.979.078-1.506.023-.047-.063-.102-.123-.154-.184-.461-.076-.918-.174-1.334-.377-.408-.199-.729-.49-.998-.828-.047-.006-.09-.016-.137-.02-.074-.133-.141-.271-.189-.426-.004-.012-.006-.025-.01-.037-.057-.092-.113-.182-.164-.277-.1-.191-.068-.371.021-.512-.078-1.217.441-2.504 1.656-2.922.637-.219.908.787.277 1.004-.824.283-1.061 1.496-.832 2.285.279.434.635.779 1.172.926.592.16 1.205.229 1.807.34.01.002.014.008.021.01.029-.004.064-.006.094-.01.656-.088.94.914.276 1.005zm4.224 2.747c-.563.256-1.025.652-.725 1.305.281.605-.617 1.135-.898.527-.537-1.16-.041-2.215 1.098-2.73.605-.276 1.136.622.525.898z" fill="#055993" fill-rule="evenodd"/><path clip-rule="evenodd" d="m73.651 89.902c.041-.844-.281-1.582-.568-2.334-.162-.422-.4-.75-.779-.973-.088-.824-.422-1.607-.957-2.242.441-.189.676-.627.58-1.211-.066-.406-.18-.773-.357-1.092-.004-1.391-.992-2.463-2.111-3.164-.248-.154-.523-.305-.813-.441-.201-.129-.424-.223-.654-.273-.379-.139-.768-.238-1.152-.291-.01-.031-.018-.063-.025-.098-.025-.113-.057-.225-.09-.33-.059-.262-.174-.523-.35-.775-.207-.338-.465-.607-.766-.809-2.182-1.984-5.066-3.15-7.896-2.463-.25-.213-.568-.379-.967-.479-.24-.059-.49-.109-.742-.158-.295-.092-.598-.145-.91-.139-2.695-.324-5.848.039-7.973 1.475-.58.391-1.001.949-1.167 1.572-.018-.008-.034-.016-.054-.023-.582-.238-1.179-.508-1.82-.422-.866.117-1.655.449-2.335 1.021-.122.104-.218.203-.302.303-.328-.063-.662-.068-.976-.006-1.135.234-1.886.791-2.597 1.676-.237.293-.354.641-.38 1-.193.418-.262.908-.098 1.402.1.299-.007.459-.273.559-.113.043-.229.08-.344.115-.89.271-1.628.764-2.181 1.518-1.172 1.604-1.162 3.471.045 5.143.322.447.701.764 1.109.967.386.928 1.11 1.656 2.015 2.105-.079.107-.047.248.111.418.349.373.683.768 1.108 1.063 1.314.908 2.781 1.254 4.32 1.188.405 0 .771-.006 1.136.002.298.006.417.121.363.461-.141.9-.01 1.791.381 2.6.496 1.031 1.307 1.705 2.3 2.098.188.357.423.701.689 1.063.344.465.771.895 1.249 1.27-.113.096-.139.232-.041.416.126.236.285.443.506.617.895.705 1.93.604 2.948.514.36-.031.655-.002.955.186.955.592 1.998.811 3.094.584.762-.156 1.455-.229 2 .459.033.041.078.076.119.109 1.031.797 2.209 1.227 3.484.928 2.029-.479 3.385-1.77 3.975-3.793.096-.326.244-.389.537-.381.508.014 1.051.109 1.521-.029 1.736-.512 2.766-1.75 2.648-3.619-.039-.652.182-1.033.553-1.441 1.162-1.287 1.893-2.746 1.938-4.523.013-.448-.028-.888-.006-1.323zm-31.033-10.914c.496-.449 1.235.285.736.734-.636.574.809 1.793 1.332 1.93.648.17.373 1.174-.277 1.004-1.283-.336-3.128-2.461-1.791-3.668zm4.864 10.197c-1.161-1.525-3.998-.65-5.639-.789-1.386-.117-2.317-.857-2.809-2.135-.241-.627.765-.896 1.003-.277.803 2.088 3.475 1.268 5.196 1.314 1.279.037 2.349.313 3.146 1.359.409.536-.497 1.053-.897.528zm5.579 6.053c-.942 1.314-2.353 1.664-3.894 1.688-.671.012-.67-1.029 0-1.041 1.301-.02 2.45-.279 3.194-1.449.776-1.223 1.43-2.697.651-4.08-.329-.584.569-1.109.899-.525 1.019 1.805.283 3.829-.85 5.407zm.66-12.776c-2.413-.014-4.952-1.652-6.174-3.691-.347-.576.554-1.1.898-.525.878 1.465 2.512 2.607 4.171 3.027 1.677.426 3.735-.322 3.774-2.309.014-.67 1.057-.672 1.043 0-.04 1.967-1.718 3.512-3.712 3.498zm8.399 14.268c-1.158-.072-2.324.16-3.021 1.18-.568.832-.881 1.775-1.162 2.734-.189.643-1.193.369-1.004-.277.359-1.229.783-2.631 1.732-3.547.955-.924 2.15-1.213 3.455-1.131.666.043.67 1.084 0 1.041zm3.13-8.479c-.455.064-.979.078-1.506.023-.047-.063-.102-.123-.154-.184-.461-.076-.918-.174-1.334-.377-.408-.199-.729-.49-.998-.828-.047-.006-.09-.016-.137-.02-.074-.133-.141-.271-.189-.426-.004-.012-.006-.025-.01-.037-.057-.092-.113-.182-.164-.277-.1-.191-.068-.371.021-.512-.078-1.217.441-2.504 1.656-2.922.637-.219.908.787.277 1.004-.824.283-1.061 1.496-.832 2.285.279.434.635.779 1.172.926.592.16 1.205.229 1.807.34.01.002.014.008.021.01.029-.004.064-.006.094-.01.657-.088.941.914.276 1.005zm4.225 2.747c-.563.256-1.025.652-.725 1.305.281.605-.617 1.135-.898.527-.537-1.16-.041-2.215 1.098-2.73.605-.276 1.136.622.525.898z" fill="#008ecc" fill-rule="evenodd"/><path d="m9.832 38.182v53.12l46.073 26.559 46.074-26.559v-53.12l-46.074-26.56zm90.282 1.08v50.97l-44.211 25.49-44.21-25.49v-50.97l44.21-25.489z" opacity=".13"/></svg>