<svg enable-background="new 8.833 -8.167 110.833 128.167" height="128.167" viewBox="8.833 -8.167 110.833 128.167" width="110.833" xmlns="http://www.w3.org/2000/svg"><path d="m119.685 88-55.426 32-55.425-32v-63.999l55.425-32 55.426 32z" fill="#1eafa4"/><path d="m64.759 3.175 46 26.558v53.125l-10.428 6.02-.245.119-.123.06-.117.06-35.139 20.298-45.948-26.557v-53.125z" fill="#35fcf2"/><path d="m107.384 58.319c2.969 0 5.375 2.405 5.375 5.375v24.25c0 2.969-2.406 5.375-5.375 5.375h-.25c-2.969 0-5.375-2.406-5.375-5.375v-24.25c0-2.97 2.406-5.375 5.375-5.375z" fill="#1eafa4"/><path d="m91.384 11.319c2.969 0 5.375 6.268 5.375 14.001v63.165c0 7.732-2.406 13.834-5.375 13.834h-.25c-2.969 0-5.375-6.102-5.375-13.834v-63.165c0-7.733 2.406-14.001 5.375-14.001z" fill="#1eafa4"/><path d="m68.384-2.681c2.969 0 5.375 2.406 5.375 5.375v24.25c0 2.969-2.406 5.375-5.375 5.375h-.25c-2.969 0-5.375-2.406-5.375-5.375v-24.25c0-2.969 2.406-5.375 5.375-5.375z" fill="#1eafa4"/><path d="m21.79 23.319c4.401 0 7.969 3.568 7.969 7.969v36.062c0 4.401-3.567 7.97-7.969 7.97h-.063c-4.402 0-7.969-3.568-7.969-7.97v-36.063c0-4.399 3.566-7.968 7.968-7.968z" fill="#1eafa4"/><path d="m45.774 30.319c2.2 0 3.984 1.784 3.984 3.984v18.031c0 2.2-1.784 3.984-3.984 3.984h-.031c-2.2 0-3.984-1.784-3.984-3.984v-18.03c0-2.199 1.784-3.983 3.983-3.983z" fill="#1eafa4"/><path d="m64.774 91.319c2.201 0 3.984 1.784 3.984 3.983v18.032c0 2.2-1.783 3.984-3.984 3.984h-.031c-2.2 0-3.984-1.784-3.984-3.984v-18.03c0-2.199 1.784-3.983 3.983-3.983z" fill="#1eafa4"/><path d="m100.875 80.75c0-1.432.119-2.84.343-4.217-.187-.53-.431-1.002-.75-1.497-.002-.011-.002-.019-.004-.028.078.112.154.225.231.338-.06-.096-.12-.189-.18-.283-.032-.056-.066-.108-.082-.172.001.006.002.012.004.016-.08-.352-.21-.691-.437-1.024-.045-.065-.104-.122-.152-.185-.961-2.566-1.512-5.252-3.168-7.264-.108-.353-.215-.703-.329-1.054-.179-1.126-.546-2.167-.99-3.265-.104-1.229-.565-2.188-1.237-3.178-.271-.816-.531-1.638-.765-2.467-1.196-4.267-.71-8.456-1.125-12.869-.054-.571-.258-1.058-.553-1.464.229-.359.38-.732.321-1.116.269-.576-.002-1.433-.769-1.388-.317.019-.631.037-.946.055-.345-.048-.682-.034-1.031.055-.523.027-1.049.047-1.571.062-.24-.208-.563-.325-.942-.213-.33.097-.664.165-1 .222-.089-.002-.176 0-.264-.002-.249-.008-.436.044-.596.121-.368.04-.739.071-1.11.099-1.084.08-1.097 1.492-.274 1.849-.01.31.137.589.362.775.017.209.046.419.108.64.007.02.019.033.023.052-.416.696-.572 1.543-.264 2.43.083.24.145.488.206.736-.015.03-.024.063-.04.094-.014.031-.032.056-.045.087.007-.009.012-.016.02-.025-.063.14-.127.28-.179.426-.342.857-.313 1.843-.271 2.741.061 1.323-.004 2.562.082 3.824-.297.282-.553.597-.727.979-.234.525-.322 1.072-.264 1.644-.061-.989-.244-.813-.551.525-.158.401-.309.808-.447 1.217-.406 1.147-.373 2.244-.514 3.443-.006.055.006.106.002.161-.215.366-.429.736-.633 1.117-.008.013-.01.024-.017.038-.163.232-.32.472-.478.709-.086-.396-.177-.801-.274-1.171-.72-3.546-2.058-7.215-3.438-10.158-.041-.085-.095-.179-.14-.257-.294-1.611-.544-3.248-.849-4.719-.158-.771-.586-1.372-1.137-1.794.002-.044.01-.086.012-.132.002-.183.012-.373.017-.559.708-.77 1.084-1.854.868-2.892-.078-.371-.541-1.653-.727-2.124-.004-.253-.014-.507-.026-.759 0-.044-.005-.087-.005-.131-.006-.097-.018-.193-.024-.291-.009-.077-.011-.156-.024-.232-.064-.696-.179-1.38-.348-2.049.146-.488.281-.979.381-1.483.262-1.321-.193-2.587-.168-3.898.957-.324 1.789-.927 2.182-1.887.219-.537-.162-1.027-.648-1.176-.17-.183-.387-.323-.631-.36-.383-.058-.768-.085-1.148-.111-.129-.213-.336-.384-.65-.44-1.238-.224-2.852-.367-4.211-.009-.146.004-.289.016-.434.024-.096-.037-.199-.066-.318-.074-2.109-.127-4.102 1.119-6.188.726-.956-.18-1.519.925-1.025 1.671.291.44.587.876.883 1.313-.102 1.69-.011 3.38.003 5.072-.252-.056-.516-.096-.801-.098-2.141-.011-4.197.419-6.322.626-.051.005-.097.022-.147.029-.762.031-1.523.105-2.281.197-.101-.21-.291-.376-.612-.417-3.493-.439-7.113-.196-10.631-.196-2.779 0-5.876-.4-8.588.289-.822.208-.909 1.167-.232 1.518-.158.153-.261.354-.244.586.048.626.275 1.266.72 1.67-.23 1.277-.478 2.546-.627 3.836-.074.635.009 1.198.198 1.687-.237.444-.387.967-.384 1.588.046 10.771-1.029 22.19.127 32.911-.187 2.447 2.591 3.593 4.529 2.936.193.049.396.079.613.086 5.451.18 10.912.278 16.376.329 2.544.976 5.302.767 7.98.481.121.033.236.076.367.099 2.743.468 5.702.522 8.467.246.235-.022.457-.099.671-.192 1.441-.06 2.854-.291 4.383-.385.34-.021.645-.087.932-.174.244-.025.496-.059.748-.092 7.535-.057 15.063-.135 22.578-.164.519-.002.956-.115 1.329-.298-.046-.641-.079-1.288-.079-1.942z" fill="#e5e5e5"/><path d="m57.845 55.154c-8.504.139-17.026-.158-25.527.177-.763.03-1.602 1.271-.818 1.325-.132.185-.336.394-.313.625.58 5.719.584 11.395.531 17.125-.015 1.618.008 2.893.188 4.188-.07.101.267.271.243.413-.007.039-.005.073-.01.111-.021.026-.051.051-.068.079-.221.371-.52.546-.259.865.088.106-.132.467-.063.594-.684.492.188 1.773 1.144 2.041.181.052.362.103.543.152.357.102.663.006.898-.187.092-.011.185-.015.276-.028.12-.012.231-.055.337-.107 1.415.402 2.77.482 4.41.425 1.643-.06 3.23-.277 4.872-.332 2.037.849 4.268.166 6.404.204.073.001.127-.024.193-.033 1.006.555 2.363-.684 1.44-1.609-.045-.045-.09-.091-.136-.136-.135-.136-.285-.212-.438-.265.043-.758.017-1.473-.052-2.229.272-.148.489-.406.537-.809.177-1.51.693-2.917.954-4.389.99-2.974 2.391-5.86 2.539-8.912.364-.938.658-1.912.831-2.957.021-.129.009-.256-.02-.379.403-1 .693-2.035.763-3.144.125-.267.251-.534.367-.799.073-.167.092-.665.072-.665h.019c.951.002 1.078-1.359.143-1.344z" fill="#ef2070"/><path d="m79.079 60.609c.051-.983-.062-1.709-.424-2.631-.352-.894-1.145-2.137-1.342-3.209.24-.309.328-.721.082-1.1-.155-.239-.305-.403-.534-.569-.093-.066-.187-.109-.278-.142-.037-.131-.088-.261-.129-.392.262-.352.305-.867.053-1.237.563-.364.459-1.493-.36-1.448-5.248.286-10.521-.14-15.768.147-.631.035-.747.958-.268 1.208-.055.062-.111.124-.143.209-.047.127-.086.256-.131.383-.1.054-.199.107-.298.161-.674.363-.639 1.071-.271 1.538-1.288 4.17-1.969 8.514-3.417 12.642-1.459 4.16-3.178 8.468-3.856 12.858-.49 3.172 1.942 4.89 4.833 5.063 5.363.319 11.396.535 16.765-.091 1.123-.131 1.342-1.597.617-2.034.037-.063.082-.111.11-.188 1.003-2.664.972-5.983 1.681-8.771.985-3.868 2.262-7.596 3.685-11.329.194-.513-.167-.934-.607-1.068z" fill="#0076f7"/><path d="m100.382 74.128c-.465-1.174-1.054-2.296-1.726-3.397-.698-2.178-1.354-4.349-2.519-6.344-.12-.205-.305-.351-.516-.443.004-.068.008-.137-.004-.205-.041-.25-.111-.486-.179-.725.063-.261.03-.543-.188-.797-.063-.109-.129-.22-.193-.33-.115-.283-.235-.564-.358-.847.032-.151.042-.313-.006-.496-.21-.793-.315-1.011-.724-1.731-.047-.084-.107-.135-.164-.193.023-.006.05-.01.074-.016.646-.151.523-1.086-.062-1.223-1.712-.396-3.532-.214-5.282-.215-2.023-.001-4.084-.128-6.09.154-.672.095-.783.994-.259 1.277-1.247 1.072-2.026 2.816-2.38 4.629-.275.762-.479 1.541-.605 2.328-1.214.922-1.654 2.506-1.961 4.131-.064.342.023.642.184.879-.243.75-.443 1.515-.598 2.289-.432.894-.867 1.852-1.055 2.818-1.703.911-1.832 2.896-.832 4.538v.005c0 .174-.309.436-.283.797.112 1.643.131 1.639 1.148 2.932.293.373.682.439 1.008.326 1.543.707 3.281.508 5.057.264.023.006.043.02.067.023 4.073.646 8.803.621 12.894.17.139-.017.248-.063.342-.127.017.004.025.014.043.018.935.162 2.826.284 4.752.354.575-.854 1.21-1.665 1.875-2.448-.918-2.649-1.432-5.471-1.46-8.395z" fill="#64e539"/><path d="m34.94 36.073.003-.002h-.003z" fill="#f9f9f9"/><path d="m39.425 35.859c-.452.162-.901.343-1.349.531-.563-.036-1.127-.078-1.692-.113-.182-.264-.693-.432-1.039-.291-.065.026-.392.058-.402.085.01.002.2.004.196.007-.113.047-.119.099-.23.149-.588-.005-1.123.016-1.704.09-.146-.137-.318-.219-.558-.238-.104-.008-.199-.034-.293-.059-.046-.018-.095-.023-.143-.038-.335-.111-.639-.271-1.044-.248-.519.03-.753.714-.448 1.097.041.051.1.08.145.126.08.219.258.395.536.42.028.002.049.01.075.014.132.064.261.135.402.181.021.804-.031 1.633-.323 2.372-.141.355-.022.633.199.807-.276.463.12 1.095.694.936.394-.109.755-.301 1.1-.53-.609 5.354-.167 10.908-.156 16.289.012 5.961-.438 12.062.116 17.998.074.791 1.302.728 1.371-.043.426-4.723.146-9.547.14-14.287-.008-6.69.586-13.678-.224-20.324-.024-.202-.125-.33-.254-.403.379-.33.749-.668 1.127-.957.131-.1.279-.185.42-.275.103-.002.204-.003.328.007.528.047.834-.295.938-.707.356-.169.712-.342 1.079-.486.386-.057.77-.139 1.147-.286.166-.065.272-.167.337-.282.831-.436.455-1.88-.491-1.542z" fill="#f9f9f9"/><path d="m34.198 78.105c-1.043 0-1.233 1.623-.182 1.623 1.044.001 1.234-1.623.182-1.623z" fill="#f9f9f9"/><path d="m64.878 53.168c-.717 2.188-2.091 4.279-2.356 6.589-.067.587.863.788 1.1.274.944-2.047 1.861-4.217 2.547-6.365.269-.845-1.012-1.347-1.291-.498z" fill="#f9f9f9"/><path d="m62.364 61.418c-.751 0-.766 1.164-.016 1.164.753 0 .767-1.164.016-1.164z" fill="#f9f9f9"/><path d="m73.859 28.742c-.079.03-.146.074-.222.106-.002-.004-.004-.009-.006-.013-.084.048-.166.089-.25.135-.323.147-.649.297-.953.473-2.934 1.295-5.762 1.085-8.795.095-.68-.714-1.381-1.374-2.485-1.383-.785-.007-1.029.924-.746 1.524-.01.258.075.521.321.725.524.436 1.072.801 1.638 1.176-.498 2.626-.247 5.454-.251 8.109-.003 1.981-.277 4.075.359 5.974.181.541 1.069.597 1.263.031.648-1.895.375-3.984.372-5.965-.004-2.256.17-4.621-.07-6.892.499.27 1.025.41 1.677.477 1.465.151 3.043-.097 4.467-.426 1.166-.269 2.076-1.069 3.068-1.706.443-.199.889-.421 1.336-.682.911-.533.318-2.16-.723-1.758z" fill="#f9f9f9"/><path d="m92.075 40.395c-.669-.962-1.496-1.211-2.648-1.081-1.717.195-3.4.351-5.135.355-1.162.002-1.32 1.528-.322 1.941-.135.072-.252.183-.311.336-.675 1.786-.451 3.764-.439 5.647.013 2.021-.174 4.129.193 6.122.004.168.06.31.15.427.182.281.482.374.779.335.027-.002.053-.005.078-.009.057-.012.106-.03.16-.051.063-.023.125-.051.182-.091.041-.028.072-.064.109-.099.039-.041.082-.076.113-.127.048-.071.074-.152.098-.238.012-.042.037-.07.047-.116.293-1.523.258-3.138.222-4.724.267.115.584.082.799-.182.054-.066.085-.15.131-.223.157.114.354.172.556.143.037.216.07.433.135.646.23.771 1.246.601 1.46-.072.366-1.156.227-2.433.219-3.632-.004-.646.043-1.305-.021-1.94 1.332-.188 2.564-.769 3.299-1.834.117-.172.123-.38.08-.582.207-.273.287-.634.066-.951z" fill="#f9f9f9"/><path d="m88.056 51.247c-.1-.064-.207-.112-.33-.112.004.004.007.007.01.011-.124-.011-.249.007-.359.063-.223.112-.371.34-.383.589-.006.087.135.688.311.617.178.034.354.068.533.102.119-.026.225-.079.316-.16.141-.124.227-.302.234-.489.043-.275-.113-.498-.332-.621z" fill="#f9f9f9"/><path d="m80.954 63.918c-.598 2.747-2.188 5.277-2.211 8.129-.006.624.994.818 1.211.227.934-2.563 1.842-5.354 2.225-8.065.109-.79-1.051-1.098-1.225-.291z" fill="#f9f9f9"/><path d="m78.872 73.721c-1.002 0-1.119 1.559-.113 1.559 1.002-.001 1.119-1.559.113-1.559z" fill="#f9f9f9"/><path d="m79.091 61.176c.066-.199.133-.398.199-.598.344-1.014-1.109-1.732-1.541-.704-3.074 7.319-6.172 15.437-7.468 23.278-.103.617.377 1.047.88 1.086.168.133.385.216.655.189.724.035 1.446.07 2.17.105 1.028.177 1.2-1.238.556-1.747-2.076-1.644.278-6.397.916-8.282 1.105-3.268 1.892-6.525 3.227-9.654.391.006.781-.193.861-.65.069-.389.139-.774.205-1.162.002-.014-.002-.023 0-.038.035-.194.071-.392.107-.586.19-.575-.269-1.136-.767-1.237z" fill="#0063bc"/><path d="m56.765 55.683c-2.298 5.973-4.781 11.969-7.252 17.881-1.198 2.865-2.112 5.914-.99 8.965.154.42.532.791 1.015.756.102-.008.203-.016.304-.021.152-.011.373-.127.543-.285.736.733 2.195-.111 1.644-1.19-1.319-2.581 1.021-8.425 1.832-10.679.821-2.278 1.735-4.519 1.891-6.955.013-.195-.064-.357-.18-.48.85-2.505 1.661-5.021 2.441-7.525.223-.72-.976-1.174-1.248-.467z" fill="#ba0c52"/><g fill="#070b3a"><path d="m85.507 53.435c-1.573 7.771-2.973 15.577-4.736 23.308-.143.628.82.896.965.267 1.764-7.732 3.162-15.537 4.737-23.309.127-.63-.837-.898-.966-.266z"/><path d="m82.792 53.451c-2.86 7.8-6.358 15.595-8.388 23.666-.858 3.417-1.136 8.672 3.786 8.133.634-.068.641-1.07 0-1-5.275.577-2.975-6.725-2.032-9.578 2.331-7.056 5.039-13.98 7.599-20.955.222-.607-.744-.866-.965-.266z"/><path d="m92.909 53.451c-.221-.6-1.188-.341-.965.266 2.56 6.975 5.268 13.899 7.599 20.955.942 2.854 3.243 10.155-2.032 9.578-.641-.07-.634.932 0 1 4.922.539 4.645-4.716 3.786-8.133-2.029-8.071-5.527-15.866-8.388-23.666z"/><path d="m97.47 85.313c.257-.275.518-.542.784-.801l-.041-.199h-20.71v1h14.583z"/><path d="m83.94 53.5c0-4.028 0-8 0-12 0-1-1-1-1 0v12c0 .645 1 .645 1 0z"/><path d="m83.706 40.998c-.231-.281-.427-.587-.584-.917-.06.228-.119.456-.18.684 1.376-.778 3.15-.896 4.689-.987 1.355-.081 4.021-.268 4.959.975.061-.228.119-.456.181-.684-.183.128-.422.146-.631.2-.624.161-.359 1.126.266.964.425-.109.511-.047.869-.3.202-.142.354-.454.181-.684-1.08-1.43-3.244-1.467-4.877-1.492-1.974-.03-4.387.154-6.141 1.146-.24.136-.313.449-.18.684.156.33.351.635.582.917.38.512 1.247.014.866-.506z"/><path d="m91.94 40.5v13c0 1 1 1 1 0 0-4 0-9 0-13z"/><path d="m73.94 44.074c1.866 6.154 3.732 12.309 5.602 18.462.187.614 1.151.353.965-.267-1.867-6.153-3.734-12.308-5.602-18.461-.187-.615-1.152-.353-.965.266z"/><path d="m61.231 44.34c-3.047 10.658-6.095 21.316-9.141 31.975-.178.621.787.885.964.266 3.047-10.658 6.094-21.316 9.141-31.974.178-.622-.788-.886-.964-.267z"/><path d="m64.231 45.34c-3.047 10.658-6.095 21.316-9.141 31.975-.178.621.787.885.964.266 3.047-10.658 6.094-21.316 9.142-31.974.178-.622-.789-.886-.965-.267z"/><path d="m84.503 42.063c1.23.009 2.459.11 3.688 0 .638-.057.644-1.058 0-1-1.229.11-2.457.009-3.688 0-.646-.005-.645.995 0 1z"/><path d="m89.87 41.982c.02.003.036.005.055.008-.115-.116-.232-.232-.35-.349.004.019.006.037.008.055.092.636 1.055.365.965-.266-.002-.019-.006-.037-.008-.055-.021-.151-.197-.328-.35-.349-.02-.003-.036-.005-.055-.008-.63-.09-.902.873-.265.964z"/><path d="m84.94 43.5v11h1c0-4 0-7 0-11z"/><path d="m80.94 77.5h5s1-1 0-1-3 0-5 0z"/><path d="m82.94 72.5h3s1-1 0-1-2 0-3 0-1 1 0 1z"/><path d="m83.94 64.5h3s1-1 0-1c0 0 0 0-1 0v1h1c1 0 1-1 0-1s-2 0-3 0z"/><path d="m74.94 83.5s-12.722 0-19 0c-.645 0-.645 1 0 1h1v-1c-1 0-1 0-2 0v1h2v-1c-1 0-.75 0-1 0-.645 0-.645 1 0 1h19z"/><path d="m52.089 76.314c-1.333 3.498-1.191 7.902 3.351 8.373.641.065.635-.936 0-1-3.855-.399-3.432-4.365-2.387-7.107.232-.603-.737-.861-.964-.266z"/><path d="m61.94 44.5c0-4.139 0-8 0-12 0-1-1-1-1 0h1c0-1-1-1-1 0v12c0 .645 1 .645 1 0z"/><path d="m74.94 44.5s0-9 0-14h-1v1h1s0 0 0-1h-1v14z"/><path d="m74.837 30.979c.775-.961 3.092-2.987 1.017-3.946-.581-.269-1.089.593-.504.863.608.282.198.751-.124 1.153-.344.428-.752.797-1.096 1.223-.402.496.301 1.208.707.707z"/><path d="m62.164 31.456c-.382-.613-2.339-3.425-.848-3.54.639-.049.644-1.049 0-1-2.971.228-.849 3.707-.015 5.044.34.547 1.204.045.863-.504z"/><path d="m61.156 28.023c4.655-1.016 9.927-1.263 14.568 0 .623.17.888-.795.266-.964-4.838-1.317-10.243-1.061-15.099 0-.63.138-.363 1.102.265.964z"/><path d="m61.688 29.119c2.938 1.836 8.243 1.383 11.417.394.612-.191.353-1.156-.267-.964-2.842.885-8.02 1.348-10.646-.293-.547-.343-1.049.522-.504.863z"/><path d="m74.222 29.219c.645 0 .645-1 0-1s-.645 1 0 1z"/><path d="m63.94 32.5v13h1c0-5 0-9 0-13z"/><path d="m55.94 77.5h6v-1c-1 0-1 1 0 1v-1c-2 0-4 0-6 0-1 0-1 1 0 1z"/><path d="m57.94 71.5h5s1-1 0-1-3 0-5 0c-1 0-1 1 0 1z"/><path d="m59.94 64.5h5c1 0 1-1 0-1-2 0-3 0-5 0-1 0-1 1 0 1z"/><path d="m52.94 82.5s-12 0-18 0c-1 0-1 1 0 1h18z"/><path d="m34.69 82.563c-2.686.355-2.887-2.424-2.688-4.438.063-.643-.937-.637-1 0-.253 2.562.418 5.869 3.688 5.438.63-.084.639-1.084 0-1z"/><path d="m31.94 78.5s0-27 0-41h-1v41c0 1 1 1 1 0 0 0 0 1 0 0z"/><path d="m32.422 37.742c-.452-1.282-1.707-2.204-3.037-2.412-.63-.099-.901.865-.266.964.966.151 1.999.752 2.338 1.713.214.605 1.18.345.965-.265z"/><path d="m28.94 36.5h32c1 0 1-1 0-1-1 0-1 1 0 1 1 0 1-1 0-1-11 0-21 0-32 0-1 0-1 1 0 1z"/><path d="m34.94 40.5h8v-1c-3 0-5 0-8 0z"/><path d="m35.94 40.5v37h1c0-13 0-25 0-37 0-1-1-1-1 0z"/><path d="m36.94 77.5h4s1-1 0-1-3 0-4 0-1 1 0 1z"/><path d="m36.94 71.5h4s1-1 0-1-3 0-4 0-1 1 0 1z"/><path d="m36.94 65.5h4s1-1 0-1-3 0-4 0-1 1 0 1z"/><path d="m36.94 59.5h4s1-1 0-1-3 0-4 0-1 1 0 1z"/><path d="m36.94 53.5h4s1-1 0-1-3 0-4 0-1 1 0 1z"/><path d="m36.94 47.5h4s1-1 0-1-3 0-4 0-1 1 0 1z"/></g><path d="m18.67 29.735v53.12l46.073 26.56 46.074-26.56v-53.12l-46.074-26.56zm90.282 1.08v50.97l-44.21 25.49-44.211-25.49v-50.97l44.211-25.489z" opacity=".1"/></svg>