<svg enable-background="new 0 0 110.979 128.417" height="128.417" viewBox="0 0 110.979 128.417" width="110.979" xmlns="http://www.w3.org/2000/svg" xmlns:xlink="http://www.w3.org/1999/xlink"><radialGradient id="a" cx="56.5835" cy="64.042" gradientUnits="userSpaceOnUse" r="44.9993"><stop offset="0" stop-color="#6d22c2"/><stop offset=".1611" stop-color="#6625bc" stop-opacity=".8423"/><stop offset=".3982" stop-color="#522ead" stop-opacity=".6102"/><stop offset=".6808" stop-color="#323c94" stop-opacity=".3335"/><stop offset=".9194" stop-color="#114b7b" stop-opacity=".1"/></radialGradient><path d="m110.849 96.417-55.426 32-55.423-32v-64l55.423-32 55.426 32z" fill="#574b63"/><path d="m110.979 96.417-55.426 32-55.424-32v-64l55.424-32 55.426 32z" fill="#574b63"/><path d="m101.926 38.143v53.131l-.009.01-1.42.819-6.281 3.62-2.719 1.57-.241.121-.13.059-.11.061-3.03 1.74-1.869 1.079-.04.03-3.25 1.88-.87.511-1.38.79-1.46.85-.181.099-.019.011-1.71.989-.96.551-4.621 2.67-.629.369-.061.03-3.5 2.021-4.04 2.33-.01.01-.429.25-7.081 4.089-7.57-4.379-.04-.021-2.069-1.199-5.361-3.101-.69-.399-5.09-2.941-.389-.229-.491-.28-.33-.191-1.849-1.069-.571-.33-1.71-.99-2.509-1.451-2.911-1.679-.089-.05-4.67-2.7-2.111-1.221-7.5-4.329v-53.131l14.33-8.279 1.991-1.151 4.929-2.839 1.58-.911.17-.099 1.66-.95 1.161-.67 1.54-.901.519-.3 2.28-1.309.69-.401 1.46-.839 5.721-3.3.46-.261 6.069-3.51 1.44-.83 1.06.611 6.49 3.75 14.53 8.389 1.04.601 2.3 1.319.87.5 1.52.88 1.37.79.801.46.09.051 1.809 1.04 3.78 2.189.04.021v.01l.26.149.66.381 1.46.84 1.941 1.12.779.449.441.25 1.939 1.12z" fill="#333d60"/><circle cx="56.583" cy="64.042" fill="url(#a)" r="44.999"/><path d="m78.286 76.833-21.651 12.501-21.649-12.501v-24.999l21.649-12.499 21.651 12.499z" fill="#2d3251"/><circle cx="56.49" cy="102.99" fill="#2d3251" r="6"/><circle cx="56.484" cy="102.853" fill="#2d3251" r="6.344"/><circle cx="89.545" cy="65.208" fill="#2d3251" r="6.344"/><circle cx="56.91" cy="27.385" fill="#2d3251" r="6.438"/><circle cx="23.16" cy="65.051" fill="#2d3251" r="6.438"/><path d="m80.011 97.017-1.153 2.127-2.419.067-1.265-2.061 1.154-2.129 2.419-.065z" fill="#2d3251"/><path d="m38.167 32.908-1.153 2.127-2.419.067-1.264-2.061 1.153-2.129 2.419-.066z" fill="#2d3251"/><path d="m80.538 32.726-1.154 2.127-2.419.067-1.264-2.062 1.153-2.129 2.419-.065z" fill="#2d3251"/><path d="m37.069 96.445-1.153 2.127-2.419.066-1.265-2.06 1.153-2.129 2.419-.067z" fill="#2d3251"/><circle cx="56.542" cy="64.625" fill="#9e8374" r="15.167"/><path d="m59.333 80.896-2.375-12.063 4.297 11.954" fill="#2d3251"/><path d="m62.534 80.276-4.681-11.368 6.325 10.977" fill="#2d3251"/><path d="m65.264 78.838-6.679-10.321 8.225 9.637" fill="#2d3251"/><path d="m67.87 76.671-8.719-8.666 10.084 7.669" fill="#2d3251"/><path d="m69.732 73.873-10.443-6.485 11.549 5.205" fill="#2d3251"/><path d="m71.629 70.974-11.576-4.139 12.388 2.656" fill="#2d3251"/><path d="m72.676 67.541-12.241-1.141 12.66-.497" fill="#2d3251"/><path d="m73.148 64.933-12.286.435 12.492-2.113" fill="#2d3251"/><path d="m73.112 61.991-12.063 2.375 12-4.062" fill="#2d3251"/><path d="m72.493 58.792-11.369 4.68 10.978-6.325" fill="#2d3251"/><path d="m71.055 56.062-10.322 6.677 9.637-8.224" fill="#2d3251"/><path d="m68.887 53.456-8.666 8.719 7.67-10.084" fill="#2d3251"/><path d="m66.088 51.593-6.484 10.443 5.205-11.549" fill="#2d3251"/><path d="m63.19 49.696-4.139 11.576 2.657-12.388" fill="#2d3251"/><path d="m59.756 48.649-1.14 12.241-.496-12.66" fill="#2d3251"/><path d="m57.149 48.177.435 12.287-2.113-12.493" fill="#2d3251"/><path d="m54.2 48.471 2.376 12.063-4.063-12" fill="#2d3251"/><path d="m51 49.091 4.681 11.368-6.326-10.977" fill="#2d3251"/><path d="m48.27 50.529 6.678 10.321-8.224-9.637" fill="#2d3251"/><path d="m45.664 52.696 8.719 8.666-10.084-7.669" fill="#2d3251"/><path d="m43.802 55.495 10.443 6.484-11.55-5.205" fill="#2d3251"/><path d="m41.905 58.393 11.575 4.139-12.388-2.656" fill="#2d3251"/><path d="m40.858 61.827 12.241 1.14-12.661.497" fill="#2d3251"/><path d="m40.385 64.434 12.287-.434-12.492 2.112" fill="#2d3251"/><path d="m40.936 67.313 12.125-2.028-12.11 3.716" fill="#2d3251"/><path d="m41.464 70.529 11.497-4.353-11.154 6.008" fill="#2d3251"/><path d="m42.822 73.299 10.509-6.38-9.868 7.946" fill="#2d3251"/><path d="m44.915 75.965 8.911-8.466-7.955 9.86" fill="#2d3251"/><path d="m47.659 77.908 6.78-10.253-5.533 11.395" fill="#2d3251"/><path d="m50.502 79.888 4.468-11.454-3.01 12.308" fill="#2d3251"/><path d="m53.505 81.037 1.89-12.208-.265 12.692" fill="#2d3251"/><path d="m56.497 81.579-.084-12.295 1.754 12.549" fill="#2d3251"/><circle cx="56.521" cy="64.771" fill="none" r="16.375" stroke="#e2d5af" stroke-miterlimit="10" stroke-width=".5"/><path d="m56.708 46.822 5.251 10.642 11.745 1.706-8.497 8.284 2.004 11.696-10.503-5.523-10.503 5.523 2.005-11.696-8.497-8.284 11.744-1.706z" fill="#ead7b0" stroke="#2d3251" stroke-miterlimit="10"/><path clip-rule="evenodd" d="m56.898 55.869c.432.517.721 1.125 1.071 1.693.861 1.4 1.704 2.814 2.552 4.223.34.563.673 1.132 1.018 1.692.098.158.092.236-.084.337-1.471.857-2.935 1.726-4.396 2.598-.15.089-.26.078-.407-.009-1.45-.866-2.905-1.724-4.357-2.589-.078-.047-.256-.045-.162-.224.147.012.268-.062.393-.119 1.344-.609 2.686-1.224 4.033-1.825.236-.105.332-.237.33-.51-.009-1.756.004-3.511.009-5.267z" fill="#2d3251" fill-rule="evenodd"/><path clip-rule="evenodd" d="m56.898 55.869c-.005 1.756-.018 3.512-.01 5.267.002.273-.094.404-.33.51-1.348.601-2.689 1.216-4.033 1.825-.125.057-.246.131-.393.119.65-1.096 1.296-2.194 1.951-3.287.877-1.462 1.762-2.92 2.649-4.376.016-.025.016-.336.166-.058z" fill="#646fa3" fill-rule="evenodd"/><path clip-rule="evenodd" d="m56.896 71.195c-.217.157-.221-.094-.275-.168-.982-1.367-1.952-2.741-2.926-4.112-.489-.691-.978-1.38-1.484-2.095.195-.065.293.052.4.113 1.264.742 2.526 1.49 3.792 2.232.161.095.304.233.507.238-.055 1.264-.032 2.529-.014 3.792z" fill="#646fa3" fill-rule="evenodd"/><path clip-rule="evenodd" d="m56.896 71.195c-.018-1.263-.041-2.528.014-3.791 1.356-.799 2.713-1.598 4.073-2.392.085-.05.167-.194.288-.076.114.112.007.21-.056.298-1.372 1.935-2.745 3.868-4.121 5.8-.049.069-.092.156-.198.161z" fill="#171d3a" fill-rule="evenodd"/><path clip-rule="evenodd" d="m56.775 66.2-.173-4.59 4.59 2.029" fill="#171d3a" fill-rule="evenodd"/><path d="m78.342 51.858v25.122l-.005.005-.67.387-2.97 1.711-1.286.743-.114.057-.061.028-.052.029-1.434.822-.883.511-.019.014-1.537.889-.411.241-.652.374-.691.402-.085.047-.01.005-.808.467-.453.261-2.185 1.263-.298.174-.029.014-1.654.955-1.91 1.102-.005.005-.203.118-3.348 1.934-3.579-2.071-.02-.009-.978-.568-2.534-1.466-.327-.188-2.407-1.391-.184-.108-.232-.133-.156-.09-.874-.506-.27-.156-.808-.468-1.187-.685-1.376-.794-.043-.025-2.208-1.276-.997-.577-3.547-2.047v-25.122l6.776-3.914.941-.544 2.331-1.343.747-.431.08-.046.785-.45.549-.317.728-.425.245-.142 1.079-.62.326-.188.69-.397 2.705-1.561.218-.123 2.87-1.66.68-.392.501.288 3.069 1.774 6.871 3.966.491.284 1.088.624.411.237.719.416.647.373.379.218.042.024.856.491 1.788 1.036.018.009v.005l.123.071.313.18.689.397.918.53.368.212.208.118.917.529z" fill="none" stroke="#8e8e8d" stroke-miterlimit="10" stroke-width=".5"/><circle cx="56.418" cy="102.85" fill="none" r="6.416" stroke="#ead7b0" stroke-miterlimit="10" stroke-width=".25"/><circle cx="56.46" cy="102.807" fill="none" r="4.146" stroke="#ead7b0" stroke-miterlimit="10" stroke-width=".25"/><path d="m56.542 81.022v19.75" fill="none" stroke="#ead7b0" stroke-miterlimit="10" stroke-width=".25"/><circle cx="89.604" cy="65.227" fill="none" r="6.416" stroke="#ead7b0" stroke-miterlimit="10" stroke-width=".25"/><circle cx="89.561" cy="65.185" fill="none" r="4.146" stroke="#ead7b0" stroke-miterlimit="10" stroke-width=".25"/><path d="m72.776 65.104h14.75" fill="none" stroke="#ead7b0" stroke-miterlimit="10" stroke-width=".25"/><circle cx="56.854" cy="27.435" fill="none" r="6.417" stroke="#ead7b0" stroke-miterlimit="10" stroke-width=".25"/><circle cx="56.812" cy="27.478" fill="none" r="4.146" stroke="#ead7b0" stroke-miterlimit="10" stroke-width=".25"/><path d="m56.73 49.263v-19.75" fill="none" stroke="#ead7b0" stroke-miterlimit="10" stroke-width=".25"/><circle cx="23.21" cy="65.058" fill="none" r="6.416" stroke="#ead7b0" stroke-miterlimit="10" stroke-width=".25"/><circle cx="23.253" cy="65.1" fill="none" r="4.146" stroke="#ead7b0" stroke-miterlimit="10" stroke-width=".25"/><path d="m40.039 65.181h-14.75" fill="none" stroke="#ead7b0" stroke-miterlimit="10" stroke-width=".25"/><path d="m57.38 102.38 31.157-19.218" fill="none" stroke="#ead7b0" stroke-miterlimit="10" stroke-width=".25"/><path d="m78.337 76.985 23.434 14.161" fill="none" stroke="#ead7b0" stroke-miterlimit="10" stroke-width=".25"/><path d="m34.896 76.771-24.813 14.375" fill="none" stroke="#ead7b0" stroke-miterlimit="10" stroke-width=".25"/><path d="m78.342 51.858 23.554-13.587" fill="none" stroke="#ead7b0" stroke-miterlimit="10" stroke-width=".25"/><path d="m34.842 51.858-24.884-13.65" fill="none" stroke="#ead7b0" stroke-miterlimit="10" stroke-width=".25"/><path d="m88.333 45.99.204 37.172" fill="none" stroke="#ead7b0" stroke-miterlimit="10" stroke-width=".25"/><path d="m58.583 28.271 29.625 17.875" fill="none" stroke="#ead7b0" stroke-miterlimit="10" stroke-width=".25"/><path d="m55.865 27.927-31.261 18.281" fill="none" stroke="#ead7b0" stroke-miterlimit="10" stroke-width=".25"/><path d="m24.604 82.207v-35.999" fill="none" stroke="#ead7b0" stroke-miterlimit="10" stroke-width=".25"/><path d="m54.781 101.917-30.135-19.835" fill="none" stroke="#ead7b0" stroke-miterlimit="10" stroke-width=".25"/><g fill="#c4576c"><circle cx="64.498" cy="91.726" r=".417"/><circle cx="61.018" cy="93.685" r=".417"/><circle cx="67.675" cy="89.769" r=".417"/><circle cx="70.854" cy="87.811" r=".417"/><circle cx="74.032" cy="85.854" r=".417"/><circle cx="77.21" cy="83.896" r=".417"/><circle cx="80.388" cy="81.939" r=".417"/><circle cx="82.375" cy="75.833" r=".417"/><circle cx="82.375" cy="70.541" r=".417"/><circle cx="82.375" cy="59.375" r=".417"/><circle cx="82.375" cy="54.083" r=".417"/><circle cx="64.485" cy="38.189" r=".417"/><circle cx="61.005" cy="36.23" r=".417"/><circle cx="67.663" cy="40.146" r=".417"/><circle cx="70.841" cy="42.104" r=".417"/><circle cx="74.019" cy="44.061" r=".417"/><circle cx="77.198" cy="46.019" r=".417"/><circle cx="80.375" cy="47.976" r=".417"/><circle cx="82.363" cy="54.082" r=".417"/><circle cx="82.363" cy="59.374" r=".417"/><circle cx="82.363" cy="70.541" r=".417"/><circle cx="82.363" cy="75.833" r=".417"/><circle cx="48.511" cy="91.728" r=".417"/><circle cx="51.991" cy="93.687" r=".417"/><circle cx="45.333" cy="89.771" r=".417"/><circle cx="42.155" cy="87.813" r=".417"/><circle cx="38.977" cy="85.856" r=".417"/><circle cx="35.798" cy="83.898" r=".417"/><circle cx="32.621" cy="81.941" r=".417"/><circle cx="30.633" cy="75.835" r=".417"/><circle cx="30.633" cy="70.543" r=".417"/><circle cx="30.633" cy="59.376" r=".417"/><circle cx="30.633" cy="54.084" r=".417"/><circle cx="48.524" cy="38.191" r=".417"/><circle cx="52.003" cy="36.232" r=".417"/><circle cx="45.346" cy="40.148" r=".417"/><circle cx="42.167" cy="42.106" r=".417"/><circle cx="38.99" cy="44.063" r=".417"/><circle cx="35.811" cy="46.021" r=".417"/><circle cx="32.633" cy="47.978" r=".417"/><circle cx="30.646" cy="54.084" r=".417"/><circle cx="30.646" cy="59.376" r=".417"/><circle cx="30.646" cy="70.542" r=".417"/><circle cx="30.646" cy="75.834" r=".417"/></g><path d="m67.203 26.426 3.612 2.234" fill="none" stroke="#ead7b0" stroke-miterlimit="10" stroke-width=".25"/><path d="m84.953 37.533 3.612 2.232" fill="none" stroke="#ead7b0" stroke-miterlimit="10" stroke-width=".25"/><path d="m93.646 80.177v-4.125" fill="none" stroke="#ead7b0" stroke-miterlimit="10" stroke-width=".25"/><path d="m93.646 53.115v-4.125" fill="none" stroke="#ead7b0" stroke-miterlimit="10" stroke-width=".25"/><path d="m20.146 80.177v-4.125" fill="none" stroke="#ead7b0" stroke-miterlimit="10" stroke-width=".25"/><path d="m20.146 53.115v-4.125" fill="none" stroke="#ead7b0" stroke-miterlimit="10" stroke-width=".25"/><path d="m66.703 103.453 3.612-2.234" fill="none" stroke="#ead7b0" stroke-miterlimit="10" stroke-width=".25"/><path d="m84.453 92.346 3.612-2.232" fill="none" stroke="#ead7b0" stroke-miterlimit="10" stroke-width=".25"/><path d="m78.687 94.899 1.277 2.056v.001l-.035.064-.155.292-.068.126-.007.01-.004.005-.001.006-.075.141-.048.087-.082.153-.021.039-.033.064-.036.069-.005.007-.003.001-.041.079-.023.046-.115.215-.014.028-.002.003-.087.163-.103.188-.007.019-.177.328-.399.014-.002.001-.11.003-.281.009-.036.001-.268.008-.02.001-.027.001h-.017l-.098.004h-.03l-.09.004-.131.004-.153.005h-.005l-.245.008-.113.003-.392.013-1.28-2.055.355-.666.05-.092.123-.23.038-.073.005-.008.042-.076.028-.054.038-.072.013-.024.057-.105.017-.033.036-.066.142-.267.012-.021.15-.282.036-.067.055-.002.342-.011.765-.024.053-.001.121-.005.046-.003.081-.003.072-.002.041-.001h.004l.096-.003.2-.005h.001l.015-.002.034-.001.077-.002.101-.004h.042l.022-.002.103-.005z" fill="none" stroke="#c4576c" stroke-miterlimit="10" stroke-width=".25"/><path d="m76.238 94.989 2.584 4.1" fill="none" stroke="#c4576c" stroke-miterlimit="10" stroke-width=".25"/><path d="m76.943 97.453 1.112-.737" fill="none" stroke="#c4576c" stroke-miterlimit="10" stroke-width=".25"/><path d="m88.691 39.796-3.612-2.233" fill="none" stroke="#ead7b0" stroke-miterlimit="10" stroke-width=".25"/><path d="m70.941 28.69-3.612-2.232" fill="none" stroke="#ead7b0" stroke-miterlimit="10" stroke-width=".25"/><path d="m76.982 30.649-1.277 2.056v.001l.035.065.155.292.068.125.006.01.005.006.001.005.075.141.048.086v.001l.083.153.02.04.033.063.036.069.006.007.002.001.041.079.023.046.115.215.014.028.002.003.087.162.102.189.009.019.176.328.398.014.003.001.11.003.281.009.036.001.267.008.022.001.026.001h.017l.097.004h.031l.09.004.132.004.152.005h.005l.246.008.112.003.393.013 1.278-2.055-.354-.667-.05-.092-.123-.229-.038-.072-.005-.008-.042-.076-.028-.055-.038-.072-.014-.025-.056-.104-.017-.033-.036-.067-.142-.267-.012-.02-.15-.282-.036-.066-.056-.003-.34-.01-.766-.025-.053-.002-.121-.004-.046-.002-.081-.003-.073-.002-.04-.002h-.004l-.096-.003-.2-.005h-.001l-.015-.002-.034-.001-.077-.002-.101-.004-.042-.001-.022-.001-.103-.005z" fill="none" stroke="#c4576c" stroke-miterlimit="10" stroke-width=".25"/><path d="m79.431 30.738-2.584 4.101" fill="none" stroke="#c4576c" stroke-miterlimit="10" stroke-width=".25"/><path d="m78.727 33.204-1.113-.737" fill="none" stroke="#c4576c" stroke-miterlimit="10" stroke-width=".25"/><path d="m46.689 26.245-3.612 2.233" fill="none" stroke="#ead7b0" stroke-miterlimit="10" stroke-width=".25"/><path d="m28.939 37.351-3.612 2.232" fill="none" stroke="#ead7b0" stroke-miterlimit="10" stroke-width=".25"/><path d="m34.669 35.054-1.239-1.995v-.001l.034-.063.15-.284.067-.122.006-.009.004-.005.001-.006.074-.137.046-.083v-.001l.08-.149.019-.038.032-.061.036-.067.005-.007.002-.002.04-.076.022-.044.112-.209.014-.028.002-.002.085-.158.098-.183.009-.019.171-.318.386-.013.002-.001.107-.003.274-.01h.034l.26-.008.021-.001.025-.001h.017l.094-.004h.03l.087-.004.128-.004.148-.004.005-.001.239-.008.107-.003.383-.012 1.241 1.995-.344.647-.049.089-.118.223-.038.07-.005.008-.04.074-.028.053-.037.069-.013.025-.054.1-.017.033-.036.065-.137.259-.011.02-.146.273-.035.065-.054.002-.331.01-.743.024-.052.002-.117.004-.045.002-.078.003-.071.002-.039.002h-.005l-.092.003-.195.005h-.001l-.013.002-.034.001-.074.002-.098.003-.041.001-.021.002-.1.004z" fill="none" stroke="#c4576c" stroke-miterlimit="10" stroke-width=".25"/><path d="m37.047 34.967-2.508-3.98" fill="none" stroke="#c4576c" stroke-miterlimit="10" stroke-width=".25"/><path d="m36.363 32.575-1.08.715" fill="none" stroke="#c4576c" stroke-miterlimit="10" stroke-width=".25"/><path d="m24.701 89.901 3.612 2.233" fill="none" stroke="#ead7b0" stroke-miterlimit="10" stroke-width=".25"/><path d="m42.451 101.007 3.612 2.233" fill="none" stroke="#ead7b0" stroke-miterlimit="10" stroke-width=".25"/><path d="m35.833 98.679 1.314-2.115v-.002l-.036-.066-.159-.301-.071-.129-.006-.011-.004-.005-.002-.007-.077-.144-.049-.089h-.001l-.084-.158-.021-.041-.034-.065-.038-.071-.005-.007-.003-.002-.041-.081-.025-.047-.117-.221-.016-.03-.002-.002-.089-.168-.105-.193v-.001l-.009-.019-.181-.337-.41-.014-.002-.002-.114-.003-.29-.01h-.036l-.276-.008-.022-.001-.026-.002h-.018l-.101-.003h-.031l-.092-.005-.136-.004-.157-.005h-.006l-.252-.009-.115-.003-.405-.013-1.316 2.115.365.686.051.095.126.236.04.075.005.008.043.078.029.056.04.074.013.026.058.106.018.035.038.069.145.274.012.022.155.289.037.069.057.003.351.01.788.026.055.002.124.004.048.003.082.003.076.002.041.002h.005l.098.003.206.006h.001l.015.001.035.001.079.003.104.002.043.001.023.002.106.004z" fill="none" stroke="#c4576c" stroke-miterlimit="10" stroke-width=".25"/><path d="m33.312 98.587 2.66-4.22" fill="none" stroke="#c4576c" stroke-miterlimit="10" stroke-width=".25"/><path d="m34.037 96.05 1.145.758" fill="none" stroke="#c4576c" stroke-miterlimit="10" stroke-width=".25"/><path d="m88.464 63.157h2.286v.001l.035.06.156.27.066.117.006.011.002.006.004.003.074.131.047.08v.002l.081.141.023.036.033.06.037.062.004.008v.002l.043.073.024.041.115.199.016.027.001.003.087.15.1.174.001.001.01.018.176.304-.188.325v.002l-.052.09-.134.231-.017.029-.126.22-.01.015-.012.022-.009.013-.046.081-.014.024-.042.073-.063.109-.072.126-.002.003-.116.2-.053.092-.185.322h-2.286l-.356-.617-.05-.085-.122-.212-.039-.069-.004-.006-.041-.072-.029-.051-.039-.065-.013-.022-.056-.098-.017-.029-.036-.064-.143-.246-.011-.02-.15-.261-.036-.062.026-.046.161-.278.362-.626.025-.044.057-.099.021-.038.038-.065.034-.06.02-.033.002-.004.045-.078.095-.163v-.001l.006-.012.017-.028.036-.062.048-.084.02-.034.01-.018.048-.084z" fill="#9e8374"/><path d="m54.783 28.575v-2.285h.002l.06-.036.27-.156.117-.066.01-.006.006-.002.003-.004.131-.074.08-.047h.002l.141-.081.037-.023.059-.033.062-.037.008-.004h.002l.074-.043.041-.024.199-.115.026-.016.004-.001.15-.087.174-.1v-.001l.017-.01.305-.176.326.188h.002l.09.052.231.134.029.017.219.127.016.009.021.012.014.009.08.046.025.014.073.042.109.063.125.072.003.002.201.116.09.053.323.186v2.285l-.616.356-.085.05-.213.122-.068.039-.007.004-.072.041-.05.029-.065.039-.023.013-.098.056-.029.017-.063.036-.246.143-.02.011-.261.15-.063.036-.045-.026-.279-.161-.625-.362-.045-.025-.098-.057-.039-.021-.064-.038-.061-.034-.033-.02-.004-.002-.078-.045-.162-.094-.002-.001-.012-.006-.027-.017-.062-.036-.084-.048-.034-.02-.019-.01-.084-.048z" fill="#9e8374"/><path d="m24.349 67.128h-2.285v-.001l-.035-.06-.156-.27-.067-.117-.006-.011-.002-.005-.004-.004-.074-.131-.046-.08v-.002l-.081-.141-.023-.036-.033-.06-.037-.062-.004-.008v-.002l-.043-.073-.024-.041-.116-.199-.015-.027-.001-.003-.087-.15-.1-.174-.001-.001-.01-.017-.176-.305.188-.325v-.002l.052-.09.134-.231.016-.029.127-.22.01-.015.012-.022.009-.013.046-.08.014-.025.042-.073.063-.108.072-.126.002-.004.116-.2.052-.091.186-.323h2.285l.358.618.048.085.123.211.039.069.004.007.041.071.03.051.039.065.011.023.057.097.018.03.035.063.142.246.012.02.151.261.035.062-.026.046-.162.278-.361.626-.026.044-.056.099-.022.038-.037.065-.035.06-.019.033-.002.004-.045.078-.094.163-.002.001-.006.012-.016.028-.037.063-.046.084-.022.033-.01.018-.047.084z" fill="#9e8374"/><path d="m58.489 101.71v2.286h-.001l-.061.035-.269.156-.117.066-.011.006-.006.002-.004.004-.131.074-.08.047h-.002l-.14.081-.037.023-.059.033-.063.037-.008.004h-.001l-.074.043-.041.024-.199.116-.026.015-.003.001-.151.087-.173.1-.001.001-.018.01-.305.176-.325-.188h-.002l-.09-.052-.23-.134-.029-.016-.22-.127-.016-.01-.021-.012-.014-.009-.08-.046-.024-.014-.074-.042-.108-.063-.126-.072-.003-.002-.201-.116-.091-.053-.322-.185v-2.286l.616-.356.086-.05.212-.122.068-.039.007-.004.071-.041.051-.029.065-.039.023-.013.098-.056.029-.017.063-.036.246-.143.02-.011.262-.15.061-.036.046.026.278.161.626.362.044.025.099.057.038.021.066.038.059.034.033.02.004.002.078.045.163.095.001.001.012.005.028.017.063.036.084.048.033.021.019.009.084.048z" fill="#9e8374"/><path d="m9.826 38.141v53.121l46.072 26.559 46.074-26.559v-53.121l-46.074-26.561zm90.281 1.08v50.971l-44.209 25.489-44.211-25.489v-50.971l44.211-25.489z" opacity=".13"/></svg>