<svg xmlns="http://www.w3.org/2000/svg" version="1.1" x="0" y="0" viewBox="0 0 110.979 128.417" xml:space="preserve" id="svg415"><defs id="defs419"><clipPath id="clipPath1625" clipPathUnits="userSpaceOnUse"/></defs><g id="g5" transform="translate(.154 .374)" fill="#e8dcc1" fill-opacity=".962" stroke="#000" stroke-opacity="1" stroke-width="1.8" stroke-miterlimit="4" stroke-dasharray="none"><path id="polygon3" fill="#e8dcc1" fill-opacity=".962" stroke="#000" stroke-opacity="1" stroke-width="1.8" stroke-miterlimit="4" stroke-dasharray="none" d="M55.556 127.881L.417 96.047v-63.67L55.556.542l55.14 31.835v63.669z"/></g><g id="g9" transform="translate(.154 .374)" fill="#fff" fill-opacity=".338"><path id="polygon7" fill="#fff" fill-opacity=".338" d="M55.422 116.822L10.109 90.66V38.337l45.313-26.162 45.314 26.162V90.66z"/></g><g id="g13" transform="translate(.154 .374)" fill="#242424" fill-opacity="1"><path id="path11" d="M55.555 10.618L9.073 37.416V91.01l46.482 26.795L102.04 91.01V37.416zm44.603 79.312l-44.603 25.716L10.951 89.93V38.506L55.555 12.79l44.603 25.716z" fill="#242424" fill-opacity="1"/></g><style id="style1103">.st0{fill:#2a2a2a}</style><g id="g1737" transform="translate(31.028 26.6) scale(.14542)"><g id="g1139" stroke="#303030" stroke-width="9.625" stroke-miterlimit="4" stroke-dasharray="none" stroke-opacity="1"><path d="M168.282 512l73.017-81.166H95.079z" id="path1014" fill="#880082" stroke-width="9.625"/><path d="M168.281 383.3S16.012 323.699 7.351 323.7l87.727 107.134h146.22l87.913-107.135z" id="polygon1016" fill="#3558a0" stroke-width="9.62475"/><path d="M17.608 257.345L0 288.98l168.281 62.329L336.56 288.98l-17.982-31.635z" id="polygon1018" fill="#138f3e" stroke-width="9.625"/><path d="M68.807 170.786l-51.199 86.559h300.969l-50.432-86.175z" id="polygon1020" fill="#fad220" stroke-width="9.62475"/><path d="M117.57 85.663l-48.763 85.123 199.338.384c-99.427-171.38 0 0-49.666-85.395z" id="polygon1022" fill="#ff5000" stroke-width="9.62475"/><path d="M168.718-.21c-59.123 99.368 14.74-24.379-51.148 85.873l100.91.112c-30.593-49.829-27.658-49.31-49.762-85.986z" id="path1024" fill="#ff000e" stroke-width="9.625"/></g><g id="g48" fill="#000" fill-opacity=".161" stroke="none" stroke-width="1.9" stroke-miterlimit="4" stroke-dasharray="none" stroke-opacity="1" fill-rule="nonzero"><path id="path8" d="M336.559 288.98L168.28 351.31V0zm0 0"/><path id="path6" d="M168.281 383.3l160.93-59.6L168.28 512zm0 0"/></g></g></svg>