<svg enable-background="new 0 0 110.979 128.417" viewBox="0 0 110.979 128.417" xmlns="http://www.w3.org/2000/svg"><path d="m110.934 96.366-55.426 32-55.423-32v-64l55.423-32 55.426 32z" fill="#fbd834"/><path d="m101.708 37.949v53.14l-.011.01-.019.01-.41.24-.37.21-.62.35-4.149 2.39-.011.01-.13.08-.06.03-.55.32-.801.45-.1.06-.479.28-1.131.65-.85.49-.74.43-.239.13-.131.05-.109.07-1 .57-.03.02-2 1.15-.51.29-.141.08-.029.02-.141.08-.01.01-1.04.59-.04.03-.069.04-1.16.67-.45.26-.01.01-.011.01h-.01l-.42.24-1.12.65-.87.52-1.18.67-.08.05-.12.07-.04.03-.04.02-.02.01-.101.06-.29.17-.029.01-.16.09v.01l-.4.23-.27.16-.11.06-.18.09-.021.02-.04.02-.689.39-.061.04-.239.14-.021.01-.29.17-.149.08-.221.13-.239.14h-.011l-.42.25-.29.17-.029.02-.301.17-1.359.79-.5.29-.25.14-.7.4-.03.02h-.01l-.31.18-.051.03-.239.15-.841.48-.63.36-.059.03-.5.29c-.01.01-.01.01-.01 0l-.53.31-.29.17-.76.44-.051.03-.05.03-.029.01c0 .01-.011.01-.011.01l-.019.02-.25.14-1 .58-.17.1-.04.02-.38.22-1.42.82-.36.21-.09.05-.24.14-.8.46-.26.15-.28.16-.01.01-.2.12-.23.13-.35.2-.83.48-.01.01-.09.05-1.32.76-.021.01-.79.46-.609.35h-.01l-1.41.81-.021.02-.25.14-.56.32h-.01l-.131.08-.189.11-.271.16h-.01l-.2.12-.06-.03-1.14-.66-.021-.01-.2-.12-.85-.49-.03-.01-.33-.19-.01-.01-1.4-.81-.01-.01-.019-.01-1.37-.79-.03-.02h-.01l-.83-.48-.059-.04-.341-.19-.18-.11-.02-.01-.66-.38-.04-.03-.09-.05-.101-.06-.13-.07-.27-.16-.12-.07h-.011l-.72-.42-.24-.13-.39-.23-.05-.03-.03-.02-1.399-.81h-.011l-.109-.07-.37-.22h-.01l-.271-.16-.62-.36-.03-.01-.059-.04-.04-.02-1.29-.75-.39-.23-.681-.39-.579-.33-.11-.06-1-.58-1.72-1c-.011-.01-.021-.02-.03-.02l-1.32-.76-3.92-2.26-.16-.09-.569-.33-.471-.27-.44-.26-.3-.17-.381-.22-.989-.58-.04-.02-2.74-1.59-.1-.06-.181-.1-.67-.38-.82-.47-.09-.05-.5-.29-.01-.01-.08-.05h-.01l-.12-.07h-.01l-.311-.18-.729-.42c-.01-.01-.01-.01-.021-.01l-1.859-1.08-1.021-.59-2.109-1.23-.091-.05-.199-.12s-.011 0-.021-.01l-.28-.16-.529-.3-.82-.48-.06-.04h-.011s0 0-.01 0l-.49-.29-.699-.4-.681-.39-1.22-.71-.1-.06h-.011l-.33-.19-.409-.24h-.011l-.43-.25-.99-.57-.08-.04-.029-.02v-53.14l.779-.45 1.59-.92.36-.21 3.38-1.95 1.061-.61 5.779-3.34h.011l.909-.52 1.051-.62 1.819-1.05h.011l.869-.51 3.631-2.08.64-.38.941-.54.17-.09 1.659-.95.78-.45.38-.22.44-.26.67-.39.43-.26.521-.3.5-.28.59-.34 1.189-.68.69-.41.75-.43.65-.37h.01l.05-.03.43-.25 5.29-3.05.11-.06.08-.05.27-.16 5.521-3.19.55-.32 1.44-.83.51.3 1.09.63 2.86 1.65 3.09 1.79 2.6 1.5.22.13 4.69 2.7.98.57 5.13 2.96.91.52 1.039.61 2.301 1.31.87.5.689.4.83.48.49.28.58.34.3.17.8.46.09.06 1.811 1.04 2.16 1.24 1.119.65.5.29.04.03v.01l.261.14.659.39 1.461.84 1.939 1.12.78.44.439.25.49.28 1.45.84.17.1.85.49z" fill="#bf7f3d"/><path d="m17.215 35.934c1.016 2.757 6.869 3.955 8.123.807.052-.13-.102-.267-.226-.226-1.267.416-2.259 1.147-3.663 1.131-1.61-.017-2.799-.805-3.895-1.911-.135-.135-.411.002-.339.199z" fill="#bf7f3d"/><path d="m99.907 36.909-.85-.49-.17-.1-1.45-.84-.49-.28-.439-.25-.78-.44-1.939-1.12-1.461-.84-.659-.39-.261-.14v-.01l-.04-.03-.5-.29-1.119-.65c-1.07.59-1.721 1.64-2.73 2.34-.58.4-1.18.86-1.52 1.45-.24.09-.41.29-.41.63 0 .2.02.35.04.51-.42.11-.851.21-1.33.27-1.811.25-3.65.64-5.07 1.78-2.689-.09-5.59.49-7.57.89-.81.17-1.26.86-1.33 1.57-.279-.19-.569-.35-.89-.47-.06-.11-.13-.21-.229-.29-.03-.03-.07-.05-.101-.08 0-.21-.06-.41-.149-.61.42-.17.71-.59.56-1.15l-.12-.48c-.05-.19-.17-.35-.31-.48-.261-.3-.66-.44-1.05-.32-.261-.09-.53-.07-.761.08-.46-.4-1.189-.44-1.52.22-.41-.25-.931-.29-1.42-.32-.37-.21-.641-.23-1.101-.28-.85-.1-1.62-.56-2.37-.95-1.449-.76-2.279-2.29-3.72-3.1-.64-.36-1.609.31-1.45 1.05.021.12.07.22.101.33-.98.16-1.98.5-2.84.76-1.601.48-4.631 1-5.83-.58-.221-.28-.7-.16-.81.14-.01 0-.01 0-.01 0-.29-.23-.57-.45-.88-.64-.46-.3-1.021.01-1.25.45-.14 0-.29.04-.44.14-3.449 2.31-6.359 4.56-10.71 4.32-1.779-.09-3.48-.57-5.239-.7-.08-.91-1.7-1.13-1.87-.03-.011.03 0 .06 0 .08-1.49.23-3.03.79-4.471 1.06-.14-.1-.3-.19-.529-.29-.231-.09-.471-.15-.721-.2-.59-.77-1.29-1.47-2.239-1.75-.721-.2-1.261.54-1.101 1.18.01.05.03.1.05.14-.319.19-.529.58-.519.95-1.36.47-2.7.73-4.14.82-.46-.5-1-.92-1.52-1.19-.17-.09-.35-.12-.52-.09v26.71c.17-.06.31-.18.369-.39.181-.6.391-1.18.591-1.76.199-.48.39-.98.569-1.47.011-.01.011-.02.011-.04.35-.93.67-1.85 1.02-2.78.11-.28.01-.52-.17-.67-.01-.01-.021-.02-.03-.03.03-.02.05-.04.07-.07l.01-.01c.061-.04.09-.1.13-.17.41-.76.82-1.51 1.2-2.27.5-.98.96-1.98 1.35-3.02.059-.146.064-.284.051-.415.932-.804.922-2.466.87-3.618-.004-.081-.024-.152-.051-.217.018-.022.045-.035.061-.06.81 1.71 1.48 3.35 1.96 5.02.109.45.22.9.33 1.36.54 2.49.62 5.12 0 8.27-.26 1.32-.58 2.69-.88 4.1v.05c-.511 2.33-.96 4.69-1.011 7.03v.01c.011.01.011.02 0 .03-.029 1.28.08 2.52.37 3.73.021.08.061.15.11.21-.04.77-.07 1.54-.03 2.27 0 .06.01.12.03.17.11.43.55.61.92.53.14-.03.27-.09.37-.19.13-.12.21-.3.2-.54 0-.08-.011-.16 0-.24-.011-.01 0-.02 0-.02-.021-.37 0-.77.019-1.16.86-1.98 1.731-3.97 2.481-5.99.87-2.3 1.979-4.69.97-6.99.18-.67.35-1.35.52-2.03.181-.13.341-.31.44-.58.68-1.73 1.38-3.47 2.1-5.2 1.61-2.52 3.36-4.9 5.24-7.2.51-.08.99-.46 1.38-.8.54-.46 1.16-.81 1.82-1.03.191-.02.38-.06.58-.11-1.3 3.83-1.12 8.17.95 11.68.31.52 1.14.04.93-.51-.04-.07-.05-.15-.08-.23.24-.09.45-.27.55-.61.54-1.93.521-5.4 2.48-6.53.01.05.02.11.03.16.149.63.67.93 1.199.92.38 1.02.681 2.08 1.75 2.48.38.15.83-.07 1.03-.39.059-.09.11-.17.16-.26.18-.29.06-.74-.21-.96.06-.1.1-.22.12-.35.189-1.51.33-3.02.47-4.54.96.07 1.87-.13 2.87-.15 1.189-.03 1.76 1.43 2.97 1.55l.01-.01c.391.47.881.86 1.4 1.21.46.31.97.21 1.3-.09.351.06.7.06 1.08-.02.101.23.2.48.34.7.04.07.101.12.141.18-.32.44-.11 1.26.56 1.31 1.41.06 2.67.9 3.76 1.73.88.66 1.28 1.72 2.21 2.27-.25.27-.229.82.15.99l.4.18c.1.04.199.04.3.02 1.89.7 2.279 3.29 2.13 5.11-.05.62.45.99 1.02.96 1.17-.06 2.29.34 3.441.28.96-.04 1.99-.34 2.88.16.56.31.7.48 1.33.72.29.11.61.06.89-.08 0 .01.011.02.011.03.359 1.18.729 2.41.359 3.05-.02.04-.03.08-.05.12-.23.05-.44.2-.56.49-.351.88-.881 1.56-1.5 2.09-.181.06-.33.16-.44.33-2.31 1.58-5.79 1.43-8.41 1.04-.07-.02-.14 0-.21 0-.06-.52-1.02-.72-1.12-.08-.279 1.76.08 3.37.58 5.06.311 1.04.7 2.03.8 3.11.08.78-.149 1.47-.159 2.23 0 .13.039.25.09.37 0 .01-.011.02-.021.04-.01.07.09.31.08.33-.09.22 1.42.8 1.7.95.06.03.1.11.11.2.029.08.04.16.05.22.06.23.109.5.13.76.01.16.01.32-.01.47-.141.88.84 1.27 1.439.96.23-.12.4-.34.44-.68.06-.57-.01-1.27-.2-1.91v-.01c.09 0 .17-.01.26-.01h.01c.19-.01.381-.01.58-.02.7-.02 1.45.04 2.16-.04.17.19.41.29.681.31.1.17.239.32.409.44.62.47 1.301-.1 1.391-.69.06-.3-.05-.61-.391-.79-.019-.01-.04-.02-.069-.03.21-1.1.239-2.19.21-3.3-.021-.74.09-1.6-.04-2.36.56-1.85.91-3.89 1.26-5.75.33-.29.63-.6.9-.97-.021.34-.021.68-.04 1.01-.37 1.02-.28 2.24.229 3.14-.05.71-.08 1.43-.05 2.19.04.98 1.32 1.08 1.64.21.66-1.77.931-3.87 1.431-5.81 2.399-4.27 6.029-7.59 8.83-11.59-.181 1.55.06 3.24.3 4.6.27 1.55.83 3.89 2.27 4.77.32.19.63.18.88.05.011 0 .011.01.021.01.53-.01 1.059.02 1.59.05.22.02.45.03.66.04.189.01.37.01.559.02h.15c.07 0 .149.01.22.01.021 0 .03-.01.04-.01 0 .05-.01.1-.02.14-.141.6-.23 1.21-.12 1.83.149.89 1.64.85 1.779-.04.07-.43.16-.99.23-1.59.16-.38.36-.75.48-1.05.27-.66.409-1.37.64-2.04.17-.5.33-1.02.439-1.55.4-.08.74-.42.96-.79.33-.57.37-1.38.33-2.03 0-.03-.01-.05-.01-.07 1.84-3.5 3.15-6.12 4.08-9.78 0 0 0 0 0-.01.15-.57.28-1.15.41-1.77.08-.4.15-.8.22-1.21.03-.21.061-.42.09-.63.25.36.511.71.761 1.09v-13.7zm-17.89 12.941c-.36.51-.72 1.03-1.02 1.56-.171.3-.221.59-.19.85-1.03-.63-2.15-1.1-3.28-1.56 1.141-1.19-.189-2.8-1.569-2.43-.091-.21-.23-.43-.42-.63-.271-.27-.58-.53-.921-.78-.029-.04-.06-.09-.09-.14-.79-1.09-1.79-2.03-2.77-2.98-.05-.48-.19-.96-.4-1.4h.03c.25-.01.51-.02.77-.02.12.19.271.37.471.5.979.68 2.12 1.01 3.34 1.12.04.75.51 1.45 1.42 1.29.6-.11 1.18-.34 1.74-.64-.021.97 1.18 1.94 2.109 1.22-.46.56-.88 1.16-1.229 1.82-.69 1.3 1.189 2.32 2.18 1.55.19-.15.39-.32.59-.5-.261.4-.511.789-.761 1.17z" fill="#f1e578"/><path d="m70.03 71.209c-.012-.202-.021-.404-.033-.605-.004-.001-.009-.002-.013-.003.011-.054.027-.101.035-.158.081-.627-.759-.755-1.092-.345-.16.047-.319.096-.476.153-.648-.557-1.232-1.232-1.722-1.895-.42-.57-.425-1.414-.861-2.04-.469-.674-1.525-.61-2.233-.551-.764.064-2.119.478-2.653 1.164-.632-.309-1.001-.18-1.201.158-.41-.024-.799.117-1.032.439-.173-.1-.367-.179-.589-.226-.354-.26-.764-.377-1.177-.114-.022.014-.037.032-.059.047-.172-.075-.351-.15-.555-.234-.232-.095-.44-.043-.609.078-.025-.014-.049-.039-.074-.049-.374-.977-.655-1.984-.783-3.057-.243-2.028 1.37-4.788 3.507-5.226.427-.087.664-.669.419-1.03-1.295-1.904-3.155-2.712-5.418-2.904-.606-.052-.775.534-.579.969-1.64 2.48-5.264 3.151-7.981 3.74-.553.12-.614.774-.324 1.134-.063.042-.125.086-.19.156-.869.941-.93 2.605-.932 3.821 0 .295.187.51.421.614-.013.08-.021.162-.005.253.09.544.192 1.06.317 1.567.201 1.383.22 2.778.293 4.19.008.148.058.261.121.357-.002.027-.001.056-.003.083-.026.044-.057.084-.073.138-.172.555-.289 1.1-.382 1.645-.363-.097-.812.095-.824.589-.008.297-.02.593-.029.89-.21 0-.422.162-.48.358-.013.043-.02.094-.032.138-.134-.087-.296-.137-.495-.092-.583.131-.668.199-1.107.61-.296.277-.228.681.007.926-.29.249-.52.537-.669.996-.123.379.215.876.634.833.089-.009.215.355.338.811-.026.493-.005.99.056 1.485-.054.069-.11.135-.141.231-.346 1.124.113 2.323.779 3.411.06.147.142.28.213.42-.141.169-.207.389-.115.609 1.452 3.489 5.292 2.896 8.433 2.762.22-.009.39-.127.51-.285.197.019.396.029.597.031.754.015 1.611-.059 2.396-.014.001.001.001.001.001.002.461.571.879 1.171 1.254 1.802.099.156.228.24.363.29.089.395.153.789.242 1.134-.188.407-.432.788-.61 1.201-.175.404.04.814.364.939.226.356.765.441 1.015.059.039-.005.079.004.118-.003.134-.014.235-.061.32-.12.024.003.049.005.074.006.2.161.453.272.809.291.972.049 1.979-.505 2.287-1.399.542.099.941-.766.382-1.163-.858-.609-1.849-.587-2.79-.265.014-.088.032-.175.014-.28-.047-.272-.094-.54-.141-.809.09-.148.129-.338.075-.565-.153-.389-.294-.774-.426-1.161-.024-.106-.048-.212-.074-.318.956-.331 1.606-1.008 2.296-1.753.03.151.117.299.291.415.394.264.776.445 1.206.571.315.284.576.638.979.955.03.024.067.04.102.059-.068.07-.126.153-.148.26-.139.656-.205 1.323-.337 1.979-.011.03-.028.051-.035.084-.091.438-.271.836-.423 1.254-.18.49.344.842.767.768.475-.084.94-.199 1.399-.332 1.103.239 2.621-.296 3.283-1.223.049-.036.101-.06.148-.1.518-.441.41-.944.091-1.387-.049-.148-.112-.299-.208-.454-.127-.205-.361-.306-.59-.307-.133-.096-.26-.179-.368-.243-.168-.099-.426-.119-.592 0-.317.226-.726.311-1.08.47-.109.077-.209.165-.3.264-.05.048-.086.083-.113.11-.014.004-.028.006-.041.011-.013-1.684-.48-3.58-2.067-4.01-.298-.081-.526.047-.654.246-.024-.008-.043-.02-.067-.027-.112-.104-.256-.126-.393-.091-.024-.004-.044-.012-.069-.016-.01-.001-.019.001-.028.001.511-.819.478-1.864.465-2.854.279-.101.491-.339.458-.723-.112-1.305-.356-2.589-.549-3.881-.046-.766-.119-1.532-.249-2.3 0-.002-.001-.004-.001-.006-.012-.068-.015-.135-.027-.203-.059-.327-.298-.496-.568-.536-.063-.76-.112-1.521-.157-2.282.15-.022.286-.061.414-.111.051.052.094.104.153.155.878.754 2.86.65 3.964.708.006.003.008.007.013.01 1.435.958 4.046.215 5.006-1.287h.001c.386-.021.762-.399.616-.813zm-17.941-1.262c-1.363.872-2.484.535-3.802.233-.214-.445-.452-.886-.71-1.35-.855-1.537-.88-3.495-.749-5.333.431-.864 1.849-1.398 2.56-1.625 1.372-.438 2.606.321 3.685 1.025.083.054.175.077.267.086-.12 1.347.256 2.818.795 4.197-.342 1.215-.924 2.05-2.046 2.767z" fill="#ff902c"/><path d="m38.927 107.969-1.72-1c-.011-.01-.021-.02-.03-.02-.36-.33-.79-.61-1.23-.86-.02.04-.05.07-.09.1l-3.92-2.26c-.26-.79-.56-1.55-.72-2.37-.351-.74-.601-1.52-.72-2.34-.051.79-.08 1.68-.58 2.31-.08.35-.17.7-.29 1.05l-.011.01-.989-.58v-.03c-.011.01-.03.01-.04.01l-2.74-1.59c-.01-.03-.021-.06-.03-.09-.02.01-.04.03-.069.03l-.181-.1-.67-.38-.82-.47-.09-.05-.5-.29-.01-.01-.08-.05h-.01c-.21-.45-.35-.91-.43-1.39v-.05c-.19-.89-.16-1.78-.021-2.72v-.16c.061-.52.15-1.03.26-1.54-.109-1.13-.14-2.32-.109-3.5.01-.01.01-.01 0-.02.059-1.7.25-3.43.5-5.11.01-.01.01-.01 0-.02.01-.01.01-.01 0-.02.01-.02.01-.04.01-.06.07-.48.14-.97.229-1.44-.059-.07-.119-.15-.14-.26-.01-.03-.01-.04-.019-.05.01-.01.01-.01 0-.02.01-.01.01-.01 0-.02-.221-1.09-.261-2.2-.24-3.31v-.03c0-.33 0-.66.01-.98-.03-.2-.06-.41-.1-.61-.061.14-.13.27-.2.4v.01c-.58 1.25-1.29 2.46-2.021 3.63-.069.1-.159.17-.27.21-.66 1.87-1.11 3.82-1.28 5.85-.02.26-.24.34-.43.29 0 .18-.01.35-.01.54-.021.55-.79.65-.95.13-.14-.43-.23-.87-.31-1.31-.239-.41-.479-.82-.699-1.23-.231.08-.511.02-.681-.22-.5-.73-.899-1.54-1.23-2.4-.851-2.17-1.23-4.64-1.57-6.8-.149-.98-.29-1.98-.38-2.97-.01-.01 0-.02 0-.02-.16-1.73-.18-3.47.07-5.17.029-.63.09-1.26.17-1.89-.021-.13-.03-.25-.04-.38-.07-.51-.11-1.04-.13-1.56-.23.5-.46 1-.71 1.49 0 .01-.011.01-.011.02-.119.26-.239.5-.35.76l-.01.01c-.88 1.91-1.71 3.85-2.59 5.77v-6.87c.3-1.34.76-2.66 1.399-3.83.04-.28.08-.56.13-.85.011-.01.011-.02.011-.04.06-.29.119-.58.18-.88 0-.03-.01-.06-.01-.09.1-.89.35-1.7.68-2.48.02-.03.03-.07.04-.1l.01-.01c.37-.84.851-1.64 1.33-2.44.95-1.56 2.013-3.768 2.394-5.598.079-.43.717.228.797.668.149.96.682 1.819.661 2.749.19.06-.111.282-.092.542.24 2.75.86 5.56.04 8.25-.01 1.61-.08 3.2-.109 4.81v.05c-.011.43-.021.87-.021 1.31 0 .26-.13.43-.309.51-.101.86-.24 1.72-.33 2.56-.09.89-.21 1.77-.351 2.65v.01c.011.01.011.02 0 .03-.029.27-.08.53-.119.8.059 1.9.199 3.78.449 5.66.051-.03.101-.06.15-.08.189-.06.4-.04.57.13.13.13.239.26.35.4.09.11.17.23.25.36.03-.18.07-.37.12-.55.05-.26.12-.52.2-.78-.011-.01 0-.02 0-.02.199-.73.449-1.45.769-2.14.07-.23.15-.45.24-.67 0-.01.01-.02.01-.03h.01c.021-.05.03-.1.051-.15.06-.13.149-.21.239-.26.12-.21.25-.42.37-.64.521-3.03 3.21-5.6 2.23-8.76-.15-.49.55-.76.81-.34.37.61.7 1.26 1 1.92.04.03.07.06.11.11 3.109 5.03 3.859 10.66 3.1 16.26-.069.63-.16 1.26-.25 1.89.04 1.19.061 2.38.05 3.57v.02.02.09c0 .34-.01.69-.02 1.04v.03.02.02.02c0 .3-.01.61-.021.91-.059 2.01-.239 4.01-.01 5.97.41.66.8 1.33 1.17 1.98.021-.18.051-.37.09-.55.061-.31.16-.6.29-.87.091-.18.23-.4.391-.57.1-.1.2-.19.31-.25-.029-1.91 1.34-3.92 2.59-5.18.051-.04.091-.08.131-.12.34-.24.85.09.729.52-.07.23-.1.46-.14.69.12.12.199.3.16.48-.061.29-.12.57-.211.85.2-.02.421.09.5.31.021.07.051.13.07.2v.01c.351 1.06.32 2.12.38 3.22.011.18.021.35.03.53.04.37.07.73.11 1.09.12.01.229.04.34.13.49.42.95.86 1.38 1.34v.01c.1.1.189.21.28.32.12.14.149.3.12.44-.03.12-.091.24-.191.31.21.04.42.07.61.12.04-.12.09-.24.14-.36.31-.66.84-1.33 1.32-1.86.229-.25.439-.47.62-.65.229-.23.539.06.42.33-.011.03-.03.06-.051.1.021.03.03.06.03.1-.02.48-.04.95-.06 1.43.04.07.06.15.069.23.12 1.37.4 2.7.431 4.07.05.18.09.35.13.54.037.149.006.3-.074.419z" fill="#fff92e"/><path d="m43.839 59.625c-.094-.262-.375-.371-.637-.326-.263-.218-.572-.393-.896-.562-.014-.072-.044-.144-.093-.212-.423-.587-.941-1.007-1.458-1.475.125-.126.188-.302.101-.509-.02-.046-.042-.088-.062-.134.001 0 .003-.001.004-.002-.005-.009-.011-.017-.017-.026-.459-1.07-1.004-1.98-1.903-2.758-.337-.292-1.029-.137-.976.404.004.035.003.069.006.103-.089.096-.143.227-.123.397.032.289.026.569-.001.845-1.156 1.764-1.762 3.829-2.391 5.829-.026.108-.021.204 0 .292-.508-.579-1.083-1.114-1.626-1.676-.131-.135-.292-.185-.452-.178-.217-.823-.501-1.628-.807-2.456-.007-.018-.01-.035-.016-.053-.05-1.076-.173-2.139-.36-3.207.002-.319 0-.639-.012-.961.172-.298.344-.596.496-.906.115-.237.048-.56-.152-.725.348-.485.698-.968 1.021-1.471.233-.366-.151-.854-.561-.729-2.917.894-8.182 6.158-7.757 9.928-.334.619-.56 1.291-.601 2.051-.004.069.023.124.046.179-.161 1.142-.161 2.341.098 3.455-.424 2.104-.725 4.369.394 6.297.184.318.599.315.83.069.337 1.936.894 3.878 1.875 5.569-.019.055-.037.111-.04.18-.057 1.483.152 2.925.299 4.398.174 1.756-.295 3.515-.38 5.269-.01.211.088.349.222.43-.396 1.506-.72 2.987-.741 4.403-.003.234.128.399.301.482-.084.476-.168.952-.245 1.43-.214 1.326-.078 2.56.065 3.799-.011.071-.029.133-.039.206-.018.14.025.253.101.342.016.14.033.28.047.421-.004.618.014 1.229.085 1.82.062.507.797.537.813 0 .015-.519-.005-1.022-.034-1.52.019-.285.058-.566.099-.848.989-1.111 1.554-2.951 2.579-4.177.044-.048.087-.096.129-.144.49-.54 1.085-.941 1.876-1.063.28-.043.427-.388.361-.636-.127-.478-.319-.937-.537-1.389h.001c.256.508.522 1.013.824 1.498.002.04.002.068.005.112.014.241.14.402.302.499-.151.328.029.828.401.958.262.092.528.168.794.244.438.388.918.745 1.385 1.126.44.358 1.056-.214.679-.617.058.014.116.026.174.04-.017.466.013.94.152 1.432.068.24.215.375.384.439-.001.155-.006.309-.004.464.009.56.775.972 1.18.489.049-.059.089-.12.134-.18.043.093.081.187.135.279.08.135.194.223.32.273-.003.074-.008.148-.01.223-.007.279.136.471.329.574-.036.334-.063.67-.068 1.009-.011.866 1.348.866 1.344 0 .002-.227.014-.452.03-.676.006-.075.013-.152.019-.229.158-1.735.666-3.42.671-5.178.002-.589-.729-.797-1.086-.46-.239-.153-.573-.136-.808.056-.234-.11-.535-.089-.744.065.006-.415.007-.83-.004-1.245-.004-.137-.057-.249-.128-.347.191-.762.356-1.529.336-2.319-.012-.465-.523-.789-.939-.539-.4.239-.907.217-1.444.104-.451-.2-.934-.306-1.444-.402-.231-.064-.449-.11-.659-.14-.126-.226-.25-.452-.379-.677.022-.058.054-.11.055-.179.026-1.751-.165-3.47-.39-5.204-.239-1.845-.807-3.958-.178-5.781.17-.044.316-.165.364-.37.135-.575.279-1.146.423-1.718.124-.02.269-.044.466-.078.274-.047.41-.262.435-.499.076.012.148.012.227.03.409.121.829-.212.829-.631-.001-1.604.396-3.018.974-4.494.023-.061.024-.116.029-.172.231-.368.46-.738.682-1.112.55-.63.966-1.358 1.332-2.177.015-.033.007-.063.016-.095.451-.372.868-.774 1.259-1.206.666-.511 1.381-.956 2.14-1.397.131-.077.185-.208.206-.347.021-.027.053-.04.069-.075.044-.065.088-.129.132-.194.124-.066.212-.187.242-.357.097-.144.193-.288.291-.431.384-.371.013-.855-.416-.843zm-14.442 28.585c-.121.011-.235.061-.314.163.144-.805.275-1.611.385-2.423.002-.012.005-.024.008-.037 0 0-.002 0-.003 0 .007-.046.015-.091.021-.138.018-.137-.023-.245-.094-.328.054-.196.106-.394.16-.591-.037 1.122-.073 2.243-.163 3.354z" fill="#ff8e31"/><path d="m27.208 77.88c-.258-.879-1.676-.446-1.521.43.703 3.97-.367 7.85-.233 11.773.029.861 1.09.863 1.471.275 2.302-3.558 1.385-8.731.283-12.478z" fill="#fff92e"/><path d="m86.025 69.685c-.026-.005-.052-.004-.078-.009-.021-.071-.033-.142-.079-.215-.685-1.1-.837-2.46-1.006-3.719-.042-.309-.208-.479-.415-.555.182-.416.364-.829.545-1.232.401-.896-.938-1.585-1.367-.69-.276.577-.534 1.148-.78 1.718-1.857 2.565-4.562 4.349-6.17 7.124-.65 1.121-.936 2.478-1.212 3.724-.347 1.572-.926 3.033-1.443 4.54-.575-.925-1.171-1.84-1.478-2.958-.009-.032-.029-.056-.042-.085-.212-.97-1.736-1.044-1.756.072-.056 3.243.678 6.449.737 9.73.064 3.608-1.601 6.117-3.462 8.961-.009.003-.013.012-.021.017-.073.01-.148.035-.225.083-.118.075-.219.157-.314.245-.02.006-.039.008-.058.015-.496.16-.517 1.006 0 1.155 1.073.31 2.578.011 3.803-.62 1.466.075 2.871-.51 3.825-1.538.038.01.076.02.113.03.288.123.528.079.713-.046.147.016.301-.001.445-.09.457-.28.975-.47 1.432-.752-.031.277-.08.551-.186.816-.244.61-1.051 1.021-1.487 1.494-.486.526.343 1.313.882.871.331-.271.679-.51 1.001-.774.59.285 1.088.174 1.52-.144-.126.302-.256.61-.388.942-.228.573.603.946.986.559.777-.785 1.274-1.85 1.484-2.933.12-.618.123-1.247.101-1.876.052-.165.042-.32-.02-.46-.044-.919-.097-1.835.119-2.718.194-.796-.716-1.275-1.233-.95-.094-.061-.201-.107-.335-.122-1.41-.156-3.16-1.009-4.123-2.04-.226-.241-.518-.29-.766-.217-.028-1.188.287-2.396.089-3.574-.01-.059-.03-.111-.042-.17.044-.089.073-.19.075-.307.066-3.27 3.711-3.605 5.638-5.382.539.098 1.14-.437.841-1.112.008-.017.02-.03.026-.046.092-.461.147-.928.167-1.4.171-1.581.098-2.63.306-3.932.44.148.903.148 1.388.085.732-.096 1.419-.14 2.156-.151.798-.016.847-1.207.094-1.364z" fill="#fff92e"/><path d="m101.708 52.659v24.23c-.41-.03-.82-.09-1.23-.14-.25.01-.53-.03-.85-.13-.04-.02-.07-.05-.11-.06-.09.01-.18.03-.28.02-.05 0-.1-.02-.149-.03-.521.03-.82 0-1.17-.15-.141.13-.311.21-.511.18-.199.21-.51.32-.83.24-.229-.06-.399-.17-.56-.35-.08-.09-.12-.19-.15-.29-.199-.18-.26-.46-.199-.71-.38-.35-.67-1.04-.91-1.42-.311-.15-.63-.3-.95-.45-.49-.12-.72-.64-.51-1.09.24-.51.47-1.02.7-1.53-.091-.18-.12-.39-.021-.62.34-.77.74-1.51 1.13-2.24.01-.07.01-.13.03-.2 1.479-4.37 5.55-8.99 5.09-13.74 0 0 0 0 0-.01-.06-.67-.22-1.35-.49-2.03-.3-.75.57-1.25 1.12-.95.141.08.271.2.351.39.14.33.29.66.43.99.01.01 0 .03.01.04.019.01.038.03.059.05z" fill="#fff92e"/><path d="m44.333 68.536c-.031-1.824-.201-3.597-.501-5.385.107-.206.054-.402-.089-.542-.004-.018-.006-.035-.009-.052-.055-.298-.38-.305-.528-.128-.131.019-.261.077-.365.202-.724.862-1.652 1.852-2.548 2.93-.525.223-.932.855-1.19 1.542-1.066 1.509-1.889 3.137-1.919 4.801-.022.09-.036.185-.026.292.031.324.061.549.109.781.003.015.007.029.01.044.036.166.08.337.148.558l.012-.004c.022.067.033.134.059.201.092.241.262.372.455.423.229.42.565.769 1.046.949.238.089.507.146.786.186.306.078.623.083.947.033 1.271-.08 2.542-.669 2.785-1.949.007-.038-.002-.068-.001-.103.899-1.425.845-3.144.819-4.779z" fill="#442912"/><path d="m52.903 52.634c-.058-.371-.365-.681-.769-.552-.868.277-1.277.212-1.948.917-.596.625-.828 1.472-1.295 2.197-.075-.042-.157-.075-.249-.088-.044-.006-.087-.012-.13-.018-.358-.05-.633.089-.808.299-.634.217-1.608-.024-2.227-.017-.757.009-1.566.101-2.189.55-.096.027-.177.068-.267.101-.24-.149-.506-.099-.71.057-.032.005-.066-.002-.099.009-.206.07-.412.14-.617.209-.67.227-.693 1.031-.145 1.398.007.004.014.007.022.012.008.094.025.191.056.294.089.301.453.5.754.387h.001c.064.083.13.167.211.253.281.3.774.341 1.117.135.047-.028.091-.053.136-.08 1.906.467 3.923.138 5.784-.787 1.898-.944 3.716-3.054 3.372-5.276z" fill="#442912"/><path d="m49.297 51.624c-1.489-1.539-3.659-3.343-5.758-1.599-1.321 1.098-1.665 4.05-.008 5.032.456.271 1.124-.021 1.221-.548.074-.406.078-.818.085-1.229.024.006.039.019.064.024.146.028.271.006.382-.042.063.101.127.201.221.299 1.017 1.063 2.264-.438 3.211-.542.598-.067 1.047-.914.582-1.395z" fill="#442912"/><path d="m53.341 63.712c-1.242-1.937-4.144-2.369-5.562-.352-.059.084-.093.167-.114.25-1.585.74-.528 3.996-.104 5.053.821 2.047 3.78 2.306 5.253.878 1.504-1.458 1.599-4.16.527-5.829zm-1.239 3.779c-.674 1.655-2.576 1.627-3.173-.082-.216-.617-.39-1.247-.344-1.904.018-.256.03-.51.077-.763.08-.435.252-.308-.15-.048.151-.098.234-.235.263-.385.198-.136.372-.32.606-.474.553-.362 1.203-.267 1.756.032 1.411.764 1.499 2.314.965 3.624z" fill="#fff"/><path d="m60.591 59.446c-.122-.088-.243-.177-.364-.265-.201-.146-.526-.134-.734-.016-.094.054-.187.108-.28.161-.009.005-.011.013-.02.018-.661-.095-1.384.037-1.953.308-.567.271-.899.806-1.109 1.396-.472.475-.628 1.315-.723 1.945-.085.563-.128 1.096-.033 1.662.04.237.157.485.241.704.011.027.031.043.043.067.055.219.127.431.243.624.556.922 1.849 1.687 2.718.781.497-.232.781-.871.4-1.383-1.014-1.364.584-2.948.932-4.177.02-.07.022-.146.015-.22.386-.014.638-.428.591-.804.206-.189.254-.581.033-.801z" fill="#fff"/><path d="m53.038 88.272c-1.285.209-2.639.377-3.948.446-1 .053-2.009-.139-2.848.266-.372-.229-.747-.435-1.133-.591-.636-.394-1.257-.814-1.985-.972-.159-.034-.303-.01-.438.036-.02-.018-.031-.043-.052-.059-.122-.323-.254-.643-.391-.962.029-.154.029-.317-.051-.491-.259-.563-.503-1.12-.782-1.668-.003-.011-.007-.021-.01-.031l-.004.002c-.037-.072-.068-.145-.106-.216-.108-.203-.257-.311-.416-.373-.297-1.142-.454-2.302-.608-3.469-.006-.59.014-1.152.051-1.669.044-.229.082-.458.102-.693.065-.359.103-.687.07-1.039.084-.335.012-.723-.212-.984-.067-.079-.135-.158-.203-.237-.508-.593-1.229-.328-1.535.202-.051.028-.086.067-.132.099-.019-.082-.043-.177-.085-.305-.131-.401-.359-.789-.572-1.149-.161-.272-.442-.387-.732-.39-.195-.152-.409-.287-.677-.367-.439-.131-.876.067-1.107.418-.342.067-.653.289-.764.681-.12.43-.142.806-.002 1.233.044.134.112.25.194.352.021.17.032.339.044.509-.12.378-.194.773-.238 1.164-.642 2.613-.396 6.101.931 8.417.003.037-.012.072-.002.109.05.195.1.39.149.585.095.372.601.693.977.611l.288-.063c.169-.037.331-.12.471-.229 1.064.298 2.104 1.126 3.056.469l-.006.032c-.46.418-.52.569-.632 1.321-.037.248.028.479.146.671-.15.391-.055.885.432 1.192.411.26.591.313 1.067.406.182.036.335.013.475-.032.527-.007 1.061-.121 1.411-.514.042-.047.06-.092.093-.139.057.023.106.044.169.068.182.07.395.061.58-.009-.104.07-.194.164-.266.278-.021.033-.034.066-.054.1-.235-.057-.484.013-.602.301-.198.485-.229.944-.254 1.475-.023.505-.086.962.163 1.401-.005.067-.01.133-.015.2-.151 1.973-.804 3.959-.614 5.954.151 1.594-.265 4.796 1.688 5.354.484.138 1.019-.268 1.102-.74.23-1.337-.148-2.973-.14-4.348.011-1.718-.148-3.399-.041-5.123.098-1.557.782-2.935.809-4.465.256.054.509.119.766.167.17.032.318.006.455-.041.958-.073 2.017.244 2.979.254 1.398.016 2.758.274 4.135.496.512.082 1.156-.295 1.187-.858.07-1.341-.602-3.324-2.333-3.043z" fill="#bf6d28"/><path d="m62.1 90.119c-.093-.188-.226-.315-.372-.416-.019-.289-.102-.614-.143-.838-.071-.392-.167-.781-.318-1.15-.334-.818-1.233-1.173-1.938-.549-.185.164-.361.361-.508.579-.154-.075-.34-.08-.504.018-.673.401-.514 1.927-.194 2.48.347.603 1.158.46 1.333-.046.011.033.012.067.033.098.285.41.865.234 1.259.278.03.181.129.351.288.445-.002.01.032.028.14.063.011.003.02-.001.03.001.04.007.084.002.127.001.038-.004.079-.002.117-.009.013-.003.023.001.036-.003-.005-.001-.007-.001-.012-.002.048-.01.094-.021.146-.027.483-.057.687-.504.48-.923z" fill="#bf6d28"/><path d="m57.524 95.202c.199-.386.054-.971-.375-1.144-.681-.273-1.176-.442-1.896-.396-.011-.018-.018-.038-.029-.056-.181-.275-.632-.176-.627.173.001.076.006.152.008.228-.248.353-.211.883.039 1.23.117 3.622.443 7.212.601 10.826.045 1.032 1.643 1.149 1.627.088-.028-1.863-.175-3.716-.086-5.58.064-1.393.076-4.085.738-5.369z" fill="#bf6d28"/><path d="m62.601 105.103c-.033-3.059 1.514-7.438-.031-10.262-.163-.298-.531-.3-.693 0-.673 1.248-.6 2.791-.591 4.246-.213-.036-.455.056-.541.271-.565 1.411-.215 2.958-.212 4.456.001.939.376 1.348 1.069 1.858.032-.19.063-.379.096-.569.155-.11.311-.221.465-.332.146.111.293.222.438.332z" fill="#bf6d28"/><path d="m39.603 89.435c.265-.308.345-.76-.028-1.064-.801-.65-1.639-.865-2.662-.698-.054.009-.097.036-.146.053-.247-.04-.498-.064-.751-.078.028-.104-.002-.217-.135-.253-1.243-.344-2.492-.328-3.774-.35-1.388-.023-3.398-.466-4.554.417-.08.061-.128.197-.031.272 1.066.814 2.617.468 3.899.45.591-.008 1.184-.008 1.774-.023-.175.349-.072.856.332 1.018-.594.073-1.19.168-1.791.267-.252.041-.238.466.012.499 1.85.236 3.859-.077 5.622.62.217.086.411.039.566-.064.297.118.595.231.897.324.869.263 1.321-.826.77-1.39z" fill="#f1e578"/><path d="m46.569 48.297c-.146-.345-.366-.584-.629-.723.008-.076.014-.151.021-.227.224-.147.387-.39.423-.747.011-.104.005-.2.013-.303.004 0 .008 0 .011.001-.003-.021-.005-.043-.008-.064.072-.956.063-1.856-.081-2.823-.151-1.019-1.391-1.457-2.001-.557-.981-.356-2.188-.396-3.082-.518-1.307-.179-2.618-.278-3.92-.223-.239-.042-.452-.027-.637.035-.617.052-1.231.144-1.841.284-.12-.046-.236-.096-.385-.112-2.413-.26-4.834.027-7.247-.216-.483-.049-.857.106-1.139.386-.282.054-.565.108-.847.163-.937.111-1.154 1.228-.77 1.913-.322.505-.218 1.225.369 1.603-.052 1.365-.098 2.74-.018 4.093-.042.201-.088.401-.126.604-.259 1.389-.087 2.857-.065 4.289-.002.143-.007.286-.009.429-.379 1.196-1.002 3.195-.457 3.473.022.012.044.023.066.034.203.104.489.047.629-.136.399-.521.666-1.125.87-1.76.336-.072.623-.316.648-.763.01-.18.024-.36.035-.54.058-.055.115-.111.156-.183.647-1.117 1.332-2.19 2.125-3.21.509-.656 1.112-1.25 1.584-1.923.949-.609 1.934-1.151 2.742-1.92.129.109.247.231.388.327.034.026.073.038.108.059-.621 1.661-1.054 3.357-1.053 5.212 0 1.535.221 3.792 1.767 4.564-.03.313-.034.632.009.963.059.451.55.899 1.012.573.671-.474.949-1.863.969-2.628.534-1.003 1.291-1.92 1.859-2.871.342-.573.57-1.189.765-1.819.25.448.511.89.796 1.317.252.377.642.498 1.006.452.062.212.104.428.088.659-.041.621.69.856 1.151.629.17-.083.341-.167.511-.251.322-.159.392-.558.326-.871-.213-1.016-.379-2.057-.321-3.098.019-.33.071-.653.132-.975.182-.045.35-.159.477-.374.123-.208.214-.428.299-.649.287-.143.58-.309.778-.564.24.229.599.334.944.277.244.099.528.114.816-.032.197-.079.366-.199.509-.36.225-.19.35-.625.234-.899z" fill="#888341"/><path d="m84.368 35.967c-2.335.347-5.32 1.116-7.593.329-.815-.282-1.859-.465-2.853-.491-.446-.817-2.009-.808-2.422.313-.056-.038-.111-.074-.171-.097-.317-.12-.585-.165-.923-.178-.87-.034-1.315.923-1.14 1.651.033.138.074.272.109.408-.341.218-.576.575-.552 1.063.045.917.136 1.828.251 2.736.003.098.014.196.015.294.005.137.045.246.074.364.1.714.211 1.427.326 2.139-.607 1.689-.374 3.556-.393 5.343-.021 1.882-.239 4.037.183 5.92-.095.004-.188.015-.283.017-.325-.006-.486.247-.483.499-.006.251.149.501.474.495.239.004.478.022.718.041.153.109.351.132.51.046.7.072 1.403.161 2.11.181.016 0 .026.008.043.008 3.573.091 7.688.898 11.261.108.219.353.828.233.932-.186.004-.014.006-.029.009-.044.473-.156.566-.841.233-1.162.456-2.883.164-6.084.189-8.952.024-2.59.257-5.331-.187-7.911.025-.057.042-.115.069-.171-.014-.005-.028-.01-.043-.015.106-.443-.006-.868-.237-1.203.111-.056.226-.106.333-.169.772-.46.253-1.496-.559-1.376z" fill="#888341"/><path d="m81.267 97.56c-.22-.04-.45-.09-.67-.14-.29-.06-.63.12-.8.34-.17.23-.36.43-.54.64.13-.34.229-.69.359-1.04.25-.66-.6-1.17-1.06-.62-.23.27-.44.56-.64.86-.42.16-.9.24-1.391.31-.08-.21-.229-.39-.47-.49.11-.21.11-.43.04-.63.31-.24.62-.49.93-.77.5-.44-.14-1.24-.7-.91-1.56.92-3.079 1.79-4.859 2.22-1.3.32-3.101-.17-4.481-.22 1.65-1.15 3.601-3.75 3.46-5.83.471-1.35.521-2.94.28-4.24 0-.04.01-.08.01-.11 0-.01-.01-.02-.01-.02.13-.18.17-.41.11-.6.13-.19.13-.46 0-.65-.03-.06-.09-.12-.16-.16-.61-.32-1.33-.3-2-.3-.78 0-1.34.08-2.07.33-.22.02-.439.05-.67.09-.11.02-.21.03-.32.04h-.01c-.09.01-.18.02-.26.02-.63.05-1.26.04-1.85.18-.04.01-.091.02-.131.03-.239.07-.29.38-.17.56.13.19.29.31.48.39.16.07.34.11.519.13-.279.53.011 1.33.87 1.3h.04c.181-.01.34-.01.51-.02.03 0 .061.01.091.01.25-.02.51-.03.76-.04.22-.01.38-.11.5-.24h.019c-.06.23-.029.49.11.74.07.13.13.27.2.41-.101.29-.08.63.13.85.16.16.33.31.5.46.04.03.09.04.14.06-.01.01-.02.02-.02.02-.181.01-.36.06-.521.21-.16.15-.34.27-.51.4-.2-.04-.42-.02-.61.13-.55.4-1.04.86-1.58 1.26-.109.09-.189.19-.25.3-.34-.65-1.52-.53-1.649.23-.13.79-.14 1.57-.16 2.38-.01.36.14.63.36.8-.011 0-.011.01-.021.01-.229.26-.39.73-.229 1.07.16.35.38.64.609.89-.229.24-.359.57-.27 1.03 0 .02 0 .04.01.06 0 .01-.01.01-.01.02-.19.87-.28 1.76-.32 2.65-.05 1.16-.07 2.32-.05 3.49-.54-.1-1.08-.14-1.58-.06-.42-1.02-.77-2.04-1-3.09.01-1.13.01-2.25-.08-3.36.09-.13.19-.28.2-.34.1-.42.14-.8.16-1.23.029-.69-.021-1.41-.3-2.05-.11-.26-.32-.45-.61-.5-.09-.01-.24 0-.38.04-.47-.81-1.96-.52-1.94.48.021 1.55-.19 3.54.32 5.09-.311 1.69-.59 3.38-.78 5.09-.04.32-.08.64-.12.96-.39.14-.79.3-1.17.46-.029 0-.06.01-.09.01-.28-1.48-.77-2.93-1.41-4.3-.12-.89-.31-1.75-.67-2.54-.34-.76-1.1-.99-1.72-.79-.01-.09-.021-.18-.03-.26-.12-1.68-.14-3.37-.24-5.05-.01-.08-.04-.14-.06-.21.49-.7.12-1.93-.93-1.86-.44.02-.801.07-1.19.13-.58-.06-1.13-.09-1.65 0-.21-.61-1.199-.81-1.609-.26-.47.63-.57 1.34-.521 2.07-.43 1.22-.319 2.96-.1 4.08-.04.09-.09.17-.11.27-.35 2.3-.56 4.83-.37 7.26-.229-.03-.5-.03-.93-.03-.52 0-.85.26-1.01.62 0 0-.01-.01-.021-.01-.17-.36-.27-.78-.34-1.23.04-.59-.02-1.19-.12-1.8.141-.98.141-1.97.101-3.01-.061-1.41-.05-3.19-.521-4.65 0-.43-.02-.85-.04-1.28.101-.32.23-.63.42-.93.67-1.01-.38-2.02-1.42-1.68-.37.13-.96.18-1.6.16 0-.06 0-.13-.01-.2.06-.13.09-.27.1-.4 0-.16-.01-.29-.03-.43.24-.37.21-.88-.22-1.16.004-.036-.008-.074-.009-.111.206-.055.384-.197.414-.423.023-.17.047-.34.07-.51.045-.328-.327-.645-.642-.479-.726.382-1.241-.113-2-.177-.295-.024-.566-.055-.848-.156-.281-.101-.5-.329-.783-.411-.081-.023-.153-.008-.225.006-.082-.187-.257-.337-.513-.337-1.095.004-2.125-.274-3.226-.202-.655.043-1.299.083-1.942.137-.294-.136-.587-.077-.839.093-.22.026-.437.038-.657.073-.077.012-.12.059-.146.113-.197-.001-.389.077-.479.269-.213.452-.464 1.564-.055 2.062-.281.29-.426.662-.481 1.063v.02.02.09c-.069.33-.06.71-.02 1.04v.03.02.02.02c.02.21.05.41.08.59.03.26.24.43.47.49-.439.78-.62 1.57-.649 2.5-.04 1.49.649 2.75.79 4.18.029.35.269.53.539.55.33.02.681-.21.671-.64 0-.27 0-.53.01-.8.019-.93.109-1.85.31-2.74.08-.08.16-.17.21-.3.33-.84.891-1.54 1.431-2.26.069.02.14.03.22.04.29.05.54-.03.729-.17.051-.04.091-.08.131-.12.239-.29.319-.7.18-1.03.34-.14.66-.3.95-.5.029.07.08.15.13.22.01 0 .01.01.02.01-.12.59-.14 1.24-.16 1.81-.029.51.011.97.131 1.45-.061.32-.12.69-.141 1.09v.01c-.1 1.08-.04 2.34.38 3.22.16.35.391.65.681.84.159.36.359.67.64.9.21.37.4.74.61 1.11-.011.04-.03.09-.04.13-.011.04-.021.08-.03.11v.01c-.07.38.12.64.4.76.17.07.369.1.559.07.16-.03.33-.09.46-.2.32-.15.51-.51.46-.89.12-.26.25-.52.4-.77.33-.6.72-1.18 1.029-1.78.271.03.54 0 .761-.12-.091.57-.12 1.18-.11 1.82-.01.05-.03.1-.04.16-.28 2.45.17 4.68.93 7.01.011.04.03.08.051.12.229.51.77.76 1.26.72.04 0 .08 0 .12-.01.08.06.159.12.25.18.659.35 1.3.64 1.979.9.23.22.48.43.73.63 0 .03-.011.06 0 .09l.109.07h.011l1.399.81.03.02.05.03.39.23.24.13.72.42h.011l.12.07.27.16.13.07.101.06.09.05.04.03.66.38.02.01.18.11.341.19.059.04.83.48h.01l.03.02 1.37.79.019.01.01.01 1.4.81.01.01.33.19.03.01.85.49.2.12.021.01 1.14.66.06.03.2-.12h.01l.271-.16.189-.11.131-.08h.01l.56-.32.25-.14.021-.02 1.41-.81h.01l.609-.35.79-.46.021-.01 1.32-.76.09-.05.01-.01.83-.48.35-.2.23-.13.2-.12.01-.01.28-.16.26-.15.8-.46.24-.14.09-.05.36-.21 1.42-.82.38-.22.04-.02.17-.1 1-.58.25-.14.019-.02s.011 0 .011-.01l.029-.01.05-.03.051-.03.76-.44.29-.17.53-.31c0 .01 0 .01.01 0l.5-.29.059-.03.63-.36.841-.48.239-.15.051-.03c.13-.17.26-.34.39-.52.2 0 .39-.05.58-.15.03.03.05.06.08.07.038.037.081.067.123.099.386-.232.771-.464 1.162-.687.021-.018.034-.039.058-.055.373-.26.766-.452 1.182-.623.067-.104.139-.21.205-.314.83-1.28 1.66-2.54 2.61-3.74.769-.96 1.49-1.5 2-2.43.05-.03.11-.03.17-.08.16-.12.33-.24.5-.37.533-.381.323-1.391-.328-1.53zm-11.83-10.5c-.05.14-.1.29-.149.43-.101-.01-.211-.01-.33.04-.011.01-.03.01-.04.02-.19-.27-.42-.51-.69-.71.4.039.81.109 1.209.22z" fill="#c17c4d"/><path d="m23.668 82.609c.01.01.01.01 0 .02.01.01.01.01 0 .02 0 .58-.03 1.17-.07 1.75 0 .02 0 .04-.01.06.01.01.01.01 0 .02.01.01.01.01 0 .02 0 .07 0 .13-.011.2-.119 1.57-.109 3.32-.489 4.91.01.01.01.01 0 .02-.07.31-.15.61-.261.91.051 1.37.091 2.75.11 4.13v.16c.021.91.03 1.81.021 2.72v.05c0 .38 0 .76-.011 1.14l-.729-.42c-.01-.01-.01-.01-.021-.01l-1.859-1.08-1.021-.59-2.109-1.23-.091-.05-.199-.12s-.011 0-.021-.01l-.28-.16-.529-.3-.82-.48-.06-.04h-.011s0 0-.01 0l-.49-.29-.699-.4-.681-.39-1.22-.71-.1-.06h-.011l-.33-.19-.409-.24h-.011l-.43-.25-.99-.57-.08-.04-.029-.02v-16.83c.489-1.35.97-2.63 1.29-3.73.05-.18.159-.31.29-.39.069-.25.14-.5.189-.76.04-.24.21-.4.43-.47.141-.61.271-1.22.391-1.84l.01-.01c.019-.1.04-.2.06-.3.04-.21.15-.37.29-.46.261-.18.61-.16.851.05.12.1.21.25.25.44.41 2.21-.03 4.35-.391 6.54-.02.15-.05.3-.06.46 0 0-.01.01 0 .02-.09.6-.15 1.21-.2 1.83.21 1.11.23 2.35.351 3.24.14 1.04.399 2.05.67 3.05 0 .02.01.03.01.05.36.54.729 1.07 1.12 1.6 1.21 1.64 2.519 3.24 3.609 4.9.511-3.65 2.25-7.38 3.45-10.54.12-.31.54-.28.641-.05.09.04.159.1.18.19v.01c.12.39.21.79.29 1.18v.03c.2 1.09.259 2.2.24 3.31z" fill="#ff8e31"/><path d="m95.231 76.166c.139-.202.197-.46.066-.74-.191-.411-.559-.634-.951-.827-.137-.067-.267-.077-.384-.056-.673-.578-1.54-.985-2.359-.658-.198.079-.313.276-.366.493.014-.619.022-1.236.03-1.85.026-.862-.884-1.117-1.421-.736-.124-.008-.246.019-.361.062-.154-.136-.353-.23-.571-.269-.549-.097-1.08-.068-1.634-.023-.174.014-.34.018-.506.019-.438-.111-.874-.24-1.313-.379-.46-.146-1.184-.287-1.666-.059-.568-.122-1.131-.125-1.295.474-.349 1.276 1.658 1.557 3.48 1.629-.092.12-.168.259-.195.439-.011.069-.019.139-.028.208-.174-.029-.348-.008-.51.063-.26-.817-1.515-.906-1.685.109-.036.217-.075.443-.113.671-.079-.558-.158-1.112-.256-1.654-.063-.348-.566-.295-.65.008-.605 2.179-.381 4.673.471 6.806-.013.048-.041.081-.048.134-.357 2.598 3.968 2.36 5.53 2.125 1.346-.203 1.979-1.021 2.248-2.313.563.284 1.356.359 1.841.372 1.257.032 2.569-.521 2.936-1.833.23-.824.064-1.54-.29-2.215zm-2.636 1.322c-.36.319-.78.488-1.203.68-.119-.047-.241-.094-.378-.134.119-1.069.175-2.149.206-3.227.052.291.223.516.513.424.564-.18 1.279.466 1.746 1.156-.353.264-.547.802-.884 1.101z" fill="#c6b854"/><path d="m100.637 91.117c-.014.002-.025.006-.04.008-.037-.034-.088-.056-.154-.054-.021-.113-.09-.214-.23-.269-1.131-.438-2.297-.124-3.466.032-1.669.223-3.883-.014-5.422-.697-.537-.238-.828.588-.4.892.046.033.096.058.143.089-.006.037-.015.072-.013.112.048.853.252 1.717.187 2.57-.065.846-.471 1.659-.884 2.385-.042.074-.062.15-.067.226-.027.018-.054.035-.08.053.002-.012.006-.023.008-.035.019-.13 0-.24-.03-.34.36-1.78.33-3.68.04-5.41-.043-.243-.391-.313-.563-.154-.06-.075-.133-.144-.236-.194-.424-.208-.797-.215-1.263-.186-.174.011-.35.043-.521.068-.27.039-.536-.108-.387.129-.005.003-.009.006-.014.009-.033-.057-.052-.118-.092-.172-.479-.658-1.646.092-1.207.782.038.06.078.105.117.156-.004.003-.008.005-.012.008.268.355.035 1.293-.008 1.712-.082.784-.43 1.448-.316 2.256.073.526.747.806 1.158.45.593-.513.679-1.192.815-1.861.06-.029.117-.065.172-.113.537-.464.647-1.606 1.379-1.858.011-.004.02-.012.03-.016-.019.138-.043.309-.083.545-.25 1.52-1.189 2.58-2.189 3.68-1.33 1.47-3.16 2.34-4.78 3.45-1.42.98-4.86 3.26-4.32 5.42l-.725.507 1.475-.938.04-.02.021-.02.08-.04c.088-.078.154-.138.212-.191 0 .027-.006.054-.002.082l.27-.16.4-.23v-.01l.16-.09.029-.01.29-.17.101-.06.02-.01.04-.02.04-.03.12-.07.08-.05 1.18-.67.87-.52 1.12-.65.42-.24h.01l.011-.01.01-.01.45-.26 1.16-.67.069-.04.04-.03 1.04-.59.01-.01.141-.08c.06-.06.109-.13.17-.19v.09l.51-.29 1.571-.904c.006-.002.012.001.017-.001 1.342-.668 2.489-1.373 3.685-2.206 2.458-1.351 5.038-2.768 7.358-4.341.085.013.171.019.269.012.339-.024.31-.564-.034-.533z" fill="#fff92e"/><g fill="#ffd72e"><path d="m58.051 57.059c-.089-.182-.191-.362-.35-.531-.581-.619-1.22-.991-1.98-1.352-.756-.358-2.436-.998-3.148-.315-.117.112-.006.282.118.316.334.093.676.077 1.018.153.723.163 1.341.704 1.938 1.125.492.346.885.77 1.305 1.194.392.398.896.685 1.306 1.087.23.226.669.148.688-.223.036-.672-.149-1.429-.895-1.454z"/><path d="m66.29 65.926c-1.455-.39-2.983.112-4.428.358-1.479.252-3.585.732-4.432 2.075-.097.152.006.357.197.335 1.293-.149 2.463-.872 3.783-1.088 1.499-.246 3-.616 4.498-.228.936.241 1.317-1.201.382-1.452z"/><path d="m60.298 77.781c-.378-1.758-.239-3.29-.297-5.063-.005-.175-.241-.235-.345-.107-1.284 1.569-.82 3.554-.639 5.455.17 1.765.863 4.166.066 5.799-.51 1.046-1.587 1.713-2.066 2.836-.079.186.056.408.268.39 2.423-.207 3.714-2.014 4.094-4.272.278-1.642-.753-3.512-1.081-5.038z"/><path d="m67.444 88.488c-.354-.303-.805-.391-1.259-.385-.544.007-1.366.176-1.952.542-.08-.286-.191-.566-.273-.822-.162-.504-.105-1.004-.328-1.508-.332-.755-1.187-1.91-2.129-1.339-.182.11-.229.397-.059.541.296.25.648.377.863.715.242.379.299.83.496 1.226.454.91-.278 1.924.504 2.703.185.185.481.124.671-.026.545.099 1.345-.316 1.887-.422.167-.033.342-.053.473-.043.022.001.058.012.083.018.049.086.118.351.165.452.162.343.711.354.938.086.419-.497.449-1.286-.08-1.738z"/><path d="m60.755 90.881c-.162-.222-.554-.258-.718-.014-.254.377-.208.744-.595 1.04-.364.278-.878.363-1.296.55-.386.173-.867.259-1.283.238-.005 0-.008-.001-.013-.001 1.041-2.321.013-4.852-2.375-5.965-1.17-.545-2.35-.444-3.547-.252.117-.324.029-.695-.4-.819-1.932-.56-3.008-1.44-4.16-3.1-1.021-1.47-1.081-2.927-1.05-4.67.006-.34-.502-.453-.646-.149-1.489 3.127.934 7.926 4.259 9.041-1.026.104-2.069.061-3.135-.47-3.799-1.891-3.767-5.936-3.91-9.694-.013-.329-.549-.329-.573-.003-.301 3.964-1.234 8.381 2.833 10.771 1.234.725 2.767 1.394 4.233 1.269 3.518-.298 9.109-1.135 7.022 4.356-.205.54.457.918.859.634.017.01.033.023.051.031.274.116.546.159.842.172.637.028 1.206-.214 1.777-.454.842-.353 2.657-1.366 1.825-2.511z"/><path d="m46.174 59.246c-.547-.169-1.021-.09-1.355.396-.193.281-.073.682.168.892-.278.564-.563 1.121-.737 1.735-.186.655-.469 1.362-.018 1.956.07.092.204.042.258-.033.132-.182.2-.33.251-.552.131-.574.355-1.038.703-1.515.437-.6.836-1.239 1.165-1.904.2-.407-.012-.845-.435-.975z"/><path d="m58.422 70.385c-.034.396-.286.685-.563.944-.145.136-.338.219-.495.341-.099.077-.271.266-.333.303-.067.04-.058.142-.004.186.193.159.107.17.355.284.169.077.384.062.56.035.35-.054.662-.277.928-.497.473-.391.685-1.041.739-1.626.071-.759-1.122-.725-1.187.03z"/></g><path d="m24.344 63.542c-.105-1.158-.23-2.315-.451-3.458-.16-.836-1.291-.737-1.429.054-.011.062-.011.122-.018.183-.055.052-.107.11-.15.188-.647 1.151-.455 2.788-.113 4.012.09.323.238.521.411.627.081.532.177 1.061.282 1.583.064.318.438.571.755.542.165-.015.22-.038.372-.112.23-.111.38-.427.362-.674-.069-.988.07-1.957-.021-2.945z" fill="#f1e578"/><path d="m55.766 11.466-46.07 26.56v53.12l1.67.961.63.37h.011l18.81 10.84 1.04.6 2.18 1.26.49.28.439.26.36.21 3.13 1.8 3.311 1.91 1.289.74v.01l12.711 7.32 46.07-26.56v-53.12zm44.209 78.61-44.209 25.49-12.51-7.21-31.701-18.28v-50.97l44.211-25.49 44.209 25.49z" opacity=".13"/><path d="m58.39 66.963c-1.612-.033-2.586-.702-2.865-2.351-.219-1.297.041-2.782.803-3.87 1.096-1.565 3.445-1.918 4.867-.586 1.464 1.371 1.5 3.487.863 5.248-.115.318.4.538.55.232.957-1.965.611-4.572-1.065-6.056-1.552-1.374-3.949-1.102-5.338.389-1.854 1.989-1.909 8.746 2.234 7.361.199-.064.169-.362-.049-.367z"/><path d="m46.99 63.611c-1.048 1.888-.185 5.041 1.393 6.42 1.608 1.406 4.123.618 5.19-1.076 1.136-1.805.864-4.351-.469-5.969-1.718-2.086-4.894-1.745-6.142.684-.119.231.167.462.362.279 1.834-1.717 4.485-2.568 5.938.07.809 1.47.916 3.474-.051 4.903-1.391 2.057-4.032 1.892-5.305-.146-.988-1.582-.957-3.347-.77-5.125.008-.079-.111-.104-.146-.04z"/><path d="m49.133 63.685c-.837 1.035-1.123 3.075-.144 4.135.703.762 1.905.817 2.725.211 2.277-1.681-.577-6.585-2.829-3.98-1.233 1.427-1.014 3.836.788 4.679.498.233.9-.432.434-.742-.735-.488-1.215-1.093-1.126-2.021.058-.605.365-1.303.885-1.651 1.334-.896 2.32 1.482 1.953 2.53-.293.836-1.337 1.234-2.102.768-1.332-.811-.46-2.68-.363-3.838.008-.107-.152-.177-.221-.091z"/><path d="m48.702 66.168c-.538.242-.483 1.108-.278 1.553.238.515.782.811 1.328.888 1.144.162 2.883-.933 2.18-2.239-.04-.075-.17-.102-.227-.029-.518.658-.777 1.534-1.796 1.444-.32-.028-.653-.163-.838-.442-.231-.35-.041-.765-.198-1.13-.028-.067-.116-.07-.171-.045z"/><path d="m51.455 65.439c-.356-.166-.803-.346-1.183-.135-.569.316-.479 1.148-.436 1.68.039.49.572.716.946.392 1.154-1 .726-2.152-.188-3.137-.253-.273-.628-.148-.822.106-.863 1.128-.897 2.495.203 3.471.249.221.765.253.922-.119.24-.568.608-1.242.25-1.841-.276-.463-1.003-.968-1.57-.859-1.014.195-.76 1.643-.488 2.319.15.372.404.797.861.79.473-.007.85-.636 1.162-.932.409-.389.811-.81.9-1.391.131-.857-.468-1.573-1.036-2.136-.216.281-.433.561-.649.842.805.573 1.209 1.661.274 2.345-.229.168-.483.237-.587.129-.378-.393-.127-1.256-.125-1.729.002-.589-.795-.646-.982-.133-.288.791-.316 2.076.375 2.69.539.479 1.301.367 1.861-.012.619-.419 1.044-1.151 1.071-1.901.036-.991-.579-1.762-1.345-2.315-.503-.362-1.069.421-.649.842.563.565 1.008 1.089.391 1.739-.2.211-.43.39-.633.598-.076.078-.249.213-.28.321-.065.23.443.165.447-.013.003-.153-.165-.415-.197-.577-.025-.125.025-.468-.024-.543-.014-.022-.192.118-.195.108.038.128.435.165.484.331.023.077-.271.595-.331.735.307-.04.615-.079.922-.119-.727-.651-.594-1.331-.129-2.112-.274.035-.548.071-.822.106.239.204.653.509.668.851.013.298-.326.568-.523.762.309.081.617.163.926.244-.032-.22-.096-.525-.049-.752.035-.169-.092.059-.036.036.202-.082.409-.063.615-.176.182-.098.202-.411.001-.505z"/><path d="m55.755 69.723c2.795-2.871 6.011-3.697 9.886-3.887.391-.019.484-.576.093-.691-3.517-1.034-8.43 1.321-10.047 4.525-.021.043.032.089.068.053z"/><path d="m56.307 72.913c.015 0 .015-.023 0-.023-.015-.001-.015.023 0 .023z"/><path d="m56.276 72.889c.84.15 1.737-.163 2.452-.596.574-.347 1.568-1.175 1.283-1.937-.039-.105-.144-.153-.247-.1-.279.143-.371.355-.526.626-.203.355-.446.668-.75.942-.643.578-1.393.695-2.212.839-.112.02-.112.206 0 .226z"/><path d="m58.814 71.936c1.832 2.154 5.24 2.451 7.868 2.039 2.161-.339 5.322-1.785 5.031-4.408-.012-.104-.151-.164-.211-.057-2.409 4.289-8.57 4.887-12.484 2.162-.167-.115-.32.128-.204.264z"/><path d="m65.831 65.466c-1.707 1.235-1.183 3.409.374 4.452 1.685 1.128 4.312 1.483 5.966.129 4.304-3.523-4.9-8.069-6.745-4.16-.215.455.304.869.693.535.765-.656 1.259-.957 2.308-.933.774.018 1.584.19 2.303.482 1.785.724 2.532 2.436.663 3.659-1.238.81-3.056.536-4.308-.098-.613-.31-1.235-.776-1.551-1.404-.481-.957.034-1.657.456-2.501.049-.095-.056-.235-.159-.161z"/><path d="m66.59 66.934c-.482.307-1.183.855-.832 1.52.232.438.818.488 1.245.366.475-.135.922-.524.906-1.054-.024-.839-1.071-1.228-1.706-1.478-.253-.1-.635.111-.675.383-.172 1.163.397 3.038 1.927 2.061 1.56-.996.078-2.33-1.125-2.577-.45-.092-.745.258-.685.685.074.526.116 1.826.919 1.821.63-.004.762-.809.809-1.284.048-.482.082-1.239-.412-1.521-.747-.426-1.28.577-1.551 1.097-.181.347-.008.677.332.816.119.049.228.056.357.062-.16-.092-.32-.183-.48-.275.008.012.015.025.023.037.168.277.642.402.873.112.292-.366.492-1.005.466-1.475-.015-.276-.244-.589-.557-.557.067-.007.558.069.103-.001-.117-.018-.217-.073-.344-.079-.246-.013-.47.183-.537.409-.436 1.471-.037 1.856 1.305 2.396.425.171.769-.316.688-.688-.127-.581-.272-1.067-.555-1.593-.221-.411-.926-.338-1.025.134-.186.887-.435 2.219.362 2.907.562.485 1.395.352 1.992.007.503-.291 1.072-.882.73-1.503-.458-.83-1.812-.318-2.457-.103-.467.155-.564.662-.271 1.025 1.005 1.241 2.539 1.598 4.059 1.257.586-.131.616-1.105 0-1.215-1.078-.192-1.959-.089-3.017.136-.443.094-.523.764-.127.972 1.862.978 4.494.952 4.898-1.588.121-.758-.963-1.1-1.178-.325-.046.165-.195 1.257-.36 1.345.188.322.377.645.565.967 1.378-1.049 1.903-2.39.371-3.595-.476-.374-1.252.09-.895.691.324.546.619 1.106.917 1.666.292.548.999.224 1.059-.287.285-2.407-2.248-3.283-4.235-3.215-.644.022-.836.829-.319 1.177.823.553 1.602 1.164 2.46 1.663.161-.382.322-.764.483-1.146-.636-.146-1.284-.219-1.922-.359-.655-.143-1.094.761-.47 1.114.766.433 1.493.919 2.292 1.292.205-.351.411-.702.616-1.054-1.169-.494-2.329-.836-3.6-.923v1.234c.577.01 1.137-.064 1.709-.128.699-.079.82-.942.163-1.205-.863-.346-1.607-.884-2.501-1.161.149.195.298.391.446.586 0-.069 0-.139 0-.208-.1.175-.201.35-.301.525.294-.205.631-.356.915-.575.486-.374.24-1.376-.467-1.107-.028.01-.055.021-.083.031-.721.274-.411 1.443.322 1.168.028-.01.055-.021.083-.031-.156-.369-.311-.738-.467-1.107-.547.418-1.217.512-1.218 1.304-.001.275.191.506.446.586.883.278 1.643.825 2.499 1.172.054-.402.109-.803.163-1.205-.573.062-1.132.134-1.709.122-.8-.017-.785 1.18 0 1.234 1.109.076 2.111.38 3.13.805.633.264 1.097-.826.47-1.115-.799-.37-1.536-.843-2.292-1.292-.157.371-.313.743-.47 1.114.634.15 1.28.234 1.912.391.688.171 1.096-.772.483-1.146-.848-.517-1.594-1.175-2.456-1.67-.106.392-.212.784-.319 1.177 1.383-.144 3.313.161 3.097 1.952.353-.096.706-.191 1.06-.287-.297-.561-.591-1.121-.915-1.668-.26.26-.52.52-.78.78.604.824.522 1.401-.245 1.733-.604.407-.086 1.269.565.967.618-.287.778-1.41.972-1.988-.393-.108-.785-.217-1.178-.325-.335 1.557-1.972 1.695-3.184.995-.042.324-.085.648-.127.972.796-.136 1.609-.091 2.399.053 0-.405 0-.81 0-1.215-1.153.301-2.12.029-2.857-.91-.09.342-.18.683-.271 1.025.252-.077.713-.106.931-.243.094-.016.189-.024.285-.023.223.009.144-.169-.239-.535-.018-.006-.221.216-.345.232-.173.023-.331.172-.504.054-.373-.257-.064-1.374-.001-1.677-.342.045-.683.089-1.025.134.234.432.34.848.445 1.324.229-.229.459-.459.688-.688-.677-.27-.735-.321-.529-1.021-.179.136-.358.273-.537.409-.416-.021.094.095.242.08-.186-.186-.371-.371-.557-.557.007.121-.059.589-.138.689.291.037.582.075.873.112-.153-.251-.322-.235-.564-.334.111.272.221.544.332.816.043-.082.359-.517.345-.599-.023-.132-.192-.482-.441-.216-.014.015.008.568.012.623.008.098-.126.392-.095.439.61.222.849.21.718-.037-.012-.041-.024-.081-.036-.122.06-.192-.115-.702-.134-.911-.235.179-.47.358-.705.537.237.061.793.139.912.411.013.03-.093.097-.091.121.003.023-.168.09-.199.08-.201-.069-.082-.79-.07-.878-.225.128-.45.256-.675.383.134.051.867.277.925.503-.03-.115-.174-.151-.165-.037-.026-.346-.609.846.004.269.159-.149.265-.487.389-.671.203-.286-.181-.656-.467-.473z"/><path d="m66.284 66.955c-.416.059-.705.046-.903.494-.16.364-.07.728.106 1.067.308.595 1.263.041.899-.526-.112-.174-.119-.44.087-.585.238-.167.085-.489-.189-.45z"/><path d="m59.239 66.529c-.473-1.257-.888-2.375-.395-3.72.224-.61.658-1.195 1.223-1.534.615-.369 1.238-.189 1.866-.406.268-.093.293-.411.075-.571-1.392-1.022-3.207.675-3.691 1.899-.537 1.36-.579 3.495.681 4.473.098.077.298.011.241-.141z"/><path d="m61.17 61.871c-.299-.364-.384-.578-.854-.706-.232-.063-.436.047-.568.231-.72 1.008-.956 2.2-.81 3.42.057.475.6.789.986.408.475-.469 1.428-1.378 1.195-2.161-.179-.599-.863-.636-1.372-.511-1.754.43-1.837 2.206-.491 3.196.407.299 1.061-.202.878-.675-.163-.421-.386-.814-.55-1.236-.224-.579-1.015-.484-1.073.145-.087.943.14 1.485.673 2.25.138.198.401.355.652.265.41-.147.8-.328 1.195-.507.308-.139.879-.273 1.115-.544.343-.394.307-1.3.308-1.773.003-.726-.124-1.434-.35-2.122-.319.135-.638.269-.958.404.478.902.392 1.754.198 2.71.37.05.74.1 1.11.15.14-1.48.079-2.868-.706-4.175-.183-.305-.717-.361-.885 0-.207.445-.54 1.013-.578 1.509-.024.321.087.721.135 1.04.038.255.312.822.295 1.002-.081.852 1.316.875 1.346 0 .026-.746-.239-1.467-.361-2.196-.068-.405-.551-.489-.856-.348-.95.439-1.481 1.312-1.849 2.254-.077.196.012.469.161.608.419.391.865.762 1.364 1.046.307.175.745.023.831-.338.157-.661.267-1.344.257-2.025-.006-.384-.375-.678-.752-.573-.619.172-1.275.133-1.882.349.262.199.524.399.786.598-.03-.984.573-1.477 1.415-1.844.582-.254.163-1.267-.436-1.035-1.31.507-2.223 1.412-2.22 2.88.001.388.398.724.786.598.611-.198 1.263-.184 1.868-.401-.251-.191-.501-.382-.752-.573.041.574-.023 1.166-.159 1.725.277-.113.554-.225.831-.338-.376-.277-.72-.625-1.052-.954.033.252.065.505.098.757.31-.728.628-1.272 1.296-1.728-.285-.116-.571-.232-.856-.348.171.627.145 1.244.139 1.887h1.346c-.052-.546-.519-1.019-.649-1.574-.125-.537.113-.966.336-1.459-.295 0-.59 0-.885 0 .654 1.062.77 2.303.481 3.507-.171.712.858.987 1.09.301.382-1.131.262-2.48-.384-3.54-.301-.493-1.144-.178-.958.404.201.628.598 2.445.169 2.883-.341.349-1.275.511-1.734.671.217.088.434.177.652.265-.42-.602-.649-.9-.577-1.667-.358.048-.715.097-1.073.145.146.423.304.841.45 1.264l.999-.582c-.63-.499-.803-.828-.069-1.266.077-.046.194-.041.263-.09.198-.139-.125.083-.002-.158-.187.367-.688.791-1.064 1.112.329.136.657.272.986.408-.134-1.024.033-2.001.524-2.913-.145.083-.29.166-.434.249.242-.016.37.13.58.245.347.194.641-.238.405-.526z"/><path d="m49.675 63.652c-.887-.31-1.534 1.533-1.58 2.146-.07.934.204 1.895.868 2.572.557.569 1.386.874 2.144.525.935-.431 1.643-1.802 1.207-2.768-.123-.271-.549-.243-.68 0-.286.53-.353 1.701-1.127 1.827-.481.079-.888-.425-1.091-.791-.347-.626-.415-1.291-.207-1.978.069-.233.864-1.394.466-1.533z"/><path d="m43.955 63.888c.129-.802.261-1.622.461-2.409.202-.794.627-1.526.785-2.319.036-.18-.178-.33-.32-.186-1.124 1.135-1.266 3.392-1.141 4.885.009.114.194.16.215.029z"/><path d="m39.93 75.47c-6.984-2.673 1.278-10.795 4.13-13.359.25-.224-.076-.649-.36-.466-3.167 2.035-5.974 5.424-6.808 9.17-.503 2.26.131 5.146 3 4.94.166-.013.19-.227.038-.285z"/><path d="m43.881 64.067c.217 3.819 1.734 12.961-5.281 10.804-.167-.051-.248.153-.156.268 1.833 2.298 5.047.074 5.871-2.068 1.06-2.756.617-6.275-.251-9.029-.03-.096-.19-.084-.183.025z"/><path d="m40.774 75.619c-.72 3.339-.584 8.391 1.631 11.18 2.917 3.672 7.03 2.357 10.985 1.896.425-.05.429-.723 0-.672-4.006.478-8.377 1.697-10.914-2.567-1.889-3.175-.622-6.527-1.469-9.837-.029-.113-.208-.119-.233 0z"/><path d="m53.124 88.25c.336.352.804.537 1.133.905.406.455.627 1.055.761 1.641.239 1.044-.018 2.064.127 3.088.029.208.381.255.464.061.474-1.113.265-2.824-.141-3.939-.324-.89-1.211-2.144-2.308-1.893-.061.014-.077.095-.036.137z"/><path d="m55.3 93.826c.842.788 2.619.615 3.634.319 1.027-.299 1.96-1.098 2.298-2.134.241-.739.037-1.475-.753-1.72-.725-.225-2.289.038-2.659.829-.073.155.013.335.196.341.233.007.461-.142.667-.237.374-.173.719-.277 1.134-.317 1.024-.096 1.066.63.615 1.372-.471.776-1.261 1.19-2.134 1.354-.998.187-1.928-.11-2.906-.028-.105.009-.179.139-.092.221z"/><path d="m48.28 87.479c1.951-.396 3.918-1.038 5.924-1.04 1.247-.001 2.642.216 3.336 1.393.585.993.315 2.432.297 3.527-.006.397.578.386.609 0 .189-2.282.214-4.685-2.403-5.346-2.535-.64-5.441.439-7.874 1.059-.266.068-.153.461.111.407z"/><path d="m44.236 77.661c-1.203 3.68 1.419 7.878 4.679 9.441.322.154.603-.304.284-.486-1.573-.896-2.948-2.03-3.801-3.66-.88-1.681-.734-3.444-.932-5.263-.013-.129-.187-.164-.23-.032z"/><path d="m46.381 77.988c-.919 3.73 1.789 7.459 5.312 8.442.137.038.19-.138.09-.214-1.351-1.035-2.84-1.849-3.829-3.292-1.027-1.499-1.208-3.131-1.298-4.898-.007-.153-.236-.198-.275-.038z"/><path d="m46.633 78.13c.181-.614.409-1.658-.002-2.213-.052-.07-.185-.101-.229 0-.138.315-.075.594-.042.937.04.418.086.837.12 1.256.006.084.127.108.153.02z"/><path d="m46.746 77.962c.185-.28.416-.472.685-.663.148-.105.216-.137.25-.323.013-.071-.019-.136-.09-.159-.51-.162-.897.662-1.055 1.022-.061.141.122.256.21.123z"/><path d="m60.093 72.842c-1.113 4.848 3.952 11.383-2.284 14.259-.581.268-.074 1.094.497.85 6.845-2.92 1.514-9.871 2.216-14.991.038-.274-.363-.406-.429-.118z"/><path d="m59.807 86.432c.04 0 .04-.063 0-.063-.04.001-.04.063 0 .063z"/><path d="m59.699 86.557c.933.403 1.49 1.011 1.725 2.013.222.947-.119 1.827-.02 2.747.02.187.254.273.364.099.56-.886.401-2.487.064-3.435-.33-.928-1.055-1.622-2.065-1.671-.126-.007-.19.194-.068.247z"/><path d="m61.261 91.822c1.751 1.754 5.927.673 6.696-1.63.054-.161-.151-.244-.261-.152-.903.755-1.69 1.545-2.866 1.854-1.242.326-2.212-.025-3.391-.379-.176-.053-.305.179-.178.307z"/><path d="m61.149 85.313c.429.074.889-.02 1.277.216.365.223.582.63.73 1.016.312.811.374 1.708.459 2.564.04.4.669.408.633 0-.1-1.117-.18-2.374-.784-3.353-.484-.784-1.568-1.276-2.371-.652-.071.056-.031.194.056.209z"/><path d="m63.976 89.143c.415-.069.752-.423 1.165-.551.415-.129.861-.162 1.283-.044 1.03.287 1.054 1.127 1.301 1.971.031.106.179.128.236.031.594-1.022-.232-2.224-1.23-2.561-.823-.279-2.737-.129-2.957.953-.026.129.076.222.202.201z"/><path d="m40.748 56.982c.98 5.492 14.885 1.041 12.181-4.985-.072-.159-.276-.033-.257.108.481 3.523-2.694 5.106-5.529 6.042-2.194.725-4.94 1.211-6.124-1.28-.077-.162-.298-.039-.271.115z"/><path d="m41.057 56.9c1.633-1.551 3.963-.593 5.983-.9 1.801-.274 3.009-1.368 3.365-3.175.039-.199-.234-.34-.343-.144-1.525 2.733-3.368 2.563-6.144 2.675-1.149.046-2.501.267-3.045 1.402-.056.117.084.238.184.142z"/><path d="m50.099 53.174c.226-.001.273-.067.432-.222.239-.234.493-.454.812-.572.272-.101.561-.126.847-.093.318.037.59.197.909.173.153-.011.306-.19.196-.341-.42-.572-1.417-.582-2.046-.386-.474.147-1.524.714-1.293 1.332.023.062.074.11.143.109z"/><path d="m43.508 55.535c-.545-1.767-1.574-4.23.495-5.515.988-.613 2.355-.333 3.301.23 1.118.666 1.554 2.032 2.665 2.636.106.058.28-.012.265-.152-.157-1.399-1.726-2.824-2.944-3.386-1.144-.528-2.562-.69-3.671.013-1.967 1.248-2.06 4.837-.312 6.291.085.073.24.008.201-.117z"/><path d="m50.141 53.349c.043.076.051.093.113.146.03.025.076.031.105 0 .085-.092.084-.135.046-.257-.061-.201-.368-.073-.264.111z"/><path d="m43.045 55.022c1.126-.578 2.131-1.276 3.332-1.724.988-.369 2.085-.5 3.039-.932.285-.129.12-.543-.15-.553-1.173-.043-2.441.571-3.493 1.044-1.047.471-2.218 1.031-2.92 1.973-.091.122.079.25.192.192z"/><path d="m49.851 52.485c-.383.398-.722.831-1.124 1.209.215.166.43.332.645.497.224-.507.333-1.016.476-1.551.118-.441-.401-.681-.718-.418-.129.107-.235.222-.322.368-.18.301-.24.218.05.157-.319.067-.408.499-.189.715.012.012.025.024.037.037.216.212.651.136.715-.189-.075.381.14-.312.146-.493.009-.282-.277-.473-.536-.409-.904.225-1.414.51-2.063 1.191-.259.272-.1.882.342.826.431-.055.86-.108 1.292-.152-.04-.299-.081-.598-.121-.897-.549.208-1.066.474-1.61.694.143.34.287.681.43 1.021.625-.306 1.256-.598 1.875-.917-.188-.322-.376-.643-.564-.965-1.207.697-2.435 1.088-3.831.879-.846-.126-.897.018-1.644.538-.389.271-.283.965.257.949 1.636-.049 3.236-.317 3.981-1.943.188-.411-.201-.859-.631-.631-.74.393-1.525.621-2.314.886.125.297.25.594.376.891.55-.258 1.121-.459 1.701-.637-.138-.236-.275-.473-.413-.709-.497.388-.986.734-1.519 1.065-.412.256-.214.826.235.866.163.026.327.037.491.033 0-.317 0-.634 0-.95-.22.003-.388.083-.576.187-.609.338.016 1.248.606.785-.01-.007-.02-.015-.029-.022.607-.035.614-.976 0-.95-.164.011-.327.007-.491-.012.078.289.156.578.235.866.577-.393 1.117-.816 1.649-1.268.337-.286-.026-.809-.413-.709-.682.176-1.321.325-1.967.613-.501.223-.144 1.078.376.891.868-.312 1.711-.582 2.52-1.031-.21-.21-.421-.421-.631-.631-.614 1.31-1.889 1.403-3.185 1.39.086.316.171.633.257.949.558-.357.62-.329 1.272-.252.499.059.98.047 1.477-.025 1.003-.145 1.908-.548 2.777-1.055.624-.365.073-1.294-.564-.965-.618.319-1.25.612-1.875.917-.649.317-.081 1.267.564.965.54-.253 1.04-.543 1.531-.88.337-.231.26-.896-.23-.851-.431.04-.861.069-1.292.098.114.275.228.551.342.826.518-.488.905-.851 1.605-1.059-.179-.136-.358-.272-.536-.409.005-.095-.094.132-.123.266.238-.063.476-.126.715-.189-.012-.012-.024-.025-.037-.037-.063.238-.126.477-.189.715.016-.003.031-.006.047-.009.149-.029.254-.164.299-.299.057-.177.159-.322.307-.435-.239-.139-.479-.279-.718-.418-.132.494-.208.986-.397 1.464-.156.394.416.674.686.399.461-.47.718-.942.936-1.561.072-.221-.242-.387-.398-.225z"/><path d="m47.534 52.619c-.249-.055-.388.018-.572.184-.528.475.47 1.177.733.565.022-.057.047-.113.076-.167.109-.216.027-.524-.237-.582z"/><path d="m52.857 54.529c.568.253 1.168.225 1.775.359.753.166 1.48.457 2.129.875.741.477 1.31 1.069 1.772 1.814.336.543.513 1.144.92 1.637.151.183.454.028.453-.188-.003-2.645-4.575-5.801-7.05-4.753-.097.041-.095.213.001.256z"/><path d="m40.034 91.4c5.058.687 10.297.899 15.398 1.115.523.022.522-.79 0-.813-5.126-.217-10.24-.858-15.375-.471-.089.007-.125.155-.023.169z"/><path d="m40.073 91.484c-.141-1.086-.508-2.002-.087-3.101.22-.573.615-1.087 1.128-1.426.43-.284.924-.34 1.279-.721.091-.097.055-.264-.079-.3-1.12-.301-2.356 1.106-2.771 2.023-.486 1.076-.512 2.688.29 3.624.074.087.256.021.24-.099z"/><path d="m40.386 87.015c-2.414-3.319-2.865-7.612-1.55-11.556.153-.459-.571-.656-.723-.199-1.094 3.283-1.524 9.967 2.017 12.012.152.087.371-.099.256-.257z"/><path d="m35.213 87.286c1.159 1.063 3.22 1.44 4.601.62.322-.191.106-.782-.265-.628-.743.307-1.452.44-2.252.304-.668-.114-1.289-.395-1.955-.517-.12-.023-.234.124-.129.221z"/><path d="m35.719 87.322c-1.42-4.408-1.566-8.531-.788-13.057.093-.543-.641-.755-.829-.228-.682 1.909-.5 4.447-.398 6.44.122 2.395.53 4.778 1.442 7.003.141.343.693.215.573-.158z"/><path d="m34.369 74.217c.323.15.623-.039.947-.128.48-.131.987-.21 1.483-.243.51-.034.494-.846 0-.787-.546.066-1.058.175-1.571.377-.337.133-.822.245-.916.639-.012.051.007.119.057.142z"/><path d="m42.669 91.495c-1.256 4.492-.242 9.986.128 14.573.035.435.708.446.688 0-.227-4.869-.333-9.634-.278-14.5.002-.31-.455-.37-.538-.073z"/><path d="m42.951 106.25c.29.217 1.759.326 1.684-.307-.026-.215-.273-.273-.454-.269-.369.008-.898.028-1.229.212-.152.083-.122.273-.001.364z"/><path d="m45.551 92.103c-1.02 4.547-.659 9.224-.537 13.839.011.431.67.433.671 0 0-.01 0-.021 0-.031.002-.432-.67-.433-.672 0v.031c-.002.432.673.433.672 0 0-.01 0-.021 0-.031-.002-.432-.673-.433-.672 0v.031h.671c-.156-4.619-.312-9.192.219-13.791.024-.202-.308-.244-.352-.048z"/><path d="m50.968 92.092c-.546 3.991.299 8.543.841 12.526.052.38.725.293.675-.091-.533-4.12-.448-8.355-1.087-12.434-.033-.212-.4-.216-.429-.001z"/><path d="m52.054 104.924c.365.17.856.306 1.189.037.092-.074.063-.209 0-.287-.278-.345-.835-.21-1.189-.046-.113.052-.113.244 0 .296z"/><path d="m53.545 104.943c.281-.781.368-1.644.596-2.446.162-.569.574-1.223.33-1.793-.031-.072-.132-.082-.192-.05-.604.322-.672 1.345-.813 1.96-.171.743-.371 1.57-.229 2.329.03.169.259.135.308 0z"/><path d="m54.27 92.409c-.696 4.648-.558 9.928.801 14.444.107.355.653.208.557-.154-1.248-4.722-.439-9.526-1.117-14.29-.017-.12-.223-.119-.241 0z"/><path d="m55.173 107.101c.445.292 1.107.16 1.595.038.138-.034.237-.173.238-.312 0-.067-.006-.108-.044-.164-.084-.123-.218-.185-.366-.149-.465.113-.994.057-1.422.27-.132.065-.109.246-.001.317z"/><path d="m56.951 107.012c1.02-4.118.727-8.611 1.204-12.82.05-.444-.645-.44-.695 0-.482 4.182-.908 8.586-.716 12.792.005.115.177.148.207.028z"/><path d="m58.016 95.038c.483.011.966.028 1.449.013.324-.01.611.053.781-.255.02-.036.025-.087 0-.122-.204-.287-.449-.206-.781-.198-.483.012-.966.028-1.449.04-.336.006-.337.514 0 .522z"/><path d="m60.168 94.79c-.446 1.701-.165 3.57-.088 5.313.078 1.757.092 3.594.482 5.311.057.251.388.163.414-.056.22-1.85-.077-3.803-.215-5.66-.122-1.628.006-3.327-.398-4.908-.024-.097-.169-.096-.195 0z"/><path d="m60.578 105.381c.317.278.657.355 1.072.416.431.063.62-.019 1.014-.15.079-.026.077-.131 0-.158-.153-.055-.284-.163-.434-.212-.156-.05-.341-.042-.502-.055-.388-.031-.727-.08-1.11.009-.064.015-.091.106-.04.15z"/><path d="m63.008 92.151c-.391 4.563-.384 9.137-.515 13.708-.013.457.724.458.711 0-.13-4.565.349-9.134.069-13.708-.009-.172-.25-.17-.265 0z"/><path d="m60.875 101.817c.958-2.608 1.438-5.531 2.211-8.215.104-.36-.44-.504-.557-.154-.848 2.543-2.046 5.613-1.961 8.327.006.183.247.205.307.042z"/><path d="m54.353 93.355c.322.299.733.638 1.137.311.051-.042.072-.133.051-.194-.156-.462-.653-.404-1.067-.411-.145-.002-.231.193-.121.294z"/><path d="m55.335 93.734c.025-.425-.031-.862-.139-1.274-.245.103-.491.207-.736.31.161.252.306.279.56.396.465.215.868-.432.409-.7-.26-.152-.778-.22-1.063-.128-.317.103-.369.44-.18.683.133.171.03.381.201.546.127.123.323.145.476.055.472-.279.136-.881-.099-1.179-.06.228-.12.455-.18.683.096-.032.218.017.313.031.073.01.278.097.124.009.136-.233.273-.466.409-.7-.042-.019-.256-.076-.274-.104-.235-.36-.912-.136-.736.31.149.379.31.727.371 1.133.047.327.526.223.544-.071z"/><path d="m51.216 92.526c-.363 3.838.573 7.801.853 11.625.017.234.143.39.358.471.045.025.089.05.134.075.342.213.697-.074.734-.421.24-2.25.502-4.44.391-6.709-.303.041-.605.082-.908.123.21 1.109.3 2.137.352 3.252.028.602.915.605.937 0 .1-2.75-.011-5.5.125-8.25-.34 0-.68 0-1.02 0 .051 1.438-.136 2.856-.199 4.292-.024.556.875.693.984.133.413-2.12.941-4.656-1.749-5.263-.05.372-.101.743-.151 1.115.209.011.418.002.625-.029-.051-.38-.103-.76-.154-1.14-.169.032-.335.076-.498.132-.238.073-.426.296-.421.553.036 1.745.245 3.37.656 5.066.15.619 1.107.482 1.104-.149-.007-1.51.093-2.978-.12-4.478-.093-.654-1.011-.413-1.069.145-.218 2.072-.237 4.093-.034 6.167.072.731 1.219.746 1.156 0-.174-2.069-.245-4.098-.034-6.167-.356.048-.713.096-1.069.145.204 1.403.114 2.783.046 4.189.368-.05.736-.1 1.104-.149-.206-.843-1.013-4.227-.513-4.333.747-.159.409-1.219-.309-1.119-.157.011-.314.023-.471.034-.606.023-.811 1.007-.151 1.115 2.062.335 1.362 2.475 1.085 3.903.328.044.656.089.984.133.102-1.436.273-2.851.217-4.292-.025-.657-.99-.656-1.02 0-.126 2.748-.027 5.5-.041 8.25h.937c-.06-1.184-.173-2.336-.398-3.498-.099-.51-.935-.396-.908.123.117 2.214-.031 4.395-.425 6.579.239-.097.478-.194.717-.292-.445-.28-.473-4.374-.566-5.171-.242-2.073-.424-4.167-.765-6.226-.05-.31-.48-.202-.506.066z"/><path d="m52.089 98.849c-1.058.975-.46 2.719.41 3.569.28.274.725.064.745-.308.044-.821.14-1.634.136-2.458-.003-.636-.935-.623-.979 0-.025.345-.046.727.038 1.067.046.186.309.445.312.453-.03-.071-.028.279.005.371.06.167.183.314.338.4.427.237.91-.238.668-.668-.049-.088-.119-.172-.195-.238-.043-.037-.097-.091-.152-.11-.282-.099.085-.004-.074.138.247-.219.037-1.134.039-1.413-.321.043-.641.087-.962.13.123.761.005 1.564-.047 2.328.248-.103.497-.206.745-.308-.752-.811-.475-1.898-.707-2.867-.035-.148-.218-.18-.32-.086z"/><path d="m58.454 94.748c.651.127 1.228.156 1.895.13.626-.024.602-.892 0-.955-.666-.07-1.332-.139-2-.189v1c1.558-.128 2.822-.861 3.295-2.414-.154.117-.308.235-.462.352 1.436.182.582 2.372.345 3.211-.298 1.056-.513 2.251-.936 3.257.231.031.462.063.694.094-.06-1.612-.037-3.417-.366-4.998-.297.082-.594.164-.891.246.092.408.197.812.294 1.219.141.592.928.394.987-.134.071-.635.183-1.265.272-1.897-.356-.048-.713-.096-1.069-.145.062.563.114 1.068.328 1.598.226.56.967.465 1.036-.14.079-.693.162-1.387.199-2.083-.322.087-.644.174-.966.262.128.166.231.331.379.481.13.132.335.189.514.136.038-.011.075-.022.113-.034.234-.07.377-.273.39-.512.015-.28.005-.565-.154-.803-.199-.297-.583-.356-.851-.11-.04.037-.08.074-.12.11-.325.298-.122.778.241.911-.019-.004-.038-.008-.057-.011.294.486 1.186.166.957-.403-.117-.291-.185-.454-.48-.582.037.285.074.571.11.856.038-.038.077-.077.115-.115-.284-.037-.567-.073-.851-.11.024.084.033.169.028.256.13-.171.26-.341.39-.512.255-.087.28.038.091-.188-.3-.359-.88-.053-.885.367-.008.659-.095 1.292-.198 1.943.345.047.691.093 1.036.14-.016-.571-.149-1.048-.295-1.603-.16-.609-1.041-.458-1.069.145-.031.684-.151 1.359-.208 2.041.329-.045.658-.089.987-.134-.117-.402-.251-.797-.372-1.198-.172-.567-1.054-.329-.891.246.426 1.501.363 3.203.55 4.752.043.354.625.525.694.094.266-1.66 1.365-3.1 1.479-4.849.077-1.182-.149-2.428-1.443-2.748-.184-.046-.459.025-.541.22-.466 1.098-1.189 1.682-2.419 1.783-.641.053-.645.951 0 1 .667.051 1.332.114 2 .145 0-.318 0-.637 0-.955-.674.065-1.253.149-1.895.38-.195.073-.242.4 0 .447z"/><path d="m62.224 92.941c.129.007.257.023.384.048-.102-.179-.204-.359-.306-.538-.526 1.461-1.172 2.948-1.523 4.464-.103.447.53.754.764.322.759-1.401 1.163-3.034 1.603-4.553.123-.425-.423-.727-.731-.426-.101.099-.177.214-.295.297-.17.12-.106.37.104.386z"/><path d="m24.157 42.067c-.576 4.552-.247 9.285-.249 13.87-.001 4.292-.218 8.672.249 12.943.027.246.356.246.383 0 .467-4.272.25-8.65.249-12.943-.001-4.585.327-9.319-.249-13.87-.031-.245-.352-.246-.383 0z"/><path d="m49.595 40.532c-.257 1.684-.201 3.397-.21 5.098-.009 1.693-.182 3.452.131 5.12.038.205.376.205.414 0 .313-1.668.14-3.426.131-5.12-.009-1.7.047-3.413-.21-5.098-.019-.127-.236-.127-.256 0z"/><path d="m46.407 48.692c.068-2.273.542-4.804.056-7.049-.038-.175-.316-.175-.354 0-.486 2.244-.012 4.779.056 7.049.004.156.237.156.242 0z"/><path d="m23.973 42.688c4.534-.294 9.128-.102 13.672-.102 4.051 0 8.526.534 12.513-.176.216-.039.216-.398 0-.437-3.991-.711-8.46-.176-12.513-.176-4.543 0-9.138.192-13.672-.102-.638-.04-.639 1.035 0 .993z"/><path d="m68.813 36.505c-.435 3.485-.127 7.159-.139 10.672-.011 3.225-.301 6.562.151 9.761.029.209.392.209.422 0 .452-3.201.162-6.535.151-9.761-.012-3.51.295-7.19-.139-10.672-.036-.286-.41-.286-.446 0z"/><path d="m69.911 57.317c2.568.299 5.092.309 7.682.329 2.336.018 4.693.185 6.998-.254.198-.038.198-.362 0-.399-2.305-.439-4.662-.272-6.998-.254-2.588.02-5.114.03-7.682.329-.161.018-.161.231 0 .249z"/><path d="m85.532 56.817c.232-3.756.115-7.543.143-11.305.023-3.193.539-6.878-.227-9.99-.039-.16-.285-.16-.324 0-.764 3.104-.25 6.811-.227 9.99.028 3.762-.09 7.549.143 11.305.019.317.472.317.492 0z"/><path d="m71.837 37.067c-.294 2.902-.271 5.83-.298 8.745-.024 2.595-.234 5.304.31 7.852.026.123.222.123.249 0 .543-2.545.334-5.261.31-7.852-.027-2.915-.004-5.842-.298-8.745-.018-.175-.256-.176-.273 0z"/><path d="m72.37 53.964c1.734.311 3.533.213 5.291.22 1.769.007 3.545.086 5.296-.201.164-.027.164-.305 0-.331-1.75-.287-3.526-.208-5.296-.201-1.757.007-3.557-.091-5.291.22-.145.026-.145.267 0 .293z"/><path d="m82.719 52.942c.418-4.942.214-10.001-.129-14.937-.005-.07-.104-.07-.109 0-.342 4.937-.546 9.995-.129 14.938.02.235.347.236.367-.001z"/><path d="m72.328 38.33c3.065.438 6.306.274 9.396.288.468.002.468-.729 0-.727-3.091.014-6.332-.15-9.396.288-.075.011-.075.141 0 .151z"/><path d="m77.21 105.257c1.815-3.965 5.341-5.618 8.612-8.174 2.711-2.119 5.175-5.51 4.252-9.123-.05-.197-.309-.132-.33.045-.312 2.676-.683 4.801-2.607 6.819-1.302 1.366-2.905 2.403-4.441 3.481-2.451 1.718-5.258 3.681-5.721 6.853-.02.13.168.245.235.099z"/><path d="m89.578 87.965c.267 1.535.711 3.005.808 4.571.085 1.373-.226 2.737-.128 4.094.01.139.211.222.284.077 1.219-2.415.638-6.583-.807-8.808-.055-.085-.174-.029-.157.066z"/><path d="m66.905 97.228c3.39-1.954 4.242-5.976 4.444-9.609.128-2.29.065-4.586.098-6.879.041-2.903.856-5.405 1.493-8.193.034-.148-.154-.28-.268-.156-2.616 2.863-2.097 8.137-2.003 11.734.122 4.664.072 9.789-3.901 12.925-.103.081.029.24.137.178z"/><path d="m72.376 72.944c-.608 2.284-.592 6.847 2.11 7.867.166.063.277-.143.212-.275-.605-1.225-1.464-2.109-1.756-3.512-.282-1.35-.109-2.66-.113-4.018-.001-.259-.385-.316-.453-.062z"/><path d="m73.848 79.867c.064 0 .064-.1 0-.1s-.064.1 0 .1z"/><path d="m73.909 79.878c1.385-1.182 1.683-3.043 2.075-4.746.658-2.858 1.864-4.917 4.076-6.843 2.771-2.414 5.963-5.69 5.874-9.659-.004-.174-.234-.193-.292-.039-.91 2.446-1.786 4.751-3.554 6.727-1.33 1.486-2.907 2.729-4.211 4.244-2.438 2.835-2.706 6.871-4.112 10.233-.036.087.087.132.144.083z"/><path d="m85.29 60.472c-.951 3.389-1.444 8.271 1.72 10.746.249.195.667-.049.472-.364-2.041-3.306-2.638-6.44-1.952-10.315.029-.157-.196-.225-.24-.067z"/><path d="m93.415 74.005c.472-5.041 3.122-8.865 5.232-13.321 1.422-3.003 3.121-7.807 1.171-10.932-.157-.252-.518-.083-.464.196.991 5.156-.517 9.023-2.947 13.546-1.725 3.21-3.751 6.728-3.374 10.511.023.245.359.247.382 0z"/><path d="m99.529 49.957c.38.601.955 1.045 1.333 1.654.375.603.609 1.271.933 1.899.066.127.236.053.247-.067.125-1.371-.993-3.293-2.342-3.709-.124-.04-.241.111-.171.223z"/><path d="m82.455 70.465c-.806 3.4-1.043 8.012.116 11.349.08.23.438.203.437-.059-.005-1.876-.313-3.746-.365-5.625-.052-1.878.179-3.754.103-5.625-.006-.162-.251-.209-.291-.04z"/><path d="m82.635 81.844c2.07.888 4.868.717 7.089.79.421.014.523-.654.101-.744-1.106-.236-2.244-.257-3.371-.302-1.237-.049-2.496-.203-3.73-.071-.15.016-.269.25-.089.327z"/><path d="m90.116 82.669c1.238-3.174 1.903-7.744 1.346-11.123-.059-.358-.604-.256-.614.083-.057 1.97-.057 3.891-.308 5.853-.218 1.708-.679 3.426-.715 5.147-.004.179.234.188.291.04z"/><path d="m82.126 70.819c-.324.917.139 2.568.998 3.088.301.182.554-.166.438-.438-.186-.439-.52-.789-.686-1.251-.164-.455-.178-.936-.306-1.399-.063-.23-.371-.208-.444 0z"/><path d="m82.982 73.704c2.473 1.129 6.316.056 8.228-1.775.169-.162-.004-.499-.239-.411-1.237.462-2.314 1.217-3.602 1.592-1.464.427-2.785.336-4.27.165-.225-.026-.32.336-.117.429z"/><path d="m82.317 70.93c2.531 1.019 5.972.843 8.656.848.513.001.513-.791 0-.797-1.558-.017-3.112-.065-4.666-.174-1.328-.093-2.671-.33-3.99-.103-.127.022-.094.189 0 .226z"/><path d="m82.425 72.381c1.536 1.102 5.232 1.674 6.761.337.073-.064.03-.184-.055-.209-.949-.28-1.963.058-2.939.071-1.273.016-2.381-.299-3.599-.598-.25-.062-.365.258-.168.399z"/><path d="m84.634 73.336c-.473-.223-1.087-.282-1.467-.651-.118.202-.236.405-.353.607.52.214 1.028.582 1.576.701.45.098.636-.446.297-.706-.484-.371-1.169-.661-1.777-.709-.305-.024-.492.42-.257.62.599.509 1.153.44 1.882.501.19.017.272-.281.099-.363z"/><path d="m87.473 78.993c.065 0 .065-.102 0-.102-.065.001-.065.102 0 .102z"/><path d="m90.154 79.041c.495 1.211 2.124 1.873 3.343 1.442 1.135-.401 1.831-1.524 2.201-2.61.385-1.13.337-2.504-.425-3.474-1.029-1.309-2.811-1.268-4.281-.907-.503.123-.29.897.214.776 1.126-.27 2.644-.45 3.464.573.616.768.595 1.878.383 2.788-.208.891-.784 1.844-1.659 2.217-1.24.527-2.025-.462-3.038-.959-.095-.046-.251.033-.202.154z"/><path d="m90.909 75.319c.296.247.659.359.99.55.158.091.688.381.688.624-.001.468-1.082.852-1.378.978-.172.073-.256.289-.264.46-.007.167.043.26.156.376.121.124.349.205.518.137.751-.303 2.063-.935 1.668-1.965-.311-.811-1.404-1.48-2.251-1.467-.144.003-.252.203-.127.307z"/><path d="m39.733 108.109c-.151-1.504-.705-2.922-.683-4.454.01-.702.667-3.254.168-3.708-.232-.211-.512-.146-.766-.025-.465.222-1.14 1.652-1.431 2.101-.455.703-.903 1.384-1.148 2.187-.059.194.201.275.307.129.744-1.02 1.287-2.175 2.042-3.198.962-1.304.305-.497.22.176-.066.523-.118 1.048-.134 1.575-.051 1.79.213 3.711.979 5.337.1.21.469.113.446-.12z"/><path d="m36.594 103.237c-2.184-1.463-3.043-3.671-3.351-6.204-.218-1.793.248-3.771-.141-5.5-.024-.106-.194-.136-.243-.032-.907 1.948-.48 5.058-.041 7.102.461 2.147 1.462 4.212 3.592 5.07.263.105.395-.295.184-.436z"/><path d="m28.758 101.005c.013-1.853.293-3.564 1.202-5.205.826-1.492 2.069-2.521 3.118-3.816.103-.127-.023-.317-.18-.233-3.102 1.667-4.978 5.842-4.585 9.253.032.278.443.295.445.001z"/><path d="m21.958 65.613c4.053 5.509 6.41 12.904 5.457 19.698-.438 3.124-1.038 6.111-1.01 9.267.021 2.391-.009 4.922 1.856 6.701.185.176.421-.045.331-.256-.81-1.904-1.51-3.608-1.609-5.714-.078-1.652.326-3.512.567-5.155.446-3.032 1.088-6.061.894-9.143-.344-5.469-2.374-11.605-6.346-15.508-.069-.068-.202.025-.14.11z"/><path d="m18.387 82.727c-1.284-5.935 5.787-10.981 3.761-16.941-.044-.128-.218-.1-.23.031-.163 1.824-.076 3.47-.675 5.236-.585 1.724-1.453 3.336-2.158 5.01-.897 2.131-1.691 4.446-.901 6.72.045.128.232.077.203-.056z"/><path d="m15.112 47.632c3.04 5.65 2.874 12.141 2.11 18.357-.609 4.957-2.35 10.715.144 15.401.164.308.621.036.465-.272-1.843-3.66-.79-7.597-.252-11.444.353-2.525.569-5.083.712-7.629.274-4.848.183-10.57-2.977-14.57-.093-.117-.269.034-.202.157z"/><path d="m11.798 63.255c-.132-3.334.65-5.703 2.117-8.672.872-1.765 2.183-3.912 2.055-5.953-.01-.156-.232-.156-.242 0-.319 5.075-6.208 9.195-4.198 14.661.049.136.274.128.268-.036z"/><path d="m10.371 73.578c.944-3.826 4.123-7.796 3.872-11.823-.01-.163-.231-.196-.284-.038-.735 2.203-1.341 4.339-2.268 6.492-.737 1.71-1.346 3.431-1.697 5.266-.047.243.316.35.377.103z"/><path d="m13.59 62.88c-.15 2.607-.048 5.22-.207 7.829-.16 2.625-.299 5.249.025 7.868.488 3.951 2.274 8.227 5.631 10.591.115.081.223-.089.142-.184-3.592-4.194-5.273-8.338-5.413-13.881-.102-4.042.782-8.27.083-12.258-.027-.155-.252-.107-.261.035z"/><path d="m19.423 89.317c.275-4.75 3.749-8.788 3.621-13.5-.004-.144-.229-.187-.261-.035-.942 4.466-3.875 8.913-3.634 13.535.009.176.263.176.274 0z"/><path d="m22.567 75.565c.695 4.188.69 7.895.276 12.088-.358 3.623-.82 7.18.419 10.7.047.134.268.123.261-.035-.167-3.987-.314-7.827.049-11.813.334-3.67.541-7.496-.567-11.061-.089-.283-.485-.162-.438.121z"/><path d="m30.098 102.557c.836-1.697 1.566-3.289 1.625-5.198.002-.074-.1-.08-.123-.017-.612 1.69-1.116 3.424-1.767 5.103-.058.153.193.259.265.112z"/><path d="m30.857 98.598c-.592 1.695.078 3.917.932 5.418.079.14.338.088.32-.087-.087-.836-.4-1.598-.634-2.4-.284-.972-.295-1.903-.38-2.9-.012-.135-.192-.164-.238-.031z"/><path d="m46.723 109.149c2.148.269 4.285.027 6.438-.113.121-.008.121-.18 0-.188-2.154-.141-4.288-.382-6.438-.113-.265.034-.266.381 0 .414z"/><path d="m46.76 107.662c1.395.216 3.028.193 4.423-.015.078-.012.078-.146 0-.158-1.395-.208-3.027-.231-4.423-.015-.093.014-.093.173 0 .188z"/><path d="m62.036 109.138c1.581.142 3.217.279 4.792.018.149-.025.149-.277 0-.301-1.575-.261-3.21-.124-4.792.018-.171.014-.171.249 0 .265z"/><path d="m64.314 107.567c1.248.276 2.587.058 3.847-.034.115-.008.116-.171 0-.18-1.26-.092-2.599-.311-3.847-.034-.123.026-.123.22 0 .248z"/><path d="m67.723 105.501c1.877.028 4.005.319 5.85-.048.134-.027.134-.244 0-.271-1.846-.367-3.974-.076-5.85-.048-.236.003-.236.363 0 .367z"/><path d="m67.973 103.399c1.328.045 2.718.226 4.027-.047.097-.02.097-.176 0-.196-1.31-.273-2.699-.092-4.027-.047-.186.008-.186.284 0 .29z"/><path d="m68.502 101.289c.289.347 1.173.215 1.57.217.748.004 1.52-.004 2.253-.175.138-.032.138-.247 0-.279-.733-.171-1.504-.179-2.253-.175-.389.002-1.283-.127-1.57.217-.051.062-.051.134 0 .195z"/><path d="m70.036 97.595c1.673-.086 3.387-.596 4.934-1.215 1.161-.464 2.823-1.137 3.376-2.339.022-.048-.016-.129-.079-.103-1.352.562-2.488 1.501-3.907 2.021-1.432.524-2.928.775-4.382 1.215-.224.066-.192.434.058.421z"/><path d="m75.312 98.219c.596-.409 1.075-.911 1.514-1.484.384-.501 1.044-1.249.967-1.918-.011-.092-.107-.176-.2-.115-.492.325-.697 1.024-1.021 1.505-.424.631-.941 1.194-1.474 1.735-.135.139.045.393.214.277z"/><path d="m76.223 97.938c1.253.135 2.752-.715 3.566-1.617.073-.081-.018-.192-.114-.147-.644.303-1.261.618-1.931.874-.532.204-1.099.308-1.615.549-.182.085-.066.324.094.341z"/><path d="m79.5 96.676c-.133.465-.465.968-.444 1.454.009.206.242.295.393.163.378-.332.507-.99.623-1.459.092-.371-.467-.526-.572-.158z"/><path d="m81.794 89.223c-.362 1.568-.325 3.18-.33 4.782-.005 1.591-.188 3.271.168 4.827.063.275.494.276.557 0 .356-1.556.173-3.236.168-4.827-.005-1.603.032-3.214-.33-4.782-.026-.116-.206-.116-.233 0z"/><path d="m85.12 89.762c.521 2.193-.402 4.593.298 6.793.057.178.305.178.362 0 .701-2.202-.223-4.599.298-6.793.188-.799-1.149-.804-.958 0z"/><path d="m75.209 81.529c-.354 1.464-.225 3.166-.2 4.663.007.437.672.438.68 0 .025-1.498.154-3.2-.2-4.663-.035-.138-.247-.138-.28 0z"/><path d="m75.254 86.343c.8 2.121 3.921 2.824 5.868 3.236 2.775.587 5.643.814 8.476.816.503.001.504-.782 0-.781-5.009.005-10.095-.298-14.201-3.381-.066-.05-.172.034-.143.11z"/><path d="m90.173 90.197c1.594.732 3.395.859 5.131.918 1.901.065 4.087.271 5.93-.218.256-.068.272-.476 0-.535-1.675-.363-3.477.003-5.186-.007-1.957-.011-3.83-.335-5.763-.574-.216-.026-.306.327-.112.416z"/><path d="m75.913 82.878c2.686 2.502 6.957 2.837 10.449 3.136 5.06.434 10.358.996 15.424.713.443-.025.451-.698 0-.695-4.519.03-9.123-.163-13.627-.569-4.28-.386-8.236-.802-12.142-2.72-.084-.041-.18.065-.104.135z"/><path d="m75.462 81.218c2.245-1.068 4.394-2.173 6.738-3.031.455-.167.278-.876-.204-.738-2.408.692-4.87 1.838-6.658 3.61-.085.084.023.206.124.159z"/><path d="m95.973 77.259c1.108.136 2.249.085 3.366.095.887.007 1.814.183 2.622-.219.145-.072.145-.312 0-.385-.808-.402-1.735-.226-2.622-.219-1.116.009-2.257-.041-3.366.095-.406.05-.407.583 0 .633z"/><path d="m24.624 61.796c.596-2.936 1.561-5.684 3.443-8.057 1.808-2.281 4.074-3.474 6.256-5.26.121-.099-.015-.255-.137-.235-2.559.411-5.065 3.251-6.541 5.208-1.792 2.375-3.57 5.217-3.327 8.302.012.165.269.227.306.042z"/><path d="m33.784 48.207c-2.567 3.699-2.003 10.807 1.881 13.504.199.138.447-.131.326-.326-1.221-1.971-2.477-3.561-2.87-5.927-.415-2.496.173-4.77 1.063-7.082.095-.246-.267-.36-.4-.169z"/><path d="m35.478 60.867c1.43-2.752 2.869-5.948 3.284-9.022.014-.106-.137-.201-.193-.081-1.313 2.826-2.726 5.903-3.499 8.932-.06.237.288.402.408.171z"/><path d="m38.128 52.486c.249.751.947 1.348 1.373 2.008.426.659.728 1.658 1.318 2.165.149.128.357.038.373-.155.072-.832-.69-1.845-1.139-2.497-.435-.632-.954-1.492-1.723-1.724-.117-.034-.242.085-.202.203z"/><path d="m8.949 37.717c2.478 3.165 7.565 2.159 8.912-1.542.134-.369-.419-.698-.672-.391-1.014 1.229-1.797 2.691-3.477 3.089-1.741.412-3.121-.623-4.507-1.486-.22-.138-.393.154-.256.33z" fill="#4c2b2b"/><path d="m72.247 34.606c2.053 2.566 7.121 1.95 9.894 1.35 1.906-.412 7.793-1.939 7.737-4.566-.006-.292-.387-.48-.6-.249-1.999 2.171-4.93 3.161-7.777 3.727-3.317.659-5.799.16-8.942-.798-.334-.101-.497.306-.312.536z"/><path d="m17.247 35.72c.637 1.706 2.377 2.904 4.164 3.078 1.781.173 4.403-.459 5.165-2.26.056-.132-.041-.35-.216-.281-1.501.591-2.586 1.701-4.313 1.745-2.037.052-3.33-.958-4.624-2.385-.069-.075-.213.004-.176.103z"/><path d="m22.548 31.067c.596 10.043 16.93 8.387 21.467 2.541.384-.495-.276-1.203-.707-.707-4.888 5.616-18.042 6.671-20.292-1.897-.067-.254-.485-.21-.468.063z"/><path d="m40.047 29.825c.666 3.163 5.355 4.304 7.995 4.659 2.916.392 8.177.753 9.831-2.345.19-.355-.186-.708-.534-.534-1.345.669-2.376 1.445-3.892 1.738-1.554.301-3.188.278-4.758.123-3.064-.303-6.542-1.052-8.306-3.783-.115-.177-.379-.063-.336.142z"/><path d="m56.994 31.631c1.941 5.153 12.681 7.14 16.372 3.079.187-.206.239-.585 0-.784-.008-.003-.016-.007-.025-.01-.113-.215-.383-.248-.583-.153-1.042.499-1.721 1.28-2.939 1.585-1.572.393-3.213.386-4.805.123-2.95-.486-5.703-1.737-7.622-4.072-.149-.181-.481.013-.398.232z"/><path d="m36.222 24.333c2.672 4.941 8.823 4.318 13.495 3.51 4.455-.77 10.9-2.227 12.103-7.43.094-.407-.426-.609-.657-.277-1.384 1.99-2.62 3.669-4.862 4.77-2.041 1.002-4.295 1.437-6.516 1.826-2.276.399-4.595.839-6.911.579-2.634-.296-4.354-1.7-6.384-3.245-.167-.126-.353.111-.268.267z"/><path d="m54.616 25.828c1.491 3.176 6.493 3.481 9.495 3.268 3.524-.251 7.923-1.187 9.929-4.396.305-.488-.409-1.052-.804-.62-4.148 4.536-13.493 5.706-18.198 1.421-.232-.212-.551.053-.422.327z"/><path d="m73.221 24.012c1.267 4.782 6.665 6.958 11.058 4.998.452-.202.226-.965-.252-.932-1.945.134-3.799.782-5.739.129-2.243-.755-3.213-2.75-4.629-4.45-.175-.209-.501.018-.438.255z"/><path d="m47.864 16.261c3.64 4.198 12.099 6.36 16.239 1.581.309-.357-.074-.881-.507-.656-2.798 1.454-5.135 2.62-8.408 2.029-2.616-.472-4.861-1.867-6.993-3.383-.267-.19-.523.208-.331.429z"/></svg>