<svg enable-background="new 0 0 110.979 128.417" height="128.417" viewBox="0 0 110.979 128.417" width="110.979" xmlns="http://www.w3.org/2000/svg"><path d="m110.849 96.417-55.426 32-55.423-32v-64l55.423-32 55.426 32z" fill="#2f2a5b"/><path d="m101.923 38.139v53.14l-.009.01-1.42.809-6.281 3.62-2.719 1.571-.241.128-.129.051-.111.071-3.029 1.74-1.87 1.069-.04.03-3.25 1.879-.87.522-1.38.79-1.46.848-.181.09-.019.022-1.71.978-.96.562-4.62 2.67-.63.359-.061.03-3.5 2.032-4.04 2.329-.01.011-.429.25-5.38 3.098-.971.562-.729.42-7.331-4.232-.239-.14-.04-.03-1.111-.639-.96-.55-5.36-3.111-.689-.389-5.09-2.95-.39-.22-.491-.28-.33-.202-1.849-1.058-.571-.33-.569-.33-1.141-.661-.159-.089-2.35-1.369-2.911-1.67-.089-.051-4.67-2.699-2.111-1.232-7.5-4.319v-53.14l14.33-8.27 1.991-1.161 4.929-2.83 1.58-.92.17-.089 1.66-.951 1.161-.669 1.54-.911.52-.299 2.279-1.301.69-.409 1.46-.83 5.721-3.3.46-.27 6.069-3.511 1.44-.83 1.061.62 6.489 3.75 14.53 8.38 1.04.611 2.3 1.309.87.5 1.521.881 1.369.79.801.46.09.06 1.809 1.039 3.78 2.18.041.031v.009l.259.141.66.389 1.46.841 1.941 1.12.779.44.441.25 1.939 1.119z" fill="#fff"/><path d="m9.826 38.141v53.121l46.071 26.559 46.074-26.559v-53.121l-46.073-26.561zm90.281 1.08v50.971l-44.209 25.489-44.211-25.489v-50.971l44.211-25.489z" opacity=".13"/><path d="m26.764 79.83h-.04c-.649-.011-1.28.029-1.91.119-1.77.25-3.47.819-5.22 1.279-.27.061-.53.131-.8.211-.061.01-.12.029-.181.039-2.039.48-4.02 1.08-6.029 1.641-.54.149-1.271.34-1.74.75-.13.101-.23.229-.31.37-.141.239-.351.421-.61.55v-4.99c4.7-1.449 9.39-2.959 14.229-3.889v-.011c.101-.261.21-.479.46-.631.08-.05.25-.108.36-.13.42-.08.76.029 1.061.33.02.021.04.05.06.08.16.199.22.47.15.709-.011.021-.011.041-.021.051 0 .011.01.021.01.029.28.521.5 1.08 1.07 1.33 1.08.461.51 2.141-.539 2.163z" fill="#25e899"/><path d="m45.84 72.312c-.198-.139-.433-.168-.656-.12-1.412-.528-3.381.152-4.809.045-.377-.026-.634.154-.771.413-.586.023-1.168.079-1.769.182-.602.104-.696 1.035-.17 1.297.054.026.107.052.162.076.091.101.205.186.354.231.188.067.381.121.577.166-.021.367.125.716.508.897.075.097.167.177.285.229.292.126.525.213.784.262.2.086.435.111.698.047.025-.007.052-.012.077-.016.153-.023.303-.057.449-.096.104-.019.208-.038.313-.057.122.213.315.381.583.44.525.119 1.188.312 1.696.03.224-.123.522-.092.824-.188.402.231 1.026.14 1.242-.433.436-1.15.76-2.598-.377-3.405z" fill="#25e899"/><path d="m61.746 74.053v-.032c-.582.195-1.183.281-1.791.323-.845-.091-1.705-.433-2.537-.599-.463-.094-.937-.127-1.406-.166-.437-.039-1.541.5-1.826.056-.71-1.115-2.512-.031-1.757 1.026.123.172.271.326.434.469-.056.018-.105.037-.162.057-.491.184-.865.576-.86 1.133-.005.149.004.301.025.451.064.721.759 1.092 1.351.766.002.004.002.008.004.015.04-.019.079-.037.119-.058 1.424.225 2.89.062 4.325-.152 1.746-.26 3.448-.182 5.049-1.021 1.36-.715.344-2.53-.968-2.268z" fill="#25e899"/><path d="m51.465 31.271c.014-.035.022-.071.032-.106.28-.338.354-.805.062-1.572-.177-.463-.841-1.254-1.26-1.5-.575-.337-1.12-.104-1.671.047-.147-.136-.344-.215-.588-.193-.748.071-1.558-.238-2.25-.09-.065.014-.135.025-.203.038-.114-.058-.245-.093-.396-.088-3.228.109-6.319 1.161-8.674 3.44-.196.189-.271.423-.262.657-.539.635-.795 1.47-1.176 2.349-.37.647-.226 1.225.144 1.604-.011.063-.026.127-.032.191-.075.67.264 2.226-.462 2.421-1.153.313-2.621.707-3.133 1.912-.428 1.009.079 1.943 1.185 2.065 1.547.168 3.082-.125 4.583-.526.181.114.408.163.659.103.258-.062.502-.177.73-.328.005.001.008.003.013.003 2.811.476 6.67-.616 8.871-2.454.847-.708.082-1.896-.817-1.971-.061-.004-.122-.006-.183-.009.231-.55.453-1.106.683-1.657.151-.013.298-.096.396-.285.403-.786.802-1.559.969-2.433.005-.024.006-.048.008-.071.027-.04.059-.072.087-.107.287-.113.579-.254.915-.393.149-.061.274-.143.382-.238.447-.067.927-.083 1.38-.17.361-.057.289-.523.008-.639zm-11.126 4.603c-.153.635-.063 1.42-.321 2.017-.265.617-1.523.64-2.072.725-.002 0-.003.001-.006.001-.074-.056-.146-.117-.21-.187-.072-.07-.149-.126-.227-.175-.008-.007-.018-.013-.025-.02v.006c-.135-.08-.272-.131-.411-.154.089-.259.171-.523.258-.8.144-.478.372-.962.458-1.46.305-.044.591-.226.783-.591.021-.037.041-.085.062-.138.668.051 1.363-.119 2.038-.306-.133.346-.236.708-.327 1.082zm4.978 1.231c-.027.074-.038.142-.041.206-.629.074-1.252.21-1.867.382-.063-.064-.144-.11-.244-.126-1.143-.179-.952-.651-.618-1.579.156-.434.456-.621.586-1.051.119-.157.147-.611.264-.818.902-.061 1.777-.305 2.655-.534.001.357.275.527.535.506-.493.969-.89 1.989-1.27 3.014z" fill="#15003e"/><path d="m39.371 75.912c-.218 2.776-.566 5.517-2.655 7.555-.469.459.251 1.176.72.719 2.288-2.23 2.715-5.225 2.953-8.273.049-.658-.968-.652-1.018-.001z" fill="#15003e"/><path d="m58.121 39.172c-.047-.068-.091-.138-.136-.208-.021-.033-.039-.064-.061-.097-.672-1.087-1.338-2.531-2.37-3.33-.559-1.206-1.141-2.408-1.775-3.555-.114-.208-.327-.313-.542-.324-.458-.311-1.191.016-1.035.712.112.511-.167 1.251-.229 1.786v.024c-.342.466-.891.81-1.503.963-.673.167-1.466.199-2.034.648-.575-.03-1.03.215-1.271.787-.163.386-.138.901.018 1.285.129.323.412.548.77.486.199.362.493.698.842.987 1.077.892 2.416 1.529 3.764 2.008.663.309 1.319.579 1.916.812.586.23 1.081.294 1.554.197.83.115 1.563-.049 1.945-1.002.076-.077.129-.175.15-.299.057-.382.004-.732-.119-1.065.223-.188.328-.496.116-.815z" fill="#25e899"/><path d="m54.68 45.215c-1.311-.815-2.968.835-2.344 2.171.247.526.844.755 1.386.778.583.025 1.117-.25 1.458-.706.189-.207.313-.471.354-.786.071-.586-.39-1.168-.854-1.457z" fill="#25e899"/><g fill="#15003e"><path d="m40.61 60.879c-.76 2.754-1.627 5.477-2.502 8.199-.496 1.545-1.434 3.498-.622 5.104 1.207 2.384 4.329 2.267 6.598 2.556.648.082.643-.935 0-1.018-1.826-.232-4.913-.054-5.748-2.132-.596-1.482.563-3.647 1.014-5.045.787-2.453 1.557-4.912 2.241-7.396.173-.632-.807-.9-.981-.268z"/><path d="m32.976 50.74c-3.063 1.387-3.229 6.092-4.005 8.909-1.222 4.427-2.366 8.946-3.142 13.474-1.505 8.793 9.822 11.674 16.379 12.299.653.062.646-.957 0-1.02-3.775-.357-7.736-1.121-11.03-3.088-1.465-.873-2.844-2.252-3.752-3.693-1.039-1.65-.776-3.647-.373-5.453.861-3.858 1.713-7.708 2.709-11.538.407-1.565.803-3.12 1.171-4.694.381-1.63.901-3.568 2.558-4.318.595-.27.076-1.146-.515-.878z"/><path d="m43.598 77.019c.254 2.691-.631 5.105-1.83 7.477-.295.582.581 1.099.879.514 1.272-2.516 2.237-5.127 1.967-7.989-.06-.648-1.078-.654-1.016-.002z"/><path d="m42.932 83.076c.935.639 1.99 1.098 3.025 1.539.714.307 1.602.792 2.397.817.923.026 1.818-1.687 2.231-2.356.875-1.426 1.346-3.082 1.944-4.632.237-.612-.748-.877-.979-.271-.474 1.221-.882 2.462-1.444 3.646-.318.671-1.305 2.724-2.041 2.515-1.581-.451-3.263-1.205-4.621-2.137-.541-.374-1.049.51-.512.879z"/><path d="m35.372 47.72c.068-.497.135-.994.204-1.493.036-.263-.06-.559-.355-.625-1.116-.251-1.616-1.577-.86-2.485.416-.501-.3-1.224-.72-.72-1.213 1.46-.608 3.754 1.312 4.187-.119-.208-.237-.417-.355-.625-.07.497-.136.995-.203 1.492-.093.639.887.917.977.269z"/><path d="m34.68 37.717c-1.49.138-3.614 1.364-3.714 3.054-.094 1.587 1.438 2.065 2.749 2.211 2.463.275 5.304-.253 7.7-.814 2.494-.584 5.015-1.519 7.438-2.351.617-.211.354-1.194-.269-.981-3.015 1.034-6.146 2.183-9.286 2.725-1.797.31-3.757.521-5.583.403-.804-.052-1.931-.332-1.673-1.366.249-.986 1.72-1.78 2.639-1.866.645-.058.652-1.076-.001-1.015z"/><path d="m47.919 34.877c-1.412 1.065-2.126 2.661-.534 4.006.983.827 2.34 1.354 3.452 1.979 1.487.835 2.984 1.644 4.542 2.346.592.268 1.11-.608.512-.879-1.868-.843-3.649-1.846-5.436-2.849-1.489-.835-4.351-1.968-2.023-3.726.516-.389.011-1.273-.513-.877z"/><path d="m55.447 43.141c.626.409 1.498-.242 1.988-.595.688-.491 1.506-1.124 1.896-1.894.295-.584-.586-1.1-.879-.514-.257.504-.763.902-1.187 1.258-.277.236-.582.446-.893.635-.09.053-.465.198-.416.231-.547-.36-1.057.521-.509.879z"/><path d="m53.728 32.537c1.366 2.734 3.176 5.205 4.588 7.913.306.581 1.185.067.879-.514-1.411-2.707-3.224-5.178-4.591-7.913-.291-.587-1.169-.071-.876.514z"/><path d="m52.011 31.76c.56.063 1.799.071 1.303.9-.474.789-1.524 1.154-2.347 1.412-1.197.375-2.333.216-3.313 1.076-.492.435.229 1.15.72.719.751-.659 2.215-.611 3.167-.911 1.068-.334 1.975-.892 2.65-1.782 1.295-1.702-.939-2.292-2.181-2.432-.651-.073-.642.946.001 1.018z"/><path d="m52.125 33.681c.344-2.023 1.011-4.571-1.194-5.743-2.284-1.213-5.3-1.125-7.771-.722-2.232.362-4.783 1.298-6.417 2.906-2.193 2.158-2.145 5.399-2.234 8.239-.021.657.997.655 1.018 0 .082-2.557.012-5.2 1.728-7.292 1.192-1.454 3.134-1.993 4.843-2.557 2.024-.666 4.365-.67 6.442-.293 1.075.196 2.467.544 2.861 1.686.372 1.073-.071 2.433-.256 3.505-.113.641.868.917.98.271z"/><path d="m49.056 37.717c.655 0 .655-1.018 0-1.018-.656 0-.656 1.018 0 1.018z"/><path d="m54.692 42.498c.07.724.168 1.411-.114 2.104-.249.607.736.868.979.27.317-.773.232-1.563.152-2.374-.06-.647-1.077-.653-1.017 0z"/><path d="m45.937 50.671c.585.009 1.212.036 1.778-.142.378-.119.675-.376.99-.606.52-.384.014-1.268-.516-.878-.23.171-.471.403-.744.503-.463.17-1.025.112-1.508.105-.657-.009-.655 1.007 0 1.018z"/><path d="m48.718 50.178c1.402-.234 2.779-.454 4.137-.882.625-.197.355-1.18-.269-.981-1.358.428-2.736.647-4.139.881-.645.109-.37 1.088.271.982z"/><path d="m45.496 50.365c-.06.836-.003 1.673 0 2.509.003.657 1.021.657 1.017 0-.004-.836-.059-1.673 0-2.509.048-.655-.97-.65-1.017 0z"/><path d="m45.566 53.132c2.04 2.786 2.514 6.248 2.68 9.618.089 1.845-.021 3.697-.141 5.537-.054.834-.114 1.67-.173 2.506-.03.459-.235 1.076.157 1.429.188.167.395.177.618.079.042-.02.086-.037.13-.057-.207-.027-.413-.056-.618-.082.022.022.047.043.071.063.485.437 1.207-.279.718-.72-.022-.021-.046-.041-.07-.063-.186-.168-.393-.177-.617-.078-.042.018-.086.037-.129.057.206.025.411.054.616.08-.046-.041.229-1.981.245-2.215.059-.834.114-1.668.161-2.505.103-1.855.103-3.711-.056-5.563-.26-3.051-.876-6.09-2.715-8.599-.381-.525-1.266-.018-.877.513z"/><path d="m25.752 80.6c-.004 0-.01.004-.015.005 0-.001 0-.001 0-.004-.032.007-.064.011-.097.018-.205 2.894-.577 5.779-1.049 8.637-.107.642.874.918.979.271.505-3.042.9-6.119 1.106-9.2-.301.124-.601.225-.924.273z"/><path d="m25.081 89.9c5.372-.72 10.73-1.544 16.107-2.222.28-.035.503-.204.509-.509.015-.752.041-1.476-.107-2.215-.13-.643-1.111-.371-.981.271.131.649.083 1.288.072 1.944.17-.17.34-.34.509-.508-5.377.676-10.735 1.502-16.107 2.219-.643.086-.65 1.106-.002 1.02z"/><path d="m25.523 87.585c5.372-.72 10.732-1.545 16.108-2.222.643-.081.651-1.099 0-1.017-5.376.677-10.737 1.5-16.108 2.221-.64.087-.649 1.106 0 1.018z"/><path d="m37.711 72.848c3.646-.162 7.547-.763 11.177-.224.642.098.917-.881.271-.979-3.733-.557-7.696.018-11.447.186-.654.028-.657 1.044-.001 1.017z"/><path d="m45.804 72.616c.352.957.846 2.169.1 3.064-.197.237-.056.178-.222.194-.168.013-.336.035-.504.053-.364.042-.729.098-1.095.113-.654.026-.656 1.045 0 1.017 1.014-.04 2.15-.011 2.765-.935.786-1.187.39-2.545-.064-3.777-.225-.61-1.21-.345-.98.271z"/><path d="m45.983 76.917c.9.078 1.844.076 2.638.563.561.345 1.07-.535.514-.879-.954-.583-2.068-.608-3.151-.702-.655-.055-.65.962-.001 1.018z"/><path d="m48.708 72.054c1.106 1.586.994 4.473-.372 5.894-.456.474.263 1.193.718.72 1.67-1.734 1.906-5.16.532-7.127-.371-.534-1.254-.026-.878.513z"/><path d="m49.238 72.125c.635-.002 1.44-.133 1.968.313.616.523.584 1.813.581 2.527-.008.88-.245 1.744-.632 2.526-.593 1.202-1.025.914-2.144.689-.64-.13-.913.851-.27.979 1.365.275 2.021.704 2.919-.578.757-1.078 1.064-2.313 1.14-3.617.066-1.129-.147-2.361-.877-3.248-.611-.741-1.846-.613-2.686-.608-.654.004-.655 1.02.001 1.017z"/><path d="m52.042 73.387c3.337.414 6.683.756 10.036.998.653.048.649-.97 0-1.017-3.354-.244-6.699-.584-10.036-1-.651-.077-.642.939 0 1.019z"/><path d="m52.404 78.21c3.396-.164 6.757-.396 10.13-.842.639-.084.647-1.103 0-1.016-3.373.443-6.734.675-10.13.841-.653.036-.658 1.051 0 1.017z"/><path d="m61.945 74.367c.55.135.9.463.92 1.047.011.321-.118.842-.469.959-.619.205-.354 1.188.269.979.823-.271 1.203-1.123 1.219-1.938.018-1.021-.713-1.797-1.668-2.025-.638-.156-.912.823-.271.978z"/><path d="m51.964 78.361c.802 1.194 1.604 2.641 2.675 3.611.83.754 2.438.335 3.385.117 1.441-.328 2.83-.924 4.158-1.555 1.162-.552.976-2.591.857-3.675-.07-.646-1.09-.651-1.021 0 .072.644.297 2.486-.354 2.797-1.076.517-2.185.949-3.326 1.296-.937.282-2.593.829-3.316-.062-.785-.965-1.487-2.013-2.185-3.044-.358-.539-1.24-.031-.873.515z"/><path d="m58.107 73.595c.638-.51 1.48-.831 2.254-1.063.359-.104.779-.216 1.152-.135.295.063-.084.731-.145.86-.287.588.59 1.103.879.515.571-1.165.463-2.478-1.117-2.41-1.283.054-2.748.72-3.744 1.513-.511.412.213 1.125.721.72z"/><path d="m48.291 61.305c1.912 1.659 4.306 3.379 6.925 3.495 1.939.086 3.303-1.375 3.807-3.114.597-2.046-.153-4.062-1.002-5.904-1.08-2.348-2.405-4.576-3.459-6.933-.267-.598-1.145-.081-.88.513.717 1.602 1.575 3.142 2.368 4.706.881 1.732 1.958 3.561 2.143 5.528.173 1.842-.621 3.957-2.679 4.178-2.308.247-4.894-1.791-6.504-3.188-.492-.427-1.217.289-.719.719z"/><path d="m46.389 85.416c-1.229.297-2.488.504-3.558 1.227.257.146.511.291.767.438.097-1.276.099-2.57-.063-3.844-.081-.642-1.102-.648-1.019 0 .164 1.271.162 2.566.064 3.844-.029.375.458.647.765.44.996-.675 2.17-.849 3.316-1.125.637-.155.366-1.136-.272-.98z"/><path d="m46.557 83.13c-1.229.297-2.488.505-3.558 1.227.25.189.499.384.748.574.198-1.448 1.662-2.504 1.546-4.047-.049-.648-1.067-.653-1.019 0 .104 1.375-1.323 2.438-1.509 3.777-.055.392.331.854.747.573.996-.672 2.17-.847 3.315-1.125.639-.151.368-1.132-.27-.979z"/><path d="m33.368 51.67c5.233-1.672 9.147 4.667 7.242 9.209-.254.603.73.866.979.269 2.216-5.276-2.576-12.349-8.493-10.459-.62.199-.355 1.182.272.981z"/><path d="m31.035 55.65c.115-5.758-8.816-8.007-11.757-3.226-.382.622-.504 1.433-.694 2.125-.319 1.163-.597 2.337-.861 3.513-.322 1.428-.616 2.864-.934 4.293-.68 3.061-1.356 6.118-1.998 9.186-.134.64.847.912.98.27.977-4.667 1.995-9.33 3.045-13.981.357-1.585.63-3.42 1.339-4.889.602-1.242 2.199-1.751 3.443-1.989 2.958-.567 6.483 1.453 6.417 4.701-.012.652 1.006.651 1.02-.003z"/><path d="m18.133 58.661c1.239 1.394 2.504 2.254 4.336 2.741 2.27.604 5.166.563 7.054-1 .506-.42-.217-1.136-.72-.72-1.735 1.436-4.475 1.162-6.487.626-1.487-.396-2.477-1.255-3.465-2.367-.435-.49-1.153.23-.718.72z"/><path d="m13.723 77.832c.208.006.412.03.615.068.149-.779.356-1.553.506-2.277.346-1.683.754-3.354 1.126-5.031.698-3.146 1.396-6.294 2.129-9.436.15-.639-.831-.909-.979-.269-.869 3.709-1.673 7.431-2.516 11.147-.438 1.941-.968 3.92-1.283 5.904.107-.067.239-.11.402-.106z"/><path d="m24.617 80.813c-.289.203-.64.054-.822-.198-.425 1.021-.975 1.951-1.732 2.646-.723.655-1.769.817-2.703.886-1.554.111-2.801-.257-3.829-1.261-.366.077-.728.198-1.088.323.262.303.546.586.85.846 1.845 1.574 5.299 1.581 7.249.117 1.123-.84 1.852-2.182 2.386-3.642-.092.102-.191.199-.311.283z"/><path d="m25.5 74.044c-1.487.644-2.787.865-4.414.582-1.994-.35-4.387-1.4-5.297-3.332-.28-.594-1.157-.076-.878.514.972 2.064 3.334 3.145 5.421 3.691 2.042.539 3.799.237 5.681-.578.602-.257.083-1.134-.513-.877z"/><path d="m49.77 40.192c-.056 3.068-1.063 6.006-1.813 8.954-.162.636.819.905.979.27.775-3.037 1.793-6.061 1.851-9.224.012-.656-1.006-.656-1.017 0z"/><path d="m53.682 49.1c-1.319 0-2.395-1.075-2.395-2.396s1.075-2.396 2.395-2.396c1.324 0 2.397 1.075 2.397 2.396s-1.074 2.396-2.397 2.396zm0-3.708c-.721 0-1.31.588-1.31 1.312s.589 1.312 1.31 1.312c.723 0 1.313-.588 1.313-1.312-.002-.724-.59-1.312-1.313-1.312z"/><path d="m30.854 103.369-1.141-.661-.159-.089-3.131-13.18 1.051-.25z"/><path d="m48.543 113.598-.239-.14-.04-.03-1.111-.639-7.86-25.122 1.04-.279z"/><path d="m57.574 116.848-.971.562-10.209-31.5 1.04-.323z"/><path d="m33.458 48.364c.545-.005 1.087-.077 1.626-.153.275-.039.422-.385.354-.625-.079-.293-.35-.395-.625-.356-.45.063-.901.114-1.355.118-.656.006-.656 1.023 0 1.016z"/><path d="m32.476 47.789c-.057 1.063.058 2.124.067 3.188.006.655 1.021.657 1.018 0-.009-1.063-.123-2.125-.066-3.188.03-.657-.986-.654-1.019 0z"/><path d="m35.085 48.297c3.336.396 6.221 1.864 7.985 4.806 1.152 1.917 1.743 4.456 1.314 6.652-.234 1.204-.834 2.31-1.821 3.047-.689.516-1.544.498-2.324.773-.615.216-.352 1.199.271.98.887-.313 1.749-.368 2.568-.875.842-.522 1.481-1.409 1.848-2.314 1.038-2.557.642-5.361-.497-7.827-.901-1.958-2.5-3.909-4.45-4.906-1.443-.739-3.289-1.163-4.895-1.354-.649-.077-.642.942.001 1.018z"/><path d="m52.676 48.564h4.81v1.085h-4.81z" transform="matrix(-.9826 -.1858 .1858 -.9826 100.082 107.5896)"/><path d="m57.026 45.029h1.087v5.013h-1.087z" transform="matrix(-.9666 -.2565 .2565 -.9666 101.0218 108.2452)"/><path d="m55.11 43.944h3.665v1.087h-3.665z" transform="matrix(-.7671 -.6415 .6415 -.7671 72.0857 115.1428)"/><path d="m58.101 45.946c.656 0 .656-1.018 0-1.018-.658 0-.658 1.018 0 1.018z"/><path d="m38.015 36.772h.543v3.315h-.543z" transform="matrix(-.1241 -.9923 .9923 -.1241 4.9076 81.1912)"/><path d="m40.169 34.636h.542v3.861h-.542z" transform="matrix(-.929 -.37 .37 -.929 64.481 85.5014)"/><path d="m39.454 33.281h.543v3.315h-.543z" transform="matrix(-.1852 -.9827 .9827 -.1852 12.7484 80.4481)"/><path d="m37.308 34.921h.542v3.696h-.542z" transform="matrix(-.923 -.3849 .3849 -.923 58.1117 85.1688)"/><path d="m43.374 35.728h.542v3.315h-.542z" transform="matrix(-.1244 -.9922 .9922 -.1244 11.9786 85.3409)"/><path d="m45.527 33.592h.542v3.863h-.542z" transform="matrix(-.9279 -.3729 .3729 -.9279 75.043 85.5634)"/><path d="m44.809 32.233h.543v3.316h-.543z" transform="matrix(-.1871 -.9823 .9823 -.1871 20.2234 84.5172)"/><path d="m42.66 33.867h.542v3.695h-.542z" transform="matrix(-.9226 -.3856 .3856 -.9226 68.769 85.2232)"/><path d="m51.246 32.04h.542v2.647h-.542z" transform="matrix(-.9272 -.3745 .3745 -.9272 86.7915 83.5911)"/><path d="m50.309 30.635h.541v3.316h-.541z" transform="matrix(-.1822 -.9833 .9833 -.1822 28.043 87.9105)"/><path d="m48.16 32.276h.542v3.695h-.542z" transform="matrix(-.9226 -.3856 .3856 -.9226 79.9563 84.2845)"/><path d="m32.877 60.177c.239.758.504 1.509.768 2.261.219.612 1.2.35.982-.271-.266-.75-.529-1.501-.771-2.261-.195-.624-1.176-.357-.979.271z"/><path d="m34.711 62.786c.557-.811 1.168-1.582 1.717-2.397.37-.546-.514-1.054-.878-.513-.549.813-1.161 1.585-1.717 2.396-.374.543.51 1.051.878.514z"/><path d="m33.368 60.551c.873.064 1.747.086 2.623.089.655.001.655-1.015 0-1.018-.876-.001-1.75-.023-2.623-.089-.655-.049-.65.968 0 1.018z"/><path d="m34.302 48.434c-.075-.045-.15-.09-.225-.136-.133.311-.262.621-.394.93.292.039.577.099.86.181.645.162.878-.759.27-.98-.188-.08-.385-.142-.587-.181-.267-.066-.554.083-.625.356-.101.375-.156.748-.226 1.129.333.045.666.09.999.136-.017-.242-.03-.483-.046-.725-.034-.554-.854-.715-.998-.134-.206.825-.041 2.036 1.063 1.521-.25-.19-.498-.382-.748-.574-.029.162-.029.29 0 .452.049.259.38.441.625.355.36-.126.483-.196.77-.447.287-.254.13-.76-.227-.851-.215-.073-.431-.147-.646-.22-.04.31-.081.621-.121.93.708-.179 1.3.082 1.945.271.522.153.805-.479.494-.85-.424-.506-1.326-.693-1.594-1.299-.146.256-.293.511-.438.766 1.004.089 1.901.592 2.893.751.568.09.887-.591.395-.93-.824-.565-1.755-.731-2.7-1-.045.332-.09.666-.136.999 1.454.107 2.389 1.474 3.8 1.79.544.122.923-.654.392-.929-.929-.48-1.676-1.21-2.699-1.499-.509-.144-.828.482-.495.851.807.889 1.76 1.612 2.623 2.442.165-.284.329-.568.495-.851-1.081-.313-1.92-1.069-2.909-1.576-.581-.298-1.088.556-.514.878.9.503 1.733 1.079 2.7 1.453.09-.327.18-.653.27-.981-1.131-.417-2.328-.56-3.48-.904-.56-.167-.884.639-.393.931.399.235.746.369 1.208.457.091-.327.18-.653.271-.98-.546-.083-1.074-.138-1.627-.154-.659-.02-.653.988 0 1.017.65.029 1.302.055 1.956.064.648.009 1.682-.248 2.207.284.396.402 1.144-.14.798-.617-.297-.407-.556-.832-.814-1.266-.19.25-.383.499-.573.748.9.372 1.623 1.042 2.456 1.531.517.303.989-.375.616-.798-.69-.78-1.494-1.428-2.262-2.126-.239.241-.479.48-.718.72.973.785 2.1 1.367 2.982 2.261.205-.266.412-.533.616-.798-1.577-.809-3.025-2.055-4.732-2.629-.583-.196-.833.615-.393.931.48.342 1.071.435 1.582.757.727.46 1.403.941 2.051 1.507.561.489 1.104 1.005 1.634 1.528.804.793.963 1.594 1.236 2.639.327-.089.655-.179.981-.27-.52-1.777-1.873-3.945-3.657-4.651-.238-.094-.586.102-.625.355-.214 1.365 1.13 2.434 1.814 3.466.358.544 1.23.045.879-.513-.781-1.234-1.874-2.146-2.974-3.086-.356-.307-1.027-.025-.851.495.348 1.018 1.076 1.719 1.85 2.439.239-.24.48-.48.72-.72-.918-.775-1.953-1.385-2.906-2.114-.402-.308-.988.294-.697.696.785 1.078 1.629 2.22 2.972 2.585.366.1.741-.251.626-.625-.17-.554-.579-.872-.82-1.389-.231.233-.463.465-.696.696 1.878.853 2.288 3.332 2.796 5.122.18.63 1.153.365.982-.269-.333-1.234-1.169-2.295-1.338-3.573-.317.085-.632.171-.949.256.718 1.413.97 2.881 1.106 4.446.288-.12.578-.24.868-.359-.948-.867-.993-2.563-1.225-3.754-.312.13-.62.262-.93.392.707.983 1.18 2.147 1.286 3.361.316-.086.631-.173.947-.257-.832-1.801-1.465-3.676-2.164-5.531-.188-.497-1.07-.475-1 .136.114.984.416 1.85.929 2.698.291-.171.586-.343.879-.514-.41-.663-1.058-1.078-1.493-1.719-.19.249-.381.499-.574.748 1.045.344 1.828 1.403 2.455 2.253.351.477 1.016.187.929-.393-.024-.158-.046-.319-.061-.48.069-.301-.075-.395-.436-.278.201.266.228.763.283 1.08.113.638.119 1.317.316 1.939.175.545.986.447 1-.137.021-1.026-.298-2.004-.315-3.028-.334.045-.667.09-1 .136.496 1.208.328 2.526.479 3.798.074.635 1.057.667 1.018 0-.049-.831-.5-1.902-.116-2.683-.292 0-.586 0-.878 0 .729 1.24.671 3.763-.506 4.72.288.119.577.24.868.36-.008-.49.136-.917.427-1.282-.31-.13-.62-.26-.93-.391-.21 1.108-.75 2.056-1.352 2.998.317.086.632.17.948.256-.017-1.658 1.133-2.998.887-4.702-.06-.404-.6-.452-.85-.225-.927.84-.948 2.26-1.263 3.391h.979c-.203-1.189.428-2.378.472-3.571.018-.496-.717-.71-.948-.258-.594 1.16-.537 2.413-.866 3.648.334.046.667.091 1 .137-.084-.723-.119-1.426.118-2.126-.328 0-.654 0-.981 0 .188 1.272-.461 2.593-.902 3.753-.122.314.182.644.488.644h.045c.235 0 .419-.156.489-.374.032-.09.063-.179.092-.27-.327-.091-.654-.181-.98-.271-.03.12-.062.241-.092.361-.113.462.509.906.852.494.196-.062.393-.122.59-.185.641.123.914-.856.271-.982-.67-.129-1.129-.092-1.58.448.284.166.566.331.849.494.032-.12.063-.24.092-.36.158-.641-.774-.891-.98-.271-.03.09-.062.18-.092.271.163-.125.328-.249.491-.374-.015 0-.03 0-.045 0 .164.215.327.431.491.644.529-1.387 1.126-2.783.904-4.293-.08-.538-.836-.429-.981 0-.264.784-.25 1.58-.153 2.397.063.539.842.727 1 .134.3-1.128.222-2.349.763-3.405-.315-.086-.632-.173-.949-.256-.045 1.326-.664 2.497-.433 3.842.088.515.854.455.979 0 .255-.919.255-2.265 1.001-2.941-.284-.074-.567-.149-.852-.224.223 1.53-.938 2.89-.922 4.431.006.518.679.679.947.256.646-1.013 1.227-2.048 1.453-3.24.106-.563-.605-.891-.929-.393-.379.583-.545 1.106-.568 1.795-.017.481.547.618.87.357 1.534-1.243 1.607-4.345.666-5.951-.181-.312-.707-.349-.878 0-.517 1.053-.089 2.091-.023 3.197h1.018c-.163-1.364.015-2.774-.517-4.07-.204-.497-1.012-.483-.997.136.018 1.022.335 2.006.314 3.028.333-.045.667-.089 1-.134-.313-.98-.017-2.918-.981-3.574-1.254-.854-1.179 1.223-1.083 1.854.311-.13.618-.262.929-.391-.807-1.095-1.726-2.282-3.062-2.722-.412-.136-.823.381-.574.748.432.637 1.087 1.064 1.493 1.719.343.555 1.22.05.878-.514-.419-.692-.697-1.377-.791-2.185-.332.045-.665.089-.997.135.729 1.937 1.396 3.896 2.265 5.773.209.453.992.238.949-.256-.122-1.39-.61-2.741-1.426-3.875-.34-.47-1.042-.19-.931.392.275 1.403.363 3.175 1.488 4.202.299.275.91.111.869-.359-.154-1.742-.446-3.387-1.248-4.958-.216-.43-1.013-.251-.946.257.185 1.4 1.012 2.5 1.374 3.842.327-.09.653-.179.982-.269-.582-2.047-1.115-4.756-3.265-5.729-.474-.216-.917.218-.695.695.184.396.591.735.718 1.145l.625-.625c-1.063-.29-1.747-1.271-2.365-2.118-.23.233-.463.464-.695.697.884.675 1.849 1.236 2.7 1.955.495.417 1.206-.267.72-.72-.627-.581-1.303-1.157-1.589-1.991-.282.166-.564.33-.85.495 1.028.879 2.083 1.725 2.814 2.88.294-.17.586-.342.879-.513-.444-.671-1.849-1.826-1.712-2.683-.209.118-.418.237-.625.355 1.41.558 2.54 2.552 2.944 3.939.185.63 1.146.368.981-.27-.194-.739-.313-1.457-.681-2.134-.397-.738-1.196-1.319-1.797-1.88-.686-.642-1.385-1.246-2.155-1.785-.725-.507-1.651-.75-2.34-1.242-.13.311-.261.62-.392.929 1.602.539 3.011 1.768 4.491 2.527.507.259 1.033-.376.616-.799-.889-.9-2.006-1.473-2.984-2.262-.499-.402-1.213.271-.718.72.767.699 1.57 1.347 2.26 2.125.205-.266.411-.533.617-.799-.919-.539-1.707-1.224-2.698-1.635-.432-.176-.783.397-.576.748.259.434.519.858.815 1.267.266-.207.532-.411.798-.616-.473-.48-.889-.634-1.562-.628-1.109.01-2.208.032-3.319-.018v1.017c.455 0 .906.039 1.356.117.634.097.922-.855.271-.98-.351-.032-.672-.15-.963-.356-.131.311-.263.621-.393.931 1.153.343 2.351.486 3.482.904.619.229.874-.748.27-.981-.878-.34-1.637-.892-2.456-1.35-.172.293-.342.585-.514.878 1.072.55 1.979 1.339 3.151 1.679.485.141.863-.498.496-.851-.865-.829-1.818-1.552-2.623-2.441-.166.283-.331.566-.494.85.925.261 1.613.96 2.456 1.396.13-.309.26-.62.39-.929-1.521-.343-2.436-1.707-4.068-1.827-.586-.044-.673.845-.134.999.856.245 1.707.385 2.456.899.13-.31.26-.62.393-.93-1.09-.174-2.063-.688-3.165-.786-.427-.039-.578.45-.439.765.341.778 1.237.891 1.751 1.505.166-.284.331-.567.495-.851-.881-.257-1.581-.499-2.484-.271-.401.102-.531.742-.124.93.355.164.514.226.892.322-.075-.283-.151-.566-.226-.85-.105.062-.213.125-.317.186.208.119.417.238.626.355v.089c.084-.456-.333-.767-.749-.574l.366.105c-.004-.164.018-.325.064-.481-.333-.045-.666-.089-.998-.135.016.242.029.482.045.725.033.542.89.729.998.135.072-.381.128-.755.228-1.13-.209.119-.417.237-.625.355.201.04.396.101.587.181.09-.326.18-.653.27-.98-.28-.083-.567-.142-.857-.181-.55-.093-.914.618-.393.93.075.045.151.09.227.137.564.334 1.075-.546.512-.883z"/><path d="m40.524 51.888c.913 1.772.908 3.8 1.404 5.701.406 1.554.621 3.492-.364 4.863-.384.533.5 1.04.878.513 1.023-1.425.872-3.031.64-4.688-.178-1.249-.53-2.458-.701-3.713-.152-1.127-.457-2.18-.979-3.19-.3-.582-1.178-.067-.878.514z"/><path d="m54.896 48.646c.019.174.064.339.138.497.187.51 1.029.473.997-.135-.02-.343-.063-.66-.151-.994-.327.091-.657.18-.982.271.119.322.245.526.492.767.346.337.816.063.869-.359.033-.271.057-.543.09-.814-.332.044-.667.09-.999.135.08.397.092.769.323 1.116.215.325.854.351.929-.122.08-.541.146-1.086.226-1.627-.326 0-.654 0-.979 0 .068.42.068.846 0 1.267.325.09.653.179.979.271.141-.962.235-1.979.764-2.818-.314-.085-.633-.171-.947-.256-.074.716-.287 1.407-.363 2.125-.061.608.813.636 1 .136.337-.901.847-2.113.269-3.014-.197-.307-.693-.354-.881 0-.299.57-.47 1.192-.77 1.763.318.085.63.171.949.257-.037-.392.043-.714.162-1.086.176-.544-.682-.916-.93-.392-.103.214-.213.42-.317.633.313.042.621.081.933.122-.063-.435-.03-.874-.092-1.311-.061-.423-.762-.51-.929-.122-.084.19-.158.378-.233.573.328.09.654.181.982.27.068-.369.19-.718.271-1.085.06-.294-.086-.519-.354-.626-.101-.051-.205-.08-.316-.09-.441-.079-.936.5-.496.85.226.181.77.337.82.635.209-.209.416-.417.625-.626-.279-.038-.465-.187-.555-.444-.176-.332-.706-.331-.88 0-.108.209-.218.418-.315.633.315.085.63.17.945.256-.015-.118-.017-.25-.063-.361-.247-.599-1.229-.337-.979.271.014.029.021.06.023.091.061.434.714.777.949.257.1-.215.207-.424.318-.634-.293 0-.587 0-.88 0 .251.485.634.782 1.164.912.403.1.688-.247.625-.625-.121-.764-.574-.681-1.08-1.083-.165.283-.329.567-.494.85.111.011.217.04.314.091-.115-.208-.234-.416-.354-.626-.076.367-.201.717-.271 1.085-.123.648.752.885.982.27.041-.11.086-.22.129-.33-.312-.041-.62-.081-.93-.122.06.436.028.875.09 1.312.063.432.75.497.932.121.103-.213.213-.419.314-.633-.312-.13-.617-.261-.93-.392-.147.464-.244.868-.198 1.356.043.464.692.744.946.256.3-.571.472-1.194.771-1.763-.297 0-.588 0-.881 0 .383.594-.148 1.638-.369 2.23.334.045.666.089 1.002.135.072-.716.285-1.406.361-2.125.057-.534-.701-.651-.947-.257-.582.921-.711 2.005-.866 3.061-.093.639.879.919.979.271.098-.612.098-1.196 0-1.808-.076-.486-.905-.489-.979 0-.082.542-.145 1.086-.227 1.627.311-.04.619-.081.93-.121-.172-.258-.16-.58-.223-.873-.123-.612-.934-.388-.999.135-.03.271-.055.542-.089.814.289-.12.578-.24.869-.36-.113-.079-.189-.185-.229-.318-.221-.608-1.155-.372-.982.271.079.235.119.476.119.723.333-.044.665-.089.997-.134-.07-.158-.115-.325-.133-.498-.125-.645-1.105-.372-.985.268z"/><path d="m37.03 46.714c1.827.245 4.604.616 5.756 2.234.377.53 1.259.022.878-.513-1.413-1.985-4.388-2.437-6.634-2.739-.648-.086-.639.933 0 1.018z"/><path d="m44.401 50.151c.655 0 .655-1.017 0-1.017-.656 0-.656 1.017 0 1.017z"/><path d="m30.558 76.137c.584-2.11 3.338-3.796 5.479-3.218.633.172.902-.81.271-.98-2.676-.725-5.999 1.281-6.729 3.93-.178.631.804.901.979.268z"/><path d="m29.523 77.076c-.014 0-.028 0-.045 0-.276 0-.508.232-.508.51 0 .276.231.509.508.509h.045c.279 0 .51-.231.51-.509s-.231-.51-.51-.51z"/><path d="m26.173 75.529c-.03.01-.05.01-.08.02-3.58.791-7.15 1.671-10.67 2.721-1.851.551-3.67 1.2-5.5 1.801v-1.431c2.03-.67 4.05-1.38 6.11-1.97 3.239-.92 6.5-1.721 9.779-2.45.861-.191 1.222 1.117.361 1.309z"/><path d="m26.503 80.958c-3.61.799-7.21 1.68-10.75 2.739-1.96.58-3.891 1.271-5.83 1.91v-1.431c.31-.1.61-.2.92-.311 1.83-.609 3.66-1.229 5.52-1.76.811-.23 1.62-.46 2.431-.67.27-.08.529-.15.8-.211 1.729-.46 3.47-.88 5.22-1.279.44-.101.891-.199 1.33-.3.26-.062.48.029.62.181.34.334.329 1.004-.261 1.132z"/><path d="m25.703 81.13c.852-.33 1.758-.438 2.668-.381.874.054.867-1.305 0-1.357-1.016-.061-2.079.061-3.029.434-.804.313-.455 1.627.361 1.304z"/><path d="m44.103 78.894c1.81 1.193 3.807 2.039 5.858 2.713.833.271 1.189-1.035.361-1.309-1.948-.641-3.821-1.443-5.534-2.576-.733-.483-1.412.692-.685 1.172z"/><path d="m45.055 78.444c-1.111-.004-.948 1.713-.948 2.44.443-.059.889-.119 1.333-.18-.14-.527-.162-.996-.067-1.537-.445-.063-.89-.121-1.333-.183-.037 1.188-.271 2.317-.112 3.503.042.307.383.483.656.498.979.059 1.95.561 2.774 1.061.175-.411.351-.825.523-1.238-.884-.321-2.541-.523-2.986-1.451-.254-.529-1.111-.386-1.239.162-.065.287-.087.563-.091.857h1.356c0-.021 0-.045 0-.066-.34.193-.682.389-1.021.585 1.13.806 2.519 1.745 3.938 1.854 1.331.105 2.33-1.871 2.486-2.938.045-.328-.077-.779-.477-.836-1.463-.204-2.542-1.336-4.001-1.559-.526-.08-.941.291-.834.834.164.847.386 1.679.609 2.51.123.453.805.709 1.133.299.972-1.209-.146-2.346-1.316-2.829-.435-.18-.832.263-.856.653-.049.703.089 1.523.896 1.688.687.14 1.343-.35 1.884-.696-.332-.135-.663-.27-.995-.403.117.558.153 1.065.407 1.586.217.442.953.44 1.171 0 .198-.405.327-.822.477-1.247-.444-.061-.89-.12-1.332-.182.05.451.137.838.294 1.267.244.666 1.05.621 1.308 0 .096-.229.193-.442.272-.678-.444-.063-.888-.121-1.331-.181.034.316.101.633.134.947.064.586.958 1.031 1.264.344.055-.121.104-.237.138-.365.226-.848-1.083-1.204-1.309-.36 0 .013 0 .028.001.041.423.114.844.229 1.264.342-.034-.317-.104-.632-.138-.948-.079-.75-1.073-.936-1.333-.18-.076.229-.175.452-.27.678h1.308c-.125-.289-.206-.591-.245-.904-.086-.754-1.069-.935-1.333-.182-.107.313-.193.627-.339.924h1.171c-.188-.389-.183-.847-.271-1.263-.087-.42-.641-.633-.996-.405-.166.105-.33.213-.498.316-.095.059-.194.111-.294.16-.186.095.029.007.049-.299-.286.219-.572.438-.856.654.078.032.797.463.717.563.377.1.756.199 1.133.3-.227-.831-.446-1.663-.609-2.51-.278.276-.557.556-.835.834 1.449.222 2.53 1.354 4.002 1.562-.156-.277-.316-.559-.474-.836-.067.473-.246.867-.489 1.272-.37.616-.697.724-1.337.497-.924-.329-1.807-.932-2.604-1.496-.432-.309-1.021.105-1.021.586v.066c0 .875 1.345.875 1.356 0-.007-.166.007-.332.044-.498-.415.055-.827.106-1.24.164.642 1.334 2.546 1.617 3.797 2.072.744.273 1.159-.852.522-1.238-1.039-.631-2.234-1.174-3.46-1.246.217.166.434.334.652.498-.142-1.045.128-2.099.16-3.144.023-.753-1.202-.94-1.333-.18-.136.782-.136 1.485.069 2.259.195.745 1.329.585 1.332-.182 0-.256.004-.514.012-.771.007-.148.018-.296.032-.441.112-.342-.038-.299-.452.129.877.006.876-1.351.001-1.353z"/><path d="m54.935 81.541c1.191-.465 2.373-.943 3.547-1.449 1.242-.531 2.607-.84 3.734-1.604.721-.488.043-1.665-.684-1.172-.914.618-1.97.844-2.97 1.271-1.324.567-2.648 1.119-3.991 1.644-.803.313-.451 1.628.364 1.31z"/><path d="m61.06 77.628c-1.276-.045-2.401.754-3.639.976.123.437.242.872.363 1.308.854-.25 1.635-.682 2.508-.882.75-.171.582-1.356-.181-1.332-.854.024-1.676.147-2.485.431-.818.287-.476 1.586.358 1.31 1.088-.36 2.146-.794 3.257-1.085-.119-.438-.24-.872-.361-1.311-.49.189-.986.336-1.492.478.176.413.348.825.523 1.239.182-.092.36-.182.541-.271.582-.29.334-1.347-.341-1.266-1.786.218-3.555.576-5.358.611v1.354c.683-.017 1.354-.067 2.035-.135.854-.084.883-1.399 0-1.356-1.004.051-1.98.287-2.984.338-.711.038-.875.868-.341 1.266.43.32.751.636 1.083 1.048.421.522 1.37-.04 1.134-.66-.375-.993-.988-1.138-1.667-1.858-.221.379-.44.756-.661 1.131.724.213 1.391.688 2.146.772.945.104 1.62-.254 2.486-.565-.174-.414-.348-.828-.521-1.242-.435.334-.885.611-1.357.883-.762.439-.087 1.568.685 1.172.629-.322 1.246-.66 1.879-.971.34-.166 2.299-1.24 2.66-.898.635.602 1.594-.357.957-.96-1.482-1.407-4.802.95-6.181 1.657.23.391.459.781.685 1.172.473-.273.926-.552 1.356-.881.558-.43.267-1.526-.521-1.24-.558.2-1.094.508-1.688.566-.665.068-1.568-.579-2.226-.771-.671-.196-1.115.65-.663 1.134.361.381 1.139.779 1.319 1.262.379-.221.757-.44 1.132-.661-.397-.499-.848-.879-1.357-1.261-.111.424-.225.844-.341 1.265 1.004-.052 1.98-.289 2.984-.338 0-.451 0-.904 0-1.356-.681.067-1.353.121-2.035.137-.874.021-.875 1.373 0 1.354 1.808-.034 3.567-.394 5.358-.608-.114-.422-.229-.845-.344-1.265-.182.091-.358.181-.543.272-.699.347-.205 1.441.523 1.238.506-.143 1.002-.289 1.492-.476.801-.308.502-1.535-.361-1.31-1.109.293-2.168.728-3.254 1.086.117.436.237.871.358 1.309.703-.246 1.382-.361 2.127-.383-.061-.445-.118-.889-.182-1.332-.873.197-1.652.63-2.51.882-.851.25-.49 1.459.363 1.308 1.094-.195 2.155-.965 3.274-.926.885.031.881-1.325.008-1.359z"/><path d="m55.457 81.744c2.468.608 4.226-1.613 6.462-2.104.854-.188.492-1.495-.359-1.309-1.869.41-3.758 2.592-5.744 2.104-.849-.209-1.211 1.1-.359 1.309z"/><path d="m50.684 80.57c-.06.006-.119.014-.18.021-.165-.219-.331-.437-.498-.654v.045c.113-.195.224-.391.335-.587-.121.062-.24.122-.361.183.228.391.456.78.686 1.172.344-.231.68-.468 1.04-.68.475-.279.433-1.126-.162-1.238-.558-.107-1.133-.101-1.697-.134-.388-.022-.773-.065-1.153-.139-.498-.099-.658-.042-.362-.449-.312.081-.618.161-.929.242.061.04.119.08.179.121.274-.354.549-.711.822-1.065-.667-.511-1.313-.687-2.15-.636-.87.052-.88 1.335 0 1.356.437.01.834-.004 1.264-.069.776-.116.563-1.327-.179-1.332-.79-.006-1.564.146-2.353.181.196.112.391.225.586.336-.016-.031-.03-.06-.045-.091-.361-.728-1.376-.192-1.239.521.125.66.479 1.504 1.219 1.693.894.229 1.23-.389 1.557-1.123-.414-.175-.826-.351-1.24-.521-.069.398-.104.679-.114 1.084-.013.497.59.865 1.021.584.275-.182.557-.354.837-.53.145-.093.284-.192.418-.301.411-.229.308-.349-.313-.36.655.573 1.619-.383.96-.958-.856-.747-1.898.527-2.586.979.34.195.68.39 1.02.587.021-.243.044-.483.066-.724.123-.703-.906-1.276-1.239-.523-.392.885-.173.406-.298-.246-.412.175-.827.35-1.24.523.015.029.031.061.046.091.101.202.361.345.585.335.788-.033 1.563-.188 2.353-.18-.062-.444-.121-.89-.182-1.332-.3.028-.602.035-.903.021v1.356c.616-.035.979.076 1.467.449.617.473 1.379-.551.82-1.064-.149-.139-.271-.241-.454-.334-.355-.178-.699-.07-.926.244-1.89 2.608 2.734 2.468 4.021 2.716-.054-.414-.106-.827-.163-1.24-.355.211-.694.446-1.039.679-.725.489-.099 1.563.686 1.172.118-.061.239-.121.361-.184.208-.104.335-.355.335-.584 0-.016 0-.031 0-.045 0-.318-.211-.551-.499-.654-.968-.347-1.59.325-1.535 1.288.046.866 1.404.872 1.355-.002z"/><path d="m48.154 78.397c.874 0 .874-1.354 0-1.354-.877-.001-.877 1.354 0 1.354z"/><path d="m59.955 80.046c.379.144.776.147 1.174.092-.285-.221-.57-.438-.857-.653v.045c.109-.194.224-.393.338-.587-.299.178-.596.381-.819.648-.232.283-.277.681 0 .961.246.242.723.283.963 0 .055-.069.113-.131.178-.189.021-.019.158-.128.023-.027.045-.03.088-.062.131-.09.112-.078.248-.139.344-.235.143-.145.201-.327.201-.524 0-.181-.074-.354-.201-.479-.188-.189-.412-.211-.658-.176.181-.027.004-.008-.03-.006-.035 0-.271-.021-.087.004-.114-.017-.229-.048-.338-.089-.344-.132-.741.142-.832.474-.11.379.124.702.47.831z"/><path d="m47.359 85.542c-.181-.61-.309-1.232-.45-1.854-.196-.854-1.505-.492-1.309.359.141.621.269 1.244.451 1.854.25.838 1.56.481 1.308-.359z"/><path d="m48.851 78.852c-.338.177-.618.45-.859.739-.238.283-.279.681 0 .961.242.242.719.281.956 0 .101-.119.202-.229.312-.336.023-.021.047-.043.072-.064.123-.107-.12.085.009-.01.062-.046.127-.083.195-.118.33-.172.422-.621.242-.928-.194-.331-.601-.415-.927-.244z"/><path d="m55.636 76.33c1.836.03 3.659-.187 5.493-.203.654-.006.658-1.022 0-1.019-1.834.019-3.656.235-5.493.204-.657-.012-.655 1.008 0 1.018z"/><path d="m54.212 76.33c.655 0 .655-1.018 0-1.018-.657 0-.657 1.018 0 1.018z"/><path d="m14.967 83.889c-.17.307-.281.643-.452.948-.178.324-.08.736.244.93.313.184.75.08.928-.245.17-.308.282-.642.453-.948.178-.324.081-.738-.244-.929-.313-.183-.75-.079-.929.244z"/><path d="m18.447 85.226c-.001.066-.005.135-.012.203.015-.141-.018.074-.021.086-.031.146-.078.292-.124.436-.116.351.13.738.473.834.37.103.719-.121.834-.474.116-.353.198-.714.206-1.085.008-.369-.313-.68-.678-.68-.375 0-.67.311-.678.68z"/><path d="m14.668 86.399c1.251.664 2.745.839 4.14.908.875.04.872-1.313 0-1.356-1.146-.059-2.425-.176-3.455-.723-.773-.411-1.458.761-.685 1.171z"/><path d="m29.362 56.261c-1.256 1.091-3.69.704-5.127.459-.854-.146-1.222 1.162-.36 1.309 2.008.342 4.757.662 6.447-.808.66-.575-.304-1.53-.96-.96z"/><path d="m22.019 57.418c.875 0 .875-1.355 0-1.355-.874 0-.874 1.355 0 1.355z"/><path d="m34.999 60.996c-.007-.033-.014-.066-.02-.1.008.049.009.045.004-.019-.009-.227-.149-.429-.374-.49-.266-.073-.555.087-.627.354-.043.165-.066.339-.052.509.023.228.14.426.374.49.27.074.551-.089.626-.356.088-.306.088-.624 0-.932-.208.208-.417.417-.626.626.228.077.462.054.696.052.227-.004.43-.154.49-.375.067-.245-.081-.582-.356-.626-.129-.019-.257-.033-.389-.034-.277 0-.509.233-.509.509 0 .277.23.509.509.509.02 0 .21.013.119-.003.045-.332.09-.665.136-.998-.081.001-.16.006-.238.008-.048.002-.095 0-.143-.002.108.005-.021-.014-.044-.022-.371-.127-.727.271-.625.626.011.033.02.067.025.102.038.152 0-.086.007.068 0 .006-.011.169.004.068-.008.05-.021.103-.036.153.334.045.667.09 1 .136-.006-.05-.008-.098-.006-.148.006-.061.005-.061-.002-.002.008-.029.015-.059.023-.088-.333-.045-.667-.09-1-.136.004.132.027.261.052.39.056.272.374.425.626.355.282-.076.41-.351.356-.624z"/><path d="m31.286 54.614c1.053-1.069 3.449-.954 4.813-.642 2.269.52 4.615 1.979 5.053 4.44.115.645 1.096.372.981-.271-.509-2.856-3.179-4.469-5.765-5.151-1.695-.446-4.491-.429-5.803.904-.458.468.261 1.188.721.72z"/><path d="m48.291 64.902c.722 2.102 2.245 3.465 3.931 4.859 1.73 1.43 3.613 2.626 5.598 3.662.582.304 1.097-.574.517-.879-1.537-.805-2.974-1.684-4.358-2.729-1.863-1.401-3.922-2.905-4.705-5.185-.216-.617-1.199-.351-.983.272z"/><path d="m61.06 72.337c-.305-.039-.576-.035-.877.021-.512.092-.467.857 0 .98.398.104.781.115 1.185 0 .286-.084.504-.478.305-.748-.035-.045-.068-.09-.104-.135-.061.23-.121.463-.184.695.125-.095.234-.175.375-.238.545-.25.145-1.052-.393-.93-.964.217-1.925.402-2.834.798-.601.261-.085 1.138.514.878.82-.356 1.723-.498 2.59-.693-.129-.313-.26-.621-.391-.93-.142.063-.25.144-.373.236-.203.15-.363.456-.185.696.033.045.068.09.103.135.104-.249.203-.497.303-.746-.234.067-.404.063-.643 0v.979c.207-.039.405-.008.608.019.651.086.644-.931.001-1.017z"/></g><circle cx="66.962" cy="74.143" fill="#8e2abe" r=".408"/><path d="m70.976 76.274c0 .224-.184.406-.41.406-.223 0-.405-.183-.405-.406 0-.226.184-.407.405-.407.226-.001.41.181.41.407z" fill="#8e2abe"/><circle cx="68.984" cy="76.274" fill="#8e2abe" r=".406"/><circle cx="97.568" cy="75.232" fill="#8e2abe" r=".406"/><circle cx="98.94" cy="75.232" fill="#8e2abe" r=".407"/><circle cx="67.625" cy="76.274" fill="#8e2abe" r=".407"/><circle cx="79.181" cy="75.798" fill="#8e2abe" r=".406"/><circle cx="80.854" cy="75.693" fill="#8e2abe" r=".407"/><circle cx="96.275" cy="75.232" fill="#8e2abe" r=".406"/><path d="m65.019 75.142c.873 0 .873-1.354 0-1.354-.877.001-.877 1.354 0 1.354z" fill="#8e2abe"/><path d="m65.154 76.884c.875 0 .875-1.356 0-1.356s-.875 1.356 0 1.356z" fill="#8e2abe"/><path d="m64.826 78.782c.873 0 .873-1.354 0-1.354s-.873 1.354 0 1.354z" fill="#3e00ff"/><path d="m70.591 76.68-.047-.811 8.694-.476.047.814z" fill="#8e2abe"/><path d="m88.152 67.748h.813v15.427h-.813z" fill="#8e2abe" transform="matrix(-.0288 -.9996 .9996 -.0288 15.6813 166.1593)"/><circle cx="71.341" cy="73.95" fill="#8e2abe" r=".406"/><circle cx="69.754" cy="73.981" fill="#8e2abe" r=".407"/><path d="m92.757 72.453c.002.227-.174.411-.4.414-.225.006-.41-.172-.414-.396s.175-.411.396-.416c.225-.004.411.174.418.398z" fill="#8e2abe"/><circle cx="93.719" cy="72.435" fill="#8e2abe" r=".405"/><circle cx="68.398" cy="74.008" fill="#8e2abe" r=".408"/><circle cx="79.943" cy="73.312" fill="#8e2abe" r=".406"/><circle cx="81.613" cy="73.173" fill="#8e2abe" r=".406"/><circle cx="91.056" cy="72.486" fill="#8e2abe" r=".406"/><path d="m75.277 69.275h.815v8.705h-.815z" fill="#8e2abe" transform="matrix(-.0743 -.9972 .9972 -.0743 7.8848 154.574)"/><path d="m85.925 68.095h.815v9.466h-.815z" fill="#8e2abe" transform="matrix(-.0719 -.9974 .9974 -.0719 19.903 164.1747)"/><circle cx="66.928" cy="78.133" fill="#3e00ff" r=".407"/><circle cx="71.307" cy="78.286" fill="#3e00ff" r=".408"/><path d="m70.13 78.214c-.012.226-.207.396-.433.383-.223-.012-.393-.206-.379-.432.013-.224.205-.393.431-.381.225.014.395.207.381.43z" fill="#3e00ff"/><circle cx="94.802" cy="78.642" fill="#3e00ff" r=".409"/><path d="m96.576 78.667c-.013.224-.207.396-.429.383-.225-.014-.397-.207-.385-.432.016-.225.207-.395.43-.382.227.014.397.208.384.431z" fill="#3e00ff"/><circle cx="68.371" cy="78.111" fill="#3e00ff" r=".407"/><circle cx="79.933" cy="78.324" fill="#3e00ff" r=".409"/><path d="m82.013 78.341c-.01.224-.203.396-.43.382-.226-.013-.394-.206-.381-.431.014-.226.205-.396.432-.383.225.014.393.21.379.432z" fill="#3e00ff"/><path d="m93.916 78.589c-.013.226-.203.396-.431.385-.225-.018-.393-.207-.383-.432.015-.228.207-.397.433-.385.222.014.396.21.381.432z" fill="#3e00ff"/><path d="m71.308 78.287 8.705.045" fill="none"/><path d="m71.31 77.899h8.705v.814h-8.705z" fill="#3e00ff" transform="matrix(-1 -.0047 .0047 -1 150.9549 156.9679)"/><path d="m81.609 78.316 11.902.249" fill="none"/><path d="m81.608 78.039h11.907v.813h-11.907z" fill="#3e00ff" transform="matrix(-.9998 -.0212 .0212 -.9998 173.444 158.7269)"/><path d="m65.085 72.966c.875 0 .875-1.355 0-1.355s-.875 1.355 0 1.355z" fill="#3e00ff"/><circle cx="67.171" cy="72.032" fill="#3e00ff" r=".407"/><circle cx="71.531" cy="71.589" fill="#3e00ff" r=".407"/><path d="m70.359 71.681c.019.223-.153.418-.377.436-.227.016-.418-.15-.436-.373-.021-.226.147-.421.373-.438.225-.017.418.151.44.375z" fill="#3e00ff"/><path d="m95.263 68.726c.021.225-.15.42-.377.438-.221.017-.416-.15-.434-.375-.017-.226.149-.42.373-.438.225-.018.423.15.438.375z" fill="#3e00ff"/><path d="m96.619 68.542c.02.222-.15.416-.375.435-.224.017-.418-.149-.437-.374-.016-.225.15-.42.375-.438.222-.017.421.151.437.377z" fill="#3e00ff"/><circle cx="68.599" cy="71.814" fill="#3e00ff" r=".407"/><circle cx="80.083" cy="70.457" fill="#3e00ff" r=".407"/><circle cx="81.743" cy="70.224" fill="#3e00ff" r=".406"/><path d="m93.974 68.826c.021.225-.149.418-.375.436-.223.018-.418-.149-.436-.374-.019-.226.149-.421.373-.437.223-.018.422.149.438.375z" fill="#3e00ff"/><path d="m71.531 71.587 8.633-1.136" fill="none"/><path d="m71.585 71.992-.107-.805 8.635-1.139.101.808z" fill="#3e00ff"/><path d="m81.742 70.225 11.828-1.37" fill="none"/><path d="m87.251 63.584h.812v11.904h-.812z" fill="#3e00ff" transform="matrix(-.1178 -.993 .993 -.1178 28.9332 164.7746)"/></svg>