<svg enable-background="new 0 0 110.979 128.417" viewBox="0 0 110.979 128.417" xmlns="http://www.w3.org/2000/svg"><path d="m55.698 127.833-55.115-31.821v-63.641l55.115-31.821 55.115 31.821v63.641z" fill="#050a32"/><g fill="#26ffad"><path d="m55.697 10.622-46.462 26.786v53.57l46.461 26.783 46.464-26.783v-53.57zm44.583 79.277-44.583 25.705-44.585-25.705v-51.401l44.585-25.705 44.583 25.705z"/><path d="m54.183 77.798c-5.075 0-9.205-4.129-9.205-9.204s4.129-9.204 9.205-9.204c5.075 0 9.204 4.129 9.204 9.204.001 5.075-4.128 9.204-9.204 9.204zm0-17.554c-4.604 0-8.351 3.746-8.351 8.35s3.746 8.35 8.351 8.35c4.604 0 8.35-3.746 8.35-8.35.001-4.604-3.745-8.35-8.35-8.35z"/><path d="m50.53 62.307c.972.129 1.762 1.361 2.575 1.865.792.491 1.505.21 2.027-.495.137-.185-.172-.362-.307-.18-1.324 1.787-2.878-1.359-4.294-1.547-.228-.029-.225.327-.001.357z"/><path d="m54.824 63.678c.899 1.288.79 2.462.512 3.919-.157.819-.148 1.558.235 2.308.105.204.412.024.307-.18-.557-1.088-.108-2.114.016-3.238.125-1.141-.105-2.046-.763-2.989-.13-.186-.438-.009-.307.18z"/><path d="m55.447 65.285c-.224 1.394-1.38 2.363-1.672 3.736-.048.224.295.319.343.095.292-1.372 1.448-2.336 1.672-3.736.036-.225-.307-.321-.343-.095z"/><path d="m55.678 64.72c.41.093.818.203 1.21.356.214.083.306-.261.095-.343-.392-.153-.8-.263-1.21-.356-.224-.05-.319.293-.095.343z"/><path d="m55.162 64.003c-.145.505-.465.907-.915 1.175-.197.117-.018.425.18.307.528-.315.909-.795 1.078-1.387.064-.221-.28-.315-.343-.095z"/><path d="m55.564 63.244c.479.26 1.047.32 1.56.125.212-.081.12-.425-.095-.343-.427.162-.885.129-1.286-.089-.201-.11-.38.197-.179.307z"/><path d="m52.428 65.681c.801-.297 1.433-.848 1.921-1.541.132-.188-.177-.366-.307-.18-.43.612-1.001 1.115-1.708 1.377-.214.08-.122.424.094.344z"/><path d="m53.732 61.738c.018.897.407 1.758 1.305 2.057.218.073.311-.271.095-.343-.742-.248-1.029-.986-1.044-1.714-.004-.23-.36-.23-.356 0z"/><path d="m52.44 63.595c-.301.071-.607.296-.826.508-.165.16.087.411.251.252.177-.171.426-.359.669-.417.224-.053.129-.397-.094-.343z"/><path d="m55.47 63.742c.359-1.14.957-2.241 2.053-2.811.203-.106.024-.413-.18-.307-1.176.612-1.831 1.8-2.217 3.024-.069.219.275.312.344.094z"/><path d="m50.547 15.534c2.708 2.783 6.602 4.228 9.654 6.59 1.416 1.096 2.939 2.568 2.935 4.485-.004 2.155-2.229 4.297-3.489 5.837-1.257 1.536-2.413 3.134-3.071 5.025-.841 2.415-.228 5.054-.126 7.537.251 6.094-.641 12.165-1.538 18.178-.034.224.309.321.343.095.879-5.894 1.719-11.81 1.567-17.783-.077-3.025-.784-5.976.457-8.86.945-2.196 2.689-3.923 4.122-5.796 1.025-1.339 2.197-2.914 2.076-4.689-.103-1.501-1.272-2.749-2.326-3.699-3.124-2.815-7.417-4.154-10.353-7.171-.16-.166-.412.086-.251.251z"/><path d="m53.749 13.142c1.741 1.317 3.625 2.375 5.49 3.5 2.252 1.359 4.052 3.065 5.569 5.215 1.203 1.706 1.897 3.706 1.267 5.759-.547 1.78-2.006 3.228-3.221 4.575-1.168 1.295-2.305 2.605-3.215 4.099-1.225 2.012-1.716 4.31-1.917 6.63-.227 2.608-.053 5.236-.241 7.848-.217 3.017-1.443 5.675-2.14 8.574-.054.223.289.318.343.095.625-2.599 1.697-5.019 2.054-7.688.391-2.921.139-5.895.34-8.829.2-2.92 1.119-5.556 2.851-7.911 1.231-1.674 2.762-3.102 4.04-4.738 2.324-2.976 2.003-5.962-.122-8.975-2.806-3.978-7.158-5.617-10.917-8.462-.184-.138-.361.171-.181.308z"/><path d="m55.097 77.205c.615 2.706 1.43 5.359 2.135 8.042.116.444.803.255.686-.189-.705-2.683-1.52-5.336-2.135-8.042-.101-.448-.787-.258-.686.189z"/><path d="m57.789 86.575c.459 0 .459-.712 0-.712s-.459.712 0 .712z"/><path d="m57.292 77.076c.672 1.198 1.355 2.389 1.993 3.606.213.407.827.047.614-.359-.637-1.217-1.321-2.408-1.993-3.606-.224-.4-.839-.041-.614.359z"/><path d="m60.351 81.855c.459 0 .459-.712 0-.712s-.459.712 0 .712z"/><path d="m60.1 75.677c.607.657 1.219 1.311 1.85 1.945.324.326.827-.178.503-.503-.631-.634-1.243-1.288-1.85-1.945-.312-.338-.814.167-.503.503z"/><path d="m63.008 78.439c.459 0 .459-.712 0-.712s-.459.712 0 .712z"/><path d="m61.453 74.167c1.824.946 3.591 1.995 5.361 3.037.396.234.754-.382.359-.614-1.77-1.042-3.537-2.09-5.361-3.037-.407-.211-.767.403-.359.614z"/><path d="m68.369 78.106c.459 0 .459-.712 0-.712s-.459.712 0 .712z"/><path d="m62.819 71.736c2.957.686 5.927 1.333 8.92 1.85.449.078.641-.608.189-.686-2.992-.517-5.962-1.164-8.92-1.85-.447-.104-.636.582-.189.686z"/><path d="m73.659 73.575c0-.016 0-.031 0-.047 0-.459-.712-.459-.712 0v.047c.001.459.712.459.712 0z"/><path d="m63.008 69.756h10.913c.459 0 .459-.712 0-.712-3.638 0-7.275 0-10.913 0-.459 0-.459.712 0 .712z"/><path d="m75.581 69.187c-.016 0-.032 0-.048 0-.459 0-.459.712 0 .712h.048c.459-.001.459-.712 0-.712z"/><path d="m63.198 67.229c2.073-.309 4.094-.853 6.12-1.376.444-.115.256-.801-.189-.686-2.027.522-4.048 1.067-6.12 1.376-.453.067-.26.753.189.686z"/><path d="m70.504 65.581c.459 0 .459-.712 0-.712s-.459.712 0 .712z"/><path d="m62.429 65.105c2.897-2.007 6.06-3.572 9.062-5.409.391-.239.033-.855-.359-.614-3.002 1.837-6.165 3.401-9.062 5.409-.375.259-.02.876.359.614z"/><path d="m72.687 58.891c.459 0 .459-.712 0-.712s-.459.712 0 .712z"/><path d="m61.417 63.222c.694-.927 1.503-1.764 2.364-2.538.342-.307-.163-.809-.503-.503-.908.816-1.744 1.704-2.475 2.682-.275.368.343.722.614.359z"/><path d="m64.621 59.128c-.016 0-.031 0-.047 0-.459 0-.459.712 0 .712h.047c.459 0 .459-.712 0-.712z"/><path d="m59.662 61.229c.342-.477.771-.888 1.225-1.257.357-.289-.15-.79-.503-.503-.505.41-.958.871-1.337 1.401-.267.374.351.729.615.359z"/><path d="m61.537 59.128c.459 0 .459-.712 0-.712-.459.001-.459.712 0 .712z"/><path d="m57.709 60.542c1.552-1.885 2.663-4.114 4.412-5.836.327-.322-.176-.825-.503-.503-1.753 1.725-2.859 3.948-4.412 5.836-.29.351.211.858.503.503z"/><path d="m63.008 53.388c.459 0 .459-.712 0-.712s-.459.712 0 .712z"/><path d="m53.495 77.656c.123 1.978.006 3.953-.048 5.931-.012.459.699.458.712 0 .054-1.978.17-3.953.048-5.931-.028-.456-.74-.459-.712 0z"/><path d="m53.756 85.223c.459 0 .459-.712 0-.712-.459.001-.459.712 0 .712z"/><path d="m51.326 77.371c-.244.967-.515 1.927-.759 2.894-.112.445.574.634.686.189.244-.967.515-1.927.759-2.894.112-.445-.574-.633-.686-.189z"/><path d="m50.34 80.811c-.016 0-.032 0-.048 0-.459 0-.459.712 0 .712h.048c.459-.001.459-.712 0-.712z"/><path d="m49.369 75.863c-.799 1.721-1.448 3.504-2.171 5.257-.175.424.514.607.686.189.7-1.696 1.326-3.421 2.099-5.087.192-.413-.421-.775-.614-.359z"/><path d="m46.782 82.661c.237-.006.397-.166.403-.403.013-.459-.699-.458-.712 0 .002-.018.004-.036.007-.053.083-.083.166-.166.249-.249.018-.002.036-.004.053-.007-.458.013-.459.724 0 .712z"/><path d="m47.328 74.724c-1.002 1.64-2.198 3.136-3.408 4.625-.287.353.214.86.503.503 1.248-1.536 2.485-3.078 3.519-4.769.241-.392-.374-.75-.614-.359z"/><path d="m42.725 80.455v.048c0 .459.712.459.712 0 0-.016 0-.032 0-.048 0-.459-.712-.459-.712 0z"/><path d="m46.483 73.181c-1.36 1.441-2.843 2.755-4.27 4.128-.331.319.172.821.503.503 1.427-1.372 2.911-2.687 4.27-4.128.315-.333-.188-.837-.503-.503z"/><path d="m41.397 78.51c0-.016 0-.032 0-.048 0-.459-.712-.459-.712 0v.048c0 .459.712.459.712 0z"/><path d="m44.209 72.934c.605-.281 1.197-.582 1.756-.949.382-.25.026-.867-.359-.614-.559.366-1.15.668-1.756.949-.416.192-.054.805.359.614z"/><path d="m42.417 73.552h.047c.459 0 .459-.712 0-.712-.016 0-.031 0-.047 0-.459 0-.459.712 0 .712z"/><path d="m36.771 69.566c2.917.1 5.861.228 8.778.048.456-.028.459-.74 0-.712-2.916.18-5.86.053-8.778-.048-.459-.015-.458.696 0 .712z"/><path d="m34.931 69.115c.003-.009.006-.018.008-.028-.054.071-.109.142-.163.213-.031.01-.062.019-.093.029.458-.01.459-.721 0-.712-.21.004-.376.098-.438.309-.131.441.556.628.686.189z"/><path d="m38.408 64.643c1.358.358 2.715.72 4.057 1.139.439.137.626-.55.189-.686-1.341-.419-2.698-.781-4.057-1.139-.444-.117-.633.569-.189.686z"/><path d="m36.652 63.375c.459 0 .459-.712 0-.712s-.459.712 0 .712z"/><path d="m37.825 57.561c3.051 1.803 6.072 3.655 9.109 5.48.394.237.752-.379.359-.614-3.037-1.825-6.059-3.677-9.109-5.48-.396-.234-.754.381-.359.614z"/><path d="m35.831 55.869.071.071c.325.325.828-.178.503-.503-.024-.024-.048-.048-.071-.071-.324-.325-.828.178-.503.503z"/><path d="m46.008 57.008c.581.509 1.16 1.021 1.708 1.566.326.324.829-.18.503-.503-.548-.545-1.126-1.057-1.708-1.566-.343-.301-.849.2-.503.503z"/><path d="m52.38 59.816c-.358-2.76-.656-5.528-1.08-8.279-.07-.452-.756-.259-.686.19.415 2.688.705 5.393 1.055 8.089.058.449.77.455.711 0z"/><path d="m50.388 50.28v.071c0 .459.712.459.712 0 0-.024 0-.048 0-.071-.001-.459-.712-.459-.712 0z"/><path d="m44.552 55.902c.459 0 .459-.712 0-.712s-.459.712 0 .712z"/><path d="m52.409 14.387c2.17 1.387 4.487 2.517 6.684 3.859 2.199 1.343 5.094 3.421 5.95 5.999.072.217.416.124.343-.095-.773-2.327-3.159-4.216-5.092-5.551-2.452-1.694-5.196-2.916-7.705-4.519-.194-.124-.373.184-.18.307z"/><path d="m65.404 25.229c-.002 0-.004-.001-.006-.001-.041-.041-.083-.083-.124-.124 0-.002-.001-.004-.001-.006.006.229.362.23.356 0-.004-.14-.086-.222-.225-.225-.23-.006-.229.35 0 .356z"/></g><path d="m9.656 42.806c4.403 1.56 8.306.58 11.728-2.501 1.654-1.489 3.063-3.235 4.551-4.883.741-.82 1.508-1.612 2.325-2.357.657-.599 1.993-1.982 2.957-1.982-.059-.221-.12-.442-.18-.663-.038.021-.077.042-.116.063-.403.22-.044.834.359.614.038-.021.077-.042.116-.063.315-.172.168-.663-.18-.663-1.504 0-3.336 2.038-4.325 3.009-1.595 1.566-2.996 3.319-4.525 4.949-1.44 1.535-3.025 2.945-4.948 3.838-2.429 1.128-5.122.82-7.573-.048-.433-.152-.619.535-.189.687z" fill="#fff"/><path d="m27.092 29.653c6.929 1.643 13.571 5.775 16.749 12.335 3.312 6.834.042 14.724-1.887 21.472-.899 3.146-1.705 6.39-1.671 9.683.029 2.769.514 5.532 1.181 8.212 1.595 6.405 4.531 12.499 8.159 17.99 3.402 5.15 7.617 9.809 12.61 13.456.371.271.726-.347.359-.614-5.816-4.248-10.478-9.892-14.146-16.056-3.372-5.666-5.933-11.953-7.031-18.473-.534-3.168-.523-6.273.086-9.431.689-3.571 1.891-7.03 2.87-10.527.918-3.282 1.668-6.658 1.565-10.085-.097-3.231-1.338-6.235-3.17-8.86-3.57-5.115-9.518-8.372-15.486-9.787-.445-.108-.634.578-.188.685z" fill="#fff"/><path d="m44.529 43.722c2.155 3.468 6.65 4.866 10.369 5.86 4.621 1.235 9.381 1.751 14.077 2.609 5.528 1.01 11.063 2.21 16.368 4.09 2.865 1.016 5.637 2.295 8.209 3.919 2.629 1.66 5.471 3.996 6.963 6.77.217.404.832.045.614-.359-2.539-4.721-8.052-7.93-12.824-9.933-5.54-2.326-11.414-3.664-17.292-4.815-4.477-.877-9.012-1.419-13.473-2.38-4.208-.906-9.946-2.176-12.396-6.12-.242-.389-.858-.032-.615.359z" fill="#fff"/><path d="m61.752 31.49c-.868 1.453-1.718 2.916-2.633 4.341.205.12.41.239.614.359.456-.785.905-1.573 1.345-2.367.452-.815.851-2.232 1.499-2.881.325-.325-.178-.828-.503-.503-.81.81-1.387 2.082-1.94 3.076-.654 1.175-1.18 2.414-1.62 3.682-.133.383.465.63.65.274.864-1.658 1.689-3.332 2.42-5.053.175-.411-.369-.763-.614-.359-1.207 1.98-2.441 3.941-3.416 6.049.205.12.41.239.614.359.724-1.637 1.313-3.326 1.957-4.995.147-.381-.461-.623-.65-.274-.786 1.45-1.457 2.925-1.957 4.497-.142.446.522.606.686.19.487-1.233.855-2.497 1.21-3.772.106-.381-.474-.646-.65-.274-.624 1.312-1.233 2.613-1.673 3.999.229.063.457.126.686.19.177-.701.41-1.38.641-2.064.149-.441-.523-.608-.686-.19-.886 2.273-1.006 4.656-1.08 7.069-.014.462.679.453.712 0 .078-1.093.202-2.181.285-3.274-.237 0-.475 0-.712 0-.072 1.233-.141 2.467-.214 3.701-.027.459.682.455.712 0 .122-1.873-.017-3.722-.297-5.575-.066-.433-.653-.264-.699.095-.196 1.539-.21 3.078-.142 4.626.021.471.655.444.712 0 .307-2.398.926-4.712 1.838-6.951.153-.375-.47-.631-.65-.274-.318.627-.555 1.284-.819 1.935.229.063.457.126.686.19.042-.291.029-1.063.193-1.267-.186-.144-.373-.287-.559-.431-.675 1.029-.837 2.091-1.032 3.287-.073.449.612.642.686.19.185-1.132.315-2.133.96-3.118.22-.335-.305-.748-.559-.431-.319.398-.306 1.094-.376 1.58-.066.455.513.618.686.19.24-.593.457-1.194.747-1.766-.217-.091-.433-.183-.65-.274-.938 2.302-1.547 4.676-1.863 7.14h.712c-.068-1.548-.053-3.087.142-4.626-.233.031-.466.063-.699.095.271 1.79.39 3.577.272 5.385h.712c.072-1.233.142-2.467.214-3.701.027-.46-.677-.453-.712 0-.082 1.092-.207 2.181-.285 3.274h.712c.073-2.349.192-4.667 1.055-6.88-.229-.063-.457-.126-.686-.19-.231.684-.464 1.364-.641 2.064-.113.447.548.625.686.19.421-1.327 1.005-2.575 1.601-3.829-.217-.091-.433-.183-.65-.274-.355 1.275-.723 2.54-1.21 3.772.229.063.457.126.686.19.482-1.513 1.13-2.933 1.886-4.328-.217-.091-.433-.183-.65-.274-.622 1.612-1.187 3.245-1.886 4.826-.183.414.421.778.614.359.975-2.109 2.209-4.069 3.416-6.049-.205-.12-.409-.239-.614-.359-.731 1.721-1.556 3.395-2.42 5.053.217.091.433.183.65.274.423-1.217.944-2.377 1.549-3.512.499-.937 1.074-2.177 1.829-2.932.325-.325-.178-.828-.503-.503-.488.488-.768 1.449-1.09 2.063-.591 1.126-1.227 2.23-1.865 3.329-.232.399.368.743.614.359.915-1.425 1.765-2.888 2.633-4.341.233-.397-.382-.755-.617-.361z" fill="#26ffad"/><path d="m59.601 33.411c-.367.418-.76.809-1.131 1.223-.136.152-.501 1.038-.638 1.097.174.071.349.142.523.212-.021-.063 1.122-1.48 1.245-1.651.548-.759 1.153-1.47 1.786-2.157-.168-.168-.336-.335-.503-.503-.41.493-.806.997-1.21 1.495-.285.351.205.856.503.503 1.778-2.104 3.292-4.372 4.006-7.06.118-.445-.558-.629-.686-.19-.546 1.87-1.27 3.674-1.993 5.48-.152.378.464.625.65.274.861-1.62 1.833-3.169 2.847-4.697-.205-.12-.409-.239-.614-.359-.813 1.588-1.504 3.234-2.42 4.768-.205.344.283.733.559.431.749-.818 1.491-1.642 2.206-2.491-.186-.144-.373-.287-.559-.431-1.44 1.917-3.029 3.702-4.784 5.337-.336.313.168.816.503.503 1.8-1.677 3.418-3.515 4.895-5.481.243-.323-.3-.739-.559-.431-.715.848-1.457 1.672-2.206 2.491.186.144.372.287.559.431.916-1.534 1.607-3.18 2.42-4.768.21-.41-.361-.741-.614-.359-1.014 1.528-1.986 3.077-2.847 4.697.217.091.433.183.65.274.723-1.806 1.447-3.611 1.993-5.48-.229-.063-.457-.126-.686-.19-.684 2.575-2.12 4.733-3.823 6.746.168.168.336.335.503.503.404-.498.8-1.002 1.21-1.495.289-.347-.188-.845-.503-.503-.783.851-1.498 1.748-2.174 2.685-.266.369-1.206 1.317-1.04 1.816.079.237.306.305.523.212.119-.051.177-.121.226-.239.373-.895 1.066-1.483 1.688-2.192.3-.342-.201-.847-.505-.501z" fill="#26ffad"/><path d="m56.65 55.866c.546-4.807.753-9.617.427-14.447-.031-.455-.743-.458-.712 0 .326 4.83.119 9.64-.427 14.447-.051.456.661.451.712 0z" fill="#26ffad"/><path d="m58.229 37.837c-1.918 5.231-.512 10.913-1.993 16.226-.123.443.563.631.686.19 1.482-5.314.078-11.003 1.993-16.226.158-.432-.53-.617-.686-.19z" fill="#26ffad"/><path d="m58.381 38.891c-.166-.268-.369-.542-.718-.382-.139.064-.183.23-.199.365-.005.043-.007.086-.008.13-.001.022-.002.044-.003.067.016-.197.188-.257.516-.181.031.115.061.231.091.346.084-.47.052-.971.214-1.423.156-.438-.521-.608-.686-.19-.229.58-.229 1.246 0 1.826.167.421.855.238.686-.19-.189-.479-.189-.968 0-1.447-.229-.063-.457-.126-.686-.19-.108.302-.13.631-.16.947-.024.251-.16.653.061.842.194.167.479.146.614-.086.051-.088.058-.191.064-.29.002-.034.002-.068.004-.102.001-.011.001-.021.002-.032-.002.089-.048.16-.137.214-.091.012-.183.024-.274.036-.092-.065-.12-.079-.084-.043.031.045.061.092.09.14.24.392.855.035.613-.357z" fill="#26ffad"/><path d="m51.183 15.823c.212.798 1.102 1.294 1.752 1.696 1.348.835 2.786 1.525 4.164 2.31 3.655 2.081 8.242 5.861 5.578 10.594-.225.401.389.759.614.359 2.106-3.74-.105-7.557-3.165-9.857-1.567-1.178-3.325-2.088-5.045-3.015-.848-.457-2.933-1.225-3.212-2.276-.118-.444-.804-.256-.686.189z" fill="#26ffad"/><path d="m61.085 32.344c-.066-.193-.002-.299.191-.319-.084-.203-.168-.405-.252-.607-.679.742-1.448 1.395-2.048 2.207-.241.326.294.732.559.431 1.068-1.213 2.111-2.447 3.131-3.701.287-.352-.213-.859-.503-.503-1.021 1.253-2.064 2.488-3.131 3.701.186.144.372.287.559.431.562-.76 1.302-1.368 1.937-2.063.212-.232.064-.595-.252-.607-.718-.029-1.224.801-.805 1.389.263.371.881.016.614-.359z" fill="#26ffad"/><path d="m61.03 34.625c2.724-3.522 7.956-8.441 3.416-12.673-.335-.312-.84.19-.503.503 4.159 3.876-.956 8.486-3.416 11.667-.278.358.222.866.503.503z" fill="#26ffad"/><path d="m64.845 28.277c.193-1.261.374-2.518.393-3.796-.237 0-.475 0-.712 0 .046.965.083 1.928.047 2.894-.017.461.684.454.712 0 .058-.937.182-1.867.285-2.799-.237 0-.475 0-.712 0 .201 1.737-.11 3.516-1.461 4.73.198.115.396.231.595.346.462-1.552.525-3.141.345-4.744-.05-.45-.761-.457-.712 0 .078.726.061 1.454.095 2.183.022.468.661.448.712 0 .068-.598-.177-.855-.531-1.295-.288-.358-.788.15-.503.503.215.267.374.342.323.792h.712c-.034-.728-.017-1.457-.095-2.183-.237 0-.475 0-.712 0 .173 1.543.126 3.059-.319 4.555-.106.358.34.575.595.346 1.479-1.329 1.891-3.319 1.67-5.234-.053-.456-.661-.459-.712 0-.103.933-.227 1.862-.285 2.799h.712c.036-.967-.001-1.929-.047-2.894-.022-.456-.705-.461-.712 0-.018 1.214-.183 2.408-.367 3.606-.071.45.615.643.684.191z" fill="#26ffad"/><path d="m53.173 14.73c.558.388 1.146.741 1.756 1.044.414.206.734-.352.359-.614-.679-.475-1.321-.995-1.968-1.51-.144.186-.287.372-.431.559 1.329.623 2.633 1.283 3.891 2.04.12-.205.239-.41.359-.614-.984-.433-1.843-.976-2.68-1.652-.116.198-.231.396-.346.595 1.176.373 2.227.921 3.236 1.625.12-.205.239-.41.359-.614-1.219-.672-2.384-1.413-3.511-2.23-.327-.237-.738.299-.431.559 1.843 1.563 3.884 2.847 5.86 4.231.335.234.721-.285.431-.559-.727-.686-1.447-1.37-2.23-1.993-.144.186-.287.373-.431.559 1.577 1.086 3.021 2.294 4.142 3.858.205-.12.41-.24.614-.359-.335-.441-.661-.888-.996-1.329-.186.144-.373.287-.559.431 1.081 1.036 1.9 2.245 2.649 3.534.231.397.837.042.614-.359-.32-.576-.61-1.165-.902-1.756-.186.144-.372.287-.559.431.601.633 1.221 1.247 1.803 1.898.276.308.754-.086.559-.431-.29-.513-.596-1.015-.902-1.518-.205.12-.409.24-.614.359.372.597.745 1.191 1.091 1.803.228.403.816.048.614-.359-.317-.642-.634-1.28-.996-1.898-.232-.396-.838-.042-.614.359.584 1.048 1.218 2.065 1.85 3.084.204.33.804.114.65-.274-.22-.554-.436-1.11-.664-1.661-.217.092-.433.183-.65.274.257.536.494 1.074.723 1.623.172.409.836.256.686-.19-.166-.493-.357-.977-.522-1.471-.229.063-.457.126-.686.189.934 2.605 1.092 5.794-1.284 7.672-.25.198-.036.614.252.607 1.044-.024 1.323-1.001 1.724-1.868.57-1.235.789-2.601.91-3.944-.233.032-.466.063-.699.095.469 1.415.077 2.658-.905 3.734-.309.338.193.843.503.503 1.148-1.257 1.634-2.779 1.088-4.427-.13-.394-.663-.302-.699.095-.085.949-.249 1.857-.515 2.77-.141.486-.668 2.314-1.406 2.33.084.203.168.405.252.607 2.561-2.024 2.481-5.537 1.467-8.364-.153-.427-.833-.249-.686.189.165.493.356.977.522 1.471.229-.063.457-.126.686-.19-.253-.604-.511-1.203-.795-1.793-.173-.361-.805-.099-.65.274.228.55.444 1.106.664 1.66.217-.091.433-.183.65-.274-.632-1.019-1.266-2.036-1.85-3.084-.205.12-.409.239-.614.359.363.618.679 1.256.996 1.898.205-.12.41-.24.614-.359-.346-.612-.719-1.206-1.091-1.803-.242-.388-.853-.034-.614.359.306.504.612 1.006.902 1.518.186-.144.373-.287.559-.431-.582-.651-1.202-1.265-1.803-1.898-.291-.307-.731.082-.559.431.291.591.582 1.18.902 1.756.205-.12.41-.24.614-.359-.78-1.342-1.635-2.6-2.76-3.678-.281-.27-.811.1-.559.431.335.441.661.888.996 1.329.272.357.885.018.614-.359-1.195-1.665-2.719-2.957-4.398-4.113-.331-.228-.748.307-.431.559.783.623 1.503 1.307 2.23 1.993.144-.186.287-.373.431-.559-1.926-1.349-3.92-2.596-5.716-4.12-.144.186-.287.373-.431.559 1.126.818 2.292 1.558 3.511 2.23.407.224.731-.355.359-.614-1.063-.741-2.172-1.304-3.406-1.697-.326-.103-.628.368-.346.595.879.711 1.785 1.307 2.824 1.764.411.18.762-.372.359-.614-1.258-.757-2.561-1.418-3.891-2.04-.339-.159-.769.29-.431.559.696.554 1.383 1.111 2.112 1.621.12-.205.239-.41.359-.614-.609-.303-1.197-.656-1.756-1.044-.377-.263-.732.354-.359.614z" fill="#26ffad"/><path d="m64.977 29.522c-.023.006-.124-.008-.046.014s-.03-.019-.048-.039c-.019-.144-.037-.287-.056-.431-.001.002-.002.004-.003.006.071-.054.142-.109.213-.163.222-.03-.082-.052-.155-.073-.165-.045-.308.032-.402.164-.36.503-.655 1.053-1.036 1.541-.279.357.221.865.503.503.419-.537.751-1.132 1.147-1.685-.134.054-.268.109-.402.164.23.063.607.193.749-.097.073-.15.059-.306-.056-.431-.135-.146-.412-.209-.599-.159-.441.12-.253.807.191.686z" fill="#26ffad"/><path d="m53.922 15.68c-.28-.092-.552-.202-.817-.331-.294-.136-.707.163-.487.487.291.428.551.838.91 1.211.143-.186.287-.372.431-.559-.684-.508-1.403-.963-2.087-1.471-.33-.245-.716.284-.431.559.307.296.61.59.902.901.144-.186.287-.372.431-.559-.398-.256-.746-.553-1.114-.846-.251-.2-.722-.026-.595.346.064.187.105.375.142.569.198-.115.397-.231.595-.346-.122-.157-.238-.334-.379-.475-.115.198-.231.396-.346.595.631.185 1.258.37 1.898.522.277.066.598-.254.402-.523-.253-.348-.506-.696-.759-1.044-.186.144-.373.287-.559.431.431.455.899.872 1.329 1.328.289.307.733-.082.559-.431-.225-.449-.524-.773-.806-1.186-.162.162-.325.325-.487.487.473.251.925.518 1.376.807.341.219.727-.284.431-.559-.345-.32-.699-.629-1.044-.949-.144.186-.287.372-.431.559.69.532 1.305 1.133 1.921 1.747.144-.186.287-.373.431-.559-.58-.334-1.154-.667-1.708-1.044-.12.205-.24.41-.359.614.876.527 1.694 1.106 2.49 1.747.115-.198.231-.396.346-.595-1.26-.487-2.434-1.084-3.568-1.814-.12.205-.239.409-.359.614 1.193.747 2.42 1.409 3.701 1.993.091-.217.183-.434.274-.651-1.492-.454-2.832-1.136-4.066-2.091-.143.186-.287.373-.431.559 1.715.873 3.363 1.854 4.981 2.894.12-.205.239-.41.359-.615-1.667-.968-3.457-1.7-5.077-2.752-.12.205-.24.409-.359.614 1.666.749 3.175 1.75 4.697 2.752.12-.205.239-.41.359-.615-1.304-.848-2.67-1.591-3.985-2.419-.12.205-.24.409-.359.614 1.542.953 3.011 2.012 4.65 2.799.12-.205.239-.41.359-.614-1.44-.627-2.758-1.394-3.961-2.412-.144.186-.287.373-.431.559.878.52 1.726 1.077 2.562 1.661.091-.217.183-.434.274-.651-1.277-.319-2.304-.903-3.259-1.806-.168.168-.336.336-.503.503.684.538 1.414 1.007 2.112 1.526.28.208.7-.207.487-.487-.721-.944-1.327-1.96-1.993-2.942-.162.162-.325.324-.487.487.548.283 1.119.51 1.66.807.341.187.76-.301.431-.559-.46-.361-.916-.723-1.401-1.052-.12.205-.24.409-.359.614 1.75.843 3.204 2.159 4.934 3.036.309.157.675-.165.487-.487-.352-.602-.678-1.167-1.147-1.685-.268-.297-.801.105-.559.431 1.534 2.069 3.848 3.175 5.844 4.722.353.274.859-.201.503-.503-2.137-1.815-4.424-3.432-6.952-4.658-.342-.166-.757.281-.431.559 1.846 1.573 3.855 2.936 5.741 4.46.144-.186.287-.373.431-.559-2.071-1.159-4.119-2.352-6.073-3.701-.12.205-.24.41-.359.614 2.27 1.014 4.231 2.503 6.143 4.072.168-.168.336-.336.503-.503-1.588-1.295-3.194-2.55-5.006-3.519-.41-.219-.731.354-.359.614 1.764 1.237 3.538 2.461 5.266 3.748.12-.205.239-.41.359-.614-1.962-1.22-4.033-2.248-6.025-3.416-.399-.234-.739.364-.359.614 1.996 1.317 4.063 2.522 6.025 3.891.33.23.751-.312.431-.559-1.032-.799-2.051-1.605-2.989-2.515-.144.186-.287.373-.431.559 2.427 1.309 3.843 3.708 5.716 5.638.329.339.778-.152.503-.503-.884-1.13-1.905-2.142-2.696-3.344-.205.12-.409.239-.614.359.979 1.35 1.764 2.809 2.562 4.27.186-.144.373-.287.559-.431-.32-.393-.629-.794-.949-1.186-.275-.338-.711.092-.559.431.268.595.492 1.208.759 1.803.205-.12.41-.24.614-.359-1.147-2.29-2.532-4.398-4.326-6.24-.168.168-.336.335-.503.503 1.72 1.442 3.107 3.185 4.555 4.887.272.319.742-.088.559-.431-.703-1.319-1.375-2.644-1.909-4.043-.198.115-.396.231-.595.346 1.128 1.294 1.818 2.775 2.186 4.445.217-.091.433-.183.65-.274-.466-.905-.727-1.814-.913-2.809-.217.091-.433.183-.65.274.412.839.86 1.65 1.198 2.525.135.348.729.335.699-.095-.171-2.402-2.192-3.21-3.568-4.901-.245-.301-.658.031-.595.346.016.079.032.158.048.237.198-.115.396-.231.595-.346-.296-.248-.545-.524-.807-.807-.317-.343-.788.155-.503.503.203.261.406.522.609.782.186-.144.373-.287.559-.431-.991-.95-1.703-1.981-2.091-3.307-.174.134-.348.268-.523.402 1.523 1.104 2.962 2.268 4.198 3.692.263.303.804-.109.559-.431-1.285-1.689-2.804-3.047-4.54-4.255-.091.217-.183.434-.274.651.912.349 1.542.942 2.215 1.616.324.325.828-.178.503-.503-.775-.776-1.498-1.405-2.529-1.8-.4-.153-.584.435-.274.651 1.637 1.139 3.074 2.409 4.285 4 .186-.144.373-.287.559-.431-1.275-1.468-2.773-2.667-4.342-3.804-.26-.188-.605.121-.523.402.419 1.434 1.2 2.591 2.274 3.62.282.27.806-.096.559-.431-.251-.342-.45-.597-.72-.926-.168.168-.336.335-.503.503.262.283.511.559.807.807.276.231.667.014.595-.346-.016-.079-.032-.158-.048-.237-.198.116-.396.231-.595.346 1.202 1.478 3.209 2.289 3.359 4.398.233-.031.466-.063.699-.095-.359-.931-.83-1.8-1.27-2.694-.189-.384-.72-.099-.65.274.198 1.057.492 2.023.985 2.979.192.374.734.106.65-.274-.394-1.79-1.163-3.375-2.369-4.759-.228-.262-.722.014-.595.346.556 1.455 1.249 2.839 1.981 4.213.186-.144.373-.287.559-.431-1.448-1.702-2.835-3.445-4.555-4.887-.347-.291-.828.169-.503.503 1.756 1.803 3.094 3.858 4.214 6.096.208.415.799.052.614-.359-.268-.595-.491-1.208-.759-1.803-.186.144-.372.287-.559.431.321.393.629.793.949 1.186.264.324.746-.09.559-.431-.798-1.461-1.583-2.92-2.562-4.27-.264-.364-.87-.03-.614.359.825 1.253 1.886 2.309 2.807 3.488.168-.168.336-.335.503-.503-1.919-1.977-3.375-4.409-5.86-5.749-.35-.189-.729.271-.431.559.939.91 1.956 1.716 2.989 2.515.144-.186.287-.373.431-.559-1.962-1.368-4.029-2.573-6.025-3.89-.12.205-.24.41-.359.614 1.992 1.168 4.063 2.196 6.025 3.416.399.248.718-.348.359-.614-1.729-1.287-3.502-2.511-5.266-3.748-.12.205-.239.41-.359.614 1.759.941 3.32 2.15 4.862 3.408.352.287.858-.212.503-.503-1.956-1.605-3.963-3.145-6.287-4.183-.416-.186-.742.351-.359.614 1.954 1.349 4.002 2.542 6.073 3.701.341.191.755-.297.431-.559-1.885-1.524-3.895-2.887-5.741-4.46-.144.186-.287.373-.431.559 2.474 1.2 4.715 2.77 6.808 4.547.168-.168.336-.336.503-.503-1.927-1.493-4.253-2.582-5.733-4.578-.186.144-.373.287-.559.431.434.48.713.989 1.036 1.541.162-.162.324-.324.487-.487-1.731-.878-3.184-2.194-4.934-3.036-.414-.199-.74.355-.359.614.433.295.844.617 1.257.941.143-.186.287-.373.431-.559-.542-.297-1.112-.524-1.66-.807-.296-.153-.7.172-.487.487.666.981 1.272 1.998 1.993 2.942.162-.162.325-.324.487-.487-.649-.482-1.332-.915-1.968-1.415-.351-.276-.845.18-.503.503 1.038.981 2.185 1.643 3.573 1.989.407.101.599-.424.274-.651-.836-.584-1.685-1.141-2.562-1.66-.341-.202-.745.293-.431.559 1.246 1.055 2.608 1.871 4.105 2.523.412.179.778-.413.359-.614-1.638-.788-3.108-1.846-4.65-2.799-.392-.242-.746.371-.359.614 1.315.828 2.682 1.572 3.985 2.42.386.251.74-.364.359-.615-1.522-1.002-3.031-2.003-4.697-2.752-.413-.186-.751.36-.359.614 1.62 1.052 3.409 1.784 5.077 2.752.399.232.743-.368.359-.615-1.618-1.04-3.266-2.021-4.981-2.894-.341-.173-.766.299-.431.559 1.332 1.031 2.768 1.784 4.38 2.274.38.115.645-.481.274-.651-1.281-.584-2.508-1.245-3.701-1.992-.391-.245-.743.367-.359.614 1.186.764 2.424 1.379 3.739 1.886.326.126.619-.374.346-.595-.841-.678-1.708-1.302-2.634-1.859-.398-.239-.734.359-.359.614.554.376 1.128.71 1.708 1.044.351.202.719-.272.431-.559-.66-.658-1.326-1.29-2.065-1.858-.323-.249-.723.288-.431.559.345.32.699.629 1.044.949.143-.186.287-.373.431-.559-.45-.289-.903-.555-1.376-.806-.295-.157-.699.175-.487.487.273.4.589.751.806 1.186.187-.144.373-.287.559-.431-.43-.456-.898-.873-1.329-1.328-.273-.289-.8.1-.559.431.253.348.506.696.759 1.044.134-.174.268-.348.402-.523-.64-.152-1.267-.337-1.898-.522-.345-.101-.595.345-.346.595.141.141.257.317.379.475.24.309.654-.037.595-.346-.037-.194-.078-.382-.142-.569-.198.116-.396.231-.595.346.415.331.812.67 1.258.957.351.226.7-.271.431-.559-.291-.312-.595-.605-.902-.901-.143.186-.287.372-.431.559.684.508 1.403.963 2.087 1.471.335.249.702-.277.431-.559-.324-.337-.541-.688-.798-1.067-.162.162-.325.324-.487.487.393.182.745.373 1.176.428.453.064.448-.648-.001-.706z" fill="#26ffad"/><path d="m9.37 34.896-2.071-3.6.541-.311c.241-.139.443-.23.608-.276.166-.046.324-.053.475-.022.153.033.299.102.437.205.14.103.251.226.332.368.148.258.175.533.081.825.229-.044.445-.017.65.083.205.097.369.253.492.468.162.281.199.577.112.885-.051.188-.137.349-.26.481-.137.139-.329.279-.574.42zm-.638-2.367.17-.098c.202-.116.324-.246.367-.39.043-.143.014-.302-.086-.476-.098-.17-.22-.27-.366-.303s-.312.004-.496.11l-.191.11zm.888 1.543.336-.193c.246-.141.398-.293.458-.456.061-.174.046-.341-.046-.501-.09-.155-.223-.252-.4-.291-.173-.038-.406.026-.699.194l-.275.158z" fill="#fff"/><path d="m13.58 31.127-1.627.936c.121.178.267.292.438.341.17.047.339.022.507-.074.131-.075.22-.168.27-.28.048-.11.078-.28.088-.51l.585-.008c-.001.156-.016.297-.044.424s-.071.242-.127.346-.127.197-.214.28-.189.159-.307.227c-.339.195-.673.242-1.004.143-.331-.101-.601-.332-.809-.695-.207-.359-.275-.707-.203-1.044.074-.335.277-.597.609-.787.334-.192.659-.238.976-.137.314.101.579.338.795.713zm-.786-.119c-.234-.238-.491-.276-.771-.115-.064.037-.118.081-.163.133-.045.051-.08.109-.105.172s-.039.129-.042.2c-.003.07.006.142.026.217z" fill="#fff"/><path d="m14.971 29.166-.301.48c-.149-.101-.274-.122-.375-.064-.048.028-.08.068-.096.119-.016.052-.009.102.019.152.05.087.201.116.452.085.347-.041.598-.038.753.008s.281.154.379.325c.126.219.151.449.074.689-.076.23-.226.41-.448.537-.381.219-.758.188-1.13-.092l.328-.465c.125.073.212.115.262.126.098.022.191.008.279-.043.177-.102.22-.234.127-.395-.054-.093-.172-.141-.356-.143-.068.004-.136.009-.203.014-.067.006-.136.011-.205.016-.195.013-.346 0-.451-.039-.134-.05-.244-.148-.329-.297-.114-.198-.14-.4-.079-.606.064-.209.195-.37.393-.483.291-.168.593-.142.907.076z" fill="#fff"/><path d="m16.189 28.602 1.025 1.781-.525.302-1.025-1.781-.224.129-.282-.49.224-.128-.479-.832.525-.302.479.832.408-.235.282.489z" fill="#fff"/><path d="m18.025 25.126 1.247 2.168c.178.309.358.506.542.591.27.12.541.101.815-.056.275-.158.429-.384.46-.678.021-.197-.058-.452-.239-.766l-1.247-2.168.543-.312 1.333 2.317c.219.379.28.759.185 1.141-.108.426-.356.751-.743.974-.387.222-.792.273-1.213.151-.378-.11-.675-.354-.893-.733l-1.333-2.317z" fill="#fff"/><path d="m23.216 24.423-.301.48c-.149-.1-.274-.122-.375-.064-.048.028-.08.067-.096.119s-.01.102.019.152c.05.087.201.116.452.085.347-.041.598-.038.753.008s.281.154.379.325c.126.219.151.449.074.689-.076.23-.226.409-.448.537-.381.219-.757.188-1.129-.092l.328-.465c.125.073.212.115.262.126.098.023.191.008.279-.043.177-.102.219-.234.126-.395-.053-.093-.172-.141-.355-.143-.068.004-.136.009-.203.014s-.136.011-.205.016c-.195.013-.345 0-.45-.039-.134-.049-.244-.148-.329-.297-.114-.198-.14-.4-.079-.606.064-.209.195-.369.392-.483.289-.168.592-.142.906.076z" fill="#fff"/><path d="m26.404 23.75-1.627.936c.121.178.267.292.438.341.17.047.339.022.507-.075.131-.075.221-.168.27-.28.048-.11.078-.28.088-.51l.585-.008c-.001.156-.016.297-.044.424s-.071.242-.127.346-.128.197-.214.28c-.087.083-.189.159-.307.227-.339.195-.674.242-1.004.143-.331-.101-.601-.333-.809-.695-.207-.359-.275-.707-.204-1.044.074-.335.277-.597.609-.788.334-.192.66-.238.976-.137.315.101.579.338.795.713zm-.786-.119c-.234-.238-.491-.276-.771-.115-.064.036-.118.081-.163.133-.045.051-.08.109-.105.172-.024.063-.039.129-.042.2-.003.069.005.142.026.217z" fill="#fff"/><path d="m28.263 22.494c-.189-.328-.232-.674-.13-1.039s.322-.645.659-.839c.339-.195.693-.245 1.063-.149.366.098.647.315.841.652.196.34.242.693.14 1.058-.105.364-.329.646-.672.843-.341.196-.693.243-1.057.143-.363-.097-.644-.321-.844-.669zm.541-.299c.131.227.295.372.491.434.201.062.404.034.607-.083.205-.118.331-.278.378-.481s.007-.415-.12-.636-.29-.362-.489-.423c-.201-.062-.404-.034-.607.083-.201.115-.325.276-.372.481s-.009.414.112.625z" fill="#fff"/><path d="m31.421 19.839 1.025 1.781-.527.303-1.025-1.781-.187.107-.281-.49.186-.107-.504-.877c-.165-.286-.231-.517-.2-.692.042-.244.193-.441.455-.591.093-.054.226-.094.399-.121l.309.537-.07.002c-.146.008-.256.033-.329.075-.093.053-.137.123-.131.209.005.083.061.219.168.406l.43.748.571-.329.282.489z" fill="#fff"/><path d="m34.915 16.089-1.255.722.497.865 1.21-.696.294.511-1.21.696.986 1.714-.543.312-2.071-3.6 1.798-1.034z" fill="#fff"/><path d="m35.793 14.904 2.071 3.6-.543.312-2.071-3.6z" fill="#fff"/><path d="m39.002 13.771-.29.515c-.165-.096-.297-.144-.396-.145-.107-.005-.221.028-.344.099-.151.087-.252.201-.302.344-.051.141-.04.276.033.403.101.176.313.242.636.199l.443-.059c.36-.05.657-.029.89.064.233.092.421.262.563.509.19.331.238.668.141 1.011-.097.345-.31.613-.64.803-.312.18-.624.236-.934.168-.307-.07-.582-.259-.825-.565l.481-.438c.146.197.274.318.383.363.201.091.409.075.624-.048.169-.097.277-.235.324-.413s.02-.354-.081-.528c-.04-.07-.086-.128-.14-.175-.053-.047-.114-.083-.183-.109-.069-.025-.149-.04-.239-.046-.09-.005-.191-.001-.304.012l-.431.055c-.613.075-1.034-.088-1.265-.489-.156-.271-.182-.556-.08-.857.101-.302.306-.542.613-.719.418-.24.858-.224 1.323.046z" fill="#fff"/><path d="m41.786 12.17-.291.515c-.165-.096-.297-.144-.396-.145-.107-.005-.221.028-.344.098-.151.087-.252.202-.302.344-.051.141-.04.276.033.403.101.176.313.242.636.199l.444-.059c.36-.05.657-.029.89.063s.421.262.563.509c.191.331.238.668.141 1.011-.097.345-.31.613-.64.803-.312.18-.624.235-.934.168-.307-.069-.582-.258-.825-.565l.48-.438c.147.197.274.318.383.363.201.092.409.076.624-.048.169-.098.277-.236.324-.413.047-.178.02-.354-.08-.528-.04-.07-.087-.128-.14-.176-.053-.047-.114-.083-.183-.108-.07-.026-.149-.041-.239-.046s-.191-.001-.304.012l-.431.055c-.613.075-1.034-.088-1.265-.489-.156-.27-.182-.556-.08-.857.101-.302.306-.542.614-.719.416-.238.857-.222 1.322.048z" fill="#fff"/><path d="m42.77 10.891 2.071 3.6-.543.312-2.071-3.6z" fill="#fff"/><path d="m44.481 12.28c-.292-.507-.356-1.049-.194-1.626.161-.577.5-1.014 1.02-1.313.513-.295 1.058-.365 1.636-.209.579.155 1.017.49 1.313 1.004.298.518.366 1.063.203 1.636-.163.577-.507 1.015-1.033 1.318-.465.267-.975.346-1.53.237-.611-.121-1.083-.471-1.415-1.047zm.552-.308c.229.398.551.648.965.751.413.103.794.056 1.143-.145.378-.217.621-.531.731-.942.107-.413.052-.81-.166-1.189-.221-.384-.534-.632-.94-.744-.405-.115-.796-.064-1.172.153-.375.215-.616.528-.724.938-.11.406-.055.798.163 1.178z" fill="#fff"/><path d="m49.972 11.538-2.212-3.845 4.205 1.237-1.439-2.502.543-.313 2.197 3.819-4.202-1.229 1.45 2.52z" fill="#fff"/><path d="m58.392 120.253-.993.585.351.595.964-.568.207.351-.964.568.488.828.993-.585.207.351-1.366.805-1.459-2.476 1.366-.805z" fill="#fff"/><path d="m59.716 120.684.722 1.225-.361.213-.722-1.225-.154.091-.199-.337.154-.091-.337-.572.361-.213.337.572.281-.165.198.337z" fill="#fff"/><path d="m59.368 118.891.361-.212.752 1.277c.06-.191.168-.332.323-.424.177-.104.351-.13.525-.078.148.046.287.178.415.397l.564.957-.361.213-.544-.924c-.074-.125-.15-.202-.227-.233-.078-.03-.166-.016-.264.042-.126.074-.192.165-.197.274-.004.109.051.26.165.452l.445.755-.361.213z" fill="#fff"/><path d="m62.747 120.549-1.047-2.969 1.984 1.423-.254-2.443 2.037 2.386-.383.226-1.119-1.354.215 2.041-1.661-1.19.616 1.653z" fill="#fff"/><path d="m66.153 116.437.362-.214.921 1.562-.362.215-.096-.163c-.067.226-.186.39-.357.491-.216.127-.44.155-.673.081-.234-.077-.421-.234-.562-.473-.138-.234-.183-.47-.135-.709s.177-.42.388-.544c.182-.107.389-.128.622-.064zm-.398 1.281c.088.15.2.248.336.295.138.046.27.033.395-.041.133-.079.215-.188.242-.329.027-.143-.004-.289-.09-.435-.086-.147-.199-.243-.337-.29-.137-.044-.271-.028-.403.05-.124.073-.2.181-.228.324-.026.144.002.286.085.426z" fill="#fff"/><path d="m69.381 116.591c.044.074.08.14.108.199s.051.112.068.16c.043.133.053.263.028.392-.045.246-.192.441-.439.587-.208.123-.413.168-.614.135-.207-.033-.381-.146-.523-.338l.363-.214c.059.069.117.115.174.137.132.053.27.038.413-.046.264-.156.3-.396.11-.719l-.128-.218c-.057.231-.179.401-.366.512-.212.125-.432.151-.659.077-.229-.075-.412-.23-.55-.465-.134-.228-.185-.459-.151-.693.037-.25.168-.441.393-.573.197-.116.404-.139.62-.069l-.104-.177.361-.212zm-.783-.537c-.09-.152-.202-.25-.336-.292-.137-.044-.27-.029-.398.047-.137.081-.215.195-.234.343-.018.133.015.272.1.416.084.142.188.238.314.287.137.053.274.039.412-.042s.217-.196.238-.344c.02-.135-.012-.273-.096-.415z" fill="#fff"/><path d="m68.5 114.18c-.037-.063-.046-.131-.028-.204.019-.073.061-.128.125-.166.066-.039.135-.048.207-.03.073.018.128.059.166.125.038.065.048.135.029.207-.018.072-.059.128-.125.166-.065.039-.135.048-.207.029-.072-.018-.127-.061-.167-.127zm.798.404.92 1.562-.361.213-.92-1.562z" fill="#fff"/><path d="m71.011 113.666.282.48c-.142-.052-.256-.078-.343-.077-.086-.001-.173.025-.26.076-.136.08-.221.194-.254.342-.034.148-.008.294.076.437.086.146.201.241.342.284.143.043.282.024.418-.056.086-.051.152-.115.196-.191.043-.074.076-.189.101-.345l.281.476c-.102.162-.226.286-.373.373-.242.143-.49.184-.744.123-.255-.061-.451-.208-.589-.441-.137-.233-.171-.479-.101-.736.07-.258.225-.457.464-.598.156-.091.324-.14.504-.147z" fill="#fff"/><path d="m70.883 112.775c-.037-.063-.046-.131-.028-.204.019-.073.061-.128.125-.166.065-.038.134-.048.207-.029.073.018.128.06.167.125.038.065.048.135.029.207-.018.072-.059.128-.125.166-.065.038-.134.048-.207.029-.072-.018-.128-.061-.168-.128zm.798.405.92 1.562-.361.213-.92-1.562z" fill="#fff"/><path d="m73.29 112.232.362-.214.92 1.562-.362.214-.096-.163c-.067.226-.186.39-.357.491-.216.127-.441.155-.674.081-.234-.077-.421-.234-.562-.473-.138-.234-.183-.471-.135-.709.048-.239.177-.42.388-.544.182-.107.389-.128.622-.064zm-.399 1.281c.088.15.2.248.336.295.138.046.27.033.395-.041.134-.079.215-.188.243-.329.026-.144-.004-.289-.09-.435-.086-.147-.199-.243-.337-.29-.137-.044-.271-.028-.403.049-.124.073-.2.181-.228.324-.027.145.002.287.084.427z" fill="#fff"/><path d="m74.108 111.75.363-.214.085.144c.053-.199.158-.346.316-.439.182-.107.357-.133.526-.078.145.046.282.178.412.399l.564.957-.362.214-.514-.873c-.091-.154-.175-.247-.252-.281-.077-.036-.171-.021-.281.044-.12.071-.181.16-.185.269-.003.107.053.258.167.453l.444.754-.362.214z" fill="#fff"/><path d="m76.973 110.421-.205.334c-.104-.069-.19-.082-.26-.041-.033.019-.055.047-.066.083-.01.036-.006.071.014.105.036.06.14.078.314.055.24-.03.413-.03.521 0 .107.031.195.105.265.222.089.151.107.31.056.477-.051.16-.153.285-.306.375-.262.155-.523.136-.782-.055l.224-.324c.087.05.148.078.182.085.068.015.132.004.193-.032.122-.072.15-.163.085-.275-.038-.064-.12-.096-.247-.096-.047.003-.094.007-.14.011s-.094.008-.142.012c-.135.01-.239.003-.312-.023-.093-.033-.17-.101-.23-.204-.08-.136-.1-.275-.059-.419.043-.145.132-.257.268-.337.199-.118.409-.103.627.047z" fill="#fff"/><path d="m79.694 107.407.261.443c-.322-.054-.599-.012-.83.124-.255.15-.415.368-.481.653-.068.285-.025.559.13.822.153.26.37.427.651.503.28.075.548.038.802-.112.132-.077.231-.165.297-.262.039-.051.075-.112.108-.181.034-.068.066-.146.097-.234l.266.451c-.143.247-.332.439-.567.578-.354.209-.729.263-1.124.164-.396-.102-.698-.329-.905-.681-.186-.316-.247-.658-.184-1.028.078-.454.321-.801.728-1.041.222-.131.472-.198.751-.199z" fill="#fff"/><path d="m80.937 108.764c-.133-.226-.165-.465-.097-.718.068-.254.218-.449.45-.585.233-.137.478-.174.734-.11.254.065.45.213.586.445.138.234.173.478.105.731-.07.253-.223.449-.459.588-.234.138-.477.173-.73.106-.252-.065-.448-.217-.589-.457zm.372-.211c.092.156.206.255.343.297.14.041.279.021.419-.061.141-.083.227-.195.258-.336.031-.14.002-.287-.088-.438-.089-.152-.203-.249-.341-.289-.14-.041-.28-.021-.42.061-.138.081-.223.193-.254.336-.03.141-.002.284.083.43z" fill="#fff"/><path d="m82.892 106.575.528.897c.153.259.331.328.535.208s.23-.31.078-.569l-.528-.897.361-.213.533.905c.073.125.122.242.144.351.018.099.009.203-.026.312-.059.178-.183.322-.371.433-.187.11-.372.149-.557.115-.113-.021-.209-.063-.288-.126-.073-.055-.151-.154-.236-.297l-.533-.905z" fill="#fff"/><path d="m84.32 105.733.363-.214.085.144c.053-.199.158-.346.316-.439.182-.107.357-.133.527-.079.145.046.282.178.412.399l.564.957-.363.214-.514-.873c-.09-.154-.175-.247-.252-.281-.077-.035-.171-.02-.281.044-.12.071-.181.16-.185.269-.003.107.053.258.167.453l.444.754-.362.214z" fill="#fff"/><path d="m87.377 104.022.283.48c-.141-.052-.256-.078-.343-.077-.087-.001-.173.025-.26.076-.136.08-.221.194-.254.342-.034.148-.008.294.076.437.086.147.2.242.342.284.143.043.283.024.419-.056.086-.051.152-.115.196-.191.043-.074.076-.189.101-.345l.281.476c-.102.162-.226.286-.373.373-.242.142-.489.183-.744.123-.255-.061-.451-.209-.589-.442-.137-.233-.171-.478-.101-.736.07-.257.225-.457.464-.598.154-.09.322-.139.502-.146z" fill="#fff"/><path d="m87.249 103.132c-.037-.063-.046-.131-.027-.204s.061-.128.125-.166c.065-.038.134-.048.207-.029.072.018.128.059.166.125.038.065.048.135.029.207-.018.072-.059.128-.124.166-.066.038-.135.048-.208.029-.072-.019-.129-.062-.168-.128zm.799.404.92 1.562-.361.213-.92-1.562z" fill="#fff"/><path d="m88.19 101.908 1.596 2.709-.361.212-1.596-2.709z" fill="#fff"/><path d="m90.716 103.001c-.133-.226-.165-.465-.097-.719.068-.253.219-.448.45-.585.233-.137.478-.174.734-.111.254.065.45.213.586.445.138.234.173.478.105.731-.07.253-.223.449-.459.588-.234.138-.477.173-.73.106-.251-.063-.448-.215-.589-.455zm.373-.211c.092.156.206.255.344.297.14.042.279.021.419-.062.141-.083.227-.195.258-.336.031-.14.002-.287-.088-.438-.09-.152-.203-.249-.341-.29-.14-.041-.28-.021-.42.062-.138.081-.222.193-.254.335-.031.143-.004.287.082.432z" fill="#fff"/><path d="m92.882 101.141.722 1.225-.363.214-.722-1.225-.128.076-.199-.337.128-.076-.355-.603c-.116-.197-.164-.356-.143-.477.028-.169.131-.306.311-.412.064-.038.156-.066.275-.087l.217.369-.048.002c-.102.007-.177.025-.228.054-.064.038-.094.086-.089.146.004.058.044.151.12.279l.303.515.393-.232.199.337z" fill="#fff"/><path d="m95.07 100.149.592 1.005-.374.22-1.459-2.476.424-.25c.207-.122.373-.2.495-.234.124-.034.25-.035.379-.003.224.055.399.189.523.401.133.227.163.451.09.672-.073.222-.239.409-.497.561zm-.204-.347.14-.082c.343-.202.437-.435.281-.699-.151-.256-.403-.279-.757-.071l-.123.073z" fill="#fff"/><path d="m96.073 98.808.361-.213.082.14c.026-.108.056-.191.092-.247.037-.058.091-.108.162-.15.095-.056.213-.083.353-.083l.029.428c-.097-.009-.178.006-.244.044-.197.116-.208.322-.033.62l.477.81-.361.213z" fill="#fff"/><path d="m98.453 97.405.362-.214.921 1.562-.363.214-.096-.163c-.067.226-.186.39-.357.491-.216.127-.44.155-.673.082-.234-.077-.421-.234-.562-.473-.138-.234-.183-.471-.135-.709.048-.239.177-.42.388-.544.182-.107.389-.128.622-.063zm-.399 1.281c.088.15.2.248.336.295.138.047.27.033.395-.041.134-.079.215-.188.243-.329.027-.144-.004-.289-.09-.435-.086-.147-.198-.243-.337-.29-.137-.044-.271-.028-.403.05-.124.073-.2.181-.228.324-.027.144.001.286.084.426z" fill="#fff"/><path d="m101.68 97.558c.044.074.08.14.108.199s.051.112.068.16c.043.133.053.263.028.392-.045.246-.192.441-.439.587-.208.123-.413.168-.614.135-.207-.033-.381-.146-.523-.337l.363-.214c.059.069.117.115.174.137.132.053.27.038.413-.047.264-.155.3-.395.11-.719l-.128-.218c-.057.231-.179.401-.366.512-.212.125-.432.152-.659.077-.229-.075-.412-.23-.55-.465-.134-.228-.185-.459-.151-.693.037-.25.168-.441.393-.573.197-.116.404-.139.62-.069l-.104-.177.361-.213zm-.783-.536c-.09-.152-.202-.25-.336-.292-.137-.044-.27-.029-.398.047-.137.081-.215.195-.234.343-.018.133.015.272.1.416.084.142.188.238.314.286.137.053.274.039.412-.042s.217-.196.238-.343c.02-.135-.012-.273-.096-.415z" fill="#fff"/><path d="m101.598 95.552.528.897c.152.259.331.328.535.208s.23-.31.078-.569l-.528-.897.361-.213.533.905c.074.125.122.242.144.351.018.099.009.203-.026.312-.06.178-.184.322-.371.432s-.373.149-.557.115c-.113-.021-.209-.063-.288-.126-.073-.055-.152-.154-.236-.297l-.533-.905z" fill="#fff"/><path d="m104.959 94.738-1.119.66c.085.123.187.2.305.232.118.031.235.013.35-.055.09-.053.151-.118.185-.196.033-.077.052-.194.057-.353l.405-.01c0 .108-.009.206-.028.294-.018.088-.047.168-.085.241-.038.072-.087.137-.146.195s-.13.111-.211.159c-.233.137-.464.173-.693.106-.23-.068-.418-.226-.565-.475-.145-.247-.195-.487-.148-.721.049-.232.187-.415.415-.549.23-.136.455-.169.675-.101.218.067.403.229.555.487zm-.544-.077c-.164-.163-.342-.187-.534-.074-.044.026-.081.057-.111.093-.031.036-.054.076-.071.12s-.026.09-.028.138.005.098.02.151z" fill="#fff"/></svg>