<svg enable-background="new 0 0 110.979 128.417" height="128.417" viewBox="0 0 110.979 128.417" width="110.979" xmlns="http://www.w3.org/2000/svg"><path d="m110.849 96.417-55.426 32-55.423-32v-64l55.423-32 55.426 32z" fill="#1a0d3c"/><path d="m101.923 38.139v53.14l-.01.01-.311.18-1.109.63-6.28 3.62-2.72 1.57-.24.13-.13.05-.11.07-3.029 1.74-.061.029-.16.101-.12.069-.02.011-.55.31-.15.09-.12.07-.689.39-.04.03-.76.44-2.16 1.25-.33.189-.63.38-.24.141-1.38.79-1.46.85-.181.09-.02.021-1.71.979-.96.561-4.01 2.319-.61.351-.35.2-.28.159-.061.03-3.31 1.92-.19.11-.77.439-3.271 1.891-.01.01-.3.17-.13.08-.17.1-.44.25-.42.24-.05.03-.28.16-3.49 2.02-.979.561-.73.42-.49.279-.03.021-.03-.021-.27-.159-.14-.08-.81-.46-.45-.261-.09-.06-.51-.29-.06-.03-.26-.149-.15-.091-.01-.01-1.31-.75-.96-.56-1.15-.66-1.37-.79-.04-.03-2.07-1.189-4.2-2.44-.96-.55-.2-.12-.69-.39-2.76-1.601-.96-.56-1.37-.79-.39-.22-.49-.28-.33-.2-1.85-1.06-.32-.19-.25-.14-.41-.24-.3-.18-1-.57-2.51-1.46-.65-.37-.96-.55-1.3-.75-.09-.05-.7-.41-.02-.01h-.01l-.98-.57-.55-.32-.96-.55-1.45-.84-2.11-1.23-5.35-3.08h-.01l-1.1-.64-1.04-.6v-50.291c.09-1.01.18-2.01.28-3.01l1.14-.66.42-.24.24-.14.29-.17 1.61-.92c.01-.01.02-.01.02-.01v-.01l.11-.06.17-.1.32-.19.55-.31.55-.32c1.35-.56 2.65-1.26 3.83-2.05.31-.21.6-.43.88-.67l3.92-2.26 1.99-1.16 4.93-2.83 1.58-.92.17-.09 1.66-.95 1.16-.67 1.54-.91.52-.3.34-.2 1.94-1.1.69-.41 1.46-.83 3.73-2.15 1.07-.62.92-.53.46-.27 6.07-3.51.02-.01.2-.12 1.22-.7 1.061.62 6.489 3.75 1.33.77 4.261 2.46 8.939 5.15 1.04.61 2.3 1.31.87.5 1.521.88.199.12 1.17.67.801.46.09.06 1.81 1.04 3.78 2.18.04.03v.01l.26.14.66.39 1.46.84.4.23.26.15.11.07.239.13.051.03.09.06h.01l.05.03.021.01.1.06.61.35.779.44.44.25 1.939 1.12.511.29.45.26.039.03.29.17.19.11z" fill="#fff"/><path d="m63.489 89.085c-.196-.394-.471-.882-.393-1.339.068-.382-.097-.766-.497-.877-.347-.095-.81.114-.877.498-.154.889.146 1.651.536 2.438.409.822 1.637.101 1.231-.72z" fill="#24e899"/><path d="m91.407 56.671c0 .08 0 .16-.002.24 0 .053-.002.107-.005.16-.011.09-.011.106-.002.051-.057.384.089.764.497.877.379.104.766-.126.876-.498.062-.208-.063.095.038-.097.034-.064.073-.125.111-.188.098-.161.171-.326.243-.5-.458 0-.916 0-1.374 0-.035-.194-.007.052-.009.1-.002.043-.006.085-.012.128.012-.079.011-.076-.004.009-.03.177-.074.35-.119.524-.094.376.117.771.499.876.367.101.781-.121.876-.498.126-.501.236-1.002.143-1.519-.056-.308-.393-.523-.688-.523-.347 0-.564.225-.687.523.046-.111-.063.101-.062.096-.037.063-.076.125-.114.188-.092.155-.165.326-.216.5.457.126.916.252 1.373.379.041-.279.061-.55.062-.831 0-.389-.324-.713-.713-.713s-.71.328-.711.716z" fill="#24e899"/><path d="m91.539 54.879c-.88.18-.764 1.312-.426 1.902.222.386.81.483 1.12.145.279-.306.385-.646.438-1.049.036-.276.013-.6.17-.841-.442-.12-.884-.24-1.327-.36.024.716-.065 1.425-.107 2.138-.046.799 1.241.978 1.4.189.124-.615.371-1.195.463-1.817.108-.73-.609-1.146-1.19-.693-.715.557-.738 1.525-1.038 2.309.466.063.933.127 1.399.189 0-.059 0-.119 0-.178 0-.919-1.425-.919-1.425 0v.178c0 .849 1.124.912 1.399.19.203-.534.193-1.309.672-1.681-.397-.231-.794-.461-1.191-.693-.093.622-.34 1.203-.463 1.817.467.063.933.126 1.399.189.041-.713.132-1.422.107-2.138-.025-.724-.938-.951-1.328-.36-.196.298-.264.631-.303.979-.017.139.017.513-.084.623.372.049.745.097 1.118.146-.063-.111-.012.003-.055-.147-.065-.229.091.007-.119.167-.105.061-.209.123-.314.184l.063-.012c.901-.185.519-1.558-.378-1.376z" fill="#24e899"/><path d="m91.645 56.946c-.678.11-1.289.326-1.88.677-.71.422-.23 1.479.549 1.303.53-.121 1.046-.281 1.567-.428.897-.251.513-1.537-.379-1.374-.765.14-1.537.222-2.289.427-.732.198-1.323.411-2.098.394.119.442.238.884.358 1.327 1.044-.551 1.899-1.299 3.09-1.521.902-.169.519-1.542-.379-1.375-1.316.247-2.274 1.057-3.43 1.666-.647.343-.322 1.313.36 1.329.754.017 1.451-.092 2.165-.337.847-.292 1.726-.375 2.601-.534-.126-.458-.252-.917-.379-1.374-.521.147-1.038.308-1.567.427.184.434.366.868.55 1.302.491-.292.98-.442 1.541-.533.904-.149.519-1.523-.38-1.376z" fill="#24e899"/><path d="m91.097 56.482c-.044-.191-.007-.634.171-.762-.349-.143-.697-.284-1.046-.426.123.388.071.73-.036 1.117.467.063.934.126 1.399.189.079-1.2.504-2.381-.969-2.767-.559-.146-1.17-.314-1.749-.234-.327.044-.803-.371-1.152-.411-.436-.052-.858.043-1.295.028.063.466.126.932.19 1.399.509-.142.977-.271 1.208-.791.372-.831-.855-1.556-1.23-.72-.019.044-.228.1-.357.136-.79.22-.607 1.372.189 1.4.274.01.524-.011.796-.045.399-.05.639.209.983.336.436.16.851.021 1.294.109.188.037.374.079.56.121.118.027.235.057.353.088.217.073.191.051-.076-.067.034.467-.138.95-.169 1.416-.054.819 1.188.948 1.399.189.172-.619.232-1.256.036-1.875-.129-.403-.658-.707-1.047-.425-.735.531-1.028 1.495-.827 2.372.206.897 1.58.517 1.375-.377z" fill="#24e899"/><path d="m91.688 53.816c0-.001.001-.003.001-.004.287.373.575.746.864 1.119.11-.205.276-.333.496-.387-.239-.41-.479-.82-.72-1.23-.252.121-.627.257-.911.213.057.434.113.868.17 1.302.618-.35 2.07-.567 1.825-1.609-.085-.361-.347-.62-.576-.898-.494-.604-.905-1.275-1.39-1.889-.503-.637-1.563.196-1.118.864.485.729 1.215 1.115 1.954 1.55.861.506-.214 1.743.025 2.563.449 1.545 2.759 1.019 1.887-.416-.373.288-.746.576-1.119.863.577.55 1.111.781 1.848.492-.184-.024-.366-.048-.55-.072.055.028.109.056.165.084.815.418 1.537-.812.719-1.23-.169-.087-.327-.182-.523-.182-.465 0-.283.25-.65-.1-.579-.549-1.549.157-1.118.864.017-.127.035-.254.054-.381.142-.11.283-.219.426-.329.454-.119.492-.903.608-1.348.086-.333.189-.809-.047-1.115-.651-.847-1.881-1.11-2.448-1.963-.372.288-.746.575-1.118.863.415.526.766 1.099 1.181 1.625.07.088.139.176.209.264.209.298.22.249.031-.147-.34.142-.67.235-.991.418-.497.281-.461 1.205.169 1.302.707.11 1.369-.052 2.01-.356.84-.399.106-1.586-.72-1.23-.333.144-.563.325-.784.61-.454.584.134 1.615.863 1.118.1-.067.196-.136.287-.218.683-.618-.328-1.622-1.009-1.01z" fill="#24e899"/><path d="m101.923 79.249v12.03l-.01.01-.311.18-1.109.63-6.28 3.62-2.72 1.57-.24.13-.13.05-.11.07-3.029 1.74-.061.029-.16.101-.12.069-.02.011-.55.31-.15.09-.12.07-.689.39-.04.03-.76.44-2.16 1.25-.33.189-.63.38-.24.141-1.38.79-1.46.85-.181.09-.02.021-1.71.979-.96.561-4.01 2.319-.61.351-.35.2-.28.159-.061.03-3.31 1.92-.19.11-.77.439-3.271 1.891-.01.01-.3.17-.13.08-.17.1-.44.25-.42.24-.05.03-.28.16-3.49 2.02-.979.561-.73.42-.49.279-.03.021-.03-.021-.27-.159-.14-.08-.81-.46-.45-.261-.09-.06-.51-.29-.06-.03-.26-.149-.15-.091-.01-.01-1.31-.75-.96-.56-1.15-.66-1.37-.79-.04-.03-2.07-1.189-4.2-2.44-.96-.55-.2-.12-.69-.39-2.76-1.601-.96-.56-1.37-.79-.39-.22-.49-.28-.33-.2-1.85-1.06-.32-.19-.25-.14-.41-.24-.3-.18-1-.57-2.51-1.46-.65-.37-.96-.55-1.3-.75-.09-.05-.7-.41-.02-.01h-.01l-.98-.57-.55-.32-.96-.55-1.45-.84-2.11-1.23-5.35-3.08h-.01l-1.1-.64-1.04-.6v-2.36c-.11-.57-.09-1.16 0-1.75v-1.479c.42-.73.79-1.48 1.13-2.271.16-.37.77-.1.65.28-.38 1.189-1.03 2.59-1.14 3.939.26-.42.6-.779 1.05-1.069.19-.12.45 0 .52.22.18.6.26 1.229.37 1.85.17-.76.48-1.439 1.03-2.01.27-.29.64.021.59.35-.08.601-.02 1.221.17 1.79 1.82-.439 3.28 1.28 4.97 1.771 2.43-.67 4.83-.04 7.3-.1 3.01-.08 6.05-.66 9.05-.32 2.51.29 5.01.79 7.45-.12 1.44-.54 3.33-1.54 4.9-.98.45-.09.91-.13 1.37-.159.92-1.36 1.93-2.66 2.96-3.94.23-.3.67.03.59.35-.13.561-.23 1.131-.26 1.7.41-.93.9-1.83 1.46-2.689.22-.34.75-.13.66.27-.31 1.25-.83 2.46-.75 3.68.6-1.199 1.45-2.329 2.229-3.38.221-.3.82-.13.65.271-.41 1-.87 2.04-1.03 3.109.76-.71 1.53-1.439 1.98-2.35.09-.45.21-.9.399-1.32.141-.31.7-.159.66.181-.069.55-.229 1.029-.45 1.47-.21.94-.29 1.9-.649 2.78 1.149-.78 2.729-2.641 2.67-4.101-.01-.47.689-.46.71 0 .02.931.229 1.84.6 2.66.29-1.02.88-2.03 1.44-2.84.229-.33.77-.13.66.27-.28.98-.431 1.99-.57 2.99-.07.46-.76.26-.69-.189.04-.271.08-.54.12-.82-.229.53-.39 1.06-.42 1.59.181.271.38.53.601.78.8-1.521 1.8-2.98 2.93-4.271.25-.29.65.03.59.351-.21 1.16-.6 2.71-.34 4 .01-.01.03-.021.04-.021.9-.29 1.45-1.739 1.8-2.52.42-.96.78-1.93 1.09-2.93.11-.381.7-.32.7.09-.01 1.26-.09 2.51-.229 3.75.79-1.17 1.67-2.271 1.949-3.7.08-.39.75-.3.7.09 0 .04-.01.07-.01.1v.011c-.18 1.35-.42 2.68-.79 3.979 1.08-1.45 2.07-2.91 2.38-4.75.03-.149.2-.26.34-.26h.15c.2 0 .34.16.35.35.11 1.48.36 2.94.54 4.41.46-.74.91-1.47 1.641-2.01.149-.11.39-.021.479.13.37.62.62 1.32.92 1.98 1.09-1.591 2.271-3.11 3.17-4.83.17-.33.65-.15.66.18.05 1.17 0 2.34-.08 3.51.57-1.13 1.13-2.27 1.7-3.399.16-.33.67-.16.66.18 0 1.3-.07 2.59-.18 3.88 1.05-1.38 2-2.82 3.14-4.13.29-.34.7.09.56.43-.489 1.13-1.58 3.07-1.609 4.62.85-1.22 1.89-2.31 2.699-3.56.19-.28.69-.19.671.18-.101 1.66-.23 3.08.399 4.36.11-.04.24-.021.351.09.35.38.85-1.891.869-2.061.07-.779.131-1.659-.29-2.35-.229-.4.381-.75.61-.36.05.08.09.16.13.24.59 1.12 1.061 2.561 1.11 3.95.34-.65.64-1.33.84-2.03-.05-.8.03-1.62.24-2.42 0-.77.14-1.41.83-1.95.3-.239.77.061.56.431-.32.55-.54 1.109-.689 1.67-.021.67.08 1.39-.101 2-.04.12-.08.25-.12.37.04.35.101.699.181 1.05.64-1.09 1.35-2.15 2.109-3.17.19-.261.681-.21.66.18-.05 1.03.16 2 .521 2.92.33-1.58 1.18-2.93 1.77-4.439.14-.341.75-.33.7.1-.25 2.26-.101 4.55 1.399 6.36v-10.86h.321z" fill="#24e899"/><path d="m79.37 43.938c.128-.221.134-.519.007-.736-.208-.354-.626-.423-.976-.256-.021.011-.033.018-.044.023-.01.003-.017.005-.029.01-.061.023-.121.04-.184.056-.014.004-.077.015-.108.021-.043.003-.086.006-.13.007-.388.006-.712.318-.712.712 0 .026.005.052.008.077-.084-.042-.181-.071-.293-.077-.518-.032-.82-.299-1.027-.671-.001-.017-.003-.034-.004-.051.024-.098.03-.206.009-.323-.277-1.331.729-3.746-.585-4.716-.702-.519-1.65-.687-2.461-.979-1.159-.417-2.287-.865-3.509-1.072-.888-.152-1.285 1.153-.378 1.374 1.147.28 2 1.503 2.877 2.329-.03.077-.048.165-.052.261-.062 1.743.662 3.031 1.536 4.47-.325.207-.629.468-.914.803-.153.027-.306.052-.462.069-.74.082-1.351-.035-1.992.039-.317-.797-1.547-.439-1.349.436.029.304.053.392.071.263-.056.376.117.694.394.826.083.248.118.479.034.643-.354.682.6 1.53 1.119.864.879-1.126 2.376-1.486 3.732-1.247.248.044.485.063.706.053 0 0-.001 0-.001.001-.018.044-.035.091-.052.136-.091.059-.17.144-.231.263-.127.245-.209.437-.288.668-.061.098-.095.21-.095.333v.071c0 .169.053.308.134.417.217.521.965.577 1.265.085.333-.548.562-1.131.681-1.735.002-.01.004-.021.006-.032.039-.202.063-.408.075-.616.112.004.227-.015.337-.07l.712-.356c.195-.098.305-.289.337-.494.265-.2.543-.375.864-.486.356-.123.59-.31.866-.557.282-.247.27-.582.106-.836z" fill="#24e899"/><g fill="#00004a"><path d="m49.19 60.567h-.854c0-2.743 9.462-4.177 18.81-4.177v.855c-11.126 0-17.956 1.935-17.956 3.322z"/><path d="m49.478 82.471h-.854c0-2.743 9.317-4.178 18.521-4.178v.854c-11.375.001-17.667 1.967-17.667 3.324z"/><path d="m66.364 56.817h.854v21.903h-.854z"/><path d="m51.797 58.376h.855v22.22h-.855z"/><path d="m55.321 57.032h.854v22.219h-.854z"/><path d="m59.454 56.659h.854v22.221h-.854z"/><path d="m63.228 56.659h.855v22.221h-.855z"/><path d="m49.619 85.601h.178c-.004-.025-.008-.05-.011-.074v-.002c-.058-.449-.067-.896-.063-1.352 0-.001 0-.002 0-.004h-.113l-.012-1.697-.165-24.735c.065-4.167-1.258-7.704-3.934-10.514-.06-.065-.122-.131-.185-.193-.131-.137-.266-.265-.402-.394-.153-.146-.308-.288-.465-.427-1.266-1.104-2.646-1.973-4.004-2.65-.353-.174-.703-.339-1.051-.49-1.476-.642-2.875-1.063-4.003-1.334-.36-.086-.687-.151-.986-.208l-.065-.012c-.351-.063-.653-.108-.895-.136-.245-.029-.428-.044-.544-.044h-1.505c-.188 0-.556.035-1.06.115-.305.048-.658.114-1.052.202-.547.12-1.174.276-1.85.484-.675.206-1.405.462-2.155.772-.244.099-.49.211-.738.322-.105.048-.208.094-.313.146-1.345.638-2.725 1.462-4.004 2.517-.359.293-.709.607-1.051.943-.066.063-.128.128-.194.194-2.798 2.841-4.187 6.443-4.118 10.707l-.163 24.735-.011 1.697h-.101c-.001.08-.001.162-.004.242.005.038.011.076.011.117-.001.313-.022.623-.101.927-.002.012-.009.022-.012.033-.002.037-.004.074-.006.112h.201l-.017 2.778-.009 1.086c0 1.69 1.368 3.058 3.055 3.058h28.887c1.687 0 3.056-1.367 3.056-3.058l-.009-1.352zm-30.449 2.513h-3.2c-.089 0-.175.003-.26.012l.037-5.653.163-24.738c-.055-3.687 1.04-6.831 3.26-9.367zm5.055 0h-4.004v-40.824c1.246-1.151 2.634-2.044 4.004-2.733zm5.056 0h-4.004v-44.054c1.493-.652 2.908-1.07 4.004-1.325zm5.056 0h-4.004v-45.595c.527-.092.901-.129 1.06-.129h1.505c.196 0 .709.057 1.439.2zm5.055 0h-4.003v-45.287c1.134.285 2.539.732 4.003 1.405zm5.056 0h-4.004v-43.361c1.389.735 2.78 1.685 4.004 2.898zm1.052 0v-39.291c1.967 2.454 2.933 5.443 2.881 8.911l.163 24.738.037 5.642z"/><path d="m31.803 37.518h1.14v3.818h-1.14z"/><path d="m32.307 38.859c-1.729 0-3.134-1.406-3.134-3.134s1.406-3.134 3.134-3.134 3.134 1.406 3.134 3.134c0 1.729-1.405 3.134-3.134 3.134zm0-5.129c-1.099 0-1.995.895-1.995 1.995s.896 1.994 1.995 1.994 1.994-.895 1.994-1.994c0-1.1-.895-1.995-1.994-1.995z"/><path d="m79.097 44.665c-1.193.98-2.546 1.507-4.05 1.778-1.383.249-2.78-.057-4.14.261-.447.105-.259.792.188.687.879-.206 1.742-.08 2.633-.099.819-.019 1.641-.175 2.439-.346 1.26-.27 2.443-.965 3.433-1.778.357-.292-.151-.792-.503-.503z"/><path d="m72.219 46.548c-.416.009-.765.428-1.039.696-.536.524-1.028.81-1.802.894-.451.048-.456.761 0 .711.651-.07 1.33-.216 1.846-.65.163-.138.31-.301.46-.451.098-.097.422-.485.535-.487.459-.011.46-.724 0-.713z"/><path d="m68.223 44.999c-.194 1.275.014 2.603.759 3.675.261.374.878.019.615-.36-.632-.908-.854-2.037-.688-3.125.069-.45-.618-.643-.686-.19z"/><path d="m68.617 45.4c1.051-.006 2.098.237 3.146.101.449-.059.454-.771 0-.712-1.049.137-2.096-.107-3.146-.101-.459.002-.459.714 0 .712z"/><path d="m71.03 46.138c1.1-.679 2.052-1.617 3.328-1.972 1.074-.298 2.362.315 3.294-.337.372-.262.018-.881-.36-.616-.379.267-1.375.009-1.894.091-.708.111-1.339.168-2.006.446-1.001.415-1.812 1.21-2.722 1.771-.391.242-.033.858.36.617z"/><path d="m79.349 45.272c.492-.058.871-.158 1.317.104.396.233.755-.383.359-.615-.264-.154-.522-.254-.826-.284-.278-.028-.574.05-.851.083-.45.054-.454.767.001.712z"/><path d="m79.831 44.537c.178.009.328.036.463.124.134.086.213.331.26.502.12.443.808.254.687-.189-.085-.316-.22-.638-.48-.849-.269-.217-.591-.283-.929-.301-.461-.024-.458.688-.001.713z"/><path d="m80.062 44c-.33-.571-.671-1.033-1.329-1.229-.63-.188-1.296.157-1.67.646-.278.365.341.719.615.359.274-.359.766-.406 1.146-.207.298.157.462.514.623.791.229.398.845.039.615-.36z"/><path d="m75.971 38.672c-.556.98-.62 2.107-.377 3.191.188.839.437 1.852 1.397 2.06.448.096.639-.591.189-.687-.718-.156-.806-1.143-.939-1.739-.185-.823-.071-1.73.346-2.465.227-.399-.388-.759-.616-.36z"/><path d="m68.027 36.457c1.433-.373 2.803.045 4.149.532 1.341.485 2.908.986 3.852 2.116.295.354.796-.154.504-.503-.943-1.129-2.393-1.632-3.73-2.144-1.599-.611-3.261-1.132-4.965-.688-.444.115-.255.802.19.687z"/><path d="m67.663 36.312c.657.987 1.756 1.271 2.588 2.056.716.676 1.117 1.551 2.153 1.78.448.099.638-.588.19-.688-.917-.203-1.364-1.147-2.005-1.751-.722-.683-1.738-.897-2.312-1.758-.253-.38-.87-.023-.614.361z"/><path d="m71.242 39.455c.55 1.586.02 3.797 1.513 4.953.358.278.866-.224.504-.504-1.335-1.032-.827-3.19-1.329-4.638-.15-.432-.839-.246-.688.189z"/><path d="m76.681 46.132c-.968 1.711-1.977 3.461-3.495 4.749-.352.297.154.799.504.503 1.562-1.324 2.61-3.131 3.607-4.893.226-.4-.389-.76-.616-.359z"/><path d="m73.944 46.972c.084.735.074 1.457-.038 2.188-.112.732-.581 1.22-.837 1.877-.167.429.522.613.687.19.263-.675.691-1.137.837-1.878.154-.781.155-1.59.063-2.377-.052-.451-.764-.457-.712 0z"/><path d="m68.421 46.453c.388.115.787.064 1.179 0 .191-.031.296-.267.248-.438-.055-.202-.247-.28-.438-.25-.264.044-.538.078-.8 0-.442-.13-.628.557-.189.688z"/><path d="m69.106 47.708c.207-.084.436-.126.617-.265.154-.118.235-.304.127-.487-.089-.152-.332-.246-.486-.128-.134.101-.289.128-.448.193-.18.073-.306.234-.249.438.046.172.258.322.439.249z"/><path d="m71.885 41.518c.27.132.551.227.855.192.193-.022.356-.146.356-.357 0-.177-.163-.378-.356-.356-.183.021-.329-.012-.498-.093-.174-.085-.383-.05-.486.127-.093.158-.046.402.129.487z"/><path d="m72.42 43.277c.284.002.569.034.854.036.46.002.459-.71 0-.712-.285-.002-.57-.033-.854-.036-.46-.005-.46.707 0 .712z"/><path d="m78.345 43.954c-.005 0-.01 0-.014 0-.292 0-.292.452 0 .452h.014c.291-.001.291-.452 0-.452z"/><path d="m90.359 49.819c.08.557.982.873 1.401 1.125.768.461 2.152 1.388 2.384 2.328.068.277.495.16.426-.118-.188-.769-.92-1.34-1.517-1.801-.42-.324-.83-.647-1.285-.921-.261-.157-.935-.398-.982-.731-.041-.282-.468-.162-.427.118z"/><path d="m94.114 53.124c.03.396-.476.606-.476 1.018 0 .33.148.754.453.922.248.139.473-.244.222-.382-.302-.168-.253-.586-.076-.809.184-.23.342-.44.319-.749-.021-.283-.464-.285-.442 0z"/><path d="m94.335 55.085c.085-.04.401.146.48.186.135.068.245.141.334.262.158.217.461.6.491.867.031.281.475.283.441 0-.048-.437-.405-.929-.681-1.258-.24-.289-.926-.61-1.289-.438-.257.121-.031.503.224.381z"/><path d="m95.93 56.32c-.3-.152-.541-.364-.904-.275-.608.151-1.15.148-1.776.112-.284-.017-.283.426 0 .442.431.025.854.054 1.285.022.161-.012.316-.067.471-.115.287-.087.462.074.701.195.253.13.477-.252.223-.381z"/><path d="m93.014 56.452c-.142.428-.042 1.066-.408 1.385-.215.188.1.5.313.313.458-.398.35-1.055.523-1.581.09-.271-.338-.387-.428-.117z"/><path d="m85.069 54.311c.698.136 1.347.346 2.061.406.95.081 1.755.436 2.601.855.255.126.479-.255.224-.382-.593-.295-1.22-.665-1.87-.802-.954-.202-1.938-.318-2.897-.505-.281-.052-.4.374-.119.428z"/><path d="m89.628 55.367c-.067.407-.236 1.224.31 1.379.274.079.392-.348.117-.427-.154-.043-.021-.713-.001-.834.048-.279-.38-.4-.426-.118z"/><path d="m86.152 59.225c1.085.254 2.16.105 3.24-.103 1.143-.22 2.493-.419 3.549-.916.259-.122.033-.503-.223-.383-.928.436-2.098.556-3.091.796-1.091.266-2.25.437-3.357.178-.277-.063-.395.363-.118.428z"/><path d="m85.141 54.268c.527-.128 1.009-.542 1.558-.546.285-.002.285-.445 0-.443-.607.005-1.101.422-1.675.563-.277.065-.16.492.117.426z"/><path d="m86.912 53.455c-.183-.317-.177-.691-.288-1.032-.087-.271-.515-.155-.426.118.124.383.125.781.331 1.138.144.246.527.023.383-.224z"/><path d="m86.277 52.65c.693.507 1.146.913 2.001 1.143.874.235 1.851.058 2.744.186.279.04.4-.387.117-.427-.723-.104-1.447-.096-2.176-.121-1.048-.038-1.675-.586-2.464-1.163-.23-.168-.45.217-.222.382z"/><path d="m91.339 53.587c-.011-.015-.022-.052-.021-.021.003.039-.021.046.003.022-.016.016.056-.032.074-.042.037-.018.056-.025.095-.04.157-.059.321-.099.455-.205.096-.074.078-.235 0-.313-.093-.093-.218-.074-.313 0 .039-.031-.042.014-.04.013-.046.018-.095.034-.144.051-.109.038-.22.079-.321.136-.234.131-.319.389-.172.622.155.241.538.02.384-.223z"/><path d="m90.314 49.545c-.526 1.367.364 2.858 1.341 3.779.207.195.521-.116.313-.313-.867-.818-1.696-2.126-1.226-3.348.102-.267-.326-.381-.428-.118z"/><path d="m86.395 59.085c.113-.536 1.015-1.084 1.417-1.362.661-.456 1.417-.778 2.205-.917.282-.049.162-.476-.116-.428-.914.16-1.743.57-2.502 1.094-.503.347-1.296.861-1.431 1.496-.059.279.368.397.427.117z"/><path d="m94.482 55.835c.286 0 .286-.441 0-.441-.284 0-.284.441 0 .441z"/><path d="m87.631 57.943c.155-.008.314-.003.467.028.279.057.397-.371.117-.427-.19-.039-.389-.055-.584-.043-.283.016-.285.458 0 .442z"/><path d="m88.75 57.303c.142-.044.391.066.533.129.111.048.237.033.304-.08.055-.094.03-.254-.08-.303-.255-.111-.593-.261-.874-.173-.273.085-.156.513.117.427z"/><path d="m91.483 52.553c.036-.052.238-.044.299-.042.285.011.284-.432 0-.442-.25-.01-.53.044-.682.261-.164.233.221.455.383.223z"/><path d="m90.771 51.582c.084-.042.161-.054.253-.05.286.009.285-.433 0-.442-.171-.006-.324.034-.477.11-.255.127-.03.509.224.382z"/><path d="m90.882 53.962c.837.078 1.506.558 2.239.914.342.167.82.391 1.194.223.26-.116.035-.498-.224-.382-.193.086-.798-.247-.94-.317-.251-.122-.484-.281-.735-.405-.488-.24-.989-.425-1.534-.476-.284-.026-.281.418 0 .443z"/><path d="m91.42 55.745c.372.104.753.242 1.007.548.182.22.493-.094.313-.313-.3-.361-.762-.539-1.202-.662-.277-.077-.393.35-.118.427z"/></g><path d="m9.826 38.141v53.121l46.072 26.559 46.074-26.559v-53.121l-46.074-26.561zm90.281 1.08v50.971l-44.209 25.489-44.211-25.489v-50.971l44.211-25.489z" opacity=".13"/></svg>