<svg enable-background="new 0 0 110.979 128.417" height="128.417" viewBox="0 0 110.979 128.417" width="110.979" xmlns="http://www.w3.org/2000/svg" xmlns:xlink="http://www.w3.org/1999/xlink"><radialGradient id="a" cx="55.2505" cy="65.0405" gradientUnits="userSpaceOnUse" r="37.501"><stop offset="0" stop-color="#38ffff"/><stop offset="1" stop-color="#2aff91" stop-opacity="0"/></radialGradient><path d="m110.849 96.417-55.426 32-55.423-32v-64l55.423-32 55.426 32z" fill="#2a443a"/><path d="m101.926 38.143v53.131l-.009.01-1.42.819-6.281 3.62-2.719 1.57-.241.121-.13.059-.11.061-3.03 1.74-1.869 1.079-.04.03-3.25 1.88-.87.511-1.38.79-1.46.85-.181.099-.019.011-1.71.989-.96.551-4.621 2.67-.629.369-.061.03-3.5 2.021-4.04 2.33-.01.01-.429.25-7.081 4.089-7.57-4.379-.04-.021-2.069-1.199-5.361-3.101-.69-.399-5.09-2.941-.389-.229-.491-.28-.33-.191-1.849-1.069-.571-.33-1.71-.99-2.509-1.451-2.911-1.679-.089-.05-4.67-2.7-2.111-1.221-7.5-4.329v-53.131l14.33-8.279 1.991-1.151 4.929-2.839 1.58-.911.17-.099 1.66-.95 1.161-.67 1.54-.901.519-.3 2.28-1.309.69-.401 1.46-.839 5.721-3.3.46-.261 6.069-3.51 1.44-.83 1.06.611 6.49 3.75 14.53 8.389 1.04.601 2.3 1.319.87.5 1.52.88 1.37.79.801.46.09.051 1.809 1.04 3.78 2.189.04.021v.01l.26.149.66.381 1.46.84 1.941 1.12.779.449.441.25 1.939 1.12z" fill="#647a73"/><path d="m98.333 89.458h-6.416v-46.5l6.343-2.698z" fill="#316163"/><path d="m98.417 89.166-42.521 24.511-2.198-4.463 40.357-23.762z" fill="#316163"/><path d="m98.417 40.498-41.97-24.717-2.749 4.668 40.357 23.762z" fill="#316163"/><path d="m98.333 40.205h-6.416v46.5l6.343 2.698z" fill="#316163"/><path d="m13.531 40.123 42.459-24.165 2.258 4.116-40.356 23.762z" fill="#316163"/><path d="m13.531 88.791 41.969 24.716 2.748-4.668-40.356-23.762z" fill="#316163"/><path d="m13.613 89.083h6.416v-46.5l-6.342-2.698z" fill="#316163"/><circle cx="55.251" cy="65.042" fill="url(#a)" r="37.501"/><path d="m98.426 40.261v48.896l-.009.009-1.306.753-5.779 3.332-2.504 1.445-.221.111-.119.055-.103.055-2.788 1.602-1.72.993-.037.028-2.991 1.73-.801.47-1.269.727-1.344.782-.166.091-.019.011-1.574.91-.883.506-4.251 2.457-.58.341-.055.027-3.221 1.86-3.718 2.144-.01.009-.395.23-6.515 3.764-6.968-4.03-.036-.02-1.904-1.103-4.933-2.854-.636-.368-4.684-2.706-.359-.211-.451-.258-.304-.174-1.702-.985-.525-.304-1.573-.912-2.31-1.334-2.678-1.546-.083-.044-4.298-2.486-1.941-1.123-6.903-3.984v-48.896l13.188-7.619 1.831-1.059 4.537-2.613 1.455-.838.156-.091 1.528-.875 1.067-.616 1.417-.829.478-.276 2.099-1.205.635-.368 1.343-.773 5.265-3.037.423-.24 5.586-3.23 1.325-.764.976.562 5.973 3.45 13.372 7.722.957.552 2.116 1.215.801.459 1.397.81 1.262.727.737.424.082.046 1.666.957 3.479 2.015.037.019v.009l.238.138.607.35 1.345.773 1.785 1.031.718.413.405.23 1.785 1.032z" fill="none" stroke="#aaceb0" stroke-miterlimit="10" stroke-width=".5"/><path d="m60.917 104.875 31.166-18.417" fill="none" stroke="#aaceb0" stroke-miterlimit="10" stroke-width=".5"/><path d="m98.426 89.157-6.343-2.699" fill="none" stroke="#aaceb0" stroke-miterlimit="10" stroke-width=".5"/><path d="m92.083 86.458v-16.333" fill="none" stroke="#aaceb0" stroke-miterlimit="10" stroke-width=".5"/><path d="m60.75 24.542 31.167 18.416" fill="none" stroke="#aaceb0" stroke-miterlimit="10" stroke-width=".5"/><path d="m98.26 40.26-6.343 2.698" fill="none" stroke="#aaceb0" stroke-miterlimit="10" stroke-width=".5"/><path d="m91.917 42.958v16.334" fill="none" stroke="#aaceb0" stroke-miterlimit="10" stroke-width=".5"/><path d="m51.197 104.542-31.167-18.417" fill="none" stroke="#aaceb0" stroke-miterlimit="10" stroke-width=".5"/><path d="m13.688 88.824 6.342-2.699" fill="none" stroke="#aaceb0" stroke-miterlimit="10" stroke-width=".5"/><path d="m20.03 86.125v-16.333" fill="none" stroke="#aaceb0" stroke-miterlimit="10" stroke-width=".5"/><path d="m51.363 24.208-31.167 18.417" fill="none" stroke="#aaceb0" stroke-miterlimit="10" stroke-width=".5"/><path d="m13.854 39.927 6.342 2.698" fill="none" stroke="#aaceb0" stroke-miterlimit="10" stroke-width=".5"/><path d="m20.196 42.625v16.333" fill="none" stroke="#aaceb0" stroke-miterlimit="10" stroke-width=".5"/><path d="m69.833 38.208h6v52.417h-6z" fill="#316163"/><path d="m34.833 38.458h5.833v52.25h-5.833z" fill="#316163"/><path d="m55.876 32.035-6.902-4.088.089-8.021 6.991-3.933 6.903 4.087-.09 8.02z" fill="#21352e"/><path d="m55.876 113.197-6.902-4.088.089-8.021 6.991-3.933 6.903 4.087-.09 8.02z" fill="#21352e"/><path d="m16.405 58.875h8.25v10.625h-8.25z" fill="#21352e"/><path d="m87.365 57.41h11.043v14.223h-11.043z" fill="#21352e"/><path d="m13.781 57.41h11.043v14.223h-11.043z" fill="#21352e"/><path d="m67.502 93.125-24.667-11.043v-46.29l24.667 9.832z" fill="#aaceb0"/><path d="m41.551 61.778-.468.44v2.14l28.25 11.27v-.277z" fill="#647a73"/><path d="m41.083 60.445v.122l28.25 12.139v-2.554z" fill="#647a73"/><path d="m41.551 55.278-.468.44v2.14l28.25 11.27v-.277z" fill="#647a73"/><path d="m41.083 53.945v.122l28.25 12.139v-2.554z" fill="#647a73"/><path d="m41.083 79.945v.122l28.263 12.143c-.001-.044-.013-.082-.013-.127v-2.432z" fill="#647a73"/><path d="m41.551 74.778-.468.44v2.14l28.25 11.27v-.277z" fill="#647a73"/><path d="m41.083 73.445v.122l28.25 12.139v-2.554z" fill="#647a73"/><path d="m41.551 68.278-.468.44v2.14l28.25 11.27v-.277z" fill="#647a73"/><path d="m41.083 66.945v.122l28.25 12.139v-2.554z" fill="#647a73"/><path d="m41.551 48.778-.468.44v2.14l28.25 11.27v-.277z" fill="#647a73"/><path d="m41.083 47.445v.122l28.25 12.138v-2.553z" fill="#647a73"/><path d="m41.551 42.278-.468.44v2.14l28.25 11.27v-.277z" fill="#647a73"/><path d="m41.083 40.945v.122l28.25 12.138v-2.553z" fill="#647a73"/><path d="m41.551 35.778-.468.44v2.14l28.25 11.27v-.277z" fill="#647a73"/><path d="m41.083 34.446v.121l28.25 12.138v-2.553z" fill="#647a73"/><path d="m40.803 34.125h28.73v60.751h-28.73z" fill="none" stroke="#aaceb0" stroke-miterlimit="10" stroke-width=".5"/><path d="m76 38.042v53.083" fill="none" stroke="#aaceb0" stroke-miterlimit="10" stroke-width=".5"/><path d="m69.5 90.844h6.5" fill="none" stroke="#aaceb0" stroke-miterlimit="10" stroke-width=".5"/><path d="m69.474 38.292h6.75" fill="none" stroke="#aaceb0" stroke-miterlimit="10" stroke-width=".5"/><path d="m34.447 91.125v-53.083" fill="none" stroke="#aaceb0" stroke-miterlimit="10" stroke-width=".5"/><path d="m40.947 38.323h-6.5" fill="none" stroke="#aaceb0" stroke-miterlimit="10" stroke-width=".5"/><path d="m40.974 90.875h-6.75" fill="none" stroke="#aaceb0" stroke-miterlimit="10" stroke-width=".5"/><path d="m63.217 19.98v8.278h-.002l-.22.128-.979.564-.424.244-.037.02-.02.009-.018.008-.472.271-.291.17-.005.004-.507.294-.136.079-.214.122-.228.133-.029.015-.002.003-.267.153-.149.086-.72.416-.097.058-.011.004-.545.315-.629.363-.002.001-.067.039-1.103.638-1.179-.683-.006-.003-.323-.187-.835-.483-.108-.062-.792-.458-.061-.037-.076-.043-.052-.029-.287-.166-.09-.052-.265-.155-.392-.225-.454-.262-.013-.008-.728-.421-.328-.19-1.169-.673v-8.278l2.232-1.29.311-.18.768-.442.246-.141.026-.015.26-.148.179-.105.24-.14.082-.047.354-.205.108-.062.227-.13.891-.515.072-.04.946-.546.224-.13.165.094 1.011.585 2.265 1.307.162.094.357.206.136.077.237.137.212.124.125.072.015.007.282.162.589.341.006.003v.003l.04.022.102.06.229.13.303.175.12.069.069.038.302.176z" fill="none" stroke="#aaceb0" stroke-miterlimit="10" stroke-width=".5"/><path d="m63.217 101.142v8.277h-.002l-.22.129-.979.565-.424.244-.037.019-.02.008-.018.01-.472.271-.291.168-.005.005-.507.294-.136.078-.214.123-.228.133-.029.015-.002.003-.267.152-.149.086-.72.417-.097.058-.011.004-.545.316-.629.361-.002.002-.067.039-1.103.637-1.179-.681-.006-.003-.323-.187-.835-.484-.108-.062-.792-.458-.061-.037-.076-.043-.052-.029-.287-.166-.09-.052-.265-.155-.392-.225-.454-.262-.013-.007-.728-.422-.328-.19-1.169-.674v-8.277l2.232-1.29.311-.18.768-.442.246-.141.026-.015.26-.149.179-.104.24-.14.082-.047.354-.205.108-.062.227-.129.891-.516.072-.04.946-.546.224-.131.165.095 1.011.585 2.265 1.307.162.093.357.207.136.077.237.136.212.125.125.073.015.006.282.163.589.34.006.002v.004l.04.022.102.06.229.129.303.176.12.069.069.038.302.176z" fill="none" stroke="#aaceb0" stroke-miterlimit="10" stroke-width=".5"/><path d="m87.365 57.41h11.043v14.223h-11.043z" fill="none" stroke="#aaceb0" stroke-miterlimit="10" stroke-width=".5"/><path d="m13.781 57.41h11.043v14.223h-11.043z" fill="none" stroke="#aaceb0" stroke-miterlimit="10" stroke-width=".5"/><path d="m73.654 46.055h-35.729c-2.458 0-4.449 1.992-4.449 4.451v24.045c0 2.459 1.991 4.45 4.449 4.45h13.859v3.185h-3.908c-.526 0-.954.16-.954.358v3.534c0 .198.427.355.954.355h15.829c.526 0 .952-.157.952-.355v-3.534c0-.198-.426-.358-.952-.358h-3.911v-3.185h13.859c2.457 0 4.452-1.991 4.452-4.45v-24.045c.001-2.459-1.994-4.451-4.451-4.451z" fill="#d3d3d3" stroke="#40605a" stroke-miterlimit="10"/><path d="m78.604 64.042h8.813" fill="none" stroke="#aaceb0" stroke-miterlimit="10" stroke-width=".5"/><path d="m24.74 64.042h8.239" fill="none" stroke="#aaceb0" stroke-miterlimit="10" stroke-width=".5"/><path d="m58.047 62.636c0 1.283-1.485 2.323-3.318 2.323h-14.516c-1.832 0-3.318-1.04-3.318-2.323v-10.169c0-1.284 1.486-2.324 3.318-2.324h14.516c1.833 0 3.318 1.04 3.318 2.324z" fill="#316163"/><path d="m55.673 52.192c0 .434-.533.785-1.19.785h-14.492c-.657 0-1.19-.351-1.19-.785 0-.433.533-.784 1.19-.784h14.492c.657 0 1.19.352 1.19.784z" fill="#aaceb0"/><g clip-rule="evenodd" fill-rule="evenodd"><path d="m57.752 25.835c1.021 0 2.003-.004 2.985.004.186 0 .212-.081.211-.236-.008-.458-.017-.915.001-1.373.009-.228-.067-.289-.289-.281-.56.013-1.124.004-1.685.003-.117 0-.246.031-.243-.168.003-.174.116-.153.226-.158.44-.012.879-.032 1.319-.035.647-.006.635-.001.683-.65.015-.203-.023-.255-.225-.253-.893.007-1.785.006-2.678 0-.161-.001-.231.031-.228.211.012.501.01 1.003 0 1.504-.003.169.048.226.222.224.549-.01 1.101-.001 1.652-.006.135 0 .251-.016.251.191 0 .202-.087.227-.254.226-.533-.009-1.063.009-1.595-.009-.233-.007-.292.069-.279.287.01.164.061.341-.074.519zm-1.785-.045c.432 0 .865-.015 1.295.006.248.012.308-.08.299-.308-.015-.423-.015-.844 0-1.266.008-.205-.05-.278-.267-.272-.592.012-1.185.001-1.775.007-.146 0-.221-.029-.221-.199.003-.168.094-.168.214-.168.452.001.903 0 1.354 0 .735 0 .729 0 .694-.749-.008-.153-.05-.205-.209-.205-.894.007-1.786.007-2.68 0-.174-.001-.222.054-.219.224.009.43.004.862.003 1.292 0 .457-.001.461.46.469.471.007.943.004 1.416 0 .138 0 .244-.007.246.196.003.211-.098.221-.26.22-.461-.006-.922-.007-1.383 0-.559.009-.462-.102-.482.501-.007.194.054.262.252.255.421-.012.842-.003 1.263-.003zm-4.893-1.594c0 .442.01.884-.004 1.326-.006.207.052.276.268.274.763-.014 1.526 0 2.289-.008.585-.004.49.09.513-.506.009-.237-.066-.31-.305-.302-.531.018-1.063-.001-1.595.01-.188.004-.244-.06-.235-.242.012-.281.018-.564-.002-.844-.019-.234.074-.288.291-.282.542.012 1.084.001 1.626.004.124 0 .24-.019.211-.175-.053-.268.139-.569-.109-.806-.016-.016-.058-.006-.087-.006-.885 0-1.768.006-2.651-.003-.188-.001-.212.078-.209.234.004.443 0 .882-.001 1.326z" fill="#fff"/><path d="m57.752 25.835c.135-.178.084-.355.075-.519-.013-.218.046-.294.279-.287.531.018 1.062 0 1.595.009.167.001.254-.024.254-.226 0-.208-.116-.191-.251-.191-.552.004-1.104-.004-1.652.006-.174.001-.225-.055-.222-.224.01-.501.012-1.003 0-1.504-.004-.18.066-.212.228-.211.893.006 1.785.007 2.678 0 .201-.001.239.05.225.253-.048.648-.035.644-.683.65-.44.003-.879.023-1.319.035-.109.004-.223-.016-.226.158-.003.199.126.168.243.168.561.001 1.125.01 1.685-.003.222-.007.298.053.289.281-.018.458-.009.915-.001 1.373.001.155-.025.236-.211.236-.983-.008-1.964-.004-2.986-.004z" fill="#fff"/><path d="m55.967 25.79c-.421 0-.843-.009-1.263.003-.198.007-.259-.061-.252-.255.021-.603-.076-.492.482-.501.461-.007.922-.006 1.383 0 .162.001.263-.009.26-.22-.002-.203-.108-.196-.246-.196-.473.004-.945.007-1.416 0-.461-.007-.46-.012-.46-.469.001-.43.006-.862-.003-1.292-.003-.169.045-.225.219-.224.894.007 1.786.007 2.68 0 .159 0 .201.051.209.205.035.749.041.749-.694.749-.45 0-.901.001-1.354 0-.12 0-.211 0-.214.168 0 .169.075.199.221.199.59-.006 1.183.004 1.775-.007.217-.006.274.068.267.272-.015.421-.015.843 0 1.266.009.229-.051.32-.299.308-.429-.021-.863-.006-1.295-.006z" fill="#fff"/><path d="m51.075 24.196c0-.443.004-.882-.001-1.325-.003-.156.021-.235.209-.234.883.009 1.767.003 2.651.003.029 0 .071-.01.087.006.249.237.057.538.109.806.029.156-.087.175-.211.175-.542-.003-1.084.007-1.626-.004-.217-.006-.31.047-.291.282.021.28.015.563.002.844-.009.182.047.246.235.242.532-.012 1.064.007 1.595-.01.238-.007.313.065.305.302-.022.597.073.502-.513.506-.763.008-1.526-.006-2.289.008-.216.001-.274-.068-.268-.274.015-.443.005-.885.006-1.327z" fill="#fff"/><path d="m39.594 54.303h15.342v8.731h-15.342z" fill="#e5eae8"/><path d="m47.246 60.728c-.535 0-1.068-.011-1.601.004-.25.008-.327-.079-.318-.325.026-.761-.096-.622.609-.634.584-.007 1.168-.007 1.752.001.204.003.331-.011.33-.278-.004-.256-.138-.248-.314-.247-.597.004-1.193.009-1.79 0-.584-.008-.583-.017-.583-.593.001-.545.008-1.093-.004-1.637-.004-.214.058-.286.278-.283 1.13.008 2.26.008 3.39 0 .201-.001.255.065.266.261.044.945.051.945-.879.945-.572 0-1.141.001-1.714 0-.15-.001-.266 0-.269.214-.001.215.095.25.278.25.75-.007 1.498.008 2.248-.008.272-.006.346.085.336.347-.017.532-.018 1.066.001 1.598.011.291-.066.405-.379.392-.546-.026-1.091-.007-1.637-.007z" fill="#316163"/><path d="m51.832 60.728c-.535 0-1.068-.011-1.601.004-.251.008-.327-.079-.318-.325.026-.761-.097-.622.609-.634.584-.007 1.168-.007 1.753.001.204.003.331-.011.329-.278-.004-.256-.138-.248-.314-.247-.597.004-1.193.009-1.79 0-.584-.008-.583-.017-.583-.593.001-.545.008-1.093-.004-1.637-.004-.214.058-.286.278-.283 1.13.008 2.26.008 3.39 0 .201-.001.255.065.266.261.044.945.051.945-.879.945-.572 0-1.141.001-1.714 0-.15-.001-.266 0-.269.214-.001.215.095.25.278.25.75-.007 1.498.008 2.248-.008.273-.006.346.085.336.347-.017.532-.018 1.066.001 1.598.011.291-.066.405-.379.392-.546-.026-1.092-.007-1.637-.007z" fill="#316163"/><path d="m41.051 58.708c0-.559.005-1.117-.002-1.677-.003-.196.027-.299.265-.296 1.118.011 2.236.006 3.354.006.037 0 .091-.014.112.005.314.302.071.682.138 1.022.037.197-.11.222-.266.22-.688-.002-1.372.01-2.059-.005-.275-.007-.391.059-.369.357.027.354.019.711.003 1.068-.012.23.059.31.298.306.673-.015 1.347.01 2.019-.012.3-.01.396.08.384.38-.027.756.094.638-.647.642-.967.008-1.933-.008-2.897.008-.273.003-.348-.084-.339-.346.018-.558.006-1.118.006-1.678z" fill="#316163"/><circle cx="39.83" cy="52.202" fill="#316163" r=".353"/><circle cx="64.805" cy="105.854" fill="#97efec" r=".597"/><circle cx="68.647" cy="103.585" fill="#97efec" r=".597"/><circle cx="72.488" cy="101.316" fill="#97efec" r=".597"/><circle cx="76.33" cy="99.048" fill="#97efec" r=".597"/><circle cx="80.171" cy="96.779" fill="#97efec" r=".597"/><circle cx="84.013" cy="94.511" fill="#97efec" r=".597"/><circle cx="87.854" cy="92.242" fill="#97efec" r=".597"/><circle cx="91.696" cy="89.973" fill="#97efec" r=".597"/><circle cx="95" cy="84.583" fill="#97efec" r=".597"/><circle cx="95" cy="79.75" fill="#97efec" r=".597"/><circle cx="95" cy="73.884" fill="#97efec" r=".597"/><circle cx="17.154" cy="84.583" fill="#97efec" r=".597"/><circle cx="17.154" cy="79.75" fill="#97efec" r=".597"/><circle cx="17.154" cy="73.884" fill="#97efec" r=".597"/><circle cx="64.805" cy="23.771" fill="#97efec" r=".597"/><circle cx="68.647" cy="26.04" fill="#97efec" r=".597"/><circle cx="72.488" cy="28.309" fill="#97efec" r=".597"/><circle cx="76.33" cy="30.577" fill="#97efec" r=".597"/><circle cx="80.171" cy="32.846" fill="#97efec" r=".597"/><circle cx="84.013" cy="35.114" fill="#97efec" r=".597"/><circle cx="87.854" cy="37.383" fill="#97efec" r=".597"/><circle cx="91.696" cy="39.652" fill="#97efec" r=".597"/><circle cx="95" cy="45.042" fill="#97efec" r=".597"/><circle cx="95" cy="49.876" fill="#97efec" r=".597"/><circle cx="95" cy="55.741" fill="#97efec" r=".597"/><circle cx="47.724" cy="23.452" fill="#97efec" r=".597"/><circle cx="43.882" cy="25.721" fill="#97efec" r=".597"/><circle cx="40.041" cy="27.99" fill="#97efec" r=".597"/><circle cx="36.199" cy="30.258" fill="#97efec" r=".597"/><circle cx="32.358" cy="32.527" fill="#97efec" r=".597"/><circle cx="28.517" cy="34.795" fill="#97efec" r=".597"/><circle cx="24.675" cy="37.064" fill="#97efec" r=".597"/><circle cx="20.833" cy="39.333" fill="#97efec" r=".597"/><circle cx="17.529" cy="44.723" fill="#97efec" r=".597"/><circle cx="17.529" cy="49.557" fill="#97efec" r=".597"/><circle cx="17.529" cy="55.422" fill="#97efec" r=".597"/><circle cx="47.241" cy="105.479" fill="#97efec" r=".597"/><circle cx="43.399" cy="103.21" fill="#97efec" r=".597"/><circle cx="39.558" cy="100.941" fill="#97efec" r=".597"/><circle cx="35.716" cy="98.673" fill="#97efec" r=".597"/><circle cx="31.875" cy="96.404" fill="#97efec" r=".597"/><circle cx="28.034" cy="94.136" fill="#97efec" r=".597"/><circle cx="24.192" cy="91.867" fill="#97efec" r=".597"/><circle cx="20.351" cy="89.598" fill="#97efec" r=".597"/></g><path d="m88.314 58.443h9.008v12.103h-9.008z" fill="#fff"/><path d="m88.676 58.868h8.261v1.506h-8.261z" fill="#b7b7b7"/><path d="m89.324 61.105h3.368v.125h-3.368z" fill="#b7b7b7"/><path d="m89.324 61.503h3.368v.125h-3.368z" fill="#b7b7b7"/><path d="m89.324 61.9h3.368v.125h-3.368z" fill="#b7b7b7"/><path d="m89.387 67.672h6.964v.126h-6.964z" fill="#b7b7b7"/><path d="m89.387 67.987h6.964v.125h-6.964z" fill="#b7b7b7"/><path d="m89.387 68.3h6.964v.125h-6.964z" fill="#b7b7b7"/><path d="m89.387 68.614h6.964v.126h-6.964z" fill="#b7b7b7"/><path d="m89.387 68.927h6.964v.126h-6.964z" fill="#b7b7b7"/><path d="m89.387 69.242h6.964v.125h-6.964z" fill="#b7b7b7"/><path d="m89.387 69.555h6.964v.125h-6.964z" fill="#b7b7b7"/><path d="m89.324 62.297h3.368v.126h-3.368z" fill="#b7b7b7"/><path d="m89.324 62.695h3.368v.125h-3.368z" fill="#b7b7b7"/><path d="m89.324 63.092h3.368v.125h-3.368z" fill="#b7b7b7"/><path d="m93.381 61.084h2.991v2.154h-2.991z" fill="#316163"/><path d="m89.387 63.72h6.964v3.535h-6.964z" fill="#647a73"/><circle cx="94.511" cy="65.477" fill="#b7b7b7" r=".899"/><circle cx="89.463" cy="59.579" fill="#21352e" r=".376"/><circle cx="90.571" cy="59.579" fill="#fff" r=".376"/><circle cx="91.596" cy="59.579" fill="#316163" r=".376"/><circle cx="91.625" cy="65.477" fill="#b7b7b7" r=".899"/><path d="m14.73 58.443h9.008v12.103h-9.008z" fill="#fff"/><path d="m15.092 58.868h8.261v1.506h-8.261z" fill="#b7b7b7"/><path d="m15.74 61.105h3.368v.125h-3.368z" fill="#b7b7b7"/><path d="m15.74 61.503h3.368v.125h-3.368z" fill="#b7b7b7"/><path d="m15.74 61.9h3.368v.125h-3.368z" fill="#b7b7b7"/><path d="m15.803 67.672h6.964v.126h-6.964z" fill="#b7b7b7"/><path d="m15.803 67.987h6.964v.125h-6.964z" fill="#b7b7b7"/><path d="m15.803 68.3h6.964v.125h-6.964z" fill="#b7b7b7"/><path d="m15.803 68.614h6.964v.126h-6.964z" fill="#b7b7b7"/><path d="m15.803 68.927h6.964v.126h-6.964z" fill="#b7b7b7"/><path d="m15.803 69.242h6.964v.125h-6.964z" fill="#b7b7b7"/><path d="m15.803 69.555h6.964v.125h-6.964z" fill="#b7b7b7"/><path d="m15.74 62.297h3.368v.126h-3.368z" fill="#b7b7b7"/><path d="m15.74 62.695h3.368v.125h-3.368z" fill="#b7b7b7"/><path d="m15.74 63.092h3.368v.125h-3.368z" fill="#b7b7b7"/><path d="m19.797 61.084h2.991v2.154h-2.991z" fill="#316163"/><path d="m15.803 63.72h6.964v3.535h-6.964z" fill="#647a73"/><circle cx="20.927" cy="65.477" fill="#b7b7b7" r=".899"/><circle cx="15.879" cy="59.579" fill="#21352e" r=".376"/><circle cx="16.987" cy="59.579" fill="#fff" r=".376"/><circle cx="18.012" cy="59.579" fill="#316163" r=".376"/><circle cx="18.041" cy="65.477" fill="#b7b7b7" r=".899"/><path d="m54.469 49.915h18.551v24.926h-18.551z" fill="#fff"/><path d="m55.214 50.79h17.014v3.101h-17.014z" fill="#b7b7b7"/><path d="m56.549 55.398h6.936v.259h-6.936z" fill="#b7b7b7"/><path d="m56.549 56.217h6.936v.258h-6.936z" fill="#b7b7b7"/><path d="m56.549 57.035h6.936v.258h-6.936z" fill="#b7b7b7"/><path d="m56.679 68.923h14.343v.258h-14.343z" fill="#b7b7b7"/><path d="m56.679 69.57h14.343v.258h-14.343z" fill="#b7b7b7"/><path d="m56.679 70.215h14.343v.258h-14.343z" fill="#b7b7b7"/><path d="m56.679 70.861h14.343v.259h-14.343z" fill="#b7b7b7"/><path d="m56.679 71.507h14.343v.259h-14.343z" fill="#b7b7b7"/><path d="m56.679 72.153h14.343v.26h-14.343z" fill="#b7b7b7"/><path d="m56.679 72.799h14.343v.259h-14.343z" fill="#b7b7b7"/><path d="m56.549 57.854h6.936v.258h-6.936z" fill="#b7b7b7"/><path d="m56.549 58.671h6.936v.259h-6.936z" fill="#b7b7b7"/><path d="m56.549 59.49h6.936v.259h-6.936z" fill="#b7b7b7"/><path d="m64.906 55.355h6.159v4.436h-6.159z" fill="#316163"/><path d="m56.679 60.783h14.343v7.279h-14.343z" fill="#647a73"/><circle cx="67.232" cy="64.401" fill="#b7b7b7" r="1.853"/><path d="m57.611 52.254c0 .428-.345.775-.776.775-.424 0-.774-.348-.774-.775 0-.429.35-.776.774-.776.431.001.776.348.776.776z" fill="#21352e"/><path d="m59.894 52.254c0 .428-.345.775-.776.775-.426 0-.775-.348-.775-.775 0-.429.35-.776.775-.776.431.001.776.348.776.776z" fill="#fff"/><circle cx="61.229" cy="52.254" fill="#316163" r=".775"/><circle cx="61.288" cy="64.401" fill="#b7b7b7" r="1.852"/><path d="m81.067 75.958h.354v7.25h-.354z" fill="#97efec"/><path d="m82.187 75.958h.354v7.25h-.354z" fill="#97efec"/><path d="m83.307 75.958h.354v7.25h-.354z" fill="#97efec"/><path d="m84.428 75.958h.354v7.25h-.354z" fill="#97efec"/><path d="m85.548 75.958h.354v7.25h-.354z" fill="#97efec"/><path d="m86.668 75.958h.354v7.25h-.354z" fill="#97efec"/><path d="m23.919 46.773h7.25v.354h-7.25z" fill="#97efec"/><path d="m23.919 47.893h7.25v.354h-7.25z" fill="#97efec"/><path d="m23.919 49.013h7.25v.354h-7.25z" fill="#97efec"/><path d="m23.919 50.134h7.25v.354h-7.25z" fill="#97efec"/><path d="m23.919 51.254h7.25v.354h-7.25z" fill="#97efec"/><path d="m23.919 52.375h7.25v.354h-7.25z" fill="#97efec"/><path d="m79.876 45.209h8.832v8.832h-8.832z" fill="#97efec"/><path d="m23.462 75.959h7.661v7.661h-7.661z" fill="#97efec" transform="matrix(.707 -.7072 .7072 .707 -48.4309 42.6789)"/><path clip-rule="evenodd" d="m59.355 103.973c.001.022.006.044.006.065v2.532c0 .021-.003.044-.004.071-.292 0-.582 0-.884 0 0-.428 0-.854 0-1.28-.006-.001-.013-.004-.019-.006-.2.31-.398.62-.604.94-.208-.323-.406-.633-.605-.942-.006.002-.012.003-.017.004v1.285c-.294 0-.578 0-.876 0 0-.033 0-.064 0-.097 0-.825 0-1.649 0-2.475 0-.033-.001-.065-.002-.099h.941c.187.312.372.622.564.942.197-.325.386-.634.574-.942.31.002.618.002.926.002z" fill="#fff" fill-rule="evenodd"/><path clip-rule="evenodd" d="m53.117 103.973c-.001.033-.004.065-.004.099v2.468.103c-.3 0-.591 0-.892 0 0-.294 0-.584 0-.881-.275 0-.542 0-.817 0v.879c-.299 0-.59 0-.895 0 0-.887 0-1.777 0-2.667h.891v.886h.818c0-.048 0-.088 0-.129.002-.253.004-.505.006-.757.298-.001.596-.001.893-.001z" fill="#fff" fill-rule="evenodd"/><path clip-rule="evenodd" d="m55.972 103.973c-.002.192-.005.384-.008.576v.313c-.263 0-.52 0-.785 0v1.781c-.299 0-.589 0-.889 0 0-.589 0-1.178 0-1.774-.267 0-.523 0-.794 0 0-.304 0-.6 0-.896z" fill="#fff" fill-rule="evenodd"/><path clip-rule="evenodd" d="m60.692 103.973c.001.033.005.065.005.099v1.592.106h1.251v.872c-.711 0-1.421 0-2.144 0 0-.032 0-.063 0-.096 0-.825 0-1.649 0-2.475 0-.033-.002-.065-.003-.099.296.001.593.001.891.001z" fill="#fff" fill-rule="evenodd"/><path clip-rule="evenodd" d="m27.124 80.966c.242-.142.486-.282.729-.423.05.067.096.132.145.194.274.344.682.409 1.022.313.116-.031.215-.095.282-.198.107-.168.074-.397-.088-.529-.082-.066-.176-.122-.272-.168-.229-.108-.463-.204-.692-.313-.207-.099-.396-.225-.552-.396-.188-.206-.28-.451-.301-.726-.018-.232.009-.458.115-.669.136-.271.349-.459.631-.563.416-.15.833-.146 1.243.025.279.117.468.334.619.597-.235.151-.469.301-.704.452-.032-.049-.06-.094-.091-.137-.152-.207-.357-.282-.607-.236-.156.028-.267.119-.304.275-.04.165-.004.317.137.424.084.063.178.117.274.162.216.103.439.192.655.297.229.109.444.244.615.438.166.188.253.407.279.655.022.213.012.423-.061.628-.117.326-.348.544-.661.679-.276.118-.566.153-.865.143-.287-.011-.563-.069-.822-.197-.309-.154-.545-.384-.71-.688-.005-.009-.009-.019-.014-.027-.001-.002-.001-.004-.002-.012z" fill="#647a73" fill-rule="evenodd"/><path clip-rule="evenodd" d="m23.922 81.064c.245-.148.489-.296.734-.444.037.06.07.118.107.174.076.116.165.219.302.263.136.043.275.039.409-.01.149-.056.208-.182.232-.327.012-.075.017-.152.017-.228.001-.992.001-1.984.001-2.976 0-.024 0-.048 0-.074h.903c.001.013.002.028.002.043v2.993c0 .207-.015.412-.081.609-.127.381-.384.631-.769.738-.381.107-.762.099-1.133-.048-.33-.133-.56-.374-.716-.69-.003-.005-.004-.013-.008-.023z" fill="#647a73" fill-rule="evenodd"/><path clip-rule="evenodd" d="m84.181 51.245c.291-.169.585-.338.878-.508.061.082.114.159.174.234.329.413.82.492 1.23.376.14-.038.259-.114.339-.239.129-.202.088-.479-.106-.637-.099-.08-.212-.146-.327-.202-.275-.13-.558-.246-.833-.376-.249-.118-.477-.27-.664-.475-.226-.248-.337-.543-.363-.874-.021-.279.011-.55.14-.804.163-.326.42-.552.759-.676.5-.182 1.002-.177 1.494.03.336.141.564.402.745.718-.283.182-.563.362-.846.544-.039-.059-.072-.113-.11-.165-.183-.249-.429-.34-.729-.284-.188.034-.321.144-.366.331-.048.199-.005.382.164.51.102.077.215.141.331.196.26.123.527.231.787.356.275.132.534.295.74.528.198.226.304.49.335.788.026.256.015.51-.073.756-.141.392-.419.654-.795.816-.332.142-.682.185-1.04.172-.346-.013-.677-.083-.988-.237-.372-.185-.655-.462-.854-.827-.007-.011-.012-.022-.018-.034-.003-.005-.003-.008-.004-.017z" fill="#647a73" fill-rule="evenodd"/><path clip-rule="evenodd" d="m80.332 51.363c.293-.179.587-.357.883-.535.044.072.085.142.129.209.091.139.197.262.361.315.165.053.331.048.493-.012.179-.066.251-.218.278-.393.016-.09.021-.184.021-.274.002-1.193.002-2.386.002-3.578 0-.029 0-.058 0-.089h1.087c0 .016.002.035.002.052 0 1.199-.001 2.399.001 3.6 0 .248-.019.495-.099.733-.152.458-.461.758-.925.887-.458.129-.916.119-1.361-.058-.397-.159-.675-.45-.862-.83-.005-.006-.008-.015-.01-.027z" fill="#647a73" fill-rule="evenodd"/><path d="m9.826 38.141v53.121l46.072 26.559 46.074-26.559v-53.121l-46.074-26.561zm90.281 1.08v50.971l-44.209 25.489-44.211-25.489v-50.971l44.211-25.489z" opacity=".13"/></svg>