<svg enable-background="new 0 0 110.979 128.417" viewBox="0 0 110.979 128.417" xmlns="http://www.w3.org/2000/svg"><path d="m55.462 128.319-55.257-31.903v-63.805l55.257-31.903 55.257 31.903v63.805z" fill="#0a0f44"/><path d="m55.408 116.989-45.41-26.217v-52.435l45.41-26.217 45.409 26.217v52.435z" fill="#040933"/><path d="m55.461 10.806-46.582 26.855v53.708l46.581 26.852 46.584-26.852v-53.708zm44.697 79.481-44.698 25.771-44.699-25.771v-51.534l44.699-25.771 44.698 25.771z" fill="#15ffab"/><path d="m41.457 82.695c-5.138 0-9.798-3.534-11.006-8.749-1.3-5.61 1.829-11.262 7.177-13.18l-.011-.061.743-.175c.18-.051.364-.099.547-.141.185-.043.371-.081.554-.114l26.102-6.049c.18-.051.364-.099.547-.141.185-.043.371-.081.553-.114l.719-.167.016.059c5.652-.645 10.954 3.049 12.257 8.67 1.405 6.064-2.384 12.14-8.448 13.545-.129.03-.617.089-3.598.419-.912.101-1.854.205-2.036.229l-14.894 3.452c-.13.043-.564.19-1.15.388-3.932 1.329-5.325 1.793-5.519 1.838-.856.196-1.711.291-2.553.291zm-2.626-20.697-.106.031c-4.967 1.444-7.942 6.525-6.773 11.568 1.215 5.241 6.466 8.516 11.708 7.302.289-.078 3.852-1.282 5.373-1.797.656-.221 1.123-.379 1.198-.404l.064-.018 15.005-3.476c.094-.016.54-.066 2.137-.243 1.272-.141 3.185-.352 3.437-.392 5.225-1.221 8.489-6.462 7.277-11.691-1.171-5.053-6.085-8.302-11.188-7.398l-.077.014c-.143.027-.287.057-.43.09-.166.038-.329.081-.49.127l-.038.01-26.178 6.068c-.165.029-.33.063-.495.101-.143.033-.284.069-.424.108z" fill="#fecd2e"/><path d="m69.036 72.891c-1.439 0-2.853-.402-4.104-1.182-1.764-1.1-2.993-2.821-3.463-4.846-.469-2.025-.122-4.111.978-5.875 1.1-1.763 2.821-2.993 4.846-3.463 2.025-.469 4.111-.122 5.875.978s2.994 2.821 3.463 4.846c.469 2.025.122 4.111-.978 5.875s-2.821 2.994-4.846 3.463c-.588.137-1.182.204-1.771.204zm.028-14.688c-.523 0-1.049.06-1.571.181-1.796.416-3.322 1.507-4.297 3.071s-1.283 3.414-.867 5.21 1.507 3.322 3.071 4.297c1.564.976 3.415 1.283 5.21.868 1.796-.416 3.322-1.507 4.297-3.071s1.284-3.414.868-5.21-1.507-3.322-3.071-4.297c-1.111-.693-2.364-1.049-3.64-1.049z" fill="#fecd2e"/><path d="m58.339 55.686c5.515-.375 11.03-.751 16.545-1.126.703-.048.708-1.149 0-1.101-5.515.375-11.03.75-16.545 1.126-.703.048-.709 1.149 0 1.101z" fill="#fecd2e"/><path d="m58.756 55.184c-.232-3.404-.463-6.809-.695-10.213-.048-.703-1.149-.708-1.101 0 .232 3.404.463 6.809.695 10.213.048.703 1.15.708 1.101 0z" fill="#fecd2e"/><path d="m57.083 45.271c1.396 1.218 2.791 2.436 4.187 3.654.532.464 1.314-.312.779-.779-1.396-1.218-2.791-2.436-4.187-3.654-.532-.463-1.314.313-.779.779z" fill="#fecd2e"/><path d="m62.108 49.025c1.41-1.616 2.82-3.232 4.23-4.848.464-.532-.312-1.314-.779-.779-1.41 1.616-2.82 3.232-4.23 4.848-.464.532.312 1.314.779.779z" fill="#fecd2e"/><path d="m65.547 44.184c1.524 1.33 3.049 2.66 4.573 3.99.532.464 1.314-.312.779-.779-1.524-1.33-3.049-2.66-4.573-3.99-.533-.464-1.314.312-.779.779z" fill="#fecd2e"/><path d="m70.899 48.187c1.234-1.414 2.468-2.828 3.702-4.242.464-.532-.312-1.314-.779-.779-1.234 1.414-2.468 2.828-3.702 4.242-.464.532.312 1.314.779.779z" fill="#fecd2e"/><path d="m73.635 43.745c.233 3.422.466 6.843.699 10.265.048.703 1.149.708 1.101 0-.233-3.422-.466-6.843-.699-10.265-.048-.703-1.15-.709-1.101 0z" fill="#fecd2e"/><path d="m55.592 42.469c-.712 1.127-.976 2.42-.812 3.739.086.694 1.188.703 1.101 0-.142-1.145.041-2.201.662-3.183.379-.601-.573-1.154-.951-.556z" fill="#fecd2e"/><path d="m71.387 14.607.231 2.117-.648-.371-.18-2.009-.095-.055-.822 1.436-.529-.303 2.008-3.508.62.355c.463.265.748.544.854.836.116.324.083.645-.099.963-.142.248-.335.421-.58.519-.245.097-.498.103-.76.02zm-.429-.779.168.096c.501.287.862.239 1.081-.145.205-.359.065-.678-.423-.957l-.189-.108z" fill="#fecd2e"/><path d="m73.824 15.049-.727 1.27c-.21.367-.17.633.119.798.289.166.539.065.749-.302l.727-1.27.511.292-.733 1.281c-.101.177-.211.318-.329.421-.108.091-.241.153-.398.185-.258.051-.521 0-.788-.152-.265-.152-.441-.352-.528-.601-.053-.153-.069-.3-.047-.44.017-.127.083-.292.199-.495l.733-1.281z" fill="#fecd2e"/><path d="m75.848 16.207.514.294-.117.205c.28-.075.532-.048.757.08.257.147.412.343.463.588.045.209-.021.469-.2.782l-.776 1.356-.514-.294.708-1.236c.125-.218.18-.386.168-.504-.011-.119-.094-.223-.25-.312-.17-.097-.322-.11-.457-.038-.133.071-.278.244-.436.52l-.611 1.068-.514-.294z" fill="#fecd2e"/><path d="m78.4 17.668.513.294-.117.205c.28-.075.532-.048.757.08.257.147.412.343.463.588.045.209-.021.469-.2.781l-.776 1.356-.513-.294.707-1.236c.125-.218.181-.386.168-.504-.011-.119-.094-.223-.25-.312-.169-.097-.322-.11-.457-.038-.133.071-.279.244-.436.519l-.611 1.068-.513-.294z" fill="#fecd2e"/><path d="m82.264 21.508-1.586-.908c-.09.189-.114.368-.071.535.044.166.147.295.311.389.127.073.25.103.368.09.117-.014.274-.072.472-.176l.294.488c-.132.075-.258.132-.378.171s-.238.06-.353.063c-.115.004-.228-.01-.34-.043-.112-.032-.226-.081-.341-.147-.33-.189-.535-.447-.613-.773-.078-.328-.016-.668.186-1.021.2-.35.46-.578.777-.683.318-.102.638-.06.961.124.326.186.524.437.594.754.07.313 0 .652-.209 1.018zm-.285-.718c.085-.313-.009-.548-.282-.704-.062-.035-.126-.06-.191-.072-.066-.012-.131-.014-.196-.004s-.128.031-.188.063-.117.075-.17.129z" fill="#fecd2e"/><path d="m83.525 20.601.511.292-.113.198c.15-.045.272-.065.366-.059.096.005.195.036.296.094.135.077.251.201.347.374l-.502.334c-.057-.125-.132-.214-.224-.267-.279-.16-.539-.029-.78.392l-.657 1.147-.511-.293z" fill="#fecd2e"/><path d="m88.07 21.483-1.209 2.113c-.172.301-.25.55-.231.745.032.286.181.505.447.657.268.153.533.171.795.054.175-.079.351-.271.526-.577l1.209-2.113.529.303-1.292 2.258c-.212.37-.501.608-.868.716-.411.118-.806.069-1.183-.146-.377-.216-.618-.531-.723-.945-.093-.371-.034-.742.178-1.111l1.292-2.258z" fill="#fecd2e"/><path d="m88.694 28.095-.511-.292 1.956-3.417.511.292-.138.241c.317-.086.603-.056.859.091.304.174.491.43.56.767.072.337.011.675-.183 1.014-.19.332-.447.551-.772.659-.323.107-.634.074-.934-.097-.259-.148-.431-.385-.517-.709zm2.53-1.601c.121-.212.162-.418.124-.617-.039-.202-.148-.353-.325-.454-.188-.108-.377-.129-.569-.066-.191.063-.347.201-.469.413-.119.208-.158.412-.119.614.04.198.154.35.341.458.177.102.362.118.553.051.195-.066.35-.199.464-.399z" fill="#fecd2e"/><circle cx="93.593" cy="27.775" fill="#fecd2e" r=".909"/><circle cx="68.133" cy="12.457" fill="#fecd2e" r=".909"/><ellipse cx="68.106" cy="61.261" fill="#fff" rx="1.551" ry="1.551" transform="matrix(.9742 -.2258 .2258 .9742 -12.0726 16.9582)"/><ellipse cx="69.781" cy="68.489" fill="#fff" rx="1.551" ry="1.551" transform="matrix(.9742 -.2258 .2258 .9742 -13.6612 17.5231)"/><ellipse cx="65.162" cy="65.844" fill="#fff" rx="1.551" ry="1.551" transform="matrix(.9742 -.2258 .2258 .9742 -13.183 16.4112)"/><ellipse cx="72.943" cy="64.041" fill="#fff" rx="1.551" ry="1.551" transform="matrix(.9742 -.2258 .2258 .9742 -12.5752 18.1218)"/><path d="m10.782 31.629 1.448-.832.066.116c.151.263.254.514.309.753.047.222.046.456-.004.702-.115.553-.423.974-.926 1.263-.49.282-1.012.346-1.565.192-.554-.155-.974-.481-1.26-.979-.292-.509-.362-1.042-.21-1.6.151-.56.482-.986.992-1.279.274-.157.562-.248.863-.273.291-.018.619.035.983.16l-.17.577c-.507-.218-.968-.208-1.381.029-.371.213-.608.52-.712.919-.107.396-.052.782.166 1.161.224.39.549.631.974.723.397.084.748.038 1.053-.137.26-.149.444-.372.55-.666.106-.296.1-.575-.018-.835l-.874.502z" fill="#fff"/><path d="m14.205 29.149.513-.295 1.27 2.211-.513.295-.133-.232c-.097.318-.267.546-.509.685-.306.176-.622.21-.948.104-.328-.112-.589-.336-.782-.674-.19-.331-.25-.664-.179-.999s.256-.588.554-.759c.257-.148.549-.174.875-.08zm-.581 1.795c.122.212.278.352.468.42.194.068.379.051.556-.051.189-.109.305-.262.346-.459.039-.202-.001-.406-.12-.614-.119-.207-.275-.345-.469-.412-.192-.065-.381-.043-.568.063-.175.101-.284.252-.326.452-.038.203-.001.403.113.601z" fill="#fff"/><path d="m15.363 28.484.511-.293.117.204c.039-.16.083-.277.132-.354.052-.08.135-.152.247-.217.249-.143.509-.148.78-.013.035-.31.19-.544.464-.701.498-.286.92-.127 1.267.477l.785 1.366-.513.295-.705-1.228c-.122-.212-.233-.347-.335-.405-.104-.059-.217-.053-.338.016-.141.081-.213.193-.216.335-.003.143.062.331.197.566l.656 1.142-.513.295-.701-1.221c-.226-.394-.452-.525-.68-.394-.144.083-.218.196-.222.342-.004.145.06.333.193.565l.656 1.142-.511.293z" fill="#fff"/><path d="m21.757 26.441-1.584.91c.118.174.26.284.426.332.165.046.33.022.493-.072.127-.073.215-.164.263-.272.047-.107.076-.273.086-.496l.569-.007c-.001.152-.016.289-.043.413-.028.124-.069.236-.124.337s-.124.192-.209.272c-.085.081-.184.154-.299.22-.33.189-.656.236-.977.138-.322-.098-.585-.324-.787-.677-.201-.35-.266-.688-.197-1.016.073-.325.27-.581.592-.766.325-.187.642-.231.95-.132.306.098.564.329.773.694zm-.764-.116c-.228-.231-.478-.269-.75-.112-.062.036-.115.079-.158.129-.044.05-.078.106-.102.167s-.038.126-.041.194.005.139.025.212z" fill="#fff"/><path d="m23.653 22.663 1.728 3.007-.529.304-1.728-3.008-.806.463-.285-.497 2.138-1.228.286.497z" fill="#fff"/><path d="m25.289 22.783.511-.293.113.197c.037-.152.082-.267.134-.346.052-.08.129-.149.231-.208.135-.077.301-.114.498-.111l.035.602c-.137-.014-.251.006-.343.058-.278.16-.297.45-.055.871l.658 1.146-.511.293z" fill="#fff"/><path d="m28.657 20.848.513-.295 1.27 2.211-.513.295-.133-.232c-.097.318-.267.546-.509.685-.306.175-.622.21-.948.104-.328-.112-.589-.336-.783-.674-.19-.331-.25-.665-.179-.999.071-.335.256-.588.554-.759.257-.148.549-.174.875-.08zm-.581 1.795c.122.212.277.352.468.42.194.068.379.051.556-.051.189-.109.305-.262.346-.458.039-.202-.001-.406-.12-.614s-.276-.345-.469-.412c-.192-.065-.381-.044-.567.063-.176.101-.284.252-.326.453-.039.201-.002.401.112.599z" fill="#fff"/><path d="m31.59 19.29.39.679c-.198-.075-.359-.113-.482-.113-.122-.002-.244.032-.367.102-.192.11-.313.269-.363.477s-.017.413.1.616c.119.207.278.342.477.405.201.062.397.038.589-.073.123-.07.216-.159.279-.266.062-.103.111-.265.148-.483l.387.674c-.146.227-.322.4-.529.519-.342.197-.691.25-1.048.162-.358-.09-.631-.3-.821-.63s-.233-.675-.13-1.036.323-.639.662-.833c.219-.127.454-.193.708-.2z" fill="#fff"/><path d="m31.608 16.994 1.343 2.338.309-1.128.685-.394-.427 1.48 1.767.691-.663.381-1.267-.513-.035.129.489.851-.509.292-2.202-3.834z" fill="#fff"/><path d="m35.307 15.307 2.258 1.818-.49-3.06 2.356 1.989-.376-2.899.574-.33.575 4.626-2.328-1.965.488 3.025-3.631-2.874z" fill="#fff"/><path d="m40.104 13.05c-.051-.089-.063-.185-.035-.288.028-.102.087-.18.178-.232.092-.053.19-.066.292-.038.101.026.179.085.232.178.053.092.065.19.038.292-.026.102-.085.179-.178.232-.092.053-.19.066-.292.038-.103-.028-.181-.089-.235-.182zm1.116.581 1.27 2.211-.511.293-1.27-2.211z" fill="#fff"/><path d="m41.867 13.26.513-.295.117.204c.077-.279.227-.484.451-.612.257-.148.504-.182.741-.103.203.067.394.256.573.567l.778 1.355-.513.295-.709-1.235c-.125-.218-.242-.351-.35-.4-.108-.051-.24-.032-.395.058-.169.097-.258.222-.265.375-.006.15.07.363.228.639l.613 1.067-.513.295z" fill="#fff"/><path d="m44.416 11.795.513-.295.117.204c.077-.28.227-.484.451-.612.257-.148.504-.182.741-.103.203.066.394.255.573.567l.778 1.355-.513.295-.709-1.235c-.125-.218-.242-.351-.35-.4-.108-.051-.24-.031-.395.058-.17.097-.258.222-.265.375-.006.151.07.363.228.639l.613 1.067-.513.295z" fill="#fff"/><path d="m49.682 10.4-1.584.91c.118.174.26.284.426.332.165.046.329.022.493-.072.127-.073.215-.164.263-.272.047-.107.076-.273.086-.496l.569-.007c-.002.152-.016.289-.044.413s-.069.236-.123.337c-.055.101-.124.192-.209.272-.084.081-.184.154-.299.22-.33.189-.656.236-.977.138-.322-.098-.585-.324-.787-.677-.201-.35-.266-.688-.197-1.016.072-.325.27-.581.592-.766.325-.187.642-.231.95-.132.306.098.563.329.773.694zm-.764-.116c-.228-.232-.478-.269-.75-.112-.062.036-.115.079-.159.129s-.077.106-.102.167c-.024.061-.038.126-.041.194s.005.139.025.212z" fill="#fff"/><path d="m49.537 8.854.511-.294.114.197c.037-.152.082-.267.134-.346.052-.08.129-.149.231-.208.135-.077.301-.114.498-.111l.035.602c-.137-.014-.251.006-.344.059-.278.16-.297.45-.055.871l.658 1.146-.511.294z" fill="#fff"/><path d="m41.636 79.241c-1.439 0-2.852-.401-4.104-1.182-1.764-1.1-2.994-2.821-3.463-4.846s-.122-4.111.978-5.875 2.821-2.993 4.846-3.463c2.025-.469 4.112-.122 5.875.978 1.764 1.1 2.994 2.821 3.463 4.846.469 2.025.122 4.111-.978 5.875s-2.821 2.994-4.846 3.463c-.588.137-1.182.204-1.771.204zm.028-14.688c-.523 0-1.049.06-1.571.181-1.796.416-3.322 1.507-4.297 3.071-.976 1.564-1.284 3.414-.868 5.21s1.507 3.322 3.071 4.297c1.564.976 3.415 1.283 5.21.868 1.796-.416 3.322-1.507 4.297-3.071.976-1.564 1.284-3.414.868-5.21s-1.507-3.322-3.071-4.297c-1.109-.693-2.363-1.049-3.639-1.049z" fill="#fecd2e"/><path d="m59.435 74.34c.113.487-.19.973-.677 1.086l-4.231.98c-.487.113-.973-.19-1.086-.677-.113-.487.19-.973.677-1.086l4.231-.98c.487-.113.973.19 1.086.677z" fill="#fecd2e"/><path d="m39.918 66.977h3.48v9.539h-3.48z" fill="#fff" transform="matrix(.9742 -.2258 .2258 .9742 -15.1227 11.2578)"/><path d="m36.85 69.839h9.539v3.481h-9.539z" fill="#fff" transform="matrix(.9742 -.2258 .2258 .9742 -15.0857 11.2446)"/><path d="m52.833 44.448c-.19.84-.192 1.681.087 2.502.228.667 1.291.381 1.062-.293-.218-.638-.236-1.261-.087-1.916.155-.691-.906-.985-1.062-.293z" fill="#fecd2e"/><g fill="#fff"><ellipse cx="61.874" cy="51.501" rx=".895" ry=".895" transform="matrix(.9742 -.2258 .2258 .9742 -10.0298 15.2987)"/><ellipse cx="70.684" cy="50.736" rx=".895" ry=".895" transform="matrix(.9742 -.2258 .2258 .9742 -9.6296 17.2679)"/><ellipse cx="66.204" cy="48.813" rx=".895" ry=".895" transform="matrix(.9742 -.2258 .2258 .9742 -9.3111 16.2071)"/><path d="m74.071 110.373.411-.239.845 1.455c.07-.217.193-.376.37-.479.201-.117.4-.145.596-.085.168.054.325.205.469.454l.634 1.092-.411.239-.612-1.053c-.083-.142-.168-.231-.256-.266-.088-.034-.188-.019-.3.046-.144.083-.219.187-.226.31-.005.124.056.295.184.514l.5.861-.411.239z"/><path d="m78.196 109.726.413-.24 1.034 1.781-.413.24-.108-.187c-.077.257-.214.442-.409.555-.246.143-.502.172-.766.088-.265-.089-.477-.269-.634-.541-.155-.267-.204-.536-.148-.807s.205-.476.445-.615c.207-.12.443-.143.706-.068zm-.462 1.452c.099.171.226.283.379.337.157.054.307.04.449-.043.152-.088.245-.213.278-.372.031-.163-.002-.328-.099-.495s-.224-.277-.381-.331c-.156-.051-.308-.034-.458.053-.141.082-.229.204-.261.367-.031.163 0 .324.093.484z"/><path d="m80.56 108.457.317.547c-.16-.06-.29-.09-.389-.089-.099-.002-.197.027-.296.084-.155.09-.252.219-.291.387s-.012.334.083.497c.097.167.226.275.387.325.162.049.321.029.475-.061.099-.057.174-.129.225-.216.049-.084.088-.214.118-.391l.315.543c-.117.184-.259.324-.426.421-.275.16-.558.205-.846.134-.289-.072-.511-.24-.665-.506s-.191-.544-.109-.836.259-.517.532-.676c.175-.103.365-.157.57-.163z"/><path d="m80.566 106.602 1.094 1.883.245-.912.552-.321-.339 1.197 1.43.551-.534.31-1.025-.41-.028.104.398.686-.411.239-1.793-3.088z"/><path d="m84.092 106.303.413-.24 1.034 1.781-.413.24-.108-.186c-.077.257-.214.442-.409.555-.246.143-.502.172-.766.088-.265-.089-.477-.269-.634-.541-.155-.267-.204-.536-.148-.807s.205-.476.445-.615c.207-.12.443-.143.706-.068zm-.463 1.452c.099.171.226.283.379.337.157.054.307.04.449-.043.152-.088.245-.212.278-.372.031-.163-.002-.328-.099-.495s-.224-.277-.381-.331c-.155-.051-.308-.034-.458.053-.141.082-.229.204-.261.367-.03.163.001.324.093.484z"/><path d="m85.671 105.899.811 1.397-.411.239-.811-1.397-.176.102-.223-.384.176-.102-.379-.653.411-.239.379.653.32-.186.223.384z"/><path d="m85.289 103.86.411-.239.845 1.455c.07-.217.193-.376.37-.479.201-.117.4-.145.596-.085.168.054.324.205.469.454l.634 1.092-.411.239-.612-1.053c-.083-.142-.168-.231-.256-.266-.088-.034-.188-.019-.3.046-.144.083-.219.186-.226.31-.005.123.056.295.184.514l.5.861-.411.239z"/><path d="m88.527 104.901c-.15-.257-.184-.529-.105-.817.079-.287.251-.508.516-.661.266-.154.544-.194.835-.12.288.076.509.245.663.51.155.267.193.544.113.832-.081.287-.256.508-.526.665-.267.155-.544.194-.83.115-.285-.076-.507-.251-.666-.524zm.425-.237c.103.178.233.291.388.34.158.048.317.026.477-.067.161-.094.26-.22.296-.38.036-.159.004-.326-.097-.499-.1-.173-.229-.283-.385-.331-.158-.048-.317-.026-.477.067-.157.091-.254.218-.291.379-.037.162-.007.326.089.491z"/><path d="m90.353 102.668.413-.24.095.165c.061-.226.182-.392.362-.496.207-.12.407-.149.598-.086.164.053.319.205.465.456l.634 1.092-.413.24-.578-.995c-.102-.175-.197-.283-.284-.321-.087-.041-.193-.025-.319.048-.136.079-.207.181-.212.304-.004.121.058.293.187.515l.499.86-.413.24z"/><path d="m95.042 101.791 1.051-.611.233.401-1.896 1.101.291-1.756c.028-.174.049-.324.064-.448s.022-.226.023-.304c.003-.155-.022-.278-.075-.369-.076-.132-.187-.215-.331-.25s-.285-.013-.421.066c-.285.166-.351.429-.196.791l-.424.246c-.277-.635-.149-1.107.383-1.416.257-.149.521-.193.79-.131.27.061.476.213.616.454.089.154.136.328.14.523.003.101-.005.227-.023.379-.019.152-.047.335-.086.55z"/><path d="m95.977 99.872c-.261-.45-.365-.87-.311-1.26.047-.351.204-.605.471-.76s.565-.165.893-.032c.365.147.682.451.95.913.267.461.374.886.32 1.276-.047.352-.203.605-.469.759s-.564.165-.895.033c-.365-.146-.685-.456-.959-.929zm.419-.241c.182.313.387.542.616.686.227.141.424.162.592.064.167-.097.246-.279.238-.546-.008-.266-.101-.553-.28-.862-.179-.308-.383-.533-.611-.673-.227-.139-.424-.159-.591-.062-.166.096-.245.278-.237.543.008.266.098.549.273.85z"/><path d="m98.566 97.038-.488.283.003-.534.68-.395 1.639 2.823-.426.247z"/><path d="m101.069 96.864c-.292-.026-.511-.165-.658-.417-.133-.229-.166-.466-.097-.711.069-.246.221-.437.457-.574.234-.136.474-.172.719-.109.244.062.434.208.568.44.141.243.153.501.036.774.149-.005.289.032.422.112.134.079.243.191.328.338.145.25.182.502.112.757-.071.255-.233.456-.488.604-.261.151-.523.196-.786.133-.264-.062-.467-.215-.608-.458-.185-.318-.187-.614-.005-.889zm-.259-.652c.07.121.17.198.299.232.131.035.255.018.372-.05.116-.067.191-.166.226-.297s.019-.254-.049-.37c-.067-.116-.166-.191-.297-.226s-.254-.018-.37.049-.191.166-.226.297-.02.253.045.365zm.673 1.282c.076.13.186.217.331.258.145.039.283.021.414-.054.129-.075.213-.185.251-.329.038-.146.019-.283-.056-.412-.076-.13-.186-.215-.33-.253-.145-.038-.281-.02-.411.055-.128.074-.212.184-.251.329-.039.143-.021.279.052.406z"/><path d="m57.781 122.502c-.018-.031-.037-.062-.055-.094-.018-.031-.036-.063-.045-.099-.007-.028-.024-.051-.037-.077-.009-.018-.02-.036-.021-.057 0-.005-.001-.01-.003-.014-.018-.037-.033-.074-.045-.114-.011-.036-.021-.072-.031-.108-.015-.05-.026-.1-.035-.151-.014-.072-.024-.145-.031-.218-.009-.094-.011-.189-.009-.284.001-.072.011-.144.018-.215.006-.064.024-.126.034-.188.013-.081.039-.159.062-.237.037-.121.087-.237.146-.349.038-.073.082-.144.127-.214.025-.039.051-.078.081-.113.029-.034.052-.074.087-.103.013-.01.014-.028.029-.037.012-.007.02-.019.028-.031.013-.02.034-.031.05-.049.025-.029.056-.055.085-.081.034-.03.071-.057.105-.088.032-.029.067-.052.102-.077.074-.053.15-.105.232-.147.104-.053.209-.103.319-.142.041-.015.083-.029.125-.041.034-.01.067-.027.104-.026.025-.015.056-.009.081-.021.02-.01.043-.007.064-.012.046-.011.094-.016.142-.021.09-.009.181-.014.271-.013.091.001.18.012.27.02.09.009.175.036.264.048.014.002.027.007.041.012.03.01.059.022.089.029.075.017.146.049.216.079.056.024.112.048.165.076.058.03.114.065.169.099.074.047.145.099.212.155.038.032.08.06.111.101.032.015.044.053.076.069.008.004.013.014.018.021.011.015.022.03.038.042.009.006.016.015.022.024.014.019.026.039.047.053.01.007.016.019.023.029.021.032.041.064.066.092.028.031.048.066.069.101.025.042.05.084.074.126.021.035.042.071.055.11.011.033.028.063.044.094.01.018.021.036.02.057 0 .003.001.006.002.009.018.035.03.072.041.11.006.021.015.04.019.062.004.026.015.051.021.077.02.074.034.149.046.224.017.107.025.214.026.322.001.056-.006.112-.003.168-.016.113-.023.227-.052.338-.008.032-.012.065-.021.096-.015.051-.033.102-.048.153-.017.057-.043.11-.065.165-.052.13-.123.249-.197.367-.038.041-.062.093-.101.134-.015.015-.026.034-.04.051-.032.036-.06.076-.095.109-.026.025-.047.056-.078.074-.061.069-.137.12-.206.18-.002.002-.005.004-.007.006-.091.06-.177.128-.275.175-.074.035-.145.076-.222.104-.047.017-.094.035-.141.054-.03.012-.063.019-.094.029-.038.013-.078.024-.118.03-.047.008-.093.026-.142.025-.095.021-.191.028-.288.031-.092.003-.184.004-.276-.009-.043-.006-.087-.007-.13-.014-.052-.008-.104-.021-.157-.029-.1-.015-.193-.054-.289-.081-.051-.015-.098-.041-.148-.06-.073-.029-.141-.066-.209-.104-.084-.047-.164-.101-.241-.158-.043-.032-.084-.067-.124-.102-.039-.034-.075-.072-.113-.107-.028-.026-.048-.058-.08-.08-.006-.004-.01-.012-.015-.018-.017-.025-.033-.049-.058-.068-.013-.01-.021-.027-.03-.042-.018-.028-.037-.055-.06-.079-.011-.011-.02-.024-.028-.037-.024-.04-.048-.081-.073-.121.001-.001.001-.001 0 0zm1.491-.912c.043-.035.082-.072.126-.101.089-.059.18-.117.28-.156.041-.016.078-.042.119-.057.075-.027.142-.067.21-.107.037-.022.073-.043.102-.075.007-.008.017-.015.026-.02.037-.02.057-.059.091-.081.045-.061.093-.12.119-.194.037-.105.038-.209-.008-.311-.017-.039-.04-.075-.064-.11-.04-.056-.093-.097-.155-.126-.069-.031-.142-.046-.218-.046-.066 0-.13.007-.192.029-.004.002-.009.002-.014.002-.015-.002-.028.006-.04.012-.062.032-.121.068-.179.106-.009.006-.02.011-.024.022-.007.016-.02.023-.033.033-.006.005-.014.009-.018.015-.025.037-.058.069-.084.106-.045.063-.082.131-.107.203-.045.127-.065.26-.061.396.003.084.016.166.036.246.008.03.012.062.028.09.009.016.014.034.019.053.006.026.017.052.041.071zm.262-.015c-.02.012-.04.025-.061.036-.023.012-.04.031-.057.049-.005.006-.013.009-.019.014-.022.017-.05.027-.065.053-.014.024-.049.031-.057.061-.036.04-.062.085-.085.133-.052.107-.048.216-.006.322.027.069.074.125.135.171.075.056.159.082.249.085.08.003.162-.002.236-.04.008-.004.018-.005.027-.007s.018-.004.027-.008c.082-.038.159-.099.224-.169.027-.029.051-.058.075-.089.062-.081.1-.173.13-.269.014-.044.017-.089.026-.133.008-.04.01-.081.01-.121 0-.08-.008-.16-.024-.238-.005-.022-.015-.041-.019-.063-.007-.047-.029-.089-.044-.134-.003-.009-.008-.017-.013-.025-.007-.012-.013-.013-.026-.003-.032.023-.064.045-.092.073-.011.011-.025.02-.038.028-.06.035-.12.071-.18.105-.016.009-.034.017-.052.023-.027.009-.053.021-.078.034-.026.014-.052.031-.08.041-.05.017-.097.043-.143.071z"/><path d="m68.317 116.701c.155.263.309.525.464.788.012.02.024.039.035.06.017.034.013.049-.02.072-.017.011-.034.021-.052.031-.124.073-.247.146-.372.219-.118.069-.095.075-.164-.039-.015-.025-.029-.05-.044-.074-.004-.007-.009-.015-.016-.02-.006-.005-.015-.007-.022.001-.012.014-.016.03-.018.047-.015.113-.065.213-.129.303-.032.045-.063.096-.117.123-.012.006-.024.017-.033.027-.061.069-.135.115-.226.132-.011.002-.022.007-.032.013-.088.047-.184.053-.281.06-.112.008-.221-.008-.328-.038-.093-.026-.181-.066-.263-.119-.033-.022-.065-.045-.098-.068-.049-.035-.095-.072-.132-.12-.012-.016-.022-.034-.037-.047-.088-.075-.131-.18-.188-.276-.01-.017-.013-.038-.019-.057s-.009-.04-.018-.057c-.044-.089-.055-.184-.066-.281-.017-.162.005-.319.064-.47.036-.093.089-.177.146-.259.042-.06.11-.092.147-.154.086-.051.161-.122.266-.135.008-.001.017-.005.024-.008.108-.049.221-.049.335-.034.045.006.091.013.133.032.019.008.038.011.059.01.011-.001.014-.011.011-.018-.008-.018-.018-.036-.028-.053-.023-.04-.046-.079-.069-.119-.01-.018-.005-.033.012-.044.029-.019.057-.039.087-.057.111-.066.222-.132.334-.197.032-.019.066-.034.1-.05.017-.008.034-.003.044.015.012.02.024.039.036.059.16.267.317.534.475.802zm-1.439.841c.045.083.111.143.19.192.122.075.25.106.39.058.011-.004.022-.007.033-.008.036-.003.065-.021.095-.037.055-.029.082-.088.132-.122.064-.104.104-.213.094-.338-.004-.052-.022-.099-.033-.149-.01-.046-.028-.088-.056-.125-.066-.084-.141-.158-.24-.201-.154-.067-.305-.062-.451.025-.044.026-.081.059-.115.1-.032.038-.059.076-.077.121-.066.168-.047.329.038.484z"/><path d="m71.651 114.666c.161.273.321.545.482.818.033.055.048.063-.025.107-.149.087-.297.175-.446.263-.005.003-.01.006-.015.008-.039.02-.047.019-.07-.017-.021-.034-.041-.069-.062-.104-.007-.012-.014-.025-.023-.036-.005-.006-.013-.011-.02-.012-.012-.002-.014.009-.014.017-.003.046-.014.09-.028.134-.028.084-.07.159-.128.228-.03.036-.062.066-.099.093-.007.005-.015.01-.02.017-.051.071-.128.109-.203.141-.081.033-.164.071-.253.074-.166.007-.322-.021-.457-.131-.038-.031-.074-.062-.1-.104-.008-.012-.015-.026-.026-.034-.053-.039-.083-.095-.115-.149-.215-.364-.43-.728-.645-1.092-.04-.067-.039-.068.024-.106.143-.085.287-.17.431-.254.01-.006.02-.012.03-.017.031-.015.048-.012.067.015.013.019.024.039.036.059.149.253.298.506.447.758.035.059.072.118.109.176.045.069.133.135.208.171.033.016.069.023.099.017.094-.018.195-.029.254-.123.017-.026.046-.039.063-.069.044-.08.048-.164.032-.25-.016-.085-.047-.164-.092-.239-.163-.271-.322-.545-.482-.818-.066-.111-.066-.095.041-.159.129-.076.258-.152.387-.228.02-.012.04-.023.061-.032.015-.007.029-.002.038.011.015.021.028.043.041.066.158.266.315.533.473.801z"/><path d="m63.692 119.735c.074-.044.149-.088.223-.131.034-.02.047-.028.079.012.051.064.119.096.201.084.083-.013.162-.036.231-.088.04-.03.067-.071.096-.109.022-.029.026-.067.01-.106-.032-.078-.075-.109-.159-.103-.054.004-.108.012-.161.024-.117.026-.232.061-.35.081-.111.019-.221.05-.336.048-.092-.002-.18-.014-.262-.058-.053-.029-.104-.06-.136-.114-.007-.012-.017-.024-.027-.033-.031-.028-.051-.061-.061-.101-.004-.017-.012-.033-.019-.048-.082-.166-.055-.327.027-.482.031-.059.066-.12.123-.161.023-.05.07-.074.112-.104.012-.008.023-.018.033-.028.092-.1.217-.149.331-.214.046-.005.09-.019.129-.044.038-.024.086-.008.124-.032.133-.015.265-.025.394.028.097.04.182.094.247.177.016.02.034.039.049.06.027.036.023.049-.017.075-.01.006-.02.012-.03.018-.131.077-.263.155-.394.232-.015.009-.029.018-.045.026-.025.012-.043.007-.061-.013-.011-.013-.02-.028-.032-.041-.034-.036-.074-.063-.124-.065-.086-.004-.166.015-.226.083-.028.032-.064.056-.078.101-.029.091.03.194.124.206.042.005.087.004.128-.004.107-.02.213-.046.32-.069.133-.029.264-.071.401-.079.103-.006.205-.002.299.051.038.021.075.044.103.076.06.069.111.143.147.23.072.178.045.346-.028.513-.024.054-.09.142-.136.183-.027.025-.04.062-.075.081-.03.016-.062.034-.084.06-.054.063-.126.099-.195.14-.032.019-.065.036-.102.045-.028.007-.056.017-.08.032-.062.041-.134.052-.202.068-.056.013-.116.023-.177.021-.083-.002-.166-.011-.243-.042-.081-.032-.163-.069-.218-.143-.054-.028-.081-.079-.111-.127-.005-.007-.009-.015-.013-.022-.011-.023-.009-.035.015-.05.046-.029.094-.056.141-.084.031-.022.063-.041.095-.06z"/><path d="m72.963 113.422c-.067.039-.134.079-.201.118-.017.01-.035.02-.053.029-.015.007-.028.003-.038-.01-.017-.023-.032-.047-.055-.066-.103-.084-.241-.055-.33.023-.021.019-.041.04-.059.063-.062.08-.057.194.061.249.01.005.022.006.033.006.052.001.103.002.154-.009.106-.023.213-.044.318-.071.074-.019.149-.041.224-.054.108-.017.217-.033.328-.011.093.018.169.062.24.12.011.009.018.022.026.034.027.044.054.088.081.133.085.144.086.296.048.453-.026.105-.089.189-.147.276-.055.04-.087.106-.151.137-.018.008-.034.023-.048.037-.087.087-.191.145-.307.185-.024.008-.049.018-.072.03-.138.071-.286.091-.438.084-.11-.005-.213-.039-.305-.103-.084-.058-.154-.128-.203-.218-.018-.034-.015-.05.02-.071.146-.087.292-.173.438-.259.005-.003.01-.006.015-.008.033-.014.053-.012.074.02.041.061.1.083.169.081.099-.002.249-.055.31-.141.029-.04.06-.075.062-.127.002-.047-.042-.11-.085-.126-.042-.015-.085-.017-.127-.009-.081.015-.162.037-.243.052-.09.016-.177.046-.268.054-.042.004-.083.019-.125.026-.095.015-.197.02-.286.008-.133-.018-.236-.088-.311-.194-.093-.13-.139-.274-.116-.437.014-.099.056-.185.112-.265.034-.049.074-.093.113-.138.013-.015.031-.025.047-.037.028-.02.057-.036.075-.069.009-.016.03-.026.047-.037.059-.036.118-.072.177-.107.042-.025.084-.05.134-.055.014-.001.028-.008.04-.015.069-.037.144-.05.221-.059.051-.006.1-.01.152-.009.125.001.236.042.335.112.067.048.129.104.165.182.011.024.009.034-.014.05-.005.003-.01.006-.015.009-.073.046-.147.09-.222.134z"/><path d="m68.677 116.448c-.076-.129-.152-.258-.228-.386-.01-.017-.02-.035-.031-.052-.019-.027-.037-.033-.066-.018-.046.024-.09.052-.134.077-.02.011-.04.024-.061.033-.03.013-.048.007-.065-.02-.024-.039-.047-.079-.071-.119-.039-.067-.079-.133-.118-.201-.023-.039-.019-.052.021-.077.046-.029.094-.056.141-.084.017-.01.034-.021.051-.032s.02-.029.013-.045c-.008-.021-.02-.041-.032-.061-.074-.126-.149-.253-.223-.379-.043-.074-.043-.074.031-.117.134-.079.267-.158.401-.236.015-.009.03-.018.045-.025.014-.006.03-.002.039.009.014.018.027.037.038.057.073.124.146.248.219.371.057.096.053.083.136.035.077-.045.154-.091.231-.135.02-.012.04-.023.061-.032.014-.006.028-.003.038.011.005.007.01.014.014.022.061.104.123.208.184.312.021.035.018.05-.012.073-.016.012-.033.022-.051.033-.074.044-.149.088-.223.132-.017.01-.034.021-.051.032-.016.011-.02.028-.013.045.005.013.013.026.02.038.117.198.234.396.35.594.029.05.068.092.11.131.024.023.052.036.082.046.029.01.058.011.092.002.093-.026.177-.067.251-.128.007-.005.014-.01.021-.015.022-.014.038-.012.052.007.007.009.013.019.018.029.061.104.123.208.184.312.007.012.014.025.02.038.011.024.008.038-.013.052-.125.081-.231.19-.368.254-.031.015-.059.034-.095.038-.019.002-.038.012-.056.02-.188.088-.363.069-.529-.055-.086-.064-.158-.139-.212-.232-.07-.117-.14-.235-.211-.354z"/><path d="m65.193 118.495c-.074-.126-.149-.253-.223-.379-.012-.02-.023-.04-.036-.059-.015-.022-.036-.027-.06-.015-.023.011-.045.025-.068.038-.04.023-.079.048-.12.069-.039.02-.057.015-.079-.021-.062-.104-.123-.207-.184-.312-.025-.044-.022-.054.024-.082.054-.033.109-.064.163-.097.048-.029.051-.04.024-.09-.021-.038-.043-.075-.065-.112-.057-.097-.114-.193-.171-.29-.012-.02-.022-.04-.032-.061-.006-.014-.003-.028.011-.038.007-.005.014-.01.022-.014.149-.088.297-.175.446-.262.039-.022.054-.019.079.017.012.016.021.034.031.052.067.114.134.228.201.342.01.017.02.035.031.052.026.039.037.042.077.019.087-.05.174-.102.26-.153.101-.06.092-.051.143.034.053.089.105.178.157.267.026.044.024.054-.017.086-.018.014-.038.026-.058.037-.069.041-.139.082-.208.123-.017.01-.034.021-.051.032-.016.012-.018.029-.012.046.006.016.016.031.024.046.111.188.223.376.332.565.035.06.079.113.132.158.051.044.105.058.174.039.09-.025.171-.066.243-.125.009-.007.019-.014.029-.019.014-.006.029-.004.039.008.009.011.017.023.025.035.061.104.123.208.184.312.006.01.012.02.016.03.012.027.008.042-.015.059-.016.012-.034.022-.05.034-.023.017-.048.032-.069.052-.081.08-.183.127-.28.184-.014.008-.032.013-.049.016-.026.005-.049.015-.073.026-.185.087-.359.066-.522-.054-.084-.062-.156-.134-.208-.225-.072-.124-.146-.248-.219-.372.002.002.002.002.002.002z"/></g></svg>