<svg enable-background="new 0 0 110.979 128.417" viewBox="0 0 110.979 128.417" xmlns="http://www.w3.org/2000/svg"><path d="m55.532 127.972-55.395-31.983v-63.965l55.395-31.982 55.395 31.982v63.965z" fill="#0a0f44"/><path d="m55.699 116.64-45.524-26.283v-52.565l45.524-26.283 45.523 26.283v52.565z" fill="#040933"/><path d="m55.531 10.165-46.698 26.922v53.843l46.698 26.919 46.7-26.919v-53.843zm44.809 79.68-44.81 25.836-44.811-25.836v-51.663l44.811-25.835 44.81 25.835z" fill="#15ffab"/><path d="m10.74 31.04 1.452-.834.067.116c.152.264.254.515.309.754.047.223.046.458-.004.704-.115.555-.425.976-.929 1.266-.491.282-1.014.347-1.569.193-.555-.155-.976-.482-1.263-.981-.293-.51-.363-1.044-.21-1.604.152-.561.483-.989.995-1.282.274-.158.563-.249.866-.273.292-.019.62.035.985.161l-.17.579c-.509-.218-.97-.208-1.385.03-.372.213-.61.521-.714.921-.107.397-.052.785.166 1.164.225.391.55.633.977.725.397.085.749.039 1.056-.137.261-.15.445-.373.552-.668.106-.297.1-.576-.018-.837l-.876.503z" fill="#fff"/><path d="m14.172 28.554.514-.295 1.273 2.216-.514.295-.133-.232c-.097.318-.268.547-.51.687-.306.176-.623.211-.951.105-.329-.112-.59-.337-.784-.675-.191-.332-.251-.666-.179-1.002s.257-.589.556-.761c.258-.148.55-.175.877-.08zm-.582 1.799c.122.212.278.352.469.421.194.068.38.051.558-.051.19-.109.305-.262.347-.46.039-.202-.001-.407-.12-.615s-.276-.346-.47-.414c-.193-.065-.382-.044-.569.063-.176.101-.285.252-.326.454-.041.203-.003.404.111.602z" fill="#fff"/><path d="m15.333 27.887.512-.294.117.205c.039-.16.083-.278.132-.355.053-.08.135-.153.247-.218.25-.144.511-.148.782-.013.035-.311.19-.545.465-.703.499-.287.923-.127 1.27.478l.787 1.37-.514.295-.707-1.231c-.122-.212-.234-.348-.336-.406-.105-.059-.217-.054-.339.016-.141.081-.213.193-.217.336s.062.332.198.568l.657 1.145-.514.295-.703-1.224c-.227-.395-.454-.526-.681-.396-.144.083-.218.197-.222.343s.061.334.194.567l.658 1.145-.512.294z" fill="#fff"/><path d="m21.743 25.839-1.588.912c.118.174.261.285.427.333.166.046.33.022.494-.072.127-.073.215-.164.264-.273.047-.108.076-.274.086-.497l.571-.007c-.002.152-.016.29-.044.414s-.069.236-.124.338c-.055.101-.124.192-.209.273s-.185.155-.3.221c-.331.19-.657.237-.979.139-.323-.099-.586-.325-.789-.678-.201-.351-.267-.69-.198-1.018.073-.326.271-.582.594-.768.326-.187.644-.232.953-.133.306.098.565.33.775.696zm-.766-.117c-.228-.232-.479-.27-.752-.113-.062.036-.115.079-.159.129-.044.051-.078.106-.102.168-.024.061-.038.126-.041.194-.003.069.005.139.025.213z" fill="#fff"/><path d="m23.644 22.051 1.732 3.015-.53.305-1.732-3.015-.808.464-.286-.498 2.143-1.231.286.498z" fill="#fff"/><path d="m25.283 22.172.512-.294.114.198c.037-.153.082-.268.134-.346.053-.08.13-.15.231-.208.135-.078.302-.115.499-.111l.035.603c-.137-.014-.252.006-.345.059-.279.16-.298.451-.055.873l.66 1.149-.512.294z" fill="#fff"/><path d="m28.66 20.232.514-.295 1.273 2.216-.514.295-.133-.232c-.098.318-.268.547-.511.686-.306.176-.623.211-.951.105-.329-.112-.59-.337-.784-.675-.191-.332-.251-.666-.179-1.002s.257-.589.556-.761c.258-.148.55-.175.877-.08zm-.582 1.799c.122.212.278.353.469.421.194.068.38.051.558-.051.19-.109.305-.262.347-.46.039-.202-.001-.407-.12-.615s-.276-.346-.47-.414c-.193-.065-.382-.044-.569.063-.176.101-.285.252-.326.454-.041.203-.003.403.111.602z" fill="#fff"/><path d="m31.6 18.67.391.68c-.199-.075-.36-.113-.482-.113-.122-.002-.245.032-.368.102-.193.111-.314.27-.364.478s-.017.414.1.617c.119.208.279.343.478.406.201.062.398.038.591-.073.123-.071.216-.16.279-.267.062-.104.111-.265.148-.484l.388.676c-.146.227-.323.4-.531.52-.343.197-.693.251-1.051.162-.359-.091-.633-.301-.823-.632s-.234-.677-.131-1.039.324-.64.664-.835c.221-.125.457-.191.711-.198z" fill="#fff"/><path d="m31.619 16.368 1.346 2.344.31-1.131.687-.395-.428 1.484 1.772.692-.664.382-1.27-.514-.035.129.49.853-.512.294-2.208-3.843z" fill="#fff"/><path d="m35.326 14.677 2.264 1.823-.491-3.068 2.362 1.993-.377-2.906.576-.331.576 4.638-2.333-1.97.489 3.033-3.64-2.881z" fill="#fff"/><path d="m40.136 12.414c-.052-.09-.063-.185-.035-.288s.087-.18.178-.233c.092-.053.19-.066.293-.038.102.026.179.085.232.178.053.092.066.19.038.293-.026.102-.085.18-.178.233-.092.053-.19.066-.293.038-.102-.028-.181-.089-.235-.183zm1.119.583 1.273 2.216-.512.294-1.273-2.216z" fill="#fff"/><path d="m41.903 12.624.514-.295.117.205c.077-.28.228-.485.452-.614.258-.148.506-.182.743-.103.204.067.395.256.575.569l.78 1.359-.514.295-.711-1.238c-.125-.219-.243-.352-.351-.401-.108-.051-.24-.031-.396.058-.17.098-.258.223-.265.376-.006.151.07.364.229.641l.614 1.07-.514.295z" fill="#fff"/><path d="m44.459 11.157.514-.295.118.205c.077-.28.228-.485.452-.614.258-.148.505-.183.743-.103.204.067.395.256.575.569l.78 1.359-.514.295-.711-1.238c-.125-.219-.243-.352-.351-.401-.108-.051-.24-.031-.396.058-.17.097-.258.223-.265.376-.006.151.07.364.229.641l.614 1.07-.514.295z" fill="#fff"/><path d="m49.738 9.758-1.588.912c.118.174.26.285.427.333.166.046.33.022.494-.072.127-.073.215-.164.264-.273.047-.108.076-.274.086-.497l.571-.007c-.002.152-.016.29-.044.414s-.069.236-.124.338c-.055.101-.124.192-.209.273s-.185.155-.3.221c-.331.19-.657.237-.979.139-.323-.099-.586-.325-.789-.678-.201-.351-.267-.69-.197-1.018.073-.326.271-.582.594-.768.326-.187.644-.232.953-.133.307.098.565.33.775.696zm-.766-.117c-.228-.232-.479-.27-.752-.113-.062.036-.115.079-.159.129-.044.051-.078.106-.102.168-.024.061-.038.126-.041.195-.003.068.005.139.025.212z" fill="#fff"/><path d="m49.592 8.208.512-.294.114.198c.037-.153.082-.268.134-.346.053-.08.13-.15.231-.208.135-.078.301-.114.499-.111l.035.603c-.137-.014-.252.006-.345.059-.279.16-.298.451-.055.873l.66 1.149-.512.294z" fill="#fff"/><path d="m73.236 13.83-1.225-.701-.484.845 1.182.677-.285.499-1.182-.677-.958 1.674-.531-.304 2.013-3.516 1.756 1.005z" fill="#15ffab"/><path d="m73.808 15.219-1.27 2.218-.512-.293 1.27-2.218zm-.062-1.26c.051-.09.128-.149.231-.176.103-.028.2-.016.291.036.092.053.153.131.18.233.029.101.017.198-.036.291-.053.092-.131.153-.234.181-.101.029-.198.017-.291-.036s-.153-.131-.181-.234c-.027-.102-.014-.201.04-.295z" fill="#15ffab"/><path d="m74.457 15.591.512.293-.113.198c.151-.045.273-.065.367-.059.096.005.195.036.297.094.135.077.251.202.348.374l-.503.335c-.057-.125-.132-.215-.225-.268-.28-.16-.54-.029-.782.393l-.658 1.15-.512-.293z" fill="#15ffab"/><path d="m77.274 17.705-.553-.017c.011-.175-.032-.291-.131-.347-.047-.027-.096-.034-.147-.022-.052.012-.091.042-.119.091-.049.085.002.226.151.422.205.273.326.485.364.638.038.152.009.312-.087.479-.123.214-.304.348-.544.402-.232.049-.456.011-.673-.113-.372-.213-.532-.545-.479-.997l.553.048c0 .141.008.235.023.282.029.094.087.165.174.214.173.099.305.07.395-.088.052-.091.034-.214-.055-.37-.037-.055-.074-.11-.112-.164s-.076-.109-.114-.165c-.107-.158-.17-.291-.189-.398-.024-.137.005-.278.088-.424.11-.193.268-.314.472-.365.207-.049.407-.018.6.093.286.162.413.429.383.801z" fill="#15ffab"/><path d="m78.349 18.453-.996 1.74-.512-.293.996-1.74-.219-.125.274-.478.219.125.465-.813.512.293-.465.813.399.228-.274.478z" fill="#15ffab"/><path d="m80.985 20.376-.817 1.428-.531-.304 2.013-3.516.601.344c.295.169.505.316.632.443.129.128.218.282.268.462.089.313.047.62-.125.92-.184.322-.438.515-.762.58-.323.065-.668-.007-1.034-.217zm.282-.492.198.113c.487.279.838.231 1.053-.144.208-.363.06-.688-.442-.976l-.175-.1z" fill="#15ffab"/><path d="m83.328 20.668.512.293-.113.198c.151-.045.273-.064.367-.059.096.005.195.036.297.094.135.077.251.202.348.374l-.503.335c-.057-.125-.132-.215-.225-.268-.28-.16-.54-.029-.782.393l-.658 1.15-.512-.293z" fill="#15ffab"/><path d="m85.585 21.96-1.27 2.218-.512-.293 1.27-2.218zm-.062-1.26c.051-.09.128-.148.231-.176s.2-.016.291.036c.092.053.153.131.181.234.029.101.017.198-.036.291-.053.092-.131.153-.234.181-.101.029-.198.017-.291-.036s-.153-.131-.181-.234c-.028-.104-.015-.202.039-.296z" fill="#15ffab"/><path d="m85.977 24.487 1.319.755-.276.483-2.334-1.336 2.433-.918-1.132-.648.274-.478 2.145 1.228z" fill="#15ffab"/><path d="m90.085 26.168-1.59-.91c-.091.19-.114.369-.071.537.044.166.148.296.312.39.127.073.25.103.369.09.117-.014.274-.073.473-.177l.294.489c-.132.075-.258.133-.379.171-.121.039-.239.06-.354.063-.115.004-.229-.01-.342-.043-.112-.032-.226-.081-.342-.147-.331-.19-.536-.448-.615-.775-.078-.329-.016-.67.187-1.024.201-.351.461-.579.779-.685.318-.102.639-.06.963.125.327.187.525.439.596.755.07.314 0 .654-.209 1.02zm-.286-.72c.085-.314-.009-.55-.282-.706-.062-.036-.126-.06-.192-.072s-.131-.013-.196-.003-.128.031-.188.063c-.061.032-.118.075-.171.129z" fill="#15ffab"/><path d="m33.746 86.341c-8.609 0-15.612-7.004-15.612-15.613 0-8.038 6.096-14.723 14.009-15.53v-.058l.815-.005c.526-.026 1.052-.026 1.577 0h37.784c.525-.026 1.05-.026 1.575 0h.754l.001.056c7.938.777 14.055 7.461 14.055 15.522 0 8.601-6.997 15.597-15.597 15.597-.18 0-1.171-.112-5.051-.57-1.305-.154-2.652-.313-2.876-.334h-21.582c-.179.016-.851.083-1.764.173-4.896.483-7.788.762-8.088.762zm-.659-29.664-.129.008c-7.446.411-13.279 6.58-13.279 14.044 0 7.757 6.31 14.067 14.067 14.067.389-.011 5.486-.512 7.936-.754.992-.098 1.703-.168 1.816-.177l.066-.003 21.693.001c.132.008.922.101 2.98.343 1.841.218 4.623.546 4.891.56 7.727 0 14.03-6.304 14.03-14.053 0-7.479-5.845-13.642-13.306-14.032l-.127-.007c-.451-.019-.899-.017-1.348.005l-.039.001h-37.862c-.463-.023-.925-.024-1.389-.003z" fill="#15ffab"/><path d="m33.992 81.665c-5.95 0-10.79-4.841-10.79-10.79 0-5.95 4.841-10.79 10.79-10.79s10.79 4.84 10.79 10.79c0 5.949-4.84 10.79-10.79 10.79zm0-20.698c-5.463 0-9.907 4.444-9.907 9.907s4.444 9.907 9.907 9.907 9.907-4.444 9.907-9.907c0-5.462-4.444-9.907-9.907-9.907z" fill="#15ffab"/><path d="m73.638 81.665c-5.95 0-10.79-4.841-10.79-10.79 0-5.95 4.841-10.79 10.79-10.79s10.79 4.84 10.79 10.79c0 5.949-4.84 10.79-10.79 10.79zm0-20.698c-5.463 0-9.907 4.444-9.907 9.907s4.444 9.907 9.907 9.907 9.907-4.444 9.907-9.907c0-5.462-4.444-9.907-9.907-9.907z" fill="#15ffab"/><path d="m57.495 80.494c0 .705-.571 1.275-1.276 1.275h-6.121c-.704 0-1.275-.571-1.275-1.275 0-.705.571-1.275 1.275-1.275h6.121c.705 0 1.276.571 1.276 1.275z" fill="#fff"/><path d="m31.457 64.552h4.906v13.446h-4.906z" fill="#fff"/><path d="m27.187 68.58h13.446v4.906h-13.446z" fill="#fff"/><circle cx="73.565" cy="65.846" fill="#fff" r="2.186"/><circle cx="73.565" cy="76.304" fill="#fff" r="2.186"/><circle cx="68.063" cy="71.203" fill="#fff" r="2.186"/><circle cx="79.322" cy="71.203" fill="#fff" r="2.186"/><path d="m61.955 54.306c7.693 1.24 15.385 2.48 23.078 3.719.695.112.994-.951.293-1.064-7.693-1.24-15.385-2.48-23.078-3.719-.695-.112-.994.951-.293 1.064z" fill="#15ffab"/><path d="m62.436 53.944c.765-4.749 1.531-9.497 2.296-14.246.112-.695-.952-.994-1.064-.293-.765 4.749-1.531 9.497-2.296 14.246-.112.695.951.994 1.064.293z" fill="#15ffab"/><path d="m63.699 39.697c1.529 2.116 3.058 4.233 4.587 6.349.412.571 1.37.02.953-.557-1.529-2.116-3.058-4.233-4.587-6.349-.412-.571-1.37-.02-.953.557z" fill="#15ffab"/><path d="m69.09 46.4c2.451-1.77 4.901-3.541 7.352-5.311.571-.412.02-1.37-.557-.953-2.451 1.77-4.901 3.541-7.352 5.311-.571.412-.021 1.37.557.953z" fill="#15ffab"/><path d="m75.667 40.897c1.67 2.311 3.34 4.623 5.009 6.934.412.571 1.37.02.953-.557-1.67-2.312-3.34-4.623-5.009-6.934-.412-.571-1.37-.02-.953.557z" fill="#15ffab"/><path d="m81.428 48.047c2.144-1.549 4.289-3.098 6.433-4.647.571-.412.02-1.37-.557-.953-2.144 1.549-4.289 3.098-6.433 4.647-.57.412-.02 1.371.557.953z" fill="#15ffab"/><path d="m86.955 43.029c-.769 4.773-1.538 9.545-2.308 14.318-.112.695.951.994 1.064.293.769-4.773 1.538-9.545 2.308-14.318.112-.695-.951-.994-1.064-.293z" fill="#15ffab"/><path d="m87.738 40.489c2.785 1.084 2.687 4.93 1.529 7.169-.326.63.626 1.189.953.557 1.524-2.945 1.313-7.429-2.188-8.791-.663-.257-.95.809-.294 1.065z" fill="#15ffab"/><path d="m90.957 39.563c.497.444.913.958 1.17 1.579.114.274.367.473.679.385.26-.073.501-.401.385-.679-.332-.801-.805-1.487-1.454-2.066-.528-.471-1.312.307-.78.781z" fill="#15ffab"/><path d="m62.534 35.649c-1.359 1.336-2.082 3.025-2.275 4.909-.072.706 1.032.701 1.104 0 .163-1.592.809-3.004 1.952-4.128.507-.499-.273-1.28-.781-.781z" fill="#15ffab"/><path d="m58.148 37.437c-.512 1.057-.779 2.162-.658 3.34.072.7 1.177.707 1.104 0-.101-.985.077-1.893.507-2.782.308-.638-.643-1.198-.953-.558z" fill="#15ffab"/><circle cx="68.113" cy="49.796" fill="#fff" r="1.262"/><circle cx="80.454" cy="51.55" fill="#fff" r="1.262"/><circle cx="74.914" cy="47.483" fill="#fff" r="1.262"/><circle cx="92.275" cy="26.952" fill="#15ffab" r=".911"/><circle cx="68.575" cy="12.928" fill="#15ffab" r=".911"/><g fill="#fff"><path d="m74.188 109.438.412-.24.847 1.459c.07-.217.194-.377.371-.48.202-.117.401-.145.598-.085.169.054.325.205.47.455l.635 1.094-.412.24-.613-1.056c-.083-.143-.169-.232-.256-.267-.088-.035-.188-.019-.301.046-.144.084-.22.187-.227.31-.005.124.056.296.184.516l.501.863-.412.24z"/><path d="m78.324 108.789.414-.241 1.037 1.786-.414.241-.109-.187c-.078.257-.214.443-.41.556-.247.143-.503.173-.768.088-.266-.089-.478-.27-.636-.542-.156-.268-.205-.537-.148-.809.056-.271.205-.477.446-.617.208-.121.444-.143.708-.068zm-.464 1.456c.099.171.226.284.38.338.157.054.307.04.45-.043.153-.089.246-.213.279-.373.031-.163-.002-.329-.099-.496s-.224-.278-.382-.332c-.156-.052-.309-.034-.459.054-.142.082-.229.205-.262.368-.031.162 0 .324.093.484z"/><path d="m80.693 107.517.318.548c-.161-.06-.291-.09-.39-.089-.099-.002-.198.027-.297.084-.155.09-.253.219-.292.387-.039.169-.012.335.083.498.097.167.227.276.388.326.163.05.321.029.477-.061.099-.057.174-.13.225-.216.049-.084.088-.215.118-.392l.316.544c-.117.184-.259.325-.427.422-.276.16-.559.205-.848.135-.29-.072-.512-.241-.667-.507s-.191-.546-.109-.838c.082-.293.259-.518.533-.677.176-.103.366-.158.572-.164z"/><path d="m80.699 105.658 1.096 1.888.246-.915.554-.322-.34 1.2 1.434.553-.535.311-1.028-.411-.028.104.399.688-.412.24-1.798-3.096z"/><path d="m84.234 105.358.414-.241 1.037 1.785-.414.241-.109-.187c-.077.257-.214.443-.41.556-.247.143-.503.173-.768.088-.266-.089-.478-.27-.636-.542-.156-.268-.205-.537-.148-.809.056-.271.205-.477.446-.617.208-.121.444-.143.708-.068zm-.464 1.456c.099.171.226.284.38.338.157.054.307.04.45-.043.153-.089.246-.213.279-.373.031-.163-.002-.329-.099-.496s-.224-.278-.382-.332c-.156-.052-.309-.034-.459.054-.142.082-.229.205-.262.368-.031.162 0 .323.093.484z"/><path d="m85.817 104.953.813 1.401-.412.239-.813-1.401-.176.102-.224-.385.176-.102-.38-.655.412-.239.38.654.321-.186.224.385z"/><path d="m85.434 102.909.412-.24.847 1.459c.07-.217.194-.377.371-.48.202-.117.401-.146.598-.085.169.054.325.205.47.455l.635 1.094-.412.24-.613-1.056c-.083-.143-.169-.232-.256-.267-.088-.035-.188-.019-.301.046-.144.084-.22.187-.227.31-.005.124.056.296.184.516l.501.863-.412.24z"/><path d="m88.68 103.953c-.15-.258-.185-.531-.105-.819s.252-.509.517-.663c.266-.155.545-.195.837-.121.289.076.511.246.665.511.155.268.193.546.114.834-.081.287-.257.51-.527.666-.268.156-.545.194-.832.116-.287-.076-.51-.251-.669-.524zm.426-.238c.104.178.233.292.389.34.159.048.318.026.478-.067.161-.094.26-.22.296-.38s.004-.327-.097-.5-.23-.284-.386-.332c-.159-.048-.318-.026-.478.067-.158.092-.255.218-.292.38-.036.162-.006.326.09.492z"/><path d="m90.51 101.713.414-.241.096.165c.061-.227.182-.392.363-.497.208-.121.408-.149.6-.086.165.053.32.205.467.457l.635 1.094-.414.241-.579-.997c-.102-.176-.197-.283-.285-.322-.087-.041-.194-.025-.32.048-.137.079-.208.181-.213.305-.004.122.058.294.187.516l.5.862-.414.241z"/><path d="m95.211 100.835 1.054-.612.233.402-1.901 1.104.292-1.76c.028-.175.049-.324.064-.449s.023-.226.023-.305c.003-.155-.022-.279-.075-.37-.077-.132-.187-.216-.332-.251s-.285-.013-.422.066c-.286.166-.352.43-.197.793l-.425.247c-.278-.636-.15-1.11.384-1.42.258-.15.522-.193.792-.131.271.062.477.213.617.455.089.154.136.329.14.524.003.101-.005.228-.023.38-.019.152-.047.336-.086.551z"/><path d="m96.148 98.911c-.262-.451-.366-.872-.312-1.263.047-.352.204-.607.472-.762s.566-.166.896-.032c.366.147.684.452.953.915.268.462.375.889.321 1.279-.047.352-.204.606-.47.761-.267.155-.566.166-.898.033-.366-.147-.686-.457-.962-.931zm.421-.242c.182.314.388.543.618.688.227.141.425.162.594.065.167-.097.247-.28.238-.548-.008-.267-.102-.555-.281-.864s-.384-.534-.612-.674c-.228-.139-.425-.16-.593-.063-.166.097-.246.278-.238.545.008.265.099.549.274.851z"/><path d="m98.744 96.07-.489.284.003-.536.682-.396 1.643 2.83-.427.248z"/><path d="m101.253 95.895c-.293-.026-.513-.166-.66-.418-.133-.23-.166-.468-.098-.713.069-.246.222-.438.458-.575.235-.136.475-.173.721-.109.245.062.435.209.57.441.141.243.153.502.036.776.149-.005.29.032.423.112.134.079.244.192.329.338.146.251.183.503.112.758s-.234.457-.489.605c-.262.152-.524.196-.788.134-.265-.062-.468-.215-.61-.46-.184-.317-.186-.613-.004-.889zm-.259-.653c.07.121.17.199.299.233.131.035.256.018.373-.05.116-.067.192-.167.226-.298.035-.131.019-.255-.049-.371-.067-.116-.167-.192-.298-.226-.131-.035-.255-.018-.371.049s-.192.167-.226.298c-.035.13-.019.252.046.365zm.675 1.284c.076.131.187.217.332.259.145.04.284.022.415-.055.129-.075.213-.185.252-.33.038-.146.019-.284-.056-.413-.076-.131-.186-.215-.331-.254-.145-.038-.282-.02-.412.055-.128.075-.212.185-.252.33s-.022.282.052.408z"/><path d="m57.858 121.597c-.018-.031-.037-.063-.055-.094-.018-.032-.036-.063-.045-.099-.007-.028-.024-.052-.037-.077-.009-.018-.02-.036-.021-.057 0-.005-.001-.01-.003-.014-.018-.037-.033-.075-.045-.114-.011-.036-.021-.073-.031-.109-.015-.05-.026-.101-.036-.152-.014-.072-.025-.145-.031-.219-.009-.095-.011-.189-.009-.284.001-.072.011-.144.018-.216.006-.064.024-.126.034-.189.013-.082.039-.159.063-.237.037-.121.087-.238.146-.35.039-.074.082-.145.127-.215.025-.039.051-.078.081-.113.029-.034.052-.074.088-.103.013-.01.015-.028.029-.037.012-.007.02-.019.028-.031.013-.02.035-.031.05-.049.026-.03.056-.055.085-.081.034-.03.072-.057.105-.088.032-.029.067-.053.102-.077.075-.053.15-.106.232-.147.104-.053.209-.103.32-.142.042-.015.083-.029.125-.041.034-.01.067-.027.104-.026.025-.015.056-.009.082-.021.02-.01.043-.007.064-.012.047-.011.095-.016.142-.021.09-.009.181-.014.272-.013s.181.012.271.02c.09.009.176.036.265.048.014.002.027.007.041.012.03.01.059.022.089.029.076.017.146.049.217.079.056.024.112.048.165.076.058.031.114.065.169.1.075.047.146.099.213.156.038.032.08.06.111.101.032.016.044.053.076.07.008.004.013.014.018.021.011.015.022.03.038.042.009.006.016.015.022.024.014.019.026.039.047.053.01.007.017.019.023.029.021.032.041.064.067.092.028.031.049.066.069.102.025.042.05.084.075.127.021.035.042.071.055.11.011.033.028.064.044.094.01.018.021.036.021.057 0 .003.001.006.002.009.018.035.03.072.041.11.006.021.015.04.019.063.004.026.015.051.022.077.02.074.034.149.046.225.017.107.025.214.026.322.001.056-.006.112-.003.168-.016.113-.023.228-.053.339-.008.032-.012.065-.021.096-.015.052-.033.102-.048.154-.017.057-.043.111-.065.166-.052.13-.123.25-.197.368-.038.041-.062.093-.101.134-.015.015-.026.034-.041.051-.032.036-.06.076-.095.109-.026.025-.047.056-.079.075-.061.069-.137.12-.207.18-.002.002-.005.004-.007.006-.091.06-.177.128-.276.175-.074.035-.145.076-.223.105-.047.017-.095.035-.141.054-.03.012-.063.019-.095.029-.039.013-.078.024-.118.03-.048.008-.093.026-.142.025-.095.021-.192.028-.288.031-.092.003-.185.004-.277-.009-.043-.006-.087-.007-.13-.014-.053-.008-.104-.021-.157-.03-.1-.015-.193-.054-.29-.081-.051-.015-.099-.041-.148-.061-.073-.029-.142-.066-.21-.104-.084-.047-.164-.101-.242-.159-.043-.032-.084-.067-.124-.102-.039-.034-.075-.072-.113-.107-.028-.026-.048-.058-.08-.08-.006-.004-.01-.012-.015-.018-.017-.025-.034-.049-.058-.068-.013-.01-.021-.027-.03-.042-.018-.028-.037-.055-.06-.079-.011-.011-.02-.024-.029-.038-.025-.042-.049-.083-.073-.123zm1.494-.913c.043-.035.082-.072.126-.101.09-.059.18-.117.281-.157.041-.016.078-.042.119-.057.075-.027.143-.067.211-.107.037-.022.073-.044.103-.076.007-.008.017-.015.026-.02.037-.02.057-.059.091-.081.045-.061.093-.12.119-.194.037-.106.038-.209-.008-.312-.017-.039-.04-.076-.065-.11-.04-.056-.093-.098-.156-.126-.069-.031-.142-.046-.219-.046-.066 0-.13.007-.193.029-.004.002-.009.002-.014.002-.015-.002-.028.006-.04.012-.062.032-.121.068-.179.106-.009.006-.02.011-.024.022-.007.016-.021.023-.033.033-.006.005-.014.009-.018.015-.025.037-.058.069-.084.106-.045.063-.082.131-.107.203-.045.128-.066.26-.061.397.003.084.016.166.037.247.008.03.012.062.028.09.009.017.014.034.019.053.006.026.017.052.041.072zm.263-.016c-.02.012-.04.025-.061.036-.023.012-.04.031-.057.049-.005.006-.013.009-.019.014-.022.017-.05.027-.065.053-.015.024-.049.031-.057.061-.036.04-.062.085-.085.134-.052.107-.049.216-.006.323.027.069.075.125.136.171.075.056.159.082.249.085.081.003.162-.002.237-.04.008-.004.018-.005.027-.007s.018-.004.027-.008c.082-.038.16-.099.225-.169.027-.029.051-.058.075-.089.062-.082.101-.173.131-.27.014-.044.017-.089.026-.134.008-.04.01-.081.01-.121 0-.08-.008-.16-.024-.239-.005-.022-.015-.041-.019-.063-.007-.047-.029-.089-.044-.134-.003-.009-.008-.017-.013-.025-.007-.012-.013-.013-.026-.003-.032.024-.065.045-.093.074-.011.011-.025.02-.038.028-.06.035-.12.071-.18.105-.016.009-.034.017-.052.023-.027.009-.053.021-.078.035-.026.014-.052.031-.08.041-.054.016-.1.042-.146.07z"/><path d="m68.419 115.782c.155.263.31.526.465.79.012.02.024.039.035.06.017.034.013.049-.02.072-.017.011-.034.021-.052.031-.124.073-.248.147-.373.219-.119.069-.096.075-.165-.039-.015-.025-.029-.05-.044-.074-.004-.007-.009-.015-.016-.02-.006-.005-.015-.007-.022.001-.012.014-.016.031-.018.048-.015.113-.065.213-.129.304-.032.045-.063.096-.117.123-.012.006-.024.017-.033.027-.061.069-.135.115-.226.133-.011.002-.022.007-.032.013-.088.047-.184.053-.281.06-.113.008-.222-.008-.329-.038-.093-.026-.182-.066-.263-.119-.033-.022-.066-.045-.098-.068-.049-.035-.095-.072-.132-.12-.012-.016-.022-.034-.038-.047-.088-.075-.132-.181-.188-.277-.01-.017-.013-.038-.019-.057s-.009-.04-.018-.057c-.044-.089-.056-.185-.066-.281-.017-.162.005-.32.064-.471.036-.093.089-.178.147-.26.042-.06.11-.092.147-.154.086-.051.161-.122.266-.135.008-.001.017-.005.024-.008.108-.049.222-.049.336-.034.046.006.091.014.134.032.019.008.038.011.059.01.011-.001.014-.011.011-.018-.008-.018-.018-.036-.028-.054-.023-.04-.046-.08-.069-.12-.01-.018-.005-.033.012-.044.029-.019.057-.039.087-.057.111-.066.223-.132.335-.197.032-.019.066-.035.1-.05.018-.008.034-.003.044.015.012.02.024.039.036.059.158.265.316.533.474.802zm-1.442.843c.045.083.112.144.191.192.122.076.251.106.391.058.011-.004.022-.007.034-.008.036-.003.065-.021.096-.037.055-.029.082-.089.132-.123.064-.104.104-.214.094-.339-.004-.052-.022-.1-.033-.149-.01-.046-.028-.089-.057-.125-.066-.084-.142-.158-.241-.202-.154-.067-.306-.062-.453.025-.045.027-.081.059-.115.1-.032.038-.059.077-.077.122-.066.169-.047.33.038.486z"/><path d="m71.762 113.742c.161.273.322.547.483.82.033.056.048.064-.025.107-.149.088-.298.176-.447.263-.005.003-.01.006-.015.008-.039.02-.047.019-.07-.017-.021-.034-.041-.069-.062-.104-.007-.012-.014-.025-.023-.036-.005-.006-.013-.011-.02-.012-.012-.002-.014.009-.014.017-.003.046-.014.09-.028.134-.028.085-.07.159-.128.228-.03.036-.062.066-.099.093-.007.005-.015.01-.02.017-.051.071-.128.11-.204.141-.081.034-.165.071-.254.075-.166.007-.323-.021-.458-.132-.038-.032-.074-.062-.1-.104-.008-.012-.015-.026-.026-.034-.053-.039-.083-.095-.115-.15-.216-.365-.431-.73-.647-1.095-.04-.067-.039-.069.024-.106.144-.085.288-.17.432-.255.01-.006.02-.012.03-.017.031-.015.048-.012.067.015.013.019.024.039.036.059.149.253.298.507.448.76.035.06.072.118.109.176.045.069.133.135.209.172.033.016.069.023.1.018.095-.018.195-.029.254-.123.017-.026.047-.039.063-.069.044-.081.049-.165.032-.251-.016-.085-.047-.164-.092-.24-.163-.272-.323-.546-.484-.82-.066-.112-.067-.096.041-.16.129-.077.258-.152.388-.228.02-.012.04-.023.061-.032.015-.007.029-.002.038.011.015.021.028.044.041.066.159.268.317.536.475.805z"/><path d="m63.783 118.823c.075-.044.149-.088.224-.132.034-.02.047-.028.079.012.051.064.119.097.202.084s.163-.036.231-.088c.04-.03.067-.071.096-.109.022-.029.026-.067.01-.106-.032-.078-.075-.11-.159-.103-.054.004-.109.012-.162.024-.117.026-.233.061-.351.081-.112.019-.221.051-.336.048-.092-.002-.181-.014-.263-.059-.053-.029-.104-.06-.136-.114-.007-.012-.017-.024-.027-.033-.031-.028-.051-.061-.061-.102-.004-.017-.012-.033-.019-.048-.082-.166-.055-.328.027-.483.031-.059.066-.12.124-.161.023-.05.07-.075.112-.104.012-.008.023-.018.033-.028.092-.1.217-.149.331-.215.046-.005.09-.02.129-.044.038-.024.086-.008.124-.033.133-.015.266-.025.395.028.097.04.182.095.248.177.016.02.034.04.049.06.027.036.023.049-.017.076-.01.006-.02.012-.03.018-.132.078-.263.155-.395.233-.015.009-.029.018-.045.026-.025.012-.043.007-.061-.013-.011-.013-.02-.029-.032-.041-.034-.036-.074-.063-.125-.065-.086-.004-.167.015-.226.083-.028.032-.064.056-.078.101-.029.091.03.195.125.206.042.005.087.004.129-.004.107-.02.214-.046.32-.069.134-.029.265-.071.402-.079.103-.006.205-.002.3.051.038.021.075.044.103.076.06.069.112.143.147.231.072.179.045.347-.028.515-.024.054-.091.142-.136.184-.027.025-.04.062-.076.081-.03.016-.062.034-.084.06-.054.063-.127.099-.196.14-.032.019-.065.036-.102.045-.028.007-.056.017-.08.032-.062.041-.134.052-.203.068-.056.013-.116.023-.177.021-.083-.002-.166-.011-.243-.042-.081-.033-.163-.07-.219-.144-.054-.028-.081-.079-.111-.127-.005-.007-.009-.015-.013-.023-.011-.023-.009-.035.015-.05.047-.029.094-.056.141-.084.03-.02.063-.039.095-.058z"/><path d="m73.077 112.495c-.067.039-.134.079-.201.118-.017.01-.035.02-.053.029-.015.007-.028.003-.038-.01-.017-.023-.032-.047-.055-.066-.103-.084-.241-.056-.331.023-.021.019-.041.041-.059.063-.062.08-.057.194.061.249.01.005.022.006.033.006.052.001.103.002.154-.009.106-.023.213-.044.319-.071.074-.019.149-.042.225-.054.108-.017.218-.033.329-.011.093.018.17.062.241.12.011.009.018.022.026.035.027.044.054.088.081.133.086.144.086.297.048.454-.026.105-.09.189-.148.277-.055.04-.087.107-.151.137-.018.008-.034.023-.048.037-.087.087-.192.145-.308.186-.024.008-.049.018-.072.03-.138.071-.287.091-.439.084-.11-.005-.214-.039-.306-.103-.084-.058-.154-.128-.203-.218-.018-.034-.015-.05.02-.071.146-.087.293-.173.439-.259.005-.003.01-.006.015-.008.033-.014.053-.012.074.02.041.061.1.083.169.081.099-.002.249-.055.311-.141.029-.04.061-.075.063-.127.002-.047-.042-.11-.086-.126-.042-.015-.085-.017-.127-.009-.082.015-.162.037-.244.052-.09.016-.177.046-.269.055-.042.004-.083.019-.125.026-.095.015-.198.02-.287.008-.134-.018-.236-.088-.312-.194-.093-.13-.14-.275-.117-.438.014-.099.056-.185.112-.265.034-.049.074-.093.113-.138.013-.015.031-.025.047-.037.028-.02.057-.036.076-.069.009-.016.03-.026.047-.037l.177-.108c.042-.025.084-.05.135-.056.014-.001.028-.008.04-.015.069-.037.144-.05.221-.059.051-.006.101-.01.152-.01.125.001.237.042.336.113.067.048.129.105.165.183.011.024.009.034-.014.05-.005.003-.01.006-.015.009-.072.043-.146.087-.221.131z"/><path d="m68.78 115.529c-.076-.129-.152-.258-.228-.387-.01-.017-.02-.035-.031-.052-.019-.028-.037-.033-.066-.018-.046.025-.09.052-.135.078-.02.011-.04.024-.061.033-.03.013-.048.007-.065-.02-.024-.039-.047-.079-.071-.119-.04-.067-.08-.134-.118-.201-.023-.04-.019-.052.021-.077.046-.029.094-.056.141-.084.017-.01.034-.021.051-.032s.02-.029.013-.046c-.008-.021-.02-.041-.032-.061-.074-.127-.149-.253-.224-.38-.043-.074-.043-.074.031-.118l.402-.237c.015-.009.03-.018.045-.025.014-.006.03-.002.039.009.014.018.027.037.038.057.073.124.147.248.22.372.057.096.053.083.136.035.077-.045.154-.091.231-.136.02-.012.04-.023.061-.032.014-.006.028-.003.038.011.005.007.01.014.014.022.062.104.123.208.184.313.021.035.018.05-.012.074-.016.012-.033.022-.051.033-.074.044-.149.088-.223.132-.017.01-.034.021-.051.032-.016.011-.02.028-.013.046.005.013.013.026.02.038.117.199.235.397.351.596.03.051.068.092.11.132.024.023.053.036.082.046s.058.011.092.002c.093-.026.178-.067.252-.129.007-.006.014-.01.021-.015.022-.014.038-.012.052.007.007.009.013.019.018.029.062.104.123.209.184.313.007.012.015.025.02.038.011.024.008.038-.013.052-.125.081-.232.19-.369.254-.031.015-.06.034-.095.038-.019.002-.038.012-.056.021-.188.088-.364.069-.531-.055-.086-.064-.158-.14-.212-.233-.068-.119-.139-.238-.21-.356.001-.001.001-.001 0 0z"/><path d="m65.287 117.58c-.075-.127-.149-.253-.224-.38-.012-.02-.023-.04-.036-.059-.015-.022-.036-.027-.061-.015-.023.011-.045.025-.068.038-.04.023-.079.048-.12.069-.039.02-.057.015-.079-.021-.062-.104-.124-.208-.184-.313-.025-.044-.022-.054.024-.082.054-.033.109-.064.164-.097.048-.029.051-.04.024-.09-.021-.038-.043-.075-.065-.112-.057-.097-.114-.194-.171-.291-.012-.02-.023-.04-.032-.061-.006-.014-.003-.028.011-.038.007-.005.014-.01.022-.014.149-.088.298-.176.447-.263.039-.023.054-.019.079.017.012.016.021.034.031.052.067.114.135.228.202.343.01.017.02.035.031.052.026.039.037.043.077.019.087-.05.174-.102.261-.153.101-.06.092-.051.143.034.053.089.106.178.158.268.026.045.024.055-.017.086-.018.014-.038.026-.058.037-.069.041-.139.082-.208.123-.017.01-.035.021-.051.033s-.018.029-.012.046c.006.016.016.031.024.046.111.189.223.377.333.566.035.061.079.113.132.158.051.044.106.058.174.039.091-.025.171-.066.244-.125.009-.007.019-.014.029-.019.014-.006.029-.004.039.008.009.011.017.023.025.035.062.104.123.208.184.313.006.01.012.02.016.03.012.027.008.042-.015.06-.016.012-.034.022-.05.034-.023.017-.048.032-.069.052-.081.08-.184.128-.281.184-.014.008-.032.013-.049.016-.026.005-.049.015-.073.027-.185.087-.36.066-.523-.054-.084-.062-.156-.135-.209-.226-.072-.125-.146-.248-.219-.372.001 0 .001 0 0 0z"/></g></svg>