<svg enable-background="new 0 0 110.979 128.417" viewBox="0 0 110.979 128.417" xmlns="http://www.w3.org/2000/svg" xmlns:xlink="http://www.w3.org/1999/xlink"><radialGradient id="a" cx="55.6608" cy="64.3994" gradientUnits="userSpaceOnUse" r="49.6876"><stop offset="0" stop-color="#ffffef"/><stop offset="1" stop-color="#c4d6ef"/></radialGradient><path d="m110.887 96.246-55.425 32-55.424-32v-64l55.424-32 55.425 32z" fill="#f1c5ad"/><path d="m101.661 37.829v53.14l-.011.01-.02.01-.41.24-.37.21-.62.35-4.149 2.39-.011.01-.13.08-.06.03-.55.32-.801.45-.1.06-.479.28-1.131.65-.85.49-.74.43-.239.13-.131.05-.109.07-1 .57-.03.02-2 1.15-.51.29-.141.08-.029.02-.14.081-.01.01-1.04.59-.04.03-.069.04-1.16.67-.45.26-.01.01-.011.01h-.01l-.42.24-1.12.65-.87.52-1.18.67-.08.05-.12.07-.04.03-.04.02-.02.01-.101.06-.29.17-.029.01-.16.09v.01l-.4.23-.27.16-.11.06-.18.09-.021.02-.04.02-.689.39-.061.04-.239.14-.021.01-.29.17-.149.08-.221.13-.239.14h-.01l-.42.25-.29.17-.029.02-.301.17-1.359.79-.5.29-.25.14-.7.4-.03.02h-.011l-.31.18-.051.03-.239.15-.841.48-.63.36-.06.03-.5.29c-.01.01-.01.01-.01 0l-.53.31-.29.17-.76.44-.051.03-.05.03-.029.01c0 .01-.011.01-.011.01l-.02.02-.25.14-1 .58-.17.1-.04.02-.38.22-1.42.82-.36.21-.09.05-.24.14-.8.46-.26.15-.28.16-.01.01-.2.12-.23.13-.35.2-.83.48-.01.01-.09.05-1.32.76-.021.01-.79.46-.609.35h-.01l-1.41.81-.021.02-.25.14-.56.32h-.01l-.131.08-.189.11-.271.16h-.01l-.2.12-.06-.03-1.14-.66-.02-.01-.2-.12-.85-.49-.03-.01-.33-.19-.01-.01-1.4-.81-.01-.01-.02-.01-1.37-.79-.03-.02h-.01l-.83-.48-.06-.04-.341-.19-.18-.11-.02-.01-.66-.38-.04-.03-.09-.05-.101-.06-.13-.07-.27-.16-.12-.07h-.004l-.72-.42-.24-.13-.39-.23-.05-.03-.03-.02-1.399-.81h-.011l-.109-.07-.37-.22h-.01l-.271-.16-.62-.36-.03-.01-.06-.04-.04-.02-1.29-.75-.39-.23-.681-.39-.579-.33-.11-.06-1-.58-1.72-1c-.011-.01-.02-.02-.03-.02l-1.32-.76-3.92-2.26-.16-.09-.569-.33-.471-.27-.44-.26-.3-.17-.381-.22-.989-.58-.04-.02-2.74-1.59-.1-.06-.181-.1-.67-.38-.82-.47-.09-.05-.5-.29-.01-.01-.08-.05h-.01l-.12-.07h-.01l-.311-.18-.729-.42c-.01-.01-.01-.01-.021-.01l-1.859-1.08-1.021-.59-2.109-1.23-.091-.05-.199-.12s-.011 0-.021-.01l-.28-.16-.529-.3-.82-.48-.06-.04h-.009s0 0-.01 0l-.49-.29-.699-.4-.681-.39-1.22-.71-.1-.06h-.01l-.33-.19-.409-.24h-.011l-.43-.25-.99-.57-.08-.04-.029-.02v-53.14l.779-.45 1.59-.92.36-.21 3.38-1.95 1.06-.61 5.779-3.34h.011l.909-.52 1.051-.62 1.819-1.05h.011l.869-.51 3.631-2.08.64-.38.94-.54.17-.09 1.659-.95.78-.45.38-.22.44-.26.67-.39.43-.26.521-.3.5-.28.59-.34 1.189-.68.69-.41.75-.43.65-.37h.01l.05-.03.43-.25 5.29-3.05.11-.06.08-.05.269-.16 5.521-3.19.55-.32 1.44-.83.51.3 1.09.63 2.86 1.65 3.09 1.79 2.6 1.5.22.13 4.69 2.7.98.57 5.13 2.96.91.52 1.039.61 2.301 1.31.87.5.689.4.83.48.49.28.58.34.3.17.8.46.09.06 1.811 1.04 2.16 1.24 1.119.65.5.29.04.03v.01l.261.14.659.39 1.461.84 1.939 1.12.78.44.439.25.49.28 1.45.84.17.1.85.49z" fill="url(#a)"/><path d="m80.111 57.464c.161-.176.27-.413.262-.728-.058-2.221-.313-4.105-1.093-6.185-.144-.384-.419-.6-.725-.686-.299-.827-.64-1.644-1.028-2.465-.002-.007-.004-.013-.006-.019 0 0-.002.001-.002.001-.04-.084-.073-.168-.114-.252-.153-.317-.407-.45-.677-.475-.013-.016-.026-.033-.039-.049-.238-.298-.588-.418-.924-.409.095-.312.189-.624.259-.95.173-.186.302-.425.322-.738.008-.133.017-.262.026-.393.438-1.703.395-3.279.191-5.038.074-.151.124-.323.114-.537-.02-.421-.04-.843-.06-1.264-.017-.354-.166-.614-.378-.783.14-.656-.262-1.483-1.055-1.383-1.128.143-2.415.093-3.384.65-.822.101-1.549.381-2.273.778-1.736.62-3.232 1.563-4.408 3.214-.01.008-.021.016-.031.024.003.002.005.004.008.006-.053.075-.112.138-.164.216-.017.025-.017.047-.031.072-.122.112-.242.225-.36.34-.143-.216-.352-.404-.667-.512-1.525-.52-3.064-1.547-4.579-.944-.05-.016-.088-.045-.145-.053-1.293-.187-2.534-.269-3.8-.246-3.167-.268-6.329-.491-9.218 1.129-.254-.224-.519-.432-.784-.639.068-.228.045-.478-.141-.712-.178-.223-.349-.453-.522-.681-.214-.282-.537-.44-.868-.439-.123-.031-.244-.031-.362-.009-.603-.5-1.291-.727-2.027-.961-.234-.16-.467-.323-.701-.481-.236-.159-.497-.161-.738-.079-.013-.007-.026-.011-.039-.018-.067-.035-.13-.038-.195-.058-1.174-.448-2.347-.728-3.302-.49-.449-.163-1.039-.023-1.221.567-.035.112-.059.225-.092.337-.107.108-.196.239-.229.421-.057.314-.1.625-.143.936-.228.891-.432 1.785-.592 2.702-.069.395.078.685.307.864-.094.093-.169.203-.182.331-.003.031-.007.062-.01.092-.038.36.07.602.339.81.089 1.077.259 2.152.515 3.232.034.18.079.367.133.569-.296-.031-.613.076-.819.398-.315.395-.631.79-.946 1.184-.151.141-.211.293-.232.444-.142.103-.267.245-.338.457-.14.416-.287.832-.434 1.248-.096.076-.184.176-.257.311-.896 1.663-1.119 3.247-1.2 5.123-.004.091.021.161.037.237-.155 1.135-.294 2.321-.114 3.43.052.32.14.623.242.918.104.648.272 1.271.512 1.857-.019.118-.02.244.015.382.034.134.069.268.103.402.055.215.17.356.307.453.06.148.112.298.19.44.028.064.071.112.11.165.371 1.021.869 1.994 1.577 2.962.069.095.151.158.233.217.03.043.06.085.09.128.171.468.478.853.834 1.205.014.19.088.377.256.525.792.697 1.606 1.333 2.458 1.918.249.494.526.98.892 1.278.487.397 1.43.655 1.991.971 1.628.915 3.185 1.596 5.067 1.692.175.009.316-.045.437-.124 1.313.396 2.704.389 3.956.852.284.105.6.182.93.234-.275.133-.544.28-.814.447-.398.016-.827.32-.854.78 0 .006-.001.011-.001.017-.016-.005-.024-.004-.042-.01-.161.006-.309.052-.445.138-.562.52-1.145.972-1.594 1.601-.431.603-.618 1.17-.711 1.761-.237.06-.446.213-.559.437-.696.136-1.577.627-1.844.738-.724-.446-1.934-.243-2.819-.061-.647-.426-1.316-.634-2.013-.986-1.326-.671-2.285-1.683-3.179-2.848-.915-1.192-1.813-2.264-3.02-3.065-.047-.073-.108-.141-.193-.198-.361-.243-.435-.269-.804-.37-.027-.016-.043-.038-.075-.05-.15-.059-.3-.118-.45-.177-.21-.083-.396-.068-.544.003-.052.006-.101.019-.148.038-.033 0-.06-.008-.096-.003-.067.009-.124.028-.185.043-.001-.004-.002-.008-.003-.012-.021.009-.042.018-.063.027-.353.1-.624.27-1.012.349-.642.132-.547.959-.116 1.25.404.273.771.542 1.123.812.085.279.292.513.681.572.014.002.027.011.041.014 1.423 1.225 2.435 2.562 3.394 4.527.779 1.596 1.591 2.822 3.221 3.636 2.229 1.113 6.238 1.763 8.473.169.002.176-.001.353.002.529-.222.939-.176 1.893-.026 2.871-.224 1.701-.381 3.432-.486 5.21-.153.233-.296.472-.428.753-.314.669-1.028 1.161-1.094 1.874-.075-.011-.144-.009-.222-.032-.319-.091-.541.082-.637.318-.031-.012-.051-.038-.09-.038-.373 0-.354.578.018.578.032 0 .045-.023.072-.031.064.142.182.261.371.315.558.16 1.069.108 1.544-.061.072.031.143.065.225.077.829.122 1.88-.775 2.348-1.371.593-.755.727-1.836 1.058-2.727.389-1.048.749-2.215.259-3.281.14-2.392.001-4.889 1.034-7.101.087-.186.092-.357.065-.515.375-.491.8-.954 1.23-1.414-.043.269-.063.549-.065.835-.104.113-.181.262-.192.459-.071.564-.06 1.128-.005 1.69-.058 1.487-.218 2.969-.158 4.468.096 2.407.966 7.306-.795 9.199-.162.174-.08.428.082.548-.184.127-.376.25-.59.358-.392.199-.183.923.263.849.528-.087.987-.263 1.397-.496.215.18.51.246.782.036.375-.29.75-.58 1.125-.869.23-.177.28-.41.223-.609 1.243-1.664 1.683-3.423 1.892-5.828.16-1.839.052-3.564-.038-5.394-.095-1.913.518-3.659.686-5.481.151-.081.308-.155.472-.223.575 1.605.842 3.294.952 5.011-.51.839-.445 2.429-.28 3.816-.026.047-.049.096-.059.154-.518 3.206.301 5.714 1.932 8.189.282.428.739.428 1.06.207.372.357.821.64 1.41.789.138.035.262.008.369-.046.11.096.235.17.392.194.19.029.421-.144.333-.357-.021-.052-.271-.372-.377-.384.008-.2-.081-.396-.309-.495-.101-.044-.187-.109-.28-.164-.881-2.288-1.086-4.575-1.069-6.872.138-.13.232-.314.235-.557.008-.781.048-1.562.083-2.343.095-.099.172-.217.2-.377.233-1.335.231-2.527.024-3.872-.027-.178-.101-.316-.191-.436.039-.561.034-1.068-.015-1.559.282.332.562.663.813 1.011-.056.147-.061.312.033.465.188.307.376.613.564.92.059.136.091.296.138.443-.053.078-.092.165-.132.284-.099.29.081.487.313.564.01.222.013.443-.006.665 0 .006.003.009.003.014-.003.122-.007.253-.011.384-.124.094-.206.236-.181.432.047.375.082.757.121 1.137-.045 1.157-.073 2.434.016 3.649.015.447.062.853.148 1.254.217 1.328.654 2.456 1.461 3.099.092.146.183.295.284.426.211.274.479.306.694.212.492.529 1.323.974 2.023.726.091-.032.162-.082.223-.14.209.076.428.135.665.163.179.021.334-.024.457-.106.021.003.04.008.063.01.309.02.332-.291.217-.484.011-.2-.08-.408-.313-.552-4.057-2.511-1.711-9.895-2.253-13.818-.315-2.285-1.381-4.329-3.305-5.589.012-.4-.188-.809-.685-.957-.325-.097-.616-.217-.899-.34.881-.01 1.763-.04 2.64-.126.552.025 1.097-.017 1.577-.205 1.796-.301 3.53-.83 5.106-1.711.263.141.59.143.913-.106.364-.28.603-.46.793-.612.308.199.697.243 1.038-.026.069-.055.133-.116.202-.172.001.001.001.001.001.001.02-.018.039-.035.059-.053.279-.231.548-.472.809-.723 1.079-.981 1.976-1.936 2.585-3.088.142-.001.286-.036.419-.131.016-.011.026-.022.041-.033.334-.183.568-.535.508-.947-.027-.187-.108-.337-.21-.465 1.417-2.91 2.09-6.217 1.923-9.37zm-6.034 8.951c-.243.56-.318.783-.452 1.388-.283.723-.591 1.399-.893 1.802-.055.046-.112.077-.164.141l-1.698 1.662c-.06.047-.112.097-.158.149-2.355 1.215-4.465 1.864-7.166 2.013-1.489.082-2.904.093-4.318.322-.759-.2-1.805-.328-2.527.068-.003-.001-.005-.003-.008-.003-.058.006-.11-.005-.155-.032-.309-.233-.766-.292-1.074-.021-.002 0-.003-.001-.005-.001-.148-.025-.283-.006-.409.032-.348-.076-.67-.148-1.05-.011-.03.011-.053.034-.082.047-.195-.294-.542-.495-.988-.403-1.088.225-2.008-.279-3.044-.395-1.203-.135-2.342-.019-3.549-.329-.028-.007-.05-.001-.076-.005-.013-.008-.021-.02-.035-.027-.913-.47-1.838-.863-2.798-1.221-.305-.114-.569.001-.758.205-.443-.22-.88-.463-1.32-.71 0-.273-.11-.552-.399-.746-.855-.571-1.567-1.207-2.26-1.959-.097-.105-.203-.168-.31-.207-.168-.316-.306-.643-.386-.994-.021-.071-.062-.12-.094-.179-.161-.619-.283-1.236-.706-1.813-.006-.007-.011-.013-.017-.021-.223-2.246-.595-4.58.39-6.716.054-.105.107-.21.163-.314.786-1.454 2.468-3.094 4.013-3.606.034-.011.062-.034.094-.05.145.079.31.124.495.109.851-.068 1.732-.511 2.585-.403.508.064.987-.222 1.22-.619.095-.026.192-.045.287-.07 1.17.51 2.654.521 3.877.564 1.32.047 2.624-.105 3.928-.237 1.189.225 2.516.075 3.71-.022.212.224.518.363.938.316 1.549-.172 3.099-.345 4.648-.518.067.053.127.112.212.152.972.452 1.875.551 2.682.236 1.374.153 2.719.435 4.087.634.372.659.847 1.154 1.541 1.589.216.136.439.165.644.119.072.105.144.208.213.291.247.296.495.595.757.873.002.007 0 .013.003.021.461 1.396.972 2.737 1.321 4.117-.191 1.626-.509 3.21-.909 4.782z" fill="#111"/><path d="m74.636 62.316c.029-1.321-.044-2.724-.483-3.668-.241-.519-.705-.911-1.213-1.243-.206-1.123-1.866-2.012-2.807-2.417-.904-.388-1.877-.483-2.816-.744-1.065-.297-1.97-.802-3.105-.632-.318.048-.554.257-.673.509-4.732-.48-9.637-.394-14.345-.317-2.03.033-3.841.281-5.406.743-.899-.328-1.923-.082-2.437.699-.651.311-1.268.687-1.769 1.105-.66.551-1.444 1.441-1.567 2.365-.735.616-.971 1.672-1.14 2.623-.09.507-.274.904-.146 1.419.082.331.256.635.447.931.008.059.009.117.024.179.218 1.045.494 2.075.829 3.09.117.392.338.655.604.819.037.071.074.143.111.214.094.182.222.315.367.412.051.059.106.114.166.17.325 1.091 1.331 1.982 2.334 2.445.607.28 1.28.339 1.891.587.598.243 1.002.543 1.557.703.547.363 1.178.308 1.812.51.716.229 1.362.499 2.132.457.214-.011.393-.069.541-.158 1.991.628 4.389.453 6.332.559.3.016.636-.163.842-.407.51.08 1.013.121 1.451.129 1.129.02 2.268-.042 3.407-.128 1.157.376 2.488-.085 3.687-.312.022-.004.035-.018.055-.023.111.034.223.066.358.063.275-.011.476-.026.663-.046 2.321-.183 3.769-1.006 5.29-2.566.122-.059.238-.145.337-.276.132-.173.263-.346.395-.519.157-.207.228-.426.236-.637.169-.34.329-.671.479-.997.24-.112.437-.314.501-.639.029-.147.046-.296.072-.444.013-.055.027-.109.04-.164.037-.042.079-.076.113-.125.403-.599.586-1.088.625-1.638.021-.044.053-.074.07-.122.301-.83.307-1.681.139-2.509z" fill="#f1c5ad"/><g fill="#fff"><path d="m45.107 80.945c-.756 0-.717 1.172.036 1.172.756 0 .717-1.172-.036-1.172z"/><path d="m42.789 81.281c-.967 0-.918 1.5.046 1.5.968 0 .918-1.5-.046-1.5z"/><path d="m41.154 81.466c-.015-.016-.031-.033-.046-.049-.737-.778-1.597.934-.564 1.07.022.003.045.006.068.009.598.078.973-.576.542-1.03z"/><path d="m38.703 80.617c-.655 0-.621 1.015.031 1.015.655 0 .621-1.015-.031-1.015z"/><path d="m36.92 79.445c-.715 0-.679 1.109.034 1.109.716 0 .679-1.109-.034-1.109z"/><path d="m35.862 78.218c-.524 0-.497.812.025.812.524.001.497-.812-.025-.812z"/><path d="m34.739 76.617c-.454 0-.43.703.021.703.454 0 .431-.703-.021-.703z"/><path d="m33.392 75.156c-.564 0-.535.875.027.875.565 0 .536-.875-.027-.875z"/><path d="m31.74 74.14c-.423 0-.402.656.02.656.423 0 .401-.656-.02-.656z"/></g><path d="m76.197 45.833c1.096-2.96.985-6.972-.25-9.844.067-.306-.051-.65-.358-.788-.108-.187-.301-.166-.436-.057-3.979.088-7.824 2.227-10.437 5.241-.032-.038-.058-.077-.106-.111-2.216-1.605-5.486-1.409-8.136-1.474-2.962-.073-6.654-.596-9.419.645-.006.003-.009.008-.015.011-2.642-3.022-7.663-4.185-11.339-3.976-.337.019-.5.27-.507.527-.872 1.525-.84 3.284-.667 5.001.171 1.704.365 3.465.882 5.111-.155-.018-.315-.002-.467.085-3.718 2.149-4.178 7.668-4.069 11.527.135 4.789 2.05 8.436 5.347 11.843.092.095.218-.036.166-.14-3.199-6.364-6.999-16.254-.44-22.028.171.121.459.075.419-.188-.556-3.675-1.371-7.009-.025-10.607 2.209.092 4.438.66 6.394 1.678 1.862.97 3.149 2.513 4.849 3.664.076.051.16.065.244.059-.009-.027-.017-.054-.024-.082-.008-.021-.021-.034-.026-.057-.039-.154-.079-.306-.125-.458-.002-.006 0-.01-.002-.016-.606-.092-.604-1.057.025-.992.033.003.053.016.083.021-.023-.037-.044-.076-.068-.113 2.28-.597 4.693-.396 7.033-.378 3.114.024 6.265.179 9.208 1.3.027.01.056.009.083.015-.037.049-.076.096-.112.145-.156.213.1.444.299.274 1.79-1.518 3.2-2.787 5.395-3.703 1.829-.764 3.679-1.272 5.661-1.432.397 1.815.662 3.516.417 5.438-.201 1.572-.643 3.104-.784 4.676-.043.477.671.582.868.201.047-.09.078-.193.122-.286 2.382 3.803 3.331 8.015 2.841 12.49-.352 3.212-1.104 8.404-3.13 11.072-.084.11.062.251.161.148 6.035-6.269 6.31-18.013.445-24.442z" fill="#666"/><path d="m75.119 70.581c-.039.153-.116.277-.233.374-.074.074.012.221.113.178.232-.097.335-.244.409-.485.056-.181-.245-.255-.289-.067z" fill="#383838"/><path d="m74.133 71.898c-.064 0-.061.1.003.1.065 0 .062-.1-.003-.1z" fill="#383838"/><path d="m36.675 69.744c-.111-.153-.358 0-.25.16.138.205.244.359.479.435.093.03.145-.083.109-.154-.089-.173-.223-.282-.338-.441z" fill="#383838"/><path d="m69.063 96.117c-4.503-2.141-1.799-9.037-2.135-12.901-.239-2.756-1.338-5.273-3.62-6.918-.07-.05-.213.001-.166.105 1.066 2.337 2.269 4.131 2.403 6.856.115 2.342-.321 4.677-.25 7.024.097 3.23.137 5.414 3.236 6.844.663.305 1.197-.693.532-1.01z" fill="#666"/><path d="m62.5 97.594c-2.186-4.046-.783-8.512-.928-12.833-.053-1.559-.28-3.556-1.833-4.312-.311-.151-.535.289-.248.47 2.428 1.527.742 7.642.638 10.028-.116 2.661.201 4.902 1.33 7.313.33.702 1.424.044 1.041-.666z" fill="#666"/><path d="m53.147 80.559c.194-.304-.214-.616-.489-.45-1.567.944-1.39 4.285-1.358 5.887.086 4.256 1.787 9.187-1.309 12.806-.176.206.065.452.289.344 6.826-3.304-.395-13.478 2.867-18.587z" fill="#666"/><path d="m50.959 75.491c-2.382 1.058-3.465 2.634-4.253 5.08-.213.661-.311 1.766-.371 3.09-.038.01-.077.016-.114.034-1.72.798-4.256.986-6.094.553-2.639-.621-3.639-2.771-4.973-4.822-.451-.693-5.044-4.86-5.042-4.863.063-.105-.008-.276-.134-.293l-.201-.027c-.242-.032-.505.171-.408.438.551 1.528 2.417 2.272 3.485 3.392 1.657 1.737 1.87 4.279 3.527 5.904 1.858 1.822 7.455 3.289 9.893 1.392-.133 4.557-.212 10.367-2.579 10.741-.724.114-.74 1.183.036 1.172 2.714-.041 3.297-2.937 3.55-5.183.652-5.792-1.402-12.066 3.828-16.285.142-.114.053-.413-.15-.323z" fill="#666"/><path d="m69.729 55.022c-.152-.125-.307-.24-.444-.326-.176-.111-.362-.195-.569-.225-.199-.029-.341.019-.491.065-4.276-1.119-9.703-.581-13.614-.638-4.229-.062-9.78-.873-13.495 1.595-2.901 1.928-4.687 5.169-4.032 8.6.05.261.439.169.443-.074.156-9.976 11.82-9.112 18.865-8.743 2.765.145 5.524.154 8.284.236 5.471.163 7.495 1.931 9.595 6.829.148.345.738.319.703-.117-.318-3.965-2.401-6.082-5.245-7.202z" fill="#cc997f"/><path d="m55.719 11.346-46.07 26.56v53.12l1.67.961.63.37h.011l18.81 10.84 1.04.6 2.18 1.26.49.28.439.26.36.21 3.13 1.8 3.311 1.91 1.289.74v.01l12.711 7.32 46.07-26.56v-53.12zm44.209 78.61-44.209 25.49-12.51-7.21-31.701-18.28v-50.97l44.211-25.49 44.209 25.49z" opacity=".13"/><ellipse cx="46.198" cy="63.042" fill="#fff" rx="3.67" ry="5.406"/><ellipse cx="66.948" cy="63.042" fill="#fff" rx="3.67" ry="5.406"/><path d="m63.048 75.338c3.86 2.722 3.104 9.217 2.933 13.33-.133 3.203.199 7.066 3.614 8.427.189.075.319-.198.19-.326-1.088-1.084-2.237-1.78-2.736-3.358-.367-1.16-.408-2.464-.366-3.669.073-2.121.306-4.204.144-6.329-.235-3.077-.855-6.521-3.664-8.27-.126-.079-.232.112-.115.195z"/><path d="m61.017 81.514c2.831 2.442.781 8.324 1.721 11.676 1.004 3.578 3.186 4.413 6.7 4.014.216-.025.223-.363 0-.344-2.609.223-4.843-.236-5.863-2.964-.632-1.69-.556-3.515-.516-5.285.054-2.419.25-5.602-1.826-7.313-.15-.123-.366.087-.216.216z"/><path d="m69.501 97.223c.3 0 .301-.466 0-.466-.3-.001-.301.466 0 .466z"/><path d="m56.394 80.38c2.805 5.916-3.187 17.798 6.794 18.607.214.017.203-.301 0-.328-5.738-.77-5.686-6.151-5.496-10.688.098-2.335.737-5.896-.991-7.827-.156-.176-.396.047-.307.236z"/><path d="m60.619 80.847c1.556 3.198.272 7.317.213 10.706-.037 2.109.314 6.226 2.395 7.312.023.012.043-.008.04-.031-.256-1.842-1.413-3.4-1.66-5.34-.207-1.626-.051-3.213.092-4.839.222-2.516.77-5.764-.857-7.939-.099-.131-.297-.021-.223.131z"/><path d="m56.381 80.217c-2.484 4.858 2.238 18.786-6.568 18.739-.321-.002-.299.445 0 .484 3.276.427 5.175-1.781 5.981-4.757 1.266-4.677-1.066-9.716.951-14.253.108-.243-.238-.459-.364-.213z"/><path d="m51.982 80.276c-1.294 2.729-.959 5.652-.804 8.572.152 2.885.814 8.11-1.795 9.99-.28.202-.03.66.276.472 2.174-1.335 2.077-4.474 2.184-6.725.19-4.023-1.027-8.338.311-12.236.034-.1-.126-.17-.172-.073z"/><path d="m42.917 96.761c2.394 2.382 5.122.577 6.333-2.057 2.145-4.668-1.171-10.264 3.041-14.196.165-.154-.055-.453-.246-.319-2.71 1.894-2.798 4.943-2.673 8.004.08 1.954.255 3.889-.537 5.729-1.053 2.448-3.118 4.513-5.738 2.607-.138-.101-.297.116-.18.232z"/><path d="m49.597 75.357c-3.024 2.413-3.523 6.616-3.61 10.236-.075 3.139.946 9.825-3.07 10.834-.253.064-.209.498.063.468 3.087-.336 3.484-4.059 3.551-6.543.056-2.079-.022-4.156.073-6.237.155-3.413 1.174-5.912 3.104-8.672.049-.072-.053-.132-.111-.086z"/><path d="m29.396 74.247c.01 0 .01-.016 0-.016-.01.001-.01.016 0 .016z"/><path d="m29.287 74.209c-.337 1.103.734 1.746 1.54 2.307 1.168.813 2.154 1.474 2.859 2.772.618 1.136.917 2.414 1.582 3.528 2.246 3.765 7.111 4.246 10.914 2.941-.19-.145-.38-.29-.57-.435 0 .014.001.028.001.041.02.578.878.579.898 0 0-.014.001-.028.001-.041.01-.291-.296-.514-.57-.435-4.711 1.373-8.898.539-11.07-4.26-.56-1.237-1.093-2.428-2.119-3.342-1.101-.981-2.95-1.449-3.249-3.078-.02-.113-.187-.097-.217.002z"/><path d="m29.48 74.164c.064 0 .064-.1 0-.1s-.064.1 0 .1z"/><path d="m29.539 74.216c3.996-2.634 6.488 4.329 9.1 6.11 2.498 1.704 6.321 1.534 8.64-.371.302-.248-.132-.683-.431-.431-2.08 1.752-5.286 1.602-7.554.267-1.576-.927-2.573-2.542-3.799-3.854-1.613-1.725-3.748-3.585-6.073-1.924-.122.087-.01.287.117.203z"/><path d="m35.036 45.58c-5.656 3.683-5.298 13.387-2.97 18.783 3.636 8.428 12.321 10.917 20.831 11.32.307.015.385-.492.074-.545-7.751-1.306-15.224-2.343-19.563-9.786-1.707-2.928-2.479-6.602-2.257-9.978.254-3.867 1.633-6.638 4.05-9.58.092-.111-.025-.305-.165-.214z"/><path d="m55.704 53.844c-4.702-.44-11.427-1.306-15.626 1.48-3.086 2.047-3.897 6.241-3.167 9.656 1.921 8.999 14.938 9.492 22.182 8.857.335-.029.347-.538 0-.531-6.574.121-18.59.518-21.316-7.292-1.425-4.082-.12-9.423 4.253-10.968 4.339-1.533 9.176-.88 13.674-.867.22.002.212-.315 0-.335z"/><path d="m54.05 54.109c4.633.261 9.34-.489 13.943.332 5.46.974 7.545 6.143 6.144 11.197-.914 3.298-2.481 5.584-5.882 6.549-5.002 1.42-10.359 1.125-15.493 1.143-.345.001-.339.51 0 .531 5.361.334 12.056.571 17.119-1.58 3.176-1.349 4.524-4.446 5.092-7.685.68-3.883-.557-8.542-4.536-10.133-4.947-1.978-11.213-.843-16.386-.69-.218.007-.216.324-.001.336z"/><path d="m35.348 34.996c-1.451 1.901-1.629 4.461-1.453 6.766.135 1.763.423 4.614 1.816 5.871.119.107.364.044.347-.144-.146-1.566-1.093-3.146-1.348-4.765-.405-2.577-.204-5.202.901-7.575.084-.18-.145-.308-.263-.153z"/><path d="m35.437 35.28c2.583.081 5.165.511 7.416 1.85 2.179 1.295 2.968 3.1 4.582 4.862.201.219.581-.01.496-.289-1.516-5.004-7.754-7.265-12.494-6.837-.262.024-.27.406 0 .414z"/><path d="m46.37 39.867c1.919-.455 3.601-1.033 5.599-1.158 1.71-.107 3.425-.046 5.135-.006.383.009.38-.577 0-.594-3.392-.153-7.901-.553-10.902 1.358-.209.134-.076.458.168.4z"/><path d="m75.952 45.836c2.562 3.116 3.978 6.15 4.08 10.264.076 3.087-.497 6.755-1.504 9.69-3.003 8.755-12.706 8.443-20.272 9.381-.343.043-.368.558 0 .555 7.574-.062 18.28-.688 20.903-9.391 1.8-5.972 3.223-16.629-3.042-20.713-.138-.091-.258.102-.165.214z"/><path d="m75.543 35.191c1.105 2.371 1.308 5 .901 7.575-.256 1.622-1.202 3.197-1.348 4.765-.017.188.227.251.347.144 1.391-1.256 1.682-4.118 1.816-5.871.176-2.303-.004-4.868-1.453-6.766-.118-.155-.347-.028-.263.153z"/><path d="m75.716 34.907c-4.74-.428-10.979 1.833-12.494 6.837-.085.279.295.508.496.289 1.618-1.766 2.402-3.565 4.582-4.862 2.254-1.341 4.83-1.769 7.416-1.85.27-.008.263-.39 0-.414z"/><path d="m64.902 40.066c-2.818-2.089-7.466-1.979-10.806-2.013-.383-.004-.381.577 0 .594 1.821.078 3.642.118 5.45.371 1.839.257 3.427.929 5.187 1.448.254.074.357-.261.169-.4z"/><path d="m54.296 69.665c-.262 1.36 1.194 2.203 2.37 2.044.62-.084 1.189-.376 1.584-.868.342-.426.663-1.26.314-1.754-.039-.056-.133-.07-.169 0-.219.428-.16.876-.488 1.272-.301.364-.734.596-1.195.694-.411.087-.908.061-1.294-.119-.55-.256-.687-.745-.881-1.269-.039-.105-.215-.133-.241 0z" fill="#844e36"/><path d="m55.727 68.218c.007.008.014.017.021.025.365.437 1.081.217 1.279-.254.234-.555-.177-1.031-.721-1.093-.01-.001-.02-.002-.03-.003-.738-.085-.928.871-.549 1.325z" fill="#844e36"/><ellipse cx="46.245" cy="63.229" fill="#aa584c" opacity=".7" rx="2.313" ry="3.406"/><ellipse cx="66.964" cy="63.229" fill="#aa584c" opacity=".7" rx="2.313" ry="3.406"/><path d="m77.709 65.277c6.709-1.453 13.774.032 20.391 1.279.413.078.59-.555.174-.633-6.632-1.241-13.985-2.827-20.609-.804-.101.031-.059.18.044.158z"/><path d="m35.49 65.119c-6.625-2.023-13.977-.437-20.609.804-.414.078-.239.711.174.633 6.618-1.247 13.681-2.732 20.391-1.279.103.022.146-.127.044-.158z"/><path d="m76.042 67.611c6.709-1.453 13.774.032 20.391 1.279.413.078.59-.555.174-.633-6.632-1.241-13.985-2.827-20.609-.804-.101.03-.059.18.044.158z"/><path d="m36.823 67.452c-6.625-2.023-13.977-.437-20.609.804-.414.078-.239.711.174.633 6.618-1.247 13.681-2.732 20.391-1.279.103.023.146-.127.044-.158z"/><path d="m42.246 81.339c-.874.454-.402 1.608.459 1.692.354.035.754-.085.938-.413.18-.322.204-1.032-.164-1.225-.038-.02-.077-.001-.092.037-.118.31.148.633-.063.934-.129.184-.344.257-.563.239-.204-.018-.426-.12-.517-.314-.127-.271.076-.585.133-.85.018-.076-.06-.137-.131-.1z"/><path d="m44.35 81.016c-.409.803.069 1.643 1.018 1.395.345-.09.692-.332.806-.684.126-.388-.16-1.072-.532-1.232-.19-.082-.353.083-.273.273.125.295.433.412.343.783-.054.22-.223.362-.43.44-.687.258-.832-.335-.725-.888.023-.118-.145-.209-.207-.087z"/><path d="m40.099 81.315c-.143.199-.328.255-.393.518-.047.191-.018.399.075.571.154.286.446.467.771.479.836.029 1.247-.927.788-1.586-.158-.227-.526-.094-.456.192.082.336.247.883-.304.884-.152 0-.271-.057-.329-.199-.059-.145-.057-.663-.009-.799.031-.089-.095-.127-.143-.06z"/><path d="m38.174 80.666c-.449.236-.731 1.085-.19 1.391.494.28 1.314-.208 1.285-.766-.003-.063-.062-.119-.129-.098-.283.088-.511.509-.816.481-.437-.04-.034-.651.011-.885.018-.093-.073-.169-.161-.123z"/><path d="m36.568 79.534c-.214.332-.496 1.08.08 1.219.436.105 1.195-.343 1.198-.805.001-.083-.075-.125-.148-.113-.311.051-.487.401-.801.488-.473.131-.251-.471-.186-.729.021-.087-.095-.135-.143-.06z"/><path d="m35.578 78.1c-.342.151-.698.678-.408 1.03.259.313.985.355 1.222.033.029-.04.017-.11-.018-.142-.232-.21-.439-.032-.7-.14-.181-.075-.191-.064-.107-.272.055-.137.137-.235.178-.381.029-.103-.081-.166-.167-.128z"/><path d="m34.417 76.491c-.33.132-.45.623-.226.908.233.296.846.309 1.081.03.043-.051.041-.129-.021-.166-.184-.107-.495.003-.632-.124-.143-.131.001-.375-.058-.566-.017-.055-.084-.106-.144-.082z"/><path d="m33.12 75.276c-.226.176-.515.557-.294.847.214.282.776.218 1.021.044.072-.051.072-.176-.026-.2-.182-.044-.454.06-.606-.016-.227-.113-.045-.412.016-.611.021-.069-.063-.101-.111-.064z"/><path d="m31.298 74.115c-.142.268-.287.747.028.959.303.204.81.008.991-.263.046-.068-.016-.148-.088-.153-.215-.013-.432.175-.628.14-.269-.049-.136-.425-.114-.632.011-.101-.144-.136-.189-.051z"/><path d="m61.152 75.642c1.157.532 2.147.829 3.089 1.771 1.012 1.012 1.18 2.067 1.641 3.351.046.127.209.124.256 0 .862-2.271-2.56-6.169-4.95-5.401-.113.037-.162.221-.036.279z"/><path d="m62.81 75.773c.005.018.01.036.016.054-.047.006-.095.012-.142.019.099.197.382.311.543.449.193.165.549.069.536-.222-.007-.16.046-.28-.041-.126-.182 0-.364 0-.546 0 .034.058.075.097.132.132.108.065.274.05.36-.046.003-.003.006-.007.009-.01.073-.081.118-.198.081-.306-.001-.004-.003-.008-.004-.012-.084-.244-.442-.328-.578-.076-.074.137-.05.296-.041.445.179-.074.357-.148.536-.222-.212-.169-.453-.354-.739-.342-.141.006-.255.113-.258.258 0 .026-.002.047.005.072.01.034.038.052.071.054.003 0 .007.001.01.001.062.004.092-.082.05-.122z"/><path d="m47.9 78.025c.436-.446.821-.95 1.286-1.369.494-.445 1.103-.675 1.621-1.073.327-.251.145-.751-.283-.672-1.294.238-2.496 1.81-2.807 3.007-.027.105.106.187.183.107z"/><path d="m47.614 78.708c.601-.71 1.167-1.449 1.878-2.056.405-.346.843-.651 1.294-.933.313-.196.61-.307.804-.626.065-.108-.019-.246-.142-.247-.797-.006-1.761.912-2.348 1.413-.754.644-1.416 1.39-1.583 2.391-.009.052.056.108.097.058z"/></svg>