<svg enable-background="new 0 0 110.979 128.417" height="128.417" viewBox="0 0 110.979 128.417" width="110.979" xmlns="http://www.w3.org/2000/svg" xmlns:xlink="http://www.w3.org/1999/xlink"><clipPath id="a"><path d="m85.756 51.531h5.842v9.271h-5.842z"/></clipPath><clipPath id="b"><path d="m39.061 58.226h34.274v5.58h-34.274z"/></clipPath><path d="m110.849 96.417-55.426 32-55.423-32v-64l55.423-32 55.426 32z" fill="#81f2a3"/><path d="m101.923 38.139v53.14l-.009.01-1.42.809-6.281 3.62-2.719 1.571-.241.129-.129.05-.111.071-3.029 1.74-1.87 1.069-.04.03-3.25 1.88-.87.521-1.38.79-1.46.849-.181.09-.019.021-1.71.979-.96.561-4.62 2.67-.63.359-.061.03-3.5 2.031-4.04 2.33-.01.01-.3.169-.129.081-.17.099-.441.25-.42.24-.049.031-.281.16-3.49 2.019-.979.561-1.221.699-.029.021-.031-.021-1.219-.699-1.05-.61-3.901-2.25-1.369-.791-.04-.03-2.071-1.189-5.36-3.111-.689-.389-5.09-2.95-.39-.22-.491-.28-.33-.201-1.849-1.059-.571-.33-.409-.241-1.301-.75-2.509-1.459-2.911-1.67-.089-.05-.701-.41-.02-.01h-.009l-.98-.57-2.96-1.71-2.111-1.231-7.5-4.319v-53.14l1.42-.821.421-.239.239-.141 12.25-7.069 1.991-1.161 4.929-2.83 1.58-.92.17-.089 1.66-.951 1.161-.669 1.54-.911.52-.299 2.279-1.301.69-.409 1.46-.83 3.73-2.15 1.991-1.15.46-.27 6.069-3.511.221-.129 1.219-.701 1.061.62 6.489 3.75 14.53 8.38 1.04.611 2.3 1.309.87.5 1.521.881 1.369.79.801.46.09.06 1.809 1.039 3.78 2.18.041.031v.009l.259.141.66.389 1.46.841.401.23.26.149.11.07.239.131.051.029.09.061h.01l.049.029.021.011.099.06.611.35.779.44.441.25 1.939 1.119z" fill="#b20b2f"/><path d="m101.91 91.294-46.107 26.621-46.104-26.621v-53.238l46.104-26.618 46.107 26.618z" fill="#1a0d3c"/><path d="m99.126 89.688-43.323 25.014-43.323-25.014v-50.024l43.323-25.014 43.323 25.014z" fill="none" stroke="#47b678" stroke-miterlimit="10"/><path d="m42.114 83.276c-.004-.011-.012-.021-.018-.028-.009-.018-.017-.043-.024-.064.007-.012.014-.025.02-.037.042-.103.075-.24.078-.372.2-.159.223-.513-.035-.637-.022-.01-.045-.018-.067-.023-.064-.036-.144-.048-.212-.028-.09.023-.15.056-.214.122-.048.052-.061.136-.089.201-.001 0-.002 0-.002-.002-.055-.034-.112-.046-.163-.04-.12-.086-.241-.169-.354-.266-.096-.088-.037-.289.018-.448.085-.047.136-.138.146-.239.022-.215-.051-.396-.188-.533-.021-.136-.143-.256-.33-.227-.228.034-.469.166-.679.095-.166-.057-.433-.155-.6-.041-.371.251-.257.564.069.778-.039.087-.064.189-.082.291-.04.012-.082.033-.123.065-.069.063-.153.14-.244.202-.032-.039-.074-.068-.127-.082l-.054-.013c-.065-.016-.125-.01-.175.015-.04-.079-.12-.14-.234-.146-.021 0-.042-.002-.064-.002-.048-.004-.099.013-.143.04-.057.008-.108.039-.147.08-.209.01-.355.229-.375.435-.009.099.047.207.102.285.054.075.115.138.125.191.007.047.026.084.049.113-.012.002-.021.004-.033.006-.227.015-.366.283-.189.459.044.07.063.146.056.228.014.187.224.36.405.232.226-.157.392-.557.699-.244.02.021.042.035.064.048.017.041.034.084.051.125.019.174.07.409-.011.533-.059.053-.098.126-.102.209-.011.208.077.395.22.536.041.083.124.147.224.153.088.027.186.006.257-.053.166-.039.328-.071.479-.147.248.112.512.256.715.018.002-.002.006-.004.01-.006.097-.083.11-.175.105-.279.009-.025.015-.053.015-.087 0-.076-.026-.135-.069-.188-.058-.093-.128-.194-.212-.277.011-.021.021-.043.028-.068.005-.018.008-.032.011-.048.005-.004.011-.008.018-.012.087-.004.174-.014.26-.027.032.004.067.002.103-.008.207-.064.29.035.478.081.123.029.232-.032.341-.083.052-.025.098-.055.141-.082.126.018.257-.036.295-.188.05-.209-.016-.473-.223-.516" fill="#ec176d"/><path d="m59.053 89.428c-.02-.068-.06-.116-.113-.157-.003-.22-.073-.452-.195-.652.071-.058.113-.151.08-.27-.112-.409-.495-.625-.836-.832-.06-.037-.111-.074-.163-.112.019-.039.025-.082.022-.124-.054.004-.111.002-.167-.012-.125-.027-.247-.072-.363-.126-.07-.01-.14-.035-.199-.076-.078-.056-.149-.112-.218-.179-.006-.006-.011-.014-.016-.02-.028.004-.059.004-.087 0-.208-.024-.446-.114-.654-.104-.153.01-.292.018-.435.014-.008.016-.019.027-.026.043-.31-.043-.656.191-.894.382-.557.088-1.003.809-1.235 1.246-.127.242-.225.516-.163.789-.019.045-.032.081-.038.108-.023.11.022.222.101.287-.013.057-.023.116-.029.177-.007.059.016.116.053.161-.011.02-.021.037-.029.055-.07.142-.026.304.111.374.01.489.366.926.821 1.215.091.176.241.313.463.386.103.035.22.048.342.058.342.216.707.352 1.116.185.041-.016.073-.039.103-.063.021 0 .042-.002.062-.002.028.008.059.012.09.008.103-.006.198-.02.302-.035.047-.008.085-.029.115-.057.057-.014.109-.047.142-.093.052-.01.098-.029.138-.057 0 0 .003.002.003.004.191.132.372-.035.392-.217.061-.035.119-.072.178-.116.184-.143.493-.464.64-.735.084-.021.157-.08.186-.185.044-.165.06-.326.068-.489.144-.238.421-.47.332-.779m-2.623.4c-.135.006-.271.023-.408.037-.01-.014-.023-.031-.03-.041-.029-.045-.054-.091-.081-.14-.028-.055-.06-.106-.093-.157.072-.106.165-.204.211-.248.171-.161.337-.138.464.05.08.111-.009.341-.063.499" fill="#4a52a2"/><path d="m24.983 42.445c-.008-.052-.028-.104-.063-.148-.089-.112-.196-.207-.304-.296-.001-.007-.003-.01-.005-.017-.008-.023-.019-.043-.029-.064h.002c-.004-.006-.008-.014-.011-.02-.03-.063-.061-.123-.096-.179-.241-.425-.544-.789-.935-1.097-.448-.353-.847-.807-1.415-.96-.141-.038-.294.045-.331.188-.119.452-.396.807-.415 1.287-.001.042.01.081.026.115-.05.02-.094.059-.124.125-.009.021-.017.044-.027.065v.003c-.171.4-.309.812-.447 1.223-.083.018-.161.075-.201.178-.074.189-.138.382-.204.574-.014.021-.029.045-.04.074-.033.089-.061.177-.085.266-.008.02-.015.038-.022.058-.015.037-.02.071-.018.103-.002.01-.007.021-.009.032-.005.024-.007.049-.007.07-.008.018-.017.035-.027.051-.064.052-.127.102-.193.15-.225.167-.101.608.208.492.023-.008.043-.018.063-.028.001 0 .001 0 .001.001.001-.001.002-.001.003-.002.111-.053.201-.128.274-.218.047-.039.095-.078.143-.119.039.021.085.031.145.024.636-.07 1.171-.371 1.713-.669.303-.083.609-.161.905-.261.269-.089.836-.241 1.005-.552.111-.033.22-.07.334-.092.147-.03.245-.22.186-.357m-2.659-1.971c-.046-.042-.103-.071-.162-.075.019-.041.038-.081.055-.123.148.075.281.172.409.28-.095-.038-.195-.065-.302-.082m1.828 1.948c.003-.027.005-.056 0-.087-.001-.015-.005-.027-.008-.04.039.032.077.064.115.098-.03.008-.057.016-.088.022-.006.002-.012.005-.019.007" fill="#80469a"/><path d="m99.3 69.239c-.28-.817.061-1.687-.176-2.505.085-.136.044-.339-.149-.409-.341-.124-.663-.283-1.016-.372-.009-.053-.031-.104-.078-.151-.132-.13-.264-.259-.405-.379-.04-.032-.082-.052-.125-.062-.037-.057-.093-.105-.155-.115-.24-.04-.422-.036-.656.025-.031.008-.057.02-.079.035-.078-.01-.157-.021-.237-.035-.063-.01-.12 0-.168.021-.04 0-.08-.004-.121-.004-.001 0-.003 0-.003 0-.082-.067-.192-.093-.293-.018-.143.111-.29.218-.432.326-.048.033-.08.084-.102.136-.15.124-.307.239-.471.334-.268.155-.544.223-.777.435-.03.027-.05.058-.063.091-.006.006-.012.01-.02.018-.147.169-.059.448.177.458.003.031.003.061.005.089-.058.029-.102.084-.116.165-.028.187-.034.352-.01.518-.032.22-.057.441-.079.66-.018.161.092.25.228.26-.046.029-.063.072-.086.118-.009 0 .037.247.033.259-.144.405-.407.306-.065.341.105.012.214-.039.321-.031.012.006.022.012.036.016.382.138.714.147 1.084.051.119.016.239.031.364.041.241.021.474.008.707-.018.221.014.444.018.67.018.075 0 .134-.023.176-.059h.06c.253.072.517.066.791.059.323.048.639.036.971.026.166-.005.316-.169.259-.342" fill="#fccc11"/><path d="m59.871 82.182h-7.205c-.347 0-.347.539 0 .539h7.205c.347 0 .347-.539 0-.539" fill="#63c08c"/><path d="m81.526 56.448c.041-.514-.271-1.062-.936-1.062h-7.809c-.236 0-.431.07-.576.184-.086-.024-.183-.04-.287-.04h-7.664c-.072 0-.137.007-.2.019-.103-.035-.214-.055-.338-.055h-31.339c-.277 0-.494.096-.648.244-.632-.216-1.475.11-1.475.979v8.06c0 .366.151.636.372.811-.181.625.15 1.42.996 1.42h5.108c.151 0 .285-.027.403-.071h15.897c.15 0 .284-.029.399-.08.333.241.794.245 1.132.008h25.525c.327 0 .566-.134.723-.329.529.065 1.112-.245 1.112-.93v-8.384c.001-.363-.162-.621-.395-.774m-1.548 8.472h-25.509c-.112 0-.213.016-.305.044-.281-.116-.61-.097-.874.061-.08-.021-.167-.033-.259-.033h-15.746c-.151-.089-.335-.144-.554-.144h-4.321c.002-.023.003-.046.003-.071v-7.341h31.303c.072 0 .14-.006.202-.018.1.035.212.055.336.055h7.664c.237 0 .43-.07.577-.182.089.024.183.038.286.038h7.196v7.591z" fill="#8bca91"/><path d="m58.771 40.106c0-.565-.459-1.025-1.025-1.025h-.534c-.566 0-1.028.46-1.028 1.025v8.156h-.539v-8.156c0-.863.702-1.565 1.567-1.565h.534c.864 0 1.564.702 1.564 1.565v8.084h-.539z" fill="#47b678"/><path d="m56.183 51.177v.159c0 .565.462 1.025 1.028 1.025h.534c.566 0 1.025-.46 1.025-1.025v-.159h.369c.062 0 .119-.009.17-.026v.185c0 .863-.7 1.565-1.564 1.565h-.534c-.865 0-1.567-.703-1.567-1.565v-.159z" fill="#47b678"/><path d="m23.814 72.171h-7.592c-.864 0-1.566.701-1.566 1.564v6.965c.188.165.369.336.54.513v-7.477c0-.564.46-1.024 1.026-1.024h7.592c.565 0 1.025.46 1.025 1.024v8.78c0 .564-.46 1.024-1.025 1.024h-7.001c.086.178.167.356.243.539h6.758c.862 0 1.564-.702 1.564-1.563v-8.78c.001-.863-.701-1.565-1.564-1.565z" fill="#47b678"/><path d="m25.397 70.696h-9.175c-.864 0-1.566.702-1.566 1.565v8.439c.188.165.369.336.54.513v-8.951c0-.566.46-1.026 1.026-1.026h9.175c.565 0 1.024.46 1.024 1.026v11.622c0 .564-.459 1.024-1.024 1.024h-8.04c.056.179.112.359.159.539h7.881c.862 0 1.564-.7 1.564-1.563v-11.623c0-.863-.701-1.565-1.564-1.565z" fill="#47b678"/><path d="m36.583 71.33v-1.587c0-.852-.702-1.544-1.565-1.544h-.863c-.863 0-1.564.692-1.564 1.544v13.932c0 .852.701 1.544 1.564 1.544h.863c.864 0 1.565-.692 1.565-1.544v-9.575h-.541v9.574c0 .555-.458 1.005-1.025 1.005h-.863c-.565 0-1.025-.45-1.025-1.005v-13.931c0-.553.46-1.005 1.025-1.005h.863c.317 0 .6.142.788.363.129.085.22.229.22.431v.029c.011.06.017.12.017.182v1.587z" fill="#47b678"/><path d="m45.595 70.791h-8.455c-.438 0-.831.183-1.115.474v.065h1.114.001 8.455c.566 0 1.026.46 1.026 1.024v.757c0 .566-.46 1.026-1.026 1.026h-8.455c-.092 0-.179-.014-.265-.037h-.851v.104c.285.289.679.472 1.115.472h8.455c.864 0 1.565-.702 1.565-1.565v-.757c.001-.861-.7-1.563-1.564-1.563" fill="#47b678"/><path d="m56.642 74.527h-.972c-.862 0-1.565-.702-1.565-1.563v-3.199c0-.863.703-1.565 1.565-1.565h.972c.862 0 1.563.702 1.563 1.565v3.199c0 .861-.701 1.563-1.563 1.563m-.972-5.789c-.565 0-1.025.462-1.025 1.026v3.199c0 .563.46 1.024 1.025 1.024h.972c.564 0 1.024-.462 1.024-1.024v-3.199c0-.564-.46-1.026-1.024-1.026z" fill="#47b678"/><path d="m25.396 63.643h-7.915c-.864 0-1.564-.702-1.564-1.565v-.251c0-.864.7-1.566 1.564-1.566h7.915c.863 0 1.565.702 1.565 1.566v.251c0 .863-.701 1.565-1.565 1.565m-7.915-2.842c-.565 0-1.025.459-1.025 1.025v.251c0 .565.46 1.025 1.025 1.025h7.915c.566 0 1.025-.46 1.025-1.025v-.251c0-.566-.459-1.025-1.025-1.025z" fill="#47b678"/><path d="m25.614 52.901h-8.133c-.864 0-1.564-.703-1.564-1.565v-3.85c0-.863.7-1.566 1.564-1.566h8.133c.863 0 1.565.703 1.565 1.566v3.85c0 .863-.701 1.565-1.565 1.565m-8.133-6.441c-.565 0-1.025.46-1.025 1.026v3.85c0 .565.46 1.025 1.025 1.025h8.133c.565 0 1.025-.46 1.025-1.025v-3.85c0-.565-.459-1.026-1.025-1.026z" fill="#47b678"/><path d="m47.615 51.336c0 .565-.461 1.025-1.025 1.025h-11.027c-.566 0-1.025-.46-1.025-1.025v-3.73c0-.565.459-1.025 1.025-1.025h11.027c.564 0 1.025.46 1.025 1.025v.553c.08-.046.172-.076.269-.076h.27v-.477c0-.863-.702-1.564-1.564-1.564h-11.027c-.863 0-1.566.701-1.566 1.564v3.73c0 .863.703 1.565 1.566 1.565h11.027c.863 0 1.564-.703 1.564-1.565v-.052h-.539z" fill="#47b678"/><path d="m56.167 40.106c0-.565.461-1.025 1.025-1.025h.535c.566 0 1.027.46 1.027 1.025v8.156h.538v-8.156c0-.863-.7-1.565-1.565-1.565h-.535c-.862 0-1.564.702-1.564 1.565v8.084h.539z" fill="#47b678"/><path d="m58.755 51.177v.159c0 .565-.461 1.025-1.027 1.025h-.535c-.564 0-1.025-.46-1.025-1.025v-.159h-.368c-.064 0-.12-.009-.172-.026v.185c0 .863.702 1.565 1.564 1.565h.535c.865 0 1.567-.703 1.567-1.565v-.159z" fill="#47b678"/><path d="m80.541 67.111h-48.788c-.862 0-1.564-.703-1.564-1.566v-8.619c0-.863.702-1.565 1.564-1.565h48.787c.865 0 1.564.702 1.564 1.565v8.619c.001.863-.698 1.566-1.563 1.566m-48.788-11.211c-.565 0-1.026.46-1.026 1.025v8.619c0 .566.461 1.026 1.026 1.026h48.787c.564 0 1.025-.46 1.025-1.026v-8.619c0-.565-.461-1.025-1.025-1.025z" fill="#378959"/><path d="m78.889 65.357h-45.475c-.815 0-1.477-.521-1.477-1.158v-6.05c0-.64.662-1.16 1.477-1.16h45.475c.814 0 1.478.52 1.478 1.16v6.05c0 .637-.663 1.158-1.478 1.158m-45.475-7.866c-.517 0-.938.295-.938.658v6.05c0 .362.421.655.938.655h45.475c.517 0 .937-.293.937-.655v-6.05c0-.363-.42-.658-.937-.658z" fill="#378959"/><path d="m45.242 86.904v-3.587" fill="#47b678"/><path d="m44.971 83.317h.541v3.587h-.541z" fill="#47b678"/><path d="m43.828 86.904v-5.249" fill="#47b678"/><path d="m43.558 81.655h.541v5.249h-.541z" fill="#47b678"/><path d="m44.976 82.947h7.447v.541h-7.447z" fill="#47b678"/><path d="m43.828 81.649h8.594v.541h-8.594z" fill="#47b678"/><path d="m52.039 81.653h.541v1.833h-.541z" fill="#47b678"/><path d="m99.451 72.362c-.22-.118-.468-.19-.734-.19h-7.699c-.864 0-1.564.701-1.564 1.564v8.78c0 .861.7 1.563 1.564 1.563h3.296c.111-.185.228-.363.354-.539h-3.65c-.565 0-1.025-.46-1.025-1.024v-8.78c0-.564.46-1.024 1.025-1.024h7.699c.289 0 .549.12.734.313z" fill="#47b678"/><path d="m99.451 70.887c-.22-.118-.468-.191-.734-.191h-9.176c-.861 0-1.563.702-1.563 1.565v11.622c0 .863.701 1.563 1.563 1.563h4.133c.065-.182.138-.36.217-.539h-4.35c-.563 0-1.024-.46-1.024-1.024v-11.622c0-.566.461-1.026 1.024-1.026h9.176c.289 0 .548.122.734.314z" fill="#47b678"/><path d="m76.009 71.33v-1.587c0-.852.701-1.544 1.566-1.544h.861c.863 0 1.565.692 1.565 1.544v13.932c0 .852-.702 1.544-1.565 1.544h-.861c-.865 0-1.566-.692-1.566-1.544v-9.575h.54v9.574c0 .555.459 1.005 1.026 1.005h.861c.565 0 1.026-.45 1.026-1.005v-13.931c0-.553-.461-1.005-1.026-1.005h-.861c-.319 0-.601.142-.789.363-.129.085-.222.229-.222.431v.029c-.01.06-.016.12-.016.182v1.587z" fill="#47b678"/><path d="m66.996 70.791h8.455c.439 0 .831.183 1.116.474v.065h-1.113-.003-8.455c-.565 0-1.024.46-1.024 1.024v.757c0 .566.459 1.026 1.024 1.026h8.455c.093 0 .182-.014.268-.037h.849v.104c-.285.289-.678.472-1.116.472h-8.455c-.863 0-1.564-.702-1.564-1.565v-.757c-.002-.861.699-1.563 1.563-1.563" fill="#47b678"/><path d="m97.458 63.643h-7.917c-.861 0-1.563-.702-1.563-1.565v-.251c0-.864.701-1.566 1.563-1.566h7.917c.863 0 1.564.702 1.564 1.566v.251c0 .863-.701 1.565-1.564 1.565m-7.917-2.842c-.563 0-1.024.459-1.024 1.025v.251c0 .565.461 1.025 1.024 1.025h7.917c.565 0 1.024-.46 1.024-1.025v-.251c0-.566-.459-1.025-1.024-1.025z" fill="#47b678"/><path d="m97.458 52.361h-8.133c-.566 0-1.027-.46-1.027-1.025v-3.85c0-.565.461-1.026 1.027-1.026h6.141c-.085-.178-.164-.357-.239-.541h-5.901c-.863 0-1.565.703-1.565 1.566v3.85c0 .863.702 1.565 1.565 1.565h8.133c.568 0 1.049-.316 1.318-.773-.12-.154-.24-.309-.351-.471-.135.409-.515.705-.968.705z" fill="#47b678"/><path d="m67.324 51.336c0 .565.461 1.025 1.025 1.025h11.026c.566 0 1.026-.46 1.026-1.025v-3.73c0-.565-.46-1.025-1.026-1.025h-11.026c-.564 0-1.025.46-1.025 1.025v.553c-.079-.046-.172-.076-.269-.076h-.271v-.477c0-.863.702-1.564 1.564-1.564h11.026c.862 0 1.566.701 1.566 1.564v3.73c0 .863-.704 1.565-1.566 1.565h-11.025c-.862 0-1.564-.703-1.564-1.565v-.052h.539z" fill="#47b678"/><path d="m67.349 86.904v-3.587" fill="#47b678"/><path d="m67.081 83.317h.54v3.587h-.54z" fill="#47b678"/><path d="m68.764 86.904v-5.249" fill="#47b678"/><path d="m68.494 81.655h.539v5.249h-.539z" fill="#47b678"/><path d="m60.169 82.947h7.446v.541h-7.446z" fill="#47b678"/><path d="m60.169 81.649h8.595v.541h-8.595z" fill="#47b678"/><path d="m60.014 81.653h.539v1.833h-.539z" fill="#47b678"/><path d="m52.719 96.922h7.204c.35 0 .35-.54 0-.54h-7.204c-.347 0-.347.54 0 .54" fill="#63c08c"/><path d="m76.549 102.393v-6.963c0-.553.458-1.003 1.024-1.003h.862c.566 0 1.026.45 1.026 1.003v5.471c.173-.06.359-.097.539-.147v-5.324c0-.852-.702-1.544-1.565-1.544h-.862c-.863 0-1.566.692-1.566 1.544v7.321c.178-.124.36-.24.542-.358z" fill="#47b678"/><path d="m66.437 108.207c.203-.155.414-.299.639-.433h-.082c-.563 0-1.024-.459-1.024-1.024v-.756c0-.564.461-1.024 1.024-1.024h6.006c.246-.179.491-.359.733-.539h-6.74c-.862 0-1.564.7-1.564 1.563v.756c0 .666.42 1.232 1.008 1.457z" fill="#47b678"/><path d="m67.349 92.2v3.59" fill="#47b678"/><path d="m67.081 92.2h.538v3.59h-.538z" fill="#47b678"/><path d="m68.763 92.2v5.25" fill="#47b678"/><path d="m68.492 92.2h.54v5.25h-.54z" fill="#47b678"/><path d="m60.167 95.619h7.448v.539h-7.448z" fill="#47b678"/><path d="m60.167 96.917h8.596v.539h-8.596z" fill="#47b678"/><path d="m60.012 95.621h.54v1.831h-.54z" fill="#47b678"/><path d="m33.127 101.562v-6.132c0-.553.461-1.003 1.026-1.003h.863c.566 0 1.025.45 1.025 1.003v7.723c.183.1.362.208.539.32v-8.043c0-.852-.701-1.544-1.564-1.544h-.863c-.864 0-1.565.692-1.565 1.544v5.818c.181.101.362.202.539.314z" fill="#47b678"/><path d="m45.595 104.43h-7.688c.052.034.102.075.153.112.228.144.458.283.687.427h6.849c.564 0 1.025.46 1.025 1.024v.756c0 .565-.461 1.024-1.025 1.024h-1.896c.062.029.119.063.18.092.271.126.517.281.751.45h.964c.863 0 1.564-.705 1.564-1.566v-.756c0-.863-.701-1.563-1.564-1.563z" fill="#47b678"/><path d="m45.241 92.2v3.59" fill="#47b678"/><path d="m44.971 92.2h.539v3.59h-.539z" fill="#47b678"/><path d="m43.827 92.2v5.25" fill="#47b678"/><path d="m43.558 92.2h.541v5.25h-.541z" fill="#47b678"/><path d="m44.974 95.619h7.449v.539h-7.449z" fill="#47b678"/><path d="m43.827 96.917h8.594v.539h-8.594z" fill="#47b678"/><path d="m52.037 95.621h.542v1.831h-.542z" fill="#47b678"/><path d="m87.358 55.524-.518 1.018.393 1.664.933-.763-.165-1.22z" fill="#fff"/><path clip-path="url(#a)" d="m88.736 55.184c.106 0 .193-.087.193-.194v-1.534c0-.106-.087-.195-.193-.195-.107 0-.193.088-.193.195v1.534c-.001.106.085.194.193.194" fill="#47b678"/><path clip-path="url(#a)" d="m89.025 54.99h-.602" fill="#fff"/><path clip-path="url(#a)" d="m88.425 55.184h.6c.107 0 .194-.087.194-.194s-.087-.196-.194-.196h-.6c-.109 0-.197.088-.197.196 0 .106.088.194.197.194" fill="#47b678"/><path clip-path="url(#a)" d="m87.358 55.524-.641-.602c.49-.49 1.165-.792 1.911-.792 1.494 0 2.702 1.21 2.702 2.703 0 1.492-1.208 2.703-2.702 2.703-.556 0-1.046.203-1.476-.085l-.534.074.016-.868 1.531-1.214-.33-1.55z" fill="#fff"/><path clip-path="url(#a)" d="m88.628 59.801c1.637 0 2.97-1.332 2.97-2.968s-1.333-2.968-2.97-2.968c-.791 0-1.536.309-2.097.87l-.195.192.838.79.366-.386-.431-.406c.431-.344.96-.53 1.519-.53 1.344 0 2.438 1.094 2.438 2.438s-1.095 2.438-2.438 2.438" fill="#47b678"/><path clip-path="url(#a)" d="m87.138 58.276.382-.37c-.281-.289-.434-.67-.434-1.074 0-.421.165-.814.467-1.108l.199-.192-.212-.202-.183.193-.174-.179c-.406.394-.628.923-.628 1.488.001.543.207 1.056.583 1.444" fill="#47b678"/><path clip-path="url(#a)" d="m89.241 56.833c0-.337-.273-.61-.612-.61-.336 0-.61.272-.61.61s.274.61.61.61c.338 0 .612-.273.612-.61" fill="#edf2ec"/><path clip-path="url(#a)" d="m88.628 57.709c-.482 0-.874-.394-.874-.876 0-.483.392-.875.874-.875.483 0 .877.393.877.875s-.393.876-.877.876m0-1.221c-.189 0-.344.155-.344.345s.154.346.344.346c.191 0 .346-.156.346-.346s-.154-.345-.346-.345" fill="#47b678"/><path clip-path="url(#a)" d="m86.718 54.922 1.544 1.425" fill="#47b678"/><path clip-path="url(#a)" d="m87.225 54.584h.529v2.1h-.529z" fill="#47b678" transform="matrix(-.6774 .7356 -.7356 -.6774 187.6822 28.9675)"/><path clip-path="url(#a)" d="m88.341 57.371-1.108.835-.599.451v1.144l1.201-.058" fill="#fff"/><path clip-path="url(#a)" d="m86.368 59.801h2.308v-.53h-1.777v-.482l1.601-1.206-.319-.424-1.813 1.365z" fill="#47b678"/><path clip-path="url(#a)" d="m85.818 53.452h.3v.3h-.3z" fill="#63bf8b" transform="matrix(-.7055 -.7087 .7087 -.7055 108.6277 152.3455)"/><path clip-path="url(#a)" d="m86.92 52.504h.145v.144h-.145z" fill="#63bf8b" transform="matrix(-.7071 -.7071 .7071 -.7071 111.3276 151.2667)"/><path clip-path="url(#a)" d="m85.836 51.685c0-.085.066-.153.151-.153s.152.067.152.153c0 .084-.067.153-.152.153s-.151-.069-.151-.153" fill="#63bf8b"/><path clip-path="url(#a)" d="m89.657 55.719c.107 0 .194-.086.194-.194v-2.068c0-.108-.087-.195-.194-.195s-.196.087-.196.195v2.068c-.001.107.088.194.196.194" fill="#47b678"/><path d="m56.156 92.451c-1.616 0-2.931-1.315-2.931-2.932s1.314-2.934 2.931-2.934 2.932 1.317 2.932 2.934-1.316 2.932-2.932 2.932m0-5.539c-1.438 0-2.607 1.168-2.607 2.607 0 1.438 1.169 2.607 2.607 2.607 1.439 0 2.607-1.17 2.607-2.607 0-1.439-1.168-2.607-2.607-2.607" fill="#fff"/><path d="m56.156 89.878c-.199 0-.36-.161-.36-.359 0-.2.161-.36.36-.36.198 0 .359.16.359.36 0 .198-.161.359-.359.359m0-.613c-.14 0-.252.116-.252.254 0 .14.112.252.252.252s.251-.112.251-.252c0-.138-.112-.254-.251-.254" fill="#fff"/><path d="m55.906 90.309v1.175c0 .348.54.348.54 0v-1.175c0-.348-.54-.348-.54 0" fill="#fff"/><path d="m56.81 90.198c.183.115.365.231.548.346.294.187.564-.281.273-.466-.184-.116-.367-.23-.55-.345-.294-.187-.566.281-.271.465" fill="#fff"/><path d="m56.095 87.667c.348 0 .348-.541 0-.541-.346-.001-.346.541 0 .541" fill="#fff"/><path d="m53.964 89.853c.347 0 .347-.539 0-.539-.349 0-.349.539 0 .539" fill="#fff"/><path d="m58.376 89.853c.348 0 .348-.539 0-.539s-.348.539 0 .539" fill="#fff"/><path clip-rule="evenodd" d="m40.824 80.382h.06c.026.024.062.046.078.077.143.279.283.559.421.84.06.12-.003.25-.133.283-.072.018-.111.063-.127.132-.034.144.05.344.183.429.098.061.203.07.264-.071.098-.228.352-.285.565-.159.175.103.277.262.315.458.032.161.012.318-.109.442-.04.042-.094.069-.145.108l.023.047c.055.11.11.221.166.331.073.147.149.295.223.442v.061c-.027.027-.046.062-.078.079-.278.142-.558.283-.838.419-.126.061-.251.002-.286-.134-.019-.071-.065-.108-.132-.124-.15-.037-.349.051-.432.19-.057.091-.067.193.07.252.228.099.298.355.161.572-.144.232-.361.338-.632.32-.162-.012-.29-.09-.355-.248-.002-.008-.007-.012-.012-.018-.28.138-.558.277-.835.415h-.043c-.031-.029-.073-.051-.089-.084-.142-.277-.281-.555-.417-.834-.062-.122 0-.252.132-.285.072-.016.109-.062.125-.132.036-.149-.05-.346-.19-.433-.092-.057-.197-.063-.253.072-.098.227-.347.291-.564.164-.177-.103-.28-.262-.319-.459-.032-.163-.011-.318.109-.444.04-.039.095-.07.146-.105-.038-.075-.079-.159-.119-.24-.097-.194-.196-.388-.292-.582v-.06c.03-.029.054-.066.089-.086.274-.14.551-.277.827-.413.122-.061.251 0 .284.132.021.076.067.11.138.126.151.037.346-.052.43-.193.057-.096.056-.194-.073-.251-.226-.095-.293-.347-.165-.566.104-.177.262-.277.458-.316.163-.03.317-.012.442.111.042.038.07.093.108.144.063-.031.131-.064.2-.1.206-.102.413-.206.621-.309m-1.554 4.864c.084-.043.164-.082.243-.12.16-.082.322-.161.481-.243.149-.077.286.01.309.138.01.064.055.096.113.11.153.045.363-.044.451-.191.058-.099.05-.194-.073-.248-.245-.107-.289-.365-.164-.57.126-.208.32-.313.561-.326.123-.006.24.025.331.114.045.045.076.099.116.153.226-.112.456-.227.688-.346-.006-.012-.01-.02-.013-.027-.117-.232-.232-.463-.349-.696-.069-.138-.014-.268.135-.306.062-.016.097-.057.114-.117.025-.099.006-.193-.041-.283-.049-.091-.116-.165-.219-.193-.073-.021-.129.006-.165.071-.005.012-.011.021-.016.033-.109.238-.364.281-.567.163-.172-.102-.271-.256-.315-.45-.046-.208.02-.46.258-.551-.116-.233-.232-.464-.35-.698-.053.026-.098.048-.144.071-.198.099-.395.198-.592.297-.13.063-.261 0-.294-.138-.015-.063-.054-.099-.112-.114-.144-.045-.346.032-.438.165-.068.101-.086.209.069.279.23.101.276.354.155.563-.102.171-.257.27-.45.314-.21.046-.466-.023-.55-.261-.233.119-.465.233-.696.35.001.008.001.01.002.01.118.24.237.478.357.716.069.14.013.268-.136.307-.063.016-.096.056-.113.116-.043.151.043.358.189.446.098.062.197.057.251-.07.107-.248.373-.287.575-.16.188.116.289.29.317.506.024.19-.056.411-.269.489z" fill="#fff" fill-rule="evenodd"/><path d="m52.411 26h7.205c.347 0 .347-.54 0-.54h-7.205c-.348 0-.348.54 0 .54" fill="#63c08c"/><path d="m75.699 26.235v7.847h.54v-7.582c-.182-.085-.361-.174-.54-.265z" fill="#47b678"/><path d="m79.153 27.94v9.185c.177-.109.359-.214.539-.32v-8.602c-.179-.09-.359-.177-.539-.263z" fill="#47b678"/><path d="m66.686 37.392h8.454c.438 0 .832-.184 1.116-.474v-.067h-1.113-.003-8.454c-.567 0-1.025-.459-1.025-1.025v-.756c0-.564.458-1.025 1.025-1.025h8.454c.094 0 .18.013.265.037h.852v-.106c-.284-.29-.68-.47-1.116-.47h-8.454c-.865 0-1.565.702-1.565 1.564v.755c-.001.865.699 1.567 1.564 1.567" fill="#47b678"/><path d="m67.04 21.276v3.59" fill="#47b678"/><path d="m66.771 21.276h.54v3.589h-.54z" fill="#47b678"/><path d="m68.452 22.145v4.383" fill="#47b678"/><path d="m68.47 21.629c-.1-.061-.191-.131-.287-.195v5.093h.54v-4.734c-.083-.056-.171-.103-.253-.164z" fill="#47b678"/><path d="m59.859 24.695h7.447v.54h-7.447z" fill="#47b678"/><path d="m59.859 25.992h8.593v.54h-8.593z" fill="#47b678"/><path d="m59.704 24.697h.539v1.832h-.539z" fill="#47b678"/><path d="m32.279 28.024v9.133c.179-.016.359-.03.539-.042v-9.244c-.179.056-.359.106-.539.153z" fill="#47b678"/><path d="m35.733 26.522v7.56h.539v-7.93c-.175.127-.354.252-.539.37z" fill="#47b678"/><path d="m39.293 37.392h5.992c.863 0 1.566-.702 1.566-1.566v-.756c0-.863-.703-1.564-1.566-1.564h-8.455c-.437 0-.831.181-1.115.47v.106h.85c.085-.023.174-.037.265-.037h8.455c.566 0 1.026.46 1.026 1.025v.755c0 .566-.459 1.025-1.026 1.025h-9.57v.067c.055.055.116.103.177.15 1.15.044 2.286.149 3.401.325z" fill="#47b678"/><path d="m44.932 21.276v3.59" fill="#47b678"/><path d="m44.661 21.276h.541v3.589h-.541z" fill="#47b678"/><path d="m43.517 22.347v4.181" fill="#47b678"/><path d="m43.248 22.017v4.511h.54v-4.795c-.174.105-.356.195-.54.284z" fill="#47b678"/><path d="m44.666 24.695h7.446v.54h-7.446z" fill="#47b678"/><path d="m43.517 25.992h8.595v.54h-8.595z" fill="#47b678"/><path d="m51.727 24.697h.541v1.832h-.541z" fill="#47b678"/><path d="m25.175 42.695c0-.001 0-.004 0-.005-.002-.009-.004-.021-.01-.033-.019-.042-.037-.084-.056-.127-.046-.104-.094-.212-.147-.316-.074-.144-.159-.293-.251-.445-.1-.165-.219-.332-.364-.516-.151-.19-.313-.37-.479-.532-.114-.112-.235-.218-.35-.316-.142-.124-.304-.245-.491-.37-.209-.139-.375-.237-.537-.316-.093-.047-.189-.09-.283-.133-.065-.03-.133-.061-.199-.092-.02-.009-.041-.015-.061-.015-.057 0-.108.037-.13.096-.047.122-.097.243-.144.362l-.031.072c-.038.093-.075.187-.113.28-.043.107-.088.214-.131.321-.064.156-.126.311-.189.466-.041.1-.08.2-.121.299l-.14.346-.28.688-.199.489c-.033.081-.066.162-.098.242-.052.125-.104.25-.154.376-.058.141-.115.283-.173.427-.042.104-.084.208-.126.312l-.013.033c-.065.161-.133.327-.2.488-.024.058-.015.112.024.151.025.024.056.037.089.037.02 0 .041-.004.06-.013.121-.048.241-.098.361-.146.064-.026.129-.053.193-.078.088-.036.177-.071.264-.107l.277-.113.296-.119c.122-.049.242-.099.363-.147.1-.041.201-.083.301-.124.066-.025.132-.053.198-.081.078-.031.155-.063.232-.094.1-.041.2-.081.299-.122.073-.03.147-.06.221-.09.102-.042.205-.084.307-.126.107-.044.216-.087.323-.131.112-.045.223-.09.335-.135.152-.063.306-.125.459-.188.113-.046.224-.092.337-.138.1-.041.2-.082.301-.122l.144-.059c.052-.02.082-.063.086-.121v-.007zm-.295-.058-.016.006c-.04.017-.078.032-.118.048l-.134.055c-.26-.598-.628-1.139-1.096-1.607-.465-.467-1.007-.835-1.607-1.096l.109-.269c1.307.592 2.269 1.556 2.862 2.863m-.506.206-4.316 1.755 1.755-4.316c1.166.532 2.028 1.394 2.561 2.561" fill="#fff"/><path d="m22.821 42.063h-.01c-.162.001-.313.066-.424.182-.113.117-.173.274-.167.434.011.321.272.572.594.572.007 0 .014-.001.021-.001.325-.01.582-.287.572-.617-.01-.309-.278-.57-.586-.57m.326.595c0 .181-.147.331-.328.333h-.002c-.188 0-.335-.147-.337-.333.001-.183.142-.33.321-.336h.011c.091 0 .176.035.239.098s.096.147.096.238" fill="#fff"/><path d="m21.337 42.78c-.311-.01-.563.231-.571.538-.003.148.051.288.152.394.104.109.245.169.398.171.296 0 .539-.232.551-.526.007-.149-.044-.291-.146-.399-.098-.11-.239-.173-.384-.178m.271.555c-.002.163-.132.29-.293.286-.084-.002-.158-.034-.211-.091s-.08-.132-.077-.212c.006-.158.13-.28.289-.28h.009c.164.006.286.134.283.297" fill="#fff"/><path d="m22.712 41.414c.001-.147-.056-.287-.16-.392-.104-.104-.241-.163-.387-.163-.148 0-.288.057-.393.16-.105.104-.164.242-.164.388 0 .306.246.554.549.554h.002.002c.302 0 .548-.245.551-.547m-.558-.294h.007.002c.078 0 .15.03.204.085.055.055.084.127.084.206 0 .161-.13.292-.291.292-.159 0-.292-.134-.292-.291.001-.162.129-.292.286-.292" fill="#fff"/><path d="m93.651 66.334v3.267c0 .212.327.212.327 0v-3.267c0-.209-.327-.209-.327 0" fill="#fff"/><path d="m97.047 69.438h-3.267c-.21 0-.21.326 0 .326h3.267c.21 0 .21-.326 0-.326" fill="#fff"/><path d="m95.031 67.074c.438.775.877 1.55 1.314 2.324.104.182.385.02.283-.165-.439-.774-.878-1.548-1.316-2.322-.104-.183-.385-.02-.281.163" fill="#fff"/><path d="m93.858 66.484c.442-.181.884-.361 1.324-.541.192-.08.109-.396-.086-.314-.016.006-.032.014-.05.021-.191.077-.107.392.087.313.018-.006.033-.014.049-.02-.027-.105-.056-.21-.086-.314-.441.181-.884.36-1.326.541-.19.08-.107.395.088.314" fill="#fff"/><path d="m95.137 65.532v1.187c0 .214.325.214.325 0v-1.187c0-.21-.325-.21-.325 0" fill="#fff"/><path d="m95.679 65.116c-.143.084-.286.167-.43.251-.18.104-.018.386.165.281.143-.086.285-.167.428-.249.183-.107.018-.388-.163-.283" fill="#fff"/><path d="m95.629 65.359c.239 1.33.477 2.661.716 3.994.036.206.35.118.313-.087-.238-1.331-.476-2.664-.715-3.995-.036-.205-.349-.118-.314.088" fill="#fff"/><path d="m95.761 66.169-.704.706c-.149.149.08.381.228.233.236-.237.474-.472.707-.707.149-.148-.081-.377-.231-.232" fill="#fff"/><path d="m96.113 66.48c.133-.21.267-.419.401-.627.057-.089-.086-.17-.14-.083-.135.209-.269.417-.402.629-.055.089.084.17.141.081" fill="#fff"/><path d="m95.683 65.452c.213.13.426.256.639.384.089.055.173-.087.082-.14-.213-.128-.427-.256-.639-.384-.09-.055-.17.087-.082.14" fill="#fff"/><path d="m95.887 65.304h1.21c.105 0 .105-.163 0-.163h-1.21" fill="#47b678"/><path d="m96.204 66.199c.086.087.173.175.259.26.075.074.189-.041.116-.114-.087-.087-.175-.175-.262-.26-.073-.077-.19.04-.113.114" fill="#fff"/><path d="m96.48 66.36c-.108.227-.217.452-.323.677-.045.095.095.177.141.082.106-.226.214-.45.323-.676.042-.095-.1-.179-.141-.083" fill="#fff"/><path d="m99.066 66.338v3.267c0 .21.325.21.325 0v-3.267c0-.21-.325-.21-.325 0" fill="#fff"/><path d="m95.997 69.768h3.266c.21 0 .21-.326 0-.326h-3.266c-.21 0-.21.326 0 .326" fill="#fff"/><path d="m97.731 66.913c-.439.774-.878 1.548-1.315 2.324-.104.185.177.347.281.165.438-.776.876-1.551 1.314-2.326.104-.183-.178-.346-.28-.163" fill="#fff"/><path d="m99.27 66.171c-.441-.179-.884-.358-1.325-.541-.029.104-.058.211-.088.316.02.006.036.012.052.018.193.081.278-.235.087-.313-.017-.008-.033-.016-.051-.021-.193-.08-.278.236-.088.316.444.178.885.36 1.327.541.195.08.277-.236.086-.316" fill="#fff"/><path d="m97.58 65.534v1.188c0 .212.325.212.325 0v-1.188c0-.21-.325-.21-.325 0" fill="#fff"/><path d="m97.2 65.401c.142.084.285.167.427.249.183.104.347-.177.165-.281l-.428-.249c-.182-.107-.348.174-.164.281" fill="#fff"/><path d="m97.097 65.275c-.236 1.331-.476 2.662-.713 3.993-.038.205.276.293.313.087.24-1.331.479-2.662.715-3.994.037-.204-.277-.291-.315-.086" fill="#fff"/><path d="m97.05 66.404c.236.237.471.47.707.707.147.147.378-.082.229-.231l-.706-.706c-.148-.148-.377.081-.23.23" fill="#fff"/><path d="m97.07 66.402c-.133-.209-.269-.419-.401-.628-.057-.089-.196-.008-.14.081.132.21.268.417.4.629.057.087.196.006.141-.082" fill="#fff"/><path d="m97.276 65.316c-.21.126-.425.254-.637.382-.09.053-.008.194.083.142.212-.13.423-.256.637-.384.09-.055.008-.197-.083-.14" fill="#fff"/><path d="m97.156 65.143h-1.211c-.105 0-.105.165 0 .165h1.211c.104 0 .104-.165 0-.165" fill="#fff"/><path d="m96.725 66.086-.261.26c-.075.075.041.19.115.116.086-.085.173-.173.261-.26.075-.076-.041-.19-.115-.116" fill="#fff"/><path d="m96.423 66.445c.106.226.215.452.321.678.045.093.187.011.14-.084l-.32-.675c-.046-.096-.186-.012-.141.081" fill="#fff"/><path clip-path="url(#b)" d="m41.601 61.187h1.861v.149c0 .339-.04.638-.12.898-.078.24-.208.466-.394.676-.417.472-.95.706-1.595.706-.63 0-1.169-.227-1.619-.682-.449-.458-.674-1.005-.674-1.645 0-.654.229-1.208.688-1.663.456-.458 1.012-.686 1.667-.686.352 0 .68.072.985.214.292.144.579.376.861.699l-.484.464c-.37-.493-.82-.739-1.35-.739-.476 0-.877.165-1.2.494-.322.322-.484.726-.484 1.212 0 .501.179.914.54 1.239.337.301.701.453 1.093.453.335 0 .635-.114.902-.338.266-.228.415-.499.446-.814h-1.123z" fill="#fff"/><path clip-path="url(#b)" d="m45.869 59.028h.68v4.503h-.68z" fill="#fff"/><path clip-path="url(#b)" d="m50.426 59.667v3.864h-.679v-3.864h-1.036v-.639h2.747v.639z" fill="#fff"/><path clip-path="url(#b)" d="m56.785 59.269v.803c-.392-.329-.798-.493-1.219-.493-.461 0-.851.166-1.169.5-.318.331-.478.734-.478 1.213 0 .473.16.872.478 1.196.32.324.709.487 1.174.487.237 0 .442-.04.608-.117.095-.039.19-.09.29-.157.102-.066.206-.147.316-.239v.821c-.388.221-.795.332-1.225.332-.643 0-1.192-.225-1.648-.675-.453-.453-.68-.999-.68-1.639 0-.574.191-1.084.571-1.534.466-.55 1.07-.825 1.811-.825.404-.001.795.108 1.171.327" fill="#fff"/><path clip-path="url(#b)" d="m59.348 60.542c0-.634.231-1.178.697-1.634.462-.455 1.019-.682 1.669-.682.642 0 1.19.23 1.65.688.459.459.69 1.01.69 1.653 0 .648-.232 1.197-.694 1.648-.463.453-1.025.68-1.685.68-.579 0-1.101-.201-1.563-.604-.509-.445-.764-1.028-.764-1.749m.687.007c0 .497.165.906.501 1.227.333.32.717.48 1.15.48.474 0 .871-.163 1.196-.489.326-.331.487-.732.487-1.206 0-.48-.159-.882-.48-1.206-.319-.327-.715-.49-1.184-.49-.47 0-.865.163-1.188.49-.32.322-.482.72-.482 1.194" fill="#47b678"/><path clip-path="url(#b)" d="m66.057 59.028h.679v4.503h-.679z" fill="#fff"/><path clip-path="url(#b)" d="m69.371 63.531v-4.809l3.286 3.436v-3.13h.677v4.778l-3.284-3.428v3.153z" fill="#fff"/><g fill="#fccc11"><path d="m84.265 42.626-.035-.014-.523-.31.553-.92.556.92-.448.265c-.025.016-.05.03-.075.045zm-.411-.362.405.24c.018-.009.035-.02.053-.029l.354-.21-.406-.673z"/><path d="m84.259 43.117-.536-.756.03-.093.506.298.487-.288.061.065-.023.037zm-.291-.598.291.411.293-.411-.293.172z"/><path d="m80.659 42.626-.032-.014-.526-.31.554-.92.556.92-.447.265c-.025.016-.051.03-.076.045zm-.409-.362.405.24c.017-.009.033-.02.052-.029l.353-.21-.406-.673z"/><path d="m80.656 43.117-.538-.756.03-.093.508.298.486-.288.06.065-.023.037zm-.291-.598.291.411.291-.411-.291.172z"/><path d="m77.054 42.626-.033-.014-.525-.31.556-.92.553.92-.447.265c-.024.016-.049.03-.076.045zm-.412-.362.409.24c.016-.009.032-.02.05-.029l.355-.21-.405-.673z"/><path d="m77.051 43.117-.539-.756.03-.093.509.298.486-.288.06.065-.023.037zm-.291-.598.291.411.29-.411-.29.172z"/><path d="m73.45 42.626-.034-.014-.526-.31.557-.92.553.92-.447.265c-.025.016-.05.03-.076.045zm-.41-.362.406.24c.017-.009.032-.02.05-.029l.355-.21-.405-.673z"/><path d="m73.446 43.117-.539-.756.032-.093.507.298.487-.288.059.065-.024.037zm-.292-.598.292.411.292-.411-.292.172z"/><path d="m69.844 42.626-.034-.014-.525-.31.556-.92.554.92-.448.265c-.024.016-.049.03-.076.045zm-.411-.362.407.24c.016-.009.032-.02.051-.029l.355-.21-.406-.673z"/><path d="m69.84 43.117-.538-.756.031-.093.507.298.486-.288.06.065-.023.037zm-.291-.598.291.411.292-.411-.292.172z"/><path d="m66.239 42.626-.034-.014-.526-.31.558-.92.554.92-.449.265c-.025.016-.05.03-.076.045zm-.41-.362.407.24c.016-.009.033-.02.049-.029l.355-.21-.404-.673z"/><path d="m66.236 43.117-.54-.756.032-.093.508.298.486-.288.059.065-.024.037zm-.293-.598.293.411.291-.411-.291.172z"/><path d="m62.635 42.626-.036-.014-.525-.31.555-.92.555.92-.448.265c-.024.016-.049.03-.076.045zm-.413-.362.406.24c.018-.009.034-.02.052-.029l.355-.21-.407-.673z"/><path d="m62.628 43.117-.537-.756.031-.093.506.298.488-.288.059.065-.023.037zm-.291-.598.291.411.293-.411-.293.172z"/><path d="m65.217 102.21-.037-.014-.523-.313.554-.917.555.919-.448.264c-.024.016-.05.031-.075.047zm-.412-.361.405.239c.018-.01.035-.02.051-.029l.355-.21-.406-.675z"/><path d="m65.21 102.702-.537-.757.031-.092.506.297.488-.287.058.066-.022.037zm-.292-.598.292.411.293-.411-.293.175z"/><path d="m61.61 102.21-.035-.014-.524-.313.556-.917.554.919-.448.264c-.025.016-.051.031-.075.047zm-.409-.361.405.239c.018-.01.034-.02.05-.029l.354-.21-.404-.675z"/><path d="m61.606 102.702-.538-.757.031-.092.507.297.487-.287.058.066-.023.037zm-.294-.598.294.411.292-.411-.292.175z"/><path d="m71.982 102.21-.037-.014-.522-.313.554-.917.555.919-.449.264c-.025.016-.049.031-.075.047zm-.412-.361.406.239c.017-.01.033-.02.051-.029l.355-.21-.406-.675z"/><path d="m71.976 102.702-.538-.757.03-.092.508.297.486-.287.06.066-.023.037zm-.292-.598.292.411.292-.411-.292.175z"/><path d="m68.375 102.21-.036-.014-.523-.313.555-.917.555.919-.449.264c-.026.016-.05.031-.075.047zm-.41-.361.405.239c.018-.01.034-.02.051-.029l.354-.21-.405-.675z"/><path d="m68.371 102.702-.539-.757.031-.092.508.297.487-.287.059.066-.024.037zm-.293-.598.293.411.292-.411-.292.175z"/><path d="m58.005 102.21-.036-.014-.523-.313.554-.916.554.919-.447.264c-.024.016-.05.031-.073.047zm-.41-.361.405.239c.018-.01.037-.02.052-.029l.354-.21-.406-.675z"/><path d="m58 102.702-.537-.757.031-.092.506.297.488-.287.06.066-.024.037zm-.293-.598.293.411.293-.411-.293.175z"/><path d="m54.4 102.21-.036-.014-.524-.313.555-.917.554.919-.449.265c-.023.016-.049.031-.073.047zm-.41-.361.405.239c.018-.01.035-.02.052-.029l.354-.21-.405-.675z"/><path d="m54.395 102.702-.536-.757.03-.092.506.297.488-.287.06.066-.024.037zm-.293-.598.292.411.292-.411-.292.175z"/><path d="m50.794 102.21-.035-.014-.524-.313.555-.917.553.919-.447.264c-.025.016-.051.031-.075.047zm-.411-.361.407.239c.016-.01.033-.02.05-.029l.354-.21-.405-.675z"/><path d="m50.791 102.702-.539-.757.031-.092.508.297.487-.287.059.066-.024.037zm-.292-.598.292.411.291-.411-.291.175z"/><path d="m47.189 102.21-.035-.014-.524-.313.555-.917.553.919-.447.264c-.025.016-.049.031-.075.047zm-.41-.361.406.239c.016-.01.034-.02.05-.029l.354-.21-.404-.675z"/><path d="m47.185 102.702-.539-.757.032-.092.507.297.487-.287.059.066-.024.037zm-.292-.598.292.411.293-.411-.293.175z"/><path d="m44.159 102.21-.035-.014-.524-.313.555-.917.554.919-.448.264c-.025.016-.05.031-.077.047zm-.411-.361.407.239c.016-.01.033-.02.05-.029l.354-.21-.404-.675z"/><path d="m44.155 102.702-.539-.757.031-.092.508.297.487-.287.058.066-.022.037zm-.293-.598.292.411.292-.411-.292.175z"/><path d="m40.554 102.21-.036-.014-.524-.313.555-.917.554.919-.448.264c-.025.016-.05.031-.077.047zm-.411-.361.406.239c.017-.01.033-.02.05-.029l.354-.21-.404-.675z"/><path d="m40.549 102.702-.539-.757.032-.092.507.297.487-.287.058.066-.022.037zm-.292-.598.292.411.292-.411-.292.175z"/><path d="m51.818 42.626-.036-.014-.523-.31.552-.92.556.92-.45.265c-.023.016-.047.03-.074.045zm-.41-.362.406.24c.016-.009.034-.02.051-.029l.353-.21-.406-.673z"/><path d="m51.812 43.117-.537-.756.031-.093.506.298.49-.288.059.065-.023.037zm-.291-.598.291.411.294-.411-.294.172z"/><path d="m48.213 42.626-.035-.014-.524-.31.553-.92.555.92-.447.265c-.025.016-.05.03-.076.045zm-.41-.362.406.24.051-.029.355-.21-.407-.673z"/><path d="m48.208 43.117-.537-.756.03-.093.507.298.488-.288.059.065-.023.037zm-.292-.598.293.411.292-.411-.292.172z"/><path d="m44.608 42.626-.035-.014-.524-.31.555-.92.553.92-.447.265c-.025.016-.049.03-.076.045zm-.411-.362.406.24c.017-.009.034-.02.051-.029l.354-.21-.406-.673z"/><path d="m44.604 43.117-.538-.756.03-.093.507.298.487-.288.059.065-.023.037zm-.294-.598.293.411.292-.411-.292.172z"/><path d="m41.002 42.626-.035-.014-.524-.31.554-.92.555.92-.449.265c-.024.016-.048.03-.075.045zm-.41-.362.406.24c.017-.009.035-.02.051-.029l.354-.21-.405-.673z"/><path d="m40.998 43.117-.538-.756.031-.093.506.298.488-.288.059.065-.023.037zm-.293-.598.292.411.293-.411-.293.172z"/><path d="m37.398 42.626-.036-.014-.524-.31.554-.92.554.92-.449.265c-.024.016-.049.03-.075.045zm-.41-.362.405.24.051-.029.354-.21-.406-.673z"/><path d="m37.393 43.117-.538-.756.031-.093.507.298.488-.288.059.065-.024.037zm-.293-.598.293.411.292-.411-.292.172z"/><path d="m33.792 42.626-.035-.014-.525-.31.555-.92.554.92-.448.265c-.025.016-.05.03-.075.045zm-.41-.362.406.24c.017-.009.035-.02.051-.029l.354-.21-.405-.673z"/><path d="m33.788 43.117-.537-.756.03-.093.507.298.488-.288.057.065-.023.037zm-.293-.598.292.411.292-.411-.292.172z"/><path d="m30.477 42.5-.035-.015-.524-.31.555-.918.554.919-.448.265c-.024.015-.049.03-.076.044zm-.412-.362.406.239c.017-.009.034-.019.05-.029l.354-.21-.405-.672z"/><path d="m30.472 42.991-.538-.757.031-.093.507.299.487-.287.059.065-.023.037zm-.293-.598.293.412.292-.412-.292.173z"/><path d="m26.762 42.5-.036-.015-.524-.31.555-.918.554.919-.448.265c-.025.015-.05.03-.076.044zm-.41-.362.405.239c.016-.009.034-.019.05-.029l.355-.21-.405-.672z"/><path d="m26.757 42.991-.538-.757.031-.093.507.299.487-.287.059.065-.023.037zm-.293-.598.293.412.292-.412-.292.173z"/><path d="m91.409 42.626-.034-.014-.522-.31.552-.92.555.92-.448.265c-.024.016-.048.03-.073.045zm-.41-.362.405.24c.018-.009.036-.02.054-.029l.353-.21-.406-.673z"/><path d="m91.404 43.117-.536-.756.03-.093.506.298.488-.288.058.065-.022.037zm-.291-.598.291.411.293-.411-.293.172z"/><path d="m87.776 42.626-.035-.014-.523-.31.553-.92.554.92-.448.265c-.022.016-.049.03-.074.045zm-.409-.362.405.24c.016-.009.032-.02.051-.029l.354-.21-.406-.673z"/><path d="m87.772 43.117-.539-.756.032-.093.507.298.486-.288.059.065-.022.037zm-.293-.598.293.411.293-.411-.293.172z"/><path d="m84.265 46.161-.035-.015-.523-.31.553-.918.556.919-.448.265c-.025.015-.05.03-.075.044zm-.411-.362.405.24c.018-.01.035-.021.053-.03l.354-.21-.406-.672z"/><path d="m84.259 46.652-.536-.757.03-.094.506.299.487-.287.061.063-.023.037zm-.291-.598.291.411.293-.411-.293.172z"/><path d="m84.265 49.696-.035-.015-.523-.31.553-.918.556.919-.448.265c-.025.015-.05.03-.075.044zm-.411-.361.405.24c.018-.01.035-.021.053-.031l.354-.209-.406-.672z"/><path d="m84.259 50.187-.536-.756.03-.094.506.299.487-.288.061.064-.023.037zm-.291-.599.291.412.293-.412-.293.173z"/><path d="m84.265 53.231-.035-.015-.523-.31.553-.92.556.92-.448.266c-.025.013-.05.029-.075.044zm-.411-.361.405.239c.018-.01.035-.019.053-.03l.354-.209-.406-.672z"/><path d="m84.259 53.722-.536-.755.03-.094.506.3.487-.289.061.065-.023.037zm-.291-.598.291.412.293-.412-.293.172z"/><path d="m62.786 53.231-.035-.015-.524-.31.556-.92.553.92-.447.266c-.025.013-.053.029-.076.044zm-.411-.361.406.239c.015-.01.032-.019.05-.03l.353-.209-.402-.672z"/><path d="m62.782 53.722-.54-.755.033-.094.507.3.487-.289.058.065-.022.037zm-.294-.598.294.412.292-.412-.292.172z"/><path d="m52.027 53.231-.034-.015-.525-.31.555-.92.555.92-.45.266c-.024.013-.049.029-.075.044zm-.41-.361.406.239c.016-.01.035-.019.05-.03l.354-.209-.405-.672z"/><path d="m52.023 53.722-.538-.755.031-.094.507.3.488-.289.057.065-.023.037zm-.293-.598.293.412.292-.412-.292.172z"/><path d="m30.476 53.231-.035-.015-.524-.31.554-.92.554.92-.447.266c-.026.013-.05.029-.076.044zm-.411-.361.406.239c.017-.01.035-.019.051-.03l.354-.209-.405-.672z"/><path d="m30.471 53.722-.538-.755.031-.094.507.3.488-.289.058.065-.024.037zm-.292-.598.292.412.292-.412-.292.172z"/><path d="m30.476 49.742-.035-.016-.524-.31.554-.918.554.918-.447.265c-.026.015-.05.03-.076.044zm-.411-.363.406.24c.017-.01.035-.02.051-.03l.354-.21-.405-.672z"/><path d="m30.471 50.232-.538-.756.031-.093.507.299.488-.288.058.064-.024.038zm-.292-.598.292.412.292-.412-.292.172z"/><path d="m30.476 46.251-.035-.014-.524-.31.554-.919.554.919-.447.265c-.026.014-.05.03-.076.045zm-.411-.362.406.24c.017-.01.035-.02.051-.029l.354-.21-.405-.672z"/><path d="m30.471 46.742-.538-.756.031-.094.507.3.488-.288.058.065-.024.037zm-.292-.597.292.412.292-.412-.292.173z"/><path d="m29.921 81.222-.036-.014-.523-.311.554-.92.555.92-.448.264c-.026.016-.05.031-.076.047zm-.41-.363.406.24c.017-.009.035-.019.051-.03l.354-.21-.405-.671z"/><path d="m29.917 81.712-.537-.756.029-.094.508.299.488-.287.058.064-.023.036zm-.293-.597.292.412.292-.412-.292.171z"/><path d="m29.921 77.732-.036-.016-.523-.311.554-.918.555.92-.448.266c-.026.014-.05.029-.076.043zm-.41-.361.406.239c.017-.01.035-.021.051-.029l.354-.21-.405-.675z"/><path d="m29.917 78.222-.537-.756.029-.094.508.299.488-.287.058.064-.023.037zm-.293-.597.292.409.292-.409-.292.172z"/><path d="m29.921 74.242-.036-.014-.523-.311.554-.919.555.919-.448.264c-.026.016-.05.031-.076.047zm-.41-.363.406.24c.017-.01.035-.021.051-.031l.354-.209-.405-.672z"/><path d="m29.917 74.733-.537-.757.029-.095.508.3.488-.287.058.064-.023.037zm-.293-.598.292.411.292-.411-.292.173z"/><path d="m29.921 92.303-.036-.014-.523-.311.554-.92.555.92-.448.266c-.026.014-.05.029-.076.045zm-.41-.359.406.237c.017-.01.035-.02.051-.029l.354-.208-.405-.675z"/><path d="m29.917 92.793-.537-.754.029-.096.508.299.488-.287.058.064-.023.038zm-.293-.596.292.411.292-.411-.292.17z"/><path d="m29.921 88.813-.036-.016-.523-.309.554-.917.555.917-.448.266c-.026.016-.05.029-.076.043zm-.41-.361.406.241c.017-.012.035-.021.051-.031l.354-.21-.405-.673z"/><path d="m29.917 89.304-.537-.757.029-.094.508.299.488-.287.058.064-.023.039zm-.293-.597.292.411.292-.411-.292.172z"/><path d="m29.921 85.323-.036-.014-.523-.311.554-.919.555.919-.448.267c-.026.016-.05.028-.076.044zm-.41-.363.406.24c.017-.01.035-.02.051-.029l.354-.211-.405-.672z"/><path d="m29.917 85.814-.537-.757.029-.093.508.301.488-.289.058.063-.023.037zm-.293-.596.292.409.292-.409-.292.171z"/><path d="m27.394 56.993-.035-.016-.523-.309.553-.92.555.92-.448.264c-.026.015-.051.031-.076.045zm-.411-.362.406.24c.017-.01.034-.021.051-.03l.354-.21-.406-.672z"/><path d="m27.389 57.484-.537-.757.03-.093.507.298.489-.288.062.066-.028.037zm-.292-.598.292.411.292-.411-.292.173z"/><path d="m23.724 56.993-.035-.016-.523-.309.553-.92.555.92-.449.264c-.024.015-.048.031-.074.045zm-.411-.362.406.24c.017-.01.034-.021.052-.03l.354-.21-.407-.672z"/><path d="m23.719 57.484-.537-.757.03-.093.507.298.489-.288.062.066-.029.037zm-.292-.598.292.411.292-.411-.292.173z"/><path d="m20.053 56.993-.034-.016-.523-.309.553-.92.556.92-.449.264c-.024.015-.05.031-.075.045zm-.41-.362.406.24c.017-.01.034-.021.052-.03l.354-.21-.406-.672z"/><path d="m20.048 57.484-.536-.757.029-.093.506.298.489-.288.064.066-.028.037zm-.291-.598.292.411.293-.411-.293.173z"/><path d="m16.383 56.993-.035-.016-.524-.309.555-.92.555.92-.448.264c-.025.015-.05.031-.075.045zm-.409-.362.405.24c.017-.01.035-.021.051-.03l.355-.21-.407-.672z"/><path d="m16.379 57.484-.536-.757.029-.093.507.298.49-.288.061.066-.027.037zm-.292-.598.292.411.293-.411-.293.173z"/><path d="m27.394 67.705-.035-.014-.523-.309.553-.92.555.92-.448.264c-.026.016-.051.029-.076.045zm-.411-.36.406.238c.017-.01.034-.02.051-.029l.354-.209-.406-.675z"/><path d="m27.389 68.197-.537-.757.03-.095.507.301.489-.289.062.065-.028.037zm-.292-.598.292.411.292-.411-.292.171z"/><path d="m23.724 67.705-.035-.014-.523-.309.553-.92.555.92-.449.264c-.024.016-.048.029-.074.045zm-.411-.36.406.238c.017-.01.034-.02.052-.029l.354-.209-.407-.675z"/><path d="m23.719 68.197-.537-.757.03-.095.507.301.489-.289.062.065-.029.037zm-.292-.598.292.411.292-.411-.292.171z"/><path d="m20.053 67.705-.034-.014-.523-.309.553-.92.556.92-.449.264c-.024.016-.05.029-.075.045zm-.41-.36.406.238c.017-.01.034-.02.052-.029l.354-.209-.406-.675z"/><path d="m20.048 68.197-.536-.757.029-.095.506.301.489-.289.063.065-.028.037zm-.291-.598.292.411.293-.411-.293.171z"/><path d="m16.383 67.705-.035-.014-.524-.309.555-.92.555.92-.448.264c-.025.016-.05.029-.075.045zm-.409-.36.405.238c.017-.01.035-.02.051-.029l.355-.209-.407-.675z"/><path d="m16.379 68.197-.536-.757.029-.095.507.301.49-.289.061.065-.027.037zm-.292-.598.292.411.293-.411-.293.171z"/><path d="m84.265 56.766-.035-.014-.523-.31.553-.919.556.919-.448.266c-.025.014-.05.029-.075.044zm-.411-.362.405.24c.018-.009.035-.021.053-.03l.354-.21-.406-.672z"/><path d="m84.259 57.257-.536-.757.03-.093.506.299.487-.288.061.065-.023.036zm-.291-.598.291.412.293-.412-.293.173z"/><path d="m84.265 60.302-.035-.015-.523-.309.553-.92.556.92-.448.264c-.025.015-.05.03-.075.045zm-.411-.362.405.239c.018-.009.035-.02.053-.029l.354-.21-.406-.672z"/><path d="m84.259 60.793-.536-.757.03-.093.506.299.487-.289.061.066-.023.037zm-.291-.599.291.412.293-.412-.293.173z"/><path d="m84.265 63.836-.033-.015-.525-.31.553-.919.556.92-.448.265c-.025.014-.05.029-.075.044zm-.411-.361.405.24c.018-.01.035-.02.053-.03l.354-.21-.406-.672z"/><path d="m84.259 64.329-.536-.758.03-.093.506.3.489-.29.063.067-.028.035zm-.291-.6.291.411.293-.411-.293.173z"/><path d="m84.265 67.371-.033-.014-.525-.309.553-.922.556.922-.448.264c-.025.016-.05.029-.075.045zm-.411-.362.405.241c.018-.012.035-.021.053-.031l.354-.21-.406-.673z"/><path d="m84.259 67.863-.536-.756.03-.094.506.299.489-.291.063.07-.028.035zm-.291-.598.291.41.293-.41-.293.171z"/><path d="m87.811 67.371-.036-.014-.525-.309.555-.922.556.922-.449.264c-.024.016-.05.029-.075.045zm-.411-.362.404.241c.019-.012.036-.021.052-.031l.354-.21-.405-.673z"/><path d="m87.804 67.863-.536-.756.03-.094.506.299.488-.291.063.07-.028.035zm-.292-.598.292.41.293-.41-.293.171z"/><path d="m91.464 67.371-.037-.014-.525-.309.556-.922.555.922-.45.264c-.024.016-.049.029-.075.045zm-.414-.362.407.241c.016-.012.033-.021.05-.031l.355-.21-.405-.673z"/><path d="m91.458 67.863-.538-.756.03-.094.508.299.488-.291.063.07-.029.035zm-.294-.598.294.41.29-.41-.29.171z"/><path d="m84.265 70.907-.033-.016-.525-.308.553-.922.556.922-.448.264c-.025.016-.05.03-.075.044zm-.411-.363.405.24c.018-.01.035-.02.053-.031l.354-.209-.406-.672z"/><path d="m84.259 71.398-.536-.759.03-.093.506.301.489-.289.063.065-.028.037zm-.291-.6.291.413.293-.413-.293.173z"/><path d="m84.265 74.44-.033-.014-.525-.309.553-.92.556.92-.448.264c-.025.016-.05.031-.075.045zm-.411-.361.405.241c.018-.01.035-.02.053-.031l.354-.21-.406-.671z"/><path d="m84.259 74.934-.536-.758.03-.094.506.299.489-.289.063.068-.028.034zm-.291-.6.291.412.293-.412-.293.173z"/><path d="m84.265 77.976-.033-.014-.525-.311.553-.919.556.919-.448.267c-.025.013-.05.028-.075.044zm-.411-.36.405.238c.018-.01.035-.02.053-.031l.354-.207-.406-.674z"/><path d="m84.259 78.467-.536-.757.03-.093.506.299.489-.289.063.067-.028.035zm-.291-.597.291.411.293-.411-.293.173z"/><path d="m84.265 81.511-.033-.014-.525-.311.553-.92.556.922-.448.264c-.025.014-.05.031-.075.043zm-.411-.361.405.238c.018-.009.035-.019.053-.028l.354-.212-.406-.671z"/><path d="m84.259 82.003-.536-.758.03-.094.506.301.489-.291.063.068-.028.036zm-.291-.599.291.412.293-.412-.293.173z"/><path d="m84.265 85.045-.033-.014-.525-.311.553-.919.556.919-.448.267c-.025.015-.05.028-.075.044zm-.411-.36.405.24c.018-.01.035-.021.053-.031l.354-.209-.406-.674z"/><path d="m84.259 85.539-.536-.759.03-.093.506.301.489-.289.063.065-.028.037zm-.291-.598.291.411.293-.411-.293.171z"/><path d="m84.265 89.028-.033-.015-.525-.311.553-.918.556.918-.448.266c-.025.014-.05.029-.075.045zm-.411-.362.405.238c.018-.01.035-.02.053-.028l.354-.21-.406-.673z"/><path d="m84.259 89.519-.536-.757.03-.095.506.301.489-.289.063.067-.028.033zm-.291-.6.291.411.293-.411-.293.175z"/><path d="m84.265 92.561-.033-.014-.525-.311.553-.917.556.917-.448.268c-.025.014-.05.027-.075.043zm-.411-.361.405.241c.018-.01.035-.021.053-.029l.354-.212-.406-.671z"/><path d="m84.259 93.054-.536-.757.03-.096.506.301.489-.289.063.066-.028.037zm-.291-.599.291.413.293-.413-.293.172z"/><path d="m62.635 31.288-.036-.014-.525-.31.555-.919.555.919-.448.265c-.024.016-.049.03-.076.044zm-.413-.363.406.24c.018-.01.034-.021.052-.029l.355-.211-.407-.672z"/><path d="m62.628 31.778-.537-.757.031-.093.506.299.488-.289.063.067-.027.036zm-.291-.598.291.413.293-.413-.293.173z"/><path d="m62.635 35.269-.036-.014-.525-.311.555-.919.555.921-.448.264c-.024.016-.049.03-.076.043zm-.413-.362.406.238c.018-.009.034-.019.052-.029l.355-.21-.407-.672z"/><path d="m62.628 35.759-.537-.757.031-.093.506.3.488-.291.063.069-.027.035zm-.291-.598.291.412.293-.412-.293.173z"/><path d="m62.635 38.803-.036-.014-.525-.31.555-.92.555.92-.448.265c-.024.015-.049.03-.076.044zm-.413-.362.406.239c.018-.01.034-.02.052-.029l.355-.21-.407-.672z"/><path d="m62.628 39.293-.537-.756.031-.093.506.299.488-.29.063.068-.027.036zm-.291-.597.291.412.293-.412-.293.172z"/><path d="m51.734 31.288-.036-.014-.525-.31.554-.919.556.919-.45.265c-.024.016-.049.03-.074.044zm-.412-.363.405.24c.018-.01.035-.021.053-.029l.354-.211-.406-.672z"/><path d="m51.727 31.778-.537-.757.031-.093.506.299.489-.289.063.067-.029.036zm-.291-.598.291.413.292-.413-.292.173z"/><path d="m51.734 35.269-.036-.014-.525-.311.554-.919.556.921-.45.264c-.024.016-.049.03-.074.043zm-.412-.362.405.238c.018-.009.035-.019.053-.029l.354-.21-.406-.672z"/><path d="m51.727 35.759-.537-.757.031-.093.506.3.489-.291.063.069-.029.035zm-.291-.598.291.412.292-.412-.292.173z"/><path d="m51.734 38.803-.036-.014-.525-.31.554-.92.556.92-.45.265c-.024.015-.049.03-.074.044zm-.412-.362.405.239c.018-.01.035-.02.053-.029l.354-.21-.406-.672z"/><path d="m51.727 39.293-.537-.756.031-.093.506.299.489-.29.063.068-.029.036zm-.291-.597.291.412.292-.412-.292.172z"/></g><path d="m75.211 49.634c0 .906-.691 1.64-1.547 1.64h-32.526c-.855 0-1.547-.733-1.547-1.64s.691-1.641 1.547-1.641h32.527c.855.001 1.546.735 1.546 1.641" fill="#ec176d"/><path d="m73.32 50.964h-31.825c-.864 0-1.566-.597-1.566-1.33s.703-1.331 1.566-1.331h31.825c.865 0 1.568.598 1.568 1.331s-.703 1.33-1.568 1.33m-31.825-2.551c-.804 0-1.458.547-1.458 1.222 0 .673.654 1.222 1.458 1.222h31.825c.807 0 1.458-.548 1.458-1.222s-.651-1.222-1.458-1.222z" fill="#fff"/><path d="m48.698 48.963h.144v1.068h-.144v-.064c-.056.055-.119.083-.19.083-.084 0-.155-.031-.211-.094-.055-.063-.081-.141-.081-.235 0-.092.026-.168.081-.229.055-.062.124-.093.206-.093.074 0 .138.03.195.088zm-.337.758c0 .06.015.107.046.144.032.038.073.057.123.057.054 0 .097-.018.128-.054.033-.038.048-.085.048-.145 0-.057-.016-.105-.048-.142-.031-.037-.073-.056-.125-.056-.05 0-.091.019-.123.056-.034.039-.049.085-.049.14" fill="#fff"/><path d="m49.251 49.719c0-.089.03-.165.096-.227.063-.063.141-.094.232-.094.092 0 .17.032.233.094.064.063.096.14.096.231 0 .093-.032.17-.096.232s-.143.094-.236.094c-.091 0-.168-.032-.232-.096-.063-.062-.093-.14-.093-.234m.145.002c0 .063.017.111.048.147.036.036.08.054.135.054.056 0 .1-.018.134-.054.033-.036.049-.083.049-.145 0-.059-.016-.107-.049-.143-.036-.037-.078-.055-.134-.055-.054 0-.098.018-.133.055-.033.037-.05.084-.05.141" fill="#fff"/><path d="m50.319 49.415h.141v.058c.051-.049.106-.074.17-.074.07 0 .125.022.166.068.034.038.052.101.052.187v.378h-.144v-.344c0-.061-.007-.104-.025-.125-.017-.024-.047-.036-.089-.036-.048 0-.082.016-.102.047-.019.03-.029.084-.029.161v.298h-.141v-.618z" fill="#fff"/><path d="m51.402 49.447h-.109l-.028-.392h.163z" fill="#fff"/><path d="m51.993 49.548v.483h-.142v-.483h-.06v-.133h.06v-.225h.142v.225h.109v.133z" fill="#fff"/><path d="m53.096 49.159c0-.025.01-.046.026-.065.02-.017.042-.026.066-.026.026 0 .048.009.066.026.018.019.026.04.026.065 0 .026-.009.048-.026.066-.018.019-.04.027-.065.027s-.047-.009-.067-.027c-.016-.017-.026-.04-.026-.066m.163 1.208h-.142v-.952h.142z" fill="#fff"/><path d="m53.841 49.415v.354c0 .103.041.154.121.154s.121-.051.121-.154v-.354h.142v.357c0 .05-.005.091-.017.127-.011.033-.033.061-.062.087-.047.042-.109.063-.184.063-.073 0-.133-.021-.182-.063-.03-.026-.049-.054-.063-.087-.012-.028-.018-.071-.018-.127v-.357z" fill="#fff"/><path d="m55.023 49.519-.119.063c-.018-.039-.041-.057-.068-.057-.013 0-.024.004-.033.013-.01.008-.015.02-.015.033 0 .022.028.046.083.07.076.031.126.063.152.088.026.028.041.065.041.112 0 .059-.022.108-.066.148-.042.039-.094.058-.155.058-.103 0-.176-.051-.22-.152l.122-.055c.018.03.031.047.039.055.018.017.039.025.062.025.049 0 .072-.023.072-.066 0-.025-.018-.049-.056-.071-.015-.008-.027-.015-.042-.021-.015-.007-.029-.013-.045-.021-.041-.021-.07-.04-.087-.061-.021-.025-.032-.058-.032-.099 0-.054.019-.098.054-.133.039-.036.083-.052.136-.052.079.002.137.043.177.123" fill="#fff"/><path d="m55.596 49.548v.483h-.143v-.483h-.061v-.133h.061v-.225h.143v.225h.111v.133z" fill="#fff"/><path d="m56.895 49.437h.421v-.382h.147v.976h-.147v-.455h-.421v.455h-.148v-.976h.148z" fill="#fff"/><path d="m57.907 49.538c0-.136.054-.254.151-.354.102-.099.223-.148.363-.148.139 0 .259.05.357.149.102.1.15.219.15.358s-.049.259-.15.357c-.102.099-.224.148-.365.148-.125 0-.237-.044-.34-.131-.109-.095-.166-.222-.166-.379m.151.002c0 .109.034.197.109.266.07.07.154.104.248.104.103 0 .19-.035.259-.106.07-.071.106-.157.106-.261s-.036-.191-.105-.262-.154-.106-.256-.106c-.101 0-.188.036-.257.106-.072.07-.104.157-.104.259" fill="#fff"/><path d="m59.375 50.031v-.977h.204c.099 0 .177.009.232.029.061.018.117.05.167.096.101.092.15.213.15.362 0 .15-.053.271-.156.364-.054.047-.108.079-.168.097-.052.018-.129.027-.229.027h-.2zm.144-.139h.067c.067 0 .122-.007.166-.021.044-.015.084-.038.118-.07.071-.066.11-.151.11-.259 0-.106-.037-.194-.109-.26-.064-.061-.158-.09-.285-.09h-.067z" fill="#fff"/><path d="m60.721 49.055v.837h.286v.139h-.434v-.976z" fill="#fff"/><path d="m61.467 49.848.126.049-.181.361-.096-.04zm-.033-.363c0-.024.009-.044.023-.061.018-.018.038-.026.062-.026.025 0 .046.009.063.026.018.017.025.037.025.061s-.008.045-.025.063c-.017.017-.038.025-.063.025-.023 0-.044-.008-.062-.026-.014-.016-.023-.038-.023-.062" fill="#fff"/><path d="m62.724 50.031v-.977h.147c.064 0 .116.005.156.016.038.009.071.026.098.051.028.023.05.055.064.092.019.038.027.076.027.114 0 .07-.028.129-.082.178.052.018.093.049.123.093s.046.095.046.153c0 .076-.027.141-.08.193-.034.033-.07.056-.111.067-.044.012-.099.019-.166.019h-.222zm.148-.557h.046c.054 0 .096-.013.121-.036.025-.024.037-.061.037-.107s-.012-.082-.037-.105c-.027-.024-.067-.036-.116-.036h-.051zm0 .418h.091c.067 0 .115-.013.147-.039.031-.029.049-.064.049-.108 0-.042-.018-.078-.049-.106-.029-.028-.084-.042-.164-.042h-.074z" fill="#fff"/><path d="m63.896 49.055v.588c0 .083.014.146.043.184.039.056.098.083.171.083.076 0 .131-.027.175-.083.025-.037.04-.099.04-.184v-.588h.148v.628c0 .104-.035.188-.097.255-.073.073-.161.111-.267.111-.104 0-.191-.038-.265-.111-.063-.066-.097-.151-.097-.255v-.628z" fill="#fff"/><path d="m64.964 49.055h.147v.977h-.147z" fill="#fff"/><path d="m65.605 50.031v-.977h.207c.097 0 .175.009.231.029.062.018.117.05.167.096.1.092.15.213.15.362 0 .15-.054.271-.156.364-.054.047-.109.079-.168.097-.053.018-.13.027-.227.027h-.204zm.148-.139h.064c.067 0 .123-.007.166-.021.044-.015.085-.038.119-.07.073-.066.109-.151.109-.259 0-.106-.036-.194-.107-.26-.064-.061-.159-.09-.287-.09h-.064z" fill="#fff"/><path d="m66.954 49.055v.837h.286v.139h-.434v-.976z" fill="#fff"/><path d="m32.279 36.851h7.579v.541h-7.579z" fill="#47b678"/><path d="m72.113 36.851h7.579v.541h-7.579z" fill="#47b678"/><path d="m79.365 36.61h.327v.44h-.327z" fill="#47b678"/><path d="m17.804 72.572h7.001" fill="#47b678"/><path d="m16.221 85.417h9.175c.864 0 1.565-.703 1.565-1.566v-8.438c-.188-.165-.368-.336-.54-.514v8.952c0 .565-.46 1.026-1.026 1.026h-9.175c-.565 0-1.025-.461-1.025-1.026v-11.621c0-.566.46-1.026 1.025-1.026h8.041c-.057-.179-.114-.356-.16-.539h-7.88c-.863 0-1.564.702-1.564 1.565v11.62c0 .863.701 1.567 1.564 1.567z" fill="#47b678"/><path d="m9.826 38.141v53.121l46.072 26.559 46.074-26.559v-53.121l-46.074-26.561zm90.281 1.08v50.971l-44.209 25.489-44.211-25.489v-50.971l44.211-25.489z" opacity=".13"/></svg>