<svg enable-background="new 0 0 110.979 128.417" height="128.417" viewBox="0 0 110.979 128.417" width="110.979" xmlns="http://www.w3.org/2000/svg"><path d="m110.849 96.417-55.426 32-55.423-32v-64l55.423-32 55.426 32z" fill="#2f2a5b"/><path d="m101.923 38.139v53.14l-.009.01-1.42.809-6.281 3.62-2.719 1.571-.241.128-.129.051-.111.071-3.029 1.74-1.87 1.069-.04.03-3.25 1.879-.87.522-1.38.79-1.46.848-.181.09-.019.022-1.71.978-.96.562-4.62 2.67-.63.359-.061.03-3.5 2.032-4.04 2.329-.01.011-.429.25-5.38 3.098-.971.562-.729.42-7.331-4.232-.239-.14-.04-.03-1.111-.639-.96-.55-5.36-3.111-.689-.389-5.09-2.95-.39-.22-.491-.28-.33-.202-1.849-1.058-.571-.33-.569-.33-1.141-.661-.159-.089-2.35-1.369-2.911-1.67-.089-.051-4.67-2.699-2.111-1.232-7.5-4.319v-53.14l14.33-8.27 1.991-1.161 4.929-2.83 1.58-.92.17-.089 1.66-.951 1.161-.669 1.54-.911.52-.299 2.279-1.301.69-.409 1.46-.83 5.721-3.3.46-.27 6.069-3.511 1.44-.83 1.061.62 6.489 3.75 14.53 8.38 1.04.611 2.3 1.309.87.5 1.521.881 1.369.79.801.46.09.06 1.809 1.039 3.78 2.18.041.031v.009l.259.141.66.389 1.46.841 1.941 1.12.779.44.441.25 1.939 1.119z" fill="#fff"/><path d="m9.826 38.141v53.121l46.071 26.559 46.074-26.559v-53.121l-46.073-26.561zm90.281 1.08v50.971l-44.209 25.489-44.211-25.489v-50.971l44.211-25.489z" opacity=".13"/><path d="m45.333 29.647c-.401-.4-1.021.22-.62.62 2.487 2.487 4.976 4.975 7.463 7.463v3.666c-2.086-2.086-4.173-4.173-6.259-6.259-.399-.399-1.021.22-.619.619 2.569 2.569 5.138 5.14 7.708 7.708.398.399 1.019-.22.619-.619-.211-.211-.423-.423-.634-.634.037-.062.062-.135.062-.225 0-2.393 0-4.785 0-7.179.043.015.091.025.144.025h3.388c.563 0 .563-.876 0-.876-.231 0-.463 0-.694 0 .729-.729 1.456-1.457 2.187-2.185.043.015.091.025.143.025h5.841c.564 0 .564-.876 0-.876-1.71 0-3.422 0-5.133 0 .452-.452.903-.903 1.355-1.354.398-.4-.221-1.019-.62-.619-1.001 1.001-2.002 2.002-3.004 3.004-.017-.069-.053-.138-.116-.202-.404-.406-.811-.812-1.217-1.217.037-.061.062-.135.062-.224 0-2.297 0-4.595 0-6.891 0-.565-.876-.565-.876 0v6.3c-.14-.14-.279-.28-.42-.42-.399-.4-1.02.22-.619.619.817.818 1.635 1.636 2.453 2.453.062.063.131.099.201.116-.455.456-.911.912-1.367 1.368-.034.034-.058.069-.078.105-.493 0-.987 0-1.48 0-.054 0-.102.01-.145.025 0-.874 0-1.748 0-2.622 0-.565-.877-.565-.877 0v5.131c-1.196-1.196-2.391-2.391-3.587-3.587.015-.043.025-.09.025-.145 0-1.178 0-2.355 0-3.534h3.53c.565 0 .565-.875 0-.875-.554 0-1.107 0-1.664 0 0-1.8 0-3.601 0-5.401 0-.565-.875-.565-.875 0v5.401c-.331 0-.662 0-.991 0 0-.321 0-.642 0-.962 0-.564-.876-.564-.876 0v4.665c-.807-.804-1.609-1.606-2.41-2.407z" fill="#15003e"/><path d="m91.385 65.955c-1.801 0-3.603 0-5.402 0 0-1.021 0-2.042 0-3.063 0-.011-.003-.019-.003-.03h2.604c.564 0 .564-.874 0-.874-3.31 0-6.617 0-9.928 0-.089 0-.162.024-.225.06-.507-.507-1.013-1.013-1.521-1.52h5.6c.565 0 .565-.876 0-.876-2.489 0-4.979 0-7.468 0 1.5-1.5 3.001-3 4.501-4.501.016.002.029.005.048.005h6.188c.564 0 .564-.876 0-.876-1.788 0-3.577 0-5.365 0 .762-.763 1.525-1.526 2.289-2.29.399-.399-.222-1.019-.619-.619-1.065 1.065-2.129 2.128-3.193 3.193-1.479-1.478-2.956-2.956-4.435-4.435h5.949c.563 0 .563-.875 0-.875-.775 0-1.554 0-2.328 0 .837-.837 1.674-1.674 2.511-2.511h7.524c.565 0 .565-.876 0-.876-2.606 0-5.215 0-7.822 0-.246 0-.385.165-.416.352-.9.898-1.797 1.797-2.696 2.697-.107.105-.14.225-.126.338-1.022 0-2.047 0-3.068 0-.142 0-.249.057-.318.14-.381-.138-.807.376-.458.726.529.529 1.061 1.061 1.591 1.59-2.682 0-5.364 0-8.047 0 .337-.335.672-.669 1.006-1.004.398-.399-.222-1.019-.621-.619-2.61 2.612-5.224 5.224-7.835 7.836 0-.095 0-.19 0-.286 0-.565-.877-.565-.877 0v1.181c-.073.122-.072.253-.023.366-.42 0-.839 0-1.26 0 0-2.8 0-5.6 0-8.4.036-.02.071-.043.104-.078.539-.54 1.079-1.078 1.617-1.617.732.734 1.468 1.468 2.201 2.201.397.4 1.02-.219.62-.619-.257-.257-.515-.514-.771-.771h5.014c.566 0 .566-.876 0-.876-1.945 0-3.892 0-5.837 0-.018 0-.033.003-.049.005-.187-.188-.373-.374-.559-.56 1.721-1.72 3.439-3.441 5.16-5.162 1.26 1.259 2.521 2.519 3.777 3.778.399.399 1.02-.22.62-.62-.646-.646-1.293-1.292-1.939-1.938h13.541c.565 0 .565-.875 0-.875-2.626 0-5.253 0-7.879 0 .016-.044.026-.091.026-.146 0-1.127 0-2.254 0-3.381.411.412.823.825 1.235 1.238.148.146.324.155.472.088.054.025.115.04.188.04h7.709c.563 0 .563-.875 0-.875-.739 0-1.478 0-2.217 0 .565-.565 1.13-1.131 1.694-1.696h4.023c.564 0 .564-.875 0-.875-1.271 0-2.543 0-3.813 0-.157-.137-.396-.179-.585.011-.854.855-1.706 1.707-2.561 2.561-1.417 0-2.834 0-4.253 0-.053 0-.099.01-.143.024-.552-.549-1.101-1.099-1.648-1.648-.033-.033-.068-.057-.104-.077 0-.387 0-.773 0-1.16h5.75c.563 0 .563-.876 0-.876-.954 0-1.907 0-2.86 0 .017-.044.026-.092.026-.146 0-2.024 0-4.048 0-6.072 0-.566-.876-.566-.876 0v6.072c0 .055.01.103.023.146-.688 0-1.377 0-2.063 0 0-.476 0-.953 0-1.43 0-.565-.878-.565-.878 0v8.059c0 .055.012.102.025.146-1.77 0-3.541 0-5.31 0-.125 0-.223.045-.292.112-.356-.358-.716-.717-1.074-1.076.637-.636 1.273-1.272 1.91-1.909.397-.399-.222-1.019-.621-.619-1.968 1.969-3.939 3.938-5.908 5.908 0-.842 0-1.685 0-2.526.037-.02.07-.044.106-.078 1.09-1.09 2.18-2.18 3.269-3.27.399-.4-.219-1.02-.619-.619-.452.452-.902.902-1.354 1.354 0-.915 0-1.829 0-2.744.141.062.312.05.455-.093 1.267-1.268 2.537-2.537 3.807-3.806-.003.103.032.208.127.3.583.584 1.168 1.168 1.751 1.752.398.4 1.021-.219.619-.62-.188-.188-.378-.377-.566-.566 1.668-1.668 3.336-3.335 5.006-5.004.398-.4-.221-1.019-.62-.619-1.668 1.668-3.335 3.336-5.005 5.004-.188-.189-.378-.378-.564-.566-.094-.093-.199-.129-.301-.127 1.229-1.229 2.46-2.46 3.688-3.689.399-.4-.221-1.019-.62-.62-.383.383-.767.767-1.148 1.15-1.357-1.358-2.716-2.715-4.073-4.072-.398-.4-1.018.22-.618.62 1.356 1.357 2.715 2.715 4.072 4.072-2.004 2.002-4.006 4.005-6.008 6.008 0-.583 0-1.164 0-1.745 0-.565-.876-.565-.876 0v6.241c-.176.175-.353.35-.526.525 0-.037 0-.074 0-.11 0-.565-.876-.565-.876 0v4.205c0 .161.073.275.176.345-.936.934-1.871 1.868-2.803 2.802 0-2.684 0-5.368 0-8.052 0-.564-.876-.564-.876 0v17.985c0 .245.166.383.353.415.07.083.178.139.318.139h.146v4.985c-.043-.014-.092-.022-.146-.022-.352 0-.702 0-1.051 0-.565 0-.565.874 0 .874h1.051c.055 0 .104-.01.146-.023v23.902c-.271-.271-.544-.544-.815-.816 0-4.407 0-8.813 0-13.221 0-.564-.876-.564-.876 0v12.615c-.016.014-.032.023-.047.039-.257.256-.514.514-.771.77 0-4.514 0-9.026 0-13.541 0-.563-.876-.563-.876 0v14.248c0 .056.011.103.024.146-.338.34-.678.678-1.017 1.017 0-5.496 0-10.992 0-16.486h1.664c.354 0 .485-.348.396-.604.024-.052.04-.116.04-.188 0-1.868 0-3.736 0-5.604 0-.565-.876-.565-.876 0v5.521c-.097 0-.193 0-.29 0 0-2.199 0-4.397 0-6.599h.964c.424 0 .53-.495.316-.741.001-.016.005-.029.005-.047 0-7.163 0-14.326 0-21.488 0-.565-.875-.565-.875 0v1.511c-1.737-1.736-3.472-3.472-5.209-5.208-.002-.002-.004-.002-.006-.005.017-.23-.123-.474-.421-.474-2.189 0-4.38 0-6.569 0 0-1.256 0-2.511 0-3.767 0-.565-.876-.565-.876 0v1.667c-.009-.001-.019-.004-.029-.004-2.11 0-4.223 0-6.334 0 0-.915 0-1.829 0-2.744h4.35c.564 0 .564-.876 0-.876-.359 0-.72 0-1.08 0 0-.759 0-1.519 0-2.279h2.363c.564 0 .564-.875 0-.875-.114 0-.229 0-.344 0 1.97-1.97 3.94-3.94 5.909-5.91.401-.399-.219-1.018-.619-.619-1.09 1.09-2.179 2.179-3.269 3.268-.021-.04-.046-.079-.083-.115-.39-.39-.778-.778-1.167-1.168-.399-.399-1.021.22-.619.62.39.388.777.778 1.168 1.167.037.037.075.063.115.083-.817.817-1.635 1.635-2.451 2.451-.069.069-.106.146-.122.223-.293 0-.587 0-.881 0 0-.827 0-1.654 0-2.48 0-.565-.876-.565-.876 0v5.635c-.799 0-1.597 0-2.394 0 0-.555 0-1.109 0-1.664 0-.564-.877-.564-.877 0v5.284c-1.372 0-2.743 0-4.116 0-.563 0-.563.877 0 .877h7.232c-.678.677-1.355 1.354-2.032 2.031-.037-.182-.173-.339-.413-.339-3.387 0-6.773 0-10.161 0-.564 0-.564.875 0 .875h10.161c.01 0 .021-.002.03-.003-.014.342.433.655.746.342.855-.856 1.712-1.711 2.569-2.569.104-.105.138-.224.125-.336h3.069c.011 0 .021-.003.029-.003v1.371c-.206.248-.099.733.322.733h6.81c.014.077.052.154.122.224 1.941 1.942 3.884 3.885 5.827 5.827v11.412c-.011-.001-.021-.004-.031-.004-.479 0-.956 0-1.434 0 .001-.01.004-.019.004-.029 0-.818 0-1.635 0-2.452 0-.565-.876-.565-.876 0v2.452c0 .01.002.019.003.029-.244 0-.489 0-.732 0-.565 0-.565.876 0 .876h3.036c.011 0 .021-.003.031-.003v6.37c-.137 0-.272 0-.409 0 0-.164 0-.33 0-.496 0-.563-.875-.563-.875 0v4.92c-.019-.031-.041-.063-.07-.093-1.358-1.356-2.717-2.715-4.075-4.073 0-2.6 0-5.199 0-7.797.075-.015.151-.052.222-.121 1.051-1.051 2.103-2.102 3.154-3.153.399-.399-.221-1.019-.619-.62-.919.919-1.838 1.837-2.756 2.756 0-.543 0-1.086 0-1.628 0-.565-.876-.565-.876 0v2.948c-.41 0-.82 0-1.229 0 .012-.113-.021-.234-.125-.339-1.882-1.882-3.765-3.764-5.646-5.646 1.683-1.682 3.363-3.363 5.046-5.044.771.772 1.545 1.544 2.316 2.317.399.399 1.02-.22.619-.62-.771-.772-1.544-1.545-2.316-2.317.771-.773 1.545-1.545 2.316-2.317.4-.4-.22-1.02-.619-.62-1.571 1.573-3.145 3.145-4.716 4.717-.013-.016-.022-.032-.038-.047-.779-.778-1.558-1.557-2.335-2.335-.399-.401-1.02.219-.619.619.778.778 1.558 1.557 2.335 2.335.016.015.031.025.046.037-.885.885-1.77 1.771-2.653 2.655-1.487-1.487-2.976-2.975-4.462-4.461 1.083-1.084 2.167-2.168 3.251-3.252.399-.4-.22-1.019-.618-.619-.044.042-.086.086-.13.129-.046-.026-.093-.036-.147-.036-3.542 0-7.085 0-10.627 0-.565 0-.565.875 0 .875h9.92c-.757.757-1.514 1.515-2.271 2.271-.345-.344-.689-.688-1.032-1.032-.4-.4-1.02.22-.619.62l3.018 3.018c-.777.777-1.554 1.553-2.332 2.331-.043-.014-.091-.024-.145-.024-.913 0-1.825 0-2.738 0-.93-.931-1.859-1.861-2.791-2.791-.4-.4-1.02.219-.62.619.101.101.202.202.304.303-1.517 0-3.032 0-4.548 0-.564 0-.564.876 0 .876h4.905c.161 0 .275-.074.345-.176.389.39.778.779 1.168 1.168-2.219 0-4.435 0-6.651 0-.565 0-.565.876 0 .876h9.92c-.491.491-.981.981-1.471 1.471-.4.399.219 1.02.62.619 1.551-1.551 3.102-3.102 4.652-4.653 2.82 2.821 5.643 5.641 8.461 8.462-.349 0-.696 0-1.045 0-.563 0-.563.876 0 .876h3.3v5.863c-2.476-2.477-4.951-4.953-7.427-7.428-.398-.4-1.02.22-.619.619.451.452.903.903 1.354 1.355-1.994 0-3.99 0-5.983 0 0-.011.002-.02.002-.031 0-1.129 0-2.257 0-3.386 0-.565-.875-.565-.875 0v1.08c-1.927 0-3.854 0-5.78 0 0-.867 0-1.732 0-2.599 0-.501-.688-.557-.845-.169-.051-.022-.109-.035-.178-.035-2.764 0-5.527 0-8.292 0-.565 0-.565.875 0 .875h8.292c.054 0 .103-.009.146-.025v1.953c-.477 0-.953 0-1.431 0-.564 0-.564.876 0 .876h8.087v1.43c0 .011.002.02.003.031-.867 0-1.733 0-2.601 0-.564 0-.564.876 0 .876h6.301c-.65.649-1.302 1.299-1.951 1.951-.044-.015-.091-.025-.145-.025-3.063 0-6.126 0-9.189 0-.02-.036-.045-.073-.079-.107-1.286-1.287-2.572-2.573-3.859-3.86.016-.23-.122-.473-.42-.473-1.168 0-2.335 0-3.503 0-.565 0-.565.875 0 .875h3.088c1.188 1.188 2.376 2.376 3.563 3.564-1.049 0-2.098 0-3.146 0-.564 0-.564.876 0 .876h12.84c-.974.973-1.946 1.949-2.919 2.917-.069-.103-.185-.176-.346-.176-2.843 0-5.685 0-8.525 0-.565 0-.565.877 0 .877h8.171c-.257.258-.515.516-.771.772-.399.397.22 1.019.618.619 2.531-2.53 5.063-5.063 7.592-7.593.068-.069.105-.145.12-.221h2.256c.198 0 .326-.111.386-.251 1.114 1.116 2.229 2.229 3.345 3.346-.854 0-1.709 0-2.563 0-.565 0-.565.876 0 .876h3.035c.125 0 .222-.045.291-.113 1.029 1.031 2.06 2.061 3.089 3.088-3.891 0-7.781 0-11.672 0-.564 0-.564.876 0 .876h4.549c-.807.808-1.613 1.613-2.418 2.42-.043-.015-.092-.026-.146-.026-3.181 0-6.358 0-9.539 0-.02-.035-.044-.071-.078-.104-.662-.662-1.323-1.323-1.984-1.984-.189-.189-.43-.148-.584-.013-2.711 0-5.422 0-8.135 0-.563 0-.563.877 0 .877h8.176c.054 0 .101-.01.145-.024.417.418.833.834 1.25 1.25-2.178 0-4.354 0-6.534 0-.563 0-.563.877 0 .877h10.422v3.096c-2.072 0-4.145 0-6.218 0-.563 0-.563.876 0 .876h6.308c.016 0 .03-.004.047-.006.247.215.74.108.74-.315 0-1.218 0-2.434 0-3.648h5.279c-.724.724-1.448 1.445-2.172 2.17-.399.399.22 1.021.62.621.327-.328.652-.653.979-.979.013.017.022.03.037.046 1.581 1.579 3.161 3.161 4.741 4.741-2.412 0-4.823 0-7.234 0-.564 0-.564.874 0 .874h7.708c.246 0 .384-.163.416-.35 1.25-1.25 2.499-2.5 3.748-3.748.033-.033.059-.069.078-.104h2.098v.876c-.438 0-.876 0-1.314 0-.563 0-.563.876 0 .876h3.649v14.276c0 .162.072.275.175.345-1.612 1.61-3.223 3.224-4.835 4.835-.337.336.049.825.418.735.063.042.143.071.24.071h4.555c.054 0 .103-.013.146-.026.044.015.093.026.146.026h10.729c.305 0 .441-.252.421-.485.114-.156.141-.376-.036-.556-1.396-1.395-2.793-2.791-4.189-4.187.067-.069.112-.167.112-.292 0-5.264 0-10.529 0-15.796h4.029v2.481c0 .565.875.565.875 0 0-.281 0-.563 0-.847h9.84c.563 0 .563-.874 0-.874-3.28 0-6.561 0-9.84 0 0-.255 0-.508 0-.762h5.4c.566 0 .566-.875 0-.875-2.89 0-5.781 0-8.671 0 0-.282 0-.564 0-.846 0-.174 0-.348 0-.521 1.398-1.397 2.795-2.797 4.192-4.192h.001c.542-.543 1.085-1.086 1.628-1.629.012.006.027.008.042.008h2.153c-.014.043-.022.092-.022.146v4.671c0 .563.876.563.876 0 0-1.558 0-3.114 0-4.671 0-.055-.011-.104-.024-.146h1.888c.021.037.045.071.077.105 1.363 1.361 2.726 2.725 4.089 4.087.398.399 1.019-.22.618-.619-.412-.411-.824-.825-1.237-1.237h3.299c.014.076.051.149.12.221.3.301.6.602.899.9-.066.018-.137.053-.198.115-1.207 1.206-2.415 2.413-3.621 3.62-.152.153-.156.337-.081.483-.099.26.031.613.391.613h6.308c.564 0 .564-.875 0-.875-1.866 0-3.732 0-5.6 0 1.075-1.074 2.149-2.149 3.224-3.224.062-.063.098-.131.113-.2.416.417.836.834 1.251 1.25.189.191.43.149.585.012h7.2c.564 0 .564-.875 0-.875-2.453 0-4.907 0-7.357 0-.018 0-.031.002-.048.004-.683-.682-1.364-1.363-2.047-2.047h2.914c.563 0 .563-.875 0-.875-2.646 0-5.295 0-7.94 0-.091 0-.163.021-.227.062-.506-.506-1.013-1.015-1.52-1.521h4.78c.564 0 .564-.877 0-.877-3.346 0-6.691 0-10.036 0 .566-.567 1.136-1.138 1.706-1.705.398-.397-.222-1.02-.621-.619-2.593 2.594-5.186 5.187-7.777 7.777 0-.037 0-.074 0-.111 0-1.767 0-3.537 0-5.307 1.996-1.992 3.989-3.991 5.984-5.985.561.559 1.118 1.117 1.678 1.676.399.398 1.018-.22.619-.62-.171-.169-.339-.339-.509-.509.399-.401.802-.801 1.201-1.201.017.001.029.005.049.005h5.521c-.014.113.021.233.125.338 1.712 1.713 3.426 3.427 5.139 5.14.399.399 1.021-.22.618-.621-.84-.838-1.681-1.68-2.521-2.521h5.861c-.001.011-.002.019-.002.03v3.618c0 .424.486.529.733.322h5.545c.562.003.562-.874-.001-.874zm-47.998 12.198c-1.61-1.608-3.22-3.22-4.83-4.829-.015-.014-.03-.025-.045-.037 1.491-1.49 2.981-2.979 4.471-4.472h3.353v5.636c0 .012.002.021.003.03-.555 0-1.111 0-1.665 0-.566 0-.566.876 0 .876h1.509c-.933.932-1.865 1.864-2.796 2.796zm6.979-1.92c0-.789 0-1.577 0-2.364 0-.564-.876-.564-.876 0v.612c-.762 0-1.522 0-2.282 0 0-.009.003-.021.003-.03 0-1.877 0-3.757 0-5.636h2.248c.09 0 .163-.022.225-.062.796.797 1.591 1.592 2.387 2.388.24.241.561.11.689-.117v2.64c-.166 0-.331 0-.497 0-.284 0-.425.224-.423.441-.009.034-.015.072-.015.114v2.014c-.486 0-.972 0-1.459 0zm8.057-16.174v9.985c-.146 0-.292 0-.438 0-.009 0-.018.004-.026.004 0-3.33 0-6.66 0-9.989zm-1.347 30.849c.084.086.156.139.244.199.719.717 1.434 1.432 2.147 2.146-1.068 0-2.136 0-3.204 0 0-1.02 0-2.037 0-3.06.262.264.552.454.813.715zm4.101 4.052c-1.64 0-3.276 0-4.913 0 0-.274 0-.554 0-.83h3.679c.126 0 .222-.045.291-.11.314.313.627.629.943.94zm-8.505 1.536c-.054 0-.102.01-.146.025-.043-.016-.092-.025-.146-.025-1.302 0-2.604 0-3.905 0 .569-.568 1.138-1.14 1.707-1.707.069.103.184.174.344.174h4.861v1.533c-.905 0-1.81 0-2.715 0zm-.834-3.364c.052.021.109.035.177.035h3.373v.918c-1.502 0-3.003 0-4.504 0 .317-.316.635-.634.954-.953zm3.55-3.55v2.711c-.903 0-1.806 0-2.709 0 .903-.906 1.806-1.808 2.709-2.711zm.876 6.255h5.298c.153 0 .264-.064.334-.157.271.271.542.544.813.813-2.149 0-4.297 0-6.445 0 0-.218 0-.435 0-.656zm3.006-20.655c-.283 0-.424.221-.423.442-.009.035-.014.07-.014.111v15.645c-.301-.299-.6-.601-.9-.898.014-.043.024-.089.024-.139 0-6.477 0-12.952 0-19.426.01 0 .019.002.026.002h2.481v1.547 1.871.845c-.395 0-.795 0-1.194 0zm12.537-17.389c-1.104 1.103-2.208 2.207-3.311 3.311-.184-.184-.366-.366-.55-.549.56-.558 1.117-1.116 1.678-1.675.397-.4-.22-1.02-.619-.619-2.555 2.553-5.109 5.105-7.662 7.66 0-1.166 0-2.332 0-3.499 0-.564-.877-.564-.877 0v7.622c-.388 0-.775 0-1.166 0 0-3.627 0-7.257 0-10.885 1.314-1.316 2.633-2.631 3.948-3.947.066.102.182.175.344.175h3.854c.564 0 .564-.876 0-.876-1.166 0-2.332 0-3.496 0 .661-.663 1.323-1.325 1.986-1.988.062.037.135.061.227.061h9.459c.018 0 .031-.003.047-.005.868.868 1.734 1.736 2.604 2.604-1.453 1.454-2.907 2.907-4.362 4.362-.033.034-.058.069-.076.105-.883 0-1.764 0-2.645 0 .414-.413.825-.825 1.237-1.237.399-.4-.22-1.019-.62-.62z" fill="#15003e"/><g fill="#24e899"><path d="m47.943 98.861c0-.585 0-1.17 0-1.752 0-.564-.876-.564-.876 0v1.752c0 .564.876.564.876 0z"/><path d="m49.896 98.861c0-.585 0-1.17 0-1.752 0-.564-.875-.564-.875 0v1.752c.001.564.875.564.875 0z"/><path d="m51.853 98.861c0-.585 0-1.17 0-1.752 0-.564-.876-.564-.876 0v1.752c0 .564.876.564.876 0z"/><path d="m53.807 98.861c0-.585 0-1.17 0-1.752 0-.564-.876-.564-.876 0v1.752c0 .564.876.564.876 0z"/><path d="m55.761 98.861c0-.585 0-1.17 0-1.752 0-.564-.875-.564-.875 0v1.752c0 .564.875.564.875 0z"/><path d="m57.717 98.861c0-.585 0-1.17 0-1.752 0-.564-.876-.564-.876 0v1.752c0 .564.876.564.876 0z"/><path d="m59.67 98.861c0-.585 0-1.17 0-1.752 0-.564-.876-.564-.876 0v1.752c0 .564.876.564.876 0z"/><path d="m61.625 98.861c0-.585 0-1.17 0-1.752 0-.564-.875-.564-.875 0v1.752c0 .564.875.564.875 0z"/><path d="m63.581 98.861c0-.585 0-1.17 0-1.752 0-.564-.875-.564-.875 0v1.752c0 .564.875.564.875 0z"/><circle cx="27.388" cy="44.438" r="1.109"/><circle cx="34.162" cy="52.496" r="1.109"/><circle cx="38.015" cy="44.438" r="1.109"/><circle cx="61.373" cy="37.782" r="1.109"/><circle cx="54.014" cy="46.89" r="1.109"/><circle cx="29.607" cy="38.95" r="1.109"/><circle cx="45.489" cy="25.518" r="1.109"/><circle cx="45.023" cy="29.841" r="1.109"/><circle cx="41.403" cy="36.029" r="1.109"/><circle cx="64.175" cy="31.358" r="1.108"/><circle cx="68.73" cy="46.774" r="1.109"/><circle cx="67.446" cy="54.949" r="1.109"/><path d="m92.494 66.391c0 .614-.498 1.11-1.108 1.11-.614 0-1.11-.496-1.11-1.11 0-.61.496-1.106 1.11-1.106.61 0 1.108.496 1.108 1.106z"/><circle cx="48.06" cy="54.947" r="1.109"/><circle cx="48.41" cy="49.81" r="1.109"/><circle cx="37.43" cy="68.377" r="1.109"/><circle cx="26.334" cy="75.385" r="1.109"/><circle cx="73.984" cy="77.255" r="1.109"/><circle cx="35.445" cy="79.006" r="1.109"/><circle cx="54.891" cy="22.949" r="1.109"/><circle cx="85.781" cy="54.715" r="1.109"/><circle cx="81.808" cy="38.363" r="1.109"/><circle cx="27.387" cy="69.372" r="1.109"/><circle cx="27.971" cy="55.534" r="1.109"/><circle cx="24.234" cy="41.519" r="1.109"/><circle cx="89.516" cy="72.819" r="1.108"/><circle cx="88.114" cy="46.305" r="1.109"/><circle cx="64.059" cy="26.627" r="1.11"/><circle cx="75.267" cy="30.308" r="1.11"/><circle cx="37.431" cy="29.256" r="1.109"/></g><path d="m43.142 104.141v.108c0 .764-.537 1.349-1.313 1.349s-1.4-.671-1.4-1.438c0-.798.639-1.451 1.438-1.451.43 0 .855.193 1.128.537l-.243.229c-.199-.271-.533-.451-.871-.451-.622 0-1.106.505-1.106 1.125 0 .581.478 1.131 1.076 1.131.431 0 .895-.37.909-.821h-.717v-.316z" fill="#16063e"/><path d="m43.799 104.097h.01c.082-.203.25-.331.471-.331.097 0 .191.034.272.085l-.151.301c-.059-.052-.125-.068-.201-.068-.356 0-.4.33-.4.608v.847h-.331v-1.721h.331v.279z" fill="#16063e"/><path d="m46.418 104.681c0 .52-.404.917-.918.917-.515 0-.919-.397-.919-.917 0-.518.403-.915.919-.915.515 0 .918.398.918.915zm-1.506 0c0 .322.261.599.588.599s.588-.274.588-.599c0-.326-.261-.6-.588-.6s-.588.274-.588.6z" fill="#16063e"/><path d="m47.308 104.914.508-1.189.502 1.189.5-1.096h.375l-.875 1.78-.502-1.151-.508 1.151-.875-1.78h.374z" fill="#16063e"/><path d="m53.165 104.152c0 .824-.652 1.446-1.453 1.446s-1.452-.622-1.452-1.446c0-.794.658-1.443 1.452-1.443s1.453.649 1.453 1.443zm-.346 0c0-.607-.456-1.12-1.105-1.12s-1.105.513-1.105 1.12c0 .633.506 1.122 1.105 1.122.597 0 1.105-.489 1.105-1.122z" fill="#16063e"/><path d="m53.766 104.104h.007c.137-.205.342-.338.6-.338.497 0 .808.431.808.901 0 .492-.293.931-.823.931-.243 0-.452-.136-.584-.328h-.007v1.253h-.331v-2.705h.331v.286zm1.085.574c0-.335-.203-.618-.559-.618-.341 0-.543.298-.543.618 0 .323.194.625.543.625.36 0 .559-.287.559-.625z" fill="#16063e"/><path d="m55.702 104.734c.003.294.202.569.518.569.254 0 .39-.13.515-.335l.279.158c-.161.297-.463.472-.797.472-.524 0-.846-.397-.846-.906 0-.528.281-.926.838-.926.548 0 .805.403.805.915v.053zm.983-.25c-.041-.258-.211-.43-.476-.43-.258 0-.449.184-.489.43z" fill="#16063e"/><path d="m57.628 104.048h.007c.102-.184.309-.282.518-.282.486 0 .611.327.611.746v1.024h-.332v-.984c0-.293-.041-.492-.379-.492-.425 0-.425.374-.425.688v.791h-.331v-1.721h.331z" fill="#16063e"/><path d="m61.548 103.292c-.104-.172-.235-.262-.444-.262-.222 0-.463.15-.463.393 0 .218.212.332.387.397l.197.077c.394.155.688.371.688.835 0 .503-.392.864-.885.864-.449 0-.799-.331-.856-.776l.35-.073c-.004.305.237.525.535.525.299 0 .512-.251.512-.54 0-.3-.239-.428-.478-.526l-.191-.08c-.315-.137-.604-.317-.604-.703 0-.447.397-.717.814-.717.311 0 .563.151.715.42z" fill="#16063e"/><path d="m63.936 104.681c0 .52-.402.917-.919.917-.514 0-.919-.397-.919-.917 0-.518.405-.915.919-.915.516 0 .919.398.919.915zm-1.507 0c0 .322.261.599.588.599.328 0 .589-.274.589-.599 0-.326-.261-.6-.589-.6-.327.002-.588.274-.588.6z" fill="#16063e"/><path d="m64.553 103.818v.953c0 .275.071.518.397.518s.396-.242.396-.518v-.953h.331v.989c0 .47-.22.791-.727.791s-.729-.321-.729-.791v-.989z" fill="#16063e"/><path d="m66.471 104.097h.011c.083-.203.25-.331.472-.331.095 0 .189.034.272.085l-.151.301c-.06-.052-.125-.068-.202-.068-.356 0-.4.33-.4.608v.847h-.33v-1.721h.33z" fill="#16063e"/><path d="m68.672 104.306c-.133-.15-.293-.23-.493-.23-.323 0-.573.285-.573.604 0 .353.246.609.596.609.191 0 .348-.088.472-.229v.422c-.15.082-.301.116-.477.116-.506 0-.921-.392-.921-.906 0-.532.411-.926.942-.926.153 0 .321.037.454.114z" fill="#16063e"/><path d="m69.227 104.734c.003.294.201.569.52.569.254 0 .389-.13.513-.335l.281.158c-.162.297-.463.472-.798.472-.525 0-.847-.397-.847-.906 0-.528.283-.926.839-.926.549 0 .806.403.806.915v.053zm.981-.25c-.041-.258-.209-.43-.475-.43-.257 0-.447.184-.488.43z" fill="#16063e"/></svg>