<svg enable-background="new 0 0 111.896 128" height="128" viewBox="0 0 111.896 128" width="111.896" xmlns="http://www.w3.org/2000/svg"><path d="m111.329 96-55.426 32-55.425-32-.001-64 55.426-32 55.426 32z" fill="#008cb2"/><path d="m102.583 37.73v53.13l-9.12 5.21-1.47.81-.249.12-.13.06-.12.061-23.54 13.63-.13.08-.25.14-.3.17-.36.21-.04.021-5.29 3.07-1 .579-.02.021-.391.25-2.01 1.21c-.01 0-.01 0-.01 0l-1.711.96-9.149-5.32-1.19-.699-1-.591-.52-.3-.41-.24-.67-.38-.29-.17-6.33-3.67-.23-.13-1.07-.62-2.55-1.479-.53-.311-.46-.26-.4-.23-1.65-.96-.06-.04-.77-.439-4.14-2.39-.05-.04s-.01-.011-.02-.011l-.22-.13c-.01 0-.02-.16-.03-.17l-.16-.149-.21-.2-.04-.03h-.01l-13.7-7.64v-53.133l46-26.55z" fill="#1edaf9"/><path clip-rule="evenodd" d="m64.488 61.458h6.431c.668.319.95.856 1.013 1.585.089 1.066.247 2.128.366 3.191.025.229.101.353.339.419 1.321.376 2.581.899 3.785 1.56.097.052.3.026.392-.044.974-.742 1.935-1.502 2.897-2.26.52-.407 1.303-.393 1.735.039 1.352 1.352 2.704 2.706 4.053 4.061.521.524.548 1.25.088 1.835-.752.953-1.494 1.913-2.251 2.862-.117.147-.119.248-.03.405.681 1.193 1.188 2.461 1.572 3.777.069.238.189.314.418.34 1.064.118 2.125.279 3.19.369.728.063 1.269.34 1.583 1.012v6.43c-.309.655-.831.945-1.549 1.01-1.079.091-2.15.252-3.227.371-.23.025-.347.104-.417.34-.385 1.315-.898 2.582-1.563 3.782-.056.098-.029.301.041.394.735.964 1.485 1.916 2.235 2.869.461.585.428 1.312-.091 1.835-1.253 1.265-2.508 2.531-3.761 3.795-.753.758-1.372.8-2.22.144-.901-.699-1.794-1.411-2.704-2.102-.092-.069-.294-.09-.392-.037-1.186.646-2.42 1.169-3.719 1.532-.299.083-.387.232-.418.515-.112 1.052-.27 2.1-.358 3.155-.062.718-.354 1.24-1.009 1.549-2.143 0-4.287 0-6.431 0-.669-.316-.952-.856-1.012-1.586-.089-1.067-.247-2.126-.367-3.19-.023-.229-.105-.347-.341-.415-1.32-.382-2.585-.892-3.779-1.571-.16-.092-.26-.078-.406.038-.948.756-1.905 1.498-2.859 2.25-.586.46-1.31.442-1.84-.085-1.321-1.316-2.632-2.643-3.946-3.966-.558-.561-.583-1.265-.096-1.886.746-.943 1.486-1.889 2.213-2.845.069-.091.092-.294.038-.393-.654-1.193-1.177-2.441-1.547-3.75-.069-.245-.182-.344-.435-.371-1.065-.115-2.123-.277-3.189-.366-.73-.062-1.269-.345-1.585-1.016 0-2.143 0-4.287 0-6.43.29-.52.652-.903 1.305-.965 1.161-.111 2.315-.279 3.473-.409.232-.028.349-.102.417-.342.377-1.318.898-2.578 1.558-3.785.053-.099.033-.302-.034-.392-.744-.974-1.503-1.935-2.258-2.898-.409-.522-.402-1.298.032-1.733 1.343-1.346 2.686-2.689 4.035-4.028.565-.563 1.269-.585 1.885-.098.941.748 1.889 1.487 2.844 2.215.091.068.293.09.393.035 1.204-.659 2.466-1.178 3.783-1.562.237-.067.316-.186.341-.414.121-1.077.279-2.149.371-3.228.062-.717.353-1.238 1.008-1.547zm-7.961 22.36c-.014 6.158 4.971 11.171 11.164 11.18 6.058.01 11.17-4.783 11.193-11.153.024-6.209-4.942-11.171-11.148-11.195-6.191-.028-11.195 4.974-11.209 11.168z" fill="#007a96" fill-rule="evenodd"/><path d="m71.055 106.797-6.827-.059c-.817-.385-1.274-1.086-1.356-2.084-.056-.668-.14-1.334-.222-2.001-.047-.364-.094-.729-.135-1.096-1.338-.395-2.568-.904-3.678-1.519-.574.455-1.146.902-1.718 1.352l-1.021.801c-.815.642-1.923.587-2.642-.13-1.035-1.03-2.063-2.067-3.091-3.104l-.859-.864c-.766-.771-.82-1.826-.141-2.688.711-.901 1.419-1.806 2.114-2.717-.64-1.195-1.146-2.429-1.502-3.67-.416-.047-.805-.096-1.195-.146-.638-.08-1.274-.16-1.913-.214-.996-.083-1.695-.541-2.082-1.359l-.058-.26v-6.588l.076-.137c.279-.502.767-1.178 1.777-1.274.697-.066 1.392-.153 2.087-.241.434-.054.867-.109 1.301-.158.374-1.279.879-2.51 1.506-3.68-.567-.739-1.144-1.475-1.721-2.21l-.438-.559c-.603-.771-.569-1.885.081-2.536 1.344-1.346 2.688-2.691 4.036-4.029.761-.759 1.841-.815 2.689-.144.898.714 1.802 1.421 2.713 2.115 1.16-.622 2.394-1.128 3.676-1.509.045-.386.09-.746.136-1.107.083-.677.168-1.351.227-2.028.085-.973.54-1.66 1.353-2.044l.26-.058 6.691.059c.816.389 1.271 1.089 1.356 2.08.054.67.14 1.338.223 2.004.045.367.092.733.133 1.102 1.266.368 2.493.871 3.67 1.503.792-.608 1.579-1.226 2.365-1.846l.41-.321c.736-.579 1.909-.54 2.538.085l4.053 4.063c.739.743.792 1.804.134 2.638l-.89 1.136c-.418.534-.836 1.068-1.259 1.6.622 1.119 1.12 2.323 1.521 3.68.395.046.761.092 1.127.139.658.082 1.316.165 1.975.221 1.017.088 1.696.531 2.083 1.358l.057.258-.058 6.69c-.384.811-1.071 1.267-2.044 1.353-.665.056-1.323.139-1.983.222-.385.049-.77.097-1.155.14-.394 1.316-.9 2.546-1.509 3.672.675.885 1.367 1.763 2.059 2.641l.081.104c.657.833.601 1.893-.136 2.636l-3.761 3.796c-.991.996-1.906 1.062-3.022.196l-1.005-.782c-.521-.41-1.044-.822-1.574-1.226-1.243.666-2.455 1.159-3.7 1.506-.024.415-.076.833-.127 1.252-.078.628-.155 1.255-.21 1.885-.084.975-.541 1.662-1.353 2.046zm-6.42-1.212h6.135c.347-.201.51-.498.553-.997.055-.643.135-1.286.214-1.929.051-.412.104-.824.147-1.237.021-.205.09-.822.857-1.034 1.205-.336 2.379-.82 3.592-1.48.292-.164.765-.124 1.043.081.579.441 1.148.888 1.716 1.331l.997.779c.286.222.524.334.705.334.072 0 .292 0 .714-.425l3.76-3.795c.3-.303.318-.688.047-1.032l-.082-.104c-.726-.921-1.45-1.842-2.161-2.772-.193-.261-.276-.723-.089-1.058.62-1.116 1.129-2.347 1.513-3.657.137-.46.449-.719.931-.773.406-.044.812-.095 1.215-.146.675-.084 1.349-.168 2.027-.225.497-.046.794-.208.995-.554v-6.136c-.201-.347-.507-.51-1.029-.555-.676-.057-1.349-.143-2.024-.227-.394-.05-.787-.1-1.181-.143-.487-.056-.8-.315-.933-.772-.397-1.36-.893-2.553-1.519-3.647-.215-.381-.187-.745.083-1.083.456-.572.906-1.147 1.356-1.723l.893-1.139c.276-.351.261-.728-.042-1.031l-4.051-4.061c-.201-.2-.664-.2-.932.01l-.408.322c-.829.65-1.658 1.304-2.495 1.942-.235.177-.515.196-.624.196-.158 0-.3-.034-.424-.101-1.181-.646-2.41-1.153-3.663-1.51-.46-.128-.72-.443-.777-.934-.042-.388-.091-.772-.14-1.157-.086-.684-.17-1.366-.227-2.053-.045-.516-.209-.824-.559-1.028h-6.134c-.347.2-.508.497-.552.995-.059.69-.146 1.382-.232 2.073-.048.39-.097.777-.14 1.167-.055.483-.314.797-.776.932-1.281.372-2.513.88-3.661 1.509-.125.07-.274.106-.439.106-.107 0-.383-.019-.608-.189-.959-.73-1.91-1.474-2.855-2.224-.377-.298-.74-.287-1.08.053-1.349 1.339-2.69 2.682-4.033 4.026-.213.214-.205.648.017.932l.437.557c.612.779 1.224 1.56 1.826 2.349.214.285.249.742.084 1.047-.638 1.169-1.145 2.402-1.507 3.664-.128.457-.441.719-.929.776-.456.052-.909.108-1.362.165-.707.089-1.414.178-2.123.245-.323.031-.538.177-.756.526v6.118c.202.351.509.516 1.028.559.656.056 1.309.137 1.962.218.414.053.828.105 1.242.149.497.054.818.327.954.812.347 1.222.85 2.442 1.496 3.622.165.307.128.766-.085 1.048-.732.962-1.475 1.911-2.222 2.856-.305.387-.29.741.05 1.082l.858.866c1.026 1.036 2.053 2.07 3.085 3.099.302.301.689.31 1.038.035l1.023-.802c.612-.48 1.225-.959 1.833-1.443.112-.09.608-.364 1.084-.09 1.106.63 2.301 1.125 3.646 1.515.464.134.724.448.777.933.042.384.091.769.139 1.153.086.684.171 1.365.228 2.053.043.519.205.828.554 1.031zm3.075-9.981c-3.175-.004-6.136-1.233-8.358-3.462-2.22-2.227-3.438-5.183-3.431-8.325.013-6.492 5.291-11.774 11.766-11.774h.052c6.507.026 11.777 5.322 11.752 11.805-.026 6.591-5.2 11.756-11.781 11.756zm-.023-22.955v.606c-5.808 0-10.54 4.739-10.553 10.564-.006 2.817 1.086 5.469 3.076 7.465 1.993 2 4.65 3.103 7.482 3.107 5.922 0 10.563-4.634 10.585-10.55.024-5.814-4.707-10.563-10.543-10.587z" fill="#070c42"/><path d="m56.896 101.771c-.773-.746-1.725-1.225-2.469-2.018-.755-.805-1.99-1.947-1.844-3.108.053-.42-.453-.564-.752-.432-.556.246-.854.697-1.12 1.179-.564.171-.908.62-1.1 1.194-.169.178-.26.42-.178.846-.007.069-.014.139-.019.209-.313.189-.246.564-.009.761.017.394.062.774.122 1.11-.024.084-.029.175-.01.266.021.098.042.194.063.292.06.279.317.373.557.331.107.006.202-.028.286-.095.005 0 .01.002.016.001.552.178 1.041.32 1.717.215.428-.066.844-.079 1.255-.069.23.419.546.784 1.04.862.281.044.68-.128.633-.482-.012-.09-.033-.176-.051-.263.494.043.994.076 1.51.055.421-.018.679-.539.353-.854z" fill="#9b2313"/><path d="m37.388 98.292c-.213-.112-.488-.091-.632.186-.355.678-.646 1.384-.958 2.083-.191.428-.385 1.034-.646 1.417-.221.321.074.748.432.752.396.004.923-.094 1.171.153.035.229.092.452.21.661.247.438.93.24.932-.252.001-.375-.075-.657-.206-.874-.027-.5.063-1.087.06-1.48-.002-.294-.028-.588-.044-.882-.022-.424.177-.77.318-1.152.146-.401-.298-.7-.637-.612z" fill="#9b2313"/><path d="m50.772 107.022c-.63.576-1.121 1.277-1.743 1.851-1.233.105-2.351.729-3.591.773-.191.007-.319.104-.396.232-.466-.262-.917-.538-1.351-.852-.374-.271-.727.094-.716.461.024.008.046.007.07.019.682.341 1.24.882 1.926 1.21.393.188.793.36 1.109.647.38.046.767.018 1.158-.131.623-.236 1.556-.788 2.046-1.246.085-.08.16-.169.243-.251.032-.027.062-.055.085-.089.631-.638 1.211-1.319 1.867-1.918.477-.434-.232-1.139-.707-.706z" fill="#fff"/><path d="m20.754 81.701c2.125-1.041 4.023-2.188 4.949-4.458 1.283-3.151-.626-6.442 1.129-9.651.418-.762-.711-1.512-1.131-.745-1.23 2.25-1.268 4.288-1.099 6.799.247 3.649-1.35 5.322-4.465 6.85-.784.384-.168 1.592.617 1.205z" fill="#061644"/><path clip-rule="evenodd" d="m44.551 37.76c-.172.024-.306-.01-.441-.046-.074-.074-.167-.139-.3-.171-.01-.001-.01-.013-.019-.013-.075-.069-.163-.114-.216-.217-.108-.139-.246-.204-.388-.225.167-.724-.804-1.211-1.241-.558-.071.104-.118.184-.167.265-.106.024-.209.071-.309.166-2.384 2.299-4.187 5.035-5.648 7.992-.006.009-.014.017-.02.027 0 .001.001.002.004.004-.026.053-.057.102-.083.157-.053.11-.067.21-.063.304-1.54 2.707-3.337 5.121-4.984 7.774-.174.28-.132.554.015.755-.019.021-.035.045-.052.067-.128.162-.264.321-.396.485-.168.02-.336.113-.476.299-.303.408-.616.805-.916 1.208-.081.043-.156.099-.217.179-1.117 1.448-2.147 2.842-2.765 4.554l-.006.006c-.186.015-.364.096-.485.279l-1.82 2.768c-.041.063-.056.121-.076.182-.058.028-.114.062-.163.112-.861.897-1.654 1.748-2.313 2.805-.138.224-.126.452-.037.644-.047.088-.062.175-.066.257-.033.008-.068.008-.101.021-.569.247-1.08.585-1.567.954-.136.088-.27.179-.405.269-.204-.069-.442-.061-.671.106-.759.546-1.512 1.011-2.155 1.617-.334.228-.671.456-.997.698-.234-.05-.502.021-.713.277-.3.363-.494.716-.617 1.077-.018.031-.04.059-.051.091-.008.024-.008.048-.015.072-.011.047-.019.094-.028.14-.336 1.26-.058 2.501-.375 3.775.002 0 .006.001.01.003-.012.059-.035.109-.046.174-.143.774 1.163 1.025 1.353.266.015-.06.013-.12.024-.18l.01.003c.114-.612.315-1.141.583-1.598.178.05.363.021.521-.122.238-.025.471-.148.6-.412.064-.124.118-.252.177-.378.557-.53 1.221-1.024 1.933-1.289.093-.022.189-.046.284-.065.657.493 1.408.846 2.197 1.081.248.398.558.758.836 1.132.282 1.162.244 2.029-.026 3.275-.148.68.544 1.179 1.123.734 1.183-.904 1.577-2.194 1.575-3.546.295-.102.528-.368.457-.767-.09-.488-.136-.992-.173-1.504.012-.103.031-.214.037-.316.015-.232-.001-.471-.035-.707.123-.079.226-.187.282-.329.242-.599.833-3.238.03-3.679l-.006-.062c.023-.027.051-.054.073-.081.135-.04.263-.128.36-.294.137-.231.252-.456.352-.678.517-.749.953-1.546 1.3-2.396.312-.462.592-.943.827-1.445.495-.633.94-1.3 1.345-1.993.762-1.101 1.513-2.208 2.27-3.309 1.045-1.311 2.026-2.667 3.015-4.029.185-.253.163-.496.048-.683 1.375-1.795 2.7-3.627 4.103-5.404 1.554-1.967 2.416-4.327 4.168-6.158.245-.254.243-.565.119-.816.15-.236.313-.467.444-.713.063-.09.127-.184.193-.274.167-.233.343-.451.54-.661.294-.321.289-.087.092-.292.339.357 1.034.282 1.174-.243l.15-.563c.15-.567-.407-1.134-.976-.838z" fill="#00779b" fill-rule="evenodd"/><path d="m47.448 38.432c-2.842.586-5.63-1.249-6.217-4.091-.586-2.841 1.247-5.629 4.088-6.217 2.843-.586 5.632 1.247 6.219 4.088.588 2.843-1.247 5.633-4.09 6.22zm-1.58-7.653c-1.377.284-2.267 1.637-1.982 3.013.285 1.379 1.637 2.268 3.014 1.984 1.377-.285 2.268-1.637 1.984-3.016-.285-1.376-1.639-2.265-3.016-1.981z" fill="#061644"/><path d="m31.099 30.54h1.356v40.438h-1.356z" fill="#061644" transform="matrix(.8294 .5587 -.5587 .8294 33.7797 -9.0929)"/><path d="m36.149 32.511h1.357v38.661h-1.357z" fill="#061644" transform="matrix(.8261 .5635 -.5635 .8261 35.614 -11.7378)"/><path d="m14.405 78.976c-.629-2.783-1.993-5.914.99-7.845 1.823-1.184 3.96-1.499 5.539-3.1.609-.616-.292-1.631-.907-1.008-2.014 2.045-5.135 2.18-7.002 4.446-1.813 2.198-.488 5.391.053 7.78.193.855 1.522.581 1.327-.273z" fill="#061644"/><path d="m14.742 79.444c.175-1.383.773-2.583 1.748-3.574.975-.99 3.017-1.555 4.149-.491.629.59.453 1.751.332 2.506-.084.518-.229 1.025-.382 1.524-.063.197-.134.393-.214.587-.242.312-.192.361.146.154-.872-.087-.956 1.267-.088 1.352 1.281.126 1.61-2.186 1.793-3.026.313-1.445.366-3.114-.794-4.205-1.314-1.237-3.582-.885-4.993-.065-1.792 1.037-2.799 3.173-3.05 5.151-.109.871 1.246.951 1.353.087z" fill="#061644"/><path d="m64.204 104.7c-.47-.63-1.2-.99-1.83-1.17-.03-.011-.05-.021-.09-.03h-.24c-.01 0-.01 0-.01 0-.01 0-.01 0-.01 0h-.44c-.03 0-.07.04-.1.03-.101-.021-.221-.03-.33-.03h-.471c.131 0 .005-.055.136-.075 0 0-.235.035-.235.065v.01h-.04c-.01 0-.01 0-.02 0h-.061l-.01.01c-.021 0-.03.021-.05.03-.03 0-.07.01-.101.02-.04 0-.08-.02-.12-.02-.05 0-.1-.021-.149-.021-.04 0-.09-.02-.13-.02h-.32s-.01 0-.03 0c-.01.01-.01 0-.01 0-.03 0-.06 0-.06 0h-.16c-.04 0-.09.045-.13.035-.08-.011-.16-.035-.24-.035-.01 0-.01 0-.021 0-.109 0-.229-.055-.34-.075-.01 0-.01.035-.01.065v.01h-.02c-.011 0-.011 0-.021 0h-.17c-.06 0-.12-.01-.17-.01-.14-.021-.29-.05-.43-.021-.011 0-.011.011-.021.011 0 .01-.01.02-.02.02-.011 0-.011 0-.021 0h-.189c-.011 0-.011 0-.021 0h-.09c-.03 0-.05-.101-.061-.101-.689.051-1.189.021-1.859-.09-.46-.399-.93.08-1.49.171-.06.01-.12.02-.18.02h-.29c-.04 0-.09 0-.14-.02-.01 0-.01 0-.02-.011-.27-.069-.67-.29-.79-.239-.07-.021-.31.159-.51.239-.06.021-.11.03-.15.03h-.17c-.21 0-.33-.04-.4.08-.16.229-.13.53-.13 1-.01.22-.02.46-.07.7-1.42 1.3-2.89 2.34-4.41 3.35-.98-.2-2.04-.14-2.95.37-.01 0-.03-.02-.05-.02-.54-.4-1.09-.62-1.68-.721-1-.479-2.01-.66-3.03-1.05-.37-.32-.73-.65-1.1-.94-.29-.52-.59-1.039-.89-1.539 0 0-.01-.011-.02-.011-.02-.05-.07-.1-.09-.149-.01-.03-.03-.061-.05-.09-.04-.08-.09-.171-.13-.271-.01-.1-.14-.2-.16-.29-.01-.01-.01-.02-.01-.03 0-.08.03-.149-.01-.199-.13-.25-.26-.28-.43-.15-.12.08-.21.25-.22.479-.05-.05-.08-.1-.13-.14-.06-.05-.13-.09-.19-.13-.49-.32-1.04-.45-1.6-.52-.36-.04-.73-.061-1.09-.08-.17-.011-.34-.021-.5-.04-.08 0-.15-.011-.22-.021-.14-.02-.33-.03-.55-.03l.4.23.46.26.53.311 2.55 1.479 1.07.62.23.13 6.33 3.67.29.17.044.024c.097-.263.431-.429.726-.281.785.391 2.006.14 2.833-.194 1.204-.485 2.349-1.136 3.228-2.103.092-.101.195-.14.298-.148.026-.017.046-.038.074-.055.56-.337 1.029.503.505.863-.185.127-.251.211-.277.204-.003.003-.006.005-.009.007.001.105-.004.212.013.316-.037.44-.068.93-.313 1.315-.491.774-1.254 1.373-2.188 1.483-.284.033-.646.065-1.037.085-.245.104-.489.209-.729.326l.624.366 9.149 5.32 1.711-.96h.01l2.01-1.21.391-.25c.01.07.02.15.02.22v-.24l.85-.579.15-.091 5-2.979c0-.01 0-.01 0-.021l.3-.119.23-.091.46-.17c-.078-2.694-2.128-4.624-3.368-6.264z" fill="#ffa522"/><path d="m64.152 75.725c.054-.288-.019-.621-.171-.839-.159-.242-.326-.479-.5-.71-.316-.289-.63-.577-.942-.865-.228-.135-.452-.27-.676-.41-.308-.304-.792-.271-1.135-.065-.136.078-.092.051-.363.077-.801.074-1.168 1.189-.507 1.572-.585 1.394-.207 2.594-.127 4.241.01.241.086.483.205.702-.009.021-.023.032-.031.055-.143.422-.052.836.299 1.123.364.297.841 0 .88-.343.185.021.374.01.569-.064.179-.067.367-.152.556-.242.37-.022.748-.163 1.06-.393 1.103-.804 1.381-2.544.883-3.839z" fill="#bca20c"/><path d="m27.559 78.019c-.107-1.119-.001-2.838-.568-3.9.02-.014.039-.026.061-.042.738-.522.45-1.913-.423-2.12-2.51-.594-3.984-.021-4.232 1.898-.236-.048-.59.313-.688.604-.374 1.109-.006 3.128.458 4.042.053.104.504.438.583.479.086.205.295-.053.396.146.268.539.887.601 1.41.894.041.025.087.037.129.06.107.203.24.403.437.581.396.365 1.147.542 1.607.171 1.011-.82.947-1.611.83-2.813z" fill="#bca20c"/><path d="m51.26 94.344c-.005-.012-.01-.022-.015-.034.031-.206.062-.413.083-.624.001-.007 0-.016.001-.023.232-2.282-.161-4.861-.535-7.211.352-2.583.732-5.438.719-8.124.291-1.772.6-4.107-.242-5.678-.02-.435-.037-.868-.064-1.304-.029-.45-.481-.599-.785-.45-.002-.002-.004-.006-.007-.008-.163-.11-.364-.206-.581-.295-.014-.061-.022-.122-.037-.183-.122-.49-.688-.454-.933-.111-.255-.058-.521-.107-.8-.142-.103-.174-.3-.296-.574-.25-.6.103-2.889.137-5.018.406-.01-.057-.014-.112-.025-.169-.103-.548-.87-.46-1.021 0-.037.114-.063.231-.096.347-.266.049-.521.103-.765.162-.401-.088-.802-.178-1.202-.283-1.491-.387-2.359-.237-2.686.733-.094-.045-.198-.061-.301-.046-.157-.022-.305.018-.439.114-.015-.121-.02-.249-.044-.364-.072-.349-.492-.468-.778-.316-.112.059-.208.134-.303.21-.173-.246-.574-.243-.797-.062-.086.07-.146.151-.217.228-.234-.074-.528-.016-.661.211-.264.454-.355.611-.454.873-.079.04-.153.097-.208.187-.316.517-.484.986-.583 1.582-.019.114 0 .214.033.305-.452 2.499-1.41 5.614-1.094 8.26-.033.444-.04.891-.021 1.338-.189.104-.319.304-.243.575.225.768.44 1.546.662 2.324.289 2.131.97 4.234 2.229 5.853-.059.167-.05.359.093.53.04.048.073.099.113.146.001.003.001.006.002.011.692 1.555 1.653 3.104 2.849 4.413.073.156.16.307.239.46.075-.02.157-.025.25-.001.721.189 1.152.673 1.075 1.441-.028.283-.244.435-.467.466-.044.182-.079.274-.102.314.054-.021.193.028.461.551-.081 1.063-.223 2.128-.241 3.211-.002.174.115.304.217.388.06.117.162.226.277.316.229.181.358.354.548.222.066.295.294.375.394.671.125.369.677.503.917.228.916.625 2.092.679 3.241.823.14.018.242-.038.326-.115.311.043.641.077 1.001.099 1.101.068 2.841.163 3.691-.69.314.13.729-.09.741-.484.085-2.943.275-2.693-.066-5.628-.03-.258-.198-.417-.392-.479-.005-.061-.017-.123-.023-.184.287-.067.53-.206.74-.396.086-.021.171-.065.249-.155.395-.463.716-.961.959-1.498.163-.078.294-.238.322-.465.006-.058.003-.113.007-.17.108-.024.195-.082.264-.167.288.045.624-.201.655-.524.03-.297.089-.56.067-.86-.023-.36-.328-.526-.605-.505z" fill="#e0bc73"/><path d="m60.104 70.141c.015-.157.031-.313.041-.473.015-.274-.254-.549-.53-.53-1.125.077-2.197-.368-3.31-.484-1.133-.12-2.305-.122-3.443-.133-.133-.001-.233.046-.314.109-2.966-.439-6.152-.311-8.511-.284-.701.008-1.398.042-2.095.085-.085-.1-.211-.17-.378-.175-2.675-.094-5.335-.269-8.008-.198-2.136.057-4.359 1.195-6.513 1.435-.518.057-.729.678-.267.986.03.021.062-.052.092-.029-.01.063-.011.051-.017.051h-.006c-.015 0-.027.415-.042.564-.046.01-.093.072-.14.081-.677.119-.593.971-.114 1.253-.745.315-.396 1.557.421 1.296 1.692-.547 3.305-1.273 4.947-1.945 4.1-.553 8.22-.884 12.372-.967 2.678-.052 5.331.08 7.972.559 2.226.403 5.293.636 6.888 2.362.598.646 1.559-.321.965-.964-.087-.094-.176-.171-.265-.254.187-.582.35-1.169.541-1.751.073-.294-.079-.501-.286-.594z" fill="#ad7149"/><path d="m28.273 102.97c.16.101.32.2.48.28-.16.05-.32.05-.51 0-.019-.09-.01-.19.03-.28z" fill="#c44833"/><path d="m36.903 99.48c.03.22-.09.38-.25.46-.28.13-.7.05-.79-.32-.01-.061-.03-.12-.04-.18-.12.229-.25.449-.38.67-.07 1.05-.79 1.62-1.56 2.21-.11.12-.2.26-.31.38-.11.13-.24.17-.37.16-.1.09-.2.189-.29.29-.03.029-.06.06-.09.09-.04.149-.14.27-.32.31l-.46-.26-.4-.23-1.65-.96-.06-.04c.03-.029.07-.05.11-.069.04-.01.09-.021.14-.03.05-.21.08-.42.11-.63.11-.73.14-1.47.16-2.22-.2-.46-.36-.841-.54-1.341-.03-.079-.04-.14-.04-.21-.02-.04-.05-.09-.07-.13-.17 0-.33-.069-.44-.26-.11-.189-.25-.57-.4-1.05-.06-.19-.11-.39-.17-.601-.07-.1-.13-.199-.19-.3-.02-.05-.05-.09-.07-.14-.01-.021-.02-.03-.03-.05-.04.09-.09.18-.13.26-.01.04-.02.08-.04.12-.01.06-.03.12-.05.17 0 .01-.01.02-.02.03-.12.84-.37 1.27-1.22 1.68-.11.06-.22.07-.32.05-.07 0-.13-.02-.19-.05-.27-.15-.39-.53-.13-.83.38-.45.66-.94.92-1.44.1-.329.26-.659.26-.989v-.04c0-.84.14-1.62.26-2.42.04-.67.075-1.351.095-2.021-.15-.89-.232-1.79-.262-2.689-.04-.04-.067-.091-.087-.15-.82-2.03-.778-4.17-.898-6.33-.01-.07-.009-.14-.009-.21-.01-.09-.02-.189-.03-.28-.03-.26-.06-.529-.079-.79-.05-.46-.1-.92-.16-1.38-.32-2.64-.59-5.189-.31-7.85 0-.061 0-.12.01-.18.03-.261.19-.431.38-.48.21-.07.45 0 .58.2.28-.01.55-.021.82-.061.57-.189 1.2-.479 1.49-.489.26-.021.53-.03.79-.051.06 0 .12 0 .18-.01.22-.05.43-.1.65-.149.08-.011.15-.011.22.01.08.01.15.04.21.08.14 0 .28-.109.41-.119.11-.051.23-.121.34-.121h.14c.05 0 .1.09.15.09.1-.01.18.065.25.096.18.01.36.037.54.047.11.01.2.063.28.134.03 0 .06.027.08.057.29.28.17.854-.36.894-.04.02-.08.042-.13.062-.01.01-.03.011-.04.021-.02.26-.09.541-.18.86-.09.33-.45.431-.72.33-.036.064-.076.129-.114.193-.016.027-.032.056-.048.083-.08.248-.169.485-.258.733-.5 1.391-1.08 2.771-1.44 4.221-.01.04-.02.08-.05.109-.02.07-.07.12-.12.16-.07.061-.16.09-.26.101-.09 0-.23-.011-.32-.051.01.32 0 .63 0 .95v.01c0 .11.05.21.06.32.05 1.13.13 2.271.12 3.4.04.01.08.029.11.05.09.06.175.16.195.3.17 1.061.232 2.12.202 3.17 0 .3-.009.59-.019.88.12.57.271 1.13.431 1.7.06.021.12.04.17.08.09.05.17.13.21.25 0 .01.01.01.01.02.12.32.24.631.36.94.01.021.03.03.04.04.55 1 1.03 2.03 1.49 3.07.77 1.279 1.57 2.55 1.99 3.96.15-.011.3.02.41.149.36.431.62.88.84 1.351.14.04.27.12.33.3.01.01.02.02.02.04.09.3.15.5.19.67.08.32.1.53.15 1.08.002.03.011.07.011.11z" fill="#c44833"/><path d="m62.337 101.75c-2.275-.818-3.844-2.33-4.922-4.332-.082-.179-.17-.361-.254-.542-.004-.545-.049-1.094-.135-1.646.099-1.133.072-2.271.013-3.416.19-1.446.353-2.896.495-4.35.006-.011.016-.018.021-.03.019-.042.032-.087.049-.129.002.001.003.001.005.002.002-.01.004-.021.006-.031.558-1.335.959-2.703 1.287-4.09.126-.025.24-.099.309-.254.58-1.317.76-2.786.881-4.271.128-.372.259-.743.378-1.116.049-.15.08-.306.121-.459.063-.06.115-.134.13-.237.153-1.001.313-1.982.406-2.974.025-.226.051-.452.076-.676.009-.079.003-.147-.018-.207.004-.094.004-.188.006-.281.28-.866.296-1.365-.007-1.871.364-.155.523-.74.087-.944-.606-.287-.697-.347-1.064-.423-.118-.052-.238-.104-.367-.154.063-.287-.093-.61-.49-.621-.59-.018-1.177.01-1.762.059-.63-.001-1.251.006-1.866.082-1.244-.329-2.707-.328-3.654-.339-.063-.001-.118.027-.174.049-.048-.011-.088-.021-.149-.03-.49-.066-.927.474-.515.886.094.093.16.208.241.313-.001.058 0 .114.02.182.173.56.341 1.107.5 1.654.002.012.005.025.007.037-.079 1.541-.221 3.104.147 4.595-.002.021-.012.038-.012.061-.007 1.4-.026 2.797-.007 4.196-.04.363-.073.727-.098 1.091-.082.085-.145.194-.16.34-.475 4.601-1.564 11.871 1.611 15.866.016.021.035.03.052.046.006.007.008.014.014.02.117.114.23.236.345.356.311.744.667 1.475 1.095 2.185.185.307.554.306.786.132.254.265.529.515.86.721.09.056.198.067.306.056.227.185.464.352.706.508.031.116.109.223.246.297.774.422 1.557.72 2.377 1.047.314.125.542-.078.615-.339.368.088.74.169 1.106.272.272.076.582-.092.652-.371.021-.088.043-.177.065-.265.077-.301-.09-.555-.367-.655z" fill="#c44833"/><path d="m60.951 73.432c.256-.064.476-.299.399-.638-.04-.184-.062-.367-.084-.552.073-.139.08-.305-.036-.469-.003-.005.23-.011.225-.015-.041-.62.129-1.244.129-1.863v-.395s-.483 0-.485 0c-.005 0-.006.066-.013.02-.047-.355-.396-.356-.678-.253-.516-.208-1.12-.13-1.678-.326-.203-.071-.379.02-.499.15-.825-.217-1.651-.415-2.481-.616-1.004-.243-1.845-.488-2.862-.227-.095.024-.167.081-.227.146-.232-.054-.46-.142-.681-.338-.394-.349-.92.012-.907.412-.24.097-.42.363-.343.669.002.012-.002-.022 0-.011.116.56.28.374.616 1.374h.001c.125 0 .268.503.429.677-.045.024-.1.058-.141.087-.554.39-.025 1.32.535.926.418-.294 1.294.023 1.785.077.953.105 1.891.295 2.836.443 1.237.194 2.524.564 3.411 1.469.045.283.285.548.646.458.045-.012.089-.023.134-.033.423-.107.466-.591.232-.887-.082-.103-.174-.191-.263-.285z" fill="#9b2313"/><path d="m32.933 68.735c-.033-.014-.049-.043-.088-.052-.761-.178-1.365.142-1.983.463-.023.01-.046.019-.07.028-.147-.08-.325-.117-.517-.132-.046-.209-.201-.377-.484-.346-.049.006-.093.019-.14.027 0-.002 0-.006-.001-.009-.022.009-.044.014-.067.021-.208.043-.401.106-.581.192-.403.132-.814.237-1.229.322-.008-.003-.018-.005-.025-.006-.152-.031-.292.011-.407.09-.101.015-.196.045-.297.057-.166.019-.292.098-.378.202-.066-.001-.122-.003-.151-.004-.214-.009-.477.167-.511.39-.126.809.042 1.63.057 2.445-.093.41-.148.819-.142 1.27.001.095.029.173.067.242-.031.013-.061.034-.093.042-.664.159-.39 1.181.274 1.021.351-.085.569-.25.831-.495.4-.373 1.083-.468 1.592-.613.793-.228 1.496-.438 2.33-.398-.009-.012.106-.024.097-.036.216.002.663-.102.663-.35 0-.001 0-.001 0-.002 0-.019-.01-.035-.012-.052.03-.024.062-.043.088-.077.904-1.136 1.577-2.42 2.089-3.776.209-.554-.564-.844-.912-.464z" fill="#9b2313"/><path d="m52.219 94.779c-2.625-4.584-1.257-10.453-.376-15.298.284-1.558.609-3.345.342-4.922-.112-.663-.316-1.253-.573-1.812.025-.08.037-.167.022-.264-.116-.731-.431-1.408-.815-2.025-.158-.252-.416-.281-.627-.193-.032-.054-.063-.104-.094-.157-.345-.58-1.226-.049-.88.533 1.202 2.026 2.057 3.422 1.987 5.951-.077 2.765-.985 5.516-1.368 8.244-.42 3.006-.162 7 1.2 9.852-.036.153-.013.32.128.467.084.088.17.177.255.265.409.425 1.098-.121.799-.641z" fill="#ad7149"/><path d="m49.317 99.54c.031-.06.052-.126.059-.198.014-.163.029-.324.044-.486.049-.547-.732-.693-.987-.268-.044.074-.089.147-.133.223-.042.069-.064.139-.073.206-.48.021-.963.335-1.426.648-.792.536-1.673.492-2.59.56-1.299.094-2.171-.156-3.39-.557-.205-.067-.367-.003-.481.109-.628-.335-1.232-.724-1.863-1.114-.583-.361-1.114.555-.535.914 2.178 1.348 4.083 2.26 6.754 2.303 1.049.018 4.802-.394 4.95-1.844.021-.198-.137-.414-.329-.496z" fill="#ad7149"/><path d="m35.887 70.066c.356-.474-.302-.915-.725-.724-.571.259-1.012.667-1.377 1.156-.113.007-.225.056-.319.162-1.272 1.445-2.483 3.867-2.627 5.804-.009.121.033.227.1.312-.238.883-.372 1.793-.365 2.733.005.683 1.065.684 1.06 0-.01-1.228.258-2.4.682-3.524.262-.483.489-1.031.71-1.597.804-1.536 1.85-2.976 2.861-4.322z" fill="#ad7149"/><path clip-rule="evenodd" d="m85.401 60.997c.251.116.563.077.737-.125.177.01.353-.05.475-.228.366-.526.668-1.099.941-1.687.079-.081.146-.178.175-.313.008-.043.021-.084.029-.127.558-1.314.933-2.737 1.176-4.174.241-.803.455-1.613.567-2.452.002-.004 0-.008.003-.012.021-.162.026-.327.041-.489.187-.114.327-.317.321-.578-.019-.944-.281-1.841-.342-2.78-.023-.298-.207-.464-.426-.519-.044-.069-.094-.148-.152-.237.032-.058.06-.12.072-.192.213-1.161.328-2.332.439-3.504.289.151.672.109.821-.286.157-.415-.033-.82.031-1.246.028-.195-.068-.433-.231-.565-.003-.002.418.339.418.339l.021-.026c-.645-.886-.33-.721-.574-.823.356-.425.298-1.183-.102-1.861-.566-.968-1.67-1.436-2.513-.979-.322-.13-.694-.203-1.104-.188-.242.008-.435.175-.519.391-.072.055-.151.114-.201.201-.608 1.03-.769 2.369-.802 3.542-.009.332.169.559.398.652.035.076.083.14.15.191.021.079.029.159.056.237.02.059.064.093.099.139.01.082.02.168.031.242.036.253.244.457.481.532-.037.04-.084.063-.113.115-.47.823-.6 1.683-.59 2.603-.024.017-.108-.019-.128.005l-.01.013c.022-.026-.584-.211-.872.069-.249.242-.407.519-.57.784-.049.002-.077.023-.126.026-.182-.099-.385-.109-.559-.001-.296-.199-.71-.135-.902.253-.198.404-.279.866-.239 1.302-.072-.054-.158-.095-.257-.109-.097-.012-.187.002-.284-.003-.116-.133-.284-.225-.505-.211-1.031.062-2.137.097-3.153.323-.056-.065-.124-.124-.22-.169-.869-.416-2.044-.85-2.472.201-.046-.01-.093-.021-.144-.018-2.294.099-4.55.463-6.818.773-.631.049-1.26.123-1.892.204-.025-.001-.045-.149-.073-.149-1.66-.01-3.232.418-4.839.418-.005 0 .429 0 .429 0s0 .17 0 .171c0 .012-.326.076-.377.088-.105.026-.296.101-.355.157-.048-.014-.146-.018-.2-.021-1.408-.061-2.878-.013-4.298.169-.802.075-1.611.192-2.4.343-.107-.159-.292-.262-.549-.221-1.166.209-6.63.277-5.35 2.716.114.218.289.353.481.385.031.171.119.311.26.4.01.341.264.693.67.639.118-.015.228-.039.346-.056l.081-.009c.144.187.384.299.684.206 1.772-.548 3.657-.882 5.542-1.005.105.069.234.107.387.083.234-.036.467-.082.701-.127.497-.007.996-.016 1.488.009 1.414.072 2.786.183 4.096-.44.095-.045.166-.109.226-.18 2.08.101 4.147-.052 6.194-.366 1.254.054 2.521.004 3.721-.268.073.087.143.183.196.296.333.715 1.473.295 1.166-.418.625-.001 1.247-.002 1.873-.038.045-.003.079-.02.117-.03.049-.005.096-.001.147-.019.153-.049.311-.086.464-.134 1.539-.075 3.071-.247 4.549-.669-.129.246-.113.567.125.772.04.035.08.049.12.079.133.257.399.407.672.341.928.282 1.881-.039 2.758.555-.062.056-.127.113-.162.189-.539 1.124-.655 2.288-.646 3.492-.655.792-.934 1.759-.932 2.887-.001.139.054.241.125.325-.106.249-.196.504-.267.742-.133.053-.183.073-.385.074-.318 0-.618.373-.556.682.063.31.149.628.41.835.286.228.642.331.913.573.324.292.771.101.96-.231.439-.769.645-1.621.826-2.48z" fill="#00779b" fill-rule="evenodd"/><path d="m64.945 33.606h1.214v32.513h-1.214z" fill="#061644" transform="matrix(.0937 .9956 -.9956 .0937 109.0508 -20.0746)"/><path d="m64.775 38.081h1.212v32.514h-1.212z" fill="#061644" transform="matrix(.0939 .9956 -.9956 .0939 113.3415 -15.8549)"/><path d="m84.178 38.636c-.313 1.352-.491 2.795-.394 4.183.055.782 1.262.655 1.205-.125-.09-1.287.096-2.621.387-3.873.175-.761-1.024-.944-1.198-.185z" fill="#061644"/><path d="m83.889 43.547c1.142.742 1.056 1.635.172 2.562-.646.676-1.794 1.282-2.741 1.031-.755-.201-.937.999-.188 1.197 3.012.8 6.805-3.597 3.521-5.732-.648-.42-1.42.517-.764.942z" fill="#061644"/><path d="m84.739 64.87c.595-1.688 1.223-3.361 1.738-5.077.352-1.171.969-2.87.444-4.092-.855-2.005-3.631-2.238-5.549-2.047-.779.078-.653 1.283.124 1.206.798-.079 1.652.051 2.447.155 1.613.216 2.058 1.173 1.811 2.72-.362 2.272-1.365 4.486-2.126 6.646-.258.733.849 1.228 1.111.489z" fill="#061644"/><path d="m83.805 54.612c.275 2.8-1.345 5.31-2.295 7.836-.272.729.835 1.222 1.111.489 1.031-2.745 2.688-5.407 2.39-8.45-.076-.779-1.282-.653-1.206.125z" fill="#061644"/><path d="m83.069 63.271c-.285-.331-.59-.641-.92-.929-.591-.515-1.352.428-.765.941.247.217.48.444.697.691.507.588 1.499-.112.988-.703z" fill="#061644"/><path d="m84.371 63.98c-.285-.155-.564-.321-.85-.474-.687-.373-1.171.74-.487 1.11.284.154.564.318.851.474.686.37 1.171-.741.486-1.11z" fill="#061644"/><path d="m84.295 59.978c-.157.834-.588 1.642-.922 2.416-.171.396-.675 1.161-.57 1.62.084.376.688.319.603-.064-.026-.111.152-.438.208-.571.168-.415.352-.826.528-1.237.286-.664.618-1.354.751-2.07.075-.385-.525-.477-.598-.094z" fill="#061644"/><path d="m90.344 47.57c-.785-.839-1.146-2.871.15-3.445.713-.316.289-1.452-.427-1.135-1.983.878-2.09 3.811-.71 5.284.526.562 1.521-.136.987-.704z" fill="#061644"/><path d="m89.346 48.033c1.019 2.607-.696 6.367-1.504 8.844-.812 2.488-2.13 4.891-3.79 6.909-.497.604.444 1.37.941.765 2.194-2.666 3.572-5.804 4.555-9.094.751-2.516 1.941-5.272.932-7.851-.284-.729-1.421-.3-1.134.427z" fill="#061644"/><path d="m90.964 43.333c-.324-1.354.082-3.019.345-4.358.15-.767-1.048-.952-1.197-.186-.312 1.582-.664 3.377-.28 4.971.183.76 1.314.323 1.132-.427z" fill="#061644"/><path d="m91.033 38.34c-.965-.752-2.434-.952-3.612-1.043-1.009-.077-2.543-.073-3.017 1.03-.31.717.801 1.207 1.11.486.249-.579 1.874-.311 2.331-.256.77.092 1.792.232 2.424.724.615.479 1.382-.46.764-.941z" fill="#061644"/><path d="m80.55 48.081c.305.955.348 2.006.371 3.002.022.857.068 2.004-.392 2.772-.4.668.713 1.149 1.111.487.534-.891.486-2.14.49-3.139.005-1.178-.087-2.419-.445-3.548-.236-.749-1.37-.316-1.135.426z" fill="#061644"/><path d="m88.691 42.559c-.551.125-1.093.06-1.648.012-.387-.034-.482.564-.092.599.603.052 1.205.129 1.803-.009.375-.086.318-.69-.063-.602z" fill="#061644"/><path d="m49.352 55.311c-.536.265-.869-1.149-.929-1.517-.135-.822-.019-2.029 1.065-1.971.772.041.968-1.156.186-1.199-4.262-.23-2.314 7.015.104 5.821.695-.342.273-1.48-.426-1.134z" fill="#061644"/><path d="m82.951 30.594c.059-.082.095-.181.1-.294.061-1.643-1.293-2.617-2.657-3.238-.39-.66-.905-1.282-1.661-1.867-1.72-1.336-3.834-2.578-5.971-3.077-.438-.102-.849-.084-1.226.016-.797-.098-1.616-.113-2.39-.067-.053-.039-.107-.071-.167-.09-1.355-.425-2.863-.26-4.266-.236-.696.013-1.375.172-1.822.602-.376.064-.701.214-.964.438-.286-.016-.59.016-.911.115-.781.243-1.356.829-1.891 1.333-.029.021-.057.271-.087.271h-.007c-1.888 1-2.474 1.118-3.536 2.91-.152.257-.07.387.098.53-.459.858-.764 1.61-.854 2.674-.001.006-.003-.117-.005-.14-.004.037-.015.22-.018.264-.025.39.388.645.703.563.268 2.359 1.686 5.157 3.884 6.071.64.632 1.433 1.112 2.434 1.332.445.542.676.699.722 1.63.002.027.011.059.015.086-.333.39-.576.847-.835 1.285-.257.433-.317 1.02-.371 1.509-.031.271.064.518.204.737-.137.218-.282.43-.413.652-.455.773.566 1.815 1.318 1.242 2.667-2.033 5.901-3.113 8.572-5.207 3.025.639 6.454-.328 9.262-1.479 1.409-.577 3.047-2.298 3.085-3.91.01-.357-.009-.684-.041-.996.044-.101.094-.195.127-.309.416-1.333.144-2.402-.431-3.35z" fill="#fff"/><path d="m54.734 30.433v.014l.002-.014z" fill="#fff"/><path d="m65.133 70.986c-.183-.936-.795-1.406-1.61-1.789-.255-.12-.592-.167-.877-.186-.279-.02-.51.002-.722.045-.006-.022.001-.046-.005-.068-.066-.368-.135-.734-.207-1.101.293-.851.096-2.126-.215-3.171-.309-2.693-1.093-5.802-3.176-6.849-.064-.109-.126-.221-.193-.329-.197-.434-.4-.866-.576-1.306-.106-.272-.366-.36-.595-.325-.63-.764-1.346-1.454-2.145-2.071.118-.288-.028-.717-.442-.755-.009-.001-.018-.005-.027-.006-.39-.606-1.058-.963-1.812-.854-.397-.259-.802-.501-1.247-.618.106-1.18-.867-2.441-2.154-2.452-3.267-.027-6.512-.121-9.774-.191-1.206-.025-2.423.152-3.405.768-.166-.175-.366-.275-.668-.209-.473.102-.444.667-.137.893-.071.078-.147.149-.213.235-.185.247-.308.514-.396.787-4.874 1.316-8.525 6.352-9.368 11.447-.756.82-.469 1.983-.885 2.958-.065.152-.054.299-.001.422-.427.718-.587 1.59-.304 2.555l.373-.147c-.245.225-.482.457-.705.695-.973.051-3.282 1.385-2.502 2.28-.192.322.067 1.503 0 1.896-.144.845 1.877.165 2.221-.436.128-.061.241-.146.303-.279.081-.175.119-.33.145-.486.959-.079 1.794-.313 2.727-.626 1.852-.622 3.454-.466 5.353-.217 1.779.233 3.922.199 5.569-.521.242-.107.401-.31.49-.538 1.87.188 3.783.148 5.629.407.578.083 1.043-.043 1.401-.287 2.143.132 4.259.195 6.516-.067 2.712-.315 5.156.633 7.796.816.031.147.091.292.201.43.574.692 1.087 1.208 1.866 1.639.705.392 1.488.51 2.279.573.676.054 1.364-.688 1.289-1.353-.016-.144-.041-.292-.07-.439.233-.329.358-.728.273-1.17z" fill="#f4d706"/><path d="m70.187 30.749c.064-.613-.303-1.224-.892-1.538-1.347-.715-3.164-.182-3.509 1.333-.079.2-.134.403-.176.607.06.088.099.188.155.28-.019.05-.04.091-.046.148-.052.578.166 1.08.171 1.636.004.486-.499.948-.097 1.297.082.07-.211.115-.211.142v.036c0 .176 1.34.186 1.832-.116.006-.003.01-.007.016-.01.345.127.685.216 1.057.237.314.018.641-.358.51-.67-.003-.008-.008-.014-.011-.021.08-.269.19-.519.354-.762.124-.186.102-.363.014-.503.033-.04.07-.081.077-.119.019-.019.11-.025.13-.046.458-.578.947-1.261.626-1.931z" fill="#f4d706"/><path d="m66.976 30.245c-.165.093-.29.244-.336.43-.19.763.836 1.125 1.21.584.423-.505-.189-1.404-.874-1.014z" fill="#fff"/><path d="m31.768 55.317c-2.634 2.323-5.063 5.061-5.531 8.666-.103.789 1.133.78 1.234 0 .42-3.237 2.826-5.727 5.169-7.793.599-.528-.278-1.398-.872-.873z" fill="#fff"/><path d="m51.113 107.75c-.12.1-.25.19-.38.27-.01.131-.07.25-.21.311-1.25.61-2.54 1.39-3.94 1.34-.02 0-.04-.01-.06-.01-.27.08-.53.149-.8.229-.06.21-.24.38-.5.341-.04-.011-.07-.011-.11-.021-.15-.03-.3-.07-.45-.09-.04 0-.07.01-.1.01s-.05-.01-.07-.01c-.01 0-.02.01-.04.01-.03 0-.05-.02-.08-.02-.3-.03-.58-.101-.87-.181l-.29-.17-6.33-3.67-.23-.13c-.07-.14-.14-.28-.19-.43-.03-.07-.07-.15-.11-.23-.01-.01-.03-.02-.05-.03-.26-.21-.23-.579-.03-.76 0-.05-.02-.109-.02-.16.01-.14.06-.455.15-.545.05-.049.12-.305.18-.305h.02c.06 0 .12.186.18.205.05.02.1.138.15.157.23.08.34.358.29.619 0 .02.01.074.01.104.47.18.91.422 1.36.692.02 0 .04-.004.06.006 1.18.36 2.31.863 3.43 1.413 1-.08 1.97.141 2.95.44.02.011.04.021.06.041.61-.33 1.22-.459 1.86-.519.14-.05.29-.09.43-.11.24-.12.47-.22.71-.31.65-.32.63-.82 1.29-1.101.08-.069.14-.14.19-.21.1-.14.16-.279.28-.43.03-.04.06-.07.1-.11l-.19-.01c.061-.16-.18-.33-.18-.479v-.011c0-.069.17-.14.16-.199-.03-.08.05-.16.04-.23-.02-.12.03-.21.101-.25.04-.04.135-.05.255-.04.09.01.332.07.582.16.13.04.267.09.386.13.09.05.174.08.244.12.18.1.301.189.301.27 1.11 1.523.532 3.053-.539 3.903z" fill="#fff"/><path d="m60.593 112.21c0 .01-.01.03-.01.04-.09.48-.23.92-.4 1.33-.01.18.19.36.19.54 0 .31.14.61.19.92l-.391.25-2.01 1.21c-.01 0-.01 0-.01 0-.24 0-.391-.25-.44-.46 0-.01-.01-.021-.01-.03-.061-.25.05-.569.32-.7-.051-.09-.091-.22-.08-.369.04-.79.12-1.511.279-2.28 0-.04.021-.061.021-.09-.101-1.061-.13-2.21-.061-3.33-.02-.3-.05-.601-.06-.9-.021-.08-.03-.17-.021-.28.011-.1 0-.199.011-.31 0-.17.02-.35.029-.53 0-.04.011-.09.011-.14.01-.05.01-.11.01-.16.01-.06.03-.1.04-.14-.05-.771-.07-1.54-.05-2.34 0-.32.18-.53.37-.57 0-.09-.011-.18-.011-.26 0-.04.025-.08.025-.12.01-.05.045-.09.045-.13v.14s0-.16 0-.17c0 0 0 0 0-.01 0-.011 0-.011.01-.021 0-.01.01-.03.021-.04.14-.279.43-.399.609-.08.051.101.2.19.239.28.012.01.121.021.121.03v.01c0-.01-.1 0-.1 0 .01.04-.025.07-.016.11.02-.03.003-.051.013-.08 0 0-.014-.011-.004-.011 0-.01.003-.02.014-.029.17-.28.517-.406.667-.016.01.01.216.025.216.025s.01 0 .03 0c.06 0 .18.05.18.06v.04s-.05-.055-.1-.045c.01 0 .01-.055.01-.055h.03c.02 0 .04.096.06.115.03.029.06.112.1.183.07.09.061.245.061.396.01 1.16 0 2.318-.05 3.459.102 1.51.162 3.148-.098 4.558z" fill="#f9f330"/><path d="m36.511 102.307c-.862.001-1.743.005-2.626.01.022.141-.005.292-.112.431-.212.273-.524.507-.878.683 1.208-.006 2.427-.011 3.611-.014.642-.001.648-1.112.005-1.11z" fill="#061644"/><path d="m67.973 110.83-.39.31c0-.06 0-.109-.01-.17l-.3.17-.36.21c-.811-3.619-2.24-6.859-4.811-7.33-.189-.029-.34-.199-.42-.409-.01-.03-.04-.07-.04-.11 0 0-.01 0-.01-.01-.01-.021-.01-.05-.02-.08 0-.01-.011-.03-.011-.05-.029-.17-.029-.351 0-.5.021-.141.061-.261.12-.351.051-.09.12-.149.21-.16.04-.02.091-.02.15-.01.2.04.4.09.59.15.33.109.65.26.94.43 2.2 1.33 3.609 4.47 4.34 7.83.012.03.012.05.022.08z" fill="#061644"/><path d="m66.944 35.53c-.303.311-.563.624-.542 1.078.042.876 1.408.879 1.363 0 .007.09.055.052.143-.114.611-.63-.352-1.597-.964-.964z" fill="#061644"/><path d="m39.406 57.773c.615 0 .615-.955 0-.955-.616.001-.616.955 0 .955z" fill="#fff"/><path d="m37.525 52.284c.627.541.735 1.353.838 2.132.079.601 1.035.608.954 0-.135-1.025-.289-2.092-1.118-2.807-.463-.399-1.141.273-.674.675z" fill="#fff"/><g fill="#061644"><path d="m26.597 81.331c-1.891-1.126-3.935-2.335-4.75-4.464-1.117-2.92 2.511-3.98 4.606-4.408 4.832-.984 9.959-1.076 14.871-1.146 4.022-.059 8.065-.14 12.074.233 1.737.162 3.465.391 5.182.691 1.249.219 3.127.418 4.089 1.317.453.426 1.143-.248.688-.674-2.218-2.078-7.099-2.005-9.959-2.289-6.144-.608-12.495-.372-18.646-.005-3.877.231-9.826.146-12.959 2.806-3.711 3.15 1.863 7.305 4.312 8.762.538.322 1.027-.505.492-.823z"/><path d="m60.013 81.166c2.857.082 5.099-1.728 5.246-4.645.168-3.278-2.836-5.149-5.763-5.261-.616-.023-.613.931 0 .954 2.441.094 4.625 1.414 4.807 4.028.176 2.524-1.967 4.035-4.29 3.969-.616-.017-.614.937 0 .955z"/><path d="m21.583 75.5s0-3 0-5c0-1-.953-1-.953 0h.954c0-1-1.001-1-1.001 0v5z"/><path d="m21.944 70.12c.888-.729 2.269-.74 3.398-1.071.703-.207.399-1.13-.311-.921-1.354.398-2.844.438-3.913 1.317-.531.438.295 1.113.826.675z"/><path d="m65.583 75.5s0-3 0-5h-1v1h1s0 0 0-1h-1v5z"/><path d="m60.542 68.954c.72-.021 1.48.317 2.125.603.37.164 1.483.573 1.594 1.022.147.598 1.068.345.921-.253-.188-.762-1.232-1.209-1.859-1.513-.834-.405-1.834-.84-2.78-.813-.616.017-.618.971-.001.954z"/><path d="m24.345 68.366c.058-3.692.955-7.099 2.974-10.208 1.706-2.628 4.992-5.906 8.194-6.429.402-.066.47-.7.114-.873-.054-.026-.108-.052-.162-.078-.552-.266-1.036.557-.481.824.054.026.108.052.162.079.038-.291.076-.582.114-.873-3.346.547-6.44 3.757-8.405 6.355-2.428 3.211-3.402 7.239-3.463 11.203-.011.616.943.615.953 0z"/><path d="m34.385 49.673c.326 1.189.736 2.351 1.243 3.475.252.56 1.075.074.824-.482-.472-1.047-.843-2.139-1.147-3.246-.162-.593-1.083-.341-.92.253z"/><path d="m62.585 68.366c-.063-4.063-1.119-7.86-3.465-11.203-1.84-2.622-5.147-5.821-8.405-6.355.038.291.076.582.114.873.054-.026.108-.052.162-.079.554-.267.07-1.089-.482-.824-.054.026-.108.052-.162.078-.356.172-.288.807.114.873 3.292.539 6.365 3.822 8.195 6.429 2.097 2.988 2.918 6.61 2.974 10.208.01.615.964.616.955 0z"/><path d="m50.667 49.419c-.301 1.108-.672 2.2-1.146 3.246-.251.556.571 1.042.824.482.508-1.123.92-2.285 1.242-3.475.161-.593-.76-.846-.92-.253z"/><path d="m51.583 48.5s-12 0-17 0c-1 0-1 1 0 1h17z"/><path d="m37.583 99.5v5h1c0-1 0-1 0-2h-1v2h1c0-2 0-4 0-5s-1-1-1 0z"/><path d="m48.896 99.116c.012 1.782.042 3.565.054 5.348.004.645 1.004.646 1 0-.001-.188-.002-.377-.003-.565-.004-.645-1.004-.627-1 .018.001.189.002.584.003.584h1c-.012-2-.042-3.584-.054-5.365-.004-.646-1.004-.665-1-.02z"/><path d="m36.27 103.853c3.564 4.004 10.338 5.383 13.945.713.395-.51-.475-1.007-.863-.504-3.23 4.182-9.311 2.525-12.375-.916-.43-.483-1.134.227-.707.707z"/><path d="m35.938 55.221c.139 1.667.201 3.314-.208 4.95-.149.597.771.851.92.253.43-1.718.388-3.451.242-5.204-.051-.607-1.006-.613-.954.001z"/><path d="m49.135 54.841c-.333 1.683-.423 3.443 0 5.118.158.625 1.122.36.964-.266-.377-1.495-.297-3.084 0-4.587.125-.629-.839-.898-.964-.265z"/><path d="m60.86 47.237c.83-2.324 1.598-4.82 1.982-7.263.099-.63-.864-.901-.965-.266-.384 2.442-1.152 4.938-1.982 7.263-.217.609.749.869.965.266z"/><path d="m61.067 47.602c3.173-1.953 6.195-4.141 9.536-5.808-.168-.288-.336-.576-.504-.863-.241.132-.482.265-.723.397-.585.246-.328 1.214.266.964.432-.182.571-.242.961-.498.541-.355.072-1.151-.504-.863-3.341 1.667-6.364 3.855-9.536 5.808-.549.337-.047 1.202.504.863z"/><path d="m49.583 103.461c0 .005 8 .029 12 .029 1 0 1-.99 0-.99-1 0-1 1 0 1 1 0 1-1.209 0-1.209-4 0-8-.025-12-.029 0-.001 0 1.198 0 1.199z"/><path d="m62.555 39.195c-5.632-1.628-10.07-9.01-5.396-13.853 3.428-3.552 9.74-3.587 14.255-2.889 5.046.781 10.434 4.231 11.853 9.359 1.927 6.966-7.265 10.19-12.528 8.747-.623-.171-.887.794-.266.964 5.221 1.432 13.481-1.008 13.927-7.37.462-6.615-6.378-11.382-12.182-12.568-5.214-1.066-13.137-.797-16.598 3.987-3.983 5.507.84 12.902 6.669 14.586.622.181.884-.784.266-.963z"/><path d="m66.187 34.345c.636-1.669-1.539-3.658.368-4.837 1.738-1.074 4.429.227 3.34 2.433-.229.461-.567.878-.862 1.298-.285.406-.332.826-.485 1.287-.102.307.381.438.482.133.28-.844.662-1.456 1.146-2.205.342-.529.534-1.093.501-1.723-.068-1.289-1.557-2.177-2.712-2.187-1.13-.009-2.56.795-2.749 1.969-.207 1.283.979 2.414.489 3.7-.116.301.369.431.482.132z"/><path d="m66.006 35.291c.939-.048 1.85.253 2.782.283.646.021.644-.979 0-1-.933-.03-1.843-.332-2.782-.283-.641.033-.644 1.033 0 1z"/><path d="m65.917 35.049c-.265.601-.468 1.291-.218 1.934.195.501.634.873 1.172.95 1.353.195 2.19-1.052 2.078-2.29-.058-.637-1.059-.643-1 0 .054.59-.13 1.303-.819 1.315-.718.012-.559-.931-.35-1.405.257-.583-.605-1.093-.863-.504z"/><path d="m67.956 35.443c.199-.034.453-.009.645.057.61.213.87-.753.266-.964-.362-.127-.803-.121-1.176-.057-.636.108-.366 1.072.265.964z"/><path d="m63.401 25.88c.398.643.723 1.325 1.081 1.99.153.284.585.032.432-.252-.358-.665-.682-1.348-1.081-1.99-.17-.273-.603-.022-.432.252z"/><path d="m71.641 29.007c.557-.512 1.166-.957 1.754-1.432.251-.203-.105-.554-.354-.354-.588.474-1.197.92-1.754 1.432-.237.219.118.572.354.354z"/><path d="m72.571 32.469c.755-.053 1.51-.021 2.266-.026.322-.002.322-.502 0-.5-.756.005-1.511-.027-2.266.026-.32.023-.322.523 0 .5z"/><path d="m61.664 31.039c.756-.01 1.507.068 2.261.104.322.016.321-.484 0-.5-.754-.037-1.505-.114-2.261-.104-.323.004-.323.504 0 .5z"/><path d="m68.357 26.508c.052-.753.188-1.496.284-2.244.041-.319-.46-.315-.5 0-.096.749-.232 1.491-.284 2.244-.023.322.477.32.5 0z"/><path d="m36.883 106.09-.23-.13-1.07-.62c-.09-.46-.1-1.03.02-1.59.06-.29.14-.57.27-.83.15-.29.44-.42.66-.42h.01c.04.22.08.37.12.48.13.399.19.239.08.449-.03.07-.06.16-.09.261-.02.069-.04.14-.05.199 0 .011 0 .021-.01.03 0 .05-.01.09-.02.13-.01.03-.02.061-.02.101-.13.63.021 1.36.33 1.94z"/><path d="m57.583 103.5v12c0 1 1 1 1 0 0-4 0-8 0-12 0-1-1-1-1 0z"/><path d="m61.583 103.5v10.94l-1 .579v-11.46c0-.04 0-.06 0-.06h1z"/><path d="m30.274 72.605c.025-.304.069-.598.112-.891-.33.049-.657.102-.987.147-.265 1.691-.312 3.478-.166 5.284.487 6.02 3.292 18.481-4.581 21.095-.645.215-.369 1.237.281 1.022 6.352-2.109 6.404-10.633 6.035-16.066-.241-3.552-.983-7.01-.694-10.591z"/><path d="m26.208 72.234c-.313.031-.628.066-.939.094-.036 1.771.083 3.529.217 5.112.529 6.243 4.138 15.748-.802 20.85-.476.49.273 1.24.749.749 4.381-4.523 2.372-11.597 1.634-17.111-.361-2.698-.941-6.273-.859-9.694z"/><path d="m31.958 71.468c-1.011 1.833-1.783 3.882-2.291 6.137-.15.665.871.947 1.021.281.563-2.499 1.456-4.724 2.647-6.667-.457.086-.915.17-1.377.249z"/><path d="m31.743 72.147c-3.167 5.271-1.892 13.601.486 18.974 2.189 4.947 6.612 10.631 12.823 9.626.635-.103.365-1.049-.266-.947-6.128.992-10.294-5.448-12.116-10.255-1.845-4.87-2.865-12.238-.063-16.902.328-.547-.537-1.04-.864-.496z"/><path d="m44.653 100.83c3.042.158 6.485-3.127 7.913-5.508.328-.546-.537-1.04-.863-.494-1.252 2.087-4.381 5.159-7.049 5.02-.645-.034-.642.948-.001.982z"/><path d="m38.474 92.287c2.707 2.57 7.256 2.048 10.042-.132.508-.397-.206-1.1-.707-.707-2.348 1.837-6.351 2.294-8.627.132-.468-.443-1.176.262-.708.707z"/><path d="m64.896 98.487c.154 3.893-4.308 2.479-5.822.473-2.231-2.954-1.061-8.274-.407-11.546 1.024-5.132 2.613-9.877 2.996-15.007-.323-.057-.646-.113-.969-.169-.229 3.731-1.07 7.28-2.05 10.969-1.168 4.401-2.266 9.087-1.436 13.642.494 2.71 2.371 4.629 5.085 5.091 2.348.4 3.689-1.252 3.603-3.452-.025-.643-1.025-.646-1-.001z"/><path d="m30.454 100.73c-.04.199-.09.399-.16.6-.06.229-.14.45-.25.66-.01.04-.03.069-.05.109l-.06-.04-.77-.439c.37-.84.39-2.271.34-2.68-.11-.87-.36-1.721-.77-2.49-.1-.19-.21-.38-.33-.561-.19-.279-.04-.55.2-.67.21-.1.49-.08.66.17.02.04.05.07.07.11.95 1.481 1.47 3.491 1.12 5.231z"/><path d="m37.253 98.16c-.03.16-.07.33-.12.49-.07.239-.15.479-.24.72-.07.189-.15.38-.24.57-.6 1.27-1.54 2.449-2.65 3.29-.31.239-.63.449-.97.63l-.53-.311-.46-.26c.12-.05.25-.11.37-.18 1.91-.99 3.48-3.23 3.88-5.221 0-.01.01-.029.01-.04.04-.14.12-.229.23-.27.321-.158.821.112.72.582z"/><path d="m34.746 79.908c1.458-1.291 3.899-1.489 5.185.133.4.506 1.103-.207.707-.707-1.633-2.063-4.771-1.751-6.599-.133-.484.429.226 1.133.707.707z"/><path d="m34.326 78.922c-.194.024-.212.024-.297-.149-.281-.58-1.144-.073-.863.504.221.456.652.71 1.16.646.631-.081.639-1.082 0-1.001z"/><path d="m36.095 78.958c-.722 2.418 3.776 2.373 3.215-.133-.141-.629-1.105-.362-.964.266.183.817-1.545.999-1.287.133.185-.62-.781-.882-.964-.266z"/><path d="m38.387 78.671c-.335-.291-.778-.532-1.176-.196-.275.233-.265.661-.173.977.099.339.353.645.73.648.547.006.729-.654.813-1.074.054-.269-.073-.537-.349-.615-.48-.136-1.021-.125-1.396.243-.466.457-.018 1.021.382 1.3.531.369 1.03-.498.505-.863-.22.214-.234.293-.043.234.099-.003.194.014.287.051-.117-.205-.233-.41-.349-.615-.032.158-.057.328-.138.471.088-.155.384-.169.51-.047.04.038.027.046.012.002-.024-.069-.026-.14-.034-.083.003-.012.006-.023.009-.036-.063.174-.201.249-.413.227-.047-.007.079.053.116.085.485.418 1.195-.286.707-.709z"/><path d="m46.687 78.958c-.723 2.418 3.776 2.373 3.215-.133-.141-.629-1.104-.362-.964.266.183.816-1.546 1-1.287.133.185-.62-.78-.882-.964-.266z"/><path d="m48.979 78.671c-.335-.29-.778-.533-1.175-.196-.275.233-.265.661-.173.977.099.339.353.645.73.648.547.006.729-.654.813-1.074.054-.269-.073-.537-.349-.615-.48-.136-1.021-.125-1.396.243-.466.457-.018 1.022.382 1.3.531.369 1.03-.498.505-.863-.22.214-.234.293-.043.234.099-.003.194.014.287.051-.117-.205-.233-.41-.349-.615-.032.158-.057.328-.138.471.088-.155.384-.169.51-.047.04.038.028.046.013.002-.024-.069-.026-.14-.034-.083.003-.012.006-.023.009-.036-.064.174-.202.249-.414.227-.047-.007.079.053.116.085.483.419 1.193-.286.706-.709z"/><path d="m40.912 86.279c.523.908.945 1.696 2.069 1.829 1.153.137 2.067-.693 2.42-1.728.209-.612-.757-.872-.964-.266-.25.729-.875 1.127-1.637.958-.509-.112-.795-.901-1.024-1.298-.323-.557-1.187-.054-.864.505z"/><path d="m63.883 101.017c-1.936 4.435-7.984-.166-9.521-2.452-1.816-2.702-2.473-6.18-2.685-9.369-.418-6.297 2.219-12.592.136-18.501-.363-.022-.727-.045-1.09-.067.978 2.46 1.077 5.012.868 7.621-.092-.013-.189-.009-.291.039-.111.052-.256.176-.383.219-1.8-1.21-4.807-.744-6.472.484-.513.378-.015 1.247.505.863 1.424-1.05 4.021-1.522 5.542-.44.005.003.009.003.014.006.079.085.199.133.359.112.246-.031.436-.122.627-.222-.146 1.378-.352 2.771-.536 4.172-.518 3.948-.375 7.854.769 11.68.932 3.117 2.758 5.976 5.65 7.568 2.243 1.235 6.156 1.578 7.372-1.209.255-.584-.606-1.094-.864-.504z"/><path d="m50.003 110.67c-.81.7-1.78 1.09-2.71 1.45l-1.19-.69c3.04-1.279 6.4-3.17 5.12-6.85-.11-.311-.25-.63-.43-.97-.03-.051-.04-.101-.05-.15-.1-.5.65-.88.92-.36.03.061.06.12.09.181.03.069.07.13.09.189 1.24 2.71.441 5.22-1.84 7.2z"/></g><path d="m10.313 37.735v53.12l46.074 26.56 46.073-26.56v-53.12l-46.073-26.56zm90.284 1.08v50.97l-44.21 25.49-44.211-25.49v-50.97l44.211-25.489z" opacity=".13"/></svg>