<svg enable-background="new 0 0 110.667 127.834" height="127.834" viewBox="0 0 110.667 127.834" width="110.667" xmlns="http://www.w3.org/2000/svg" xmlns:xlink="http://www.w3.org/1999/xlink"><clipPath id="a"><path d="m86.025 10.859h-61.384l-30.691 53.191 30.691 53.193h61.384l30.691-53.193z"/></clipPath><linearGradient id="b" gradientUnits="userSpaceOnUse" x1="55.7417" x2="55.7417" y1="117.9346" y2="25.3231"><stop offset="0" stop-color="#ba6963"/><stop offset=".1198" stop-color="#b56966"/><stop offset=".2693" stop-color="#a56a6d"/><stop offset=".4346" stop-color="#8c6b79"/><stop offset=".6112" stop-color="#686d8a"/><stop offset=".797" stop-color="#3b6ea0"/><stop offset=".9877" stop-color="#0471ba"/><stop offset="1" stop-color="#0071bc"/></linearGradient><linearGradient id="c"><stop offset="0" stop-color="#666"/><stop offset=".503" stop-color="#fff"/><stop offset="1" stop-color="#666"/></linearGradient><linearGradient id="d" gradientUnits="userSpaceOnUse" x1="43.6978" x2="66.9077" xlink:href="#c" y1="95.3574" y2="95.3574"/><linearGradient id="e" gradientUnits="userSpaceOnUse" x1="43.6978" x2="66.9077" xlink:href="#c" y1="98.1914" y2="98.1914"/><linearGradient id="f" gradientUnits="userSpaceOnUse" x1="43.6978" x2="66.9077" xlink:href="#c" y1="101.0234" y2="101.0234"/><linearGradient id="g" gradientUnits="userSpaceOnUse" x1="43.6978" x2="66.9077" xlink:href="#c" y1="103.8574" y2="103.8574"/><linearGradient id="h" gradientUnits="userSpaceOnUse" x1="43.6978" x2="66.9077" xlink:href="#c" y1="106.6895" y2="106.6895"/><linearGradient id="i" gradientUnits="userSpaceOnUse" x1="43.6978" x2="66.9077" xlink:href="#c" y1="109.5234" y2="109.5234"/><radialGradient id="j" cx="55.3027" cy="55.5957" gradientUnits="userSpaceOnUse" r="21.2463"><stop offset="0" stop-color="#fff"/><stop offset=".9" stop-color="#fff" stop-opacity=".1"/><stop offset="1" stop-color="#fff" stop-opacity="0"/></radialGradient><linearGradient id="k"><stop offset=".0024" stop-color="#876963"/><stop offset="1" stop-color="#876963" stop-opacity="0"/></linearGradient><linearGradient id="l" gradientUnits="userSpaceOnUse" x1="50.0635" x2="31.1492" xlink:href="#k" y1="73.4902" y2="66.2745"/><linearGradient id="m" gradientTransform="matrix(-1 0 0 1 121.667 0)" gradientUnits="userSpaceOnUse" x1="61.1245" x2="42.2112" xlink:href="#k" y1="73.4902" y2="66.2749"/><linearGradient id="n" gradientUnits="userSpaceOnUse" x1="45.3335" x2="65.3032" xlink:href="#c" y1="114.1445" y2="114.1445"/><g clip-path="url(#a)"><path d="m92.748 11.18c.821.642 1.605 1.328 2.359 2.05h32.728v-2.05z" fill="#b3b3b3"/><path d="m50.766 12.131c-1.078.4-2.169.756-3.264 1.099h26.189c-1.402-.615-2.779-1.275-4.082-2.05h-18.162c-.01.389-.215.778-.681.951z" fill="#b3b3b3"/><path d="m21.07 11.18h-36.808v2.05h34.072c.904-.693 1.817-1.375 2.736-2.05z" fill="#b3b3b3"/><path d="m47.639 10.946c-.001.025-.014.048-.017.073.867-.285 1.736-.562 2.613-.816.838-.244 1.309.497 1.187 1.149h18.466c-1.03-.594-2.009-1.269-2.918-2.05h-16.316c-.995.567-2 1.115-3.015 1.644z" fill="#808080"/><path d="m23.651 9.302h-39.389v2.05h36.574c.935-.688 1.874-1.371 2.815-2.05z" fill="#808080"/><path d="m90.111 9.302c.988.629 1.932 1.322 2.848 2.05h34.876v-2.05z" fill="#808080"/><path d="m86.405 7.254c1.272.618 2.516 1.291 3.706 2.048h37.724v-2.048z" fill="#666"/><path d="m32.617 7.254c-.028.04-.041.083-.077.12-.633.657-1.285 1.295-1.941 1.928h.101c.973-.704 1.962-1.385 2.965-2.048z" fill="#666"/><path d="m53.696 7.254c-.072.171-.179.33-.357.443-.883.558-1.779 1.089-2.685 1.605h16.315c-.345-.296-.688-.596-1.01-.928-.357-.368-.356-.79-.173-1.12z" fill="#666"/><path d="m26.481 7.254h-42.219v2.048h39.389c.945-.682 1.89-1.364 2.83-2.048z" fill="#666"/><path d="m27.329 6.637c.679-.498 1.371.11 1.445.789h.353c.73-.545 1.462-1.089 2.203-1.622.951-.683 1.975.779 1.212 1.57-.017.018-.035.034-.052.051h.919c1.061-.707 2.134-1.397 3.236-2.05h-52.381v2.05h41.983c.36-.262.722-.525 1.082-.788z" fill="#333"/><path d="m66.345 5.375h-15.838c-.053.054-.098.113-.169.155-.265.159-.528.322-.793.481.231-.1.457-.212.689-.309.519-.217.991.152 1.177.623.387-.15.768-.311 1.157-.456.96-.359 1.529.854 1.051 1.556h12.087c.169-.537.823-.918 1.466-.622.464.214.938.415 1.406.622h.709c-.998-.65-1.986-1.321-2.942-2.05z" fill="#333"/><path d="m81.858 5.375c1.669.578 3.304 1.261 4.888 2.05h41.089v-2.05z" fill="#333"/><path d="m98.635 19.107c.736.756 0 2.084-1.017 1.633.173.136.34.279.511.418h29.705v-2.051z" fill="#b3b3b3"/><path d="m29.521 21.021c-.069.044-.136.092-.205.137h60.266c-1.207-.635-2.385-1.333-3.562-2.051h-52.656c-1.288.627-2.57 1.266-3.843 1.914z" fill="#b3b3b3"/><path d="m11.417 19.107h-27.154v2.051h25.133c.654-.704 1.331-1.385 2.021-2.051z" fill="#b3b3b3"/><path d="m33.02 19.278h53.282c-.852-.518-1.701-1.045-2.563-1.566-.355-.162-.711-.323-1.066-.484h-45.318c-1.456.662-2.9 1.348-4.335 2.05z" fill="#808080"/><path d="m13.446 17.229h-29.184v2.05h26.979c.718-.701 1.453-1.385 2.205-2.05z" fill="#808080"/><path d="m96.361 17.229c-.039.084-.084.165-.144.236.799.481 1.571.978 2.288 1.506.124.091.219.196.289.308h29.04v-2.05z" fill="#808080"/><path d="m37.355 17.229h45.316c-1.506-.683-3.012-1.365-4.515-2.049h-36.029c-1.604.649-3.194 1.332-4.772 2.049z" fill="#666"/><path d="m15.859 15.179h-31.597v2.049h29.184c.79-.698 1.595-1.381 2.413-2.049z" fill="#666"/><path d="m96.24 15.179c-.108.246-.31.452-.564.556.109.078.221.158.33.235.486.343.542.858.355 1.258h31.474v-2.049z" fill="#666"/><path d="m45.935 13.715c-1.427.512-2.842 1.06-4.247 1.635h36.847c-.235-.107-.472-.213-.706-.32-1.307-.596-2.646-1.149-3.973-1.728h-26.587c-.445.138-.888.281-1.334.413z" fill="#333"/><path d="m18.24 13.302h-33.978v2.048h31.391c.85-.696 1.714-1.377 2.587-2.048z" fill="#333"/><path d="m95.182 13.302c.285.275.584.537.858.824.379.396.345.877.104 1.224h31.69v-2.048z" fill="#333"/><path d="m6.96 28.793c.205-.256.419-.503.628-.755.03-.343.125-.677.259-1.004h-23.585v2.048h22.545c.035-.102.082-.2.153-.289z" fill="#b3b3b3"/><path d="m20.821 27.034c-.989.693-1.983 1.377-2.986 2.048h110v-2.048z" fill="#b3b3b3"/><path d="m102.158 25.155c.393.737-.148 1.724-1.09 1.476-1.324-.349-2.556-.858-3.726-1.476h-73.852c-.97.686-1.941 1.37-2.914 2.05h107.258v-2.05z" fill="#808080"/><path d="m8.579 25.82c-.021-.052-.031-.106-.043-.16-.226.213-.517.465-.995.88-.808.702-2.271-.237-1.57-1.212.042-.059.088-.115.131-.173h-21.839v2.05h23.522c.17-.478.433-.941.794-1.385z" fill="#808080"/><path d="m23.49 25.155h73.852c-1.13-.597-2.201-1.297-3.242-2.05h-67.679c-.981.678-1.958 1.362-2.931 2.05z" fill="#666"/><path d="m7.7 23.105h-23.438v2.05h21.839c.512-.704 1.048-1.384 1.599-2.05z" fill="#666"/><path d="m100.314 23.105c.6.589 1.181 1.2 1.727 1.854.051.061.082.129.117.195h25.677v-2.05h-27.521z" fill="#666"/><path d="m98.213 21.227c.788.645 1.548 1.326 2.272 2.05h27.349v-2.05z" fill="#333"/><path d="m26.174 23.277h68.168c-.108-.078-.219-.153-.327-.231-1.511-.467-2.928-1.101-4.304-1.818h-60.499c-1.023.667-2.033 1.353-3.038 2.049z" fill="#333"/><path d="m9.333 21.227h-25.071v2.05h23.297c.574-.701 1.163-1.387 1.774-2.05z" fill="#333"/><path d="m8.041 34.959c-.567.413-1.135.826-1.703 1.238-.8.58-1.753-.463-1.445-1.238h-20.631v2.049h126.059c.006-.043.009-.087.015-.13-.001-.015-.001-.03-.002-.044.002 0 .004 0 .007.001.012-.089.017-.178.029-.267.166-1.168 1.909-.801 1.964.266.003.058.003.117.006.175h15.495v-2.049h-119.794z" fill="#b3b3b3"/><path d="m5.126 34.626c.004-.004.009-.007.013-.011-.214-.359-.235-.817.153-1.155.148-.129.3-.252.451-.378h-21.481v2.048h20.597c.031-.181.102-.358.267-.504z" fill="#808080"/><path d="m11.178 33.082c-.5.263-.995.535-1.506.782-.067.032-.134.039-.202.057-.555.404-1.109.807-1.664 1.21h120.028v-2.048h-116.656z" fill="#808080"/><path d="m6.551 32.404c-.417-.268-.653-.878-.417-1.371h-21.872v2.048h21.482c.269-.225.538-.451.807-.677z" fill="#666"/><path d="m14.806 31.033c-1.182.725-2.396 1.401-3.628 2.048h116.657v-2.048z" fill="#666"/><path d="m6.293 30.793c.211-.228.431-.446.645-.671-.174-.276-.242-.639-.154-.968h-22.522v2.049h21.807c.037-.145.109-.286.224-.41z" fill="#333"/><path d="m17.728 29.154c-1.057.705-2.127 1.39-3.213 2.049h113.32v-2.049z" fill="#333"/><path d="m-1.868 44.559c.059-.132.11-.266.172-.397.097-.208.287-.354.507-.432.054-.282.117-.563.176-.845h-14.725v2.049h13.272c.167-.19.375-.321.598-.375z" fill="#b3b3b3"/><path d="m5.81 42.886c-.265.181-.615.265-.943.176-.145.601-.246 1.231-.329 1.874h103.455c.081-.685.18-1.369.302-2.049h-102.485z" fill="#b3b3b3"/><path d="m116.436 42.886c-.031.683-.063 1.366-.096 2.049h11.494v-2.049z" fill="#b3b3b3"/><path d="m5.481 41.007c.182.182.346.38.549.655.466.63.01 1.238-.59 1.395h102.826c.12-.686.259-1.369.428-2.05z" fill="#808080"/><path d="m-.574 41.007h-15.164v2.05h14.689c.14-.685.298-1.369.475-2.05z" fill="#808080"/><path d="m116.392 41.007c.069.137.117.294.108.493-.022.519-.048 1.038-.072 1.557h11.406v-2.05z" fill="#808080"/><path d="m-.464 40.568c.142-.521.675-.759 1.149-.697.125-.308.256-.613.396-.912h-16.818v2.047h15.164c.037-.146.069-.292.109-.438z" fill="#666"/><path d="m3.321 38.959c-.012.519-.027 1.037-.041 1.555.027.163.042.328.061.493h.058c.232-.517.898-.936 1.439-.537.269.199.464.359.643.537h103.213c.104-.425.217-.85.343-1.272.142-.474.612-.741 1.06-.719.002-.019.005-.037.006-.056h-106.782z" fill="#666"/><path d="m112.41 38.959c.022.683.054 1.365.067 2.047h2.217c.418-.601 1.383-.62 1.698 0h11.442v-2.047z" fill="#666"/><path d="m-15.738 37.081v2.049h16.744c.044-.1.083-.204.131-.302.051-.107.118-.192.194-.263.001-.021.001-.043.002-.065.048-1.284 2.022-1.293 2 0-.004.21-.011.42-.017.63h106.267c.162-.076.337-.124.513-.115.063-.645.132-1.29.217-1.934z" fill="#333"/><path d="m112.342 37.081c.034.683.051 1.366.073 2.049h15.419v-2.049z" fill="#333"/><path d="m4.322 52.861h103.386c-.016-.684-.022-1.367-.023-2.049h-103.388c.008.691.017 1.377.025 2.049z" fill="#b3b3b3"/><path d="m-5.403 50.812h-10.334v2.049h9.472c.243-.707.516-1.4.862-2.049z" fill="#b3b3b3"/><path d="m118.755 50.812c.18.677.312 1.361.415 2.049h8.664v-2.049z" fill="#b3b3b3"/><path d="m-4.547 49.444c.042-.173.1-.34.147-.511h-11.338v2.05h10.256c.275-.536.578-1.054.935-1.539z" fill="#808080"/><path d="m4.296 48.934c-.007.685-.006 1.369.002 2.05h103.387c-.002-.684.007-1.368.025-2.05z" fill="#808080"/><path d="m118.141 48.934c.271.675.477 1.36.652 2.05h9.041v-2.05z" fill="#808080"/><path d="m-3.643 46.885h-12.095v2.049h11.338c.199-.705.446-1.39.757-2.049z" fill="#666"/><path d="m4.363 46.885c-.038.677-.06 1.36-.066 2.049h103.413c.02-.684.048-1.368.095-2.049z" fill="#666"/><path d="m117.835 46.885c.016.55.034 1.1.051 1.65.099.105.187.224.244.366.004.011.007.021.011.032h9.693v-2.049h-9.999z" fill="#666"/><path d="m116.337 45.007c-.016.322-.029.643-.045.965.581-.331 1.517.042 1.541.861.002.074.005.148.007.222h9.994v-2.048z" fill="#333"/><path d="m-2.538 45.007h-13.2v2.048h12.008c.322-.713.713-1.4 1.192-2.048z" fill="#333"/><path d="m4.53 45.007c-.084.668-.14 1.353-.176 2.048h103.44c.045-.685.11-1.367.189-2.048z" fill="#333"/><path d="m4.083 60.787h103.887c-.014-.682-.032-1.365-.056-2.049h-103.739c-.032.682-.06 1.366-.092 2.049z" fill="#b3b3b3"/><path d="m-7.512 58.737h-8.226v2.049h7.978c.079-.672.159-1.354.248-2.049z" fill="#b3b3b3"/><path d="m119.409 58.737c-.027.683-.063 1.366-.106 2.049h8.532v-2.049z" fill="#b3b3b3"/><path d="m4.167 58.91h103.752c-.022-.683-.048-1.366-.075-2.049h-103.585c-.033.683-.06 1.366-.092 2.049z" fill="#808080"/><path d="m-7.239 56.861h-8.499v2.049h8.205c.085-.68.182-1.364.294-2.049z" fill="#808080"/><path d="m119.445 56.861c0 .682-.014 1.365-.043 2.049h8.433v-2.049z" fill="#808080"/><path d="m4.29 56.161c-.011.233-.02.467-.031.7h103.585c-.026-.683-.053-1.367-.077-2.05h-103.442c-.005.46-.014.915-.035 1.35z" fill="#666"/><path d="m-6.827 54.811h-8.911v2.05h8.499c.113-.69.253-1.373.412-2.05z" fill="#666"/><path d="m119.378 54.811c.045.681.066 1.364.066 2.05h8.39v-2.05z" fill="#666"/><path d="m4.321 54.982h103.452c-.024-.683-.047-1.367-.063-2.049h-103.387c.009.704.008 1.385-.002 2.049z" fill="#333"/><path d="m-6.29 52.933h-9.448v2.049h8.869c.159-.699.353-1.382.579-2.049z" fill="#333"/><path d="m119.179 52.933c.101.679.168 1.362.209 2.049h8.446v-2.049z" fill="#333"/><path d="m-8.598 66.663h-7.14v2.051h6.829c.1-.685.205-1.368.311-2.051z" fill="#b3b3b3"/><path d="m3.821 66.663c-.029.684-.063 1.367-.091 2.051h104.173c.013-.684.024-1.367.037-2.051z" fill="#b3b3b3"/><path d="m119.049 66.663c-.003.684-.002 1.368-.007 2.051h8.792v-2.051z" fill="#b3b3b3"/><path d="m119.075 64.787c-.018.682-.024 1.364-.026 2.048h8.786v-2.048z" fill="#808080"/><path d="m-8.432 65.602c-.072-.281-.021-.539.117-.752l.009-.063h-7.432v2.048h7.114z" fill="#808080"/><path d="m3.905 64.787c-.03.683-.062 1.365-.092 2.048h104.124c.013-.683.022-1.365.032-2.048z" fill="#808080"/><path d="m-8.014 62.738h-7.724v2.049h7.432c.105-.685.199-1.367.292-2.049z" fill="#666"/><path d="m107.99 62.738h-103.993c-.031.683-.062 1.366-.091 2.049h104.064c.009-.588.018-1.176.021-1.764.001-.095-.001-.19-.001-.285z" fill="#666"/><path d="m119.174 62.738c-.009.133-.019.266-.027.399-.036.549-.058 1.099-.072 1.65h8.76v-2.049z" fill="#666"/><path d="m119.298 60.86c-.045.684-.09 1.368-.136 2.049h8.672v-2.049z" fill="#333"/><path d="m3.989 62.909h104.002c.003-.682-.006-1.365-.019-2.049h-103.891c-.032.683-.061 1.366-.092 2.049z" fill="#333"/><path d="m-7.891 61.874c.042-.331.082-.674.122-1.014h-7.969v2.049h7.7c.048-.345.104-.692.147-1.035z" fill="#333"/><path d="m3.458 75.223c.019.473.035.945.051 1.418h104.399c-.021-.683-.034-1.366-.042-2.051h-104.383c-.008.211-.017.422-.025.633z" fill="#b3b3b3"/><path d="m-9.514 74.59h-6.224v2.051h6.2c-.015-.683-.004-1.367.024-2.051z" fill="#b3b3b3"/><path d="m118.613 74.59c-.124.688-.282 1.373-.489 2.051h9.711v-2.051z" fill="#b3b3b3"/><path d="m118.871 72.713c-.066.688-.159 1.37-.288 2.049h9.252v-2.049z" fill="#808080"/><path d="m3.477 74.762h104.393c-.009-.683-.015-1.365-.013-2.049h-104.298c-.028.683-.055 1.366-.082 2.049z" fill="#808080"/><path d="m-9.39 72.713h-6.348v2.049h6.219c.025-.683.07-1.366.129-2.049z" fill="#808080"/><path d="m-9.172 70.663h-6.565v2.05h6.348c.059-.684.132-1.366.217-2.05z" fill="#666"/><path d="m3.643 70.663c-.006.145-.014.288-.02.433-.022.539-.043 1.078-.065 1.617h104.298c.002-.683.005-1.366.015-2.05z" fill="#666"/><path d="m119.003 70.663c-.025.687-.067 1.369-.133 2.05h8.964v-2.05z" fill="#666"/><path d="m3.727 68.787c-.029.683-.063 1.365-.091 2.048h104.233c.009-.683.021-1.365.033-2.048z" fill="#333"/><path d="m-8.92 68.787h-6.818v2.048h6.544c.083-.683.175-1.365.274-2.048z" fill="#333"/><path d="m119.042 68.787c-.005.685-.019 1.367-.046 2.048h8.839v-2.048z" fill="#333"/><path d="m3.52 84.565h105.036c-.008-.191-.021-.382-.026-.573-.074-.49-.125-.982-.185-1.475h-104.762c-.012.683-.032 1.366-.063 2.048z" fill="#b3b3b3"/><path d="m-2.485 84.076c-.24-.497-.457-.999-.642-1.509-.262.29-.543.563-.868.796-.413.297-1.155.105-1.368-.358-.075-.161-.138-.324-.206-.487h-.394c-.249.419-.515.824-.831 1.189-.521.604-1.452.222-1.671-.441-.083-.249-.152-.498-.224-.748h-7.05v2.048h13.364c-.035-.164-.078-.326-.11-.49z" fill="#b3b3b3"/><path d="m116.67 82.518c-.014.083-.025.165-.04.248-.12.675-.824.841-1.355.614-.032.397-.074.792-.116 1.186h12.676v-2.048z" fill="#b3b3b3"/><path d="m3.581 82.688h104.786c-.085-.682-.161-1.364-.222-2.049h-104.551c.003.684-.001 1.367-.013 2.049z" fill="#808080"/><path d="m-9.132 80.64h-6.605v2.049h7.101c-.203-.681-.367-1.364-.496-2.049z" fill="#808080"/><path d="m116.977 80.64c-.104.684-.214 1.366-.334 2.049h11.191v-2.049z" fill="#808080"/><path d="m3.594 80.64h104.551c-.06-.683-.115-1.365-.154-2.05h-104.427c.016.683.026 1.367.03 2.05z" fill="#666"/><path d="m-9.422 78.59h-6.315v2.05h6.605c-.128-.682-.225-1.365-.29-2.05z" fill="#666"/><path d="m117.261 78.59c-.088.684-.181 1.367-.284 2.05h10.857v-2.05z" fill="#666"/><path d="m3.569 78.761h104.429c-.039-.683-.063-1.366-.086-2.05h-104.4c.023.684.042 1.367.057 2.05z" fill="#333"/><path d="m-9.537 76.711h-6.201v2.05h6.33c-.07-.682-.113-1.365-.129-2.05z" fill="#333"/><path d="m118.103 76.711c-.093.298-.193.594-.306.889-.091.239-.268.42-.476.543-.025.206-.058.412-.084.618h10.597v-2.05z" fill="#333"/><path d="m113.796 90.444c.011.683.021 1.364.027 2.047h14.011v-2.047z" fill="#b3b3b3"/><path d="m2.916 90.559c-.019.645-.034 1.288-.052 1.933h108.936c-.036-.681-.069-1.364-.102-2.047h-.649c-.341.691-1.459.717-1.773 0h-106.344c-.006.037-.01.076-.016.114z" fill="#b3b3b3"/><path d="m.082 91.094c-.471.147-1.007-.039-1.207-.649h-14.613v2.047h15.9c-.024-.467-.058-.932-.08-1.398z" fill="#b3b3b3"/><path d="m-1.131 90.433c-.194-.612-.34-1.236-.454-1.866h-14.153v2.048h14.704c-.032-.062-.074-.109-.097-.182z" fill="#808080"/><path d="m2.916 90.559c0 .019-.001.037-.001.056h106.448c-.073-.098-.131-.21-.159-.349-.113-.563-.208-1.129-.29-1.699h-105.716c-.08.664-.173 1.329-.282 1.992z" fill="#808080"/><path d="m114.5 88.566c-.066.289-.128.581-.203.866-.076.29-.272.482-.507.597.003.195.005.39.008.585h14.036v-2.048z" fill="#808080"/><path d="m3.198 88.566h105.715c-.099-.678-.171-1.362-.23-2.049h-105.284c-.054.684-.12 1.367-.201 2.049z" fill="#666"/><path d="m-1.843 86.576c-.006-.02-.011-.039-.017-.059h-13.878v2.049h14.153c-.119-.657-.201-1.321-.258-1.99z" fill="#666"/><path d="m114.905 86.518c-.11.693-.249 1.374-.404 2.049h13.334v-2.049z" fill="#666"/><path d="m3.387 86.688h105.309c-.062-.68-.106-1.362-.136-2.049h-105.043c-.032.683-.073 1.366-.13 2.049z" fill="#333"/><path d="m-1.843 86.576c-.204-.641-.369-1.288-.515-1.938h-13.38v2.049h13.907c-.003-.037-.008-.074-.012-.111z" fill="#333"/><path d="m115.152 84.639c-.075.689-.167 1.373-.278 2.049h12.961v-2.049z" fill="#333"/><path d="m.498 98.369h-16.235v2.05h16.352c-.043-.684-.076-1.366-.117-2.05z" fill="#b3b3b3"/><path d="m108.409 98.369c.144.397.069.868-.403 1.161-.479.297-.961.593-1.441.889h21.271v-2.05z" fill="#b3b3b3"/><path d="m96.662 99.471c.503-.253 1.061-.011 1.35.382.889-.518 1.794-1.01 2.711-1.483h-86.604c1.144.695 2.305 1.379 3.485 2.05h77.277c.586-.329 1.179-.647 1.781-.949z" fill="#b3b3b3"/><path d="m10.495 100.197c-.854-.509-.453-1.632.289-1.828h-8.06c-.014.684-.028 1.366-.04 2.05h8.168c-.119-.072-.236-.149-.357-.222z" fill="#b3b3b3"/><path d="m2.761 96.492c-.016.683-.026 1.364-.04 2.047h7.717c.279-.22.663-.3 1.067-.068.04.022.079.046.118.068h.1c.107-.627.751-1.17 1.45-.735.403.25.823.489 1.231.735h85.987c.476-.251.951-.502 1.438-.735.73-.35 1.353.145 1.452.735h2.44c.422-.248.843-.5 1.274-.735.716-.389 1.363.13 1.472.735h19.367v-2.047z" fill="#808080"/><path d="m.39 96.492h-16.128v2.047h16.245c-.041-.683-.077-1.364-.117-2.047z" fill="#808080"/><path d="m.273 94.444h-16.011v2.048h16.128c-.039-.682-.079-1.365-.117-2.048z" fill="#666"/><path d="m2.812 94.444c-.018.683-.035 1.365-.051 2.048h125.074v-2.048z" fill="#666"/><path d="m.166 92.564h-15.904v2.05h16.021c-.037-.683-.082-1.367-.117-2.05z" fill="#333"/><path d="m113.826 92.564c.002.201.007.401.008.603.005 1.298-1.931 1.279-2 0-.011-.2-.02-.402-.03-.603h-108.942c-.019.684-.038 1.366-.055 2.05h125.027v-2.05z" fill="#333"/><path d="m13.46 107.707c-.447-.506-.315-1.083.063-1.41h-29.261v2.048h29.791c-.198-.213-.4-.419-.593-.638z" fill="#b3b3b3"/><path d="m83.664 108.255c.84-.657 1.683-1.312 2.529-1.958h-57.896c1.217.672 2.429 1.354 3.632 2.048h51.593c.047-.03.094-.061.142-.09z" fill="#b3b3b3"/><path d="m102.303 106.297c-.874.709-1.768 1.39-2.678 2.048h28.209v-2.048z" fill="#b3b3b3"/><path d="m14.672 106.137c.237.104.469.219.702.331h.764c.087-.037.176-.069.273-.082-.428-.338-.865-.661-1.285-1.012-.329-.273-.375-.637-.261-.957h-30.604v2.051h29.097c.265-.368.779-.568 1.314-.331z" fill="#808080"/><path d="m88.717 104.417h-63.86c1.25.677 2.498 1.361 3.745 2.051h57.368c.907-.696 1.822-1.382 2.747-2.051z" fill="#808080"/><path d="m104.677 104.417c-.627.497-1.244 1.004-1.883 1.489-.231.192-.472.373-.706.562h25.746v-2.051z" fill="#808080"/><path d="m14.872 104.394c-.014-.01-.029-.02-.043-.03-.586-.424-.524-1.163-.165-1.585-.218-.14-.442-.271-.661-.409h-29.741v2.048h30.604c.003-.009.003-.017.006-.024z" fill="#666"/><path d="m91.679 102.369h-70.581c1.247.683 2.5 1.365 3.76 2.048h63.86c.972-.704 1.956-1.391 2.961-2.048z" fill="#666"/><path d="m106.482 102.369c.063.294.006.604-.274.838-.499.415-1.021.807-1.53 1.21h23.157v-2.048z" fill="#666"/><path d="m10.971 100.492h-8.288c-.004.28-.012.562-.016.842-.019 1.3-1.918 1.277-2 0-.018-.281-.03-.562-.048-.842h-16.356v2.047h30.015c-1.094-.695-2.195-1.378-3.307-2.047z" fill="#333"/><path d="m106.446 100.492c-.505.311-1.008.622-1.513.933-.033.034-.056.075-.095.105-.45.348-.914.675-1.373 1.009h.24c.429-.303.856-.605 1.29-.902.692-.473 1.498.218 1.518.902h21.321v-2.047z" fill="#333"/><path d="m94.756 100.492h-77.022c1.213.688 2.438 1.371 3.675 2.047h70.012c1.088-.719 2.198-1.404 3.335-2.047z" fill="#333"/><path d="m17.048 114.223h-32.786v2.047h34.373c-.548-.667-1.074-1.352-1.587-2.047z" fill="#b3b3b3"/><path d="m91.151 114.223c-.943.674-1.879 1.356-2.807 2.047h1.021c1.558-1 3.175-1.832 5.018-2.047z" fill="#b3b3b3"/><path d="m72.25 116.162c.855-.652 1.717-1.298 2.58-1.939h-33.767c.279.205.572.396.849.604.769.47 1.525.96 2.287 1.442h27.826c.076-.035.148-.073.225-.107z" fill="#b3b3b3"/><path d="m95.726 114.223c.545.134.819.645.738 1.21-.04.279-.08.558-.12.837h31.49v-2.047z" fill="#b3b3b3"/><path d="m15.746 112.345h-31.484v2.047h32.909c-.495-.666-.969-1.349-1.425-2.047z" fill="#808080"/><path d="m93.809 112.345c-.969.678-1.933 1.359-2.893 2.047h2.553c.649-.15 1.32-.241 2.031-.225.247.006.432.1.588.225h31.746v-2.047z" fill="#808080"/><path d="m77.445 112.345h-39.029c.982.658 1.938 1.347 2.884 2.047h33.305c.935-.699 1.885-1.376 2.84-2.047z" fill="#808080"/><path d="m15.304 111.672c-.337-.543-.047-1.136.438-1.377h-31.479v2.05h31.484c-.148-.225-.301-.445-.443-.673z" fill="#666"/><path d="m78.716 111.445c.579-.391 1.166-.77 1.751-1.15h-45.253c1.082.666 2.152 1.346 3.202 2.05h39.029c.425-.298.841-.61 1.271-.9z" fill="#666"/><path d="m96.824 110.295c-.536.358-1.072.716-1.612 1.068-.468.327-.936.654-1.402.981h34.025v-2.05h-31.011z" fill="#666"/><path d="m83.411 108.415h-51.363c1.156.668 2.301 1.351 3.433 2.051h44.727c1.061-.694 2.128-1.377 3.203-2.051z" fill="#333"/><path d="m99.53 108.415c-.975.702-1.964 1.384-2.964 2.051h31.269v-2.051z" fill="#333"/><path d="m15.901 110.227c-.609-.586-1.202-1.191-1.783-1.812h-29.856v2.051h31.228c.117-.108.257-.192.411-.239z" fill="#333"/><path d="m44.218 122.147h-17.594c.643.681 1.284 1.362 1.917 2.051h19.078c-1.171-.628-2.3-1.317-3.401-2.051z" fill="#b3b3b3"/><path d="m23.931 122.147h-39.669v2.051h41.605c-.642-.685-1.289-1.368-1.936-2.051z" fill="#b3b3b3"/><path d="m63.126 122.793c.207-.221.42-.432.631-.646h-13.911c.466.536.922 1.081 1.361 1.646.104.133.165.27.207.405h11.744c-.337-.364-.442-.969-.032-1.405z" fill="#b3b3b3"/><path d="m84.433 122.147c-.404.329-.787.641-1.146.924-.479.379-.959.752-1.439 1.127h45.986v-2.051z" fill="#b3b3b3"/><path d="m43.631 121.761c-.232.077-.508.071-.803-.063-.55-.251-1.084-.527-1.628-.79-.225.451-.764.751-1.372.456-.73-.354-1.454-.721-2.174-1.094h-1.122c-.172.191-.402.316-.669.331.005.665-.817 1.315-1.535.93-.752-.403-1.489-.83-2.224-1.261h-.531c-.27.357-.739.554-1.245.261-.148-.086-.293-.175-.441-.261h-5.039c.645.684 1.291 1.366 1.936 2.049h17.692c-.281-.186-.566-.368-.845-.558z" fill="#808080"/><path d="m22.164 120.27h-37.902v2.049h39.831c-.645-.681-1.29-1.363-1.929-2.049z" fill="#808080"/><path d="m65.777 120.27h-17.669c.649.664 1.284 1.342 1.891 2.049h13.591c.706-.726 1.434-1.409 2.187-2.049z" fill="#808080"/><path d="m86.777 120.27c-.914.707-1.775 1.414-2.555 2.049h43.612v-2.049z" fill="#808080"/><g fill="#666"><path d="m29.068 120.214c-1.343-.284-2.902-1.058-4.308-1.991h-1.813c.626.688 1.264 1.369 1.902 2.047h5.039c-.062-.036-.121-.074-.183-.11-.185.076-.401.104-.637.054z"/><path d="m68.486 118.223h-22.225c-.004.073-.006.146-.022.218.64.593 1.26 1.205 1.87 1.829h17.668c.867-.738 1.765-1.425 2.709-2.047z"/><path d="m85.787 118.223c-.845.666-1.673 1.352-2.491 2.047h.43c.921-.7 1.858-1.379 2.804-2.047z"/><path d="m89.68 118.223c-1.001.624-1.978 1.332-2.903 2.047h41.058v-2.047z"/><path d="m20.307 118.223h-36.045v2.047h37.902c-.628-.675-1.247-1.358-1.857-2.047z"/></g><path d="m18.696 116.343h-34.434v2.052h36.197c-.599-.674-1.19-1.356-1.763-2.052z" fill="#333"/><path d="m88.246 116.343c-.901.673-1.793 1.354-2.672 2.052h.719c.308-.219.604-.452.915-.666.679-.468 1.355-.94 2.042-1.386z" fill="#333"/><path d="m68.238 118.395c1.143-.771 2.35-1.456 3.634-2.052h-27.557c.507.321 1.021.632 1.523.961.381.25.482.692.405 1.091z" fill="#333"/><path d="m96.334 116.343c-.013.086-.024.171-.037.257-.167 1.17-1.776.791-1.898-.257h-.447c-1.5.32-3.048 1.094-4.542 2.052h38.425v-2.052z" fill="#333"/><path d="m22.391 116.343h-1.104c.595.693 1.201 1.377 1.817 2.052h1.914c-.985-.631-1.896-1.346-2.627-2.052z" fill="#333"/></g><path d="m72.25 116.162c2.122-1.617 4.253-3.224 6.467-4.717 1.627-1.098 3.284-2.148 4.947-3.19 3.966-3.106 7.97-6.157 12.446-8.491l11.915-20.65c-.34-5.333-.067-10.724-.034-16.09.03-4.826-.445-9.726-.269-14.56l-14.906-25.835c-3.23-1.211-6.084-3.108-9.078-4.917-1.97-.896-3.943-1.786-5.909-2.682-2.931-1.336-6.028-2.455-8.741-4.171h-17.673c.127.474-.053 1.051-.649 1.272-1.592.59-3.208 1.102-4.831 1.584-5.634 2.02-11.084 4.59-16.414 7.306-5.864 3.793-11.304 8.224-17.428 11.585l-7.657 13.27c-.309 3.43.003 7.213-.146 10.284-.241 4.978-.463 9.956-.667 14.935-.056 1.376-.11 2.752-.166 4.127.073 1.85.13 3.698.137 5.544l9.963 17.268c9.097 5.601 19.638 10.195 28.354 16.793 1.288.787 2.566 1.59 3.831 2.416h24.368c.69-.387 1.399-.752 2.14-1.081z" fill="url(#b)"/><path d="m55.303 35.591 3.436-21.758-.009 22.027 6.796-20.953-3.456 21.756 9.991-19.633-6.817 20.947 12.939-17.827-10.011 19.622 15.57-15.584-12.957 17.815 17.815-12.956-15.583 15.569 19.621-10.01-17.826 12.939 20.946-6.817-19.633 9.991 21.756-3.456-20.952 6.798 22.028-.012-21.758 3.436 21.758 3.435-22.028-.01 20.952 6.781-21.756-3.441 19.633 9.976-20.946-6.817 17.826 12.939-19.621-10.01 15.583 15.567-17.815-12.955 12.957 17.815-15.57-15.584 10.011 19.622-12.939-17.828 6.817 20.948-9.991-19.633 3.456 21.756-6.796-20.952.009 22.026-3.436-21.758-3.437 21.758.011-22.026-6.798 20.952 3.457-21.756-9.992 19.633 6.818-20.948-12.94 17.828 10.01-19.622-15.568 15.584 12.956-17.815-17.815 12.955 15.584-15.567-19.623 10.01 17.827-12.939-20.946 6.817 19.632-9.976-21.756 3.441 20.954-6.781-22.028.01 21.759-3.435-21.759-3.436 22.028.012-20.954-6.798 21.756 3.456-19.632-9.991 20.946 6.817-17.827-12.939 19.623 10.01-15.584-15.569 17.815 12.956-12.956-17.815 15.568 15.584-10.01-19.622 12.94 17.827-6.818-20.947 9.992 19.633-3.457-21.756 6.798 20.953-.011-22.027z" fill="#fcee21" opacity=".3"/><path d="m65.775 93.945c.961-6.209 3.938-12.143 8.899-16.725 5.85-5.274 9.527-12.895 9.527-21.392 0-15.919-12.904-28.825-28.828-28.825-.025 0-.049.002-.073.003-.023-.001-.048-.003-.073-.003-15.92 0-28.825 12.906-28.825 28.825 0 8.497 3.678 16.117 9.526 21.392 4.961 4.582 7.938 10.516 8.901 16.725z" fill="#fcee21" stroke="#000" stroke-width=".8072"/><path d="m61.611 97.695c.578-6.904 9.716-13.502 15.232-18.598 6.505-5.865 10.595-14.345 10.595-23.791 0-17.702-14.35-32.053-32.056-32.053-.027 0-.055.002-.081.003-.026-.001-.054-.003-.081-.003-17.702 0-32.052 14.351-32.052 32.053 0 9.446 4.089 17.925 10.593 23.791 5.517 5.096 14.655 11.693 15.235 18.598z" fill="#fcee21" opacity=".3"/><path d="m62.776 100.834c.686-7.833 11.512-15.318 18.047-21.1 7.707-6.654 12.552-16.274 12.552-26.991 0-20.084-17.001-36.366-37.979-36.366-.031 0-.064.002-.096.004-.031-.001-.064-.004-.096-.004-20.973 0-37.975 16.282-37.975 36.366 0 10.717 4.845 20.337 12.55 26.992 6.537 5.781 17.363 13.267 18.05 21.1h14.947z" fill="#fcee21" opacity=".3"/><g stroke="#000"><path d="m66.908 95.357c0 .78-.632 1.413-1.412 1.413h-20.386c-.781 0-1.413-.633-1.413-1.413 0-.78.632-1.412 1.413-1.412h20.385c.781 0 1.413.632 1.413 1.412z" fill="url(#d)"/><path d="m66.908 98.19c0 .78-.632 1.413-1.412 1.413h-20.386c-.781 0-1.413-.633-1.413-1.413 0-.78.632-1.412 1.413-1.412h20.385c.781 0 1.413.632 1.413 1.412z" fill="url(#e)"/><path d="m66.908 101.023c0 .78-.632 1.413-1.412 1.413h-20.386c-.781 0-1.413-.633-1.413-1.413 0-.78.632-1.412 1.413-1.412h20.385c.781 0 1.413.632 1.413 1.412z" fill="url(#f)"/><path d="m66.908 103.856c0 .78-.632 1.413-1.412 1.413h-20.386c-.781 0-1.413-.633-1.413-1.413 0-.78.632-1.412 1.413-1.412h20.385c.781 0 1.413.632 1.413 1.412z" fill="url(#g)"/><path d="m66.908 106.689c0 .78-.632 1.413-1.412 1.413h-20.386c-.781 0-1.413-.633-1.413-1.413 0-.78.632-1.412 1.413-1.412h20.385c.781 0 1.413.632 1.413 1.412z" fill="url(#h)"/><path d="m66.908 109.522c0 .78-.632 1.413-1.412 1.413h-20.386c-.781 0-1.413-.633-1.413-1.413 0-.78.632-1.412 1.413-1.412h20.385c.781 0 1.413.632 1.413 1.412z" fill="url(#i)"/></g><path d="m76.554 55.604c0-11.736-9.514-21.25-21.251-21.25s-21.251 9.514-21.251 21.25c0 11.722 9.514 21.232 21.251 21.232s21.251-9.51 21.251-21.232z" fill="url(#j)"/><path d="m61.273 87.355s-1.641.79-6.058.79c-4.416 0-5.93-.956-5.93-.956" fill="none" stroke="#000" stroke-linecap="round" stroke-linejoin="round"/><path d="m53.023 76.374s-2.19-.926-6.241-1.414c-7.573-.916-9.486-2.821-9.486-2.821s2.142 4.625 7.156 5.316c4.827.666 8.571-1.081 8.571-1.081z" fill="#fff" stroke="#000" stroke-linecap="round" stroke-linejoin="round"/><path d="m57.582 76.374s2.19-.926 6.242-1.414c7.572-.916 9.486-2.821 9.486-2.821s-2.143 4.625-7.157 5.316c-4.825.666-8.571-1.081-8.571-1.081z" fill="#fff" stroke="#000" stroke-linecap="round" stroke-linejoin="round"/><path d="m50.957 82.032s.583-.665 1.332-.498c.749.166.887 1.413 2.991 1.413 2.105 0 2.291-1.247 3.04-1.413.749-.167 1.331.498 1.331.498" fill="none" stroke="#000" stroke-linecap="round" stroke-linejoin="round"/><path d="m52.677 74.001s.437-1.972-4.25-2.583c-3.833-.5-5.917-.583-8.75-1.5-4.291-1.389-6.25-3.917-6.25-3.917s1.659 5.723 12.75 6.75c4.5.417 6.5 1.25 6.5 1.25z" fill="url(#l)"/><path d="m57.928 74.001s-.437-1.972 4.25-2.583c3.833-.5 5.916-.583 8.75-1.5 4.291-1.389 6.25-3.917 6.25-3.917s-1.659 5.723-12.75 6.75c-4.5.417-6.5 1.25-6.5 1.25z" fill="url(#m)"/><path d="m31.403 52.783c-.241-.409-.445-.847-.604-1.312-.996-2.903.001-5.984 2.264-7.844-1.158-3.739.93-7.722 4.753-8.969.796-.259 1.603-.374 2.398-.37-.168.042-.335.083-.501.136-3.824 1.248-5.912 5.23-4.753 8.969-2.263 1.86-3.26 4.941-2.265 7.844.159.465.363.902.604 1.312-2.087 1.877-2.977 4.837-2.018 7.633.99 2.886 3.662 4.758 6.597 4.935 1.383 1.772 3.541 2.826 5.822 2.856-2.934.718-5.955-.362-7.719-2.623-2.935-.177-5.606-2.049-6.597-4.935-.958-2.795-.068-5.755 2.019-7.632z" fill="#fff"/><path d="m37.219 47.761c-.168-.439-.304-.9-.404-1.38-.62-3.001.366-5.86 2.291-7.324-.699-3.845 1.214-7.415 4.351-8.032.653-.128 1.306-.112 1.942.018-.137.015-.273.028-.409.054-3.137.617-5.051 4.188-4.352 8.032-1.924 1.463-2.911 4.323-2.291 7.324.099.48.236.941.404 1.38-1.785 1.508-2.677 4.266-2.08 7.155.616 2.983 2.641 5.24 4.979 5.878.999 1.955 2.662 3.328 4.485 3.718-2.392.239-4.744-1.297-6.018-3.79-2.338-.638-4.362-2.895-4.979-5.878-.596-2.89.296-5.647 2.081-7.155z" fill="#fff"/><path d="m43.607 44.824c-.104-.455-.183-.928-.233-1.415-.314-3.045.554-5.757 2.053-6.974-.333-3.891 1.258-7.195 3.614-7.426.49-.048.973.047 1.439.252-.103-.002-.205-.006-.307.004-2.355.231-3.947 3.535-3.614 7.426-1.498 1.216-2.367 3.929-2.052 6.974.05.487.13.96.233 1.415-1.396 1.278-2.191 3.9-1.888 6.833.313 3.027 1.705 5.506 3.408 6.42.646 2.056 1.813 3.616 3.146 4.223-1.784-.052-3.455-1.857-4.278-4.479-1.703-.915-3.095-3.393-3.408-6.421-.304-2.931.49-5.554 1.887-6.832z" fill="#fff"/><path d="m79.203 52.783c.24-.409.444-.847.604-1.312.996-2.903-.002-5.984-2.264-7.844 1.157-3.739-.93-7.722-4.754-8.969-.796-.259-1.604-.374-2.398-.37.168.042.336.083.501.136 3.824 1.248 5.911 5.23 4.753 8.969 2.264 1.86 3.261 4.941 2.266 7.844-.16.465-.363.902-.605 1.312 2.088 1.877 2.978 4.837 2.019 7.633-.99 2.886-3.662 4.758-6.597 4.935-1.383 1.772-3.541 2.826-5.822 2.856 2.934.718 5.955-.362 7.719-2.623 2.936-.177 5.607-2.049 6.598-4.935.956-2.795.066-5.755-2.02-7.632z" fill="#fff"/><path d="m73.386 47.761c.168-.439.305-.9.404-1.38.619-3.001-.367-5.86-2.291-7.324.699-3.845-1.215-7.415-4.352-8.032-.652-.128-1.306-.112-1.942.018.138.015.273.028.409.054 3.137.617 5.051 4.188 4.352 8.032 1.924 1.463 2.911 4.323 2.291 7.324-.1.48-.236.941-.404 1.38 1.785 1.508 2.678 4.266 2.08 7.155-.615 2.983-2.641 5.24-4.979 5.878-.999 1.955-2.662 3.328-4.485 3.718 2.392.239 4.744-1.297 6.019-3.79 2.338-.638 4.361-2.895 4.979-5.878.597-2.89-.296-5.647-2.081-7.155z" fill="#fff"/><path d="m66.998 44.824c.104-.455.184-.928.233-1.415.314-3.045-.554-5.757-2.053-6.974.333-3.891-1.259-7.195-3.614-7.426-.489-.048-.973.047-1.439.252.104-.002.205-.006.307.004 2.355.231 3.947 3.535 3.615 7.426 1.497 1.216 2.367 3.929 2.052 6.974-.05.487-.13.96-.233 1.415 1.396 1.278 2.191 3.9 1.889 6.833-.313 3.027-1.705 5.506-3.408 6.42-.646 2.056-1.813 3.616-3.146 4.223 1.784-.052 3.455-1.857 4.278-4.479 1.703-.915 3.096-3.393 3.408-6.421.302-2.931-.493-5.554-1.889-6.832z" fill="#fff"/><path d="m51.063 64.831s-8.561-13.141-5.332-17.039c3.34-4.032 8.018 4.343 6.014 4.232-2.495-.139-3.548-5.454-.036-6.066 3.513-.612 7.342 6.153 5.051 5.955-2.565-.223-4.126-5.833.038-5.833 4.159 0 7.141 6.423 4.897 5.874-3.207-.786-2.04-9.619 2.626-4.286 4.321 4.939-3.664 17.146-3.664 17.146" fill="none" stroke="#000" stroke-linecap="round" stroke-linejoin="round"/><path d="m65.775 93.945c.961-6.209 3.938-12.143 8.899-16.725 5.85-5.274 9.527-12.895 9.527-21.392 0-15.919-12.904-28.825-28.828-28.825-.025 0-.049.002-.073.003-.023-.001-.048-.003-.073-.003-15.92 0-28.825 12.906-28.825 28.825 0 8.497 3.678 16.117 9.526 21.392 4.961 4.582 7.938 10.516 8.901 16.725z" fill="none" stroke="#000"/><path d="m55.382 117.2-46.099-26.598v-53.2l46.099-26.6 46.102 26.6v53.2zm-55.499-21.2 55.499 32 55.4-32v-63.999l-55.4-31.999-55.499 31.999z" fill="#4d4d4d"/><path d="m55.383 10.9-46 26.5v53.2l36.33 21.011 9.67 5.59 9.561-5.53 36.439-21.07v-53.101zm43.601 78.3-38.011 21.97-5.59 3.23-5.7-3.29-38-21.91v-50.4l43.7-25.2 43.601 25.2z" opacity=".13"/><path d="m65.303 111.19-.359.48-9.561 5.53-9.67-5.59-.38-.52 4.351.02 11.289.06z" fill="url(#n)"/></svg>