<svg enable-background="new 0 0 110.979 128.417" viewBox="0 0 110.979 128.417" xmlns="http://www.w3.org/2000/svg"><path d="m110.929 96.024-55.426 32-55.423-32v-64l55.423-32 55.426 32z" fill="#15003e"/><path d="m102.073 37.735v53.14l-.01.01-.02.01-.41.24-.37.21-.62.35-4.15 2.39-.01.01-.13.08-.06.03-.55.32-.8.45-.1.06-.48.28-1.13.65-.85.49-.74.43-.24.13-.13.05-.11.07-1 .57-.03.02-2 1.15-.51.29-.14.08-.03.02-.14.08-.01.01-1.04.59-.04.03-.07.04-1.16.67-.45.26-.02.02h-.01l-.42.24-1.12.65-.87.52-1.18.67-.08.05-.12.07-.04.03-.04.02-.02.01-.1.06-.29.17-.03.01-.16.09v.01l-.4.23-.27.16-.11.06-.18.09-.02.02-.04.02-.69.39-.06.04-.24.14-.02.01-.29.17-.15.08-.22.13-.24.14h-.01l-.42.25-.29.17-.03.02-.3.17-1.36.79-.5.29-.25.14-.7.4-.03.02h-.01l-.31.18-.05.03-.24.15-.84.48-.63.36-.06.03-.5.29c-.01.01-.01.01-.01 0l-.53.31-.29.17-.76.44-.05.03-.05.03-.03.01c0 .01-.01.01-.01.01l-.02.02-.25.14-1 .58-.17.1-.04.02-.38.22-1.42.82-.36.21-.09.05-.24.14-.8.46-.26.15-.28.16-.01.01-.2.12-.23.13-.35.2-.83.48-.01.01-.09.05-1.32.76-.02.01-.79.46-.61.35h-.01l-1.41.81-.02.02-.19.1-.06.04-.56.32h-.01l-.13.08-.19.11-.27.16h-.01l-.2.12-.06-.03-1.14-.66-.02-.01-.2-.12-.85-.49-.03-.01-.33-.19-.01-.01-1.4-.81-.01-.01-.02-.01-1.37-.79-.03-.02h-.01l-.83-.48-.06-.04-.34-.19-.18-.11-.02-.01-.66-.38-.04-.03-.09-.05-.1-.06-.13-.07-.27-.16-.12-.07h-.01l-.72-.42-.24-.13-.39-.23-.05-.03-.03-.02-1.4-.81h-.01l-.11-.07-.37-.22h-.01l-.27-.16-.62-.36-.03-.01-.06-.04-.04-.02-1.29-.75-.39-.23-.68-.39-.58-.33-.11-.06-1-.58-1.72-1c-.01-.01-.02-.02-.03-.02l-1.32-.76-3.92-2.26-.16-.09-.57-.33-.47-.27-.44-.26-.3-.17-.38-.22-.99-.58-.04-.02-2.74-1.59-.1-.06-.18-.1-.67-.38-.82-.47-.09-.05-.5-.29-.01-.01-.08-.05h-.01l-.12-.07h-.01l-.31-.18-.73-.42c-.01-.01-.01-.01-.02-.01l-1.86-1.08-1.02-.59-2.11-1.23-.09-.05-.2-.12s-.01 0-.02-.01l-.28-.16-.53-.3-.82-.48-.06-.04h-.01s0 0-.01 0l-.49-.29-.7-.4-.68-.39-1.22-.71-.1-.06h-.01l-.33-.19-.41-.24h-.01l-.43-.25-.99-.57-.08-.04-.03-.02v-53.14l.78-.45 1.59-.92.36-.21 3.38-1.95 1.06-.61 5.78-3.34h.01l.91-.52 1.05-.62 1.82-1.05h.01l.87-.51 3.63-2.08.64-.38.94-.54.17-.09 1.66-.95.78-.45.38-.22.44-.26.67-.39.43-.26.52-.3.5-.28.59-.34 1.19-.68.69-.41.75-.43.65-.37h.01l.05-.03.43-.25 5.29-3.05.11-.06.08-.05.27-.16 5.52-3.19.55-.32 1.44-.83.51.3 1.09.63 2.86 1.65 3.09 1.79 2.6 1.5.22.13 4.69 2.7.98.57 5.13 2.96.91.52 1.04.61 2.3 1.31.87.5.69.4.83.48.49.28.58.34.3.17.8.46.09.06 1.81 1.04 2.16 1.24 1.12.65.5.29.04.03v.01l.26.14.66.39 1.46.84 1.94 1.12.78.44.44.25.49.28 1.45.84.17.1.85.49z" fill="#fff"/><path d="m96.415 70.521h-6.972c-.429 0-.779-.349-.779-.779v-4.356c0-.429.349-.779.779-.779h6.972c.429 0 .779.349.779.779v4.356c0 .429-.349.779-.779.779zm-6.972-5.501c-.202 0-.366.164-.366.366v4.356c0 .202.164.366.366.366h6.972c.202 0 .366-.164.366-.366v-4.356c0-.202-.164-.366-.366-.366z" fill="#070c35"/><path d="m97.763 71.794h-9.909c-.429 0-.779-.349-.779-.779 0-.429.349-.779.779-.779h9.909c.429 0 .779.349.779.779s-.35.779-.779.779zm-9.909-1.144c-.202 0-.366.164-.366.366s.164.366.366.366h9.909c.202 0 .366-.164.366-.366s-.164-.366-.366-.366z" fill="#070c35"/><path d="m95.688 68.435h-5.32v-2.763h5.32zm-5.113-.206h4.907v-2.35h-4.907z" fill="#070c35"/><path d="m90.381 68.797h5.229v.207h-5.229z" fill="#070c35"/><path d="m90.381 69.313h5.229v.207h-5.229z" fill="#070c35"/><path d="m88.731 65.882c-.011-.017-.023-.034-.035-.052-.057-.086-.038-.168.014-.226.001-.022.002-.045.003-.067-.104.015-.209.025-.316.025-1.251 0-2.269-1.018-2.269-2.269s1.018-2.269 2.269-2.269 2.269 1.018 2.269 2.269c0 .602-.237 1.149-.621 1.555.109-.006.228.008.311-.001.081-.004.135.029.166.077.348-.453.558-1.017.558-1.631 0-1.479-1.203-2.682-2.682-2.682s-2.682 1.203-2.682 2.682 1.203 2.682 2.682 2.682c.134 0 .265-.013.394-.032-.023-.015-.044-.035-.061-.061z" fill="#080d34"/><path d="m88.995 69.565c0-.017.006-.03.009-.045.002-.049.006-.097.007-.146h-4.93c.034-1.349.687-2.599 1.771-3.402.546.903 1.518 1.454 2.592 1.454.16 0 .317-.016.472-.04-.011-.139-.016-.279-.007-.419-.152.027-.306.046-.465.046-.997 0-1.893-.55-2.338-1.435l-.105-.208-.194.129c-1.34.892-2.14 2.382-2.14 3.986v.302h5.348c-.007-.022-.02-.04-.02-.068z" fill="#080d34"/><path d="m28.603 70.521h-6.972c-.429 0-.779-.349-.779-.779v-4.356c0-.429.349-.779.779-.779h6.972c.429 0 .779.349.779.779v4.356c0 .429-.35.779-.779.779zm-6.972-5.501c-.202 0-.366.164-.366.366v4.356c0 .202.164.366.366.366h6.972c.202 0 .366-.164.366-.366v-4.356c0-.202-.164-.366-.366-.366z" fill="#070c35"/><path d="m29.95 71.794h-9.909c-.429 0-.779-.349-.779-.779 0-.429.349-.779.779-.779h9.909c.429 0 .779.349.779.779s-.349.779-.779.779zm-9.908-1.144c-.202 0-.366.164-.366.366s.164.366.366.366h9.909c.202 0 .366-.164.366-.366s-.164-.366-.366-.366z" fill="#070c35"/><path d="m27.876 68.435h-5.32v-2.763h5.32zm-5.114-.206h4.907v-2.35h-4.907z" fill="#070c35"/><path d="m22.569 68.797h5.229v.207h-5.229z" fill="#070c35"/><path d="m22.569 69.313h5.229v.207h-5.229z" fill="#070c35"/><path d="m20.918 65.882c-.011-.017-.023-.034-.035-.052-.057-.086-.038-.168.014-.226.001-.022.002-.045.003-.067-.104.015-.209.025-.316.025-1.251 0-2.269-1.018-2.269-2.269s1.018-2.269 2.269-2.269 2.269 1.018 2.269 2.269c0 .602-.237 1.149-.621 1.555.109-.006.228.008.311-.001.081-.004.135.029.166.077.348-.453.558-1.017.558-1.631 0-1.479-1.203-2.682-2.682-2.682s-2.682 1.203-2.682 2.682 1.203 2.682 2.682 2.682c.134 0 .265-.013.394-.032-.022-.015-.043-.035-.061-.061z" fill="#080d34"/><path d="m21.183 69.565c0-.017.006-.03.009-.045.002-.049.006-.097.007-.146h-4.93c.034-1.349.687-2.599 1.771-3.402.546.903 1.518 1.454 2.592 1.454.16 0 .317-.016.472-.04-.012-.139-.016-.279-.007-.419-.152.027-.306.046-.465.046-.997 0-1.893-.55-2.338-1.435l-.105-.208-.194.129c-1.34.892-2.14 2.382-2.14 3.986v.302h5.348c-.007-.022-.02-.04-.02-.068z" fill="#080d34"/><path d="m80.665 94.208h-6.972c-.429 0-.779-.349-.779-.779v-4.356c0-.429.349-.779.779-.779h6.972c.429 0 .779.349.779.779v4.356c0 .43-.349.779-.779.779zm-6.972-5.501c-.202 0-.366.164-.366.366v4.356c0 .202.164.366.366.366h6.972c.202 0 .366-.164.366-.366v-4.356c0-.202-.164-.366-.366-.366z" fill="#070c35"/><path d="m82.013 95.482h-9.909c-.429 0-.779-.349-.779-.779 0-.429.349-.779.779-.779h9.909c.429 0 .779.349.779.779 0 .429-.35.779-.779.779zm-9.909-1.145c-.202 0-.366.164-.366.366s.164.366.366.366h9.909c.202 0 .366-.164.366-.366s-.164-.366-.366-.366z" fill="#070c35"/><path d="m79.938 92.123h-5.32v-2.763h5.32zm-5.113-.207h4.907v-2.35h-4.907z" fill="#070c35"/><path d="m74.631 92.484h5.229v.207h-5.229z" fill="#070c35"/><path d="m74.631 93.001h5.229v.207h-5.229z" fill="#070c35"/><path d="m72.981 89.569c-.011-.017-.023-.034-.035-.052-.057-.086-.038-.168.014-.226.001-.022.002-.045.003-.067-.104.015-.209.025-.316.025-1.251 0-2.269-1.018-2.269-2.269s1.018-2.269 2.269-2.269 2.269 1.018 2.269 2.269c0 .602-.237 1.149-.621 1.555.109-.006.228.008.311-.001.081-.004.135.029.166.077.348-.453.558-1.017.558-1.631 0-1.479-1.203-2.682-2.682-2.682s-2.682 1.203-2.682 2.682 1.203 2.682 2.682 2.682c.134 0 .265-.013.394-.032-.023-.015-.044-.034-.061-.061z" fill="#080d34"/><path d="m73.245 93.253c0-.017.006-.03.009-.045.002-.049.006-.097.007-.146h-4.93c.034-1.349.687-2.599 1.771-3.402.546.903 1.518 1.454 2.592 1.454.16 0 .317-.016.472-.04-.011-.139-.016-.279-.007-.419-.152.027-.306.046-.465.046-.997 0-1.893-.55-2.338-1.435l-.105-.208-.194.129c-1.34.892-2.14 2.382-2.14 3.986v.302h5.348c-.007-.022-.02-.04-.02-.068z" fill="#080d34"/><path d="m44.54 94.208h-6.972c-.429 0-.779-.349-.779-.779v-4.356c0-.429.349-.779.779-.779h6.972c.429 0 .779.349.779.779v4.356c0 .43-.349.779-.779.779zm-6.972-5.501c-.202 0-.366.164-.366.366v4.356c0 .202.164.366.366.366h6.972c.202 0 .366-.164.366-.366v-4.356c0-.202-.164-.366-.366-.366z" fill="#070c35"/><path d="m45.888 95.482h-9.909c-.429 0-.779-.349-.779-.779 0-.429.349-.779.779-.779h9.909c.429 0 .779.349.779.779 0 .429-.35.779-.779.779zm-9.909-1.145c-.202 0-.366.164-.366.366s.164.366.366.366h9.909c.202 0 .366-.164.366-.366s-.164-.366-.366-.366z" fill="#070c35"/><path d="m43.813 92.123h-5.32v-2.763h5.32zm-5.113-.207h4.907v-2.35h-4.907z" fill="#070c35"/><path d="m38.506 92.484h5.229v.207h-5.229z" fill="#070c35"/><path d="m38.506 93.001h5.229v.207h-5.229z" fill="#070c35"/><path d="m36.856 89.569c-.012-.017-.023-.034-.035-.052-.057-.086-.038-.168.014-.226.001-.022.002-.045.003-.067-.104.015-.209.025-.316.025-1.251 0-2.269-1.018-2.269-2.269s1.018-2.269 2.269-2.269 2.269 1.018 2.269 2.269c0 .602-.237 1.149-.621 1.555.109-.006.228.008.311-.001.081-.004.135.029.166.077.348-.453.558-1.017.558-1.631 0-1.479-1.203-2.682-2.682-2.682s-2.682 1.203-2.682 2.682 1.203 2.682 2.682 2.682c.134 0 .265-.013.394-.032-.023-.015-.044-.034-.061-.061z" fill="#080d34"/><path d="m37.12 93.253c0-.017.006-.03.009-.045.002-.049.006-.097.007-.146h-4.93c.034-1.349.687-2.599 1.771-3.402.546.903 1.518 1.454 2.592 1.454.16 0 .317-.016.472-.04-.012-.139-.016-.279-.007-.419-.152.027-.306.046-.465.046-.997 0-1.893-.55-2.338-1.435l-.105-.208-.194.129c-1.34.892-2.14 2.382-2.14 3.986v.302h5.348c-.007-.022-.02-.04-.02-.068z" fill="#080d34"/><path d="m80.665 46.625h-6.972c-.429 0-.779-.349-.779-.779v-4.356c0-.429.349-.779.779-.779h6.972c.429 0 .779.349.779.779v4.356c0 .429-.349.779-.779.779zm-6.972-5.501c-.202 0-.366.164-.366.366v4.356c0 .202.164.366.366.366h6.972c.202 0 .366-.164.366-.366v-4.356c0-.202-.164-.366-.366-.366z" fill="#070c35"/><path d="m82.013 47.898h-9.909c-.429 0-.779-.349-.779-.779 0-.429.349-.779.779-.779h9.909c.429 0 .779.349.779.779s-.35.779-.779.779zm-9.909-1.144c-.202 0-.366.164-.366.366s.164.366.366.366h9.909c.202 0 .366-.164.366-.366s-.164-.366-.366-.366z" fill="#070c35"/><path d="m79.938 44.54h-5.32v-2.763h5.32zm-5.113-.207h4.907v-2.35h-4.907z" fill="#070c35"/><path d="m74.631 44.901h5.229v.207h-5.229z" fill="#070c35"/><path d="m74.631 45.418h5.229v.207h-5.229z" fill="#070c35"/><path d="m72.981 41.986c-.011-.017-.023-.034-.035-.052-.057-.086-.038-.168.014-.226.001-.022.002-.045.003-.067-.104.015-.209.025-.316.025-1.251 0-2.269-1.018-2.269-2.269s1.018-2.269 2.269-2.269 2.269 1.018 2.269 2.269c0 .602-.237 1.149-.621 1.555.109-.006.228.008.311-.001.081-.004.135.029.166.077.348-.453.558-1.017.558-1.631 0-1.479-1.203-2.682-2.682-2.682s-2.682 1.203-2.682 2.682 1.203 2.682 2.682 2.682c.134 0 .265-.013.394-.032-.023-.015-.044-.034-.061-.061z" fill="#080d34"/><path d="m73.245 45.669c0-.017.006-.03.009-.045.002-.049.006-.097.007-.146h-4.93c.034-1.349.687-2.599 1.771-3.402.546.903 1.518 1.454 2.592 1.454.16 0 .317-.016.472-.04-.011-.139-.016-.279-.007-.419-.152.027-.306.046-.465.046-.997 0-1.893-.55-2.338-1.435l-.105-.208-.194.129c-1.34.892-2.14 2.382-2.14 3.986v.302h5.348c-.007-.022-.02-.04-.02-.068z" fill="#080d34"/><path d="m44.54 46.625h-6.972c-.429 0-.779-.349-.779-.779v-4.356c0-.429.349-.779.779-.779h6.972c.429 0 .779.349.779.779v4.356c0 .429-.349.779-.779.779zm-6.972-5.501c-.202 0-.366.164-.366.366v4.356c0 .202.164.366.366.366h6.972c.202 0 .366-.164.366-.366v-4.356c0-.202-.164-.366-.366-.366z" fill="#070c35"/><path d="m45.888 47.898h-9.909c-.429 0-.779-.349-.779-.779 0-.429.349-.779.779-.779h9.909c.429 0 .779.349.779.779s-.35.779-.779.779zm-9.909-1.144c-.202 0-.366.164-.366.366s.164.366.366.366h9.909c.202 0 .366-.164.366-.366s-.164-.366-.366-.366z" fill="#070c35"/><path d="m43.813 44.54h-5.32v-2.763h5.32zm-5.113-.207h4.907v-2.35h-4.907z" fill="#070c35"/><path d="m38.506 44.901h5.229v.207h-5.229z" fill="#070c35"/><path d="m38.506 45.418h5.229v.207h-5.229z" fill="#070c35"/><g fill="#080d34"><path d="m36.856 41.986c-.012-.017-.023-.034-.035-.052-.057-.086-.038-.168.014-.226.001-.022.002-.045.003-.067-.104.015-.209.025-.316.025-1.251 0-2.269-1.018-2.269-2.269s1.018-2.269 2.269-2.269 2.269 1.018 2.269 2.269c0 .602-.237 1.149-.621 1.555.109-.006.228.008.311-.001.081-.004.135.029.166.077.348-.453.558-1.017.558-1.631 0-1.479-1.203-2.682-2.682-2.682s-2.682 1.203-2.682 2.682 1.203 2.682 2.682 2.682c.134 0 .265-.013.394-.032-.023-.015-.044-.034-.061-.061z"/><path d="m37.12 45.669c0-.017.006-.03.009-.045.002-.049.006-.097.007-.146h-4.93c.034-1.349.687-2.599 1.771-3.402.546.903 1.518 1.454 2.592 1.454.16 0 .317-.016.472-.04-.012-.139-.016-.279-.007-.419-.152.027-.306.046-.465.046-.997 0-1.893-.55-2.338-1.435l-.105-.208-.194.129c-1.34.892-2.14 2.382-2.14 3.986v.302h5.348c-.007-.022-.02-.04-.02-.068z"/><path d="m33.417 68.357h46.833c.638 0 .639-.992 0-.992-15.611 0-31.222 0-46.833 0-.639 0-.64.992 0 .992z"/><path d="m84.428 85.945c2.639-3.639 5.278-7.278 7.917-10.917.375-.518-.485-1.013-.857-.501-2.639 3.639-5.278 7.278-7.917 10.917-.375.518.486 1.013.857.501z"/><path d="m82.961 50.52c2.173 2.797 4.224 5.686 6.397 8.483.391.504 1.089-.203.702-.702-2.173-2.797-4.224-5.686-6.397-8.483-.392-.503-1.089.204-.702.702z"/><path d="m32.112 49.044c-2.639 3.639-5.278 7.278-7.917 10.917-.375.518.485 1.013.857.501 2.639-3.639 5.278-7.278 7.917-10.917.375-.518-.485-1.013-.857-.501z"/><path d="m30.851 85.344c-2.765-3.544-5.529-7.089-8.294-10.633-.392-.503-1.09.204-.702.702 2.765 3.544 5.529 7.089 8.294 10.633.393.502 1.09-.204.702-.702z"/><path d="m48.167 91.857h16.667c.638 0 .639-.992 0-.992-5.556 0-11.111 0-16.667 0-.639 0-.64.992 0 .992z"/><path d="m48.167 43.691h16.667c.638 0 .639-.992 0-.992-5.556 0-11.111 0-16.667 0-.639-.001-.64.992 0 .992z"/><path d="m39.816 51.712 30.208 30.208c.452.452 1.154-.249.702-.702-10.07-10.069-20.139-20.138-30.208-30.208-.453-.452-1.154.25-.702.702z"/><path d="m72.399 51.76c-10.583 10.583-21.167 21.167-31.75 31.75-.452.452.249 1.154.702.702l31.75-31.75c.452-.452-.249-1.154-.702-.702z"/><path d="m78.924 66.101v3.322l2.876-1.661z"/><path d="m63.84 89.643v3.322l2.877-1.661z"/><path d="m70.832 51.556 2.4 2.297.789-3.227z"/><path d="m71.025 79.816-2.296 2.4 3.227.788z"/><path d="m34.522 65.934v3.322l-2.876-1.661z"/><path d="m49.126 89.684v3.322l-2.877-1.661z"/><path d="m63.84 41.534v3.321l2.877-1.66z"/><path d="m90.383 56.909-2.877 1.661 2.877 1.66z"/><path d="m92.526 73.561-2.896 1.75 2.828 1.634z"/><path d="m83.008 87.692 2.897-1.75-2.829-1.633z"/><path d="m82.715 51.897 2.877-1.661-2.877-1.661z"/><path d="m24.134 57.956 2.877 1.661-2.877 1.661z"/><path d="m21.679 73.317 2.896 1.75-2.829 1.633z"/><path d="m31.196 87.447-2.896-1.75 2.829-1.633z"/><path d="m33.427 50.903-2.877-1.661 2.877-1.661z"/><path d="m49.126 41.575v3.322l-2.877-1.661z"/><path d="m42.614 51.39-2.4 2.296-.789-3.227z"/><path d="m40.754 81.691 2.296 2.4-3.226.788z"/></g><path d="m49.952 26.413c0-.165.06-.309.181-.429.121-.121.265-.181.433-.181.171 0 .317.06.438.181.121.118.181.262.181.433s-.06.317-.181.438c-.118.121-.262.181-.433.181s-.317-.06-.438-.181-.181-.268-.181-.442zm1.09 1.704v4.098h-.947v-4.098z" fill="#15003e"/><path d="m53.187 34.445h-.947v-6.328h.947v.446c.373-.373.797-.56 1.271-.56.564 0 1.028.208 1.393.623.37.412.555.933.555 1.561 0 .614-.184 1.126-.551 1.536-.365.407-.825.61-1.38.61-.48 0-.909-.192-1.287-.576v2.688zm2.251-4.254c0-.393-.107-.712-.32-.959-.216-.25-.488-.374-.816-.374-.348 0-.63.121-.846.362s-.324.558-.324.951c0 .384.108.701.324.951.213.244.494.366.841.366.328 0 .599-.123.812-.37.22-.248.329-.557.329-.927z" fill="#15003e"/><path d="m58.387 29v3.214h-.951v-3.214h-.336v-.883h.337v-1.582c0-.516.09-.881.269-1.094.247-.297.606-.446 1.077-.446.168 0 .38.049.635.147v.968l-.097-.05c-.205-.104-.373-.156-.505-.156-.168 0-.282.06-.341.181-.059.118-.088.345-.088.682v1.35h1.031v.883z" fill="#15003e"/><path d="m62.346 28.815-.783.417c-.123-.252-.276-.379-.459-.379-.087 0-.161.029-.223.086s-.093.131-.093.221c0 .157.182.313.547.467.502.216.84.415 1.014.597s.261.428.261.736c0 .395-.146.726-.438.993-.283.252-.625.379-1.027.379-.687 0-1.174-.335-1.46-1.006l.808-.374c.112.196.198.321.257.374.115.107.252.16.412.16.32 0 .48-.146.48-.438 0-.168-.123-.325-.37-.471-.095-.048-.191-.094-.286-.139s-.192-.091-.29-.139c-.275-.135-.468-.269-.581-.404-.143-.171-.215-.391-.215-.661 0-.356.122-.651.366-.883.25-.233.553-.349.909-.349.526.001.916.272 1.171.813z" fill="#15003e"/><path d="m102.073 50.185v40.69l-.01.01-.02.01-.41.24-.37.21-.62.35-4.15 2.39-.01.01-.13.08-.06.03-.55.32-.8.45-.1.06-.48.28-1.13.65-.85.49-.74.43-.24.13-.13.05-.11.07-1 .57-.03.02-2 1.15-.51.29-.14.08-.03.02-.14.08-.01.01-1.04.59-.04.03-.07.04-1.16.67-.45.26-.02.02h-.01l-.42.24-1.12.65-.87.52-1.18.67-.08.05-.12.07-.04.03-.04.02-.02.01-.1.06-.29.17-.03.01-.16.09v.01l-.4.23-.27.16-.11.06-.18.09-.02.02-.04.02-.69.39-.06.04-.24.14-.02.01-.29.17-.15.08-.22.13-.24.14h-.01l-.42.25-.29.17-.03.02-.3.17-1.36.79-.5.29-.25.14-.7.4-.03.02h-.01l-.31.18-.05.03-.24.15-.84.48-.63.36-.06.03-.5.29c-.01.01-.01.01-.01 0l-.53.31-.29.17-.76.44-.05.03-.05.03-.03.01c0 .01-.01.01-.01.01l-.02.02-.25.14-1 .58-.17.1-.04.02-.38.22-1.42.82-.36.21-.09.05-.24.14-.8.46-.26.15-.28.16-.01.01-.2.12-.23.13-.35.2-.83.48-.01.01-.09.05-1.32.76-.02.01-.79.46-.61.35h-.01l-1.41.81-.02.02-.19.1-10.38-5.98-1.21-.7-3.1-1.79-2.94-1.69-.34-.2-.41-.24-.46-.26-2.04-1.18-.98-.57-3.76-2.16c-.49-.91-.94-1.84-1.35-2.79-2.4-5.44-3.73-11.45-3.73-17.77 0-24.35 19.73-44.08 44.08-44.08 11.39 0 21.8 4.33 29.63 11.44.55.5 1.09 1.02 1.61 1.56z" fill="#2732ff" opacity=".11"/><path d="m56.133 11.245-46.07 26.56v53.12l1.67.96.63.37h.01l14.8 8.53 4.01 2.31 1.04.6 2.18 1.26.49.28.44.26.36.21 3.13 1.8 3.31 1.91 1.29.74v.01l12.71 7.32 46.07-26.56v-53.12zm44.21 78.609-44.21 25.49-12.51-7.21-17.89-10.32-13.81-7.96v-50.97l44.21-25.49 44.21 25.49z" opacity=".13"/></svg>