<svg viewBox="0 0 110.979 128.417" xmlns="http://www.w3.org/2000/svg" xmlns:xlink="http://www.w3.org/1999/xlink"><mask id="a" fill="#fff"><path d="m.363.714h11.49v11.49h-11.49z" fill="#fff" fill-rule="evenodd" height="100%" width="100%"/></mask><g transform="translate(.154 .374)"><path d="m55.556 127.881-55.139-31.834v-63.67l55.139-31.835 55.14 31.835v63.669z" fill="#eccf94" stroke="#42221f" stroke-width="1.8"/><path d="m55.422 116.822-45.313-26.162v-52.323l45.313-26.162 45.314 26.162v52.323z" fill="#fff" fill-opacity=".338"/><path d="m55.555 10.618-46.482 26.798v53.594l46.482 26.795 46.485-26.795v-53.594zm44.603 79.312-44.603 25.716-44.604-25.716v-51.424l44.604-25.716 44.603 25.716z" fill="#42221f"/></g><path d="m-366.506-117.11h218.921v195.815h-218.921z" fill="none"/><path d="m-451.215-238.888h361.335v516.49h-361.335z" fill="none"/><g><g stroke-width=".074" transform="matrix(1.01973203037 0 0 1.01973203037 210.89676800816 .14362213123)"><path d="m-137.937 35.704 2.274 5.14-2.026.897-2.275-5.14zm0 0" fill="#663325"/><path d="m-144.635 33.552 8.334-3.032 1.517 4.166-8.334 3.032zm0 0" fill="#ff9f00"/><path d="m-143.972 32.131-2.084.758 2.276 6.25 2.083-.758zm0 0" fill="#663325"/><path d="m-135.446 35.959 2.083-.758-2.275-6.25-2.084.758zm0 0" fill="#663325"/><path d="m-135.568 40.11a2.217 2.217 0 0 0 -2.217 2.218v2.217l2.217 2.217 2.217-2.217v-2.217a2.217 2.217 0 0 0 -2.217-2.217zm0 0" fill="#ffa78f"/><path d="m-154.255 59.326-5.7-8.13h-1.568l-5.084 5.084v9.4h4.434l1.109-2.29 1.108 2.29 7.76 1.11zm0 0" fill="#4a696f"/><path d="m-137.785 44.545v6.651h-6.651l-5.701 8.13-2.059 7.463 9.977-1.108v-10.051h5.542a3.326 3.326 0 0 0 3.326-3.326v-7.76zm0 0" fill="#384949"/><path d="m-144.436 51.196-7.76 15.593-7.76-15.593h2.86l3.326 2.217h3.148l3.326-2.217zm0 0" fill="#dfd7d5"/><path d="m-144.436 51.196-7.76 15.593v-13.376h1.574l3.326-2.217zm0 0" fill="#c4b3af"/><path d="m-162.173 57.847h2.217v7.834h-2.217zm0 0" fill="#384949"/><path d="m-149.979 47.272v3.924l-2.217 3.969-2.217-3.969v-3.924zm0 0" fill="#ffa78f"/><path d="m-149.979 47.272v3.924l-2.217 3.969v-7.893zm0 0" fill="#f89580"/><path d="m-152.196 52.97-1.256.443-.318 1.109-1.42 1.44 1.553 1.553 1.441-1.42 1.441 1.42 1.552-1.552-1.419-1.441-.318-1.109zm0 0" fill="#3e5959"/><path d="m-150.755 57.515 1.552-1.552-1.419-1.441-.318-1.109-1.256-.443v3.126zm0 0" fill="#384949"/><path d="m-152.196 52.97-2.217-1.774h-2.683l3.326 3.326zm0 0" fill="#ede9e8"/><path d="m-152.196 52.97 2.217-1.774h2.683l-3.326 3.326zm0 0" fill="#dfd7d5"/><path d="m-146.653 37.472v5.964a5.545 5.545 0 0 1 -5.543 5.543 5.545 5.545 0 0 1 -5.543-5.543v-5.964l5.543.555zm0 0" fill="#ffcebf"/><path d="m-146.653 37.472v5.964a5.545 5.545 0 0 1 -5.543 5.543v-10.952zm0 0" fill="#ffa78f"/><path d="m-146.653 34.198v3.274l-5.543 2.772-5.543-2.772v-3.274zm0 0" fill="#99503d"/><path d="m-146.653 37.472-5.543 2.772v-6.046h5.543zm0 0" fill="#663325"/></g><g transform="matrix(.8833743636 0 0 .8833743636 192.689539 -14.1449582)"><path d="m-179.588 90.419h47.693v26.821h-47.693z" fill="#85453d" stroke-linecap="round" stroke-linejoin="round" stroke-width="1.072"/><path d="m-173.117 95.802h34.693v16.186h-34.693z" fill="#c27749" stroke-width=".241"/><path d="m-138.485 91.924h6.731v23.865h-6.731z" fill="#6a3631" stroke-linecap="round" stroke-linejoin="round" stroke-width=".626"/><path d="m-145.227 95.802v16.186h6.71v-16.186z" fill="#a45e43" stroke-width=".163"/><path d="m-185.785 88.713h60.168v3.545h-60.168z" fill="#c27749" stroke-width="1.072"/><path d="m-131.942 88.712h-.002.002v3.545h6.334v-3.545z" fill="#a45e43" stroke-width=".158"/><path d="m-185.997 115.533h60.58v5.317h-60.58z" fill="#c27749" stroke-width="1.072"/><path d="m-131.731 115.533v5.318h6.334v-5.318z" fill="#a45e43" stroke-width=".158"/></g><g fill="#562c28" fill-rule="evenodd" transform="matrix(1.08484 0 0 1.08484 105.99346556 -16.20073)"><g stroke-width=".053"><path d="m-46.513 84.42a.277.277 0 0 1 -.276-.276v-2.18a.277.277 0 0 1 .553 0v2.18a.277.277 0 0 1 -.277.277"/><path d="m-46.924 84.144h.855"/><path d="m-46.069 84.42h-.855a.277.277 0 0 1 0-.552h.855a.277.277 0 0 1 0 .553"/><path d="m-46.361 90.987a4.225 4.225 0 0 1 -4.22-4.22 4.225 4.225 0 0 1 4.22-4.22c1.127 0 2.187.438 2.984 1.235l.275.275-1.192 1.123-.517-.549.61-.575a3.44 3.44 0 0 0 -2.16-.755 3.47 3.47 0 0 0 -3.466 3.466 3.47 3.47 0 0 0 3.466 3.466"/><path d="m-44.243 88.82-.541-.526c.398-.411.618-.954.618-1.527 0-.599-.236-1.158-.666-1.575l-.282-.275.303-.286.258.274.247-.254c.577.56.894 1.312.894 2.116 0 .77-.295 1.499-.83 2.052"/><path d="m-46.361 86.276a.491.491 0 1 0 .001.982.491.491 0 0 0 -.001-.982m0 1.736a1.246 1.246 0 0 1 -1.245-1.245c0-.687.558-1.245 1.245-1.245.686 0 1.245.558 1.245 1.245 0 .686-.559 1.245-1.245 1.245m2.717-3.963-2.193 2.026"/><path d="m-45.58 86.353-.513-.555 2.193-2.026.513.554z"/><path d="m-43.147 90.987h-3.283v-.754h2.529v-.685l-2.277-1.715.453-.603 2.578 1.941z"/></g><path d="m11.853 6.459-5.745 5.745-5.745-5.745 5.745-5.745z" fill="#562c28" mask="url(#a)" transform="matrix(.05263 0 0 .05263 -42.898 81.832)"/><path d="m-47.822 85.182a.277.277 0 0 1 -.277-.276v-2.942a.277.277 0 0 1 .554 0v2.942a.277.277 0 0 1 -.277.276" stroke-width=".053"/></g></g></svg>