<?xml version="1.0" encoding="utf-8"?>
<!-- Generator: Adobe Illustrator 21.0.2, SVG Export Plug-In . SVG Version: 6.00 Build 0)  -->
<svg version="1.1" xmlns="http://www.w3.org/2000/svg" xmlns:xlink="http://www.w3.org/1999/xlink" x="0px" y="0px"
	 viewBox="0 0 110.979 128.417" enable-background="new 0 0 110.979 128.417" xml:space="preserve">
<g id="Layer_1">
</g>
<g id="Layer_4">
	<g id="Layer_63_1_">
		<polygon fill="#31847A" points="110.984,96.199 55.559,128.199 0.135,96.199 0.135,32.199 55.559,0.199 110.984,32.199 		"/>
	</g>
	<path fill="#1E3D3B" d="M102.055,37.921v53.14l-0.01,0.01l-1.42,0.81l-4.15,2.391l-0.199,0.12l-1.93,1.109l-0.801,0.46
		c-0.061,0.051-0.119,0.08-0.18,0.101l-0.1,0.06l-0.541,0.32l-1.1,0.63l-0.24,0.13l-0.129,0.05l-0.111,0.07l-0.76,0.44l-0.369,0.21
		l-0.23,0.13c-0.01,0.01-0.01,0.01-0.01,0l-0.189,0.109l-0.031,0.021l-1.439,0.83l-0.82,0.47l-1.049,0.6l-0.041,0.03l-1.23,0.71
		l-0.32,0.19l-0.129,0.069l-0.01,0.011l-0.01,0.01h-0.01l-1.541,0.89l-0.869,0.521l-1.26,0.72l-0.121,0.07l-0.08,0.05l-0.41,0.24
		l-0.029,0.01l-0.16,0.09v0.01l-0.779,0.45l-0.182,0.09l-0.02,0.021l-0.039,0.02l-1.01,0.58l-0.291,0.17l-0.369,0.21l-0.24,0.141
		h-0.01l-0.711,0.42l-4.619,2.67l-0.631,0.359l-0.06,0.03l-3.5,2.03l-4.039,2.33l-0.01,0.01l-0.43,0.25l-5.711,3.29l-0.56,0.32
		h-0.01l-0.299,0.18l-0.021,0.01l-0.479,0.28l-1.42-0.82l-0.851-0.49l-0.029-0.01l-1.141-0.66l-0.16-0.09l-0.439-0.26h-0.01
		l-2.291-1.33l-0.25-0.14l-0.369-0.221l-0.609-0.35l-0.041-0.03l-0.469-0.27l-0.262-0.15l-1.34-0.77l-0.09-0.05l-0.289-0.171
		l-0.75-0.44l-0.439-0.25l-0.441-0.26l-3.35-1.94l-0.689-0.39l-5.09-2.95l-0.391-0.22l-0.49-0.28l-0.33-0.2l-1.85-1.06l-0.57-0.33
		l-1.709-0.99l-2.51-1.46l-2.092-1.2l-0.818-0.47l-0.09-0.05l-0.5-0.29l-0.012-0.01l-0.209-0.12h-0.01l-0.451-0.261l-0.59-0.34
		c-0.01-0.01-0.01-0.01-0.02-0.01l-1.859-1.08l-1.021-0.59l-1.27-0.74l-0.529-0.31l-0.121-0.07l-0.189-0.11l-0.23-0.13l-0.059-0.04
		c0,0-0.01,0-0.021-0.01l-0.119-0.07l-0.16-0.09l-3.301-1.899l-3.439-1.99h-0.01l-0.051-0.03l-0.078-0.04l-0.031-0.02v-53.14
		l0.59-0.34l2.24-1.3l0.16-0.08l0.33-0.19l0.67-0.39l1.869-1.09h0.012l0.699-0.4l3.76-2.17l0.541-0.31l0.859-0.5l1.471-0.85
		l0.01-0.01l0.689-0.39l0.131-0.07l0.299-0.18l1.109-0.65l0.881-0.51l2.061-1.18l0.479-0.28l1.121-0.64l0.67-0.38l0.6-0.35
		l0.561-0.32l0.1-0.06l0.02-0.02l0.16-0.09l0.74-0.43l0.17-0.09l1.66-0.95l0.279-0.16l0.23-0.14l0.27-0.15l0.381-0.22l0.44-0.26
		l1.1-0.65l0.521-0.3l2.279-1.3l0.689-0.41l1.4-0.8h0.01l0.051-0.03l5.721-3.3l0.19-0.11l0.269-0.16l6.07-3.51l1.439-0.83
		l1.061,0.62l3.189,1.84l0.41,0.24l2.891,1.67l2.6,1.5l3.711,2.14l0.119,0.06v0.01l0.32,0.18l0.76,0.44l5.52,3.19l0.08,0.04
		l0.141,0.08l0.43,0.25l0.48,0.28l0.25,0.14l0.119,0.07l0.48,0.28l0.561,0.33l2.299,1.309l0.521,0.3l0.27,0.16l0.08,0.039l0.52,0.3
		l1,0.58c0.01,0,0.01,0,0.01,0l1.359,0.79l0.801,0.46l0.09,0.06l0.701,0.4l0.389,0.23l0.25,0.14l0.43,0.26
		c0.01,0,0.021,0,0.041,0.01l0.23,0.13l0.02,0.01l1.379,0.8l0.101,0.06l2.049,1.18l0.041,0.03v0.01l0.26,0.14l0.66,0.39l1.459,0.84
		l1.291,0.74l0.65,0.38l0.779,0.44l0.439,0.25l1.939,1.12l2.271,1.31L102.055,37.921z"/>
	<radialGradient id="SVGID_1_" cx="55.3848" cy="64.1136" r="44.584" gradientUnits="userSpaceOnUse">
		<stop  offset="0.3333" style="stop-color:#2AFFC6;stop-opacity:0.2"/>
		<stop  offset="0.496" style="stop-color:#2DFFC9;stop-opacity:0.1429"/>
		<stop  offset="0.639" style="stop-color:#34FED4;stop-opacity:0.0927"/>
		<stop  offset="0.7742" style="stop-color:#42FDE6;stop-opacity:0.0453"/>
		<stop  offset="0.9032" style="stop-color:#54FCFF;stop-opacity:0"/>
	</radialGradient>
	<circle fill-rule="evenodd" clip-rule="evenodd" fill="url(#SVGID_1_)" cx="55.385" cy="64.114" r="44.584"/>
	<g>
		<g>
			<path fill-rule="evenodd" clip-rule="evenodd" fill="#43FFFA" d="M48.73,84.501c0.947-1.595,1.889-3.193,2.844-4.784
				c1.277-2.13,2.563-4.252,3.855-6.372c0.025-0.04,0.023-0.473,0.242-0.085c-0.008,0.2-0.024,0.402-0.024,0.603
				c-0.004,2.533-0.006,5.066-0.008,7.601c-0.047,0.044-0.096,0.087-0.145,0.129c-0.232-0.016-0.424,0.108-0.621,0.198
				c-1.441,0.65-2.873,1.325-4.32,1.96C49.955,84.012,49.396,84.394,48.73,84.501z"/>
			<path fill-rule="evenodd" clip-rule="evenodd" fill="#14847E" d="M55.641,81.462c0.002-2.533,0.004-5.066,0.008-7.6
				c0-0.2,0.016-0.402,0.024-0.603c0.629,0.749,1.047,1.633,1.557,2.459c1.264,2.049,2.508,4.111,3.732,6.184
				c0.504,0.852,1.084,1.659,1.484,2.571c-0.107-0.015-0.229-0.002-0.324-0.044C59.959,83.445,57.801,82.453,55.641,81.462z"/>
			<path fill-rule="evenodd" clip-rule="evenodd" fill="#1F6D6B" d="M48.73,84.501c0.666-0.107,1.225-0.489,1.824-0.751
				c1.447-0.635,2.879-1.31,4.32-1.96c0.197-0.09,0.389-0.214,0.623-0.198c0.203,0.085,0.166,0.266,0.166,0.427
				c0.002,2.047,0,4.093,0,6.14c0.002,0.207,0.014,0.421-0.285,0.431c-1.508-0.875-3.016-1.749-4.523-2.629
				c-0.65-0.378-1.301-0.763-1.947-1.152C48.803,84.745,48.59,84.718,48.73,84.501z"/>
			<path fill-rule="evenodd" clip-rule="evenodd" fill="#001C1B" d="M55.379,88.589c0.299-0.01,0.287-0.224,0.285-0.431
				c0-2.047,0.002-4.093,0-6.14c0-0.161,0.037-0.342-0.166-0.427c0.047-0.042,0.096-0.085,0.143-0.129
				c2.16,0.99,4.318,1.981,6.48,2.967c0.096,0.042,0.217,0.029,0.324,0.044c0.283,0.268-0.063,0.284-0.162,0.345
				c-1.049,0.638-2.107,1.26-3.166,1.888c-1.039,0.616-2.08,1.235-3.123,1.845C55.805,88.66,55.602,88.886,55.379,88.589z"/>
			<path fill-rule="evenodd" clip-rule="evenodd" fill="#43FFFA" d="M55.672,95.583c-0.32,0.231-0.322-0.132-0.404-0.245
				c-1.43-1.989-2.844-3.99-4.262-5.99c-0.711-1.004-1.424-2.008-2.16-3.049c0.283-0.097,0.426,0.073,0.582,0.164
				c1.844,1.082,3.68,2.171,5.521,3.252c0.236,0.137,0.443,0.339,0.738,0.347C55.609,91.902,55.643,93.744,55.672,95.583z"/>
			<path fill-rule="evenodd" clip-rule="evenodd" fill="#001C1B" d="M55.672,95.583c-0.029-1.839-0.063-3.682,0.016-5.521
				c1.977-1.162,3.955-2.327,5.934-3.484c0.123-0.073,0.246-0.278,0.42-0.11c0.166,0.162,0.01,0.306-0.08,0.434
				c-1.998,2.818-4,5.634-6.004,8.449C55.887,95.451,55.824,95.577,55.672,95.583z"/>
		</g>
		
			<circle fill-rule="evenodd" clip-rule="evenodd" fill="none" stroke="#43FFFA" stroke-miterlimit="10" cx="55.348" cy="84.76" r="14.063"/>
		
			<circle fill-rule="evenodd" clip-rule="evenodd" fill="none" stroke="#43FFFA" stroke-width="0.5" stroke-miterlimit="10" cx="55.348" cy="84.76" r="15.756"/>
		
			<circle fill-rule="evenodd" clip-rule="evenodd" fill="none" stroke="#43FFFA" stroke-width="0.25" stroke-miterlimit="10" cx="55.348" cy="84.76" r="16.875"/>
	</g>
	<g>
		<path fill-rule="evenodd" clip-rule="evenodd" fill="#43FFFA" d="M62.594,43.344c-0.961-0.466-3.23-2.778-5.811-3.671
			c2.684-1.368,4.58-1.626,4.998-1.704c1.721,1.122,3.063,2.752,3.801,4.671C64.256,43.168,63.105,43.59,62.594,43.344
			 M60.857,37.315c-1.551,0.369-3.816,1.293-4.48,1.293c-0.664,0-2.932-0.924-4.482-1.293c1.717-1.093,3.877-1.799,4-1.838
			c0.297-0.097,0.666-0.097,0.965,0C56.98,35.516,59.143,36.223,60.857,37.315 M54.992,46.861c-0.613,0.356-3.348,1.671-4.871,3.283
			c-1.24-0.485-2.451-0.916-3.324-1.168c-0.115-0.368-0.209-0.745-0.279-1.13c1.119-1.592,2.748-2.827,2.822-2.897
			c0.242-0.225,0.627-0.309,0.967-0.212C50.426,44.77,52.939,45.617,54.992,46.861 M56.707,40.662
			c0.139,0.07,3.02,1.178,4.965,3.144c-1.758,0.666-4.52,2.494-5.512,2.494c-0.992,0-3.473-1.828-5.231-2.494
			c1.947-1.965,4.545-3.074,4.682-3.144C55.949,40.488,56.369,40.488,56.707,40.662 M49.861,43.344
			c-0.494,0.24-1.586-0.151-2.855-0.657c0.729-1.936,2.061-3.583,3.775-4.718c0.58,0.102,2.383,0.416,4.861,1.69
			C53.074,40.555,50.816,42.876,49.861,43.344 M62.148,44.736c0.344-0.095,0.73-0.013,0.973,0.208
			c0.078,0.072,1.826,1.365,2.951,3.003c-0.064,0.309-0.141,0.612-0.236,0.909c-0.887,0.238-2.535,0.461-3.857,0.967
			c-1.533-1.583-3.928-2.652-4.541-3C59.5,45.6,62.029,44.77,62.148,44.736 M48.799,44.145c-0.428,0.325-1.4,1.175-2.428,2.315
			c-0.012-0.178-0.018-0.357-0.018-0.537c0-0.868,0.125-1.709,0.355-2.507C47.365,43.605,48.082,43.846,48.799,44.145
			 M61.184,50.221c-1.748,0.573-3.525,2.007-5.053,2.007c-1.525,0-3.303-1.434-5.051-2.007c1.936-1.692,4.369-2.788,4.508-2.848
			c0.336-0.149,0.752-0.149,1.088,0C56.814,47.433,59.25,48.528,61.184,50.221 M66.209,46.619c-1.086-1.204-2.131-2.107-2.58-2.443
			c0.77-0.317,1.541-0.567,2.238-0.761c0.24,0.803,0.369,1.649,0.369,2.524C66.236,46.168,66.227,46.395,66.209,46.619"/>
	</g>
	<g>
		<g>
			<path fill="#43FFFA" d="M38.219,84.449c-6.333,0-12.667,0-19,0c-0.319,0-0.32,0.496,0,0.496c6.333,0,12.667,0,19,0
				C38.538,84.945,38.539,84.449,38.219,84.449L38.219,84.449z"/>
		</g>
	</g>
	<g>
		<g>
			<path fill="#43FFFA" d="M27.051,84.697c0-3.972,0-7.944,0-11.916c0-0.319-0.496-0.32-0.496,0c0,3.972,0,7.944,0,11.916
				C26.555,85.016,27.051,85.016,27.051,84.697L27.051,84.697z"/>
		</g>
	</g>
	<g>
		<g>
			<path fill="#43FFFA" d="M26.51,78.969c0.055,0,0.055-0.086,0-0.086C26.454,78.883,26.454,78.969,26.51,78.969L26.51,78.969z"/>
		</g>
	</g>
	<g>
		<g>
			<path fill="#43FFFA" d="M27.146,77.707c3.11-3.112,6.222-6.222,9.332-9.334c0.228-0.228-0.126-0.582-0.354-0.354
				c-3.11,3.112-6.222,6.222-9.332,9.334C26.564,77.582,26.918,77.935,27.146,77.707L27.146,77.707z"/>
		</g>
	</g>
	<g>
		<g>
			<path fill="#43FFFA" d="M32.551,72.114c0-5.639,0-11.278,0-16.917c0-0.322-0.5-0.322-0.5,0c0,5.639,0,11.278,0,16.917
				C32.051,72.435,32.551,72.436,32.551,72.114L32.551,72.114z"/>
		</g>
	</g>
	<g>
		<g>
			<path fill="#43FFFA" d="M32.469,60.78c3.917,0,7.833,0,11.75,0c0.322,0,0.322-0.5,0-0.5c-3.917,0-7.833,0-11.75,0
				C32.147,60.28,32.147,60.78,32.469,60.78L32.469,60.78z"/>
		</g>
	</g>
	<g>
		<g>
			<path fill="#43FFFA" d="M40.801,60.53c0-3.118,0-6.236,0-9.354c0-0.322-0.5-0.322-0.5,0c0,3.118,0,6.236,0,9.354
				C40.301,60.852,40.801,60.852,40.801,60.53L40.801,60.53z"/>
		</g>
	</g>
	<g>
		<g>
			<path fill="#43FFFA" d="M51.469,60.989c0,2.347,0,4.695,0,7.042c0,0.322,0.5,0.322,0.5,0c0-2.347,0-4.695,0-7.042
				C51.969,60.667,51.469,60.666,51.469,60.989L51.469,60.989z"/>
		</g>
	</g>
	<g>
		<g>
			<path fill="#43FFFA" d="M51.781,64.614c3.861,0,7.721,0,11.582,0c0.322,0,0.322-0.5,0-0.5c-3.861,0-7.721,0-11.582,0
				C51.46,64.114,51.459,64.614,51.781,64.614L51.781,64.614z"/>
		</g>
	</g>
	<g>
		<g>
			<path fill="#43FFFA" d="M69.115,57.864c-0.73,0-1.46,0-2.191,0c-0.322,0-0.322,0.5,0,0.5c2.435,0,4.871,0,7.306,0
				c0.322,0,0.322-0.5,0-0.5c-0.078,0-0.155,0-0.233,0c-0.322,0-0.322,0.5,0,0.5c5.685,0,11.37,0,17.055,0c0.322,0,0.322-0.5,0-0.5
				c-0.04,0-0.079,0-0.119,0c-0.322,0-0.322,0.5,0,0.5c0.04,0,0.079,0,0.119,0c0.322,0,0.322-0.5,0-0.5c-5.685,0-11.37,0-17.055,0
				c-0.322,0-0.322,0.5,0,0.5c0.078,0,0.155,0,0.233,0c0.322,0,0.322-0.5,0-0.5c-2.435,0-4.871,0-7.306,0c-0.322,0-0.322,0.5,0,0.5
				c0.73,0,1.46,0,2.191,0C69.437,58.364,69.437,57.864,69.115,57.864L69.115,57.864z"/>
		</g>
	</g>
	<g>
		<g>
			<path fill="#43FFFA" d="M81.803,57.864c0-6.083,0-12.167,0-18.25c0-0.322-0.5-0.322-0.5,0c0,6.083,0,12.167,0,18.25
				C81.303,58.185,81.803,58.186,81.803,57.864L81.803,57.864z"/>
		</g>
	</g>
	<g>
		<g>
			<path fill="#43FFFA" d="M81.553,50.864c-3.118,0-6.237,0-9.355,0c-0.322,0-0.322,0.5,0,0.5c3.118,0,6.237,0,9.355,0
				C81.874,51.364,81.875,50.864,81.553,50.864L81.553,50.864z"/>
		</g>
	</g>
	<g>
		<g>
			<path fill="#43FFFA" d="M75.844,48.614c0-4.528,0-9.055,0-13.583c0-0.322-0.5-0.322-0.5,0c0,4.528,0,9.055,0,13.583
				C75.344,48.935,75.844,48.936,75.844,48.614L75.844,48.614z"/>
		</g>
	</g>
	<g>
		<g>
			<path fill="#43FFFA" d="M72.385,39.489c1.063,0,2.125,0,3.188,0c0.322,0,0.322-0.5,0-0.5c-1.063,0-2.125,0-3.188,0
				C72.063,38.989,72.063,39.489,72.385,39.489L72.385,39.489z"/>
		</g>
	</g>
	<g>
		<g>
			<path fill="#43FFFA" d="M74.219,58.531c0,6.222,0,12.445,0,18.667c0,0.322,0.5,0.322,0.5,0c0-6.222,0-12.445,0-18.667
				C74.719,58.209,74.219,58.208,74.219,58.531L74.219,58.531z"/>
		</g>
	</g>
	<g>
		<g>
			<path fill="#43FFFA" d="M69.719,75.864c1.417,0,2.833,0,4.25,0c0.322,0,0.322-0.5,0-0.5c-1.417,0-2.833,0-4.25,0
				C69.397,75.364,69.397,75.864,69.719,75.864L69.719,75.864z"/>
		</g>
	</g>
	<g>
		<g>
			<path fill="#43FFFA" d="M74.292,65.373c1.944,1.945,3.888,3.889,5.832,5.834c0.228,0.228,0.581-0.126,0.354-0.354
				c-1.944-1.945-3.888-3.889-5.832-5.834C74.418,64.792,74.064,65.145,74.292,65.373L74.292,65.373z"/>
		</g>
	</g>
	<g>
		<g>
			<path fill="#43FFFA" d="M78.135,68.197c0-3.278,0-6.555,0-9.833c0-0.322-0.5-0.322-0.5,0c0,3.278,0,6.555,0,9.833
				C77.635,68.518,78.135,68.519,78.135,68.197L78.135,68.197z"/>
		</g>
	</g>
	<g>
		<g>
			<path fill="#43FFFA" d="M39.447,45.781c-6.16,0-12.319,0-18.478,0c-0.322,0-0.322,0.5,0,0.5c6.16,0,12.319,0,18.478,0
				C39.769,46.281,39.77,45.781,39.447,45.781L39.447,45.781z"/>
		</g>
	</g>
	<g>
		<g>
			<path fill="#43FFFA" d="M26.719,46.03c0,6.389,0,12.778,0,19.167c0,0.322,0.5,0.322,0.5,0c0-6.389,0-12.778,0-19.167
				C27.219,45.708,26.719,45.708,26.719,46.03L26.719,46.03z"/>
		</g>
	</g>
	<g>
		<g>
			<path fill="#43FFFA" d="M27.051,57.614c1.5,0,3,0,4.5,0c0.322,0,0.322-0.5,0-0.5c-1.5,0-3,0-4.5,0
				C26.729,57.114,26.729,57.614,27.051,57.614L27.051,57.614z"/>
		</g>
	</g>
	<g>
		<g>
			<path fill="#43FFFA" d="M43.719,72.197c-3.889,0-7.779,0-11.668,0c-0.322,0-0.322,0.5,0,0.5c3.889,0,7.779,0,11.668,0
				C44.041,72.697,44.041,72.197,43.719,72.197L43.719,72.197z"/>
		</g>
	</g>
	<g>
		<g>
			<path fill="#43FFFA" d="M35.219,70.114c2.333,0,4.667,0,7,0c0.322,0,0.322-0.5,0-0.5c-2.333,0-4.667,0-7,0
				C34.897,69.614,34.897,70.114,35.219,70.114L35.219,70.114z"/>
		</g>
	</g>
	<g>
		<g>
			<path fill="#43FFFA" d="M41.219,70.031c0-1.833,0-3.667,0-5.5c0-0.322-0.5-0.322-0.5,0c0,1.833,0,3.667,0,5.5
				C40.719,70.352,41.219,70.353,41.219,70.031L41.219,70.031z"/>
		</g>
	</g>
	<g>
		<g>
			<path fill="#43FFFA" d="M41.469,66.697c3.333,0,6.667,0,10,0c0.322,0,0.322-0.5,0-0.5c-3.333,0-6.667,0-10,0
				C41.147,66.197,41.147,66.697,41.469,66.697L41.469,66.697z"/>
		</g>
	</g>
	<g>
		<g>
			<path fill="#43FFFA" d="M67.719,58.447c0,3.139,0,6.278,0,9.417c0,0.322,0.5,0.322,0.5,0c0-3.139,0-6.278,0-9.417
				C68.219,58.125,67.719,58.125,67.719,58.447L67.719,58.447z"/>
		</g>
	</g>
	<g>
		<g>
			<path fill="#43FFFA" d="M74.135,62.531c-1.833,0-3.667,0-5.5,0c-0.322,0-0.322,0.5,0,0.5c1.833,0,3.667,0,5.5,0
				C74.456,63.031,74.457,62.531,74.135,62.531L74.135,62.531z"/>
		</g>
	</g>
	<g>
		<g>
			<path fill="#43FFFA" d="M72.469,85.448c4.111,0,8.223,0,12.334,0c0.322,0,0.322-0.5,0-0.5c-4.111,0-8.223,0-12.334,0
				C72.147,84.948,72.147,85.448,72.469,85.448L72.469,85.448z"/>
		</g>
	</g>
	<g>
		<g>
			<path fill="#43FFFA" d="M79.719,85.281c0-3.361,0-6.722,0-10.083c0-0.322-0.5-0.322-0.5,0c0,3.361,0,6.722,0,10.083
				C79.219,85.602,79.719,85.603,79.719,85.281L79.719,85.281z"/>
		</g>
	</g>
	<g>
		<g>
			<path fill="#43FFFA" d="M79.803,79.531c2.555,0,5.111,0,7.666,0c0.322,0,0.322-0.5,0-0.5c-2.555,0-5.111,0-7.666,0
				C79.481,79.031,79.48,79.531,79.803,79.531L79.803,79.531z"/>
		</g>
	</g>
	<g>
		<g>
			<path fill="#43FFFA" d="M85.551,79.281c0-6.806,0-13.611,0-20.417c0-0.322-0.5-0.322-0.5,0c0,6.806,0,13.611,0,20.417
				C85.051,79.602,85.551,79.603,85.551,79.281L85.551,79.281z"/>
		</g>
	</g>
	<g>
		<g>
			<path fill="#43FFFA" d="M85.719,68.697c3.68,0,7.361,0,11.041,0c0.322,0,0.322-0.5,0-0.5c-3.68,0-7.361,0-11.041,0
				C85.397,68.197,85.397,68.697,85.719,68.697L85.719,68.697z"/>
		</g>
	</g>
	<g>
		<g>
			<path fill="#43FFFA" d="M76.219,85.698c0,4.444,0,8.889,0,13.333c0,0.322,0.5,0.322,0.5,0c0-4.444,0-8.889,0-13.333
				C76.719,85.376,76.219,85.375,76.219,85.698L76.219,85.698z"/>
		</g>
	</g>
	<g id="Layer_63_2_">
		<polygon fill="none" stroke="#43FFFA" stroke-width="0.5" stroke-miterlimit="10" points="96.342,88.031 55.639,111.531 
			14.937,88.031 14.937,41.032 55.639,17.532 96.342,41.032 		"/>
	</g>
	<g>
		<g>
			<path fill="#43FFFA" d="M37.626,28.374c1.923,1.702,3.846,3.403,5.77,5.104c0.24,0.213,0.595-0.14,0.354-0.354
				c-1.923-1.701-3.847-3.402-5.77-5.104C37.739,27.808,37.384,28.16,37.626,28.374L37.626,28.374z"/>
		</g>
	</g>
	<g>
		<g>
			<path fill="#43FFFA" d="M55.469,17.864c0,3.32,0,6.639,0,9.959c0,0.322,0.5,0.322,0.5,0c0-3.32,0-6.639,0-9.959
				C55.969,17.542,55.469,17.541,55.469,17.864L55.469,17.864z"/>
		</g>
	</g>
	<g>
		<g>
			<path fill="#43FFFA" d="M74.137,36.364c4.444,0,8.888,0,13.332,0c0.322,0,0.322-0.5,0-0.5c-4.444,0-8.888,0-13.332,0
				C73.815,35.864,73.814,36.364,74.137,36.364L74.137,36.364z"/>
		</g>
	</g>
	<g>
		<g>
			<path fill="#43FFFA" d="M81.637,45.614c2.75,0,5.5,0,8.25,0c0.322,0,0.322-0.5,0-0.5c-2.75,0-5.5,0-8.25,0
				C81.315,45.114,81.314,45.614,81.637,45.614L81.637,45.614z"/>
		</g>
	</g>
	<g>
		<g>
			<path fill="#43FFFA" d="M86.729,45.374c1.834-1.833,3.666-3.667,5.5-5.5c0.228-0.228-0.126-0.581-0.354-0.354
				c-1.834,1.833-3.666,3.667-5.5,5.5C86.148,45.248,86.502,45.602,86.729,45.374L86.729,45.374z"/>
		</g>
	</g>
	<g>
		<g>
			<path fill="#43FFFA" d="M81.637,54.447c4.75,0,9.5,0,14.25,0c0.322,0,0.322-0.5,0-0.5c-4.75,0-9.5,0-14.25,0
				C81.315,53.947,81.314,54.447,81.637,54.447L81.637,54.447z"/>
		</g>
	</g>
	<g>
		<g>
			<path fill="#43FFFA" d="M32.303,84.781c0,4.444,0,8.889,0,13.333c0,0.322,0.5,0.322,0.5,0c0-4.444,0-8.889,0-13.333
				C32.803,84.459,32.303,84.458,32.303,84.781L32.303,84.781z"/>
		</g>
	</g>
	<g>
		<g>
			<path fill="#43FFFA" d="M15.887,68.864c5.5,0,11,0,16.5,0c0.322,0,0.322-0.5,0-0.5c-5.5,0-11,0-16.5,0
				C15.565,68.364,15.564,68.864,15.887,68.864L15.887,68.864z"/>
		</g>
	</g>
	<g>
		<g>
			<path fill="#43FFFA" d="M21.387,68.698c0-5.972,0-11.945,0-17.917c0-0.322-0.5-0.322-0.5,0c0,5.972,0,11.945,0,17.917
				C20.887,69.019,21.387,69.02,21.387,68.698L21.387,68.698z"/>
		</g>
	</g>
	<g>
		<g>
			<path fill="#43FFFA" d="M25.637,35.531c0,3.389,0,6.778,0,10.167c0,0.322,0.5,0.322,0.5,0c0-3.389,0-6.778,0-10.167
				C26.137,35.209,25.637,35.208,25.637,35.531L25.637,35.531z"/>
		</g>
	</g>
	<g>
		<g>
			<path fill="#43FFFA" d="M26.137,39.031c2.139,0,4.277,0,6.416,0c0.322,0,0.322-0.5,0-0.5c-2.139,0-4.277,0-6.416,0
				C25.815,38.531,25.814,39.031,26.137,39.031L26.137,39.031z"/>
		</g>
	</g>
	<g>
		<g>
			<path fill="#43FFFA" d="M30.137,38.697c0-1.833,0-3.667,0-5.5c0-0.322-0.5-0.322-0.5,0c0,1.833,0,3.667,0,5.5
				C29.637,39.019,30.137,39.019,30.137,38.697L30.137,38.697z"/>
		</g>
	</g>
	<g>
		<g>
			<path fill="#43FFFA" d="M55.387,101.947c0,3.222,0,6.445,0,9.667c0,0.322,0.5,0.322,0.5,0c0-3.222,0-6.445,0-9.667
				C55.887,101.625,55.387,101.624,55.387,101.947L55.387,101.947z"/>
		</g>
	</g>
	<g>
		<g>
			<path fill="#43FFFA" d="M65.053,105.531c-2.972,0-5.944,0-8.916,0c-0.322,0-0.322,0.5,0,0.5c2.972,0,5.944,0,8.916,0
				C65.374,106.031,65.375,105.531,65.053,105.531L65.053,105.531z"/>
		</g>
	</g>
	<g>
		<g>
			<path fill="#43FFFA" d="M32.887,92.614c2.361,0,4.721,0,7.082,0c0.322,0,0.322-0.5,0-0.5c-2.361,0-4.721,0-7.082,0
				C32.565,92.114,32.564,92.614,32.887,92.614L32.887,92.614z"/>
		</g>
	</g>
	<g>
		<g>
			<path fill="#43FFFA" d="M43.303,97.031c0,2.306,0,4.611,0,6.917c0,0.322,0.5,0.322,0.5,0c0-2.306,0-4.611,0-6.917
				C43.803,96.709,43.303,96.708,43.303,97.031L43.303,97.031z"/>
		</g>
	</g>
	<g>
		<g>
			<path fill="#43FFFA" d="M77.053,90.281c5.222,0,10.444,0,15.666,0c0.322,0,0.322-0.5,0-0.5c-5.222,0-10.444,0-15.666,0
				C76.731,89.781,76.73,90.281,77.053,90.281L77.053,90.281z"/>
		</g>
	</g>
	<g>
		<g>
			<path fill="#43FFFA" d="M21.387,84.697c0-2,0-4,0-6c0-0.322-0.5-0.322-0.5,0c0,2,0,4,0,6
				C20.887,85.018,21.387,85.019,21.387,84.697L21.387,84.697z"/>
		</g>
	</g>
	<g>
		<g>
			<path fill="#43FFFA" d="M14.887,80.364c1.972,0,3.944,0,5.916,0c0.322,0,0.322-0.5,0-0.5c-1.972,0-3.944,0-5.916,0
				C14.565,79.864,14.564,80.364,14.887,80.364L14.887,80.364z"/>
		</g>
	</g>
	
		<circle fill-rule="evenodd" clip-rule="evenodd" fill="none" stroke="#43FFFA" stroke-miterlimit="10" cx="56.348" cy="44.76" r="14.063"/>
	
		<circle fill-rule="evenodd" clip-rule="evenodd" fill="none" stroke="#43FFFA" stroke-width="0.5" stroke-miterlimit="10" cx="56.348" cy="44.76" r="15.756"/>
	
		<circle fill-rule="evenodd" clip-rule="evenodd" fill="none" stroke="#43FFFA" stroke-width="0.25" stroke-miterlimit="10" cx="56.348" cy="44.76" r="16.875"/>
	<g id="Layer_2_2_">
		<g id="Layer_16_2_">
			<path opacity="0.13" enable-background="new    " d="M9.961,37.922v53.121l46.072,26.559l46.074-26.559V37.922L56.033,11.361
				L9.961,37.922z M100.242,39.002v50.971l-44.209,25.489L11.822,89.973V39.002l44.211-25.489L100.242,39.002z"/>
		</g>
	</g>
</g>
<g id="border">
</g>
</svg>
