<svg enable-background="new 0 0 110.979 128.417" viewBox="0 0 110.979 128.417" xmlns="http://www.w3.org/2000/svg" xmlns:xlink="http://www.w3.org/1999/xlink"><radialGradient id="a" cx="55.3848" cy="64.1136" gradientUnits="userSpaceOnUse" r="44.584"><stop offset=".3333" stop-color="#2affc6" stop-opacity=".2"/><stop offset=".496" stop-color="#2dffc9" stop-opacity=".1429"/><stop offset=".639" stop-color="#34fed4" stop-opacity=".0927"/><stop offset=".7742" stop-color="#42fde6" stop-opacity=".0453"/><stop offset=".9032" stop-color="#54fcff" stop-opacity="0"/></radialGradient><path d="m110.984 96.199-55.425 32-55.424-32v-64l55.424-32 55.425 32z" fill="#31847a"/><path d="m102.055 37.921v53.14l-.01.01-1.42.81-4.15 2.391-.199.12-1.93 1.109-.801.46c-.061.051-.119.08-.18.101l-.1.06-.541.32-1.1.63-.24.13-.129.05-.111.07-.76.44-.369.21-.23.13c-.01.01-.01.01-.01 0l-.189.109-.031.021-1.439.83-.82.47-1.049.6-.041.03-1.23.71-.32.19-.129.069-.01.011-.01.01h-.01l-1.541.89-.869.521-1.26.72-.121.07-.08.05-.41.24-.029.01-.16.09v.01l-.779.45-.182.09-.02.021-.039.02-1.01.58-.291.17-.369.21-.24.141h-.01l-.711.42-4.619 2.67-.631.359-.06.03-3.5 2.03-4.039 2.33-.01.01-.43.25-5.711 3.29-.56.32h-.01l-.299.18-.021.01-.479.28-1.42-.82-.851-.49-.029-.01-1.141-.66-.16-.09-.439-.26h-.01l-2.291-1.33-.25-.14-.369-.221-.609-.35-.041-.03-.469-.27-.262-.15-1.34-.77-.09-.05-.289-.171-.75-.44-.439-.25-.441-.26-3.35-1.94-.689-.39-5.09-2.95-.391-.22-.49-.28-.33-.2-1.85-1.06-.57-.33-1.709-.99-2.51-1.46-2.092-1.2-.818-.47-.09-.05-.5-.29-.012-.01-.209-.12h-.01l-.451-.261-.59-.34c-.01-.01-.01-.01-.02-.01l-1.859-1.08-1.021-.59-1.27-.74-.529-.31-.121-.07-.189-.11-.23-.13-.059-.04s-.01 0-.021-.01l-.119-.07-.16-.09-3.301-1.899-3.439-1.99h-.01l-.051-.03-.078-.04-.031-.02v-53.14l.59-.34 2.24-1.3.16-.08.33-.19.67-.39 1.869-1.09h.012l.699-.4 3.76-2.17.541-.31.859-.5 1.471-.85.01-.01.689-.39.131-.07.299-.18 1.109-.65.881-.51 2.061-1.18.479-.28 1.121-.64.67-.38.6-.35.561-.32.1-.06.02-.02.16-.09.74-.43.17-.09 1.66-.95.279-.16.23-.14.27-.15.381-.22.44-.26 1.1-.65.521-.3 2.279-1.3.689-.41 1.4-.8h.01l.051-.03 5.721-3.3.19-.11.269-.16 6.07-3.51 1.439-.83 1.061.62 3.189 1.84.41.24 2.891 1.67 2.6 1.5 3.711 2.14.119.06v.01l.32.18.76.44 5.52 3.19.08.04.141.08.43.25.48.28.25.14.119.07.48.28.561.33 2.299 1.309.521.3.27.16.08.039.52.3 1 .58h.01l1.359.79.801.46.09.06.701.4.389.23.25.14.43.26c.01 0 .021 0 .041.01l.23.13.02.01 1.379.8.101.06 2.049 1.18.041.03v.01l.26.14.66.39 1.459.84 1.291.74.65.38.779.44.439.25 1.939 1.12 2.271 1.31z" fill="#1e3d3b"/><circle clip-rule="evenodd" cx="55.385" cy="64.114" fill="url(#a)" fill-rule="evenodd" r="44.584"/><path clip-rule="evenodd" d="m48.73 84.501c.947-1.595 1.889-3.193 2.844-4.784 1.277-2.13 2.563-4.252 3.855-6.372.025-.04.023-.473.242-.085-.008.2-.024.402-.024.603-.004 2.533-.006 5.066-.008 7.601-.047.044-.096.087-.145.129-.232-.016-.424.108-.621.198-1.441.65-2.873 1.325-4.32 1.96-.598.261-1.157.643-1.823.75z" fill="#43fffa" fill-rule="evenodd"/><path clip-rule="evenodd" d="m55.641 81.462c.002-2.533.004-5.066.008-7.6 0-.2.016-.402.024-.603.629.749 1.047 1.633 1.557 2.459 1.264 2.049 2.508 4.111 3.732 6.184.504.852 1.084 1.659 1.484 2.571-.107-.015-.229-.002-.324-.044-2.163-.984-4.321-1.976-6.481-2.967z" fill="#14847e" fill-rule="evenodd"/><path clip-rule="evenodd" d="m48.73 84.501c.666-.107 1.225-.489 1.824-.751 1.447-.635 2.879-1.31 4.32-1.96.197-.09.389-.214.623-.198.203.085.166.266.166.427.002 2.047 0 4.093 0 6.14.002.207.014.421-.285.431-1.508-.875-3.016-1.749-4.523-2.629-.65-.378-1.301-.763-1.947-1.152-.105-.064-.318-.091-.178-.308z" fill="#1f6d6b" fill-rule="evenodd"/><path clip-rule="evenodd" d="m55.379 88.589c.299-.01.287-.224.285-.431 0-2.047.002-4.093 0-6.14 0-.161.037-.342-.166-.427.047-.042.096-.085.143-.129 2.16.99 4.318 1.981 6.48 2.967.096.042.217.029.324.044.283.268-.063.284-.162.345-1.049.638-2.107 1.26-3.166 1.888-1.039.616-2.08 1.235-3.123 1.845-.189.109-.392.335-.615.038z" fill="#001c1b" fill-rule="evenodd"/><path clip-rule="evenodd" d="m55.672 95.583c-.32.231-.322-.132-.404-.245-1.43-1.989-2.844-3.99-4.262-5.99-.711-1.004-1.424-2.008-2.16-3.049.283-.097.426.073.582.164 1.844 1.082 3.68 2.171 5.521 3.252.236.137.443.339.738.347-.078 1.84-.044 3.682-.015 5.521z" fill="#43fffa" fill-rule="evenodd"/><path clip-rule="evenodd" d="m55.672 95.583c-.029-1.839-.063-3.682.016-5.521 1.977-1.162 3.955-2.327 5.934-3.484.123-.073.246-.278.42-.11.166.162.01.306-.08.434-1.998 2.818-4 5.634-6.004 8.449-.071.1-.134.226-.286.232z" fill="#001c1b" fill-rule="evenodd"/><circle clip-rule="evenodd" cx="55.348" cy="84.76" fill="none" r="14.063" stroke="#43fffa" stroke-miterlimit="10"/><circle clip-rule="evenodd" cx="55.348" cy="84.76" fill="none" r="15.756" stroke="#43fffa" stroke-miterlimit="10" stroke-width=".5"/><circle clip-rule="evenodd" cx="55.348" cy="84.76" fill="none" r="16.875" stroke="#43fffa" stroke-miterlimit="10" stroke-width=".25"/><g fill="#43fffa"><path clip-rule="evenodd" d="m62.594 43.344c-.961-.466-3.23-2.778-5.811-3.671 2.684-1.368 4.58-1.626 4.998-1.704 1.721 1.122 3.063 2.752 3.801 4.671-1.326.528-2.477.95-2.988.704m-1.737-6.029c-1.551.369-3.816 1.293-4.48 1.293s-2.932-.924-4.482-1.293c1.717-1.093 3.877-1.799 4-1.838.297-.097.666-.097.965 0 .12.039 2.283.746 3.997 1.838m-5.865 9.546c-.613.356-3.348 1.671-4.871 3.283-1.24-.485-2.451-.916-3.324-1.168-.115-.368-.209-.745-.279-1.13 1.119-1.592 2.748-2.827 2.822-2.897.242-.225.627-.309.967-.212.119.033 2.632.88 4.685 2.124m1.715-6.199c.139.07 3.02 1.178 4.965 3.144-1.758.666-4.52 2.494-5.512 2.494s-3.473-1.828-5.231-2.494c1.947-1.965 4.545-3.074 4.682-3.144.338-.174.758-.174 1.096 0m-6.846 2.682c-.494.24-1.586-.151-2.855-.657.729-1.936 2.061-3.583 3.775-4.718.58.102 2.383.416 4.861 1.69-2.568.896-4.826 3.217-5.781 3.685m12.287 1.392c.344-.095.73-.013.973.208.078.072 1.826 1.365 2.951 3.003-.064.309-.141.612-.236.909-.887.238-2.535.461-3.857.967-1.533-1.583-3.928-2.652-4.541-3 2.062-1.223 4.591-2.053 4.71-2.087m-13.349-.591c-.428.325-1.4 1.175-2.428 2.315-.012-.178-.018-.357-.018-.537 0-.868.125-1.709.355-2.507.657.189 1.374.43 2.091.729m12.385 6.076c-1.748.573-3.525 2.007-5.053 2.007-1.525 0-3.303-1.434-5.051-2.007 1.936-1.692 4.369-2.788 4.508-2.848.336-.149.752-.149 1.088 0 .138.06 2.574 1.155 4.508 2.848m5.025-3.602c-1.086-1.204-2.131-2.107-2.58-2.443.77-.317 1.541-.567 2.238-.761.24.803.369 1.649.369 2.524 0 .229-.009.456-.027.68" fill-rule="evenodd"/><path d="m38.219 84.449c-6.333 0-12.667 0-19 0-.319 0-.32.496 0 .496h19c.319 0 .32-.496 0-.496z"/><path d="m27.051 84.697c0-3.972 0-7.944 0-11.916 0-.319-.496-.32-.496 0v11.916c0 .319.496.319.496 0z"/><path d="m26.51 78.969c.055 0 .055-.086 0-.086-.056 0-.056.086 0 .086z"/><path d="m27.146 77.707c3.11-3.112 6.222-6.222 9.332-9.334.228-.228-.126-.582-.354-.354-3.11 3.112-6.222 6.222-9.332 9.334-.228.229.126.582.354.354z"/><path d="m32.551 72.114c0-5.639 0-11.278 0-16.917 0-.322-.5-.322-.5 0v16.917c0 .321.5.322.5 0z"/><path d="m32.469 60.78h11.75c.322 0 .322-.5 0-.5-3.917 0-7.833 0-11.75 0-.322 0-.322.5 0 .5z"/><path d="m40.801 60.53c0-3.118 0-6.236 0-9.354 0-.322-.5-.322-.5 0v9.354c0 .322.5.322.5 0z"/><path d="m51.469 60.989v7.042c0 .322.5.322.5 0 0-2.347 0-4.695 0-7.042 0-.322-.5-.323-.5 0z"/><path d="m51.781 64.614h11.582c.322 0 .322-.5 0-.5-3.861 0-7.721 0-11.582 0-.321 0-.322.5 0 .5z"/><path d="m69.115 57.864c-.73 0-1.46 0-2.191 0-.322 0-.322.5 0 .5h7.306c.322 0 .322-.5 0-.5-.078 0-.155 0-.233 0-.322 0-.322.5 0 .5h17.055c.322 0 .322-.5 0-.5-.04 0-.079 0-.119 0-.322 0-.322.5 0 .5h.119c.322 0 .322-.5 0-.5-5.685 0-11.37 0-17.055 0-.322 0-.322.5 0 .5h.233c.322 0 .322-.5 0-.5-2.435 0-4.871 0-7.306 0-.322 0-.322.5 0 .5h2.191c.322 0 .322-.5 0-.5z"/><path d="m81.803 57.864c0-6.083 0-12.167 0-18.25 0-.322-.5-.322-.5 0v18.25c0 .321.5.322.5 0z"/><path d="m81.553 50.864c-3.118 0-6.237 0-9.355 0-.322 0-.322.5 0 .5h9.355c.321 0 .322-.5 0-.5z"/><path d="m75.844 48.614c0-4.528 0-9.055 0-13.583 0-.322-.5-.322-.5 0v13.583c0 .321.5.322.5 0z"/><path d="m72.385 39.489h3.188c.322 0 .322-.5 0-.5-1.063 0-2.125 0-3.188 0-.322 0-.322.5 0 .5z"/><path d="m74.219 58.531v18.667c0 .322.5.322.5 0 0-6.222 0-12.445 0-18.667 0-.322-.5-.323-.5 0z"/><path d="m69.719 75.864h4.25c.322 0 .322-.5 0-.5-1.417 0-2.833 0-4.25 0-.322 0-.322.5 0 .5z"/><path d="m74.292 65.373c1.944 1.945 3.888 3.889 5.832 5.834.228.228.581-.126.354-.354-1.944-1.945-3.888-3.889-5.832-5.834-.228-.227-.582.126-.354.354z"/><path d="m78.135 68.197c0-3.278 0-6.555 0-9.833 0-.322-.5-.322-.5 0v9.833c0 .321.5.322.5 0z"/><path d="m39.447 45.781c-6.16 0-12.319 0-18.478 0-.322 0-.322.5 0 .5h18.478c.322 0 .323-.5 0-.5z"/><path d="m26.719 46.03v19.167c0 .322.5.322.5 0 0-6.389 0-12.778 0-19.167 0-.322-.5-.322-.5 0z"/><path d="m27.051 57.614h4.5c.322 0 .322-.5 0-.5-1.5 0-3 0-4.5 0-.322 0-.322.5 0 .5z"/><path d="m43.719 72.197c-3.889 0-7.779 0-11.668 0-.322 0-.322.5 0 .5h11.668c.322 0 .322-.5 0-.5z"/><path d="m35.219 70.114h7c.322 0 .322-.5 0-.5-2.333 0-4.667 0-7 0-.322 0-.322.5 0 .5z"/><path d="m41.219 70.031c0-1.833 0-3.667 0-5.5 0-.322-.5-.322-.5 0v5.5c0 .321.5.322.5 0z"/><path d="m41.469 66.697h10c.322 0 .322-.5 0-.5-3.333 0-6.667 0-10 0-.322 0-.322.5 0 .5z"/><path d="m67.719 58.447v9.417c0 .322.5.322.5 0 0-3.139 0-6.278 0-9.417 0-.322-.5-.322-.5 0z"/><path d="m74.135 62.531c-1.833 0-3.667 0-5.5 0-.322 0-.322.5 0 .5h5.5c.321 0 .322-.5 0-.5z"/><path d="m72.469 85.448h12.334c.322 0 .322-.5 0-.5-4.111 0-8.223 0-12.334 0-.322 0-.322.5 0 .5z"/><path d="m79.719 85.281c0-3.361 0-6.722 0-10.083 0-.322-.5-.322-.5 0v10.083c0 .321.5.322.5 0z"/><path d="m79.803 79.531h7.666c.322 0 .322-.5 0-.5-2.555 0-5.111 0-7.666 0-.322 0-.323.5 0 .5z"/><path d="m85.551 79.281c0-6.806 0-13.611 0-20.417 0-.322-.5-.322-.5 0v20.417c0 .321.5.322.5 0z"/><path d="m85.719 68.697h11.041c.322 0 .322-.5 0-.5-3.68 0-7.361 0-11.041 0-.322 0-.322.5 0 .5z"/><path d="m76.219 85.698v13.333c0 .322.5.322.5 0 0-4.444 0-8.889 0-13.333 0-.322-.5-.323-.5 0z"/></g><path d="m96.342 88.031-40.703 23.5-40.702-23.5v-46.999l40.702-23.5 40.703 23.5z" fill="none" stroke="#43fffa" stroke-miterlimit="10" stroke-width=".5"/><path d="m37.626 28.374c1.923 1.702 3.846 3.403 5.77 5.104.24.213.595-.14.354-.354-1.923-1.701-3.847-3.402-5.77-5.104-.241-.212-.596.14-.354.354z" fill="#43fffa"/><path d="m55.469 17.864v9.959c0 .322.5.322.5 0 0-3.32 0-6.639 0-9.959 0-.322-.5-.323-.5 0z" fill="#43fffa"/><path d="m74.137 36.364h13.332c.322 0 .322-.5 0-.5-4.444 0-8.888 0-13.332 0-.322 0-.323.5 0 .5z" fill="#43fffa"/><path d="m81.637 45.614h8.25c.322 0 .322-.5 0-.5-2.75 0-5.5 0-8.25 0-.322 0-.323.5 0 .5z" fill="#43fffa"/><path d="m86.729 45.374c1.834-1.833 3.666-3.667 5.5-5.5.228-.228-.126-.581-.354-.354-1.834 1.833-3.666 3.667-5.5 5.5-.227.228.127.582.354.354z" fill="#43fffa"/><path d="m81.637 54.447h14.25c.322 0 .322-.5 0-.5-4.75 0-9.5 0-14.25 0-.322 0-.323.5 0 .5z" fill="#43fffa"/><path d="m32.303 84.781v13.333c0 .322.5.322.5 0 0-4.444 0-8.889 0-13.333 0-.322-.5-.323-.5 0z" fill="#43fffa"/><path d="m15.887 68.864h16.5c.322 0 .322-.5 0-.5-5.5 0-11 0-16.5 0-.322 0-.323.5 0 .5z" fill="#43fffa"/><path d="m21.387 68.698c0-5.972 0-11.945 0-17.917 0-.322-.5-.322-.5 0v17.917c0 .321.5.322.5 0z" fill="#43fffa"/><path d="m25.637 35.531v10.167c0 .322.5.322.5 0 0-3.389 0-6.778 0-10.167 0-.322-.5-.323-.5 0z" fill="#43fffa"/><path d="m26.137 39.031h6.416c.322 0 .322-.5 0-.5-2.139 0-4.277 0-6.416 0-.322 0-.323.5 0 .5z" fill="#43fffa"/><path d="m30.137 38.697c0-1.833 0-3.667 0-5.5 0-.322-.5-.322-.5 0v5.5c0 .322.5.322.5 0z" fill="#43fffa"/><path d="m55.387 101.947v9.667c0 .322.5.322.5 0 0-3.222 0-6.445 0-9.667 0-.322-.5-.323-.5 0z" fill="#43fffa"/><path d="m65.053 105.531c-2.972 0-5.944 0-8.916 0-.322 0-.322.5 0 .5h8.916c.321 0 .322-.5 0-.5z" fill="#43fffa"/><path d="m32.887 92.614h7.082c.322 0 .322-.5 0-.5-2.361 0-4.721 0-7.082 0-.322 0-.323.5 0 .5z" fill="#43fffa"/><path d="m43.303 97.031v6.917c0 .322.5.322.5 0 0-2.306 0-4.611 0-6.917 0-.322-.5-.323-.5 0z" fill="#43fffa"/><path d="m77.053 90.281h15.666c.322 0 .322-.5 0-.5-5.222 0-10.444 0-15.666 0-.322 0-.323.5 0 .5z" fill="#43fffa"/><path d="m21.387 84.697c0-2 0-4 0-6 0-.322-.5-.322-.5 0v6c0 .321.5.322.5 0z" fill="#43fffa"/><path d="m14.887 80.364h5.916c.322 0 .322-.5 0-.5-1.972 0-3.944 0-5.916 0-.322 0-.323.5 0 .5z" fill="#43fffa"/><circle clip-rule="evenodd" cx="56.348" cy="44.76" fill="none" r="14.063" stroke="#43fffa" stroke-miterlimit="10"/><circle clip-rule="evenodd" cx="56.348" cy="44.76" fill="none" r="15.756" stroke="#43fffa" stroke-miterlimit="10" stroke-width=".5"/><circle clip-rule="evenodd" cx="56.348" cy="44.76" fill="none" r="16.875" stroke="#43fffa" stroke-miterlimit="10" stroke-width=".25"/><path d="m9.961 37.922v53.121l46.072 26.559 46.074-26.559v-53.121l-46.074-26.561zm90.281 1.08v50.971l-44.209 25.489-44.211-25.489v-50.971l44.211-25.489z" opacity=".13"/></svg>