<svg enable-background="new 0 0 110.667 128.25" height="128.25" viewBox="0 0 110.667 128.25" width="110.667" xmlns="http://www.w3.org/2000/svg"><path d="m110.912 96-55.427 32-55.425-32v-64l55.425-32 55.427 32z" fill="#08b53d"/><path d="m56.167 11.18 46 26.549v53.13l-10.516 6.02-.293.12-.146.061-.128.059-1.088.62-1.906 1.1-.102.06-1.001.58-4.001 2.31-2 1.16-2 1.16-.861.5-.139.08-4 2.31-3 1.74-.361.21-1.639.95-1.37.79-1.17.68-2.46 1.42-2 1.16-.95.55-.05.03-1 .57-.45.26-.55.32-3 1.74-.37-.21-3.55-2.06-2.71-1.57-.14-.08-2.25-1.3-.01-.01-.46-.26-.205-.13-3.124-1.82v-.01l-5.156-2.97-1.753-1-.266-.15-.968-.579-24.857-14.411v-53.13z" fill="#23ea18"/><path d="m78.785 50.702c-.616-7.593-5.528-15.847-12.674-18.873-2.933-1.242-10.217-2.668-14.335-.769-2.004.354-3.912.99-5.53 1.954-.203-.033-.421-.034-.665.039-1.632.487-2.963 1.589-4.563 2.125-1.175.394-1.265 1.732-.691 2.474-.17.067-.333.156-.471.287-2.011 1.917-3.16 6.518-3.212 10.354-.578 2.571-.777 6.363.255 8.622-.947 1.796.926 3.783 2.997 4.007.488.24 1.082.293 1.737.082.666.426 1.518.442 2.282-.318.25-.249.431-.562.559-.911.047-.051.098-.095.143-.148.078.104.144.212.24.309.741.746 1.786.455 2.356-.304.097-.129.167-.268.242-.404.305-.038.632-.126.982-.272.129-.054.251-.135.375-.209 1.042-.122 2.049-.625 3.039-1.121 1.136.072 2.302.014 3.418.121.768.074 1.532-.113 2.251-.355.759-.255 2.208.121 3.256.251 1.025.759 2.644.951 3.752 1.168 2.191.43 5.161 2.136 7.404 1.598 1.644-.394 4.096.756 5.172-1.081.041-.07.069-.145.108-.216.219-.121.416-.314.563-.605 1.207-2.41 1.618-5.195 1.01-7.805z" fill="#00ff1e"/><path d="m41.611 37.517c-1.108-.479-2.125.375-2.279 1.261-.006.011-.017.016-.023.027-.329.555-.609 1.177-.834 1.827-.386.372-.7.829-.88 1.296-.406 1.054-.625 2.488-.514 3.776-.206.069-.394.184-.537.36-.52.639-.642 1.212-.511 2.022.008.05.029.094.043.141-.318.637-.261 1.465.521 1.943 3.018 1.842 5.717-1.027 6.883-3.662 1.138-2.572 1.266-7.638-1.869-8.991z" fill="#00a00f"/><path d="m78.417 48.438c-3.268.164-5.584 2.458-5.863 5.689-.168 1.94 2.058 6 4.504 4.74.027-.014.05-.04.076-.057.699-.125 1.32-.629 1.221-1.435-.034-.273-.04-.55-.05-.827.931-.967 1.252-2.891 1.107-4.017-.052-.406-.195-.852-.425-1.231 1.328-.596 1.148-2.949-.57-2.862z" fill="#00a00f"/><path d="m62.518 39.8c-.155-.341-.365-.659-.649-.938-.26-.254-.604-.451-.977-.588-1.429-.74-3.215-.672-4.435.386-.93.516-1.618 1.449-1.776 2.658-.04.306-.03.614.005.919-.206 3.125 3.771 5.819 6.614 3.414 1.579-1.335 2.265-4.008 1.218-5.851z" fill="#00a00f"/><g clip-rule="evenodd" fill-rule="evenodd"><path d="m81.708 106.611c0 .985.006 1.97-.003 2.955-.003.3-.035.599-.145.887-.209.551-.566.965-1.078 1.253-.326.185-.677.277-1.05.278-1.068.003-2.138.015-3.205-.003-.925-.014-1.595-.465-2.035-1.271-.199-.363-.259-.759-.259-1.163-.005-1.966-.002-3.933-.002-5.898 0-.203 0-.203-.201-.203-.846 0-1.691 0-2.536-.001-.188 0-.372-.02-.554-.078-.152-.05-.212-.155-.166-.314.06-.214.199-.38.35-.531 1.961-1.966 3.923-3.93 5.891-5.889.193-.192.396-.381.63-.53.323-.206.646-.192.962.032.271.195.516.419.751.653 1.841 1.838 3.679 3.678 5.52 5.517.164.164.319.335.462.518.017.021.032.042.045.064.064.115.146.239.073.367-.071.126-.217.155-.354.164-.962.063-1.925.013-2.888.028-.208.003-.208 0-.208.209z" fill="#08b53d"/><path d="m64.265 87.11c0 .985.006 1.97-.004 2.955-.002.3-.035.599-.145.887-.209.551-.566.965-1.078 1.253-.326.185-.676.277-1.049.278-1.069.003-2.138.015-3.206-.003-.925-.014-1.595-.465-2.035-1.271-.199-.363-.259-.759-.259-1.163-.005-1.966-.002-3.933-.002-5.898 0-.203 0-.203-.201-.203-.846 0-1.691 0-2.536-.001-.188 0-.372-.02-.554-.078-.152-.05-.212-.155-.166-.314.06-.214.199-.38.35-.531 1.961-1.966 3.923-3.93 5.891-5.889.193-.192.396-.381.63-.53.324-.206.646-.192.962.032.271.195.515.419.751.653 1.84 1.838 3.678 3.678 5.52 5.517.164.164.318.335.461.518.018.021.033.042.045.064.064.115.146.239.074.367-.072.126-.217.155-.354.164-.963.063-1.926.013-2.889.028-.207.003-.207 0-.207.209.001.986.001 1.971.001 2.956z" fill="#08b53d"/><path d="m46.317 102.294c0 .985.006 1.97-.004 2.955-.002.3-.035.599-.145.887-.209.551-.566.965-1.078 1.253-.326.185-.676.277-1.049.278-1.069.003-2.138.015-3.206-.003-.925-.014-1.595-.465-2.035-1.271-.199-.363-.259-.759-.259-1.163-.005-1.966-.002-3.933-.002-5.898 0-.203 0-.203-.201-.203-.846 0-1.691 0-2.536-.001-.188 0-.372-.02-.554-.078-.152-.05-.212-.155-.166-.314.06-.214.199-.38.35-.531 1.961-1.966 3.923-3.93 5.891-5.889.193-.192.396-.381.63-.53.323-.206.646-.192.962.032.271.195.515.419.751.653 1.84 1.838 3.678 3.678 5.52 5.517.164.164.318.335.461.518.018.021.033.042.045.064.064.115.146.239.074.367-.072.126-.217.155-.354.164-.963.063-1.926.013-2.889.028-.207.003-.207 0-.207.209.001.985.001 1.971.001 2.956z" fill="#08b53d"/><path d="m28.089 80.846c0 .985.006 1.97-.004 2.955-.002.3-.035.599-.145.887-.209.551-.566.965-1.078 1.253-.326.185-.676.277-1.049.278-1.069.003-2.138.015-3.206-.003-.925-.014-1.595-.465-2.035-1.271-.199-.363-.259-.759-.259-1.163-.005-1.966-.002-3.933-.002-5.898 0-.203 0-.203-.201-.203-.846 0-1.691 0-2.536-.001-.188 0-.372-.02-.554-.078-.152-.05-.212-.155-.166-.314.06-.214.199-.38.35-.531 1.961-1.966 3.923-3.93 5.891-5.889.193-.192.396-.381.63-.53.323-.206.646-.192.962.032.271.195.515.419.751.653 1.84 1.838 3.678 3.678 5.52 5.517.164.164.318.335.461.518.018.021.033.042.045.064.064.115.146.239.074.367-.072.126-.217.155-.354.164-.963.063-1.926.013-2.889.028-.207.003-.207 0-.207.209.001.985.001 1.97.001 2.956z" fill="#08b53d"/><path d="m18.952 57.649c0 .985.006 1.97-.004 2.955-.002.3-.035.599-.145.887-.209.551-.566.965-1.078 1.253-.326.185-.676.277-1.049.278-1.069.003-2.138.015-3.206-.003-.925-.014-1.595-.465-2.035-1.271-.199-.363-.259-.759-.259-1.163-.005-1.966-.002-3.933-.002-5.898 0-.203 0-.203-.201-.203-.846 0-1.691 0-2.536-.001-.188 0-.372-.02-.554-.078-.152-.05-.212-.155-.166-.314.06-.214.199-.38.35-.531 1.961-1.966 3.923-3.93 5.891-5.889.193-.192.396-.381.63-.53.323-.206.646-.192.962.032.271.195.515.419.751.653 1.84 1.838 3.678 3.678 5.52 5.517.164.164.318.335.461.518.018.021.033.042.045.064.064.115.146.239.074.367-.072.126-.217.155-.354.164-.963.063-1.926.013-2.889.028-.207.003-.207 0-.207.209.001.986.001 1.971.001 2.956z" fill="#08b53d"/><path d="m94.256 75.304c0 .985.006 1.97-.004 2.955-.002.3-.035.599-.145.887-.209.551-.566.965-1.078 1.253-.326.185-.676.277-1.049.278-1.068.003-2.138.015-3.205-.003-.925-.014-1.595-.465-2.035-1.271-.199-.363-.259-.759-.259-1.163-.005-1.966-.002-3.933-.002-5.898 0-.203 0-.203-.201-.203-.846 0-1.691 0-2.536-.001-.188 0-.372-.02-.554-.078-.152-.05-.212-.155-.166-.314.06-.214.199-.38.35-.531 1.961-1.966 3.923-3.93 5.891-5.889.193-.192.396-.381.63-.53.323-.206.646-.192.962.032.271.195.515.419.751.653 1.84 1.838 3.678 3.678 5.52 5.517.164.164.318.335.461.518.018.021.033.042.045.064.064.115.146.239.074.367-.072.126-.217.155-.354.164-.963.063-1.926.013-2.889.028-.207.003-.207 0-.207.209z" fill="#08b53d"/><path d="m101.131 49.104c0 .985.006 1.97-.004 2.955-.002.3-.035.599-.145.887-.209.551-.566.965-1.078 1.253-.326.185-.676.277-1.049.278-1.068.003-2.138.015-3.205-.003-.925-.014-1.595-.465-2.035-1.271-.199-.363-.259-.759-.259-1.163-.005-1.966-.002-3.933-.002-5.898 0-.203 0-.203-.201-.203-.846 0-1.691 0-2.536-.001-.188 0-.372-.02-.554-.078-.152-.05-.212-.155-.166-.314.06-.214.199-.38.35-.531 1.961-1.966 3.923-3.93 5.891-5.889.193-.192.396-.381.63-.53.323-.206.646-.192.962.032.271.195.515.419.751.653 1.84 1.838 3.678 3.678 5.52 5.517.164.164.318.335.461.518.018.021.033.042.045.064.064.115.146.239.074.367-.072.126-.217.155-.354.164-.963.063-1.926.013-2.889.028-.207.003-.207 0-.207.209z" fill="#08b53d"/><path d="m83.076 25.81c0 .985.006 1.97-.004 2.955-.002.3-.035.599-.145.887-.209.551-.566.965-1.078 1.253-.326.185-.676.277-1.049.278-1.068.003-2.138.015-3.205-.003-.925-.013-1.595-.465-2.035-1.27-.199-.363-.259-.759-.259-1.163-.005-1.966-.002-3.933-.002-5.898 0-.203 0-.203-.201-.203-.846 0-1.691 0-2.536-.001-.188 0-.372-.02-.554-.078-.152-.05-.212-.155-.166-.314.06-.214.199-.38.35-.531 1.961-1.966 3.923-3.93 5.891-5.889.193-.192.396-.381.63-.53.323-.206.646-.192.962.032.271.195.515.419.751.653 1.84 1.838 3.678 3.678 5.52 5.517.164.164.318.335.461.518.018.021.033.042.045.064.064.115.146.239.074.367-.072.126-.217.155-.354.164-.963.063-1.926.013-2.889.028-.207.003-.207 0-.207.209z" fill="#08b53d"/><path d="m36.911 30.435c0 .985.006 1.97-.004 2.955-.002.3-.035.599-.145.887-.209.551-.566.965-1.078 1.253-.326.185-.676.277-1.049.278-1.068.003-2.138.015-3.205-.003-.925-.014-1.595-.465-2.035-1.271-.199-.363-.259-.759-.259-1.163-.005-1.966-.002-3.933-.002-5.898 0-.203 0-.203-.201-.203-.846 0-1.691 0-2.536-.001-.188 0-.372-.02-.554-.078-.152-.05-.212-.155-.166-.314.06-.214.199-.38.35-.531 1.961-1.966 3.923-3.93 5.891-5.889.193-.192.396-.381.63-.53.323-.206.646-.192.962.032.271.195.515.419.751.653 1.84 1.838 3.678 3.678 5.52 5.517.164.164.318.335.461.518.018.021.033.042.045.064.064.115.146.239.074.367-.072.126-.217.155-.354.164-.963.063-1.926.013-2.889.028-.207.003-.207 0-.207.209z" fill="#08b53d"/><path d="m48.294 58.956h.016l.001-.012z" fill="#fdfefd"/><path d="m71.729 61.375c-1.12-.15-2.223-.388-3.31-.664.021-.258.042-.515.041-.763-.938-.002-1.875 0-2.813-.002-3.933-1.133-7.694-2.216-11.431-.83-1.596-.022-3.226.312-4.78.824-1.042.005-2.084.012-3.126.016-.006.082-.016.163-.017.245-.004.292.031.613.058.927-.943.312-2.026.552-2.773 1.091-.895-.575-2.411.124-2.411 1.28v.404c0 .549.339.938.686 1.174.435.897.973 1.755 1.593 2.538-.001.161.022.322.021.483.061.063.134.124.196.187.134-.002.274-.003.409-.004.492.464 1.082.784 1.719 1.013.163.023.328.043.491.063-.004.188-.005.375-.007.562.02.016.041.021.059.039.382.379.778.742 1.182 1.097.997-.001 1.992-.003 2.988-.005 1.191.526 2.421.837 3.914.949.095.007.17-.018.256-.025.328.189.644.326.931.338 3.051.13 6.266.356 9.313.223 1.06-.047 2.118-1.035 3.111-1.035h.28c.063-1-.142-.568-.142-.629v-.177c1-.678 1.742-1.513 2.404-2.413.115.001.313.002.428.003.063-.061.167-.122.229-.185-.001-.193.02-.387.019-.579.963-1.471 1.664-3.021 1.918-4.247.216-1.046-.438-1.764-1.436-1.898z" fill="#fdfefd"/><path d="m48.292 87.157c0-2.251.016-4.503-.012-6.755-.007-.53.135-.702.676-.683 1.096.041 2.196.057 3.29-.005.706-.039.923.146.917.888-.038 4.359.005 8.72-.041 13.077-.009.824.245.992 1.007.971 1.875-.053 3.754-.053 5.629.002.72.021.92-.183.916-.903-.034-4.359 0-8.719-.039-13.077-.007-.757.171-1.009.95-.959 1.12.071 2.252.048 3.377.007.55-.022.67.172.668.689-.021 4.531-.021 9.065-.005 13.597.002.492-.135.642-.628.64-.623-.004-1.406-.282-1.83.137-.39.386-.118 1.155-.121 1.752-.003.426-.163.53-.562.528-3.724-.011-7.448-.018-11.172.005-.528.004-.598-.205-.604-.657-.023-1.712-.038-1.734-1.799-1.765-.501-.011-.63-.165-.625-.646.02-2.28.008-4.562.008-6.843z" fill="#fdfefd"/><path d="m68.107 88.309c0-2.6.016-5.197-.013-7.797-.007-.581.115-.799.748-.795 4.475.026 8.951.024 13.427.007.521-.002.687.12.689.668.007 1.862.031 1.878 1.937 1.914.465.009.665.099.658.616-.026 2.021-.026 4.042-.001 6.063.007.491-.136.646-.63.635-.626-.016-1.431-.274-1.838.108-.416.392-.147 1.206-.126 1.826.02.563-.187.663-.695.659-2.771-.022-5.545.011-8.317-.022-.648-.006-.924.12-.881.842.065 1.123 0 2.252.026 3.377.01.463-.092.672-.614.657-1.24-.035-2.484-.04-3.724.002-.563.02-.662-.2-.657-.705.022-2.684.011-5.371.011-8.055zm4.975-2.405c0 1.038.016 2.075-.008 3.113-.011.431.096.615.571.609 2.104-.022 4.209-.016 6.314-.002.383.002.57-.072.567-.516-.021-2.135-.016-4.269-.004-6.4.002-.379-.138-.503-.505-.501-2.104.009-4.209.011-6.313-.004-.495-.003-.646.193-.633.672.03 1.011.01 2.02.011 3.029z" fill="#fdfefd"/><path d="m40.667 87.272c0 2.222.02 4.442-.014 6.664-.009.583.181.727.733.709 1.239-.037 2.48.007 3.721-.02.449-.009.581.126.596.583.062 1.847.079 1.847-1.746 1.847-4.068 0-8.136-.017-12.203.016-.704.007-.95-.144-.923-.892.056-1.545.012-1.547 1.554-1.547.953 0 1.905-.02 2.856.011.459.015.587-.144.584-.594-.017-2.913-.02-5.826.002-8.741.004-.505-.166-.684-.646-.611-.084.011-.173 0-.26 0-1.794-.007-1.84-.074-1.651-1.904.039-.38.187-.468.537-.487.651-.034 1.513.313 1.893-.158.315-.39.129-1.214.105-1.843-.018-.466.155-.592.598-.581 1.183.024 2.367.035 3.548-.004.559-.018.738.139.729.716-.032 2.279-.013 4.557-.013 6.836z" fill="#fdfefd"/><path d="m52.072 49.252c-.629-1.195-2.003-1.752-3.308-1.645-.716.059-1.291.282-1.756.647-1.754.701-1.96 3.228-1.237 4.91.497 1.155 1.555 1.8 2.787 1.902 1.324.109 2.425-1.027 3.052-2.049.67-1.088 1.092-2.569.462-3.765z" fill="#fdfefd"/><path d="m75.337 42.265c.385-.942.314-2.125-.361-3.001-.42-.543-1.094-1.034-1.794-1.199.22-.867-.239-1.914-1.391-1.878-3.441.106-4.075 3.822-3.182 6.52.532 1.608 1.791 2.749 3.454 3.09 1.747.359 3.963.19 4.611-1.711.365-1.067-.46-1.772-1.337-1.821z" fill="#fdfefd"/><path d="m51.16 30.08c-.181.097-.338.224-.491.36-.417.37-.53.808-.457 1.214-.033.056-.078.11-.115.166-.107-.06-.219-.111-.343-.141-1.253-.296-2.215.309-3.211.913-1.405-.396-2.903 1.36-1.561 2.406 2.854 2.224 7.812.51 8.382-3.224.194-1.277-.954-2.361-2.204-1.694z" fill="#fdfefd"/><path d="m72.517 61.767-.203-.125c-.397-.199-.758-.208-1.097-.104-1.527-.368-3.689-1.797-4.914-2.234-2.56-.915-5.331-1.202-8.018-1.491-2.171-.234-4.314.118-6.415.627-2.822.685-5.758 3.177-8.807 2.739-1.892-.272-2.706 2.619-.797 2.893 5.006.72 9.456-3.086 14.477-3.32 2.929-.136 5.979.644 8.774 1.445 2.311.663 3.829 2.391 6.242 2.429.817.014 1.406-.692 1.406-1.5v-.063c.002-.502-.184-1.064-.648-1.296z" fill="#d1d1d1"/></g><path d="m50.292 98h12.688c.968 0 .968-1.5 0-1.5-4.229 0-8.458 0-12.688 0-.968 0-.968 1.5 0 1.5z"/><path d="m63.792 97.125c0-.563 0-1.125 0-1.688 0-.968-1.5-.968-1.5 0v1.688c0 .968 1.5.968 1.5 0z"/><path d="m63.104 95.875h1.938c.968 0 .968-1.5 0-1.5-.646 0-1.292 0-1.938 0-.968 0-.968 1.5 0 1.5z"/><path d="m66.229 94.875c0-4.896 0-9.792 0-14.688 0-.968-1.5-.968-1.5 0v14.688c0 .968 1.5.968 1.5 0z"/><path d="m65.479 79.125c-1.521 0-3.042 0-4.563 0-.967 0-.967 1.5 0 1.5h4.563c.968 0 .968-1.5 0-1.5z"/><path d="m59.854 80.25v13.125c0 .968 1.5.968 1.5 0 0-4.375 0-8.75 0-13.125 0-.968-1.5-.968-1.5 0z"/><path d="m60.729 93c-2.396 0-4.792 0-7.188 0-.967 0-.967 1.5 0 1.5h7.188c.968 0 .968-1.5 0-1.5z"/><path d="m53.917 93.438c0-4.417 0-8.833 0-13.25 0-.968-1.5-.968-1.5 0v13.25c0 .967 1.5.967 1.5 0z"/><path d="m53.167 79.125c-1.542 0-3.083 0-4.625 0-.967 0-.967 1.5 0 1.5h4.625c.967 0 .967-1.5 0-1.5z"/><path d="m47.167 79.875v14.438c0 .968 1.5.968 1.5 0 0-4.813 0-9.625 0-14.438 0-.968-1.5-.968-1.5 0z"/><path d="m47.979 95.375h2c.967 0 .967-1.5 0-1.5-.667 0-1.333 0-2 0-.967 0-.967 1.5 0 1.5z"/><path d="m49.167 95v1.5c0 .968 1.5.968 1.5 0 0-.5 0-1 0-1.5 0-.968-1.5-.968-1.5 0z"/><path d="m67.729 98h5.313c.968 0 .968-1.5 0-1.5-1.771 0-3.542 0-5.313 0-.968 0-.968 1.5 0 1.5z"/><path d="m72.229 92.75v3.875c0 .968 1.5.968 1.5 0 0-1.292 0-2.583 0-3.875 0-.968-1.5-.968-1.5 0z"/><path d="m73.042 93.375h9.688c.968 0 .968-1.5 0-1.5-3.229 0-6.458 0-9.688 0-.968 0-.968 1.5 0 1.5z"/><path d="m83.417 92.5c0-.628 0-1.255 0-1.883 0-.967-1.5-.967-1.5 0v.008c0 .968 1.5.968 1.5 0 0-.003 0-.005 0-.008 0-.967-1.5-.967-1.5 0v1.883c0 .968 1.5.968 1.5 0z"/><path d="m82.729 91.063h2.188c.968 0 .968-1.5 0-1.5-.729 0-1.458 0-2.188 0-.968 0-.968 1.5 0 1.5z"/><path d="m86.104 90.5c0-2.583 0-5.167 0-7.75 0-.968-1.5-.968-1.5 0v7.75c0 .968 1.5.968 1.5 0z"/><path d="m85.354 81.5c-.542 0-1.083 0-1.625 0-.968 0-.968 1.5 0 1.5h1.625c.968 0 .968-1.5 0-1.5z"/><path d="m84.042 82.188c0-.625 0-1.25 0-1.875 0-.968-1.5-.968-1.5 0v1.875c0 .967 1.5.967 1.5 0z"/><path d="m82.729 79.125c-4.938 0-9.875 0-14.813 0-.968 0-.968 1.5 0 1.5h14.813c.968 0 .968-1.5 0-1.5z"/><path d="m66.979 79.75v16.813c0 .968 1.5.968 1.5 0 0-5.604 0-11.208 0-16.813 0-.968-1.5-.968-1.5 0z"/><path d="m72.604 82.375v6.875c0 .968 1.5.968 1.5 0 0-2.292 0-4.583 0-6.875 0-.968-1.5-.968-1.5 0z"/><path d="m73.292 90.25h6.688c.968 0 .968-1.5 0-1.5-2.229 0-4.458 0-6.688 0-.968 0-.968 1.5 0 1.5z"/><path d="m79.229 88.223v1.214c0 .967 1.5.967 1.5 0 0-1.376 0-2.752 0-4.128 0-.967-1.5-.967-1.5 0v.154c0 .968 1.5.968 1.5 0 0-.884 0-1.767 0-2.65 0-.968-1.5-.968-1.5 0v2.65c0 .968 1.5.968 1.5 0 0-.052 0-.103 0-.154 0-.967-1.5-.967-1.5 0v4.128c0 .967 1.5.967 1.5 0 0-.405 0-.81 0-1.214 0-.968-1.5-.968-1.5 0z"/><path d="m79.542 81.75c-1.729 0-3.458 0-5.188 0-.968 0-.968 1.5 0 1.5h5.188c.967 0 .967-1.5 0-1.5z"/><path d="m32.917 86h2.688c.967 0 .967-1.5 0-1.5-.896 0-1.792 0-2.688 0-.968 0-.968 1.5 0 1.5z"/><path d="m34.417 85.5v8.625c0 .968 1.5.968 1.5 0 0-2.875 0-5.75 0-8.625 0-.968-1.5-.968-1.5 0z"/><path d="m35.104 93.5c-1.313 0-2.625 0-3.938 0-.967 0-.967 1.5 0 1.5h3.938c.967 0 .967-1.5 0-1.5z"/><path d="m29.792 94.563v2.375c0 .968 1.5.968 1.5 0 0-.792 0-1.583 0-2.375 0-.968-1.5-.968-1.5 0z"/><path d="m30.604 98.188h15c.967 0 .967-1.5 0-1.5-5 0-10 0-15 0-.967 0-.967 1.5 0 1.5z"/><path d="m46.354 97.5c0-.854 0-1.708 0-2.563 0-.968-1.5-.968-1.5 0v2.563c0 .968 1.5.968 1.5 0z"/><path d="m45.667 93.5c-1.417 0-2.833 0-4.25 0-.967 0-.967 1.5 0 1.5h4.25c.967 0 .967-1.5 0-1.5z"/><path d="m41.917 94.188c0-4.833 0-9.667 0-14.5 0-.968-1.5-.968-1.5 0v14.5c0 .967 1.5.967 1.5 0z"/><path d="m40.917 78.625c-1.667 0-3.333 0-5 0-.967 0-.967 1.5 0 1.5h5c.967 0 .967-1.5 0-1.5z"/><path d="m34.667 79.25v2.438c0 .968 1.5.968 1.5 0 0-.813 0-1.625 0-2.438 0-.968-1.5-.968-1.5 0z"/><path d="m35.292 81.375c-.688 0-1.375 0-2.063 0-.967 0-.967 1.5 0 1.5h2.063c.967 0 .967-1.5 0-1.5z"/><path d="m32.042 82.063v2.25c0 .968 1.5.968 1.5 0 0-.75 0-1.5 0-2.25 0-.968-1.5-.968-1.5 0z"/><path d="m55.777 67.199c.521 1.895 2.84 1.83 3.871.43.243-.33.056-.836-.269-1.026-.381-.224-.784-.06-1.026.269-.306.415-.982.465-1.13-.07-.256-.933-1.703-.536-1.446.397z"/><path d="m40.729 61.75c.512 8.813 8.649 11.063 16.129 11.626 8.45.636 16.649-1.837 17.371-11.563.071-.965-1.429-.958-1.5 0-.675 9.096-8.459 10.462-15.871 10.063-6.542-.352-14.173-2.271-14.629-10.126-.056-.961-1.556-.967-1.5 0z"/><path d="m52.479 58.125v4.625c0 .967 1.5.967 1.5 0 0-1.542 0-3.083 0-4.625 0-.967-1.5-.967-1.5 0z"/><path d="m61.167 58.813v4.25c0 .967 1.5.967 1.5 0 0-1.417 0-2.833 0-4.25 0-.968-1.5-.968-1.5 0z"/><path d="m35.818 58.949c1.145 3.261 5.069 3.475 8.086 3.378 1.744-.056 3.44-1.422 4.872-2.237 3.928-2.233 9.531-1.868 13.732-.887 4.347 1.014 14.98 5.71 16.674-1.505.221-.941-1.226-1.34-1.447-.398-1.503 6.405-14.021.479-17.702-.104-3.072-.487-6.206-.135-9.211.554-1.405.323-2.694.983-3.937 1.69-2.125 1.208-8.296 2.884-9.621-.89-.317-.906-1.767-.516-1.446.399z"/><path d="m37.369 58.759c-1.464-6.433-.637-13.06 2.195-19.006 3.011-6.321 10.28-8.458 16.667-9.263 7.085-.894 12.921 2.358 17.064 7.956 2.746 3.71 7.211 13.881 4.537 18.488-.486.838.81 1.593 1.295.757 2.99-5.15-1.101-14.132-3.716-18.737-3.729-6.566-10.216-10.157-17.658-10.074-6.213.07-14.193 2.393-17.956 7.714-4.536 6.416-5.593 15.013-3.875 22.563.215.944 1.661.544 1.447-.398z"/><path d="m9.896 37.735v53.12l46.074 26.56 46.073-26.56v-53.12l-46.073-26.56zm90.284 1.08v50.97l-44.21 25.49-44.211-25.49v-50.97l44.211-25.489z" opacity=".13"/></svg>