<svg enable-background="new 0 0 110.979 128.417" viewBox="0 0 110.979 128.417" xmlns="http://www.w3.org/2000/svg"><path d="m55.613 127.875-55.136-31.834v-63.665l55.136-31.834 55.137 31.834v63.665z" fill="#050a32"/><path d="m55.741 116.528-45.311-26.16v-52.321l45.311-26.161 45.31 26.161v52.32z" fill="#050a32"/><path d="m55.612 10.617-46.48 26.797v53.592l46.48 26.794 46.483-26.794v-53.592zm44.601 79.309-44.601 25.715-44.603-25.715v-51.422l44.603-25.715 44.601 25.715z" fill="#26ffad"/><path d="m15.488 66.607c-.85 5.667 2.685 10.169 7.179 13.164 4.903 3.269 10.795 4.413 16.593 4.679 6.548.301 13.368-.631 19.433-3.176 5.239-2.199 10.804-6.116 11.354-12.2.083-.915-1.342-.907-1.424 0-.524 5.793-6.502 9.356-11.423 11.279-5.404 2.111-11.345 2.822-17.115 2.701-5.225-.11-10.47-1.038-15.098-3.55-4.561-2.475-8.966-6.906-8.124-12.519.132-.897-1.239-1.283-1.375-.378z" fill="#26ffad"/><path d="m70.615 66.797c0-.032 0-.063 0-.095 0-.388-.324-.712-.712-.712s-.712.324-.712.712v.095c0 .388.324.712.712.712s.712-.324.712-.712z" fill="#26ffad"/><path d="m32.027 91.43c12.46 1.112 26.281-.007 37.559-5.795 4.561-2.341 8.366-5.583 10.602-10.237 2.019-4.204 3.156-9.218 2.457-13.875-.705-4.7-3.571-8.315-8.233-9.557-.888-.236-1.265 1.137-.378 1.373 10.814 2.881 7.889 17.639 3.084 24.529-3.333 4.78-9.515 7.513-14.863 9.255-6.442 2.098-13.27 2.964-20.021 3.178-3.403.108-6.815.009-10.206-.294-.916-.082-.908 1.342-.001 1.423z" fill="#26ffad"/><path d="m72.514 52.083c0-.024 0-.048 0-.071 0-.388-.324-.712-.712-.712s-.712.324-.712.712v.071c0 .388.324.712.712.712s.712-.324.712-.712z" fill="#26ffad"/><path d="m52.258 55.225c.078-.041.158-.079.238-.118.037-.517.071-1.035.103-1.554-1.759.689-3.238 1.811-4.455 3.309-1.044 1.285-2.201 3.177-1.67 4.903.594 1.929 3.118 1.728 4.657 1.47.904-.152.52-1.523-.378-1.373-.766.128-2.28.421-2.836-.357-.406-.568-.008-1.506.243-2.05.816-1.778 2.379-3.326 4.098-4.23z" fill="#26ffad"/><path d="m68.967 55.341c-2.957-1.873-6.577-2.819-10.15-2.824-.027.451-.07.901-.123 1.35 2.754.049 5.549.738 7.829 1.775 4.877 2.217 7.629 6.557 7.292 11.916-.342 5.432-3.537 11.793-8.823 13.884-.843.334-.476 1.711.379 1.373 5.604-2.216 8.885-8.248 9.727-13.972.818-5.563-1.38-10.493-6.131-13.502z" fill="#26ffad"/><path d="m52.888 60.517c-.387-.751-.521-1.614-.543-2.481" fill="#26ffad"/><path d="m62.019 56.807c-.893-.514-1.983-.869-3.119-1.031.022.481.039.974.043 1.47.68.121 1.331.315 1.897.56 1.963.848 3.058 2.689 3.254 4.767.436 4.64-2.744 9.175-6.77 11.157-6.324 3.114-14.397 3.734-21.229 2.252-6.001-1.302-11.454-5.753-11.772-12.26-.165-3.379 1.65-6.283 4.41-8.106.762-.504.05-1.738-.719-1.23-4.687 3.096-6.315 8.618-4.108 13.793 2.455 5.756 7.879 8.62 13.821 9.549 6.621 1.035 13.86.155 19.974-2.608 4.135-1.869 7.111-5.888 7.737-10.388.435-3.131-.581-6.29-3.419-7.925z" fill="#26ffad"/><path d="m58.917 64.851c-2.129 5.227-8.786 7.051-13.919 6.673-2.743-.202-5.387-1.224-7.31-3.219-2.799-2.903-3.108-6.812-1.446-10.361 2.511-5.362 8.006-8.952 13.569-11.243-.179-.159-.358-.317-.532-.482-.284-.122-.53-.283-.753-.488-5.687 2.506-11.57 6.499-13.911 12.388-2.317 5.831.698 11.879 6.495 14.027 6.576 2.437 16.359.007 19.18-6.916.347-.851-1.031-1.218-1.373-.379z" fill="#26ffad"/><path d="m92.928 50.583c-2.634-2.508-5.878-4.119-9.255-5.383-3.591-1.345-7.341-2.321-11.139-2.843-2.601-.358-5.228-.476-7.844-.369-.01.092-.033.189-.072.289-.161.406-.342.787-.55 1.16 4.754-.249 9.551.281 14.148 1.523 4.877 1.317 9.981 3.084 13.706 6.631.664.631 1.672-.374 1.006-1.008z" fill="#26ffad"/><path d="m52.532 65.256c-3.42.51-10.311.98-10.014-4.203.194-3.379 3.135-6.675 6.006-8.165 1.346-.699 2.76-1.281 4.205-1.786.022-.525.036-1.048.047-1.572-1.788.635-3.518 1.374-5.149 2.221-3.005 1.56-5.512 4.725-6.333 8.005-.516 2.063-.096 4.288 1.626 5.653 2.705 2.144 6.832 1.691 9.99 1.22.906-.135.52-1.507-.378-1.373z" fill="#26ffad"/><path d="m97.976 69.238c-5.188-12.23-16.05-22.532-29.982-22.416-3.18.026-6.486.415-9.727 1.135.144.132.261.308.323.549.078.305.134.608.174.909.066-.015.132-.031.199-.046 3.608-.807 7.333-1.256 11.032-1.087 7.008.32 13.461 3.902 18.331 8.787 3.649 3.661 6.41 8.147 8.421 12.888.357.842 1.583.115 1.229-.719z" fill="#26ffad"/><path d="m98.429 72.16c-.021-.342-.229-.694-.594-.758-.382-.067-.766.097-.875.497-.096.347.115.809.497.876-.04-.018-.08-.036-.12-.053-.085-.085-.17-.17-.255-.255-.05-.096-.076-.198-.076-.307.024.387.306.712.712.712.369 0 .735-.324.711-.712z" fill="#26ffad"/><path d="m94.513 52.795c.918 0 .918-1.424 0-1.424s-.918 1.424 0 1.424z" fill="#26ffad"/><path d="m96.293 55.358c.918 0 .918-1.424 0-1.424s-.918 1.424 0 1.424z" fill="#26ffad"/><path d="m28.871 91.454c.918 0 .918-1.424 0-1.424-.919 0-.919 1.424 0 1.424z" fill="#26ffad"/><path d="m16.91 64.898c.918 0 .918-1.424 0-1.424-.919 0-.919 1.424 0 1.424z" fill="#26ffad"/><path d="m17.479 61.979c.918 0 .918-1.424 0-1.424s-.918 1.424 0 1.424z" fill="#26ffad"/><path d="m30.864 53.435c.918 0 .918-1.424 0-1.424s-.918 1.424 0 1.424z" fill="#26ffad"/><path d="m33.427 51.371c.918 0 .918-1.424 0-1.424s-.918 1.424 0 1.424z" fill="#26ffad"/><path d="m62.048 84.05c.918 0 .918-1.424 0-1.424s-.918 1.424 0 1.424z" fill="#26ffad"/><path d="m24.884 89.888v.071c0 .388.324.712.712.712s.712-.324.712-.712c0-.024 0-.048 0-.071 0-.388-.324-.712-.712-.712-.389 0-.712.323-.712.712z" fill="#26ffad"/><path d="m21.893 88.82c.918 0 .918-1.424 0-1.424s-.918 1.424 0 1.424z" fill="#26ffad"/><path d="m96.746 76.906c.014.08.049.153.09.223.037.048.074.096.111.144.08.089.037.014-.13-.224.066.383.529.592.875.497.401-.11.564-.494.497-.876-.014-.08-.049-.153-.09-.223-.037-.048-.074-.096-.111-.144-.08-.089-.037-.014.13.224-.066-.383-.529-.592-.875-.497-.401.11-.563.494-.497.876z" fill="#26ffad"/><path d="m53.433 65.61c0-6.004 0-12.008 0-18.013 0-.918-1.424-.918-1.424 0v18.013c0 .918 1.424.918 1.424 0z" fill="#fff"/><path d="m55.249 27.235c-5.673 0-10.288 4.615-10.288 10.288 0 5.052 3.661 9.262 8.469 10.123.003-.382.021-.763.064-1.146-4.208-.821-7.394-4.533-7.394-8.978 0-5.045 4.104-9.149 9.149-9.149s9.149 4.104 9.149 9.149c0 3.662-2.163 6.826-5.278 8.287.055.411.097.816.081 1.21 3.717-1.552 6.336-5.224 6.336-9.497 0-5.671-4.616-10.287-10.288-10.287z" fill="#fff"/><path d="m59.01 62.264v3.275c0 .918 1.424.918 1.424 0 0-1.092 0-2.183 0-3.275 0-.918-1.424-.918-1.424 0z" fill="#fff"/><path d="m58.056 61.272c.427.427.854.854 1.282 1.282.65.65 1.657-.357 1.007-1.007-.427-.427-.854-.854-1.282-1.282-.65-.65-1.657.357-1.007 1.007z" fill="#fff"/><path d="m58.398 61.082c.53-.53 1.06-1.059 1.589-1.589-.336-.335-.671-.671-1.007-1.007-.269.269-.537.537-.806.806-.65.65.357 1.657 1.007 1.007.269-.269.538-.537.806-.806.65-.65-.357-1.657-1.007-1.007-.53.53-1.059 1.06-1.589 1.589-.649.65.358 1.657 1.007 1.007z" fill="#fff"/><path d="m57.581 57.831 1.068 1.068c.274.274.733.274 1.007 0 .275-.274.275-.733 0-1.007-.356-.356-.712-.712-1.068-1.068-.274-.274-.733-.274-1.007 0s-.274.733 0 1.007z" fill="#fff"/><path d="m57.639 57.641 1.282-1.282c.65-.65-.357-1.657-1.007-1.007-.427.427-.854.854-1.282 1.282-.65.65.357 1.657 1.007 1.007z" fill="#fff"/><path d="m56.774 54.508c.403.404.807.807 1.21 1.21.274.275.733.275 1.007 0 .274-.274.274-.733 0-1.007-.403-.404-.807-.807-1.21-1.21-.274-.274-.733-.274-1.007 0-.274.275-.274.733 0 1.007z" fill="#fff"/><path d="m59.841 53.222c0-2.347 0-4.694 0-7.041 0-.918-1.424-.918-1.424 0v7.041c0 .918 1.424.918 1.424 0z" fill="#fff"/><path d="m57.563 54.503h1.566c.918 0 .918-1.424 0-1.424-.522 0-1.044 0-1.566 0-.919 0-.919 1.424 0 1.424z" fill="#fff"/><path d="m52.6 66.699c2.537 1.347 6.892 1.309 8.07-1.802.326-.86-1.051-1.228-1.373-.378-.814 2.149-4.354 1.814-5.979.951-.81-.431-1.53.799-.718 1.229z" fill="#26ffad"/><path d="m51.82 61.433c-.134-.006-.239-.025-.377.021-.375.125-.642.532-.499.928.132.364.479.606.876.497.352-.097.629-.511.497-.876.006.049.012.099.018.148-.07.168-.139.336-.209.503.003-.003.006-.007.01-.011-.105.061-.209.122-.314.183-.164.055-.194.013-.093.023.031.003.061.006.092.007.388.016.712-.336.712-.712-.001-.399-.326-.695-.713-.711z" fill="#26ffad"/><path d="m58.512 57.683h.474c.388 0 .712-.324.712-.712s-.324-.712-.712-.712c-.158 0-.316 0-.474 0-.388 0-.712.324-.712.712 0 .389.324.712.712.712z" fill="#fff"/><path d="m55.427 39.054c-2.12 0-3.845-1.725-3.845-3.845s1.725-3.845 3.845-3.845 3.845 1.725 3.845 3.845c-.001 2.12-1.725 3.845-3.845 3.845zm0-6.55c-1.492 0-2.705 1.214-2.705 2.705 0 1.492 1.214 2.705 2.705 2.705 1.492 0 2.705-1.214 2.705-2.705 0-1.492-1.213-2.705-2.705-2.705z" fill="#fff"/><path d="m56.044 101.967c-.063 0-.127 0-.19 0-.388 0-.712.324-.712.712s.324.712.712.712h.19c.388 0 .712-.324.712-.712s-.324-.712-.712-.712z" fill="#26ffad"/><path d="m84.997 81.083c-.063 0-.127 0-.19 0-.388 0-.712.324-.712.712s.324.712.712.712h.19c.388 0 .712-.324.712-.712s-.324-.712-.712-.712z" fill="#26ffad"/><path d="m74.033 100.116v.026c0 .388.324.712.712.712s.712-.324.712-.712c0-.04 0-.081 0-.121 0-.388-.324-.712-.712-.712s-.712.324-.712.712v.121c0 .388.324.712.712.712s.712-.324.712-.712c0-.009 0-.018 0-.026 0-.388-.324-.712-.712-.712s-.712.324-.712.712z" fill="#26ffad"/><path d="m78.286 97.297c1.298-1.297 2.595-2.594 3.892-3.892.65-.65-.357-1.657-1.007-1.007-1.297 1.297-2.595 2.594-3.892 3.892-.65.65.357 1.657 1.007 1.007z" fill="#26ffad"/><path d="m66.249 93.091v.095c0 .388.324.712.712.712s.712-.324.712-.712c0-.032 0-.063 0-.095 0-.388-.324-.712-.712-.712-.389.001-.712.324-.712.712z" fill="#26ffad"/><path d="m26.047 43.492c.918 0 .918-1.424 0-1.424-.919 0-.919 1.424 0 1.424z" fill="#26ffad"/><path d="m80.156 39.789c.918 0 .918-1.424 0-1.424-.919 0-.919 1.424 0 1.424z" fill="#26ffad"/><path d="m72.751 30.012c.918 0 .918-1.424 0-1.424s-.918 1.424 0 1.424z" fill="#26ffad"/><path d="m37.913 42.922c.918 0 .918-1.424 0-1.424-.919 0-.919 1.424 0 1.424z" fill="#26ffad"/><path d="m44.842 25.835c.918 0 .918-1.424 0-1.424s-.918 1.424 0 1.424z" fill="#26ffad"/><path d="m43.466 99.926c0-.063 0-.127 0-.19 0-.388-.324-.712-.712-.712s-.712.324-.712.712v.19c0 .388.324.712.712.712s.712-.323.712-.712z" fill="#26ffad"/><path d="m20.066 51.75c.918 0 .918-1.424 0-1.424s-.918 1.424 0 1.424z" fill="#26ffad"/><g fill="#fff"><path d="m6.984 35.678-1.644-2.858.429-.247c.191-.11.352-.182.483-.218.132-.037.258-.042.377-.017.122.027.238.081.347.162.111.082.199.179.264.291.118.205.139.423.064.655.182-.036.353-.013.516.066.163.077.293.201.391.371.128.223.158.457.089.703-.041.15-.109.277-.206.382-.109.111-.261.222-.456.334zm-.507-1.879.135-.078c.16-.092.258-.195.291-.309.034-.114.011-.24-.069-.378-.077-.134-.174-.214-.291-.24s-.248.003-.394.087l-.152.087zm.705 1.225.266-.153c.195-.112.316-.233.363-.362.049-.138.036-.271-.037-.398-.071-.123-.177-.2-.318-.231-.138-.031-.323.02-.555.154l-.216.126z"/><path d="m10.326 32.686-1.292.744c.096.142.212.232.348.27.135.037.269.018.402-.059.104-.06.175-.134.215-.222.038-.088.062-.222.07-.405l.465-.006c-.001.124-.013.236-.035.337-.023.101-.056.193-.101.275s-.101.156-.17.222-.15.126-.244.18c-.269.155-.535.193-.797.114-.263-.081-.477-.264-.643-.552-.164-.285-.218-.562-.161-.829.059-.266.22-.474.483-.625.265-.153.524-.189.775-.108.249.08.46.269.631.566zm-.624-.095c-.186-.189-.39-.219-.612-.091-.051.029-.094.064-.129.105-.036.041-.063.086-.083.136s-.031.103-.033.159c-.003.055.004.113.021.172z"/><path d="m11.43 31.129-.239.381c-.118-.08-.217-.097-.298-.051-.038.022-.064.054-.076.095-.013.041-.007.081.015.121.039.069.159.092.359.067.276-.031.475-.03.597.006.123.036.223.122.301.258.1.174.12.357.059.548-.061.182-.179.324-.356.426-.302.174-.601.15-.897-.073l.26-.369c.099.058.169.092.208.1.077.017.151.006.222-.034.141-.081.174-.186.1-.314-.043-.074-.137-.112-.282-.113-.054.003-.108.007-.161.011s-.107.008-.163.013c-.155.01-.274 0-.358-.031-.106-.039-.193-.118-.261-.236-.09-.157-.111-.317-.063-.481.051-.166.155-.294.311-.384.233-.134.473-.113.722.06z"/><path d="m12.397 30.681.813 1.414-.416.239-.814-1.414-.178.102-.224-.389.178-.102-.38-.661.417-.24.38.661.324-.186.224.389z"/><path d="m13.855 27.921.991 1.722c.141.246.284.402.43.47.214.095.43.08.647-.045.218-.125.34-.304.366-.538.017-.156-.046-.359-.19-.608l-.991-1.722.431-.248 1.058 1.84c.174.301.222.604.147.906-.086.339-.283.596-.59.773s-.628.217-.963.121c-.3-.087-.536-.281-.71-.582l-1.058-1.841z"/><path d="m17.976 27.363-.239.381c-.118-.08-.217-.097-.298-.051-.038.022-.064.054-.076.095-.013.041-.008.081.015.121.04.069.159.091.359.067.276-.031.475-.03.597.006.123.036.223.122.301.258.1.174.12.357.059.548-.061.183-.179.325-.356.426-.302.174-.601.15-.897-.073l.261-.369c.099.058.169.092.208.1.078.017.152.006.222-.034.141-.081.174-.185.1-.314-.043-.074-.137-.112-.282-.113-.054.003-.108.007-.161.011s-.108.008-.163.013c-.155.01-.274 0-.358-.031-.106-.039-.193-.118-.261-.236-.09-.157-.111-.317-.063-.481.051-.166.155-.294.311-.384.232-.134.472-.113.721.06z"/><path d="m20.507 26.829-1.292.743c.096.142.212.232.348.271.135.037.269.018.402-.059.103-.06.175-.134.215-.223.038-.087.062-.222.07-.405l.464-.006c-.001.123-.013.236-.035.337-.023.101-.056.192-.101.275-.045.082-.102.157-.17.223-.069.066-.15.126-.244.18-.269.155-.535.193-.797.114-.263-.08-.477-.264-.642-.552-.164-.285-.218-.561-.161-.828.059-.266.22-.474.483-.626.265-.152.524-.189.775-.108.249.08.46.269.631.566zm-.623-.095c-.186-.189-.39-.219-.612-.092-.051.029-.093.065-.129.106s-.063.086-.083.136-.031.103-.033.158c-.003.056.004.113.021.173z"/><path d="m21.983 25.832c-.15-.26-.184-.535-.102-.825.081-.29.256-.512.523-.666.269-.155.55-.194.844-.118.291.077.513.25.667.518.155.27.192.551.111.84-.083.29-.261.512-.534.669-.27.155-.55.193-.839.113-.287-.077-.511-.255-.67-.531zm.431-.238c.103.181.234.295.39.345.16.049.321.028.482-.066.163-.093.263-.221.3-.382s.005-.329-.096-.504-.23-.288-.388-.337c-.16-.049-.321-.028-.482.066-.159.091-.258.219-.295.382-.038.164-.008.329.089.496z"/><path d="m24.491 23.724.814 1.414-.418.241-.814-1.414-.148.085-.224-.389.148-.085-.4-.696c-.131-.227-.184-.41-.159-.549.033-.194.154-.35.361-.469.074-.043.18-.075.317-.096l.245.425-.055.002c-.116.007-.203.026-.261.06-.074.042-.109.098-.104.166.004.067.048.174.133.322l.342.594.454-.261.224.389z"/><path d="m26.036 20.914.99 1.722c.141.246.284.402.43.47.214.095.43.08.647-.045.219-.125.34-.304.366-.538.017-.156-.046-.359-.19-.608l-.99-1.722.431-.248 1.058 1.84c.174.301.223.603.147.906-.086.339-.283.596-.59.773s-.628.217-.963.121c-.3-.087-.536-.281-.71-.582l-1.058-1.841z"/><path d="m28.932 20.652.418-.241.096.167c.063-.228.185-.395.368-.5.21-.121.411-.148.604-.084.166.054.322.208.468.463l.636 1.105-.418.241-.579-1.007c-.102-.178-.198-.286-.286-.326-.088-.042-.195-.026-.323.047-.138.08-.21.182-.215.307-.005.123.057.296.186.521l.501.87-.418.241z"/><path d="m30.517 18.742c-.042-.073-.052-.151-.029-.235.022-.083.071-.146.145-.189.075-.043.155-.054.238-.031.083.021.146.07.189.145s.053.155.031.238c-.021.083-.07.146-.145.189s-.155.054-.238.031c-.083-.022-.147-.071-.191-.148zm.911.474 1.037 1.803-.417.24-1.037-1.803z"/><path d="m32.179 18.784 1.049.744-.118-1.28.468-.269.172 2.466-2.038-1.392z"/><path d="m36.077 17.872-1.292.744c.097.142.212.232.348.27.135.037.269.018.402-.059.103-.06.175-.134.215-.222.038-.088.061-.222.07-.405l.464-.006c-.001.124-.013.236-.035.337-.023.101-.056.193-.101.275s-.102.156-.17.222c-.069.066-.15.126-.244.18-.269.155-.535.193-.797.114-.263-.081-.477-.264-.642-.552-.164-.285-.218-.562-.161-.829.059-.266.22-.474.483-.625.265-.153.524-.189.775-.108.249.08.46.269.631.566zm-.623-.095c-.186-.189-.39-.219-.612-.091-.051.029-.093.064-.129.105s-.063.086-.083.136c-.019.05-.031.103-.033.159-.003.055.004.113.021.172z"/><path d="m35.958 16.61.416-.239.093.161c.03-.124.067-.218.109-.282.043-.066.106-.122.188-.17.11-.063.245-.093.406-.091l.028.491c-.111-.011-.205.005-.28.048-.227.131-.242.367-.045.711l.538.935-.417.24z"/><path d="m38.6 15.499-.239.381c-.118-.08-.217-.097-.298-.051-.038.022-.063.053-.076.095-.013.041-.007.081.015.121.039.069.159.091.359.067.276-.032.474-.03.597.007.123.036.223.122.301.258.1.174.12.356.059.548-.061.182-.179.325-.356.426-.302.174-.601.15-.897-.072l.26-.37c.099.058.169.091.208.1.077.018.151.007.222-.034.14-.081.174-.186.1-.314-.043-.074-.137-.112-.282-.113-.054.003-.108.007-.161.011-.053.005-.107.009-.163.013-.155.01-.274 0-.358-.031-.106-.039-.193-.118-.261-.237-.09-.156-.111-.317-.063-.481.051-.165.155-.294.311-.384.233-.134.473-.114.722.06z"/><path d="m40.243 14.145.418-.241 1.037 1.803-.418.241-.109-.189c-.079.259-.218.446-.415.559-.249.144-.507.172-.774.086-.268-.091-.48-.274-.639-.55-.156-.27-.204-.542-.146-.815s.209-.48.452-.62c.21-.121.448-.142.714-.066zm-.473 1.465c.1.173.227.287.382.342.158.055.31.042.454-.042.154-.088.248-.214.282-.374.032-.164-.001-.331-.098-.5s-.225-.281-.383-.337c-.157-.053-.311-.035-.463.052-.143.082-.232.205-.265.37-.033.164-.002.327.091.489z"/><path d="m40.842 12.039 1.799 3.126-.417.24-1.799-3.126z"/><path d="m43.205 11.036 1.411 2.453.84-.483.233.405-1.272.731-1.644-2.858z"/><path d="m45.408 12.356c-.15-.26-.184-.536-.103-.825.081-.29.256-.512.523-.666.269-.155.551-.194.844-.118.291.077.513.25.667.517.155.27.192.551.111.84-.083.29-.261.512-.534.669-.27.156-.55.194-.839.113-.287-.076-.51-.253-.669-.53zm.43-.237c.103.18.234.295.39.345.16.049.32.028.482-.065.163-.094.263-.221.3-.382s.006-.329-.095-.504-.23-.287-.388-.336c-.16-.049-.32-.028-.482.066-.159.092-.258.219-.295.382-.038.161-.009.326.088.494z"/><path d="m50.017 10.865c.049.086.09.162.121.23.032.068.057.13.076.185.048.153.057.303.027.45-.055.281-.225.504-.51.668-.241.138-.476.187-.706.147-.237-.041-.436-.172-.596-.394l.418-.241c.067.08.133.133.197.16.151.063.309.046.475-.049.305-.175.35-.45.135-.824l-.145-.252c-.068.264-.21.458-.426.582-.246.141-.498.169-.757.081-.261-.089-.47-.269-.625-.54-.151-.263-.206-.528-.165-.797.046-.286.199-.503.458-.652.227-.131.464-.155.713-.072l-.117-.204.417-.24zm-.892-.625c-.101-.175-.228-.288-.382-.339-.157-.052-.31-.037-.458.049-.158.091-.249.222-.273.391-.022.152.014.312.11.478.095.164.213.275.356.332.156.063.314.049.473-.043s.252-.222.278-.391c.026-.154-.009-.313-.104-.477z"/><path d="m49.036 8.089c-.042-.073-.051-.151-.029-.234.023-.084.071-.147.145-.189.075-.043.155-.054.238-.031.083.021.146.07.189.145s.054.155.031.238c-.021.083-.07.146-.145.189s-.155.053-.238.031c-.083-.023-.147-.073-.191-.149zm.911.474 1.037 1.803-.416.24-1.038-1.804z"/><path d="m50.474 8.259.419-.241.096.167c.063-.228.185-.395.368-.5.21-.121.411-.149.605-.084.166.054.322.208.468.463l.636 1.105-.419.241-.579-1.007c-.102-.177-.197-.286-.286-.326-.088-.041-.196-.026-.322.048-.139.08-.21.182-.216.306-.006.122.056.296.186.521l.5.87-.419.241z"/><path d="m53.778 6.768-.239.381c-.118-.08-.217-.097-.298-.051-.038.022-.064.054-.076.095-.013.041-.008.081.015.121.04.069.159.092.359.067.276-.032.475-.03.597.007.123.036.223.122.301.258.1.174.12.356.059.547-.061.183-.179.325-.356.426-.302.174-.601.15-.897-.072l.261-.369c.099.058.169.091.208.1.078.018.152.007.222-.034.141-.081.174-.185.1-.314-.043-.074-.137-.112-.282-.113-.054.003-.108.007-.161.011s-.108.008-.163.012c-.155.01-.274 0-.358-.031-.106-.039-.193-.118-.261-.236-.09-.157-.111-.317-.063-.481.051-.165.155-.293.311-.384.232-.134.471-.114.721.06z"/><path d="m58.581 119.995-.993.585.351.595.964-.568.207.352-.964.568.488.828.993-.585.207.351-1.367.806-1.46-2.477 1.367-.805z"/><path d="m59.906 120.427.722 1.226-.361.213-.722-1.226-.154.091-.199-.337.154-.091-.337-.573.361-.213.337.573.281-.165.199.337z"/><path d="m59.558 118.633.361-.212.753 1.277c.06-.191.168-.333.323-.424.177-.104.351-.13.525-.078.149.046.287.179.415.397l.564.958-.361.213-.545-.924c-.074-.125-.15-.202-.227-.233-.078-.03-.166-.016-.264.042-.126.074-.192.165-.197.274-.004.109.051.26.165.452l.445.756-.361.213z"/><path d="m62.938 120.292-1.048-2.97 1.985 1.424-.254-2.444 2.038 2.387-.384.226-1.12-1.355.215 2.041-1.662-1.191.616 1.654z"/><path d="m66.346 116.178.362-.214.921 1.563-.363.214-.096-.164c-.067.226-.186.39-.357.491-.216.127-.441.155-.674.081-.234-.077-.421-.234-.562-.473-.138-.234-.183-.471-.135-.709.048-.239.177-.42.388-.545.182-.107.389-.128.622-.064zm-.399 1.282c.088.15.2.248.336.295.138.046.27.033.395-.041.134-.079.215-.188.243-.329.027-.144-.004-.289-.09-.435-.086-.147-.199-.243-.337-.29-.137-.044-.271-.028-.403.05-.124.073-.2.181-.228.325-.027.143.001.285.084.425z"/><path d="m69.574 116.332c.044.074.08.14.108.199s.051.112.068.16c.043.133.053.263.028.392-.045.246-.192.442-.439.587-.209.123-.413.168-.614.135-.207-.033-.382-.146-.523-.338l.363-.214c.059.069.117.115.174.137.132.053.27.038.414-.046.264-.156.3-.396.11-.719l-.128-.219c-.057.231-.179.402-.367.512-.212.125-.432.151-.659.077-.229-.075-.412-.23-.55-.465-.134-.228-.185-.459-.151-.693.037-.25.168-.441.393-.573.197-.116.404-.139.621-.069l-.104-.177.361-.212zm-.783-.537c-.09-.152-.202-.25-.337-.293-.137-.045-.27-.029-.398.047-.137.081-.215.195-.234.343-.018.133.015.272.1.416.084.142.189.238.314.287.137.053.274.039.412-.042s.217-.196.238-.344c.021-.134-.011-.272-.095-.414z"/><path d="m68.694 113.92c-.037-.063-.046-.131-.028-.204.019-.073.061-.128.125-.166.066-.039.135-.048.207-.03.073.018.128.06.166.125s.048.135.029.207c-.018.072-.06.128-.125.166-.065.039-.135.048-.207.03-.072-.019-.128-.062-.167-.128zm.798.405.921 1.563-.361.213-.921-1.563z"/><path d="m71.205 113.406.283.48c-.142-.052-.256-.078-.343-.077-.087-.001-.174.025-.26.076-.136.08-.221.194-.254.342-.034.148-.008.294.076.437.086.147.201.241.343.284.143.043.283.024.419-.056.086-.051.152-.115.196-.191.043-.074.076-.189.102-.345l.281.477c-.102.162-.226.286-.373.373-.242.143-.49.184-.745.123s-.451-.209-.589-.442c-.137-.233-.171-.479-.101-.736.07-.258.225-.457.464-.599.154-.09.321-.139.501-.146z"/><path d="m71.078 112.515c-.037-.063-.046-.131-.028-.204.019-.073.061-.128.125-.166.065-.038.134-.048.207-.029.073.018.128.06.167.125.038.065.048.135.029.207-.018.072-.059.128-.125.166-.065.038-.134.048-.207.029s-.129-.062-.168-.128zm.798.405.921 1.563-.361.213-.921-1.563z"/><path d="m73.485 111.971.363-.214.921 1.563-.362.214-.097-.164c-.067.226-.186.39-.357.491-.216.127-.441.155-.674.082-.234-.077-.421-.234-.562-.473-.138-.234-.183-.471-.135-.709.048-.239.177-.42.388-.544.182-.107.389-.128.622-.064zm-.399 1.282c.088.15.2.248.336.295.138.046.27.033.395-.041.134-.079.215-.188.243-.329.026-.144-.004-.289-.09-.435-.086-.147-.199-.243-.338-.29-.137-.044-.271-.028-.403.05-.124.073-.2.181-.228.325-.026.143.003.285.085.425z"/><path d="m74.303 111.49.363-.214.085.144c.053-.199.158-.346.316-.439.182-.107.358-.133.526-.078.145.046.283.179.412.399l.564.958-.362.214-.514-.873c-.091-.154-.175-.247-.252-.281-.077-.036-.171-.021-.281.044-.12.071-.181.16-.185.269-.003.107.053.258.167.453l.444.754-.362.214z"/><path d="m77.17 110.159-.205.335c-.104-.069-.191-.082-.26-.041-.033.019-.055.047-.066.083-.01.036-.006.071.014.105.036.06.14.078.314.055.24-.03.414-.03.521 0 .107.031.195.105.265.222.089.151.107.31.056.477-.051.16-.154.285-.306.375-.262.155-.523.136-.783-.055l.224-.325c.087.05.148.078.182.085.068.015.132.004.193-.032.122-.072.15-.164.085-.275-.038-.064-.12-.097-.247-.096-.047.003-.094.007-.14.011s-.094.008-.142.012c-.135.01-.239.003-.312-.023-.093-.033-.17-.101-.23-.204-.08-.136-.1-.275-.059-.419.043-.145.132-.258.268-.338.2-.117.409-.101.628.048z"/><path d="m79.891 107.144.261.443c-.323-.054-.6-.012-.83.124-.255.15-.415.368-.482.654-.068.285-.025.559.13.822.153.26.37.427.651.503.281.075.548.038.803-.112.132-.077.231-.165.298-.262.039-.051.075-.112.108-.181.034-.068.066-.146.097-.234l.266.451c-.143.247-.332.439-.567.578-.354.209-.729.263-1.125.164-.396-.102-.698-.33-.905-.681-.186-.316-.247-.658-.184-1.028.078-.454.321-.801.729-1.041.221-.132.472-.199.75-.2z"/><path d="m81.135 108.502c-.133-.226-.165-.466-.097-.719.068-.254.218-.449.451-.586s.478-.174.734-.11c.254.065.45.213.587.445.138.234.173.478.105.731-.07.253-.223.449-.459.588-.234.138-.477.174-.73.106-.253-.063-.45-.215-.591-.455zm.373-.211c.092.156.206.255.343.297.14.041.279.021.42-.061.141-.083.227-.195.258-.336.031-.14.002-.287-.088-.439-.089-.152-.203-.249-.341-.29-.14-.041-.28-.021-.42.061-.138.081-.223.193-.254.336-.031.142-.004.286.082.432z"/><path d="m83.091 106.312.528.897c.153.259.331.328.535.208s.23-.31.078-.569l-.528-.897.361-.213.533.905c.073.125.122.242.144.351.018.099.009.203-.026.312-.06.178-.183.322-.372.433-.187.11-.373.149-.557.115-.113-.021-.209-.063-.288-.126-.073-.055-.152-.154-.236-.298l-.533-.905z"/><path d="m84.52 105.469.363-.214.085.144c.053-.199.158-.346.316-.439.182-.107.358-.133.527-.079.145.046.283.179.412.399l.565.958-.363.214-.514-.873c-.09-.154-.175-.247-.252-.281-.077-.035-.171-.02-.281.045-.12.071-.181.16-.185.269-.003.107.053.258.167.453l.444.754-.362.214z"/><path d="m87.578 103.758.283.48c-.142-.052-.256-.078-.343-.077-.087-.001-.174.025-.26.076-.136.08-.221.194-.254.342-.034.148-.008.294.076.437.086.147.201.242.342.285.143.043.283.024.419-.056.086-.051.152-.115.196-.191.043-.074.076-.189.101-.345l.281.477c-.102.162-.226.286-.373.373-.242.142-.489.184-.744.123s-.452-.209-.589-.442-.171-.479-.101-.736c.07-.258.225-.457.464-.598.154-.092.321-.141.502-.148z"/><path d="m87.45 102.867c-.037-.063-.046-.131-.027-.204s.061-.128.125-.166c.065-.038.134-.048.207-.029.072.018.128.06.166.125s.048.135.029.207c-.018.072-.059.128-.124.166-.066.038-.135.048-.208.029-.073-.018-.129-.061-.168-.128zm.799.405.921 1.563-.361.213-.921-1.563z"/><path d="m88.391 101.643 1.596 2.71-.361.212-1.596-2.71z"/><path d="m90.918 102.737c-.133-.226-.165-.465-.097-.719.068-.253.219-.449.451-.585.233-.137.478-.174.734-.111.254.065.45.213.587.445.138.234.173.478.105.731-.07.253-.223.449-.459.588-.234.138-.478.174-.73.107-.253-.064-.45-.216-.591-.456zm.373-.211c.092.156.206.255.344.297.14.042.279.021.419-.062.141-.083.227-.195.258-.336.031-.14.002-.287-.088-.438-.09-.152-.204-.249-.342-.29-.14-.041-.28-.021-.42.062-.138.081-.222.193-.254.335-.03.143-.003.286.083.432z"/><path d="m93.085 100.876.723 1.226-.363.214-.723-1.226-.128.076-.199-.337.128-.076-.355-.603c-.116-.197-.164-.356-.143-.478.028-.169.131-.306.311-.412.064-.038.156-.066.275-.087l.217.369-.048.003c-.102.007-.177.025-.228.054-.064.038-.094.086-.089.146.004.058.044.151.12.28l.303.515.393-.232.199.337z"/><path d="m95.273 99.883.593 1.006-.374.221-1.46-2.477.424-.25c.207-.122.373-.2.496-.234.124-.034.25-.035.379-.002.224.055.399.189.523.401.133.227.164.451.09.673-.073.222-.239.409-.497.561zm-.204-.346.14-.082c.343-.202.437-.436.281-.7-.151-.256-.403-.279-.757-.071l-.123.073z"/><path d="m96.277 98.542.361-.213.082.14c.026-.108.056-.191.092-.247.037-.058.091-.108.162-.15.095-.056.213-.083.353-.083l.03.428c-.097-.009-.179.006-.244.045-.197.116-.208.323-.033.62l.478.81-.361.213z"/><path d="m98.658 97.139.362-.214.921 1.562-.363.214-.096-.164c-.067.226-.186.39-.357.491-.216.127-.441.155-.674.082-.234-.077-.422-.234-.562-.473-.138-.234-.183-.471-.135-.709.048-.239.177-.42.388-.545.182-.107.389-.128.622-.063zm-.399 1.281c.088.15.2.248.336.295.138.047.27.033.395-.041.134-.079.215-.189.243-.329.027-.144-.004-.289-.09-.435-.086-.147-.199-.243-.337-.29-.137-.045-.271-.028-.403.05-.124.073-.2.181-.228.324-.027.144.001.286.084.426z"/><path d="m101.886 97.292c.044.074.08.14.108.199s.051.112.068.16c.043.133.053.263.028.392-.045.246-.192.442-.439.587-.209.123-.413.168-.614.135-.207-.033-.382-.146-.523-.338l.363-.214c.059.069.117.115.174.137.132.053.27.038.414-.047.264-.155.3-.395.11-.719l-.128-.218c-.057.231-.179.401-.367.512-.212.125-.432.152-.659.077-.229-.075-.412-.23-.55-.465-.134-.228-.185-.459-.151-.693.037-.25.168-.441.393-.573.197-.116.404-.139.621-.069l-.104-.177.361-.213zm-.783-.537c-.09-.152-.202-.25-.337-.293-.137-.044-.27-.029-.398.047-.137.081-.215.195-.234.343-.018.133.015.272.1.416.084.142.189.238.314.286.137.053.274.039.412-.042s.217-.196.238-.343c.021-.134-.011-.272-.095-.414z"/><path d="m101.804 95.285.528.897c.152.259.331.328.535.208s.23-.31.078-.569l-.529-.897.361-.213.533.905c.074.125.122.242.144.352.018.099.009.203-.026.312-.06.178-.184.322-.372.432-.187.11-.373.149-.557.115-.113-.021-.209-.063-.288-.127-.073-.055-.152-.154-.236-.298l-.533-.905z"/><path d="m105.167 94.47-1.12.66c.085.123.187.2.305.232.118.031.235.013.35-.055.09-.053.151-.118.185-.196.033-.077.052-.194.057-.353l.405-.01c0 .108-.009.206-.028.294-.018.088-.047.169-.085.241s-.087.137-.146.195c-.06.058-.13.111-.211.159-.233.137-.464.173-.694.107-.23-.068-.419-.226-.565-.476-.145-.247-.195-.487-.148-.721.049-.232.187-.415.415-.55.23-.136.455-.169.675-.101.218.067.403.229.555.488zm-.545-.076c-.164-.163-.342-.187-.534-.074-.044.026-.081.057-.112.093s-.055.076-.071.12c-.017.044-.026.09-.028.139-.002.048.005.098.02.151z"/></g></svg>