<?xml version="1.0" encoding="UTF-8" standalone="no"?>
<!-- Generator: Adobe Illustrator 21.0.2, SVG Export Plug-In . SVG Version: 6.00 Build 0)  -->

<svg
   xmlns:dc="http://purl.org/dc/elements/1.1/"
   xmlns:cc="http://creativecommons.org/ns#"
   xmlns:rdf="http://www.w3.org/1999/02/22-rdf-syntax-ns#"
   xmlns:svg="http://www.w3.org/2000/svg"
   xmlns="http://www.w3.org/2000/svg"
   xmlns:sodipodi="http://sodipodi.sourceforge.net/DTD/sodipodi-0.dtd"
   xmlns:inkscape="http://www.inkscape.org/namespaces/inkscape"
   version="1.1"
   x="0px"
   y="0px"
   viewBox="0 0 110.979 128.417"
   enable-background="new 0 0 110.979 128.417"
   xml:space="preserve"
   id="svg678"
   sodipodi:docname="logical_spock.svg"
   inkscape:version="0.92.2 5c3e80d, 2017-08-06"><metadata
     id="metadata684"><rdf:RDF><cc:Work
         rdf:about=""><dc:format>image/svg+xml</dc:format><dc:type
           rdf:resource="http://purl.org/dc/dcmitype/StillImage" /><dc:title></dc:title></cc:Work></rdf:RDF></metadata><defs
     id="defs682" /><sodipodi:namedview
     pagecolor="#ffffff"
     bordercolor="#666666"
     borderopacity="1"
     objecttolerance="10"
     gridtolerance="10"
     guidetolerance="10"
     inkscape:pageopacity="0"
     inkscape:pageshadow="2"
     inkscape:window-width="1440"
     inkscape:window-height="779"
     id="namedview680"
     showgrid="false"
     inkscape:zoom="2.56"
     inkscape:cx="91.217836"
     inkscape:cy="55.3528"
     inkscape:window-x="0"
     inkscape:window-y="1"
     inkscape:window-maximized="1"
     inkscape:current-layer="svg678" /><g
     id="Layer_1" /><g
     id="Layer_4" /><g
     id="g2361"
     transform="translate(-39.522598)"><g
       transform="translate(40)"
       id="Layer_63_4_"><g
         id="g8"><g
           id="g6"><polygon
             points="110.906,32.279 110.906,96.279 55.48,128.279 0.056,96.279 0.056,32.279 55.48,0.279 "
             id="polygon4"
             style="fill:#01204c" /></g></g></g><path
       d="m 141.678,37.861 v 53.14 l -0.01,0.01 -0.021,0.01 -0.41,0.24 -0.369,0.21 -0.62,0.35 -4.15,2.39 -0.01,0.01 -0.13,0.08 -0.061,0.03 -0.55,0.32 -0.8,0.45 -0.1,0.06 -0.48,0.28 -1.13,0.65 -0.851,0.49 -0.739,0.43 -0.24,0.13 -0.13,0.05 -0.11,0.07 -1.03,0.59 -2,1.15 -0.649,0.37 -0.17,0.1 -0.01,0.01 -1.04,0.59 -0.04,0.03 -0.07,0.04 -1.16,0.67 -0.45,0.26 -0.01,0.01 -0.01,0.01 h -0.01 l -0.42,0.24 -1.12,0.65 -0.87,0.52 -1.181,0.67 -0.079,0.05 -0.12,0.07 -0.04,0.03 -0.04,0.02 -0.021,0.01 -0.1,0.06 -0.29,0.17 -0.03,0.01 -0.16,0.09 v 0.01 l -0.399,0.23 -0.38,0.22 -0.181,0.09 -0.02,0.02 -0.04,0.02 -0.69,0.39 -0.3,0.18 -0.02,0.01 -0.29,0.17 -0.15,0.08 -0.22,0.13 -0.24,0.14 h -0.01 l -0.71,0.42 -0.03,0.02 -0.3,0.17 -1.36,0.79 -0.5,0.29 -0.95,0.54 -0.029,0.02 h -0.011 l -0.359,0.21 -0.24,0.15 -0.84,0.48 -0.63,0.36 -0.061,0.03 -0.5,0.29 c -0.01,0.01 -0.01,0.01 -0.01,0 l -0.53,0.31 -0.29,0.17 -0.76,0.44 -0.05,0.03 -0.05,0.03 -0.03,0.01 c 0,0.01 -0.01,0.01 -0.01,0.01 l -0.021,0.02 -0.25,0.14 -1,0.58 -0.17,0.1 -0.04,0.02 -0.38,0.22 -1.42,0.82 -0.36,0.21 -0.09,0.05 -0.24,0.14 -0.8,0.46 -0.26,0.15 -0.28,0.16 -0.01,0.01 -0.2,0.12 -0.229,0.13 -0.351,0.2 -0.83,0.48 -0.01,0.01 -0.09,0.05 -1.32,0.76 -0.02,0.01 -0.79,0.46 -0.61,0.35 h -0.01 l -1.41,0.81 -0.02,0.02 -0.25,0.14 -0.56,0.32 h -0.01 l -0.13,0.08 -0.19,0.11 -0.27,0.16 h -0.01 l -0.2,0.12 -0.061,-0.03 -1.14,-0.66 -0.02,-0.01 -0.2,-0.12 -0.851,-0.49 -0.029,-0.01 -0.33,-0.19 -0.011,-0.01 -1.399,-0.81 -0.01,-0.01 -0.021,-0.01 -1.37,-0.79 -0.029,-0.02 h -0.011 l -0.83,-0.48 -0.06,-0.04 -0.34,-0.19 -0.181,-0.11 -0.02,-0.01 -0.66,-0.38 -0.04,-0.03 -0.09,-0.05 -0.1,-0.06 -0.13,-0.07 -0.271,-0.16 -0.12,-0.07 h -0.01 l -0.72,-0.42 -0.24,-0.13 -0.39,-0.23 -0.051,-0.03 -0.029,-0.02 -1.4,-0.81 h -0.01 l -0.481,-0.29 h -0.01 l -0.269,-0.16 -0.62,-0.36 -0.03,-0.01 -0.06,-0.04 -0.039,-0.02 -1.29,-0.75 -1.07,-0.62 -0.69,-0.39 -1.649,-0.96 -0.13,-0.07 -2.891,-1.68 -0.37,-0.21 -0.05,-0.03 -0.39,-0.22 -0.49,-0.28 -0.33,-0.2 -1.2,-0.69 -0.649,-0.37 -0.57,-0.33 -0.47,-0.27 -0.441,-0.26 -0.3,-0.17 -0.5,-0.29 -0.17,-0.1 c -0.01,0 -0.02,-0.01 -0.03,-0.02 l -2.309,-1.34 -0.21,-0.12 -0.05,-0.03 -1.16,-0.67 -0.67,-0.38 -0.82,-0.47 -0.09,-0.05 -0.5,-0.29 -0.01,-0.01 -0.211,-0.12 h -0.01 l -1.04,-0.6 c -0.01,-0.01 -0.01,-0.01 -0.02,-0.01 l -1.86,-1.08 -1.019,-0.59 -2.11,-1.23 -0.09,-0.05 -0.2,-0.12 c 0,0 -0.01,0 -0.02,-0.01 l -0.28,-0.16 -0.53,-0.3 -0.82,-0.48 -0.06,-0.04 h -0.01 c 0,0 0,0 -0.01,0 l -0.49,-0.29 -0.7,-0.4 -0.68,-0.39 -1.221,-0.71 -0.1,-0.06 h -0.01 l -0.33,-0.19 -0.41,-0.24 h -0.01 l -0.431,-0.25 -0.989,-0.57 -0.08,-0.04 -0.03,-0.02 v -53.14 l 0.78,-0.45 1.59,-0.92 0.36,-0.21 3.38,-1.95 1.059,-0.61 5.78,-3.34 h 0.01 l 0.91,-0.52 1.05,-0.62 1.82,-1.05 h 0.01 l 0.87,-0.51 3.63,-2.08 0.64,-0.38 0.94,-0.54 0.17,-0.09 1.66,-0.95 0.78,-0.45 0.38,-0.22 0.44,-0.26 0.67,-0.39 0.431,-0.26 0.52,-0.3 0.5,-0.28 0.59,-0.34 1.19,-0.68 0.689,-0.41 0.75,-0.43 0.65,-0.37 h 0.01 l 0.05,-0.03 0.431,-0.25 5.29,-3.05 0.109,-0.06 0.08,-0.05 0.271,-0.16 5.52,-3.19 0.55,-0.32 1.44,-0.83 0.51,0.3 1.09,0.63 2.86,1.65 3.09,1.79 2.601,1.5 0.22,0.13 4.69,2.7 0.98,0.57 5.13,2.96 0.91,0.52 1.04,0.61 2.3,1.31 0.87,0.5 0.691,0.4 0.829,0.48 0.49,0.28 0.58,0.34 0.3,0.17 0.801,0.46 0.09,0.06 1.81,1.04 3.28,1.89 0.5,0.29 0.04,0.03 v 0.01 l 0.26,0.14 0.66,0.39 1.46,0.84 1.94,1.12 0.779,0.44 0.44,0.25 0.49,0.28 1.449,0.84 0.17,0.1 0.851,0.49 z"
       id="path11"
       inkscape:connector-curvature="0"
       style="fill:#134bbc" /><path
       d="m 141.67755,90.301 v 0.7 l -0.01,0.01 -0.021,0.01 -0.41,0.24 -0.369,0.21 c -1.28,-1.33 -2.511,-2.7 -3.74,-3.99 -3.141,-3.31 -6.271,-6.61 -9.37,-9.95 -0.1,-0.11 0.06,-0.27 0.17,-0.16 3.34,3.1 6.64,6.22 9.94,9.37 1.23,1.17 2.541,2.34 3.81,3.56 z"
       id="path13"
       inkscape:connector-curvature="0"
       style="fill:#092e7a" /><path
       d="m 141.67775,65.061 v 1.05 c -0.87,-0.02 -1.73,-0.05 -2.59,-0.06 -2.33,-0.04 -4.73,0.1 -7.01,-0.41 -0.061,-0.02 -0.061,-0.11 0,-0.13 2.59,-0.58 5.37,-0.38 8.01,-0.42 0.531,0 1.06,-0.02 1.59,-0.03 z"
       id="path15"
       inkscape:connector-curvature="0"
       style="fill:#092e7a" /><path
       d="m 139.02825,36.331 c -1.88,1.64 -3.59,3.46 -5.34,5.25 -2.47,2.51 -5.1,4.99 -7.2,7.81 -0.079,0.1 0.07,0.24 0.171,0.17 2.559,-1.92 4.84,-4.29 7.119,-6.53 2.08,-2.04 4.21,-4.01 6.101,-6.21 z"
       id="path17"
       inkscape:connector-curvature="0"
       style="fill:#092e7a" /><path
       d="m 97.277717,12.241 c 0.04,1.52 -0.09,3.06 -0.109,4.52 -0.03,2.53 -0.101,5.04 -0.27,7.57 -0.02,0.22 -0.34,0.22 -0.359,0 -0.19,-2.84 -0.25,-5.67 -0.28,-8.52 -0.02,-1.37 -0.13,-2.8 -0.07,-4.2 z"
       id="path19"
       inkscape:connector-curvature="0"
       style="fill:#092e7a" /><path
       d="m 64.598,29.241 c 2.58,2.49 5.08,5.06 7.311,7.77 0.22,0.27 -0.11,0.6 -0.381,0.38 -2.79,-2.3 -5.43,-4.87 -7.98,-7.53 z"
       id="path21"
       inkscape:connector-curvature="0"
       style="fill:#092e7a" /><path
       d="m 63.278,57.311 c -2.68,0.88 -6.069,0.39 -8.88,0.4 -1.59,0 -3.149,-0.01 -4.72,-0.06 v -1.15 c 1.57,-0.05 3.13,-0.06 4.72,-0.06 2.811,0.01 6.2,-0.48 8.88,0.4 0.23,0.08 0.23,0.39 0,0.47 z"
       id="path23"
       inkscape:connector-curvature="0"
       style="fill:#092e7a" /><path
       d="m 141.67754,79.711 v 0.82 c -0.54,-0.39 -1.07,-0.78 -1.6,-1.13 -1.601,-1.06 -3.16,-2.16 -4.69,-3.31 -0.17,-0.12 -0.01,-0.4 0.16,-0.28 1.78,1.22 3.62,2.31 5.439,3.47 0.231,0.14 0.462,0.29 0.691,0.43 z"
       id="path27"
       inkscape:connector-curvature="0"
       style="fill:#092e7a" /><path
       d="m 141.67843,51.431 v 0.76 c -0.25,0.05 -0.5,0.11 -0.74,0.18 -1.22,0.36 -2.42,0.76 -3.66,1.05 -0.279,0.07 -0.399,-0.36 -0.119,-0.44 1.349,-0.36 2.949,-1.14 4.519,-1.55 z"
       id="path29"
       inkscape:connector-curvature="0"
       style="fill:#092e7a" /><path
       d="m 123.97762,27.641 c -0.34,0.45 -0.649,0.92 -0.97,1.33 -0.73,0.92 -1.53,1.8 -2.22,2.75 -0.13,0.19 0.16,0.41 0.319,0.25 0.82,-0.82 1.551,-1.73 2.28,-2.62 0.35,-0.43 0.8,-0.88 1.17,-1.37 z"
       id="path31"
       inkscape:connector-curvature="0"
       style="fill:#092e7a" /><path
       d="m 88.648,21.141 c 0.771,1.38 1.44,2.86 1.73,4.39 0.04,0.18 -0.2,0.3 -0.3,0.13 -0.79,-1.33 -1.37,-2.77 -2.021,-4.18 z"
       id="path33"
       inkscape:connector-curvature="0"
       style="fill:#092e7a" /><path
       d="m 52.409,36.281 c 3.239,2.64 7.069,4.39 10.3,7.06 0.14,0.11 -0.04,0.33 -0.19,0.24 -3.59,-2.15 -7.42,-4.19 -10.47,-7.09 z"
       id="path35"
       inkscape:connector-curvature="0"
       style="fill:#092e7a" /><path
       d="m 37.042,90.017 c -0.121,-0.783 -0.387,-1.542 -0.728,-2.288 -0.22,-0.814 -0.408,-1.64 -0.514,-2.504 -0.206,-1.686 -0.023,-3.367 0.051,-5.048 0.288,-0.915 1.004,-1.804 1.093,-2.726 0.018,-0.184 -0.198,-0.333 -0.366,-0.279 -0.113,0.037 -0.217,0.09 -0.313,0.154 -0.101,-0.092 -0.235,-0.147 -0.396,-0.114 -0.09,-0.432 -0.35,-0.688 -0.838,-0.694 -0.059,-0.001 -0.117,0.014 -0.174,0.036 -0.069,-0.054 -0.142,-0.108 -0.224,-0.163 -0.204,-0.137 -0.438,-0.089 -0.614,0.042 -0.077,-0.017 -0.16,-0.018 -0.25,0.02 -0.985,0.41 -1.893,0.85 -2.779,1.454 -0.143,0.097 -0.341,0.228 -0.551,0.381 0.083,-0.401 -0.434,-0.72 -0.774,-0.511 -0.336,0.205 -0.476,0.509 -0.522,0.892 -0.004,0.033 -0.002,0.092 -0.001,0.145 -0.383,0.044 -0.775,0.156 -1.126,0.244 -0.216,0.054 -0.517,0.123 -0.782,0.237 -0.172,0.017 -0.344,0.053 -0.514,0.133 -0.162,0.076 -0.234,0.262 -0.246,0.427 -0.001,0.014 0.009,0.027 0.009,0.041 -0.33,0.038 -0.628,0.089 -0.842,0.144 -1.579,0.4 -3.05,1.206 -4.544,1.833 -2.152,0.902 -4.455,1.402 -6.668,2.123 -0.127,0.041 -0.156,0.263 0,0.286 2.695,0.401 5.331,-0.417 7.829,-1.405 1.317,-0.521 3.044,-1.457 4.587,-1.552 -0.039,0.151 0.054,0.313 0.248,0.334 0.922,0.099 1.323,0.288 1.589,1.233 0.233,0.83 0.302,1.696 0.396,2.549 0.091,0.817 0.102,2.134 0.731,2.782 0.25,1.042 0.66,2.026 1.33,2.871 0.155,0.196 0.512,0.035 0.493,-0.205 -0.012,-0.157 -0.03,-0.315 -0.048,-0.474 0.096,-0.055 0.173,-0.138 0.173,-0.276 -0.007,-2.138 -0.871,-4.064 -0.544,-6.243 0.075,-0.506 0.219,-0.989 0.388,-1.462 0.014,0.233 0.048,0.457 0.122,0.65 0.12,0.314 0.651,0.508 0.822,0.107 0.095,-0.221 0.153,-0.471 0.199,-0.729 0.2,0.545 0.399,1.059 0.539,1.497 0.457,1.435 1.043,2.852 1.764,4.191 0.166,0.407 0.348,0.81 0.554,1.204 0.022,0.043 0.051,0.073 0.08,0.103 0.461,0.94 1.049,1.807 1.791,2.554 0.112,0.114 0.355,-0.002 0.287,-0.168 -0.253,-0.612 -0.491,-1.218 -0.717,-1.826 z"
       id="path127"
       inkscape:connector-curvature="0"
       style="fill:#fdfdff" /><g
       transform="translate(40)"
       id="Layer_2_5_"><g
         id="Layer_16_5_"><path
           enable-background="new    "
           d="m 55.738,11.379 -46.07,26.56 v 53.12 l 1.67,0.961 0.63,0.37 h 0.011 l 18.81,10.84 1.04,0.6 2.18,1.26 0.49,0.28 0.44,0.26 0.36,0.21 3.13,1.8 3.311,1.91 1.289,0.74 v 0.01 l 12.711,7.32 46.07,-26.56 V 37.94 Z m 44.209,78.61 -44.209,25.49 -12.51,-7.21 -31.701,-18.28 v -50.97 l 44.211,-25.49 44.209,25.49 z"
           id="path149"
           inkscape:connector-curvature="0"
           style="opacity:0.12999998" /></g></g><path
       style="stroke-width:0.04166667"
       inkscape:connector-curvature="0"
       d="m 77.765626,103.41701 q -3.208336,0 -5.729168,-1.97917 -2.520832,-1.97917 -3.312496,-5.10417 L 64.515626,79.62535 q -0.541664,-2.37501 -0.541664,-4.5 0,-1.87501 -0.208336,-2.79168 L 58.93229,52.458674 q -0.291664,-1.125008 -0.291664,-2.375008 0,-3.874992 2.583336,-6.708323 2.583328,-2.833336 6.458328,-3.25 0.708336,-3.541672 3.437504,-5.791672 2.729168,-2.25 6.354168,-2.25 3.458328,0 6.166664,2.145832 2.708336,2.145832 3.541664,5.52084 l 3.458336,14.499995 4.291664,-17.833331 q 0.833336,-3.375 3.541672,-5.520832 2.708328,-2.14584 6.166668,-2.14584 3.70833,0 6.47916,2.39584 2.77084,2.395832 3.35417,6.020832 3.83333,0.416664 6.33333,3.291665 2.50001,2.875 2.50001,6.750002 0,1 -0.29167,2.458336 l -5.125,21.33333 q 0.41666,-0.29167 1.5625,-1.18751 1.14583,-0.89582 1.60416,-1.22916 0.45834,-0.33333 1.45834,-0.95832 1,-0.62501 1.70833,-0.85418 0.70834,-0.22917 1.72917,-0.458336 1.02083,-0.229168 2.0625,-0.229168 4.375,0 7.5,3.083344 3.125,3.08333 3.125,7.45834 0,2.58332 -1.18751,4.91667 -1.18749,2.33333 -3.27082,3.91665 L 113.05729,101.292 q -2.83333,2.12501 -6.375,2.12501 z M 104.64063,34.083672 q -1.58334,0 -2.85417,1 -1.27083,1 -1.64583,2.583335 L 93.30729,66.083666 H 88.015626 L 81.973962,41.000343 q -0.375,-1.583336 -1.645832,-2.583336 -1.27084,-1 -2.854168,-1 -2,0 -3.333336,1.375 -1.333336,1.375 -1.333336,3.333336 0,0.625 0.125008,1.166664 l 5.5,22.791659 H 77.34897 l -4.125,-17 q -0.375,-1.541664 -1.666672,-2.60416 -1.291664,-1.062496 -2.875,-1.062496 -1.958328,0 -3.333328,1.374992 -1.375,1.375008 -1.375,3.291664 0,0.583344 0.125008,1.083344 l 4.833328,19.91666 q 0.291672,1.16667 0.375,3.58334 0.08334,2.41667 0.416672,3.66667 L 73.890642,95.042 q 0.333336,1.33335 1.416664,2.18751 1.083336,0.85417 2.458336,0.85417 h 28.916668 q 1.75,0 3.16667,-1.08334 l 21.125,-15.79167 q 2.33333,-1.79166 2.33333,-4.58332 0,-2.16668 -1.5625,-3.68751 -1.5625,-1.52083 -3.72917,-1.52083 -1.79166,0 -3.20833,1.08333 l -12.79167,9.58334 v -9.45833 q 0,-0.16668 1.33334,-5.75 1.33333,-5.583348 2.83333,-11.750004 1.5,-6.166672 1.625,-6.708336 0.16667,-0.75 0.16667,-1.208336 0,-1.958336 -1.33334,-3.375002 -1.33333,-1.416665 -3.29166,-1.416665 -1.625,0 -2.89583,1 -1.27084,1.000003 -1.64584,2.583331 l -4.83333,20.083328 h -1.08335 l 6.25,-25.999994 q 0.125,-0.583329 0.125,-1.166665 0,-2 -1.31249,-3.416672 -1.31251,-1.416663 -3.31251,-1.416663 z"
       id="path2237" /><g
       transform="matrix(0.69273095,0,0,0.69273095,74.76158,64.853159)"
       id="surface1"><path
         inkscape:connector-curvature="0"
         style="fill:#ffa726"
         d="m 6.5,27 c -0.8,-2.5 -0.9,-8.3 0.6,-6.7 2.7,2.8 3.8,7.7 7.4,6.7 2.1,-0.6 -1.4,7 -3.6,7 -2.2,0 -3.4,-4.5 -4.4,-7 m 34.9,0 c 0.8,-2.5 1,-8.3 -0.5,-6.7 -2.7,2.8 -3.9,7.7 -7.5,6.7 -2.1,-0.6 1.4,7 3.6,7 2.2,0 3.5,-4.5 4.4,-7"
         id="path2306" /><path
         inkscape:connector-curvature="0"
         style="fill:#ffb74d"
         d="M 10,19 C 10,6.3 38,8.7 38,17 V 30 C 38,38.3 29.8,45 24,45 18.2,45 10,38.3 10,30 Z"
         id="path2308" /><path
         inkscape:connector-curvature="0"
         style="fill:#784719"
         d="m 32,28 c 0,1.1 -0.9,2 -2,2 -1.1,0 -2,-0.9 -2,-2 0,-1.1 0.9,-2 2,-2 1.1,0 2,0.9 2,2 m -12,0 c 0,-1.1 -0.9,-2 -2,-2 -1.1,0 -2,0.9 -2,2 0,1.1 0.9,2 2,2 1.1,0 2,-0.9 2,-2"
         id="path2310" /><path
         inkscape:connector-curvature="0"
         style="fill:#4e342e"
         d="m 26.8,22.5 c 0,0 0.1,0 0.4,0 0.2,0 0.6,0 1,-0.1 0.8,-0.1 2,-0.3 3.1,-0.7 0.5,-0.2 1.1,-0.4 1.5,-0.7 0.2,-0.1 0.5,-0.3 0.7,-0.4 0.2,-0.2 0.4,-0.3 0.6,-0.5 0.3,-0.3 0.6,-0.6 0.7,-0.8 C 34.9,19.1 35,19 35,19 c 0,0 -0.1,0.1 -0.1,0.4 -0.1,0.3 -0.2,0.6 -0.5,1 -0.1,0.2 -0.3,0.4 -0.4,0.7 -0.1,0.2 -0.4,0.4 -0.5,0.7 -0.4,0.5 -0.9,0.9 -1.4,1.3 -1.1,0.8 -2.2,1.4 -3.2,1.8 -0.5,0.2 -0.9,0.3 -1.1,0.4 -0.3,0.1 -0.5,0.1 -0.5,0.1 z m -5.6,0 c 0,0 -0.1,0 -0.4,0 -0.2,0 -0.6,0 -1,-0.1 C 19,22.3 17.8,22.1 16.7,21.7 16.2,21.5 15.6,21.3 15.2,21 15,20.9 14.7,20.7 14.5,20.6 14.3,20.4 14.1,20.3 13.9,20.1 13.6,19.8 13.3,19.5 13.2,19.3 13.1,19.1 13,19 13,19 c 0,0 0.1,0.1 0.1,0.4 0.1,0.3 0.2,0.6 0.5,1 0.1,0.2 0.3,0.4 0.4,0.7 0.1,0.2 0.4,0.4 0.5,0.7 0.4,0.5 0.9,0.9 1.4,1.3 1.1,0.8 2.2,1.4 3.2,1.8 0.5,0.2 0.9,0.3 1.1,0.4 0.3,0.1 0.5,0.1 0.5,0.1 z"
         id="path2312" /><rect
         x="20"
         y="37"
         style="fill:#ff9100"
         width="8"
         height="2"
         id="rect2314" /><path
         inkscape:connector-curvature="0"
         style="fill:#424242"
         d="M 40,21.4 C 40,7 33.8,3 24,3 14.2,3 8,7 8,21.3 8.8,24.6 11,28 11,28 V 17.9 c 0,-1.5 1.4,-2.6 2.8,-2.2 2.6,0.6 6.7,1.3 10.2,1.3 3.5,0 7.6,-0.7 10.2,-1.3 1.4,-0.3 2.8,0.8 2.8,2.2 V 28 c 0,0 2.2,-3.4 3,-6.6 z"
         id="path2316" /></g></g></svg>