<svg enable-background="new 0 0 110.979 128.417" height="128.417" viewBox="0 0 110.979 128.417" width="110.979" xmlns="http://www.w3.org/2000/svg"><path d="m110.849 96.417-55.426 32-55.423-32v-64l55.423-32 55.426 32z" fill="#2f2a5b"/><path d="m101.923 38.139v53.14l-.01.01-.312.181-1.108.63-6.28 3.62-2.72 1.569-.24.131-.13.05-.11.069-3.029 1.74-.061.029-.16.102-.12.068-.02.011-.551.31-.149.091-.12.069-.689.391-.039.029-.761.44-2.16 1.25-.33.188-.63.381-.239.141-1.38.79-1.461.851-.181.09-.02.021-1.71.979-.96.561-4.011 2.319-.609.351-.351.2-.279.159-.062.029-3.31 1.92-.19.111-.77.438-3.271 1.891-.01.011-.3.17-.13.08-.171.1-.439.25-.42.24-.05.029-.28.16-3.49 2.02-.979.562-.73.42-.49.279-.029.021-.03-.021-.271-.159-.14-.08-.81-.46-.45-.261-.09-.061-.511-.289-.06-.03-.26-.149-.15-.091-.01-.01-1.31-.75-.961-.561-1.149-.659-1.37-.791-.04-.029-2.07-1.189-4.199-2.439-.96-.551-.2-.119-.69-.391-2.76-1.601-.96-.56-1.37-.791-.39-.22-.49-.28-.33-.199-1.85-1.061-.32-.189-.25-.141-.41-.24-.3-.18-1-.57-2.51-1.459-.65-.371-.96-.549-1.3-.75-.09-.051-.7-.41-.021-.01h-.01l-.979-.57-.551-.32-.96-.549-1.449-.84-2.11-1.23-5.351-3.08h-.01l-1.1-.641-1.04-.6v-50.291c.09-1.01.18-2.01.28-3.01l1.14-.66.42-.24.24-.14.29-.17 1.609-.92c.011-.01.021-.01.021-.01v-.01l.11-.06.17-.1.319-.19.55-.31.551-.32c1.35-.56 2.649-1.26 3.83-2.05.31-.21.6-.43.88-.67l3.92-2.26 1.99-1.16 4.93-2.83 1.58-.92.17-.09 1.66-.95 1.16-.67 1.54-.91.52-.3.34-.2 1.94-1.1.689-.41 1.46-.83 3.73-2.15 1.07-.62.92-.53.46-.27 6.069-3.51.021-.01.2-.12 1.22-.7 1.061.62 6.489 3.75 1.33.77 4.261 2.46 8.939 5.15 1.04.61 2.3 1.31.87.5 1.521.88.199.12 1.17.67.801.46.091.06 1.81 1.04 3.78 2.18.04.03v.01l.26.14.66.39 1.46.84.399.23.261.15.109.07.239.13.051.03.09.06h.011l.05.03.021.01.101.06.609.35.779.44.44.25 1.938 1.12.511.29.45.26.039.03.29.17.19.11z" fill="#fff"/><path d="m14.639 43.788c.003-.005.006-.008.008-.013.032-.053-.017-.098-.064-.095v-.004c-.038.003-.074.011-.111.021-.267.041-.533.083-.8.121-.02-.051-.065-.092-.128-.087-.001 0-.001 0-.001 0-.33.021-.659.056-.99.071-.302.014-.664.042-.947.17-.062-.146-.146-.277-.242-.4-.1-.213-.226-.418-.362-.613-.186-.362-.396-.708-.694-.988-.018-.018-.044-.027-.07-.027-.027-.068-.058-.135-.088-.202-.008-.048-.015-.097-.02-.145-.012-.131-.203-.118-.202.013.003.346.039.703.13 1.041-.048-.003-.095.025-.084.084.001.007.002.014.004.021.087.458.215.906.338 1.355-.018.096-.026.193-.024.291.007.317.067.626.109.94.007.043.031.071.063.083-.001.129.017.262.074.369-.013.053-.019.106-.019.16 0 .203.314.182.314-.021 0-.026.001-.054.003-.081.083.003.165-.049.172-.154.282-.095.542-.26.795-.423.254-.061.482-.176.699-.313.298-.124.598-.243.899-.358.264-.1.532-.193.765-.356.092-.065.168-.151.25-.229.044-.043.091-.082.135-.123.007-.003.015-.005.022-.008.046-.016.067-.058.066-.1z" fill="#fff"/><path d="m10.953 44.048c.011.039.021.078.033.117.002.01.006.021.009.03-.022-.062-.043-.123-.063-.181.006.011.013.023.021.034z" fill="#fff"/><path d="m15.4 42.58c-.039-.169-.007-.367 0-.538.01-.208.009-.41-.041-.615-.063-.271-.143-.539-.208-.813.088-.474-.026-.94-.012-1.422.008-.225.019-.449-.011-.672-.011-.091-.051-.22-.124-.308-.012-.266-.035-.531-.086-.793-.018-.085-.116-.095-.15-.033-.039-.007-.08 0-.117.029-.106.083-.212.167-.317.251-.145.104-.294.198-.447.287-.06.027-.12.063-.18.104-.091.051-.184.101-.275.15-.293.158-.539.371-.75.623-.039.02-.079.041-.12.061-.392.191-.777.381-1.146.616-.257.164-.493.362-.754.519-.104.05-.204.101-.304.157-.005.001-.008.006-.013.009-.017-.009-.035-.02-.052-.028-.161-.082-.271.125-.167.244.167.192.272.417.439.596-.003.029.002.06.021.09.104.184.247.337.396.482.083.127.162.257.247.382.086.214.229.392.358.58.045.087.089.174.133.261.002.028.014.055.035.072.001 0 .002.001.002.001.053.103.107.206.167.306.041.067.122.079.187.054.305.131.716.013 1.024-.035.292-.044.595-.037.891-.059.272-.021.543-.058.812-.113.097.058.217.075.323.039.21-.073.285-.282.239-.484z" fill="#fff"/><path d="m12.037 42.57c-.025-.003-.045-.021-.061-.048.02.017.04.033.061.048z" fill="#fff"/><path d="m11.864 43.394c-.055-.027-.097-.063-.125-.104-.522-.8-1.05-1.618-1.559-2.409l-.257-.401c-.015-.022-.023-.044-.031-.065-.004-.01-.008-.02-.013-.034l-.046-.109 5.278-3.353.493 6.271-.371.029c-.163.013-.321.026-.48.037l-.407.029c-.741.054-1.509.11-2.264.158-.069.003-.15-.015-.218-.049zm.111-.264c.002.001.007.005.016.009.027.014.06.02.072.019.754-.048 1.521-.104 2.263-.157l.405-.03c.159-.011.318-.024.479-.037l.088-.007-.435-5.516-4.67 2.967.226.348c.508.79 1.033 1.606 1.556 2.404z" fill="#171650"/><path d="m10.428 46.295-.837-5.419.257-.096.212.326c.113.176.229.351.34.526.105.162.21.324.314.486.309.477.628.97.937 1.46.044.071.074.091.094.101.019.009.052.021.13.014.761-.06 1.534-.114 2.281-.165l.732-.051c.037-.003.076-.005.113-.006l.152-.007.097.254zm-.454-4.798.673 4.358 3.87-2.067c-.113.008-.227.016-.34.024-.748.051-1.521.104-2.28.166-.112.009-.202-.005-.278-.044-.079-.041-.146-.104-.208-.205-.306-.487-.625-.98-.934-1.456-.104-.163-.21-.325-.314-.487-.064-.097-.126-.193-.189-.289z" fill="#171650"/><path d="m92.688 46.943c-.019-.028-.036-.058-.056-.085-.539-.795-1.306-1.461-2.196-1.827-.738-.305-1.469-.186-2.089.302-.314.249-.545.585-.64.953-.029.036-.052.08-.066.129-.021.021-.033.048-.036.08-.014.151-.056.279-.039.429.001.002.001.002.001.005-.026.159-.062.319-.062.481 0 .105.018.204.047.3v.091c-.034.078-.049.168-.03.271.017.091.036.181.056.271-.024.067-.025.145.004.227.115.329.264.638.428.945.004.007.008.012.011.019.353.692.785 1.356 1.393 1.814.015.019.031.036.052.053.123.102.249.194.38.273.02.021.041.04.066.056.114.076.235.142.351.218.015.01.029.018.045.025.065.101.159.156.285.211.098.043.201.082.304.115.046.066.121.112.229.11.201-.005.362-.036.52-.139.041.011.086.018.129.02.14-.006.272-.021.409-.039.103-.014.203-.06.292-.106.061-.041.116-.082.173-.125.065-.06.063-.067.045-.061.098-.05.166-.117.211-.189.229-.157.429-.367.363-.621-.001-.006-.004-.011-.005-.016.039-.081.072-.166.1-.252.054-.159.09-.337.119-.514.104-.251.148-.524.13-.812-.004-.053-.014-.104-.027-.153.005-.007.008-.016.011-.023.17-.453.077-.954-.086-1.395-.167-.436-.376-.852-.822-1.041z" fill="#fff"/><path d="m92.576 52.285c-1.437.777-3.504-.252-4.609-2.294-1.106-2.042-.84-4.337.595-5.114 1.436-.778 3.503.251 4.609 2.293s.839 4.337-.595 5.115zm-3.881-7.164c-1.301.704-1.517 2.829-.482 4.736 1.034 1.907 2.931 2.886 4.229 2.182 1.301-.704 1.518-2.829.484-4.736s-2.932-2.886-4.231-2.182z" fill="#171650"/><path d="m88.553 45.039c.152.279.303.559.454.837.062.114.236.019.176-.095-.152-.279-.303-.558-.455-.837-.061-.113-.236-.019-.175.095z" fill="#171650"/><path d="m89.926 47.571c.099.183.197.367.297.549.063.113.237.018.176-.095-.099-.184-.196-.367-.298-.55-.061-.111-.236-.016-.175.096z" fill="#171650"/><path d="m89.062 46.179c-.063-.283.328-.424.431-.142.043.12.237.076.192-.045-.08-.224-.281-.357-.521-.294-.237.063-.348.299-.297.527.028.125.223.08.195-.046z" fill="#171650"/><path d="m90.072 47.136c.028.125-.01.235-.128.292-.115.057-.231-.027-.271-.136-.043-.12-.238-.076-.193.045.075.215.266.352.497.291.238-.063.342-.31.289-.537-.028-.127-.223-.081-.194.045z" fill="#171650"/><path d="m88.864 46.226c.227.414.448.827.673 1.239.063.113.236.018.176-.095-.225-.414-.448-.826-.672-1.239-.062-.112-.238-.018-.177.095z" fill="#171650"/><path d="m89.489 46.039c.193.359.39.717.583 1.075.063.113.236.019.176-.095-.193-.358-.39-.717-.582-1.075-.063-.113-.238-.018-.177.095z" fill="#171650"/><path d="m87.479 47.977h5.642v.199h-5.642z" fill="#171650" transform="matrix(-.8793 .4763 -.4763 -.8793 192.5974 47.3372)"/><path d="m76.781 89.82c.003-.033.004-.068.004-.104.006-.978-.257-1.977-.792-2.795-.445-.68-1.124-1-1.927-.946-.407.026-.792.178-1.083.432-.046.013-.09.036-.131.068-.027.007-.055.021-.076.047-.098.119-.207.203-.277.339-.001.001-.001.003-.003.005-.114.116-.234.231-.328.367-.061.089-.104.183-.134.277-.017.026-.034.053-.051.079-.074.043-.14.111-.184.209-.039.084-.073.173-.11.259-.058.044-.104.106-.126.192-.092.342-.145.687-.185 1.039-.002.006-.002.015-.002.021-.103.781-.12 1.588.125 2.32.002.022.006.048.014.074.042.155.096.305.16.445.005.029.013.059.024.087.054.13.116.254.169.384.007.018.016.032.023.047-.005.121.042.222.117.34.056.093.121.186.188.271 0 .083.036.164.13.225.172.111.323.179.514.184.028.033.061.063.097.091.119.074.241.142.366.203.092.048.204.065.306.079.072-.001.146-.003.218-.007.089-.013.092-.021.071-.023.111.013.205-.003.285-.039.284 0 .57-.062.663-.311.003-.007.003-.011.004-.017.079-.047.156-.1.23-.156.133-.103.267-.229.394-.36.231-.149.426-.354.574-.604.028-.049.05-.097.064-.146.009-.003.018-.008.022-.014.402-.283.61-.758.729-1.219.122-.458.185-.928-.082-1.343z" fill="#fff"/><path d="m73.619 94.235c-1.651-.172-2.795-2.224-2.55-4.571.246-2.351 1.788-4.121 3.438-3.949 1.65.173 2.794 2.225 2.548 4.574-.245 2.348-1.787 4.119-3.436 3.946zm.859-8.237c-1.494-.156-2.896 1.5-3.126 3.694-.229 2.193.801 4.104 2.296 4.261 1.494.156 2.896-1.502 3.125-3.693.229-2.196-.8-4.107-2.295-4.262z" fill="#171650"/><path d="m74.408 85.847c-.033.32-.066.642-.101.964-.014.13.188.151.201.021.033-.32.066-.643.1-.965.016-.13-.187-.151-.2-.02z" fill="#171650"/><path d="m74.103 88.759c-.021.211-.044.421-.064.632-.015.131.188.149.201.021.021-.211.045-.42.065-.632.015-.129-.187-.15-.202-.021z" fill="#171650"/><path d="m74.18 87.096c.108-.275.52-.168.441.128-.033.125.153.199.188.072.062-.233-.032-.463-.269-.547-.235-.084-.464.052-.553.271-.045.124.143.196.193.076z" fill="#171650"/><path d="m74.476 88.477c-.049.122-.144.192-.274.173-.132-.02-.18-.156-.148-.271.032-.125-.156-.199-.189-.073-.06.225.021.448.25.53.237.082.465-.064.554-.284.044-.123-.143-.195-.193-.075z" fill="#171650"/><path d="m73.987 87.022c-.051.476-.101.949-.148 1.424-.014.132.188.152.201.021.05-.476.1-.949.149-1.425.013-.128-.189-.15-.202-.02z" fill="#171650"/><path d="m74.618 87.224c-.043.412-.088.822-.131 1.236-.013.129.188.149.202.021.042-.413.086-.826.13-1.237.014-.13-.189-.151-.201-.02z" fill="#171650"/><path d="m71.255 89.3h5.734v.203h-5.734z" fill="#171650" transform="matrix(-.9946 -.1039 .1039 -.9946 138.5559 186.0193)"/><circle cx="85.118" cy="69.491" fill="#fff" r="5.14"/><path d="m79.816 69.292c.052-.306.093-.612.152-.918.379-1.933 2.036-3.604 3.971-4.011 2.861-.604 5.553 1.052 6.286 3.874.068.264.086.537.128.807.017.084.037.166.058.248v.424c-.035.224-.071.445-.104.666-.3 2.058-2.02 3.865-4.064 4.268-.304.061-.611.102-.916.152-.143 0-.283 0-.426 0-.313-.053-.629-.092-.939-.155-1.944-.396-3.611-2.069-3.991-4.013-.061-.303-.102-.61-.152-.918-.003-.138-.003-.282-.003-.424zm10.372.208c.019-2.768-2.282-5.053-5.034-5.073-2.806-.021-5.111 2.293-5.119 5.062-.01 2.799 2.299 5.088 5.06 5.1 2.773.007 5.115-2.286 5.093-5.089z" fill="#171650"/><path d="m87.383 72.187c-.545-1.621-1.072-3.191-1.61-4.793.164-.01.286-.014.409-.023.146-.013.276-.074.269-.235-.011-.161-.136-.21-.289-.205-.563.018-1.127.034-1.69.042-.195.002-.39-.029-.585-.041-.143-.01-.254.031-.271.191-.018.18.107.26.245.241.345-.042.455.148.544.431.142.447.324.881.474 1.324.039.115.045.264.007.379-.288.898-.59 1.793-.899 2.721-.543-1.615-1.075-3.199-1.62-4.819.15-.01.272-.015.396-.026.149-.017.289-.057.271-.248-.016-.177-.146-.199-.292-.192-.438.022-.871.043-1.332.067 1.272-2.164 4.649-2.751 6.659-.885-.323.069-.563.238-.678.551-.118.319-.031.616.122.898.119.221.255.432.374.652.265.486.348 1.01.205 1.543-.218.797-.463 1.586-.709 2.427z" fill="#171650"/><path d="m85.193 69.978c.478 1.305.93 2.54 1.389 3.798-.899.304-1.788.336-2.718.065.439-1.277.872-2.534 1.329-3.863z" fill="#171650"/><path d="m80.964 67.734c.705 1.932 1.399 3.835 2.1 5.753-1.789-.743-3.143-3.31-2.1-5.753z" fill="#171650"/><path d="m87.452 73.355c.451-1.313.884-2.591 1.337-3.861.225-.63.411-1.261.354-1.965.981 1.744.497 4.533-1.691 5.826z" fill="#171650"/><circle cx="18.916" cy="52.303" fill="#fff" r="3.87"/><path d="m15.61 50.059c.155-.175.307-.355.465-.525 1.015-1.081 2.738-1.486 4.138-.973 2.066.758 3.123 2.889 2.463 4.984-.063.195-.161.378-.24.566-.023.059-.043.12-.063.181-.058.091-.113.18-.169.271-.11.127-.223.255-.332.383-1.015 1.193-2.833 1.659-4.3 1.099-.218-.083-.431-.18-.646-.269-.09-.057-.18-.114-.271-.17-.179-.157-.364-.31-.538-.475-1.083-1.029-1.478-2.765-.944-4.156.084-.218.18-.432.271-.646.054-.09.11-.18.166-.27zm6.538 4.276c1.118-1.76.563-4.137-1.185-5.25-1.782-1.136-4.179-.581-5.291 1.183-1.123 1.781-.566 4.166 1.191 5.276 1.768 1.116 4.178.589 5.285-1.209z" fill="#171650"/><path d="m19.283 54.929c.3-1.251.592-2.464.889-3.702.107.06.188.107.27.149.1.049.206.063.266-.044.058-.105-.002-.188-.104-.247-.366-.213-.732-.428-1.095-.649-.126-.076-.239-.174-.358-.259-.085-.063-.174-.081-.249.015-.083.106-.035.208.06.251.235.111.23.276.175.492-.089.342-.144.691-.227 1.034-.021.089-.078.187-.147.244-.542.458-1.093.908-1.661 1.376.298-1.248.592-2.471.892-3.722.101.053.18.1.262.14.102.05.208.08.273-.05.062-.119-.015-.187-.109-.24-.287-.161-.574-.321-.876-.489 1.676-.873 4.066.101 4.604 2.097-.234-.086-.455-.072-.651.08-.204.158-.268.381-.283.623-.012.188-.009.377-.021.565-.025.417-.183.783-.486 1.066-.459.425-.93.831-1.424 1.27z" fill="#171650"/><path d="m18.769 52.645c-.217 1.022-.423 1.992-.632 2.978-.694-.166-1.275-.5-1.759-1.043.79-.641 1.568-1.269 2.391-1.935z" fill="#171650"/><path d="m16.967 49.522c-.322 1.515-.64 3.006-.959 4.51-.844-1.189-.683-3.368.959-4.51z" fill="#171650"/><path d="m18.862 55.702c.813-.656 1.599-1.301 2.396-1.93.396-.313.767-.641 1.013-1.111-.074 1.504-1.497 3.09-3.409 3.041z" fill="#171650"/><path d="m54.189 40.278c-.016-.066-.042-.129-.084-.186-.033-.046-.07-.088-.109-.125-.004-.013-.01-.025-.017-.037-.059-.187-.221-.347-.425-.336-.006-.001-.012-.001-.019-.001 0-.107-.025-.197-.072-.295-.008-.017-.018-.033-.026-.051 0-.004 0-.008 0-.013-.003-.125-.084-.235-.208-.269-.048-.012-.099-.011-.146.004-.013-.01-.024-.021-.036-.031-.028-.061-.057-.121-.089-.18-.063-.115-.165-.193-.279-.234-.076-.134-.169-.274-.201-.374-.051-.154-.156-.279-.295-.345-.139-.175-.381-.241-.593-.178-.041-.059-.08-.119-.118-.179-.126-.239-.247-.479-.375-.72-.093-.175-.253-.252-.418-.26.007-.204-.024-.411-.061-.608-.065-.346-.239-.703-.556-.88-.29-.165-.583-.048-.751.189-.021-.002-.045-.004-.068-.004-.136 0-.26.045-.359.123-.008.001-.016.002-.025.005-.363.101-.507.446-.447.792.064.386.097.837.192 1.264.026.115.093.215.182.291-.088.069-.149.169-.184.284l-.009-.002c-.005.042-.011.083-.016.125 0 .002-.001.005-.001.008 0 .009-.001.018-.002.025-.005.033-.008.067-.012.1-.008.082-.018.163-.026.245-.077.025-.15.079-.208.161-.243.349-.245.803-.136 1.198.002.008.005.015.007.022-.002.22.052.458.138.672-.001.035.002.071.014.107.017.052.035.102.061.149-.134.023-.247.116-.319.259-.036.07-.051.138-.048.2-.222.21-.428.431-.531.729-.063.184.016.384.093.55.05.108.075.119.075.228 0 .044-.004.087-.006.129-.096.18.04.452.262.436.214-.016.426-.044.64-.066.076-.009.144-.041.188-.091.262.023.528.092.765.109.256.019.558-.069.721-.274.007-.009.015-.018.021-.027.128-.169.167-.33.135-.507.107-.039.194-.126.24-.238.518-.142 1.051-.144 1.545-.383.009.048.022.095.041.139-.055.121-.023.283.144.313.018.003.034.006.052.008.045.086.123.152.218.176.301.075.604-.005.797-.255.106-.137.169-.292.23-.448.038-.042.07-.086.095-.131.074-.042.123-.091.176-.167.021-.029.032-.062.037-.094.022-.01.043-.021.064-.033.085-.049.125-.122.131-.196.019-.018.038-.036.058-.053.02-.019.042-.038.065-.055.021-.015.055-.025.017-.022.143-.009.234-.105.245-.245.015-.246-.125-.437-.374-.447zm-2.243-.202c.007-.008.012-.017.017-.026.005.013.01.026.015.039-.011-.006-.021-.008-.032-.013z" fill="#fff"/><g fill="#171650"><path d="m52.229 42.181c-.009.002-.015.003-.021.005-.166.053-.337.078-.509.1-.097.012-.19.027-.285.044-.12.022-.233.066-.345.116-.132.058-.261.124-.393.184-.063.029-.126.053-.193.082-.001.002-.004.009-.005.016-.039.193-.148.333-.314.43-.125.075-.264.114-.408.133-.198.027-.396.015-.59-.026-.164-.035-.327-.039-.491-.019-.139.018-.276.04-.416.06-.099.014-.198.027-.298.022-.023-.001-.046-.003-.071-.007-.158-.025-.258-.116-.304-.268-.03-.101-.032-.204-.029-.308.001-.04.005-.08.003-.12-.004-.068-.032-.13-.058-.192-.037-.089-.077-.176-.111-.266-.077-.195-.032-.384.12-.526.032-.03.066-.054.101-.08.02-.015.04-.028.062-.042.149-.104.18-.141.246-.313.035-.092.066-.186.119-.271.01-.018.002-.032-.003-.046-.02-.05-.04-.1-.056-.151-.07-.235-.091-.475-.081-.719.012-.306.068-.604.148-.898.089-.333.208-.655.347-.969.092-.207.146-.424.165-.65.014-.153.001-.306-.018-.458-.024-.187-.085-.362-.147-.537-.079-.228-.156-.457-.202-.693-.032-.171-.052-.343-.038-.518.028-.38.206-.672.527-.874.188-.119.395-.195.609-.245.119-.028.24-.041.362-.038.306.009.559.13.767.35.124.131.219.281.3.44.106.209.183.43.25.653.043.145.084.289.119.435.067.294.22.537.438.741.11.103.228.195.35.283.149.111.303.216.452.328.262.199.503.42.713.675.148.182.276.375.374.589.12.266.182.543.172.836v.03c0 .002 0 .004.001.009.009.002.019.004.028.006.118.02.215.077.289.17.056.069.096.146.139.222.036.063.074.125.111.186.028.046.069.082.114.111.089.057.175.12.25.196.05.051.09.107.115.174.031.084.024.167-.015.247-.032.07-.079.13-.136.183-.074.073-.151.143-.229.214-.1.089-.198.178-.286.279-.077.09-.14.188-.19.295-.095.204-.223.384-.398.526-.1.08-.208.143-.33.179-.377.11-.667-.083-.806-.296-.004-.005-.009-.012-.015-.019zm-3.419-1.709c-.014-.011-.022-.016-.031-.023-.061-.052-.114-.111-.16-.177-.12-.172-.176-.366-.193-.571-.018-.199 0-.394.04-.588.021-.107.044-.215.063-.323.008-.033.01-.067.013-.1 0-.007-.004-.015-.006-.022-.002 0-.007 0-.009-.001-.005.012-.01.024-.014.036-.021.086-.046.171-.069.257-.053.208-.092.419-.104.634-.012.206 0 .409.07.606.067.197.188.354.366.467.1.064.207.105.318.137.213.063.421.143.614.256.104.062.204.134.287.226.044.05.081.104.104.167.033.095.01.187-.065.25-.026.021-.059.038-.09.055-.021.011-.042.018-.067.028.014.012.024.021.035.028.089.068.178.137.266.208.024.02.048.034.078.042.39.118.77.085 1.136-.087.281-.132.516-.327.713-.564.015-.016.021-.031.021-.05-.001-.063.001-.125.001-.188 0-.129-.008-.256-.039-.383-.036-.153-.068-.309-.086-.467-.013-.113-.02-.226-.002-.339.022-.148.084-.276.207-.369.016-.012.017-.024.016-.042-.002-.046-.006-.093 0-.138.01-.086.058-.149.136-.189.045-.024.095-.039.146-.044.214-.025.42.012.62.083.047.016.089.041.126.074.042.04.068.087.072.147 0 .011.003.023.005.036.023-.007.046-.013.066-.019.004-.094-.023-.172-.092-.237-.048-.046-.106-.078-.167-.104-.125-.051-.254-.078-.387-.1-.013-.002-.024-.004-.037-.006-.001-.008-.002-.015-.002-.02-.009-.199-.065-.384-.161-.557-.2-.366-.491-.641-.854-.844-.009-.004-.018-.011-.026-.012-.008-.002-.022 0-.025.004-.004.006-.002.021.003.026.019.017.037.033.059.046.039.024.08.045.117.071.181.121.331.273.456.45.133.186.225.389.249.618.008.068.01.137 0 .204-.063.009-.127.018-.191.027-.015-.026-.028-.054-.042-.082-.164-.313-.373-.592-.615-.85-.423-.452-.793-.945-1.114-1.475-.003-.006-.01-.012-.017-.021-.061.145-.158.253-.282.337-.052.036-.098.077-.14.124-.046.05-.092.102-.143.149-.079.078-.171.136-.277.169-.146.046-.288.043-.428-.021-.033-.015-.067-.031-.101-.048-.083-.046-.174-.068-.263-.098-.003-.001-.006 0-.013.001.001.009.002.018.003.025.012.08.025.16.033.24.02.208.011.417-.006.625-.023.296-.07.589-.119.882-.026.161-.057.321-.067.485-.018.231-.014.462.022.69.011.082.027.163.043.249zm1.085 2.671c.104-.027.198-.07.283-.135.104-.079.172-.18.19-.31.021-.155-.009-.298-.111-.422-.075-.091-.159-.171-.253-.242-.125-.095-.251-.186-.376-.278-.09-.066-.178-.134-.255-.214-.162-.166-.324-.332-.485-.5-.071-.073-.154-.131-.247-.172-.044-.02-.091-.036-.139-.043-.16-.022-.289.029-.366.177-.021.042-.042.084-.059.129-.027.064-.053.129-.077.195-.041.105-.111.186-.202.25-.02.015-.039.027-.058.041-.051.037-.104.071-.149.113-.093.085-.133.191-.106.318.013.051.028.101.049.15.032.083.072.167.107.25.032.08.049.163.041.25-.003.036-.004.072-.004.108 0 .07.005.142.024.21.03.112.104.176.22.19.024.003.049.004.075.004.104.001.208-.018.312-.033.12-.018.239-.038.359-.051.177-.021.353-.017.527.024.043.009.085.016.13.021.191.023.382.02.57-.03zm2.356-3.411c-.007.007-.014.011-.018.015-.009.009-.018.018-.024.027-.057.067-.085.147-.098.232-.012.084-.01.167-.003.25.018.176.056.35.094.523.021.099.037.198.037.3.002.146-.001.292-.001.438s.007.293.036.438c.029.138.1.249.211.333.149.114.316.147.498.102.129-.032.24-.098.341-.183.152-.13.266-.291.349-.472.054-.119.125-.227.211-.326.103-.12.221-.223.338-.327.067-.059.133-.121.196-.185.034-.034.063-.075.087-.116.042-.069.04-.142-.004-.208-.028-.043-.059-.084-.099-.118-.063-.055-.129-.106-.196-.153-.068-.046-.128-.1-.171-.171-.037-.06-.071-.123-.106-.185-.04-.072-.078-.145-.133-.207-.08-.089-.179-.126-.295-.112-.062.006-.119.028-.18.042-.024.005-.039.02-.051.042-.091.157-.213.286-.374.375-.154.085-.31.067-.443-.05-.059-.051-.104-.11-.141-.178-.02-.039-.039-.08-.061-.126zm-2.605-2.341c.101-.025.184-.068.251-.13.059-.054.111-.111.165-.168.049-.055.104-.104.164-.147.087-.059.16-.133.215-.225.026-.044.046-.091.057-.143.021-.12-.028-.215-.145-.259-.037-.014-.076-.023-.116-.028-.075-.01-.152-.016-.229-.021-.076-.006-.15-.018-.225-.039-.067-.018-.137-.032-.204-.04-.129-.015-.254.001-.37.066-.101.056-.176.136-.233.233-.049.083-.105.159-.166.234-.024.031-.049.063-.073.095-.011.014-.021.028-.029.043-.03.057-.033.114-.003.172.021.043.054.077.092.105.064.048.139.079.217.1.065.018.128.042.188.073.029.016.062.031.093.046.116.057.236.067.351.033zm.639-1.164c.008-.025.02-.051.024-.078.06-.263-.007-.491-.197-.682-.057-.057-.125-.095-.202-.115-.146-.038-.271 0-.373.112-.073.082-.109.181-.121.289-.016.126.005.247.055.363.08.004.159.008.236.012 0-.001.001-.002.001-.003-.003-.009-.007-.019-.009-.028-.028-.081-.04-.162-.022-.246.008-.04.022-.077.047-.109.046-.059.113-.074.18-.042.038.019.067.045.092.077.054.068.081.147.092.233.006.063.003.122-.035.176-.003.004-.004.011-.007.018.081.006.157.015.239.023zm-1.132-.02c-.029-.146-.091-.276-.199-.38-.043-.042-.093-.073-.149-.091-.099-.032-.197 0-.257.085-.041.058-.063.122-.07.191-.012.118.007.23.049.338.038.096.095.182.171.251.024.021.052.039.079.059.032-.042.061-.078.091-.118-.047-.021-.079-.051-.106-.088-.045-.062-.071-.131-.082-.206-.008-.051-.006-.103.019-.15.025-.049.072-.066.123-.046.032.013.059.034.081.06.05.055.077.118.095.188.003.01.006.02.009.03.048-.042.096-.081.146-.123z"/><path d="m49.529 37.149c-.11.032-.226.03-.342.003-.104-.024-.203-.068-.298-.119-.02-.01-.039-.019-.057-.03-.023-.013-.041-.033-.047-.06-.002-.007 0-.02.004-.023.007-.004.02-.006.026-.003.013.005.025.013.033.024.021.024.047.041.077.053.069.03.137.066.208.091.211.074.41.049.594-.08.13-.091.249-.196.348-.321.024-.032.049-.065.075-.097.025-.031.047-.064.062-.104.003-.011.011-.022.019-.03.011-.011.026-.015.037-.005.007.006.01.022.006.031-.01.025-.019.051-.035.073-.048.065-.094.134-.146.194-.101.111-.211.211-.336.296-.069.048-.143.084-.228.107z"/><path d="m49.468 36.348c.008-.012.012-.02.018-.025.029-.023.108-.025.14-.005.017.012.02.027.005.04s-.032.022-.051.015c-.027-.01-.055-.015-.083-.014-.008 0-.016-.006-.029-.011z"/><path d="m49.22 36.391c.007 0 .022-.001.036.001.016.003.018.016.007.028-.003.004-.007.007-.011.01-.024.01-.041.027-.057.047-.011.016-.027.02-.046.019-.027-.002-.038-.02-.021-.043.021-.03.051-.049.092-.062z"/><path d="m69.699 59.256c.089-.027.172-.07.256-.116-.052.169-.189.331-.467.54.082.02.142-.037.22-.049-.077.206-.146.404-.234.598-.089.194-.181.386-.301.562-.269.389-.625.656-1.076.794-.026.007-.054.011-.079.015-.102.015-.2.045-.305.036.3-.837.633-1.659.999-2.468.295-.655.621-1.294.983-1.914.017-.025.027-.053.041-.08.01-.011.019-.023.025-.035.034-.054.067-.108.101-.162.015-.02.025-.04.038-.061.016-.02.027-.04.042-.06.015-.009.03-.025.016-.038-.019-.014-.027.004-.029.023-.024.014-.036.034-.04.061-.022.013-.037.033-.041.06-.047.044-.079.099-.104.157-.01.011-.019.022-.025.032-.345.513-.622 1.062-.894 1.614-.446.904-.821 1.838-1.182 2.78-.05-.04-.062-.101-.091-.153-.086-.151-.146-.317-.245-.461.094-.521.267-1.019.478-1.504.381-.868.867-1.675 1.416-2.446.288-.403.592-.796.957-1.136.221-.208.396-.208.617.045.164.189.184.424.17.664-.021.367-.17.692-.336 1.011-.063.124-.137.242-.208.362-.106.183-.237.347-.438.454.07.011.07.012.154-.021.05-.019.098-.041.166-.07-.11.384-.244.733-.598.946-.011.006-.021.01-.031.015.012.023.028.008.045.005zm.261-.852c.008-.02-.006-.022-.015-.024-.002-.002-.013.005-.014.01-.006.009-.008.02.007.02.011.001.019-.004.022-.006z"/><path d="m67.314 60.916c.103.143.162.309.246.461.029.053.043.112.091.152-.079.227-.157.452-.235.679-.14.404-.279.808-.414 1.213-.094.28-.177.564-.268.846-.023.078-.048.162-.166.187.205-.702.435-1.386.673-2.074-.183-.037-.344.029-.513.066.1-.104.224-.162.37-.215-.104-.062-.203-.11-.29-.206.104.024.188.049.275.059.121.015.134-.004.106-.123-.044-.187-.127-.358-.226-.522-.03-.052-.063-.104-.092-.155.006-.003.009-.009.011-.017.126.064.228.16.33.268.038-.211.042-.42.102-.619z"/><path d="m67.692 61.675c.104.009.204-.021.307-.035.273.063.521-.007.75-.162.044-.03.084-.063.127-.096.004.007.008.011.012.018-.133.3-.367.493-.657.631.093.007.18-.007.261-.046.021-.011.047-.044.067-.013.019.025-.012.049-.025.07-.141.186-.33.288-.551.343-.154.04-.313.046-.491.039.09.107.147.209.156.352-.083-.101-.134-.209-.234-.271-.021-.012-.013-.028-.008-.044.092-.264.172-.532.286-.786z"/><path d="m69.081 61.299c-.003-.006-.006-.013-.011-.019.008.001.016.002.021.002 0 .008-.005.013-.01.017z"/><path d="m33.08 59.977c.093-.01.181-.04.272-.07-.08.159-.244.293-.553.453.077.033.145-.014.225-.012-.111.19-.213.374-.333.55-.121.176-.244.348-.393.5-.329.338-.728.541-1.196.6-.025.003-.054.001-.08.001-.102-.002-.205.011-.305-.017.437-.774.906-1.527 1.404-2.262.401-.594.833-1.169 1.296-1.717.02-.023.037-.048.055-.072.01-.01.021-.02.03-.03.043-.048.085-.095.127-.143.017-.017.033-.035.049-.053.017-.017.034-.035.051-.052.017-.006.035-.02.021-.035-.016-.016-.027 0-.033.018-.025.01-.042.028-.049.053-.026.009-.042.027-.051.052-.054.036-.096.084-.131.137-.01.009-.02.018-.029.028-.428.445-.793.939-1.155 1.436-.594.817-1.123 1.672-1.639 2.54-.041-.048-.043-.11-.063-.166-.058-.164-.089-.338-.165-.497.185-.498.438-.958.729-1.4.521-.791 1.138-1.503 1.812-2.167.354-.349.72-.683 1.136-.958.255-.167.429-.137.603.151.131.215.107.449.054.682-.084.358-.284.654-.502.939-.084.11-.177.215-.267.321-.14.163-.295.302-.512.372.066.023.066.024.156.006.052-.01.104-.024.175-.042-.173.36-.364.682-.749.833-.012.002-.022.005-.034.007.009.027.028.014.044.014z"/><path d="m33.483 59.183c.013-.019-.001-.023-.008-.027-.003-.002-.014.002-.018.008-.005.006-.01.018.004.021.008.002.018-.002.022-.002z"/><path d="m30.447 61.207c.075.159.106.332.164.497.021.056.022.117.063.165-.117.208-.233.418-.349.628-.206.373-.414.747-.615 1.123-.142.261-.271.526-.408.788-.037.072-.076.151-.195.155.322-.656.664-1.29 1.016-1.928-.172-.068-.344-.03-.516-.022.116-.084.248-.122.401-.148-.092-.078-.181-.143-.25-.251.099.041.178.08.262.105.117.034.132.019.126-.103-.01-.193-.063-.374-.132-.553-.021-.056-.043-.112-.063-.168.006-.004.01-.008.013-.014.113.083.196.194.278.32.073-.205.112-.409.205-.594z"/><path d="m30.691 62.019c.101.028.203.014.306.018.261.109.516.081.767-.031.049-.022.094-.05.142-.074.004.006.007.013.011.019-.184.272-.446.423-.756.511.09.023.177.023.263-.002.022-.006.053-.035.071-.001.013.028-.021.046-.039.064-.168.159-.373.229-.602.246-.159.011-.316-.01-.491-.047.071.122.111.232.095.374-.064-.113-.096-.229-.187-.308-.016-.014-.006-.028.002-.044.136-.245.261-.494.418-.725z"/><path d="m32.124 61.885c-.002-.007-.004-.013-.007-.021.007.001.014.003.021.007-.004.005-.009.01-.014.014z"/><path d="m31.996 48.266c-.124-.082-.246-.158-.363-.242-.022-.014-.035-.056-.037-.085-.013-.367-.024-.734-.035-1.101-.001-.029-.001-.057-.003-.1-.065.042-.121.076-.175.111-.146.093-.292.186-.437.282-.044.029-.077.029-.119 0-.074-.05-.154-.09-.228-.141-.024-.018-.047-.056-.049-.086-.009-.104-.004-.21-.013-.315-.004-.058.017-.089.063-.119.291-.176.581-.358.871-.535.044-.027.061-.055.058-.106-.011-.231-.016-.462-.022-.693-.001-.02-.004-.04-.007-.074-.26.17-.512.333-.777.507-.009-.295-.018-.578-.026-.875-.074.04-.135.072-.193.104-.176.097-.354.197-.53.291-.049.026-.064.056-.063.11.014.354.021.708.034 1.063.002.052-.011.087-.056.118-.073.049-.145.104-.213.162-.039.03-.063.028-.107.005-.187-.097-.259-.239-.24-.45.015-.165-.007-.333-.013-.514-.039.02-.064.032-.092.048-.31.187-.621.372-.929.561-.052.034-.096.038-.153.016-.12-.047-.24-.092-.36-.134-.042-.014-.057-.036-.058-.08-.001-.125-.004-.251-.013-.377-.002-.053.016-.08.059-.106.323-.195.646-.393.967-.589.023-.015.048-.03.085-.054-.152-.067-.29-.128-.429-.188-.091-.04-.184-.077-.271-.122-.024-.012-.048-.047-.05-.074-.01-.117-.013-.235-.011-.353 0-.029.022-.069.046-.085.104-.066.212-.125.316-.19.042-.026.074-.023.116 0 .315.176.634.35.948.526.048.026.081.027.126-.003.206-.135.414-.267.637-.408-.256-.139-.502-.272-.763-.412.239-.16.467-.311.704-.47-.084-.046-.157-.085-.229-.125-.145-.076-.289-.148-.431-.228-.055-.031-.093-.024-.142.007-.294.188-.591.371-.886.558-.042.027-.076.031-.123.009-.097-.046-.195-.089-.295-.129-.047-.018-.063-.046-.063-.094 0-.105-.003-.209-.009-.315-.004-.048.012-.075.054-.1.197-.118.395-.239.591-.359.017-.011.032-.022.06-.04-.169-.087-.33-.168-.49-.25-.192-.096-.383-.193-.577-.289-.042-.021-.063-.043-.063-.095 0-.125-.005-.251-.012-.378-.002-.044.008-.071.052-.092.124-.057.243-.121.368-.177.026-.012.071-.007.1.006.337.169.673.342 1.008.514.022.012.046.021.085.04-.001-.04-.002-.067-.002-.093-.007-.212-.016-.425-.018-.637 0-.036.021-.081.047-.106.059-.06.128-.108.189-.166.031-.031.056-.034.095-.011.094.057.19.111.289.16.046.024.06.057.06.106.003.361.01.72.012 1.079.001.056.017.088.068.116.224.117.447.239.687.367-.01-.294-.019-.574-.027-.876.279.138.539.267.811.401.001-.03.005-.052.004-.073-.007-.231-.016-.462-.021-.692 0-.052-.018-.079-.064-.103-.302-.159-.601-.322-.902-.481-.049-.026-.072-.058-.071-.115.001-.105-.009-.21-.006-.315.001-.03.019-.071.043-.088.089-.066.179-.167.274-.175.091-.007.189.085.282.137.135.072.266.148.414.231-.001-.04-.001-.065-.003-.092-.01-.367-.021-.734-.035-1.102-.002-.053.015-.087.058-.117.107-.077.214-.158.324-.241.122.08.244.156.36.24.024.017.038.061.04.092.014.364.024.729.036 1.093 0 .029.001.058.002.098.028-.014.048-.022.067-.033.215-.121.43-.241.644-.364.042-.024.074-.024.116-.002.105.057.214.112.322.164.042.02.058.045.057.091 0 .095.002.189.008.283.004.05-.016.074-.058.098-.354.188-.705.38-1.061.568-.055.03-.071.061-.068.122.012.246.017.492.024.755.264-.158.516-.31.783-.47.009.301.02.589.028.891.039-.019.062-.029.083-.042.211-.116.421-.234.635-.348.054-.029.07-.063.067-.124-.015-.382-.024-.766-.038-1.148-.001-.053.009-.087.059-.114.078-.043.15-.127.228-.132.077-.003.156.074.238.107.066.027.084.07.085.139.003.241.014.481.021.738.035-.018.059-.028.083-.042.334-.191.669-.382 1.002-.576.049-.03.086-.031.135-.001.104.062.21.119.318.174.043.022.057.053.057.1 0 .11.003.22.011.33.003.054-.017.081-.06.107-.312.188-.622.379-.932.57-.024.015-.048.03-.08.051.22.114.428.224.639.329.058.027.079.063.078.125-.002.103.008.205.006.307 0 .027-.021.064-.044.079-.083.053-.173.097-.258.149-.043.027-.078.025-.122 0-.32-.175-.642-.347-.959-.522-.051-.028-.086-.03-.134.005-.184.132-.37.259-.555.388-.024.017-.051.036-.088.063.239.143.469.281.713.426-.243.152-.477.298-.72.448.03.018.049.03.07.04.213.101.427.201.638.304.044.021.075.018.116-.006.302-.179.606-.354.907-.535.068-.042.118-.041.183.003.076.052.159.091.235.144.024.017.048.053.051.083.01.102.006.205.013.307.003.049-.014.076-.056.1-.179.104-.355.212-.533.318-.017.011-.033.022-.06.039.036.022.064.04.094.056.303.172.605.345.91.517.048.026.071.056.07.115-.001.113.002.226.011.338.003.052-.011.081-.062.102-.125.054-.249.111-.371.171-.05.025-.09.022-.14-.003-.321-.168-.644-.333-.964-.498-.021-.01-.042-.018-.078-.033.002.051.003.092.004.132.007.196.011.394.02.591.001.049-.009.083-.051.112-.063.046-.126.095-.186.146-.038.033-.065.029-.104.002-.084-.06-.204-.099-.251-.18-.046-.079-.021-.199-.022-.301-.01-.278-.017-.556-.028-.834-.001-.03-.021-.073-.045-.086-.243-.125-.488-.244-.732-.365-.006-.004-.015-.002-.03-.005.008.263.016.523.023.806-.277-.144-.538-.279-.807-.419-.002.026-.006.046-.006.064.007.236.016.472.02.708.001.05.022.074.063.095.302.161.601.323.902.482.049.026.073.055.072.114-.001.115.004.231.011.346.002.048-.011.077-.055.1-.07.035-.139.075-.205.117-.045.029-.082.029-.129.002-.181-.106-.364-.207-.548-.309-.021-.012-.045-.024-.082-.043.001.038.001.065.003.092.011.367.021.734.034 1.102.003.05-.011.082-.053.111-.1.079-.206.16-.321.246z"/><path d="m31.904 44.068c.099-.003.194-.007.292-.008.044 0 .071-.014.092-.056.075-.161.155-.32.237-.478.023-.046.02-.082-.007-.124-.097-.165-.188-.333-.288-.497-.015-.025-.055-.049-.082-.049-.196 0-.394.008-.59.018-.03.002-.07.025-.083.05-.098.177-.189.356-.281.536-.012.023-.009.067.006.09.104.16.215.316.319.477.027.04.058.053.104.05.093-.005.187-.006.281-.009z"/><path d="m49.798 17.369c-.048-.031-.085-.03-.135-.003-.339.183-.681.364-1.02.544-.023.013-.049.022-.084.039 0-.256-.002-.498.002-.738.001-.069-.016-.112-.081-.141-.081-.036-.158-.116-.234-.114-.078.002-.152.083-.231.124-.05.026-.063.06-.063.114.003.382 0 .765.003 1.148.001.061-.017.094-.072.122-.216.107-.43.218-.646.328-.021.011-.046.021-.084.038v-.891c-.272.152-.528.295-.798.445 0-.264.003-.509-.001-.756-.001-.061.017-.092.072-.12.36-.176.718-.358 1.077-.536.044-.021.063-.045.062-.096-.003-.094-.003-.188 0-.283.001-.045-.013-.072-.054-.093-.073-.038-.144-.078-.216-.117-.565.423-1.149.815-1.752 1.176.011.017.032.027.032.055-.004.231-.001.462-.002.693 0 .021-.004.042-.007.073-.255-.136-.502-.268-.763-.407-.012.006-.022.012-.035.018v.839c-.234-.135-.453-.265-.674-.388-.035-.02-.049-.045-.057-.075-.614.303-1.241.581-1.882.831.002.09.003.181 0 .271-.003.049.013.076.06.096.098.042.196.088.291.138.046.024.079.02.122-.005.3-.178.603-.352.902-.53.051-.03.089-.035.142-.003.139.084.283.161.423.242.072.041.145.083.228.131-.243.152-.476.296-.72.448.255.148.497.29.748.436-.226.135-.438.26-.646.388-.047.029-.08.027-.127 0-.311-.187-.622-.37-.934-.556-.04-.024-.073-.028-.115-.002-.106.062-.217.116-.321.18-.024.014-.048.053-.049.083-.006.118-.006.236 0 .354.001.027.023.063.047.075.087.047.179.086.269.129.135.065.271.13.422.202-.039.023-.063.037-.086.051-.328.187-.656.374-.984.559-.044.025-.064.052-.063.104.004.126.003.252 0 .377-.001.044.013.065.055.082.12.045.239.094.356.145.056.025.1.021.154-.009.313-.18.63-.357.944-.533.026-.015.055-.027.095-.045 0 .18.015.35-.004.515-.025.21.042.354.226.457.045.025.07.028.108-.001.07-.055.143-.108.217-.155.046-.029.061-.063.06-.116-.002-.354.001-.708-.002-1.063 0-.055.018-.083.066-.107.181-.09.359-.183.539-.275.06-.031.12-.06.195-.099v.876c.271-.166.527-.321.792-.482.002.034.004.054.004.074 0 .231-.001.462.003.693 0 .051-.017.079-.062.104-.297.168-.59.341-.887.509-.049.028-.071.059-.068.117.005.104-.002.21.004.314.001.031.021.069.046.088.071.053.15.095.224.147.042.03.076.031.12.003.146-.092.295-.18.443-.269.056-.033.111-.065.178-.105v.099c0 .367-.001.734.002 1.102 0 .029.012.07.032.086.115.087.235.167.357.252.116-.082.225-.16.337-.233.042-.028.056-.061.056-.11-.002-.367-.001-.734-.001-1.103v-.092c.036.021.06.033.082.045.181.108.361.215.538.326.047.028.083.028.129.001.067-.04.138-.077.208-.11.045-.021.06-.051.059-.099-.003-.115-.005-.231 0-.346.003-.059-.021-.089-.069-.117-.296-.167-.59-.339-.887-.508-.04-.023-.061-.047-.061-.098.003-.235.001-.472.002-.708 0-.018.004-.037.008-.063.266.148.521.291.794.443v-.807c.017.003.023.003.03.006.241.128.481.256.721.388.023.013.042.057.043.086.003.278.001.557.002.835 0 .102-.028.222.014.3.045.083.163.125.246.189.037.028.064.032.103 0 .062-.049.125-.096.191-.14.042-.027.054-.062.053-.111-.003-.196-.001-.394-.001-.59v-.132c.036.016.057.026.077.037.316.174.634.35.949.526.049.027.088.032.14.008.124-.056.249-.11.375-.16.05-.02.065-.047.064-.1-.004-.112-.005-.226 0-.338.002-.058-.021-.088-.067-.117-.299-.179-.596-.362-.893-.543-.029-.018-.057-.036-.095-.06.028-.016.044-.026.063-.037.181-.101.361-.203.543-.302.042-.022.061-.049.058-.098-.003-.102.003-.205-.002-.307-.002-.03-.023-.068-.048-.086-.075-.054-.157-.096-.23-.15-.063-.046-.112-.048-.184-.008-.306.172-.616.337-.923.507-.041.022-.074.025-.116.002-.208-.11-.419-.216-.629-.325-.02-.01-.039-.022-.068-.04.248-.145.486-.283.733-.427-.239-.153-.465-.299-.699-.448.038-.025.063-.043.089-.06.189-.123.38-.244.566-.37.049-.033.083-.03.133-.001.313.186.629.367.943.553.043.026.079.028.122.003.086-.049.177-.091.263-.141.023-.015.045-.051.047-.078.005-.103-.001-.205.003-.307.004-.063-.017-.098-.072-.128-.208-.111-.412-.227-.629-.348.033-.02.057-.036.08-.049.316-.181.634-.362.95-.541.044-.024.065-.051.063-.104-.004-.11-.003-.22 0-.33.001-.048-.012-.078-.055-.102-.104-.058-.209-.118-.311-.184z"/><path d="m46.002 20.569c.096 0 .193-.002.291 0 .044.001.069-.011.092-.052.082-.159.167-.316.253-.471.024-.045.021-.081-.002-.125-.092-.167-.179-.338-.272-.504-.015-.025-.053-.051-.081-.052-.196-.004-.394-.004-.591 0-.028.001-.069.023-.085.048-.103.174-.202.351-.297.528-.013.022-.011.067.002.089.1.165.204.323.306.486.024.042.055.055.103.053.092-.002.187 0 .281 0z"/><path d="m69.648 47.468c-.122-.084-.239-.165-.354-.252-.021-.016-.034-.058-.034-.086-.002-.368-.002-.735-.002-1.102 0-.028 0-.056 0-.099-.066.04-.123.072-.177.105-.148.089-.3.177-.445.269-.045.028-.078.027-.12-.004-.073-.052-.151-.094-.222-.147-.024-.018-.046-.057-.048-.088-.004-.105.002-.209-.003-.315-.004-.057.02-.088.066-.116.297-.168.592-.34.888-.509.046-.025.063-.053.063-.104-.003-.231-.002-.462-.002-.693 0-.02-.003-.04-.004-.074-.267.161-.521.317-.792.482 0-.295 0-.578 0-.876-.077.039-.139.068-.196.099-.181.091-.359.186-.54.274-.049.025-.065.053-.065.108.003.354 0 .708.003 1.063 0 .053-.015.086-.062.116-.075.047-.146.1-.218.154-.039.03-.063.028-.107.002-.184-.102-.252-.248-.227-.457.021-.165.004-.334.004-.515-.038.019-.066.03-.093.045-.315.177-.633.353-.946.533-.053.031-.098.035-.153.01-.116-.052-.235-.099-.355-.145-.042-.016-.055-.038-.055-.082.003-.125.004-.251 0-.378-.004-.053.019-.079.062-.104.33-.185.657-.373.985-.559.023-.014.048-.028.086-.051-.151-.072-.286-.137-.422-.201-.091-.043-.183-.082-.27-.13-.024-.013-.047-.049-.049-.075-.004-.118-.005-.237 0-.354.003-.03.023-.068.05-.083.104-.063.217-.118.321-.18.044-.025.075-.021.116.003.311.186.623.369.933.556.046.028.079.029.127 0 .21-.128.422-.253.647-.388-.253-.146-.494-.288-.749-.437.245-.151.476-.296.719-.447-.083-.048-.155-.091-.227-.131-.143-.081-.285-.158-.425-.242-.052-.033-.091-.027-.142.003-.3.179-.604.354-.902.53-.043.025-.077.029-.122.005-.095-.049-.192-.096-.291-.138-.046-.02-.061-.047-.059-.096.002-.105.004-.209 0-.315-.003-.048.013-.075.056-.098.201-.112.402-.228.604-.342.018-.009.032-.021.062-.039-.168-.091-.326-.177-.482-.264-.188-.103-.377-.206-.568-.307-.041-.022-.063-.046-.06-.097.004-.126.003-.252 0-.377 0-.045.011-.072.055-.091.126-.053.247-.115.374-.167.025-.011.071-.005.099.01.332.18.662.362.992.545.023.012.046.023.084.043 0-.04 0-.067 0-.095 0-.212-.003-.424.003-.637 0-.036.023-.079.05-.104.061-.058.131-.104.194-.159.032-.029.059-.032.095-.008.096.06.188.116.283.169.047.025.059.057.058.107-.008.36-.012.72-.021 1.079-.002.056.013.089.063.117.223.125.44.253.676.389 0-.294 0-.575 0-.876.273.146.53.283.797.426.003-.031.007-.052.007-.074 0-.231-.001-.462.002-.693 0-.052-.018-.079-.063-.104-.296-.168-.59-.34-.887-.509-.049-.028-.07-.059-.066-.117.005-.104-.001-.21.003-.314.002-.031.022-.07.048-.088.089-.063.183-.161.278-.166.09-.004.186.091.277.145.131.078.261.156.407.245 0-.04 0-.066 0-.093 0-.368.002-.735-.001-1.102 0-.054.018-.086.061-.116.111-.073.221-.151.332-.229.12.083.238.163.354.25.021.017.036.061.036.093.003.365.001.729.001 1.094v.098c.028-.012.05-.02.067-.031.221-.114.438-.227.654-.343.043-.023.074-.023.116.001.104.06.21.117.316.173.041.021.057.047.055.093-.004.094-.004.189 0 .283.002.05-.02.074-.062.095-.358.178-.718.36-1.076.537-.059.027-.073.059-.073.119.004.248.001.493.001.756.27-.15.524-.293.797-.445v.891c.041-.018.063-.027.086-.039.216-.11.429-.22.646-.327.057-.028.072-.062.072-.122-.004-.384-.001-.766-.003-1.148-.001-.054.013-.088.062-.114.079-.041.154-.122.231-.124.077-.001.154.079.234.115.064.029.083.072.082.141-.005.241-.001.482-.001.738.033-.017.059-.026.083-.039.34-.181.681-.361 1.018-.544.051-.028.088-.029.137.002.102.065.206.126.313.184.043.023.055.054.054.101-.003.111-.005.221.001.331.002.052-.021.079-.063.104-.318.179-.636.36-.951.542-.024.013-.047.028-.08.049.216.121.421.237.629.348.057.03.076.065.074.128-.006.103.001.205-.005.308-.001.027-.022.063-.045.077-.087.051-.179.092-.264.142-.045.025-.079.022-.124-.004-.313-.185-.63-.366-.941-.552-.05-.029-.084-.032-.135.001-.188.125-.378.247-.565.37-.026.017-.052.034-.089.059.233.15.461.295.698.448-.247.145-.484.283-.733.427.029.018.05.03.069.041.21.108.419.214.629.325.043.022.073.02.114-.002.309-.17.617-.335.924-.508.07-.04.121-.037.183.009.075.055.157.097.23.15.023.018.048.055.049.086.007.101 0 .204.005.306.001.049-.019.076-.061.099-.182.099-.361.201-.542.302-.018.01-.035.02-.062.036.036.024.063.042.092.06.298.182.595.364.894.544.049.029.071.059.068.118-.006.113-.006.226-.001.338.003.052-.012.08-.063.1-.129.049-.254.103-.378.159-.051.024-.092.02-.14-.009-.314-.177-.631-.351-.948-.526-.02-.011-.041-.02-.074-.037v.133c0 .196-.003.394 0 .59.001.05-.013.083-.055.111-.064.043-.13.09-.19.14-.037.031-.065.027-.104-.001-.083-.063-.2-.105-.246-.188-.043-.079-.013-.199-.013-.3-.002-.279.001-.557-.003-.835 0-.03-.02-.074-.043-.087-.237-.132-.479-.26-.72-.388-.008-.004-.016-.004-.031-.006v.807c-.271-.152-.529-.295-.793-.443-.004.026-.008.045-.008.064-.002.236.001.472-.002.708-.001.05.02.074.061.098.295.168.59.34.887.508.049.028.071.058.068.117-.006.115-.005.231 0 .346.001.048-.012.077-.058.098-.07.033-.142.07-.209.11-.045.027-.083.027-.128-.001-.18-.111-.359-.218-.539-.326-.021-.013-.044-.025-.082-.045v.092c0 .368 0 .735.002 1.102.001.05-.015.082-.058.109-.109.077-.218.155-.335.237z"/><path d="m69.685 43.27c.099 0 .194-.002.291.001.044.001.071-.012.092-.053.082-.158.166-.315.253-.471.023-.044.021-.08-.003-.124-.092-.167-.179-.338-.271-.505-.015-.025-.054-.05-.082-.051-.196-.005-.394-.005-.589 0-.03.001-.071.023-.086.048-.104.174-.201.349-.298.527-.013.023-.011.067.003.09.099.164.204.323.305.486.027.041.056.055.103.053.094-.003.187-.001.282-.001z"/><path d="m82.097 36.099c-.122-.085-.242-.165-.355-.252-.021-.016-.033-.057-.033-.086-.003-.368-.002-.735-.002-1.102 0-.028 0-.056 0-.099-.068.04-.123.072-.18.105-.147.089-.298.177-.442.269-.046.028-.078.026-.121-.004-.072-.051-.15-.094-.224-.147-.023-.018-.044-.057-.046-.087-.006-.104.002-.21-.003-.315-.003-.058.02-.088.067-.116.296-.168.59-.34.887-.509.046-.025.063-.053.063-.104-.005-.231-.002-.462-.003-.693 0-.02-.002-.04-.005-.074-.266.161-.521.317-.792.482 0-.295 0-.579 0-.876-.076.038-.137.068-.196.099-.179.091-.357.186-.539.274-.05.025-.067.053-.065.108.002.354 0 .708.001 1.062.001.053-.013.087-.059.116-.075.048-.146.101-.218.154-.039.03-.064.028-.107.002-.185-.102-.252-.247-.227-.457.019-.164.004-.334.004-.514-.039.018-.068.03-.093.044-.315.177-.634.353-.946.533-.053.031-.1.035-.153.01-.117-.052-.235-.099-.355-.145-.043-.016-.058-.038-.056-.082.003-.125.004-.251-.002-.378-.001-.053.021-.079.063-.104.329-.185.657-.372.983-.559.024-.014.05-.027.089-.051-.151-.072-.288-.137-.423-.201-.092-.043-.182-.083-.271-.129-.023-.013-.045-.049-.047-.075-.006-.118-.006-.236 0-.354.002-.029.022-.068.048-.083.105-.063.217-.118.323-.18.043-.025.074-.021.114.003.311.186.622.369.933.556.048.028.081.029.128 0 .209-.128.422-.253.646-.388-.252-.147-.492-.288-.748-.437.243-.151.477-.295.72-.447-.085-.048-.155-.091-.229-.131-.142-.081-.284-.158-.423-.242-.054-.033-.091-.027-.143.002-.301.179-.603.353-.902.53-.042.025-.076.029-.121.005-.096-.049-.193-.095-.292-.137-.047-.021-.062-.048-.059-.097.003-.105.003-.209-.001-.315-.002-.048.015-.075.058-.098.201-.112.4-.229.601-.342.019-.009.035-.021.063-.039-.167-.091-.324-.177-.481-.264-.188-.103-.378-.206-.567-.306-.041-.022-.063-.047-.061-.097.004-.126.003-.252 0-.378-.002-.045.011-.072.056-.09.125-.054.247-.115.373-.167.026-.011.07-.004.1.01.332.18.66.363.992.545.021.013.045.023.084.042 0-.039 0-.066 0-.094 0-.212-.003-.425.002-.637.001-.035.023-.079.051-.104.061-.058.131-.104.193-.159.033-.029.06-.032.096-.008.093.06.188.116.283.17.046.025.059.057.058.107-.008.36-.014.719-.021 1.078-.001.056.012.089.063.118.221.125.439.253.675.389 0-.294 0-.575 0-.876.273.146.529.284.798.426.003-.031.006-.052.006-.073.001-.231-.002-.462.003-.693 0-.052-.019-.079-.063-.104-.297-.168-.591-.34-.887-.509-.049-.028-.07-.058-.067-.116.005-.105-.003-.211.003-.315.002-.031.021-.07.049-.087.089-.063.182-.162.276-.167.091-.004.188.092.279.146.131.078.261.156.407.244 0-.039 0-.065 0-.092 0-.368.002-.735-.001-1.102-.002-.054.016-.086.06-.115.11-.074.221-.152.333-.23.119.083.238.163.354.25.021.018.035.061.035.093.004.365.001.729.001 1.094v.097c.028-.012.049-.02.068-.031.218-.113.438-.227.654-.343.041-.024.074-.023.115 0 .104.061.211.118.317.173.041.021.057.047.053.093-.003.094-.003.189 0 .284.004.05-.018.073-.061.094-.36.178-.717.36-1.077.537-.057.027-.074.059-.072.119.005.247.001.493.001.756.271-.15.525-.292.798-.445v.891c.039-.018.063-.026.086-.039.214-.11.428-.221.645-.328.056-.027.073-.061.072-.121-.003-.383 0-.766-.003-1.149 0-.053.012-.088.062-.113.08-.04.153-.122.232-.124.077-.002.151.078.233.114.065.029.081.072.081.141-.005.241-.002.482-.002.738.035-.016.061-.026.084-.039.341-.18.681-.361 1.02-.544.05-.028.087-.029.136.003.103.065.206.125.312.184.045.023.057.054.056.101-.003.111-.005.22 0 .331.002.052-.021.079-.063.104-.315.179-.633.36-.948.541-.024.013-.049.028-.08.049.216.12.421.236.627.347.059.03.078.065.075.128-.006.102.002.205-.005.307-.001.027-.022.063-.047.078-.085.051-.177.092-.263.142-.045.025-.079.022-.122-.004-.313-.185-.63-.366-.943-.552-.05-.029-.085-.032-.133.001-.188.125-.378.247-.567.37-.024.017-.051.034-.087.06.232.15.459.295.696.448-.247.144-.484.284-.731.427.028.018.048.029.067.04.209.108.42.214.628.325.044.022.075.02.116-.003.31-.17.618-.335.924-.508.071-.039.12-.037.184.009.072.055.155.097.23.151.023.017.045.055.048.085.007.102-.001.204.003.306.004.05-.016.076-.058.099-.184.099-.362.201-.544.302-.018.01-.035.02-.062.036.037.024.063.042.094.06.296.182.595.364.893.544.048.028.07.059.068.117-.006.113-.005.226 0 .338.001.053-.014.08-.064.101-.127.049-.251.103-.375.16-.051.023-.092.019-.14-.009-.316-.177-.633-.351-.949-.526-.021-.011-.041-.021-.076-.037v.133c0 .196-.001.394.002.59 0 .049-.012.083-.054.112-.064.043-.13.09-.19.14-.037.031-.066.027-.104-.001-.084-.063-.2-.106-.246-.188-.043-.079-.013-.199-.015-.301 0-.278.002-.556-.001-.834-.002-.029-.021-.074-.043-.086-.239-.132-.479-.26-.722-.388-.006-.003-.014-.003-.03-.006v.806c-.271-.152-.528-.295-.793-.443-.003.026-.01.045-.01.064 0 .236.003.472-.001.708 0 .05.021.074.061.098.297.168.59.34.887.508.05.027.072.058.07.117-.006.115-.005.231 0 .346 0 .048-.014.078-.059.098-.071.033-.142.07-.21.11-.046.027-.082.026-.128-.001-.178-.111-.358-.218-.538-.326-.022-.013-.046-.025-.082-.045v.092c0 .368-.001.734.003 1.102 0 .05-.016.082-.058.109-.113.076-.221.155-.337.236z"/><path d="m82.134 31.901c.097 0 .193-.002.29 0 .045.001.072-.012.092-.053.083-.158.167-.315.253-.471.024-.045.022-.08-.002-.124-.092-.167-.179-.338-.271-.504-.016-.025-.055-.051-.082-.052-.196-.004-.395-.004-.59 0-.03.001-.071.023-.087.048-.104.174-.199.35-.297.527-.013.023-.012.068.003.09.1.164.204.324.305.486.025.042.057.055.104.053.092-.002.187 0 .282 0z"/><path d="m62.957 31.726c-.122-.085-.24-.166-.354-.252-.021-.016-.035-.057-.035-.087-.002-.367-.002-.734-.002-1.102 0-.028 0-.056 0-.099-.065.04-.123.072-.177.105-.147.089-.299.176-.445.268-.045.028-.077.028-.119-.003-.073-.051-.151-.094-.223-.147-.023-.019-.046-.058-.048-.088-.004-.104.002-.21-.003-.314-.003-.059.02-.089.067-.117.297-.169.592-.341.889-.508.044-.025.061-.053.061-.105-.003-.23-.002-.462-.002-.692 0-.021-.003-.041-.004-.074-.266.161-.521.317-.792.482 0-.295 0-.578 0-.876-.076.039-.136.068-.195.099-.182.092-.359.186-.54.275-.05.024-.066.053-.066.108.003.354 0 .708.003 1.062 0 .053-.014.087-.059.116-.077.048-.148.1-.221.155-.039.029-.063.026-.106.001-.185-.102-.251-.246-.228-.457.021-.165.004-.333.004-.514-.039.019-.065.031-.093.045-.314.176-.632.353-.945.533-.054.031-.099.035-.153.01-.117-.052-.236-.1-.356-.145-.041-.015-.055-.038-.055-.081.003-.126.004-.252 0-.378-.001-.053.019-.08.062-.104.33-.186.657-.372.985-.559.024-.014.048-.028.086-.051-.15-.071-.286-.137-.422-.201-.09-.043-.182-.083-.269-.13-.024-.012-.048-.048-.049-.075-.005-.117-.006-.236 0-.354.002-.028.023-.068.05-.083.104-.064.217-.119.32-.181.044-.025.076-.021.116.003.312.186.623.369.933.556.047.028.08.029.129 0 .209-.129.421-.253.646-.388-.251-.147-.494-.287-.749-.436.245-.152.476-.296.719-.449-.083-.048-.154-.09-.226-.131-.143-.081-.286-.158-.425-.242-.053-.032-.091-.027-.143.003-.3.178-.601.352-.9.529-.044.026-.077.029-.123.005-.097-.049-.192-.094-.292-.137-.045-.02-.061-.046-.059-.096.003-.104.004-.21 0-.314-.002-.048.014-.075.057-.098.2-.112.401-.227.603-.342.019-.009.033-.021.063-.039-.167-.091-.326-.178-.483-.263-.188-.103-.377-.206-.568-.308-.041-.021-.061-.046-.06-.096.004-.126.003-.252 0-.378 0-.045.011-.072.055-.091.126-.054.247-.115.374-.166.026-.011.071-.004.1.01.331.18.662.363.991.545.023.012.046.021.084.042 0-.04 0-.066 0-.094 0-.212-.003-.425.004-.638 0-.035.022-.079.05-.104.06-.058.131-.104.193-.159.034-.03.06-.032.096-.008.095.06.188.117.283.169.047.025.059.058.058.108-.008.359-.012.718-.021 1.078-.002.056.014.09.063.118.222.125.439.253.675.389 0-.295 0-.575 0-.877.275.147.531.284.797.426.003-.03.007-.052.007-.073 0-.23-.001-.462.002-.693 0-.052-.018-.079-.063-.104-.297-.168-.59-.341-.887-.508-.05-.028-.07-.06-.067-.117.005-.106-.001-.21.003-.315.002-.031.023-.069.048-.087.089-.064.184-.162.278-.167.09-.003.186.092.278.146.131.077.261.155.406.244 0-.039 0-.066 0-.093 0-.367.002-.734-.001-1.102 0-.054.019-.086.063-.115.109-.074.219-.152.331-.23.12.083.239.163.354.25.024.018.036.062.036.093.003.365.002.73.002 1.095v.097c.028-.012.049-.02.067-.03.22-.114.438-.228.654-.344.042-.021.074-.021.116.001.104.06.209.118.316.174.041.021.056.047.054.092-.004.095-.004.189 0 .283.002.051-.019.075-.061.095-.359.179-.718.36-1.076.537-.058.028-.074.059-.074.119.004.247.002.493.002.757.27-.15.524-.294.797-.446v.892c.04-.018.063-.028.085-.039.216-.109.431-.221.646-.328.055-.026.072-.06.072-.122-.005-.382-.002-.765-.003-1.148-.002-.053.013-.087.062-.113.079-.041.154-.122.23-.124.077-.002.154.078.234.113.065.03.083.073.081.142-.004.24 0 .482 0 .738.034-.016.059-.027.082-.039.341-.182.682-.362 1.019-.545.052-.028.089-.029.138.003.101.065.206.125.312.184.043.023.056.053.055.101-.004.11-.006.22.001.331.002.052-.021.079-.063.104-.318.179-.635.36-.951.541-.023.014-.047.029-.08.049.216.121.422.237.629.348.058.031.076.065.074.129-.006.102.001.205-.005.307-.001.027-.021.063-.045.077-.086.051-.177.092-.263.142-.045.025-.08.023-.124-.003-.313-.185-.63-.366-.942-.552-.049-.029-.084-.032-.134.001-.188.126-.378.247-.566.37-.025.018-.052.035-.089.061.234.15.461.295.699.448-.248.145-.485.283-.734.427.029.018.05.03.07.04.209.108.419.214.628.325.043.023.074.02.115-.003.308-.169.617-.335.923-.507.071-.04.122-.037.184.009.074.054.157.097.23.15.022.018.047.055.048.085.007.102 0 .204.005.307.001.049-.017.075-.06.098-.183.099-.362.201-.542.301-.019.011-.035.021-.063.037.036.023.064.042.092.059.299.182.596.364.895.544.049.029.071.06.068.118-.007.113-.005.226-.002.338.004.053-.012.08-.063.099-.128.05-.253.104-.377.161-.051.023-.091.019-.14-.009-.315-.177-.632-.352-.947-.527-.021-.01-.042-.019-.076-.036v.132c0 .197-.003.394 0 .591 0 .049-.012.083-.054.112-.065.043-.13.089-.19.139-.038.032-.065.028-.104 0-.083-.063-.2-.106-.245-.189-.044-.079-.015-.199-.015-.301-.001-.278.001-.556-.003-.834 0-.03-.019-.074-.043-.087-.236-.132-.479-.259-.72-.387-.007-.004-.015-.003-.031-.007v.807c-.271-.152-.527-.295-.793-.443-.004.026-.008.044-.008.063-.001.236.001.472-.001.708-.002.05.02.075.061.097.295.168.59.34.887.509.048.027.071.057.067.116-.006.115-.003.231 0 .346.001.048-.012.078-.057.099-.071.033-.142.07-.21.11-.045.027-.082.027-.128-.002-.179-.11-.358-.217-.539-.324-.021-.014-.044-.025-.081-.045v.092c0 .368 0 .734.001 1.103.001.049-.014.081-.057.109-.111.073-.219.153-.336.234z"/><path d="m62.995 27.528c.097 0 .192-.002.29 0 .044 0 .07-.012.092-.054.082-.158.166-.315.253-.471.022-.045.021-.08-.003-.124-.091-.167-.18-.338-.271-.505-.015-.024-.054-.051-.082-.051-.195-.005-.393-.005-.589 0-.03 0-.07.023-.085.048-.104.173-.202.35-.299.527-.012.024-.011.067.003.09.1.164.204.324.306.486.025.041.057.056.103.054.092-.003.186 0 .282 0z"/><path d="m61.747 81.882c-.148-.019-.292-.031-.434-.053-.025-.004-.058-.033-.07-.062-.178-.322-.351-.646-.523-.97-.014-.025-.026-.051-.047-.088-.039.067-.073.121-.106.178-.089.148-.179.296-.265.447-.027.045-.055.06-.107.053-.087-.012-.177-.012-.266-.024-.03-.005-.066-.028-.082-.056-.055-.089-.099-.186-.152-.273-.028-.052-.025-.09.006-.138.182-.288.358-.578.541-.867.025-.043.027-.075.002-.12-.11-.201-.219-.406-.328-.608-.01-.02-.021-.035-.038-.063-.157.266-.31.524-.472.799-.139-.261-.272-.51-.412-.771-.051.07-.09.125-.127.18-.114.166-.229.334-.347.498-.032.045-.033.078-.006.126.169.312.335.624.505.935.024.047.029.084.003.132-.044.077-.083.157-.119.239-.021.045-.044.054-.095.054-.21-.005-.339-.101-.416-.296-.06-.154-.154-.297-.24-.455-.024.035-.044.058-.061.083-.195.306-.39.61-.58.918-.032.052-.07.075-.131.081-.127.011-.256.022-.383.041-.044.006-.066-.008-.086-.045-.059-.112-.116-.226-.181-.334-.025-.045-.021-.078.006-.121.201-.318.402-.639.603-.959.017-.021.03-.047.053-.084-.166.009-.315.016-.468.021-.099.006-.198.014-.298.014-.027 0-.063-.021-.076-.043-.063-.103-.117-.205-.168-.313-.013-.024-.011-.071.004-.097.063-.105.133-.207.197-.312.026-.043.057-.055.104-.052.36.018.724.029 1.083.048.057.003.084-.012.112-.06.125-.213.253-.422.388-.648-.292-.01-.57-.02-.866-.029.145-.25.279-.486.423-.733-.098-.005-.181-.007-.263-.011-.163-.002-.325-.002-.487-.012-.063-.004-.095.02-.123.07-.181.299-.364.596-.543.895-.026.043-.057.063-.106.063-.107 0-.214.007-.321.016-.051.004-.075-.014-.098-.057-.047-.094-.096-.188-.149-.276-.023-.043-.022-.073.005-.114.123-.192.245-.39.367-.586.013-.016.02-.033.035-.063-.188-.001-.37-.003-.55-.004-.214-.002-.429-.003-.645-.002-.047 0-.077-.012-.101-.057-.056-.112-.116-.224-.178-.334-.023-.039-.026-.066.005-.104.085-.107.163-.219.25-.324.019-.021.061-.038.092-.038.376.001.754.007 1.131.011.026 0 .054-.002.096-.002-.02-.035-.032-.06-.044-.084-.102-.186-.203-.373-.301-.562-.017-.031-.017-.08-.005-.115.025-.079.065-.153.097-.233.016-.041.034-.055.08-.051.109.01.22.015.329.016.053 0 .078.023.102.066.163.32.33.641.491.961.026.049.054.071.113.073.252.005.506.015.776.023-.138-.261-.271-.507-.415-.772.312-.001.603-.002.904-.002-.013-.027-.02-.049-.029-.068-.108-.203-.22-.405-.326-.61-.023-.046-.052-.062-.103-.063-.342-.008-.682-.021-1.022-.027-.057-.002-.09-.02-.115-.071-.046-.095-.102-.185-.146-.278-.014-.027-.014-.072 0-.1.049-.1.083-.229.166-.278.078-.046.208-.007.313-.004.152.007.305.017.475.022-.02-.034-.03-.059-.044-.081-.173-.323-.347-.648-.521-.972-.025-.047-.025-.082-.002-.129.063-.117.121-.238.186-.359.145.017.288.029.43.053.028.005.061.036.077.064.174.319.346.643.518.963.016.025.027.052.046.086.021-.024.034-.041.047-.06.139-.204.277-.407.413-.612.025-.041.056-.056.103-.054.122.005.241.005.361.003.046 0 .072.017.093.055.042.086.086.17.134.25.025.045.019.074-.009.113-.233.326-.461.655-.695.982-.036.05-.036.086-.006.139.118.217.231.436.356.666.166-.259.324-.507.491-.771.144.267.279.521.422.786.027-.034.043-.055.06-.074.135-.198.271-.396.411-.594.035-.051.034-.088.006-.143-.184-.336-.363-.675-.547-1.011-.024-.047-.03-.083.002-.129.051-.073.078-.181.146-.22.066-.037.173-.004.261-.01.072-.006.106.024.14.086.108.215.226.426.348.65.023-.03.04-.051.058-.073.214-.321.427-.64.64-.962.03-.049.063-.066.119-.063.121.011.241.014.361.015.051.001.075.022.096.063.05.1.102.196.157.291.026.045.021.078-.007.121-.192.31-.388.617-.579.928-.016.021-.028.048-.049.08.247.005.482.009.718.009.065 0 .1.022.127.08.043.092.098.179.142.271.013.025.01.067-.003.092-.051.084-.113.164-.165.248-.027.045-.06.058-.109.056-.363-.015-.729-.024-1.093-.041-.058 0-.09.014-.116.065-.104.198-.217.396-.324.594-.015.026-.028.055-.051.095.277.021.545.043.827.063-.147.244-.293.479-.444.724.035.002.059.003.081.003.235-.003.472-.01.707-.012.05 0 .075-.019.102-.058.19-.295.386-.588.572-.885.045-.067.09-.089.165-.079.092.014.184.012.274.023.03.006.067.026.083.054.054.086.098.18.147.269.024.043.021.074-.005.112-.112.175-.225.351-.335.522-.011.019-.021.035-.037.063.045.003.076.005.109.008.35.021.695.039 1.044.056.058.004.092.021.116.072.048.103.104.2.158.299.026.045.026.076-.009.117-.089.104-.174.211-.256.319-.032.044-.069.06-.127.06-.359-.009-.723-.012-1.085-.017-.021 0-.045.002-.084.004.024.046.043.081.063.117.092.173.184.347.28.521.022.043.028.077.005.123-.037.068-.071.141-.103.213-.02.045-.045.057-.092.047-.104-.016-.227.002-.306-.049-.075-.05-.105-.168-.155-.259-.132-.245-.262-.491-.396-.733-.016-.025-.052-.057-.079-.058-.271-.003-.545-.001-.817-.001-.007 0-.015.006-.03.01.125.233.249.463.383.711-.313-.004-.605-.01-.908-.015.009.024.014.043.021.06.111.207.226.416.334.625.023.045.053.056.1.058.341.008.682.021 1.021.028.056 0 .09.017.116.068.051.104.104.206.163.307.022.041.025.074-.005.113-.046.063-.09.129-.131.196-.027.045-.061.062-.114.058-.208-.013-.418-.021-.628-.029-.025-.002-.053-.002-.095-.002.02.033.031.058.045.08.174.324.348.647.521.972.024.044.027.078.003.123-.063.119-.121.239-.185.366zm-1.955-3.715c.086-.047.169-.094.256-.138.041-.021.059-.044.057-.091-.003-.178-.003-.357-.001-.535.001-.05-.018-.081-.061-.107-.16-.104-.316-.213-.479-.314-.025-.016-.07-.021-.097-.007-.175.089-.349.182-.521.278-.024.015-.053.054-.054.082-.008.201-.012.403-.012.605 0 .025.021.064.045.077.164.097.333.188.498.284.043.023.075.021.115-.002.087-.046.171-.087.254-.132z"/><path d="m52.583 103.345c-.122-.085-.242-.165-.357-.252-.021-.016-.033-.057-.033-.086-.003-.367-.001-.734-.001-1.103 0-.028 0-.057 0-.1-.067.039-.124.071-.179.104-.147.09-.298.178-.444.27-.045.027-.076.027-.119-.003-.072-.054-.151-.095-.223-.148-.024-.019-.045-.058-.047-.087-.006-.105.002-.211-.004-.314-.002-.06.02-.09.068-.116.297-.169.591-.341.888-.509.044-.025.061-.055.061-.104-.003-.231-.001-.462-.002-.692 0-.021-.001-.039-.004-.074-.265.16-.521.317-.792.481 0-.296 0-.577 0-.876-.077.038-.137.069-.197.1-.179.092-.357.187-.538.273-.05.025-.067.055-.066.108.002.354 0 .709.002 1.063 0 .052-.013.087-.06.116-.075.047-.147.1-.219.152-.039.031-.063.029-.107.004-.185-.104-.251-.247-.227-.457.02-.165.003-.334.003-.516-.039.02-.066.03-.093.045-.315.179-.631.354-.945.532-.054.031-.098.035-.153.011-.118-.051-.237-.099-.357-.145-.042-.016-.055-.038-.054-.081.002-.126.004-.252-.001-.378-.002-.054.019-.079.062-.104.329-.187.657-.373.985-.56.024-.015.047-.028.086-.051-.151-.072-.287-.138-.423-.202-.089-.042-.181-.083-.268-.129-.023-.014-.047-.05-.048-.075-.006-.118-.006-.235 0-.354.001-.028.024-.068.05-.084.104-.063.215-.117.321-.18.042-.023.075-.021.115.002.312.188.622.369.933.557.047.027.08.029.126.001.21-.128.423-.253.648-.39-.251-.146-.493-.287-.748-.436.244-.15.475-.297.719-.447-.083-.049-.154-.091-.228-.132-.142-.08-.284-.157-.423-.242-.054-.032-.091-.026-.143.005-.3.178-.602.353-.901.529-.043.025-.077.028-.122.005-.096-.049-.192-.096-.291-.138-.047-.021-.062-.047-.061-.096.003-.105.003-.211 0-.314-.002-.049.015-.075.058-.1.2-.111.4-.228.602-.34.019-.013.034-.021.062-.039-.167-.092-.324-.179-.482-.266-.189-.104-.378-.205-.568-.306-.042-.022-.062-.047-.06-.099.004-.125.002-.25 0-.377-.001-.045.01-.071.055-.091.125-.053.247-.114.373-.166.028-.012.072-.006.1.009.332.182.661.363.992.545.022.013.047.023.083.043 0-.039 0-.066 0-.094 0-.212-.002-.425.003-.637 0-.036.023-.079.05-.104.061-.059.132-.104.193-.16.033-.029.059-.031.097-.008.092.061.187.117.282.17.046.024.06.057.058.106-.008.359-.014.72-.021 1.078-.001.058.013.09.064.118.221.125.438.253.674.39 0-.295 0-.573 0-.878.274.146.531.284.797.428.003-.031.006-.054.006-.074.001-.23-.001-.461.002-.691 0-.053-.018-.08-.061-.105-.297-.168-.591-.34-.888-.508-.05-.027-.07-.06-.068-.117.006-.104-.002-.209.005-.313.001-.031.021-.069.047-.088.089-.063.182-.161.277-.166.09-.004.187.091.278.146.132.077.261.157.407.244 0-.039 0-.066 0-.093 0-.367 0-.733-.002-1.103 0-.055.018-.086.062-.114.11-.073.22-.152.332-.229.12.082.238.162.354.25.023.018.036.062.036.094.003.365.002.729.002 1.094v.098c.028-.014.049-.021.068-.031.218-.113.437-.227.653-.345.042-.021.074-.021.114.002.105.062.211.119.318.175.042.021.056.047.054.094-.003.093-.003.188 0 .283.002.049-.018.071-.061.094-.359.178-.718.359-1.078.537-.057.026-.073.06-.073.119.004.246.002.492.002.756.268-.149.524-.293.797-.445v.893c.039-.019.063-.027.084-.039.216-.109.43-.221.646-.328.056-.026.073-.061.071-.121-.003-.383 0-.767-.003-1.148 0-.053.015-.087.063-.113.079-.041.153-.121.23-.123.078-.002.154.077.235.113.065.029.081.072.081.141-.005.242-.002.482-.002.738.034-.016.06-.025.084-.038.339-.181.68-.36 1.019-.545.053-.026.088-.026.137.004.101.064.205.124.313.185.042.022.054.055.053.101-.003.111-.003.222 0 .33.003.054-.019.08-.063.104-.317.18-.633.359-.95.541-.024.015-.046.028-.079.049.216.121.42.236.629.349.057.03.076.065.073.129-.006.103.001.204-.005.308-.001.026-.021.063-.046.076-.086.051-.177.094-.262.144-.047.024-.079.021-.123-.005-.313-.187-.632-.366-.943-.553-.051-.028-.084-.031-.133.002-.188.127-.378.248-.566.369-.027.018-.053.034-.09.061.233.15.459.295.699.449-.247.144-.485.281-.733.426.029.018.048.029.068.041.21.107.421.215.63.324.042.021.075.021.116-.004.307-.17.615-.334.923-.508.07-.039.121-.035.183.01.073.055.156.097.23.149.023.019.047.056.048.085.006.104 0 .205.003.307.003.051-.016.076-.057.1-.183.1-.362.201-.544.303-.019.01-.033.021-.062.036.037.022.065.041.093.06.298.182.596.363.894.543.048.029.069.061.066.119-.003.111-.003.226 0 .338.003.053-.014.08-.063.1-.126.05-.25.104-.375.158-.051.023-.09.021-.139-.006-.315-.179-.634-.353-.95-.526-.02-.011-.04-.021-.076-.038v.133c0 .197-.002.395.001.592.001.049-.011.082-.053.11-.065.044-.13.091-.191.14-.038.031-.065.027-.104 0-.083-.063-.2-.105-.245-.188-.043-.079-.015-.199-.016-.302 0-.277.001-.556-.002-.832 0-.031-.018-.075-.042-.088-.24-.135-.479-.261-.72-.39-.006-.003-.015-.002-.031-.005v.807c-.271-.151-.527-.295-.793-.442-.003.024-.007.044-.008.063 0 .235.001.472-.002.709 0 .05.021.072.061.097.297.168.591.341.888.509.049.026.071.058.068.116-.005.115-.003.231 0 .348 0 .047-.013.076-.058.098-.071.033-.141.07-.208.11-.045.026-.082.026-.129-.003-.177-.11-.359-.217-.538-.324-.022-.014-.045-.025-.081-.045v.092c0 .367-.002.734.001 1.102 0 .052-.014.082-.055.111-.109.064-.218.142-.334.223zm.037-4.197c.097 0 .193-.001.292.002.045.001.07-.014.092-.054.082-.158.166-.315.253-.472.025-.045.021-.082-.002-.123-.092-.17-.179-.34-.273-.506-.015-.025-.053-.052-.081-.053-.195-.004-.394-.004-.591 0-.027 0-.07.023-.085.048-.102.175-.202.351-.296.527-.013.024-.011.067.002.091.099.163.204.323.304.486.026.04.056.055.104.054.092-.002.187 0 .281 0z"/><path d="m94.08 93.365c-.121-.085-.241-.166-.356-.252-.021-.017-.033-.058-.033-.087-.003-.366-.002-.733-.002-1.103 0-.027 0-.057 0-.1-.067.04-.122.072-.179.105-.148.089-.298.177-.443.268-.045.029-.077.028-.12-.002-.071-.052-.149-.095-.223-.146-.023-.021-.044-.06-.046-.088-.006-.105.002-.211-.004-.314-.003-.059.019-.089.068-.118.297-.168.59-.34.887-.508.045-.024.062-.054.062-.104-.005-.23-.002-.461-.002-.691 0-.021-.003-.042-.006-.075-.263.163-.521.318-.791.481 0-.295 0-.577 0-.875-.076.039-.137.067-.196.099-.179.093-.356.187-.537.274-.052.023-.068.054-.066.108.002.354 0 .708.001 1.062.001.055-.013.089-.06.117-.074.047-.146.101-.219.154-.038.029-.063.026-.106.002-.186-.103-.252-.246-.227-.457.02-.164.004-.334.004-.514-.04.018-.067.029-.094.044-.314.177-.632.354-.945.533-.054.03-.098.034-.153.01-.117-.052-.235-.101-.356-.146-.042-.016-.057-.037-.055-.08.003-.127.004-.252-.002-.377-.001-.055.02-.08.063-.104.328-.187.656-.372.984-.56.023-.015.048-.028.086-.051-.151-.07-.287-.137-.422-.201-.091-.043-.182-.082-.271-.131-.021-.013-.045-.049-.047-.074-.004-.117-.004-.235 0-.354.002-.029.024-.068.049-.083.105-.063.217-.118.323-.18.043-.025.074-.021.115.002.31.187.622.369.932.556.047.028.08.029.127.002.209-.13.423-.254.648-.39-.252-.146-.493-.286-.749-.435.243-.152.476-.297.719-.449-.083-.049-.153-.09-.227-.131-.143-.08-.284-.157-.424-.241-.055-.032-.091-.027-.142.004-.301.178-.604.351-.902.528-.043.025-.077.029-.122.006-.096-.051-.192-.096-.291-.139-.046-.02-.062-.047-.06-.096.002-.104.002-.21-.001-.314-.001-.049.016-.074.058-.1.201-.111.4-.227.603-.341.016-.01.033-.021.062-.037-.167-.093-.325-.179-.482-.265-.188-.104-.378-.206-.567-.309-.042-.021-.063-.046-.061-.097.004-.125.003-.251 0-.378-.002-.044.011-.07.055-.09.126-.055.247-.114.373-.166.028-.012.072-.006.101.009.332.181.661.362.992.545.022.013.045.022.084.044 0-.041 0-.066 0-.095 0-.213-.003-.425.001-.638.001-.035.024-.078.052-.104.061-.059.131-.105.193-.161.033-.028.06-.032.097-.007.092.061.187.117.281.169.049.026.061.058.06.108-.009.359-.015.718-.021 1.076-.002.058.013.09.063.119.221.123.438.254.675.389 0-.295 0-.574 0-.877.273.146.53.283.798.427.002-.03.006-.052.006-.074 0-.229-.003-.462.002-.692 0-.051-.018-.078-.062-.104-.297-.168-.59-.34-.887-.507-.051-.029-.071-.062-.068-.118.006-.105-.003-.21.004-.314.002-.03.021-.069.047-.088.089-.063.185-.16.277-.164.091-.006.188.09.278.145.132.077.262.156.407.245 0-.04 0-.066 0-.095 0-.366.002-.733-.001-1.101-.002-.054.017-.087.062-.114.109-.076.22-.152.332-.231.119.084.238.164.354.251.021.017.036.063.036.093.002.364 0 .729 0 1.095v.098c.029-.014.05-.021.068-.031.219-.113.438-.227.653-.344.042-.022.075-.021.115.002.104.061.212.117.318.173.041.021.057.048.054.094-.003.095-.003.188.001.282.002.051-.019.074-.062.097-.361.179-.719.359-1.078.535-.057.027-.073.06-.071.12.003.246 0 .492 0 .755.27-.147.525-.293.798-.444v.892c.039-.019.063-.027.086-.038.214-.109.428-.223.645-.328.057-.027.072-.061.071-.122-.003-.382 0-.765-.003-1.147 0-.054.013-.088.063-.113.08-.041.152-.122.231-.124.077 0 .153.078.235.114.065.028.081.072.081.142-.006.24-.003.481-.003.739.035-.018.061-.027.085-.04.339-.183.68-.361 1.019-.546.051-.026.088-.026.137.004.101.064.205.126.311.185.044.024.056.056.055.103-.003.108-.004.221 0 .33.003.054-.02.08-.063.104-.317.18-.633.361-.95.541-.022.016-.046.03-.08.05.217.12.421.236.628.347.059.031.077.066.075.131-.006.102.001.205-.005.307-.001.027-.021.063-.047.077-.085.052-.176.093-.262.142-.046.025-.079.022-.122-.003-.313-.186-.632-.366-.943-.553-.051-.029-.086-.031-.134.002-.188.126-.378.246-.565.37-.026.018-.053.033-.09.061.233.149.459.295.699.448-.247.144-.485.28-.734.427.03.018.048.029.068.038.209.109.421.216.629.325.043.021.075.02.117-.003.307-.17.615-.334.922-.508.071-.04.12-.036.183.01.074.054.157.097.231.149.023.02.045.056.048.086.006.102-.001.203.003.307.003.049-.016.075-.057.098-.183.101-.362.202-.544.303-.019.011-.035.021-.063.037.037.022.064.041.094.06.296.183.596.364.893.544.048.029.07.061.067.117-.005.111-.004.226 0 .339.001.052-.014.08-.063.101-.126.049-.251.104-.375.158-.051.023-.091.02-.139-.008-.316-.178-.635-.352-.95-.527-.021-.011-.041-.02-.076-.035v.133c0 .197-.001.394.002.59.001.05-.011.085-.054.111-.065.043-.13.09-.19.14-.038.03-.067.028-.104 0-.084-.063-.2-.106-.246-.188-.042-.08-.014-.199-.016-.302 0-.278.002-.556-.001-.834 0-.03-.021-.073-.042-.088-.239-.132-.479-.259-.72-.388-.008-.004-.016-.004-.032-.006v.807c-.271-.151-.527-.295-.792-.442-.005.026-.011.046-.011.063 0 .236.002.474 0 .709 0 .05.02.074.06.097.298.169.592.341.888.509.05.029.071.059.069.116-.006.115-.005.231 0 .347 0 .049-.015.076-.059.1-.072.033-.141.07-.208.109-.046.027-.083.026-.129-.002-.179-.11-.359-.217-.539-.324-.022-.015-.046-.025-.082-.045v.092c0 .367 0 .734.002 1.102 0 .051-.015.082-.056.11-.113.061-.221.139-.337.221zm.037-4.198c.097 0 .193-.002.291 0 .045.002.07-.011.093-.053.082-.158.166-.314.251-.472.024-.045.021-.08-.002-.123-.092-.168-.18-.339-.271-.506-.015-.024-.054-.05-.082-.05-.195-.006-.394-.006-.59 0-.029 0-.071.021-.086.046-.103.174-.2.35-.297.528-.012.021-.012.065.003.088.099.164.205.324.306.486.024.042.056.057.103.055.092-.002.186.001.281.001z"/><path d="m14.342 90.625c-.122-.086-.241-.166-.356-.252-.021-.017-.033-.058-.033-.086-.002-.367-.001-.735-.001-1.103 0-.028 0-.058 0-.101-.067.041-.123.072-.179.105-.147.089-.298.176-.443.268-.045.029-.078.028-.12 0-.073-.054-.152-.097-.224-.148-.023-.02-.044-.059-.046-.089-.006-.104.002-.209-.003-.314-.003-.058.02-.088.068-.116.296-.168.59-.341.887-.509.044-.024.062-.054.062-.104-.003-.231-.001-.464-.002-.692 0-.021-.002-.042-.005-.074-.265.161-.521.317-.792.481 0-.295 0-.578 0-.876-.075.039-.136.068-.195.099-.181.093-.358.187-.54.275-.049.022-.066.053-.066.108.002.354 0 .707.002 1.062.001.054-.013.088-.059.116-.076.048-.148.1-.218.154-.039.029-.063.026-.108.002-.184-.103-.25-.246-.226-.457.019-.164.003-.334.003-.515-.039.019-.067.03-.094.045-.315.177-.632.354-.944.533-.056.031-.1.034-.154.01-.118-.052-.237-.1-.357-.145-.042-.017-.055-.038-.053-.081.001-.127.003-.252-.001-.377-.001-.055.02-.08.063-.104.329-.187.655-.373.983-.561.024-.014.048-.028.086-.051-.149-.07-.286-.137-.423-.2-.089-.044-.181-.082-.269-.132-.022-.012-.046-.049-.046-.073-.006-.118-.006-.237 0-.354.001-.028.023-.067.048-.082.104-.063.216-.119.323-.181.041-.024.073-.021.114.003.311.186.622.368.934.555.046.028.08.029.126.002.21-.131.422-.254.647-.39-.251-.146-.494-.286-.748-.435.243-.152.476-.297.719-.449-.083-.048-.154-.089-.228-.131-.141-.08-.284-.157-.423-.241-.053-.032-.091-.026-.142.004-.301.179-.603.351-.902.529-.042.024-.077.028-.123.005-.094-.05-.192-.096-.29-.139-.046-.02-.061-.047-.06-.096.004-.104.004-.209 0-.314-.001-.049.014-.074.057-.098.202-.112.401-.229.602-.344.019-.009.034-.02.062-.035-.167-.094-.324-.181-.482-.266-.188-.104-.377-.206-.566-.309-.042-.021-.063-.045-.062-.097.003-.125.002-.251.001-.378-.001-.044.01-.07.055-.09.126-.054.247-.113.374-.166.027-.012.071-.006.099.009.333.181.663.362.993.546.021.012.046.022.083.043 0-.041 0-.066 0-.095 0-.213-.001-.425.002-.638.001-.035.023-.078.05-.104.061-.059.132-.104.195-.16.032-.029.057-.033.096-.008.092.061.187.117.283.17.045.025.058.058.057.107-.009.359-.013.718-.021 1.077-.001.057.012.09.063.118.221.123.44.252.674.389 0-.294 0-.575 0-.876.275.146.531.283.797.426.004-.03.008-.052.008-.073 0-.23-.001-.463.002-.692 0-.052-.018-.079-.062-.104-.296-.168-.59-.34-.888-.507-.049-.028-.07-.062-.067-.118.005-.104-.003-.21.003-.314.001-.03.022-.069.046-.088.091-.063.184-.16.279-.166.091-.004.188.093.279.146.131.077.259.156.406.245 0-.04 0-.065 0-.094 0-.367.001-.734-.001-1.103 0-.054.017-.086.061-.113.111-.075.219-.152.333-.231.119.084.239.164.353.25.023.019.036.062.037.093.002.366.001.729.001 1.096v.098c.028-.014.049-.021.068-.031.217-.113.436-.228.653-.344.042-.021.073-.021.115.002.104.061.211.118.318.173.04.021.055.048.054.095-.003.094-.004.188 0 .281.002.051-.018.075-.062.096-.359.179-.716.359-1.077.537-.056.026-.073.059-.072.119.003.246.001.492.001.756.268-.148.524-.293.798-.445v.892c.038-.019.063-.026.084-.038.215-.109.429-.222.645-.328.056-.027.073-.061.072-.121-.003-.383 0-.766-.003-1.148 0-.053.012-.088.062-.113.079-.041.154-.122.232-.123.077-.002.153.077.234.113.065.029.083.072.081.142-.004.24-.001.482-.001.738.035-.017.061-.026.083-.039.34-.183.682-.36 1.021-.544.05-.028.087-.028.135.002.102.064.206.126.312.186.044.023.057.055.055.102-.003.109-.004.22 0 .33.001.054-.02.08-.063.104-.316.18-.633.36-.949.543-.023.014-.048.028-.08.049.217.119.421.235.628.347.057.03.077.065.072.13-.005.102.002.205-.003.307-.001.027-.022.063-.046.077-.085.052-.176.093-.263.142-.043.025-.079.022-.122-.002-.313-.187-.629-.367-.944-.554-.049-.028-.083-.03-.132.002-.188.126-.377.246-.566.369-.025.019-.053.034-.09.062.235.149.46.295.699.449-.248.144-.486.279-.732.426.029.018.049.028.067.039.21.108.421.215.629.324.042.022.074.021.116-.003.307-.17.617-.334.922-.507.071-.041.121-.038.185.01.072.053.155.096.229.148.025.02.047.056.048.086.006.102 0 .204.003.307.001.049-.016.075-.058.098-.184.099-.364.202-.544.302-.017.01-.035.021-.063.035.037.024.064.043.093.061.297.183.595.364.894.543.048.03.07.06.068.117-.005.113-.004.228 0 .34.001.054-.014.08-.064.099-.126.051-.252.104-.375.16-.051.022-.091.021-.14-.008-.315-.178-.632-.352-.948-.527-.02-.01-.042-.02-.076-.035v.133c0 .195-.001.395.001.59 0 .05-.012.084-.055.112-.065.042-.129.089-.19.139-.037.031-.066.028-.104 0-.083-.063-.201-.106-.245-.188-.044-.08-.015-.198-.015-.301 0-.279.001-.557-.002-.834-.001-.031-.02-.074-.043-.089-.238-.132-.479-.259-.722-.387-.006-.005-.014-.004-.029-.007v.807c-.272-.152-.528-.296-.793-.441-.004.025-.009.045-.009.063 0 .236.001.475-.001.709 0 .05.021.074.061.098.296.168.59.34.887.508.049.029.07.059.068.117-.004.114-.003.23 0 .346.001.049-.013.076-.059.1-.07.033-.14.07-.208.109-.046.027-.082.027-.128-.002-.178-.11-.358-.217-.539-.324-.021-.014-.044-.025-.081-.045v.092c0 .367-.001.734.001 1.102 0 .051-.015.082-.057.11-.11.062-.219.14-.335.223z"/><path d="m14.378 86.427c.097 0 .193-.002.292.001.043.001.07-.011.092-.054.082-.158.167-.314.252-.472.026-.045.022-.08-.001-.123-.092-.168-.18-.339-.272-.505-.015-.025-.054-.052-.082-.052-.196-.005-.394-.005-.59 0-.028 0-.07.022-.086.047-.103.173-.202.351-.296.526-.014.023-.012.067.001.091.101.164.205.323.306.485.024.043.055.057.102.055.094-.003.189.001.282.001z"/><path d="m38.042 83.731c-.065-.134-.131-.262-.189-.394-.011-.024-.002-.066.014-.094.176-.32.354-.643.533-.963.014-.025.028-.049.048-.087-.077.001-.143.003-.207.007-.173.004-.346.008-.519.019-.054.003-.082-.015-.104-.063-.038-.081-.086-.155-.122-.237-.014-.026-.013-.071.001-.1.046-.094.104-.183.149-.275.026-.053.061-.068.117-.069.341-.003.681-.011 1.022-.013.051-.002.078-.018.104-.063.109-.204.223-.404.335-.605.01-.019.019-.037.032-.067-.311.013-.609.022-.926.037.144-.259.28-.507.425-.767-.084-.004-.152-.006-.219-.009-.202-.008-.404-.012-.605-.022-.055-.002-.084.014-.111.063-.169.311-.344.62-.514.93-.024.047-.054.069-.107.073-.09.005-.179.015-.267.028-.048.008-.068-.007-.096-.05-.111-.181-.1-.339.023-.509.099-.136.166-.291.254-.448-.043-.003-.072-.007-.104-.007-.361.002-.723.002-1.085.007-.063.001-.104-.019-.139-.065-.078-.104-.159-.201-.241-.301-.03-.034-.031-.061-.008-.098.063-.108.125-.219.183-.33.024-.047.055-.061.105-.062.377-.002.754-.007 1.132-.009.027-.001.056-.002.1-.002-.096-.137-.183-.26-.271-.383-.059-.081-.119-.16-.171-.244-.015-.021-.018-.064-.006-.089.054-.104.11-.208.173-.308.015-.025.053-.05.083-.051.122-.006.246.001.368-.001.05-.001.076.017.101.06.181.313.364.625.544.938.027.047.056.064.109.063.246-.01.493-.017.756-.023-.149-.25-.292-.49-.442-.745.287-.015.559-.026.845-.041-.048-.083-.091-.155-.134-.225-.084-.14-.172-.276-.252-.418-.031-.056-.066-.067-.125-.066-.349.011-.697.017-1.045.025-.051.001-.082-.013-.11-.056-.06-.091-.122-.177-.188-.263-.031-.04-.03-.069-.005-.112.054-.09.104-.182.151-.274.022-.043.049-.06.099-.06.23 0 .461-.002.691-.004.021 0 .04-.003.072-.005-.102-.159-.197-.313-.293-.466-.115-.184-.229-.363-.346-.544-.025-.039-.032-.069-.006-.114.064-.107.125-.218.184-.33.021-.037.044-.057.092-.052.135.015.272.021.407.036.029.003.064.029.081.057.204.318.401.639.603.959.014.021.028.043.053.078.02-.035.032-.059.046-.082.103-.187.204-.373.311-.556.02-.032.06-.06.094-.067.081-.021.166-.027.248-.045.043-.009.066 0 .087.04.053.097.106.193.165.285.028.046.023.079-.002.123-.182.31-.359.621-.542.931-.028.051-.032.086-.002.135.133.218.263.437.4.668.144-.258.28-.502.427-.767.169.263.327.507.49.761.017-.025.031-.043.041-.062.113-.201.223-.404.338-.604.026-.045.024-.078-.002-.121-.177-.291-.351-.584-.528-.875-.029-.049-.033-.086-.002-.137.057-.089.102-.184.157-.271.016-.026.053-.051.083-.055.109-.012.238-.053.324-.009.082.04.119.17.173.263.076.131.151.264.237.412.019-.035.031-.06.045-.082.178-.32.357-.642.535-.965.025-.047.057-.064.108-.07.133-.01.267-.025.402-.039.063.131.13.259.188.391.012.025.001.072-.015.1-.174.319-.354.637-.53.957-.015.023-.027.049-.048.086.031.002.053.004.075.004.246.008.493.017.738.02.048 0 .075.018.1.059.062.104.127.203.194.306.024.038.024.067.001.106-.048.081-.096.163-.138.248-.022.045-.052.057-.1.053-.4-.019-.801-.033-1.201-.055-.063-.003-.093.016-.122.069-.117.216-.239.431-.367.661.308-.002.603-.002.913-.002-.146.264-.286.515-.433.779.043.002.068.006.093.006.241.01.481.017.722.028.063.002.094-.019.123-.071.184-.336.372-.67.557-1.006.025-.047.053-.07.108-.068.09.003.193-.032.263.005.068.036.097.143.149.214.043.059.037.104.002.163-.121.209-.235.421-.36.644.038.004.064.008.092.008.386.008.771.017 1.156.02.057 0 .09.018.116.068.058.106.119.209.184.313.024.042.021.075-.002.115-.058.095-.111.191-.161.289-.024.047-.055.061-.105.061-.363.002-.728.008-1.092.012-.027 0-.056.002-.095.004.131.209.253.412.38.608.035.054.036.095.001.148-.053.086-.098.18-.152.267-.014.022-.051.043-.077.045-.101.004-.199-.006-.3-.004-.051 0-.079-.02-.104-.063-.184-.313-.372-.627-.555-.941-.029-.05-.059-.068-.117-.063-.227.019-.45.031-.675.047-.031.002-.063.006-.107.01.132.245.259.48.394.73-.286.006-.562.011-.849.017.017.03.028.05.04.069.131.195.263.392.393.588.026.041.056.055.103.055.351.002.702.008 1.054.005.081 0 .124.027.156.097.037.084.089.162.128.244.013.027.014.07 0 .1-.044.092-.1.179-.146.269-.021.044-.051.06-.099.058-.208 0-.414 0-.621 0-.021 0-.04.002-.072.002.021.039.036.067.053.099.171.303.342.606.516.909.028.048.033.085.002.136-.06.097-.113.194-.165.296-.023.046-.05.063-.104.057-.136-.02-.271-.033-.406-.045-.055-.005-.088-.025-.117-.074-.188-.309-.382-.614-.573-.922-.012-.02-.025-.037-.049-.067-.024.045-.044.08-.063.116-.097.171-.192.342-.286.516-.023.044-.051.066-.103.07-.078.007-.155.017-.232.029-.049.01-.071-.009-.09-.051-.042-.096-.124-.189-.123-.283 0-.092.085-.182.134-.271.134-.244.271-.486.403-.729.015-.026.02-.074.006-.099-.146-.229-.293-.459-.44-.688-.004-.006-.012-.01-.024-.02-.129.23-.255.457-.394.704-.164-.265-.317-.515-.477-.772-.017.021-.029.034-.038.053-.115.205-.229.412-.347.617-.024.045-.019.074.007.113.177.292.35.585.526.876.03.048.035.086.004.136-.06.1-.115.199-.168.303-.021.043-.049.062-.099.059-.078-.006-.157-.007-.235-.005-.053.001-.085-.017-.111-.063-.103-.185-.208-.364-.313-.547-.013-.021-.027-.043-.049-.08-.02.034-.031.06-.045.082-.179.32-.358.642-.534.963-.025.045-.052.063-.103.067-.134.002-.266.017-.408.032z"/><path d="m40.115 80.08c.085.049.171.094.254.145.039.021.067.023.106-.002.148-.1.298-.195.449-.289.043-.027.058-.061.058-.109.001-.191.009-.383.008-.574 0-.026-.022-.069-.047-.084-.17-.1-.342-.194-.516-.287-.025-.014-.072-.015-.098 0-.173.103-.347.209-.517.316-.021.014-.042.055-.042.08.007.191.022.382.03.572.003.049.021.076.063.098.088.041.17.089.252.134z"/><path d="m48.747 63.125c-.122-.086-.24-.166-.355-.253-.021-.016-.034-.057-.035-.086-.001-.367-.001-.734-.001-1.102 0-.029 0-.057 0-.1-.066.04-.123.073-.177.106-.148.089-.298.177-.445.268-.044.029-.078.027-.118-.003-.073-.051-.152-.095-.223-.148-.023-.018-.045-.057-.047-.087-.005-.105.001-.21-.003-.314-.003-.059.019-.09.068-.117.296-.169.591-.34.887-.509.044-.026.061-.053.061-.105-.003-.23-.001-.462-.001-.692 0-.02-.003-.041-.004-.075-.265.162-.521.319-.792.483 0-.295 0-.579 0-.876-.077.039-.137.069-.195.099-.182.092-.359.186-.54.275-.05.024-.067.053-.067.108.003.354 0 .708.003 1.062 0 .053-.014.087-.06.116-.076.048-.147.101-.219.155-.039.029-.063.028-.107.002-.184-.102-.25-.246-.227-.457.021-.165.004-.333.004-.515-.038.019-.066.031-.094.046-.314.176-.632.352-.944.532-.055.031-.099.035-.154.01-.117-.051-.236-.1-.356-.145-.042-.016-.055-.038-.054-.081.002-.126.003-.252-.001-.378-.001-.054.019-.08.063-.103.329-.187.657-.374.985-.561.024-.013.048-.028.085-.05-.149-.071-.286-.137-.422-.202-.089-.042-.182-.082-.269-.13-.023-.012-.048-.048-.048-.074-.004-.118-.006-.236 0-.354.001-.029.024-.068.05-.083.104-.065.216-.119.321-.181.042-.024.074-.021.116.002.311.187.623.37.932.556.047.028.08.029.128.001.209-.13.422-.254.647-.389-.252-.146-.494-.288-.749-.436.243-.152.475-.297.718-.449-.083-.048-.153-.089-.227-.131-.142-.081-.284-.158-.423-.242-.054-.032-.091-.027-.143.004-.299.177-.602.351-.901.529-.043.025-.078.028-.123.005-.096-.05-.192-.096-.291-.138-.045-.02-.061-.047-.06-.096.003-.104.004-.21 0-.314-.002-.049.015-.075.057-.099.202-.112.401-.227.602-.341.019-.01.034-.021.063-.038-.167-.091-.325-.179-.483-.265-.188-.103-.377-.206-.567-.306-.042-.022-.062-.046-.061-.097.004-.125.003-.251.001-.378-.001-.044.01-.07.054-.09.125-.054.248-.115.374-.167.027-.012.072-.005.1.009.332.18.663.363.991.545.023.012.047.022.084.042 0-.04 0-.066 0-.093 0-.213-.002-.425.002-.637 0-.036.024-.08.05-.104.061-.058.132-.104.194-.16.033-.03.059-.032.096-.007.093.06.187.117.282.169.047.025.059.057.058.107-.008.359-.013.719-.021 1.078-.001.057.014.09.063.119.222.124.44.252.674.388 0-.294 0-.575 0-.877.275.147.532.285.798.426.002-.03.006-.052.006-.073 0-.231-.001-.462.001-.693 0-.052-.017-.08-.061-.104-.296-.169-.591-.34-.887-.508-.05-.028-.07-.06-.067-.118.004-.104-.002-.21.003-.315.002-.03.023-.069.047-.086.089-.064.184-.162.279-.166.09-.004.187.091.279.146.131.076.259.156.405.244 0-.039 0-.066 0-.093 0-.367.001-.734-.001-1.102 0-.053.019-.086.063-.115.11-.074.219-.152.332-.23.12.084.238.164.353.251.023.018.036.061.037.092.002.365.001.73.001 1.094v.098c.028-.013.049-.021.068-.031.218-.114.438-.227.653-.344.042-.023.074-.021.116.001.104.061.21.119.318.174.041.021.055.047.054.093-.003.094-.004.188 0 .283.002.05-.019.074-.061.095-.36.178-.718.359-1.077.536-.058.028-.074.059-.073.12.003.246.001.492.001.756.268-.149.524-.294.796-.446v.891c.041-.018.063-.027.086-.038.215-.109.43-.222.646-.328.056-.027.071-.061.071-.122-.003-.382-.001-.765-.002-1.148 0-.053.013-.087.063-.113.079-.041.154-.123.23-.124.078-.002.155.078.236.113.065.03.082.072.081.142-.005.241-.001.482-.001.739.034-.016.058-.027.082-.039.341-.182.681-.362 1.019-.545.052-.027.089-.028.138.003.1.065.206.126.312.184.042.024.055.054.052.102-.001.11-.003.221.003.33.001.053-.021.08-.063.104-.318.179-.634.361-.95.541-.023.014-.048.03-.081.049.217.12.421.236.629.348.056.03.076.066.073.129-.005.102.003.204-.004.306-.001.028-.023.064-.045.078-.086.051-.177.093-.264.142-.044.025-.078.022-.123-.003-.314-.186-.629-.367-.943-.553-.05-.03-.084-.03-.134.002-.188.126-.377.246-.566.369-.025.018-.052.035-.089.06.235.15.461.295.7.449-.249.145-.486.282-.735.426.03.017.049.03.069.041.209.107.42.215.628.324.043.022.074.02.115-.003.308-.169.618-.334.924-.507.07-.04.122-.037.183.009.074.054.157.096.23.15.024.019.047.056.048.085.007.102 0 .204.004.307.002.049-.017.075-.058.097-.183.1-.362.202-.543.303-.019.01-.034.021-.062.036.036.023.063.042.092.059.299.182.595.365.894.543.048.03.071.059.067.118-.005.112-.004.225-.001.338.002.052-.013.08-.063.1-.126.049-.252.104-.376.16-.051.023-.091.019-.139-.008-.315-.177-.632-.352-.949-.527-.021-.011-.041-.019-.075-.037v.133c0 .197-.003.394 0 .59.001.05-.011.084-.054.112-.065.043-.13.09-.19.139-.038.032-.065.028-.104 0-.083-.063-.2-.106-.245-.189-.043-.079-.015-.199-.015-.301-.001-.277.001-.556-.002-.834 0-.03-.019-.074-.043-.087-.237-.133-.479-.26-.72-.388-.007-.003-.015-.003-.031-.006v.806c-.271-.152-.528-.294-.793-.441-.003.025-.008.044-.008.063 0 .236.001.472-.001.708-.001.051.02.075.06.098.297.168.591.34.888.509.048.027.07.057.067.116-.005.115-.003.23 0 .346.001.048-.012.077-.058.099-.07.033-.14.071-.208.11-.045.028-.082.026-.129-.002-.178-.111-.358-.217-.539-.324-.021-.014-.044-.026-.081-.046v.092c0 .367-.001.734.001 1.103 0 .05-.014.081-.057.108-.11.078-.218.157-.336.238zm.038-4.197c.098 0 .193-.002.291 0 .044.002.07-.011.092-.053.082-.159.166-.315.252-.471.023-.045.021-.081-.002-.124-.092-.168-.181-.339-.273-.505-.014-.025-.053-.052-.082-.052-.195-.004-.393-.004-.589 0-.03 0-.071.023-.086.047-.103.174-.201.35-.297.527-.013.024-.011.067.002.091.1.163.205.323.305.486.026.041.056.055.103.053.095-.002.189.001.284.001z"/><path d="m18.113 74.642c-.121-.085-.24-.165-.354-.253-.021-.017-.035-.058-.035-.086-.001-.367-.001-.735-.001-1.103 0-.029 0-.057 0-.099-.067.039-.123.071-.178.104-.149.088-.298.176-.445.269-.044.028-.078.026-.12-.003-.071-.053-.15-.094-.222-.146-.024-.021-.045-.059-.047-.09-.005-.104.001-.21-.003-.313-.002-.06.02-.09.067-.117.296-.169.592-.342.888-.51.044-.024.061-.053.061-.104-.002-.23-.001-.463-.001-.693 0-.02-.003-.039-.005-.072-.265.16-.521.316-.792.482 0-.297 0-.578 0-.877-.076.038-.136.067-.195.1-.181.092-.358.186-.54.273-.049.024-.066.053-.066.108.003.354 0 .708.003 1.063 0 .053-.014.086-.061.115-.074.047-.147.1-.218.154-.039.029-.063.027-.107.001-.184-.103-.25-.247-.227-.456.021-.165.004-.335.004-.516-.039.02-.066.031-.093.045-.315.178-.632.354-.945.533-.054.031-.098.034-.153.01-.118-.051-.236-.098-.357-.145-.042-.017-.055-.037-.054-.081.002-.126.003-.251-.001-.378-.002-.053.019-.079.062-.104.33-.187.657-.372.985-.56.023-.014.048-.028.085-.051-.15-.071-.286-.137-.422-.202-.089-.043-.183-.082-.269-.13-.022-.013-.047-.048-.047-.073-.005-.117-.006-.236 0-.354.001-.029.024-.068.049-.083.105-.063.217-.119.322-.182.042-.023.074-.021.115.004.311.187.623.369.933.556.046.028.08.028.127 0 .21-.128.422-.251.648-.388-.251-.146-.494-.287-.749-.437.244-.149.475-.297.718-.446-.083-.049-.154-.092-.226-.132-.142-.081-.285-.157-.425-.241-.052-.033-.091-.027-.142.002-.299.18-.602.354-.902.53-.043.024-.077.029-.123.007-.095-.051-.191-.097-.291-.14-.045-.021-.06-.047-.059-.096.003-.104.004-.21 0-.314-.002-.049.013-.073.056-.099.202-.112.402-.227.604-.342.018-.01.034-.021.061-.039-.166-.09-.323-.178-.482-.264-.188-.104-.376-.205-.567-.308-.041-.021-.062-.046-.061-.097.004-.125.003-.252.001-.377-.001-.045.01-.072.054-.092.126-.053.248-.115.375-.166.027-.012.071-.006.099.01.332.18.663.363.992.545.023.013.045.022.084.044 0-.04 0-.067 0-.095 0-.213-.002-.426.003-.639 0-.033.023-.079.049-.104.062-.059.133-.104.195-.159.033-.029.059-.032.095-.009.093.061.188.117.284.17.046.025.059.058.058.107-.009.358-.013.719-.021 1.078-.001.057.013.09.064.117.222.125.439.254.674.389 0-.294 0-.574 0-.875.273.146.532.283.797.426.003-.03.007-.054.007-.073 0-.231-.001-.462.001-.693 0-.052-.017-.078-.061-.104-.296-.166-.591-.34-.888-.508-.049-.027-.069-.06-.066-.117.005-.104-.001-.211.003-.313.001-.03.021-.069.047-.088.089-.063.183-.161.278-.166.091-.004.187.092.278.146.131.078.261.156.407.244 0-.037 0-.064 0-.092 0-.367.001-.734-.001-1.103 0-.056.019-.087.062-.116.111-.072.22-.15.332-.229.119.082.239.162.354.25.023.018.036.062.036.092.003.365.002.73.002 1.096v.098c.028-.013.049-.021.067-.029.219-.114.438-.229.653-.346.043-.021.075-.021.116.002.104.062.209.117.317.174.041.021.055.047.054.093-.003.095-.004.188 0 .282.001.052-.02.074-.063.097-.358.178-.717.358-1.076.536-.058.027-.074.059-.074.119.004.246.002.492.002.756.268-.149.523-.293.797-.445v.893c.039-.019.063-.027.085-.039.215-.108.428-.221.645-.328.056-.026.072-.061.072-.12-.003-.384-.001-.767-.002-1.148-.001-.054.012-.089.063-.114.079-.039.152-.121.23-.123.077-.002.155.078.235.113.064.029.083.073.082.143-.004.24-.002.48-.002.738.035-.018.06-.027.083-.039.341-.182.68-.36 1.019-.545.051-.027.087-.027.136.004.102.063.206.125.312.184.043.023.055.054.054.101-.003.111-.004.222 0 .331.002.053-.019.079-.062.104-.318.18-.633.361-.95.541-.024.014-.047.029-.081.051.217.12.422.236.629.347.057.03.077.065.074.128-.005.104.001.205-.004.309-.001.027-.022.063-.046.076-.084.052-.177.094-.263.143-.044.025-.079.021-.123-.003-.313-.187-.63-.367-.942-.552-.049-.03-.084-.032-.133 0-.188.127-.377.248-.566.369-.026.018-.052.035-.089.062.235.149.46.295.7.448-.248.144-.486.281-.734.427.03.019.049.028.069.04.21.107.42.215.629.324.043.021.074.021.116-.004.307-.17.616-.334.922-.506.07-.041.122-.039.184.008.074.055.157.097.23.149.023.019.046.056.048.086.006.103 0 .205.004.306.001.05-.017.076-.059.1-.183.1-.362.201-.542.302-.019.011-.035.021-.063.037.036.022.064.042.092.06.298.183.594.365.895.545.048.027.07.058.067.117-.006.111-.005.226-.001.338.002.053-.014.08-.063.1-.127.05-.253.104-.377.16-.05.023-.09.02-.14-.008-.314-.178-.632-.354-.948-.527-.021-.01-.041-.021-.076-.036v.133c0 .196-.001.395.001.591 0 .049-.011.084-.054.111-.065.043-.13.09-.19.141-.038.029-.066.025-.104-.002-.083-.063-.2-.105-.245-.188-.042-.079-.015-.199-.015-.3-.001-.278.001-.557-.002-.836 0-.029-.019-.073-.042-.086-.238-.133-.479-.26-.72-.389-.007-.004-.015-.004-.031-.007v.808c-.271-.152-.529-.295-.793-.442-.004.024-.008.045-.008.063 0 .234.001.471-.002.707-.001.051.02.073.06.099.296.168.592.34.888.509.048.027.07.057.067.116-.004.114-.003.23 0 .346.001.049-.012.077-.058.099-.07.033-.142.069-.208.109-.045.027-.083.025-.129-.001-.179-.11-.359-.218-.539-.324-.021-.014-.044-.026-.081-.046v.092c0 .367-.001.734 0 1.103.001.051-.013.082-.056.11-.113.067-.221.145-.338.227z"/><path d="m18.15 70.445c.099 0 .194-.003.292 0 .044.001.071-.012.093-.053.082-.158.165-.316.252-.471.023-.047.021-.082-.002-.125-.093-.168-.18-.338-.273-.506-.014-.024-.053-.051-.082-.051-.196-.006-.393-.006-.589 0-.029 0-.071.022-.085.047-.104.174-.202.352-.297.527-.014.023-.013.066.001.09.1.165.205.323.305.486.025.041.056.056.104.054.093-.001.187.002.281.002z"/><path d="m43.471 106.487c-2.518-.948-5.107-1.569-7.792-1.771-1.122-.082-2.245-.082-3.368-.035.412.281.813.58 1.205.892.627-.005 1.255.001 1.883.034 2.695.143 5.313.807 7.831 1.755.549.206.784-.671.241-.875z"/><path d="m73.517 104.893c2.469-.317 4.738-1.537 7.223-1.729.284-.022.563-.02.839.004.361-.263.727-.494 1.095-.696-.62-.151-1.259-.24-1.934-.216-2.423.091-4.639 1.353-7.021 1.69-2.565.365-4.88-.804-7.414-.938-2.456-.129-4.967.51-7.324 1.111-2.58.657-5.126 1.332-7.767 1.709-2.662.377-5.36.459-8.045.461-.586.002-.586.909 0 .907 2.629-.004 5.252-.104 7.861-.438 2.587-.33 5.097-.95 7.613-1.614 2.495-.658 5.063-1.299 7.66-1.228 2.471.067 4.707 1.3 7.214.977z"/></g><path d="m40.827 94.647c-.017-.065-.042-.129-.084-.187-.033-.047-.071-.088-.11-.125-.004-.014-.009-.024-.016-.037-.06-.188-.222-.348-.426-.338-.006 0-.012 0-.019 0 0-.107-.025-.197-.072-.295-.008-.018-.017-.033-.025-.052 0-.005 0-.009 0-.013-.004-.125-.084-.236-.208-.27-.049-.013-.1-.012-.146.004-.012-.01-.024-.021-.036-.031-.027-.061-.057-.121-.089-.18-.063-.115-.165-.193-.279-.234-.075-.135-.169-.273-.2-.374-.052-.154-.156-.279-.296-.345-.139-.176-.381-.24-.593-.178-.041-.06-.08-.119-.118-.181-.126-.237-.247-.479-.375-.719-.093-.177-.253-.253-.418-.261.008-.205-.023-.412-.061-.608-.065-.347-.239-.702-.555-.88-.29-.165-.583-.049-.751.188-.022-.002-.046-.004-.069-.004-.135.001-.259.047-.359.123-.008.001-.016.002-.024.005-.364.101-.507.446-.448.792.064.387.097.838.193 1.264.025.115.093.216.181.291-.087.069-.149.17-.183.283l-.01-.002c-.005.043-.011.084-.016.125 0 .002-.001.006-.001.008 0 .01-.001.019-.002.025-.004.033-.007.066-.011.1-.009.082-.019.164-.027.246-.077.024-.15.078-.208.16-.243.35-.245.803-.135 1.198.002.009.005.015.006.022-.001.22.052.459.138.672-.001.035.002.07.014.106.017.052.035.103.061.149-.133.023-.247.115-.319.259-.036.07-.051.14-.048.2-.221.21-.428.431-.531.729-.063.186.017.385.094.551.05.107.074.119.074.228 0 .044-.004.087-.006.13-.096.18.04.451.263.436.214-.017.426-.045.639-.065.077-.01.144-.041.188-.092.263.022.528.092.766.108.255.02.557-.068.72-.272.007-.011.015-.019.022-.027.128-.17.167-.329.135-.508.106-.039.193-.126.24-.237.517-.142 1.051-.144 1.545-.384.008.05.021.097.041.14-.056.121-.024.282.143.313.018.003.034.006.052.008.045.086.123.151.219.177.301.074.603-.006.797-.256.105-.137.169-.293.229-.447.038-.041.07-.086.095-.131.074-.043.123-.092.177-.168.02-.029.031-.062.037-.094.021-.01.043-.021.063-.033.085-.049.125-.121.131-.195.02-.019.038-.036.059-.055.019-.019.042-.037.064-.055.021-.016.056-.025.018-.021.142-.01.233-.105.244-.246.014-.241-.126-.43-.374-.44zm-2.244-.203c.006-.008.011-.018.016-.026.005.014.01.026.015.039-.01-.004-.02-.008-.031-.013z" fill="#fff"/><path d="m38.866 96.548c-.01.003-.016.004-.021.006-.166.053-.337.076-.509.101-.096.013-.19.026-.285.044-.12.022-.233.066-.344.116-.132.06-.262.123-.394.185-.062.028-.126.054-.192.082-.001.002-.004.01-.005.016-.039.193-.149.332-.315.43-.125.075-.263.114-.408.135-.198.025-.396.015-.59-.026-.164-.035-.327-.039-.491-.02-.139.019-.275.04-.416.061-.099.014-.198.026-.298.021-.022-.001-.046-.003-.071-.006-.157-.025-.258-.117-.304-.27-.03-.101-.032-.203-.029-.308.001-.04.006-.079.003-.12-.004-.067-.031-.13-.058-.191-.037-.09-.077-.176-.111-.266-.076-.195-.031-.385.12-.526.032-.03.066-.054.102-.08.019-.015.04-.028.061-.042.15-.104.18-.141.246-.313.035-.094.067-.188.119-.271.01-.018.002-.031-.003-.047-.02-.049-.04-.101-.055-.15-.071-.234-.092-.475-.081-.719.011-.305.067-.604.147-.898.089-.332.208-.654.347-.969.093-.207.146-.424.165-.65.015-.151.001-.305-.018-.457-.024-.188-.085-.361-.147-.537-.078-.228-.155-.457-.201-.692-.033-.171-.053-.345-.038-.519.027-.381.206-.672.526-.873.188-.119.395-.194.609-.246.119-.026.241-.041.363-.036.305.009.558.13.766.35.124.131.219.281.3.438.106.211.184.431.25.654.043.145.084.287.119.435.068.294.22.536.439.741.109.103.227.193.349.283.15.109.303.215.452.327.262.199.503.421.713.675.149.183.277.375.374.59.12.266.182.543.172.836v.029c0 .002 0 .004.001.01.009.002.02.004.028.006.119.021.215.076.29.171.055.067.095.146.138.223.036.063.074.125.112.187.027.045.068.08.114.11.089.058.175.119.25.195.05.051.09.106.114.174.031.085.024.167-.015.248-.032.069-.079.129-.135.183-.075.072-.152.144-.23.215-.099.089-.198.178-.286.277-.077.09-.14.188-.189.297-.096.202-.224.383-.399.524-.099.08-.208.144-.33.181-.377.108-.667-.085-.806-.298-.004-.011-.008-.017-.015-.026zm-3.419-1.709c-.014-.01-.022-.016-.03-.022-.062-.052-.115-.11-.161-.176-.12-.173-.175-.366-.193-.572-.018-.198 0-.393.04-.588.021-.106.044-.215.064-.321.007-.033.009-.068.012-.102 0-.007-.004-.016-.006-.021-.002 0-.006 0-.008-.002-.005.014-.011.024-.015.036-.021.086-.046.171-.068.257-.054.209-.093.42-.105.635-.011.205.001.408.071.605.068.197.188.354.367.467.099.063.207.105.317.139.213.063.421.143.614.256.105.063.204.133.287.226.044.05.081.104.104.167.033.096.011.188-.065.251-.026.021-.059.038-.089.056-.021.011-.042.019-.068.027.014.012.025.021.035.028.089.067.178.137.266.208.024.02.048.033.078.042.391.118.771.085 1.136-.087.281-.133.516-.327.714-.564.014-.016.02-.031.02-.05-.001-.063.001-.126.001-.188 0-.129-.008-.256-.039-.383-.036-.152-.068-.31-.086-.468-.012-.112-.019-.226-.002-.339.023-.148.084-.275.207-.369.016-.012.017-.023.016-.042-.002-.045-.006-.092 0-.137.011-.087.059-.149.137-.188.045-.024.094-.039.146-.046.214-.024.42.013.62.084.047.017.089.04.126.073.042.04.069.087.073.146 0 .012.002.023.004.035.023-.006.046-.012.066-.019.005-.095-.023-.173-.092-.237-.048-.047-.105-.078-.167-.104-.125-.051-.254-.078-.387-.102-.012-.002-.024-.005-.037-.007-.001-.008-.002-.014-.002-.021-.009-.198-.065-.383-.161-.557-.2-.365-.491-.641-.854-.844-.01-.005-.019-.012-.027-.013-.008-.003-.021-.001-.025.005s-.002.021.004.025c.018.018.036.032.058.047.039.023.08.045.118.07.18.121.331.272.456.45.132.187.224.39.249.617.007.067.009.137 0 .204-.064.009-.127.019-.192.027-.014-.026-.028-.055-.042-.082-.164-.313-.373-.593-.615-.851-.423-.452-.793-.944-1.113-1.476-.004-.006-.011-.012-.018-.021-.06.146-.158.253-.282.337-.052.035-.098.077-.14.124-.046.05-.092.103-.142.149-.079.078-.172.135-.278.169-.146.046-.288.044-.427-.021-.034-.016-.068-.031-.102-.049-.083-.047-.174-.068-.263-.098-.003-.002-.006 0-.012.001.001.009.002.019.003.024.011.08.024.16.033.24.019.208.011.417-.007.624-.023.298-.069.591-.118.884-.027.16-.058.32-.068.483-.018.231-.013.463.022.69.011.093.027.173.042.259zm1.085 2.671c.103-.026.197-.069.282-.136.104-.078.172-.18.19-.31.021-.155-.008-.298-.111-.422-.075-.091-.159-.171-.253-.242-.125-.095-.251-.187-.376-.278-.09-.065-.178-.134-.255-.213-.162-.166-.324-.332-.485-.5-.07-.074-.153-.132-.247-.174-.044-.02-.091-.035-.139-.043-.16-.021-.289.029-.366.178-.021.043-.042.084-.059.129-.027.064-.052.129-.077.195-.041.104-.111.186-.202.249-.019.015-.039.026-.058.041-.05.036-.104.071-.149.112-.093.086-.133.191-.105.318.012.051.027.102.048.149.033.083.073.166.107.25.032.079.05.162.041.249-.003.036-.004.071-.004.107 0 .07.005.143.024.211.031.111.104.177.22.189.025.004.049.004.075.004.104.002.208-.018.312-.033.12-.018.239-.037.359-.051.177-.021.354-.017.528.023.043.01.085.018.129.021.192.031.383.028.571-.023zm2.356-3.41c-.007.008-.013.012-.017.016-.01.009-.019.019-.025.027-.056.065-.085.146-.097.231-.013.084-.011.166-.003.25.017.177.055.351.093.523.021.1.038.197.038.299.001.146-.001.292-.001.439 0 .146.006.293.036.438.028.139.099.249.211.334.148.114.315.147.498.103.129-.032.239-.099.34-.183.152-.131.266-.291.349-.473.054-.119.125-.229.211-.326.104-.119.222-.223.338-.326.067-.061.134-.121.196-.186.034-.034.063-.074.087-.116.042-.069.04-.142-.004-.208-.028-.043-.058-.084-.098-.117-.063-.057-.129-.106-.197-.154-.068-.047-.128-.1-.171-.17-.037-.061-.071-.123-.106-.186-.04-.072-.078-.145-.133-.207-.08-.089-.179-.127-.295-.111-.061.006-.119.027-.179.041-.025.006-.04.021-.051.043-.092.156-.214.285-.374.373-.155.086-.311.067-.444-.049-.058-.051-.104-.111-.14-.178-.021-.039-.04-.081-.062-.127zm-2.604-2.343c.1-.024.183-.066.251-.129.058-.055.11-.11.165-.17.049-.055.103-.104.163-.146.088-.06.16-.133.216-.226.025-.045.046-.092.056-.143.022-.119-.028-.215-.144-.259-.037-.015-.076-.022-.116-.028-.076-.01-.153-.016-.23-.021-.076-.007-.149-.019-.225-.039-.067-.019-.136-.031-.204-.039-.129-.017-.254.001-.37.065-.1.056-.176.136-.233.232-.049.082-.105.158-.166.232-.024.031-.049.063-.072.096-.012.016-.021.027-.03.044-.03.058-.033.114-.003.172.021.043.054.077.092.104.065.049.139.08.217.101.065.019.128.042.188.073.03.016.062.031.093.046.116.061.236.07.352.035zm.638-1.163c.008-.025.02-.052.024-.077.06-.264-.007-.491-.196-.684-.058-.057-.125-.095-.203-.113-.146-.038-.271 0-.373.111-.073.082-.109.182-.121.289-.016.127.005.248.055.362.08.004.159.009.236.013 0-.002.001-.002.001-.004-.003-.009-.007-.019-.009-.027-.028-.082-.04-.162-.022-.246.008-.04.022-.077.047-.108.047-.06.113-.073.181-.043.038.021.066.045.091.077.054.068.081.146.092.232.006.063.003.123-.035.177-.003.004-.004.011-.007.018.081.009.157.014.239.023zm-1.131-.018c-.03-.146-.091-.277-.2-.382-.043-.041-.092-.071-.149-.09-.099-.033-.196 0-.257.084-.041.06-.063.123-.069.19-.013.119.007.23.049.338.038.097.094.183.171.253.023.021.051.038.079.059.031-.042.06-.077.09-.118-.046-.021-.079-.051-.106-.088-.045-.062-.07-.131-.082-.205-.008-.052-.006-.104.02-.15.024-.049.072-.065.123-.045.032.013.058.033.081.06.049.056.077.118.094.188.003.01.006.02.009.028.048-.042.096-.081.147-.122z" fill="#171650"/><path d="m36.167 91.518c-.111.03-.227.028-.342.002-.105-.022-.203-.067-.299-.118-.02-.01-.039-.02-.057-.029-.023-.014-.041-.033-.047-.061-.002-.007 0-.021.004-.023.007-.004.02-.006.027-.002.012.004.024.012.032.022.021.024.048.041.077.054.069.03.138.065.208.092.211.073.41.049.595-.08.13-.092.249-.196.347-.32.024-.032.049-.066.076-.098.024-.031.047-.064.061-.104.003-.011.011-.022.02-.03.01-.011.025-.015.036-.005.008.006.011.021.007.03-.011.025-.02.052-.035.072-.048.065-.094.135-.147.193-.101.111-.211.211-.336.297-.069.048-.143.086-.227.108z" fill="#171650"/><path d="m36.105 90.716c.008-.012.013-.021.019-.025.028-.021.107-.025.139-.005.017.012.021.026.005.039-.014.014-.032.022-.051.017-.027-.011-.054-.017-.083-.015-.008 0-.015-.006-.029-.011z" fill="#171650"/><path d="m35.857 90.759c.007 0 .022-.002.036.001.017.004.019.016.007.026-.003.004-.007.008-.011.01-.024.012-.041.027-.056.048-.012.017-.028.02-.046.02-.028-.003-.038-.021-.021-.043.021-.029.05-.049.091-.062z" fill="#171650"/><path d="m9.826 38.141v53.121l46.071 26.559 46.074-26.559v-53.121l-46.073-26.561zm90.281 1.08v50.971l-44.209 25.489-44.211-25.489v-50.971l44.211-25.489z" opacity=".13"/></svg>