<svg enable-background="new 0 0 110.979 128.417" viewBox="0 0 110.979 128.417" xmlns="http://www.w3.org/2000/svg"><path d="m55.514 127.944-55.402-31.987v-63.973l55.402-31.987 55.403 31.987v63.973z" fill="#0a0f44"/><path d="m56.36 117.486-45.529-26.286v-52.573l45.529-26.286 45.529 26.286v52.573z" fill="#040933"/><path d="m72.768 69.154h11.539c.71 0 .712-1.104 0-1.104-3.846 0-7.692 0-11.539 0-.711 0-.712 1.104 0 1.104z" fill="#15ffab"/><path d="m72.955 67.22h11.227c.71 0 .712-1.104 0-1.104-3.742 0-7.484 0-11.227 0-.711 0-.712 1.104 0 1.104z" fill="#15ffab"/><path d="m55.513 10.121-46.704 26.926v53.85l46.704 26.923 46.706-26.923v-53.85zm44.815 79.691-44.815 25.839-44.817-25.839v-51.67l44.817-25.839 44.815 25.839z" fill="#15ffab"/><path d="m73.221 13.788-1.225-.701-.484.845 1.182.677-.285.499-1.182-.677-.958 1.674-.531-.304 2.013-3.517 1.756 1.005z" fill="#15ffab"/><path d="m73.793 15.177-1.27 2.219-.513-.293 1.27-2.219zm-.062-1.261c.051-.09.128-.148.231-.176s.2-.016.291.036c.092.053.153.131.181.233.029.101.017.198-.036.291s-.131.153-.234.181c-.101.029-.198.017-.291-.036s-.153-.131-.181-.234c-.028-.102-.015-.2.039-.295z" fill="#15ffab"/><path d="m74.442 15.548.513.293-.113.198c.151-.045.273-.065.367-.059.096.005.195.036.297.094.135.077.251.202.348.375l-.503.335c-.057-.125-.132-.215-.225-.268-.279-.16-.54-.029-.782.393l-.658 1.15-.513-.293z" fill="#15ffab"/><path d="m77.26 17.663-.553-.017c.011-.175-.032-.291-.131-.347-.047-.027-.096-.034-.147-.022s-.091.042-.119.091c-.049.085.002.226.151.422.205.273.326.485.364.638s.009.312-.087.479c-.122.214-.304.348-.544.402-.232.049-.456.011-.673-.113-.372-.213-.532-.545-.479-.997l.553.048c0 .141.008.235.023.282.029.093.087.165.174.214.173.099.305.07.395-.088.052-.091.034-.214-.055-.37-.037-.055-.074-.11-.112-.164s-.076-.109-.114-.165c-.107-.158-.17-.291-.189-.399-.024-.137.005-.278.088-.424.11-.193.268-.314.472-.365.207-.049.407-.018.6.092.285.163.412.431.383.803z" fill="#15ffab"/><path d="m78.334 18.411-.996 1.74-.512-.293.996-1.74-.219-.125.274-.478.219.125.466-.813.512.293-.466.813.399.228-.274.478z" fill="#15ffab"/><path d="m80.971 20.334-.817 1.428-.531-.304 2.013-3.517.601.344c.295.169.505.316.632.443.129.128.218.282.268.462.089.313.047.62-.125.921-.184.322-.438.515-.762.58-.323.065-.668-.007-1.034-.217zm.281-.492.198.113c.487.279.839.231 1.053-.144.208-.363.06-.688-.442-.976l-.175-.1z" fill="#15ffab"/><path d="m83.314 20.626.513.293-.113.198c.151-.045.273-.065.367-.059.096.005.195.036.297.094.135.077.251.202.348.375l-.503.335c-.057-.125-.132-.215-.224-.268-.28-.16-.54-.029-.782.393l-.658 1.15-.513-.293z" fill="#15ffab"/><path d="m85.571 21.918-1.27 2.219-.513-.293 1.27-2.219zm-.062-1.26c.051-.09.128-.148.231-.176s.2-.016.291.036c.092.053.153.131.18.233.029.101.017.198-.036.291s-.131.153-.234.181c-.101.029-.198.017-.29-.036-.093-.053-.153-.131-.181-.234s-.015-.201.039-.295z" fill="#15ffab"/><path d="m85.963 24.446 1.319.755-.276.483-2.335-1.336 2.433-.917-1.132-.648.274-.478 2.146 1.228z" fill="#15ffab"/><path d="m90.072 26.127-1.59-.91c-.091.19-.115.369-.071.537.044.166.148.296.312.39.127.073.25.103.368.09.117-.014.275-.073.473-.177l.295.489c-.132.076-.258.133-.38.171-.121.039-.239.06-.354.064s-.229-.01-.341-.043c-.113-.032-.227-.081-.342-.147-.331-.19-.536-.448-.615-.775-.078-.329-.016-.67.187-1.024.201-.351.461-.579.779-.685.318-.102.64-.06.963.125.326.187.525.439.596.755.07.314 0 .654-.209 1.02zm-.286-.721c.085-.314-.009-.55-.282-.706-.062-.036-.126-.06-.191-.072-.066-.012-.131-.013-.196-.003-.066.01-.128.031-.189.063s-.118.075-.171.129z" fill="#15ffab"/><path d="m14.193 84.537c0-5.832 0-11.663 0-17.495 0-.71-1.104-.712-1.104 0v17.495c0 .71 1.104.712 1.104 0z" fill="#15ffab"/><path d="m13.649 66.397c-.296 0-.591 0-.887 0-.71 0-.712 1.104 0 1.104h3.071c.71 0 .712-1.104 0-1.104-.041 0-.082 0-.123 0-.71 0-.712 1.104 0 1.104h18.373c.71 0 .712-1.104 0-1.104-6.124 0-12.248 0-18.373 0-.71 0-.712 1.104 0 1.104h.123c.71 0 .712-1.104 0-1.104-1.024 0-2.048 0-3.071 0-.71 0-.712 1.104 0 1.104h.887c.71 0 .711-1.104 0-1.104z" fill="#15ffab"/><path d="m33.605 84.444c0-5.707 0-11.414 0-17.121 0-.71-1.104-.712-1.104 0v17.121c0 .71 1.104.711 1.104 0z" fill="#fff"/><path d="m13.351 66.902c0-1.325 0-2.651 0-3.976 0-.71-1.104-.712-1.104 0v3.976c0 .71 1.104.711 1.104 0z" fill="#15ffab"/><path d="m12.845 63.384h21.19c.71 0 .712-1.104 0-1.104-7.063 0-14.127 0-21.19 0-.71 0-.711 1.104 0 1.104z" fill="#15ffab"/><path d="m34.588 66.949c0-1.31 0-2.619 0-3.929 0-.71-1.104-.712-1.104 0v3.929c0 .71 1.104.711 1.104 0z" fill="#15ffab"/><path d="m16.906 84.677c0-2.853 0-5.707 0-8.56 0-.71-1.104-.712-1.104 0v8.56c0 .711 1.104.712 1.104 0z" fill="#15ffab"/><path d="m16.26 76.622h3.602c.71 0 .712-1.104 0-1.104-1.201 0-2.401 0-3.602 0-.71 0-.711 1.104 0 1.104z" fill="#15ffab"/><path d="m20.929 84.818c0-2.822 0-5.645 0-8.467 0-.71-1.104-.712-1.104 0v8.467c0 .71 1.104.711 1.104 0z" fill="#15ffab"/><path d="m23.791 76.576h9.075c.71 0 .712-1.104 0-1.104-3.025 0-6.05 0-9.075 0-.71 0-.711 1.104 0 1.104z" fill="#15ffab"/><path d="m23.193 74.527v1.544c0 .71 1.104.712 1.104 0 0-.515 0-1.029 0-1.544 0-.711-1.104-.712-1.104 0z" fill="#15ffab"/><path d="m32.726 73.928c-2.822 0-5.645 0-8.467 0-.71 0-.712 1.104 0 1.104h8.467c.71 0 .711-1.104 0-1.104z" fill="#15ffab"/><path d="m24.203 74.433c0-.811 0-1.622 0-2.432 0-.71-1.104-.712-1.104 0v2.432c0 .71 1.104.712 1.104 0z" fill="#15ffab"/><path d="m22.949 72.085h1.637c.71 0 .712-1.104 0-1.104-.546 0-1.091 0-1.637 0-.71 0-.711 1.104 0 1.104z" fill="#15ffab"/><path d="m23.146 76.585v4.21c0 .71 1.104.712 1.104 0 0-1.403 0-2.807 0-4.21 0-.71-1.104-.712-1.104 0z" fill="#15ffab"/><path d="m23.978 81.487h8.233c.71 0 .712-1.104 0-1.104-2.744 0-5.489 0-8.233 0-.71 0-.711 1.104 0 1.104z" fill="#15ffab"/><path d="m23.193 80.608v3.649c0 .71 1.104.712 1.104 0 0-1.216 0-2.432 0-3.649 0-.711-1.104-.712-1.104 0z" fill="#15ffab"/><path d="m25.671 80.84c.105-.143.313-.438.523-.422.215.016.387.313.488.469.386.594 1.342.041.953-.557-.328-.505-.79-1.012-1.442-1.016-.653-.004-1.119.481-1.476.969-.419.573.538 1.125.954.557z" fill="#15ffab"/><path d="m30.845 80.561c-.003-.476-.054-.972.027-1.444-.226.129-.453.257-.679.386.616.252.519 1.024.597 1.579.042.297.418.454.679.386.318-.084.427-.385.386-.679-.066-.47-.059-.959-.257-1.399-.22-.488-.628-.753-1.111-.951-.258-.106-.633.117-.679.386-.1.578-.07 1.153-.067 1.737.005.709 1.109.711 1.104-.001z" fill="#15ffab"/><path d="m25.586 80.679c.085.04.171.078.26.109.019.007.037.013.056.019.106.033-.126-.061-.004-.003.26.124.608.081.755-.198.13-.246.08-.623-.198-.755-.085-.04-.171-.078-.26-.108-.019-.007-.037-.013-.056-.019-.106-.033.126.061.004.003-.26-.124-.608-.081-.755.198-.13.245-.08.621.198.754z" fill="#15ffab"/><path d="m30.316 80.107c.024.047.047.095.07.142.013.027.077.17.036.075-.039-.092 0 .014.009.038.032.096-.007-.153-.004-.035.008.288.248.566.552.552.293-.013.56-.243.552-.552-.007-.283-.139-.53-.262-.778-.129-.259-.516-.352-.755-.198-.265.171-.336.479-.198.756z" fill="#15ffab"/><path d="m15.627 66.668c0-1.019 0-2.037 0-3.056 0-.71-1.104-.712-1.104 0v3.056c0 .71 1.104.712 1.104 0z" fill="#15ffab"/><path d="m18.434 66.668c0-1.019 0-2.037 0-3.056 0-.71-1.104-.712-1.104 0v3.056c0 .71 1.104.712 1.104 0z" fill="#15ffab"/><path d="m21.241 66.668c0-1.019 0-2.037 0-3.056 0-.71-1.104-.712-1.104 0v3.056c0 .71 1.104.712 1.104 0z" fill="#15ffab"/><path d="m24.047 66.668c0-1.019 0-2.037 0-3.056 0-.71-1.104-.712-1.104 0v3.056c0 .71 1.104.712 1.104 0z" fill="#15ffab"/><path d="m26.854 66.668c0-1.019 0-2.037 0-3.056 0-.71-1.104-.712-1.104 0v3.056c0 .71 1.104.712 1.104 0z" fill="#15ffab"/><path d="m29.661 66.668c0-1.019 0-2.037 0-3.056 0-.71-1.104-.712-1.104 0v3.056c0 .71 1.104.712 1.104 0z" fill="#15ffab"/><path d="m32.467 66.668c0-1.019 0-2.037 0-3.056 0-.71-1.104-.712-1.104 0v3.056c0 .71 1.104.712 1.104 0z" fill="#15ffab"/><path d="m32.717 62.084c0-1.778 0-3.555 0-5.333 0-.71-1.104-.712-1.104 0v5.333c0 .71 1.104.711 1.104 0z" fill="#fff"/><path d="m32.445 56.742h39.761c.71 0 .712-1.104 0-1.104-13.254 0-26.507 0-39.761 0-.71 0-.711 1.104 0 1.104z" fill="#fff"/><path d="m71.748 56.19v27.973c0 .71 1.104.712 1.104 0 0-.031 0-.062 0-.094 0-.71-1.104-.712-1.104 0v.094c0 .71 1.104.712 1.104 0 0-9.324 0-18.649 0-27.973 0-.711-1.104-.712-1.104 0z" fill="#fff"/><path d="m58.912 85.005c0-3.742 0-7.484 0-11.227 0-.71-1.104-.712-1.104 0v11.227c0 .71 1.104.711 1.104 0z" fill="#fff"/><path d="m58.36 74.517h8.794c.71 0 .712-1.104 0-1.104-2.931 0-5.863 0-8.794 0-.71 0-.711 1.104 0 1.104z" fill="#fff"/><path d="m66.415 74.246v10.665c0 .71 1.104.712 1.104 0 0-3.555 0-7.11 0-10.665 0-.71-1.104-.711-1.104 0z" fill="#fff"/><path d="m63.216 84.724c0-3.368 0-6.736 0-10.104 0-.71-1.104-.712-1.104 0v10.104c0 .711 1.104.712 1.104 0z" fill="#fff"/><path d="m33.755 55.638c-1.216 0-2.432 0-3.649 0-.71 0-.712 1.104 0 1.104h3.649c.71 0 .712-1.104 0-1.104z" fill="#fff"/><path d="m30.752 55.909c0-1.809 0-3.618 0-5.426 0-.71-1.104-.712-1.104 0v5.426c0 .711 1.104.712 1.104 0z" fill="#fff"/><path d="m30.387 50.754h45.281c.71 0 .712-1.104 0-1.104-15.094 0-30.187 0-45.281 0-.71 0-.711 1.104 0 1.104z" fill="#fff"/><path d="m71.645 56.835h3.836c.71 0 .712-1.104 0-1.104-1.279 0-2.557 0-3.836 0-.71 0-.711 1.104 0 1.104z" fill="#fff"/><path d="m75.939 56.283c0-1.84 0-3.68 0-5.52 0-.71-1.104-.712-1.104 0v5.52c0 .711 1.104.712 1.104 0z" fill="#fff"/><path d="m35.782 65.598h17.214c.71 0 .712-1.104 0-1.104-5.738 0-11.476 0-17.214 0-.71 0-.712 1.104 0 1.104z" fill="#fff"/><path d="m52.257 65.171v12.661c0 .71 1.104.712 1.104 0 0-4.22 0-8.441 0-12.661 0-.71-1.104-.711-1.104 0z" fill="#fff"/><path d="m52.56 77.405c-5.364 0-10.728 0-16.092 0-.71 0-.712 1.104 0 1.104h16.092c.71 0 .711-1.104 0-1.104z" fill="#fff"/><path d="m36.895 77.895c0-4.054 0-8.108 0-12.162 0-.71-1.104-.712-1.104 0v12.162c0 .71 1.104.711 1.104 0z" fill="#fff"/><path d="m58.307 68.601v2.931c0 .71 1.104.712 1.104 0 0-.977 0-1.954 0-2.931 0-.71-1.104-.711-1.104 0z" fill="#fff"/><path d="m58.859 68.842h7.672c.71 0 .712-1.104 0-1.104-2.557 0-5.114 0-7.672 0-.71 0-.711 1.104 0 1.104z" fill="#fff"/><path d="m58.984 72.147h7.547c.71 0 .712-1.104 0-1.104-2.516 0-5.031 0-7.547 0-.71 0-.712 1.104 0 1.104z" fill="#fff"/><path d="m67.145 71.346c0-.936 0-1.871 0-2.807 0-.71-1.104-.712-1.104 0v2.807c0 .71 1.104.711 1.104 0z" fill="#fff"/><path d="m36.78 60.172c.71 0 .712-1.104 0-1.104-.71 0-.711 1.104 0 1.104z" fill="#15ffab"/><path d="m39.212 59.923h26.321c.71 0 .712-1.104 0-1.104-8.773 0-17.547 0-26.321 0-.71 0-.711 1.104 0 1.104z" fill="#fff"/><path d="m68.028 59.736c.71 0 .712-1.104 0-1.104-.711 0-.712 1.104 0 1.104z" fill="#15ffab"/><path d="m83.112 84.88c0-5.135 0-10.27 0-15.406 0-.71-1.104-.712-1.104 0v15.406c0 .711 1.104.712 1.104 0z" fill="#15ffab"/><path d="m84.796 68.29c0-.419 0-.838 0-1.257 0-.71-1.104-.712-1.104 0v.01c0 .71 1.104.712 1.104 0 0-.003 0-.007 0-.01 0-.71-1.104-.712-1.104 0v1.257c0 .71 1.104.711 1.104 0z" fill="#15ffab"/><path d="m97.644 72.469c0-1.227 0-2.453 0-3.68 0-.71-1.104-.712-1.104 0v3.68c0 .71 1.104.711 1.104 0z" fill="#15ffab"/><path d="m84.618 68.405h12.411c.71 0 .712-1.104 0-1.104-4.137 0-8.274 0-12.411 0-.71 0-.711 1.104 0 1.104z" fill="#15ffab"/><path d="m97.644 68.664c0-.229 0-.457 0-.686 0-.289-.254-.565-.552-.552-.299.013-.552.243-.552.552v.686c0 .289.254.565.552.552.299-.013.552-.243.552-.552z" fill="#15ffab"/><path d="m82.52 73.121c.61.959 1.533 1.751 2.73 1.721 1.192-.03 2.078-.903 2.589-1.909.322-.632-.631-1.191-.953-.557-.828 1.627-2.417 1.752-3.413.187-.38-.597-1.336-.043-.953.558z" fill="#15ffab"/><path d="m86.636 73.059c1.65 2.241 4.388 2.192 5.818-.249.36-.614-.594-1.171-.953-.557-.976 1.666-2.744 1.836-3.912.249-.416-.566-1.375-.016-.953.557z" fill="#15ffab"/><path d="m91.338 73.108c1.722 2.148 5.118 2.534 6.355-.299.282-.645-.669-1.207-.953-.557-.965 2.208-3.328 1.689-4.621.075-.444-.554-1.221.232-.781.781z" fill="#15ffab"/><path d="m91.239 73.342v6.3c0 .71 1.104.712 1.104 0 0-2.1 0-4.2 0-6.3 0-.711-1.104-.712-1.104 0z" fill="#15ffab"/><path d="m86.187 73.778v6.05c0 .71 1.104.712 1.104 0 0-2.017 0-4.033 0-6.05 0-.71-1.104-.711-1.104 0z" fill="#15ffab"/><path d="m83.495 80.567h13.41c.71 0 .712-1.104 0-1.104-4.47 0-8.94 0-13.41 0-.71 0-.711 1.104 0 1.104z" fill="#15ffab"/><path d="m96.665 72.157v12.474c0 .71 1.104.712 1.104 0 0-4.158 0-8.316 0-12.474 0-.711-1.104-.712-1.104 0z" fill="#15ffab"/><path d="m48.873 51.907-.433.257c-.081-.141-.158-.232-.232-.275-.077-.049-.175-.073-.296-.073-.148 0-.271.042-.369.126-.098.082-.147.186-.147.312 0 .173.129.312.385.417l.353.144c.287.116.497.258.63.425s.199.372.199.615c0 .325-.108.594-.325.807-.219.214-.49.321-.814.321-.307 0-.561-.091-.761-.273-.197-.182-.32-.438-.369-.768l.541-.119c.024.208.067.352.129.431.11.153.27.229.481.229.167 0 .305-.056.415-.167.11-.112.165-.253.165-.424 0-.069-.009-.132-.029-.189-.019-.057-.049-.11-.089-.158s-.093-.093-.157-.135-.141-.082-.229-.12l-.342-.142c-.485-.205-.727-.504-.727-.899 0-.266.102-.488.305-.667.203-.18.456-.271.759-.271.409 0 .728.199.957.596z" fill="#fff"/><path d="m50.143 52.764h1.527v-1.384h.534v3.539h-.534v-1.653h-1.527v1.653h-.534v-3.539h.534z" fill="#fff"/><path d="m52.875 53.133c0-.498.183-.926.548-1.284.364-.358.801-.536 1.311-.536.504 0 .937.18 1.298.541.362.361.543.794.543 1.3 0 .509-.182.941-.546 1.295-.365.356-.806.534-1.323.534-.457 0-.867-.158-1.231-.474-.399-.35-.6-.809-.6-1.376zm.539.007c0 .391.131.713.394.965.261.252.563.378.906.378.371 0 .685-.128.94-.385.255-.26.383-.576.383-.949 0-.377-.126-.694-.378-.949-.251-.257-.561-.385-.931-.385-.368 0-.679.128-.933.385-.254.254-.381.567-.381.94z" fill="#fff"/><path d="m57.781 53.482v1.437h-.534v-3.539h.605c.296 0 .52.021.672.062.153.041.287.119.403.234.203.199.305.449.305.752 0 .324-.109.581-.326.77s-.51.284-.878.284zm0-.495h.199c.491 0 .736-.189.736-.566 0-.365-.253-.548-.759-.548h-.177v1.114z" fill="#fff"/><path d="m47.901 77.502c-.166-.166-.333-.333-.499-.499l-10.167-10.167c-.427-.427-1.088.235-.661.662l10.665 10.665c.427.427 1.089-.235.662-.661z" fill="#fff"/><path d="m51.741 77.207c-.046-.073-.105-.138-.16-.205-.059-.071-.124-.112-.191-.135-.326-.3-.639-.631-.944-.941-.87-.884-1.762-1.757-2.607-2.665-1.775-1.909-3.708-3.705-5.551-5.551-.427-.427-1.088.234-.661.661 1.849 1.852 3.672 3.729 5.551 5.551 1.291 1.251 2.445 2.704 3.829 3.852.386.321 1.037-.089.734-.567z" fill="#fff"/><path d="m48.525 68.458c-1.04-1.039-2.079-2.079-3.119-3.119-.427-.427-1.088.234-.661.661 1.039 1.039 2.079 2.079 3.119 3.119.426.427 1.087-.234.661-.661z" fill="#fff"/><path d="m49.566 70.067c-.603 0-.603.936 0 .936s.603-.936 0-.936z" fill="#fff"/><circle cx="92.046" cy="26.876" fill="#15ffab" r=".912"/><circle cx="68.343" cy="12.85" fill="#15ffab" r=".912"/><g fill="#fff"><path d="m7.622 34.707-1.08-3.172 2.094 1.538-.241-2.603 2.139 2.563-.411.236-1.176-1.454.205 2.173-1.753-1.286.635 1.766z"/><path d="m11.295 30.372.388-.223.961 1.673-.388.223-.101-.175c-.074.24-.202.413-.385.518-.231.133-.47.159-.718.079-.248-.084-.445-.254-.592-.51-.144-.251-.189-.503-.135-.756s.194-.445.419-.575c.195-.112.416-.132.662-.06zm-.439 1.358c.092.16.21.266.354.318.147.051.287.038.421-.039.143-.082.231-.198.262-.347.03-.152 0-.307-.091-.464-.09-.157-.209-.261-.355-.312-.145-.049-.288-.033-.43.048-.133.076-.215.191-.246.343-.03.152-.001.303.085.453z"/><path d="m12.171 29.869.387-.222.086.15c.028-.115.062-.202.101-.262.04-.061.098-.113.175-.157.102-.058.227-.086.376-.084l.027.456c-.104-.011-.19.004-.26.044-.211.121-.225.341-.042.659l.498.867-.386.222z"/><path d="m13.168 27.663 1.016 1.769.234-.854.519-.298-.323 1.12 1.337.522-.502.288-.958-.388-.026.097.37.644-.387.222-1.667-2.901z"/><path d="m17.295 28.159-1.199.689c.089.131.197.215.322.251.125.035.249.016.373-.055.096-.055.163-.124.199-.206.035-.081.057-.206.065-.375l.431-.006c-.001.115-.012.219-.033.313s-.052.178-.094.255c-.041.077-.094.145-.158.206s-.14.117-.226.167c-.25.143-.496.178-.739.105-.244-.075-.442-.245-.596-.512-.152-.264-.202-.521-.149-.768.055-.246.204-.44.448-.58.246-.141.486-.175.719-.1.232.074.427.249.585.525zm-.578-.088c-.172-.175-.361-.204-.568-.085-.047.027-.087.06-.12.097-.033.038-.059.08-.077.127-.018.046-.029.095-.031.147-.003.052.004.105.019.16z"/><path d="m17.791 27.121.754 1.312-.386.222-.754-1.312-.165.095-.207-.361.165-.095-.352-.613.386-.222.352.613.301-.173.207.361z"/><path d="m20.017 28.798-.386.222-1.484-2.583.386-.222.105.182c.065-.24.194-.415.387-.526.23-.132.469-.156.715-.072.248.081.445.251.593.507.144.251.189.503.135.756-.053.252-.194.442-.42.573-.196.113-.416.135-.661.067zm-.079-2.265c-.092-.16-.21-.266-.355-.317-.147-.051-.287-.038-.421.039-.142.081-.229.197-.26.346s-.001.304.091.464c.09.157.209.261.355.312.144.05.287.034.43-.048.134-.077.215-.191.245-.342s.002-.302-.085-.454z"/><path d="m19.937 23.775 1.666 2.901-.386.222-1.666-2.901z"/><path d="m22.365 24.013.388-.223.961 1.673-.388.223-.1-.175c-.074.24-.202.413-.386.518-.231.133-.47.159-.718.079-.248-.084-.445-.254-.592-.51-.144-.251-.189-.503-.135-.756s.194-.445.419-.575c.194-.112.415-.132.662-.06zm-.439 1.359c.092.16.21.266.354.318.147.051.287.038.421-.039.143-.082.23-.198.262-.347.03-.152-.001-.307-.091-.464s-.209-.261-.355-.312c-.146-.049-.289-.033-.429.048-.133.076-.215.191-.246.343-.031.151-.003.302.084.453z"/><path d="m24.585 22.835.295.514c-.15-.057-.271-.086-.364-.085-.092-.002-.185.024-.278.077-.145.083-.237.204-.274.361-.038.157-.012.312.076.466.09.157.21.259.361.307.152.047.3.028.446-.055.093-.053.163-.12.211-.201.046-.078.084-.2.112-.366l.293.51c-.11.172-.244.302-.401.392-.259.149-.523.189-.793.122-.271-.068-.478-.227-.621-.477s-.176-.511-.099-.784c.078-.273.245-.483.501-.631.164-.095.343-.145.535-.15z"/><path d="m26.974 22.6-1.199.689c.089.131.197.215.323.251.125.035.249.016.373-.055.096-.055.163-.124.199-.206.036-.081.057-.206.065-.375l.431-.006c-.001.115-.012.219-.033.313s-.052.178-.094.255c-.041.077-.094.145-.158.206s-.139.117-.226.167c-.25.143-.496.178-.739.105-.244-.075-.442-.245-.596-.512-.152-.264-.202-.521-.149-.768.055-.246.204-.44.448-.58.246-.141.486-.175.719-.1.231.074.426.249.585.525zm-.579-.088c-.172-.175-.361-.204-.568-.085-.047.027-.087.06-.12.098s-.059.08-.077.126-.029.095-.031.147.004.105.019.16z"/><path d="m28 21.156-.222.354c-.11-.074-.202-.09-.276-.047-.035.02-.059.05-.071.088s-.007.075.014.112c.037.064.148.085.332.062.256-.03.44-.027.554.006.114.034.207.113.279.239.093.162.111.331.054.508-.057.169-.166.301-.33.395-.281.161-.558.138-.832-.068l.242-.343c.092.054.156.085.193.093.072.016.141.006.206-.032.131-.075.162-.172.093-.291-.039-.069-.127-.104-.262-.105-.05.003-.1.006-.15.01-.049.004-.1.008-.151.011-.144.01-.254 0-.332-.029-.099-.036-.179-.109-.243-.219-.083-.145-.103-.294-.058-.446.047-.154.144-.272.289-.356.217-.122.44-.103.671.058z"/><path d="m29.836 18.92 1.307 2.276-.4.23-1.307-2.276-.61.35-.216-.376 1.618-.929.216.376z"/><path d="m31.073 19.011.387-.222.086.15c.028-.115.062-.202.101-.262.04-.061.098-.113.175-.157.102-.059.227-.086.376-.084l.027.456c-.104-.011-.19.004-.26.044-.211.121-.225.341-.042.659l.498.867-.386.222z"/><path d="m33.622 17.547.388-.223.961 1.673-.388.223-.101-.175c-.074.24-.202.413-.385.518-.231.133-.47.159-.718.079-.248-.084-.445-.254-.592-.51-.144-.251-.189-.503-.135-.756s.194-.445.419-.575c.195-.112.415-.132.662-.06zm-.439 1.358c.092.16.21.266.354.318.147.051.287.038.421-.039.143-.082.231-.198.262-.347.03-.152 0-.307-.091-.464-.09-.157-.209-.261-.355-.312-.145-.049-.289-.033-.43.048-.133.076-.215.191-.246.343-.03.152-.001.303.085.453z"/><path d="m35.841 16.368.295.514c-.15-.057-.271-.086-.364-.086-.092-.002-.185.024-.278.077-.146.084-.237.204-.274.361-.038.157-.013.312.076.466.09.157.211.259.361.307.152.047.3.029.446-.055.093-.053.163-.12.211-.201.046-.078.084-.2.112-.366l.293.51c-.11.172-.244.302-.401.392-.259.149-.523.189-.793.122-.271-.068-.478-.227-.621-.477s-.176-.511-.099-.784c.078-.273.245-.483.501-.631.165-.094.344-.144.535-.149z"/><path d="m35.856 14.631 1.016 1.769.234-.854.519-.298-.323 1.12 1.337.522-.502.288-.959-.388-.026.097.37.644-.386.222-1.667-2.901z"/><path d="m38.447 12.795 2.037 1.641-.442-2.761 2.126 1.794-.34-2.616.518-.298.518 4.175-2.1-1.773.44 2.73-3.276-2.593z"/><path d="m42.776 10.757c-.046-.08-.057-.167-.032-.259s.078-.162.16-.209c.083-.048.171-.059.263-.034.092.024.161.077.209.16s.06.171.034.264c-.024.092-.077.162-.16.209-.083.048-.171.059-.264.034-.09-.025-.161-.08-.21-.165zm1.007.525 1.146 1.995-.461.265-1.146-1.995z"/><path d="m44.367 10.947.463-.266.106.184c.069-.253.205-.437.407-.553.232-.133.455-.164.669-.093.183.06.356.231.517.512l.702 1.223-.463.266-.64-1.114c-.113-.197-.218-.317-.316-.361-.097-.046-.216-.028-.357.052-.153.088-.232.201-.238.338-.006.136.063.328.206.577l.553.963-.463.266z"/><path d="m46.667 9.626.463-.266.106.184c.069-.252.205-.437.407-.553.232-.133.455-.164.669-.093.183.06.356.231.517.512l.703 1.223-.463.266-.64-1.114c-.113-.197-.218-.317-.316-.36-.097-.046-.216-.028-.356.052-.153.088-.233.201-.239.338-.006.136.063.328.206.577l.553.963-.463.266z"/><path d="m51.419 8.367-1.43.821c.107.157.235.257.384.299.149.041.298.02.445-.065.115-.066.194-.148.238-.246.042-.097.068-.246.078-.448l.514-.006c-.001.137-.014.261-.039.373-.025.111-.062.213-.112.304-.049.091-.112.173-.188.246s-.166.139-.27.199c-.298.171-.591.213-.882.125-.291-.089-.527-.293-.71-.611-.181-.315-.24-.621-.178-.916.065-.294.244-.524.534-.691.294-.169.58-.208.858-.119.276.088.508.297.697.626zm-.69-.105c-.205-.209-.431-.243-.677-.101-.056.032-.104.071-.143.116s-.07.096-.092.151-.034.114-.037.175.005.125.023.191z"/><path d="m51.287 6.972.461-.265.102.178c.034-.138.074-.241.121-.312.047-.073.116-.135.208-.188.122-.07.271-.103.449-.1l.031.543c-.124-.013-.227.005-.31.053-.251.144-.268.406-.05.786l.594 1.034-.461.265z"/><path d="m74.905 109.421.412-.24.847 1.459c.07-.217.194-.377.371-.48.202-.117.401-.145.598-.085.169.054.325.205.47.455l.635 1.095-.413.24-.613-1.056c-.083-.143-.169-.232-.256-.267-.088-.035-.188-.019-.301.046-.144.084-.22.187-.227.31-.005.124.056.296.184.516l.501.864-.413.24z"/><path d="m79.041 108.772.414-.241 1.037 1.786-.414.241-.109-.187c-.078.257-.214.443-.41.557-.247.143-.503.173-.768.088-.266-.089-.478-.27-.636-.542-.156-.268-.205-.537-.149-.809.056-.271.205-.477.446-.617.208-.121.444-.143.708-.068zm-.463 1.456c.099.171.226.284.38.338.157.054.307.04.45-.043.153-.089.246-.213.279-.373.031-.163-.002-.329-.099-.496s-.224-.278-.382-.332c-.156-.052-.309-.034-.459.054-.142.082-.229.205-.262.368-.031.162-.001.324.093.484z"/><path d="m81.411 107.5.318.548c-.161-.06-.291-.09-.39-.089-.099-.002-.198.027-.297.084-.155.09-.253.219-.292.388s-.012.335.083.498c.097.167.227.276.388.326.163.05.321.029.477-.061.099-.057.174-.13.225-.216.049-.084.088-.215.118-.392l.316.544c-.117.184-.259.325-.427.422-.276.16-.559.205-.848.135-.29-.072-.512-.241-.667-.507s-.191-.546-.109-.838c.082-.293.26-.518.533-.677.176-.104.366-.159.572-.165z"/><path d="m81.417 105.64 1.096 1.888.246-.915.554-.322-.34 1.2 1.434.553-.535.311-1.028-.411-.028.104.399.688-.412.24-1.798-3.096z"/><path d="m84.952 105.34.414-.241 1.037 1.786-.414.241-.109-.187c-.077.257-.214.443-.41.557-.247.143-.503.173-.768.088-.266-.089-.478-.27-.636-.542-.156-.268-.205-.537-.148-.809.056-.271.205-.477.446-.617.208-.121.444-.143.708-.068zm-.464 1.456c.099.171.226.284.38.338.157.054.308.04.45-.043.153-.089.246-.213.279-.373.031-.163-.002-.329-.099-.496s-.224-.278-.382-.332c-.156-.052-.309-.034-.459.054-.142.082-.229.205-.262.368-.031.162 0 .324.093.484z"/><path d="m86.536 104.936.813 1.401-.412.239-.813-1.401-.176.102-.224-.385.176-.102-.38-.655.413-.239.38.654.321-.186.224.385z"/><path d="m86.153 102.891.412-.24.847 1.459c.07-.217.194-.377.371-.48.202-.117.401-.146.598-.085.169.054.325.205.47.455l.635 1.095-.413.24-.613-1.056c-.083-.143-.169-.232-.256-.267-.088-.035-.188-.019-.301.046-.144.084-.22.187-.227.31-.005.124.056.296.184.516l.502.864-.413.24z"/><path d="m89.399 103.935c-.15-.258-.185-.531-.105-.819s.252-.509.517-.663c.266-.155.545-.195.837-.121.289.076.511.246.665.511.155.268.193.546.114.834-.081.287-.257.51-.527.666-.268.156-.545.194-.833.116-.286-.075-.509-.25-.668-.524zm.426-.238c.104.178.233.292.389.34.159.048.318.026.478-.067.161-.094.26-.22.297-.381.036-.16.004-.327-.097-.5s-.23-.284-.386-.332c-.159-.048-.318-.026-.478.067-.158.092-.255.218-.292.38-.037.163-.007.327.089.493z"/><path d="m91.23 101.696.414-.241.096.165c.061-.227.182-.393.363-.498.208-.121.408-.149.6-.086.165.053.32.205.467.457l.636 1.095-.414.241-.579-.997c-.102-.176-.197-.283-.285-.322-.087-.041-.194-.025-.32.048-.137.08-.208.181-.213.305-.004.122.058.294.187.516l.5.862-.414.241z"/><path d="m95.931 100.817 1.054-.612.233.402-1.901 1.104.292-1.76c.028-.175.049-.324.064-.449s.023-.226.023-.305c.003-.155-.022-.279-.075-.37-.077-.132-.187-.216-.332-.251s-.286-.013-.422.066c-.286.166-.352.43-.197.793l-.425.247c-.278-.636-.15-1.11.384-1.42.258-.15.522-.193.792-.131.271.062.477.213.617.455.089.154.136.329.14.524.003.101-.005.228-.023.38-.019.152-.047.336-.086.551z"/><path d="m96.868 98.892c-.262-.451-.366-.872-.312-1.263.047-.352.204-.607.472-.762s.566-.166.896-.032c.366.147.684.452.953.915.268.462.375.889.321 1.28-.047.352-.204.606-.47.761-.267.155-.566.166-.898.033-.366-.147-.687-.457-.962-.932zm.421-.242c.182.314.388.543.618.688.227.141.425.162.594.065.167-.097.247-.28.239-.548-.008-.267-.102-.555-.281-.864s-.384-.534-.612-.674c-.228-.139-.425-.16-.593-.063-.166.097-.246.278-.238.545.007.266.098.55.273.851z"/><path d="m99.464 96.051-.489.284.003-.536.682-.396 1.644 2.831-.427.248z"/><path d="m101.974 95.877c-.293-.026-.513-.166-.66-.419-.133-.23-.166-.468-.098-.713.069-.246.222-.438.458-.575.235-.136.475-.173.721-.109.245.062.435.209.57.441.141.243.153.502.036.776.149-.005.29.032.423.112.134.079.244.192.329.339.146.251.183.504.112.759s-.234.457-.489.605c-.262.152-.524.196-.788.134-.265-.062-.468-.215-.61-.46-.185-.318-.186-.615-.004-.89zm-.26-.654c.07.121.17.199.299.233.131.035.256.018.373-.05.116-.067.192-.167.226-.298.035-.131.019-.255-.049-.371-.067-.116-.167-.192-.298-.226-.131-.035-.255-.018-.371.049s-.192.167-.226.298-.019.252.046.365zm.675 1.285c.076.131.187.217.332.259.145.04.284.022.415-.055.129-.075.213-.185.252-.33.038-.146.019-.284-.056-.414-.076-.131-.186-.215-.331-.254-.145-.038-.282-.02-.412.055-.128.075-.212.185-.252.33-.039.146-.021.282.052.409z"/><path d="m58.572 121.582c-.018-.031-.037-.063-.055-.094-.018-.032-.036-.063-.045-.099-.007-.028-.024-.052-.037-.077-.009-.018-.02-.036-.021-.057 0-.005-.001-.01-.003-.014-.018-.037-.033-.075-.045-.114-.011-.036-.021-.073-.031-.109-.015-.05-.026-.101-.036-.152-.014-.072-.025-.145-.031-.219-.009-.095-.011-.189-.009-.284.001-.072.011-.144.018-.216.006-.064.024-.126.034-.189.013-.082.039-.159.063-.237.037-.121.087-.238.146-.35.039-.074.082-.145.127-.215.025-.039.051-.078.081-.113.029-.034.052-.074.088-.103.013-.01.015-.028.029-.037.012-.008.02-.019.028-.031.013-.02.035-.031.05-.05.026-.03.056-.055.085-.081.034-.03.072-.057.105-.088.032-.029.067-.053.102-.077.075-.053.15-.106.232-.147.104-.053.209-.103.32-.142.042-.015.083-.029.125-.041.034-.01.067-.027.104-.026.025-.015.056-.009.082-.021.02-.01.043-.007.064-.012.047-.011.095-.016.142-.021.09-.009.181-.014.272-.013s.181.012.271.02c.09.009.176.036.265.048.014.002.027.007.041.012.03.01.059.022.089.029.076.017.146.049.217.079.056.024.112.048.165.076.058.03.114.065.169.1.075.047.146.099.213.156.038.032.08.06.111.101.032.016.044.053.076.07.008.004.013.014.018.021.011.015.022.03.038.042.009.006.016.015.022.024.014.019.026.039.047.053.01.007.017.019.023.029.021.032.041.064.067.092.028.031.049.066.069.102.025.042.05.084.075.127.021.035.042.071.055.11.011.033.028.064.044.094.01.018.021.036.021.057 0 .003.001.006.002.009.018.035.03.072.041.11.006.021.015.04.019.063.004.026.015.051.022.077.02.074.034.149.046.225.017.107.025.214.026.323.001.056-.006.112-.003.168-.016.113-.023.228-.053.339-.008.032-.012.065-.021.096-.015.052-.033.102-.048.154-.017.057-.043.111-.065.166-.052.13-.123.25-.197.368-.038.041-.062.093-.101.134-.015.015-.026.034-.041.051-.032.036-.06.076-.095.109-.026.025-.047.056-.079.075-.061.069-.138.12-.207.18-.002.002-.005.004-.007.006-.091.06-.177.128-.276.175-.074.035-.145.076-.223.105-.047.017-.095.035-.142.054-.03.012-.063.019-.095.029-.039.013-.078.024-.118.03-.048.008-.093.026-.142.025-.095.021-.192.028-.288.031-.092.003-.185.004-.277-.009-.043-.006-.087-.007-.13-.014-.053-.008-.104-.021-.157-.03-.1-.015-.193-.054-.29-.081-.051-.015-.099-.041-.148-.061-.073-.029-.142-.066-.21-.104-.084-.047-.164-.101-.242-.159-.043-.032-.084-.067-.124-.102-.039-.034-.075-.072-.113-.107-.028-.026-.048-.058-.08-.08-.006-.004-.01-.012-.015-.018-.017-.025-.034-.049-.058-.068-.013-.01-.021-.027-.03-.042-.018-.028-.037-.055-.06-.079-.011-.011-.02-.024-.029-.038-.023-.042-.047-.083-.072-.123.001-.001.001-.001 0 0zm1.495-.914c.043-.035.082-.072.126-.102.09-.059.18-.117.281-.157.041-.016.078-.043.12-.057.075-.027.143-.067.211-.107.037-.022.073-.044.103-.076.007-.008.017-.015.026-.02.037-.02.057-.059.091-.081.045-.061.093-.12.119-.194.037-.106.038-.209-.008-.312-.017-.039-.04-.076-.065-.11-.04-.056-.093-.098-.156-.126-.069-.031-.142-.046-.219-.046-.066 0-.13.007-.193.029-.004.002-.009.002-.014.002-.015-.002-.028.006-.04.012-.062.032-.121.068-.18.106-.009.006-.02.011-.024.022-.007.016-.021.023-.033.033-.006.005-.014.009-.018.015-.025.037-.058.069-.084.106-.045.063-.082.131-.107.203-.045.128-.066.26-.061.397.003.084.016.166.037.247.008.03.012.062.028.09.009.017.014.035.019.053.006.027.017.053.041.073zm.263-.015c-.02.012-.04.025-.061.036-.023.012-.04.031-.057.049-.005.006-.013.009-.019.014-.022.017-.05.027-.065.053-.015.024-.049.031-.057.061-.036.04-.062.085-.085.134-.052.107-.049.216-.006.323.027.069.075.125.136.171.075.056.159.082.25.085.081.003.162-.002.237-.04.008-.004.018-.005.027-.007.009-.003.018-.004.027-.008.082-.038.16-.099.225-.169.027-.029.051-.058.075-.089.062-.082.101-.173.131-.27.014-.044.017-.089.026-.134.008-.04.01-.081.01-.121 0-.08-.008-.16-.024-.239-.005-.022-.015-.041-.019-.063-.007-.047-.029-.089-.044-.134-.003-.009-.008-.017-.013-.025-.007-.012-.013-.013-.026-.003-.032.024-.065.045-.093.074-.011.011-.025.02-.038.028-.06.035-.12.071-.18.105-.016.009-.034.017-.052.023-.027.009-.053.021-.078.035-.026.014-.052.031-.08.041-.054.016-.101.042-.147.07z"/><path d="m69.135 115.765c.155.263.31.526.465.79.012.02.024.039.035.06.017.034.013.049-.02.072-.017.011-.034.021-.052.031-.124.073-.248.147-.373.219-.119.069-.096.075-.165-.039-.015-.025-.029-.05-.044-.074-.004-.007-.009-.015-.016-.02-.006-.005-.015-.007-.022.001-.012.014-.016.03-.018.048-.015.113-.065.213-.129.304-.032.045-.063.096-.117.123-.012.006-.024.017-.033.027-.061.069-.135.115-.226.133-.011.002-.022.007-.032.013-.088.047-.184.053-.281.06-.113.008-.222-.008-.329-.038-.093-.026-.182-.066-.263-.119-.033-.022-.066-.045-.098-.068-.049-.035-.095-.072-.132-.12-.012-.016-.023-.034-.038-.047-.088-.075-.132-.181-.188-.277-.01-.017-.013-.038-.019-.057s-.009-.04-.018-.057c-.044-.089-.056-.185-.066-.281-.017-.162.005-.32.064-.471.036-.093.089-.178.147-.26.042-.06.11-.092.147-.154.086-.051.161-.122.267-.135.008-.001.017-.005.024-.008.108-.049.222-.049.336-.034.046.006.091.014.134.032.019.008.038.011.059.01.011-.001.014-.011.011-.018-.008-.018-.018-.036-.028-.054-.023-.04-.046-.08-.069-.12-.01-.018-.005-.033.012-.044.029-.019.057-.039.087-.057.111-.066.223-.132.335-.197.032-.019.066-.035.1-.05.018-.008.034-.003.044.015.012.02.024.039.036.059.157.266.315.534.473.802zm-1.442.844c.045.083.112.144.191.193.122.076.251.106.391.058.011-.004.022-.007.034-.008.036-.003.065-.021.096-.037.055-.029.082-.089.132-.123.064-.104.104-.214.094-.339-.004-.052-.022-.1-.033-.149-.01-.046-.028-.089-.057-.125-.066-.084-.142-.158-.241-.202-.154-.067-.306-.062-.453.025-.045.027-.081.059-.115.1-.032.038-.059.077-.077.122-.066.168-.047.329.038.485z"/><path d="m72.479 113.725c.161.273.322.547.483.82.033.056.048.064-.025.107-.149.088-.298.176-.447.263-.005.003-.01.006-.015.009-.039.02-.047.019-.07-.017-.021-.034-.041-.069-.062-.104-.007-.012-.014-.025-.023-.036-.005-.006-.013-.011-.02-.012-.012-.002-.014.009-.014.017-.003.046-.014.09-.028.134-.028.085-.07.159-.128.228-.03.036-.062.067-.099.093-.007.005-.015.01-.02.017-.051.071-.128.11-.204.141-.081.034-.165.071-.254.075-.166.007-.323-.021-.458-.132-.038-.032-.074-.062-.1-.104-.008-.012-.015-.026-.026-.034-.053-.039-.083-.095-.115-.15-.216-.365-.431-.73-.647-1.095-.04-.067-.039-.069.024-.106.144-.085.288-.17.432-.255.01-.006.02-.012.03-.017.031-.015.048-.012.067.015.013.019.024.039.036.059.149.253.299.507.448.76.035.06.072.118.109.176.045.069.133.135.209.172.033.016.069.023.1.018.095-.018.195-.029.254-.123.017-.026.047-.039.063-.069.044-.081.048-.165.032-.251-.016-.085-.047-.164-.093-.24-.163-.272-.323-.546-.484-.82-.066-.112-.067-.096.041-.16.129-.077.258-.153.388-.228.02-.012.04-.023.061-.032.015-.007.029-.002.038.011.015.021.028.044.041.066.159.267.317.536.476.804z"/><path d="m64.499 118.808c.075-.044.149-.088.224-.132.034-.02.047-.028.079.012.051.064.119.097.202.084s.163-.036.232-.088c.04-.03.067-.071.096-.109.022-.029.026-.067.01-.106-.032-.078-.075-.11-.159-.103-.054.004-.109.012-.162.024-.117.026-.233.061-.351.081-.112.019-.221.051-.337.048-.092-.002-.181-.014-.263-.059-.053-.029-.104-.06-.136-.114-.007-.012-.017-.024-.027-.033-.031-.028-.051-.061-.061-.102-.004-.017-.012-.033-.019-.048-.082-.166-.055-.328.027-.483.031-.059.066-.12.124-.161.023-.05.07-.075.112-.104.012-.008.023-.018.033-.028.092-.1.217-.149.332-.215.046-.005.09-.02.129-.044.038-.024.086-.008.124-.033.133-.015.266-.025.395.028.097.04.182.095.248.177.016.02.034.04.049.06.027.036.023.049-.017.076-.01.006-.02.012-.03.018-.132.078-.263.155-.395.233-.015.009-.03.018-.045.026-.025.012-.043.007-.061-.013-.011-.013-.02-.029-.032-.041-.034-.036-.074-.063-.125-.065-.086-.004-.167.015-.226.083-.028.032-.064.056-.078.101-.029.091.03.195.125.206.042.005.087.004.129-.004.107-.02.214-.046.32-.069.134-.029.265-.071.402-.079.103-.006.205-.002.3.051.038.021.075.044.103.076.06.069.112.143.147.231.072.179.045.347-.028.515-.024.054-.091.142-.136.184-.027.025-.04.062-.076.081-.03.016-.062.034-.084.06-.054.063-.127.099-.196.14-.032.019-.065.036-.102.046-.028.007-.056.017-.08.032-.062.041-.134.052-.203.068-.056.013-.116.023-.177.021-.084-.002-.166-.011-.243-.042-.081-.033-.163-.07-.219-.144-.054-.028-.081-.079-.111-.127-.005-.007-.009-.015-.013-.023-.011-.023-.009-.035.015-.05.047-.029.094-.056.141-.084.029-.021.061-.04.094-.059z"/><path d="m73.794 112.478c-.067.039-.134.079-.201.118-.017.01-.035.02-.053.029-.015.007-.028.003-.038-.01-.017-.023-.032-.047-.055-.066-.103-.084-.242-.056-.331.023-.021.019-.041.04-.059.063-.062.08-.057.194.061.249.01.005.022.006.033.006.052.001.103.002.154-.009.106-.023.213-.044.319-.071.075-.019.149-.042.225-.054.108-.017.218-.033.329-.011.093.018.17.062.241.12.011.009.018.022.026.035.027.044.054.088.081.133.086.144.086.297.048.455-.026.105-.09.189-.148.277-.055.04-.087.107-.151.137-.018.008-.034.023-.048.037-.088.087-.192.145-.308.186-.024.008-.049.018-.072.03-.138.071-.287.091-.439.084-.11-.005-.214-.039-.306-.103-.084-.058-.154-.128-.203-.218-.018-.034-.015-.05.02-.071.146-.087.293-.173.439-.259.005-.003.01-.006.015-.008.033-.014.053-.012.074.02.041.061.1.083.169.081.099-.002.249-.055.311-.141.029-.04.061-.075.063-.127.002-.047-.042-.11-.086-.126-.042-.015-.085-.017-.127-.009-.082.015-.162.037-.244.052-.09.016-.177.046-.269.055-.042.004-.083.019-.125.026-.095.015-.198.02-.287.008-.134-.018-.236-.088-.312-.194-.093-.13-.14-.275-.117-.438.014-.099.056-.185.112-.265.034-.049.074-.093.113-.138.013-.015.031-.025.047-.037.028-.02.057-.036.076-.069.009-.016.03-.026.047-.037.059-.036.118-.072.177-.108.042-.025.084-.05.135-.056.014-.001.028-.008.04-.015.069-.037.144-.05.221-.059.051-.006.101-.01.152-.01.125.001.237.042.336.113.067.048.129.105.165.183.011.024.009.034-.014.05-.005.003-.01.006-.015.009-.072.042-.146.086-.221.13z"/><path d="m69.497 115.512c-.076-.129-.152-.258-.228-.387-.01-.017-.02-.035-.031-.052-.019-.028-.037-.033-.066-.018-.046.024-.09.052-.135.078-.02.011-.04.024-.061.033-.03.013-.048.007-.065-.02-.024-.039-.047-.079-.071-.119-.04-.067-.08-.134-.118-.201-.023-.04-.019-.052.021-.077.046-.029.094-.056.141-.084.017-.01.034-.021.051-.032s.02-.029.013-.046c-.008-.021-.02-.041-.032-.061-.074-.127-.149-.253-.224-.38-.043-.074-.043-.074.031-.118l.402-.237c.015-.009.03-.018.045-.025.015-.006.03-.002.039.009.014.018.027.037.038.057.073.124.147.248.22.372.057.096.053.083.136.035.077-.045.154-.091.231-.136.02-.012.04-.023.061-.032.014-.006.028-.003.038.011.005.007.01.014.014.022.062.104.123.208.184.313.021.035.018.05-.012.074-.016.012-.033.022-.051.033-.074.044-.149.088-.223.132-.017.01-.034.021-.051.032-.016.011-.02.028-.013.046.005.013.013.026.02.038.117.199.235.397.351.596.03.051.068.092.11.132.024.023.053.036.082.046s.058.011.092.002c.093-.026.178-.067.252-.129.007-.006.014-.011.021-.015.022-.014.038-.012.052.007.007.009.013.019.018.029.062.104.123.209.184.313.007.012.014.025.02.038.011.024.008.038-.013.052-.125.081-.232.19-.369.254-.031.015-.06.034-.095.038-.019.002-.038.012-.056.021-.188.088-.364.069-.531-.055-.087-.064-.158-.14-.212-.233-.069-.118-.139-.237-.21-.356z"/><path d="m66.003 117.565c-.075-.127-.149-.253-.224-.38-.012-.02-.023-.04-.036-.059-.015-.022-.036-.027-.061-.015-.023.011-.045.025-.068.038-.04.023-.079.048-.12.069-.039.02-.057.015-.079-.021-.062-.104-.124-.208-.184-.313-.025-.044-.022-.054.024-.082.054-.033.109-.064.164-.097.048-.029.051-.04.024-.09-.021-.038-.043-.075-.065-.112-.057-.097-.114-.194-.171-.291-.012-.02-.022-.04-.032-.061-.006-.014-.003-.028.011-.038.007-.005.014-.01.022-.014.149-.088.298-.176.447-.263.039-.023.054-.019.079.017.012.016.021.034.031.052.067.114.135.228.202.343.01.017.02.035.031.052.026.039.037.043.077.019.087-.05.174-.102.261-.153.101-.06.092-.051.143.034.053.089.106.178.158.268.026.045.024.055-.017.086-.018.014-.038.026-.058.037-.069.041-.139.082-.208.123-.017.01-.035.021-.051.033s-.018.029-.012.046c.006.016.016.031.024.046.111.189.223.377.333.566.035.061.079.113.132.158.051.044.106.058.174.039.091-.025.171-.066.244-.125.009-.007.019-.014.029-.019.014-.006.029-.004.039.008.009.011.017.023.025.035.062.104.123.208.184.313.006.01.012.02.016.03.012.027.008.042-.015.06-.016.012-.034.022-.05.034-.023.017-.048.032-.069.052-.081.08-.184.128-.281.184-.014.008-.032.013-.049.016-.026.005-.049.015-.073.027-.185.087-.36.066-.523-.054-.084-.062-.156-.135-.209-.226-.072-.125-.146-.248-.219-.372.001-.001.001-.001 0 0z"/></g><path d="m10.108 85.682h70.054 19.924c.71 0 .712-1.104 0-1.104-23.136 0-46.273 0-69.409 0-6.856 0-13.713 0-20.569 0-.711 0-.712 1.104 0 1.104z" fill="#15ffab"/></svg>