<svg enable-background="new 0 0 110.979 128.417" viewBox="0 0 110.979 128.417" xmlns="http://www.w3.org/2000/svg"><path d="m55.474 128.24-55.426-32v-64l55.426-32 55.425 32v63.999z" fill="#0a0f44"/><path d="m55.602 116.833-45.548-26.297v-52.595l45.548-26.297 45.548 26.297v52.595z" fill="#040933"/><path d="m52.788 74.385c-.031-.049-.071-.094-.108-.138-.04-.048-.084-.076-.129-.091-.221-.203-.432-.427-.638-.636-.588-.597-1.191-1.187-1.762-1.801-1.2-1.29-2.506-2.504-3.752-3.752-.288-.289-.735.158-.447.447 1.25 1.252 2.482 2.52 3.752 3.752.872.846 1.652 1.827 2.588 2.604.261.215.701-.062.496-.385z" fill="#fff"/><path d="m50.614 68.472c-.703-.703-1.405-1.405-2.108-2.108-.289-.289-.736.158-.447.447.702.703 1.405 1.405 2.108 2.108.289.288.736-.159.447-.447z" fill="#fff"/><path d="m51.318 69.559c-.408 0-.408.632 0 .632.408.001.408-.632 0-.632z" fill="#fff"/><path d="m55.472 10.368-46.723 26.937v53.872l46.723 26.934 46.726-26.934v-53.872zm44.835 79.724-44.834 25.85-44.836-25.85v-51.692l44.836-25.849 44.834 25.849z" fill="#15ffab"/><path d="m8.123 34.81-1.08-3.173 2.095 1.539-.241-2.604 2.14 2.564-.411.236-1.176-1.454.205 2.174-1.754-1.287.636 1.767z" fill="#fff"/><path d="m11.798 30.473.389-.223.961 1.674-.388.223-.101-.175c-.074.241-.202.413-.385.519-.231.133-.471.159-.718.079-.248-.084-.445-.254-.592-.51-.144-.251-.189-.503-.135-.757.054-.253.194-.445.419-.575.195-.112.416-.132.662-.06zm-.44 1.359c.092.16.21.266.354.318.147.051.287.038.421-.039.143-.082.231-.198.262-.347.03-.153 0-.307-.091-.464-.09-.157-.209-.261-.356-.312-.145-.049-.289-.033-.429.048-.133.076-.215.191-.247.343-.029.152 0 .303.086.453z" fill="#fff"/><path d="m12.674 29.97.387-.222.086.15c.028-.115.062-.202.101-.262.04-.061.098-.113.175-.157.102-.059.228-.087.377-.084l.027.456c-.104-.011-.191.004-.26.044-.211.121-.225.341-.042.659l.498.868-.387.222z" fill="#fff"/><path d="m13.671 27.763 1.017 1.77.234-.854.519-.298-.323 1.12 1.338.523-.502.288-.959-.389-.026.098.37.644-.387.222-1.667-2.902z" fill="#fff"/><path d="m17.8 28.26-1.199.689c.089.132.197.215.323.251.125.035.249.017.373-.054.096-.055.163-.124.199-.206s.057-.206.065-.376l.431-.006c-.001.115-.012.219-.033.313s-.052.178-.094.255c-.041.077-.094.145-.158.206s-.14.117-.227.167c-.25.143-.496.179-.739.105-.244-.075-.443-.245-.596-.513-.152-.264-.202-.521-.149-.769.055-.247.205-.44.448-.58.246-.142.486-.175.72-.1.231.074.426.249.585.525zm-.579-.089c-.172-.175-.362-.204-.568-.085-.047.027-.087.06-.12.098s-.059.08-.077.126-.029.095-.031.147.004.105.019.16z" fill="#fff"/><path d="m18.296 27.221.754 1.313-.387.222-.754-1.313-.165.095-.207-.361.165-.095-.352-.613.387-.222.352.613.301-.173.208.361z" fill="#fff"/><path d="m20.523 28.898-.387.222-1.485-2.584.387-.222.104.182c.065-.24.194-.415.388-.527.23-.132.469-.156.715-.072.248.081.445.251.593.507.144.251.189.503.135.757-.053.252-.193.443-.42.573-.196.113-.416.135-.661.067zm-.079-2.265c-.092-.16-.211-.266-.355-.317-.147-.051-.287-.038-.421.039-.142.082-.229.197-.261.346-.031.149-.001.304.091.464.09.157.209.261.356.313.144.049.287.034.429-.048.134-.077.216-.191.245-.342.031-.152.003-.304-.084-.455z" fill="#fff"/><path d="m20.443 23.873 1.667 2.902-.387.222-1.667-2.902z" fill="#fff"/><path d="m22.872 24.112.388-.223.961 1.674-.388.223-.101-.175c-.074.241-.202.413-.386.519-.231.133-.471.159-.718.079-.248-.084-.446-.255-.592-.51-.144-.251-.189-.503-.135-.757.054-.253.194-.445.419-.575.195-.112.415-.132.662-.06zm-.44 1.359c.092.16.21.266.354.318.147.051.287.038.422-.039.143-.082.231-.198.262-.347.03-.153-.001-.308-.091-.464-.09-.157-.208-.261-.355-.312-.145-.049-.289-.033-.429.048-.133.076-.215.19-.247.343-.03.151-.002.303.084.453z" fill="#fff"/><path d="m25.092 22.932.295.514c-.15-.057-.272-.085-.364-.085-.093-.002-.185.024-.278.077-.145.083-.237.204-.274.361-.038.157-.013.313.076.466.09.157.211.26.361.307.152.047.3.029.446-.055.093-.053.163-.12.211-.201.046-.079.084-.2.112-.366l.293.51c-.11.172-.244.302-.401.393-.259.149-.523.189-.794.122-.271-.069-.478-.228-.621-.477-.143-.25-.176-.511-.099-.784.078-.273.245-.484.502-.631.165-.095.343-.145.535-.151z" fill="#fff"/><path d="m27.482 22.698-1.199.689c.089.131.197.215.323.251.125.035.25.017.373-.054.096-.055.163-.124.199-.206s.057-.206.065-.376l.431-.005c-.001.115-.012.219-.033.313s-.052.178-.094.255c-.041.077-.094.145-.158.206s-.14.117-.227.167c-.25.143-.496.179-.74.105-.244-.075-.442-.246-.596-.513-.152-.264-.201-.521-.149-.769.055-.247.204-.44.448-.58.246-.142.486-.175.719-.1.231.074.427.249.585.525zm-.578-.089c-.172-.175-.362-.204-.568-.085-.047.027-.087.06-.12.098s-.059.08-.077.127c-.019.046-.029.095-.031.147s.004.105.019.16z" fill="#fff"/><path d="m28.509 21.253-.222.354c-.11-.074-.202-.09-.276-.047-.036.02-.059.05-.071.087-.012.038-.007.075.014.112.037.064.148.085.333.063.256-.03.44-.028.554.006s.207.113.279.239c.093.162.111.331.054.508-.057.17-.167.302-.33.396-.281.161-.558.138-.832-.068l.242-.343c.092.054.156.085.192.093.072.017.141.006.206-.031.131-.075.162-.172.093-.291-.039-.069-.127-.104-.262-.105-.05.003-.1.006-.149.01-.05.004-.1.008-.151.011-.144.009-.255 0-.332-.029-.098-.036-.179-.109-.242-.219-.083-.146-.103-.294-.058-.447.047-.154.144-.272.289-.356.215-.123.438-.104.669.057z" fill="#fff"/><path d="m30.346 19.017 1.308 2.277-.4.23-1.308-2.277-.61.351-.216-.376 1.618-.93.216.376z" fill="#fff"/><path d="m31.584 19.107.387-.222.086.15c.028-.115.062-.203.101-.262.04-.061.098-.113.175-.157.102-.059.227-.087.377-.084l.027.456c-.104-.011-.191.004-.261.044-.211.121-.225.341-.041.659l.498.868-.387.222z" fill="#fff"/><path d="m34.134 17.643.388-.223.962 1.674-.388.223-.101-.175c-.074.241-.202.413-.385.519-.232.133-.471.159-.718.079-.248-.084-.445-.254-.592-.51-.144-.251-.189-.503-.135-.757.054-.253.194-.445.419-.575.195-.112.415-.132.662-.06zm-.44 1.359c.092.16.21.266.354.318.147.051.287.038.421-.038.143-.082.231-.198.262-.347.03-.153 0-.307-.091-.464-.09-.157-.209-.261-.355-.312-.145-.049-.289-.033-.43.048-.133.077-.215.191-.247.343-.028.15 0 .301.086.452z" fill="#fff"/><path d="m36.354 16.463.295.514c-.15-.057-.271-.086-.364-.086-.093-.002-.185.024-.278.077-.145.083-.237.204-.275.361s-.013.313.076.466c.09.157.211.259.361.307.152.047.3.029.446-.055.093-.053.163-.12.211-.201.047-.079.084-.2.112-.366l.293.51c-.11.172-.244.302-.401.393-.259.149-.523.189-.793.122-.271-.069-.478-.228-.621-.477-.143-.25-.176-.511-.099-.784.078-.273.245-.483.501-.631.165-.095.344-.144.536-.15z" fill="#fff"/><path d="m36.368 14.725 1.017 1.77.234-.854.519-.298-.323 1.12 1.338.523-.502.288-.959-.388-.026.097.37.644-.387.222-1.667-2.902z" fill="#fff"/><path d="m38.961 12.888 2.038 1.642-.442-2.763 2.127 1.795-.34-2.617.519-.298.519 4.176-2.102-1.773.44 2.731-3.278-2.594z" fill="#fff"/><path d="m43.292 10.85c-.046-.08-.057-.167-.032-.26s.079-.162.16-.209c.083-.048.171-.06.264-.034.092.024.162.077.209.16.048.083.06.171.035.264-.024.092-.077.162-.16.209-.083.048-.171.059-.264.034-.093-.024-.164-.079-.212-.164zm1.007.525 1.146 1.996-.461.265-1.146-1.995z" fill="#fff"/><path d="m44.883 11.04.463-.266.106.184c.069-.252.205-.437.407-.553.232-.134.455-.164.669-.093.183.06.356.231.518.512l.703 1.223-.463.266-.64-1.115c-.113-.197-.218-.317-.316-.361-.097-.046-.216-.028-.357.053-.153.088-.233.201-.239.338-.005.136.063.328.206.577l.553.963-.463.266z" fill="#fff"/><path d="m47.184 9.718.463-.266.106.184c.069-.252.205-.437.407-.553.232-.133.455-.164.669-.093.184.06.356.231.518.512l.703 1.223-.463.266-.64-1.115c-.113-.197-.219-.317-.316-.361-.097-.046-.216-.028-.357.053-.154.089-.234.202-.24.34-.006.136.063.328.206.577l.553.963-.463.266z" fill="#fff"/><path d="m51.938 8.459-1.43.821c.107.157.235.257.385.3.149.041.297.02.445-.065.115-.066.194-.148.238-.245.042-.097.068-.246.078-.448l.514-.006c-.001.137-.014.261-.039.373s-.062.213-.112.304c-.049.091-.112.173-.189.246-.076.073-.166.139-.27.199-.298.171-.592.213-.882.125-.291-.089-.528-.293-.711-.611-.181-.316-.24-.621-.178-.917.066-.294.244-.524.535-.692.294-.169.58-.209.858-.12.276.088.509.297.698.626zm-.69-.105c-.205-.209-.431-.243-.677-.101-.056.032-.104.071-.143.116s-.07.096-.092.151-.034.114-.037.175.005.125.022.191z" fill="#fff"/><path d="m51.806 7.063.461-.265.102.178c.034-.138.074-.242.121-.312.047-.073.117-.135.208-.188.121-.07.271-.103.449-.1l.031.544c-.124-.013-.227.005-.31.053-.252.144-.268.406-.05.786l.595 1.035-.461.265z" fill="#fff"/><g fill="#fecd2e"><path d="m10.609 79.187c-.018 0-.033.004-.05.005v1.095c.017.001.032.005.05.005h89.686v-1.104h-89.686z"/><path d="m27.59 79.339c0-3.941 0-7.882 0-11.824 0-.711-1.104-.712-1.104 0v11.824c0 .71 1.104.712 1.104 0z"/><path d="m27.044 66.9c-.2 0-.4 0-.599 0-.711 0-.712 1.104 0 1.104h2.076c.711 0 .712-1.104 0-1.104-.028 0-.055 0-.083 0-.711 0-.712 1.104 0 1.104h12.417c.711 0 .712-1.104 0-1.104-4.139 0-8.278 0-12.417 0-.711 0-.712 1.104 0 1.104h.083c.711 0 .712-1.104 0-1.104-.692 0-1.384 0-2.076 0-.711 0-.712 1.104 0 1.104h.599c.71 0 .711-1.104 0-1.104z"/><path d="m40.71 79.276c0-3.857 0-7.714 0-11.571 0-.711-1.104-.712-1.104 0v11.571c0 .71 1.104.711 1.104 0z"/><path d="m27.021 67.42c0-.896 0-1.791 0-2.687 0-.711-1.104-.712-1.104 0v2.687c0 .711 1.104.712 1.104 0z"/><path d="m26.501 65.222h14.321c.711 0 .712-1.104 0-1.104-4.774 0-9.548 0-14.321 0-.711-.001-.712 1.104 0 1.104z"/><path d="m41.374 67.452c0-.885 0-1.77 0-2.656 0-.711-1.104-.712-1.104 0v2.656c0 .71 1.104.712 1.104 0z"/><path d="m29.424 79.434c0-1.928 0-3.857 0-5.785 0-.711-1.104-.712-1.104 0v5.785c0 .71 1.104.711 1.104 0z"/><path d="m28.809 74.169h2.434c.711 0 .712-1.104 0-1.104-.811 0-1.623 0-2.434 0-.711-.001-.712 1.104 0 1.104z"/><path d="m32.143 79.528c0-1.907 0-3.815 0-5.722 0-.711-1.104-.712-1.104 0v5.722c-.001.711 1.104.712 1.104 0z"/><path d="m33.898 74.137h6.133c.711 0 .712-1.104 0-1.104-2.044 0-4.089 0-6.133 0-.71 0-.711 1.104 0 1.104z"/><path d="m33.315 72.573v1.043c0 .711 1.104.712 1.104 0 0-.348 0-.696 0-1.043 0-.71-1.104-.712-1.104 0z"/><path d="m39.937 71.989c-1.907 0-3.815 0-5.722 0-.711 0-.712 1.104 0 1.104h5.722c.71.001.712-1.104 0-1.104z"/><path d="m34.356 72.51c0-.548 0-1.096 0-1.644 0-.711-1.104-.712-1.104 0v1.644c-.001.711 1.104.712 1.104 0z"/><path d="m33.329 71.102h1.107c.711 0 .712-1.104 0-1.104-.369 0-.738 0-1.107 0-.71 0-.711 1.104 0 1.104z"/><path d="m33.283 73.964v2.845c0 .711 1.104.712 1.104 0 0-.948 0-1.897 0-2.845 0-.71-1.104-.711-1.104 0z"/><path d="m34.025 77.457h5.564c.711 0 .712-1.104 0-1.104-1.855 0-3.709 0-5.564 0-.711-.001-.712 1.104 0 1.104z"/><path d="m33.315 76.683v2.466c0 .711 1.104.712 1.104 0 0-.822 0-1.644 0-2.466 0-.71-1.104-.712-1.104 0z"/><path d="m35.324 76.93c.039-.053.088-.118.138-.157.065-.032.078-.043.038-.032.068-.018.076-.021.023-.008.014.06-.134-.157-.003.011.06.077.124.134.178.217.386.594 1.343.041.954-.557-.257-.396-.621-.773-1.129-.775-.51-.002-.872.361-1.153.744-.176.241-.041.616.198.756.28.163.579.043.756-.199z"/><path d="m38.845 76.652c-.002-.304-.04-.628.012-.928-.226.129-.453.257-.679.386.078.032.135.089.136.09-.032-.043.036.066.041.079-.036-.099.01.069.011.072.038.166.056.454.09.701.042.296.418.457.679.386.318-.087.428-.383.386-.679-.045-.32-.048-.676-.192-.988-.172-.373-.488-.574-.858-.725-.258-.106-.633.117-.679.386-.07.408-.054.81-.051 1.222.004.708 1.109.71 1.104-.002z"/><path d="m35.021 76.886c.069.032.139.062.21.088.035.013.142.061.001-.004.138.064.274.097.426.056.128-.035.267-.134.33-.254.129-.244.082-.626-.198-.756-.069-.032-.139-.062-.21-.088-.035-.013-.141-.061-.001.004-.138-.064-.274-.097-.426-.056-.128.035-.267.134-.33.254-.129.245-.081.626.198.756z"/><path d="m38.153 76.435c.017.035.035.069.052.104.01.021.05.112.01.017-.039-.091-.009-.014-.002.004.031.081-.011-.153-.008-.067.011.288.246.566.552.552.29-.013.564-.243.552-.552-.009-.227-.102-.416-.202-.616-.129-.259-.516-.352-.756-.198-.265.171-.336.479-.198.756z"/><path d="m28.56 67.262c0-.688 0-1.377 0-2.065 0-.711-1.104-.712-1.104 0v2.065c-.001.711 1.104.712 1.104 0z"/><path d="m30.457 67.262c0-.688 0-1.377 0-2.065 0-.711-1.104-.712-1.104 0v2.065c-.001.711 1.104.712 1.104 0z"/><path d="m32.354 67.262c0-.688 0-1.377 0-2.065 0-.711-1.104-.712-1.104 0v2.065c-.001.711 1.104.712 1.104 0z"/><path d="m34.251 67.262c0-.688 0-1.377 0-2.065 0-.711-1.104-.712-1.104 0v2.065c-.001.711 1.104.712 1.104 0z"/><path d="m36.147 67.262c0-.688 0-1.377 0-2.065 0-.711-1.104-.712-1.104 0v2.065c0 .711 1.104.712 1.104 0z"/><path d="m38.044 67.262c0-.688 0-1.377 0-2.065 0-.711-1.104-.712-1.104 0v2.065c0 .711 1.104.712 1.104 0z"/><path d="m39.941 67.262c0-.688 0-1.377 0-2.065 0-.711-1.104-.712-1.104 0v2.065c0 .711 1.104.712 1.104 0z"/><path d="m40.11 64.164c0-1.201 0-2.403 0-3.604 0-.711-1.104-.712-1.104 0v3.604c-.001.711 1.104.712 1.104 0z"/><path d="m39.747 60.733h26.872c.711 0 .712-1.104 0-1.104-8.957 0-17.915 0-26.872 0-.711-.001-.712 1.104 0 1.104z"/><path d="m66.13 60.181v18.905c0 .711 1.104.712 1.104 0 0-.021 0-.042 0-.063 0-.711-1.104-.712-1.104 0v.063c0 .711 1.104.712 1.104 0 0-6.302 0-12.604 0-18.905.001-.711-1.104-.712-1.104 0z"/><path d="m57.814 79.655c0-2.529 0-5.058 0-7.587 0-.711-1.104-.712-1.104 0v7.587c-.001.711 1.104.712 1.104 0z"/><path d="m57.262 72.746h5.943c.711 0 .712-1.104 0-1.104-1.981 0-3.962 0-5.943 0-.711 0-.712 1.104 0 1.104z"/><path d="m62.526 72.384v7.208c0 .711 1.104.712 1.104 0 0-2.403 0-4.805 0-7.208.001-.711-1.104-.712-1.104 0z"/><path d="m60.722 79.465c0-2.276 0-4.552 0-6.829 0-.711-1.104-.712-1.104 0v6.829c0 .711 1.104.712 1.104 0z"/><path d="m40.632 59.628c-.822 0-1.644 0-2.466 0-.711 0-.712 1.104 0 1.104h2.466c.711.001.712-1.104 0-1.104z"/><path d="m38.782 59.991c0-1.222 0-2.445 0-3.667 0-.711-1.104-.712-1.104 0v3.667c-.001.71 1.104.712 1.104 0z"/><path d="m38.356 56.686h30.603c.711 0 .712-1.104 0-1.104-10.201 0-20.402 0-30.603 0-.711 0-.712 1.104 0 1.104z"/><path d="m66.24 60.796h2.592c.711 0 .712-1.104 0-1.104-.864 0-1.728 0-2.592 0-.711 0-.712 1.104 0 1.104z"/><path d="m69.321 60.244c0-1.244 0-2.487 0-3.731 0-.711-1.104-.712-1.104 0v3.731c0 .71 1.104.712 1.104 0z"/><path d="m42.002 66.718h11.634c.711 0 .712-1.104 0-1.104-3.878 0-7.756 0-11.634 0-.71 0-.712 1.104 0 1.104z"/><path d="m52.958 66.25v8.557c0 .711 1.104.712 1.104 0 0-2.852 0-5.705 0-8.557 0-.71-1.104-.711-1.104 0z"/><path d="m53.341 74.34c-3.625 0-7.25 0-10.875 0-.711 0-.712 1.104 0 1.104h10.875c.711 0 .712-1.104 0-1.104z"/><path d="m42.934 74.85c0-2.74 0-5.48 0-8.22 0-.711-1.104-.712-1.104 0v8.22c-.001.71 1.104.711 1.104 0z"/><path d="m57.047 68.569v1.981c0 .711 1.104.712 1.104 0 0-.66 0-1.321 0-1.981 0-.711-1.104-.712-1.104 0z"/><path d="m57.599 68.91h5.185c.711 0 .712-1.104 0-1.104-1.728 0-3.457 0-5.185 0-.711 0-.712 1.104 0 1.104z"/><path d="m57.683 71.144h5.1c.711 0 .712-1.104 0-1.104-1.7 0-3.4 0-5.1 0-.711 0-.712 1.104 0 1.104z"/><path d="m63.378 70.424c0-.632 0-1.265 0-1.897 0-.711-1.104-.712-1.104 0v1.897c-.001.71 1.104.711 1.104 0z"/><path d="m42.677 63.051c.711 0 .712-1.104 0-1.104-.711 0-.712 1.104 0 1.104z"/><path d="m44.321 62.882h17.788c.711 0 .712-1.104 0-1.104-5.929 0-11.859 0-17.788 0-.711 0-.712 1.104 0 1.104z"/><path d="m63.795 62.756c.711 0 .712-1.104 0-1.104-.71 0-.712 1.104 0 1.104z"/><path d="m66.999 69.121h7.798c.711 0 .712-1.104 0-1.104-2.599 0-5.199 0-7.798 0-.711 0-.712 1.104 0 1.104z"/><path d="m74.169 79.571c0-3.471 0-6.941 0-10.412 0-.711-1.104-.712-1.104 0v10.412c-.001.71 1.104.712 1.104 0z"/><path d="m67.125 67.814h7.587c.711 0 .712-1.104 0-1.104-2.529 0-5.058 0-7.587 0-.711 0-.712 1.104 0 1.104z"/><path d="m75.307 68.358c0-.283 0-.567 0-.85 0-.289-.254-.566-.552-.552-.299.013-.552.243-.552.552v.007c0 .289.254.566.552.552.299-.013.552-.243.552-.552 0-.002 0-.005 0-.007 0-.289-.254-.566-.552-.552-.299.013-.552.243-.552.552v.85c0 .289.254.566.552.552.299-.013.552-.242.552-.552z"/><path d="m83.99 71.182c0-.829 0-1.658 0-2.487 0-.711-1.104-.712-1.104 0v2.487c0 .711 1.104.712 1.104 0z"/><path d="m75.008 68.615h8.388c.711 0 .712-1.104 0-1.104-2.796 0-5.592 0-8.388 0-.711 0-.712 1.104 0 1.104z"/><path d="m83.99 68.611c0-.155 0-.309 0-.464 0-.289-.254-.566-.552-.552-.299.013-.552.243-.552.552v.464c0 .289.254.566.552.552.299-.013.552-.242.552-.552z"/><path d="m73.435 71.714c.445.699 1.128 1.276 2 1.252.869-.024 1.529-.64 1.905-1.379.322-.632-.631-1.192-.954-.557-.496.975-1.391 1.079-1.997.127-.381-.599-1.337-.045-.954.557z"/><path d="m76.217 71.672c.522.709 1.243 1.276 2.168 1.247.923-.03 1.627-.653 2.073-1.415.36-.615-.594-1.171-.954-.557-.587 1.003-1.621 1.138-2.334.169-.416-.568-1.375-.018-.953.556z"/><path d="m79.423 71.741c1.231 1.537 3.696 1.777 4.577-.238.282-.645-.669-1.208-.954-.557-.606 1.388-2.036 1.021-2.842.015-.445-.555-1.222.231-.781.78z"/><path d="m79.303 71.772v4.257c0 .711 1.104.712 1.104 0 0-1.419 0-2.838 0-4.257 0-.71-1.104-.711-1.104 0z"/><path d="m75.889 72.067v4.089c0 .711 1.104.712 1.104 0 0-1.363 0-2.726 0-4.089 0-.71-1.104-.711-1.104 0z"/><path d="m74.249 76.835h9.063c.711 0 .712-1.104 0-1.104-3.021 0-6.042 0-9.063 0-.711 0-.712 1.104 0 1.104z"/><path d="m82.97 70.972v8.43c0 .711 1.104.712 1.104 0 0-2.81 0-5.62 0-8.43.001-.711-1.104-.712-1.104 0z"/></g><path d="m50.85 57.286-.293.173c-.055-.095-.107-.157-.156-.186-.052-.033-.118-.05-.2-.05-.1 0-.183.028-.249.085-.066.056-.099.126-.099.211 0 .117.087.211.26.282l.239.098c.194.079.336.174.426.287s.135.252.135.416c0 .22-.073.402-.22.546-.148.145-.331.217-.55.217-.208 0-.379-.061-.514-.184-.133-.123-.216-.296-.249-.519l.366-.08c.016.14.045.237.087.291.074.103.183.155.325.155.113 0 .206-.038.28-.113s.112-.171.112-.287c0-.046-.006-.089-.019-.128s-.033-.074-.06-.107-.063-.063-.106-.091-.095-.056-.155-.082l-.231-.096c-.327-.138-.491-.341-.491-.607 0-.18.069-.33.206-.451.137-.122.308-.183.513-.183.272 0 .488.135.643.403z" fill="#fff"/><path d="m51.708 57.866h1.032v-.936h.361v2.392h-.361v-1.117h-1.032v1.117h-.361v-2.392h.361z" fill="#fff"/><path d="m53.555 58.115c0-.337.123-.626.37-.868.246-.242.541-.363.886-.363.341 0 .633.122.877.366.245.244.367.537.367.879 0 .344-.123.636-.369.875-.247.241-.545.361-.894.361-.309 0-.586-.107-.832-.321-.27-.236-.405-.546-.405-.929zm.364.005c0 .264.089.482.267.652.177.17.381.256.612.256.251 0 .463-.087.635-.26.173-.176.259-.389.259-.642 0-.255-.085-.469-.256-.641-.17-.173-.379-.26-.629-.26-.249 0-.459.087-.631.26-.171.171-.257.383-.257.635z" fill="#fff"/><path d="m56.87 58.351v.971h-.361v-2.392h.409c.2 0 .352.014.454.042.103.028.194.08.273.158.137.134.206.304.206.508 0 .219-.073.393-.22.521s-.345.192-.593.192zm0-.335h.135c.332 0 .497-.127.497-.383 0-.247-.171-.37-.513-.37h-.119z" fill="#fff"/><path d="m50.193 74.584c-.112-.112-.225-.225-.337-.337l-6.871-6.871c-.288-.289-.735.159-.447.447l7.208 7.208c.288.289.735-.159.447-.447z" fill="#fff"/><path d="m71.174 14.18.231 2.123-.65-.372-.181-2.015-.096-.055-.824 1.44-.531-.304 2.014-3.518.622.356c.465.266.75.546.857.838.116.325.083.647-.099.966-.143.249-.337.422-.582.52s-.499.105-.761.021zm-.43-.781.168.096c.503.288.864.239 1.084-.145.206-.36.064-.68-.425-.96l-.189-.108z" fill="#fecd2e"/><path d="m73.618 14.623-.729 1.274c-.21.368-.17.635.12.801s.541.065.751-.302l.729-1.274.513.293-.736 1.285c-.102.178-.212.319-.33.422-.109.091-.242.153-.4.186-.259.051-.522 0-.79-.153-.266-.152-.442-.353-.53-.602-.053-.154-.069-.301-.047-.441.017-.128.083-.293.2-.497l.736-1.285z" fill="#fecd2e"/><path d="m75.649 15.785.515.295-.117.205c.281-.075.534-.049.759.08.258.148.413.344.464.59.046.209-.021.471-.2.783l-.779 1.361-.515-.295.709-1.24c.125-.219.181-.387.168-.506-.011-.119-.094-.223-.251-.313-.17-.097-.323-.11-.459-.039-.133.071-.279.245-.437.521l-.613 1.073-.515-.295z" fill="#fecd2e"/><path d="m78.208 17.25.515.295-.117.205c.281-.075.534-.049.759.08.258.148.413.344.464.589.046.21-.021.471-.2.784l-.779 1.36-.515-.295.709-1.24c.125-.219.181-.387.168-.506-.011-.119-.094-.223-.251-.313-.17-.098-.323-.11-.459-.039-.134.071-.279.245-.437.521l-.613 1.071-.515-.295z" fill="#fecd2e"/><path d="m82.084 21.102-1.591-.911c-.091.19-.115.369-.072.537.044.166.148.296.312.39.127.073.25.103.369.09.117-.014.275-.073.474-.177l.294.489c-.132.076-.259.133-.379.171-.121.039-.239.06-.354.064s-.229-.011-.342-.043-.227-.081-.342-.147c-.331-.19-.536-.448-.615-.775-.078-.329-.016-.671.187-1.025.201-.351.461-.579.78-.685.319-.102.64-.06.963.125.327.187.525.439.596.756.07.314 0 .655-.209 1.021zm-.287-.721c.085-.314-.009-.55-.282-.706-.062-.036-.126-.06-.192-.072s-.131-.014-.196-.003c-.065.01-.128.031-.189.063-.06.032-.117.075-.171.129z" fill="#fecd2e"/><path d="m83.348 20.192.513.294-.113.198c.151-.045.273-.064.367-.059.096.005.195.036.297.094.135.078.251.203.348.375l-.503.335c-.057-.126-.132-.215-.225-.268-.28-.16-.54-.029-.782.393l-.659 1.151-.513-.294z" fill="#fecd2e"/><path d="m87.907 21.077-1.213 2.119c-.173.302-.25.551-.231.748.032.286.181.506.449.659.269.154.535.172.798.054.176-.079.352-.271.528-.578l1.213-2.119.531.304-1.296 2.265c-.212.371-.502.61-.871.718-.413.119-.808.07-1.187-.147-.378-.217-.62-.532-.725-.947-.094-.372-.034-.744.178-1.114l1.296-2.265z" fill="#fecd2e"/><path d="m88.533 27.71-.513-.293 1.961-3.427.513.293-.138.242c.318-.087.605-.056.862.091.305.175.493.431.561.769.073.338.012.677-.183 1.018-.19.333-.448.553-.774.661-.324.107-.636.075-.936-.097-.26-.149-.433-.386-.519-.711zm2.538-1.607c.122-.213.163-.419.124-.619-.04-.202-.148-.354-.326-.456-.189-.108-.379-.13-.57-.066-.192.064-.348.202-.47.414-.119.208-.159.413-.119.616.04.198.154.351.342.459.178.102.363.119.554.051.195-.065.35-.198.465-.399z" fill="#fecd2e"/><circle cx="93.447" cy="27.388" fill="#fecd2e" r=".912"/><circle cx="67.91" cy="12.023" fill="#fecd2e" r=".912"/><path d="m74.55 109.737.412-.24.848 1.46c.07-.217.194-.377.371-.48.202-.117.401-.145.598-.085.169.054.326.206.471.455l.636 1.095-.413.24-.613-1.056c-.083-.143-.169-.232-.257-.267s-.188-.019-.301.046c-.144.084-.22.187-.227.311-.005.124.056.296.184.516l.502.864-.413.24z" fill="#fff"/><path d="m78.688 109.088.415-.241 1.037 1.787-.414.241-.109-.187c-.078.258-.214.443-.41.557-.247.143-.503.173-.768.088-.266-.089-.478-.27-.636-.543-.156-.268-.205-.538-.149-.809.056-.272.205-.477.446-.617.208-.121.444-.143.709-.068zm-.464 1.456c.099.171.226.284.38.338.157.054.307.04.451-.043.153-.089.246-.213.279-.373.031-.163-.002-.329-.1-.497-.097-.167-.225-.278-.382-.332-.156-.052-.309-.034-.459.054-.142.082-.229.205-.262.368-.031.163 0 .325.093.485z" fill="#fff"/><path d="m81.058 107.815.318.548c-.161-.06-.291-.09-.39-.09-.099-.002-.198.027-.297.084-.155.09-.253.219-.292.388s-.012.335.083.499c.097.168.227.276.388.326.163.05.322.029.477-.061.099-.058.174-.13.225-.216.049-.084.088-.215.118-.392l.316.545c-.117.184-.259.325-.427.422-.276.16-.559.206-.849.135-.29-.072-.513-.241-.667-.508-.155-.267-.191-.546-.11-.839.082-.293.26-.519.534-.678.177-.103.368-.157.573-.163z" fill="#fff"/><path d="m81.065 105.954 1.097 1.889.246-.915.554-.322-.34 1.201 1.434.553-.536.311-1.028-.411-.028.104.399.688-.413.24-1.799-3.098z" fill="#fff"/><path d="m84.601 105.655.414-.241 1.037 1.786-.415.241-.109-.187c-.077.258-.214.443-.41.557-.247.143-.503.173-.768.088-.266-.089-.478-.27-.636-.543-.156-.268-.205-.537-.148-.809.056-.271.205-.477.446-.617.208-.121.444-.143.708-.068zm-.464 1.456c.1.171.226.284.38.338.157.054.308.04.451-.043.153-.089.246-.213.279-.373.031-.163-.002-.329-.1-.497-.097-.167-.225-.278-.382-.332-.156-.052-.309-.034-.459.054-.142.082-.229.205-.262.368-.031.163 0 .325.093.485z" fill="#fff"/><path d="m86.185 105.249.814 1.401-.413.239-.814-1.401-.176.102-.224-.385.176-.102-.38-.655.413-.239.38.655.321-.186.224.385z" fill="#fff"/><path d="m85.802 103.204.413-.24.848 1.46c.07-.217.194-.377.371-.48.202-.117.401-.146.598-.085.169.054.325.206.47.455l.636 1.095-.413.24-.613-1.057c-.083-.143-.169-.232-.257-.267s-.188-.019-.301.046c-.144.084-.22.187-.227.311-.005.124.056.296.184.516l.502.864-.413.24z" fill="#fff"/><path d="m89.05 104.248c-.15-.258-.185-.531-.106-.819.08-.288.252-.509.518-.663.267-.155.546-.195.837-.121.289.076.511.246.665.511.155.268.193.546.114.834-.081.288-.257.51-.528.667-.268.156-.545.194-.833.116-.285-.076-.508-.251-.667-.525zm.426-.237c.104.179.233.292.389.341.159.048.318.026.478-.067.161-.094.26-.221.297-.381.036-.16.004-.327-.097-.501s-.23-.284-.387-.332c-.159-.048-.318-.026-.478.067-.158.092-.255.218-.292.38-.036.162-.006.327.09.493z" fill="#fff"/><path d="m90.881 102.008.415-.241.096.165c.061-.227.182-.393.363-.498.208-.121.408-.149.6-.086.165.053.32.205.467.457l.636 1.095-.415.241-.579-.998c-.102-.176-.197-.284-.285-.322-.087-.041-.194-.025-.32.048-.137.08-.208.181-.213.305-.004.122.058.294.187.517l.501.862-.415.241z" fill="#fff"/><path d="m95.585 101.129 1.055-.612.233.402-1.902 1.104.292-1.761c.028-.175.049-.325.064-.449.015-.125.023-.226.023-.305.003-.155-.022-.279-.075-.37-.077-.132-.187-.216-.332-.251s-.286-.013-.422.066c-.286.166-.352.43-.197.793l-.426.247c-.278-.637-.15-1.11.384-1.42.258-.15.522-.193.792-.131.271.062.477.213.618.456.09.154.136.329.14.525.003.101-.005.228-.023.38-.019.153-.048.336-.086.551z" fill="#fff"/><path d="m96.522 99.204c-.262-.451-.366-.872-.312-1.264.047-.352.204-.607.472-.762s.566-.166.896-.032c.367.147.684.452.953.915.268.462.375.889.321 1.28-.047.353-.204.606-.47.761-.267.155-.566.166-.898.033-.366-.146-.686-.457-.962-.931zm.421-.242c.182.314.388.544.618.688.227.141.425.163.594.065.168-.097.247-.28.239-.548-.008-.267-.102-.555-.281-.864-.18-.309-.384-.534-.612-.675-.228-.139-.426-.16-.593-.063-.166.097-.246.278-.238.545.007.266.098.55.273.852z" fill="#fff"/><path d="m99.119 96.361-.49.284.003-.536.682-.396 1.644 2.832-.427.248z" fill="#fff"/><path d="m101.63 96.187c-.293-.026-.513-.166-.66-.419-.133-.23-.166-.468-.098-.713.069-.247.222-.438.458-.575.235-.136.475-.173.721-.109.245.062.435.209.57.441.141.243.153.502.036.776.149-.005.29.032.423.112.134.079.244.192.329.339.146.251.183.504.112.759-.071.256-.234.457-.49.606-.262.152-.524.196-.788.134-.265-.062-.468-.215-.61-.46-.184-.319-.185-.616-.003-.891zm-.26-.654c.07.121.17.199.3.233.132.035.256.018.373-.05.116-.067.192-.167.226-.298.035-.132.019-.255-.049-.372-.067-.116-.167-.192-.298-.227-.132-.035-.255-.018-.371.049-.116.068-.192.167-.227.298s-.019.254.046.367zm.675 1.285c.076.131.187.217.332.259.145.04.284.022.415-.055.129-.075.213-.185.252-.33.038-.146.019-.284-.056-.414-.076-.131-.186-.215-.331-.254-.145-.038-.282-.02-.412.055-.128.075-.212.185-.252.33-.039.146-.021.282.052.409z" fill="#fff"/><path d="m58.21 121.902c-.018-.031-.037-.063-.055-.094-.018-.032-.036-.063-.045-.099-.007-.028-.024-.052-.037-.077-.009-.018-.02-.036-.021-.057 0-.005-.001-.01-.003-.014-.018-.037-.033-.075-.045-.114-.011-.036-.021-.073-.031-.109-.015-.05-.026-.101-.036-.152-.014-.072-.025-.145-.031-.219-.009-.095-.011-.189-.009-.284.001-.072.011-.144.018-.216.006-.064.024-.126.034-.189.013-.082.039-.159.063-.237.037-.121.087-.238.146-.35.039-.074.082-.145.127-.215.025-.039.051-.078.081-.113.029-.034.052-.074.088-.103.013-.01.015-.028.029-.037.012-.007.02-.019.028-.031.013-.02.035-.031.05-.05.026-.03.056-.055.085-.081.035-.03.072-.057.105-.088.032-.029.067-.053.102-.077.075-.053.15-.106.232-.147.104-.053.21-.103.32-.142.042-.015.083-.029.125-.041.034-.01.067-.027.104-.026.025-.015.056-.009.082-.021.02-.01.043-.007.064-.012.047-.011.095-.016.143-.021.09-.009.181-.014.272-.013s.181.012.271.02c.09.009.176.036.265.048.014.002.027.007.041.012.03.01.059.022.089.029.076.017.146.049.217.079.056.024.112.048.166.076.058.031.114.065.169.1.075.047.146.099.213.156.038.032.08.06.111.101.032.016.044.053.076.07.008.004.013.014.018.021.011.015.022.03.038.042.009.006.016.015.022.024.014.019.026.039.047.053.01.007.017.019.023.029.021.032.041.064.067.092.028.031.049.066.069.102.025.042.05.084.075.127.021.035.042.071.055.11.011.033.028.064.044.094.01.018.021.036.021.057 0 .003.001.007.002.009.018.035.031.072.041.11.006.021.015.04.019.063.004.026.015.051.022.077.02.074.034.149.046.225.017.107.025.214.026.323.001.056-.006.112-.003.168-.016.113-.023.228-.053.339-.008.032-.012.065-.021.097-.015.052-.033.102-.048.154-.017.057-.043.111-.065.166-.052.13-.123.25-.198.369-.038.041-.062.093-.101.134-.015.015-.026.034-.041.051-.032.036-.06.076-.095.109-.026.025-.047.056-.079.075-.061.069-.138.12-.207.18-.002.002-.005.004-.008.006-.091.06-.177.128-.276.175-.074.035-.145.076-.223.105-.047.017-.095.035-.142.054-.03.012-.063.019-.095.029-.039.013-.078.024-.118.03-.048.008-.093.026-.142.025-.095.022-.192.028-.289.031-.092.003-.185.004-.277-.009-.043-.006-.087-.007-.13-.014-.053-.008-.105-.021-.157-.03-.1-.015-.193-.054-.29-.081-.051-.015-.099-.041-.148-.061-.073-.029-.142-.066-.21-.104-.084-.047-.164-.101-.242-.159-.043-.032-.084-.067-.124-.102-.039-.034-.075-.072-.113-.107-.028-.026-.048-.059-.08-.08-.006-.004-.01-.012-.015-.018-.017-.025-.034-.049-.058-.068-.013-.01-.021-.027-.03-.042-.018-.028-.037-.055-.06-.079-.011-.011-.02-.024-.029-.038-.022-.043-.046-.084-.071-.125.001 0 .001 0 0 0zm1.496-.913c.043-.035.082-.072.126-.102.09-.059.18-.117.281-.157.041-.016.078-.043.12-.057.075-.027.143-.067.211-.107.037-.022.073-.044.103-.076.007-.008.017-.015.026-.02.037-.02.057-.059.091-.082.045-.061.093-.12.119-.194.037-.106.038-.209-.008-.312-.017-.039-.04-.076-.065-.11-.04-.056-.093-.098-.156-.126-.069-.031-.142-.046-.219-.046-.066 0-.13.007-.193.029-.004.002-.009.002-.014.002-.015-.002-.028.006-.04.012-.062.032-.122.068-.18.106-.009.006-.02.011-.024.022-.007.016-.021.023-.033.033-.006.005-.014.009-.018.015-.025.037-.058.069-.084.106-.045.063-.082.131-.108.203-.045.128-.066.261-.061.397.003.084.016.166.037.247.008.03.012.062.028.09.009.017.014.035.019.053.007.028.018.054.042.074zm.263-.016c-.02.012-.04.025-.061.036-.023.012-.04.031-.057.049-.005.006-.013.009-.019.014-.022.017-.05.027-.065.053-.015.024-.049.031-.057.062-.036.04-.062.085-.085.134-.052.107-.049.216-.006.323.027.069.075.125.136.171.075.056.159.082.25.085.081.003.162-.002.237-.04.008-.004.018-.005.027-.007s.018-.004.027-.008c.082-.038.16-.099.225-.169.027-.029.051-.058.075-.089.062-.082.101-.173.131-.27.014-.044.017-.089.026-.134.008-.04.01-.081.01-.121 0-.08-.008-.16-.024-.239-.005-.022-.015-.041-.019-.063-.007-.047-.029-.089-.044-.134-.003-.009-.008-.017-.013-.025-.007-.012-.013-.013-.026-.003-.032.024-.065.045-.093.074-.011.011-.025.02-.038.028-.06.035-.12.071-.18.105-.016.009-.034.017-.052.023-.027.009-.053.021-.078.035-.026.014-.052.031-.08.041-.055.015-.101.041-.147.069z" fill="#fff"/><path d="m68.778 116.084c.155.263.31.527.465.79.012.02.024.039.035.06.017.034.013.049-.02.072-.017.011-.034.021-.052.031-.124.073-.248.147-.373.219-.119.069-.096.075-.165-.039-.015-.025-.029-.05-.044-.074-.004-.007-.009-.015-.016-.02-.006-.005-.015-.007-.022.001-.012.014-.016.031-.018.048-.015.113-.065.213-.13.304-.032.045-.063.096-.117.123-.012.006-.024.017-.033.027-.061.069-.135.115-.226.133-.011.002-.022.007-.032.013-.088.047-.184.053-.281.06-.113.008-.222-.008-.329-.038-.093-.026-.182-.066-.263-.119-.033-.022-.066-.045-.098-.068-.049-.035-.095-.072-.132-.12-.012-.016-.023-.034-.038-.047-.088-.075-.132-.181-.188-.277-.01-.017-.013-.038-.019-.057s-.009-.04-.018-.057c-.044-.089-.056-.185-.066-.282-.017-.162.005-.32.064-.471.036-.093.089-.178.147-.26.042-.06.11-.092.147-.154.086-.051.161-.122.267-.135.008-.001.017-.005.024-.008.108-.049.222-.049.337-.034.046.006.091.014.134.032.019.008.038.011.059.01.011-.001.014-.011.011-.018-.008-.018-.018-.036-.028-.054-.023-.04-.046-.08-.069-.12-.01-.018-.005-.033.012-.044.029-.019.057-.039.087-.057.111-.066.223-.132.335-.198.032-.019.066-.035.101-.05.018-.008.034-.003.044.015.012.02.024.039.036.059.156.267.314.536.472.804zm-1.443.844c.045.083.112.144.191.193.122.076.251.106.391.058.011-.004.022-.007.034-.008.036-.003.065-.021.096-.037.055-.029.082-.089.132-.123.064-.104.104-.214.094-.339-.004-.052-.022-.1-.033-.149-.01-.046-.028-.089-.057-.125-.066-.084-.142-.158-.241-.202-.154-.067-.306-.062-.453.025-.045.027-.081.059-.115.1-.032.038-.059.077-.077.122-.067.167-.048.329.038.485z" fill="#fff"/><path d="m72.122 114.043c.161.273.322.547.483.82.033.056.049.064-.025.107-.149.088-.298.176-.448.264-.005.003-.01.006-.015.009-.039.02-.047.019-.07-.017-.021-.034-.041-.069-.062-.104-.007-.012-.014-.025-.023-.036-.005-.006-.013-.011-.02-.012-.012-.002-.014.009-.014.017-.003.046-.014.09-.028.134-.028.085-.07.159-.128.229-.03.036-.062.067-.099.093-.007.005-.015.01-.02.017-.051.071-.128.11-.204.141-.081.034-.165.071-.254.075-.166.007-.323-.021-.458-.132-.038-.032-.074-.062-.1-.104-.008-.012-.015-.026-.026-.034-.053-.039-.083-.095-.115-.15-.216-.365-.432-.73-.647-1.096-.04-.067-.039-.069.024-.106.144-.085.288-.17.432-.255.01-.006.02-.012.03-.017.031-.015.048-.012.067.015.013.019.024.039.036.059.149.254.299.507.448.761.035.06.072.118.11.176.045.069.133.135.209.172.033.016.069.023.1.018.095-.018.195-.029.254-.123.017-.027.047-.039.063-.069.044-.081.049-.165.032-.251-.016-.085-.047-.164-.093-.24-.163-.272-.323-.546-.484-.82-.066-.112-.067-.096.041-.16.129-.077.258-.153.388-.229.02-.012.04-.023.061-.032.015-.007.029-.002.038.011.015.021.028.044.041.066.16.266.318.534.476.803z" fill="#fff"/><path d="m64.139 119.127c.075-.044.149-.088.224-.132.034-.02.047-.028.079.012.051.064.119.097.202.084s.163-.036.232-.088c.04-.03.067-.071.096-.109.022-.029.026-.067.01-.106-.032-.078-.076-.11-.159-.103-.054.004-.109.012-.162.024-.117.026-.233.061-.351.081-.112.019-.221.051-.337.048-.092-.002-.181-.014-.263-.059-.053-.029-.104-.06-.136-.114-.007-.012-.017-.024-.027-.033-.031-.028-.051-.061-.061-.102-.004-.017-.012-.033-.019-.048-.082-.166-.055-.328.027-.484.031-.059.066-.12.124-.161.023-.05.07-.075.112-.104.012-.008.023-.018.033-.028.092-.1.217-.149.332-.215.046-.005.09-.02.129-.044.038-.024.086-.008.124-.033.134-.015.266-.026.395.028.097.04.182.095.248.178.016.02.034.04.049.06.027.036.023.049-.017.076-.01.006-.02.012-.03.018-.132.078-.263.155-.395.233-.015.009-.03.018-.045.026-.025.012-.043.007-.062-.013-.011-.013-.02-.029-.032-.041-.034-.036-.074-.063-.125-.065-.086-.004-.167.015-.227.083-.028.032-.064.056-.079.101-.029.091.03.195.125.206.042.005.087.004.129-.004.107-.02.214-.046.32-.069.134-.029.265-.071.402-.079.103-.006.205-.002.3.051.038.021.075.044.103.076.06.069.112.143.148.231.072.179.045.347-.028.515-.024.054-.091.142-.136.184-.027.025-.04.062-.076.081-.03.016-.062.034-.084.06-.054.063-.127.099-.196.14-.032.019-.065.036-.102.046-.028.007-.056.017-.08.032-.062.041-.134.052-.203.068-.056.013-.116.023-.177.021-.084-.002-.167-.011-.243-.042-.081-.033-.163-.07-.219-.144-.054-.028-.081-.079-.112-.128-.005-.007-.009-.015-.013-.023-.012-.023-.009-.035.015-.05.047-.029.094-.056.141-.084.033-.02.065-.039.097-.058z" fill="#fff"/><path d="m73.438 112.795c-.067.04-.134.079-.201.118-.017.01-.035.02-.053.029-.015.007-.028.003-.038-.01-.017-.023-.032-.047-.055-.066-.103-.084-.242-.056-.331.023-.021.019-.041.041-.059.063-.063.08-.057.194.061.249.01.005.022.006.033.007.052.001.103.002.154-.009.107-.023.214-.044.319-.071.075-.019.149-.042.225-.054.108-.017.218-.033.329-.011.093.018.17.062.241.12.011.009.018.022.026.035.027.044.054.088.081.133.086.144.086.297.048.455-.026.105-.09.189-.148.277-.055.04-.087.107-.151.138-.018.008-.034.023-.048.037-.088.087-.192.146-.308.186-.024.008-.049.018-.072.03-.138.071-.287.091-.439.084-.11-.005-.214-.039-.306-.103-.084-.058-.154-.128-.204-.218-.018-.034-.015-.05.02-.071.146-.087.293-.173.44-.259.005-.003.01-.006.015-.008.033-.014.053-.012.074.02.041.061.1.083.17.081.1-.002.25-.055.311-.142.029-.04.061-.075.063-.127.002-.047-.042-.11-.086-.126-.042-.015-.085-.017-.128-.009-.082.015-.162.037-.244.052-.09.016-.177.046-.269.055-.042.004-.083.019-.125.026-.095.015-.198.02-.287.008-.134-.018-.236-.088-.312-.194-.093-.13-.14-.275-.117-.438.014-.099.057-.185.112-.265.034-.049.074-.093.113-.138.013-.015.031-.025.048-.037.028-.02.057-.036.076-.069.009-.016.03-.026.047-.037.059-.037.118-.072.177-.108.042-.025.084-.05.135-.056.014-.001.028-.008.04-.015.069-.037.144-.05.221-.059.051-.006.101-.01.152-.01.126.001.237.042.336.113.067.048.129.105.165.183.011.024.009.034-.014.05-.005.003-.01.006-.015.009-.072.041-.147.085-.222.129z" fill="#fff"/><path d="m69.139 115.831c-.076-.129-.152-.258-.228-.388-.01-.017-.02-.035-.031-.052-.019-.028-.037-.033-.066-.018-.046.025-.09.052-.135.078-.02.011-.04.024-.061.033-.03.013-.048.007-.066-.021-.024-.039-.047-.079-.071-.119-.04-.067-.08-.134-.118-.201-.023-.04-.019-.052.021-.077.046-.029.094-.056.141-.084.017-.01.035-.021.051-.032.017-.011.02-.029.013-.046-.008-.021-.02-.041-.032-.061-.074-.127-.149-.253-.224-.38-.043-.074-.043-.074.031-.118.134-.079.268-.158.402-.237.015-.009.03-.018.045-.025.014-.006.03-.002.039.009.014.018.027.037.038.057.073.124.147.248.22.373.057.097.053.083.136.035.077-.045.154-.091.231-.136.02-.012.04-.023.061-.032.014-.006.028-.003.038.011.005.007.01.014.014.022.062.104.123.208.184.313.021.035.018.05-.012.074-.016.012-.033.022-.051.033-.074.044-.149.088-.223.132-.017.01-.034.021-.051.032-.016.011-.02.028-.013.046.005.013.013.026.02.038.117.199.235.397.352.596.03.051.068.092.11.132.024.023.053.036.082.046s.058.011.092.002c.093-.026.178-.067.252-.129.007-.006.014-.01.021-.015.022-.014.038-.012.052.007.007.009.013.019.018.029.062.104.123.209.184.313.007.012.015.025.02.038.011.024.008.038-.013.052-.125.082-.232.19-.369.255-.031.015-.06.034-.096.038-.019.002-.038.012-.056.021-.188.088-.364.069-.531-.055-.087-.064-.158-.14-.213-.233-.066-.119-.137-.238-.208-.356.001-.001 0 0 0 0z" fill="#fff"/><path d="m65.644 117.884c-.075-.127-.149-.253-.224-.38-.012-.02-.023-.04-.036-.059-.015-.022-.036-.027-.061-.015-.023.011-.045.025-.068.038-.04.023-.079.048-.12.069-.039.02-.057.015-.079-.021-.062-.104-.124-.208-.184-.313-.025-.044-.022-.054.024-.082.054-.033.109-.064.164-.097.048-.029.051-.04.024-.09-.021-.038-.043-.075-.065-.112-.057-.097-.114-.194-.171-.291-.012-.02-.023-.04-.032-.061-.006-.014-.003-.028.011-.038.007-.005.014-.01.022-.014.149-.088.298-.176.447-.263.039-.023.054-.019.079.017.012.016.021.034.031.052.067.114.135.228.202.343.01.017.02.035.031.052.026.039.037.043.077.019.087-.05.174-.102.261-.153.101-.06.092-.051.143.034.053.089.106.179.158.268.026.045.024.055-.017.086-.018.014-.038.026-.058.037-.069.041-.139.082-.209.123-.017.01-.035.021-.051.033s-.018.029-.012.046c.006.016.016.031.024.046.111.189.223.377.333.566.035.061.079.113.132.158.051.044.106.058.174.039.091-.025.171-.066.244-.125.009-.007.019-.014.029-.019.014-.006.029-.004.039.008.009.011.017.023.025.035.062.104.123.209.184.313.006.01.012.02.016.03.012.027.008.042-.015.06-.016.012-.034.022-.05.034-.023.017-.048.032-.069.052-.081.08-.184.128-.281.184-.014.008-.032.013-.049.016-.026.005-.049.015-.073.027-.185.087-.36.066-.524-.054-.084-.062-.156-.135-.209-.226-.072-.125-.146-.248-.219-.373.003 0 .003.001.002.001z" fill="#fff"/></svg>