<svg enable-background="new 0 0 110.979 128.417" height="128.417" viewBox="0 0 110.979 128.417" width="110.979" xmlns="http://www.w3.org/2000/svg"><path d="m110.979 96.146-55.515 32.049-55.505-32.049v-64.097l55.505-32.049 55.515 32.049z" fill="#156cf9"/><path d="m101.534 37.497v53.2l-1.614.941-1.001.582-1.752 1.002-.591.35-.661.381-18.669 10.772-2.923 1.687-.752.431-.169.11-.952.541-5.468 3.154-3.005 1.732-1.693.972-1.312.761-1.693.981-2.314 1.332-1.5.871-.513-.288-3.365-1.954-20.547-11.865-21.636-12.493v-53.2l46.061-26.6 12.738 7.35 1.411.812 1.204.691.229.14.411.231.331.189 15.662 9.054 2.005 1.162 2.565 1.474 2.812 1.63z" fill="#020b5b"/><g fill="#f7e36b"><path d="m87.737 59.164c-.858.069-1.501.823-1.431 1.683.061.764.668 1.371 1.431 1.432.861-.069 1.502-.821 1.434-1.682-.062-.764-.669-1.37-1.434-1.433zm0 2.554c-.552 0-1.001-.448-1.001-1.001s.449-1.002 1.001-1.002c.555 0 1.003.449 1.003 1.002 0 .554-.448 1.001-1.003 1.001z"/><path d="m83.732 39.133c-.861.07-1.501.824-1.433 1.684.061.763.669 1.372 1.433 1.432.859-.068 1.502-.822 1.433-1.682-.063-.764-.669-1.371-1.433-1.434zm0 2.555c-.554 0-1.001-.449-1.001-1.001 0-.554.447-1.002 1.001-1.002.553 0 1.001.448 1.001 1.002 0 .553-.448 1.001-1.001 1.001z"/><path d="m31.652 29.119c-.86.069-1.501.822-1.432 1.683.061.765.667 1.372 1.432 1.433.86-.069 1.501-.822 1.433-1.683-.062-.764-.668-1.372-1.433-1.433zm0 2.554c-.553 0-1.001-.449-1.001-1.002s.448-1.002 1.001-1.002 1.002.449 1.002 1.002-.448 1.002-1.002 1.002z"/><path d="m17.632 52.154c-.86.068-1.502.822-1.433 1.683.062.764.668 1.371 1.433 1.432.86-.069 1.501-.822 1.432-1.682-.062-.765-.668-1.372-1.432-1.433zm0 2.554c-.554 0-1.002-.449-1.002-1.002 0-.552.448-1.001 1.002-1.001.552 0 1 .449 1 1.001 0 .553-.448 1.002-1 1.002z"/><path d="m59.696 24.111c-.861.069-1.502.822-1.433 1.682.061.765.668 1.372 1.433 1.433.859-.069 1.5-.822 1.431-1.682-.061-.764-.669-1.371-1.431-1.433zm0 2.554c-.554 0-1.003-.447-1.003-1 0-.554.449-1.003 1.003-1.003.553 0 1 .449 1 1.003 0 .552-.447 1-1 1z"/><path d="m98.003 66.606c.414 0 .751-.337.751-.751s-.337-.752-.751-.752c-.415 0-.752.338-.752.752s.337.751.752.751z"/><path d="m90.993 51.583c.415 0 .752-.336.752-.751s-.337-.751-.752-.751-.751.336-.751.751.336.751.751.751z"/><path d="m67.958 37.562c.415 0 .752-.335.752-.75s-.337-.751-.752-.751c-.414 0-.75.336-.75.751s.335.75.75.75z"/><path d="m34.908 43.571c.415 0 .751-.336.751-.751s-.336-.751-.751-.751-.751.336-.751.751.336.751.751.751z"/><path d="m23.891 43.571c.415 0 .751-.336.751-.751s-.336-.751-.751-.751-.751.336-.751.751c-.001.415.336.751.751.751z"/><path d="m25.894 61.599c.415 0 .751-.338.751-.752 0-.415-.337-.751-.751-.751-.415 0-.751.336-.751.751 0 .414.336.752.751.752z"/><path d="m12.875 66.606c.414 0 .75-.337.75-.751s-.336-.752-.75-.752c-.416 0-.751.338-.751.752s.335.751.751.751z"/><path d="m45.924 24.542c.416 0 .751-.336.751-.751 0-.416-.336-.751-.751-.751-.414 0-.751.336-.751.751s.337.751.751.751z"/><path d="m72.966 26.545c.414 0 .751-.337.751-.751 0-.415-.337-.751-.751-.751-.416 0-.753.336-.753.751 0 .414.337.751.753.751z"/><path d="m56.332 51.353c-5.737-.006-10.392 4.64-10.397 10.375-.005 5.736 4.639 10.391 10.377 10.396 5.734.006 10.389-4.64 10.395-10.376 0-.006 0-.013 0-.021-.012-5.725-4.651-10.363-10.375-10.374z"/><path d="m65.394 52.925 4.517-4.518c.284-.303.266-.778-.037-1.061-.289-.269-.736-.269-1.024 0l-4.518 4.516c-.282.305-.265.78.038 1.063.288.269.736.269 1.024 0z"/><path d="m55.008 42.57v6.39c0 .416.336.75.751.75.416 0 .751-.335.751-.75v-6.39c0-.416-.336-.752-.751-.752s-.751.336-.751.752z"/><path d="m75.75 56.59-6.16 1.673c-.4.111-.638.525-.526.926.111.401.526.636.927.525l6.16-1.671c.4-.111.636-.526.526-.927-.112-.401-.526-.636-.927-.526z"/><path d="m46.605 52.925c.304.282.778.267 1.061-.038.27-.289.27-.735 0-1.024l-4.517-4.516c-.303-.283-.778-.266-1.062.039-.269.287-.269.735 0 1.022z"/><path d="m43.22 58.273-6.169-1.683c-.401-.11-.816.125-.927.526s.125.816.526.927l6.159 1.671c.406.089.806-.167.895-.572.082-.369-.125-.742-.484-.869z"/><path d="m70.962 46.575c.415 0 .751-.336.751-.751 0-.414-.336-.75-.751-.75-.414 0-.751.336-.751.75 0 .415.337.751.751.751z"/><path d="m78.973 56.09c-.414 0-.751.337-.751.751 0 .415.337.751.751.751.416 0 .753-.336.753-.751 0-.414-.337-.751-.753-.751z"/><path d="m55.759 40.486c.416 0 .751-.336.751-.751s-.336-.751-.751-.751-.751.336-.751.751.336.751.751.751z"/><path d="m34.577 55.919c-.415 0-.751.336-.751.751s.336.751.751.751.751-.336.751-.751-.336-.751-.751-.751z"/><path d="m40.586 46.406c.415 0 .751-.337.751-.751 0-.416-.336-.751-.751-.751-.414 0-.751.336-.751.751 0 .413.337.751.751.751z"/></g><path d="m101.534 77.904v12.793l-1.613.941-1.001.582-1.753 1.002-.591.35-.661.381-18.669 10.772-2.923 1.687-.752.432-.169.109-.952.541-5.468 3.154-3.005 1.732-1.693.972-1.312.761-1.693.981-2.313 1.332-1.5.871-.513-.288-3.365-1.954-20.548-11.865-21.636-12.493v-8.898c2.126-2.394 4.426-4.633 6.88-6.696 16.917-14.566 41.453-18.458 62.283-10.42.166-.012.332-.012.499 0 2.545.486 4.993 1.391 7.247 2.674.909.488 1.701 1.174 2.315 2.003.029.013.059.024.086.035.527.218.957.422 1.188.544 2.64 1.529 5.13 3.474 7.653 5.142 1.258.857 2.547 1.73 3.775 2.668 0 0 .002.003.003.003.067.05.135.099.201.152z" fill="#22e086"/><path d="m106.612 83.243-.164.276.163-.279z" fill="#22e086"/><path d="m33.479 97.981c-.717 1.882-1.526 3.616-2.439 5.209l-21.636-12.493v-7.792c1.23-1.197 2.482-2.376 3.777-3.589.087-.382.294-.728.591-.982l5.79-5.281c.462-.451 1.09-.692 1.737-.671.084-1.309 1.214-2.3 2.522-2.217.379.024.744.139 1.066.333.136.08.265.175.384.286 6.877 6.727 11.775 17.842 8.208 27.197z" fill="#122b93"/><path d="m101.534 77.945v12.752l-1.613.941-1.001.582-1.753 1.002-.591.35-.661.381-18.669 10.772c-.872-5.098-1.129-10.281-.762-15.44.687-8.526 4.65-15.717 12.072-19.805h.003c.052-.029.103-.059.156-.086.166-.09.334-.18.505-.266.226.239.469.46.729.66.601.575 1.352.978 2.164 1.157.325.057.639.127.951.127h.128l.404.139c-.035.274-.134.535-.289.765h.127c2.128.948 5.275 3.216 7.897 5.771 0 0 .002.003.003.003.066.065.134.129.2.195z" fill="#122b93"/><path d="m101.534 75.888v3.17c-1.944-1.86-4.007-3.596-6.177-5.195-2.2-1.622-4.472-3.082-6.798-4.383h-.003c-20.174-11.268-44.526-10.456-63.669 1.018-5.707 3.419-10.951 7.787-15.483 13.062v-3.455c12.397-13.303 29.837-20.972 48.217-20.97 16.296-.007 31.908 6.023 43.913 16.753z" fill="#122b93"/><path d="m9.404 37.497v53.2l46.07 26.601 46.07-26.601v-53.2l-46.07-26.601zm90.278 1.081v51.078l-44.208 25.549-44.207-25.58v-51.077l44.207-25.498z" opacity=".1"/></svg>