<svg enable-background="new 8.894 -8.499 110.851 127.999" height="127.999" viewBox="8.894 -8.499 110.851 127.999" width="110.851" xmlns="http://www.w3.org/2000/svg"><path d="m119.744 87.5-55.426 32-55.425-32v-63.999l55.424-32 55.426 32v63.999z" fill="#1e6ee2"/><path d="m110.82 29.23v53.13l-10.43 6.02-.24.12-.13.06-.11.06-8.3 4.8-.66.38-.4.23-25.77 14.88-.01.01-11.49-6.64-29.32-16.95-1.45-.83-.16-.1-.5-.29-3.03-1.75v-53.13l45.99-26.55.01-.01 14.68 8.48z" fill="#83bbff"/><path d="m16.26 26.588c5.477 2.013 10.955 4.024 16.432 6.038 3.238 1.191 6.475 2.387 9.713 3.579.234.086.474.159.759.255 0-6.084 0-12.116 0-18.324 3.902 4.203 7.735 8.333 11.647 12.547 3.99-9.267 7.938-18.439 11.971-27.806.086.409.131.627.2.963.268-.71.494-1.315.723-1.921.048.002.097.003.145.007.752 8.838 1.504 17.676 2.268 26.661 4.32-3.311 8.543-6.55 12.85-9.851-.013.245-.021.397-.031.618.164-.077.301-.141.561-.26-1.648 6.247-3.271 12.391-4.93 18.675 7.621-1.257 15.123-2.494 22.756-3.753-.189.268-.303.432-.455.651h.82c-4.938 4.927-9.808 9.788-14.679 14.648.038.07.076.139.111.208 4.983.776 9.966 1.554 15.054 2.346-.17.185-.271.297-.402.441.19.077.388.158.672.273-4.767 3.216-9.471 6.39-14.25 9.616 6.457 6.928 12.879 13.813 19.299 20.701-.021.037-.042.074-.065.111-.569-.199-1.139-.404-1.769-.629.061.192.093.301.156.5-8.297-4.238-17.045-7.215-25.68-10.951.153 2.975.299 5.789.453 8.766-4.747-2.854-9.393-5.647-14.087-8.471-.879 2.112-1.735 4.166-2.652 6.375-2.511-2.211-4.938-4.349-7.408-6.526-3.875 4.78-7.721 9.532-11.69 14.435-.063-.656-.109-1.125-.165-1.697-.19.209-.327.358-.563.619-.225-5.841-.445-11.543-.669-17.365-8.938.27-17.833.541-26.729.808-.014-.042-.027-.087-.041-.13.224-.139.448-.278.687-.428-.097-.074-.187-.146-.338-.262 6.618-3.974 13.207-7.929 19.937-11.971-4.198-1.43-8.262-2.816-12.51-4.264 3.886-2.093 7.638-4.114 11.063-5.958-1.072-1.222-2.079-2.545-3.261-3.69-5.078-4.916-10.204-9.781-15.316-14.661-.18-.172-.389-.311-.584-.466-.003-.151-.003-.304-.003-.457zm48.59 39.031c3.631 2.561 7.217 5.09 10.948 7.721-.558-3.117-1.079-6.031-1.63-9.092 5.869 2.857 11.602 5.648 17.332 8.439.027-.045.061-.09.092-.135-3.744-3.76-7.488-7.52-11.285-11.333 4.514-2.592 8.903-5.116 13.447-7.726-5.195-.813-10.204-1.593-15.384-2.401 4.677-4.252 9.204-8.37 13.731-12.486-.026-.039-.057-.077-.082-.117-6.621 1.092-13.244 2.183-20 3.296 1.742-5.036 3.432-9.913 5.185-14.985-3.724 2.858-7.279 5.583-10.957 8.403-.481-6.785-.956-13.412-1.431-20.038-.055-.002-.111-.004-.166-.005-2.967 6.887-5.933 13.773-8.936 20.75-3.234-3.483-6.399-6.89-9.624-10.363v15.105c-6.043-2.228-12.013-4.428-17.982-6.63-.028.054-.057.107-.086.161 4.208 4.027 8.416 8.055 12.674 12.131-3.083 1.661-6.043 3.253-9.111 4.904 4.082 1.394 8.02 2.738 12.123 4.139-5.062 3.041-9.956 5.978-14.85 8.919.023.051.045.1.069.149 5.687-.401 11.375-.804 17.136-1.213.168 4.381.333 8.668.498 12.954.061.008.122.016.183.021 2.661-4.012 5.321-8.023 8.02-12.095 2.442 2.679 4.828 5.296 7.278 7.98.957-2.194 1.863-4.281 2.808-6.453z" fill="#1e6ee2"/><path d="m68.184 57.99c-.544.181-1.081.353-1.615.522-.285.046-.46.104-.92.293-.072.023-.145.046-.217.068-1.108.174-2.198.405-3.265.75-.12-.071-.276-.094-.462-.033-.722.237-1.422.473-2.099.758-.012.005-.023.002-.035.005-.201.063-.392.139-.586.209-.157-.076-.345-.095-.55.005-.331.164-.678.281-1.028.396-.016.002-.029-.002-.046 0-.498.098-.854.227-1.188.455-.434.154-.866.328-1.291.531-.013.003-.024.001-.037.006-1.76.565-3.386 1.752-4.646 3.136.01-.109-.002-.226-.078-.34-.583-.896-1.349-1.554-2.077-2.334-.182-.195-.425-.212-.632-.128-.263-.19-.537-.375-.822-.547-.001-.102-.022-.202-.065-.295.001-.223-.114-.432-.378-.534-.037-.043-.079-.084-.133-.116-.804-.473-.962-.539-1.823-.898-.285-.12-.54.037-.671.272-1.024-.373-2.022-.832-3.071-1.146-.06-.048-.132-.091-.221-.117-.524-.131-1.031-.31-1.524-.533-.173-.07-.324-.05-.445.021-.095-.026-.189-.024-.284-.015-.339-.337-.682-.762-1.108-1.013-.239-.145-.483-.085-.661-.085h-.026c-.184 0-.363.154-.483.347-.131.034-.257.111-.349.261-.086.141-.15.278-.2.419-.254.017-.48.171-.493.479-.039.917-.113 1.763-.152 2.678-.002.068.012.093.027.149-.132 1.491.002 2.865 1.034 4.176.021.057.038.109.059.168.02.337.053.677.098 1.02 0 .021.002.039.001.062.001 0 .003 0 .005-.001.007.055.008.108.017.163.017.128.077.216.151.286-.036.177-.001.365.158.517.189.178.341.382.51.577.504 1.668 1.755 3.104 2.921 4.378.252.275.622.198.852-.018.453.486.963.938 1.458 1.345-.1.202-.086.45.129.655.179.168.341.3.505.432.503.745 1.276 1.72 2.096 2.428-.218.014-.416.142-.472.432-.372 1.961-.282 3.892-.251 5.879.007.438.412.658.793.554-.05.187-.022.395.146.563.121.121.25.229.372.345.012.122.056.241.161.341.045.041.098.071.143.112.639.478 1.206 1.021 1.746 1.607.286.308.634.763 1.056.925.585.907 1.057 1.851 1.472 2.955.206.551.993.61 1.175 0 .081-.269.187-.517.292-.767.178.063.377.026.542-.184.268-.34.563-.661.782-1.038.032-.055.041-.109.055-.162 2.017-1.192 3.923-2.534 5.414-4.363.087-.11.125-.23.138-.353.172-.071.3-.222.328-.443.142-.097.244-.249.247-.474.014-2.034 1.14-3.992.615-6.011-.002-.13-.004-.262-.006-.392-.009-.71-.996-.774-1.182-.203-.01.019-.023.027-.031.048-.036.083-.069.168-.102.253-.056-.03-.116-.051-.178-.065.134-.146.273-.285.4-.439.146-.179.167-.438.099-.658.062-.06.125-.12.188-.177.174.045.371.018.553-.157.308-.295.598-.606.88-.928 1.016-.977 2.171-1.792 3.212-2.744.297.051.633-.119.701-.429.031-.147.048-.264.064-.381.327-.344.676-.672 1.014-1.009.227-.019.445-.145.536-.421.028-.103.079-.191.114-.29.37-.452.672-.948.83-1.535.08-.173.158-.346.236-.519.157-.232.324-.464.512-.712.155-.2.124-.422.005-.598.262-.776.434-1.579.453-2.437.139-.839.276-1.675.312-2.531.007-.157-.048-.282-.133-.38.174-.078.345-.157.518-.237.495-.229.32-1.044-.178-1.123-.012-.111-.045-.219-.106-.31.174-.062.345-.119.519-.182.725-.27.43-1.427-.324-1.176z" fill="#ffe7a4"/><path d="m65.788 37.242c.083-.098.164-.227.171-.386.094-2.138-2.396-2.369-4.005-1.481-1.178.1-2.241.513-3.116 1.354-.05.049-.057.112-.085.171-1.017.288-1.961.752-2.877 1.291-.277.126-.557.241-.833.368-.081.008-.162.008-.241.02-.055-.021-.111-.042-.174-.046-.813-.066-1.606-.019-2.396.06-.036-.013-.067-.03-.11-.038-.977-.146-1.956-.248-2.938-.349-.054-.043-.112-.083-.188-.108-.489-.167-.677-.224-.955-.263-.078-.037-.168-.063-.274-.063h-.121c-.648-.127-1.301-.222-1.982-.322-.135-.04-.267-.071-.403-.113-.352-.106-.598.092-.693.356-.678-.057-1.302.119-1.875.506-.024.002-.05.002-.074.004-1.49-.496-2.983-.147-4.541.238-.154.038-.254-.505-.323.185-.788-.17-1.584-.288-2.413-.321-.314-.013-.54.256-.594.54-.063.122-.088.264-.068.399-.106.187-.046.423.19.577-.31.028-.595.149-.595.467v.533c0 .447.546.715.906.562.048.073.127.142.214.193 1.232.704 2.469 1.211 3.813 1.662.103.034.204.034.296.011 1.285 1.478 4.361 2.596 5.512 3.281.181.086.354.084.5.028.695.462 1.427.867 2.258 1.135-.279.364-.13.966.447.979.917.019 1.832-.135 2.733-.405.081.289.335.511.706.383 2.95-1.015 6.098-2.321 8.142-4.726 1.128-.284 2.181-.734 3.172-1.331.686-.328 1.429-.674 1.489-.55.219.458.596.348.834.002.35.142.685-.04.685-.538v-.687c0-.012.186-.021.184-.032-.006-.335.06-.684.004-1.011.146-.919.222-1.819-.382-2.535z" fill="#ffe7a4"/><path d="m68.184 58.219c-2.868.591-5.702.785-8.537 1.572-1.604.446-3.604.662-4.843 1.862-.188.182-.208.396-.146.584-1.451.667-2.847 1.462-4.152 2.446-.62.467-.014 1.526.616 1.053 3.709-2.794 8.115-4.139 12.641-4.801.833 1.879.448 4.735.289 6.648-.05.601-.252 1.122-.528 1.602-.209.166-.424.342-.64.546-.177.168-.205.364-.158.542-.51.575-1.088 1.107-1.594 1.667-1.32 1.458-2.212 3.307-3.84 4.479-.632.455-.024 1.515.616 1.053 1.689-1.215 2.814-3.056 4.086-4.669.152.355.632.584.992.23 1.184-1.166 1.757-2.77 2.896-3.964.112-.118.152-.247.16-.377.223-.344.413-.71.561-1.095.576-.923.814-2.03.891-3.177.165-.093.293-.262.32-.509.128-1.139-.16-2.251-.077-3.393.128-.009.255-.028.382-.037.552-.034.788-.761.421-1.071.037-.025.076-.053.116-.077.58-.39.208-1.255-.472-1.114z" fill="#ddbf73"/><path d="m66.291 39.061c.251-.77.337-1.59.05-2.366-.123-.332-.432-.46-.704-.411.007-.094.004-.19-.03-.288-.263-.743-.712-.77-1.398-.945-.081-.05-.176-.085-.283-.1-.182-.023-.307-.032-.426-.032-.923-.095-1.851.203-2.762.578-.077-.012-.161-.012-.251.01-.88.211-1.7.49-2.404 1.071-.194.159-.226.373-.163.564-1.296.438-2.599.871-3.912 1.26-1.612.477-2.988.618-4.535.38.048-.063.082-.143.102-.24.163-.829-.437-.984-1.099-1.014-1.03-.226-2.001-.678-3.072-.673-.888.003-1.704.679-2.524.937-.195.061-.315.188-.376.335-2.593.367-4.934.99-7.761.274-.762-.194-1.086.983-.324 1.175 3.152.8 6.074.347 9.216-.267 2.436-.476 3.544.472 5.732.746 1.765.222 3.271.018 4.963-.479 1.78-.521 3.541-1.125 5.294-1.729.591-.204 1.534-.41 2.338-.74 1.092 1.106.458 3.638.055 5.188-3.93 1.697-7.288 4.568-11.593 5.539-.768.173-.442 1.282.324 1.109 4.295-.967 7.643-3.766 11.542-5.438.275.096.597.015.731-.3.925-.354 1.882-.639 2.895-.813.516-.088.545-.577.252-.822.109-.098.186-.245.197-.446.01-.356.054-.71.131-1.058.047-.259-.063-.483-.234-.622.009-.127.021-.255.029-.383z" fill="#ddbf73"/><path d="m58.966 82.785c.034-.934-.063-1.891-.072-2.789-.001-.086-.022-.16-.049-.229.121-.147.243-.287.355-.455.261-.391.039-.76-.272-.862.01-.019.024-.032.035-.052.358-.698-.694-1.315-1.053-.615-.149.289-.315.542-.497.772-.14.061-.279.12-.419.183-.072-.218-.246-.382-.539-.343-.739.098-1.444.274-2.142.477-.369.015-.726.076-1.145.231-.019.007-.025.023-.043.03-1.284.038-2.564.097-3.845.274-.078.01-.146.037-.203.076-.585-.074-1.168-.172-1.76-.305-.279-.064-.493.044-.622.215-.095-.119-.189-.239-.248-.398-.178-.488-.692-.522-.982-.27-.135.003-.264.038-.371.129-.326-.245-.889-.189-.965.293-.096.612-.163 1.22-.117 1.839.002.027.015.053.02.078v.911c3.659 0 5.908.073 8.717.078 1.127.002 2.171-.101 3.128-.369.006.944-.033 1.889-.084 2.832-.606.44-1.191.91-1.76 1.4-.689.592-1.321 1.248-1.896 1.953-.104.128-.185.273-.273.412-.1.055-.187.128-.29.179-.336.163-.369.483-.237.74-.275.52-.57 1.022-1.059 1.394-.618.468-.012 1.526.616 1.053.888-.673 1.399-1.633 1.978-2.556 1.033-.682 1.901-1.579 2.906-2.301.265.436 1.106.331 1.134-.321.019-.432.043-.862.066-1.295.119-.08.228-.175.349-.253.006.025.011.051.022.075-.01.017-.017.035-.029.05-.491.605.366 1.473.862.862.477-.583.633-1.217.65-1.874.099-.053.193-.114.293-.164.54-.266.299-.944-.159-1.085z" fill="#ddbf73"/><path d="m72.23 48.75c-.021-.3-.07-.46-.211-.66.011-.08.03-.14.051-.18.22-.36.01-.75-.33-.87-.101-.04-.21-.05-.33-.02h-.03c-.399.08-.78.2-1.17.32-.01.01-.01.01-.02 0-.011 0-.021 0-.021 0-.07.02-.11.05-.18.07-.11-.03-.23-.07-.33-.12-.01 0-.01 0-.021-.01-.17-.06-.31-.15-.449-.28-.11-.08-.23-.1-.341-.09-.76-.45-1.449-.99-2.119-1.57l-.011-.01c-.1-.08-.18-.15-.279-.23.02-.06.05-.11.069-.17.11-.3.19-.61.24-.99 0-.02-.01-.04-.01-.07.189-.27.17-.62-.03-.82-.02-.03-.04-.05-.07-.07-.01 0-.02 0-.029-.01-.07-.04-.15-.08-.261-.09h-.06c-.09 0-.18 0-.271.01-.079 0-.17.01-.26.01-.18-.11-.41-.13-.62-.02-.04.03-.09.05-.14.08-.64.08-1.28.24-1.87.51-.68.25-1.3.63-1.77 1.14-.18.08-.37.17-.55.26-1.09.46-2.09 1.15-2.83 1.92-1.23.46-2.42.99-3.57 1.61-.83.33-1.65.64-2.46.98 0 0-.01.01-.02.01-.12.04-.23.08-.34.13-.3.02-.59.05-.89.09h-.01c-.23.04-.47.07-.7.11-.06-.13-.19-.23-.39-.27-.6-.09-1.18-.23-1.75-.39-1.02-.74-2.22-1.34-3.48-1.73h-.01c-.06-.02-.12-.04-.18-.06-.04-.05-.09-.1-.16-.15-.12-.08-.25-.15-.37-.23-.44-.64-.91-1.03-1.67-1.41-.13-.06-.25-.08-.36-.07-.26-.23-.53-.44-.86-.62-.12-.06-.24-.08-.36-.07-.64-.46-1.31-.88-2.05-1.19-.19-.11-.39-.21-.59-.31-.15-.08-.28-.18-.43-.26-.09-.05-.18-.07-.26-.08-.27-.12-.53-.25-.81-.38-.21-.09-.45-.09-.64.02-.02.01-.04.01-.05.02-.04-.01-.08-.02-.11-.03-.05-.01-.1-.01-.14-.01-.1.01-.19.04-.26.1-.02.01-.05.02-.07.04-.07.04-.13.09-.17.16-.24.34-.49.65-.75.95-.45.53-.93 1.01-1.43 1.5-.18.18-.36.36-.55.55-.05.05-.08.11-.11.17-.01.01-.01.03-.02.05-.32.25-.64.52-.95.8-.02.01-.04.03-.06.05-.09.08-.14.17-.15.27-.01.02-.02.05-.02.07-.14.1-.24.26-.24.47-.01.54.02 1.07.08 1.6.01.1.04.18.09.26 0 .02-.01.03-.01.05-.24 2.19.47 5.76 2.28 7.15.06.05.11.069.16.09h.01c.09.12.2.22.32.26 0 0 0-.01.01 0 .06.021.12.03.19.021.08.05.14.09.26.1.04.021.08.03.12.05.02.01.04.01.05.01h.01c.03.011.04.021.06.021.14.02.26-.01.35-.07.09 0 .17 0 .26.011h.01c.36 0 .72.01 1.07.02.21 0 .42.01.62.02.74.021 1.48.051 2.22.091.04 0 .08-.011.12-.021.63.41 1.3.641 1.99.78 1.16.79 2.53.939 3.9 1.2.08.01.16.01.23 0 .03 0 .06-.011.09-.021.07.04.13.08.19.13.01 0 .03.011.04.021.27.17.54.33.82.47.05.03.09.07.15.08.04.02.08.03.11.04.17.07.34.12.53.17-.01.1 0 .21.06.32 0 .01 0 .02.01.029.08.171.19.301.32.431.04.05.09.08.15.109.13.061.29.08.44.051.14.069.26.14.4.21h.01c.04.029.09.05.13.069.03.04.06.08.08.13.02.021.04.03.06.061.34.43.67.86 1 1.29.17.22.38.3.57.28.04 0 .08-.011.11-.021.14.16.27.33.4.49.02.02.04.04.06.05.23.21.57.14.78-.05.21-.021.41-.15.49-.42.07-.26.18-.48.32-.69.05-.069.1-.13.15-.2.1-.04.21-.09.31-.13.02 0 .04-.02.06-.029.58-.261 1.14-.58 1.58-1 .09-.091.18-.19.26-.29.05-.021.1-.051.15-.07.69-.33 1.39-.64 2.09-.97 2.29-.13 4.53-1.141 6.73-2.08.19-.07.38-.141.57-.21.15.16.38.26.609.22.15-.021.29-.07.44-.11.75.03 1.51-.02 2.28-.13.25.01.51.03.77.04.101.01.2.01.3.021.19.06.391.08.62.06.03.01.061 0 .101 0s.08-.01.13-.01c.09-.01.17-.03.24-.07h.02c.311-.17.4-.55.25-.83.03-.05.061-.09.08-.16.3-1.02.84-1.93 1.16-2.939.24-.07.46-.26.46-.57.01-.46.02-.91.04-1.37.189-.77.55-1.57.47-2.34-.01-.09-.03-.17-.05-.24.103-.105.173-.245.153-.395zm-11.24 5.26c-.72-.06-1.41-.03-2.1.06-.07-.08-.16-.15-.29-.19l-1.08-.48c-.22-.1-.43-.06-.59.04-.14-.03-.27-.05-.4-.07-.22-.21-.43-.44-.64-.71-.05-.07-.12-.12-.19-.15-.01-.04-.02-.07-.03-.11-.02-.08-.05-.15-.09-.21.72-.26 1.44-.58 2.16-.95 1.82.02 3.56-.43 5.29-.94.2-.04.39-.08.59-.11.11.14.27.24.46.24.26-.01.51-.03.77-.07h.011c.35-.06.699-.13 1.04-.23-.101.16-.2.33-.301.49-.239.41-.489.81-.76 1.2-.25-.06-.58.05-.68.28-.12.28-.2.48-.27.73-.39.23-.5.32-.88.7-.01.01-.03.03-.05.05-.01 0-.01.01-.01.02-.04 0-.07.01-.11.02 0 0 0 0-.01 0-.63.08-1.24.21-1.84.39zm-13-1.19c-.56.29-1.09.66-1.61 1.03-1.22-.07-2.44.01-3.65.09-.27-.26-.63-.43-1.13-.6-.16-.05-.31-.02-.43.05-.12-.05-.24-.11-.35-.16-.09-.09-.19-.2-.32-.34-.19-.21-.5-.21-.73-.09-.01.01-.03.01-.04.02-.02-.01-.03-.03-.05-.04-.03-.04-.06-.08-.1-.12s-.08-.07-.11-.09c-.08-.06-.17-.08-.26-.08-.06-.13-.13-.21-.17-.32-.01-.01-.03-.02-.04-.04-.11-.14-.24-.28-.39-.4.03-.13.01-.26-.07-.4-.05-.22-.1-.45-.15-.68-.04-.17-.07-.33-.11-.5.08-.11.18-.19.27-.27.05-.01.11-.01.16-.02.04 0 .07-.01.11-.01.11.16.28.28.49.27.15-.01.29-.05.44-.06 1.88.26 3.73.66 5.59 1.01.69.23 1.33.37 1.87.33.4.16.79.33 1.19.47.05.02.11.04.16.06-.02.02-.03.05-.05.07-.15.21-.35.41-.43.55-.06.1-.08.18-.09.27z" fill="#ff153c"/><path d="m80.904 83.081c-.074-.949-.924-1.404-1.817-1.622-1.771-1.998-7.375-1.117-9.303-.679-.013.002-.02.009-.029.012-1.639-.032-3.618.04-4.766.942-.351-1.082-1.988-.89-2.903-.574-.044.016-.074.039-.111.06-.21-.204-.521-.015-.747.209-.049-.114-.12-.217-.234-.273-.614-.308-1.01.112-1.296.609-.073.05-.126.122-.117.25.001.02.007.04.009.06-.008.103.008.203.049.292.089.363.249.737.306 1.155-.133.381-.214.715-.212 1.112.001.167.062.267.153.367-.392.152-.795.255-1.221.271-.33.01-.513.226-.565.479-.649.202-.99.44-1.333 1.032-.021.034-.017.077-.029.119-.253.193-.508.384-.755.586-.166.136-.325.395-.485.688-.919.396-1.669.881-1.877 1.776-.152.111-.293.231-.447.339-.643.447-.092 1.564.615 1.205.132-.062.247-.066.373-.066h.008c.8 0 1.226-.534 1.603-1.153.167.03.348-.083.505-.245.314-.324.654-.655.993-.947.15.059.319.037.484-.081 1.502-1.075 3.234-1.759 4.621-3.001.152-.137.191-.334.158-.519.282-.176.551-.251.811-.453.099.107.241.302.429.302h.229c.023 0 .036-.129.058-.131.581-.034 1.12-.258 1.629-.51 4.915.225 9.966.043 14.851-.17.351-.015.587-.28.61-.624.021-.332-.088-.598-.247-.817z" fill="#ff153c"/><path d="m46.23 87.89c.04-.22-.04-.439-.29-.569-.21-.11-.42-.23-.63-.34.17-.261.15-.62-.21-.801-.47-.22-.92-.46-1.35-.72-.19-.12-.38-.229-.57-.35 0-.311-.04-.75-.05-1.16 0-.47.05-.91.29-1.08.3-.2.35-.561.21-.82-.09-.18-.27-.31-.51-.31-.05 0-.11.01-.16.029-1.17.33-2.69-.229-3.82.28-.16.08-.32.181-.46.311-.04.029-.07.06-.11.1-.17.18-.19.37-.15.53-.59-.16-1.19-.3-1.8-.431 0-.06 0-.13-.02-.199-.06-.261-.27-.511-.57-.53-.07-.01-.13-.021-.2-.021h-.01c-.8-.09-1.92-.229-2.85-.069-1.37-.28-2.73-.46-4.03-.45-.16 0-.27.06-.37.13-.74 0-1.49.03-2.22.14-.05-.02-.1-.029-.15-.04-.4-.02-.79.091-1.18.08-.06-.02-.12.07-.2.07h-.23c-.1 0-.23-.25-.38-.26-1.07-.07-2.07-.04-3.08.16h-.05c-.71.01-1.42-.011-2.13-.021-.05 0-.09 0-.13.021-.03-.011-.06 0-.09.01v.78l3.04 1.75.51.29h.07c1.21-.061 2.46-.021 3.69.029.61.03 1.21.051 1.81.08.36.01.71.03 1.06.03.46.02.92.03 1.36.02.97-.01 1.92-.02 2.88 0 .07-.01.14 0 .21 0 .16 0 .33 0 .49.011-.01.02-.02.04-.02.06-.03.05-.04.101-.04.15-.04.21.04.43.21.55.02.02.04.04.07.05.89.44 1.84.55 2.8.61h.01c.32.02.64.029.96.05.01.03.03.04.04.06.03.2.23.391.42.431 1.5.35 2.95.87 4.43 1.29.11.069.23.13.34.199.01.011.02.011.03.011.3.18.61.35.93.5.18.08.42.14.66.2.84.609 1.54 1.35 2.54 1.779.25.11.5.08.67-.06h.01c.01-.01.02-.01.03-.03.15-.13.23-.34.18-.6-.2-1.12-.97-1.61-1.89-1.93zm-4.8-3.51c-.01-.17-.1-.32-.29-.41-.59-.27-1.18-.489-1.78-.689.02-.021.05-.03.07-.05.4-.4 1.26-.341 1.77-.341h.03v.011c.01.04 0 .119 0 .14.09.479.26.95.45 1.42-.02.01-.04.021-.05.03-.08.04-.14.09-.19.16-.01-.011-.02-.011-.03-.011.03-.09.04-.18.02-.26z" fill="#ff153c"/><path d="m90.96 93.84-.4.23-25.76 14.85-.02-.01-.011.01-11.49-6.64-29.4-16.95-1.44-.83c.02-.01.04-.01.07 0 1.21-.1 2.43-.09 3.65 0 .5.03 1.01.07 1.51.14 1.33.15 2.65.391 3.96.69.94.21 1.87.46 2.79.74.11-.011.23-.011.35 0 .34.01.71.09 1.09.25.35.14.71.279 1.06.42.18.069.37.14.55.22.06 0 .12.01.18.021.01-.011.02-.011.02 0 .22.02.46.079.7.18.43.16.86.33 1.28.52.33.141.66.301.99.46.1.021.2.04.3.061.01-.01.01 0 .01 0 1.59.3 2.97.81 4.49 1.54.61.29 1.07.729 1.39 1.25.39.2.74.43 1.11.68.14.07.27.16.41.23.24.13.45.27.63.43 0 .01.01.01.01.02.04.021.08.051.11.091.06.06.12.119.17.18.02.01.03.03.04.04h.04c.02 0 .03 0 .05-.01.06.01.13.01.19 0 .03 0 .05 0 .08-.011.07.011.13 0 .2-.01.38-.01.75-.05 1.13-.1.12-.011.24-.03.36-.04v-.01c.32-.03.62-.08.94-.11h.01c.13-.021.27-.04.4-.05.08-.04.15-.08.22-.13.12-.07.23-.15.35-.221 0-.01.01-.01.01-.01.28-.17.56-.35.84-.53.51-.319 1.01-.649 1.52-.97.03-.01.04-.03.06-.04.01 0 .02 0 .02-.01.1-.061.19-.12.29-.18 0-.011.01-.011.01-.011.05-.029.09-.06.14-.09 1.82-1.14 3.65-2.26 5.54-3.29.01 0 .01-.01.02-.01.81-.45 1.63-.88 2.47-1.29.24-.12.479-.2.72-.23.18-.04.35-.05.53-.029h.01c.15 0 .29.02.43.05.051.01.091.02.141.03h.01c.01.01.01.01.02.01.03-.01.051-.03.08-.04.311-.16.65-.28 1-.37.021-.01.03-.01.051-.01.43-.101.869-.15 1.34-.181h.12c.52-.02 1.05 0 1.56.021h.12c.28.01.55.03.81.04.32.01.62.03.931.04h.01c.16.01.32.02.479.02.051 0 .11 0 .16.011 2.7.13 5.311.26 8.08.109.209-.011.409-.011.609-.011.399.01.79.03 1.17.09.78.101 1.51.3 2.18.59.29.11.561.24.83.391.29.12.59.22.88.34.011 0 .011 0 .021.01.26.1.51.21.77.33.78.37 1.311.94 1.74 1.62.18.26.33.55.48.84.21.41.289.86.279 1.3.25.48.471.98.65 1.5.22.58.399 1.181.54 1.79 0 .019.01.029.01.039z" fill="#20e0e0"/><path d="m63.855 52.044c.025-.007.051-.013.076-.022-.359-.939-.879-1.26-1.56-.963-.262.072-.527.135-.793.194-.443.103-.883.173-1.335.21-.759.059-1.542.077-2.214.473-.011.006-.018.016-.027.022-.091.001-.179.007-.27.008-.597.006-.648.873-.093 1.016.065.017.133.024.199.039.113.138.275.237.498.241.335.006.67-.024 1.005-.05.508.023 1.017.021 1.532.024.362.002.542-.244.577-.527.822-.151 1.633-.364 2.415-.659-.005-.001-.007-.003-.01-.006z" fill="#fff"/><path d="m46.731 52.039c-2.303-.301-4.291-.81-6.491-1.563-.273-.093-.509-.047-.696.065-.603.112-.836 1.092-.172 1.373.135.057.27.115.406.173.16.068.322.081.473.055 2.134.804 4.417 1.597 6.636.738.444-.171.251-.787-.156-.841z" fill="#fff"/><path d="m70.249 46.043c-.202-.609-.441-1.149-.777-1.616-.062-.479-.186-.932-.381-1.443-.043-.112-.066-.22-.101-.329.005-.013.002-.032.008-.044.119-.29.009-.543-.179-.692-.008-.047-.017-.095-.024-.141.128-.817.184-1.633.181-2.453.05-.105.082-.222.06-.361-.011-.065-.028-.127-.04-.192l.01-.002c-.015-.071-.029-.14-.043-.209-.019-.777-.045-1.556-.038-2.343.079-.083.146-.184.179-.324.226-1.029.414-2.071.644-3.101.273-.616.469-1.26.447-1.998-.007-.271-.167-.453-.374-.559-.024-.233-.06-.465-.121-.7.366-.326.501-.902.012-1.25-.825-.584-1.851-.93-2.939-1.1-.561-.335-1.194-.43-1.895-.125-.119.001-.236.004-.356.009-.969-.278-2.04-.328-3.118-.286-.01-.209-.115-.419-.349-.592-.725-.534-.915-.657-1.725-1.04-.185-.087-.353-.098-.505-.074-1.261-.457-2.556-.659-3.903-.788-.833-.272-1.738-.307-2.648-.207-.06-.004-.117-.007-.178-.012-.192-.015-.346.033-.48.102-.901.157-1.785.417-2.579.674-.115.037-.228.099-.331.176-.498.088-1.026.301-1.552.594-.22.1-.444.189-.65.307-.12.069-.208.173-.279.285-.753.549-1.433 1.194-1.911 1.77-1.198.643-2.427 1.416-3.072 2.48-.137-.095-.3-.164-.501-.183-.018-.001-.037-.001-.054-.004-1.595-.805-3.613-1.341-5.393-1.194-.479-.243-.976-.457-1.495-.621-.161-.051-.305-.053-.438-.033-.163-.226-.332-.429-.523-.562-.071-.633-1.048-.976-1.465-.455-1.151 1.438-2.124 3.312-1.579 4.901-.247.24-.359.619-.152 1.032.376.754.817 1.397 1.328 2.006.181.308.387.601.618.881.077.454.156.906.236 1.36-.248 1.251.043 2.492.113 3.844.002.053.024.092.034.14-.155.736-.278 1.479-.384 2.16-.103.655.503 1.302 1.17.927.252-.141.399-.289.548-.537.14-.233.146-.457.073-.649.411-.069.813-.439.811-.927-.006-1.074-.054-2.144-.095-3.218-.011-.292-.173-.468-.383-.548-.023-.67-.06-1.328-.156-1.999-.001-.01-.007-.019-.009-.028.053-.068.094-.145.124-.226.207.117.43.214.661.3.004.002.007.002.011.006.042.094.085.187.164.262.24.243.49.476.751.698.259.233.669.217.981.049.088.022.169.052.272.049 1.358-.07 2.678-.119 4.024-.119h.066c.345 0 .689-.108 1.039-.096.133.004.247-.075.347-.122.132-.01.265-.047.396-.059.116.032.235.038.359.028.744-.042 1.483-.125 2.221-.235.292-.037.48-.217.591-.439.129.007.267.019.393.022.183.005.326-.06.448-.148.542.053 1.088.09 1.634.118.479.088.952.181 1.415.28.103.219.296.397.613.45.024.004.045.005.07.009.092.195.267.356.559.422.736.166.97.193 1.736.2.25.002.441-.116.578-.282.113.011.22.024.337.034.358.029.625-.132.794-.363 1.875-.3 3.962-.979 5.427-2.242.129.021.273.035.463.045.266.014.46-.114.584-.298.495-.011 1.005-.045 1.541-.075.378-.021.629-.23.771-.494.719.03 1.441.026 2.073-.224.394.382.718.858.962 1.487.319.824.619 1.587 1.071 2.355.064.108.152.187.248.249-.021.598-.045 1.194-.065 1.793-.045.266-.097.53-.135.798-.038.274-.017.544.026.813-.036.509-.044 1.252-.02 1.778 0 .017-.002.166-.002.245-.07.16-.121.341-.005.534.52.873.478.839 1.217 1.523.112.103.23.152.369.163.086.19.162.37.232.534.38.869 1.66.365 1.362-.531z" fill="#753119"/><path d="m87.596 86.561c-.607-.331-1.29-.574-1.953-.766-.149-.043-.306-.087-.465-.132-.05-.119-.13-.223-.278-.265-2.689-.753-5.647-.402-8.42-.396-1.404.005-2.903-.089-4.399-.118-.033-.087-.091-.161-.172-.212-.596-.368-1.339-.22-2.019-.005-.185-.17-.437-.272-.751-.22-1.085.175-2.108.512-3.092.944-.076-.237-.309-.425-.594-.347-2.87.779-5.061 2.869-7.586 4.302-.173.098-.209.255-.184.4-1.998.718-4.043 1.26-6.003 2.203-.501.24-.411 1.104.222 1.015 2.707-.38 5.457-1.132 7.973-2.191 2.898-1.221 5.244-3.277 8.229-4.213 2.27.366 4.724.106 6.986.111 2.563.007 5.343.3 7.94-.031.839.195 1.687.369 2.508.644.611.204 1.229.455 1.783.792.4.242.607.524 1.09.597.225.033.755-.281.63-.569-.395-.912-.647-1.112-1.445-1.543z" fill="#0fb7b3"/><path d="m49.301 91.536c-2.722-2.481-6.77-3.825-10.289-4.766-2.804-.75-8.67-4.331-11.388-2.092-.135.112-.031.293.095.345 1.166.466 2.47.472 3.687.842 1.832.558 3.582 1.401 5.369 2.082 1.928.735 3.954 1.19 5.886 1.938 2.045.793 3.938 2.202 6.111 2.598.52.094.969-.547.529-.947z" fill="#0fb7b3"/><g fill="#061333"><path d="m33.817 57.74c-.585 5.769.417 10.237 4.249 14.639 1.885 2.168 4.096 4.428 6.482 6.042 2.104 1.423 5.001 1.059 7.376.979 2.051-.068 4.005-.032 5.901-.901 2.16-.989 3.683-3.438 5.336-5.04 1.889-1.827 3.773-3.352 4.889-5.79 1.278-2.789.789-6.511 1.263-9.483.121-.771-1.053-1.1-1.177-.325-.316 1.986-.455 3.976-.585 5.979-.218 3.342-1.618 5.408-3.995 7.604-3.143 2.903-5.19 6.413-9.78 6.697-2.145.133-4.458.284-6.59-.022-2.74-.392-4.985-3.265-6.854-5.117-2.154-2.137-4.116-4.489-4.988-7.438-.733-2.484-.568-5.278-.31-7.823.082-.784-1.138-.775-1.217-.001z"/><path d="m51.018 64.955c1.384-1.094 2.893-2.02 4.269-3.125.613-.493-.255-1.35-.862-.862-1.375 1.103-2.884 2.031-4.269 3.125-.617.485.252 1.345.862.862z"/><path d="m46.572 61.525c1.322 1.026 2.36 2.302 3.583 3.431.577.532 1.442-.327.862-.862-1.222-1.129-2.26-2.403-3.583-3.431-.611-.476-1.482.38-.862.862z"/><path d="m55.092 61.759c2.2-.839 4.454-1.528 6.729-2.132 2.307-.612 5.207-1.508 7.581-.841.76.213 1.082-.965.324-1.177-4.528-1.27-10.781 1.379-14.958 2.974-.727.277-.412 1.456.324 1.176z"/><path d="m47.234 60.263c-2.661-1.154-5.407-2.155-8.205-2.92-1.351-.369-4.457-1.383-5.19.464-.291.731.889 1.045 1.175.324.579-1.459 10.397 2.66 11.605 3.185.714.309 1.336-.742.615-1.053z"/><path d="m70.382 58.283c.691-3.666 5.155-9.643 1.291-12.788-.604-.491-1.473.366-.862.862 3.156 2.568-1.019 8.503-1.605 11.602-.146.77 1.028 1.096 1.176.324z"/><path d="m71.311 45.313c-2.586-3.455-1.188-9.104-1.06-13.107.025-.787-1.193-.784-1.22 0-.134 4.237-1.536 10.033 1.227 13.722.467.623 1.524.016 1.053-.615z"/><path d="m45.698 69.99c4.115 1.216 8.309 1.391 12.207-.596.702-.357.083-1.407-.616-1.053-3.607 1.838-7.482 1.593-11.269.473-.753-.224-1.074.953-.322 1.176z"/><path d="m37.102 49.511c2.188 4.429 7.205 6.481 11.323 3.249.299-.234.205-.799-.123-.958-1.467-.708-3.185-.909-4.769-1.213-.893-.172-4.927-.502-5.318-1.453-.295-.717-1.474-.403-1.175.325.556 1.351 2.708 1.583 3.934 1.856 2.159.479 4.702.567 6.711 1.538-.042-.32-.082-.638-.123-.958-3.538 2.775-7.62.621-9.408-3.001-.347-.706-1.399-.088-1.052.615z"/><path d="m65.76 48.896c-1.789 3.623-5.87 5.778-9.408 3.001-.042.32-.082.638-.124.958 2.001-.966 4.559-1.082 6.711-1.538 1.223-.26 3.382-.512 3.934-1.856.3-.727-.88-1.042-1.175-.325-.363.883-4.037 1.204-4.865 1.365-1.726.336-3.621.528-5.222 1.3-.328.159-.422.724-.124.958 4.118 3.231 9.136 1.182 11.323-3.249.35-.702-.701-1.32-1.05-.614z"/><path d="m35.104 56.618c-.793.198-2.887.593-2.887 1.731.399-.054.798-.108 1.197-.162-.688-3.852-2.289-7.557-2.417-11.5-.025-.784-1.245-.787-1.22 0 .132 4.06 1.752 7.857 2.461 11.823.123.692 1.197.51 1.197-.162.656-.213 1.321-.398 1.991-.555.764-.189.442-1.364-.322-1.175z"/><path d="m31 47.063c1.775-.998 3.963-2.749 4.395-4.862.157-.767-1.018-1.094-1.175-.324-.369 1.801-2.332 3.287-3.837 4.132-.684.387-.069 1.44.617 1.054z"/><path d="m34.342 42.245c5.908 1.085 9.934 6.399 15.778 7.546.768.151 1.095-1.024.324-1.176-5.823-1.144-9.861-6.459-15.778-7.546-.769-.14-1.097 1.034-.324 1.176z"/><path d="m50.358 49.585c2.588-.149 4.761-1.101 6.975-2.396 2.796-1.637 5.954-4.345 9.395-4.141-.052-.399-.106-.798-.161-1.198.012-.005.024-.011.036-.017-.768-.119-1.099 1.056-.323 1.175.218.035.394.072.611.017.694-.173.504-1.159-.163-1.197-6.099-.358-10.328 6.19-16.37 6.538-.783.045-.787 1.264 0 1.219z"/><path d="m66.522 42.417c-1.378 3.055 2.554 5.967 5.331 4.57.703-.354.085-1.405-.614-1.053-1.632.82-4.528-.984-3.663-2.9.319-.712-.73-1.333-1.054-.617z"/><path d="m49.452 36.955c-5.027-1.612-19.354 4.64-16.113-6.11.228-.754-.949-1.074-1.176-.324-1.141 3.783-.152 7.471 4.12 8.087 4.199.607 8.77-1.785 12.847-.479.748.242 1.068-.937.322-1.174z"/><path d="m32.471 31.113c3.34 2.721 6.646 3.646 10.749 2.105 3.535-1.329 6.529-3.739 10.258-4.603 3.268-.756 6.67-1.121 10.024-1.082 1.651.021 3.435.176 4.888 1.019 1.25.726.738 2.491.641 3.655-.066.784 1.152.778 1.22 0 .176-2.07.445-3.726-1.575-4.899-2.63-1.525-6.563-1.067-9.426-.813-2.962.262-6.041.688-8.816 1.797-6.151 2.458-10.76 7.125-17.1 1.959-.605-.492-1.473.364-.863.862z"/><path d="m36.333 33.122c3.461-.436 5.743-2.949 8.234-5.162 2.277-2.023 5.069-3.08 8.063-3.47 2.47-.32 7.527.358 9.054 2.738.423.66 1.479.049 1.052-.616-2.32-3.616-8.673-3.72-12.337-2.976-2.236.454-4.303 1.562-6.085 2.947-2.535 1.968-4.576 4.89-7.982 5.319-.768.097-.778 1.317.001 1.22z"/><path d="m34.986 43.233c0-1.872 0-3.743 0-5.615 0-.787-1.219-.787-1.219 0v5.615c0 .787 1.219.787 1.219 0z"/><path d="m33.853 37.133c-4.718-1.029-5.525-8.754-.736-10.257-.229-.299-.458-.596-.688-.895-2.277 3.355 7.773 5.117 9.757 4.115.703-.355.084-1.407-.616-1.053-1.256.634-9.016-1.082-8.089-2.446.301-.444-.195-1.051-.688-.895-5.888 1.849-5.219 11.31.736 12.608.767.166 1.093-1.01.324-1.177z"/><path d="m67.305 42.395c.104-2.789.454-7.786-3.136-8.561-1.7-.366-3.627.896-5.104 1.576-2.287 1.051-6.912 3.577-9.34 1.835-.64-.458-1.249.599-.616 1.053 2.629 1.885 6.733-.178 9.279-1.26 1.86-.789 5.361-3.321 6.936-1.047 1.163 1.678.833 4.474.761 6.404-.03.787 1.19.783 1.22 0z"/><path d="m30.689 37.475c.688 2.593.521 5.268.74 7.917.065.778 1.285.784 1.22 0-.229-2.761-.067-5.542-.784-8.241-.202-.759-1.378-.437-1.176.324z"/><path d="m50.11 91.92c.01.08.01.14 0 .2v.04c-.07.22-.24.39-.45.46-.02.01-.04.02-.07.03-.06.01-.13.01-.19 0-.02 0-.04 0-.06-.011-.03 0-.05-.01-.07-.02-.08-.03-.15-.08-.21-.16-.02-.03-.05-.07-.07-.11 0-.01-.01-.01-.01-.02-.33-.66-.69-1.29-1.08-1.88 0-.01 0-.01-.01-.021-.01-.02-.02-.04-.04-.06-1.64-2.54-3.74-4.51-6.22-5.88-.07-.05-.13-.09-.2-.11-2.16-1.18-4.6-1.91-7.29-2.21-4.15-.46-8.47-.49-12.7-.39-.88.02-1.76.04-2.62.08h-.09v-1.218c.03 0 .06 0 .09-.01.58-.02 1.17-.04 1.77-.06 5.12-.2 10.56-.32 15.49.66.16.029.31.06.46.09.9.189 1.77.43 2.6.729.29.09.58.2.86.311.41.159.81.33 1.2.529h.01c.01 0 .01 0 .02.011.66.31 1.29.649 1.89 1.04l.01.01c.27.16.53.33.78.51.01.01.02.01.02.021.07.039.13.09.19.14.08.05.15.1.22.16.09.06.17.12.25.189 1.27.98 2.41 2.14 3.41 3.47v.01c.3.39.59.79.86 1.21.42.66.82 1.34 1.19 2.07 0 .01.01.01.01.02.02.04.03.08.04.11.01.02.01.04.01.06z"/><path d="m50.662 92.878c3.85-4.091 8.132-7.668 13.245-10.063 2.737-1.284 5.72-1.94 8.722-2.127 2.06-.128 8.745.157 8.395 3.527-.081.783 1.142.773 1.22 0 .593-5.722-10.461-4.833-13.514-4.257-7.491 1.413-13.852 6.662-18.93 12.058-.538.57.322 1.434.862.862z"/><path d="m49.826 91.615c-3.651-2.446-7.516-4.339-11.67-5.757-3.561-1.218-8.022-2.764-11.809-2.764-.787 0-.787 1.22 0 1.22h1.423c.787 0 .787-1.22 0-1.22-.475 0-.949 0-1.423 0-.787 0-.787 1.22 0 1.22 3.411 0 7.328 1.441 10.571 2.425 4.396 1.333 8.483 3.376 12.292 5.927.657.441 1.267-.616.616-1.051z"/><path d="m50.087 93.135c7.589-2.172 13.389-8.252 21.138-9.959.77-.17.442-1.347-.324-1.176-7.767 1.71-13.55 7.786-21.137 9.958-.755.217-.434 1.395.323 1.177z"/><path d="m36.409 82.359h6.707c.787 0 .787-1.22 0-1.22-2.235 0-4.472 0-6.707 0-.786.001-.786 1.22 0 1.22z"/><path d="m59.352 81.444h8.079c.787 0 .787-1.22 0-1.22-2.692 0-5.386 0-8.079 0-.788.001-.788 1.22 0 1.22z"/><path d="m43.116 77.558v7.316c0 .786 1.22.786 1.22 0 0-2.438 0-4.878 0-7.316 0-.787-1.22-.787-1.22 0z"/><path d="m35.81 85.33h-11.93l-1.44-.83-.16-.1-.51-.29h10.67c.25.22.56.38.92.449.15.051.3.07.47.07.01.01.03.01.04.01.23.11.47.21.71.301.15.06 1.05.449.37.13.28.14.57.22.86.26z"/><path d="m58.665 77.71v6.402c0 .786 1.22.786 1.22 0 0-2.134 0-4.269 0-6.402 0-.786-1.22-.786-1.22 0z"/><path d="m81.836 84.112h-15.173c-.057.069-.107.14-.176.2-.487.436-1.029.761-1.604 1.02h16.953c1.22 0 1.22-1.22 0-1.22z"/><path d="m91.61 93.46-.65.38-.4.23c0-.011 0-.021-.01-.04-.109-.63-.25-1.25-.42-1.851-.36-1.319-.84-2.529-1.479-3.55-.58-.91-1.29-1.66-2.16-2.21-.01-.01-.01-.01-.021-.01-.51-.32-1.08-.57-1.71-.73-.81-.22-1.729-.29-2.77-.199-.19.02-.34-.051-.44-.15-.08-.09-.13-.21-.14-.33-.01-.02-.01-.04-.01-.06 0-.051.01-.11.02-.16.05-.25.24-.49.57-.521.08-.01.16-.01.24-.01.069-.01.13-.02.189-.02 5.07-.261 7.53 2.97 8.75 7.35.17.59.311 1.21.44 1.84v.041z"/></g><path d="m79.5 11.15-14.69-8.47-.01-.01-46.07 26.57v53.12l3.04 1.75.51.29.16.1 1.44.83 29.4 16.95 11.5 6.63.02.01 25.76-14.85.4-.23.65-.38 19.27-11.1v-53.12zm-51.9 74.18-1.44-.83-.12-.07-.56-.319-4.04-2.33-.36-.21-.49-.28v-50.971l44.21-25.49 44.21 25.49v50.97l-17.84 10.29-.76.43-.28.17-25.33 14.6z" opacity=".13"/></svg>