<svg enable-background="new 0 0 110.979 128.417" viewBox="0 0 110.979 128.417" xmlns="http://www.w3.org/2000/svg"><path d="m110.938 96.253-55.426 32-55.424-32v-64l55.424-32 55.426 32z" fill="#7fffdf"/><path d="m102.082 37.964v53.14l-.01.01-.02.01-.41.24-.37.21-.62.35-4.15 2.39-.01.01-.13.08-.06.03-.33.19-.14.08-.08.05-.8.45-.1.06-.48.28-1.13.65-.85.49-.74.43-.24.13-.13.05-.11.07-1 .57-.03.02-2 1.15-.51.29-.14.08-.03.02-.14.08-.01.01-.04.02-.14.08-.86.49-.04.03-.07.04-1.16.67-.45.26-.02.02h-.01l-.42.24-1.12.65-.87.52-1.18.67-.08.05-.12.07-.04.03-.04.02-.02.01-.1.06-.29.17-.03.01-.16.09v.01l-.4.23-.27.16-.11.06-.18.09-.02.02-.04.02-.46.26-.14.08-.09.05-.06.04-.24.14-.02.01-.29.17-.15.08-.22.13-.24.14h-.01l-.42.25-.29.17-.03.02-.3.17-1.36.79-.5.29-.25.14-.7.4-.03.02h-.01l-.31.18-.05.03-.24.15-.84.48-.63.36-.06.03-.5.29c-.01.01-.01.01-.01 0l-.53.31-.18.11-.11.06-.03.02-.73.42-.05.03-.05.03-.03.01c0 .01-.01.01-.01.01l-.02.02-.25.14-1 .58-.17.1-.04.02-.38.22-1.42.82-.36.21-.09.05-.24.14-.8.46-.26.15-.28.16-.01.01-.2.12-.23.13-.35.2-.83.48-.01.01-.09.05-.66.38-.13.07-.53.31-.02.01-.79.46-.61.35h-.01l-1.41.81-.02.02-.25.14-.56.32h-.01l-.13.08-.19.11-.27.16h-.01l-.2.12-.06-.03-1.14-.66-1.07-.62-.03-.01-.33-.19-.01-.01-.92-.53-.13-.08-2.62-1.51-.4-.23-.2-.12-.66-.38-.63-.37-.13-.07-.96-.55-.39-.23-.08-.05-1.4-.81h-.01l-.11-.07-.37-.22h-.01l-.27-.16-.33-.19-.13-.08-.16-.09-.03-.01-.06-.04-.04-.02-1.29-.75-.39-.23-.68-.39-.58-.33-.11-.06-1-.58-1.72-1c-.01-.01-.02-.02-.03-.02l-1.32-.76-1.16-.67-.13-.07-2.63-1.52-.16-.09-.57-.33-.47-.27-.44-.26-.3-.17-.38-.22-.99-.58-.04-.02-2.59-1.5-.13-.08-.02-.01-.1-.06-.18-.1-.67-.38-.82-.47-.09-.05-.5-.29-.01-.01-.08-.05h-.01l-.12-.07h-.01l-.31-.18-.73-.42c-.01-.01-.01-.01-.02-.01l-1.86-1.08-1.02-.59-2.02-1.18-.09-.05-.04-.02-.05-.03-.2-.12s-.01 0-.02-.01l-.28-.16-.53-.3-.82-.48-.06-.04h-.01s0 0-.01 0l-.49-.29-.7-.4-.68-.39-1.22-.71-.1-.06h-.01l-.33-.19-.41-.24h-.01l-.43-.25-.99-.57-.08-.04-.03-.02v-53.14l.78-.45 1.59-.92.36-.21 3.38-1.95 1.06-.61.29-.17.13-.07 5.36-3.1h.01l.91-.52 1.05-.62 1.24-.72.13-.07.45-.26h.01l.87-.51 3.63-2.08.64-.38.94-.54.17-.09 1.66-.95.2-.12.13-.07.45-.26.38-.22.44-.26.67-.39.43-.26.52-.3.5-.28.59-.34 1.19-.68.69-.41.75-.43.65-.37h.01l.05-.03.43-.25.82-.47.13-.08 4.34-2.5.11-.06.08-.05.27-.16 3.77-2.18.13-.07 1.62-.94.55-.32 1.44-.83.51.3 1.09.63 2.86 1.65.5.29.13.07 2.46 1.43 2.6 1.5 3.5 2.02.14.08 1.27.73 7.29 4.21.14.08 1.43.83 1.5.85.87.5.69.4.83.48 1.07.62 1.19.69.98.56v.01l.14.07v.01l.69.39 3.28 1.89.54.32v.01l.26.14.66.39 1.46.84 1.67.96.14.08.91.52z" fill="#fff"/><path d="m17.672 33.584v61.95l-.13-.08-5.16-2.97h-.01l-.63-.37-1.67-.96v-53.12l.01-.01v-.06l.78-.45 1.59-.92.36-.21 3.38-1.95 1.06-.61.29-.17z" fill="#ec6ef3"/><path d="m26.372 28.554v71.99l-.13-.07-8.57-4.94-.13-.08v-61.8l.13-.07 5.36-3.1h.01l.91-.52 1.05-.62 1.24-.72z" fill="#f7f390"/><path d="m35.072 23.554v82.01l-.13-.08-.04-.02-.49-.28-2.18-1.26-1.04-.6-4.82-2.78-.13-.07v-71.85l.13-.07.45-.26h.01l.87-.51 3.63-2.08.64-.38.94-.54.17-.09 1.66-.95.2-.12z" fill="#8bfb8d"/><path d="m43.772 18.524v92.07l-.13-.08-.21-.12v-.01l-1.29-.74-3.31-1.91-3.13-1.8-.36-.21-.27-.16-.13-.08v-81.86l.13-.07.45-.26.38-.22.44-.26.67-.39.43-.26.52-.3.5-.28.59-.34 1.19-.68.69-.41.75-.43.65-.37h.01l.05-.03.43-.25.82-.47z" fill="#8bfdfb"/><path d="m52.342 13.574-3.77 2.18-.27.16-.08.05-.11.06-4.34 2.5-.13.08v36.6c-.152-.176-.334-.346-.539-.509-.745-1.012-1.629-1.976-2.706-2.4-.666-.262-1.464-.419-2.304-.516-2.069-.914-4.847-.876-6.837-.657-2.854.314-6.419 2.127-7.57 4.936-.228.032-.446.174-.558.461-.079.202-.145.404-.218.606-.161.068-.297.205-.358.434-.215.813-.404 1.627-.572 2.445-.076.287-.158.573-.241.858-.14.039-.266.128-.349.283-.219.411-.413.833-.625 1.247-.174.023-.337.106-.437.288-.547.999-.98 2.003-1.328 3.049-.211.081-.39.261-.42.542-.042.506-.085 1.011-.127 1.517-.003.036.009.064.012.097-.016.3-.032.603-.039.903.001.009-.004.016-.002.026.002.007.001.015.003.022-.012.605-.016 1.21.015 1.825.001.026.013.044.016.069-.018.076-.024.157-.01.243.22 1.291.604 2.401 1.295 3.516.289.466 1.054.298 1.068-.266.024.01.048.02.073.027.75 2.926.467 5.794-.115 8.883-.145.29-.266.582-.365.888-.272-.019-.554.073-.751.287-.176.19-.243.434-.223.665-.028.081-.053.173-.079.295-.062.295.084.624.398.701.238.059.489.129.747.201.057.036.123.048.193.054.247.069.499.136.752.198.023.126.057.249.066.378.102.581.914.475 1.074 0 .017-.063.049-.117.068-.178h.007c.173.162.432.233.649.093.462-.298 1.021.032 1.502-.443.203-.2.289-.398.333-.601 1.348-1 2.563-2.343 3.602-3.605.602-.595 1.191-1.224 1.65-1.872.087-.04.169-.096.235-.191 1.349-1.93 2.685-3.869 4.017-5.81.035-.03.072-.055.101-.096.062-.088.126-.174.189-.261.171-.153.346-.302.517-.455.177-.158.209-.34.162-.503.071-.121.09-.24.061-.348.256.088.553.03.732-.279.446-.769.823-1.574 1.174-2.391.652-.643 1.072-1.327 1.444-2.251.071-.177.028-.339-.067-.471 1.28-1.808 2.544-3.844 3.369-5.84.109-.263-.012-.497-.21-.643.492-.655.996-1.303 1.526-1.94v51.8l.13.08 2.58 1.47.39.23.96.55.13.07.63.37.66.38.2.12.4.23 2.62 1.51.13.08v-102.1zm-26.642 45.757c.218-.958.518-1.727.929-2.387.652-.402 1.25-.919 1.833-1.404.351-.292.684-.627 1.056-.891.089-.063.18-.111.271-.155.186.188.486.279.737.138.222-.125.422-.185.613-.219.028.047.064.092.114.133.543.448 1.087.895 1.631 1.343.106.098.211.198.314.3.003.014 0 .026.005.041.003.01.008.02.011.03.035.566.477 1.27.854 1.811.099.155.207.306.317.457.028.041.061.088.083.122.001-.001.002-.002.004-.003.033.043.061.088.094.13.016.021.037.028.055.045-.284 3.293-.461 6.6-.839 9.891-.436.535-.793 1.263-1.093 2.027-.071.14-.142.282-.207.422-.479.91-1.019 1.775-1.582 2.64-.865-.742-1.729-1.485-2.572-2.256-.197-.18-.406-.225-.596-.193-.595-.989-1.073-2.059-1.467-3.134-.181-1.875-.896-3.738-1.041-5.611.048-1.092.227-2.181.476-3.277z" fill="#ea696c"/><path d="m61.172 14.354v100.46l-.13.08-4.9 2.82-.11-.06-.06-.03-1.14-.66-1.07-.62-.03-.01-.33-.19-.01-.01-.92-.53-.13-.08v-57.4c.01-.1.01-.19 0-.29v-44.26l.13-.07 1.62-.94.55-.32 1.44-.83.51.3 1.09.63 2.86 1.65.5.29z" fill="#ef6db8"/><path d="m69.872 19.384v90.41l-.14.09-8.56 4.93-.13.08v-100.61l.13.07 2.46 1.43 2.6 1.5 3.5 2.02z" fill="#f7f390"/><path d="m78.432 24.324-7.29-4.21-1.27-.73-.14-.08v33.819c-.048-.018-.098-.032-.147-.034-.334-.014-.588.162-.733.403-.273-.026-.547-.053-.82-.079-.581-.056-.822.733-.458 1.105.124.126.236.258.35.39-.077.156-.089.344.034.547.465.763.929 1.866 1.773 2.287v52.142l.14-.09 8.56-4.93.14-.08v-80.38z" fill="#ec6ef3"/><path d="m87.272 29.414v70.35l-.14.08-8.56 4.94-.14.08v-80.54l.14.08 1.43.83 1.5.85.87.5.69.4.83.48 1.07.62 1.19.69.98.56v.01z" fill="#ec8c8c"/><path d="m95.972 34.434v60.32l-.14.08-8.56 4.93-.14.08v-70.5l.14.07v.01l.69.39 3.28 1.89.54.32.26.15 3.79 2.18z" fill="#8bfdfb"/><path d="m102.212 38.034v53.12l-6.24 3.6-.14.08v-60.48l.14.08v.01l.91.52 5.2 3z" fill="#f7f390"/><path d="m34.246 60.535c-.05-.176-.119-.356-.196-.536-.035-.167-.087-.326-.141-.484.102-.111.173-.253.182-.42.063-1.211-.195-2.137-.892-3.136-.273-.391-.687-.373-.95-.156-.189-.127-.389-.23-.599-.296-.104-.032-.202-.052-.294-.063-.027-.18-.114-.347-.291-.435-.344-.172-.657-.211-.947-.166-.027-.003-.053-.007-.08-.01-.259-.033-.428.076-.521.24-.073.048-.142.11-.211.17-.137.002-.275.053-.391.174-1.147 1.198-1.942 2.516-2.385 3.995-.095.094-.169.214-.189.374-.031.289-.06.578-.09.866-.062.391-.109.79-.125 1.204-.004.101.012.188.041.263-.005.155.002.313.001.469-.059.093-.099.202-.089.348.085 1.175.246 2.316.469 3.454-.003.082.01.166.048.254.048.234.102.469.156.703.004.039-.002.072.008.113.06.23.12.459.18.689.045.174.144.284.261.356.19.45.38.9.57 1.351-.137.225-.162.527.046.766.775.894 1.585 1.707 2.48 2.48.437.377 1.243.028 1.037-.604-.029-.089-.058-.178-.087-.267.084-.066.153-.155.182-.284.053-.238.117-.469.175-.703.815-1.686 1.595-3.35 1.907-5.11.088-.075.132-.186.182-.345.097-.309.288-.58.345-.897.137-.118.232-.283.232-.46.002-.495-.014-.986-.04-1.476.118-.915.068-2.238.016-2.421z" fill="#7b8a69"/><path d="m64.157 59.044c0-.01-.001-.021-.002-.031-.001 0-.001 0-.002 0-.009-.063-.013-.125-.023-.187-.041-.262-.214-.406-.421-.466-.141-.416-.344-.783-.59-1.135-.103-.479-.229-.953-.594-1.302-.244-.233-.508-.326-.78-.394-.069-.203-.217-.385-.469-.477-.628-.229-1.257-.459-1.885-.688-.407-.149-.699.065-.827.374-.264.068-.486.231-.564.515-.052.193-.094.387-.144.58-.085.079-.158.174-.193.303-.141.518-.249 1.029-.342 1.539-.103.071-.181.18-.204.345-.007.054-.011.108-.018.162h-.004c0 .015-.001.029-.001.044-.074.577-.124 1.148-.157 1.718-.02.044-.044.082-.054.136-.384 1.98-.375 3.851.032 5.826.038.187.136.314.26.392.118 1.735 1.568 4.115 2.12 5.146.009.017.022.024.032.039.324.689.663 1.37 1.04 2.04.335.595 1.18.29 1.219-.33.021-.328.078-.646.146-.959.202-.023.393-.153.481-.429.042-.133.085-.266.127-.399.119-.077.213-.192.245-.361.076-.398.185-.778.28-1.166.438-1.146 1.259-2.119 1.334-3.437.001-.028 0-.056 0-.084.019-.051.043-.099.05-.155.312-2.41.262-4.765-.092-7.159z" fill="#7b8a69"/><path d="m85.421 61.872c-.05-.286-.133-.565-.219-.842.011-.04.029-.074.032-.12.083-1.21-.168-2.277-.724-3.219-.258-.545-.611-1.044-1.01-1.521-.053-.382-.104-.765-.158-1.147-.085-.606-.844-.514-1.095-.085-.103-.07-.201-.093-.296-.091-.609-.311-1.179-.462-1.891-.416-.033-.031-.056-.074-.094-.094-.076-.039-.153-.078-.229-.117-.251-.129-.512-.09-.722.093-2.85 2.49-2.615 7.718-1.294 11.14.235 1.381.939 2.799 1.616 4.121.245.531.503 1.057.777 1.577.025.055.055.113.079.167.014.031.036.046.052.072.155.288.309.577.474.863.132.23.37.296.584.247.019.501.795.809 1.028.272.019-.044.034-.09.052-.134.001 0 .003.001.004.001.001-.007.003-.015.004-.022.516-1.226.868-2.52 1.144-3.837 1.054-2.166 2.285-4.629 1.886-6.908z" fill="#7b8a69"/><path d="m73.064 85.723c-.416-.574-.869-.995-1.381-1.361-.128-.564-.287-1.123-.456-1.679.018-1.091-.003-2.176-.05-3.268-.007-.157-.059-.275-.127-.373-.016-1.212-.074-2.423-.151-3.633 1.791-1.258 2.008-3.437 2.039-5.571.038-2.593.174-4.889-1.587-6.874-.217-.244-.508-.266-.758-.166-.112-.255-.329-.377-.555-.409-.209-1.174-.663-2.411-.812-3.055-.335-1.45-.807-2.712-1.696-3.919-.407-.553-.861-1.049-1.29-1.563-.396-.633-.805-1.258-1.222-1.879-.474-.704-1.84-.273-1.471.62.027.065.061.124.09.187-.003.002-.006.003-.009.005.016.023.029.046.044.069.073.155.149.309.232.455-.379-.23-.78-.43-1.201-.602-.056-.102-.133-.198-.25-.276-3.91-2.602-8.827-.625-12.505 1.519-1.958 1.142-4.677 3.119-5.905 5.468-.154.017-.303.1-.409.285-.886 1.542-1.716 3.11-2.519 4.691-.689 1.114-1.349 2.249-1.95 3.425-.115.226-.082.435.019.6-.283.626-.54 1.265-.81 1.897-1.008 1.271-1.844 2.649-2.541 4.14-.292.412-.584.825-.876 1.237-.042.059-.057.121-.076.182-.053.028-.107.052-.152.107-1.516 1.889-3.032 3.777-4.548 5.666-.193-.076-.419-.059-.612.137-.184.186-.323.349-.438.508-1.012 1.128-1.938 2.293-2.778 3.569-.23.35.011.785.368.905 2.104.705 4.541.762 6.928.62.014.323.237.637.684.678 6.085.557 12.196.258 18.289-.142.298.232.664.393 1.072.428.542.046 1.084-.161 1.64-.128.366.022.707.136 1.08.129.953-.017 1.774-.446 2.71-.514 2.844.24 5.743.116 8.598.403.461.046.683-.327.672-.704.099.325.352.583.755.532.54-.069 1.081-.138 1.621-.206.031-.004.06-.015.091-.021.333.014.667.056 1.006.149.744.208 1.301-.772.853-1.28.369-.14.582-.66.344-.988zm-38.691-3.522c-.458.196-.786.546-.843 1.139-.02.204.005.386.048.56-.468.101-.929.237-1.379.43-.375.161-.386.516-.227.798-.508-.047-1.014-.107-1.523-.147-.64-.05-.779.986-.152 1.122.156.034.314.065.47.098-.989-.046-1.95-.169-2.861-.391.42-.6.859-1.186 1.321-1.751.228.094.501.083.658-.114.775-.974 1.55-1.948 2.326-2.923.19.013.388-.049.527-.243.106-.154.224-.297.332-.449.016.5.681.782 1.042.278.042-.059.079-.121.121-.18.094.059.201.098.317.118-.277.273-.236.803.002 1.1.019.023.044.045.064.068-.141.127-.233.302-.243.487zm31.051-21.142c-.229 5.051-1.23 9.378-4.106 13.502-.446-.409-.881-.824-1.297-1.256-.105-.12-.209-.241-.314-.362.216-.245.287-.628.009-.95-.254-.293-.506-.587-.758-.883-.181-.212-.4-.257-.6-.201-.665-2.272-1.501-4.488-2.482-6.66.434-2.488.6-5.054.759-7.601.373-.723.764-1.456 1.198-2.151.135-.097.259-.206.398-.297 1.14-.11 2.33-.076 3.524-.09.063-.001.118-.014.167-.035 1.747 2.194 2.959 4.263 3.531 6.845-.013.044-.026.087-.029.139z" fill="#8bfb8d"/><path d="m92.674 64.221c-.026-.136-.078-.247-.153-.336l-.007-.131c-.047-.803-1.153-.9-1.377-.276-.163-1.226-.483-2.461-1.005-3.71-.943-2.255-2.046-4.776-4.053-6.277-2.301-1.721-5.094-2.532-7.909-2.841-.562-.062-.79.585-.589 1.01-.15.2-.188.49-.068.701-.012.002-.025.003-.037.005-.252.053-.464.337-.451.593.017.243.024.486.019.73.001.342.281.599.614.614.765.033 1.253-.1 1.892-.514.041-.027.071-.062.103-.095.01-.003.02-.006.03-.009.664.083 1.38.079 2.024.126.105.008.192-.021.271-.063.398.17.784.36 1.151.585.615.49 1.205 1.028 1.798 1.586.427.401 1.172 0 1.125-.497.348.372.675.812.986 1.281-.099.105-.162.246-.135.422.005.033.01.066.016.099-.139-.071-.3-.099-.457-.079-.022-.104-.038-.209-.062-.314-.102-.452-.856-.362-.819.111.07 2.965.161 5.845.058 8.751-.171.607-.361 1.206-.546 1.807-1.113 1.963-2.322 3.923-3.436 5.914-.166-.114-.336-.224-.501-.341-.211-.149-.471-.133-.693-.025l-1.516-1.518c-.086-.087-.178-.141-.272-.175-.078-.076-.156-.152-.234-.228-.229-.224-.494-.242-.717-.152-.68-.742-1.433-1.469-2.328-1.629-.451-.081-1.044.306-.835.835.348.882.787 1.704 1.27 2.497-.406-.018-.766.497-.575.944.31.723.664 1.411 1.055 2.079-.09.227-.065.495.177.73.25.242.505.483.762.723.074.106.144.214.22.319.087.12.188.274.297.439-.216.158-.345.417-.237.746.229.7.599 1.37 1.032 2.021-.078.078-.152.151-.222.218-.344-.264-.688-.527-1.032-.791-.672-.515-1.582.651-.912 1.183.106.084.235.198.359.304-.55.153-.665.76-.47 1.219.07.164.161.315.262.458-.355-.054-.704-.104-1.037-.141-.734-.081-1.061 1.118-.384 1.417.516.228 1.033.429 1.553.611.012.099.05.196.103.291-.007.002-.014.002-.021.004-.777.174-.65 1.218 0 1.451 1.745.624 3.27.55 4.986-.124.347-.136.704-.23 1.064-.31 2.305.288 5.219.277 7.239-.582.242-.103.341-.394.362-.63.006-.064-.005-.132-.002-.196.188-.065.343-.208.389-.435.001-.004.001-.008.001-.011.147-.066.261-.186.308-.361.147-.095.261-.243.3-.436.168-.066.302-.191.373-.358.271-.136.472-.425.407-.831-.098-.611-.231-1.12-.45-1.698-.071-.187-.196-.309-.339-.381-.063-.165-.125-.33-.188-.495.17-1.416.134-2.669-.314-4.007.292-.554.534-1.123.739-1.705.067-.103.131-.205.186-.307.465-.855.825-1.785 1.073-2.724.305-1.16.399-2.322.362-3.49.18-1.403.12-2.798-.583-3.601z" fill="#ec6ef3"/><path d="m92.609 64.046c-.09-.242-.253-.473-.393-.667l-.016.016c-.387-.627-1.454-.126-1.048.606.033.06.077.112.114.169-.006.016-.013.032-.018.048-.042.033-.08.053-.123.092-.128.116-.082.32.052.405.068.043.114.1.177.146.056.071.126.134.218.183.001.001.003.001.004.001.07.062.115.138.177.204-.298-.199-.671-.319-1.124-.349 1.119-3.913-2.199-9.027-5.001-11.492-3.322-2.923-7.918-3.277-11.94-1.766-.108.04-.103.222.029.215 3.895-.203 7.868-.257 10.983 2.479s4.559 6.669 5.053 10.641c.032.261.248.412.456.408 3.289 1.878.389 8.085-.577 10.766-.003.009.003.016.001.025-.258.559-.476 1.06-.605 1.461-.057.177.172.375.333.256 2.451-1.811 4.159-6.741 4.458-9.69.089-.859-.245-3.438-1.21-4.157z" fill="#fab8ff"/><path d="m72.721 67.674c-.159-.954-.383-2.104-.887-2.934.281-.061.52-.306.417-.663-.191-.657-.783-1.342-1.498-1.42-.539-.059-1.025.26-1.13.739-.003-.914-.099-1.809-.328-2.666.405-1.747-1.305-4.112-2.326-5.418-1.152-1.474-3.06-3.318-5.06-3.285-.126.002-.19.156-.102.247.124.128.255.245.385.363-1.585-.784-3.313-1.295-5.083-1.127-2.14.204-5.348.66-6.765 2.464-.094.12.055.282.171.171 1.197-1.146 4.398-1.219 6.032-1.375 2.345-.224 4.325.594 6.222 1.908 3.603 2.496 5.859 6.475 6.038 10.883.014.341.545.448.621.084.078-.375.127-.745.165-1.114 1.753.874 1.807 4.065 1.787 5.666-.023 1.794-.484 3.414-.862 5.144-.09.413.419.601.657.277 1.639-2.232 1.992-5.262 1.546-7.944z" fill="#d7ffd7"/><path d="m44.754 56.299c-.174-.41-.474-.786-.778-1.107-.215-.227-.504-.2-.708-.044-.509-.652-1.229-1.229-2.042-1.726-.252-.231-.518-.442-.805-.632-.212-.188-.438-.365-.691-.517-.868-.523-1.868-.835-2.84-1.097-.896-.242-1.543-.268-2.448-.186-.85.077-1.707.072-2.494.329-3.039.254-6.307 1.279-7.797 3.505-.15.224.154.541.379.379 2.742-1.969 7.024-2.642 10.342-2.286 3.558.382 5.861 2.301 8.255 4.759.162.167.378.187.56.114.005.006.012.014.017.019.367.359 1.034.102 1.027-.425-.002-.167.105-.329.122-.5.023-.213-.016-.389-.099-.585z" fill="#ff9ca1"/><path d="m72.078 86.81c-.084-.559-.242-.976-.486-1.378.196-.368.177-.748-.144-1.127.011-.005.022-.009.033-.013.811-.348.111-1.533-.694-1.187-6.679 2.866-14.67 3.173-21.843 3.641-.221.014-.442.025-.662.038-2.162-.002-4.33.023-6.48-.27-2.075-.283-4.45-.615-6.064-2.067-.119-.107-.203-.222-.306-.332-.514-1.417-.542-3.002-.261-4.575.47-.88.958-1.754 1.369-2.622 1.43-3.011 3.084-6.332 3.734-9.61.089-.448-.557-.795-.785-.331-.738 1.503-1.295 3.098-1.883 4.677-.138-.049-.302-.032-.442.086-.344.29-.601.74-.832 1.122-.141.233-.277.474-.366.73-.021.023-.043.044-.056.077-.004.011-.009.024-.014.035-.134.029-.261.083-.347.2-.56.759-1.058 1.543-1.528 2.345-2.135 2.593-4.684 4.837-6.494 7.778-.002-.001-.003-.001-.005-.002-.281-.132-.622.203-.413.448-.126.04-.246.121-.341.259-.075.109-.161.205-.24.309-.1.061-.177.15-.219.282-.228.271-.467.532-.731.779-.311.291-.186.748.125.967.542.383 1.09.649 1.714.863.49.168.994-.466.693-.901.366.528 1.481.534 2.116.604.817.31 1.677.489 2.548.387.203-.024.365-.152.473-.315.2.182.423.352.692.496.208.112.472-.12.337-.337-.041-.065-.068-.129-.105-.194 4.1.867 8.662.735 12.569.536 2.208.083 4.468.055 6.617-.336 1.895.672 3.908.334 5.904.294 2.266-.045 4.437.478 6.698.117.334-.053 1.161-.282 2.088-.628.094.233.293.43.575.446.409.023.823.003 1.232-.014.376-.016.577-.286.621-.579.06.018.115.039.182.053.12.025.261.029.392.001.458.318 1.122-.131 1.029-.752z" fill="#69c469"/><path d="m49.884 79.654c-1.926-.1-3.708.614-5.583-.321-1.958-.976-1.875-3.464-2.387-5.294-.057-.204-.395-.286-.493-.064-.822 1.87-.021 5.127 1.746 6.279 1.841 1.2 5.275 1.572 6.92-.106.183-.186.044-.482-.203-.494z" fill="#69c469"/><path d="m56.3 64.94c-1.028-3.831.245-6.817 1.782-10.233.069-.153-.089-.388-.262-.262-2.798 2.049-3.782 6.37-3.314 9.646.477 3.334 2.853 8.041 5.776 9.82.242.147.587-.099.493-.379-1.027-3.081-3.618-5.4-4.475-8.592z" fill="#69c469"/><path d="m27.083 83.318c-1.574-.027-2.697-.314-3.524-1.785-.104-.185-.18-.392-.267-.592.15-.938.211-1.865.12-2.72-.05-.473-.156-.958-.286-1.446-.036-.723-.156-1.417-.383-2.06-.067-.188-.271-.249-.424-.18-.572-1.265-1.295-2.49-2.021-3.559-.35-.886-.613-1.802-.649-2.797-.089-2.475.995-4.575 2.069-6.724.103-.207-.156-.434-.332-.256-2.902 2.951-3.619 6.778-2.479 10.352-.226-.129-.562-.022-.563.309-.003.742.202 1.463.475 2.149.222.559.438 1.302 1.064 1.488.173.051.423-.062.452-.256.085-.583-.312-1.007-.553-1.518-.081-.171-.137-.35-.203-.526.311.629.675 1.246 1.103 1.84.145.202.385.286.617.279.201.497.371 1.004.51 1.521-.084 1.01-.112 2.035-.303 3.023-.263 1.364-.666 2.678-1.166 3.963-.639.633-1.219 1.322-.659 2.166.173.261.56.366.823.209-.009.455.573.785.859.362.026.039.046.079.077.116.339.407.803.452 1.245.666.373.181.766-.095.803-.429.326.145.671.022.875-.215.167.004.331-.049.443-.186.314-.387.324-.777.179-1.154v-.002c.308-.141.474-.507.354-.841.713.161 1.452.08 2.068-.41.331-.262.042-.781-.324-.787z" fill="#aa464b"/><path d="m30.648 73.981c-5.367-4.396-5.067-10.099-4.133-16.371.048-.319-.372-.558-.557-.235-1.789 3.123-1.987 7.607-.975 11.016.691 2.331 2.515 6.818 5.565 5.969.152-.043.236-.268.1-.379z" fill="#aa464b"/><path d="m82.254 73.571c-.055-.348-.58-.381-.735-.096-.068.125-.146.204-.229.263-.003-.061-.016-.124-.053-.19-.417-.755-.938-1.447-1.377-2.189-.404-.682-.705-1.497-1.258-2.068-.253-.261-.807-.08-.767.318 0 .003.002.007.002.01-.569-1.372-.985-2.819-1.258-4.271-.322-1.708-.432-3.474-.354-5.209.087-1.938.648-3.177 1.417-4.911.133-.301-.193-.567-.454-.35-3.252 2.7-2.636 8.07-1.826 11.742.669 3.033 2.357 8.611 6.145 9.072.356.043.618-.273.735-.559.252-.621.128-.834.012-1.562z" fill="#c04bc9"/><path d="m80.287 86.255c-2.387-.362-5.103-3.209-6.23-5.275-1.424-2.611-.743-5.444-.447-8.236.032-.305-.416-.326-.506-.069-.333.949-.648 1.855-.891 2.739-.35-.021-.733.188-.768.638-.004.05 0 .102-.003.152-.202-.037-.424.035-.546.223-.243.377-.094 1.003.022 1.403.109.375.331.619.613.828.361 2.637 1.525 5.273 3.291 7.14.188.198.396.231.582.178.547.516 1.157.947 1.898 1.154.105.029.203.016.287-.024.811.446 1.655.715 2.491.683.832-.032 1.118-1.396.207-1.534z" fill="#c04bc9"/><path d="m102.082 37.964-5.2-3-.91-.52v-.01l-.14-.08-3.79-2.18-.26-.15-.54-.32-3.28-1.89-.69-.39v-.01l-.14-.07v-.01l-.98-.56-1.19-.69-1.07-.62-.83-.48-3.06-1.75-1.43-.83-.14-.08-7.29-4.21-1.27-.72v-.01l-.14-.08-3.5-2.02-2.6-1.5-2.46-1.41-.13-.08-4.9-2.82-3.67 2.12-.13.07-8.57 4.94-.13.08-8.57 4.94-.13.07-8.57 4.94-.13.08-8.57 4.94-.13.07-7.46 4.3-.01.01v53.12l1.67.96.63.37h.01l5.16 2.97.13.08 8.57 4.94.13.07 4.82 2.78 1.04.6 2.18 1.26.49.28.04.02.13.08.27.16.36.21 3.13 1.8 3.31 1.91 1.29.74v.01l.21.12.13.08 2.5 1.42.08.05.39.23.96.55.13.07.63.37.66.38.2.12.4.23 2.62 1.51.13.08.92.53.01.01.33.19.03.01 1.07.62 1.14.66.06.03.11.06 4.9-2.82.13-.08 8.56-4.93.14-.09 8.56-4.93.14-.08 8.56-4.94.14-.08 8.56-4.93.14-.08 6.24-3.6v-53.12zm-49.61 75.49-.13-.07-8.57-4.94-.13-.07-.01-.01-8.56-4.94-.13-.07-8.57-4.94-.13-.08-8.57-4.94-.13-.07-5.61-3.24v-50.97l5.61-3.23.13-.08 8.57-4.94.13-.08 8.57-4.94.13-.07 8.57-4.94.13-.08 8.57-4.94.13-.07 3.67-2.12 4.9 2.83.13.07 8.56 4.94.14.08 8.56 4.93.14.08 8.56 4.94.14.08 8.56 4.93.14.08 4.38 2.53v50.97l-4.38 2.53-.14.08-8.56 4.93-.14.08-8.56 4.94-.14.08-8.56 4.93-.14.08-8.56 4.94-.13.07-4.9 2.83z" opacity=".13"/><path d="m18.197 87.922c5.661 1.448 12.032 1.171 17.842 1.34 6.417.187 12.84.206 19.258.07 12.66-.268 25.351-1.083 37.918-2.672.92-.116.945-1.573 0-1.469-12.446 1.374-24.902 2.361-37.424 2.64-6.089.136-12.182.128-18.271-.023-6.301-.155-12.964-1.188-19.234-.539-.351.037-.478.554-.089.653z"/><path d="m23.525 87.701c4.275-3.574 8.265-7.761 11.644-12.19 3.457-4.53 5.291-9.743 8.141-14.607 3.043-5.193 8.344-9.325 14.576-9.348 3.135-.011 6.279 1.049 8.512 3.302 2.43 2.452 2.894 5.187 3.228 8.464.057.558.823.715 1.005.136 1.543-4.895-2.628-10.305-6.872-12.21-5.36-2.407-11.644-1.062-16.102 2.558-5.469 4.44-7.209 10.944-10.623 16.809-3.722 6.394-9.094 11.185-13.94 16.655-.263.297.132.681.431.431z"/><path d="m70.453 62.025c1.851 2.343 2.048 4.926 2.034 7.815-.014 3.013-.782 4.826-2.99 6.832-.394.358.018 1.038.517.888 2.976-.898 3.73-4.585 3.762-7.3.033-2.863.164-7.346-2.897-8.787-.373-.176-.675.238-.426.552z"/><path d="m70.41 76.661c-.113 1.747.262 3.519.519 5.244.293 1.961.448 3.997 1.001 5.9.177.609 1.148.51 1.128-.153-.053-1.76-.457-3.511-.746-5.246-.325-1.949-.504-3.992-1.234-5.836-.14-.351-.642-.308-.668.091z"/><path d="m57.932 54.105c-2.217 2.783-2.541 6.65-1.988 10.056.337 2.076 1.034 4.063 1.936 5.958.84 1.763 1.715 2.71 2.945 4.086.11.123.319.177.475.126.079-.026.159-.053.238-.079.365-.121.444-.743 0-.821-.738-.13-1.854-2.163-2.146-2.668-.995-1.722-1.704-3.663-2.162-5.595-.908-3.833-.235-7.236 1.047-10.86.068-.19-.216-.364-.345-.203z"/><path d="m57.863 54.674c2.398.119 4.364.626 5.554 2.938.885 1.719 1.005 3.884.929 5.776-.15 3.761-1.504 7.118-3.597 10.203-.365.537.483 1 .857.501 2.964-3.96 4.405-9.238 3.582-14.148-.483-2.879-3.855-8.337-7.427-5.649-.158.119-.112.369.102.379z"/><path d="m57.77 55.011c.239-.086.382-.198.6-.332.226-.138.403-.162.554-.384.096-.141-.006-.319-.149-.367-.543-.184-1.164.465-1.138.982.002.063.065.126.133.101z"/><path d="m62.971 56.295c.395-.213.71-.492 1.182-.495.556-.003 1.034.365 1.216.896.324.949-.254 1.675-.779 2.394-.317.434.33.798.681.525 1.127-.876 1.455-2.735.507-3.854-.864-1.021-2.435-.953-3.229.111-.197.265.174.557.422.423z"/><path d="m51.448 55.85c-1.275-.127-1.758 1.808-1.401 2.73.444 1.145 1.777 1.606 2.796.895 1.065-.742 1.156-2.422.356-3.39-.577-.698-2.315-1.059-2.503.191-.046.309.267.505.516.3.582-.478 1.174-.474 1.581.245.426.753.262 1.954-.665 2.236-.864.262-1.532-.478-1.553-1.308-.021-.842.574-1.102.991-1.694.066-.093-.025-.196-.118-.205z"/><path d="m52.342 56.662c-.303-.395-.773-.488-1.173-.151-.477.402-.627 1.205-.375 1.763.211.467.678.795 1.2.783.71-.016 1.116-.584 1.181-1.24.049-.503-.003-1.09-.377-1.471-.474-.482-1.201-.407-1.725-.057-1.037.693-1.317 2.425-.07 3.067 1.317.678 2.329-.817 1.993-2.001-.152-.534-.526-1.031-1.081-1.185-.589-.163-1.174.109-1.456.644-.516.978.101 2.716 1.375 2.608 1.144-.097 1.587-2.047.456-2.493-.628-.248-1.344.204-1.353.893-.008.611.625 1.205 1.23.885.59-.312.474-1.209-.019-1.547-.615-.422-1.4.298-.989.933.289.446 1.056.296 1.041-.282-.001-.026-.001-.052-.002-.078-.057.137-.113.274-.17.411-.035.024-.07.048-.104.072-.155-.02-.31-.041-.466-.061-.005-.129-.009-.257-.014-.386.141-.058.282-.117.423-.175-.195-.002-.08.39-.132.513-.061.142.046.139-.06.087-.191-.095-.284-.613-.177-.785.243-.388.722 1.019.092.911-.355-.061-.242-.568-.123-.765.071-.117.195-.277.326-.321.152-.052.111-.102.198.035.053.083.05.606-.049.614-.322.026-.069-.704-.095-.721.288.188.719-.208.495-.5z"/><path d="m63.816 56.442c-.006.361.222.627.356.95.146.352.205.73.339 1.084.128.335.622.586.901.238.576-.717.758-1.706.168-2.485-.488-.643-1.558-1.031-2.244-.498-.357.277-.011.736.323.78.402.053.768-.072 1.076.288.291.341.232.854-.085 1.152.307.127.614.254.92.381.058-.721-.459-2.108-1.255-2.271-.251-.051-.494.111-.499.381z"/><path d="m42.556 72.074c-1.527 2.433-.402 5.932 1.903 7.456 1.115.737 2.57 1.112 3.899.878 1.677-.296 2.523-1.263 3.53-2.525.071-.089-.04-.207-.127-.127-1.563 1.446-4.372 1.626-6.221.764-2.654-1.237-3.109-3.686-2.697-6.326.025-.168-.187-.28-.287-.12z"/><path d="m29.651 54.427c-4.927 2.16-4.929 8.234-3.755 12.684.588 2.23 1.475 4.834 3.463 6.226.963.674 1.997.959 2.573-.256.197-.415-.347-.941-.687-.53-.553.669-2.275-1.018-2.553-1.401-.456-.628-.744-1.212-1.037-1.931-.654-1.602-1.095-3.331-1.318-5.045-.48-3.691.463-7.113 3.505-9.423.191-.146.032-.422-.191-.324z"/><path d="m29.535 54.905c4.379.496 4.93 5.913 4.364 9.412-.494 3.051-2.08 5.671-2.94 8.594-.12.407.435.602.657.277 2.521-3.698 4.19-8.942 3.323-13.412-.466-2.4-2.379-6.566-5.484-5.169-.163.072-.057.282.08.298z"/><path d="m40.222 57.12c-.408-1.047-1.7-.356-1.955.444-.333 1.04.776 2.064 1.776 1.557.987-.5 1.021-2.093.318-2.838-.801-.848-2.131-.517-2.467.586-.309 1.016.139 2.323 1.373 2.28 1.086-.037 2.02-1.452 1.42-2.435-.679-1.114-2.219-.562-2.67.442-.442.984.146 2.395 1.365 2.276 1.307-.128 1.828-2.038.895-2.899-.441-.407-1.166-.478-1.627-.067-.469.417-.508 1.087-.265 1.628.219.489.933.298 1.071-.14.029-.091.133-.397.09-.477-.117-.219-.164.105-.187.162-.043.105.006.29-.1.37.018-.013.054.076.022.002-.119-.276.168-.335.24-.511.004-.035-.021-.054-.077-.057-.023.078-.059.149-.109.214-.033.052-.094.084-.154.077.087.01.024-.026.017-.161-.005-.097.001-.24.045-.332.058-.121-.001-.07.042-.054.119.043.151.183.172.295.022.118.004.241-.018.356-.013.07-.027.132.026.089-.08.066-.03-.177-.032-.168.033-.129.229-.236.356-.206.237.054.537-.168.433-.433z"/><path d="m26.704 56.805c.003-.001.006-.001.009-.002.133-.026.23-.148.269-.269.005-.014.009-.028.014-.042.07-.217-.053-.406-.216-.53-.678-.518-1.467.51-1.636 1.081-.235.792.386 1.58 1.243 1.338.743-.21 1.254-1.155 1.032-1.89-.255-.84-1.308-1.146-1.902-.469-.566.646-.058 1.6.76 1.63.751.028 1.425-.775 1.307-1.507-.14-.871-1.175-.879-1.729-.405-.525.449-.864 1.53-.071 1.904.221.104.515.071.641-.168.097-.184.118-.377.192-.564.001-.003.108-.188.108-.184-.153-.158-.306-.317-.459-.475-.074.105-.112.225-.116.359.059-.236-.174.545-.186.46.148.092.296.185.444.277.007-.057.02-.113.039-.167.058-.097.081-.224.158-.314.077-.085-.014-.041.099-.063z"/><path d="m19.72 87.292c-.121-.91-.456-1.699.019-2.588.33-.618 1.104-.871 1.297-1.521.057-.193-.069-.389-.254-.447-.91-.284-1.725.983-2.009 1.694-.374.938-.393 2.36.42 3.08.176.155.566.071.527-.218z"/><path d="m20.891 83.04c.823-2.717 1.058-6.879.028-9.557-.081-.209-.45-.278-.497 0-.244 1.449-.062 2.943-.06 4.409.002 1.685-.209 3.38-.123 5.059.019.371.541.456.652.089z"/><path d="m20.879 76.469c-1.91-3.386-3.235-6.698-1.982-10.624.577-1.809 1.753-3.184 2.742-4.766.835-1.336 1.135-2.598 1.612-4.072 1.383-4.279 6.754-5.678 10.811-5.755 4.36-.082 8.244 1.848 10.382 5.691.392.705 1.394.086 1.066-.623-1.745-3.772-5.642-5.976-9.694-6.324-4.038-.346-9.807.781-12.494 4.129-1.401 1.746-1.444 4.094-2.535 6.009-1.106 1.941-2.545 3.542-3.165 5.738-1.029 3.645-.377 8.512 2.625 11.085.337.289.866-.072.632-.488z"/><path d="m67.724 54.455c4.761-2.888 10.66-4.791 16.02-2.088 5.3 2.673 6.545 7.639 7.103 13.083.032.313.421.364.537.073 2.283-5.734-2.1-12.231-7.246-14.569-4.85-2.203-13.528-1.671-16.953 2.961-.243.327.221.733.539.54z"/><path d="m91.212 62.376c2.31 1.54 2.213 5.226 1.824 7.696-.409 2.592-1.601 4.681-2.976 6.867-.305.485.387 1.005.785.606 2.475-2.476 3.646-6.27 3.613-9.722-.02-2.131-.346-5.892-3.066-6.117-.379-.031-.451.489-.18.67z"/><path d="m90.363 77.073c.198 1.475.807 2.876 1.109 4.336.344 1.664.334 3.323.546 4.995.053.417.718.615.813.11.558-2.961-.045-7.342-1.94-9.75-.222-.282-.564.043-.528.309z"/><path d="m72.139 55.678c-1.101.322-1.454 1.732-.93 2.68.581 1.05 2.049 1.366 2.954.529.838-.775.781-2.11 0-2.898-.381-.384-.928-.665-1.476-.676-.504-.01-1.107.336-.894.915.102.278.419.375.646.171.851-.764 2.243 1.371.896 2.016-.607.29-1.323-.06-1.537-.685-.224-.655.155-1.208.546-1.7.122-.153.016-.417-.205-.352z"/><path d="m73.404 57.218c.002-.325.01-.53-.275-.749-.254-.196-.6-.25-.907-.152-.756.241-.965 1.187-.594 1.823.362.62 1.161.921 1.843.71.787-.243 1.047-1.125.787-1.846-.246-.683-.885-1.368-1.673-1.228-.694.124-1.119.81-1.124 1.486-.006.773.508 1.493 1.29 1.619.758.121 1.52-.454 1.528-1.243.01-.927-1.011-1.545-1.857-1.547-.438-.001-.851.258-.974.692-.145.51.175.872.619 1.05.353.141.712-.158.822-.467.059-.164.041-.336-.043-.488-.041-.056-.084-.11-.129-.163-.435.507-.46.791-.076.851.193.122.31.141.301-.086 0 .001-.067-.298-.062-.291.047-.07.034-.082-.038-.037-.113.007-.121.043-.025.11.059.082.105.171.136.267.005.065.033.06.085-.014-.075.013-.248-.04-.279-.117-.074-.184.162.063.107-.034.141.252.536.138.538-.146z"/><path d="m79.058 53.835c-3.593 1.397-3.113 7.034-2.669 10.068.449 3.071 1.973 9.609 6 9.762.186.007.313-.26.16-.387-1.233-1.025-2.346-1.864-3.091-3.332-.807-1.59-1.369-3.309-1.745-5.049-.753-3.485-1.246-8 1.595-10.632.181-.166-.006-.524-.25-.43z"/><path d="m78.954 54.39c2.645-.007 4.548.767 5.52 3.427.572 1.564.517 3.447.433 5.083-.194 3.776-1.584 6.839-2.966 10.293-.124.309.36.59.568.331 3.003-3.753 4.213-9.736 3.492-14.443-.498-3.249-3.552-6.995-7.176-5.164-.229.116-.113.474.129.473z"/><path d="m84.022 55.612c.894-.492 2.038-.404 2.5.624.418.931-.137 1.822-.979 2.24-.519.258-.064 1.002.45.769 1.387-.627 2.021-2.361 1.143-3.669-.765-1.141-2.507-1.377-3.344-.194-.102.145.092.306.23.23z"/><path d="m85.856 55.411c-.593.047-.797.602-.75 1.14.057.66.397 1.263.89 1.695.288.252.813.185.906-.239.116-.532.219-1.866-.647-1.866-.815-.001-.931 1.252-.87 1.825.05-.12.099-.24.149-.36-.179.173-.225.316-.241.559-.039.595.834.665 1.003.136.237-.741.494-1.688.251-2.458-.158-.5-.772-1.232-1.36-.87-.193.119-.319.375-.245.601.126.383.48.7.733 1.007.216-.28.432-.56.648-.84-.4-.277-1.066-.978-1.597-.651-.536.331-.183 1.012.155 1.329.348.326 1.083.007.875-.509-.14-.348-.329-.609-.672-.78-.467-.233-.951.237-.709.709.225.437.449.874.674 1.311.192.373.663.279.874 0 .3-.395.434-.836.457-1.327-.211.161-.422.322-.633.482.242.1.324.322.32.563.313-.085.625-.169.938-.254-.442-.962-1.366-1.461-2.396-1.497-.215-.008-.419.158-.475.362-.016.057-.031.114-.047.171-.173.628.847.892.964.266.011-.058.022-.116.033-.175-.158.121-.317.241-.475.362.688-.02 1.245.416 1.526 1.02.22.473.932.213.938-.254.01-.727-.402-1.261-1.06-1.528-.319-.129-.62.192-.633.482-.012.266-.085.501-.252.714l.795.102c-.218-.441-.435-.882-.653-1.323-.236.236-.473.473-.709.709.09.024.152.078.186.164.292-.17.583-.34.875-.509-.127-.218-.167-.216-.121.007-.123.123-.245.245-.368.368.025-.005.05-.011.076-.016-.135-.018-.271-.035-.406-.053.345.172.668.457.982.68.534.379.997-.405.648-.84-.109-.135-.433-.461-.462-.534-.082.2-.163.401-.245.601.013-.009.026-.018.04-.028-.136.018-.273.036-.409.054.591.086.05 1.806-.044 2.111.334.045.669.091 1.003.136.002-.039.004-.078.006-.117-.05.12-.1.24-.149.361.209-.208.218-.332.212-.612-.003-.15-.039-.654.124-.724-.168 0-.337 0-.505 0 .035.025.07.05.105.074-.077-.1-.154-.201-.231-.301.105.293.065.58-.019.873.302-.08.604-.159.906-.239-.418-.349-.865-1-.623-1.574.084-.207-.009-.518-.286-.496z"/><path d="m25.874 56.033c-.579-.097-.815.918-.768 1.335.061.532.72 1.439 1.318.988.198-.15.176-.434-.068-.521-.192-.068-.338-.091-.46-.272-.13-.193-.205-.464-.185-.693.024-.276.27-.466.239-.735-.003-.043-.027-.094-.076-.102z"/><path d="m39.5 57.808c.297 0 .297-.461 0-.461-.296 0-.297.461 0 .461z"/><path d="m52.805 58.338c.026 0 .051 0 .077-.001.577-.004-.012-.834-.212-.37-.011.026-.022.051-.033.077-.057.13.006.295.168.294z"/><path d="m52.828 58.076c-.035.185-.205.282-.239.474-.031.176.047.31.213.375.026.01.051.02.077.03.134.052.284-.015.384-.101.204-.177.282-.419.248-.685-.045-.35-.604-.517-.683-.093z"/><path d="m64.713 58.825c.01.051.02.102.03.153.06.311.51.172.467-.129-.007-.052-.015-.103-.022-.155-.044-.307-.536-.183-.475.131z"/><path d="m85.477 57.612c.342 0 .342-.531 0-.531s-.342.531 0 .531z"/><path d="m26.665 87.589c-1.564-1.406 1.078-3.526 1.82-4.56.144-.201-.132-.439-.326-.326-1.134.663-2.187 1.915-2.509 3.21-.178.715-.181 2.286.936 1.976.125-.034.182-.208.079-.3z"/><path d="m25.852 86.552c.102-.013.151-.025.236-.087.096-.069.19-.209.137-.336-.158-.376-.557-.466-.87-.177-.39.36-.48 1.023-.415 1.516.064.484.747.661.904.122.124-.424.133-.823.058-1.257-.054-.313-.531-.436-.732-.193-.379.455-.512.949-.393 1.532.095.468.728.383.865 0 .154-.43.273-1.147-.208-1.414-.216-.119-.446-.089-.647.04-.102.066-.173.146-.242.244-.037.052-.161.245-.113.215.234.134.467.268.701.402-.019-.192-.038-.384-.056-.577-.03-.308-.395-.649-.709-.407-.483.372-1.051 1.018-.689 1.653.106.187.34.276.545.222.089-.023.153-.054.228-.107.175-.124.204-.332.064-.497-.019-.022-.037-.044-.056-.066l.114.276c.019-.36.069-.505.364-.742-.268-.111-.536-.222-.804-.333.023.192.045.384.068.577.038.326.373.612.701.402.118-.076.203-.148.284-.264.035-.042.061-.09.079-.142.091-.138.044-.152-.139-.043-.091-.07-.182-.14-.273-.21.082.132-.032.404-.075.531h.865c-.056-.248-.017-.474.148-.674-.249-.103-.499-.207-.748-.31.041.32.018.591-.085.896h.888c-.012-.086.013-.832.094-.841-.086-.049-.171-.098-.257-.147.021.029.042.058.064.086.024-.091.048-.182.072-.273-.02.01-.039.02-.059.03-.16.085-.097.377.091.353z"/><path d="m71.618 80.228c-.413 1.683.717 4.055 1.786 5.317 1.115 1.317 3.12 2.44 4.881 1.941.508-.144.356-.815-.117-.867-1.844-.204-3.268-.643-4.443-2.198-.53-.702-.949-1.497-1.222-2.332-.211-.646-.266-1.307-.606-1.898-.064-.111-.247-.091-.279.037z"/><path d="m72.111 85.079c.415.686.935 1.3 1.352 1.988.312.516 1.117.178.97-.409-.133-.529-.383-.977-.739-1.388-.248.248-.495.495-.743.743.418.384.836.769 1.254 1.153.209-.271.418-.542.627-.813-.418-.293-1.232-.929-1.613-.217-.327.611.372 1.303.802 1.631.465.354 1.074-.433.627-.813-.416-.355-.997-.947-1.584-.948-.722-.002-.85.755-.557 1.27.349.613 1.255.072.94-.549-.109-.215-.253-.347-.442-.49-.513-.389-1.116.441-.677.877.187.185.323.31.577.386.347.103.745-.253.615-.615-.091-.255-.206-.383-.402-.561-.226.292-.451.585-.677.877.022.025.044.05.066.074.313-.183.627-.366.94-.549-.395.19-.46.34-.197.45.067.045.134.092.199.139.161.117.315.242.467.371.209-.271.418-.542.628-.813-.118-.089-.371-.304-.363-.476-.05.122-.101.243-.151.365.019-.022.037-.045.056-.067-.122.05-.243.101-.365.151-.096-.046-.098-.043-.005.008.068.04.135.082.202.124.133.085.263.176.392.268.481.343 1.052-.415.627-.813-.414-.388-.829-.776-1.243-1.164-.5-.468-1.178.232-.743.743.235.276.372.578.458.928.323-.136.647-.273.97-.409-.486-.738-1.005-1.47-1.718-2.003-.332-.248-.746.228-.55.551z"/><path d="m86.229 86.494c2.378 1.256 5.803-1.494 6.035-3.878.024-.243-.3-.271-.415-.112-.672.928-1.285 1.936-2.263 2.575-1.043.682-2.21.685-3.321 1.136-.111.045-.163.211-.036.279z"/><path d="m91.363 85.059c.052-.101.118-.192.199-.272.372-.33-.168-.855-.542-.542-.267.224-.401.486-.506.814-.168.526.479.764.836.486.299-.233.598-.465.896-.698-.236-.236-.471-.471-.707-.707-.292.366-.584.726-.805 1.141.31.181.619.362.929.543.166-.374.283-.696.143-1.102-.044-.126-.193-.25-.336-.191-.371.154-.569.391-.735.75-.286.618.603 1.165.929.543.176-.335.345-.679.583-.977.406-.508-.199-1.103-.707-.707-.299.233-.598.465-.896.698.285.118.569.236.854.354-.019-.195.022-.318.125-.483-.238-.064-.476-.129-.714-.193.003.113-.012.224-.045.332-.071.299.336.482.499.211z"/><path d="m92.092 84.176c.593 0 .594-.922 0-.922-.593 0-.594.922 0 .922z"/><path d="m19.722 83.373c-1.155 1.494.11 3.206 1.586 3.839.942.404 4.684 1.254 4.409-.79-.044-.331-.426-.568-.7-.29-.447.453-.786.543-1.436.518-.574-.023-1.187-.106-1.733-.278-1.238-.392-2.046-1.401-1.656-2.724.074-.254-.292-.505-.47-.275z"/><path d="m21.149 86.751c-.222-.379-.583-.638-.911-.924-.361-.314-1.008-.021-.849.494.058.188.116.376.174.564.195.631 1.189.361.992-.273-.103-.33-.213-.658-.321-.986-.173-.527-1.001-.457-.994.135.007.625.181 1.212.544 1.722.28.393.925.273.936-.254.007-.359-.121-.676-.4-.907-.497-.411-1.214.302-.713.713.091.036.127.1.108.194.312-.085.624-.169.936-.254-.27-.375-.404-.751-.4-1.215-.331.045-.663.09-.994.135.101.33.199.662.306.991.331-.091.661-.182.992-.273-.062-.187-.124-.374-.186-.561-.283.165-.566.33-.849.494.368.308.707.643 1.157.819.352.139.643-.322.472-.614z"/><path d="m57.681 55.479c.29-.256.637-.528.998-.668.281-.11.609-.086.832-.303.044-.043.049-.129 0-.171-.317-.27-.772-.077-1.104.09-.441.222-.716.501-.889.958-.037.098.097.152.163.094z"/><path d="m19.191 73.952c.174.705.741 1.185 1.407 1.421.316.112.462-.403.139-.505-.566-.178-.964-.545-1.31-1.015-.084-.114-.273-.051-.236.099z"/><path d="m67.276 78.293c.8.087 1.872-.217 2.579-.582.656-.338 1.672-.836 1.798-1.641.024-.151-.06-.293-.226-.297-.736-.016-1.356.637-1.964.991-.366.213-.686.467-1.04.695-.387.249-.826.372-1.196.652-.08.06-.051.172.049.182z"/><path d="m69.698 77.475c.333.25.666.642 1.068.758.119.034.209-.077.187-.187-.09-.469-.685-.79-1.102-.934-.23-.081-.319.238-.153.363z"/><path d="m89.131 77.911c.281.014.488.088.771.005.253-.075.523-.175.748-.313.404-.249.939-.715.789-1.236-.059-.204-.251-.285-.447-.254-.386.062-.622.527-.88.793-.283.291-.661.656-1.024.845-.08.042-.037.156.043.16z"/><g fill="#fff"><path d="m65.169 56.109c-.165-.147-.26-.205-.481-.203-.191.002-.279.168-.256.336.036.267.085.426.323.567.151.089.316.023.412-.108.022-.03.045-.061.067-.091.101-.14.061-.389-.065-.501z"/><path d="m52.289 56.35c-.202-.139-.439.09-.39.3.048.207.086.268.242.413.194.18.595.005.483-.281-.087-.221-.14-.297-.335-.432z"/><path d="m73.219 56.407c-.176-.096-.302-.117-.503-.102-.124.009-.22.171-.111.267.233.204.195.393.53.421.094.008.161-.069.192-.146.012-.029.023-.059.035-.088.049-.124-.032-.291-.143-.352z"/><path d="m86.131 55.638c-.117-.063-.193-.096-.32-.136-.235-.076-.427.251-.243.418.165.149.214.262.437.307.14.028.274-.061.277-.211 0-.037.001-.073.002-.11.002-.106-.059-.217-.153-.268z"/><path d="m39.489 56.729c-.169-.047-.322.146-.229.298.13.213.184.393.438.462.11.03.208-.037.245-.139.12-.335-.158-.539-.454-.621z"/><path d="m26.854 56.316c-.021-.025-.043-.05-.064-.075-.044-.051-.147-.067-.204-.026-.026.019-.052.038-.077.057-.114.083-.201.256-.102.39.025.034.051.068.076.103.071.096.183.114.276.036l.096-.081c.123-.106.092-.296-.001-.404z"/></g></svg>