<svg enable-background="new 0 0 110.979 128.417" height="128.417" viewBox="0 0 110.979 128.417" width="110.979" xmlns="http://www.w3.org/2000/svg"><path d="m110.849 96.417-55.426 32-55.423-32v-64l55.423-32 55.426 32z" fill="#2f2a5b"/><path d="m101.923 38.139v53.129c-.01 0-.01 0-.021.011-.819.229-1.681.6-2.529 1.17-1.061.711-2.12 1.42-3.181 2.131l-.38.219-.221.131-.899.511-.479.279-.34.19v.01l-.91.521-.24.14-.729.419-.23.131-.16.1-.02.012-.181.1-.149.08-.13.05-.11.069-.09.051-.2.109v.01l-.08.041-.148.09-.062.029-.72.42-.16.09-.47.271-.36.21-.739.42-.051.029h-.01l-.16.101-.12.069-.02.011-.55.311-.15.09-.12.07-.689.39-.039.03-.761.439-2.16 1.25-.329.189-.631.38-.239.141-1.091.62-.05.029-.239.141-.41.239-.301.17-.75.44-.181.09-.02.021-1.71.979-.96.561-1.33.77-.091.051-.3.17-.601.352-.71.409c-.01 0-.01 0-.021 0l-.271.171-.689.398-.511.29h-.01l-.09.062-.011.01-.221.119-.119.07-.171.09-.1.061-.011.01-.061.029-.319.181-1.84 1.069-.37.221-.069.029-.5.301-.21.12-.19.11-.279.159-.489.279-.16.091-3.11 1.801-.01.01-.13.08h-.01l-.16.09-.13.08-.171.1-.34.2-.101.05-.08.051h-.01l-.189.109-.141.08-.05.029-.23.131-.05.029-.42.25-.12.061-1.09.63-.681.399-.17.101-.13.069-.221.131-.439.25-.221.13-.979.561-.16.091c-.681-.07-1.391-.051-2.09.049l-.091-.049-.159-.091-.25-.141-.181-.109-.02-.011-.09-.061-.12-.069-.181-.101-.21-.119-.06-.03-.04-.021-.22-.13-.15-.091-.01-.01-1.311-.75-.96-.561-.35-.199-.09-.051-.58-.34-.13-.07-.19-.109-1.18-.68-.04-.03-2.07-1.188-1.43-.83-.28-.16-.239-.141-.95-.551-.45-.27-.85-.49-.961-.551-.199-.119-.69-.391-2.08-1.21-.68-.391-.96-.56-1.37-.791-.28-.16-.109-.06-.49-.28-.101-.061-.229-.141-.54-.31-.28-.159-1.029-.591-.32-.19-.25-.139-.41-.24-.3-.181-1-.569-2.51-1.461-.65-.369-.96-.551-1.3-.75-.09-.05-.7-.409-.021-.011h-.01l-.85-.5-.13-.069-.551-.32h-.01l-.95-.551-.6-.35-.101-.061-.75-.43-.31-.181-.41-.239-.62-.361-.47-.279-.27-.148-.03-.021-2.18-1.26-3.171-1.82h-.01l-1.1-.641-.21-.119-.25-.141-.58-.34v-50.29c.09-1.01.18-2.01.28-3.01l1.14-.66.42-.24.24-.14.29-.17 1.609-.92c.011-.01.021-.01.021-.01v-.01l.109-.06.171-.1.319-.19.55-.31.551-.32c1.35-.56 2.649-1.26 3.83-2.05.02-.01.029-.02.05-.03.29-.2.569-.41.83-.64l.67-.39 2.979-1.71.271-.16 1.109-.65.881-.51 2.1-1.21h.01l.09-.05.91-.53h.01l.851-.49h.01l.95-.55 1.58-.92.17-.09 1.66-.95 1.16-.67.63-.37.909-.54.521-.3.34-.2 1.94-1.1.689-.41.09-.05 1.37-.78 3.73-2.15 1.069-.62.921-.53.46-.27 2.859-1.65.03-.02.4-.23.43-.25 2.35-1.36.021-.01.17-.1.03-.02 1.22-.7 1.061.62.17.1 2.319 1.35h.011l.029.01.62.36.399.23.351.21 2.59 1.49 1.33.77 4.261 2.46 1.359.78.93.54h.011l.851.49.95.55 2.17 1.25.14.08.9.52.62.36 1.01.58.54.32.5.29.64.36 1.66.95.87.5 1.521.88.199.12 1.17.67.801.46.069.05.021.01.35.2.229.13.319.19.91.52 3.78 2.18.04.03v.01l.26.14.66.39 1.46.84.399.23.261.15.109.07.239.13.051.03.09.06h.011l.05.03.021.01.101.06.33.19.279.16.779.44.44.25 1.149.67.789.45.511.29.149.09.301.17.039.03.29.17.19.11 1.319.76z" fill="#fff"/><path d="m48.827 42.003 2.038-1.047 2.082-.843h2.073v-.415l-6.193-8.489z" fill="#ec146d"/><path d="m48.678 33.076v1.503l3.121.333-.934-1.539" fill="#b21e5a"/><path d="m48.678 35.509v1.502l4.923.333-1.474-1.54" fill="#b21e5a"/><path d="m48.827 38.102v1.503l6.649.333-1.56-1.556" fill="#b21e5a"/><path d="m48.986 42.35v-11.847c0-.439-.683-.44-.683 0v11.847c0 .44.683.441.683 0" fill="#190b3c"/><path d="m55.602 39.648c-2.209-3.092-4.42-6.184-6.628-9.276-.254-.354-.847-.014-.591.345l6.629 9.277c.254.354.847.013.59-.346" fill="#190b3c"/><path d="m48.802 68.791h14.958z" fill="#62bf8b"/><path d="m48.802 68.466h14.957v.648h-14.957z" fill="#190b3c"/><path d="m48.802 68.791.162 2.193 1.482 2.002 1.3.123 4.752.463 4.874-.349 1.632-1.134.756-2.155-.324-1.143z" fill="#190b3c"/><path d="m60.302 73.716h-8.042c-2.086 0-3.783-1.697-3.783-3.781v-4.876c0-.179.146-.324.325-.324h14.957c.18 0 .325.146.325.324v4.876c0 2.084-1.696 3.781-3.782 3.781m-11.176-8.332v4.551c0 1.729 1.406 3.133 3.134 3.133h8.042c1.728 0 3.133-1.404 3.133-3.133v-4.551z" fill="#190b3c"/><path d="m58.755 68.983c0-1.413-1.146-2.558-2.558-2.558s-2.558 1.145-2.558 2.558c0 1.412 1.146 2.558 2.558 2.558 1.414 0 2.558-1.146 2.558-2.558" fill="#62bf8b"/><path d="m56.199 71.865c-1.592 0-2.884-1.293-2.884-2.882 0-1.59 1.292-2.883 2.884-2.883 1.589 0 2.882 1.293 2.882 2.883 0 1.589-1.293 2.882-2.882 2.882m0-5.115c-1.232 0-2.233 1.002-2.233 2.233 0 1.229 1.001 2.231 2.233 2.231 1.229 0 2.231-1.002 2.231-2.231.001-1.233-1.001-2.233-2.231-2.233" fill="#190b3c"/><path d="m52.615 68.703c0-.609-.494-1.104-1.104-1.104-.609 0-1.104.494-1.104 1.104s.493 1.104 1.104 1.104c.61-.001 1.104-.495 1.104-1.104" fill="#fdcd0d"/><path d="m51.51 70.13c-.787 0-1.429-.641-1.429-1.428 0-.789.642-1.43 1.429-1.43s1.429.641 1.429 1.43c0 .788-.642 1.428-1.429 1.428m0-2.207c-.429 0-.779.35-.779.779 0 .428.352.778.779.778.431 0 .78-.351.78-.778 0-.429-.349-.779-.78-.779" fill="#190b3c"/><path d="m61.97 68.703c0-.609-.493-1.104-1.104-1.104-.609 0-1.104.494-1.104 1.104s.495 1.104 1.104 1.104c.611-.001 1.104-.495 1.104-1.104" fill="#fdcd0d"/><path d="m60.867 70.13c-.787 0-1.43-.641-1.43-1.428 0-.789.643-1.43 1.43-1.43.786 0 1.428.641 1.428 1.43 0 .788-.641 1.428-1.428 1.428m0-2.207c-.431 0-.78.35-.78.779 0 .428.351.778.78.778s.778-.351.778-.778c.001-.429-.35-.779-.778-.779" fill="#190b3c"/><path d="m43.6 70.316c-.222 0-.433-.088-.593-.248l-3.109-3.109-2.837-4.935.039-3.082 7.347 7.349v3.183c0 .463-.38.842-.847.842m-3.182-3.756 3.049 3.05c.038.038.083.058.133.058.083 0 .198-.062.198-.194v-2.914l-6.069-6.069-.017 1.365z" fill="#190b3c"/><path d="m41.819 68.419v-4.513l-3.918-3.703-.131 2.464z" fill="#190b3c"/><path d="m37.929 63.988-4.008-2.521.974-1.548c.572-.91 1.773-1.184 2.684-.611l.714.45c.91.572 1.184 1.774.61 2.682z" fill="#eef3ed"/><path d="m38.031 64.435-4.558-2.867 1.147-1.823c.418-.664 1.137-1.062 1.923-1.062.427 0 .844.121 1.207.349l.715.45c.513.323.87.827 1.004 1.417.135.592.031 1.2-.292 1.713zm-3.662-3.071 3.458 2.176.802-1.273c.229-.367.305-.801.208-1.223-.098-.423-.353-.782-.718-1.013l-.715-.449c-.259-.163-.557-.25-.86-.25-.563 0-1.075.283-1.374.758z" fill="#190b3c"/><path d="m47.38 85.216h2.271v5.064h-2.271z" fill="#190b3c"/><path d="m46.087 89.651h-2.282v-13.418c0-.772.626-1.397 1.398-1.397h1.397c.771 0 1.398.625 1.398 1.397v11.506c.002 1.055-.855 1.912-1.911 1.912" fill="#eef3ed"/><path d="m46.087 89.976h-2.607v-13.742c0-.951.773-1.724 1.725-1.724h1.395c.951 0 1.725.771 1.725 1.724v11.505c-.001 1.233-1.005 2.237-2.238 2.237m-1.958-.648h1.958c.875 0 1.587-.714 1.587-1.589v-11.505c0-.593-.481-1.074-1.074-1.074h-1.396c-.594 0-1.074.481-1.074 1.074z" fill="#190b3c"/><path d="m26.417 83.11-4.699-2.957c-1.089-.684-1.416-2.122-.731-3.211l9.403-14.945c.687-1.089 2.123-1.416 3.211-.731l4.699 2.957c1.088.685 1.416 2.122.73 3.211l-9.402 14.944c-.685 1.088-2.123 1.416-3.211.732" fill="#eef3ed"/><path d="m27.655 83.792c-.499 0-.985-.142-1.41-.408l-4.698-2.956c-.601-.377-1.018-.966-1.174-1.656-.157-.69-.036-1.403.341-2.003l9.403-14.946c.488-.777 1.329-1.241 2.247-1.241.5 0 .987.142 1.411.408l4.698 2.957c.6.378 1.019.967 1.175 1.656.157.691.036 1.402-.342 2.003l-9.403 14.945c-.489.777-1.329 1.241-2.248 1.241m4.709-22.56c-.693 0-1.328.35-1.698.938l-9.402 14.945c-.286.454-.377.991-.258 1.514.118.521.433.966.887 1.252l4.699 2.955c.32.201.688.309 1.064.309.695 0 1.329-.352 1.699-.938l9.404-14.945c.285-.453.376-.99.258-1.514-.119-.521-.434-.967-.888-1.25l-4.699-2.958c-.322-.202-.689-.308-1.066-.308" fill="#190b3c"/><path d="m27.655 83.792c-.5 0-.986-.143-1.41-.408l-4.699-2.955c-.601-.378-1.017-.967-1.173-1.657-.158-.69-.037-1.403.341-2.003l2.627-4.175c.488-.777 1.329-1.241 2.248-1.241.499 0 .986.141 1.411.408l4.698 2.955c.601.379 1.018.967 1.175 1.656.156.691.036 1.403-.342 2.002l-2.627 4.177c-.49.777-1.33 1.241-2.249 1.241m-2.067-11.791c-.694 0-1.329.352-1.699.938l-2.627 4.175c-.285.453-.376.991-.258 1.513.119.521.434.968.887 1.252l4.698 2.957c.321.201.688.308 1.065.308.694 0 1.329-.351 1.698-.937l2.627-4.178c.285-.451.376-.988.257-1.513-.118-.521-.434-.966-.887-1.25l-4.698-2.957c-.319-.2-.687-.308-1.063-.308" fill="#190b3c"/><path d="m36.338 71.957c-.148 0-.282-.103-.316-.252l-.603-2.629c-.079-.345-.288-.637-.586-.824l-3.404-2.143c-.299-.189-.654-.249-1-.171l-2.623.597c-.175.039-.349-.068-.389-.244-.04-.174.069-.349.245-.389l2.621-.598c.515-.116 1.044-.025 1.49.254l3.404 2.143c.445.28.756.719.873 1.229l.603 2.628c.04.175-.068.35-.243.389-.024.008-.048.01-.072.01" fill="#190b3c"/><path d="m34.673 74.602c-.147 0-.281-.103-.316-.253l-.603-2.628c-.079-.345-.287-.638-.586-.825l-3.404-2.143c-.299-.188-.654-.248-1-.17l-2.623.597c-.174.039-.348-.069-.389-.244-.04-.175.069-.349.245-.388l2.622-.6c.515-.115 1.044-.025 1.489.256l3.404 2.142c.445.28.756.718.873 1.229l.603 2.627c.04.176-.068.351-.243.391-.023.006-.047.009-.072.009" fill="#190b3c"/><path d="m29.48 70.865 1.701-2.705c.238-.377.738-.49 1.117-.254l.581.367c.378.237.493.737.254 1.115l-1.701 2.703" fill="#eef3ed"/><path d="m31.432 72.417c-.059 0-.119-.017-.173-.051-.151-.096-.197-.295-.102-.447l1.7-2.703c.069-.109.092-.239.063-.365-.028-.126-.104-.232-.214-.305l-.582-.364c-.227-.144-.526-.074-.668.151l-1.701 2.703c-.095.152-.296.198-.448.104-.152-.096-.198-.297-.103-.448l1.701-2.704c.333-.529 1.034-.688 1.563-.355l.583.367c.257.16.436.412.502.707.067.297.015.601-.146.855l-1.701 2.704c-.061.097-.167.151-.274.151" fill="#190b3c"/><path d="m31.432 72.091c.339-.539.177-1.25-.362-1.59s-1.251-.178-1.59.362c-.339.539-.177 1.25.362 1.589.539.34 1.251.178 1.59-.361" fill="#fdcd0d"/><path d="m30.456 72.957c-.279 0-.551-.08-.787-.228-.333-.211-.566-.538-.654-.923-.088-.387-.021-.781.19-1.115.272-.432.74-.691 1.252-.691.277 0 .55.08.786.229.334.21.566.538.653.924.087.385.021.78-.189 1.113-.273.432-.741.691-1.251.691m.001-2.308c-.287 0-.549.146-.702.388-.118.188-.156.409-.106.627.051.215.181.398.367.517.132.083.284.128.439.128h.001c.287 0 .549-.146.702-.389.117-.188.154-.409.106-.625-.05-.215-.18-.399-.367-.518-.133-.084-.285-.128-.44-.128" fill="#190b3c"/><path d="m19.105 79.934 1.701-2.705c.238-.377.738-.491 1.116-.254l.582.366c.378.238.492.738.254 1.115l-1.701 2.705" fill="#eef3ed"/><path d="m21.057 81.486c-.059 0-.119-.016-.173-.05-.151-.095-.197-.295-.102-.447l1.701-2.702c.069-.109.091-.24.063-.367-.029-.125-.105-.232-.214-.303l-.583-.365c-.227-.143-.526-.074-.667.151l-1.702 2.704c-.095.152-.296.197-.447.104-.152-.098-.198-.297-.102-.448l1.701-2.705c.333-.528 1.034-.688 1.563-.354l.582.365c.256.161.435.413.502.708.067.296.015.601-.146.854l-1.701 2.705c-.062.096-.167.15-.275.15" fill="#190b3c"/><path d="m21.058 81.162c.339-.539.176-1.25-.362-1.59-.54-.339-1.251-.178-1.59.361-.34.54-.177 1.252.362 1.59.539.34 1.25.178 1.59-.361" fill="#62bf8b"/><path d="m20.081 82.026c-.278 0-.551-.079-.786-.228-.335-.211-.567-.537-.655-.924-.087-.385-.02-.78.19-1.114.271-.433.739-.69 1.252-.69.277 0 .55.078.786.227.688.436.897 1.35.464 2.039-.272.431-.74.69-1.251.69m.002-2.308c-.288 0-.549.146-.703.389-.118.188-.155.408-.106.625.049.215.18.398.367.518.132.082.285.127.44.127.287 0 .549-.145.702-.387.242-.388.126-.9-.262-1.144-.131-.083-.283-.128-.438-.128" fill="#190b3c"/><path d="m28.598 78.628c.658-1.045.344-2.426-.702-3.082-1.045-.658-2.426-.344-3.083.701-.658 1.045-.343 2.426.702 3.084s2.425.344 3.083-.703" fill="#190b3c"/><path d="m26.704 80c-.483 0-.953-.135-1.363-.394-.578-.364-.981-.933-1.133-1.599s-.035-1.354.329-1.934c.472-.748 1.282-1.197 2.17-1.197.48 0 .952.138 1.36.396.579.363.982.933 1.135 1.599.15.668.034 1.354-.33 1.933-.47.748-1.282 1.196-2.168 1.196m.004-4.473c-.663 0-1.269.334-1.62.895-.272.433-.359.943-.246 1.441s.414.922.846 1.193c.306.193.657.294 1.017.294.662 0 1.267-.333 1.62-.894.271-.433.358-.943.245-1.442-.112-.497-.414-.921-.846-1.193-.307-.193-.658-.294-1.016-.294" fill="#fdcd0d"/><path d="m25.794 84.142 1.701-2.704c.237-.378.737-.492 1.116-.255l.581.367c.379.238.493.738.254 1.115l-1.7 2.703" fill="#eef3ed"/><path d="m27.746 85.695c-.06 0-.119-.016-.174-.05-.15-.095-.196-.296-.102-.447l1.702-2.702c.069-.11.09-.24.062-.367s-.104-.233-.214-.303l-.582-.367c-.109-.067-.239-.09-.366-.063-.127.029-.233.105-.303.215l-1.701 2.704c-.096.151-.297.198-.447.103-.151-.095-.198-.297-.103-.447l1.702-2.704c.333-.528 1.033-.688 1.563-.354l.582.365c.256.16.435.412.502.707.066.296.015.602-.146.855l-1.701 2.705c-.061.096-.166.15-.274.15" fill="#190b3c"/><path d="m27.747 85.371c.339-.539.177-1.25-.362-1.591-.539-.339-1.25-.177-1.59.362-.339.539-.177 1.251.362 1.59.539.34 1.25.178 1.59-.361" fill="#62bf8b"/><path d="m26.77 86.234c-.277 0-.55-.078-.786-.229-.688-.434-.897-1.348-.464-2.036.271-.433.739-.69 1.251-.69.278 0 .55.078.786.227.334.211.566.539.654.924.087.385.02.779-.19 1.113-.272.432-.74.691-1.251.691m.001-2.307c-.287 0-.549.146-.702.388-.242.388-.126.897.262 1.144.132.082.283.127.439.127.288 0 .549-.146.702-.388.118-.188.155-.409.106-.626-.05-.216-.18-.398-.367-.517-.132-.084-.284-.128-.44-.128" fill="#190b3c"/><path d="m19.991 85.946 1.7-2.704c.238-.378.738-.492 1.116-.253l.582.365c.378.237.492.737.254 1.116l-1.701 2.703" fill="#eef3ed"/><path d="m21.943 87.5c-.059 0-.118-.017-.172-.051-.151-.096-.198-.296-.102-.447l1.701-2.703c.142-.228.072-.526-.152-.67l-.582-.364c-.11-.069-.24-.093-.366-.063s-.233.105-.303.215l-1.701 2.705c-.096.15-.296.197-.448.102-.151-.096-.197-.296-.102-.447l1.701-2.704c.162-.256.413-.434.709-.502.295-.067.599-.016.854.146l.582.367c.529.332.689 1.033.356 1.563l-1.701 2.702c-.061.096-.166.151-.274.151" fill="#190b3c"/><path d="m21.943 87.173c.34-.539.178-1.25-.361-1.59-.54-.34-1.251-.178-1.59.361-.34.539-.178 1.251.361 1.59.54.341 1.251.178 1.59-.361" fill="#fdcd0d"/><g fill="#190b3c"><path d="m20.967 88.039c-.279 0-.55-.078-.787-.229-.334-.209-.566-.538-.654-.922-.087-.387-.02-.781.19-1.115.271-.434.74-.691 1.252-.691.278 0 .549.08.786.229.688.434.897 1.348.464 2.038-.272.43-.74.69-1.251.69m.001-2.308c-.287 0-.55.146-.702.388-.118.188-.156.409-.106.625.05.217.18.399.366.519.133.083.284.127.44.127.287 0 .549-.146.702-.388.243-.388.126-.898-.261-1.143-.132-.084-.283-.128-.439-.128"/><path d="m23.099 83.496c-.059 0-.119-.016-.173-.051-.151-.094-.198-.295-.102-.447l2.646-4.205c.096-.15.296-.195.448-.102.151.096.197.295.102.447l-2.645 4.206c-.062.098-.168.152-.276.152"/><path d="m26.705 77.763c-.06 0-.119-.016-.173-.051l-2.411-1.517c-.363-.229-.845-.118-1.073.244l-.561.892c-.096.15-.296.197-.447.102-.152-.096-.197-.296-.103-.447l.561-.891c.419-.666 1.302-.867 1.968-.447l2.412 1.518c.15.095.197.295.102.446-.062.096-.167.151-.275.151"/><path d="m28.883 81.68c-.059 0-.119-.017-.173-.05-.151-.096-.197-.297-.102-.448l.561-.892c.229-.362.119-.844-.244-1.071l-2.411-1.519c-.152-.095-.197-.296-.102-.447s.295-.196.447-.103l2.411 1.519c.667.42.867 1.302.448 1.969l-.561.891c-.06.097-.166.151-.274.151"/><path d="m51.162 82.337h-3.487v-3.787h3.487zm-2.838-.649h2.188v-2.487h-2.188z"/><path d="m49.418 78.875h1.419v3.139h-1.419z"/><path d="m51.162 82.337h-2.068v-3.787h2.068zm-1.418-.649h.77v-2.487h-.77z"/><path d="m51.162 85.542h-3.487v-2.664h3.487zm-2.838-.65h2.188v-1.365h-2.188z"/><path d="m49.418 83.203h1.419v2.014h-1.419z"/><path d="m45.902 78.478c-.716 0-1.299-.583-1.299-1.299 0-.717.583-1.299 1.299-1.299.718 0 1.3.582 1.3 1.299-.001.716-.583 1.299-1.3 1.299m0-1.948c-.356 0-.648.291-.648.649 0 .357.292.648.648.648.358 0 .649-.291.649-.648 0-.358-.291-.649-.649-.649"/><path d="m43.805 86.087h4.194v.65h-4.194z"/><path d="m43.805 87.274h4.194v.649h-4.194z"/><path d="m45.578 78.153h.648v8.261h-.648z"/><path d="m33.85 61.78h4.751v.974h-4.751z" transform="matrix(-.8464 -.5325 .5325 -.8464 33.7328 134.2614)"/><path d="m37.75 60.976c.171-.271.089-.63-.184-.801-.271-.171-.63-.089-.801.182s-.09.63.182.801c.273.171.632.089.803-.182"/></g><path d="m35.433 60.554v1.221" fill="none"/><path d="m36.425 62.314c-.059 0-.119-.017-.172-.051-.152-.096-.198-.296-.103-.448l.65-1.033c.096-.152.296-.198.448-.102.151.096.196.295.103.447l-.65 1.034c-.062.099-.168.153-.276.153" fill="#190b3c"/><path d="m35.402 62.896v4.702" fill="none"/><path d="m33.299 67.226c-.059 0-.119-.016-.173-.05-.151-.097-.198-.296-.103-.448l2.504-3.98c.097-.151.297-.196.448-.102.151.096.197.296.102.448l-2.505 3.979c-.06.098-.166.153-.273.153" fill="#190b3c"/><path d="m45.989 69.894h-2.189v-2.959h2.189zm-1.541-.65h.893v-1.658h-.893z" fill="#190b3c"/><path d="m44.893 67.26h.771v2.309h-.771z" fill="#190b3c"/><path d="m49.996 77.755h-1.154c-.18 0-.324-.145-.324-.324s.146-.324.324-.324h1.154c.179 0 .323.146.323.324.001.181-.145.324-.323.324" fill="#190b3c"/><path d="m49.996 76.625h-1.154c-.18 0-.324-.146-.324-.323 0-.181.146-.325.324-.325h1.154c.179 0 .323.146.323.325.001.177-.145.323-.323.323" fill="#190b3c"/><path d="m49.996 75.494h-1.154c-.18 0-.324-.146-.324-.324 0-.181.146-.325.324-.325h1.154c.179 0 .323.146.323.325.001.177-.145.324-.323.324" fill="#190b3c"/><path d="m50.837 74.361h-2.837c-.181 0-.324-.145-.324-.324s.144-.324.324-.324h2.838c.179 0 .325.145.325.324 0 .177-.147.324-.326.324" fill="#190b3c"/><path d="m52.338 98.712h-7.737c-.559 0-1.012-.453-1.012-1.014v-1.004c0-.56.454-1.014 1.012-1.014h7.737c.558 0 1.013.454 1.013 1.014v1.006c0 .559-.455 1.012-1.013 1.012m-7.737-2.38c-.2 0-.363.164-.363.364v1.005c0 .199.163.362.363.362h7.737c.2 0 .363-.163.363-.362v-1.005c0-.2-.163-.364-.363-.364z" fill="#190b3c"/><path d="m49.527 91.778v-2.993l-1.966 1.965v1.028" fill="#eef3ed"/><path d="m49.851 91.778h-.648v-2.21l-1.316 1.317v.893h-.649v-1.028c0-.086.035-.168.096-.229l1.967-1.966c.093-.093.231-.122.354-.07.12.05.199.168.199.3z" fill="#190b3c"/><path d="m50.946 94.637h-5.081c-.179 0-.323-.146-.323-.325 0-.18.146-.325.323-.325h5.081c.18 0 .325.146.325.325s-.146.325-.325.325" fill="#190b3c"/><path d="m49.788 93.51h-2.743c-.426 0-.773-.347-.773-.774v-.535c0-.427.349-.772.773-.772h2.743c.427 0 .772.347.772.772v.535c.001.428-.346.774-.772.774m-2.744-1.432c-.068 0-.124.055-.124.123v.535c0 .069.056.125.124.125h2.743c.067 0 .124-.056.124-.125v-.535c0-.068-.057-.123-.124-.123z" fill="#190b3c"/><path d="m49.851 96.332h-2.796v-3.471h2.796zm-2.146-.65h1.498v-2.172h-1.498z" fill="#190b3c"/><path d="m49.527 95.178h-2.147c-.18 0-.324-.146-.324-.325 0-.18.146-.324.324-.324h2.146c.181 0 .324.146.324.324.001.18-.143.325-.323.325" fill="#190b3c"/><path d="m45.108 98.387h2.272v.899h-2.272z" fill="#190b3c"/><path d="m47.38 99.612h-2.272c-.18 0-.323-.146-.323-.325v-.898c0-.18.145-.324.323-.324h2.272c.179 0 .324.146.324.324v.898c.001.179-.145.325-.324.325m-1.947-.65h1.623v-.252h-1.623z" fill="#190b3c"/><path d="m50.021 98.387h2.272v.899h-2.272z" fill="#190b3c"/><path d="m52.293 99.612h-2.272c-.179 0-.324-.146-.324-.325v-.898c0-.18.146-.324.324-.324h2.272c.179 0 .324.146.324.324v.898c.001.179-.145.325-.324.325m-1.947-.65h1.623v-.252h-1.623z" fill="#190b3c"/><path d="m48.765 87.649c.171 0 .31-.138.31-.308 0-.172-.139-.311-.31-.311" fill="#eef3ed"/><path d="m51.249 98.983c-.181 0-.325-.146-.325-.323v-1.137h-4.109c-.238 0-.435.193-.435.436v.431c0 .18-.146.325-.324.325-.18 0-.325-.146-.325-.325v-.431c0-.599.486-1.084 1.084-1.084h4.761v1.785c-.002.177-.149.323-.327.323" fill="#190b3c"/><path d="m51.163 89.976c-.18 0-.325-.146-.325-.325v-14.818c0-.179.146-.323.325-.323s.322.146.322.323v14.817c.001.182-.144.326-.322.326" fill="#190b3c"/><path d="m52.618 88.326c-.18 0-.325-.146-.325-.326v-11.795c0-.179.146-.324.325-.324s.324.146.324.324v11.795c.001.179-.146.326-.324.326" fill="#190b3c"/><path d="m69.208 70.316c-.467 0-.849-.378-.849-.844v-3.182l7.35-7.35.037 3.083-2.837 4.935-3.108 3.108c-.161.162-.371.25-.593.25m-.198-3.757v2.913c0 .134.116.195.198.195.05 0 .095-.021.133-.06l3.049-3.049 2.705-4.705-.017-1.365z" fill="#190b3c"/><path d="m70.99 68.419v-4.513l3.917-3.703.131 2.464z" fill="#190b3c"/><path d="m78.221 61.556-2.92-3.729-1.439 1.127c-.846.663-.994 1.886-.332 2.732l.521.665c.662.846 1.885.995 2.729.332z" fill="#eef3ed"/><path d="m75.583 63.422c-.703 0-1.355-.317-1.789-.87l-.521-.665c-.374-.478-.539-1.072-.467-1.674.073-.603.377-1.14.854-1.514l1.694-1.328 3.32 4.24-1.696 1.327c-.4.317-.884.484-1.395.484m-.336-5.138-1.185.928c-.343.267-.558.651-.609 1.08-.055.43.064.854.332 1.195l.521.666c.311.395.774.621 1.277.621.366 0 .711-.119.998-.345l1.185-.927z" fill="#190b3c"/><path d="m63.156 85.216h2.272v5.064h-2.272z" fill="#190b3c"/><path d="m66.721 89.651h2.282v-13.418c0-.772-.626-1.397-1.399-1.397h-1.396c-.772 0-1.398.625-1.398 1.397v11.506c-.001 1.055.856 1.912 1.911 1.912" fill="#eef3ed"/><path d="m69.328 89.976h-2.605c-1.234 0-2.238-1.004-2.238-2.237v-11.505c0-.951.774-1.724 1.725-1.724h1.396c.951 0 1.725.771 1.725 1.724zm-3.12-14.816c-.592 0-1.074.481-1.074 1.074v11.505c0 .875.712 1.589 1.589 1.589h1.956v-13.094c0-.593-.481-1.074-1.074-1.074z" fill="#190b3c"/><path d="m96.062 48.144-3.422-4.37c-.794-1.014-2.258-1.191-3.27-.398l-13.903 10.886c-1.013.792-1.191 2.256-.397 3.269l3.422 4.371c.793 1.013 2.257 1.192 3.27.398l13.903-10.886c1.011-.793 1.189-2.258.397-3.27" fill="#eef3ed"/><path d="m80.327 63.119c-.822 0-1.585-.37-2.093-1.017l-3.422-4.371c-.437-.558-.63-1.252-.545-1.957.087-.704.44-1.331.999-1.768l13.904-10.886c.472-.369 1.036-.565 1.634-.565.822 0 1.584.371 2.091 1.018l3.423 4.371c.438.558.63 1.253.544 1.956-.086.704-.438 1.332-.998 1.77l-13.903 10.885c-.471.369-1.037.564-1.634.564m10.477-19.914c-.45 0-.878.147-1.234.426l-13.903 10.886c-.423.33-.69.805-.754 1.336-.065.531.081 1.056.411 1.477l3.423 4.371c.382.488.958.769 1.579.769.45 0 .878-.147 1.232-.427l13.904-10.886c.421-.331.688-.805.753-1.336.063-.532-.081-1.056-.411-1.478l-3.423-4.371c-.38-.487-.956-.767-1.577-.767" fill="#190b3c"/><path d="m90.345 55.274c-.821 0-1.583-.371-2.09-1.017l-3.423-4.371c-.902-1.152-.698-2.823.453-3.725l3.885-3.042c.472-.369 1.036-.565 1.634-.565.822 0 1.584.371 2.091 1.018l3.423 4.371c.438.558.631 1.253.544 1.956-.086.704-.438 1.332-.998 1.77l-3.884 3.041c-.473.369-1.036.564-1.635.564m.459-12.069c-.45 0-.878.147-1.234.426l-3.884 3.041c-.87.682-1.023 1.944-.342 2.814l3.421 4.371c.384.488.959.769 1.58.769.451 0 .879-.148 1.234-.426l3.885-3.042c.421-.331.688-.805.753-1.336.063-.532-.081-1.056-.411-1.478l-3.423-4.371c-.382-.488-.958-.768-1.579-.768" fill="#190b3c"/><path d="m85.662 59.515c-.015 0-.027 0-.04-.002l-2.677-.33c-.521-.065-.987-.329-1.313-.743l-2.479-3.167c-.325-.416-.47-.933-.404-1.456l.325-2.669c.021-.179.183-.305.359-.284.177.021.305.184.283.362l-.325 2.669c-.043.351.055.698.272.977l2.479 3.167c.218.278.531.455.882.498l2.678.33c.177.022.304.184.28.362-.02.165-.159.286-.32.286" fill="#190b3c"/><path d="m88.122 57.587c-.015 0-.025 0-.039-.002l-2.678-.33c-.521-.065-.986-.329-1.313-.743l-2.479-3.167c-.324-.416-.469-.933-.404-1.456l.324-2.669c.021-.179.185-.305.361-.284.178.021.306.184.282.362l-.324 2.669c-.044.351.055.698.272.977l2.479 3.167c.218.279.53.455.881.498l2.677.331c.178.022.305.184.282.362-.019.165-.159.285-.321.285" fill="#190b3c"/><path d="m84.195 52.446-2.516 1.969c-.352.276-.414.784-.139 1.137l.424.541c.276.352.784.414 1.137.138l2.517-1.969" fill="#eef3ed"/><path d="m82.603 56.728c-.336 0-.671-.149-.894-.435l-.424-.542c-.386-.492-.3-1.206.192-1.591l2.517-1.969c.141-.111.345-.086.456.055.108.141.086.346-.057.456l-2.515 1.969c-.211.165-.248.47-.084.681l.424.541c.165.211.471.248.681.083l2.517-1.969c.141-.11.346-.085.455.056.11.142.086.345-.056.455l-2.516 1.97c-.205.161-.452.24-.696.24" fill="#190b3c"/><path d="m85.617 54.262c-.503.393-1.228.305-1.619-.197-.394-.502-.306-1.226.196-1.62.501-.392 1.226-.304 1.618.198.394.502.307 1.227-.195 1.619" fill="#fdcd0d"/><path d="m84.906 54.832c-.456 0-.882-.207-1.163-.567-.243-.311-.352-.697-.304-1.089.047-.392.245-.742.557-.985.263-.206.577-.314.909-.314.457 0 .883.207 1.164.567.502.641.39 1.572-.252 2.074-.263.206-.577.314-.911.314m-.001-2.306c-.187 0-.361.061-.51.176-.175.136-.285.332-.312.552s.033.437.17.611c.158.201.396.318.651.318.188 0 .363-.061.512-.176.358-.282.423-.804.142-1.163-.158-.202-.397-.318-.653-.318" fill="#190b3c"/><path d="m91.83 50.773c-.974.762-2.378.59-3.141-.382-.762-.972-.592-2.377.382-3.139.973-.762 2.379-.591 3.14.382.761.972.591 2.378-.381 3.139" fill="#190b3c"/><path d="m90.452 51.574c-.794 0-1.528-.358-2.019-.982-.422-.539-.607-1.208-.525-1.888.084-.68.426-1.286.964-1.708.455-.356 1-.545 1.578-.545.793 0 1.527.358 2.018.983.87 1.111.675 2.724-.438 3.595-.455.357-1.002.545-1.578.545m-.002-4.473c-.432 0-.839.141-1.179.407-.401.314-.657.767-.72 1.274-.061.507.079 1.008.394 1.41.365.466.914.733 1.507.733.431 0 .838-.14 1.178-.407.829-.65.976-1.854.326-2.684-.365-.466-.914-.733-1.506-.733" fill="#fdcd0d"/><path d="m95.468 45.431-4.531 3.547c-.352.276-.413.784-.138 1.136l.425.541c.274.352.783.414 1.136.138l4.53-3.547" fill="#eef3ed"/><path d="m91.864 51.291c-.048 0-.094-.002-.14-.008-.302-.037-.57-.188-.757-.427l-.423-.541c-.188-.238-.271-.536-.234-.836s.189-.569.427-.755l4.532-3.548c.14-.111.345-.085.455.056.111.141.086.345-.056.456l-4.53 3.547c-.103.08-.167.195-.182.323-.018.128.019.255.099.357l.424.541c.079.102.194.167.323.183.128.016.255-.021.357-.1l4.529-3.547c.142-.11.346-.085.456.056.11.142.086.345-.057.456l-4.53 3.548c-.199.156-.442.239-.693.239" fill="#190b3c"/><path d="m96.89 47.247c-.501.393-1.227.305-1.619-.197-.392-.501-.305-1.226.197-1.618.501-.393 1.226-.305 1.619.197.392.5.305 1.225-.197 1.618" fill="#fdcd0d"/><path d="m96.18 47.816c-.458 0-.883-.207-1.164-.567-.244-.311-.351-.697-.304-1.089s.245-.742.557-.985c.264-.206.576-.314.909-.314.458 0 .883.207 1.164.567.503.641.39 1.572-.253 2.074-.262.206-.576.314-.909.314m-.002-2.306c-.187 0-.363.062-.51.176-.175.137-.285.333-.313.553-.026.22.034.438.171.611.158.202.396.317.652.317.188 0 .363-.061.51-.176.359-.282.423-.804.143-1.163-.157-.202-.396-.318-.653-.318" fill="#190b3c"/><path d="m90.44 45.406 1.2 1.533-2.241 1.754-.718-.917c-.267-.34-.207-.832.133-1.098z" fill="#eef3ed"/><path d="m89.344 49.15-.92-1.174c-.182-.232-.263-.522-.228-.815.036-.294.185-.556.416-.738l1.882-1.472 1.602 2.044zm1.039-3.288-1.369 1.073c-.096.075-.158.184-.172.305-.015.121.019.241.094.337l.52.662 1.729-1.354z" fill="#190b3c"/><path d="m93.371 42.752-2.517 1.969c-.351.275-.413.784-.138 1.136l.424.542c.275.352.783.414 1.137.137l2.516-1.969" fill="#eef3ed"/><path d="m91.78 47.033c-.337 0-.671-.149-.895-.435l-.423-.541c-.188-.238-.271-.535-.233-.836.037-.301.188-.569.427-.756l2.516-1.97c.142-.11.346-.085.457.056.108.141.084.345-.058.456l-2.516 1.969c-.102.08-.166.195-.182.323-.017.129.019.256.1.358l.424.541c.165.211.471.248.682.083l2.516-1.969c.141-.11.345-.086.455.055.111.142.086.345-.056.456l-2.517 1.97c-.205.162-.453.24-.697.24" fill="#190b3c"/><path d="m94.792 44.568c-.502.393-1.228.305-1.618-.197-.395-.501-.306-1.226.196-1.618s1.226-.305 1.618.197c.394.501.305 1.225-.196 1.618" fill="#fdcd0d"/><path d="m94.083 45.138c-.458 0-.883-.207-1.165-.567-.242-.311-.352-.697-.304-1.089.049-.392.246-.742.557-.985.263-.206.577-.314.909-.314.459 0 .883.207 1.165.567.503.641.389 1.571-.252 2.074-.263.206-.578.314-.91.314m-.003-2.306c-.186 0-.361.062-.51.176-.174.137-.284.333-.313.553-.025.22.035.437.171.611.158.202.396.317.653.317.187 0 .361-.061.511-.176.359-.282.423-.804.141-1.163-.157-.202-.396-.318-.653-.318" fill="#190b3c"/><path d="m65.133 82.337h-3.487v-3.787h3.487zm-2.839-.649h2.189v-2.487h-2.189z" fill="#190b3c"/><path d="m61.971 78.875h1.419v3.139h-1.419z" fill="#190b3c"/><path d="m63.714 82.337h-2.068v-3.787h2.068zm-1.42-.649h.771v-2.487h-.771z" fill="#190b3c"/><path d="m65.133 85.542h-3.487v-2.664h3.487zm-2.839-.65h2.189v-1.365h-2.189z" fill="#190b3c"/><path d="m61.971 83.203h1.419v2.014h-1.419z" fill="#190b3c"/><path d="m66.906 78.478c-.716 0-1.299-.583-1.299-1.299 0-.717.583-1.299 1.299-1.299.718 0 1.3.582 1.3 1.299-.001.716-.583 1.299-1.3 1.299m0-1.948c-.357 0-.648.291-.648.649 0 .357.291.648.648.648.358 0 .65-.291.65-.648 0-.358-.292-.649-.65-.649" fill="#190b3c"/><path d="m64.809 86.087h4.194v.65h-4.194z" fill="#190b3c"/><path d="m64.809 87.274h4.194v.649h-4.194z" fill="#190b3c"/><path d="m66.582 78.153h.648v8.261h-.648z" fill="#190b3c"/><path d="m73.963 59.543h4.75v.975h-4.75z" fill="#190b3c" transform="matrix(-.6166 -.7873 .7873 -.6166 76.1423 157.1442)"/><path d="m75.207 61.687c-.253.198-.617.153-.816-.1-.197-.252-.152-.618.101-.816s.617-.154.815.1c.197.253.152.618-.1.816" fill="#190b3c"/><path d="m75.117 61.019.962-.753" fill="none"/><path d="m75.117 61.344c-.097 0-.191-.043-.256-.125-.11-.142-.086-.345.057-.456l.961-.752c.141-.111.345-.086.456.055.109.141.086.345-.056.456l-.963.753c-.059.046-.129.069-.199.069" fill="#190b3c"/><path d="m76.942 59.551 3.703-2.899" fill="none"/><path d="m76.942 59.875c-.097 0-.19-.042-.256-.124-.109-.142-.086-.346.058-.457l3.701-2.899c.142-.11.346-.086.455.056.11.141.087.345-.056.456l-3.702 2.899c-.059.047-.13.069-.2.069" fill="#190b3c"/><path d="m69.01 69.894h-2.19v-2.959h2.19zm-1.542-.65h.893v-1.658h-.893z" fill="#190b3c"/><path d="m67.144 67.26h.771v2.309h-.771z" fill="#190b3c"/><path d="m63.966 77.755h-1.154c-.179 0-.324-.145-.324-.324s.146-.324.324-.324h1.154c.181 0 .324.146.324.324.001.181-.143.324-.324.324" fill="#190b3c"/><path d="m63.966 76.625h-1.154c-.179 0-.324-.146-.324-.323 0-.181.146-.325.324-.325h1.154c.181 0 .324.146.324.325.001.177-.143.323-.324.323" fill="#190b3c"/><path d="m63.966 75.494h-1.154c-.179 0-.324-.146-.324-.324 0-.181.146-.325.324-.325h1.154c.181 0 .324.146.324.325.001.177-.143.324-.324.324" fill="#190b3c"/><path d="m64.809 74.361h-2.839c-.179 0-.324-.145-.324-.324s.146-.324.324-.324h2.839c.179 0 .324.146.324.324 0 .179-.145.324-.324.324" fill="#190b3c"/><path d="m68.207 98.712h-7.737c-.559 0-1.013-.453-1.013-1.014v-1.004c0-.56.454-1.014 1.013-1.014h7.736c.559 0 1.014.454 1.014 1.014v1.006c0 .559-.455 1.012-1.013 1.012m-7.737-2.38c-.2 0-.363.164-.363.364v1.005c0 .199.163.362.363.362h7.736c.201 0 .362-.163.362-.362v-1.005c0-.2-.161-.364-.362-.364z" fill="#190b3c"/><path d="m63.282 91.778v-2.993l1.965 1.965v1.028" fill="#eef3ed"/><path d="m65.573 91.778h-.648v-.893l-1.316-1.317v2.21h-.649v-2.993c0-.132.08-.25.2-.3.121-.052.262-.022.354.07l1.967 1.966c.063.061.097.143.097.229v1.028z" fill="#190b3c"/><path d="m66.943 94.637h-5.081c-.179 0-.323-.146-.323-.325 0-.18.146-.325.323-.325h5.081c.181 0 .324.146.324.325s-.144.325-.324.325" fill="#190b3c"/><path d="m65.763 93.51h-2.742c-.427 0-.772-.347-.772-.774v-.535c0-.427.347-.772.772-.772h2.742c.427 0 .774.347.774.772v.535c.001.428-.347.774-.774.774m-2.742-1.432c-.067 0-.124.055-.124.123v.535c0 .069.057.125.124.125h2.742c.069 0 .125-.056.125-.125v-.535c0-.068-.056-.123-.125-.123z" fill="#190b3c"/><path d="m65.752 96.332h-2.796v-3.471h2.796zm-2.145-.65h1.497v-2.172h-1.497z" fill="#190b3c"/><path d="m65.428 95.178h-2.147c-.179 0-.323-.146-.323-.325 0-.18.146-.324.323-.324h2.147c.179 0 .324.146.324.324 0 .18-.145.325-.324.325" fill="#190b3c"/><path d="m65.428 98.387h2.272v.899h-2.272z" fill="#190b3c"/><path d="m67.7 99.612h-2.271c-.18 0-.324-.146-.324-.325v-.898c0-.18.146-.324.324-.324h2.271c.181 0 .324.146.324.324v.898c.001.179-.144.325-.324.325m-1.948-.65h1.623v-.252h-1.623z" fill="#190b3c"/><path d="m60.515 98.387h2.272v.899h-2.272z" fill="#190b3c"/><path d="m62.788 99.612h-2.272c-.18 0-.325-.146-.325-.325v-.898c0-.18.146-.324.325-.324h2.272c.179 0 .324.146.324.324v.898c.001.179-.146.325-.324.325m-1.949-.65h1.623v-.252h-1.623z" fill="#190b3c"/><path d="m64.042 87.649c-.17 0-.309-.138-.309-.308 0-.172.139-.311.309-.311" fill="#eef3ed"/><path d="m61.56 98.983c-.181 0-.324-.146-.324-.323v-1.785h4.76c.598 0 1.084.485 1.084 1.084v.431c0 .18-.146.325-.326.325-.178 0-.323-.146-.323-.325v-.431c0-.24-.195-.436-.435-.436h-4.11v1.137c-.002.177-.148.323-.326.323" fill="#190b3c"/><path d="m61.799 89.976c-.179 0-.323-.146-.323-.325v-14.818c0-.179.146-.323.323-.323s.325.146.325.323v14.817c.001.182-.146.326-.325.326" fill="#190b3c"/><path d="m60.344 88.326c-.179 0-.325-.146-.325-.326v-11.795c0-.179.146-.324.325-.324.18 0 .324.146.324.324v11.795c0 .179-.144.326-.324.326" fill="#190b3c"/><path d="m60.344 88.326c-.179 0-.325-.146-.325-.326v-11.795c0-.179.146-.324.325-.324.18 0 .324.146.324.324v11.795c0 .179-.144.326-.324.326" fill="#190b3c"/><path d="m93.136 47.257 1.369 1.751" fill="none"/><path d="m94.507 49.332c-.098 0-.192-.042-.257-.125l-1.37-1.75c-.111-.142-.086-.345.056-.456s.345-.086.456.056l1.37 1.75c.11.142.086.345-.056.457-.06.045-.129.068-.199.068" fill="#190b3c"/><path d="m92.039 48.116 1.371 1.751" fill="none"/><path d="m93.41 50.191c-.098 0-.192-.043-.257-.125l-1.369-1.75c-.11-.141-.088-.345.055-.456.142-.11.346-.085.456.056l1.371 1.75c.108.141.085.345-.059.456-.057.046-.127.069-.197.069" fill="#190b3c"/><path d="m50.407 72.669c0-.416-.339-.754-.755-.754s-.754.338-.754.754.338.754.754.754.755-.338.755-.754" fill="#190b3c"/><path d="m63.65 72.669c0-.416-.337-.754-.754-.754-.416 0-.753.338-.753.754s.337.754.753.754c.417 0 .754-.338.754-.754" fill="#190b3c"/><path d="m45.664 67.598h3.234v1.845h-3.234z" fill="#190b3c"/><path d="m63.759 67.598h3.235v1.845h-3.235z" fill="#190b3c"/><path d="m60.302 75.669c-.179 0-.324-.146-.324-.324 0-1.104-1.61-2.035-3.519-2.035-1.906 0-3.518.934-3.518 2.035 0 .18-.146.324-.324.324-.181 0-.325-.146-.325-.324 0-1.506 1.831-2.686 4.167-2.686 2.338 0 4.167 1.18 4.167 2.686 0 .18-.144.324-.324.324" fill="#190b3c"/><path d="m57.525 74.166c0-.688-.557-1.244-1.244-1.244s-1.242.558-1.242 1.244c0 .688.556 1.246 1.242 1.246.687 0 1.244-.559 1.244-1.246" fill="#eef3ed"/><path d="m62.812 72.158c0-.259-.209-.468-.467-.468-.259 0-.469.209-.469.468 0 .258.21.467.469.467.258 0 .467-.209.467-.467" fill="#eef3ed"/><path d="m50.588 72.158c0-.259-.21-.468-.468-.468-.26 0-.469.209-.469.468 0 .258.209.467.469.467.258 0 .468-.209.468-.467" fill="#eef3ed"/><path d="m77.406 100.121h-42.004c-.179 0-.323-.146-.323-.326 0-.178.146-.323.323-.323h42.003c.181 0 .324.146.324.323.001.179-.144.326-.323.326" fill="#190b3c"/><path d="m86.041 47.819c-.154.121-.183.345-.061.5.121.154.346.182.499.06.156-.121.183-.345.063-.499-.123-.154-.345-.182-.501-.061" fill="#62bf8b"/><path d="m86.878 47.164c-.154.121-.183.345-.061.5.121.155.346.182.499.061.155-.121.184-.345.063-.5s-.344-.183-.501-.061" fill="#62bf8b"/><path d="m61.653 63.736h-11.292v-3.042h11.292zm-10.642-.65h9.993v-1.744h-9.993z" fill="#190b3c"/><path d="m53.107 53.01c-.058-.273-.323-.449-.598-.392-.272.057-.448.324-.392.597s.322.449.596.393c.274-.058.45-.325.394-.598" fill="#eef3ed"/><path d="m58.418 51.912c-.057-.273-.323-.449-.598-.393-.271.057-.447.324-.392.597.057.273.324.449.597.393.275-.057.451-.325.393-.597" fill="#eef3ed"/><path d="m49.155 51.366 10.218-2.112.934.151-.169 2.467-9.789 2.023z" fill="#62bf8b"/><path d="m59.35 55.04-7.021 1.452c-.766.158-1.514-.333-1.669-1.098l-.311-1.498 9.789-2.023.31 1.498c.157.763-.334 1.511-1.098 1.669" fill="#eef3ed"/><path d="m52.041 56.845c-.819 0-1.534-.583-1.7-1.386l-.376-1.817 10.425-2.154.376 1.816c.194.938-.411 1.86-1.35 2.053l-7.021 1.452c-.118.024-.236.036-.354.036m-1.309-2.698.244 1.18c.104.503.552.868 1.064.868.072 0 .147-.007.221-.022l7.022-1.451c.588-.122.967-.698.846-1.287l-.244-1.18z" fill="#190b3c"/><path d="m52.898 50.592c-1.676-.357-3.065-1.671-3.437-3.457-.218-1.054-.044-2.098.423-2.981.6-1.135 5.623-2.225 6.609-1.488.841.629 1.465 1.556 1.692 2.666.37 1.786-.386 3.543-1.783 4.535" fill="#47b878"/><path d="m52.623 50.974c-.026 0-.055-.003-.08-.011-1.865-.474-3.267-1.939-3.655-3.823-.193-.935-.115-1.899.224-2.787.064-.167.252-.251.421-.188.168.064.251.252.187.419-.295.772-.362 1.61-.193 2.423.338 1.639 1.557 2.913 3.18 3.326.174.043.277.22.233.395-.04.148-.172.246-.317.246" fill="#190b3c"/><path d="m56.652 50.117c-.097 0-.189-.042-.254-.124-.111-.141-.088-.345.054-.457 1.297-1.024 1.895-2.664 1.562-4.281-.188-.91-.651-1.72-1.34-2.339-.133-.12-.144-.326-.022-.458.12-.133.324-.144.458-.023.791.713 1.323 1.644 1.539 2.689.385 1.86-.303 3.747-1.794 4.923-.062.047-.133.07-.203.07" fill="#190b3c"/><path d="m50.167 54.264-3.034-6.242-.009-.04c-.377-1.82-.021-3.678 1-5.231s2.587-2.616 4.406-2.993c.467-.096.942-.145 1.415-.145 3.28 0 6.145 2.335 6.809 5.552l.009.041-.313 6.933zm-2.416-6.452 2.777 5.714 9.296-1.921.284-6.348c-.617-2.896-3.204-4.995-6.164-4.995-.429 0-.859.044-1.283.132-1.65.342-3.069 1.305-3.995 2.713-.918 1.398-1.243 3.067-.915 4.705" fill="#190b3c"/><path d="m47.422 48.147c-.151 0-.286-.105-.318-.259l-1.276-6.184c-.037-.175.075-.348.252-.384.175-.036.348.077.384.252l1.276 6.184c.036.176-.075.348-.252.384-.023.006-.044.007-.066.007" fill="#190b3c"/><path d="m60.417 45.462c-.15 0-.285-.106-.317-.259l-1.64-7.93c-.036-.175.077-.347.253-.383s.348.076.384.251l1.639 7.93c.036.176-.076.348-.252.384-.024.005-.046.007-.067.007" fill="#190b3c"/><path d="m47.626 50.98c-.258 0-.509-.075-.73-.22-.298-.196-.501-.496-.571-.842l-.52-2.506c-.147-.719.315-1.425 1.035-1.575l.284-.059c.175-.036.348.077.384.252s-.077.347-.253.383l-.284.059c-.368.076-.605.438-.529.807l.518 2.505c.037.178.142.332.295.432.151.101.335.137.512.1l.672-.139c.176-.036.348.076.383.252.037.176-.075.348-.251.384l-.672.139c-.092.019-.183.028-.273.028" fill="#190b3c"/><path d="m60.508 48.339c-.151 0-.286-.105-.318-.259-.036-.175.077-.347.253-.383l.669-.139c.18-.037.331-.142.434-.293.101-.154.136-.335.1-.513l-.519-2.505c-.036-.178-.142-.331-.295-.432-.151-.101-.334-.136-.513-.1l-.283.059c-.178.037-.349-.076-.385-.251s.076-.347.252-.384l.284-.059c.349-.072.704-.004 1.001.192.298.196.502.496.573.843l.518 2.504c.072.349.005.703-.191 1.001-.195.297-.494.501-.842.574l-.671.138c-.024.005-.045.007-.067.007" fill="#190b3c"/><path d="m47.287 47.14c-.061 0-.12-.016-.176-.051-.149-.097-.194-.297-.099-.449 1.423-2.221 3.613-3.735 6.166-4.263 2.404-.496 4.892-.055 7.003 1.246.153.094.201.294.106.447s-.294.201-.446.106c-1.971-1.213-4.29-1.627-6.531-1.163-2.381.492-4.423 1.905-5.75 3.977-.061.097-.166.15-.273.15" fill="#190b3c"/><path d="m49.155 51.69c-.15 0-.285-.105-.317-.259-.036-.176.077-.347.253-.383l11.084-2.292c.176-.037.347.077.383.252.037.176-.076.347-.252.384l-11.083 2.29c-.024.006-.047.008-.068.008" fill="#190b3c"/><path d="m55.848 44.307c.13.628-.273 1.244-.903 1.374-.628.13-1.242-.274-1.373-.903-.13-.628.274-1.243.902-1.373.63-.131 1.244.274 1.374.902" fill="#fff"/><path d="m57.013 45.841c.053.253-.111.502-.365.556-.254.052-.503-.112-.556-.366-.052-.254.111-.502.365-.555s.503.11.556.365" fill="#fff"/><path d="m52.152 52.891c-.356 0-.604-.244-.772-.414-.187-.185-.261-.239-.354-.22-.175.036-.348-.077-.384-.252s.077-.347.252-.384c.451-.093.748.201.944.396.187.185.26.239.354.22.095-.02.142-.099.238-.342.104-.256.258-.644.708-.737.452-.093.748.201.943.396.187.185.261.239.354.22.094-.02.14-.099.237-.343.103-.256.257-.644.708-.737s.747.202.942.396c.187.186.262.24.354.221.095-.02.14-.099.238-.343.102-.256.256-.645.708-.737s.747.201.941.396c.188.185.261.24.354.221.176-.036.348.077.384.252.036.176-.077.347-.253.384-.452.093-.747-.201-.942-.396-.187-.186-.26-.24-.354-.221-.095.02-.142.099-.237.343-.104.256-.258.644-.709.738-.451.092-.747-.202-.942-.396-.188-.186-.261-.24-.354-.221-.094.02-.141.099-.238.342-.103.257-.257.645-.708.737-.451.094-.748-.201-.942-.396-.187-.185-.261-.24-.354-.22-.095.019-.14.099-.238.342-.104.257-.258.645-.709.738-.06.011-.115.017-.169.017" fill="#190b3c"/><path d="m51.257 59.929h9.15" fill="none"/><path d="m60.407 60.254h-9.148c-.181 0-.326-.146-.326-.325s.146-.325.326-.325h9.148c.18 0 .323.146.323.325.001.179-.144.325-.323.325" fill="#62bf8b"/><path d="m52.111 58.477h7.792" fill="none"/><path d="m52.376 58.832c-.151 0-.285-.105-.317-.257-.038-.176.074-.348.25-.385l7.624-1.608c.176-.037.348.075.385.25.037.176-.073.348-.251.385l-7.624 1.608c-.023.006-.044.007-.067.007" fill="#62bf8b"/><path d="m52.615 63.412h7.146v1.648h-7.146z" fill="#190b3c"/><path d="m43.409 60.242c-.083 0-.166-.032-.229-.095l-2.149-2.149h-.826c-.18 0-.325-.146-.325-.325v-.527h-.7c-.179 0-.324-.146-.324-.325v-.937l-.984-.986c-.127-.126-.127-.333 0-.458.127-.127.333-.127.459 0l1.081 1.08c.061.062.095.144.095.229v.747h.699c.179 0 .324.145.324.324v.528h.638c.086 0 .169.035.229.095l2.244 2.245c.127.127.127.333 0 .459-.066.063-.149.095-.232.095" fill="#62bf8b"/><path d="m38.626 55.521c-.083 0-.166-.032-.229-.095l-.526-.528c-.127-.126-.127-.333 0-.458.126-.127.332-.127.458 0l.526.527c.127.127.127.333 0 .459-.063.063-.146.095-.229.095" fill="#190b3c"/><path d="m43.409 60.242c-.083 0-.166-.032-.229-.095l-1.505-1.505c-.126-.126-.126-.332 0-.458.127-.127.333-.127.459 0l1.504 1.504c.127.127.127.333 0 .459-.063.063-.146.095-.229.095" fill="#190b3c"/><path d="m47.561 60.655c-.083 0-.166-.032-.229-.095-.127-.127-.127-.333 0-.459l.842-.841c.127-.127.332-.127.459 0 .127.126.127.332 0 .458l-.842.842c-.063.064-.147.095-.23.095" fill="#62bf8b"/><path d="m48.496 67.49-5.315-5.271c-.339-.34-.525-.788-.525-1.266s.187-.928.523-1.266l1.676-1.676c.698-.697 1.833-.697 2.53 0l3.41 3.411-.459.459-3.41-3.411c-.444-.444-1.167-.444-1.612 0l-1.676 1.676c-.215.215-.333.502-.333.807 0 .304.118.59.333.805l5.314 5.27z" fill="#190b3c"/><path d="m47.421 61.837c-.319 0-.62-.124-.847-.35l-.17-.17c-.227-.226-.351-.526-.351-.846s.124-.62.351-.846l1.297-1.296 1.86 1.862-1.296 1.296c-.223.226-.524.35-.844.35m.281-2.59-.838.837c-.104.103-.159.241-.159.387s.057.284.159.387l.171.17c.103.103.239.16.387.16.146 0 .283-.057.387-.16l.837-.837z" fill="#190b3c"/><path d="m46.749 62.546c-.189-.19-.498-.19-.688 0-.189.189-.189.498 0 .688.19.19.499.19.688 0s.189-.498 0-.688" fill="#62bf8b"/><path d="m45.728 61.526c-.188-.19-.498-.19-.688 0s-.19.499 0 .688c.189.19.499.19.688 0 .19-.19.19-.498 0-.688" fill="#62bf8b"/><path d="m44.735 60.532c-.189-.19-.498-.19-.688 0-.19.189-.19.498 0 .689.19.189.499.189.688 0 .189-.191.189-.499 0-.689" fill="#62bf8b"/><path d="m44.354 59.297c-.083 0-.167-.032-.229-.095l-2.538-2.538c-.127-.127-.127-.333 0-.459.126-.127.333-.127.459 0l2.538 2.538c.127.127.127.333 0 .459-.063.063-.147.095-.23.095" fill="#190b3c"/><path d="m64.058 66.437-.459-.458 3.597-3.605c.302-.301.467-.699.467-1.123s-.165-.823-.466-1.122c-.3-.3-.696-.465-1.121-.465-.424 0-.823.165-1.122.465l-3.347 3.345-.459-.46 3.347-3.345c.422-.423.982-.654 1.581-.654.598 0 1.157.231 1.58.654.424.422.655.983.655 1.582 0 .597-.231 1.159-.655 1.581z" fill="#190b3c"/><path d="m67.485 60.185c-.083 0-.167-.032-.229-.095-.127-.127-.127-.332 0-.459l2.523-2.525c.128-.127.332-.126.459 0 .128.127.128.333 0 .459l-2.524 2.525c-.063.063-.147.095-.229.095" fill="#190b3c"/><path d="m69.837 60.244c-.083 0-.166-.032-.229-.095l-2.182-2.182c-.126-.127-.126-.332 0-.459.128-.127.332-.127.459 0l2.181 2.181c.127.127.127.333 0 .46-.063.063-.147.095-.229.095" fill="#190b3c"/><path d="m68.686 59.092c-.083 0-.167-.032-.229-.095l-1.03-1.03c-.127-.127-.127-.332 0-.459s.332-.127.46 0l1.028 1.029c.127.127.127.333 0 .459-.064.064-.146.096-.229.096" fill="#62bf8b"/><path d="m70.714 59.367c-.083 0-.167-.032-.23-.095l-2.181-2.182c-.126-.126-.126-.332 0-.458.127-.127.333-.127.459 0l2.182 2.18c.127.128.127.333 0 .46-.064.062-.148.095-.23.095" fill="#190b3c"/><path d="m69.443 58.096c-.082 0-.166-.032-.229-.095l-1.048-1.048c-.127-.127-.127-.332 0-.459s.332-.127.459 0l1.048 1.047c.127.127.127.333 0 .46-.064.063-.147.095-.23.095" fill="#62bf8b"/><path d="m71.476 57.765c-.543 0-1.054-.211-1.438-.595-.385-.384-.597-.895-.597-1.438s.212-1.053.597-1.438c.127-.127.332-.127.459 0l2.416 2.417c.062.062.096.144.096.229 0 .087-.034.169-.096.23-.383.383-.893.595-1.437.595m-1.181-2.756c-.133.215-.203.463-.203.722 0 .37.145.718.405.979.262.262.608.406.979.406.259 0 .507-.072.722-.204z" fill="#190b3c"/><path d="m71.434 56.014c-.082 0-.166-.032-.229-.095-.127-.127-.127-.333 0-.459l2.051-2.05c.127-.127.332-.127.459 0 .127.126.127.333 0 .459l-2.051 2.051c-.063.062-.147.094-.23.094" fill="#190b3c"/><path d="m74 53.639c0-.285-.23-.514-.516-.514-.282 0-.514.229-.514.514 0 .284.23.514.514.514.285 0 .516-.231.516-.514" fill="#62bf8b"/><path d="m64.941 62.125c-.082 0-.166-.032-.229-.095-.127-.127-.127-.333 0-.459l1.292-1.291c.127-.127.333-.127.459 0 .127.127.127.332 0 .459l-1.291 1.292c-.064.061-.147.094-.231.094" fill="#62bf8b"/><path d="m65.458 64.768h-.65v-1.497c0-.085.035-.168.097-.229l1.432-1.431c.127-.127.333-.127.46 0l.609.61-.46.46-.381-.381-1.105 1.106z" fill="#190b3c"/><path d="m58.736 51.376c.117.093.237.15.391.129.125-.017.225-.071.321-.149.133-.107.244-.272.286-.438.044-.173-.056-.379-.237-.42-.179-.04-.373.054-.421.238-.004.013-.024.08-.004.019.022-.06-.004.002-.012.016-.01.018-.032.039-.037.058.008-.034.043-.051.001-.008-.01.01-.038.029-.045.041.045-.033.052-.041.023-.021-.005.003-.011.006-.017.009.027-.039.071-.023.02-.012.088-.018.146.001.214.055-.14-.111-.349-.147-.483 0-.113.124-.15.365 0 .483" fill="#190b3c"/><path d="m87.992 30.163c-.499.009-1.079.301-1.333.748-.242.421-.036.817.434.879.33.043.651-.085.961-.171.057-.016.265-.104.324-.081-.181-.068-.426.167-.578.243-.432.216-1.187.517-.918 1.146.256.601.947.298 1.384.129.435-.169.331-.166.033.111-.205.192-.441.445-.455.745-.009.204.069.365.269.443.209.081.619-.174.762-.082.113.075-.121.419-.112.643.016.368.261.626.562.801.382.221.727-.369.346-.59-.436-.252.288-.998-.27-1.382-.192-.134-.413-.163-.642-.145-.077.007-.323.017-.374.075-.149.024-.075.072.224.143.039-.046.082-.089.128-.127.337-.17.761-.655.563-1.05-.239-.482-.813-.402-1.214-.245-.127.05-.258.1-.382.153-.084.032-.168.053-.258.062.021.036.042.071.063.107.229-.063.612-.319.82-.443.34-.202.716-.665.555-1.094-.164-.442-.662-.322-1.012-.221-.109.032-.219.077-.329.104-.07.02-.142.032-.215.036-.138-.023-.164.029-.081.156.247-.188.396-.403.745-.41.439-.008.44-.691 0-.683" fill="#80469a"/><path d="m76.419 87.984c-.5.01-1.078.303-1.335.748-.24.422-.035.818.436.88.33.044.651-.085.962-.171.056-.016.264-.104.322-.081-.18-.067-.426.166-.576.242-.433.216-1.187.517-.919 1.146.255.603.946.299 1.384.129.434-.168.331-.166.033.11-.205.192-.44.445-.455.746-.01.203.068.365.27.443.209.079.619-.175.761-.082.115.075-.121.42-.111.643.015.369.26.627.562.802.382.222.726-.369.345-.59-.435-.252.287-.996-.269-1.382-.193-.134-.414-.163-.643-.146-.076.007-.323.018-.375.074-.147.024-.074.072.225.145.038-.047.082-.09.13-.128.335-.171.759-.654.563-1.05-.239-.482-.813-.402-1.214-.246-.127.05-.258.101-.383.152-.082.032-.169.053-.256.063.021.035.042.072.063.107.231-.063.612-.319.82-.443.34-.201.716-.664.555-1.094-.164-.442-.662-.322-1.011-.222-.11.031-.219.077-.331.103-.069.021-.141.033-.214.037-.137-.022-.164.028-.08.156.245-.188.395-.404.744-.41.436-.005.437-.688-.003-.681" fill="#ec146d"/><path d="m28.285 46.072c-.416-.318-1.188-.448-1.658-.167-.54.321-.237.856.179 1.116.152.096.316.162.483.229.09.033.179.067.269.101.158.13.207.106.144-.07-.122.088-.254.11-.394.067-.099-.02-.197-.041-.295-.065-.175-.039-.351-.089-.531-.102-.49-.035-1.086.298-.815.875.251.54 1.056.474 1.438.818.093-.131.074-.169-.058-.115-.076.006-.151.008-.228.01-.14.008-.278 0-.418.025-.237.042-.581.15-.7.384-.111.22-.026.417.149.563.106.089.246.12.364.189.093.039.174.095.244.168.113-.032.104-.021-.024.031-.199.23-.507.214-.65.554-.126.296-.063.599.062.882.178.401.767.054.59-.345-.198-.449.393-.444.584-.653.154-.167.186-.372.127-.59-.057-.214-.2-.383-.373-.512-.093-.07-.258-.182-.376-.2-.048-.02-.093-.043-.139-.068-.048.316.03.406.233.27.328.063.979.003 1.19-.294.259-.362-.02-.854-.363-1.042-.21-.116-.473-.167-.702-.23-.635-.177.16.032.363.074.474.099 1.11.114 1.375-.402.24-.467-.26-.736-.617-.881-.17-.07-.346-.122-.506-.215-.086-.043-.164-.096-.234-.162-.082.168-.06.219.066.153.035.018.367-.014.412-.007.178.029.32.091.462.2.352.268.692-.326.347-.589" fill="#fdcd0d"/><path d="m89.016 67.482c-.47-.188-1.224-.12-1.59.271-.409.437-.009.854.439.996.129.041.925.234 1.01.164-.044-.179-.112-.213-.201-.104-.065.068-.146.097-.243.087-.185.038-.392.011-.579.026-.464.043-1.092.289-.867.891.2.536.949.438 1.396.455.251.012.23-.027-.013.047-.107.032-.219.059-.321.102-.231.095-.512.252-.615.494-.305.725.693.448.896.752.056-.041.056-.041.001.002-.044.035-.087.069-.131.104-.114.11-.218.212-.281.36-.147.336-.05.684.161.966.259.349.853.008.59-.345-.355-.479.637-.771.296-1.379-.13-.229-.354-.358-.598-.431-.084-.024-.259-.085-.338-.063-.131-.053-.137-.006-.018.14.027.19.097.209.213.06.34-.043.943-.242 1.046-.619.116-.43-.314-.78-.688-.853-.222-.042-.485-.05-.708-.028-.147.014-.401.016-.107.043.159.016.36-.021.521-.031.463-.028 1.043-.174 1.175-.707.117-.473-.347-.631-.715-.686-.125-.019-.252-.02-.376-.039-.079-.007-.154-.021-.229-.043-.104-.056-.185-.017-.232.121.064.01.259-.126.354-.146.202-.041.379-.025.569.05.409.164.587-.497.183-.657" fill="#62bf8b"/><path d="m74.46 45.936c0 .552-.447 1-1 1s-1.001-.448-1.001-1c0-.553.448-1.001 1.001-1.001s1 .448 1 1.001" fill="#fdcd0d"/><path d="m77.942 33.964c0 .552-.447 1-1 1s-1.001-.448-1.001-1c0-.553.448-1.001 1.001-1.001s1 .448 1 1.001" fill="#62bf8b"/><path d="m94.41 90.785c0 .553-.448 1.002-1 1.002-.554 0-1.001-.449-1.001-1.002s.447-1 1.001-1c.551 0 1 .447 1 1" fill="#4a52a2"/><path d="m82.194 81.162c0 .555-.447 1.002-1 1.002-.554 0-1.001-.447-1.001-1.002 0-.553.447-1 1.001-1 .552 0 1 .447 1 1" fill="#fdcd0d"/><path d="m32.369 91.427c0 .553-.448 1-1 1-.554 0-1.001-.447-1.001-1s.447-1 1.001-1c.552 0 1 .448 1 1" fill="#190b3c"/><path d="m40.39 80.546c0 .555-.448 1.002-1 1.002-.553 0-1.001-.447-1.001-1.002 0-.553.448-1 1.001-1 .552 0 1 .45 1 1" fill="#80469a"/><path d="m20.815 95.178c0 .553-.447 1-1 1s-1.001-.447-1.001-1c0-.554.448-1.001 1.001-1.001s1 .448 1 1.001" fill="#47b878"/><path d="m22.88 59.875c0 .553-.448 1.001-1 1.001-.554 0-1.001-.448-1.001-1.001s.448-1 1.001-1 1 .448 1 1" fill="#4a52a2"/><path d="m37.128 30.503c0 .552-.448 1-1 1-.553 0-1.001-.448-1.001-1 0-.553.448-1.001 1.001-1.001.552 0 1 .448 1 1.001" fill="#190b3c"/><path d="m64.889 29.502c0 .553-.448 1.001-1 1.001-.554 0-1.002-.448-1.002-1.001s.448-1 1.002-1c.552-.001 1 .447 1 1" fill="#4a52a2"/><path d="m37.223 46.452c0 .553-.448 1-1 1-.553 0-1.001-.447-1.001-1s.448-1 1.001-1c.552-.001 1 .447 1 1" fill="#47b878"/><path d="m25.083 33.003c0 .552-.448 1-1.001 1-.554 0-1-.448-1-1 0-.553.447-1 1-1 .552 0 1.001.447 1.001 1" fill="#ec146d"/><path d="m9.826 38.141v53.121l46.071 26.559 46.074-26.559v-53.121l-46.073-26.561zm90.281 1.08v50.971l-44.209 25.489-44.211-25.489v-50.971l44.211-25.489z" opacity=".13"/></svg>