<svg enable-background="new 0 0 110.979 128.417" viewBox="0 0 110.979 128.417" xmlns="http://www.w3.org/2000/svg"><path d="m55.556 127.881-55.139-31.834v-63.67l55.139-31.835 55.14 31.835v63.669z" fill="#0a0f44"/><path d="m55.422 116.822-45.313-26.162v-52.323l45.313-26.162 45.314 26.162v52.323z" fill="#040933"/><path d="m55.555 10.618-46.482 26.798v53.594l46.482 26.795 46.485-26.795v-53.594zm44.603 79.312-44.603 25.716-44.604-25.716v-51.424l44.604-25.716 44.603 25.716z" fill="#15ffab"/><path d="m73.31 14.398-1.22-.698-.481.841 1.176.673-.284.496-1.176-.673-.954 1.666-.528-.303 2.003-3.5 1.748 1z" fill="#15ffab"/><path d="m73.879 15.78-1.264 2.208-.51-.292 1.264-2.208zm-.062-1.254c.051-.089.128-.148.23-.176s.199-.016.289.036c.092.053.152.13.18.232.029.101.017.197-.036.289s-.13.152-.232.18c-.101.029-.197.017-.289-.036s-.152-.13-.18-.232-.015-.199.038-.293z" fill="#15ffab"/><path d="m74.525 16.15.51.292-.113.197c.15-.045.271-.064.365-.059.095.005.194.036.296.094.134.077.25.201.346.373l-.501.333c-.057-.125-.132-.214-.224-.266-.278-.159-.537-.029-.778.391l-.655 1.145-.51-.292z" fill="#15ffab"/><path d="m77.329 18.254-.55-.017c.011-.174-.032-.289-.13-.345-.047-.027-.096-.034-.147-.022s-.09.042-.118.09c-.049.085.002.225.151.42.204.271.325.483.362.635.038.152.009.311-.086.477-.122.213-.303.346-.542.4-.231.049-.454.011-.67-.112-.37-.212-.529-.543-.476-.992l.551.047c0 .14.007.234.023.281.029.093.087.164.173.213.172.099.303.07.393-.088.052-.091.034-.213-.054-.368-.037-.055-.074-.109-.112-.163-.037-.053-.075-.108-.114-.164-.107-.157-.169-.289-.188-.397-.024-.136.005-.277.088-.422.11-.192.266-.313.47-.363.206-.048.405-.018.597.092.282.162.409.428.379.798z" fill="#15ffab"/><path d="m78.399 18.999-.991 1.732-.51-.292.991-1.732-.218-.124.273-.476.218.125.463-.809.51.292-.463.809.397.227-.273.476z" fill="#15ffab"/><path d="m81.023 20.913-.814 1.421-.528-.302 2.003-3.5.599.343c.293.168.503.315.629.441.128.127.217.281.267.46.088.312.047.617-.124.916-.183.32-.436.513-.758.577-.322.065-.665-.007-1.029-.216zm.281-.489.197.113c.485.277.834.23 1.048-.144.207-.361.06-.685-.44-.971l-.174-.1z" fill="#15ffab"/><path d="m83.355 21.203.51.292-.113.197c.15-.045.271-.064.365-.059.096.005.194.036.296.094.135.077.25.201.346.373l-.501.333c-.057-.125-.132-.214-.224-.266-.278-.159-.537-.029-.778.391l-.655 1.145-.51-.292z" fill="#15ffab"/><path d="m85.602 22.489-1.264 2.208-.51-.292 1.264-2.208zm-.062-1.254c.051-.089.128-.148.23-.176s.199-.016.289.036c.092.053.152.13.18.232.029.101.017.197-.036.289s-.13.152-.232.18c-.101.029-.197.017-.289-.036s-.152-.13-.18-.232c-.029-.101-.016-.199.038-.293z" fill="#15ffab"/><path d="m85.991 25.006 1.313.751-.275.481-2.324-1.33 2.422-.913-1.127-.646.273-.476 2.135 1.222z" fill="#15ffab"/><path d="m90.081 26.678-1.582-.906c-.09.189-.114.367-.071.534.044.166.147.295.311.388.127.073.249.103.367.09.117-.014.273-.072.471-.176l.293.487c-.131.075-.257.132-.377.171s-.238.06-.352.063c-.114.004-.227-.011-.34-.043-.112-.032-.225-.081-.34-.147-.329-.189-.533-.446-.612-.772-.078-.327-.016-.667.186-1.019.2-.349.458-.576.775-.682.317-.102.637-.06.958.124.325.186.523.436.593.752.07.313 0 .651-.208 1.015zm-.285-.717c.085-.313-.009-.547-.281-.703-.062-.035-.126-.059-.191-.071s-.13-.013-.195-.003-.127.031-.188.062c-.06.032-.117.075-.17.129z" fill="#15ffab"/><circle cx="92.228" cy="27.593" fill="#15ffab" r=".907"/><circle cx="68.637" cy="13.634" fill="#15ffab" r=".907"/><path d="m14.413 29.525.694 1.207-.449.258-1.708-2.973.508-.292c.249-.143.447-.234.594-.272.148-.039.299-.039.452.002.267.069.473.23.619.484.156.272.189.54.098.804s-.291.485-.6.662zm-.239-.416.168-.096c.412-.237.527-.514.345-.831-.176-.307-.477-.338-.902-.094l-.148.085z" fill="#fff"/><path d="m14.837 26.562.433-.249.88 1.533c.074-.227.205-.394.391-.501.212-.122.421-.15.627-.086.176.058.34.217.49.479l.66 1.149-.433.249-.637-1.109c-.086-.15-.175-.244-.267-.28-.092-.037-.197-.021-.315.047-.152.087-.231.195-.239.324-.006.13.058.31.19.541l.521.907-.433.249z" fill="#fff"/><path d="m17.277 25.955c-.044-.076-.054-.157-.03-.244.023-.087.074-.153.151-.197.078-.045.161-.056.248-.032.086.022.152.073.197.151s.056.161.032.248c-.022.086-.073.152-.151.197-.079.045-.161.055-.248.032-.087-.024-.154-.076-.199-.155zm.946.493 1.077 1.875-.433.249-1.077-1.876z" fill="#fff"/><path d="m18.414 24.507 1.868 3.252-.433.249-1.868-3.252z" fill="#fff"/><path d="m20.196 26.544c-.155-.27-.191-.557-.106-.858s.266-.532.545-.692c.28-.161.572-.202.877-.122.302.08.533.26.694.539.162.281.2.572.115.874-.087.301-.272.533-.556.696-.281.162-.572.2-.873.117-.299-.082-.531-.266-.696-.554zm.447-.247c.108.187.243.307.406.358.166.051.333.029.501-.068.169-.097.273-.23.312-.397s.006-.342-.099-.524-.239-.299-.403-.35c-.166-.051-.333-.029-.501.068-.166.095-.268.227-.308.397-.038.17-.008.342.092.516z" fill="#fff"/><path d="m23.397 23.901-.249.396c-.123-.083-.226-.1-.309-.053-.04.023-.066.055-.079.098s-.008.085.016.126c.041.072.166.095.373.07.286-.033.493-.031.621.007.127.038.232.127.313.268.104.181.124.371.061.569-.063.19-.187.338-.37.444-.315.181-.625.155-.932-.077l.271-.383c.103.06.175.095.216.104.08.018.158.007.231-.035.146-.084.181-.193.104-.326-.044-.077-.142-.117-.293-.118-.056.003-.112.007-.167.011-.056.005-.112.009-.17.013-.161.011-.285 0-.372-.032-.111-.041-.201-.123-.272-.246-.094-.163-.115-.33-.065-.501.053-.172.161-.305.324-.399.24-.138.489-.117.748.064z" fill="#fff"/><path d="m24.166 24.263c-.156-.271-.191-.557-.106-.858s.266-.532.545-.692c.28-.161.572-.201.877-.122.303.081.534.26.694.539.162.281.2.573.115.874-.087.301-.272.533-.556.696-.281.161-.572.2-.872.117-.299-.082-.531-.266-.697-.554zm.448-.246c.108.187.243.307.406.358.166.051.333.029.501-.068.17-.097.274-.23.312-.397.039-.167.006-.342-.099-.524s-.239-.299-.403-.35c-.166-.051-.333-.029-.502.068-.165.095-.268.228-.307.397s-.009.341.092.516z" fill="#fff"/><path d="m28.191 24.574-.433.249-1.663-2.896.433-.249.117.204c.072-.269.217-.466.434-.59.258-.148.525-.175.801-.081.278.091.499.281.665.568.161.281.212.564.151.847-.06.282-.217.496-.471.642-.22.126-.467.151-.741.074zm-.088-2.539c-.103-.18-.236-.298-.399-.355-.164-.058-.322-.043-.472.043-.159.091-.256.221-.292.388-.035.167-.001.341.102.52.101.176.234.293.398.35.162.056.322.038.481-.054.15-.086.241-.214.274-.383.036-.169.005-.339-.092-.509z" fill="#fff"/><path d="m27.668 19.192.433-.249.88 1.533c.074-.227.205-.394.391-.501.212-.122.421-.15.627-.086.176.058.34.217.49.479l.66 1.149-.433.249-.637-1.109c-.086-.15-.175-.244-.267-.28-.092-.037-.197-.021-.315.047-.151.087-.231.195-.239.324-.006.13.058.31.19.541l.521.907-.433.249z" fill="#fff"/><path d="m32.926 19.385-1.344.772c.1.147.221.241.361.282.14.039.28.018.418-.061.108-.062.182-.139.223-.231.04-.091.064-.232.073-.421l.483-.006c-.001.129-.014.246-.037.35-.023.105-.058.2-.104.286-.047.086-.106.162-.177.231-.072.068-.156.131-.254.187-.28.161-.556.2-.829.117-.274-.084-.496-.275-.668-.574-.17-.296-.226-.584-.167-.862.062-.276.229-.493.503-.65.276-.158.545-.196.806-.112.26.083.478.28.656.589zm-.648-.099c-.193-.196-.405-.228-.636-.096-.053.03-.097.067-.135.109-.037.043-.065.09-.086.142s-.032.107-.035.164c-.003.058.005.118.021.18z" fill="#fff"/><path d="m32.802 18.073.434-.249.096.168c.032-.129.069-.227.113-.293.044-.068.11-.127.196-.177.114-.066.255-.097.422-.094l.029.51c-.116-.012-.213.005-.292.05-.236.136-.252.382-.047.739l.559.972-.433.249z" fill="#fff"/><path d="m35.551 16.919-.249.397c-.123-.083-.226-.101-.309-.053-.04.023-.066.055-.079.098s-.008.084.016.125c.041.072.166.095.373.07.287-.033.494-.031.621.007s.232.127.313.269c.104.181.124.37.061.569-.063.19-.187.338-.37.443-.314.181-.625.155-.932-.076l.271-.384c.103.06.175.095.216.104.081.018.158.007.23-.035.146-.084.181-.193.105-.326-.044-.077-.142-.117-.293-.118-.056.003-.112.007-.168.011-.055.005-.112.009-.169.013-.161.011-.285 0-.372-.032-.11-.041-.201-.123-.272-.246-.094-.163-.115-.33-.065-.501.053-.172.161-.305.324-.399.239-.138.489-.116.748.064z" fill="#fff"/><path d="m38.482 13.94-.24.425c-.136-.079-.245-.119-.327-.119-.088-.004-.182.023-.284.081-.124.071-.208.166-.249.284-.042.117-.033.227.027.333.083.145.258.2.525.165l.366-.049c.297-.041.542-.023.735.053.192.076.347.217.465.421.157.273.196.552.116.835-.08.285-.257.506-.529.662-.258.148-.515.194-.771.138-.253-.057-.48-.213-.681-.467l.397-.361c.121.163.226.263.316.3.166.075.338.062.515-.04.14-.08.229-.194.268-.341s.017-.292-.066-.436c-.033-.058-.071-.106-.115-.145s-.094-.069-.151-.09-.123-.033-.197-.038c-.074-.004-.158-.001-.251.009l-.355.046c-.506.062-.854-.073-1.044-.404-.128-.224-.15-.459-.066-.708s.253-.447.507-.593c.341-.197.705-.184 1.089.039z" fill="#fff"/><path d="m40.072 14.435.845 1.471-.433.249-.845-1.471-.185.106-.232-.405.185-.106-.395-.687.433-.249.395.687.337-.194.232.405z" fill="#fff"/><path d="m40.914 14.643c-.156-.271-.191-.557-.106-.858s.266-.532.545-.692c.28-.161.572-.201.877-.122.302.08.534.26.694.538.161.281.2.573.115.874-.087.301-.272.533-.556.696-.281.162-.572.2-.873.117-.299-.081-.531-.265-.696-.553zm.447-.247c.108.187.243.307.406.358.166.051.333.029.501-.068.169-.097.274-.23.312-.397.039-.167.006-.342-.099-.524s-.24-.299-.403-.35c-.166-.051-.333-.029-.501.068-.166.095-.268.228-.307.397-.04.17-.009.342.091.516z" fill="#fff"/><path d="m42.842 12.306.435-.25.099.173c.065-.237.193-.411.383-.52.218-.125.428-.154.629-.087.172.056.335.217.487.481l.66 1.149-.435.25-.602-1.047c-.106-.185-.205-.298-.297-.339-.091-.043-.203-.027-.335.049-.144.083-.219.189-.224.318-.005.128.059.308.193.542l.52.905-.435.25z" fill="#fff"/><path d="m47.309 11.123-1.344.772c.1.147.221.241.362.282.14.039.28.019.418-.061.108-.062.182-.139.223-.231.04-.091.064-.232.073-.421l.483-.006c-.001.129-.013.246-.037.35-.023.105-.058.2-.105.286-.047.085-.106.162-.177.231-.072.068-.156.131-.254.187-.28.161-.556.2-.829.117-.273-.084-.496-.275-.668-.574-.17-.296-.226-.584-.167-.862.062-.276.229-.493.503-.65.276-.159.545-.196.806-.112.259.083.478.28.656.589zm-.648-.099c-.193-.196-.405-.228-.636-.095-.053.03-.097.067-.135.109-.037.043-.066.09-.086.142-.021.052-.032.107-.035.165s.005.118.021.18z" fill="#fff"/><g fill="#15ffab"><path d="m54.864 39.791c-3.632 5.048-5.725 11.018-7.329 16.974-.807 2.997-1.542 6.027-2.17 9.067-.727 3.519-1.018 7.11-1.596 10.654-.113.692.946.989 1.06.292.568-3.478.857-7 1.555-10.457.604-2.989 1.333-5.966 2.116-8.913 1.594-5.994 3.659-11.985 7.312-17.062.414-.575-.539-1.124-.948-.555z"/><path d="m43.606 77.121c1.179 1.064 1.375 2.434.973 3.922-.185.683.875.975 1.06.292.498-1.843.202-3.676-1.255-4.991-.525-.472-1.304.302-.778.777z"/><path d="m44.687 77.527c.898-.788 1.786-1.589 2.633-2.431.502-.499-.275-1.276-.777-.777-.848.842-1.735 1.643-2.633 2.431-.533.467.247 1.241.777.777z"/><path d="m48.934 64.838c-2.556 6.335-3.726 14.384-.451 20.68.326.628 1.275.073.949-.555-3.136-6.028-1.877-13.79.562-19.833.264-.655-.799-.94-1.06-.292z"/><path d="m50.196 64.636c-.416-2.778-.907-5.543-1.418-8.305-.128-.694-1.187-.4-1.06.292.511 2.762 1.002 5.527 1.418 8.305.105.697 1.163.4 1.06-.292z"/><path d="m50.247 65.155c1.539-.784 2.988-1.727 4.456-2.633.601-.371.049-1.322-.555-.949-1.468.906-2.918 1.849-4.456 2.633-.63.321-.074 1.269.555.949z"/><path d="m54.485 40.575v21.168c0 .707 1.099.708 1.099 0 0-7.056 0-14.112 0-21.168-.001-.707-1.099-.708-1.099 0z"/><path d="m45.076 87.644c.741-1.271 2.307-2.314 3.779-2.463.697-.07.704-1.17 0-1.099-1.87.189-3.777 1.375-4.728 3.007-.356.613.593 1.167.949.555z"/><path d="m44.559 80.986c-.21 2.073-.597 4.111-1.094 6.133-.169.687.891.98 1.06.292.52-2.118.913-4.255 1.134-6.426.07-.702-1.029-.697-1.1.001z"/><path d="m43.546 87.164c.485 5.302 4.12 9.02 7.858 12.441.521.477 1.3-.298.777-.777-3.486-3.19-7.082-6.694-7.537-11.664-.063-.698-1.163-.705-1.098 0z"/><path d="m52.299 99.766h7.09c.707 0 .708-1.099 0-1.099-2.363 0-4.727 0-7.09 0-.707.001-.708 1.099 0 1.099z"/><path d="m48.407 85.038c.118 1.962.413 3.898.83 5.818.15.691 1.21.398 1.06-.292-.397-1.825-.679-3.661-.791-5.526-.042-.703-1.141-.708-1.099 0z"/><path d="m49.292 90.784c1.21 2.53 2.498 5.274 2.558 8.129.015.706 1.114.708 1.099 0-.065-3.06-1.41-5.97-2.708-8.684-.305-.637-1.253-.08-.949.555z"/><path d="m49.634 84.808c1.687-2.895 3.074-6.338 5.422-8.776.491-.509-.285-1.287-.777-.777-2.42 2.512-3.856 6.016-5.594 8.998-.357.613.592 1.167.949.555z"/><path d="m54.711 40.397c3.654 5.077 5.718 11.068 7.312 17.062.783 2.946 1.515 5.924 2.116 8.913.696 3.457.988 6.979 1.556 10.457.114.696 1.173.401 1.06-.292-.568-3.478-.858-7-1.556-10.457-.627-3.107-1.386-6.204-2.21-9.264-1.604-5.957-3.696-11.926-7.329-16.974-.41-.569-1.363-.021-.949.555z"/><path d="m65.887 76.344c-1.458 1.316-1.753 3.148-1.255 4.991.184.682 1.244.392 1.06-.292-.402-1.488-.206-2.858.973-3.922.525-.475-.254-1.25-.778-.777z"/><path d="m66.36 76.75c-.898-.788-1.786-1.589-2.633-2.431-.502-.499-1.279.278-.777.777.848.842 1.735 1.643 2.633 2.431.53.464 1.31-.31.777-.777z"/><path d="m60.277 65.13c2.439 6.043 3.698 13.804.562 19.833-.326.627.622 1.183.949.555 3.275-6.296 2.106-14.344-.451-20.68-.262-.647-1.325-.364-1.06.292z"/><path d="m61.134 64.928c.416-2.778.907-5.543 1.418-8.305.128-.691-.931-.988-1.06-.292-.511 2.762-1.002 5.527-1.418 8.305-.103.691.955.99 1.06.292z"/><path d="m60.577 64.206c-1.539-.784-2.988-1.727-4.456-2.633-.603-.373-1.156.577-.555.949 1.468.906 2.918 1.849 4.456 2.633.63.32 1.186-.628.555-.949z"/><path d="m54.687 40.575v21.168c0 .707 1.099.708 1.099 0 0-7.056 0-14.112 0-21.168-.001-.707-1.099-.708-1.099 0z"/><path d="m66.142 87.09c-.952-1.632-2.858-2.818-4.728-3.007-.703-.071-.698 1.028 0 1.099 1.473.149 3.038 1.191 3.779 2.463.357.61 1.307.058.949-.555z"/><path d="m64.612 80.986c.22 2.17.613 4.308 1.134 6.426.169.686 1.229.396 1.06-.292-.497-2.022-.884-4.06-1.094-6.133-.072-.697-1.171-.705-1.1-.001z"/><path d="m65.625 87.164c-.455 4.97-4.051 8.474-7.536 11.664-.523.478.256 1.254.777.777 3.738-3.421 7.373-7.139 7.858-12.441.064-.704-1.035-.699-1.099 0z"/><path d="m57.971 98.668c-2.363 0-4.727 0-7.09 0-.707 0-.708 1.099 0 1.099h7.09c.707-.001.708-1.099 0-1.099z"/><path d="m60.764 85.038c-.112 1.865-.394 3.701-.791 5.526-.15.689.909.984 1.06.292.417-1.92.712-3.855.83-5.818.042-.707-1.057-.704-1.099 0z"/><path d="m60.053 90.382c-2.193.429-4.37.99-6.482 1.722-.664.23-.379 1.292.292 1.06 2.112-.732 4.289-1.293 6.482-1.722.694-.136.4-1.195-.292-1.06z"/><path d="m60.029 90.229c-1.298 2.714-2.643 5.623-2.708 8.684-.015.707 1.084.707 1.099 0 .06-2.855 1.348-5.6 2.558-8.129.303-.635-.644-1.193-.949-.555z"/><path d="m61.585 84.254c-1.87-3.173-3.878-6.577-6.467-9.227-.495-.507-1.272.271-.777.777 2.521 2.581 4.473 5.913 6.295 9.004.359.609 1.309.057.949-.554z"/><path d="m54.909 61.99c.865 4.284.908 9.005-.507 13.178-.228.671.833.959 1.06.292 1.479-4.362 1.41-9.289.507-13.762-.14-.693-1.199-.4-1.06.292z"/><path d="m49.545 91.252c3.282.75 5.535 3.602 8.339 5.262.61.361 1.163-.588.555-.949-2.896-1.715-5.202-4.596-8.601-5.373-.689-.157-.983.903-.293 1.06z"/></g><path d="m56.014 37.132c0-2.254 0-4.507 0-6.761 0-.707-1.099-.708-1.099 0v6.761c0 .707 1.099.708 1.099 0z" fill="#fff"/><path d="m55.769 28.338c.707 0 .708-1.099 0-1.099-.707 0-.709 1.099 0 1.099z" fill="#fff"/><path d="m62.158 45.572 4.937-4.937c.501-.501-.276-1.278-.777-.777-1.646 1.646-3.292 3.292-4.937 4.937-.501.501.276 1.278.777.777z" fill="#fff"/><path d="m68.986 39.124c.707 0 .708-1.099 0-1.099-.707 0-.708 1.099 0 1.099z" fill="#fff"/><path d="m49.472 44.795c-1.646-1.646-3.292-3.292-4.937-4.937-.501-.501-1.278.276-.777.777l4.937 4.937c.501.501 1.278-.276.777-.777z" fill="#fff"/><path d="m41.868 39.124c.707 0 .708-1.099 0-1.099-.707 0-.708 1.099 0 1.099z" fill="#fff"/><path d="m64.859 50.746h11.749c.707 0 .708-1.099 0-1.099-3.916 0-7.832 0-11.749 0-.707.001-.709 1.099 0 1.099z" fill="#fff"/><path d="m79.544 50.949c.707 0 .708-1.099 0-1.099-.707 0-.708 1.099 0 1.099z" fill="#fff"/><path d="m45.514 49.648c-3.916 0-7.833 0-11.749 0-.707 0-.708 1.099 0 1.099h11.749c.707-.001.708-1.099 0-1.099z" fill="#fff"/><path d="m30.828 50.949c.707 0 .708-1.099 0-1.099-.707 0-.708 1.099 0 1.099z" fill="#fff"/><path d="m74.213 109.433.41-.238.843 1.452c.07-.216.193-.375.369-.478.201-.116.399-.145.595-.084.168.054.324.204.468.453l.632 1.089-.411.238-.61-1.051c-.083-.142-.168-.231-.255-.265-.088-.034-.187-.019-.299.046-.144.083-.219.186-.226.309-.005.123.056.294.183.513l.499.859-.411.238z" fill="#fff"/><path d="m78.329 108.788.412-.239 1.032 1.777-.412.239-.108-.186c-.077.256-.213.441-.408.554-.246.143-.5.172-.764.087-.265-.089-.476-.269-.633-.54-.155-.266-.204-.535-.148-.805s.204-.475.444-.614c.207-.12.442-.143.705-.067zm-.461 1.449c.099.17.225.282.378.336.157.054.306.04.448-.043.152-.088.245-.212.277-.371.031-.162-.002-.327-.099-.494-.097-.166-.223-.277-.38-.331-.155-.051-.307-.034-.457.053-.141.082-.228.204-.261.366-.03.163.001.324.094.484z" fill="#fff"/><path d="m80.688 107.521.317.546c-.16-.06-.289-.09-.388-.089-.098-.002-.197.027-.295.084-.155.09-.251.218-.291.386-.039.168-.012.333.083.496.097.167.226.275.386.325.162.049.32.029.474-.061.098-.057.173-.129.224-.215.049-.084.088-.214.117-.39l.315.542c-.117.183-.258.323-.425.42-.275.16-.556.204-.844.134-.289-.071-.51-.24-.664-.505s-.19-.543-.109-.834c.082-.291.258-.516.531-.674.174-.105.364-.159.569-.165z" fill="#fff"/><path d="m80.694 105.67 1.091 1.879.245-.911.551-.32-.339 1.195 1.427.55-.533.309-1.023-.409-.028.104.397.684-.411.238-1.789-3.082z" fill="#fff"/><path d="m84.212 105.372.412-.239 1.032 1.777-.412.239-.108-.186c-.077.256-.213.441-.408.554-.246.143-.5.172-.764.087-.264-.089-.476-.269-.633-.54-.155-.267-.204-.535-.148-.805s.204-.475.444-.614c.207-.12.442-.143.705-.068zm-.462 1.449c.099.17.225.282.378.336.157.054.306.04.448-.043.152-.088.245-.212.277-.371.031-.162-.002-.327-.099-.494-.097-.166-.223-.277-.38-.331-.155-.051-.307-.034-.457.053-.141.082-.228.204-.261.366-.029.163.002.324.094.484z" fill="#fff"/><path d="m85.788 104.969.809 1.394-.41.238-.809-1.394-.175.102-.222-.383.175-.102-.378-.652.411-.238.378.651.319-.185.223.383z" fill="#fff"/><path d="m85.407 102.934.41-.238.843 1.452c.07-.216.193-.375.369-.478.201-.117.399-.145.595-.084.168.054.324.204.468.453l.632 1.089-.411.238-.61-1.051c-.083-.142-.168-.231-.255-.265-.088-.034-.187-.019-.299.046-.144.083-.219.186-.226.309-.005.123.056.294.183.513l.499.859-.411.238z" fill="#fff"/><path d="m88.638 103.973c-.149-.257-.184-.528-.105-.815.079-.286.251-.507.515-.66.265-.154.543-.194.833-.12.288.075.508.245.661.509.155.267.192.543.113.83-.081.286-.256.507-.525.663-.267.155-.543.193-.829.115-.283-.075-.505-.249-.663-.522zm.424-.236c.103.178.232.29.387.339.158.048.317.026.476-.066.16-.093.259-.219.295-.379.036-.159.004-.325-.097-.498-.1-.173-.229-.283-.385-.331-.158-.048-.317-.026-.476.067-.157.091-.254.217-.29.378s-.006.324.09.49z" fill="#fff"/><path d="m90.46 101.744.412-.239.095.164c.061-.226.181-.391.361-.495.207-.12.406-.149.597-.085.164.053.319.204.464.455l.633 1.089-.412.239-.576-.993c-.102-.175-.196-.282-.284-.321-.087-.041-.193-.025-.318.048-.136.079-.207.18-.212.304-.004.121.058.293.186.514l.498.858-.412.239z" fill="#fff"/><path d="m95.139 100.869 1.049-.609.232.4-1.892 1.099.29-1.752c.028-.174.049-.323.064-.447s.022-.225.023-.304c.003-.154-.022-.277-.075-.369-.076-.131-.186-.215-.33-.25s-.284-.013-.42.066c-.285.165-.35.428-.196.789l-.423.246c-.277-.633-.149-1.104.382-1.413.257-.149.519-.192.788-.131.27.061.475.212.614.453.089.153.135.327.14.522.003.101-.005.227-.023.378-.019.152-.047.335-.085.549z" fill="#fff"/><path d="m96.072 98.954c-.261-.449-.364-.868-.31-1.257.047-.351.203-.604.47-.758.266-.155.564-.165.892-.032.365.146.681.45.948.911.267.46.374.884.32 1.273-.047.351-.203.603-.468.757s-.563.165-.893.033c-.366-.146-.685-.455-.959-.927zm.419-.24c.182.313.386.541.615.685.226.14.423.162.591.064.167-.097.246-.278.237-.545-.008-.265-.101-.552-.28-.86s-.382-.531-.609-.671c-.227-.138-.423-.159-.59-.062-.165.096-.244.277-.237.542.007.264.098.546.273.847z" fill="#fff"/><path d="m98.655 96.127-.487.283.003-.533.679-.394 1.636 2.817-.425.247z" fill="#fff"/><path d="m101.153 95.953c-.292-.026-.51-.165-.657-.417-.133-.229-.165-.465-.097-.71.069-.245.221-.436.456-.572.233-.135.473-.172.717-.109.244.061.433.208.567.439.14.242.152.5.036.772.148-.005.289.032.421.111.133.079.243.191.327.337.145.249.182.501.112.755s-.233.455-.487.603c-.26.151-.522.195-.784.133-.264-.062-.466-.214-.607-.457-.183-.316-.185-.611-.004-.885zm-.258-.651c.07.12.169.198.298.232.131.035.255.018.372-.05.116-.067.191-.166.225-.297.035-.131.019-.254-.048-.37-.067-.115-.166-.191-.297-.225-.131-.035-.254-.018-.369.049-.116.067-.191.166-.225.297-.036.131-.021.252.044.364zm.671 1.279c.076.13.186.216.33.257.145.039.282.021.413-.054.129-.075.212-.184.251-.329.038-.146.019-.283-.056-.412-.076-.13-.185-.214-.33-.253-.144-.038-.281-.02-.41.055-.128.074-.211.184-.251.329-.038.145-.02.281.053.407z" fill="#fff"/><path d="m57.958 121.536c-.018-.031-.037-.062-.055-.094-.018-.031-.036-.063-.045-.098-.007-.028-.024-.051-.036-.077-.009-.018-.02-.036-.021-.057 0-.005-.001-.01-.003-.014-.018-.036-.032-.074-.044-.114-.011-.036-.021-.072-.031-.108-.015-.05-.025-.1-.035-.151-.014-.072-.024-.145-.031-.218-.009-.094-.011-.188-.009-.283.001-.072.011-.143.018-.215.006-.064.024-.125.034-.188.013-.081.039-.158.062-.236.037-.121.087-.236.145-.348.038-.073.082-.144.127-.214.025-.039.051-.078.081-.113.029-.034.052-.074.087-.103.013-.01.014-.028.029-.037.012-.007.02-.019.028-.031.013-.02.034-.031.05-.049.025-.029.056-.055.085-.081.034-.03.071-.057.105-.088.032-.029.067-.052.101-.077.074-.053.149-.105.231-.146.104-.052.208-.103.319-.141.041-.015.083-.029.125-.041.034-.01.067-.027.104-.026.025-.015.056-.009.081-.021.02-.01.043-.007.064-.012.046-.011.094-.016.142-.021.09-.009.18-.014.271-.013.09.001.18.011.27.02.089.009.175.036.263.048.014.002.027.007.041.012.03.01.058.022.089.029.075.017.145.048.216.079.055.024.111.048.165.076.058.03.113.065.169.099.074.046.145.098.212.155.038.032.08.06.11.1.032.015.044.053.076.069.008.004.013.014.018.021.011.015.022.03.038.042.009.006.016.015.022.024.014.019.026.039.046.053.01.007.016.019.023.029.021.032.041.064.066.092.028.031.048.066.069.101.025.042.05.084.074.126.021.035.042.071.055.11.011.033.028.063.044.094.009.018.021.036.02.057 0 .003.001.006.002.009.018.035.03.072.041.11.006.021.015.04.019.062.004.026.015.051.021.076.02.074.034.148.046.224.017.107.025.213.026.321.001.056-.006.112-.003.167-.016.113-.023.227-.052.337-.008.032-.012.065-.021.096-.015.051-.033.102-.048.153-.017.057-.043.11-.065.165-.052.13-.123.249-.197.367-.038.041-.062.093-.101.133-.015.015-.026.034-.04.05-.032.036-.06.076-.095.109-.026.025-.047.056-.078.074-.061.068-.137.12-.206.179-.002.002-.005.004-.007.006-.09.06-.176.127-.275.174-.074.035-.145.076-.222.104-.047.017-.094.035-.141.054-.03.012-.063.019-.094.029-.038.013-.078.024-.118.03-.047.008-.093.026-.142.025-.094.021-.191.028-.287.031-.092.003-.184.004-.276-.009-.043-.006-.087-.007-.13-.014-.052-.008-.104-.021-.156-.029-.1-.015-.193-.053-.288-.081-.051-.015-.098-.04-.147-.06-.073-.029-.141-.066-.209-.104-.084-.047-.163-.101-.241-.158-.043-.032-.084-.066-.124-.102-.039-.034-.075-.072-.112-.107-.028-.026-.048-.058-.08-.08-.006-.004-.01-.012-.015-.018-.017-.025-.033-.049-.057-.068-.013-.01-.021-.027-.03-.042-.018-.028-.037-.055-.06-.079-.011-.011-.02-.024-.028-.037-.027-.037-.051-.078-.075-.118zm1.487-.909c.043-.035.081-.072.126-.101.089-.059.179-.117.28-.156.041-.016.078-.042.119-.057.075-.027.142-.067.21-.107.037-.022.073-.043.102-.075.007-.008.017-.015.026-.02.037-.02.057-.058.091-.081.045-.061.093-.12.119-.193.037-.105.038-.208-.008-.31-.017-.039-.039-.075-.064-.11-.04-.056-.093-.097-.155-.125-.069-.031-.141-.046-.218-.046-.066 0-.13.007-.192.029-.004.002-.009.002-.014.002-.015-.002-.027.006-.04.012-.062.032-.121.067-.179.106-.009.006-.02.011-.024.022-.007.016-.02.023-.033.032-.006.005-.014.009-.018.015-.025.037-.058.069-.084.105-.045.063-.081.13-.107.202-.045.127-.065.259-.061.395.003.083.016.165.036.246.008.03.012.062.028.09.009.016.014.034.019.053.006.026.017.052.041.072zm.262-.016c-.02.012-.04.025-.061.036-.023.012-.039.031-.057.049-.005.006-.013.009-.019.014-.022.017-.05.027-.065.053-.014.024-.048.031-.057.061-.036.04-.062.085-.085.133-.052.107-.048.215-.006.322.027.069.074.124.135.17.075.056.158.082.248.084.08.003.161-.002.236-.04.008-.004.018-.005.027-.007s.018-.004.027-.008c.081-.038.159-.098.224-.168.027-.028.051-.058.075-.089.061-.081.1-.173.13-.269.013-.044.017-.089.026-.133.008-.04.01-.081.01-.121 0-.08-.008-.159-.024-.238-.005-.022-.015-.041-.019-.063-.007-.047-.029-.089-.044-.133-.003-.009-.008-.017-.013-.025-.007-.012-.013-.013-.026-.003-.031.023-.064.045-.092.073-.011.011-.025.02-.038.028-.06.035-.119.07-.179.105-.016.009-.034.017-.052.023-.027.009-.052.021-.077.034-.026.014-.052.031-.08.041-.052.018-.098.044-.144.071z" fill="#fff"/><path d="m68.47 115.747c.154.262.309.524.463.786.012.02.024.039.035.06.017.034.013.049-.02.072-.017.011-.034.021-.052.031-.124.073-.247.146-.371.218-.118.069-.095.075-.164-.039-.015-.025-.029-.049-.044-.074-.004-.007-.009-.015-.016-.02-.006-.005-.015-.007-.022.001-.012.014-.016.03-.018.047-.015.113-.065.212-.129.303-.032.045-.063.096-.117.123-.012.006-.024.017-.033.027-.061.069-.135.114-.225.132-.011.002-.022.007-.032.013-.088.047-.183.053-.28.06-.112.008-.221-.008-.328-.038-.093-.026-.181-.066-.262-.119-.033-.022-.065-.045-.097-.068-.048-.035-.094-.072-.131-.119-.012-.016-.022-.034-.037-.047-.088-.075-.131-.18-.187-.276-.01-.017-.013-.038-.019-.057s-.009-.039-.018-.057c-.044-.088-.055-.184-.065-.28-.017-.162.005-.319.064-.469.036-.092.088-.177.146-.259.042-.059.109-.091.147-.153.086-.05.161-.122.265-.134.008-.001.017-.005.024-.008.108-.049.221-.049.335-.034.045.006.091.013.133.031.019.008.038.011.058.01.011-.001.014-.011.011-.018-.008-.018-.018-.036-.028-.053-.023-.04-.046-.079-.069-.119-.01-.018-.005-.033.012-.044.029-.019.057-.039.086-.057.111-.066.222-.132.334-.196.032-.019.066-.034.1-.05.017-.008.034-.003.044.015.012.02.024.039.035.059.158.267.315.534.472.8zm-1.435.84c.045.083.111.143.19.192.122.075.249.105.389.058.011-.004.022-.007.033-.008.036-.003.065-.021.095-.037.055-.029.081-.088.131-.122.064-.103.103-.213.094-.338-.004-.052-.022-.099-.033-.149-.01-.046-.028-.088-.056-.124-.065-.084-.141-.158-.24-.201-.153-.067-.305-.062-.45.025-.044.026-.081.059-.115.1-.031.038-.059.076-.076.121-.066.167-.047.328.038.483z" fill="#fff"/><path d="m71.798 113.717c.16.272.321.544.481.816.033.055.048.063-.025.106-.149.087-.297.175-.445.262-.005.003-.01.006-.015.008-.039.02-.047.019-.069-.017-.021-.034-.041-.069-.062-.104-.007-.012-.014-.025-.023-.036-.005-.006-.013-.011-.02-.012-.012-.002-.014.009-.014.017-.003.046-.014.09-.028.134-.028.084-.07.159-.127.227-.03.036-.062.066-.099.093-.007.005-.015.01-.02.017-.051.071-.127.109-.203.14-.08.033-.164.071-.253.074-.165.007-.322-.021-.456-.131-.038-.031-.074-.062-.1-.104-.008-.012-.015-.026-.026-.034-.052-.039-.083-.095-.115-.149-.215-.363-.429-.726-.644-1.09-.039-.067-.039-.068.024-.106.143-.085.287-.169.43-.254.01-.006.02-.012.03-.017.031-.015.048-.012.067.015.013.019.024.039.036.059.149.252.297.505.446.757.035.059.071.118.109.176.045.069.132.134.208.171.033.016.069.023.099.017.094-.018.194-.029.253-.122.017-.026.046-.039.063-.069.044-.08.048-.164.032-.25-.016-.085-.047-.164-.092-.239-.162-.271-.321-.544-.481-.816-.065-.111-.066-.095.041-.159.128-.076.257-.152.386-.227.02-.012.04-.022.061-.032.015-.007.029-.002.038.011.015.021.028.043.041.066.157.268.314.535.472.802z" fill="#fff"/><path d="m63.856 118.775c.074-.044.148-.087.222-.131.034-.02.047-.028.078.012.05.064.118.096.201.084.083-.013.162-.036.23-.088.039-.03.067-.071.096-.109.022-.029.026-.067.01-.106-.032-.077-.075-.109-.159-.103-.054.004-.108.012-.161.024-.117.026-.232.061-.349.08-.111.019-.22.05-.335.048-.092-.002-.18-.014-.262-.058-.053-.029-.104-.06-.136-.114-.007-.012-.017-.024-.027-.033-.031-.028-.051-.061-.061-.101-.004-.017-.012-.032-.019-.048-.082-.165-.055-.326.027-.481.031-.059.066-.119.123-.161.023-.05.069-.074.112-.104.012-.008.023-.017.033-.028.092-.099.216-.148.33-.214.046-.005.089-.019.129-.044.038-.024.086-.008.123-.032.133-.015.264-.025.393.028.097.04.181.094.247.177.016.02.033.039.049.06.026.036.023.049-.017.075-.01.006-.02.012-.03.018-.131.077-.262.154-.393.232-.015.009-.029.018-.045.025-.024.012-.043.007-.061-.013-.011-.013-.02-.028-.032-.041-.034-.036-.074-.063-.124-.065-.086-.004-.166.015-.225.082-.028.032-.064.056-.078.1-.029.09.03.194.124.205.042.005.087.004.128-.004.107-.02.213-.046.319-.069.133-.029.263-.071.4-.079.103-.006.204-.002.298.05.038.021.075.044.102.076.06.069.111.142.147.23.072.178.045.345-.028.512-.024.054-.09.142-.136.183-.027.025-.04.062-.075.081-.03.016-.062.034-.084.06-.054.063-.126.098-.195.139-.032.019-.065.036-.102.045-.028.007-.056.017-.08.032-.062.041-.134.052-.202.068-.056.013-.116.023-.176.021-.083-.002-.166-.011-.242-.041-.081-.032-.162-.069-.218-.143-.053-.028-.081-.079-.111-.127-.005-.007-.009-.015-.013-.022-.011-.023-.009-.035.015-.05.046-.029.094-.056.141-.084.034-.016.067-.035.099-.054z" fill="#fff"/><path d="m73.107 112.476c-.067.039-.133.079-.2.118-.017.01-.035.02-.053.028-.015.007-.028.003-.038-.01-.017-.023-.032-.047-.055-.066-.102-.084-.24-.055-.33.023-.021.019-.041.04-.058.063-.062.08-.057.193.061.248.01.005.022.006.033.006.051.001.103.002.154-.009.106-.023.212-.044.318-.071.074-.019.148-.041.224-.053.108-.017.217-.033.328-.011.093.018.169.062.24.119.011.009.018.022.026.034.027.044.054.088.081.132.085.143.086.296.048.452-.025.105-.089.188-.147.275-.055.04-.086.106-.151.137-.018.008-.033.022-.048.037-.087.087-.191.145-.306.185-.024.008-.049.018-.071.03-.137.071-.285.091-.437.084-.11-.005-.213-.039-.304-.102-.083-.058-.154-.128-.202-.217-.018-.034-.015-.05.02-.071.145-.087.291-.172.437-.258.005-.003.01-.006.015-.008.033-.014.053-.012.074.02.041.061.1.083.169.081.099-.002.248-.055.31-.141.029-.04.06-.074.062-.127.002-.047-.041-.11-.085-.126-.042-.015-.085-.017-.127-.009-.081.015-.161.037-.243.052-.089.016-.176.045-.267.054-.042.004-.082.019-.125.026-.095.015-.197.02-.286.008-.133-.018-.235-.088-.311-.193-.093-.129-.139-.274-.116-.436.014-.099.056-.184.112-.264.034-.048.074-.093.112-.137.013-.015.031-.025.047-.037.027-.02.057-.036.075-.069.009-.016.03-.026.047-.037.058-.036.117-.072.177-.107.042-.025.084-.05.134-.055.014-.001.028-.008.04-.015.069-.037.143-.05.22-.059.051-.006.1-.01.151-.009.125.001.236.042.334.112.067.047.129.104.164.182.011.024.009.034-.014.05-.005.003-.01.006-.015.009-.076.044-.15.088-.224.132z" fill="#fff"/><path d="m68.83 115.496c-.076-.129-.151-.257-.227-.386-.01-.017-.02-.035-.031-.051-.019-.027-.037-.033-.066-.018-.045.024-.089.052-.134.077-.02.011-.039.024-.06.033-.03.013-.048.007-.065-.02-.024-.039-.047-.079-.07-.118-.039-.067-.079-.133-.118-.2-.022-.039-.019-.052.021-.076.046-.029.094-.056.141-.083.017-.01.034-.021.051-.032s.02-.029.013-.045c-.008-.021-.02-.041-.032-.061-.074-.126-.149-.252-.223-.378-.043-.073-.042-.074.031-.117.133-.079.267-.157.4-.236.015-.009.03-.018.045-.025.014-.006.03-.002.039.009.014.018.027.037.038.057.073.123.146.247.219.371.056.096.053.082.135.035.077-.045.153-.09.23-.135.02-.012.04-.022.061-.032.014-.006.028-.003.038.011.005.007.01.014.014.022.061.104.123.207.183.312.02.035.018.05-.012.073-.016.012-.033.022-.051.033-.074.044-.148.087-.222.131-.017.01-.034.021-.051.032-.016.011-.02.028-.013.045.005.013.013.026.02.038.117.198.234.395.35.593.029.05.068.092.11.131.024.023.052.036.081.046s.058.011.091.002c.093-.026.177-.066.251-.128.007-.005.014-.01.021-.015.022-.014.038-.011.052.007.007.009.013.019.018.029.061.104.122.208.183.311.007.012.014.025.02.038.011.024.008.038-.013.052-.125.081-.23.189-.367.253-.031.015-.059.034-.095.038-.019.002-.038.012-.056.02-.187.088-.362.069-.528-.055-.086-.064-.158-.139-.211-.232-.07-.12-.14-.238-.211-.356 0-.001 0-.001 0 0z" fill="#fff"/><path d="m65.353 117.538c-.074-.126-.148-.252-.223-.378-.012-.02-.023-.04-.036-.059-.015-.022-.036-.027-.06-.015-.023.011-.045.025-.067.038-.04.023-.079.048-.119.069-.039.02-.057.015-.078-.021-.062-.103-.123-.207-.184-.311-.025-.044-.022-.054.024-.082.054-.033.109-.064.163-.097.047-.029.051-.04.024-.09-.02-.038-.043-.074-.065-.111-.057-.096-.114-.193-.17-.289-.012-.02-.022-.04-.032-.061-.006-.014-.003-.028.011-.038.007-.005.014-.01.022-.014.148-.087.296-.175.445-.262.038-.022.054-.019.079.017.012.016.021.034.031.051.067.114.134.227.201.341.01.017.02.035.031.052.026.039.037.042.076.019.087-.05.173-.101.26-.153.101-.06.092-.051.142.034.053.089.105.178.157.267.026.044.024.054-.017.085-.018.014-.038.025-.058.037-.069.041-.138.082-.207.122-.017.01-.034.021-.051.032-.016.012-.018.029-.012.046.006.016.016.031.024.045.111.188.222.375.332.563.035.06.079.112.131.157.051.043.105.058.173.039.09-.025.171-.066.243-.125.009-.007.019-.014.029-.018.014-.006.029-.004.039.008.009.011.017.023.024.035.061.104.122.207.183.311.006.01.012.02.016.03.012.027.008.042-.015.059-.016.012-.034.022-.05.034-.023.017-.048.032-.068.052-.081.08-.183.127-.279.183-.014.008-.032.013-.049.016-.026.005-.049.015-.072.026-.184.086-.358.066-.521-.054-.084-.061-.155-.134-.208-.225-.072-.124-.145-.247-.218-.371 0 .006-.001.006-.001.006z" fill="#fff"/></svg>