<svg enable-background="new 8.893 -8.5 110.852 128" height="128" viewBox="8.893 -8.5 110.852 128" width="110.852" xmlns="http://www.w3.org/2000/svg"><path d="m119.744 87.5-55.426 32-55.425-32v-64l55.425-32 55.426 32z" fill="#23e254"/><path d="m64.818 2.678 46 26.551v53.129l-10.425 6.021-.247.12-.124.06-.117.059-1.083.62-1.902 1.101-.101.059-1.001.581-4 2.31-2 1.159-2 1.16-.859.5-.141.08-4 2.311-3 1.739-.359.21-1.641.95-1.37.79-1.17.68-2.46 1.421-2 1.159-.95.551-.05.029-1 .571-.45.259-.55.321-3 1.74-.37-.21-3.55-2.061-2.71-1.57-.139-.079-2.25-1.301-.011-.01-.46-.259-.295-.13-3.215-1.82v-.01l-5.064-2.97-1.707-1-.244-.15-1.047-.58-24.938-14.411v-53.129z" fill="#22bf43"/><path d="m26.493 67.233-11.862-3.902 4.112 11.795-7.381 10.069 12.485-.265 7.305 10.133 3.604-11.962 11.893-3.807-10.265-7.126.051-12.484zm6.539 9.801c-.495 2.846-3.201 4.75-6.046 4.256-2.845-.495-4.75-3.202-4.255-6.048.495-2.845 3.202-4.75 6.046-4.254 2.847.495 4.75 3.201 4.255 6.046z" fill="#23e254"/><path d="m46.324 20.067-11.862-3.901 4.111 11.795-7.381 10.068 12.485-.266 7.305 10.134 3.604-11.963 11.893-3.808-10.264-7.126.051-12.483zm6.539 9.801c-.495 2.847-3.202 4.75-6.046 4.257-2.845-.496-4.75-3.203-4.255-6.048.495-2.846 3.202-4.75 6.046-4.255 2.846.495 4.75 3.202 4.255 6.046z" fill="#23e254"/><path d="m87.141 18.828-11.862-3.902 4.112 11.795-7.381 10.07 12.483-.266 7.306 10.133 3.604-11.963 11.894-3.807-10.266-7.127.053-12.484zm6.539 9.801c-.494 2.847-3.201 4.75-6.047 4.256-2.845-.496-4.75-3.201-4.254-6.047.494-2.846 3.2-4.75 6.047-4.254 2.845.494 4.748 3.201 4.254 6.045z" fill="#23e254"/><path d="m84.529 72.57-11.861-3.901 4.111 11.795-7.381 10.068 12.484-.265 7.306 10.133 3.604-11.963 11.893-3.807-10.265-7.126.053-12.484zm6.539 9.802c-.494 2.846-3.201 4.75-6.046 4.256-2.845-.496-4.75-3.202-4.255-6.047.494-2.847 3.201-4.75 6.047-4.256 2.845.495 4.749 3.202 4.254 6.047z" fill="#23e254"/><path d="m76.373 19.689c-.975-.758-1.855-1.409-3.125-1.52-1.247-.109-2.518.077-3.709.446-1.842.571-1.057 3.467.797 2.893 1.406-.436 2.705-.64 3.916.302.645.501 1.489.632 2.121 0 .523-.523.647-1.618 0-2.121z" fill="#3d3d3d"/><path d="m68.813 25.438c-.082.003-.125.008-.145.013-.063-.018-.124-.035-.184-.057-.305-.103-.594-.148-.916-.185-.147-.017-.307.007-.455.018-.057.004-.112.006-.17.009-.553-.252-1.248-.146-1.691.297-.588.588-.564 1.53 0 2.121.529.555 1.268.615 1.984.564.061-.004.119-.003.178-.005-.046.013.199.048.271.073.359.124.748.199 1.127.151.811-.103 1.5-.604 1.5-1.5.001-.739-.686-1.603-1.499-1.499z" fill="#3d3d3d"/><path d="m94.389 47.391c-2.361-2.259-4.568-4.078-7.93-4.461-1.527-.174-3.087.097-4.623-.006-1.721-.115-3.369-.534-5.109-.456-.074.003-.147.014-.222.02.134-.979-.437-2.073-1.714-2.073-.081 0-.157.006-.232.015-.029.003-.057.01-.086.015-.043.007-.084.015-.125.024-.039.01-.076.021-.113.034-.022.008-.047.016-.069.024-.282.105-.524.281-.737.512-.533-.193-1.15-.157-1.703.26.004-.008-.029.009-.097.048.091-.058-.104.009-.244.06-.723-.242-1.429.059-2.142.275-.797.015-1.594.042-2.4.139-.494.06-1.064.148-1.678.238-.102-.092-.212-.174-.342-.234-.83-.38-1.604-.599-2.522-.624-.806-.021-1.604.138-2.414.11-.294-.01-.551.04-.77.133-.875-.27-1.749-.548-2.607-.875-.468-.178-.883-.14-1.224.031-.165-.082-.346-.136-.54-.161-.038-.108-.076-.215-.12-.321-.861-2.069-4.058-1.351-3.456.953.041.155.081.311.121.467-.059.053-.107.115-.157.175.073.094.128.206.143.339.027.045.052.093.072.144.197.491.281.944.089 1.456-.067.181-.186.332-.336.426.028.037.049.078.081.114.082.093.17.179.258.266-1.831.123-3.723.964-5.03 2.222-.115.012-.231.033-.351.072-.081.026-.16.056-.239.084-.364-.211-.806-.273-1.284-.084-.144.057-.285.122-.428.181-.002.001-.004.002-.006.003-3.122 1.298-6.011 3.142-9.025 4.665-2.563 1.294-3.753 4.32-1.951 6.795 1.692 2.324 5.015 2.742 7.486 1.621 2.627-1.189 4.504-4.133 6.077-6.438.169-.083.337-.167.506-.251.131.17.294.326.497.462 1.015.682 2.146 1.525 3.344 1.884.332 1.515 1.044 3.04 1.893 4.345-1.074-.646-2.112-.278-3.375-.097-.253.037-.473.144-.659.296-.312.002-.626.043-.941.143-1.205.378-1.834 1.258-2.061 2.396-.686.393-.894 1.026-.783 1.635-.026.063-.054.127-.077.193-.225.669-.196 1.465-.068 2.254-.896 1.287-.562 3.046.579 4.078.386 1.203 1.038 2.339 1.759 3.335 1.554 2.146 3.489 2.915 5.926 3.731.038.013.079.021.118.029.558.707 1.296 1.198 2.239 1.288 1.225.115 1.95-.707 2.363-1.862.219-.145.404-.354.529-.639.295-.674.466-1.354.569-2.042.075-.192.12-.409.123-.653.006-.369.021-.736.035-1.104.11.01.217.005.321-.006 1.755 2.358 5.154 2.558 7.675.785.373-.263.715-.619.972-1.015.242 0 .5-.065.761-.217.342.111.709.127 1.055.034-.233.991-.286 2.007-.188 2.729.311 2.25 2.803 2.199 4.537 1.693.266.18.587.301.959.324 2.87.182 4.729-3.055 5.959-5.174 1.721-2.963 3.098-6.303 2.836-9.801-.263-3.53-3.453-5.096-6.686-4.611-.399.061-.793.145-1.174.248.164-.491.32-.985.473-1.483.677-1.64 1.393-3.264 1.934-4.956.068-.215.094-.419.084-.613.1-.273.191-.549.28-.827.603.03 1.222-.021 1.825-.143 1.4.215 2.771.622 4.092 1.162.051.336.178.665.4.942.854 1.067 2.632 1.775 4.332 2.027.379.194.758.39 1.137.583 1.477.749 3.061.712 4.668.782.855.038 1.439-.589 1.729-1.316 1.159-2.923-.832-4.873-2.798-6.756z" fill="#3d3d3d"/><path d="m82.488 24.01c-.707-.982-1.604-1.657-2.598-1.828-1.043-1.287-3.226-2.21-4.619-2.482l-.271-.008v.004c0-.032-.076-.055-.225-.068-.199-.017-.248.002-.412.035-1.465-.469-2.842-.984-4.418-1.11-2.817-.224-5.544.021-8.313.537-2.595.483-4.65 1.389-6.302 3.518-1.783 2.297-3.387 4.76-5.064 7.138-1.336 1.893 1.778 3.681 3.099 1.809.155-.22.315-.438.472-.658 1.746-.742 3.321-1.822 5.072-2.54 1.073-.439 2.228-.649 3.401-.74 1.504.117 2.959.207 4.502-.077.033-.006.059-.018.088-.025.543.045 1.078.105 1.593.235.124.428.394.814.792 1.043.999.574 2.22.589 3.137 1.254.271.197.534.302.784.336.181.331.356.665.543.992.067.117.146.595.228.687.115.87.869 1.938 1.767 1.938h.089c.978 0 1.793-1.192 1.793-2.168 0-.496-.213-1.138-.547-1.465-.011-.418-.039-.942-.103-1.383.236-.312.461-.68.683-1.003.422-.291.937-.562 1.229-.778.319-.237.543-.606.67-1 .039.031.076.056.119.086.243.167.506.27.786.357 1.424.444 2.955-1.34 2.025-2.636z" fill="#3d3d3d"/><path d="m89.645 32.518c-1.199-1.141-2.556-1.517-4.179-1.623-1.36-.088-3.03-.365-4.297.217-.248-.134-.499-.268-.758-.397-2.06-1.036-3.873 2.055-1.81 3.094 2.344 1.18 4.258 2.307 5.09 4.933.631 1.992 3.357 1.517 3.521-.477.054-.65.164-1.287.304-1.925.039-.187.09-.372.143-.556.617.152 1.336.015 1.718-.463-.03.003-.063.008-.094.011.889-.667 1.274-1.948.362-2.814z" fill="#f90b1c"/><path d="m75.327 35.732c-.285-.86-.679-1.696-1.069-2.504-.255-.524-.572-1.057-.943-1.514-1.076-2.415-3.762-2.528-6.137-3.112-1.087-.267-2.595-.426-3.676-.064-.523-.032-1.043-.047-1.555-.041-3.091.041-6.833.669-9.152 2.854-.452.425-.598.918-.541 1.382-.152.246-.249.536-.254.871-.015.965-.077 1.896-.294 2.839-.265 1.146.418 1.958 1.302 2.153 1.089.901 2.711 1.26 4.039 1.526 1.285.257 2.585.247 3.875.446 1.875.289 3.688.768 5.594.831.377.013.7-.094.965-.271.897.134 1.854.073 2.697.002.021-.002.043-.003.063-.005.406.093.826.046 1.191-.127 1.235-.175 2.606-.56 3.143-1.599.688-.159 1.26-.706 1.26-1.673v-.806c-.002-.493-.23-.893-.508-1.188z" fill="#f2bf8c"/><path d="m101.507 59.38c-.083-.258-.231-.716-.254-.755-.517-.905-1.575-1.053-2.45-.645-.044.021-.088.041-.13.062-.45.211-.709.662-.821 1.131-1.021-.261-2.285.298-2.307 1.67-.013.884-.18 1.753.002 2.632.268 1.286 1.52 2.1 2.805 1.776 2.185-.55 2.717-2.543 2.922-4.492.263-.357.378-.825.233-1.379z" fill="#f2bf8c"/><path d="m101.484 59.292c.01.03.015.058.021.088.067.204.093.28-.021-.088z" fill="#f2bf8c"/><path d="m30.034 66.407c-.087-.093-.17-.189-.252-.285.131.155-.009-.062-.091-.185.266-1.992-2.896-2.746-3.521-.644-.55 1.851 1.039 3.497 2.372 4.509.846.643 2.021.821 2.975.328.715-.369 1.141-1.07 1.513-1.754 1.075-1.969-1.816-3.731-2.996-1.969z" fill="#f2bf8c"/><path d="m35.811 59.832c-.257-.051-.435-.079-.645-.189.022.012-.02.572-.011-.143.013-1.061-.832-1.682-1.792-1.792-.828-.097-1.518.365-1.906 1.067-.176.317-.248.63-.24.923-.478 1.131-.949 2.263-1.463 3.377-.503 1.091-.059 2.188.96 2.565.544.295 1.225.293 1.76-.024.432-.257.803-.582 1.126-.964.137-.162.266-.33.402-.493.036-.043.063-.072.091-.101.516-.053.901-.293 1.158-.627.327-.056.658-.158.987-.324 1.346-.682 1.075-2.977-.427-3.275z" fill="#161616"/><path d="m58.639 78.113c-.547-.322-1.214-.305-1.749-.022-.411-.075-.847-.021-1.225.201-.846.495-1.131 1.604-.643 2.45.04.078.061.113.07.125.016.047.033.092.047.138.058.185.103.372.155.558.183.654.489 1.166.904 1.693.826 1.057 2.733.438 2.995-.79.106-.5.136-.999.132-1.506-.001-.169 0-.337.005-.507.407-.83.118-1.867-.691-2.34z" fill="#161616"/><path d="m98.783 55.724c-.012-.015-.026-.027-.038-.042-.068-.101-.132-.206-.196-.31-.195-.317-.408-.625-.66-.902-.455-.499-1.172-.619-1.791-.43-.115-.042-.23-.082-.345-.121-.927-.313-1.957.351-2.204 1.251-.271.982.326 1.893 1.251 2.205.163.055.324.111.485.172.104.048.207.1.308.151.14.073.271.159.398.249l.001.001c-.25-.167.178.211.257.31.665.717 1.862.672 2.534 0 .749-.749.608-1.772 0-2.534z" fill="#161616"/><path d="m65.208 18.035c-.25.018-.489.077-.718.179-.114.039-.197.104-.257.182-.233.094-.466.2-.7.305-.142-.213-.411-.335-.694-.164-.382.232-.772.447-1.166.656-.029-.004-.054-.013-.086-.012-2.234.05-4.398 1.27-5.988 2.944-.905.631-1.752 1.353-2.545 2.052-.383.337-.049.901.387.912-.753 1.026-1.484 2.067-2.174 3.14-.151.234-.097.457.048.604-.086.042-.167.104-.228.203-.274.444-.45.905-.605 1.383-.209.046-.378.21-.364.5.012.233.032.37.109.591.057.162.17.269.3.328.033.048.07.099.113.159.251.348.873.368.982-.128.019-.085.042-.168.063-.253.008-.006.017-.012.024-.018.015-.011.03-.016.043-.029.104-.092.202-.188.296-.284.257.234.771.217.918-.222 1.771-5.293 7.301-10.233 12.526-11.989.67-.228.39-1.145-.284-1.039z" fill="#4c4c4c"/><path d="m51.474 46.28c.047-.503.045-.962-.012-1.474-.061-.542-.677-.721-1.002-.271-.033.045-.073.085-.11.128-.272-.075-.595.038-.661.359-.007.053-.023.105-.032.158-.215.11-.45.205-.701.287-.459.039-.949.171-1.45.357-.739.147-1.459.272-1.983.474-1.495.575-2.855 1.491-4.298 2.183-1.135.544-2.351 1.068-3.391 1.776-.104.043-.208.085-.314.125-.098.037-.176.1-.235.178-.054.01-.107.026-.162.056-.096.051-.185.107-.278.161-.417.082-.792.245-1.095.541-.354.085-.701.184-.976.458-.191.191-.326.421-.439.667-.198-.036-.413.031-.541.248-.286.489-.511.937-.681 1.473-.052.164-.016.315.069.434 0 .022-.001.044.001.068.153 1.41.456 2.796 1.328 3.945.197.26.497.306.719.185-.031.056-.06.112-.091.169-.341.604.588 1.146.928.543.62-1.101 1.064-2.283 1.706-3.375.992-1.688 2.485-2.981 4.07-4.087 2.814-1.963 5.783-4.84 9.439-4.727.623.014.684-.845.192-1.039zm-12.259 6.475c.072-.106.143-.21.214-.314.116-.048.23-.102.345-.154-.19.151-.377.307-.559.468z" fill="#4c4c4c"/><path d="m57.034 40.955c.268-.63-.658-1.179-.929-.542-.136.32-.248.639-.35.959-.026-.026-.048-.057-.08-.078-.068-.046-.136-.085-.205-.128-.007-.264-.179-.54-.515-.573-.722-.064-1.342-.34-1.86-.828-.167-.133-.359-.163-.523-.119-.254-.559-1.11-.267-1.002.373.064.378.09.788.124 1.202-.021.413-.089.826-.144 1.254-.041.32.223.503.499.52.069.159.153.309.253.451-.198.113-.339.34-.285.605.266 1.301.712 2.59 1.377 3.747.082.331.16.665.236 1.002.083.373.421.452.691.339.178.196.463.178.666.041.013.003.027.005.041.007.059.348.147.675.276.962.116.255.511.345.736.193.027-.019.054-.037.082-.056.356-.241.281-.694.034-.906-.294-.932-.112-2.389-.08-3.268.067-1.764.261-3.518.958-5.157zm-2.096 4.726c-.007-.049-.016-.098-.022-.147.022-.057.037-.121.041-.191.002-.045-.001-.089 0-.134.036-.14.072-.28.114-.419.015 0 .028.001.042 0-.038.394-.07.793-.1 1.197-.025-.102-.05-.204-.075-.306z" fill="#4c4c4c"/><path d="m75.007 33.642c-.063-.18-.198-.287-.349-.339-.008-.123-.055-.241-.146-.346-.226-.252-.461-.486-.701-.712-.149-1.733-2.888-3.664-4.334-2.959-5.324-2.531-12.572-1.222-17.14 2.327-.265.207-.22.49-.043.679-.085.029-.169.06-.257.079-.678.143-.39 1.18.286 1.037 1.294-.272 2.372-1.473 3.558-2.044 1.953-.941 4.154-1.295 6.295-1.458 3.074-.233 6.273.165 8.913 1.673.142.111.277.228.41.347.66.995.896 2.409 1.097 3.498.141.767.405 2.448.1 3.608-1.213.721-3.603.732-4.723.806-2.205.145-4.434-.01-6.631-.19-1.529-.125-3.066-.261-4.583-.495-1.104-.17-3.728-.379-4.293-1.517-.309-.621-1.236-.076-.928.542.561 1.127 2.229 1.441 3.324 1.703 1.746.418 3.543.559 5.325.736 2.243.223 4.502.379 6.756.327-.131.328.022.762.47.726 1.229-.1 2.438-.34 3.675-.358.241-.003.396-.138.471-.31.104.187.303.303.567.201.649-.249 1.062-.712 1.322-1.275.069.226.239.399.506.399.534 0 .847-.533 1.062-1.085.351-.293.655-.714.381-1.126.432-1.463.105-3.082-.39-4.474z" fill="#c99363"/><path d="m101.301 58.492c-.121-.12-.27-.163-.412-.15-.021-.025-.043-.049-.068-.068-.051-.174-.111-.352-.188-.528-.214-.515-1.092-.517-1.056.144.008.142.026.291.053.444-.31.067-.597.424-.427.812.722 1.656.413 3.73-.055 5.41-.176.635.631.867.981.414 1.328-1.719 3.105-4.568 1.172-6.478z" fill="#c99363"/><path d="m33.228 66.973c-.028-.688-.858-.82-1.387-.843-.099-.004-.185.028-.261.075-.357-.576-1.269-.04-.92.556.579.986-.069 2.308-.812 3.021-.242.231-.196.685.109.845 1.842.966 2.73-1.136 2.92-2.715.204-.296.363-.627.351-.939z" fill="#c99363"/><path d="m60.904 84.064c.125-.248.187-.534.234-.91.062-.483-.529-.643-.861-.415-.149-.306-.592-.394-.863-.146-.484.44-1.012 1.315-1.747 1.373-.109-.015-.204-.05-.271-.119-.229-.229-.512-.186-.703-.025-.393.129-.591.695-.127.961.102.058.203.115.304.173-.004.01-.01.019-.013.026-.061.156-.124.326-.185.502-.277.35-.474.841-.532 1.201-.021.131.012.266.077.383-.326 1.466-.406 3.091.335 4.15.072.104.173.184.286.227.062.057.126.104.193.148.053.083.112.161.184.229.188.174.388.273.589.316.001.1.019.196.073.295.085.157.282.279.464.268.07-.006.13-.02.185-.041.202.204.54.498.751.23.031-.035.056.11.084.11h.002c.021 0 .045-.275.066-.305.497-.402.792-.994 1.188-1.545.19-.289.064-.611-.159-.746.338-1.066.519-2.229.75-3.317.022-.101.019-.201 0-.278.103-.884.029-1.804-.304-2.745z" fill="#0c0c0c"/><path d="m73.593 79.768c.136-.354.308-.688.562-.981.203-.239.228-.69-.109-.845-.574-.262-1.091-.178-1.372.115-.075-.037-.153-.076-.241-.115-.152-.067-.308-.063-.443-.018-.209-.086-.416-.175-.621-.267-.119-.349-.376-.591-.816-.791-.341-.156-.65-.021-.789.319-.056.109-.096.225-.136.338-.19.045-.366.188-.401.381-.048.367-.138.727-.27 1.074-.008.026-.012.051-.016.075-.736 1.108-.631 2.55-.375 3.992-.146 1.396-.186 2.83.707 3.892.308.366.896.069.916-.357.162.273.356.493.592.604.314.146.591.156.834.077.13.021.267 0 .371-.059.664-.376.938-.925 1.123-1.566.182-.036.338-.155.379-.368.237-1.245 1.337-4.377.105-5.5z" fill="#0c0c0c"/><path d="m83.091 60.669c-.081-.142-.176-.292-.28-.442-.033-.17-.065-.34-.098-.511-.064-.356-.434-.45-.717-.343-.29-.2-.613-.313-.959-.268-.01-.065-.018-.131-.025-.196-.101-.685-1.136-.394-1.037.286.491 3.402.233 6.285-.902 9.527-.977 2.786-2.295 5.51-4.424 7.601-.448.438.119 1.122.649.844 1.097-.577 2.082-1.349 2.933-2.252.078.017.162.015.254-.022 1.988-.819 2.959-3.351 3.682-5.201.425-1.086.911-2.471 1.128-3.848.083-.085.144-.197.156-.341.164-1.689.531-3.291-.36-4.834zm-1.829.784c.096.542.125 1.099.098 1.658-.031.072-.062.143-.092.214.026-.617.024-1.239-.006-1.872z" fill="#2d2d2d"/><path d="m69.29 60.827c-.979.604-1.995 1.231-2.871 1.998-1.743.942-3.665 1.268-5.61.666-.071-.177-.228-.491-.476-.491h-.448c-.163 0-.298.264-.395.381-.71-.533-1.325-1.016-2.202-1.387-.63-.268-1.179.701-.542.972 1.039.439 1.799 1.333 2.728 1.912-.068.214-.008.478.229.63.846.544 1.775.829 2.727 1.135.353.114.644-.179.67-.492.221.052.445.102.674.14.234.038.42-.058.538-.206.62.122 1.252.057 1.847-.206.211-.093.284-.305.258-.509.045.009.095.018.136.025.512.106.801-.461.614-.805.324-.176.646-.37.964-.594.389-.273.273-.771-.038-.941.644-.423 1.261-.892 1.849-1.383.474-.397-.139-1.161-.652-.845z" fill="#2d2d2d"/><path d="m78.521 42.745c-.027-.568-.688-.689-1.002-.271-.148.197-.283.401-.41.609-.103-.098-.426-.159-.566-.159-.132 0-.543.013-.543.033v-.122c0-.543-.54-.724-.816-.271-.312.509-.354.936-.43 1.526-.014.114.063.211.115.291-.072.809-.311 1.574-.688 2.305-.104.198-.063.389.03.536-.051.113-.099.226-.149.339-.694.945-1.492 1.805-2.375 2.601-.015.012-.021.026-.033.039-.6.448-1.17.929-1.758 1.395-.119.095-.17.216-.172.338-.197.135-.402.264-.613.384-.168.094-.244.229-.262.37-.277.078-.555.146-.832.208-.012-.091-.033-.18-.082-.254-.054-.418-.541-.647-.906-.329-.016.015-.025.03-.041.045-1.92-.19-3.882.135-5.708-.632-.639-.269-.915.772-.286 1.037.027.011.053.02.08.03-.04.021-.079.042-.119.063-.013.007-.021.018-.034.025-.567-.53-1.194-.932-1.935-.995-.691-.059-.686 1.017 0 1.075.948.081 2.011 1.621 2.593 2.278.754.854 1.521 1.605 2.427 2.303.015.008-.006.019-.006.026v.14c0 .416.521.66.855.462 2.002 1.438 4.326 2.678 6.832 2.584.396-.015.709-.449.488-.809-.042-.077-.083-.153-.126-.229-.21-.502-.911-.428-1.053-.053-1.925-.138-3.75-1.088-5.372-2.259.613-.729 1.157-1.535 1.572-2.396.085-.04.173-.075.267-.098.447-.112.468-.604.233-.874 5.665-1.039 11.107-5.293 10.825-11.291zm-15.039 12.916c.097.024.196.043.296.058.073.146.153.286.239.412-.184-.158-.359-.314-.535-.47zm13.629-10.194c-.164.55-.381 1.078-.649 1.579.22-.525.429-1.056.649-1.579z" fill="#2d2d2d"/><path d="m79.059 49.644c-.317-.007-.59.086-.817.242-.005-.009-.005-.018-.007-.027-.164-.535-.855-.488-1.037 0-.12.325-.147.651-.192.985-.031.067-.006.144-.006.234v.358c0 .033-.041.064-.036.094.011.516-.019 1.036-.228 1.517-.273.628.641 1.177.916.542.186-.424.266-.844.307-1.272.167-.03.313-.147.367-.379.063-.393.216-1.229.734-1.218.694.014.692-1.061-.001-1.076z" fill="#2d2d2d"/><path d="m78.109 25.919c-.045.019-.082.041-.125.062-.002-.003-.002-.005-.004-.007-.012.008-.022.018-.035.026-.022.011-.045.022-.066.034.168-.44-.305-.724-.68-.625-.122-.244-.415-.372-.667-.276-.171-.342-.834-.397-1.038.088-.783 1.86-1.553 3.733-1.453 5.787.021.427.482.647.809.459-.004.115-.006.23-.002.347.004.119.049.222.118.308-.013.105-.022.212-.028.32-.033.698 1.07.683 1.125 0 .019-.235.129-.466.129-.696v-.001c0-.08-.019-.158-.004-.237.002-.007-.021-.014-.02-.021.619-1.279 1.17-2.573 1.588-3.933.26-.246.518-.466.773-.651.455-.329.183-1.236-.42-.984zm-2.285 1.34c.002.002.004.003.007.005.002.067.008.135.011.203-.089.173-.179.347-.269.52.077-.244.161-.487.251-.728z" fill="#2d2d2d"/><path d="m87.497 35.664c-.271-.355-.761-.249-.952.02-.128-.014-.256.012-.363.091-.283-.363-.771-.618-1.492-.722-.392-.302-.789-.524-1.144-.594-.058-.55-.241-1.076-.618-1.572-.271-.356-.951-.322-.992.181-.174-.1-.354-.195-.543-.284-.181-.084-.363-.064-.514.014-.174-.142-.355-.273-.563-.373-.315-.151-.684-.03-.789.322-.01.033-.012.065-.02.098-.332-.171-.662-.339-.984-.509-.61-.325-1.154.604-.543.928.733.389 1.463.758 2.15 1.189.651.719 1.621 1.359 2.158 1.882.829 1.04 1.451 2.249 2.393 3.206.217.221.541.191.76 0 .142-.121.262-.254.373-.392.233.141.601.082.787-.165.608-.797 1.65-2.332.896-3.32zm-3.476.276c-.002.016-.008.034-.01.05-.031.015-.061.032-.084.052-.115.02-.287-.058-.475-.18.006-.031.012-.062.018-.093.065-.143.279-.046.551.171z" fill="#f90b1c"/><path d="m71.264 66.938c.032-.517-.781-.763-1.002-.271-.271.609-.553 1.232-.871 1.829-.179 0-.361.069-.473.231-.188.271-.375.545-.563.813-.85.459-1.861.735-2.754.981-2.276.631-4.843.387-6.5-1.457-.218-.241-.499-.201-.69-.039-.046-.108-.1-.213-.153-.316.379-.072.669-.557.305-.896-.902-.849-1.958-1.445-3.085-1.944-.483-.216-1.014-.472-1.539-.552-.211-.031-.781-.059-.983-.094-.201-.293-.65-.402-.856-.035-.263.119-.459.432-.294.767.692 1.403 1.862 2.524 2.783 3.79.119.181.243.357.368.535 1.293 2.029 1.558 4.357 1.605 6.695-.147.154-.218.385-.097.627.06.119.12.239.179.357.245.489 1.005.244 1.002-.271-.001-.238-.006-.477-.011-.713.139.014.281-.029.392-.162.743-.884 1.097-2.052 1.293-3.172.064-.367.066-.688.028-.986.178.15.361.291.556.41.268.271.542.533.839.771.006.007.012.014.019.021l.002-.004c.036.029.07.061.107.088.304.229.628.024.747-.266.138.059.278.114.419.16.081.148.23.262.449.268.326.006.646.015.959.015.579.042 1.176-.009 1.782-.151.037-.008.071-.018.106-.025.086-.021.173-.043.259-.069.098-.027.192-.06.288-.095.052-.018.101-.03.152-.051 0-.002-.001-.002-.003-.006.044-.017.088-.029.132-.049.095-.04.159-.102.204-.175.201.114.455.122.621-.087.019-.021.033-.047.053-.069.332-.073.665-.202 1.006-.43.967-.647 1.663-1.8 2.036-2.875.06-.168.03-.312-.045-.422.689-.661 1.155-1.521 1.228-2.676zm-12.404 3.695c-.035-.131-.069-.262-.108-.392.108.1.221.19.333.28-.08.021-.157.059-.225.112z" fill="#2d2d2d"/><path d="m51.12 51.971c-.407-.551-1.341-.016-.928.543.172.233.336.47.494.708-.208-.215-.419-.428-.635-.643-.492-.489-1.252.271-.76.76.971.965 2.032 1.934 2.498 3.261.388 1.106.492 2.284 1.002 3.352.005.012.013.021.02.031.032.658 1.067.646 1.072-.034.02-2.978-1.008-5.601-2.763-7.978z" fill="#2d2d2d"/><g fill="#05093f"><path d="m67.512 66.541c1.538-3.928 5.047-6.887 9.119-7.913 3.526-.888 6.954.513 6.967 4.511.006 2.564-1.183 5.139-2.324 7.371-1.311 2.564-3.178 5.199-5.95 6.286-1.353.53-3.079.515-4.347-.224-1.158-.674-.947-2.381-.758-3.469.43-2.448 1.526-4.736 2.07-7.16.152-.674-.885-.961-1.036-.285-.677 3.007-2.29 5.937-2.251 9.068.036 2.847 2.834 3.697 5.243 3.431 3.155-.353 5.461-3.024 7.062-5.531 1.664-2.608 3.002-5.737 3.33-8.83.469-4.438-2.988-7.014-7.177-6.411-4.919.709-9.188 4.284-10.985 8.872-.252.645.787.923 1.037.284z"/><path d="m69.754 70.906c-1.797 2.963-6.813 4.515-9.519 1.802-1.597-1.601-1.526-4.22-3.255-5.853-.503-.477-1.266.283-.76.761 2.188 2.065 1.832 5.565 4.827 6.933 3.416 1.559 7.742.024 9.637-3.1.359-.595-.571-1.135-.93-.543z"/><path d="m58.929 72.73c-.058 1.806-.34 3.949-1.945 5.067-1.207.841-2.805.556-4.095.106-3.509-1.227-6.396-4.66-7.524-8.118-1.206-3.698.383-9.67 5.031-9.632 4.066.035 7.964 4.017 9.921 7.231.36.591 1.29.052.928-.543-2.296-3.772-6.716-7.972-11.461-7.753-5.119.236-6.631 6.969-5.456 10.98 1.188 4.055 4.762 7.779 8.799 9.043 4.533 1.416 6.748-2.372 6.877-6.385.023-.689-1.053-.687-1.075.004z"/><path d="m59.434 65.907c2.795 2.05 7.22 1.503 8.979-1.626.34-.605-.589-1.147-.929-.543-1.493 2.656-5.187 2.943-7.508 1.24-.559-.41-1.095.524-.542.929z"/><path d="m48.324 54.081c2.245 1.458 3.557 3.64 4.412 6.129.224.651 1.263.372 1.037-.286-.949-2.763-2.417-5.156-4.906-6.772-.584-.379-1.122.553-.543.929z"/><path d="m77.445 57.559c.271-2.582 1.072-4.994 2.556-7.136.396-.572-.537-1.108-.929-.542-1.594 2.303-2.41 4.908-2.701 7.678-.073.689 1.004.681 1.074 0z"/><path d="m58.47 51.967c1.952 5.541 7.125 7.906 12.322 9.694.657.226.938-.813.286-1.037-4.797-1.649-9.758-3.794-11.571-8.943-.229-.649-1.268-.369-1.037.286z"/><path d="m50.686 37.966c.313 3.629-.024 8.104 2.358 11.15 2.227 2.848 6.258 3.261 9.628 3.515 3.404.256 6.859.144 9.421-2.358 2.652-2.591 3.966-6.882 3.921-10.516-.01-.693-1.084-.694-1.076 0 .043 3.344-1.135 6.871-3.304 9.431-2.25 2.656-5.772 2.561-8.962 2.368-2.898-.176-6.536-.569-8.591-2.847-2.457-2.722-2.028-7.355-2.319-10.744-.06-.684-1.136-.69-1.076.001z"/><path d="m49.326 37.043c2.548 3.799 8.912 4.45 13.021 4.847 4.691.453 10.852.739 14.463-2.827.494-.488-.267-1.248-.761-.76-3.222 3.181-8.659 2.864-12.853 2.582-2.561-.172-5.112-.593-7.579-1.304-1.89-.544-4.215-1.367-5.364-3.081-.383-.572-1.315-.035-.927.543z"/><path d="m51.071 43.356c-1.322.914-2.922 1.451-4.405 2.038-2.148.852-4.302 1.687-6.408 2.64-2.857 1.293-7.672 3.417-8.112 7.038-.44 3.619 3.958 7.084 7.342 6.027 4.411-1.375 6.298-7.568 11.018-8.141.68-.082.688-1.158 0-1.075-3.908.474-6.354 4.513-9.138 6.864-1.915 1.618-4.001 2.05-6.051.391-1.361-1.103-2.528-2.754-1.957-4.552 1.049-3.3 6.213-5.119 9.045-6.33 2.985-1.274 6.516-2.112 9.208-3.973.567-.39.031-1.323-.542-.927z"/><path d="m78.104 50.211c3.39-.015 5.623 1.355 8.34 3.154 1.815 1.2 3.531 1.928 5.703 2.132 3.306.311 7.533-1.144 5.654-5.14-.295-.627-1.221-.081-.929.543 1.983 4.216-4.94 3.751-7.19 3.019-1.931-.627-3.59-2.146-5.299-3.2-1.927-1.188-4.039-1.593-6.279-1.583-.694.003-.694 1.078 0 1.075z"/><path d="m75.714 42.805c4.464.014 8.931.26 13.38.597.692.052.688-1.023 0-1.075-4.449-.337-8.916-.583-13.38-.597-.694-.002-.693 1.072 0 1.075z"/><path d="m88.596 43.125c2.746 2.571 6.094 4.657 8.276 7.776.396.563 1.328.027.929-.543-2.246-3.208-5.619-5.349-8.445-7.993-.506-.474-1.269.285-.76.76z"/><path d="m53.233 79.441c1.262 1.059 1.69 2.775 2.798 3.973.771.834 2.348.911 3.259.279 1.93-1.338.162-5.014.028-6.781-.053-.688-1.128-.692-1.076 0 .127 1.676 1.36 4.027.639 5.641-.255.57-1.046.483-1.541.412-.63-.092-1.019-.892-1.31-1.372-.615-1.017-1.109-2.132-2.038-2.909-.527-.444-1.292.313-.759.757z"/><path d="m56.219 84.297c-1.824 2.309-1.625 10.422 2.922 8.88 1.914-.649 2.643-3.327 2.839-5.082.258-2.307.177-5.227-1.749-6.813-.125.305-.231.529-.231.886 1 0 1-1.075 0-1.075 0 0 1 0 0 0 0 0-.903.64-.527.948 2.456 2.023 2.077 7.167.202 9.486-1.547 1.912-3.169-.267-3.344-1.912-.127-1.204-.144-3.536.667-4.563.425-.536-.349-1.299-.779-.755z"/><path d="m69.156 76.641c-1.17 2.236-1.596 5.109-1.273 7.598.246 1.897 1.692 4.302 3.973 3.779 2.023-.463 2.523-2.852 2.754-4.61.219-1.667.438-4.488-.553-5.992-.377-.578-1.31-.039-.928.542.648.986.518 2.717.51 3.838-.011 1.573-.152 3.645-1.322 4.831-.739.751-1.914.229-2.528-.388-.761-.766-.877-2.09-.925-3.098-.094-1.955.311-4.211 1.223-5.957.319-.614-.608-1.159-.931-.543z"/><path d="m65.581 58.655c1.716-1.677 2.78-3.987 3.603-6.21.241-.652-.797-.931-1.035-.286-.756 2.043-1.75 4.194-3.328 5.735-.497.486.264 1.247.76.761z"/><path d="m51.861 38.085c.43-2.509-.333-5.761 1.851-7.288 2.418-1.69 6.114-1.998 8.953-2.199 3.085-.219 6.454-.083 9.114 1.656 2.598 1.697 3.728 5.103 3.396 8.068-.076.688.999.682 1.075.001.347-3.115-.804-6.189-3.084-8.331-2.479-2.327-6.226-2.576-9.44-2.513-3.39.066-7.184.563-10.206 2.185-2.777 1.492-2.201 5.326-2.698 8.147-.119.678-.159.274-.038-.443z"/><path d="m51.383 32.806c-.46-1.455-.192-2.141-1.8-2.831.037.282.073.563.109.845 2.073-1.787 3.332-4.097 4.721-6.411 1.78-2.964 4.094-4.554 7.484-5.262 3.841-.803 7.962-.722 11.766.222 3.333.828 8.146 3.127 8.702 6.913.123-.22.248-.44.373-.661-2.018.312-3.854-.65-5.854 0-.654.214-.376 1.252.287 1.037 1.909-.622 3.883.304 5.854 0 .313-.048.414-.399.375-.662-.53-3.621-4.344-5.723-7.408-6.998-3.924-1.632-8.542-1.708-12.693-1.167-3.442.449-6.473 1.53-8.658 4.326-2.037 2.607-3.143 5.69-5.708 7.903-.242.209-.2.712.109.844 1.217.522.978 1.149 1.306 2.188.207.658 1.245.376 1.035-.286z"/><path d="m76.352 33.928c.403-1.203.834-2.396 1.306-3.575.295-.741.622-1.468.991-2.176.186-.356.781-1.045.629-1.181.519.455 1.283-.302.76-.76-2.023-1.774-4.35 6.297-4.721 7.405-.223.66.816.941 1.035.287z"/><path d="m76.646 31.316c3.143.921 15.328-2.4 12.646 4.237-.26.645.78.92 1.037.286 3.276-8.108-9.808-4.507-13.396-5.56-.667-.195-.951.843-.287 1.037z"/><path d="m89.477 35.178c-1.731-.493-3.504-.479-5.279-.258.172.227.346.453.518.681.371-2.291-2.459-3.339-4.183-3.918-1.07-.36-4.812-1.686-5.794-.548-.451.522.305 1.286.76.76.427-.494 3.463.453 4.088.624 1.087.297 4.354 1.188 4.092 2.796-.049.304.141.728.52.68 1.68-.208 3.353-.247 4.994.22.664.19.95-.847.284-1.037z"/><path d="m76.04 32.457c3.249 2.343 6.308 4.952 8.407 8.409.146.24.488.356.736.193 1.799-1.183 3.614-3.218 2.756-5.505-.241-.642-1.28-.364-1.037.286.687 1.825-.859 3.37-2.262 4.291.246.064.49.128.736.193-2.199-3.616-5.396-6.344-8.795-8.795-.561-.407-1.099.527-.541.928z"/><path d="m92.656 55.758c1.423 1.143 2.818 2.316 4.211 3.495.525.445 1.29-.312.761-.761-1.394-1.178-2.789-2.352-4.212-3.494-.534-.429-1.301.326-.76.76z"/><path d="m97.088 52.833c.452 1.58 1.279 3.02 1.936 4.519.277.635 1.203.086.93-.543-.619-1.414-1.4-2.771-1.828-4.261-.192-.666-1.23-.382-1.038.285z"/><path d="m97.749 59.749c1.117-.358 1.897-1.19 2.347-2.257.113-.271-.119-.592-.375-.661-.312-.085-.549.104-.66.375-.295.702-.871 1.272-1.598 1.507-.656.212-.376 1.25.286 1.036z"/><path d="m95.973 58.762c-1.054 1.258-1.93 3.057-1.572 4.745.436 2.06 2.281 2.653 4.191 2.533 4.635-.289 4.608-6.7 2.172-9.34-.472-.511-1.229.252-.761.761 1.909 2.066 2.108 6.648-1.188 7.471-3.955.984-3.86-3.281-2.082-5.41.44-.529-.316-1.293-.76-.76z"/><path d="m32.271 56.451c-1.175 2.339-2.408 4.648-3.584 6.988-.31.617.617 1.162.929.541 1.176-2.338 2.409-4.647 3.584-6.987.311-.617-.617-1.162-.929-.542z"/><path d="m33.007 65.877c1.971-1.513 3.855-3.129 5.664-4.832.505-.477-.256-1.234-.76-.76-1.741 1.64-3.549 3.207-5.446 4.664-.542.416-.008 1.351.542.928z"/><path d="m28.723 64.212c.369 2.058 2.322 3.121 4.105 1.845.559-.398.022-1.332-.542-.928-1.242.889-2.275.198-2.525-1.202-.123-.683-1.159-.393-1.038.285z"/><path d="m28.472 63.014c-1.557.471-2.917 1.528-2.841 3.293.068 1.565 1.178 3.006 2.368 3.934 1.165.906 2.697 1.521 4.131.896 1.905-.83 1.952-3.652 1.86-5.365-.037-.688-1.112-.691-1.075 0 .073 1.364.173 3.602-1.239 4.393-.938.525-2.168-.148-2.926-.693-.949-.681-1.75-1.729-2.005-2.881-.307-1.382.838-2.184 2.013-2.538.661-.201.379-1.24-.286-1.039z"/><path d="m51.644 29.321c3.554-2.672 8.168-3.399 12.515-3.221 5.098.21 9.601 1.984 12.644 6.164.404.555 1.338.019.93-.542-1.436-1.971-2.94-3.535-5.129-4.654-2.164-1.107-4.584-1.637-6.979-1.924-4.892-.586-10.508.231-14.522 3.25-.548.41-.014 1.344.541.927z"/><path d="m58.454 33.231c-2.571-1.179-4.229 3.451-1.771 4.458.834.342 1.719-.429 2.18-1.031.569-.743.98-1.746.824-2.695-.142-.865-.962-1.637-1.879-1.459-.85.166-1.338 1.028-1.591 1.781-.23.683-.315 1.717.356 2.188.755.53 1.813-.191 2.259-.807.587-.811.071-2.085-.839-2.388-1.537-.512-1.699 1.601-1.602 2.569.032.32.324.647.681.518.402-.146.828-.273 1.168-.542.37-.292.515-.711.787-1.078.12-.16.076-.379 0-.542-.153-.333-.72-.605-1.061-.678-.309-.065-.721.15-.68.519.007.064-.188.371-.221.455-.064.159-.11.317-.135.488-.057.397.037.792.107 1.184.059.322.522.516.79.321.316-.23.526-.444.653-.818.111-.328-.028-.691.042-1.026.141-.677-.896-.964-1.037-.286-.07.334.085.993-.201 1.202.263.107.526.214.79.321-.05-.274-.131-.557-.065-.834.075-.314.387-.686.352-1.006-.227.173-.454.346-.681.518.064.014.041.029.11.061.092.042.21.232.21.123 0-.181 0-.362 0-.542 0 .228-.215.5-.405.716-.203.231-.559.31-.834.41.227.173.465.346.692.519-.046-.464-.076-.936.057-1.388.022-.079.078-.154.126-.184-.062.037-.05-.011.001.011.342.146.475.592.23.879-.16.187-.477.401-.727.408.059-.001-.008-.166-.011-.294-.014-.553.235-1.178.623-1.569.384-.387.845.064.89.495.07.666-.284 1.386-.694 1.888-.244.298-.804.866-1.151.401-.515-.688-.024-2.856 1.114-2.334.625.283 1.172-.643.543-.932z"/><path d="m68.747 33.759c-2.884-.187-2.478 5.207.177 4.782 1.958-.313 2.118-3.739 1.028-4.924-.7-.763-1.873-.617-2.453.172-.554.754-.479 2.034-.127 2.849.938 2.169 3.726-.543 2.252-2.161-.429-.47-1.283-.709-1.821-.294-.906.699-.328 2.029.076 2.841.165.33.6.321.846.109.322-.28.646-.548.868-.919.216-.362.216-.791.304-1.188.041-.176.012-.399-.138-.523-.309-.258-.827-.342-1.222-.293-.326.04-.641.316-.52.68.092.279-.033.773.022 1.096.062.35.31.686.487.981.214.352.715.343.93 0 .491-.785.068-1.204-.072-1.998-.119-.681-1.156-.604-1.035.073.071.401.419.958.178.958h.931c-.158 0-.367-.312-.394-.623-.025-.313.09-.58-.01-.878-.174.227-.347.508-.519.734.077-.01.155.022.235.026.148.008.438.169.227-.009-.047-.175-.094-.342-.141-.516-.067.306-.062.643-.194.934-.131.286-.472.506-.701.704.282.036.563.073.845.109-.203-.407-.408-.839-.408-1.303-.002-.188-.002-.133.131-.13.445.011.549.551.39.858-.331.639-.493.638-.661.013-.117-.436-.174-1.35.244-1.667.494-.375.9.395.991.754.161.633.028 1.397-.261 1.974-.9 1.799-2.479-2.274-.485-2.145.692.045.689-1.031 0-1.076z"/></g><circle cx="57.264" cy="34.183" fill="#fff" r="1.094"/><circle cx="68.375" cy="34.542" fill="#fff" r="1.094"/><circle cx="68.688" cy="37.281" fill="#05093f" r=".491"/><circle cx="56.984" cy="36.516" fill="#05093f" r=".246"/><path d="m18.729 29.234v53.12l46.074 26.561 46.073-26.561v-53.12l-46.072-26.56zm90.283 1.08v50.97l-44.209 25.49-44.211-25.49v-50.97l44.211-25.489z" opacity=".13"/></svg>