<svg enable-background="new 0 0 110.979 128.417" height="128.417" viewBox="0 0 110.979 128.417" width="110.979" xmlns="http://www.w3.org/2000/svg" xmlns:xlink="http://www.w3.org/1999/xlink"><radialGradient id="a" cx="55.6987" cy="65.0386" gradientUnits="userSpaceOnUse" r="44.5"><stop offset="0" stop-color="#fff"/><stop offset=".0858" stop-color="#fffff7" stop-opacity=".9142"/><stop offset=".2183" stop-color="#fffde1" stop-opacity=".7817"/><stop offset=".3809" stop-color="#fffcbe" stop-opacity=".6191"/><stop offset=".5673" stop-color="#fff98d" stop-opacity=".4327"/><stop offset=".7739" stop-color="#fff64e" stop-opacity=".2261"/><stop offset=".9945" stop-color="#fff202" stop-opacity=".0055"/><stop offset="1" stop-color="#fff200" stop-opacity="0"/></radialGradient><path d="m110.849 96.429-55.425 31.988-55.424-31.988v-63.98l55.424-31.989 55.425 31.989z" fill="#ff2929"/><path d="m101.923 38.172v53.121l-.01.01-1.42.811-4.15 2.389-.199.121-1.932 1.109-2.719 1.57-.24.129-.131.051-.109.07-.85.49-.92.529-.861.49-.02.01-.25.15-.129.07-.061.029-.76.439-1.051.602-.039.029-1.23.709-.369.211v.01l-.08.041-.021.02h-.01l-.65.369-.889.52-.531.32-.34.201-1.26.719-.119.07-.08.051-.311.18-.1.061-.029.01-.16.09v.01l-.141.08-.15.09-.1.051-.391.229-.18.09-.02.021-.041.02-1.01.58-.289.17-.371.209-.24.141h-.01l-.709.42-1.141.66-3.48 2.01-.629.361-.061.029-3.5 2.029-4.039 2.33-.012.01-.43.25-3 1.721-.148.09-1.262.721-.238.139-1.061.611-.561.33h-.01l-.32.18-.48.289-1.42-.83-.85-.49-.03-.01-1.74-1.01-3.529-2.029-.04-.029-.32-.182-1.75-1.01-.021-.01-.149-.09-.101-.051-5.09-2.959-.689-.391-5.09-2.949-.391-.221-.49-.279-.33-.201-1.85-1.059-.57-.33-1.71-.99-2.51-1.461-.36-.209-.539-.301-1.19-.689-.82-.471-.09-.049-.5-.291-.01-.01-.21-.119h-.01l-1.04-.602c-.011-.01-.011-.01-.021-.01l-1.859-1.08-1.021-.59-2.11-1.229-.29-.17s-.01 0-.02-.012l-.28-.16-3.3-1.898-3.5-2.021-.08-.039-.03-.02v-53.121l14.33-8.271 1.99-1.159 4.93-2.83 1.58-.91.17-.09 1.66-.95.78-.46.38-.21.44-.27 1.1-.641.521-.3 2.279-1.3.69-.41 1.399-.801h.011l.05-.029 5.72-3.3.19-.11.27-.16 6.07-3.51 1.439-.83 1.061.62 6.49 3.75 2.6 1.5 4.91 2.83 7.02 4.05 1.039.61 2.301 1.3.869.5 1.521.88 1.369.79.801.46.09.06 1.811 1.041 3.779 2.18.039.029v.011l.26.14.66.391 1.461.84 1.939 1.119.781.44.439.25 1.939 1.12z" fill="#d83d3d"/><g fill="#ff2929"><path d="m36.783 19.347h10.348v10.348h-10.348z" transform="matrix(.7347 .6784 -.6784 .7347 27.7678 -21.9587)"/><path d="m51.029 11.412h10.348v10.348h-10.348z" transform="matrix(.7346 .6784 -.6784 .7346 26.1661 -33.7297)"/><path d="m64.554 19.707h10.348v10.347h-10.348z" transform="matrix(.7346 .6785 -.6785 .7346 35.3851 -40.7057)"/><path d="m36.903 37.38h10.348v10.348h-10.348z" transform="matrix(.7346 .6785 -.6785 .7346 40.0376 -17.2552)"/><path d="m51.149 29.445h10.349v10.348h-10.349z" transform="matrix(.7347 .6784 -.6784 .7347 38.4288 -29.0252)"/><path d="m64.673 37.741h10.348v10.347h-10.348z" transform="matrix(.7346 .6785 -.6785 .7346 47.6518 -36.001)"/><path d="m76.95 28.346h10.349v10.348h-10.349z" transform="matrix(.7347 .6784 -.6784 .7347 44.5258 -46.819)"/><path d="m77.07 46.38h10.348v10.347h-10.348z" transform="matrix(.7346 .6785 -.6785 .7346 56.8027 -42.1192)"/><path d="m91.316 38.445h10.348v10.347h-10.348z" transform="matrix(.7346 .6785 -.6785 .7346 55.1999 -53.8904)"/><path d="m36.949 55.347h10.349v10.348h-10.349z" transform="matrix(.7346 .6785 -.6785 .7346 52.2375 -12.5191)"/><path d="m51.195 47.411h10.348v10.348h-10.348z" transform="matrix(.7346 .6784 -.6784 .7346 50.634 -24.2898)"/><path d="m64.721 55.707h10.347v10.347h-10.347z" transform="matrix(.7347 .6784 -.6784 .7347 59.8471 -31.2645)"/><path d="m37.069 73.379h10.348v10.348h-10.348z" transform="matrix(.7346 .6785 -.6785 .7346 64.5123 -7.813)"/><path d="m51.316 65.444h10.348v10.348h-10.348z" transform="matrix(.7347 .6784 -.6784 .7347 62.8886 -19.5875)"/><path d="m64.84 73.74h10.347v10.347h-10.347z" transform="matrix(.7347 .6784 -.6784 .7347 72.113 -26.5605)"/><path d="m77.116 64.345h10.348v10.348h-10.348z" transform="matrix(.7348 .6783 -.6783 .7348 68.9834 -37.3807)"/><path d="m91.362 56.41h10.349v10.349h-10.349z" transform="matrix(.7347 .6784 -.6784 .7347 67.3876 -49.1507)"/><path d="m77.236 82.379h10.347v10.347h-10.347z" transform="matrix(.7347 .6784 -.6784 .7347 81.2628 -32.6785)"/><path d="m91.482 74.444h10.348v10.347h-10.348z" transform="matrix(.7346 .6785 -.6785 .7346 79.6769 -44.451)"/><path d="m37.282 91.346h10.349v10.348h-10.349z" transform="matrix(.7346 .6785 -.6785 .7346 76.7534 -3.1912)"/><path d="m51.529 83.41h10.348v10.349h-10.348z" transform="matrix(.7347 .6784 -.6784 .7347 75.1324 -14.9662)"/><path d="m65.054 91.706h10.347v10.348h-10.347z" transform="matrix(.7347 .6784 -.6784 .7347 84.3588 -21.9386)"/><path d="m38.235 108.712h10.347v10.348h-10.347z" transform="matrix(.7347 .6784 -.6784 .7347 88.7803 .7677)"/><path d="m51.648 101.445h10.347v10.347h-10.347z" transform="matrix(.7347 .6784 -.6784 .7347 87.405 -10.2613)"/><path d="m77.449 100.346h10.347v10.347h-10.347z" transform="matrix(.7347 .6784 -.6784 .7347 93.5083 -28.0558)"/><path d="m90.695 91.911h10.348v10.347h-10.348z" transform="matrix(.7346 .6785 -.6785 .7346 91.3196 -39.2809)"/><path d="m24.591 28.74h10.348v10.348h-10.348z" transform="matrix(.7347 .6784 -.6784 .7347 30.9055 -11.1947)"/><path d="m11.112 38.411h10.349v10.348h-10.349z" transform="matrix(.7346 .6785 -.6785 .7346 33.8918 .5161)"/><path d="m24.637 46.706h10.348v10.348h-10.348z" transform="matrix(.7346 .6785 -.6785 .7346 43.1103 -6.4583)"/><path d="m11.232 56.444h10.349v10.348h-10.349z" transform="matrix(.7346 .6785 -.6785 .7346 46.1582 5.2197)"/><path d="m24.757 64.739h10.348v10.349h-10.348z" transform="matrix(.7347 .6784 -.6784 .7347 55.3672 -1.7575)"/><path d="m11.445 74.411h10.349v10.348h-10.349z" transform="matrix(.7346 .6785 -.6785 .7346 58.4065 9.8442)"/><path d="m24.971 82.705h10.347v10.349h-10.347z" transform="matrix(.7347 .6784 -.6784 .7347 67.6173 2.8664)"/><path d="m11.565 92.444h10.349v10.348h-10.349z" transform="matrix(.7346 .6785 -.6785 .7346 70.6735 14.5483)"/><path d="m25.09 100.738h10.348v10.349h-10.348z" transform="matrix(.7347 .6784 -.6784 .7347 79.8768 7.5668)"/></g><circle cx="55.699" cy="65.039" fill="url(#a)" r="44.5"/><path d="m95.373 65.898c-.07-.316-.203-.569-.375-.775-.242-1.333-.611-2.627-1.383-3.697-.48-.665-1.25-.889-1.969-.783-.824-.47-1.656-.905-2.527-1.242-.387-.459-.943-.752-1.66-.684-.326-.008-.652-.016-.977-.023-.217-.031-.434-.055-.648-.071-.344-.025-.639.041-.906.147-.334-.328-.66-.492-1.01-.336-.146-.056-.289-.113-.445-.165-1.701-.568-3.717-1.171-5.537-.852-1.121-.388-2.396-.625-3.506-.955-1.623-.48-3.41-.787-4.943-.017-2.535-1.283-5.828-1.303-8.586-1.301-3.32.002-6.788-.25-10.209-.634-2.196-.765-4.261-.63-6.782-.919-.404-.046-.752.02-1.048.155-.32-.067-.64-.141-.963-.191-.586-.092-1.276.116-1.83.295-.013.004-.026.005-.04.009-1.515-.389-2.552-.738-4.111-.22-.174.058-.325.141-.465.233-.451-.058-.912-.132-1.396-.228-1.031-.204-2.212-.293-3.156.14-1.451-.235-3.158-.115-4.444.234-.053.014-.094.037-.143.054-1.381.122-2.733.379-3.969.91-.003.001-.005.001-.008.002-.001-.004-.003-.008-.005-.013-.628.285-1.181.549-1.703.995-.248.212-.383.469-.437.731-.201.185-.396.394-.577.655-.998 1.442-1.646 2.893-1.643 4.673.002.77.954 1.397 1.654 1.068.032.004.063.008.106.016.395.075.732.103 1.114.097.235.106.5.17.798.164.29-.007.606-.059.938-.133.048.024.093.05.147.07 2.319.822 4.617.882 7.055.781.789-.033 1.574-.131 2.359-.23 1.146.38 2.339.498 3.531.314.189.13.42.223.704.246 1.025.085 2.039.147 3.046-.085.247-.057.441-.174.609-.313.147.01.295.021.435.025 1.351.118 2.672.271 4.024.555 1.188.25 2.388.207 3.592.15 1.371.227 2.723.225 4.189.106.265-.021.484-.11.67-.236 1.1.164 2.213.376 3.368.673 2.908.746 6.402.723 9.16-.543 1.338.366 2.676.733 4.023 1-.092.25-.172.506-.246.762-.309.25-.555.592-.684 1.035-.221.754-.348 1.488-.424 2.262-.408 1.816-.803 3.664.756 5.086 1.133 1.033 3.443.723 3.428-1.172 0-.053.006-.1.008-.15.279.08.566.113.844.1-2.1 2.008.68 5.414 3.162 3.363.287-.238.523-.494.73-.766.41.049.824-.01 1.199-.199 1.014.973 3.006 1.033 3.65-.395.129-.287.238-.586.33-.895.828.422 1.803.547 2.955.275.525 1.279 2.076 1.918 3.326 1.182.045-.025.084-.061.129-.09.924.699 2.406.754 3.275-.002.137.426.414.742.77.943-.008.004-.016.008-.023.012.76.6 1.525.502 2.088.064.582-.268 1.008-.791.961-1.566-.033.018-.066.033-.102.051.051-.34.029-.689-.088-1.021-.205-.58.213-2.717.275-3.564.136-1.788-.052-3.425-.44-5.167z" fill="#ff1b15"/><path d="m92.423 73.785c-2.521 1.127-8.352.1-11.041.236-6.447.33-12.881.445-19.324.768-.117-.045-.236-.098-.35-.133-.938-.297-1.693-.246-2.652-.154-.406.039-.816.057-1.227.09-.285-.123-.637-.164-1.08-.066-.275.078-.555.119-.841.127-.142.012-.271.041-.394.076-.946-.107-1.889-.164-2.862.01-.13-.055-.27-.098-.431-.111-2.727-.256-5.459-.027-8.197-.295-2.582-.252-5.478.791-7.95.094-.536-.193-1.046.002-1.405.369-2.137-.211-4.241-.135-6.435-.109-3.182.037-6.351-.527-9.514-.16-.031-.025-.06-.055-.094-.076-.684-.451-1.461-.221-1.962.352-.118.156-.256.344-.297.424-.06.115-.098.223-.132.33-.25.15-.464.371-.587.652.004-.008-.229.455-.1.256-.783 1.201.758 2.43 1.838 1.791 1.818 1.061 5.817.885 7.359.916 2.235.047 4.463-.061 6.688-.271 4.063-.387 7.811 1.334 11.88.561 5.796.178 11.801-.621 17.409-.924 7.539-.408 15.061-.449 22.605-.857 3.037-.164 8.082.918 10.803-.695 2.028-1.205.418-4.151-1.707-3.201z" fill="#ff1b15"/><path d="m16.607 74.863c.018-.023.039-.041.058-.063.183-.24.314-.4-.058.063z" fill="#ff1b15"/><path d="m67.951 72.111c.045-.152.063-.316.043-.482-.029-.258-.176-.443-.355-.613-.084-.08-.197-.137-.318-.182.236-.484.334-1.018.217-1.617-.209-1.047-1.494-1.102-2.039-.371-4.477-.266-9.006-.518-13.488-.398-2.472.066-4.941.18-7.401.422-.02-.004-.034-.018-.055-.02-.964-.146-1.823-.551-2.75-.828-.932-.279-1.928-.195-2.851.074-.391.113-.638.336-.777.602-.504-.018-1.008-.002-1.514.088h-.001c-.019-.006-.032-.014-.051-.02-.64-.16-1.092-.111-1.666.215-.335.189-.453.492-.445.799-.327.316-.56.77-.635 1.313-.03.225.012.441.1.637-.396.404-.716.855-.949 1.295-2.365-.439-4.268-.162-6.719-.293-.548-.029-1.114-.055-1.676-.082.19-.295.376-.596.516-.941.277-.686.534-1.357.772-2.057.281-.824-.818-1.623-1.519-1.109-.015.01-.098-.025-.193-.072-.025-.359-.221-.701-.561-.875-.242-.066-.483-.135-.726-.201-.6-.145-1.157.158-1.447.633-.062.012-.122.021-.186.047-.532.215-.932.549-1.266.939-.266-.004-.53.074-.749.285-1.001.961-2.344 2.523-2.536 4.057-.576.385-.979.939-1.019 1.742-.018.354.333.592.645.385.269-.178.539-.322.813-.449.572.492 1.537.152 1.907-.553 1.127-.176 2.29-.158 3.487-.225 3.49-.195 7.085-.01 10.597-.01.092.086.199.15.317.178.459.111.975.26 1.455.244.846-.029 1.568-.541 2.341-.588.247-.014.497-.023.745-.037 1.269.514 3.038.193 4.435-.059 2.872 1.627 7.634 1.055 10.56.486 3.833-.746 8.192 1.109 11.741-.537.68.168 1.35.383 1.996.703 1.587.785 2.668-1.664 1.205-2.525z" fill="#bf0404"/><path d="m92.472 59.745c-.422-1.521-1.982-2.751-3.832-3.679-.127.119-.305.183-.475.132-.539-.16-1.039-.398-1.543-.631-1.455-.213-2.877-.674-4.131-1.436-.057-.008-.121-.02-.176-.027-6.486-.853-12.973-2.153-19.51-2.457-2.164-.652-5.021-1.575-6.825-1.104-1.961.511-4.712-.074-6.712-.201-1.768-.111-5.774.283-7.23-.64-.614-.39-1.159-.043-1.359.471-2.976-.202-5.924.172-8.891.07-.365-.013-.694-.031-1.001-.036-.033-.014-.063-.032-.099-.044-.643-.214-1.314-.128-1.961.006-.068.014-.136.032-.204.047-.081-.013-.161-.026-.245-.023-.444.016-.87.122-1.292.25-.147-.053-.307-.08-.477-.059-.425.053-.788.226-1.071.479-.391.133-.82.216-1.178.342-.502.176-.816.694-1.065 1.116-.109.186-.135.373-.128.557-.878.511-2.139 1.425-2.176 2.441-.011.271.271.584.564.482 1.102-.386 2.187-1.242 3.257-1.759 1.175-.569 2.602-.352 3.867-.706.261.16.581.236.943.176 1.11-.186 2.107.25 3.188.153 2.984-.267 6.635-.766 9.591-.567 5.11.343 10.196.889 15.298 1.325 4.273.365 8.432.644 12.668 1.418 2.918.534 5.887.818 8.818 1.295 1.023.167 2.221.232 3.463.317.094.055.201.096.322.116.785.128 1.555.41 2.33.6.736.181 1.527.367 2.244.595.375.12.676-.009.889-.237.996.436 1.863 1.056 2.488 1.972.52.759 1.899.141 1.651-.754z" fill="#f66"/><path d="m35.048 68.355c-.064 0-.064.1 0 .1s.064-.1 0-.1z" fill="#c6c6c6"/><path d="m67.828 64.884c-.537.203-.842.507-.932.903-.768-.095-1.443-.289-2.24-.272-.863.018-1.709.021-2.564.111-.283-.049-.564-.1-.848-.148-.117-.02-.232-.014-.344.012-.916-.088-1.826-.09-2.754.055-.363-.094-.732-.176-1.074-.234-.008 0-.014-.006-.021-.006-.006 0-.01 0-.016-.001-.371-.062-.689-.081-.928-.048-.957-.047-1.947-.064-2.942-.049-.402-.369-.856-.716-1.771-.623-.595.061-3.09.443-4.487.699-1.684-.129-3.369-.343-5.07-.25-4.842.264-9.596-1.386-14.418-.918-.366-.141-.745-.255-1.108-.284-.194-.155-.395-.296-.64-.367-.37-.106-.672.009-.894.213-.016-.016-.029-.035-.045-.05-.002-.004-.005-.009-.007-.014-.153-.309-.528-.303-.748-.125-.244.083-.446.269-.458.55-.042.97.194.952.353 1.52.078.28.264.446.479.528-.008.145.019.279.026.422-.525.42-.399 1.393.297 1.66.024.008.05.018.074.027.378.145.703.049.927-.16.168.021.337.021.497-.01.113.064.25.1.375.15-.227.432-.373.875-.48 1.361-.032.146-.038.279-.032.406-.336.371-.579.793-.61 1.234-.127.232-.241.475-.366.701-.086.039-.177.068-.258.123-.856.58.223 1.816.901 1.063.002-.004.006-.004.008-.008 1.01-.152 1.974-.354 3.012-.236.43.049.76.059 1.129.016.377.238.861.271 1.252-.041.756.514 1.519.535 2.154-.188.141-.16.128-.443.043-.621-.04-.082-.079-.164-.118-.246-.004-.008-.011-.014-.015-.021.081-.152.146-.307.172-.451.18-1.029.932-1.682 1.29-2.633.099-.262.081-.486 0-.672l.199.023c.633.076 1.054.066 1.433-.186.694.027 1.387.02 2.081.018.085.061.185.105.311.111.702.025 1.306.449 2.013.514.508.047 1.043.029 1.553.023.349-.006.608-.121.795-.293.901.121 1.812.111 2.721.182.159.012.313.002.463-.021.155.053.323.082.515.055 1.791-.248 3.521-.258 5.322-.219.834.02 1.667-.023 2.501-.014.863.012 1.477.457 2.321.512.564.037.982-.211 1.244-.574.061-.006.121-.01.186-.027.24-.076.48-.137.723-.174 1.012.061 1.996.197 2.93.463.08.021.156.031.23.039.141.172.375.281.73.311.527.113 1.006.059 1.543.018.756-.057 1.527-.541 2.25-.473.795.076 1.289-.502 1.385-1.113.037-.014.078-.016.111-.035.471-.273.91-.678.838-1.277-.08-.636-.613-.941-1.199-.941z" fill="#c6c6c6"/><path d="m96.617 69.302c-.178-.279-.436-.451-.713-.52.355-4.042-1.859-8.77-6.041-9.362-.568-.08-.848.58-.375.919 2.668 1.907 3.57 4.689 3.295 7.824-.367 4.201-2.693 6.529-7.021 7.477-.107.023-.195.07-.271.127-3.186.428-6.408.682-9.51 1.006-7.256.758-14.676.65-21.963.998-7.104.338-14.219.07-21.531-.117-2.994-.076-5.143-.35-8.132-.436-1.589-.045-7.255-1.105-8.228.178.196-.258-.009-.725-.37-.586-.11.043-.221.086-.33.127-.392.15-.296.68.035.822 4.832 2.107 10.115.773 15.216 1.127 7.34.508 14.294.967 21.7.732 8.429-.268 16.962-.072 25.365-.846 3.227-.297 6.557-.527 9.84-.98.943.098 1.836-.072 2.668-.43.9-.166 1.797-.346 2.68-.564.004.012.006.025.01.039-.039-.025-.016.078.076.316.133.475.492.859 1.08.848.033 0 .066-.002.102-.002.471-.01.893-.154 1.168-.564.25-.373.285-.938.051-1.344.107-.035.219-.063.326-.098.725-.246.891-.906.705-1.469.434-.617.561-1.33.637-2.201.081-.941.05-2.2-.469-3.021z" fill="#b51c1c"/><path d="m85.361 62.904c-1.951-1.35-5.078-1.263-7.334-1.292-1.492-.019-3.719.455-5.166.813-1.688.417-3.355 1.708-4.459 2.334-.326.184.201.128.563.229 2.404.672 3.969-1.123 6.361-1.474 1.371-.201 2.807-.09 4.191-.178 1.563-.099 3.746-.535 5.264.142.5.223 1.031-.26.58-.574z" fill="#b51c1c"/><path d="m23.673 64.604c-.064 0-.064.1 0 .1s.064-.1 0-.1z" fill="#7f7f7f"/><path d="m68.716 65.677c-.213-.584-1.045-.678-1.475-.308-.064.056-.135.101-.205.148-.156.036-.299.114-.428.212-2.215-.404-4.873-.146-7.084-.125-.82.008-1.639-.004-2.459-.003-2.279-.675-4.514-.427-6.859-.423-.905.002-1.797-.311-2.703-.256-.805.048-1.552.238-2.31.426-2.831-.348-6.04-1.503-8.741-.942-2.208.459-4.015-.59-6.116-.784-2.025-.187-4.591.52-6.505-.44-.668-.335-1.101.729-.443 1.068 4.952 2.559 10.86 2.014 16.166 2.547 7.159.719 14.266.584 21.4.756.031.471.324.9.953.928.889.039 1.648-.152 2.504-.373.369-.094.758-.105 1.137-.139.264-.023.475-.105.684-.195.041.055.076.111.131.156.479.379 1.467.277 1.648-.408.008-.031.014-.064.02-.096.057-.008.129-.033.082-.023.385-.078.779-.451.764-.871-.01-.316-.053-.558-.161-.855z" fill="#7f7f7f"/><path d="m33.835 68.263c-2.321.076-4.601.02-6.911.313-1.044.133-1.062 1.791-.002 1.656 2.202-.277 4.493-.25 6.692.033 1.503.193 1.664-2.047.221-2.002z" fill="#7f7f7f"/><path d="m52.876 68.912c-.29-.307-.619-.477-1.028-.578-.582-.143-1.049.129-1.294.574-.138.18-.24.395-.24.684v.314c0 .639.535 1.172 1.173 1.17.233 0 .422-.076.588-.182.083-.018.166-.029.251-.057.821-.269 1.182-1.254.55-1.925z" fill="#820303"/><path d="m9.826 38.171v53.104l46.072 26.551 46.074-26.551v-53.104l-46.074-26.553zm90.281 1.08v50.954l-44.208 25.48-44.211-25.48v-50.954l44.211-25.48z" opacity=".13"/><path d="m17.173 78.829c.064 0 .064-.1 0-.1s-.065.1 0 .1z"/><path d="m17.149 78.692c-.146.022-.285.058-.428.097-.062.018-.045.103.015.107.264.021.125.006.438-.027.129-.014.104-.196-.025-.177z"/><path d="m15.752 78.737c5.872 1.405 12.148 1.233 18.15 1.365 6.95.153 13.9.136 20.851.012 6.988-.126 13.972-.411 20.951-.802 6.534-.366 13.205-.627 19.663-1.729.381-.065.281-.663-.089-.66-6.519.053-13.063.746-19.574 1.086-6.661.347-13.328.562-19.997.702-13.211.28-26.692.64-39.847-.78-.464-.05-.55.699-.108.806z"/><path d="m16.068 78.441c-.051-.231-.199-.39-.312-.596-.141-.258-.18-.526-.161-.814.032-.492-.741-.493-.766 0-.03.603.236 1.584.921 1.728.197.04.362-.12.318-.318z"/><path d="m15.311 77.177c.615-1.406 1.161-2.842 1.82-4.232.832-1.758 1.994-3 3.193-4.474.18-.221-.039-.489-.293-.38-1.493.635-2.582 2.666-3.316 4.015-.84 1.542-1.533 3.264-1.564 5.028-.002.08.124.124.16.043z"/><path d="m19.971 68.542c-.002-.013-.005-.025-.007-.039-.004-.019-.034-.019-.038 0-.002.014-.005.026-.007.039-.009.044.06.044.052 0z"/><path d="m19.948 68.59c.677-.211 1.299-.456 1.999-.596.441-.087.905-.115 1.354-.109.297.003.376.025.576-.194.043-.047.055-.113.022-.17-.319-.551-1.375-.353-1.907-.27-.787.122-1.689.416-2.211 1.052-.102.124-.011.343.167.287z"/><path d="m67.228 72.854c.431.937 1.795 1.153 2.702 1.265 1.423.176 3.407.348 4.785-.117.06-.021.084-.111.019-.143-.988-.483-2.191-.243-3.254-.34-1.481-.135-2.736-.229-4.107-.81-.099-.042-.191.044-.145.145z"/><path d="m18.673 74.623c4.475.38 9.07.125 13.561.126 4.523.001 9.046.001 13.57.002 4.596.001 9.194.023 13.79-.005 4.518-.027 9.324.444 13.796-.24.101-.015.101-.188 0-.203-4.157-.636-8.604-.207-12.806-.233-4.604-.028-9.208-.011-13.813-.011-4.522 0-9.045.001-13.568.002-4.81 0-9.737-.281-14.53.125-.282.023-.282.413 0 .437z"/><path d="m18.173 63.354c7.459.57 14.903 1.276 22.375 1.679 3.893.211 7.79.353 11.687.457 5.655.15 11.632.709 17.251.027.388-.047.385-.551 0-.602-5.415-.697-11.109-.27-16.571-.389-4.124-.09-8.247-.238-12.367-.446-7.46-.376-14.913-.845-22.375-1.188-.299-.013-.293.439 0 .462z"/><path d="m67.814 72.966c.084-4.399.602-7.7 5.42-8.66 4.486-.894 9.129-.062 13.598-.76.121-.019.119-.221 0-.241-3.124-.539-6.348-.324-9.496-.143-2.026.117-4.083.243-6.025.875-3.82 1.242-4.457 5.486-3.896 8.984.037.232.394.167.399-.055z"/><path d="m20.673 56.579c.064 0 .064-.1 0-.1s-.065.1 0 .1z"/><path d="m20.261 56.783c3.514-3.587 10.951-2.957 15.488-2.996 6.261-.054 12.529.433 18.756 1.043 6.567.644 13.141 1.337 19.675 2.266 5.825.828 12.615 1.24 17.993 3.877.356.175.794-.299.45-.583-1.693-1.396-4.518-1.767-6.597-2.273-3.597-.876-7.392-1.283-11.055-1.824-6.786-1.002-13.643-1.625-20.467-2.298-6.834-.674-13.713-1.15-20.583-.996-3.969.089-11.129.055-13.876 3.565-.117.154.075.363.216.219z"/><path d="m18.625 63.094c-1.253-1.921.774-5.037 1.727-6.702 1.754-3.063 3.914-5.046 7.293-6.222.13-.045.113-.246-.033-.246-3.814.005-6.345 3.642-8.043 6.636-.8 1.411-3.209 5.438-1.163 6.752.133.087.306-.083.219-.218z"/><path d="m26.87 49.981c.007.019.015.038.022.056.012.03.048.03.061 0 .007-.019.015-.038.022-.056.036-.087-.14-.087-.105 0z"/><path d="m26.818 50.411c12.813-.807 25.733-.191 38.47 1.386 5.56.688 11.106 1.604 16.555 2.917 2.4.578 4.857 1.214 7.123 2.208 2.538 1.112 3.608 3.997 5.354 5.96.196.22.589-.077.411-.317-1.362-1.842-2.455-3.985-4.247-5.456-1.604-1.315-3.912-1.882-5.855-2.46-5.55-1.651-11.367-2.536-17.091-3.329-13.401-1.857-27.241-2.73-40.719-1.338-.271.027-.28.447-.001.429z"/><path d="m93.734 61.881c2.304 4.464 2.577 10.132 1.258 14.972-.126.461.546.759.777.328 1.087-2.016.844-5.212.806-7.422-.048-2.82-.702-5.838-2.423-8.123-.185-.244-.565-.039-.418.245z"/><path d="m22.994 63.249c.332 1.893.546 4.009 1.371 5.76.166.352.694.098.607-.256-.46-1.859-.974-3.848-1.757-5.598-.06-.134-.243-.031-.221.094z"/><path d="m24.735 69.128c.356.025.604-.425.806-.659.347-.401.696-.811.997-1.249.164-.239-.207-.521-.399-.309-.32.356-.613.741-.903 1.122-.205.27-.675.662-.576 1.038.009.036.041.055.075.057z"/><path d="m25.759 63.759c-.047.54.025 1.082.077 1.62.053.551.053 1.117.207 1.652.074.258.488.215.476-.064-.022-.473-.132-.951-.236-1.413-.135-.603-.167-1.224-.324-1.821-.031-.118-.19-.084-.2.026z"/><path d="m25.485 68.392c.064 0 .064-.1 0-.1s-.064.1 0 .1z"/><path d="m24.943 68.861c.131 0 .131-.203 0-.203s-.13.203 0 .203z"/><path d="m25.235 68.732c7.172.443 14.469.068 21.656.084 3.519.008 7.038.016 10.557.022 3.391.007 7.147.463 10.477-.222.231-.047.231-.419 0-.467-3.035-.623-6.428-.229-9.519-.223-3.51.008-7.021.015-10.531.022-7.513.016-15.143-.377-22.641.087-.446.029-.446.669.001.697z"/><path d="m24.407 73.054c.556-.646.863-1.533 1.234-2.294.292-.595.915-1.341.957-2.001.012-.183-.21-.295-.358-.206-.566.341-.83 1.336-1.1 1.914-.36.771-.844 1.577-1.04 2.409-.039.167.181.326.307.178z"/><path d="m24.184 73.197c2.709.977 5.947.257 8.76.227.534-.006.534-.837 0-.828-2.917.046-5.791.241-8.708.219-.231-.003-.253.31-.052.382z"/><path d="m33.024 73.296c.463-.591.715-1.34.989-2.034.324-.823.734-1.628 1.012-2.466.112-.338-.369-.505-.55-.231-.384.582-.606 1.293-.855 1.94-.323.84-.748 1.733-.883 2.623-.023.148.167.321.287.168z"/><path d="m50.247 69.8c-.137 2.065 3.331 1.862 3.287-.084-.006-.268-.337-.336-.48-.13-.341.493-.595.933-1.224 1.085-.708.174-1.115-.366-1.372-.929-.05-.111-.204-.043-.211.058z"/><path d="m29.28 69.661c-.245.042-.458-.013-.704.052-.232.062-.418.22-.584.385-.101.102-.146.297-.054.419.4.539 1.046 1.165 1.79 1.032.662-.117.852-.936.486-1.439-.098-.136-.354-.15-.393.051-.046.236.042.639-.279.646-.402.012-.822-.442-1.062-.709v.488c.25-.301.631-.441.941-.684.127-.1-.017-.263-.141-.241z"/><path d="m31.801 72.978c.192-.332.284-.709.411-1.069.178-.509-.667-.749-.81-.224-.11.408-.209.812-.094 1.229.063.224.376.267.493.064z"/><path d="m32.683 69.515c.215-.293.461-.566.657-.872.137-.215-.146-.525-.364-.364-.37.275-.61.682-.628 1.146-.008.195.237.223.335.09z"/><path d="m26.526 71.965c.265-.29.421-.64.587-.991.187-.396.446-.82.514-1.256.056-.362-.366-.547-.585-.246-.228.311-.336.714-.483 1.068-.162.39-.366.775-.424 1.197-.03.21.215.422.391.228z"/></svg>