<svg enable-background="new 8.893 -8.5 110.852 127.094" height="127.094" viewBox="8.893 -8.5 110.852 127.094" width="110.852" xmlns="http://www.w3.org/2000/svg"><path d="m119.744 87.5-55.426 32-55.425-32v-64l55.425-32 55.426 32z" fill="#397ee2"/><path d="m64.818 2.678 46 26.551v53.129l-10.425 6.021-.247.12-.124.06-.117.059-1.083.62-1.902 1.101-.101.059-1.001.581-4 2.31-2 1.159-2 1.16-.859.5-.141.08-4 2.311-3 1.739-.359.21-1.641.95-1.37.79-1.17.68-2.46 1.421-2 1.159-.95.551-.05.029-1 .571-.45.259-.55.321-3 1.74-.37-.21-3.55-2.061-2.71-1.57-.139-.079-2.25-1.301-.011-.01-.46-.259-.295-.13-3.215-1.82v-.01l-5.064-2.97-1.707-1-.244-.15-1.047-.58-24.938-14.411v-53.129z" fill="#64a0ff"/><path d="m61.154 12.513c1.742 1.677 3.499 3.34 5.221 5.037 2.23 2.2 4.436 4.427 6.65 6.644 1.016 1.018 1.031 1.984.037 2.98-3.637 3.64-7.273 7.28-10.915 10.917-.871.87-1.704 1.056-2.415.478-.24-.195-.453-.581-.457-.882-.038-2.357-.021-4.714-.021-7.072 0-.247 0-.493 0-.832-.891.099-1.709.141-2.508.285-7.012 1.27-12.743 4.7-17.014 10.403-4.178 5.58-5.923 11.916-5.188 18.851.647 6.111 3.166 11.395 7.452 15.83 2.021 2.092 4.391 3.701 6.884 5.162 1.954 1.146 2.67 3.834 1.609 5.834-1.126 2.129-3.622 3.088-5.716 2.112-2.818-1.311-5.293-3.143-7.61-5.198-2.602-2.312-4.784-4.973-6.593-7.932-1.834-3.001-3.185-6.212-4.076-9.624-.804-3.077-1.189-6.205-1.158-9.368.068-6.747 1.92-12.993 5.503-18.708 2.228-3.555 5.012-6.615 8.326-9.204 2.102-1.643 4.344-3.055 6.749-4.171 3.97-1.843 8.137-3.032 12.529-3.292.651-.038.844-.224.829-.876-.044-1.876.037-3.755-.04-5.628-.035-.85.217-1.395.958-1.748.323.002.643.002.964.002z" fill="#397ee2"/><path d="m67.471 98.486c-2.16-2.096-4.333-4.185-6.48-6.297-1.827-1.795-3.627-3.617-5.437-5.431-.969-.973-.968-1.954.008-2.932 3.635-3.642 7.274-7.279 10.916-10.916.496-.495 1.035-.912 1.811-.765.664.125 1.023.527 1.029 1.201.021 2.334.035 4.668.049 7 .002.25 0 .498 0 .863.885-.096 1.721-.139 2.537-.283 4.305-.766 8.25-2.397 11.711-5.08 5.793-4.488 9.297-10.352 10.346-17.629.85-5.881-.219-11.424-3.076-16.623-2.438-4.436-5.88-7.893-10.295-10.364-1.51-.844-2.686-1.918-2.896-3.736-.199-1.723.363-3.184 1.764-4.215 1.341-.987 2.865-1.26 4.41-.535 2.791 1.311 5.255 3.119 7.559 5.157 2.623 2.321 4.814 5.002 6.637 7.98 1.883 3.079 3.256 6.38 4.138 9.89 1.274 5.072 1.448 10.188.501 15.312-.822 4.44-2.447 8.61-4.881 12.438-2.273 3.58-5.068 6.678-8.424 9.295-3.996 3.113-8.455 5.258-13.338 6.481-1.94.488-3.959.688-5.953.931-.604.074-.758.239-.748.817.035 1.875-.035 3.754.035 5.629.032.851-.168 1.453-.957 1.81-.326.002-.646.002-.966.002z" fill="#397ee2"/><path d="m85.984 45.312c-.182-.046-.371-.064-.56-.064-1.002-.933-3.339-.79-4.405-.645-.063.008-.131.02-.196.031-.78-.254-1.604.287-2.253.96-.12.081-.237.167-.353.256-.151-.178-.338-.332-.579-.45-.561-.273-1.08-.22-1.551.019-.367-.521-1.072-.799-1.677-.436-.396.237-.763.504-1.106.794-.035-.634-.466-1.211-1.291-1.136-2.179.2-5.109-.078-7.554.511-.603.094-1.199.221-1.787.394-.139-.074-.307-.118-.508-.122-2.362-.003-4.721-.111-7.083-.121-1.851-.008-4.344-.222-6.017.732-.074.042-.144.087-.213.131-.382-.763-1.595-1.105-2.001-.123-.938 2.261-2.052 6.393-.411 8.562.048.063.105.122.167.176.035.456.071.911.103 1.363-.037.097-.067.2-.081.322-.11 1.061-.192 2.121-.253 3.184-.109 1.197-.195 2.41-.132 3.591-.005.333-.009.663-.012.993-.002.308.088.553.231.74.174.819.457 1.615.897 2.368.235.401.941.599 1.351.374.355-.193.649-.385.925-.628.163.134.357.224.565.231.084.004.167.015.25.021 1.415 1.165 3.293 1.21 5.063 1.213.441 0 .726-.181.883-.441.855.65 1.96.681 3.39-.314.051-.033.093-.074.136-.117.624.002 1.248-.015 1.869-.046.961.146 1.918.433 2.854.63 1.707.359 3.321.457 4.971-.185.248-.097.432-.274.551-.495.145-.01.285-.025.425-.052.175.015.351.028.526.042.686.113 1.371.234 2.059.342.402.747 1.305.715 1.914.255.721.075 1.446.12 2.176.116.446-.004.822-.242 1.078-.57.115-.005.232-.011.35-.016.115.009.234.005.355-.018.178-.01.354-.016.53-.022.017.097.024.192.041.289.188 1.085 1.927 1.341 2.397.336.097-.206.186-.414.271-.622.61.018 1.224.032 1.83.012.555.457 1.34.362 1.778-.188.012-.002.023-.004.035-.006.711-.146 1.275-.928 1.026-1.644.206-2.11-.026-4.223-.315-6.317.051-.639.105-1.275.119-1.91.008-.018.02-.035.027-.053 1.066-2.429 1.012-5.891.295-8.404.254-.276.446-.604.561-.99.359-1.215-.463-2.558-1.661-2.853z" fill="#127ddd"/><path d="m87.664 46.407c-1.143-1.022-2.852-.589-4.293-.606-1.74-.022-3.48.199-5.221.199h-27.761c-1.56 0-3.544-.453-4.646.833-.304.354-.278.884.015 1.234 1.136 1.35 3.302.933 4.903.933h31.03c1.881 0 4.427.454 5.947-.812.499-.413.505-1.354.026-1.781z" fill="#3babff"/><path d="m79.771 31.422c-1.844-.37-3.698-.249-5.555-.035-1.88.218-3.504.199-5.365-.178-1.693-.344-3.369-.719-5.107-.689-1.756.032-3.472.358-5.162.802-.007-.015-.012-.03-.02-.044-.467-.904-1.559-1.168-2.287-.37-.95 1.042-1.152 2.728-.879 4.225-.175.587-.279 1.196-.284 1.834-.004.654.462 1.091 1.004 1.224 0 .503.048 1 .17 1.489-.034.065-.061.133-.082.202-.397.478-.422 1.285.029 1.805-.249.729.053 1.61 1.028 1.61.963 0 1.927 0 2.89-.001.112 0 .215-.011.314-.03 4.299-.063 8.598-.211 12.896-.254 1.947-.02 4.05.226 5.439-1.388 1.047-1.218 1.02-3.176.729-4.65-.031-.164-.102-.321-.193-.464.396-1.081.875-2.126 1.339-3.184.341-.771-.025-1.726-.904-1.904z" fill="#fff"/><path d="m79.266 42.101c-1.063-1.699-3.936-1.146-5.67-1.148-2.025-.002-4.047-.004-6.07-.006-2.072-.001-4.146-.008-6.22-.015-1.011-.003-2.021-.008-3.031-.008-1.142 0-2.248-.181-2.99.814-.309.415-.455 1-.117 1.456 1.132 1.527 3.62.966 5.324.96 2.461-.008 4.922-.016 7.384-.017 2.133-.001 4.266-.003 6.396-.006 1.608-.002 3.998.393 5.004-1.166.162-.25.143-.617-.01-.864z" fill="#d6d6d6"/><g fill="#030928"><path d="m90 72c-16 0-31.511 0-47.405 0-.04 0 .64.113.593.066-.635-.634-1.188-1.048-1.188-1.683 0-2.26 0-21.953 0-32.137 0-.929-1.375-1.267-2.09-1.347-.142-.041-1.014.101-1.185.101-3.477 0-7.725 0-10.725 0-2 0-2 3 0 3h10v30.596c0 .459-.145.817.089 1.075.054.306.049.599.281.831.672.671 1.27 1.344 1.943 2.018.213.213.44.051.719.113.224.388.568.367 1.113.367h47.855c3 0 3-3 0-3z"/><path d="m45.301 70h42.607c.525 0 1.039-.176 1.294-.488.391-.254.798-.657.798-1.283 0 0 0-15.518 0-23.145 0-.162-.146-.299-.182-.435.036-.815-.593-1.649-1.647-1.649-2.392 0-4.784 0-7.176 0 .048 0 .005-.353.005-.546 0-3.682 0-7.627 0-11.572 0-.416-.128-1.258-.375-1.485-.227-.497-.666-1.397-1.395-1.397 0 0-15.707 0-23.936 0-.088 0-.177 0-.264 0-.697 0-.858.974-1.025 1.537-.172.213-.005 1.008-.005 1.345v11.572c0 .193-.519.546-.471.546-2.746 0-5.492 0-8.229 0-.053 0-.106-.007-.159-.003-.418.034-.743.194-.976.432-.238.233-.264.555-.297.973-.004.053.132.103.132.157v23.671c0 .182-.112.312-.07.461.091.705.454 1.309 1.371 1.309zm41.699-24v9c-13 0-27 0-40 0 0-2 0-6 0-9zm-40 12h40v9c-13 0-27 0-40 0 0-4 0-6 0-9zm10-15.546c0-3.272 0-7.454 0-11.454h20v11.454c0 .193.939.546.99.546-3.701 0-7.399 0-11.096 0l3.797-8.798-1.482-.65-4.072 9.448c-2.87 0-5.739 0-8.602 0 .048 0 .465-.353.465-.546z"/><path d="m50.561 77.918c-3.264 0-5.917 2.654-5.917 5.917s2.654 5.918 5.917 5.918 5.918-2.655 5.918-5.918-2.655-5.917-5.918-5.917z"/><path d="m83.963 77.918c-3.263 0-5.917 2.654-5.917 5.917s2.654 5.918 5.917 5.918c3.264 0 5.92-2.655 5.92-5.918s-2.656-5.917-5.92-5.917z"/><path d="m63 35.264-5 2.89v1.391l5 2.897v-1.816l-3.732-1.768 3.732-1.767z"/><path d="m76 38.166-5-2.898v1.816l3.727 1.773-3.727 1.763v1.827l5-2.89z"/></g><path d="m18.729 29.234v53.12l46.074 26.561 46.073-26.561v-53.12l-46.072-26.56zm90.283 1.08v50.97l-44.209 25.49-44.211-25.49v-50.97l44.211-25.489z" opacity=".13"/></svg>