<svg enable-background="new 0 0 110.979 128.417" height="128.417" viewBox="0 0 110.979 128.417" width="110.979" xmlns="http://www.w3.org/2000/svg"><path d="m110.849 96.417-55.426 32-55.423-32v-64l55.423-32 55.426 32z" fill="#25e899"/><path d="m101.926 38.143v53.131l-.009.01-1.42.819-6.281 3.62-2.719 1.57-.241.121-.13.059-.11.061-3.03 1.74-1.869 1.079-.04.03-3.25 1.88-.87.511-1.38.79-1.46.85-.181.099-.019.011-1.71.989-.96.551-4.621 2.67-.629.369-.061.03-3.5 2.021-4.04 2.33-.01.01-.429.25-7.081 4.089-7.57-4.379-.04-.021-2.069-1.199-5.361-3.101-.69-.399-5.09-2.941-.389-.229-.491-.28-.33-.191-1.849-1.069-.571-.33-1.71-.99-2.509-1.451-2.911-1.679-.089-.05-4.67-2.7-2.111-1.221-7.5-4.329v-53.131l14.33-8.279 1.991-1.151 4.929-2.839 1.58-.911.17-.099 1.66-.95 1.161-.67 1.54-.901.519-.3 2.28-1.309.69-.401 1.46-.839 5.721-3.3.46-.261 6.069-3.51 1.44-.83 1.06.611 6.49 3.75 14.53 8.389 1.04.601 2.3 1.319.87.5 1.52.88 1.37.79.801.46.09.051 1.809 1.04 3.78 2.189.04.021v.01l.26.149.66.381 1.46.84 1.941 1.12.779.449.441.25 1.939 1.12z" fill="#fff"/><path d="m9.826 38.141v53.121l46.072 26.559 46.074-26.559v-53.121l-46.074-26.561zm90.281 1.08v50.971l-44.209 25.489-44.211-25.489v-50.971l44.211-25.489z" opacity=".13"/><path d="m47.14 46.989h18.189l1.542.589-1.161 4.151h-17.426z" fill="#25e899"/><path d="m63.248 56.859h-12.5c-1.36 0-2.463-1.103-2.463-2.463v-2.667h17.425v2.667c0 1.36-1.102 2.463-2.462 2.463" fill="#eff4ee"/><path d="m63.248 57.425h-12.5c-1.67 0-3.029-1.359-3.029-3.03v-3.233h18.559v3.233c-.001 1.671-1.361 3.03-3.03 3.03zm-14.398-5.131v2.101c0 1.046.852 1.898 1.897 1.898h12.5c1.046 0 1.897-.852 1.897-1.898v-2.101z" fill="#15003e"/><path d="m53.803 46.989c-2.736-1.202-4.646-3.935-4.646-7.114 0-1.876.665-3.598 1.774-4.94 1.424-1.727 10.385-1.814 11.809-.208 1.213 1.371 1.95 3.173 1.95 5.148 0 3.179-1.91 5.913-4.646 7.114" fill="#0fce7c"/><g fill="#15003e"><path d="m53.311 47.555c-.083 0-.167-.019-.247-.057-3.017-1.468-4.891-4.463-4.891-7.816 0-1.666.473-3.283 1.366-4.679.169-.263.519-.34.782-.171s.34.519.171.782c-.777 1.213-1.188 2.62-1.188 4.069 0 2.916 1.63 5.521 4.255 6.798.281.137.398.476.261.757-.098.2-.299.317-.509.317z"/><path d="m60.494 47.513c-.208 0-.407-.114-.506-.313-.141-.279-.027-.62.252-.759 2.576-1.291 4.177-3.88 4.177-6.76 0-1.62-.505-3.164-1.461-4.466-.184-.252-.13-.606.122-.791s.605-.13.791.121c1.099 1.498 1.679 3.273 1.679 5.136 0 3.311-1.839 6.288-4.801 7.771-.081.042-.168.061-.253.061z"/><path d="m66.151 52.294h-18.307l-2.979-11.727v-.071c0-6.69 5.442-12.132 12.132-12.132s12.132 5.442 12.132 12.132v.071l-.017.069zm-17.426-1.131h16.546l2.728-10.736c-.038-6.034-4.959-10.931-11.001-10.931s-10.963 4.897-11 10.931z"/><path d="m45.431 40.895c-.313 0-.565-.253-.565-.565v-11.008c0-.313.252-.566.565-.566s.566.253.566.566v11.008c0 .312-.253.565-.566.565z"/><path d="m68.564 40.895c-.313 0-.565-.253-.565-.565v-14.117c0-.313.253-.566.565-.566s.565.253.565.566v14.117c0 .312-.253.565-.565.565z"/><path d="m46.332 45.839h-1.193c-1.28 0-2.323-1.042-2.323-2.322v-4.46c0-1.28 1.042-2.322 2.323-2.322h.506c.313 0 .566.253.566.566s-.253.566-.566.566h-.506c-.657 0-1.19.534-1.19 1.19v4.46c0 .656.534 1.19 1.19 1.19h1.193c.313 0 .566.253.566.566s-.254.566-.566.566z"/><path d="m68.898 45.839h-1.194c-.313 0-.565-.253-.565-.566s.253-.566.565-.566h1.194c.657 0 1.19-.534 1.19-1.19v-4.46c0-.656-.533-1.19-1.19-1.19h-.506c-.313 0-.565-.253-.565-.566s.253-.566.565-.566h.506c1.281 0 2.323 1.042 2.323 2.322v4.46c0 1.28-1.042 2.322-2.323 2.322z"/><path d="m45.556 39.128c-.143 0-.286-.053-.396-.161-.224-.218-.229-.577-.009-.8 3.212-3.291 7.485-5.103 12.03-5.103 4.28 0 8.37 1.633 11.518 4.599.228.215.237.573.023.8-.215.227-.573.238-.8.024-2.937-2.767-6.751-4.291-10.741-4.291-4.238 0-8.223 1.691-11.221 4.761-.11.114-.257.171-.404.171z"/><path d="m66.871 47.554h-19.731c-.313 0-.566-.253-.566-.565 0-.313.254-.566.566-.566h19.731c.313 0 .565.253.565.566 0 .312-.253.565-.565.565z"/></g><path d="m61.057 37.3c0 1.119-.907 2.026-2.026 2.026s-2.025-.907-2.025-2.026.906-2.026 2.025-2.026 2.026.908 2.026 2.026" fill="#fff"/><path d="m62.504 40.33c0 .452-.366.819-.819.819-.452 0-.819-.367-.819-.819 0-.453.367-.819.819-.819.453-.001.819.366.819.819" fill="#fff"/><path d="m63.994 50.679c-.804 0-1.204-.607-1.47-1.008-.253-.382-.358-.5-.526-.5-.167 0-.273.118-.525.5-.266.401-.667 1.008-1.471 1.008-.803 0-1.204-.607-1.47-1.008-.253-.382-.358-.5-.526-.5s-.273.118-.526.5c-.267.401-.667 1.008-1.471 1.008s-1.205-.607-1.471-1.008c-.253-.382-.358-.5-.526-.5s-.274.118-.527.5c-.266.401-.667 1.008-1.471 1.008s-1.205-.607-1.471-1.008c-.253-.382-.358-.5-.526-.5-.313 0-.566-.254-.566-.566s.254-.566.566-.566c.803 0 1.204.607 1.471 1.008.252.382.358.501.527.501s.274-.119.527-.501c.266-.401.667-1.008 1.471-1.008s1.205.607 1.471 1.008c.253.382.358.501.526.501s.273-.119.526-.501c.266-.401.667-1.008 1.471-1.008s1.204.607 1.471 1.008c.252.382.358.501.525.501.168 0 .274-.119.526-.501.266-.401.667-1.008 1.47-1.008.804 0 1.205.607 1.47 1.008.253.382.358.501.526.501.313 0 .566.253.566.566s-.255.565-.567.565z" fill="#15003e"/><path d="m49.289 76.194c-.365 0-.661-.295-.661-.659v-9.579c0-.363.296-.66.661-.66s.661.297.661.66v9.579c0 .364-.296.659-.661.659z" fill="#25e899"/><path d="m62.384 94.558c-.364 0-.66-.296-.66-.66v-30.496c0-.364.296-.661.66-.661s.66.296.66.661v30.496c0 .364-.295.66-.66.66z" fill="#25e899"/><path d="m51.526 83.431c-.365 0-.661-.295-.661-.659v-13.954c0-.363.296-.66.661-.66s.661.297.661.66v13.954c0 .364-.296.659-.661.659z" fill="#25e899"/><path d="m42.787 86.475c-3.556 0-6.449-2.894-6.449-6.449s2.893-6.448 6.449-6.448 6.449 2.893 6.449 6.448c0 .365-.295.66-.66.66s-.661-.295-.661-.66c0-2.827-2.301-5.128-5.128-5.128s-5.129 2.301-5.129 5.128c0 2.828 2.301 5.129 5.129 5.129.365 0 .661.296.661.66s-.297.66-.661.66z" fill="#25e899"/><path d="m46.97 88.522c0-2.99-2.425-5.414-5.415-5.414-2.991 0-5.414 2.424-5.414 5.414" fill="#eff4ee"/><path d="m46.97 89.182c-.365 0-.661-.296-.661-.66 0-2.622-2.133-4.754-4.754-4.754s-4.754 2.132-4.754 4.754c0 .364-.295.66-.66.66s-.661-.296-.661-.66c0-3.35 2.725-6.074 6.075-6.074s6.075 2.725 6.075 6.074c0 .364-.296.66-.66.66z" fill="#25e899"/><path d="m36.141 88.522c-1.937 0-3.506 1.569-3.506 3.507 0 1.936 1.57 3.506 3.506 3.506 1.937 0 3.506-1.57 3.506-3.506" fill="#eff4ee"/><path d="m36.141 96.195c-2.297 0-4.167-1.869-4.167-4.166 0-2.298 1.869-4.167 4.167-4.167.365 0 .66.296.66.66s-.295.66-.66.66c-1.569 0-2.846 1.276-2.846 2.847 0 1.568 1.276 2.846 2.846 2.846s2.846-1.277 2.846-2.846c0-.364.295-.66.66-.66s.66.296.66.66c0 2.297-1.869 4.166-4.166 4.166z" fill="#25e899"/><path d="m70.327 89.865c-.52.881-.818 1.908-.818 3.006 0 3.272 2.653 5.926 5.926 5.926s5.927-2.653 5.927-5.926-2.653-5.927-5.927-5.927c-.219 0-.437.013-.65.036" fill="#eff4ee"/><path d="m75.434 99.457c-3.631 0-6.585-2.954-6.585-6.586 0-1.177.313-2.332.908-3.342.186-.314.591-.418.905-.233.313.186.418.59.232.904-.475.806-.726 1.729-.726 2.671 0 2.903 2.361 5.266 5.265 5.266s5.267-2.362 5.267-5.266-2.362-5.266-5.267-5.266c-.192 0-.387.01-.578.031-.365.038-.688-.222-.729-.584-.04-.363.222-.689.585-.729.239-.026.482-.039.722-.039 3.633 0 6.587 2.954 6.587 6.586s-2.953 6.587-6.586 6.587z" fill="#25e899"/><path d="m67.499 88.955c.353 1.219 1.866 1.793 3.229 1.793 2.101 0 3.804-1.702 3.804-3.803 0-2.034-1.597-3.695-3.605-3.799-.141-.007-.278-.044-.405-.105-.316-.156-.536-.459-.586-.809-.262-1.84-1.844-3.255-3.756-3.255-2.096 0-3.795 1.699-3.795 3.795" fill="#eff4ee"/><path d="m70.728 91.409c-1.597 0-3.409-.702-3.863-2.271-.103-.351.099-.717.45-.817.35-.103.716.099.817.449.251.865 1.496 1.317 2.596 1.317 1.732 0 3.143-1.409 3.143-3.143 0-1.675-1.308-3.053-2.979-3.14-.229-.011-.452-.069-.662-.173-.512-.251-.867-.739-.948-1.308-.219-1.532-1.553-2.688-3.103-2.688-1.729 0-3.135 1.406-3.135 3.135 0 .364-.296.659-.66.659s-.66-.295-.66-.659c0-2.456 1.998-4.455 4.455-4.455 2.204 0 4.099 1.644 4.409 3.821.02.135.103.25.224.309.049.024.1.037.148.041 2.372.121 4.23 2.079 4.23 4.457.001 2.463-2.001 4.466-4.462 4.466z" fill="#25e899"/><path d="m49.513 89.443c-1.361-1.281-3.502-1.218-4.784.144-1.281 1.36-1.217 3.502.143 4.784" fill="#eff4ee"/><path d="m44.872 95.03c-.163 0-.325-.059-.453-.179-1.624-1.529-1.7-4.095-.171-5.718s4.094-1.7 5.718-.171c.265.25.278.668.028.934-.25.265-.668.277-.933.027-1.094-1.029-2.821-.978-3.851.115-1.03 1.094-.978 2.821.116 3.851.266.25.278.668.027.934-.131.137-.306.207-.481.207z" fill="#25e899"/><path d="m55.412 87.94v-10.857" fill="#eff4ee"/><path d="m55.412 88.6c-.365 0-.661-.296-.661-.66v-10.857c0-.364.295-.66.661-.66.365 0 .66.296.66.66v10.857c0 .364-.295.66-.66.66z" fill="#25e899"/><path d="m55.412 100.295v-5.924" fill="#eff4ee"/><path d="m55.412 100.956c-.365 0-.661-.295-.661-.66v-5.925c0-.365.295-.661.661-.661.365 0 .66.296.66.661v5.925c0 .365-.295.66-.66.66z" fill="#25e899"/><path d="m58.407 67.985v3.488" fill="#eff4ee"/><path d="m58.407 72.133c-.364 0-.66-.296-.66-.66v-3.488c0-.364.296-.661.66-.661.365 0 .661.297.661.661v3.488c0 .364-.296.66-.661.66z" fill="#25e899"/><path d="m53.467 62.098v5.716" fill="#eff4ee"/><path d="m53.467 68.475c-.365 0-.661-.296-.661-.661v-5.716c0-.365.295-.66.661-.66.364 0 .66.295.66.66v5.716c-.001.365-.296.661-.66.661z" fill="#25e899"/></svg>