<svg enable-background="new 0 0 110.979 128.417" height="128.417" viewBox="0 0 110.979 128.417" width="110.979" xmlns="http://www.w3.org/2000/svg"><path d="m110.849 96.417-55.426 32-55.423-32v-64l55.423-32 55.426 32z" fill="#25e899"/><path d="m101.926 38.143v53.131l-.009.01-1.42.819-6.281 3.62-2.719 1.57-.241.121-.13.059-.11.061-3.03 1.74-1.869 1.079-.04.03-3.25 1.88-.87.511-1.38.79-1.46.85-.181.099-.019.011-1.71.989-.96.551-4.621 2.67-.629.369-.061.03-3.5 2.021-4.04 2.33-.01.01-.429.25-7.081 4.089-7.57-4.379-.04-.021-2.069-1.199-5.361-3.101-.69-.399-5.09-2.941-.389-.229-.491-.28-.33-.191-1.849-1.069-.571-.33-1.71-.99-2.509-1.451-2.911-1.679-.089-.05-4.67-2.7-2.111-1.221-7.5-4.329v-53.131l14.33-8.279 1.991-1.151 4.929-2.839 1.58-.911.17-.099 1.66-.95 1.161-.67 1.54-.901.519-.3 2.28-1.309.69-.401 1.46-.839 5.721-3.3.46-.261 6.069-3.51 1.44-.83 1.06.611 6.49 3.75 14.53 8.389 1.04.601 2.3 1.319.87.5 1.52.88 1.37.79.801.46.09.051 1.809 1.04 3.78 2.189.04.021v.01l.26.149.66.381 1.46.84 1.941 1.12.779.449.441.25 1.939 1.12z" fill="#fff"/><path d="m9.826 38.141v53.121l46.072 26.559 46.074-26.559v-53.121l-46.074-26.561zm90.281 1.08v50.971l-44.209 25.489-44.211-25.489v-50.971l44.211-25.489z" opacity=".13"/><path d="m46.302 61.802h20.273" fill="#25e899"/><path d="m46.302 61.361h20.272v.88h-20.272z" fill="#15003e"/><path d="m46.302 61.802.221 2.971 2.008 2.714 1.761.168 6.441.626 6.603-.473 2.215-1.534 1.024-2.923-.44-1.549z" fill="#15003e"/><path d="m61.889 68.477h-10.9c-2.826 0-5.125-2.3-5.125-5.126v-6.606c0-.243.195-.44.439-.44h20.271c.243 0 .439.197.439.44v6.606c.001 2.826-2.297 5.126-5.124 5.126zm-15.145-11.292v6.166c0 2.341 1.904 4.246 4.245 4.246h10.9c2.342 0 4.245-1.905 4.245-4.246v-6.166z" fill="#15003e"/><path d="m59.794 62.062c0-1.915-1.553-3.467-3.468-3.467s-3.465 1.552-3.465 3.467c0 1.914 1.55 3.467 3.465 3.467s3.468-1.553 3.468-3.467" fill="#25e899"/><path d="m56.327 65.966c-2.154 0-3.906-1.75-3.906-3.904 0-2.155 1.751-3.906 3.906-3.906s3.906 1.751 3.906 3.906-1.752 3.904-3.906 3.904zm0-6.931c-1.668 0-3.026 1.357-3.026 3.027 0 1.667 1.358 3.026 3.026 3.026 1.669 0 3.027-1.359 3.027-3.026 0-1.67-1.358-3.027-3.027-3.027z" fill="#15003e"/><path d="m51.47 61.683c0-.828-.668-1.498-1.497-1.498-.826 0-1.496.67-1.496 1.498 0 .826.669 1.496 1.496 1.496.829 0 1.497-.67 1.497-1.496" fill="#ffce08"/><path d="m49.974 63.619c-1.066 0-1.936-.869-1.936-1.936 0-1.069.869-1.937 1.936-1.937 1.068 0 1.938.868 1.938 1.937 0 1.067-.87 1.936-1.938 1.936zm0-2.994c-.582 0-1.055.474-1.055 1.058 0 .582.473 1.056 1.055 1.056.583 0 1.058-.474 1.058-1.056-.001-.583-.475-1.058-1.058-1.058z" fill="#15003e"/><path d="m64.15 61.683c0-.828-.671-1.498-1.496-1.498-.826 0-1.496.67-1.496 1.498 0 .826.67 1.496 1.496 1.496.825 0 1.496-.67 1.496-1.496" fill="#ffce08"/><path d="m62.654 63.619c-1.067 0-1.937-.869-1.937-1.936 0-1.069.869-1.937 1.937-1.937s1.938.868 1.938 1.937c-.001 1.067-.87 1.936-1.938 1.936zm0-2.994c-.583 0-1.057.474-1.057 1.058 0 .582.474 1.056 1.057 1.056.582 0 1.057-.474 1.057-1.056-.001-.583-.475-1.058-1.057-1.058z" fill="#15003e"/><path d="m39.254 63.87c-.302 0-.586-.121-.803-.337l-4.214-4.213-3.845-6.688.052-4.178 9.958 9.958v4.313c-.001.63-.516 1.145-1.148 1.145zm-4.313-5.09 4.132 4.131c.052.051.112.078.181.078.111 0 .268-.082.268-.265v-3.948l-8.225-8.225-.022 1.85z" fill="#15003e"/><path d="m36.84 61.3v-6.119l-5.309-5.018-.179 3.338z" fill="#15003e"/><path d="m31.353 53.501h-6.418v-2.479c0-1.456 1.181-2.636 2.637-2.636h1.145c1.457 0 2.636 1.181 2.636 2.636z" fill="#eff4ee"/><path d="m31.793 53.941h-7.298v-2.919c0-1.696 1.38-3.076 3.077-3.076h1.145c1.697 0 3.077 1.38 3.077 3.076v2.919zm-6.418-.879h5.538v-2.039c0-1.211-.986-2.196-2.196-2.196h-1.145c-1.212 0-2.197.985-2.197 2.196z" fill="#15003e"/><path d="m44.377 84.062h3.079v6.865h-3.079z" fill="#15003e"/><path d="m42.625 90.074h-3.093v-18.187c0-1.045.849-1.894 1.896-1.894h1.892c1.047 0 1.897.849 1.897 1.894v15.593c-.001 1.432-1.162 2.594-2.592 2.594" fill="#eff4ee"/><path d="m42.625 90.511h-3.533v-18.624c0-1.286 1.048-2.334 2.336-2.334h1.892c1.289 0 2.336 1.048 2.336 2.334v15.593c-.001 1.673-1.361 3.031-3.031 3.031zm-2.653-.878h2.653c1.186 0 2.151-.966 2.151-2.153v-15.593c0-.802-.653-1.456-1.457-1.456h-1.892c-.803 0-1.456.654-1.456 1.456v17.746z" fill="#15003e"/><path d="m31.948 83.745h-7.523c-1.743 0-3.156-1.412-3.156-3.154v-23.933c0-1.743 1.413-3.156 3.156-3.156h7.523c1.744 0 3.155 1.413 3.155 3.156v23.932c0 1.743-1.412 3.155-3.155 3.155" fill="#eff4ee"/><path d="m31.948 84.185h-7.523c-1.983 0-3.597-1.613-3.597-3.595v-23.932c0-1.983 1.613-3.596 3.597-3.596h7.523c1.983 0 3.596 1.613 3.596 3.596v23.932c-.001 1.982-1.613 3.595-3.596 3.595zm-7.523-30.244c-1.499 0-2.717 1.219-2.717 2.716v23.933c0 1.497 1.218 2.714 2.717 2.714h7.523c1.498 0 2.715-1.217 2.715-2.714v-23.932c0-1.498-1.217-2.716-2.715-2.716h-7.523z" fill="#15003e"/><path d="m31.948 84.185h-7.523c-1.983 0-3.597-1.613-3.597-3.595v-6.688c0-1.983 1.613-3.596 3.597-3.596h7.523c1.983 0 3.596 1.612 3.596 3.596v6.688c-.001 1.982-1.613 3.595-3.596 3.595zm-7.523-12.998c-1.499 0-2.717 1.219-2.717 2.716v6.688c0 1.497 1.218 2.714 2.717 2.714h7.523c1.498 0 2.715-1.217 2.715-2.714v-6.688c0-1.497-1.217-2.716-2.715-2.716z" fill="#15003e"/><path d="m21.267 63.858c-.112 0-.224-.044-.31-.131-.173-.171-.173-.449 0-.621l2.576-2.576c.506-.506 1.178-.785 1.893-.785h5.451c.713 0 1.384.276 1.889.78l2.588 2.58c.172.172.172.451.002.622-.171.174-.451.174-.622.002l-2.588-2.58c-.34-.338-.79-.524-1.269-.524h-5.451c-.479 0-.93.187-1.27.526l-2.578 2.576c-.085.087-.197.131-.311.131z" fill="#15003e"/><path d="m21.267 68.095c-.112 0-.224-.046-.31-.13-.173-.171-.173-.451 0-.622l2.576-2.577c.505-.505 1.178-.785 1.893-.785h5.451c.714 0 1.384.277 1.89.781l2.587 2.581c.172.171.172.448.002.622-.171.172-.451.172-.622 0l-2.588-2.578c-.34-.339-.79-.524-1.269-.524h-5.451c-.479 0-.93.186-1.27.524l-2.578 2.578c-.085.084-.197.13-.311.13z" fill="#15003e"/><path d="m26.623 67.487v-4.328c0-.606.491-1.097 1.097-1.097h.931c.606 0 1.096.49 1.096 1.097v4.328" fill="#eff4ee"/><path d="m29.747 67.927c-.242 0-.439-.197-.439-.44v-4.328c0-.363-.294-.658-.657-.658h-.931c-.362 0-.656.294-.656.658v4.328c0 .243-.198.44-.44.44s-.439-.197-.439-.44v-4.328c0-.848.689-1.538 1.536-1.538h.931c.848 0 1.538.69 1.538 1.538v4.328c-.002.243-.198.44-.443.44z" fill="#15003e"/><path d="m29.747 67.487c0-.863-.698-1.563-1.561-1.563s-1.563.699-1.563 1.563.7 1.564 1.563 1.564 1.561-.7 1.561-1.564" fill="#ffce08"/><path d="m28.186 69.489c-1.105 0-2.002-.896-2.002-2.002 0-1.103.897-2.003 2.002-2.003 1.103 0 2.002.9 2.002 2.003 0 1.105-.899 2.002-2.002 2.002zm0-3.124c-.619 0-1.123.504-1.123 1.122s.503 1.122 1.123 1.122 1.122-.504 1.122-1.122-.503-1.122-1.122-1.122z" fill="#15003e"/><path d="m21.267 85.378v-4.328c0-.606.492-1.098 1.098-1.098h.932c.606 0 1.096.491 1.096 1.098v4.328" fill="#eff4ee"/><path d="m24.393 85.819c-.242 0-.439-.197-.439-.44v-4.329c0-.362-.295-.657-.657-.657h-.932c-.362 0-.657.295-.657.657v4.328c0 .243-.197.44-.44.44-.242 0-.439-.197-.439-.44v-4.328c0-.848.689-1.538 1.537-1.538h.932c.847 0 1.537.69 1.537 1.538v4.328c-.002.244-.198.441-.442.441z" fill="#15003e"/><path d="m24.393 85.378c0-.864-.7-1.562-1.562-1.562-.864 0-1.563.697-1.563 1.562s.7 1.563 1.563 1.563c.862 0 1.562-.698 1.562-1.563" fill="#25e899"/><path d="m22.831 87.381c-1.105 0-2.002-.898-2.002-2.003s.897-2.002 2.002-2.002c1.104 0 2.002.896 2.002 2.002 0 1.105-.898 2.003-2.002 2.003zm0-3.127c-.619 0-1.123.506-1.123 1.124s.504 1.122 1.123 1.122 1.123-.504 1.123-1.122-.504-1.124-1.123-1.124z" fill="#15003e"/><path d="m31.217 77.032c0-1.675-1.357-3.031-3.032-3.031-1.673 0-3.03 1.356-3.03 3.031 0 1.673 1.357 3.031 3.03 3.031 1.675 0 3.032-1.358 3.032-3.031" fill="#15003e"/><path d="m28.185 80.501c-1.914 0-3.469-1.556-3.469-3.47s1.556-3.472 3.469-3.472c1.915 0 3.472 1.558 3.472 3.472s-1.557 3.47-3.472 3.47zm0-6.06c-1.429 0-2.591 1.162-2.591 2.591s1.162 2.591 2.591 2.591 2.591-1.162 2.591-2.591-1.162-2.591-2.591-2.591z" fill="#ffce08"/><path d="m31.979 85.378v-4.328c0-.606.491-1.098 1.097-1.098h.931c.606 0 1.098.491 1.098 1.098v4.328" fill="#eff4ee"/><path d="m35.104 85.819c-.243 0-.441-.197-.441-.44v-4.329c0-.362-.294-.657-.656-.657h-.931c-.362 0-.657.295-.657.657v4.328c0 .243-.197.44-.439.44-.243 0-.44-.197-.44-.44v-4.328c0-.848.688-1.538 1.537-1.538h.931c.848 0 1.537.69 1.537 1.538v4.328c-.002.244-.199.441-.441.441z" fill="#15003e"/><path d="m35.104 85.378c0-.864-.701-1.562-1.563-1.562-.863 0-1.562.697-1.562 1.562s.699 1.563 1.562 1.563c.862 0 1.563-.698 1.563-1.563" fill="#25e899"/><path d="m33.541 87.381c-1.104 0-2.002-.898-2.002-2.003s.898-2.002 2.002-2.002c1.105 0 2.003.896 2.003 2.002-.001 1.105-.898 2.003-2.003 2.003zm0-3.127c-.619 0-1.123.506-1.123 1.124s.503 1.122 1.123 1.122 1.122-.504 1.122-1.122-.503-1.124-1.122-1.124z" fill="#15003e"/><path d="m26.623 91.635v-4.328c0-.607.491-1.097 1.097-1.097h.931c.606 0 1.096.489 1.096 1.097v4.328" fill="#eff4ee"/><path d="m29.747 92.076c-.242 0-.439-.196-.439-.44v-4.328c0-.362-.294-.656-.657-.656h-.931c-.362 0-.656.294-.656.656v4.328c0 .244-.198.44-.44.44s-.439-.196-.439-.44v-4.328c0-.849.689-1.537 1.536-1.537h.931c.848 0 1.538.688 1.538 1.537v4.328c-.002.243-.198.44-.443.44z" fill="#15003e"/><path d="m29.747 91.635c0-.863-.698-1.562-1.561-1.562s-1.563.698-1.563 1.562.7 1.563 1.563 1.563 1.561-.698 1.561-1.563" fill="#ffce08"/><g fill="#15003e"><path d="m28.186 93.639c-1.105 0-2.002-.9-2.002-2.004s.897-2.002 2.002-2.002c1.103 0 2.002.897 2.002 2.002 0 1.104-.899 2.004-2.002 2.004zm0-3.128c-.619 0-1.123.505-1.123 1.124s.503 1.122 1.123 1.122 1.122-.503 1.122-1.122-.503-1.124-1.122-1.124z"/><path d="m28.185 86.651c-.242 0-.44-.199-.44-.44v-6.736c0-.241.198-.438.44-.438.243 0 .44.196.44.438v6.736c0 .241-.197.44-.44.44z"/><path d="m22.831 80.393c-.243 0-.44-.199-.44-.44v-1.427c0-1.066.868-1.935 1.935-1.935h3.86c.243 0 .44.197.44.44s-.197.44-.44.44h-3.86c-.582 0-1.055.472-1.055 1.054v1.427c-.001.242-.197.441-.44.441z"/><path d="m33.511 80.393c-.244 0-.439-.199-.439-.44v-1.427c0-.582-.475-1.054-1.056-1.054h-3.86c-.243 0-.44-.197-.44-.44s.197-.44.44-.44h3.86c1.067 0 1.935.868 1.935 1.935v1.427c.001.24-.196.439-.44.439z"/><path d="m49.503 80.161h-4.727v-5.134h4.727zm-3.848-.881h2.967v-3.372h-2.967z"/><path d="m47.139 75.467h1.923v4.253h-1.923z"/><path d="m49.503 80.161h-2.804v-5.134h2.804zm-1.923-.881h1.043v-3.372h-1.043z"/><path d="m49.503 84.502h-4.727v-3.609h4.727zm-3.848-.878h2.967v-1.85h-2.967z"/><path d="m47.139 81.333h1.923v2.729h-1.923z"/><path d="m42.374 74.93c-.97 0-1.76-.79-1.76-1.76 0-.972.791-1.762 1.76-1.762.971 0 1.76.79 1.76 1.762-.001.97-.79 1.76-1.76 1.76zm0-2.64c-.485 0-.88.396-.88.881s.395.879.88.879.88-.394.88-.879-.395-.881-.88-.881z"/><path d="m39.532 85.246h5.685v.878h-5.685z"/><path d="m39.532 86.852h5.685v.879h-5.685z"/><path d="m41.934 74.489h.879v11.195h-.879z"/><path d="m24.935 52.101h6.438v1.32h-6.438z"/><path d="m28.974 50.176c0-.435-.354-.787-.789-.787-.434 0-.786.353-.786.787 0 .435.352.788.786.788.435-.001.789-.353.789-.788"/></g><path d="m28.185 50.638v1.655" fill="#eff4ee"/><path d="m28.185 52.733c-.242 0-.44-.197-.44-.439v-1.655c0-.243.198-.44.44-.44.243 0 .44.197.44.44v1.655c0 .242-.197.439-.44.439z" fill="#15003e"/><path d="m28.145 53.812v6.374" fill="#eff4ee"/><path d="m28.145 60.625c-.245 0-.441-.196-.441-.44v-6.374c0-.243.197-.439.441-.439.242 0 .439.196.439.439v6.374c0 .244-.197.44-.439.44z" fill="#15003e"/><path d="m42.49 63.296h-2.968v-4.009h2.968zm-2.089-.88h1.209v-2.248h-1.209z" fill="#15003e"/><path d="m41.005 59.727h1.045v3.13h-1.045z" fill="#15003e"/><path d="m47.921 73.952h-1.564c-.244 0-.44-.197-.44-.44s.196-.438.44-.438h1.564c.243 0 .439.194.439.438s-.196.44-.439.44z" fill="#15003e"/><path d="m47.921 72.417h-1.564c-.244 0-.44-.197-.44-.438 0-.243.196-.44.44-.44h1.564c.243 0 .439.197.439.44 0 .241-.196.438-.439.438z" fill="#15003e"/><path d="m47.921 70.884h-1.564c-.244 0-.44-.197-.44-.44s.196-.44.44-.44h1.564c.243 0 .439.197.439.44s-.196.44-.439.44z" fill="#15003e"/><path d="m49.063 69.35h-3.846c-.244 0-.44-.195-.44-.438s.197-.44.44-.44h3.846c.243 0 .44.197.44.44s-.198.438-.44.438z" fill="#15003e"/><path d="m51.096 102.354h-10.486c-.757 0-1.372-.616-1.372-1.372v-1.363c0-.756.615-1.371 1.372-1.371h10.485c.757 0 1.372.615 1.372 1.371v1.363c.001.756-.614 1.372-1.371 1.372zm-10.486-3.227c-.271 0-.493.22-.493.491v1.363c0 .271.221.49.493.49h10.485c.272 0 .492-.22.492-.49v-1.363c0-.271-.22-.491-.492-.491z" fill="#15003e"/><path d="m47.287 92.955v-4.058l-2.666 2.665v1.393" fill="#eff4ee"/><path d="m47.726 92.955h-.881v-2.996l-1.785 1.785v1.211h-.878v-1.393c0-.116.046-.229.128-.312l2.665-2.665c.125-.125.314-.163.479-.093.165.068.272.229.272.404z" fill="#15003e"/><path d="m49.209 96.829h-6.886c-.243 0-.44-.197-.44-.438 0-.243.197-.44.44-.44h6.886c.243 0 .438.197.438.44.001.24-.195.438-.438.438z" fill="#15003e"/><path d="m47.639 95.302h-3.717c-.577 0-1.048-.471-1.048-1.048v-.726c0-.579.471-1.048 1.048-1.048h3.717c.578 0 1.048.469 1.048 1.048v.726c0 .578-.47 1.048-1.048 1.048zm-3.718-1.942c-.093 0-.169.075-.169.169v.726c0 .091.076.167.169.167h3.717c.093 0 .168-.076.168-.167v-.726c0-.094-.075-.169-.168-.169z" fill="#15003e"/><path d="m47.726 99.127h-3.79v-4.706h3.79zm-2.909-.879h2.028v-2.945h-2.028z" fill="#15003e"/><path d="m47.287 97.563h-2.911c-.243 0-.439-.196-.439-.439 0-.244.197-.44.439-.44h2.911c.242 0 .439.196.439.44 0 .243-.197.439-.439.439z" fill="#15003e"/><path d="m41.297 101.913h3.08v1.22h-3.08z" fill="#15003e"/><path d="m44.377 103.573h-3.08c-.242 0-.439-.199-.439-.44v-1.22c0-.243.197-.44.439-.44h3.08c.242 0 .44.197.44.44v1.22c0 .241-.198.44-.44.44zm-2.64-.881h2.199v-.338h-2.199z" fill="#15003e"/><path d="m47.956 101.913h3.08v1.22h-3.08z" fill="#15003e"/><path d="m51.035 103.573h-3.08c-.244 0-.44-.199-.44-.44v-1.22c0-.243.197-.44.44-.44h3.08c.243 0 .439.197.439.44v1.22c.001.241-.196.44-.439.44zm-2.64-.881h2.201v-.338h-2.201z" fill="#15003e"/><path d="m46.254 87.36c.231 0 .418-.188.418-.419s-.188-.417-.418-.417" fill="#eff4ee"/><path d="m49.619 102.72c-.244 0-.44-.197-.44-.44v-1.539h-5.569c-.325 0-.59.265-.59.588v.584c0 .244-.198.441-.44.441s-.439-.197-.439-.441v-.584c0-.81.659-1.469 1.47-1.469h6.45v2.42c-.001.243-.198.44-.442.44z" fill="#15003e"/><path d="m49.503 90.511c-.244 0-.44-.196-.44-.438v-20.08c0-.244.197-.44.44-.44.242 0 .439.196.439.44v20.08c0 .242-.197.438-.439.438z" fill="#15003e"/><path d="m51.475 88.274c-.243 0-.439-.197-.439-.438v-15.987c0-.243.196-.44.439-.44s.44.197.44.44v15.986c0 .242-.197.439-.44.439z" fill="#15003e"/><path d="m73.958 63.87c-.633 0-1.148-.514-1.148-1.145v-4.313l9.959-9.958.051 4.178-3.844 6.688-4.214 4.213c-.217.216-.501.337-.804.337zm-.268-5.093v3.948c0 .182.157.265.269.265.068 0 .129-.027.182-.079l4.131-4.13 3.666-6.378-.022-1.85z" fill="#15003e"/><path d="m76.373 61.3v-6.119l5.309-5.018.178 3.338z" fill="#15003e"/><path d="m81.86 53.501h6.417v-2.479c0-1.456-1.18-2.636-2.637-2.636h-1.144c-1.457 0-2.637 1.181-2.637 2.636v2.479z" fill="#eff4ee"/><path d="m88.717 53.941h-7.298v-2.919c0-1.696 1.38-3.076 3.077-3.076h1.144c1.696 0 3.077 1.38 3.077 3.076zm-6.418-.879h5.537v-2.039c0-1.211-.984-2.196-2.196-2.196h-1.144c-1.211 0-2.197.985-2.197 2.196z" fill="#15003e"/><path d="m65.756 84.062h3.081v6.865h-3.081z" fill="#15003e"/><path d="m70.589 90.074h3.091v-18.187c0-1.045-.848-1.894-1.895-1.894h-1.894c-1.047 0-1.896.849-1.896 1.894v15.593c.002 1.432 1.162 2.594 2.594 2.594" fill="#eff4ee"/><path d="m74.122 90.511h-3.532c-1.673 0-3.032-1.358-3.032-3.031v-15.593c0-1.286 1.048-2.334 2.335-2.334h1.894c1.287 0 2.336 1.048 2.336 2.334v18.624zm-4.23-20.08c-.804 0-1.455.654-1.455 1.456v15.593c0 1.188.965 2.153 2.152 2.153h2.651v-17.746c0-.802-.652-1.456-1.455-1.456z" fill="#15003e"/><path d="m81.265 83.745h7.523c1.743 0 3.156-1.412 3.156-3.154v-23.933c0-1.743-1.413-3.156-3.156-3.156h-7.523c-1.743 0-3.156 1.413-3.156 3.156v23.932c0 1.743 1.413 3.155 3.156 3.155" fill="#eff4ee"/><path d="m88.789 84.185h-7.523c-1.982 0-3.596-1.613-3.596-3.595v-23.932c0-1.983 1.613-3.596 3.596-3.596h7.523c1.983 0 3.597 1.613 3.597 3.596v23.932c-.001 1.982-1.614 3.595-3.597 3.595zm-7.524-30.244c-1.498 0-2.716 1.219-2.716 2.716v23.933c0 1.497 1.218 2.714 2.716 2.714h7.523c1.497 0 2.717-1.217 2.717-2.714v-23.932c0-1.498-1.22-2.716-2.717-2.716h-7.523z" fill="#15003e"/><path d="m88.789 84.185h-7.523c-1.982 0-3.596-1.613-3.596-3.595v-6.688c0-1.983 1.613-3.596 3.596-3.596h7.523c1.983 0 3.597 1.612 3.597 3.596v6.688c-.001 1.982-1.614 3.595-3.597 3.595zm-7.524-12.998c-1.498 0-2.716 1.219-2.716 2.716v6.688c0 1.497 1.218 2.714 2.716 2.714h7.523c1.497 0 2.717-1.217 2.717-2.714v-6.688c0-1.497-1.22-2.716-2.717-2.716z" fill="#15003e"/><path d="m91.945 63.858c-.112 0-.225-.044-.312-.131l-2.576-2.576c-.34-.34-.792-.526-1.271-.526h-5.449c-.479 0-.931.187-1.271.524l-2.587 2.58c-.172.172-.45.172-.622-.002-.171-.171-.171-.449.002-.622l2.587-2.58c.506-.503 1.176-.78 1.891-.78h5.449c.715 0 1.389.278 1.894.785l2.576 2.576c.172.171.172.45 0 .621-.086.087-.199.131-.311.131z" fill="#15003e"/><path d="m91.945 68.095c-.112 0-.225-.046-.312-.13l-2.576-2.578c-.34-.339-.791-.524-1.271-.524h-5.449c-.479 0-.931.186-1.271.524l-2.587 2.578c-.172.172-.45.172-.622 0-.171-.174-.171-.451.002-.622l2.587-2.581c.505-.503 1.176-.781 1.891-.781h5.449c.715 0 1.389.279 1.894.785l2.576 2.577c.172.171.172.451 0 .622-.086.084-.199.13-.311.13z" fill="#15003e"/><path d="m86.59 67.487v-4.328c0-.606-.492-1.097-1.098-1.097h-.932c-.605 0-1.097.49-1.097 1.097v4.328" fill="#eff4ee"/><path d="m86.59 67.927c-.244 0-.44-.197-.44-.44v-4.328c0-.363-.295-.658-.657-.658h-.932c-.362 0-.656.294-.656.658v4.328c0 .243-.197.44-.44.44s-.44-.197-.44-.44v-4.328c0-.848.689-1.538 1.537-1.538h.932c.848 0 1.536.69 1.536 1.538v4.328c-.001.243-.197.44-.44.44z" fill="#15003e"/><path d="m83.464 67.487c0-.863.699-1.563 1.563-1.563.862 0 1.563.699 1.563 1.563s-.701 1.564-1.563 1.564c-.863 0-1.563-.7-1.563-1.564" fill="#ffce08"/><path d="m85.027 69.489c-1.104 0-2.003-.896-2.003-2.002 0-1.103.898-2.003 2.003-2.003s2.002.9 2.002 2.003c0 1.105-.897 2.002-2.002 2.002zm0-3.124c-.62 0-1.122.504-1.122 1.122s.502 1.122 1.122 1.122c.618 0 1.123-.504 1.123-1.122s-.505-1.122-1.123-1.122z" fill="#15003e"/><path d="m81.996 77.032c0-1.675 1.357-3.031 3.031-3.031s3.031 1.356 3.031 3.031c0 1.673-1.357 3.031-3.031 3.031s-3.031-1.358-3.031-3.031" fill="#15003e"/><path d="m85.027 80.501c-1.914 0-3.47-1.556-3.47-3.47s1.556-3.472 3.47-3.472 3.471 1.558 3.471 3.472-1.557 3.47-3.471 3.47zm0-6.06c-1.429 0-2.59 1.162-2.59 2.591s1.161 2.591 2.59 2.591 2.591-1.162 2.591-2.591-1.162-2.591-2.591-2.591z" fill="#ffce08"/><path d="m84.657 85.378v-7.798c0-.605-.492-1.098-1.099-1.098h-.93c-.606 0-1.099.492-1.099 1.098v7.798" fill="#eff4ee"/><path d="m84.657 85.819c-.242 0-.439-.197-.439-.44v-7.798c0-.362-.296-.657-.659-.657h-.93c-.363 0-.659.295-.659.657v7.798c0 .243-.195.44-.439.44-.242 0-.439-.197-.439-.44v-7.798c0-.847.69-1.538 1.538-1.538h.93c.848 0 1.539.691 1.539 1.538v7.798c-.002.243-.2.44-.442.44z" fill="#15003e"/><path d="m81.53 85.378c0-.864.7-1.562 1.564-1.562.862 0 1.563.697 1.563 1.562s-.7 1.563-1.563 1.563c-.864 0-1.564-.698-1.564-1.563" fill="#ffce08"/><path d="m83.094 87.381c-1.105 0-2.004-.898-2.004-2.003s.898-2.002 2.004-2.002c1.104 0 2.003.896 2.003 2.002 0 1.105-.899 2.003-2.003 2.003zm0-3.127c-.619 0-1.125.506-1.125 1.124s.506 1.122 1.125 1.122c.618 0 1.123-.504 1.123-1.122s-.505-1.124-1.123-1.124z" fill="#15003e"/><path d="m88.883 80.034h-2.639v-3.856h1.58c.586 0 1.059.474 1.059 1.06z" fill="#eff4ee"/><path d="m89.325 80.471h-3.521v-4.734h2.021c.827 0 1.5.672 1.5 1.5zm-2.641-.878h1.76v-2.356c0-.342-.277-.619-.619-.619h-1.141z" fill="#15003e"/><path d="m89.267 85.378v-4.328c0-.606-.491-1.098-1.097-1.098h-.932c-.606 0-1.098.491-1.098 1.098v4.328" fill="#eff4ee"/><path d="m89.267 85.819c-.244 0-.439-.197-.439-.44v-4.329c0-.362-.295-.657-.657-.657h-.932c-.362 0-.656.295-.656.657v4.328c0 .243-.198.44-.441.44-.242 0-.439-.197-.439-.44v-4.328c0-.848.689-1.538 1.537-1.538h.932c.848 0 1.536.69 1.536 1.538v4.328c-.001.244-.198.441-.441.441z" fill="#15003e"/><path d="m86.141 85.378c0-.864.699-1.562 1.563-1.562.862 0 1.563.697 1.563 1.562s-.7 1.563-1.563 1.563c-.864 0-1.563-.698-1.563-1.563" fill="#ffce08"/><path d="m87.705 87.381c-1.105 0-2.003-.898-2.003-2.003s.897-2.002 2.003-2.002c1.104 0 2.002.896 2.002 2.002 0 1.105-.898 2.003-2.002 2.003zm0-3.127c-.62 0-1.122.506-1.122 1.124s.502 1.122 1.122 1.122c.618 0 1.123-.504 1.123-1.122s-.505-1.124-1.123-1.124z" fill="#15003e"/><path d="m68.437 80.161h-4.727v-5.134h4.727zm-3.846-.881h2.966v-3.372h-2.966z" fill="#15003e"/><path d="m64.151 75.467h1.923v4.253h-1.923z" fill="#15003e"/><path d="m66.514 80.161h-2.804v-5.134h2.804zm-1.923-.881h1.043v-3.372h-1.043z" fill="#15003e"/><path d="m68.437 84.502h-4.727v-3.609h4.727zm-3.846-.878h2.966v-1.85h-2.966z" fill="#15003e"/><path d="m64.151 81.333h1.923v2.729h-1.923z" fill="#15003e"/><path d="m70.839 74.93c-.971 0-1.76-.79-1.76-1.76 0-.972.789-1.762 1.76-1.762.97 0 1.76.79 1.76 1.762 0 .97-.79 1.76-1.76 1.76zm0-2.64c-.485 0-.881.396-.881.881s.396.879.881.879c.483 0 .88-.394.88-.879s-.396-.881-.88-.881z" fill="#15003e"/><path d="m67.997 85.246h5.685v.878h-5.685z" fill="#15003e"/><path d="m67.997 86.852h5.685v.879h-5.685z" fill="#15003e"/><path d="m70.398 74.489h.881v11.195h-.881z" fill="#15003e"/><path d="m81.838 52.101h6.438v1.32h-6.438z" fill="#15003e"/><path d="m84.239 50.176c0-.435.353-.787.788-.787s.788.353.788.787c0 .435-.354.788-.788.788-.436-.001-.788-.353-.788-.788" fill="#15003e"/><path d="m85.027 50.638v1.655" fill="#eff4ee"/><path d="m85.027 52.733c-.243 0-.439-.197-.439-.439v-1.655c0-.243.196-.44.439-.44.242 0 .44.197.44.44v1.655c0 .242-.198.439-.44.439z" fill="#15003e"/><path d="m85.068 53.812v6.374" fill="#eff4ee"/><path d="m85.068 60.625c-.242 0-.439-.196-.439-.44v-6.374c0-.243.197-.439.439-.439.243 0 .44.196.44.439v6.374c0 .244-.197.44-.44.44z" fill="#15003e"/><path d="m73.69 63.296h-2.968v-4.009h2.968zm-2.089-.88h1.209v-2.248h-1.209z" fill="#15003e"/><path d="m71.162 59.727h1.045v3.13h-1.045z" fill="#15003e"/><path d="m66.855 73.952h-1.563c-.243 0-.439-.197-.439-.44s.196-.438.439-.438h1.563c.244 0 .44.194.44.438s-.196.44-.44.44z" fill="#15003e"/><path d="m66.855 72.417h-1.563c-.243 0-.439-.197-.439-.438 0-.243.196-.44.439-.44h1.563c.244 0 .44.197.44.44 0 .241-.196.438-.44.438z" fill="#15003e"/><path d="m66.855 70.884h-1.563c-.243 0-.439-.197-.439-.44s.196-.44.439-.44h1.563c.244 0 .44.197.44.44s-.196.44-.44.44z" fill="#15003e"/><path d="m67.997 69.35h-3.846c-.243 0-.44-.195-.44-.438s.197-.44.44-.44h3.846c.242 0 .44.197.44.44s-.198.438-.44.438z" fill="#15003e"/><path d="m72.602 102.354h-10.485c-.757 0-1.372-.616-1.372-1.372v-1.363c0-.756.615-1.371 1.372-1.371h10.485c.758 0 1.372.615 1.372 1.371v1.363c0 .756-.614 1.372-1.372 1.372zm-10.485-3.227c-.271 0-.493.22-.493.491v1.363c0 .271.222.49.493.49h10.485c.271 0 .492-.22.492-.49v-1.363c0-.271-.222-.491-.492-.491z" fill="#15003e"/><path d="m65.926 92.955v-4.058l2.665 2.665v1.393" fill="#eff4ee"/><path d="m69.031 92.955h-.879v-1.211l-1.785-1.785v2.996h-.88v-4.058c0-.176.107-.336.271-.404.165-.07.354-.032.479.093l2.665 2.665c.082.083.128.195.128.312v1.392z" fill="#15003e"/><path d="m70.889 96.829h-6.886c-.242 0-.439-.197-.439-.438 0-.243.197-.44.439-.44h6.886c.242 0 .439.197.439.44.001.24-.197.438-.439.438z" fill="#15003e"/><path d="m69.291 95.302h-3.717c-.578 0-1.049-.471-1.049-1.048v-.726c0-.579.471-1.048 1.049-1.048h3.717c.579 0 1.048.469 1.048 1.048v.726c-.001.578-.469 1.048-1.048 1.048zm-3.717-1.942c-.093 0-.169.075-.169.169v.726c0 .091.076.167.169.167h3.717c.093 0 .169-.076.169-.167v-.726c0-.094-.076-.169-.169-.169z" fill="#15003e"/><path d="m69.276 99.127h-3.789v-4.706h3.789zm-2.909-.879h2.029v-2.945h-2.029z" fill="#15003e"/><path d="m68.836 97.563h-2.91c-.242 0-.439-.196-.439-.439 0-.244.197-.44.439-.44h2.91c.243 0 .439.196.439.44.001.243-.195.439-.439.439z" fill="#15003e"/><path d="m68.837 101.913h3.079v1.22h-3.079z" fill="#15003e"/><path d="m71.917 103.573h-3.079c-.245 0-.441-.199-.441-.44v-1.22c0-.243.196-.44.441-.44h3.079c.243 0 .438.197.438.44v1.22c0 .241-.195.44-.438.44zm-2.641-.881h2.2v-.338h-2.2z" fill="#15003e"/><path d="m62.177 101.913h3.079v1.22h-3.079z" fill="#15003e"/><path d="m65.256 103.573h-3.079c-.242 0-.44-.199-.44-.44v-1.22c0-.243.198-.44.44-.44h3.079c.243 0 .441.197.441.44v1.22c.001.241-.197.44-.441.44zm-2.638-.881h2.2v-.338h-2.2z" fill="#15003e"/><path d="m66.958 87.36c-.231 0-.419-.188-.419-.419s.188-.417.419-.417" fill="#eff4ee"/><path d="m63.594 102.72c-.245 0-.44-.197-.44-.44v-2.42h6.449c.81 0 1.469.659 1.469 1.469v.584c0 .244-.196.441-.439.441-.242 0-.44-.197-.44-.441v-.584c0-.323-.264-.588-.589-.588h-5.57v1.539c-.001.243-.198.44-.44.44z" fill="#15003e"/><path d="m63.917 90.511c-.242 0-.438-.196-.438-.438v-20.08c0-.244.196-.44.438-.44.244 0 .441.196.441.44v20.08c.001.242-.196.438-.441.438z" fill="#15003e"/><path d="m61.947 88.274c-.243 0-.44-.197-.44-.438v-15.987c0-.243.197-.44.44-.44.242 0 .439.197.439.44v15.986c0 .242-.197.439-.439.439z" fill="#15003e"/><path d="m61.947 88.274c-.243 0-.44-.197-.44-.438v-15.987c0-.243.197-.44.44-.44.242 0 .439.197.439.44v15.986c0 .242-.197.439-.439.439z" fill="#15003e"/><path d="m84.657 81.366h-3.014" fill="#eff4ee"/><path d="m84.657 81.802h-3.014c-.243 0-.439-.196-.439-.437 0-.246.196-.441.439-.441h3.014c.242 0 .44.195.44.441 0 .241-.198.437-.44.437z" fill="#15003e"/><path d="m84.657 79.474h-3.014" fill="#eff4ee"/><path d="m84.657 79.915h-3.014c-.243 0-.439-.196-.439-.44 0-.241.196-.438.439-.438h3.014c.242 0 .44.196.44.438 0 .243-.198.44-.44.44z" fill="#15003e"/><path d="m48.478 67.06c0-.563-.458-1.021-1.022-1.021s-1.021.458-1.021 1.021c0 .564.457 1.021 1.021 1.021.564.001 1.022-.456 1.022-1.021" fill="#15003e"/><path d="m66.426 67.06c0-.563-.457-1.021-1.021-1.021s-1.021.458-1.021 1.021c0 .564.456 1.021 1.021 1.021s1.021-.456 1.021-1.021" fill="#15003e"/><path d="m42.051 60.186h4.384v2.499h-4.384z" fill="#15003e"/><path d="m66.575 60.186h4.385v2.499h-4.385z" fill="#15003e"/><path d="m61.889 71.125c-.243 0-.44-.197-.44-.44 0-1.494-2.182-2.758-4.767-2.758-2.584 0-4.767 1.264-4.767 2.758 0 .243-.197.44-.44.44s-.439-.197-.439-.44c0-2.04 2.48-3.639 5.647-3.639s5.647 1.599 5.647 3.639c0 .243-.198.44-.441.44z" fill="#15003e"/><path d="m58.125 69.084c0-.929-.756-1.685-1.686-1.685-.932 0-1.688.756-1.688 1.685 0 .933.755 1.688 1.688 1.688.931 0 1.686-.755 1.686-1.688" fill="#eff4ee"/><path d="m65.292 66.363c0-.349-.284-.633-.635-.633-.35 0-.635.284-.635.633 0 .352.285.635.635.635s.635-.284.635-.635" fill="#eff4ee"/><path d="m48.725 66.363c0-.349-.285-.633-.634-.633-.351 0-.635.284-.635.633 0 .352.285.635.635.635.349 0 .634-.284.634-.635" fill="#eff4ee"/><path d="m89.984 73.323c0-.266-.216-.482-.482-.482-.268 0-.482.217-.482.482 0 .268.215.482.482.482.266 0 .482-.215.482-.482" fill="#25e899"/><path d="m89.984 74.766c0-.268-.216-.484-.482-.484-.268 0-.482.217-.482.484 0 .266.215.48.482.48.266.001.482-.214.482-.48" fill="#25e899"/><path d="m63.719 54.951h-15.303v-4.124h15.304v4.124zm-14.424-.88h13.545v-2.364h-13.545z" fill="#15003e"/><path d="m53.181 41.557c0-.377-.306-.684-.684-.684-.379 0-.685.307-.685.684 0 .378.306.685.685.685.378-.001.684-.307.684-.685" fill="#eff4ee"/><path d="m60.534 41.557c0-.377-.307-.684-.685-.684s-.685.307-.685.684c0 .378.307.685.685.685s.685-.307.685-.685" fill="#eff4ee"/><path d="m48.387 38.292h14.142l1.198.456-.901 3.227h-13.549z" fill="#25e899"/><path d="m60.911 45.963h-9.719c-1.056 0-1.915-.857-1.915-1.915v-2.073h13.548v2.073c.001 1.058-.857 1.915-1.914 1.915" fill="#eff4ee"/><path d="m60.911 46.404h-9.719c-1.297 0-2.354-1.057-2.354-2.355v-2.513h14.428v2.513c0 1.298-1.057 2.355-2.355 2.355zm-11.193-3.989v1.633c0 .814.663 1.476 1.474 1.476h9.719c.813 0 1.476-.662 1.476-1.476v-1.633z" fill="#15003e"/><path d="m53.568 38.292c-2.127-.934-3.613-3.06-3.613-5.532 0-1.458.517-2.797 1.379-3.84 1.107-1.342 8.074-1.409 9.18-.161.942 1.065 1.517 2.467 1.517 4.001 0 2.472-1.485 4.597-3.612 5.531" fill="#0fce7c"/><path d="m53.186 38.731c-.064 0-.13-.015-.193-.044-2.344-1.141-3.802-3.47-3.802-6.077 0-1.294.367-2.552 1.063-3.637.13-.204.402-.264.608-.133.204.131.263.402.132.608-.604.943-.923 2.036-.923 3.162 0 2.268 1.268 4.293 3.307 5.285.218.106.31.37.204.588-.076.157-.233.248-.396.248z" fill="#15003e"/><path d="m58.77 38.698c-.162 0-.317-.089-.395-.243-.108-.217-.021-.481.197-.59 2.002-1.003 3.245-3.017 3.245-5.255 0-1.259-.392-2.459-1.134-3.471-.145-.196-.103-.471.094-.616.196-.143.472-.102.615.095.854 1.164 1.306 2.544 1.306 3.992 0 2.573-1.429 4.888-3.732 6.042-.064.032-.13.046-.196.046z" fill="#15003e"/><path d="m63.168 42.415h-14.232l-2.316-9.117v-.055c0-5.201 4.231-9.432 9.433-9.432 5.2 0 9.431 4.23 9.431 9.432v.055l-.013.054zm-13.547-.879h12.861l2.121-8.346c-.029-4.69-3.854-8.498-8.551-8.498-4.698 0-8.523 3.807-8.552 8.498z" fill="#15003e"/><path d="m47.06 33.554c-.244 0-.44-.197-.44-.44v-8.557c0-.244.197-.44.44-.44s.44.196.44.44v8.557c0 .242-.196.44-.44.44z" fill="#15003e"/><path d="m65.042 33.554c-.242 0-.439-.197-.439-.44v-10.974c0-.243.197-.44.439-.44.243 0 .44.197.44.44v10.974c.001.242-.196.44-.44.44z" fill="#15003e"/><path d="m47.76 37.397h-.928c-.996 0-1.806-.81-1.806-1.805v-3.467c0-.995.81-1.806 1.806-1.806h.393c.244 0 .441.197.441.44s-.198.439-.441.439h-.393c-.51 0-.925.415-.925.926v3.467c0 .51.415.925.925.925h.928c.243 0 .439.197.439.44.001.245-.196.441-.439.441z" fill="#15003e"/><path d="m65.303 37.397h-.928c-.243 0-.44-.196-.44-.44 0-.243.197-.44.44-.44h.928c.511 0 .925-.415.925-.925v-3.467c0-.511-.414-.926-.925-.926h-.393c-.243 0-.44-.197-.44-.439 0-.243.197-.44.44-.44h.393c.995 0 1.806.811 1.806 1.806v3.467c0 .994-.811 1.804-1.806 1.804z" fill="#15003e"/><path d="m47.156 32.18c-.11 0-.222-.042-.307-.125-.174-.17-.177-.449-.007-.622 2.498-2.559 5.819-3.967 9.353-3.967 3.327 0 6.506 1.27 8.953 3.575.177.167.185.445.019.622-.167.176-.445.186-.622.019-2.283-2.15-5.248-3.336-8.35-3.336-3.294 0-6.392 1.315-8.723 3.702-.087.087-.201.132-.316.132z" fill="#15003e"/><path d="m63.727 38.73h-15.34c-.242 0-.439-.197-.439-.439 0-.243.197-.44.439-.44h15.34c.242 0 .439.197.439.44.001.242-.197.439-.439.439z" fill="#15003e"/><path d="m59.208 30.759c0 .87-.706 1.575-1.574 1.575-.871 0-1.576-.705-1.576-1.575s.705-1.576 1.576-1.576c.867.001 1.574.706 1.574 1.576" fill="#fff"/><path d="m60.333 33.114c0 .352-.285.637-.637.637-.353 0-.637-.286-.637-.637 0-.352.284-.637.637-.637.351 0 .637.285.637.637" fill="#fff"/><path d="m61.491 41.16c-.623 0-.937-.472-1.143-.784-.196-.296-.277-.389-.409-.389-.131 0-.213.093-.409.39-.206.313-.52.784-1.143.784-.624 0-.937-.471-1.143-.784-.196-.296-.279-.39-.409-.39-.132 0-.214.093-.41.39-.206.313-.519.784-1.143.784s-.937-.471-1.144-.784c-.196-.296-.277-.39-.409-.39-.131 0-.213.093-.409.39-.207.313-.519.784-1.144.784s-.938-.471-1.144-.784c-.196-.296-.278-.39-.409-.39-.243 0-.44-.197-.44-.44s.198-.44.44-.44c.625 0 .938.471 1.144.784.196.297.278.39.409.39.13 0 .213-.092.409-.39.208-.313.52-.784 1.144-.784.625 0 .937.471 1.144.784.196.297.277.39.409.39.13 0 .213-.092.408-.39.208-.313.521-.784 1.145-.784s.936.471 1.142.784c.197.297.279.39.41.39.132 0 .213-.092.41-.39.205-.312.518-.784 1.142-.784s.937.471 1.142.784c.198.297.279.39.41.39.242 0 .439.197.439.44 0 .241-.197.439-.439.439z" fill="#15003e"/><path d="m49.631 49.792h12.401" fill="#eff4ee"/><path d="m62.032 50.232h-12.401c-.242 0-.439-.197-.439-.44s.197-.44.439-.44h12.401c.243 0 .439.197.439.44s-.196.44-.439.44z" fill="#25e899"/><path d="m50.788 47.824h10.56" fill="#eff4ee"/><path d="m61.348 48.264h-10.56c-.243 0-.44-.198-.44-.44 0-.243.197-.44.44-.44h10.561c.242 0 .44.197.44.44 0 .242-.199.44-.441.44z" fill="#25e899"/><path d="m51.47 54.511h9.688v2.234h-9.688z" fill="#15003e"/><path d="m38.995 50.216c-.114 0-.226-.043-.312-.129l-2.914-2.913h-1.12c-.244 0-.441-.197-.441-.44v-.716h-.948c-.242 0-.439-.197-.439-.439v-1.27l-1.336-1.335c-.171-.171-.171-.45 0-.622.173-.172.451-.172.622 0l1.464 1.464c.083.082.129.195.129.311v1.012h.949c.243 0 .439.197.439.44v.715h.864c.116 0 .229.047.311.129l3.041 3.042c.173.171.173.451 0 .622-.084.086-.197.129-.309.129z" fill="#25e899"/><path d="m32.513 43.818c-.113 0-.226-.043-.313-.129l-.714-.715c-.171-.171-.171-.45 0-.622.173-.172.451-.172.622 0l.716.715c.171.171.171.451 0 .622-.085.085-.199.129-.311.129z" fill="#15003e"/><path d="m38.995 50.216c-.114 0-.226-.043-.312-.129l-2.04-2.04c-.171-.171-.171-.45 0-.622s.451-.172.622 0l2.039 2.039c.173.171.173.451 0 .622-.084.087-.197.13-.309.13z" fill="#15003e"/><path d="m44.622 50.776c-.112 0-.225-.043-.311-.129-.172-.171-.172-.45 0-.622l1.141-1.14c.172-.172.451-.172.623 0 .171.172.171.45-.001.622l-1.14 1.14c-.087.086-.199.129-.312.129z" fill="#25e899"/><path d="m45.889 60.037-7.203-7.142c-.947-.946-.947-2.485-.002-3.43l2.271-2.272c.458-.458 1.067-.709 1.715-.709.647 0 1.255.252 1.713.709l4.621 4.623-.621.622-4.623-4.622c-.291-.292-.68-.452-1.091-.452-.413 0-.801.16-1.094.452l-2.271 2.271c-.601.602-.601 1.583 0 2.185l7.204 7.142z" fill="#15003e"/><path d="m44.432 52.378c-.433 0-.839-.169-1.146-.475l-.229-.23c-.307-.306-.477-.713-.477-1.146s.169-.84.477-1.146l1.757-1.757 2.522 2.523-1.756 1.757c-.309.305-.715.474-1.148.474zm.381-3.511-1.136 1.135c-.14.14-.217.326-.217.524s.078.384.217.524l.231.23c.139.14.326.217.524.217s.385-.077.525-.217l1.135-1.135z" fill="#15003e"/><path d="m43.521 53.339c-.258-.258-.676-.258-.933 0-.257.257-.257.675 0 .933s.675.258.933 0c.257-.258.257-.676 0-.933" fill="#25e899"/><path d="m42.137 51.956c-.257-.258-.674-.258-.933 0-.258.257-.258.675 0 .933s.675.258.933 0c.259-.258.259-.676 0-.933" fill="#25e899"/><path d="m40.791 50.609c-.258-.258-.675-.258-.934 0-.257.258-.257.675 0 .934.258.258.675.258.934 0 .258-.259.258-.676 0-.934" fill="#25e899"/><path d="m40.275 48.935c-.112 0-.225-.043-.31-.129l-3.44-3.439c-.172-.172-.172-.451 0-.623.171-.171.45-.171.621 0l3.44 3.44c.171.172.171.451 0 .622-.085.086-.197.129-.311.129z" fill="#15003e"/><path d="m66.981 58.612-.624-.621 4.875-4.887c.841-.839.841-2.203.002-3.042-.84-.838-2.204-.838-3.042 0l-4.535 4.535-.621-.623 4.533-4.534c1.183-1.182 3.104-1.182 4.286 0s1.182 3.104 0 4.286z" fill="#15003e"/><path d="m71.624 50.139c-.114 0-.227-.043-.312-.129-.172-.172-.172-.45 0-.623l3.421-3.422c.172-.171.451-.171.622 0 .172.172.172.45 0 .623l-3.422 3.422c-.085.086-.197.129-.309.129z" fill="#15003e"/><path d="m74.811 50.218c-.112 0-.225-.043-.31-.129l-2.957-2.956c-.172-.171-.172-.45 0-.622.173-.172.45-.172.621 0l2.957 2.956c.172.172.172.451 0 .622-.085.086-.199.129-.311.129z" fill="#15003e"/><path d="m73.25 48.657c-.112 0-.225-.043-.311-.129l-1.396-1.396c-.172-.171-.172-.45 0-.622.173-.172.45-.172.621 0l1.396 1.395c.171.172.171.451 0 .622-.084.087-.196.13-.31.13z" fill="#25e899"/><path d="m76 49.03c-.112 0-.224-.043-.312-.129l-2.955-2.956c-.173-.171-.173-.45 0-.622.172-.173.45-.173.621 0l2.957 2.956c.172.172.172.45 0 .622-.086.086-.198.129-.311.129z" fill="#15003e"/><path d="m74.277 47.307c-.113 0-.226-.043-.311-.129l-1.42-1.42c-.173-.172-.173-.451 0-.622.171-.172.449-.172.621 0l1.421 1.42c.172.172.172.45 0 .622-.085.086-.198.129-.311.129z" fill="#25e899"/><path d="m77.034 46.859c-.736 0-1.43-.287-1.949-.808-.521-.52-.808-1.212-.808-1.948s.287-1.428.808-1.949c.172-.171.451-.171.623 0l3.274 3.275c.083.082.128.194.128.311 0 .118-.045.229-.128.312-.521.52-1.213.807-1.948.807zm-1.602-3.734c-.18.291-.275.627-.275.978 0 .501.196.972.551 1.326s.824.55 1.326.55c.351 0 .687-.096.978-.275z" fill="#15003e"/><path d="m76.976 44.486c-.112 0-.226-.043-.312-.129-.173-.171-.173-.45 0-.623l2.779-2.779c.173-.172.451-.172.622 0 .172.172.172.45 0 .622l-2.78 2.779c-.084.087-.197.13-.309.13z" fill="#15003e"/><path d="m80.452 41.266c0-.384-.312-.696-.696-.696-.386 0-.697.313-.697.696 0 .385.312.697.697.697.384 0 .696-.312.696-.697" fill="#25e899"/><path d="m68.176 52.767c-.111 0-.225-.043-.311-.129-.173-.172-.173-.451 0-.622l1.75-1.75c.172-.172.45-.172.623 0 .171.171.171.45 0 .622l-1.751 1.751c-.085.085-.198.128-.311.128z" fill="#25e899"/><path d="m68.875 56.35h-.881v-2.028c0-.117.047-.229.129-.312l1.941-1.94c.172-.172.451-.171.622 0l.827.828-.622.622-.517-.517-1.5 1.501v1.846z" fill="#15003e"/></svg>