<svg enable-background="new 0 0 110.979 128.417" height="128.417" viewBox="0 0 110.979 128.417" width="110.979" xmlns="http://www.w3.org/2000/svg"><path d="m110.849 96.417-55.426 32-55.423-32v-64l55.423-32 55.426 32z" fill="#25e899"/><path d="m101.926 38.143v53.131l-.009.01-1.42.819-6.281 3.62-2.719 1.57-.241.121-.13.059-.11.061-3.03 1.74-1.869 1.079-.04.03-3.25 1.88-.87.511-1.38.79-1.46.85-.181.099-.019.011-1.71.989-.96.551-4.621 2.67-.629.369-.061.03-3.5 2.021-4.04 2.33-.01.01-.429.25-7.081 4.089-7.57-4.379-.04-.021-2.069-1.199-5.361-3.101-.69-.399-5.09-2.941-.389-.229-.491-.28-.33-.191-1.849-1.069-.571-.33-1.71-.99-2.509-1.451-2.911-1.679-.089-.05-4.67-2.7-2.111-1.221-7.5-4.329v-53.131l14.33-8.279 1.991-1.151 4.929-2.839 1.58-.911.17-.099 1.66-.95 1.161-.67 1.54-.901.519-.3 2.28-1.309.69-.401 1.46-.839 5.721-3.3.46-.261 6.069-3.51 1.44-.83 1.06.611 6.49 3.75 14.53 8.389 1.04.601 2.3 1.319.87.5 1.52.88 1.37.79.801.46.09.051 1.809 1.04 3.78 2.189.04.021v.01l.26.149.66.381 1.46.84 1.941 1.12.779.449.441.25 1.939 1.12z" fill="#fff"/><path d="m9.826 38.141v53.121l46.072 26.559 46.074-26.559v-53.121l-46.074-26.561zm90.281 1.08v50.971l-44.209 25.489-44.211-25.489v-50.971l44.211-25.489z" opacity=".13"/><path d="m33.567 67.992v-7" fill="#25e899"/><path d="m33.567 68.486c-.273 0-.495-.221-.495-.494v-7c0-.273.221-.494.495-.494.272 0 .494.221.494.494v7c0 .273-.222.494-.494.494z" fill="#15003e"/><path d="m33.567 85.843v-6.291" fill="#15003e"/><path d="m33.567 86.339c-.273 0-.495-.223-.495-.496v-6.291c0-.273.221-.494.495-.494.272 0 .494.221.494.494v6.291c0 .274-.222.496-.494.496z" fill="#15003e"/><path d="m44.154 62.385h22.794" fill="#25e899"/><path d="m44.154 61.89h22.794v.989h-22.794z" fill="#15003e"/><path d="m44.154 62.385.247 3.341 2.258 3.051 1.979.187 7.243.707 7.425-.533 2.49-1.726 1.152-3.285-.494-1.742z" fill="#15003e"/><path d="m61.679 69.89h-12.257c-3.177 0-5.763-2.586-5.763-5.763v-7.428c0-.273.221-.495.495-.495h22.794c.272 0 .494.222.494.495v7.428c0 3.177-2.585 5.763-5.763 5.763zm-17.031-12.697v6.934c0 2.632 2.142 4.773 4.774 4.773h12.257c2.633 0 4.774-2.141 4.774-4.773v-6.934z" fill="#15003e"/><path d="m57.778 62.676c0-1.3-1.054-2.354-2.354-2.354s-2.354 1.054-2.354 2.354 1.054 2.353 2.354 2.353 2.354-1.053 2.354-2.353" fill="#25e899"/><path d="m55.424 65.525c-1.57 0-2.848-1.279-2.848-2.849s1.278-2.849 2.848-2.849 2.848 1.278 2.848 2.849-1.277 2.849-2.848 2.849zm0-4.708c-1.024 0-1.858.834-1.858 1.858s.834 1.858 1.858 1.858 1.858-.834 1.858-1.858-.833-1.858-1.858-1.858z" fill="#15003e"/><path d="m46.599 68.296c0-.635-.514-1.148-1.148-1.148s-1.149.514-1.149 1.148.515 1.148 1.149 1.148 1.148-.513 1.148-1.148" fill="#15003e"/><path d="m66.781 68.296c0-.635-.514-1.148-1.148-1.148s-1.149.514-1.149 1.148.515 1.148 1.149 1.148 1.148-.513 1.148-1.148" fill="#15003e"/><path d="m57.448 70.576c0-1.047-.85-1.898-1.897-1.898s-1.896.852-1.896 1.898.849 1.895 1.896 1.895 1.897-.848 1.897-1.895" fill="#eff4ee"/><path d="m65.504 67.513c0-.395-.319-.713-.713-.713-.395 0-.713.318-.713.713s.318.713.713.713c.394 0 .713-.318.713-.713" fill="#eff4ee"/><path d="m46.876 67.513c0-.395-.319-.713-.713-.713s-.713.318-.713.713.319.713.713.713.713-.318.713-.713" fill="#eff4ee"/><g fill="#15003e"><path d="m44.994 85.156h-1.881c-.273 0-.495-.221-.495-.494v-11.227c0-1.311 1.066-2.377 2.376-2.377 1.311 0 2.377 1.066 2.377 2.377v9.344c0 1.31-1.067 2.377-2.377 2.377zm-1.387-.989h1.387c.765 0 1.388-.623 1.388-1.389v-9.344c0-.766-.623-1.387-1.388-1.387s-1.387.621-1.387 1.387z"/><path d="m49.106 86.339c-.273 0-.494-.223-.494-.496v-12.525c0-.273.221-.494.494-.494s.495.221.495.494v12.525c0 .274-.222.496-.495.496z"/><path d="m47.848 92.404h-3.477c-.966 0-1.753-.785-1.753-1.752s.787-1.754 1.753-1.754h3.477c.967 0 1.753.787 1.753 1.754s-.786 1.752-1.753 1.752zm-3.477-2.516c-.421 0-.764.342-.764.764 0 .42.342.764.764.764h3.477c.421 0 .764-.344.764-.764 0-.422-.343-.764-.764-.764z"/><path d="m50.783 101.236h-8.689c-1.201 0-2.178-.977-2.178-2.178 0-1.203.977-2.18 2.178-2.18h8.689c1.202 0 2.179.977 2.179 2.18 0 1.201-.977 2.178-2.179 2.178zm-8.689-3.367c-.656 0-1.189.533-1.189 1.189s.534 1.189 1.189 1.189h8.689c.656 0 1.189-.533 1.189-1.189s-.534-1.189-1.189-1.189z"/><path d="m47.712 97.869h-3.342c-.273 0-.495-.223-.495-.496v-5.463c0-.273.222-.494.495-.494h3.342c.273 0 .495.221.495.494v5.463c.001.273-.221.496-.495.496zm-2.847-.991h2.354v-4.475h-2.354z"/><path d="m49.106 88.125h-5.994c-.273 0-.495-.221-.495-.494s.222-.494.495-.494h5.994c.273 0 .495.221.495.494s-.222.494-.495.494z"/><path d="m42.156 100.742h3.227v1.184h-3.227z"/><path d="m45.382 102.421h-3.227c-.272 0-.494-.223-.494-.496v-1.184c0-.273.222-.494.494-.494h3.227c.272 0 .495.221.495.494v1.184c0 .274-.222.496-.495.496zm-2.731-.99h2.236v-.195h-2.236z"/><path d="m47.053 100.742h3.225v1.184h-3.225z"/><path d="m50.278 102.421h-3.225c-.273 0-.495-.223-.495-.496v-1.184c0-.273.222-.494.495-.494h3.225c.273 0 .495.221.495.494v1.184c0 .274-.221.496-.495.496zm-2.73-.99h2.236v-.195h-2.236z"/><path d="m43.112 80.498h3.764"/><path d="m43.112 80.003h3.764v.99h-3.764z"/><path d="m43.112 75.607h3.764"/><path d="m43.112 75.111h3.764v.99h-3.764z"/><path d="m45.681 88.021c-1.049 0-1.903-.855-1.903-1.904s.854-1.902 1.903-1.902 1.903.854 1.903 1.902-.854 1.904-1.903 1.904zm0-2.818c-.504 0-.914.41-.914.914s.41.914.914.914.914-.41.914-.914-.41-.914-.914-.914z"/><path d="m46.042 89.888c-.273 0-.495-.223-.495-.496v-1.762c0-.273.222-.494.495-.494s.495.221.495.494v1.762c0 .274-.222.496-.495.496z"/><path d="m48.28 72.392c-.126 0-.252-.047-.349-.145l-1.538-1.537h-2.093c-.272 0-.494-.221-.494-.494s.222-.494.494-.494h2.298c.131 0 .257.051.35.145l1.682 1.682c.193.193.193.506 0 .699-.096.097-.223.144-.35.144z"/><path d="m68.298 85.203h-1.881c-1.311 0-2.377-1.066-2.377-2.377v-9.346c0-1.311 1.066-2.375 2.377-2.375 1.31 0 2.376 1.064 2.376 2.375v11.227c0 .273-.221.496-.495.496zm-1.881-13.11c-.766 0-1.388.623-1.388 1.387v9.346c0 .764.622 1.387 1.388 1.387h1.386v-10.733c0-.764-.621-1.387-1.386-1.387z"/><path d="m62.305 86.384c-.273 0-.495-.221-.495-.494v-12.525c0-.273.222-.494.495-.494s.495.221.495.494v12.525c0 .274-.221.494-.495.494z"/><path d="m67.041 92.451h-3.478c-.967 0-1.753-.787-1.753-1.754s.786-1.754 1.753-1.754h3.478c.966 0 1.753.787 1.753 1.754s-.788 1.754-1.753 1.754zm-3.478-2.518c-.421 0-.763.344-.763.764 0 .422.342.764.763.764h3.478c.421 0 .763-.342.763-.764 0-.42-.342-.764-.763-.764z"/><path d="m69.317 101.283h-8.688c-1.202 0-2.18-.977-2.18-2.18 0-1.201.978-2.178 2.18-2.178h8.688c1.201 0 2.179.977 2.179 2.178 0 1.203-.978 2.18-2.179 2.18zm-8.689-3.369c-.656 0-1.189.533-1.189 1.189s.533 1.189 1.189 1.189h8.688c.656 0 1.189-.533 1.189-1.189s-.533-1.189-1.189-1.189z"/><path d="m67.041 97.914h-3.342c-.273 0-.495-.221-.495-.494v-5.465c0-.273.222-.494.495-.494h3.342c.273 0 .495.221.495.494v5.465c0 .273-.222.494-.495.494zm-2.848-.989h2.353v-4.475h-2.353z"/><path d="m68.298 88.171h-5.993c-.273 0-.495-.223-.495-.494 0-.273.222-.496.495-.496h5.993c.273 0 .495.223.495.496 0 .272-.221.494-.495.494z"/><path d="m66.029 100.787h3.226v1.186h-3.226z"/><path d="m69.254 102.466h-3.226c-.273 0-.495-.221-.495-.494v-1.186c0-.271.222-.494.495-.494h3.226c.273 0 .494.223.494.494v1.186c.001.274-.22.494-.494.494zm-2.73-.988h2.236v-.195h-2.236z"/><path d="m61.132 100.787h3.226v1.186h-3.226z"/><path d="m64.358 102.466h-3.226c-.273 0-.495-.221-.495-.494v-1.186c0-.271.222-.494.495-.494h3.226c.273 0 .495.223.495.494v1.186c0 .274-.222.494-.495.494zm-2.732-.988h2.236v-.195h-2.236z"/><path d="m68.298 80.544h-3.762"/><path d="m64.536 80.05h3.763v.988h-3.763z"/><path d="m68.298 75.652h-3.762"/><path d="m64.536 75.158h3.763v.988h-3.763z"/><path d="m65.73 88.066c-1.05 0-1.903-.854-1.903-1.902 0-1.051.854-1.904 1.903-1.904s1.903.854 1.903 1.904c0 1.048-.853 1.902-1.903 1.902zm0-2.816c-.504 0-.913.41-.913.914 0 .502.409.912.913.912s.914-.41.914-.912c0-.504-.41-.914-.914-.914z"/><path d="m65.37 89.933c-.273 0-.495-.221-.495-.494v-1.762c0-.273.222-.496.495-.496s.494.223.494.496v1.762c0 .273-.221.494-.494.494z"/><path d="m63.129 72.439c-.126 0-.252-.049-.349-.145-.194-.193-.194-.508 0-.701l1.682-1.682c.093-.092.218-.145.35-.145h2.298c.272 0 .494.221.494.494s-.222.496-.494.496h-2.093l-1.538 1.537c-.096.097-.223.146-.35.146z"/><path d="m34.843 84.445h-2.553c-1.615 0-2.928-1.314-2.928-2.93v-18.089c0-1.614 1.313-2.928 2.928-2.928h2.553c1.615 0 2.929 1.313 2.929 2.928v18.089c-.001 1.615-1.314 2.93-2.929 2.93zm-2.553-22.958c-1.069 0-1.938.87-1.938 1.938v18.089c0 1.07.869 1.939 1.938 1.939h2.553c1.07 0 1.939-.869 1.939-1.939v-18.088c0-1.068-.87-1.938-1.939-1.938h-2.553z"/></g><path d="m35.532 79.552c0-1.086-.88-1.965-1.965-1.965s-1.965.879-1.965 1.965c0 1.084.88 1.965 1.965 1.965 1.084 0 1.965-.881 1.965-1.965" fill="#25e899"/><path d="m33.567 82.011c-1.356 0-2.459-1.104-2.459-2.459 0-1.357 1.103-2.459 2.459-2.459 1.355 0 2.458 1.102 2.458 2.459 0 1.356-1.103 2.459-2.458 2.459zm0-3.929c-.811 0-1.47.66-1.47 1.471s.659 1.469 1.47 1.469 1.47-.658 1.47-1.469-.66-1.471-1.47-1.471z" fill="#15003e"/><path d="m37.276 68.486h-7.419c-.273 0-.495-.221-.495-.494s.222-.496.495-.496h7.419c.273 0 .495.223.495.496s-.221.494-.495.494z" fill="#15003e"/><path d="m37.276 72.966h-7.419c-.273 0-.495-.223-.495-.496 0-.271.222-.494.495-.494h7.419c.273 0 .495.223.495.494 0 .274-.221.496-.495.496z" fill="#15003e"/><path d="m37.276 62.1h7.141v3.648h-7.141z" fill="#15003e"/><path d="m31.81 91.943v-4.867c0-.682.552-1.232 1.233-1.232h1.048c.681 0 1.233.551 1.233 1.232v4.867" fill="#eff4ee"/><path d="m35.324 92.439c-.273 0-.494-.223-.494-.496v-4.867c0-.406-.333-.738-.739-.738h-1.048c-.407 0-.738.332-.738.738v4.867c0 .273-.222.496-.495.496s-.495-.223-.495-.496v-4.867c0-.951.775-1.729 1.728-1.729h1.048c.953 0 1.728.777 1.728 1.729v4.867c-.001.273-.222.496-.495.496z" fill="#15003e"/><path d="m35.324 91.943c0-.969-.787-1.756-1.757-1.756-.971 0-1.757.787-1.757 1.756 0 .971.787 1.758 1.757 1.758s1.757-.787 1.757-1.758" fill="#25e899"/><path d="m33.567 94.197c-1.242 0-2.252-1.012-2.252-2.254 0-1.24 1.01-2.25 2.252-2.25s2.251 1.01 2.251 2.25c0 1.242-1.009 2.254-2.251 2.254zm0-3.516c-.696 0-1.263.566-1.263 1.262 0 .697.567 1.264 1.263 1.264.695 0 1.262-.566 1.262-1.264 0-.695-.567-1.262-1.262-1.262z" fill="#15003e"/><path d="m79.219 84.445h-2.553c-1.614 0-2.928-1.314-2.928-2.93v-18.089c0-1.614 1.313-2.928 2.928-2.928h2.553c1.615 0 2.929 1.313 2.929 2.928v18.089c0 1.615-1.314 2.93-2.929 2.93zm-2.552-22.958c-1.069 0-1.939.87-1.939 1.938v18.089c0 1.07.87 1.939 1.939 1.939h2.553c1.07 0 1.939-.869 1.939-1.939v-18.088c0-1.068-.869-1.938-1.939-1.938h-2.553z" fill="#15003e"/><path d="m81.653 68.486h-7.42c-.273 0-.494-.221-.494-.494s.221-.496.494-.496h7.42c.273 0 .495.223.495.496s-.222.494-.495.494z" fill="#15003e"/><path d="m81.653 72.966h-7.42c-.273 0-.494-.223-.494-.496 0-.271.221-.494.494-.494h7.42c.273 0 .495.223.495.494 0 .274-.222.496-.495.496z" fill="#15003e"/><path d="m77.943 67.992v-7" fill="#25e899"/><path d="m77.943 68.486c-.272 0-.494-.221-.494-.494v-7c0-.273.222-.494.494-.494.273 0 .495.221.495.494v7c0 .273-.222.494-.495.494z" fill="#15003e"/><path d="m67.092 62.1h7.141v3.648h-7.141z" fill="#15003e"/><path d="m79.7 80.941v-4.867c0-.682-.552-1.234-1.232-1.234h-1.048c-.682 0-1.233.553-1.233 1.234v4.867" fill="#eff4ee"/><path d="m79.7 81.435c-.273 0-.494-.221-.494-.494v-4.867c0-.408-.332-.74-.738-.74h-1.048c-.408 0-.739.332-.739.74v4.867c0 .273-.222.494-.494.494-.273 0-.495-.221-.495-.494v-4.867c0-.953.775-1.729 1.729-1.729h1.048c.953 0 1.728.775 1.728 1.729v4.867c-.002.273-.223.494-.497.494z" fill="#15003e"/><path d="m76.186 80.941c0-.971.787-1.758 1.757-1.758.971 0 1.757.787 1.757 1.758s-.786 1.758-1.757 1.758c-.97 0-1.757-.787-1.757-1.758" fill="#25e899"/><path d="m77.943 83.193c-1.241 0-2.252-1.01-2.252-2.252s1.011-2.252 2.252-2.252c1.242 0 2.252 1.01 2.252 2.252s-1.01 2.252-2.252 2.252zm0-3.516c-.695 0-1.263.568-1.263 1.264s.567 1.262 1.263 1.262 1.263-.566 1.263-1.262-.567-1.264-1.263-1.264z" fill="#15003e"/><path d="m63.801 57.193h-17.207v-4.637h17.207zm-16.217-.989h15.229v-2.657h-15.229z" fill="#15003e"/><path d="m61.626 51.724h-12.65c-.273 0-.495-.222-.495-.495s.222-.495.495-.495h12.65c.272 0 .494.222.494.495s-.221.495-.494.495z" fill="#25e899"/><path d="m46.563 40.785h15.899l1.348.514-1.014 3.629h-15.232z" fill="#25e899"/><path d="m60.643 49.412h-10.927c-1.188 0-2.152-.963-2.152-2.153v-2.331h15.232v2.331c0 1.19-.963 2.153-2.153 2.153" fill="#eff4ee"/><path d="m60.643 49.907h-10.927c-1.459 0-2.647-1.188-2.647-2.648v-2.826h16.223v2.826c0 1.461-1.188 2.648-2.649 2.648zm-12.585-4.485v1.836c0 .915.744 1.659 1.658 1.659h10.927c.914 0 1.658-.744 1.658-1.659v-1.836z" fill="#15003e"/><path d="m52.387 40.785c-2.392-1.05-4.062-3.439-4.062-6.219 0-1.64.582-3.145 1.55-4.318 1.245-1.509 9.079-1.585 10.322-.182 1.062 1.198 1.705 2.773 1.705 4.5 0 2.779-1.669 5.168-4.061 6.218" fill="#0fce7c"/><path d="m51.958 41.28c-.073 0-.146-.016-.217-.05-2.636-1.283-4.274-3.901-4.274-6.832 0-1.456.413-2.87 1.193-4.09.148-.23.454-.297.684-.15.229.147.297.454.15.684-.679 1.061-1.039 2.291-1.039 3.556 0 2.55 1.425 4.826 3.719 5.942.246.12.348.416.229.662-.085.175-.261.278-.445.278z" fill="#15003e"/><path d="m58.237 41.243c-.183 0-.356-.1-.443-.273-.122-.245-.023-.542.221-.664 2.252-1.128 3.65-3.392 3.65-5.909 0-1.416-.44-2.766-1.276-3.904-.161-.22-.114-.53.106-.691.22-.162.529-.115.691.106.961 1.309 1.468 2.861 1.468 4.489 0 2.894-1.608 5.497-4.196 6.793-.071.037-.147.053-.221.053z" fill="#15003e"/><path d="m63.181 45.422h-16.002l-2.604-10.25v-.063c0-5.847 4.757-10.605 10.605-10.605s10.605 4.758 10.605 10.605v.063l-.017.06zm-15.233-.989h14.463l2.384-9.384c-.032-5.274-4.333-9.555-9.615-9.555s-9.583 4.28-9.616 9.555z" fill="#15003e"/><path d="m45.069 35.458c-.273 0-.494-.221-.494-.494v-9.623c0-.273.221-.495.494-.495s.495.222.495.495v9.623c0 .273-.221.494-.495.494z" fill="#15003e"/><path d="m65.291 35.458c-.273 0-.495-.221-.495-.494v-12.339c0-.273.222-.495.495-.495s.495.222.495.495v12.339c0 .273-.222.494-.495.494z" fill="#15003e"/><path d="m45.857 39.78h-1.043c-1.119 0-2.03-.911-2.03-2.03v-3.899c0-1.119.911-2.03 2.03-2.03h.442c.273 0 .495.222.495.495s-.222.495-.495.495h-.442c-.574 0-1.041.467-1.041 1.041v3.899c0 .574.467 1.041 1.041 1.041h1.043c.273 0 .495.221.495.495s-.222.493-.495.493z" fill="#15003e"/><path d="m65.583 39.78h-1.044c-.273 0-.495-.221-.495-.495s.222-.495.495-.495h1.044c.573 0 1.041-.467 1.041-1.041v-3.899c0-.574-.468-1.041-1.041-1.041h-.443c-.273 0-.495-.222-.495-.495s.222-.495.495-.495h.442c1.12 0 2.03.911 2.03 2.03v3.899c.001 1.121-.909 2.032-2.029 2.032z" fill="#15003e"/><path d="m45.178 33.914c-.124 0-.249-.047-.346-.141-.195-.191-.199-.504-.008-.7 2.809-2.876 6.543-4.46 10.516-4.46 3.742 0 7.317 1.428 10.067 4.02.199.187.208.5.021.699-.188.198-.501.208-.7.021-2.565-2.418-5.9-3.75-9.389-3.75-3.705 0-7.188 1.478-9.808 4.162-.096.098-.224.149-.353.149z" fill="#15003e"/><path d="m63.81 41.279h-17.247c-.273 0-.495-.221-.495-.495 0-.273.221-.494.495-.494h17.247c.273 0 .495.221.495.494 0 .274-.222.495-.495.495z" fill="#15003e"/><path d="m58.728 32.316c0 .978-.793 1.771-1.771 1.771-.979 0-1.771-.793-1.771-1.771s.792-1.771 1.771-1.771c.978 0 1.771.793 1.771 1.771" fill="#fff"/><path d="m59.994 34.964c0 .396-.32.716-.716.716s-.717-.32-.717-.716.321-.717.717-.717.716.321.716.717" fill="#fff"/><path d="m61.295 44.011c-.701 0-1.053-.531-1.284-.882-.221-.333-.313-.438-.46-.438s-.239.104-.46.438c-.232.351-.583.882-1.285.882s-1.054-.531-1.285-.882c-.221-.333-.313-.438-.46-.438s-.239.104-.46.438c-.232.351-.584.881-1.286.881s-1.053-.531-1.285-.881c-.221-.334-.313-.438-.459-.438-.148 0-.24.104-.46.438-.232.351-.584.881-1.286.881-.703 0-1.054-.531-1.286-.881-.221-.334-.313-.438-.46-.438-.273 0-.495-.221-.495-.495 0-.273.221-.495.495-.495.702 0 1.054.53 1.286.881.221.333.313.438.46.438s.24-.104.46-.438c.232-.351.584-.881 1.286-.881s1.052.53 1.285.881c.221.333.313.438.46.438s.24-.104.461-.438c.232-.351.583-.881 1.285-.881s1.053.53 1.285.881c.221.333.313.438.46.438s.239-.104.46-.438c.232-.351.583-.881 1.285-.881s1.053.53 1.285.881c.221.333.313.438.459.438.273 0 .494.222.494.495 0 .274-.221.496-.495.496z" fill="#15003e"/></svg>