<svg enable-background="new 8.625 -8.375 111 127.953" height="127.953" viewBox="8.625 -8.375 111 127.953" width="111" xmlns="http://www.w3.org/2000/svg" xmlns:xlink="http://www.w3.org/1999/xlink"><clipPath id="a"><path d="m-21.913-114.108-6.61 3.815c-.248.143-.399.406-.399.691v7.635c0 .287.152.549.399.691l6.61 3.819c.248.142.552.142.799 0l6.61-3.819c.245-.143.398-.404.398-.691v-7.635c0-.285-.153-.549-.4-.691l-6.608-3.815c-.124-.071-.263-.107-.399-.107-.139 0-.277.036-.4.107"/></clipPath><clipPath id="b"><path d="m124.726 211.42h20.744v21.695h-20.744z" transform="matrix(.8979 .4401 -.4401 .8979 111.6071 -36.7739)"/></clipPath><clipPath id="c" clip-path="url(#b)"><path d="m124.726 211.42h20.744v21.695h-20.744z" transform="matrix(.8979 .4401 -.4401 .8979 111.6071 -36.7739)"/></clipPath><clipPath id="d" clip-path="url(#c)"><path d="m124.726 211.42h20.744v21.695h-20.744z" transform="matrix(.8979 .4401 -.4401 .8979 111.6071 -36.7739)"/></clipPath><clipPath id="e" clip-path="url(#d)"><path d="m124.726 211.42h20.744v21.695h-20.744z" transform="matrix(.8979 .4401 -.4401 .8979 111.6071 -36.7739)"/></clipPath><clipPath id="f" clip-path="url(#e)"><path d="m124.726 211.42h20.744v21.695h-20.744z" transform="matrix(.8979 .4401 -.4401 .8979 111.6071 -36.7739)"/></clipPath><clipPath id="g" clip-path="url(#f)"><path d="m124.726 211.42h20.744v21.695h-20.744z" transform="matrix(.8979 .4401 -.4401 .8979 111.6071 -36.7739)"/></clipPath><clipPath id="h" clip-path="url(#g)"><path d="m124.726 211.42h20.744v21.695h-20.744z" transform="matrix(.8979 .4401 -.4401 .8979 111.6071 -36.7739)"/></clipPath><clipPath id="i" clip-path="url(#h)"><path d="m124.726 211.42h20.744v21.695h-20.744z" transform="matrix(.8979 .4401 -.4401 .8979 111.6071 -36.7739)"/></clipPath><clipPath id="j" clip-path="url(#i)"><path d="m124.726 211.42h20.744v21.695h-20.744z" transform="matrix(.8979 .4401 -.4401 .8979 111.6071 -36.7739)"/></clipPath><clipPath id="k" clip-path="url(#j)"><path d="m124.726 211.42h20.744v21.695h-20.744z" transform="matrix(.8979 .4401 -.4401 .8979 111.6071 -36.7739)"/></clipPath><clipPath id="l" clip-path="url(#k)"><path d="m124.726 211.42h20.744v21.695h-20.744z" transform="matrix(.8979 .4401 -.4401 .8979 111.6071 -36.7739)"/></clipPath><clipPath id="m" clip-path="url(#l)"><path d="m124.726 211.42h20.744v21.695h-20.744z" transform="matrix(.8979 .4401 -.4401 .8979 111.6071 -36.7739)"/></clipPath><clipPath id="n" clip-path="url(#m)"><path d="m124.726 211.42h20.744v21.695h-20.744z" transform="matrix(.8979 .4401 -.4401 .8979 111.6071 -36.7739)"/></clipPath><clipPath id="o" clip-path="url(#n)"><path d="m124.726 211.42h20.744v21.695h-20.744z" transform="matrix(.8979 .4401 -.4401 .8979 111.6071 -36.7739)"/></clipPath><clipPath id="p" clip-path="url(#o)"><path d="m124.726 211.42h20.744v21.695h-20.744z" transform="matrix(.8979 .4401 -.4401 .8979 111.6071 -36.7739)"/></clipPath><clipPath id="q" clip-path="url(#p)"><path d="m124.726 211.42h20.744v21.695h-20.744z" transform="matrix(.8979 .4401 -.4401 .8979 111.6071 -36.7739)"/></clipPath><clipPath id="r" clip-path="url(#q)"><path d="m124.726 211.42h20.744v21.695h-20.744z" transform="matrix(.8979 .4401 -.4401 .8979 111.6071 -36.7739)"/></clipPath><clipPath id="s" clip-path="url(#r)"><path d="m124.726 211.42h20.744v21.695h-20.744z" transform="matrix(.8979 .4401 -.4401 .8979 111.6071 -36.7739)"/></clipPath><clipPath id="t" clip-path="url(#s)"><path d="m124.726 211.42h20.744v21.695h-20.744z" transform="matrix(.8979 .4401 -.4401 .8979 111.6071 -36.7739)"/></clipPath><clipPath id="u" clip-path="url(#t)"><path d="m124.726 211.42h20.744v21.695h-20.744z" transform="matrix(.8979 .4401 -.4401 .8979 111.6071 -36.7739)"/></clipPath><clipPath id="v" clip-path="url(#u)"><path d="m124.726 211.42h20.744v21.695h-20.744z" transform="matrix(.8979 .4401 -.4401 .8979 111.6071 -36.7739)"/></clipPath><clipPath id="w" clip-path="url(#v)"><path d="m124.726 211.42h20.744v21.695h-20.744z" transform="matrix(.8979 .4401 -.4401 .8979 111.6071 -36.7739)"/></clipPath><clipPath id="x" clip-path="url(#w)"><path d="m124.726 211.42h20.744v21.695h-20.744z" transform="matrix(.8979 .4401 -.4401 .8979 111.6071 -36.7739)"/></clipPath><clipPath id="y" clip-path="url(#x)"><path d="m124.726 211.42h20.744v21.695h-20.744z" transform="matrix(.8979 .4401 -.4401 .8979 111.6071 -36.7739)"/></clipPath><clipPath id="z" clip-path="url(#y)"><path d="m124.726 211.42h20.744v21.695h-20.744z" transform="matrix(.8979 .4401 -.4401 .8979 111.6071 -36.7739)"/></clipPath><clipPath id="A" clip-path="url(#z)"><path d="m124.726 211.42h20.744v21.695h-20.744z" transform="matrix(.8979 .4401 -.4401 .8979 111.6071 -36.7739)"/></clipPath><clipPath id="B" clip-path="url(#A)"><path d="m124.726 211.42h20.744v21.695h-20.744z" transform="matrix(.8979 .4401 -.4401 .8979 111.6071 -36.7739)"/></clipPath><clipPath id="C" clip-path="url(#B)"><path d="m124.726 211.42h20.744v21.695h-20.744z" transform="matrix(.8979 .4401 -.4401 .8979 111.6071 -36.7739)"/></clipPath><clipPath id="D" clip-path="url(#C)"><path d="m124.726 211.42h20.744v21.695h-20.744z" transform="matrix(.8979 .4401 -.4401 .8979 111.6071 -36.7739)"/></clipPath><clipPath id="E" clip-path="url(#D)"><path d="m124.726 211.42h20.744v21.695h-20.744z" transform="matrix(.8979 .4401 -.4401 .8979 111.6071 -36.7739)"/></clipPath><clipPath id="F" clip-path="url(#E)"><path d="m124.726 211.42h20.744v21.695h-20.744z" transform="matrix(.8979 .4401 -.4401 .8979 111.6071 -36.7739)"/></clipPath><clipPath id="G" clip-path="url(#F)"><path d="m124.726 211.42h20.744v21.695h-20.744z" transform="matrix(.8979 .4401 -.4401 .8979 111.6071 -36.7739)"/></clipPath><clipPath id="H" clip-path="url(#G)"><path d="m124.726 211.42h20.744v21.695h-20.744z" transform="matrix(.8979 .4401 -.4401 .8979 111.6071 -36.7739)"/></clipPath><clipPath id="I" clip-path="url(#H)"><path d="m124.726 211.42h20.744v21.695h-20.744z" transform="matrix(.8979 .4401 -.4401 .8979 111.6071 -36.7739)"/></clipPath><clipPath id="J" clip-path="url(#I)"><path d="m124.726 211.42h20.744v21.695h-20.744z" transform="matrix(.8979 .4401 -.4401 .8979 111.6071 -36.7739)"/></clipPath><clipPath id="K" clip-path="url(#J)"><path d="m124.726 211.42h20.744v21.695h-20.744z" transform="matrix(.8979 .4401 -.4401 .8979 111.6071 -36.7739)"/></clipPath><clipPath id="L" clip-path="url(#K)"><path d="m124.726 211.42h20.744v21.695h-20.744z" transform="matrix(.8979 .4401 -.4401 .8979 111.6071 -36.7739)"/></clipPath><clipPath id="M" clip-path="url(#L)"><path d="m124.726 211.42h20.744v21.695h-20.744z" transform="matrix(.8979 .4401 -.4401 .8979 111.6071 -36.7739)"/></clipPath><clipPath id="N" clip-path="url(#M)"><path d="m124.726 211.42h20.744v21.695h-20.744z" transform="matrix(.8979 .4401 -.4401 .8979 111.6071 -36.7739)"/></clipPath><clipPath id="O" clip-path="url(#N)"><path d="m124.726 211.42h20.744v21.695h-20.744z" transform="matrix(.8979 .4401 -.4401 .8979 111.6071 -36.7739)"/></clipPath><clipPath id="P" clip-path="url(#O)"><path d="m124.726 211.42h20.744v21.695h-20.744z" transform="matrix(.8979 .4401 -.4401 .8979 111.6071 -36.7739)"/></clipPath><clipPath id="Q" clip-path="url(#P)"><path d="m124.726 211.42h20.744v21.695h-20.744z" transform="matrix(.8979 .4401 -.4401 .8979 111.6071 -36.7739)"/></clipPath><clipPath id="R" clip-path="url(#Q)"><path d="m124.726 211.42h20.744v21.695h-20.744z" transform="matrix(.8979 .4401 -.4401 .8979 111.6071 -36.7739)"/></clipPath><clipPath id="S" clip-path="url(#R)"><path d="m124.726 211.42h20.744v21.695h-20.744z" transform="matrix(.8979 .4401 -.4401 .8979 111.6071 -36.7739)"/></clipPath><clipPath id="T" clip-path="url(#S)"><path d="m124.726 211.42h20.744v21.695h-20.744z" transform="matrix(.8979 .4401 -.4401 .8979 111.6071 -36.7739)"/></clipPath><clipPath id="U" clip-path="url(#T)"><path d="m124.726 211.42h20.744v21.695h-20.744z" transform="matrix(.8979 .4401 -.4401 .8979 111.6071 -36.7739)"/></clipPath><clipPath id="V" clip-path="url(#U)"><path d="m124.726 211.42h20.744v21.695h-20.744z" transform="matrix(.8979 .4401 -.4401 .8979 111.6071 -36.7739)"/></clipPath><clipPath id="W" clip-path="url(#V)"><path d="m124.726 211.42h20.744v21.695h-20.744z" transform="matrix(.8979 .4401 -.4401 .8979 111.6071 -36.7739)"/></clipPath><clipPath id="X" clip-path="url(#W)"><path d="m124.726 211.42h20.744v21.695h-20.744z" transform="matrix(.8979 .4401 -.4401 .8979 111.6071 -36.7739)"/></clipPath><clipPath id="Y" clip-path="url(#X)"><path d="m124.726 211.42h20.744v21.695h-20.744z" transform="matrix(.8979 .4401 -.4401 .8979 111.6071 -36.7739)"/></clipPath><clipPath id="Z" clip-path="url(#Y)"><path d="m124.726 211.42h20.744v21.695h-20.744z" transform="matrix(.8979 .4401 -.4401 .8979 111.6071 -36.7739)"/></clipPath><clipPath id="aa"><path d="m-28.759-101.482c.063.084.142.155.235.207l5.67 3.276.945.543c.141.081.302.115.46.104.053-.004.105-.015.157-.029l6.972-12.764c-.053-.059-.115-.107-.186-.148l-4.328-2.499-2.288-1.317c-.065-.037-.136-.064-.207-.083z"/></clipPath><clipPath id="ab"><path d="m124.007 211.452h22.132v21.628h-22.132z" transform="matrix(-.5942 -.8043 .8043 -.5942 36.5609 462.9775)"/></clipPath><clipPath id="ac" clip-path="url(#ab)"><path d="m124.007 211.452h22.132v21.628h-22.132z" transform="matrix(-.5942 -.8043 .8043 -.5942 36.5609 462.9775)"/></clipPath><clipPath id="ad" clip-path="url(#ac)"><path d="m124.007 211.452h22.132v21.628h-22.132z" transform="matrix(-.5942 -.8043 .8043 -.5942 36.5609 462.9775)"/></clipPath><clipPath id="ae" clip-path="url(#ad)"><path d="m124.007 211.452h22.132v21.628h-22.132z" transform="matrix(-.5942 -.8043 .8043 -.5942 36.5609 462.9775)"/></clipPath><clipPath id="af" clip-path="url(#ae)"><path d="m124.007 211.452h22.132v21.628h-22.132z" transform="matrix(-.5942 -.8043 .8043 -.5942 36.5609 462.9775)"/></clipPath><clipPath id="ag" clip-path="url(#af)"><path d="m124.007 211.452h22.132v21.628h-22.132z" transform="matrix(-.5942 -.8043 .8043 -.5942 36.5609 462.9775)"/></clipPath><clipPath id="ah" clip-path="url(#ag)"><path d="m124.007 211.452h22.132v21.628h-22.132z" transform="matrix(-.5942 -.8043 .8043 -.5942 36.5609 462.9775)"/></clipPath><clipPath id="ai" clip-path="url(#ah)"><path d="m124.007 211.452h22.132v21.628h-22.132z" transform="matrix(-.5942 -.8043 .8043 -.5942 36.5609 462.9775)"/></clipPath><clipPath id="aj" clip-path="url(#ai)"><path d="m124.007 211.452h22.132v21.628h-22.132z" transform="matrix(-.5942 -.8043 .8043 -.5942 36.5609 462.9775)"/></clipPath><clipPath id="ak" clip-path="url(#aj)"><path d="m124.007 211.452h22.132v21.628h-22.132z" transform="matrix(-.5942 -.8043 .8043 -.5942 36.5609 462.9775)"/></clipPath><clipPath id="al" clip-path="url(#ak)"><path d="m124.007 211.452h22.132v21.628h-22.132z" transform="matrix(-.5942 -.8043 .8043 -.5942 36.5609 462.9775)"/></clipPath><clipPath id="am" clip-path="url(#al)"><path d="m124.007 211.452h22.132v21.628h-22.132z" transform="matrix(-.5942 -.8043 .8043 -.5942 36.5609 462.9775)"/></clipPath><clipPath id="an" clip-path="url(#am)"><path d="m124.007 211.452h22.132v21.628h-22.132z" transform="matrix(-.5942 -.8043 .8043 -.5942 36.5609 462.9775)"/></clipPath><clipPath id="ao" clip-path="url(#an)"><path d="m124.007 211.452h22.132v21.628h-22.132z" transform="matrix(-.5942 -.8043 .8043 -.5942 36.5609 462.9775)"/></clipPath><clipPath id="ap" clip-path="url(#ao)"><path d="m124.007 211.452h22.132v21.628h-22.132z" transform="matrix(-.5942 -.8043 .8043 -.5942 36.5609 462.9775)"/></clipPath><clipPath id="aq" clip-path="url(#ap)"><path d="m124.007 211.452h22.132v21.628h-22.132z" transform="matrix(-.5942 -.8043 .8043 -.5942 36.5609 462.9775)"/></clipPath><clipPath id="ar" clip-path="url(#aq)"><path d="m124.007 211.452h22.132v21.628h-22.132z" transform="matrix(-.5942 -.8043 .8043 -.5942 36.5609 462.9775)"/></clipPath><clipPath id="as" clip-path="url(#ar)"><path d="m124.007 211.452h22.132v21.628h-22.132z" transform="matrix(-.5942 -.8043 .8043 -.5942 36.5609 462.9775)"/></clipPath><clipPath id="at" clip-path="url(#as)"><path d="m124.007 211.452h22.132v21.628h-22.132z" transform="matrix(-.5942 -.8043 .8043 -.5942 36.5609 462.9775)"/></clipPath><clipPath id="au" clip-path="url(#at)"><path d="m124.007 211.452h22.132v21.628h-22.132z" transform="matrix(-.5942 -.8043 .8043 -.5942 36.5609 462.9775)"/></clipPath><clipPath id="av" clip-path="url(#au)"><path d="m124.007 211.452h22.132v21.628h-22.132z" transform="matrix(-.5942 -.8043 .8043 -.5942 36.5609 462.9775)"/></clipPath><clipPath id="aw" clip-path="url(#av)"><path d="m124.007 211.452h22.132v21.628h-22.132z" transform="matrix(-.5942 -.8043 .8043 -.5942 36.5609 462.9775)"/></clipPath><clipPath id="ax" clip-path="url(#aw)"><path d="m124.007 211.452h22.132v21.628h-22.132z" transform="matrix(-.5942 -.8043 .8043 -.5942 36.5609 462.9775)"/></clipPath><clipPath id="ay" clip-path="url(#ax)"><path d="m124.007 211.452h22.132v21.628h-22.132z" transform="matrix(-.5942 -.8043 .8043 -.5942 36.5609 462.9775)"/></clipPath><clipPath id="az" clip-path="url(#ay)"><path d="m124.007 211.452h22.132v21.628h-22.132z" transform="matrix(-.5942 -.8043 .8043 -.5942 36.5609 462.9775)"/></clipPath><clipPath id="aA" clip-path="url(#az)"><path d="m124.007 211.452h22.132v21.628h-22.132z" transform="matrix(-.5942 -.8043 .8043 -.5942 36.5609 462.9775)"/></clipPath><clipPath id="aB" clip-path="url(#aA)"><path d="m124.007 211.452h22.132v21.628h-22.132z" transform="matrix(-.5942 -.8043 .8043 -.5942 36.5609 462.9775)"/></clipPath><clipPath id="aC" clip-path="url(#aB)"><path d="m124.007 211.452h22.132v21.628h-22.132z" transform="matrix(-.5942 -.8043 .8043 -.5942 36.5609 462.9775)"/></clipPath><clipPath id="aD" clip-path="url(#aC)"><path d="m124.007 211.452h22.132v21.628h-22.132z" transform="matrix(-.5942 -.8043 .8043 -.5942 36.5609 462.9775)"/></clipPath><clipPath id="aE" clip-path="url(#aD)"><path d="m124.007 211.452h22.132v21.628h-22.132z" transform="matrix(-.5942 -.8043 .8043 -.5942 36.5609 462.9775)"/></clipPath><clipPath id="aF" clip-path="url(#aE)"><path d="m124.007 211.452h22.132v21.628h-22.132z" transform="matrix(-.5942 -.8043 .8043 -.5942 36.5609 462.9775)"/></clipPath><clipPath id="aG" clip-path="url(#aF)"><path d="m124.007 211.452h22.132v21.628h-22.132z" transform="matrix(-.5942 -.8043 .8043 -.5942 36.5609 462.9775)"/></clipPath><clipPath id="aH" clip-path="url(#aG)"><path d="m124.007 211.452h22.132v21.628h-22.132z" transform="matrix(-.5942 -.8043 .8043 -.5942 36.5609 462.9775)"/></clipPath><clipPath id="aI" clip-path="url(#aH)"><path d="m124.007 211.452h22.132v21.628h-22.132z" transform="matrix(-.5942 -.8043 .8043 -.5942 36.5609 462.9775)"/></clipPath><clipPath id="aJ" clip-path="url(#aI)"><path d="m124.007 211.452h22.132v21.628h-22.132z" transform="matrix(-.5942 -.8043 .8043 -.5942 36.5609 462.9775)"/></clipPath><clipPath id="aK" clip-path="url(#aJ)"><path d="m124.007 211.452h22.132v21.628h-22.132z" transform="matrix(-.5942 -.8043 .8043 -.5942 36.5609 462.9775)"/></clipPath><clipPath id="aL" clip-path="url(#aK)"><path d="m124.007 211.452h22.132v21.628h-22.132z" transform="matrix(-.5942 -.8043 .8043 -.5942 36.5609 462.9775)"/></clipPath><clipPath id="aM" clip-path="url(#aL)"><path d="m124.007 211.452h22.132v21.628h-22.132z" transform="matrix(-.5942 -.8043 .8043 -.5942 36.5609 462.9775)"/></clipPath><clipPath id="aN" clip-path="url(#aM)"><path d="m124.007 211.452h22.132v21.628h-22.132z" transform="matrix(-.5942 -.8043 .8043 -.5942 36.5609 462.9775)"/></clipPath><clipPath id="aO" clip-path="url(#aN)"><path d="m124.007 211.452h22.132v21.628h-22.132z" transform="matrix(-.5942 -.8043 .8043 -.5942 36.5609 462.9775)"/></clipPath><clipPath id="aP" clip-path="url(#aO)"><path d="m124.007 211.452h22.132v21.628h-22.132z" transform="matrix(-.5942 -.8043 .8043 -.5942 36.5609 462.9775)"/></clipPath><clipPath id="aQ" clip-path="url(#aP)"><path d="m124.007 211.452h22.132v21.628h-22.132z" transform="matrix(-.5942 -.8043 .8043 -.5942 36.5609 462.9775)"/></clipPath><clipPath id="aR" clip-path="url(#aQ)"><path d="m124.007 211.452h22.132v21.628h-22.132z" transform="matrix(-.5942 -.8043 .8043 -.5942 36.5609 462.9775)"/></clipPath><clipPath id="aS" clip-path="url(#aR)"><path d="m124.007 211.452h22.132v21.628h-22.132z" transform="matrix(-.5942 -.8043 .8043 -.5942 36.5609 462.9775)"/></clipPath><clipPath id="aT" clip-path="url(#aS)"><path d="m124.007 211.452h22.132v21.628h-22.132z" transform="matrix(-.5942 -.8043 .8043 -.5942 36.5609 462.9775)"/></clipPath><clipPath id="aU" clip-path="url(#aT)"><path d="m124.007 211.452h22.132v21.628h-22.132z" transform="matrix(-.5942 -.8043 .8043 -.5942 36.5609 462.9775)"/></clipPath><clipPath id="aV" clip-path="url(#aU)"><path d="m124.007 211.452h22.132v21.628h-22.132z" transform="matrix(-.5942 -.8043 .8043 -.5942 36.5609 462.9775)"/></clipPath><clipPath id="aW" clip-path="url(#aV)"><path d="m124.007 211.452h22.132v21.628h-22.132z" transform="matrix(-.5942 -.8043 .8043 -.5942 36.5609 462.9775)"/></clipPath><clipPath id="aX" clip-path="url(#aW)"><path d="m124.007 211.452h22.132v21.628h-22.132z" transform="matrix(-.5942 -.8043 .8043 -.5942 36.5609 462.9775)"/></clipPath><clipPath id="aY" clip-path="url(#aX)"><path d="m124.007 211.452h22.132v21.628h-22.132z" transform="matrix(-.5942 -.8043 .8043 -.5942 36.5609 462.9775)"/></clipPath><clipPath id="aZ" clip-path="url(#aY)"><path d="m124.007 211.452h22.132v21.628h-22.132z" transform="matrix(-.5942 -.8043 .8043 -.5942 36.5609 462.9775)"/></clipPath><clipPath id="a0" clip-path="url(#aZ)"><path d="m124.007 211.452h22.132v21.628h-22.132z" transform="matrix(-.5942 -.8043 .8043 -.5942 36.5609 462.9775)"/></clipPath><clipPath id="a1" clip-path="url(#a0)"><path d="m124.007 211.452h22.132v21.628h-22.132z" transform="matrix(-.5942 -.8043 .8043 -.5942 36.5609 462.9775)"/></clipPath><clipPath id="a2" clip-path="url(#a1)"><path d="m124.007 211.452h22.132v21.628h-22.132z" transform="matrix(-.5942 -.8043 .8043 -.5942 36.5609 462.9775)"/></clipPath><clipPath id="a3" clip-path="url(#a2)"><path d="m124.007 211.452h22.132v21.628h-22.132z" transform="matrix(-.5942 -.8043 .8043 -.5942 36.5609 462.9775)"/></clipPath><clipPath id="a4" clip-path="url(#a3)"><path d="m124.007 211.452h22.132v21.628h-22.132z" transform="matrix(-.5942 -.8043 .8043 -.5942 36.5609 462.9775)"/></clipPath><clipPath id="a5" clip-path="url(#a4)"><path d="m124.007 211.452h22.132v21.628h-22.132z" transform="matrix(-.5942 -.8043 .8043 -.5942 36.5609 462.9775)"/></clipPath><clipPath id="a6" clip-path="url(#a5)"><path d="m124.007 211.452h22.132v21.628h-22.132z" transform="matrix(-.5942 -.8043 .8043 -.5942 36.5609 462.9775)"/></clipPath><clipPath id="a7"><path d="m-21.594-114.21c-.111.011-.219.046-.319.102l-6.591 3.804 7.107 12.946c.099-.014.196-.048.284-.098l6.61-3.819c.204-.118.344-.318.385-.544l-7.245-12.378c-.054-.011-.107-.016-.162-.016-.021 0-.044.001-.066.003"/></clipPath><clipPath id="a8"><path d="m128.108 213.819h14.384v16.855h-14.384z"/></clipPath><clipPath id="a9" clip-path="url(#a8)"><path d="m128.108 213.819h14.384v16.855h-14.384z"/></clipPath><clipPath id="ba" clip-path="url(#a9)"><path d="m128.108 213.819h14.384v16.855h-14.384z"/></clipPath><clipPath id="bb" clip-path="url(#ba)"><path d="m128.108 213.819h14.384v16.855h-14.384z"/></clipPath><clipPath id="bc" clip-path="url(#bb)"><path d="m128.108 213.819h14.384v16.855h-14.384z"/></clipPath><clipPath id="bd" clip-path="url(#bc)"><path d="m128.108 213.819h14.384v16.855h-14.384z"/></clipPath><clipPath id="be" clip-path="url(#bd)"><path d="m128.108 213.819h14.384v16.855h-14.384z"/></clipPath><clipPath id="bf" clip-path="url(#be)"><path d="m128.108 213.819h14.384v16.855h-14.384z"/></clipPath><clipPath id="bg" clip-path="url(#bf)"><path d="m128.108 213.819h14.384v16.855h-14.384z"/></clipPath><clipPath id="bh" clip-path="url(#bg)"><path d="m128.108 213.819h14.384v16.855h-14.384z"/></clipPath><clipPath id="bi" clip-path="url(#bh)"><path d="m128.108 213.819h14.384v16.855h-14.384z"/></clipPath><clipPath id="bj" clip-path="url(#bi)"><path d="m128.108 213.819h14.384v16.855h-14.384z"/></clipPath><clipPath id="bk" clip-path="url(#bj)"><path d="m128.108 213.819h14.384v16.855h-14.384z"/></clipPath><clipPath id="bl" clip-path="url(#bk)"><path d="m128.108 213.819h14.384v16.855h-14.384z"/></clipPath><clipPath id="bm" clip-path="url(#bl)"><path d="m128.108 213.819h14.384v16.855h-14.384z"/></clipPath><clipPath id="bn" clip-path="url(#bm)"><path d="m128.108 213.819h14.384v16.855h-14.384z"/></clipPath><clipPath id="bo" clip-path="url(#bn)"><path d="m128.108 213.819h14.384v16.855h-14.384z"/></clipPath><clipPath id="bp" clip-path="url(#bo)"><path d="m128.108 213.819h14.384v16.855h-14.384z"/></clipPath><clipPath id="bq" clip-path="url(#bp)"><path d="m128.108 213.819h14.384v16.855h-14.384z"/></clipPath><clipPath id="br" clip-path="url(#bq)"><path d="m128.108 213.819h14.384v16.855h-14.384z"/></clipPath><clipPath id="bs" clip-path="url(#br)"><path d="m128.108 213.819h14.384v16.855h-14.384z"/></clipPath><clipPath id="bt" clip-path="url(#bs)"><path d="m128.108 213.819h14.384v16.855h-14.384z"/></clipPath><clipPath id="bu" clip-path="url(#bt)"><path d="m128.108 213.819h14.384v16.855h-14.384z"/></clipPath><clipPath id="bv" clip-path="url(#bu)"><path d="m128.108 213.819h14.384v16.855h-14.384z"/></clipPath><clipPath id="bw" clip-path="url(#bv)"><path d="m128.108 213.819h14.384v16.855h-14.384z"/></clipPath><clipPath id="bx" clip-path="url(#bw)"><path d="m128.108 213.819h14.384v16.855h-14.384z"/></clipPath><clipPath id="by" clip-path="url(#bx)"><path d="m128.108 213.819h14.384v16.855h-14.384z"/></clipPath><clipPath id="bz" clip-path="url(#by)"><path d="m128.108 213.819h14.384v16.855h-14.384z"/></clipPath><clipPath id="bA" clip-path="url(#bz)"><path d="m128.108 213.819h14.384v16.855h-14.384z"/></clipPath><clipPath id="bB" clip-path="url(#bA)"><path d="m128.108 213.819h14.384v16.855h-14.384z"/></clipPath><clipPath id="bC" clip-path="url(#bB)"><path d="m128.108 213.819h14.384v16.855h-14.384z"/></clipPath><clipPath id="bD" clip-path="url(#bC)"><path d="m128.108 213.819h14.384v16.855h-14.384z"/></clipPath><clipPath id="bE" clip-path="url(#bD)"><path d="m128.108 213.819h14.384v16.855h-14.384z"/></clipPath><clipPath id="bF" clip-path="url(#bE)"><path d="m128.108 213.819h14.384v16.855h-14.384z"/></clipPath><clipPath id="bG" clip-path="url(#bF)"><path d="m128.108 213.819h14.384v16.855h-14.384z"/></clipPath><clipPath id="bH" clip-path="url(#bG)"><path d="m128.108 213.819h14.384v16.855h-14.384z"/></clipPath><clipPath id="bI" clip-path="url(#bH)"><path d="m128.108 213.819h14.384v16.855h-14.384z"/></clipPath><clipPath id="bJ" clip-path="url(#bI)"><path d="m128.108 213.819h14.384v16.855h-14.384z"/></clipPath><clipPath id="bK" clip-path="url(#bJ)"><path d="m128.108 213.819h14.384v16.855h-14.384z"/></clipPath><clipPath id="bL" clip-path="url(#bK)"><path d="m128.108 213.819h14.384v16.855h-14.384z"/></clipPath><clipPath id="bM" clip-path="url(#bL)"><path d="m128.108 213.819h14.384v16.855h-14.384z"/></clipPath><clipPath id="bN" clip-path="url(#bM)"><path d="m128.108 213.819h14.384v16.855h-14.384z"/></clipPath><clipPath id="bO" clip-path="url(#bN)"><path d="m128.108 213.819h14.384v16.855h-14.384z"/></clipPath><clipPath id="bP" clip-path="url(#bO)"><path d="m128.108 213.819h14.384v16.855h-14.384z"/></clipPath><clipPath id="bQ" clip-path="url(#bP)"><path d="m128.108 213.819h14.384v16.855h-14.384z"/></clipPath><clipPath id="bR" clip-path="url(#bQ)"><path d="m128.108 213.819h14.384v16.855h-14.384z"/></clipPath><clipPath id="bS" clip-path="url(#bR)"><path d="m128.108 213.819h14.384v16.855h-14.384z"/></clipPath><clipPath id="bT" clip-path="url(#bS)"><path d="m128.108 213.819h14.384v16.855h-14.384z"/></clipPath><clipPath id="bU" clip-path="url(#bT)"><path d="m128.108 213.819h14.384v16.855h-14.384z"/></clipPath><clipPath id="bV" clip-path="url(#bU)"><path d="m128.108 213.819h14.384v16.855h-14.384z"/></clipPath><clipPath id="bW" clip-path="url(#bV)"><path d="m128.108 213.819h14.384v16.855h-14.384z"/></clipPath><clipPath id="bX" clip-path="url(#bW)"><path d="m128.108 213.819h14.384v16.855h-14.384z"/></clipPath><clipPath id="bY" clip-path="url(#bX)"><path d="m128.108 213.819h14.384v16.855h-14.384z"/></clipPath><clipPath id="bZ" clip-path="url(#bY)"><path d="m128.108 213.819h14.384v16.855h-14.384z"/></clipPath><clipPath id="b0" clip-path="url(#bZ)"><path d="m128.108 213.819h14.384v16.855h-14.384z"/></clipPath><clipPath id="b1" clip-path="url(#b0)"><path d="m128.108 213.819h14.384v16.855h-14.384z"/></clipPath><clipPath id="b2" clip-path="url(#b1)"><path d="m128.108 213.819h14.384v16.855h-14.384z"/></clipPath><clipPath id="b3" clip-path="url(#b2)"><path d="m128.108 213.819h14.384v16.855h-14.384z"/></clipPath><clipPath id="b4" clip-path="url(#b3)"><path d="m128.108 213.819h14.384v16.855h-14.384z"/></clipPath><clipPath id="b5" clip-path="url(#b4)"><path d="m128.108 213.819h14.384v16.855h-14.384z"/></clipPath><clipPath id="b6" clip-path="url(#b5)"><path d="m128.108 213.819h14.384v16.855h-14.384z"/></clipPath><clipPath id="b7" clip-path="url(#b6)"><path d="m128.108 213.819h14.384v16.855h-14.384z"/></clipPath><clipPath id="b8" clip-path="url(#b7)"><path d="m128.108 213.819h14.384v16.855h-14.384z"/></clipPath><clipPath id="b9" clip-path="url(#b8)"><path d="m128.108 213.819h14.384v16.855h-14.384z"/></clipPath><clipPath id="ca" clip-path="url(#b9)"><path d="m128.108 213.819h14.384v16.855h-14.384z"/></clipPath><clipPath id="cb" clip-path="url(#ca)"><path d="m128.108 213.819h14.384v16.855h-14.384z"/></clipPath><clipPath id="cc" clip-path="url(#cb)"><path d="m128.108 213.819h14.384v16.855h-14.384z"/></clipPath><clipPath id="cd" clip-path="url(#cc)"><path d="m128.108 213.819h14.384v16.855h-14.384z"/></clipPath><clipPath id="ce" clip-path="url(#cd)"><path d="m128.108 213.819h14.384v16.855h-14.384z"/></clipPath><clipPath id="cf" clip-path="url(#ce)"><path d="m128.108 213.819h14.384v16.855h-14.384z"/></clipPath><clipPath id="cg" clip-path="url(#cf)"><path d="m128.108 213.819h14.384v16.855h-14.384z"/></clipPath><clipPath id="ch" clip-path="url(#cg)"><path d="m128.108 213.819h14.384v16.855h-14.384z"/></clipPath><clipPath id="ci" clip-path="url(#ch)"><path d="m128.108 213.819h14.384v16.855h-14.384z"/></clipPath><clipPath id="cj" clip-path="url(#ci)"><path d="m128.108 213.819h14.384v16.855h-14.384z"/></clipPath><clipPath id="ck" clip-path="url(#cj)"><path d="m128.108 213.819h14.384v16.855h-14.384z"/></clipPath><clipPath id="cl" clip-path="url(#ck)"><path d="m128.108 213.819h14.384v16.855h-14.384z"/></clipPath><clipPath id="cm" clip-path="url(#cl)"><path d="m128.108 213.819h14.384v16.855h-14.384z"/></clipPath><clipPath id="cn" clip-path="url(#cm)"><path d="m128.108 213.819h14.384v16.855h-14.384z"/></clipPath><clipPath id="co" clip-path="url(#cn)"><path d="m128.108 213.819h14.384v16.855h-14.384z"/></clipPath><clipPath id="cp" clip-path="url(#co)"><path d="m128.108 213.819h14.384v16.855h-14.384z"/></clipPath><clipPath id="cq" clip-path="url(#cp)"><path d="m128.108 213.819h14.384v16.855h-14.384z"/></clipPath><clipPath id="cr" clip-path="url(#cq)"><path d="m128.108 213.819h14.384v16.855h-14.384z"/></clipPath><clipPath id="cs" clip-path="url(#cr)"><path d="m128.108 213.819h14.384v16.855h-14.384z"/></clipPath><clipPath id="ct" clip-path="url(#cs)"><path d="m128.108 213.819h14.384v16.855h-14.384z"/></clipPath><clipPath id="cu" clip-path="url(#ct)"><path d="m128.108 213.819h14.384v16.855h-14.384z"/></clipPath><clipPath id="cv" clip-path="url(#cu)"><path d="m128.108 213.819h14.384v16.855h-14.384z"/></clipPath><clipPath id="cw" clip-path="url(#cv)"><path d="m128.108 213.819h14.384v16.855h-14.384z"/></clipPath><clipPath id="cx" clip-path="url(#cw)"><path d="m128.108 213.819h14.384v16.855h-14.384z"/></clipPath><clipPath id="cy" clip-path="url(#cx)"><path d="m128.108 213.819h14.384v16.855h-14.384z"/></clipPath><clipPath id="cz" clip-path="url(#cy)"><path d="m128.108 213.819h14.384v16.855h-14.384z"/></clipPath><clipPath id="cA" clip-path="url(#cz)"><path d="m128.108 213.819h14.384v16.855h-14.384z"/></clipPath><clipPath id="cB"><path d="m-22.743-115.643-6.61 3.815c-.248.143-.399.406-.399.691v7.635c0 .287.152.549.399.691l6.61 3.819c.248.142.552.142.799 0l6.61-3.819c.245-.143.398-.404.398-.691v-7.634c0-.285-.153-.549-.4-.691l-6.608-3.815c-.124-.071-.263-.107-.399-.107-.139 0-.277.036-.4.106"/></clipPath><clipPath id="cC"><path d="m123.896 209.885h20.744v21.695h-20.744z" transform="matrix(.898 .4401 -.4401 .898 110.8413 -36.5648)"/></clipPath><clipPath id="cD" clip-path="url(#cC)"><path d="m123.896 209.885h20.744v21.695h-20.744z" transform="matrix(.898 .4401 -.4401 .898 110.8413 -36.5648)"/></clipPath><clipPath id="cE" clip-path="url(#cD)"><path d="m123.896 209.885h20.744v21.695h-20.744z" transform="matrix(.898 .4401 -.4401 .898 110.8413 -36.5648)"/></clipPath><clipPath id="cF" clip-path="url(#cE)"><path d="m123.896 209.885h20.744v21.695h-20.744z" transform="matrix(.898 .4401 -.4401 .898 110.8413 -36.5648)"/></clipPath><clipPath id="cG" clip-path="url(#cF)"><path d="m123.896 209.885h20.744v21.695h-20.744z" transform="matrix(.898 .4401 -.4401 .898 110.8413 -36.5648)"/></clipPath><clipPath id="cH" clip-path="url(#cG)"><path d="m123.896 209.885h20.744v21.695h-20.744z" transform="matrix(.898 .4401 -.4401 .898 110.8413 -36.5648)"/></clipPath><clipPath id="cI" clip-path="url(#cH)"><path d="m123.896 209.885h20.744v21.695h-20.744z" transform="matrix(.898 .4401 -.4401 .898 110.8413 -36.5648)"/></clipPath><clipPath id="cJ" clip-path="url(#cI)"><path d="m123.896 209.885h20.744v21.695h-20.744z" transform="matrix(.898 .4401 -.4401 .898 110.8413 -36.5648)"/></clipPath><clipPath id="cK" clip-path="url(#cJ)"><path d="m123.896 209.885h20.744v21.695h-20.744z" transform="matrix(.898 .4401 -.4401 .898 110.8413 -36.5648)"/></clipPath><clipPath id="cL" clip-path="url(#cK)"><path d="m123.896 209.885h20.744v21.695h-20.744z" transform="matrix(.898 .4401 -.4401 .898 110.8413 -36.5648)"/></clipPath><clipPath id="cM" clip-path="url(#cL)"><path d="m123.896 209.885h20.744v21.695h-20.744z" transform="matrix(.898 .4401 -.4401 .898 110.8413 -36.5648)"/></clipPath><clipPath id="cN" clip-path="url(#cM)"><path d="m123.896 209.885h20.744v21.695h-20.744z" transform="matrix(.898 .4401 -.4401 .898 110.8413 -36.5648)"/></clipPath><clipPath id="cO" clip-path="url(#cN)"><path d="m123.896 209.885h20.744v21.695h-20.744z" transform="matrix(.898 .4401 -.4401 .898 110.8413 -36.5648)"/></clipPath><clipPath id="cP" clip-path="url(#cO)"><path d="m123.896 209.885h20.744v21.695h-20.744z" transform="matrix(.898 .4401 -.4401 .898 110.8413 -36.5648)"/></clipPath><clipPath id="cQ" clip-path="url(#cP)"><path d="m123.896 209.885h20.744v21.695h-20.744z" transform="matrix(.898 .4401 -.4401 .898 110.8413 -36.5648)"/></clipPath><clipPath id="cR" clip-path="url(#cQ)"><path d="m123.896 209.885h20.744v21.695h-20.744z" transform="matrix(.898 .4401 -.4401 .898 110.8413 -36.5648)"/></clipPath><clipPath id="cS" clip-path="url(#cR)"><path d="m123.896 209.885h20.744v21.695h-20.744z" transform="matrix(.898 .4401 -.4401 .898 110.8413 -36.5648)"/></clipPath><clipPath id="cT" clip-path="url(#cS)"><path d="m123.896 209.885h20.744v21.695h-20.744z" transform="matrix(.898 .4401 -.4401 .898 110.8413 -36.5648)"/></clipPath><clipPath id="cU" clip-path="url(#cT)"><path d="m123.896 209.885h20.744v21.695h-20.744z" transform="matrix(.898 .4401 -.4401 .898 110.8413 -36.5648)"/></clipPath><clipPath id="cV" clip-path="url(#cU)"><path d="m123.896 209.885h20.744v21.695h-20.744z" transform="matrix(.898 .4401 -.4401 .898 110.8413 -36.5648)"/></clipPath><clipPath id="cW" clip-path="url(#cV)"><path d="m123.896 209.885h20.744v21.695h-20.744z" transform="matrix(.898 .4401 -.4401 .898 110.8413 -36.5648)"/></clipPath><clipPath id="cX" clip-path="url(#cW)"><path d="m123.896 209.885h20.744v21.695h-20.744z" transform="matrix(.898 .4401 -.4401 .898 110.8413 -36.5648)"/></clipPath><clipPath id="cY" clip-path="url(#cX)"><path d="m123.896 209.885h20.744v21.695h-20.744z" transform="matrix(.898 .4401 -.4401 .898 110.8413 -36.5648)"/></clipPath><clipPath id="cZ" clip-path="url(#cY)"><path d="m123.896 209.885h20.744v21.695h-20.744z" transform="matrix(.898 .4401 -.4401 .898 110.8413 -36.5648)"/></clipPath><clipPath id="c0" clip-path="url(#cZ)"><path d="m123.896 209.885h20.744v21.695h-20.744z" transform="matrix(.898 .4401 -.4401 .898 110.8413 -36.5648)"/></clipPath><clipPath id="c1" clip-path="url(#c0)"><path d="m123.896 209.885h20.744v21.695h-20.744z" transform="matrix(.898 .4401 -.4401 .898 110.8413 -36.5648)"/></clipPath><clipPath id="c2" clip-path="url(#c1)"><path d="m123.896 209.885h20.744v21.695h-20.744z" transform="matrix(.898 .4401 -.4401 .898 110.8413 -36.5648)"/></clipPath><clipPath id="c3" clip-path="url(#c2)"><path d="m123.896 209.885h20.744v21.695h-20.744z" transform="matrix(.898 .4401 -.4401 .898 110.8413 -36.5648)"/></clipPath><clipPath id="c4" clip-path="url(#c3)"><path d="m123.896 209.885h20.744v21.695h-20.744z" transform="matrix(.898 .4401 -.4401 .898 110.8413 -36.5648)"/></clipPath><clipPath id="c5" clip-path="url(#c4)"><path d="m123.896 209.885h20.744v21.695h-20.744z" transform="matrix(.898 .4401 -.4401 .898 110.8413 -36.5648)"/></clipPath><clipPath id="c6" clip-path="url(#c5)"><path d="m123.896 209.885h20.744v21.695h-20.744z" transform="matrix(.898 .4401 -.4401 .898 110.8413 -36.5648)"/></clipPath><clipPath id="c7" clip-path="url(#c6)"><path d="m123.896 209.885h20.744v21.695h-20.744z" transform="matrix(.898 .4401 -.4401 .898 110.8413 -36.5648)"/></clipPath><clipPath id="c8" clip-path="url(#c7)"><path d="m123.896 209.885h20.744v21.695h-20.744z" transform="matrix(.898 .4401 -.4401 .898 110.8413 -36.5648)"/></clipPath><clipPath id="c9" clip-path="url(#c8)"><path d="m123.896 209.885h20.744v21.695h-20.744z" transform="matrix(.898 .4401 -.4401 .898 110.8413 -36.5648)"/></clipPath><clipPath id="da" clip-path="url(#c9)"><path d="m123.896 209.885h20.744v21.695h-20.744z" transform="matrix(.898 .4401 -.4401 .898 110.8413 -36.5648)"/></clipPath><clipPath id="db" clip-path="url(#da)"><path d="m123.896 209.885h20.744v21.695h-20.744z" transform="matrix(.898 .4401 -.4401 .898 110.8413 -36.5648)"/></clipPath><clipPath id="dc" clip-path="url(#db)"><path d="m123.896 209.885h20.744v21.695h-20.744z" transform="matrix(.898 .4401 -.4401 .898 110.8413 -36.5648)"/></clipPath><clipPath id="dd" clip-path="url(#dc)"><path d="m123.896 209.885h20.744v21.695h-20.744z" transform="matrix(.898 .4401 -.4401 .898 110.8413 -36.5648)"/></clipPath><clipPath id="de" clip-path="url(#dd)"><path d="m123.896 209.885h20.744v21.695h-20.744z" transform="matrix(.898 .4401 -.4401 .898 110.8413 -36.5648)"/></clipPath><clipPath id="df" clip-path="url(#de)"><path d="m123.896 209.885h20.744v21.695h-20.744z" transform="matrix(.898 .4401 -.4401 .898 110.8413 -36.5648)"/></clipPath><clipPath id="dg" clip-path="url(#df)"><path d="m123.896 209.885h20.744v21.695h-20.744z" transform="matrix(.898 .4401 -.4401 .898 110.8413 -36.5648)"/></clipPath><clipPath id="dh" clip-path="url(#dg)"><path d="m123.896 209.885h20.744v21.695h-20.744z" transform="matrix(.898 .4401 -.4401 .898 110.8413 -36.5648)"/></clipPath><clipPath id="di" clip-path="url(#dh)"><path d="m123.896 209.885h20.744v21.695h-20.744z" transform="matrix(.898 .4401 -.4401 .898 110.8413 -36.5648)"/></clipPath><clipPath id="dj" clip-path="url(#di)"><path d="m123.896 209.885h20.744v21.695h-20.744z" transform="matrix(.898 .4401 -.4401 .898 110.8413 -36.5648)"/></clipPath><clipPath id="dk" clip-path="url(#dj)"><path d="m123.896 209.885h20.744v21.695h-20.744z" transform="matrix(.898 .4401 -.4401 .898 110.8413 -36.5648)"/></clipPath><clipPath id="dl" clip-path="url(#dk)"><path d="m123.896 209.885h20.744v21.695h-20.744z" transform="matrix(.898 .4401 -.4401 .898 110.8413 -36.5648)"/></clipPath><clipPath id="dm" clip-path="url(#dl)"><path d="m123.896 209.885h20.744v21.695h-20.744z" transform="matrix(.898 .4401 -.4401 .898 110.8413 -36.5648)"/></clipPath><clipPath id="dn" clip-path="url(#dm)"><path d="m123.896 209.885h20.744v21.695h-20.744z" transform="matrix(.898 .4401 -.4401 .898 110.8413 -36.5648)"/></clipPath><clipPath id="do" clip-path="url(#dn)"><path d="m123.896 209.885h20.744v21.695h-20.744z" transform="matrix(.898 .4401 -.4401 .898 110.8413 -36.5648)"/></clipPath><clipPath id="dp" clip-path="url(#do)"><path d="m123.896 209.885h20.744v21.695h-20.744z" transform="matrix(.898 .4401 -.4401 .898 110.8413 -36.5648)"/></clipPath><clipPath id="dq" clip-path="url(#dp)"><path d="m123.896 209.885h20.744v21.695h-20.744z" transform="matrix(.898 .4401 -.4401 .898 110.8413 -36.5648)"/></clipPath><path d="m119.625 87.624-55.426 32-55.425-32v-63.999l55.425-32 55.426 32z" fill="#c43d2c"/><path d="m64.699 2.803 7.55 4.361 14.53 8.389 1.04.6 2.3 1.32.87.5 1.521.881 1.369.79.801.46.09.049 1.809 1.04 3.78 2.19.04.02v.011l.26.149.66.38 1.46.84 1.94 1.12.78.451.44.25 1.94 1.119 2.82 1.631v53.129l-.01.01-1.419.82-9 5.19-.241.12-.13.061-.11.059-3.029 1.74-1.871 1.08-.039.03-3.25 1.88-2.25 1.3-1.461.85-.18.1-.02.01-1.71.99-.959.55-4.621 2.67-.629.37-.061.03-3.5 2.02-4.039 2.33-.011.01-.43.25-7.08 4.09-7.57-4.38-.04-.019-2.07-1.201-5.36-3.1-.69-.4-5.09-2.94-.391-.23-.489-.28-.33-.19-1.85-1.07-.57-.33-4.22-2.44-2.91-1.68-.09-.05-4.67-2.7-9.61-5.55v-53.129l14.33-8.281 1.99-1.149 4.93-2.84 1.58-.91.17-.101 1.66-.95 1.16-.67 1.54-.9.52-.299 2.28-1.311.69-.4 1.46-.84 5.72-3.3.459-.259z" fill="#f26d57"/><g fill="#d81014"><path d="m53.189 90.644c-1.068 0-2.032.012-2.995-.015-.131-.004-.293-.18-.378-.313-.956-1.52-1.906-3.041-2.84-4.573-.164-.271-.345-.37-.662-.367-1.129.017-1.13.003-1.13 1.119 0 1.243-.009 2.485.006 3.731.003.313-.072.438-.414.426-.798-.023-1.597-.006-2.426-.006 0-4.562 0-9.082 0-13.646.579 0 1.142-.016 1.704.003 1.393.045 2.793.028 4.174.183 1.353.15 2.554.715 3.128 2.069.78 1.836.417 4.078-1.783 5.242-.119.063-.237.128-.39.212 1.329 1.966 2.638 3.905 4.006 5.935zm-8.004-7.627c.766.129 1.884.055 2.508-.156.727-.244 1.14-.885 1.126-1.748-.013-.826-.375-1.395-1.154-1.555-.723-.147-1.475-.166-2.215-.217-.083-.005-.253.168-.255.26-.017 1.13-.01 2.265-.01 3.416z"/><path d="m70.042 81.606c.118-.102.19-.141.228-.199 1.176-1.902 4.82-1.984 6.069.596.628 1.299.763 2.665.683 4.073-.065 1.116-.295 2.185-.918 3.142-1.24 1.9-4.117 2.184-5.699.553-.375-.387-.418-.379-.623.111-.315.764-.315.764-1.141.764-.426 0-.851 0-1.304 0 0-4.848 0-9.646 0-14.498.881 0 1.746-.006 2.61.014.063.001.175.193.174.298-.018 1.588-.051 3.177-.079 4.765-.002.098 0 .202 0 .381zm.026 3.829c.106.594.176 1.271.355 1.914.221.777.822 1.137 1.613 1.197.84.063 1.428-.322 1.738-1.064.563-1.344.56-2.727.053-4.078-.313-.84-1-1.19-1.92-1.114-.822.067-1.391.528-1.592 1.388-.126.544-.159 1.111-.247 1.757z"/><path d="m78.41 92.896c.295.019.554.024.812.051.99.101 1.722-.303 2.196-1.157.178-.323.311-.679.414-1.033.043-.149-.01-.348-.071-.503-1.262-3.182-2.53-6.355-3.799-9.533-.058-.142-.108-.281-.19-.494.637 0 1.221-.006 1.805.002.426.006.953-.119 1.248.084.273.19.307.736.435 1.131.579 1.77 1.16 3.537 1.724 5.312.104.331.129.688.262 1.044.035-.179.052-.363.104-.537.519-1.672 1.042-3.342 1.567-5.012.183-.579.365-1.159.574-1.729.045-.119.203-.278.313-.28.91-.022 1.821-.015 2.78-.015-.055.16-.092.287-.139.412-1.392 3.721-2.785 7.439-4.178 11.159-.406 1.093-.947 2.087-1.964 2.745-1.137.738-2.379.814-3.667.584-.087-.018-.214-.15-.216-.23-.018-.664-.01-1.326-.01-2.001z"/><path d="m54.729 80.239h2.763v.447c0 1.84-.002 3.678.003 5.517 0 .274.017.554.06.823.165 1.019.592 1.461 1.478 1.561.971.107 1.836-.346 2.105-1.24.199-.664.304-1.377.325-2.074.048-1.561.016-3.123.017-4.685 0-.097.009-.192.015-.325h2.773v10.377c-.667 0-1.339.008-2.01-.013-.07-.002-.162-.163-.198-.267-.119-.346-.216-.696-.339-1.104-.132.114-.217.161-.267.231-1.106 1.582-4.121 1.72-5.545.627-.831-.639-1.181-1.551-1.2-2.54-.047-2.404-.018-4.81-.019-7.216 0-.024.016-.048.039-.119z"/><path d="m73.342 50.488c4.156 6.925 8.285 13.802 12.473 20.779-12.306-1.685-24.519-3.354-36.863-5.041 8.173-5.274 16.256-10.489 24.39-15.738z"/><path d="m89.477 27.361c-.723 14.439-1.445 28.878-2.168 43.32-.031.012-.062.023-.093.034-.2-.265-.419-.521-.591-.802-1.768-2.9-3.533-5.801-5.291-8.707-2.196-3.635-4.379-7.276-6.58-10.907-.238-.392-.23-.707.023-1.088 4.787-7.186 9.566-14.378 14.35-21.567.072-.11.156-.213.236-.32.037.012.076.025.114.037z"/><path d="m37.631 43.632c1.592-2.351 3.015-4.623 4.623-6.757.91-1.209 2.097-2.22 3.206-3.268 2.286-2.16 4.56-4.334 6.928-6.401 1.002-.877 2.191-1.555 3.351-2.228 2.313-1.342 4.665-2.615 6.997-3.925.345-.194.667-.231 1.047-.083 1.184.462 2.379.894 3.606 1.353-.052.121-.086.22-.134.313-1.03 2.047-2.056 4.096-3.099 6.136-.139.271-.335.53-.559.738-3.156 2.909-6.322 5.808-9.484 8.71-.073.066-.154.127-.217.202-1.477 1.759-3.425 2.841-5.442 3.834-2.462 1.211-4.917 2.442-7.375 3.661-.528.264-.782.214-1.218-.195-.734-.688-1.467-1.375-2.23-2.09z"/><path d="m71.895 49.329c-8.158 5.25-16.226 10.447-24.387 15.701 1.739-7.354 3.458-14.617 5.189-21.93 6.401 2.075 12.752 4.137 19.198 6.229z"/><path d="m66.443 30.861c6.924-1.162 13.779-2.311 20.742-3.479-4.597 6.915-9.129 13.735-13.699 20.611-2.357-5.733-4.685-11.4-7.043-17.132z"/><path d="m53.008 41.577c3.962-3.625 7.877-7.208 11.854-10.846 2.319 5.648 4.621 11.247 6.967 16.955-6.316-2.049-12.537-4.069-18.821-6.109z"/><path d="m46.233 65.556c-4.183.121-8.313.246-12.532.371 2.193-5.242 4.361-10.425 6.581-15.735 2.008 5.181 3.973 10.254 5.951 15.364z"/><path d="m46.414 61.871c-1.773-4.579-3.546-9.157-5.344-13.798 3.33-1.732 6.645-3.458 10.07-5.239-1.546 6.415-3.064 12.715-4.582 19.017-.048.005-.096.011-.144.02z"/><path d="m84.631 26.477c-6.182.936-12.363 1.871-18.635 2.82.074-.231.107-.392.178-.533.953-1.926 1.912-3.849 2.87-5.773.293-.586.399-.641 1.03-.476 4.332 1.138 8.664 2.277 13 3.417.516.135 1.031.278 1.547.417.002.043.007.086.01.128z"/><path d="m89.374 26.108c-5.505-1.521-10.907-3.013-16.308-4.504-.002-.05-.006-.1-.008-.151 4.523-1.001 9.047-2.003 13.622-3.017.892 2.536 1.776 5.05 2.694 7.672z"/><path d="m77.902 71.679c-13.902-1.282-27.808-2.565-41.712-3.849-.003-.037-.006-.074-.008-.11.126-.031.251-.089.378-.09 3.355-.092 6.711-.248 10.067-.234 1.632.008 3.266.313 4.893.523 3.269.43 6.533.887 9.799 1.333 3.63.497 7.262.999 10.893 1.495 1.767.243 3.534.475 5.3.715.143.02.277.063.419.098-.01.039-.019.08-.029.119z"/><path d="m36.844 45.45c.801.736 1.623 1.475 2.417 2.237.303.292.184.654.039.993-.992 2.294-1.984 4.59-2.975 6.887-.755 1.75-1.507 3.502-2.265 5.252-.094.217-.208.422-.313.631-.044-.012-.09-.025-.134-.04 1.086-5.365 2.173-10.73 3.231-15.96z"/><path d="m79.095 18.28c-.835.188-1.669.374-2.504.564-2.383.545-4.763 1.093-7.146 1.636-1.012.23-2.213.012-3.285-.622 4.351-.583 8.633-1.158 12.916-1.731.005.051.012.102.019.153z"/></g><g clip-path="url(#a)"><g fill="#4a6800" transform="translate(-78.306 -164.016)"><path d="m149.186 217.092-18.627-9.129-9.549 19.481 18.625 9.131z"/><path clip-path="url(#Z)" d="m149.185 224.352-28.175-13.813v-2.577h28.175z"/><path clip-path="url(#Z)" d="m149.185 224.562-28.175-13.812v-.21l28.175 13.812z"/><path clip-path="url(#Z)" d="m149.185 224.772-28.175-13.811v-.211l28.175 13.812z"/><path clip-path="url(#Z)" d="m149.185 224.982-28.175-13.811v-.21l28.175 13.811z"/><path clip-path="url(#Z)" d="m149.185 225.194-28.175-13.814v-.209l28.175 13.811z"/><path clip-path="url(#Z)" d="m149.185 225.405-28.175-13.814v-.211l28.175 13.814z"/><path clip-path="url(#Z)" d="m149.185 225.612-28.175-13.81v-.211l28.175 13.814z"/><path clip-path="url(#Z)" d="m149.185 225.823-28.175-13.812v-.209l28.175 13.81z"/><path clip-path="url(#Z)" d="m149.185 226.034-28.175-13.812v-.211l28.175 13.812z"/><path clip-path="url(#Z)" d="m149.185 226.245-28.175-13.813v-.21l28.175 13.812z"/><path clip-path="url(#Z)" d="m149.185 226.453-28.175-13.811v-.21l28.175 13.813z"/><path clip-path="url(#Z)" d="m149.185 226.664-28.175-13.812v-.21l28.175 13.811z"/><path clip-path="url(#Z)" d="m149.185 226.873-28.175-13.812v-.209l28.175 13.812z"/><path clip-path="url(#Z)" d="m149.185 227.082-28.175-13.81v-.211l28.175 13.812z"/><path clip-path="url(#Z)" d="m149.185 227.293-28.175-13.81v-.211l28.175 13.81z"/><path clip-path="url(#Z)" d="m149.185 227.504-28.175-13.811v-.21l28.175 13.81z"/><path clip-path="url(#Z)" d="m149.185 227.713-28.175-13.81v-.21l28.175 13.811z"/><path clip-path="url(#Z)" d="m149.185 227.925-28.175-13.812v-.21l28.175 13.81z"/><path clip-path="url(#Z)" d="m149.185 228.136-28.175-13.813v-.21l28.175 13.812z"/><path clip-path="url(#Z)" d="m149.185 228.345-28.175-13.811v-.211l28.175 13.813z"/><path clip-path="url(#Z)" d="m149.185 228.556-28.175-13.812v-.21l28.175 13.811z"/><path clip-path="url(#Z)" d="m149.185 228.765-28.175-13.811v-.21l28.175 13.812z"/><path clip-path="url(#Z)" d="m149.185 228.976-28.175-13.812v-.21l28.175 13.811z"/><path clip-path="url(#Z)" d="m149.185 229.185-28.175-13.811v-.21l28.175 13.812z"/><path clip-path="url(#Z)" d="m149.185 229.463-28.175-13.81v-.279l28.175 13.811z"/><path clip-path="url(#Z)" d="m149.185 229.745-28.175-13.812v-.28l28.175 13.81z"/><path clip-path="url(#Z)" d="m149.185 230.023-28.175-13.813v-.277l28.175 13.812z"/><path clip-path="url(#Z)" d="m149.185 230.303-28.175-13.814v-.279l28.175 13.813z"/><path clip-path="url(#Z)" d="m149.185 230.58-28.175-13.812v-.279l28.175 13.814z"/><path clip-path="url(#Z)" d="m149.185 230.86-28.175-13.813v-.279l28.175 13.812z"/><path clip-path="url(#Z)" d="m149.185 231.137-28.175-13.81v-.28l28.175 13.813z"/><path clip-path="url(#Z)" d="m149.185 231.416-28.175-13.811v-.278l28.175 13.81z"/><path clip-path="url(#Z)" d="m149.185 231.698-28.175-13.814v-.279l28.175 13.811z"/><path clip-path="url(#Z)" d="m149.185 231.975-28.175-13.812v-.279l28.175 13.814z"/><path clip-path="url(#Z)" d="m149.185 232.252-28.175-13.81v-.279l28.175 13.812z"/><path clip-path="url(#Z)" d="m149.185 232.536-28.175-13.815v-.279l28.175 13.81z"/><path clip-path="url(#Z)" d="m149.185 232.812-28.175-13.812v-.279l28.175 13.815z"/><path clip-path="url(#Z)" d="m149.185 233.09-28.175-13.811v-.279l28.175 13.812z"/><path clip-path="url(#Z)" d="m149.185 233.37-28.175-13.812v-.279l28.175 13.811z"/><path clip-path="url(#Z)" d="m149.185 233.649-28.175-13.813v-.278l28.175 13.812z"/><path clip-path="url(#Z)" d="m149.185 233.927-28.175-13.811v-.28l28.175 13.813z"/><path clip-path="url(#Z)" d="m149.185 234.203-28.175-13.808v-.279l28.175 13.811z"/><path clip-path="url(#Z)" d="m149.185 234.487-28.175-13.813v-.279l28.175 13.808z"/><path clip-path="url(#Z)" d="m149.185 234.765-28.175-13.813v-.278l28.175 13.813z"/><path clip-path="url(#Z)" d="m149.185 235.041-28.175-13.81v-.279l28.175 13.813z"/><path clip-path="url(#Z)" d="m149.185 235.323-28.175-13.813v-.279l28.175 13.81z"/><path clip-path="url(#Z)" d="m149.185 235.601-28.175-13.814v-.277l28.175 13.813z"/><path clip-path="url(#Z)" d="m149.185 235.879-28.175-13.812v-.28l28.175 13.814z"/><path clip-path="url(#Z)" d="m149.185 236.159-28.175-13.813v-.279l28.175 13.812z"/><path clip-path="url(#Z)" d="m149.185 236.437-28.175-13.814v-.277l28.175 13.813z"/><path clip-path="url(#Z)" d="m121.01 222.623 28.175 13.814v.138h-28.175z"/></g></g><g clip-path="url(#a)"><path d="m49.547 62.534c.063.084.142.155.235.207l5.67 3.276.945.543c.141.08.302.114.46.104.053-.004.105-.016.157-.029l6.972-12.764c-.053-.059-.115-.107-.186-.148l-4.328-2.499-2.288-1.317c-.065-.037-.136-.063-.207-.083z" fill="#4a6800"/><g clip-path="url(#aa)"><g fill="#4a6800" transform="translate(-78.306 -164.016)"><path d="m119.8 219.791 13.151 17.801 17.395-12.852-13.153-17.8z"/><path clip-path="url(#a6)" d="m125.657 206.942 22.645 30.649h-28.502v-30.649z"/><path clip-path="url(#a6)" d="m125.763 206.942 22.647 30.649h-.116l-22.646-30.649z"/><path clip-path="url(#a6)" d="m125.878 206.942 22.647 30.649h-.115l-22.647-30.649z"/><path clip-path="url(#a6)" d="m125.994 206.942 22.646 30.649h-.115l-22.647-30.649z"/><path clip-path="url(#a6)" d="m126.108 206.942 22.647 30.649h-.115l-22.646-30.649z"/><path clip-path="url(#a6)" d="m126.223 206.942 22.647 30.649h-.115l-22.647-30.649z"/><path clip-path="url(#a6)" d="m126.339 206.942 22.647 30.649h-.116l-22.647-30.649z"/><path clip-path="url(#a6)" d="m126.453 206.942 22.648 30.649h-.115l-22.647-30.649z"/><path clip-path="url(#a6)" d="m126.569 206.942 22.649 30.649h-.117l-22.648-30.649z"/><path clip-path="url(#a6)" d="m126.684 206.942 22.647 30.649h-.113l-22.649-30.649z"/><path clip-path="url(#a6)" d="m126.799 206.942 22.648 30.649h-.116l-22.647-30.649z"/><path clip-path="url(#a6)" d="m126.915 206.942 22.647 30.649h-.115l-22.648-30.649z"/><path clip-path="url(#a6)" d="m127.03 206.942 22.647 30.649h-.115l-22.647-30.649z"/><path clip-path="url(#a6)" d="m127.145 206.942 22.647 30.649h-.115l-22.647-30.649z"/><path clip-path="url(#a6)" d="m127.26 206.942 22.648 30.649h-.116l-22.647-30.649z"/><path clip-path="url(#a6)" d="m127.375 206.942 22.647 30.649h-.114l-22.648-30.649z"/><path clip-path="url(#a6)" d="m127.491 206.942 22.646 30.649h-.115l-22.647-30.649z"/><path clip-path="url(#a6)" d="m127.606 206.942 22.645 30.649h-.114l-22.646-30.649z"/><path clip-path="url(#a6)" d="m127.722 206.942 22.623 30.62v.029h-.094l-22.645-30.649z"/><path clip-path="url(#a6)" d="m127.836 206.942 22.509 30.463v.157l-22.623-30.62z"/><path clip-path="url(#a6)" d="m127.952 206.942 22.393 30.306v.157l-22.509-30.463z"/><path clip-path="url(#a6)" d="m128.067 206.942 22.278 30.151v.155l-22.393-30.306z"/><path clip-path="url(#a6)" d="m128.182 206.942 22.163 29.996v.155l-22.278-30.151z"/><path clip-path="url(#a6)" d="m128.297 206.942 22.048 29.842v.154l-22.163-29.996z"/><path clip-path="url(#a6)" d="m128.412 206.942 21.933 29.683v.159l-22.048-29.842z"/><path clip-path="url(#a6)" d="m128.528 206.942 21.817 29.528v.155l-21.933-29.683z"/><path clip-path="url(#a6)" d="m128.642 206.942 21.703 29.372v.156l-21.817-29.528z"/><path clip-path="url(#a6)" d="m128.759 206.942 21.586 29.217v.155l-21.703-29.372z"/><path clip-path="url(#a6)" d="m128.873 206.942 21.472 29.058v.159l-21.586-29.217z"/><path clip-path="url(#a6)" d="m128.988 206.942 21.357 28.903v.155l-21.472-29.058z"/><path clip-path="url(#a6)" d="m129.104 206.942 21.241 28.749v.154l-21.357-28.903z"/><path clip-path="url(#a6)" d="m129.219 206.942 21.126 28.594v.155l-21.241-28.749z"/><path clip-path="url(#a6)" d="m129.334 206.942 21.011 28.437v.157l-21.126-28.594z"/><path clip-path="url(#a6)" d="m129.449 206.942 20.896 28.281v.156l-21.011-28.437z"/><path clip-path="url(#a6)" d="m129.564 206.942 20.781 28.125v.156l-20.896-28.281z"/><path clip-path="url(#a6)" d="m129.68 206.942 20.665 27.969v.156l-20.781-28.125z"/><path clip-path="url(#a6)" d="m130.038 206.942 20.307 27.484v.485l-20.665-27.969z"/><path clip-path="url(#a6)" d="m130.396 206.942 19.949 26.999v.485l-20.307-27.484z"/><path clip-path="url(#a6)" d="m130.755 206.942 19.59 26.515v.484l-19.949-26.999z"/><path clip-path="url(#a6)" d="m131.113 206.942 19.232 26.029v.486l-19.59-26.515z"/><path clip-path="url(#a6)" d="m131.471 206.942 18.874 25.545v.484l-19.232-26.029z"/><path clip-path="url(#a6)" d="m131.83 206.942 18.515 25.058v.487l-18.874-25.545z"/><path clip-path="url(#a6)" d="m132.188 206.942 18.157 24.575v.483l-18.515-25.058z"/><path clip-path="url(#a6)" d="m132.546 206.942 17.799 24.09v.485l-18.157-24.575z"/><path clip-path="url(#a6)" d="m132.905 206.942 17.44 23.603v.487l-17.799-24.09z"/><path clip-path="url(#a6)" d="m133.264 206.942 17.081 23.118v.485l-17.44-23.603z"/><path clip-path="url(#a6)" d="m133.622 206.942 16.723 22.633v.485l-17.081-23.118z"/><path clip-path="url(#a6)" d="m133.98 206.942 16.365 22.146v.487l-16.723-22.633z"/><path clip-path="url(#a6)" d="m134.338 206.942 16.007 21.665v.481l-16.365-22.146z"/><path clip-path="url(#a6)" d="m134.697 206.942 15.648 21.178v.487l-16.007-21.665z"/><path clip-path="url(#a6)" d="m135.056 206.942 15.289 20.694v.484l-15.648-21.178z"/><path clip-path="url(#a6)" d="m135.413 206.942 14.932 20.209v.485l-15.289-20.694z"/><path clip-path="url(#a6)" d="m135.772 206.942 14.573 19.722v.487l-14.932-20.209z"/><path clip-path="url(#a6)" d="m136.13 206.942 14.215 19.238v.484l-14.573-19.722z"/><path clip-path="url(#a6)" d="m136.489 206.942 13.856 18.754v.484l-14.215-19.238z"/><path clip-path="url(#a6)" d="m136.848 206.942 13.497 18.267v.487l-13.856-18.754z"/><path clip-path="url(#a6)" d="m137.206 206.942 13.139 17.782v.485l-13.497-18.267z"/><path clip-path="url(#a6)" d="m150.345 224.724-13.139-17.782h13.139z"/></g></g><g clip-path="url(#aa)"><path d="m56.712 49.806c-.111.011-.219.046-.319.102l-6.591 3.804 7.107 12.946c.099-.014.196-.049.284-.098l6.61-3.819c.204-.118.344-.318.385-.544l-7.245-12.378c-.054-.011-.107-.016-.162-.016-.021 0-.044.001-.066.003" fill="#4a6800"/><g clip-path="url(#a7)"><g fill="#4a6800" transform="translate(-78.306 -164.016)"><path d="m128.108 213.819v16.855h14.384v-16.855z"/><path clip-path="url(#cA)" d="m128.108 213.819h2.309v16.855h-2.309z"/><path clip-path="url(#cA)" d="m130.417 213.819h.122v16.855h-.122z"/><path clip-path="url(#cA)" d="m130.538 213.819h.122v16.855h-.122z"/><path clip-path="url(#cA)" d="m130.66 213.819h.122v16.855h-.122z"/><path clip-path="url(#cA)" d="m130.783 213.819h.122v16.855h-.122z"/><path clip-path="url(#cA)" d="m130.904 213.819h.122v16.855h-.122z"/><path clip-path="url(#cA)" d="m131.026 213.819h.122v16.855h-.122z"/><path clip-path="url(#cA)" d="m131.147 213.819h.122v16.855h-.122z"/><path clip-path="url(#cA)" d="m131.269 213.819h.123v16.855h-.123z"/><path clip-path="url(#cA)" d="m131.392 213.819h.121v16.855h-.121z"/><path clip-path="url(#cA)" d="m131.513 213.819h.122v16.855h-.122z"/><path clip-path="url(#cA)" d="m131.635 213.819h.122v16.855h-.122z"/><path clip-path="url(#cA)" d="m131.756 213.819h.123v16.855h-.123z"/><path clip-path="url(#cA)" d="m131.879 213.819h.121v16.855h-.121z"/><path clip-path="url(#cA)" d="m132 213.819h.122v16.855h-.122z"/><path clip-path="url(#cA)" d="m132.121 213.819h.122v16.855h-.122z"/><path clip-path="url(#cA)" d="m132.243 213.819h.123v16.855h-.123z"/><path clip-path="url(#cA)" d="m132.366 213.819h.122v16.855h-.122z"/><path clip-path="url(#cA)" d="m132.487 213.819h.121v16.855h-.121z"/><path clip-path="url(#cA)" d="m132.608 213.819h.122v16.855h-.122z"/><path clip-path="url(#cA)" d="m132.73 213.819h.122v16.855h-.122z"/><path clip-path="url(#cA)" d="m132.852 213.819h.122v16.855h-.122z"/><path clip-path="url(#cA)" d="m132.974 213.819h.122v16.855h-.122z"/><path clip-path="url(#cA)" d="m133.096 213.819h.121v16.855h-.121z"/><path clip-path="url(#cA)" d="m133.217 213.819h.123v16.855h-.123z"/><path clip-path="url(#cA)" d="m133.34 213.819h.121v16.855h-.121z"/><path clip-path="url(#cA)" d="m133.461 213.819h.122v16.855h-.122z"/><path clip-path="url(#cA)" d="m133.582 213.819h.162v16.855h-.162z"/><path clip-path="url(#cA)" d="m133.744 213.819h.162v16.855h-.162z"/><path clip-path="url(#cA)" d="m133.907 213.819h.162v16.855h-.162z"/><path clip-path="url(#cA)" d="m134.068 213.819h.162v16.855h-.162z"/><path clip-path="url(#cA)" d="m134.23 213.819h.163v16.855h-.163z"/><path clip-path="url(#cA)" d="m134.392 213.819h.162v16.855h-.162z"/><path clip-path="url(#cA)" d="m134.554 213.819h.162v16.855h-.162z"/><path clip-path="url(#cA)" d="m134.716 213.819h.162v16.855h-.162z"/><path clip-path="url(#cA)" d="m134.877 213.819h.208v16.855h-.208z"/><path clip-path="url(#cA)" d="m135.085 213.819h.207v16.855h-.207z"/><path clip-path="url(#cA)" d="m135.291 213.819h.207v16.855h-.207z"/><path clip-path="url(#cA)" d="m135.498 213.819h.207v16.855h-.207z"/><path clip-path="url(#cA)" d="m135.705 213.819h.207v16.855h-.207z"/><path clip-path="url(#cA)" d="m135.911 213.819h.207v16.855h-.207z"/><path clip-path="url(#cA)" d="m136.118 213.819h.207v16.855h-.207z"/><path clip-path="url(#cA)" d="m136.326 213.819h.207v16.855h-.207z"/><path clip-path="url(#cA)" d="m136.532 213.819h.207v16.855h-.207z"/><path clip-path="url(#cA)" d="m136.739 213.819h.208v16.855h-.208z"/><path clip-path="url(#cA)" d="m136.947 213.819h.207v16.855h-.207z"/><path clip-path="url(#cA)" d="m137.153 213.819h.206v16.855h-.206z"/><path clip-path="url(#cA)" d="m137.359 213.819h.208v16.855h-.208z"/><path clip-path="url(#cA)" d="m137.567 213.819h.206v16.855h-.206z"/><path clip-path="url(#cA)" d="m137.773 213.819h.207v16.855h-.207z"/><path clip-path="url(#cA)" d="m137.98 213.819h.208v16.855h-.208z"/><path clip-path="url(#cA)" d="m138.187 213.819h.073v16.855h-.073z"/><path clip-path="url(#cA)" d="m138.261 213.819h.074v16.855h-.074z"/><path clip-path="url(#cA)" d="m138.334 213.819h.074v16.855h-.074z"/><path clip-path="url(#cA)" d="m138.409 213.819h.074v16.855h-.074z"/><path clip-path="url(#cA)" d="m138.483 213.819h.073v16.855h-.073z"/><path clip-path="url(#cA)" d="m138.556 213.819h.074v16.855h-.074z"/><path clip-path="url(#cA)" d="m138.63 213.819h.074v16.855h-.074z"/><path clip-path="url(#cA)" d="m138.704 213.819h.073v16.855h-.073z"/><path clip-path="url(#cA)" d="m138.777 213.819h.075v16.855h-.075z"/><path clip-path="url(#cA)" d="m138.851 213.819h.074v16.855h-.074z"/><path clip-path="url(#cA)" d="m138.926 213.819h.073v16.855h-.073z"/><path clip-path="url(#cA)" d="m138.998 213.819h.074v16.855h-.074z"/><path clip-path="url(#cA)" d="m139.072 213.819h.074v16.855h-.074z"/><path clip-path="url(#cA)" d="m139.146 213.819h.074v16.855h-.074z"/><path clip-path="url(#cA)" d="m139.22 213.819h.074v16.855h-.074z"/><path clip-path="url(#cA)" d="m139.294 213.819h.074v16.855h-.074z"/><path clip-path="url(#cA)" d="m139.368 213.819h.074v16.855h-.074z"/><path clip-path="url(#cA)" d="m139.441 213.819h.075v16.855h-.075z"/><path clip-path="url(#cA)" d="m139.516 213.819h.073v16.855h-.073z"/><path clip-path="url(#cA)" d="m139.589 213.819h.074v16.855h-.074z"/><path clip-path="url(#cA)" d="m139.662 213.819h.074v16.855h-.074z"/><path clip-path="url(#cA)" d="m139.737 213.819h.074v16.855h-.074z"/><path clip-path="url(#cA)" d="m139.81 213.819h.074v16.855h-.074z"/><path clip-path="url(#cA)" d="m139.884 213.819h.074v16.855h-.074z"/><path clip-path="url(#cA)" d="m139.958 213.819h.074v16.855h-.074z"/><path clip-path="url(#cA)" d="m140.032 213.819h.073v16.855h-.073z"/><path clip-path="url(#cA)" d="m140.105 213.819h.074v16.855h-.074z"/><path clip-path="url(#cA)" d="m140.179 213.819h.074v16.855h-.074z"/><path clip-path="url(#cA)" d="m140.253 213.819h.074v16.855h-.074z"/><path clip-path="url(#cA)" d="m140.327 213.819h.074v16.855h-.074z"/><path clip-path="url(#cA)" d="m140.401 213.819h.073v16.855h-.073z"/><path clip-path="url(#cA)" d="m140.474 213.819h.074v16.855h-.074z"/><path clip-path="url(#cA)" d="m140.548 213.819h.074v16.855h-.074z"/><path clip-path="url(#cA)" d="m140.622 213.819h.074v16.855h-.074z"/><path clip-path="url(#cA)" d="m140.696 213.819h.074v16.855h-.074z"/><path clip-path="url(#cA)" d="m140.77 213.819h.073v16.855h-.073z"/><path clip-path="url(#cA)" d="m140.843 213.819h.075v16.855h-.075z"/><path clip-path="url(#cA)" d="m140.918 213.819h.073v16.855h-.073z"/><path clip-path="url(#cA)" d="m140.991 213.819h.074v16.855h-.074z"/><path clip-path="url(#cA)" d="m141.065 213.819h1.428v16.855h-1.428z"/></g></g><g fill="#8fc53f"><path d="m45.14 52.607c0-.288-.153-.553-.401-.697l-6.646-3.824c-.112-.065-.237-.1-.365-.105h-.069c-.127.005-.252.04-.367.105l-6.645 3.824c-.248.145-.402.41-.402.698l.015 10.296c0 .146.073.277.199.35.122.075.276.075.398 0l3.95-2.263c.25-.147.402-.411.402-.697v-4.812c0-.286.152-.551.401-.694l1.682-.969c.125-.072.262-.107.401-.107.138 0 .278.035.399.107l1.682.969c.249.142.401.407.401.694v4.812c0 .285.154.55.402.697l3.949 2.26c.124.074.278.074.402 0 .121-.069.199-.203.199-.347zm31.358 5.364c0 .071-.039.139-.102.174l-2.283 1.313c-.061.036-.137.036-.199 0l-2.282-1.313c-.063-.035-.103-.104-.103-.174v-2.637c0-.072.039-.138.1-.174l2.282-1.317c.062-.037.14-.037.2 0l2.283 1.317c.063.036.102.102.102.174zm.615-19.52c-.125-.07-.275-.067-.398.005s-.197.204-.197.346v10.198c0 .101-.055.194-.141.244s-.193.05-.279 0l-1.666-.958c-.25-.144-.554-.144-.803 0l-6.646 3.836c-.248.143-.402.408-.402.693v7.675c0 .287.154.553.402.695l6.646 3.84c.248.143.553.143.805 0l6.646-3.842c.247-.144.4-.406.4-.695v-19.128c0-.291-.158-.559-.414-.702zm22.138 16.815c.246-.145.397-.409.397-.694v-1.86c0-.287-.151-.55-.398-.694l-6.604-3.835c-.25-.145-.557-.145-.808 0l-6.646 3.836c-.25.146-.4.409-.4.696v7.672c0 .289.154.557.404.698l6.604 3.763c.241.141.54.143.788.006l3.993-2.219c.126-.072.205-.205.205-.35s-.076-.28-.202-.35l-6.687-3.84c-.127-.07-.203-.203-.203-.347v-2.405c0-.146.074-.277.201-.348l2.08-1.201c.125-.072.276-.072.399 0l2.083 1.201c.124.071.199.204.199.346v1.893c0 .143.076.274.201.35.125.07.277.07.399-.002z"/><path d="m92.146 54.906c.047-.027.104-.027.152 0l1.275.737c.047.027.076.078.076.133v1.473c0 .056-.029.106-.076.133l-1.275.736c-.048.026-.105.026-.152 0l-1.275-.736c-.051-.026-.077-.077-.077-.133v-1.473c0-.055.026-.105.074-.133z"/><path d="m55.563 48.373-6.61 3.815c-.248.143-.399.406-.399.691v7.635c0 .287.152.549.399.691l6.61 3.818c.248.143.552.143.799 0l6.61-3.818c.245-.143.398-.404.398-.691v-7.634c0-.285-.153-.549-.4-.691l-6.608-3.815c-.124-.071-.263-.107-.399-.107-.139 0-.277.036-.4.106"/></g><g clip-path="url(#cB)"><g fill="#8fc53f" transform="translate(-78.306 -164.016)"><path d="m148.356 215.557-18.627-9.129-9.549 19.48 18.625 9.131z"/><path clip-path="url(#dq)" d="m148.355 222.817-28.175-13.813v-2.577h28.175z"/><path clip-path="url(#dq)" d="m148.355 223.028-28.175-13.813v-.21l28.175 13.812z"/><path clip-path="url(#dq)" d="m148.355 223.237-28.175-13.811v-.211l28.175 13.813z"/><path clip-path="url(#dq)" d="m148.355 223.448-28.175-13.812v-.21l28.175 13.811z"/><path clip-path="url(#dq)" d="m148.355 223.659-28.175-13.814v-.209l28.175 13.812z"/><path clip-path="url(#dq)" d="m148.355 223.87-28.175-13.814v-.211l28.175 13.814z"/><path clip-path="url(#dq)" d="m148.355 224.077-28.175-13.811v-.21l28.175 13.814z"/><path clip-path="url(#dq)" d="m148.355 224.287-28.175-13.811v-.21l28.175 13.811z"/><path clip-path="url(#dq)" d="m148.355 224.498-28.175-13.812v-.21l28.175 13.811z"/><path clip-path="url(#dq)" d="m148.355 224.707-28.175-13.811v-.21l28.175 13.812z"/><path clip-path="url(#dq)" d="m148.355 224.918-28.175-13.811v-.211l28.175 13.811z"/><path clip-path="url(#dq)" d="m148.355 225.129-28.175-13.812v-.21l28.175 13.811z"/><path clip-path="url(#dq)" d="m148.355 225.338-28.175-13.812v-.209l28.175 13.812z"/><path clip-path="url(#dq)" d="m148.355 225.547-28.175-13.81v-.211l28.175 13.812z"/><path clip-path="url(#dq)" d="m148.355 225.758-28.175-13.81v-.211l28.175 13.81z"/><path clip-path="url(#dq)" d="m148.355 225.969-28.175-13.811v-.21l28.175 13.81z"/><path clip-path="url(#dq)" d="m148.355 226.179-28.175-13.811v-.21l28.175 13.811z"/><path clip-path="url(#dq)" d="m148.355 226.39-28.175-13.812v-.21l28.175 13.811z"/><path clip-path="url(#dq)" d="m148.355 226.601-28.175-13.813v-.21l28.175 13.812z"/><path clip-path="url(#dq)" d="m148.355 226.81-28.175-13.812v-.21l28.175 13.813z"/><path clip-path="url(#dq)" d="m148.355 227.021-28.175-13.813v-.21l28.175 13.812z"/><path clip-path="url(#dq)" d="m148.355 227.23-28.175-13.812v-.21l28.175 13.813z"/><path clip-path="url(#dq)" d="m148.355 227.441-28.175-13.812v-.211l28.175 13.812z"/><path clip-path="url(#dq)" d="m148.355 227.651-28.175-13.812v-.21l28.175 13.812z"/><path clip-path="url(#dq)" d="m148.355 227.929-28.175-13.811v-.279l28.175 13.812z"/><path clip-path="url(#dq)" d="m148.355 228.207-28.175-13.81v-.279l28.175 13.811z"/><path clip-path="url(#dq)" d="m148.355 228.489-28.175-13.814v-.278l28.175 13.81z"/><path clip-path="url(#dq)" d="m148.355 228.768-28.175-13.814v-.279l28.175 13.814z"/><path clip-path="url(#dq)" d="m148.355 229.045-28.175-13.812v-.279l28.175 13.814z"/><path clip-path="url(#dq)" d="m148.355 229.325-28.175-13.813v-.279l28.175 13.812z"/><path clip-path="url(#dq)" d="m148.355 229.602-28.175-13.811v-.279l28.175 13.813z"/><path clip-path="url(#dq)" d="m148.355 229.882-28.175-13.812v-.279l28.175 13.811z"/><path clip-path="url(#dq)" d="m148.355 230.162-28.175-13.813v-.279l28.175 13.812z"/><path clip-path="url(#dq)" d="m148.355 230.44-28.175-13.812v-.279l28.175 13.813z"/><path clip-path="url(#dq)" d="m148.355 230.718-28.175-13.811v-.279l28.175 13.812z"/><path clip-path="url(#dq)" d="m148.355 230.998-28.175-13.812v-.279l28.175 13.811z"/><path clip-path="url(#dq)" d="m148.355 231.278-28.175-13.813v-.279l28.175 13.812z"/><path clip-path="url(#dq)" d="m148.355 231.555-28.175-13.811v-.279l28.175 13.813z"/><path clip-path="url(#dq)" d="m148.355 231.832-28.175-13.809v-.279l28.175 13.811z"/><path clip-path="url(#dq)" d="m148.355 232.114-28.175-13.812v-.279l28.175 13.809z"/><path clip-path="url(#dq)" d="m148.355 232.392-28.175-13.812v-.278l28.175 13.812z"/><path clip-path="url(#dq)" d="m148.355 232.668-28.175-13.809v-.279l28.175 13.812z"/><path clip-path="url(#dq)" d="m148.355 232.952-28.175-13.813v-.28l28.175 13.809z"/><path clip-path="url(#dq)" d="m148.355 233.23-28.175-13.814v-.277l28.175 13.813z"/><path clip-path="url(#dq)" d="m148.355 233.507-28.175-13.811v-.28l28.175 13.814z"/><path clip-path="url(#dq)" d="m148.355 233.787-28.175-13.812v-.279l28.175 13.811z"/><path clip-path="url(#dq)" d="m148.355 234.066-28.175-13.814v-.277l28.175 13.812z"/><path clip-path="url(#dq)" d="m148.355 234.345-28.175-13.813v-.28l28.175 13.814z"/><path clip-path="url(#dq)" d="m148.355 234.621-28.175-13.81v-.279l28.175 13.813z"/><path clip-path="url(#dq)" d="m148.355 234.903-28.175-13.815v-.277l28.175 13.81z"/><path clip-path="url(#dq)" d="m120.18 221.088 28.175 13.815v.134h-28.175z"/></g></g><g clip-path="url(#cB)"><path d="m48.717 60.999c.063.084.142.155.235.207l5.67 3.276.945.543c.141.08.302.115.46.104.053-.004.105-.016.157-.029l6.972-12.764c-.053-.059-.115-.107-.186-.148l-4.328-2.499-2.288-1.317c-.065-.037-.136-.064-.207-.083z" fill="#8fc53f"/><path d="m90.584 9.911h-53.12l-26.56 46.074 26.56 46.074h53.12l26.561-46.074zm-1.08 90.282h-50.97l-25.49-44.209 25.49-44.211h50.97l25.489 44.211z" opacity=".13"/></g></g></g><path d="m21 30.75 43.699-25.2 43.601 25.2v50.4l-43.601 25.2-43.699-25.2zm-2.3-1.399v53.2l45.999 26.6 46-26.6v-53.101l-46-26.6z" opacity=".13"/></svg>