<svg enable-background="new 0 0 110.979 128.417" viewBox="0 0 110.979 128.417" xmlns="http://www.w3.org/2000/svg"><path d="m55.5 128.042-55.083-31.803v-63.605l55.083-31.802 55.083 31.802v63.605z" fill="#050a32"/><path d="m55.499 10.898-46.435 26.77v53.54l46.435 26.768 46.438-26.768v-53.54zm44.557 79.231-44.557 25.69-44.559-25.69v-51.372l44.559-25.69 44.557 25.69z" fill="#26ffad"/><path d="m40.361 95.929c3.771 3.756 9.731 4.106 14.767 4.315 3.035.126 6.064-.183 9.025-.847 2.592-.581 5.251-1.373 6.971-3.524.425-.532-.325-1.292-.755-.755-1.627 2.035-4.072 2.664-6.5 3.249-2.707.653-5.492.871-8.27.823-4.822-.084-10.878-.425-14.484-4.017-.488-.484-1.242.27-.754.756z" fill="#26ffad"/><path d="m71.238 95.253c-.789-4.424-1.578-8.848-2.367-13.273-.121-.677-1.149-.389-1.029.283.788 4.424 1.578 8.849 2.366 13.273.121.677 1.149.389 1.03-.283z" fill="#26ffad"/><path d="m41.212 95.536c.789-4.424 1.578-8.848 2.367-13.273.12-.673-.908-.96-1.029-.283-.789 4.424-1.578 8.848-2.367 13.273-.12.672.908.959 1.029.283z" fill="#26ffad"/><path d="m42.626 82.282c1.83 2.85 5.687 3.189 8.723 3.58.681.088.673-.98 0-1.067-2.602-.335-6.219-.587-7.801-3.052-.371-.577-1.295-.042-.922.539z" fill="#26ffad"/><path d="m53.172 85.972c.688 0 .688-1.067 0-1.067s-.688 1.067 0 1.067z" fill="#26ffad"/><path d="m43.525 82.216c.349-1.727 2.947-2.528 4.487-2.537.688-.004.688-1.067 0-1.067-.009 0-.018 0-.027 0-.688 0-.688 1.067 0 1.067h.027c0-.356 0-.711 0-1.067-2.006.013-5.066 1.097-5.515 3.321-.136.671.892.958 1.028.283z" fill="#26ffad"/><path d="m67.64 81.619c-1.582 2.464-5.199 2.717-7.801 3.051-.673.086-.681 1.154 0 1.067 3.035-.39 6.893-.73 8.722-3.58.373-.581-.551-1.115-.921-.538z" fill="#26ffad"/><path d="m68.691 81.809c-.449-2.224-3.51-3.308-5.516-3.321v1.067h.027c.688 0 .688-1.067 0-1.067-.009 0-.018 0-.027 0-.688 0-.688 1.062 0 1.067 1.54.01 4.138.811 4.487 2.537.136.674 1.165.388 1.029-.283z" fill="#26ffad"/><path d="m48.451 82.306c1.669-.526 1.449-1.77.8-3.098-.597-1.221-.922-2.173.399-3.046 1.04-.687 2.489-.885 3.709-.842.688.024.686-1.043 0-1.067-1.754-.061-4.358.38-5.377 2.011-.484.775-.464 1.518-.164 2.365.266.747 1.538 2.273.35 2.648-.654.206-.375 1.237.283 1.029z" fill="#26ffad"/><path d="m47.905 78.783c1.048 3.02 4.463 3.058 7.174 2.962.686-.024.688-1.092 0-1.067-2.111.076-5.297.266-6.145-2.178-.224-.646-1.255-.369-1.029.283z" fill="#26ffad"/><path d="m61.362 79.715c-.285 1.122.36 2.119 1.537 2.195.687.044.683-1.023 0-1.067-.476-.031-.616-.422-.508-.845.169-.666-.86-.949-1.029-.283z" fill="#26ffad"/><path d="m53.283 75.334c2.228-.008 4.539-.213 6.751.12 1.017.153 2.075.81 2.449 1.793.633 1.666-1.515 2.607-2.71 2.897-.668.162-.385 1.191.284 1.029 1.506-.365 2.682-1.004 3.344-2.465.502-1.108.059-2.231-.713-3.066-.93-1.006-2.349-1.259-3.642-1.351-1.914-.135-3.845-.03-5.761-.024-.69.003-.691 1.07-.002 1.067z" fill="#26ffad"/><path d="m54.913 76.068c-1.053.016-3.899-.031-4.393 1.228-.526 1.339 2.197 1.916 3.06 2.013 1.779.198 4.125.202 5.789-.558 1.406-.643 1.749-2.037.114-2.525-.44-.132-.627.555-.189.686.45.463.48.809.09 1.035-.221.159-.499.234-.755.315-.537.17-1.112.24-1.669.304-1.034.118-2.086.121-3.123.054-.583-.038-3.257-.744-2.379-1.26.958-.564 2.381-.565 3.454-.58.459-.007.46-.719.001-.712z" fill="#26ffad"/><g fill="#fff"><path d="m29.28 35.031c5.682 8.572 11.376 17.276 18.818 24.453 3.023 2.915 6.364 5.529 9.813 7.919 2.96 2.052 6.365 4.372 9.985 5.011.672.119.96-.909.283-1.029-3.542-.625-6.821-2.912-9.73-4.903-3.392-2.322-6.617-4.921-9.597-7.753-7.417-7.048-13.032-15.759-18.651-24.237-.378-.57-1.303-.037-.921.539z"/><path d="m30.19 35.554c5.371 2.632 9.824 7.026 14.01 11.209 4.345 4.342 8.553 8.832 12.823 13.249 5.269 5.45 10.288 11.138 14.987 17.087 2.254 2.854 4.357 5.822 6.595 8.688 2.174 2.784 4.387 5.636 5.388 9.078.192.659 1.221.379 1.029-.283-.911-3.132-2.766-5.79-4.731-8.35-2.206-2.875-4.352-5.794-6.569-8.661-4.848-6.271-10.098-12.221-15.583-17.938-4.372-4.557-8.729-9.15-13.185-13.625-4.228-4.246-8.786-8.71-14.226-11.375-.615-.302-1.156.618-.538.921z"/><path d="m79.699 93.267c1.615.117 3.097.801 4.265 1.916.497.475 1.253-.279.755-.755-1.38-1.318-3.117-2.09-5.019-2.229-.688-.049-.683 1.018-.001 1.068z"/><path d="m80.462 92.626c.552-1.892.584-3.969-.083-5.837-.23-.643-1.261-.366-1.029.283.608 1.701.586 3.546.083 5.271-.193.662.837.942 1.029.283z"/><path d="m80.906 91.49c-.029.448.769 1.03 1.111 1.226.544.313 1.039-.391.647-.838-.216-.245-.741-.355-1.037-.518-.386-.213-.944.14-.784.602.089.256.179.547.386.733.509.456 1.248-.268.755-.755-.341-.336-.774-.819-1.289-.819-.616 0-.708.867-.142 1.048.655.209 1.181.698 1.779 1.024.28.152.721.033.784-.319.004-.021.008-.042.011-.063-.171.13-.343.261-.514.391.095-.008.171.017.261.044.439.137.855-.392.602-.784-.585-.904-1.063-1.872-1.575-2.818-.25-.461-1.017-.26-.994.269.021.487.061 1.081.405 1.455.321.349.91.073.911-.377-.034.097-.067.194-.101.291.152-.169.224-.444.083-.647-.008.344.001.395.026.155-.007-.07-.016-.14-.026-.209-.05-.224-.125-.44-.2-.657-.13-.374-.27-.749-.435-1.11-.218-.476-1.041-.249-.994.269.061.663.015 1.328.083 1.99.349-.047.699-.094 1.048-.142-.186-.803-.41-1.597-.58-2.404-.143-.673-1.171-.388-1.029.283.171.807.394 1.601.581 2.404.134.578 1.109.462 1.048-.142-.068-.662-.023-1.327-.083-1.99-.331.09-.663.179-.994.269.149.327.265.673.382 1.013.028.081.097.519.144.317-.044.186.003.338.109.491.028-.215.056-.431.084-.646-.126.14-.211.266-.212.463.303-.126.607-.251.911-.377-.107-.116-.086-.539-.093-.7-.331.09-.663.179-.994.269.512.946.99 1.914 1.575 2.818.201-.261.402-.522.602-.784-.176-.055-.36-.098-.545-.083-.222.018-.471.148-.515.392-.004.021-.007.042-.011.064.261-.106.522-.213.784-.319-.689-.375-1.277-.889-2.034-1.131-.047.349-.095.698-.142 1.048.092 0 .417.391.534.507.252-.251.503-.503.755-.755-.064-.058-.084-.184-.112-.262-.261.201-.522.401-.784.602.142.078.283.159.425.238.057.032.609.355.396.113.216-.279.431-.559.647-.838-.104-.059-.201-.168-.293-.247-.098-.084-.193-.171-.289-.258-.247-.227.019-.105-.001.2.044-.684-1.023-.679-1.067.004z"/><path d="m29.63 35.157c9.504-.95 17.413 4.765 23.911 11.096 3.461 3.372 6.501 7.178 9.028 11.296 2.603 4.24 4.048 8.773 5.093 13.607.145.672 1.174.387 1.029-.283-1.069-4.947-2.584-9.51-5.2-13.863-2.618-4.355-5.911-8.312-9.545-11.853-6.57-6.401-14.75-12.024-24.315-11.067-.679.068-.686 1.135-.001 1.067z"/><path d="m22.972 22.558-.325.576c-.184-.107-.332-.161-.444-.162-.119-.006-.248.031-.385.11-.169.097-.281.225-.338.385-.057.158-.045.308.037.451.113.196.35.271.712.223l.496-.067c.403-.056.736-.032.996.071.261.104.471.294.631.571.213.371.266.748.158 1.132-.109.387-.347.687-.716.899-.35.201-.698.264-1.046.188-.344-.078-.652-.289-.924-.633l.538-.49c.164.221.307.356.428.407.225.102.458.084.698-.054.189-.109.311-.263.363-.463.052-.199.022-.396-.09-.591-.045-.078-.097-.144-.156-.196-.059-.053-.128-.094-.206-.122s-.167-.046-.268-.051c-.101-.006-.214-.001-.34.013l-.482.062c-.686.084-1.158-.099-1.416-.547-.174-.303-.205-.623-.09-.959.113-.339.342-.607.687-.805.468-.268.96-.25 1.482.052z"/><path d="m26.25 21.999.449.781c-.228-.087-.413-.13-.554-.13-.141-.002-.281.037-.422.118-.221.127-.36.311-.417.549-.057.239-.019.475.116.708.137.238.32.394.549.466.231.071.457.043.678-.084.141-.081.248-.183.321-.306.071-.119.127-.305.17-.556l.446.775c-.168.261-.37.46-.609.597-.393.226-.795.289-1.206.187-.412-.104-.727-.345-.945-.725s-.268-.777-.151-1.192c.118-.415.372-.735.762-.959.25-.144.521-.221.813-.229z"/><path d="m26.756 21.562.587-.338.131.227c.043-.175.094-.308.153-.397.06-.093.149-.173.265-.24.155-.089.346-.132.573-.128l.041.693c-.158-.016-.289.007-.396.068-.32.184-.341.518-.063 1.002l.758 1.318-.587.338z"/><path d="m28.059 19.406c-.059-.103-.073-.213-.041-.331s.1-.207.205-.267c.106-.061.218-.076.336-.044.117.03.206.098.267.204s.076.218.044.336c-.03.117-.098.206-.204.267s-.218.076-.336.044c-.119-.032-.209-.101-.271-.209zm1.284.668 1.463 2.543-.587.338-1.463-2.543z"/><path d="m29.601 17.441 1.243 2.162c.095-.379.291-.654.589-.825.343-.197.702-.233 1.077-.109.374.123.67.374.889.754.225.392.297.781.214 1.169-.082.385-.297.678-.645.878-.294.169-.622.207-.984.114l.153.266-.587.338-2.536-4.409zm3.212 2.353c-.14-.244-.32-.404-.541-.481-.224-.079-.437-.061-.639.055-.216.124-.348.301-.397.53-.048.227-.003.461.136.701.142.247.322.407.539.478.219.075.437.051.653-.073.204-.117.329-.29.376-.518.047-.231.005-.462-.127-.692z"/><path d="m36.419 17.88-1.822 1.048c.136.2.3.327.491.382.19.053.379.025.567-.083.146-.084.247-.188.302-.313.054-.124.087-.314.099-.571l.655-.009c-.002.175-.018.333-.05.475s-.079.271-.142.387-.143.221-.24.313c-.097.093-.211.178-.344.254-.379.218-.754.272-1.124.16-.371-.113-.673-.372-.906-.778-.231-.402-.307-.791-.228-1.169.083-.375.311-.668.681-.882.374-.215.738-.266 1.093-.153.352.113.649.379.89.798zm-.879-.134c-.262-.266-.55-.309-.863-.129-.071.041-.132.09-.182.148s-.089.122-.117.192-.044.145-.047.223c-.003.079.006.16.029.244z"/><path d="m58.631 119.89-.992.585.351.595.963-.568.207.351-.964.568.487.827.992-.585.207.351-1.366.805-1.458-2.475 1.366-.805z"/><path d="m59.955 120.321.722 1.225-.361.213-.722-1.225-.154.091-.198-.337.154-.091-.337-.572.361-.213.337.572.281-.165.198.337z"/><path d="m59.607 118.529.361-.212.752 1.276c.06-.191.168-.332.323-.424.176-.104.351-.13.524-.078.148.046.287.178.415.396l.564.957-.36.213-.544-.923c-.074-.125-.149-.202-.227-.233-.078-.03-.166-.016-.264.042-.126.074-.191.165-.197.273-.004.109.051.259.165.452l.445.755-.361.213z"/><path d="m62.984 120.186-1.047-2.968 1.983 1.423-.253-2.442 2.036 2.385-.383.226-1.119-1.353.215 2.039-1.66-1.19.615 1.652z"/><path d="m66.389 116.077.362-.213.92 1.561-.362.213-.096-.163c-.067.226-.186.39-.357.491-.216.127-.44.154-.673.081-.234-.077-.421-.234-.561-.473-.138-.234-.183-.47-.135-.708.048-.239.177-.42.388-.544.182-.107.389-.128.621-.064zm-.399 1.28c.088.15.2.248.336.295.138.046.27.033.395-.041.133-.079.214-.188.242-.329.027-.143-.004-.288-.09-.435s-.198-.243-.337-.29c-.137-.044-.271-.028-.403.05-.124.073-.2.181-.228.324-.026.144.002.286.085.426z"/><path d="m69.614 116.23c.044.074.079.14.108.199.028.059.051.112.068.16.043.133.053.263.028.392-.045.246-.192.441-.438.587-.208.123-.413.168-.613.135-.207-.033-.381-.146-.523-.338l.362-.213c.059.069.117.115.174.137.132.053.27.038.413-.046.264-.156.3-.395.109-.719l-.128-.218c-.057.231-.179.401-.366.512-.212.125-.432.151-.658.077-.229-.075-.412-.23-.55-.464-.134-.228-.184-.458-.151-.692.037-.249.168-.441.392-.573.197-.116.403-.139.62-.069l-.104-.177.361-.212zm-.782-.536c-.089-.152-.202-.25-.336-.292-.137-.044-.27-.029-.398.047-.137.081-.215.195-.234.343-.018.133.015.272.1.416.084.142.188.238.313.286.137.053.274.039.412-.042s.217-.196.238-.343c.02-.135-.011-.274-.095-.415z"/><path d="m68.734 113.82c-.037-.063-.046-.131-.028-.204.019-.073.061-.128.124-.166.066-.039.134-.048.207-.03s.128.059.166.124.048.135.029.207c-.018.072-.059.128-.124.166-.065.039-.134.048-.207.029-.072-.017-.128-.06-.167-.126zm.798.405.92 1.561-.361.213-.92-1.561z"/><path d="m71.243 113.307.282.48c-.141-.052-.256-.077-.343-.077-.086-.001-.173.025-.26.076-.136.08-.221.194-.254.342-.034.148-.008.294.076.437.086.146.201.241.342.284.143.043.282.024.418-.056.086-.051.152-.114.196-.191.043-.074.076-.189.101-.345l.281.476c-.102.162-.226.286-.372.372-.242.143-.489.184-.744.123s-.451-.208-.588-.441-.171-.478-.101-.735c.07-.258.225-.457.464-.598.155-.092.322-.14.502-.147z"/><path d="m71.116 112.417c-.037-.063-.046-.131-.028-.204.019-.073.061-.128.125-.166.065-.038.134-.048.207-.029.073.018.128.059.166.124s.048.134.029.207c-.018.072-.059.128-.124.166s-.134.048-.207.029c-.073-.018-.129-.061-.168-.127zm.797.404.92 1.561-.361.213-.92-1.561z"/><path d="m73.521 111.874.362-.213.92 1.561-.362.213-.096-.163c-.067.226-.186.39-.356.49-.216.127-.44.154-.673.081-.234-.077-.421-.234-.561-.472-.138-.234-.183-.47-.135-.709s.177-.42.388-.544c.182-.107.389-.128.622-.064zm-.398 1.28c.088.15.199.248.335.295.138.046.27.033.395-.041.134-.079.215-.188.243-.328.026-.144-.004-.289-.09-.435-.086-.147-.199-.243-.337-.29-.137-.044-.271-.028-.402.049-.124.073-.2.181-.228.324-.028.144.001.286.084.426z"/><path d="m74.338 111.392.362-.213.085.144c.052-.199.158-.346.316-.439.182-.107.357-.133.526-.078.145.046.282.178.412.398l.564.957-.362.213-.514-.872c-.091-.154-.174-.247-.252-.281-.077-.036-.171-.021-.281.044-.12.071-.181.16-.185.268-.003.107.053.258.167.453l.444.753-.362.213z"/><path d="m77.202 110.063-.204.334c-.104-.069-.19-.082-.26-.041-.033.019-.055.047-.066.083-.01.036-.006.071.014.105.036.06.14.078.313.055.24-.03.413-.03.521 0 .107.031.195.104.264.222.089.151.107.31.056.476-.051.16-.153.285-.306.375-.262.154-.522.136-.782-.055l.223-.324c.087.05.148.078.182.085.068.015.132.004.193-.032.122-.072.15-.163.084-.275-.038-.064-.12-.096-.247-.096-.047.003-.094.007-.14.011s-.094.008-.142.012c-.135.01-.239.003-.312-.023-.093-.033-.17-.101-.23-.204-.08-.136-.1-.275-.059-.418.043-.145.132-.257.268-.337.203-.117.412-.102.63.047z"/><path d="m79.921 107.051.261.443c-.322-.054-.599-.012-.83.124-.255.15-.415.367-.481.653-.068.285-.025.559.13.822.153.26.37.427.65.503.28.075.548.038.802-.112.132-.077.231-.164.297-.262.039-.051.075-.112.108-.181.034-.068.066-.146.097-.234l.265.451c-.143.246-.331.439-.567.577-.354.208-.728.263-1.124.164-.396-.102-.697-.329-.904-.681-.186-.315-.247-.658-.184-1.027.078-.454.321-.8.728-1.04.223-.132.474-.199.752-.2z"/><path d="m81.163 108.407c-.133-.226-.165-.465-.097-.718s.218-.448.45-.585c.233-.137.478-.174.734-.11.254.065.449.213.586.445.138.234.173.478.104.731-.07.253-.223.449-.459.588-.234.138-.477.173-.73.106-.25-.065-.447-.217-.588-.457zm.373-.21c.092.156.206.255.343.297.14.041.279.021.419-.061.141-.083.227-.195.258-.336.031-.14.002-.286-.088-.438-.089-.152-.203-.248-.341-.289-.14-.041-.28-.021-.42.061-.138.081-.223.193-.254.335-.03.142-.003.285.083.431z"/><path d="m83.117 106.219.528.896c.153.259.331.328.535.208s.23-.31.078-.568l-.528-.896.361-.213.533.904c.073.125.122.242.144.351.018.099.009.203-.026.311-.059.178-.183.321-.371.432-.187.11-.372.149-.557.114-.113-.021-.209-.063-.288-.126-.073-.055-.151-.154-.236-.297l-.533-.904z"/><path d="m84.545 105.378.362-.213.085.144c.052-.199.158-.346.316-.439.182-.107.357-.133.526-.079.145.046.282.178.412.398l.564.957-.362.213-.514-.872c-.09-.154-.174-.247-.252-.281-.077-.035-.171-.02-.281.044-.12.071-.181.16-.185.269-.003.107.053.258.167.452l.444.753-.362.213z"/><path d="m87.6 103.669.283.48c-.141-.052-.256-.078-.343-.077-.087-.001-.173.025-.26.076-.136.08-.221.194-.254.342-.034.148-.008.294.076.436.086.147.2.241.342.284.143.043.283.024.418-.056.086-.051.152-.115.196-.191.043-.074.076-.189.101-.345l.281.476c-.102.162-.226.286-.372.373-.241.142-.489.183-.744.123-.255-.061-.451-.209-.588-.441-.137-.233-.171-.478-.101-.735s.224-.457.464-.598c.153-.092.321-.14.501-.147z"/><path d="m87.472 102.778c-.037-.063-.046-.131-.027-.204s.061-.128.124-.166c.065-.038.134-.048.207-.029.072.018.128.059.166.124s.048.134.029.207c-.018.072-.059.128-.124.166-.066.038-.134.048-.208.029-.071-.017-.128-.06-.167-.127zm.798.405.92 1.561-.361.213-.92-1.561z"/><path d="m88.413 101.555 1.595 2.707-.361.212-1.595-2.707z"/><path d="m90.937 102.648c-.133-.226-.165-.465-.097-.718s.218-.448.45-.585c.233-.137.478-.174.734-.111.254.065.449.213.586.445.138.234.173.478.104.731-.07.253-.223.449-.459.588-.234.138-.477.173-.73.106-.251-.064-.447-.216-.588-.456zm.372-.211c.092.156.206.255.343.297.139.042.279.021.419-.062.141-.083.227-.194.258-.336.031-.14.002-.286-.088-.438-.089-.152-.203-.249-.341-.29-.14-.041-.28-.021-.42.062-.138.081-.222.193-.254.335-.029.143-.002.287.083.432z"/><path d="m93.102 100.789.722 1.225-.362.213-.722-1.225-.128.076-.198-.336.128-.076-.355-.603c-.116-.197-.164-.355-.143-.477.028-.169.131-.306.31-.412.064-.037.156-.066.275-.087l.217.369-.048.003c-.102.007-.177.025-.228.054-.064.038-.094.086-.089.146.004.058.044.151.119.279l.303.515.393-.231.198.336z"/><path d="m95.288 99.797.592 1.005-.374.22-1.458-2.475.423-.249c.207-.122.372-.2.495-.234.124-.034.25-.035.378-.003.224.055.398.189.523.4.133.226.163.451.089.672-.073.222-.239.409-.496.561zm-.204-.346.139-.082c.343-.202.437-.435.281-.699-.151-.256-.403-.279-.756-.071l-.123.073z"/><path d="m96.291 98.457.361-.213.082.139c.026-.108.056-.191.092-.246.037-.058.091-.108.162-.15.095-.056.213-.083.353-.083l.029.427c-.097-.009-.178.006-.244.044-.196.116-.208.322-.033.619l.477.809-.361.213z"/><path d="m98.669 97.055.362-.213.92 1.561-.362.214-.096-.163c-.067.226-.186.39-.357.49-.216.127-.44.154-.673.082-.234-.077-.421-.234-.562-.473-.138-.234-.183-.47-.135-.709.048-.238.177-.42.388-.544.181-.107.389-.128.621-.063zm-.399 1.28c.088.15.2.248.336.295.138.047.27.033.395-.041.134-.079.215-.188.243-.329.027-.144-.004-.289-.09-.435-.086-.147-.198-.243-.337-.29-.137-.044-.271-.028-.403.05-.124.073-.2.181-.228.324-.026.145.002.286.084.426z"/><path d="m101.895 97.208c.044.074.079.14.108.199.028.059.051.112.068.16.043.133.053.263.028.391-.045.246-.192.441-.438.587-.208.123-.413.168-.613.135-.207-.033-.381-.146-.523-.337l.362-.214c.059.069.117.115.174.137.132.053.27.038.413-.047.264-.155.3-.395.109-.719l-.128-.218c-.057.231-.179.401-.366.511-.212.125-.432.151-.658.077-.228-.075-.412-.23-.55-.464-.134-.228-.184-.458-.151-.692.037-.249.168-.44.392-.573.197-.116.403-.139.62-.069l-.104-.176.361-.213zm-.783-.536c-.089-.152-.202-.249-.336-.292-.137-.044-.27-.029-.398.047-.137.081-.215.195-.234.343-.018.133.015.271.1.416.084.142.188.238.313.286.137.053.274.039.412-.042s.217-.196.238-.343c.021-.135-.011-.273-.095-.415z"/><path d="m101.812 95.203.528.896c.152.259.331.328.535.208s.23-.31.078-.568l-.528-.896.361-.213.533.904c.074.125.122.242.144.351.018.099.009.203-.026.311-.059.178-.183.321-.371.432-.187.11-.373.149-.557.115-.113-.021-.209-.063-.288-.126-.072-.055-.151-.154-.236-.297l-.533-.904z"/><path d="m105.172 94.39-1.119.659c.085.123.187.2.305.232.118.031.235.013.35-.055.089-.053.151-.118.185-.196.033-.077.052-.194.057-.353l.405-.01c0 .108-.009.206-.028.294-.018.088-.047.168-.085.241-.038.072-.087.137-.146.195s-.13.111-.211.159c-.233.137-.464.173-.693.106-.23-.068-.418-.226-.565-.475-.145-.247-.195-.487-.148-.72.049-.232.187-.415.415-.549.229-.136.455-.169.675-.101.218.067.403.229.555.487zm-.544-.077c-.164-.163-.341-.187-.534-.074-.044.026-.081.057-.111.093-.031.036-.054.076-.071.119-.017.044-.026.09-.027.138-.002.048.005.098.02.151z"/></g></svg>