<?xml version="1.0" encoding="utf-8"?>
<!-- Generator: Adobe Illustrator 21.0.2, SVG Export Plug-In . SVG Version: 6.00 Build 0)  -->
<svg version="1.1" xmlns="http://www.w3.org/2000/svg" xmlns:xlink="http://www.w3.org/1999/xlink" x="0px" y="0px"
	 viewBox="0 0 124.56 144" enable-background="new 0 0 124.56 144" xml:space="preserve">
<g id="Layer_1">
	<g id="Layer_24_1_">
		<polygon fill="#02B2AD" points="31.141,125.716 0.001,71.805 31.141,17.894 93.421,17.894 124.56,71.805 93.421,125.716 		"/>
	</g>
</g>
<g id="Layer_3">
	<g id="Layer_24_2_">
		<path fill="#02B2AD" d="M113.89,72.12L99.58,96.8L99.5,96.94l-0.13,0.229l-0.39,0.66l-2.5,4.31l-0.33,0.551v0.02l-0.181,0.3
			l-4.399,7.601l-0.13,0.22l-0.181,0.29v0.01l-0.2,0.34l-1.29,2.23l-0.51,0.88l-1.21,2.09H36.37l-0.52-0.89l-0.51-0.88L34,112.58
			l-0.41-0.7l-0.03-0.05l-4.83-8.33l-0.31-0.55l-0.03-0.04l-2.62-4.521v-0.01l-0.43-0.72l-0.09-0.16L10.53,72.12l3.31-5.7l0.07-0.13
			l0.45-0.77c0,0,0,0,0-0.01l8.81-15.18l1-1.72l3.54-6.11l0.39-0.67l0.19-0.33l1.46-2.51l1-1.72l5.54-9.55l0.08-0.14h51.68
			l1.03,1.78l1,1.72l5.54,9.55l0.51,0.87l0.18,0.31l0.311,0.54l0.09,0.15l5.5,9.49l1,1.72l7.49,12.9v0.01l0.13,0.23l0.28,0.48
			l0.109,0.18L113.89,72.12z"/>
	</g>
</g>
<g id="Layer_6">
	<path fill="#2A4556" d="M110.83,66.85c-0.24,0.22-0.481,0.43-0.72,0.63c0,0.39-0.11,0.78-0.351,1.11
		c-0.02,0.03-0.04,0.05-0.06,0.08c-0.07,0.06-0.13,0.13-0.181,0.2c-0.1,0.1-0.21,0.19-0.34,0.27c-0.06,0.04-0.109,0.08-0.16,0.11
		c-0.029,0.04-0.06,0.08-0.1,0.12c-0.05,0.07-0.11,0.14-0.17,0.21c-0.62,0.64-1.27,1.26-1.94,1.85l-0.01,0.01v0.01
		c-0.979,0.88-2,1.729-3.04,2.56c-1.569,1.76-3.17,3.52-4.77,5.27c-0.01,0-0.01,0-0.02,0.01c-0.01,0.01-0.01,0.01-0.02,0.02
		c-0.01,0.011-0.021,0.021-0.03,0.03c-2.4,2.61-4.85,5.19-7.34,7.66c-0.15,0.15-0.311,0.26-0.47,0.35
		c0,0.011-0.021,0.011-0.021,0.011c-0.29,0.159-0.6,0.229-0.899,0.22c-0.091,0.45-0.341,0.87-0.721,1.16
		c-0.06,0.42-0.23,0.77-0.47,1.05l-0.2,0.2c-0.21,0.18-0.46,0.319-0.729,0.42c0.16,0.45,0.17,0.96-0.03,1.51v0.01
		c-0.021,0.051-0.04,0.11-0.06,0.16C88,92.06,88.01,92.03,88.03,92c0.02-0.04,0.05-0.09,0.069-0.13c-0.02,0.11-0.05,0.21-0.09,0.31
		v0.011c-0.49,1.39-2.279,1.399-3.23,0.489c-0.601-0.17-1.12-0.47-1.65-0.8c-0.63,0.09-1.35-0.149-1.8-0.62
		c-0.15,0.03-0.311,0.05-0.47,0.09c-0.101,0.021-0.21,0.03-0.32,0.04c-0.84,0.221-1.64-0.25-2.07-0.96
		c-0.48-0.109-0.96-0.22-1.47-0.26c-0.16-0.02-0.31-0.05-0.45-0.09c-1.04,0.11-2.175,0.279-2.175-1.121l0.045-0.999
		c-0.06-0.31-0.1-0.61-0.13-0.91c-0.03-0.14-0.04-0.3-0.04-0.47V86c0-0.27,0.06-0.5,0.14-0.71c0.07-0.72,0.12-1.44,0.17-2.15
		c-0.01-0.02-0.01-0.029-0.01-0.05c-0.21-1.7-0.41-3.35-0.3-5.08c-0.4-1.02-0.36-2.109-0.3-3.399c0.18-3.36,0-6.74,0.13-10.11
		c0.02-0.37,0.13-0.69,0.3-0.97c-0.67-0.73-0.79-2.11,0.04-2.78c0.54-0.44,1.2-0.7,1.84-0.64c0.05-0.16,0.08-0.33,0.15-0.49
		c0.01-0.02,0.02-0.05,0.03-0.08c0.029-0.3,0.06-0.6,0.109-0.89c0.01-0.04,0.021-0.12,0.03-0.18v-0.14
		c0.02-0.44,0.17-0.85,0.42-1.18c-0.09-0.22-0.15-0.46-0.17-0.73c-0.21-3.52-0.45-6.95,0.29-10.4c-0.05-0.38-0.12-0.76-0.19-1.14
		c-0.21-0.43-0.27-0.93-0.149-1.4c0.12-1.22,1.26-1.94,2.39-1.71c2.91-0.72,5.86-0.49,8.7,0.31c0.32,0.02,0.63,0.06,0.939,0.1
		c0.4-0.26,0.931-0.36,1.561-0.19c2.06,0.57,4.25,0.06,6.189,0.26l0.061,0.1l0.09,0.15l5.5,9.49l1,1.72l7.49,12.9v0.01L110.83,66.85
		z"/>
	<path fill="#2A4556" d="M52.35,78.09c0.1,1.73-0.09,3.38-0.3,5.08c-0.01,0.021-0.01,0.04-0.01,0.05c0.04,0.721,0.1,1.431,0.17,2.15
		c0.08,0.21,0.13,0.439,0.14,0.71v0.59c0,0.16-0.02,0.32-0.05,0.46c-0.02,0.3-0.07,0.601-0.12,0.92v0.2c0,1.4-1.09,2.02-2.13,1.91
		c-0.14,0.05-0.29,0.07-0.45,0.09c-0.51,0.04-0.99,0.16-1.47,0.26c-0.09,0.16-0.21,0.3-0.33,0.431c-0.45,0.46-1.09,0.71-1.75,0.529
		c-0.1-0.01-0.21-0.01-0.32-0.04c-0.09-0.029-0.19-0.04-0.29-0.06c-0.06-0.01-0.12-0.01-0.18-0.021
		c-0.04,0.051-0.09,0.091-0.14,0.131c-0.35,0.3-0.81,0.47-1.26,0.5c-0.01,0-0.01,0-0.01,0c-0.13,0.01-0.26,0.01-0.38-0.011
		c-0.53,0.32-1.05,0.62-1.65,0.79c-1.03,0.971-3.01,0.91-3.32-0.81c0.04,0.08,0.08,0.149,0.12,0.229c-0.11-0.27-0.18-0.54-0.2-0.79
		c-0.03-0.27,0-0.529,0.08-0.77c0-0.05,0.01-0.09,0.03-0.13c-0.74-0.26-1.28-0.84-1.4-1.66c-0.38-0.3-0.63-0.71-0.73-1.17
		c-0.47,0.01-0.95-0.16-1.38-0.58c-0.19-0.19-0.39-0.38-0.58-0.57c-0.02-0.02-0.04-0.04-0.05-0.06c-1.94-1.931-3.86-3.94-5.75-5.97
		l-0.01-0.011c-1.96-2.109-3.89-4.25-5.79-6.38c-1.74-1.39-3.44-2.83-4.99-4.43c-0.11-0.1-0.19-0.21-0.27-0.33
		c-0.05-0.03-0.11-0.07-0.16-0.1c-0.66-0.43-0.93-1.05-0.93-1.66c-0.74-0.63-1.47-1.29-2.13-2.05c0,0,0,0,0-0.01l8.81-15.18l1-1.72
		l3.54-6.11l0.32-0.55c0.53,0.02,1.02,0.16,1.4,0.47c2.08-0.4,4.52,0.28,6.8-0.35c0.62-0.17,1.15-0.07,1.56,0.19
		c0.31-0.04,0.62-0.08,0.94-0.1c2.83-0.8,5.78-1.03,8.7-0.3c1.13-0.24,2.27,0.49,2.39,1.7c0.11,0.47,0.06,0.97-0.16,1.4
		c-0.06,0.38-0.14,0.76-0.18,1.15c0.74,3.44,0.5,6.87,0.28,10.39c-0.01,0.28-0.07,0.52-0.16,0.73c0.25,0.34,0.4,0.75,0.41,1.19
		c0,0.04,0.01,0.08,0.01,0.13c0.01,0.07,0.02,0.14,0.02,0.18c0.05,0.3,0.09,0.6,0.11,0.9c0.02,0.03,0.03,0.05,0.04,0.08
		c0.06,0.16,0.1,0.32,0.15,0.48c0.64-0.06,1.29,0.21,1.84,0.65c0.83,0.67,0.71,2.04,0.04,2.77c0.17,0.28,0.28,0.61,0.29,0.97
		c0.14,3.37-0.05,6.75,0.13,10.11C52.71,75.98,52.74,77.07,52.35,78.09z"/>
	<polygon fill="#282827" points="54.813,76.688 62.833,83.584 71.438,76.75 69.031,80.656 73.656,92.281 74,61.417 73.917,60.583 
		68.25,60.333 71.5,69.417 63.375,79.063 55.083,70 57.5,60.625 52.625,60.417 52.583,91.042 57.458,80.75 	"/>
	<path fill="#282827" d="M64.4,80.961c-0.046-0.126-0.146-0.229-0.33-0.256c-0.162-0.004-0.316-0.032-0.463-0.086
		c-0.004-0.002-0.007-0.005-0.012-0.007c-0.018-0.03-0.029-0.063-0.055-0.091c-0.311-0.342-0.658-0.642-1.005-0.941
		c-0.494-1.068-1.35-1.921-2.269-2.678c-0.043-0.794-0.587-1.45-1.199-2.053c0.011-0.097-0.01-0.197-0.074-0.289
		c-0.37-0.534-0.731-0.859-1.361-1.043c-0.203-0.059-0.368,0.006-0.477,0.126c-0.052-0.024-0.102-0.051-0.154-0.075
		c-0.578-0.271-1.087,0.579-0.505,0.863c0.23,0.088,0.439,0.213,0.625,0.375c0.109,0.079,0.214,0.095,0.312,0.082
		c0.157,0.074,0.323,0.131,0.483,0.198c0.298,0.264,0.601,0.546,0.849,0.845c-0.275,0.083-0.463,0.474-0.323,0.758
		c0.245,0.499,0.459,0.828,0.891,1.164c0.192,0.15,0.426,0.161,0.606,0.056c0.4,0.341,0.778,0.71,1.099,1.109
		c-0.125,0.106-0.196,0.273-0.146,0.489c0.376,1.609,1.552,1.815,2.974,2.225C64.365,81.847,64.623,81.287,64.4,80.961z"/>
	<path fill="#274F56" d="M99.649,96.921c-0.023-0.041-0.031-0.088-0.069-0.121l14.309-24.68l-2.67-4.61l-0.109-0.18
		c-0.48,0.39-0.92,0.81-1.351,1.26c-0.02,0.03-0.04,0.05-0.06,0.08c-0.07,0.06-0.13,0.13-0.181,0.2
		c-0.079,0.08-0.149,0.16-0.22,0.24c-0.13,0.08-0.26,0.17-0.38,0.26c-0.8,0.58-1.5,1.28-2.11,2.06l-0.01,0.01
		c-0.26,0.34-0.5,0.68-0.729,1.05c-0.79,0.51-1.49,1.18-2.13,1.92c-0.83,0.729-1.57,1.59-2.19,2.49
		c-0.13,0.119-0.27,0.239-0.39,0.369c-0.33,0.29-0.641,0.591-0.96,0.891c-0.48,0.359-0.971,0.75-1.431,1.13
		c-0.01,0.01-0.01,0.01-0.02,0.02c-0.01,0.011-0.021,0.021-0.03,0.03c-2.84,2.4-5.33,5.22-7.81,8.01
		c0,0.011-0.021,0.011-0.021,0.011c-0.45,0.52-0.899,1.029-1.359,1.54C89.63,89,89.6,89.13,89.61,89.26
		c-0.181,0.141-0.36,0.3-0.53,0.46c-0.01,0-0.01,0.011-0.021,0.011l-0.26,0.26c-0.05,0.05-0.1,0.1-0.149,0.16
		c-0.04,0.04-0.07,0.09-0.091,0.13c-0.029,0.04-0.069,0.08-0.1,0.12c-0.13-0.051-0.27-0.04-0.39,0.01
		c-0.301,0.12-0.49,0.49-0.17,0.78c0.04,0.029,0.069,0.05,0.109,0.079c0.02,0.07,0.05,0.131,0.09,0.181c0,0.02-0.01,0.03-0.02,0.05
		c-0.021,0.14-0.03,0.28-0.04,0.42v0.01c-0.01,0.021-0.01,0.051-0.01,0.07c-0.011,0.06-0.02,0.12-0.02,0.18v0.011
		c-0.05,0.439-0.08,0.869-0.09,1.31c-0.02,0.5,0.561,0.61,0.84,0.34c0.02,0.13,0.09,0.26,0.24,0.34c0.14,0.08,0.29,0.15,0.43,0.23
		c0.051,0.03,0.09,0.06,0.141,0.09c0.35,0.22,0.739,0.4,1.16,0.53c0.949,0.42,1.92,0.77,2.97,0.95c0.29,0.05,0.54-0.16,0.609-0.391
		C95.42,96.19,96.39,97,97.62,97.4c0.229,0.069,0.53-0.08,0.6-0.32h0.03c0.06-0.01,0.12-0.01,0.19-0.021
		c0.01,0,0.02,0.011,0.029,0.011c0-0.011,0-0.011,0.011-0.011c0.229-0.029,0.46-0.04,0.699-0.05c0.06,0.07,0.13,0.12,0.19,0.16
		c0.025,0.021,0.049,0.031,0.073,0.049C99.472,97.096,99.54,96.989,99.649,96.921z"/>
	<path fill="#274F56" d="M38.41,91.4c-0.02,0.06-0.05,0.119-0.1,0.17c0.01,0.02,0.02,0.04,0.02,0.05c0.09,0.67,0.14,1.33,0.17,2
		c0.01,0.51-0.56,0.61-0.85,0.34c-0.02,0.14-0.09,0.271-0.23,0.35c-0.12,0.061-0.24,0.12-0.36,0.181
		c-0.03,0.01-0.05,0.029-0.08,0.04c-0.39,0.27-0.83,0.47-1.3,0.63c-0.94,0.42-1.91,0.76-2.97,0.95c-0.09,0.02-0.17,0.01-0.25-0.021
		c-0.17-0.06-0.31-0.21-0.36-0.38c-1.11,0.61-2.08,1.41-3.3,1.81c-0.24,0.08-0.54-0.079-0.6-0.319c-0.02,0-0.02,0.01-0.04,0.01
		c-0.06-0.01-0.12-0.01-0.18-0.02h-0.03c-0.01,0-0.01,0-0.01,0c-0.22-0.03-0.44-0.04-0.66-0.051c0.16,0.431-0.25,0.851-0.7,0.63
		c-0.11-0.06-0.21-0.13-0.32-0.189h-0.2c-0.24,0.03-0.48,0.05-0.72,0.08l-0.09-0.16L10.53,72.12l3.31-5.7l0.07-0.13
		c0.05,0.05,0.1,0.1,0.15,0.15c0.16-0.01,0.34,0.06,0.46,0.22c0.13,0.19,0.26,0.38,0.39,0.58c0.09,0.01,0.19,0.04,0.27,0.11
		c0.72,0.58,1.35,1.21,1.93,1.88c1.31,0.85,2.4,2.05,3.23,3.39c0.8,0.51,1.5,1.17,2.14,1.91c0.82,0.739,1.56,1.6,2.19,2.5
		c0.13,0.12,0.26,0.239,0.39,0.37c0.32,0.29,0.64,0.58,0.95,0.88c0.91,0.689,1.79,1.43,2.63,2.2c2.06,1.869,3.95,3.939,5.8,6.029
		c0.75,0.84,1.5,1.681,2.24,2.51c0.1,0.11,0.13,0.24,0.12,0.36c0.19,0.15,0.37,0.3,0.54,0.47h0.01c0.02,0.03,0.03,0.04,0.05,0.061
		c0.12,0.12,0.25,0.229,0.37,0.359c0.04,0.04,0.06,0.091,0.08,0.141c0.04,0.04,0.07,0.08,0.1,0.12c0.2-0.08,0.41-0.03,0.55,0.09
		c0.2,0.17,0.28,0.46,0.02,0.689c-0.04,0.04-0.07,0.061-0.1,0.08L38.41,91.4z"/>
	<path fill="#2F8A93" d="M96.648,96.045c-1.032-0.307-2.1-0.45-3.125-0.781c-0.137-0.044-0.223-0.129-0.278-0.229
		c-1.216-0.249-2.44-0.439-3.675-0.535c-0.06-0.01-0.13-0.02-0.19-0.02c-0.63-0.16-1.27-0.301-1.91-0.431
		c-0.029-0.16-0.13-0.3-0.34-0.37c-1.89-0.56-3.74-1.19-5.68-1.46c-0.94-0.34-1.73-1.001-2.7-1.011
		c-0.061-0.08-0.24,0.171-0.37,0.141c-0.31-0.08-0.6-0.17-0.89-0.26c-0.01-0.18-0.12-0.35-0.36-0.41c-0.55-0.13-1.08-0.26-1.62-0.37
		c-0.06-0.029-0.12-0.05-0.17-0.079c-0.13-0.051-0.25-0.051-0.359-0.021c-0.221-0.04-0.461-0.06-0.681-0.1
		c-0.01,0.01,0,0.01-0.01,0.02c-0.09,0.33-0.06,0.67-0.12,1c-0.01,0.04-0.04,0.061-0.05,0.09c0.02,0.011,0.04,0.011,0.06,0.02
		c-0.149,0.18-0.19,0.43,0.051,0.609c0.739,0.591,1.5,0.75,2.38,0.801c0.17,0.08,0.33,0.14,0.5,0.22
		c-0.301,0.11-0.46,0.49-0.29,0.74h0.01c0.03,0.06,0.09,0.109,0.17,0.149c2.26,1.15,5.04,2.681,7.73,3.33c0,0,0.01,0,0.01,0.01
		c0.12,0.03,0.25,0.051,0.37,0.08c1.359,0.98,2.85,1.61,4.37,2.261c0.829,0.47,1.67,0.93,2.52,1.38c0.37,0.19,0.74,0.38,1.11,0.56
		c0.029,0.01,0.069,0.021,0.1,0.04c0.96,0.48,1.93,0.91,2.91,1.26c0.01,0.011,0.02,0.021,0.03,0.011l0.33-0.551l2.5-4.31
		l0.318-0.539C98.442,96.817,97.629,96.336,96.648,96.045z"/>
	<path fill="#25646B" d="M96.15,102.71l-0.181,0.3l-4.399,7.601l-0.13,0.22l-0.181,0.29c-0.42-0.37-0.8-0.771-1.18-1.19
		c-0.29-0.31-0.57-0.63-0.86-0.949c-0.66-0.511-1.3-1.061-1.92-1.58c-1.51-0.74-2.78-1.78-3.96-2.96
		c-0.91-0.75-1.76-1.54-2.57-2.381c-0.52-0.27-1.02-0.56-1.52-0.859c-0.01,0-0.01,0-0.01-0.01c-1.26-0.75-2.46-1.57-3.66-2.431
		c-0.22-0.149-0.26-0.41-0.19-0.609c-0.22-0.29-0.42-0.601-0.6-0.92c-0.01,0-0.01,0-0.01-0.011c-0.42-0.739-0.71-1.54-0.86-2.38
		c-0.15-0.25-0.3-0.5-0.43-0.76c-0.09-0.15-0.07-0.311,0-0.45c-0.181-0.149-0.351-0.33-0.5-0.55c-0.27-0.37,0.16-0.83,0.56-0.73
		c0.44,0.11,0.811,0.28,1.17,0.5c0.011,0,0.03,0,0.04,0.011c0.12-0.051,0.26-0.051,0.41,0.04c0.13,0.09,0.28,0.17,0.42,0.25
		c0.42,0.13,0.83,0.279,1.23,0.46h0.01c0.61,0.26,1.21,0.569,1.78,0.909c0.01,0,0.01,0,0.02,0c2.17,0.53,4.22,1.381,6.101,2.57
		c0,0,0.01,0,0.01,0.01c0.399,0.24,0.79,0.511,1.18,0.801c0.11,0.08,0.17,0.189,0.2,0.31c2.06,0.54,3.95,1.7,5.88,2.61
		c0.1,0.04,0.15,0.1,0.2,0.17c0.3,0.12,0.609,0.25,0.91,0.39c0.029,0.01,0.069,0.021,0.1,0.04c0.87,0.38,1.75,0.79,2.67,1.1
		c0.11,0.03,0.19,0.091,0.24,0.16C96.13,102.69,96.14,102.7,96.15,102.71z"/>
	<path fill="#0E4C4F" d="M28.73,103.5c0.01-0.01,0.01-0.01,0.02-0.02c0.91-0.65,1.88-1.101,2.91-1.5c0.01,0,0.01-0.011,0.02-0.021
		c1.41-0.92,2.8-1.88,4.57-2.04c0.03-0.01,0.06,0,0.09,0c0.47-0.22,0.93-0.439,1.4-0.66c0.01,0,0.01,0,0.01,0
		c0.47-0.21,0.95-0.42,1.43-0.62c0.32-0.159,0.66-0.319,0.98-0.489c0.04-0.021,0.07-0.03,0.1-0.051c1.25-0.75,2.52-1.439,3.89-1.939
		c0.15-0.11,0.3-0.21,0.45-0.311c1.19-0.81,2.48-1.529,3.8-1.85c0.35-0.09,0.71-0.15,1.06-0.17c0.2-0.15,0.41-0.28,0.6-0.43
		c0.08-0.061,0.17-0.091,0.27-0.11c0.17-0.1,0.33-0.21,0.5-0.31c0,0,0,0,0.01,0c0.02-0.051,0.04-0.101,0.06-0.15
		c0.14-0.3,0.45-0.3,0.67-0.16c0.21-0.09,0.42-0.17,0.63-0.24c0.58-0.17,0.83,0.601,0.39,0.92c-0.07,0.051-0.13,0.11-0.19,0.17
		c0,0.011,0,0.021,0,0.03c-0.04,0.24-0.11,0.47-0.17,0.7c0,0.05,0.01,0.09,0,0.13c-0.15,1.09-0.72,1.92-1.26,2.83
		c0.34,0.18,0.39,0.79-0.09,0.94c-0.09,0.029-0.17,0.08-0.26,0.119c-0.41,0.521-0.9,0.91-1.47,1.23c-0.3,0.43-0.64,0.83-1.05,1.19
		c-0.11,0.1-0.24,0.13-0.37,0.119c-0.05,0.04-0.09,0.08-0.14,0.12c-0.44,0.31-0.9,0.92-1.42,1.06c-0.05,0.01-0.08-0.01-0.12,0
		c-0.04,0.029-0.07,0.069-0.11,0.1c-0.05,0.11-0.13,0.18-0.23,0.23c-1.49,1.46-3.14,2.93-5.04,3.699
		c-0.02,0.03-0.04,0.061-0.07,0.08c-0.21,0.21-0.43,0.391-0.66,0.57c-0.97,0.86-2.04,1.58-3.08,2.34
		c-0.42,0.29-0.84,0.601-1.24,0.92c-0.12,0.09-0.24,0.19-0.36,0.29c-0.09,0.09-0.18,0.181-0.27,0.27c-0.01,0-0.01,0.01-0.02,0.01
		c-0.18,0.17-0.35,0.34-0.53,0.5c-0.01,0.02-0.02,0.02-0.03,0.03c-0.18,0.17-0.37,0.33-0.56,0.489c-0.01,0.011-0.03,0.021-0.05,0.03
		c-0.08,0.09-0.16,0.181-0.24,0.28L28.73,103.5z"/>
	<path fill="#2DACB2" d="M51.85,91.52c-0.57,0.551-1.23,0.91-1.89,1.301c-0.49,0.41-1.02,0.81-1.56,1.18
		c-0.01-0.01-0.01,0-0.02,0.01c-1.17,0.77-2.45,1.431-3.78,1.84c-0.56,0.17-1.14,0.301-1.72,0.381c-0.08,0.01-0.15,0.01-0.21-0.011
		c-1.58,1.12-3.21,2.15-4.92,3.04c0,0,0,0-0.01,0c-0.67,0.36-1.36,0.69-2.07,1c-0.13,0.06-0.27,0.06-0.39,0.02
		c-1.04,0.779-2.31,1.26-3.6,1.68l-0.01,0.01c-0.93,0.311-1.86,0.59-2.7,0.931c-0.13,0.05-0.26,0.029-0.36-0.04
		c-0.06,0.029-0.13,0.06-0.19,0.09l-0.03-0.04l-2.62-4.521v-0.01c0.57-0.12,1.14-0.25,1.7-0.38c0.06-0.07,0.13-0.12,0.23-0.15
		c0.87-0.229,1.73-0.489,2.59-0.76c0.61-0.24,1.22-0.5,1.83-0.76c0.11-0.08,0.22-0.16,0.34-0.24c0.26-0.18,0.52-0.35,0.79-0.52
		c0.23-0.141,0.43-0.09,0.56,0.05c1.05-0.46,2.13-0.95,3.25-1.13c0.03-0.01,0.07-0.02,0.1-0.02c0.76-0.109,1.54-0.12,2.3-0.23
		c0.38-0.16,0.75-0.34,1.12-0.52c0.04-0.06,0.09-0.109,0.17-0.149c1-0.54,2.03-1.11,3.1-1.59c0,0,0,0,0.01,0
		c0.41-0.19,0.83-0.36,1.26-0.5c0.1-0.04,0.21-0.07,0.32-0.11c0.77-0.24,1.55-0.4,2.36-0.43c0.2-0.021,0.41-0.03,0.62-0.021
		c0.02,0,0.03,0,0.05,0.01c0.46-0.199,0.91-0.39,1.36-0.609c0.27-0.13,0.51-0.021,0.65,0.17c0.07,0.01,0.13,0.029,0.19,0.08
		c0.01-0.21,0.14-0.37,0.32-0.44c0.27-0.26,0.79-0.06,0.84,0.37c0.02,0.1,0.03,0.21,0.04,0.31c0.02,0.03,0.04,0.07,0.06,0.101
		C52.04,91.11,52.02,91.36,51.85,91.52z"/>
	<path fill="#2A4556" d="M23.187,73.313c-1.921-1.812-3.659-3.805-5.573-5.62c-0.248-0.275-0.522-0.533-0.844-0.797
		c-0.238-0.195-0.525-0.134-0.703,0.028c-0.132-0.091-0.262-0.183-0.398-0.272c-0.54-0.355-1.041,0.511-0.505,0.863
		c0.906,0.596,1.727,1.23,2.482,2.005c0.165,0.169,0.358,0.184,0.518,0.112c0.907,0.93,1.79,1.884,2.692,2.823
		c1.41,1.468,4.175,3.076,4.578,5.177c0.121,0.633,1.085,0.364,0.964-0.266C26.052,75.558,24.451,74.505,23.187,73.313z"/>
	<path fill="#213851" d="M96.31,41.81c-0.13,0.01-0.26,0.02-0.39,0.02H28.1l0.19-0.33l1.46-2.51l1-1.72l5.54-9.55l0.08-0.14h51.68
		l1.03,1.78l1,1.72l5.54,9.55l0.51,0.87L96.31,41.81z"/>
	<path fill="#182F30" d="M90.08,109.93c-0.05-0.02-0.1-0.05-0.15-0.069c-0.229-0.101-0.449-0.16-0.67-0.19
		c-0.26-0.15-0.51-0.3-0.76-0.46c-0.35-0.27-0.72-0.52-1.1-0.76c-0.341-0.24-0.681-0.49-1.011-0.75c-0.34-0.33-0.689-0.65-1.06-0.95
		c-0.521-0.42-1.03-0.84-1.55-1.26c-1.28-1.17-2.53-2.391-3.78-3.57c-0.26-0.24-0.5-0.47-0.75-0.72c-0.01,0-0.01,0-0.01-0.01
		c-0.141-0.131-0.29-0.271-0.431-0.41c-0.369-0.38-0.75-0.761-1.149-1.11c-0.03-0.03-0.061-0.05-0.101-0.08
		c-0.681-0.642-1.383-1.249-2.104-1.826c-0.075-0.132-0.143-0.266-0.215-0.399c-0.016-0.082-0.025-0.165-0.064-0.245
		c-1.151-2.395-2.018-4.897-3.247-7.244c-0.21-0.699-0.471-1.384-0.749-2.062c-0.09-0.232-0.183-0.461-0.281-0.688
		c-0.583-1.413-1.137-2.83-1.211-4.377c-0.055-1.141-1.604-1.345-1.964-0.266c-0.042,0.125-0.084,0.25-0.125,0.375
		c-0.042,0.127-0.05,0.242-0.045,0.351c-0.085,0.076-0.166,0.162-0.229,0.285c-0.622,1.208-0.995,2.505-1.409,3.793
		c-0.242,0.757-0.365,1.647-0.721,2.375c-0.306,0.188-0.485,0.522-0.362,0.957c-0.418,0.971-0.876,1.92-1.445,2.793
		c-0.082-0.021-0.16-0.051-0.246-0.064c-0.149-0.024-0.29-0.009-0.425,0.025c-0.002-0.003-0.003-0.007-0.005-0.01
		c0.239-0.237,0.37-0.576,0.254-0.942c-0.598-1.884-1.629-3.522-2.606-5.211c0.083-0.263,0.062-0.56-0.058-0.841
		c-0.25-0.59-0.302-1.269-0.461-1.886c-0.141-0.546-0.588-0.736-1.021-0.69c0.031-0.211,0.038-0.389,0.006-0.564
		c0.218-0.231,0.329-0.553,0.211-0.905c-0.003-0.009-0.006-0.019-0.009-0.027c-0.127-0.381-0.407-0.574-0.713-0.646l0.024-0.024
		c-0.044-0.011-0.089-0.021-0.134-0.027c-0.499-0.094-0.99,0.121-1.181,0.601c-0.265,0.231-0.433,0.591-0.362,1.004
		c0.007,0.041,0.006,0.082,0.011,0.123c-0.195,0.317-0.246,0.751-0.105,1.089c-0.449,1.586-1.998,3.212-2.468,4.632
		c-0.142,0.43,0.01,0.765,0.274,0.977c-0.442,0.997-0.82,2.037-1.235,2.987c-0.675,1.542-1.544,3.385-1.722,5.114
		c-1.173,0.409-2.127,1.286-2.557,2.403c-0.805,0.525-1.562,1.142-2.388,1.662c-0.27,0.13-0.52,0.26-0.73,0.42
		c-0.27,0.199-0.48,0.43-0.63,0.67c-2.05,1.45-3.93,3.12-5.78,4.81c-0.24-0.02-0.47,0-0.68,0.07c-0.64,0.2-1.23,0.5-1.79,0.85
		c-0.42,0.29-0.84,0.601-1.24,0.92c-0.21,0.17-0.43,0.36-0.63,0.56c-0.01,0-0.01,0.01-0.02,0.01c-0.18,0.17-0.35,0.34-0.53,0.5
		c-0.01,0.02-0.02,0.02-0.03,0.03c-0.28,0.279-0.55,0.56-0.82,0.85l0.41,0.7l1.34,2.32l0.51,0.88l0.52,0.89h51.68l1.21-2.09
		l0.51-0.88l1.29-2.23l0.2-0.34v-0.01l0.181-0.29C90.99,110.45,90.64,110.2,90.08,109.93z M67.751,88.034
		c0.115-0.407,0.236-0.818,0.372-1.23c0.146,0.378,0.293,0.747,0.438,1.129c-0.019,0.034-0.039,0.066-0.053,0.103
		c-0.242-0.073-0.5-0.016-0.724,0.105C67.773,88.104,67.766,88.068,67.751,88.034z M81.36,111.79c-0.091-0.08-0.19-0.13-0.28-0.2
		c-0.82-1.01-1.7-1.939-2.61-2.83c-0.05-0.06-0.09-0.12-0.14-0.17c-0.13-0.16-0.271-0.28-0.42-0.37
		C77,107.36,76.06,106.53,75.1,105.69c-0.02-0.011-0.04-0.03-0.06-0.051c-0.89-1.199-1.75-2.409-2.58-3.58
		c1.96,1.9,4.01,3.73,5.96,5.631c0.07,0.31,0.19,0.609,0.42,0.89c0.93,1.189,2.01,2.46,3.17,3.729
		C81.8,112.14,81.59,111.96,81.36,111.79z"/>
	<path fill="#1F383A" d="M70.408,94.578c-0.452-0.955-0.981-1.93-1.413-2.936c0.194-0.42,0.147-0.95-0.365-1.256
		c-0.035-0.022-0.072-0.034-0.108-0.054c-0.198-0.659-0.331-1.331-0.334-2.021c-0.002-0.362-0.168-0.611-0.396-0.771
		c0.047-0.073,0.081-0.154,0.134-0.225c0.771-1.037-0.967-2.032-1.727-1.01c-0.707,0.951-0.859,2.18-1.313,3.25
		c-0.432,1.02-1.046,1.927-1.528,2.912c-0.026-0.03-0.05-0.065-0.075-0.097c-0.372-0.671-0.836-1.304-1.19-1.981
		c0.058-0.28,0.004-0.584-0.261-0.849c-0.035-0.035-0.07-0.07-0.105-0.105c0.054-0.565-0.4-1.246-1.133-1.209
		c0.208-0.548,0.342-1.157,0.02-1.671c-0.055-0.087-0.123-0.145-0.189-0.206c0.087-0.301,0.054-0.638-0.217-0.934
		c-0.014-0.015-0.027-0.03-0.041-0.045c-0.24-0.33-0.606-0.524-1.057-0.399c-0.476,0.131-0.909,0.726-0.699,1.229
		c0.102,0.245,0.202,0.432,0.382,0.629c0.001,0.001,0.002,0.001,0.003,0.002c-0.041,0.148-0.057,0.306-0.006,0.475
		c-0.016,0.059-0.029,0.117-0.047,0.174c-0.063,0.204-0.141,0.364-0.238,0.568c-0.212,0.447-0.457,0.878-0.681,1.319
		c-0.198,0.391-0.118,0.758,0.083,1.037c-0.157,0.25-0.305,0.499-0.44,0.73C56.411,92.951,55.524,94.87,55.5,97
		c-0.015,1.29,1.985,1.289,2,0c0.018-1.589,0.663-2.863,1.367-4.248c0.098-0.193,0.217-0.429,0.346-0.673
		c0.074,0.017,0.139,0.046,0.225,0.046h0.813c0.198,0,0.355-0.058,0.492-0.138c0.054,0.091,0.104,0.184,0.161,0.273
		c0.377,0.594,0.756,1.764,1.482,1.962c0.182,0.05,0.375,0.032,0.555-0.027c0.31,0.712,1.581,0.854,1.899-0.116
		c0.165-0.5,0.396-0.966,0.642-1.423c0.313,0.053,0.646-0.01,0.852-0.261c0.212-0.258,0.428-0.399,0.666-0.432
		c0.013,0.033,0.024,0.068,0.038,0.102c-0.196,0.158-0.322,0.402-0.286,0.748c0.219,2.11,0.212,4.228,0.536,6.328
		c0.159,1.035,1.665,0.873,1.928,0c0.345-1.143,0.995-2.24,1.251-3.399c0.093-0.144,0.16-0.306,0.16-0.491v-0.063
		C70.625,94.941,70.539,94.739,70.408,94.578z"/>
	<path fill="#1D302D" d="M69.557,90.831c-0.207-0.36-0.709-0.813-1.299-1.19c0.022-0.057,0.042-0.115,0.034-0.183
		c-0.017-0.142-0.046-0.278-0.078-0.414c0.21-0.531-0.057-1.045-0.397-1.481c-0.004-0.008-0.006-0.016-0.01-0.023
		c-0.04-0.08-0.094-0.132-0.151-0.173c-0.003-0.004-0.007-0.008-0.01-0.012c-0.03-0.035-0.064-0.057-0.098-0.079
		c0.137-0.296,0.277-0.59,0.394-0.893c0.106-0.277-0.118-0.518-0.35-0.615c-0.021-0.009-0.042-0.018-0.063-0.026
		c-0.154-0.064-0.379,0.012-0.486,0.129c-0.021,0.022-0.042,0.045-0.063,0.067s-0.022,0.047-0.038,0.07
		c-0.61,0.261-1.016,1.039-1.311,1.566c-0.41,0.734-0.921,1.686-0.923,2.551c0,0.151,0.058,0.265,0.143,0.345
		c-0.167,0.316-0.333,0.633-0.491,0.947c-0.259,0.514-0.993,1.615-0.801,2.216c0.196,0.611,1.162,0.351,0.965-0.266
		c-0.121-0.377,1.197-2.446,1.425-2.918c0.006-0.013,0.014-0.025,0.02-0.038c0.107-0.08,0.186-0.202,0.198-0.37
		c0.03-0.443,0.995,0.131,1.235,0.268c0.424,0.241,1.039,0.59,1.291,1.026C69.015,91.894,69.879,91.391,69.557,90.831z"/>
	<path fill="#1D302D" d="M61.377,88.484c-0.21-0.15-0.45-0.281-0.702-0.39c0.17-0.136,0.252-0.361,0.089-0.597
		c-0.333-0.482-0.452-1.037-0.617-1.59c-0.105-0.354-0.568-0.497-0.835-0.221c-0.143,0.147-0.225,0.278-0.295,0.471
		c-0.061,0.166-0.028,0.302,0.049,0.405c-0.164,0.085-0.294,0.248-0.275,0.437c0.005,0.052,0.004,0.097,0.005,0.143
		c-0.009,0.047-0.018,0.094-0.028,0.141c-0.005,0.022,0,0.043-0.003,0.065c-0.01,0.035-0.012,0.069-0.031,0.107
		c-0.094,0.187-0.071,0.353,0.005,0.482c-0.245,0.086-0.476,0.216-0.677,0.416c-0.457,0.456,0.25,1.163,0.707,0.707
		c0.565-0.563,1.564-0.098,2.103,0.286C61.399,89.723,61.897,88.855,61.377,88.484z"/>
	<path fill="#162828" d="M66.898,98.813c-0.004-0.293-0.074-0.558-0.172-0.85c0.084-0.08,0.143-0.19,0.148-0.339
		c0.024-0.673,0.256-1.713-0.226-2.285c-0.171-0.202-0.395-0.374-0.685-0.35c-0.678,0.057-1.252,0.172-1.916,0.072
		c-0.181-0.168-0.472-0.172-0.667,0.001c-0.075,0.044-0.13,0.109-0.169,0.185c-0.168-0.093-0.384-0.091-0.545,0.019
		c-0.131-0.057-0.284-0.056-0.417,0.003c-0.001-0.021,0-0.041-0.001-0.062c-0.03-0.555-0.825-0.691-0.982-0.133
		c-0.003,0.009-0.004,0.018-0.006,0.025c-0.106,0.003-0.207,0.04-0.292,0.111c-0.104-0.329-0.658-0.51-0.943-0.131
		c-0.592,0.783-0.339,1.88-0.402,2.794c-0.006,0.163,0.052,0.284,0.142,0.364c0.005,0.059,0.016,0.117,0.023,0.176
		c-0.201,0.022-0.412,0.178-0.438,0.368c-0.033,0.233-0.056,0.431,0.128,0.611c0.165,0.161,0.359,0.171,0.522,0.101
		c0.009,0.001,0.019-0.002,0.028-0.002c0.039,0.151,0.144,0.282,0.337,0.322c0.052,0.011,0.088-0.001,0.135,0.003
		c0,0.005-0.001,0.01-0.002,0.015h0.292c0.147,0,0.256-0.056,0.336-0.136c0.015-0.007,0.026-0.009,0.042-0.016
		c0.181-0.086,0.248-0.229,0.249-0.375c0.092,0.111,0.222,0.182,0.365,0.184c0.223,0.261,0.707,0.19,0.867-0.191
		c0.007-0.017,0.01-0.036,0.017-0.054c0.142,0.094,0.326,0.083,0.486,0.012c0.056,0.004,0.11,0.01,0.167,0.012
		c0.063,0.11,0.146,0.184,0.241,0.222c0.152,0.333,0.704,0.427,0.871,0.053c0.031-0.07,0.046-0.143,0.074-0.214
		c0.005,0.031,0.006,0.063,0.012,0.095c0.088,0.492,0.858,0.466,0.965,0c0-0.002,0-0.004,0.001-0.005
		c0.108,0.435,0.648,0.51,0.874,0.202c0.006,0,0.011,0.004,0.018,0.004H66.5C66.915,99.625,67.136,99.106,66.898,98.813z"/>
	<path fill="#274547" d="M72.986,92.48c-1.213-2.538-2.285-5.233-3.169-7.945c0.056-0.183-0.011-0.347-0.141-0.458
		c-0.212-0.668-0.424-1.336-0.611-2.002c-0.175-0.62-1.14-0.356-0.965,0.266c0.003,0.012,0.008,0.024,0.011,0.035
		c-0.321,0.015-0.649,0.362-0.46,0.751c0.04,0.082,0.074,0.167,0.114,0.25c-0.013,0.025-0.03,0.044-0.04,0.073
		c-0.226,0.697-0.494,1.352-0.559,2.091c-0.012,0.137,0.03,0.237,0.095,0.315c-0.003,0.021-0.01,0.039-0.012,0.06
		c-0.024,0.247,0.201,0.45,0.433,0.485c-0.023,0.046-0.048,0.092-0.072,0.138c-0.298,0.57,0.565,1.076,0.863,0.504
		c0.163-0.313,0.322-0.629,0.483-0.943c1.446,3.572,2.598,7.271,4.361,10.693c0.153,0.299,0.458,0.302,0.676,0.159
		c0.253,0.126,0.619,0.069,0.738-0.278C75.12,95.543,73.424,93.396,72.986,92.48z"/>
	<path fill="#274547" d="M59.432,85.248c-0.476-1.071-1.155-2.074-1.325-3.256c-0.091-0.637-1.055-0.365-0.964,0.266
		c0.181,1.263,0.917,2.35,1.425,3.494C58.83,86.341,59.691,85.831,59.432,85.248z"/>
	<polyline fill="#32C9C9" points="25.688,98.271 26.354,99.417 52.125,90.313 51.896,89.833 	"/>
	<polyline fill="#15494C" points="74.834,96.251 93.709,107.084 91.445,110.819 75.125,98.417 	"/>
	<polyline fill="#043A38" points="31.563,108.328 51.406,96.563 51.146,97.604 33.656,111.984 	"/>
	<polyline fill="#203435" points="56.417,97.126 56.625,99.751 39.625,116.667 36.37,116.67 35.667,115.501 	"/>
	<polyline fill="#2DACB2" points="74.125,91.625 96.333,102.417 97.667,100.25 74.292,90.834 	"/>
	<polyline fill="#265D66" points="38.458,92.25 23.75,95 25.417,97.917 38.667,93.584 	"/>
	<polyline fill="#202E3F" points="74.563,84.063 89.5,86.688 108.688,63.063 111.11,67.33 88,90.125 87.92,93.5 74.313,89.875 	"/>
	<polyline fill="#202E3F" points="51.777,83.896 36.84,86.521 16.417,62.25 14.083,66.166 38.34,89.958 38.42,93.333 52.027,89.708 
			"/>
	<radialGradient id="SVGID_1_" cx="61.916" cy="70.7087" r="43.5001" gradientUnits="userSpaceOnUse">
		<stop  offset="0" style="stop-color:#00F4FF"/>
		<stop  offset="1" style="stop-color:#26A9E0;stop-opacity:0"/>
	</radialGradient>
	<circle opacity="0.5" fill="url(#SVGID_1_)" cx="61.916" cy="70.709" r="43.5"/>
	<radialGradient id="SVGID_2_" cx="62.591" cy="70.8776" r="25.9977" gradientUnits="userSpaceOnUse">
		<stop  offset="0" style="stop-color:#FFF4EB"/>
		<stop  offset="0.1667" style="stop-color:#00F4FF"/>
		<stop  offset="1" style="stop-color:#26A9E0;stop-opacity:0"/>
	</radialGradient>
	<circle opacity="0.8" fill="url(#SVGID_2_)" cx="62.591" cy="70.878" r="25.998"/>
</g>
<g id="Layer_5">
	<g>
		<path fill="#282827" d="M87.54,116.67h-1.41c-4.57-4.57-9.149-9.15-13.729-13.729L69.56,100.1c-0.119-0.119-0.159-0.25-0.13-0.38
			c0.03-0.359,0.5-0.66,0.84-0.319c0.021,0.02,0.04,0.04,0.061,0.06c0.12,0.12,0.229,0.23,0.35,0.35c0.83,0.83,1.66,1.66,2.49,2.5
			C77.96,107.09,82.75,111.87,87.54,116.67z"/>
	</g>
	<g>
		<path fill="#282827" d="M89.77,113.7l-0.51,0.88c-6.31-5.7-12.62-11.4-18.93-17.12c-0.23-0.2-0.45-0.4-0.68-0.61
			c-0.07-0.069-0.12-0.14-0.141-0.22c-0.06-0.17,0.02-0.36,0.16-0.479c0.18-0.16,0.46-0.21,0.68,0c0.03,0.02,0.051,0.05,0.08,0.069
			c0.12,0.11,0.23,0.21,0.351,0.32c0.14,0.12,0.279,0.25,0.42,0.38C77.39,102.51,83.58,108.1,89.77,113.7z"/>
	</g>
	<g>
		<path fill="#282827" d="M70.333,99.417c0-0.806,0-1.611,0-2.417c0-0.645-1-0.645-1,0c0,0.806,0,1.611,0,2.417
			C69.333,100.062,70.333,100.062,70.333,99.417L70.333,99.417z"/>
	</g>
	<g>
		<path fill="#282827" d="M70.083,96.917c0.861,0,1.723,0,2.584,0c0.645,0,0.645-1,0-1c-0.861,0-1.723,0-2.584,0
			C69.438,95.917,69.438,96.917,70.083,96.917L70.083,96.917z"/>
	</g>
	<g>
		<path fill="#282827" d="M91.57,110.61l-0.511,0.859C84.98,106.61,78.9,101.76,72.82,96.9c-0.09-0.07-0.17-0.141-0.261-0.21
			c-0.31-0.25-0.149-0.62,0.131-0.771c0.17-0.08,0.39-0.09,0.579,0.061c0.391,0.31,0.771,0.619,1.16,0.92
			c0.511,0.409,1.011,0.819,1.521,1.22l0.63,0.51c0.33,0.26,0.66,0.521,0.99,0.79C82.23,103.14,86.9,106.87,91.57,110.61z"/>
	</g>
	<g>
		<path fill="#282827" d="M77.584,99.334c0-1.917,0-3.833,0-5.75c0-0.645-1-0.645-1,0c0,1.917,0,3.833,0,5.75
			C76.584,99.979,77.584,99.979,77.584,99.334L77.584,99.334z"/>
	</g>
	<g>
		<path fill="#282827" d="M96.48,102.14l-0.511,0.87c-6.13-2.95-12.26-5.89-18.39-8.819c-0.33-0.16-0.67-0.32-1-0.48
			c-0.8-0.39-1.6-0.77-2.4-1.15c-0.14-0.069-0.29-0.14-0.43-0.21c-0.06-0.029-0.11-0.069-0.14-0.109
			c-0.13-0.13-0.141-0.31-0.08-0.46c0.01-0.04,0.029-0.07,0.05-0.101c0.13-0.199,0.39-0.319,0.67-0.19
			c0.11,0.05,0.22,0.109,0.33,0.16C81.88,95.15,89.18,98.64,96.48,102.14z"/>
	</g>
	<g>
		<path fill="#282827" d="M99.5,96.94l-0.52,0.89c-8.131-2.561-16.271-5.12-24.4-7.66c-0.021-0.01-0.03-0.01-0.05-0.02
			c-0.53-0.17-0.4-0.931,0.05-0.98c0.07-0.02,0.14-0.01,0.22,0.01c2.271,0.71,4.55,1.431,6.82,2.141c0.16,0.05,0.32,0.1,0.47,0.149
			c0.78,0.24,1.561,0.49,2.33,0.73c0.33,0.1,0.65,0.21,0.97,0.31c0.601,0.181,1.19,0.37,1.78,0.56c0.34,0.1,0.67,0.21,1,0.31
			C91.95,94.57,95.73,95.75,99.5,96.94z"/>
	</g>
	<g>
		<path fill="#282827" d="M66.768,85.55c1.223,3.556,2.445,7.111,3.667,10.667c0.209,0.606,1.175,0.346,0.965-0.266
			c-1.223-3.556-2.445-7.111-3.667-10.667C67.523,84.678,66.558,84.938,66.768,85.55L66.768,85.55z"/>
	</g>
	<g>
		<path fill="#282827" d="M68.435,81.217c2.174,5.694,4.348,11.389,6.521,17.083c0.228,0.597,1.195,0.338,0.965-0.266
			c-2.173-5.694-4.348-11.389-6.521-17.083C69.172,80.354,68.204,80.613,68.435,81.217L68.435,81.217z"/>
	</g>
	<g>
		<path fill="#282827" d="M74.583,92.084c0-10.389,0-20.778,0-31.167c0-0.645-1-0.645-1,0c0,10.389,0,20.778,0,31.167
			C73.583,92.729,74.583,92.729,74.583,92.084L74.583,92.084z"/>
	</g>
	<g>
		<path fill="#282827" d="M69,60.667c2.5,0,5,0,7.5,0c0.645,0,0.645-1,0-1c-2.5,0-5,0-7.5,0C68.355,59.667,68.355,60.667,69,60.667
			L69,60.667z"/>
	</g>
	<g>
		<path fill="#282827" d="M77.334,60.167c0-5.222,0-10.445,0-15.667c0-0.645-1-0.645-1,0c0,0.056,0,0.111,0,0.167
			c0,0.645,1,0.645,1,0c0-0.79,0-1.58,0-2.37c0-0.645-1-0.645-1,0c0,0.067,0,0.135,0,0.203c0,0.645,1,0.645,1,0
			c0-0.067,0-0.135,0-0.203c0-0.645-1-0.645-1,0c0,0.789,0,1.58,0,2.37c0,0.645,1,0.645,1,0c0-0.056,0-0.111,0-0.167
			c0-0.645-1-0.645-1,0c0,5.222,0,10.445,0,15.667C76.334,60.812,77.334,60.812,77.334,60.167L77.334,60.167z"/>
	</g>
	<g>
		<path fill="#282827" d="M88.167,93.334c0-0.973,0-1.944,0-2.917c0-0.645-1-0.645-1,0c0,0.973,0,1.944,0,2.917
			C87.167,93.979,88.167,93.979,88.167,93.334L88.167,93.334z"/>
	</g>
	<g>
		<path fill="#282827" d="M111.22,67.51c-2.689,2.71-5.39,5.41-8.1,8.12c-0.021,0.03-0.04,0.05-0.07,0.07
			c-4.95,4.979-9.92,9.96-14.88,14.939c-0.06,0.061-0.11,0.11-0.17,0.17c-0.31,0.311-0.74,0.08-0.83-0.25
			c-0.04-0.109-0.03-0.229,0.04-0.35c0-0.01,0.01-0.02,0.021-0.03c0.01-0.029,0.029-0.06,0.06-0.08c0.01-0.01,0.03-0.029,0.04-0.04
			c0.59-0.59,1.17-1.17,1.75-1.76c0.34-0.33,0.67-0.67,1-1c1.85-1.85,3.7-3.71,5.54-5.56c0.34-0.33,0.67-0.67,1-1
			c1.87-1.87,3.729-3.74,5.59-5.61c0.34-0.33,0.67-0.67,1-1c2.49-2.5,4.99-5.01,7.49-7.51L111.22,67.51z"/>
	</g>
	<g>
		<path fill="#282827" d="M82.5,27.58V91c0,0.28-0.19,0.44-0.41,0.47c-0.17,0.03-0.35-0.02-0.47-0.149
			C81.55,91.24,81.5,91.14,81.5,91V27.58H82.5z"/>
	</g>
	<g>
		<path fill="#282827" d="M85.42,27.58v64.75c0,0.07-0.01,0.13-0.03,0.18c-0.159,0.46-0.97,0.41-0.97-0.18V27.58H85.42z"/>
	</g>
	<g>
		<path fill="#282827" d="M90.08,31.08v57.25c0,0.65-1,0.65-1,0V29.36L90.08,31.08z"/>
	</g>
	<g>
		<path fill="#282827" d="M96.62,42.35v39.44c0,0.65-1,0.65-1,0V40.63l0.51,0.87L96.62,42.35z"/>
	</g>
	<g>
		<path fill="#282827" d="M103.21,53.71v21.62c0,0.12-0.04,0.22-0.09,0.3c-0.021,0.03-0.04,0.05-0.07,0.07
			c-0.28,0.24-0.84,0.12-0.84-0.37V51.99L103.21,53.71z"/>
	</g>
	<g>
		<path fill="#282827" d="M59.375,91.418c-0.131,0-0.263,0-0.394,0c-0.645,0-0.645,1,0,1c0.438,0,0.875,0,1.313,0
			c0.645,0,0.645-1,0-1c-0.015,0-0.03,0-0.044,0c-0.645,0-0.645,1,0,1c2.361,0,4.722,0,7.083,0c0.645,0,0.645-1,0-1
			c-2.361,0-4.722,0-7.083,0c-0.645,0-0.645,1,0,1c0.015,0,0.03,0,0.044,0c0.645,0,0.645-1,0-1c-0.438,0-0.875,0-1.313,0
			c-0.645,0-0.645,1,0,1c0.131,0,0.262,0,0.394,0C60.02,92.418,60.02,91.418,59.375,91.418L59.375,91.418z"/>
	</g>
	<g>
		<path fill="#282827" d="M66.542,92.001c0,2.402,0,4.806,0,7.208c0,0.645,1,0.645,1,0c0-2.402,0-4.806,0-7.208
			C67.542,91.356,66.542,91.356,66.542,92.001L66.542,92.001z"/>
	</g>
	<g>
		<path fill="#282827" d="M60.167,95.251c2.167,0,4.333,0,6.5,0c0.645,0,0.645-1,0-1c-2.167,0-4.333,0-6.5,0
			C59.522,94.251,59.522,95.251,60.167,95.251L60.167,95.251z"/>
	</g>
	<g>
		<path fill="#282827" d="M70.188,58.438c2.083,0,4.167,0,6.25,0c0.645,0,0.645-1,0-1c-2.083,0-4.167,0-6.25,0
			C69.543,57.438,69.543,58.438,70.188,58.438L70.188,58.438z"/>
	</g>
	<g>
		<path fill="#282827" d="M71.438,56.438c1.646,0,3.292,0,4.938,0c0.645,0,0.645-1,0-1c-1.646,0-3.292,0-4.938,0
			C70.793,55.438,70.793,56.438,71.438,56.438L71.438,56.438z"/>
	</g>
	<g>
		<path fill="#282827" d="M68.75,53.875c2.604,0,5.208,0,7.813,0c0.645,0,0.645-1,0-1c-2.604,0-5.208,0-7.813,0
			C68.105,52.875,68.105,53.875,68.75,53.875L68.75,53.875z"/>
	</g>
	<g>
		<path fill="#282827" d="M76.5,50c-2.771,0-5.542,0-8.313,0c-0.645,0-0.645,1,0,1c2.771,0,5.542,0,8.313,0
			C77.145,51,77.145,50,76.5,50L76.5,50z"/>
	</g>
	<g>
		<path fill="#282827" d="M76.375,47.375c-3.375,0-6.75,0-10.125,0c-0.645,0-0.645,1,0,1c3.375,0,6.75,0,10.125,0
			C77.02,48.375,77.02,47.375,76.375,47.375L76.375,47.375z"/>
	</g>
	<g>
		<path fill="#282827" d="M76.125,44.375c-2.563,0-5.125,0-7.688,0c-0.645,0-0.645,1,0,1c2.563,0,5.125,0,7.688,0
			C76.77,45.375,76.77,44.375,76.125,44.375L76.125,44.375z"/>
	</g>
	<g>
		<path fill="#282827" d="M56.81,100.16c-0.02,0.02-0.04,0.04-0.06,0.06c-0.92,0.92-1.85,1.851-2.77,2.77
			c-4.56,4.56-9.12,9.109-13.68,13.68h-1.42c4.8-4.8,9.6-9.59,14.39-14.39c0.9-0.9,1.79-1.79,2.69-2.69
			c0.05-0.05,0.09-0.09,0.14-0.14c0.12-0.12,0.27-0.16,0.4-0.141c0,0,0,0,0.01,0c0.18,0.021,0.34,0.16,0.41,0.32
			C56.99,99.8,56.97,100,56.81,100.16z"/>
	</g>
	<g>
		<path fill="#282827" d="M56.85,96.75c-0.03,0.05-0.07,0.11-0.12,0.16c-0.26,0.229-0.52,0.47-0.78,0.71
			c-6.7,6.05-13.39,12.1-20.1,18.16l-0.51-0.88c6.61-5.98,13.22-11.96,19.83-17.931c0.14-0.13,0.28-0.25,0.42-0.38
			c0.12-0.109,0.23-0.21,0.35-0.32c0.03-0.02,0.05-0.05,0.08-0.069c0.23-0.2,0.51-0.15,0.69,0v0.01
			C56.86,96.34,56.94,96.55,56.85,96.75z"/>
	</g>
	<g>
		<path fill="#282827" d="M56.955,99.469c0-0.806,0-1.611,0-2.417c0-0.645-1-0.645-1,0c0,0.806,0,1.611,0,2.417
			C55.955,100.113,56.955,100.113,56.955,99.469L56.955,99.469z"/>
	</g>
	<g>
		<path fill="#282827" d="M56.291,95.969c-0.861,0-1.723,0-2.584,0c-0.645,0-0.645,1,0,1c0.861,0,1.723,0,2.584,0
			C56.935,96.969,56.935,95.969,56.291,95.969L56.291,95.969z"/>
	</g>
	<g>
		<path fill="#282827" d="M53.81,96.74c-0.09,0.069-0.17,0.14-0.26,0.21c-6.51,5.2-13.03,10.41-19.55,15.63l-0.51-0.87
			c5.1-4.08,10.21-8.16,15.31-12.24c0.33-0.27,0.66-0.529,0.99-0.79c0.23-0.19,0.47-0.38,0.7-0.56c0.51-0.41,1.01-0.811,1.52-1.22
			c0.36-0.29,0.73-0.58,1.09-0.87c0.19-0.15,0.41-0.141,0.58-0.061C53.96,96.12,54.12,96.49,53.81,96.74z"/>
	</g>
	<g>
		<path fill="#282827" d="M56.791,100.219c4.473,0,8.946,0,13.418,0c0.645,0,0.645-1,0-1c-4.473,0-8.946,0-13.418,0
			C56.146,99.219,56.146,100.219,56.791,100.219L56.791,100.219z"/>
	</g>
	<g>
		<path fill="#282827" d="M49.79,99.386c0-1.917,0-3.833,0-5.75c0-0.644-1-0.644-1,0c0,1.917,0,3.833,0,5.75
			C48.79,100.03,49.79,100.03,49.79,99.386L49.79,99.386z"/>
	</g>
	<g>
		<path fill="#282827" d="M51.84,90.2c-0.02,0.01-0.03,0.01-0.05,0.02c-8.68,2.721-17.35,5.44-26.02,8.17l-0.52-0.89
			c4.32-1.36,8.64-2.71,12.96-4.07c0.34-0.1,0.67-0.21,1-0.31c0.6-0.19,1.19-0.37,1.78-0.561c0.33-0.1,0.65-0.199,0.97-0.3
			c0.78-0.25,1.55-0.49,2.32-0.73c0.16-0.05,0.32-0.101,0.47-0.15c2.28-0.71,4.55-1.43,6.82-2.14c0.08-0.03,0.16-0.03,0.22-0.02
			C52.24,89.28,52.37,90.03,51.84,90.2z"/>
	</g>
	<g>
		<path fill="#282827" d="M58.641,85.336c-1.222,3.556-2.444,7.111-3.667,10.667c-0.21,0.611,0.756,0.872,0.965,0.266
			c1.222-3.556,2.444-7.111,3.667-10.667C59.816,84.99,58.85,84.729,58.641,85.336L58.641,85.336z"/>
	</g>
	<path fill="#282827" d="M57.025,80.884c-1.166,2.691-2.332,5.383-3.498,8.074c-0.125-0.286-0.498-0.407-0.736-0.254V60.969
		c0-0.645-1-0.645-1,0V91.7h0c-7.8,3.74-15.6,7.479-23.4,11.21l0.5,0.87c6.64-3.181,13.27-6.36,19.9-9.54
		c0.33-0.16,0.67-0.32,1-0.48c0.8-0.38,1.6-0.77,2.4-1.149c0,0,0,0,0.01,0c0.003-0.002,0.006-0.003,0.009-0.005
		c0.142,0.021,0.288-0.008,0.401-0.094c-0.712,1.876-1.423,3.751-2.134,5.627c-0.229,0.604,0.738,0.862,0.964,0.266
		c2.165-5.712,4.333-11.424,6.498-17.136C58.139,80.74,57.25,80.365,57.025,80.884z"/>
	<g>
		<path fill="#282827" d="M57.374,59.719c-2.5,0-5,0-7.5,0c-0.645,0-0.645,1,0,1c2.5,0,5,0,7.5,0
			C58.018,60.719,58.018,59.719,57.374,59.719L57.374,59.719z"/>
	</g>
	<g>
		<path fill="#282827" d="M50.04,60.219c0-5.222,0-10.445,0-15.667c0-0.645-1-0.645-1,0c0,0.056,0,0.111,0,0.167
			c0,0.645,1,0.645,1,0c0-0.79,0-1.58,0-2.37c0-0.645-1-0.645-1,0c0,0.067,0,0.135,0,0.203c0,0.645,1,0.645,1,0
			c0-0.067,0-0.135,0-0.203c0-0.645-1-0.645-1,0c0,0.79,0,1.58,0,2.37c0,0.645,1,0.645,1,0c0-0.056,0-0.111,0-0.167
			c0-0.645-1-0.645-1,0c0,5.222,0,10.445,0,15.667C49.04,60.864,50.04,60.864,50.04,60.219L50.04,60.219z"/>
	</g>
	<g>
		<path fill="#282827" d="M39.207,93.386c0-0.973,0-1.944,0-2.917c0-0.645-1-0.645-1,0c0,0.973,0,1.944,0,2.917
			C38.207,94.03,39.207,94.03,39.207,93.386L39.207,93.386z"/>
	</g>
	<g>
		<path fill="#282827" d="M39.21,90.62c-0.09,0.32-0.53,0.55-0.84,0.24c-0.05-0.051-0.11-0.11-0.16-0.16
			c-8.12-8.09-16.24-16.19-24.37-24.28l0.52-0.9c2.94,2.93,5.87,5.86,8.81,8.79c0.33,0.32,0.67,0.66,1,0.99
			c1.86,1.851,3.72,3.71,5.58,5.561c0.33,0.33,0.67,0.659,1,1c1.85,1.84,3.69,3.68,5.54,5.52c0.33,0.33,0.67,0.66,1,1
			c0.56,0.55,1.11,1.11,1.67,1.66l0.12,0.12c0.05,0.05,0.09,0.1,0.11,0.16c0.01,0.02,0.02,0.04,0.01,0.05
			C39.24,90.46,39.23,90.54,39.21,90.62z"/>
	</g>
	<g>
		<path fill="#282827" d="M44.87,27.58v63.47c0,0.141-0.05,0.25-0.12,0.33c-0.12,0.13-0.3,0.18-0.47,0.15
			c-0.22-0.03-0.41-0.19-0.41-0.48V27.58H44.87z"/>
	</g>
	<g>
		<path fill="#282827" d="M41.96,27.58v64.81c0,0.58-0.81,0.63-0.97,0.17c-0.02-0.05-0.03-0.109-0.03-0.17V27.58H41.96z"/>
	</g>
	<g>
		<path fill="#282827" d="M37.29,27.58v60.81c0,0.641-1,0.641-1,0V27.72l0.08-0.14H37.29z"/>
	</g>
	<g>
		<path fill="#282827" d="M30.75,37.27v44.57c0,0.01,0,0.01,0,0.021c-0.02,0.63-1,0.62-1-0.021V38.99L30.75,37.27z"/>
	</g>
	<g>
		<path fill="#282827" d="M23.17,50.33l1-1.72v26.78c0,0.641-1,0.641-1,0V50.33z"/>
	</g>
	<g>
		<path fill="#282827" d="M66.998,92.532c0.131,0,0.264,0,0.395,0c0.645,0,0.645-1,0-1c-0.438,0-0.875,0-1.314,0
			c-0.645,0-0.645,1,0,1c0.016,0,0.031,0,0.045,0c0.645,0,0.645-1,0-1c-2.361,0-4.721,0-7.083,0c-0.645,0-0.645,1,0,1
			c2.361,0,4.721,0,7.083,0c0.645,0,0.645-1,0-1c-0.014,0-0.029,0-0.045,0c-0.645,0-0.645,1,0,1c0.439,0,0.877,0,1.314,0
			c0.645,0,0.645-1,0-1c-0.131,0-0.264,0-0.395,0C66.354,91.532,66.354,92.532,66.998,92.532L66.998,92.532z"/>
	</g>
	<g>
		<path fill="#282827" d="M58.832,92.203c0,2.353,0,4.705,0,7.058c0,0.645,1,0.645,1,0c0-2.352,0-4.705,0-7.058
			C59.832,91.559,58.832,91.559,58.832,92.203L58.832,92.203z"/>
	</g>
	<g>
		<path fill="#282827" d="M66.207,94.303c-2.168,0-4.333,0-6.5,0c-0.645,0-0.645,1,0,1c2.167,0,4.333,0,6.5,0
			C66.852,95.303,66.852,94.303,66.207,94.303L66.207,94.303z"/>
	</g>
	<g>
		<path fill="#0BD6B4" d="M72.515,70.931c-0.049-0.545-0.206-1.075-0.44-1.596c-0.127-1.553-1.116-2.961-2.283-4.338
			c-0.186-0.343-0.418-0.674-0.729-0.999c-0.125-1.288-0.413-2.518-1.297-3.714c-0.003-0.008-0.006-0.018-0.008-0.028
			c-0.004,0.001-0.006,0.002-0.009,0.002c-0.023-0.03-0.036-0.062-0.058-0.092c-0.146-0.186-0.419-0.22-0.669-0.171
			c-0.613-1.563-1.636-3.075-2.324-4.641c-0.146-0.571-0.418-1.11-0.778-1.688c-0.03-0.046-0.09-0.072-0.14-0.106
			c0.001-0.025-0.002-0.049,0-0.076c0.025-0.363-0.879-0.487-1.19-0.233c-0.104,0.022-0.189,0.057-0.268,0.104
			c-0.324-0.17-0.962-0.095-1.052,0.17c-0.126,0.382-0.254,0.767-0.303,1.151c-1.289,1.979-2.545,3.959-3.317,6.032
			c-0.123,0.332,0.58,0.591,0.996,0.423c-0.313,0.42-0.637,0.838-0.956,1.258c-0.105,0.132-0.207,0.264-0.3,0.399
			c-0.57,0.769-1.081,1.545-1.41,2.345c-1.145,1.585-2.031,3.22-2.273,4.959c-0.011,0.088,0.048,0.158,0.132,0.217
			c-0.157,0.035-0.285,0.109-0.326,0.245c-0.034,0.11-0.061,0.206-0.084,0.299c-0.132,0.085-0.169,0.198-0.075,0.318
			c-0.031,0.145-0.056,0.294-0.08,0.479c-0.036,0.255,0.344,0.376,0.704,0.356c1.385,2.649,6.104,4.382,8.092,6.813
			c0.146,0.177,0.489,0.205,0.777,0.143c0.005,0.026,0.022,0.051,0.029,0.078c0.129,0.421,1.293,0.316,1.28-0.099
			c-0.034-0.34-0.008-0.68,0.05-1.017c0.444,0.143,0.991-0.169,0.909-0.454c-0.001-0.005-0.009-0.015-0.011-0.022
			c0.698-0.353,1.38-0.714,2.018-1.11c0.528-0.325,0.817-0.71,1.185-1.067c0.883-0.211,1.249-0.485,1.598-1.028
			c0.067-0.105,0.026-0.202-0.063-0.281c0.018-0.013,0.037-0.027,0.055-0.042c0.029-0.004,0.061-0.006,0.089-0.015
			c0.572-0.166,0.812-0.418,0.822-0.702c0.26-0.217,0.491-0.444,0.704-0.681c0.443-0.221,0.813-0.487,1.061-0.793
			c0.005-0.005,0.011-0.009,0.015-0.014c0.017-0.018,0.015-0.035,0.027-0.052c0.076-0.104,0.156-0.207,0.203-0.318
			C72.894,71.158,72.744,71.006,72.515,70.931z"/>
		<path fill="#00918A" d="M70.339,77.672c-0.737,0.518-1.496,1.051-2.065,1.672c-0.389,0.422-0.688,0.909-0.986,1.401
			c-0.188-0.023-0.384,0.001-0.541,0.114c-1.34,0.964-3.231,1.903-3.515,3.334c-0.004,0.021,0.013,0.042,0.013,0.063
			c-0.177-0.144-0.371-0.271-0.553-0.409c0.086-0.117,0.096-0.257-0.063-0.403c-1.091-1.006-2.183-2.033-3.206-3.07
			c-0.625-0.64-1.284-1.574-2.335-1.905c-0.162-0.052-0.317-0.05-0.458-0.021c-0.108-0.257-0.185-0.518-0.198-0.796
			c0-0.302-0.329-0.449-0.657-0.446c-0.325-0.003-0.649,0.145-0.649,0.446v0.29c0,0.102,0.045,0.178,0.109,0.244
			c0.157,0.636,0.522,1.219,0.98,1.772c-0.05,0.107-0.043,0.232,0.062,0.36c1.354,1.662,1.598,3.712,3.531,5.135
			c0.08,0.061,0.168,0.095,0.257,0.117c0.499,0.856,0.991,1.711,1.453,2.575c0.092,0.171,0.295,0.272,0.514,0.308
			c0.106,0.171,0.234,0.476,0.338,0.595c-0.012,0.096-0.021,0.191-0.03,0.287c-0.376,0.593-0.379,0.62-0.437,1.354
			c-0.034,0.425,0.721,0.587,1.115,0.329c0.396-0.26,0.649-0.549,0.846-0.857c0.244-0.004,0.473-0.101,0.546-0.333
			c0.079-0.248,0.125-0.395,0.153-0.527c0.061-0.233,0.126-0.466,0.198-0.694c1.552-1.869,3.199-3.69,3.814-5.848
			c0.041-0.15-0.018-0.293-0.134-0.403c0.572-0.842,1.798-1.489,2.571-2.228l0.005-0.004c0,0,0,0-0.001,0
			c0.034-0.032,0.072-0.063,0.104-0.094c0.227-0.233,0.071-0.473-0.198-0.597c0.144-0.44,0.273-0.879,0.509-1.31
			C71.679,77.672,70.774,77.367,70.339,77.672z"/>
		<polyline fill="#CCFFF6" points="62.583,52.988 56.86,70.521 53.247,70.404 		"/>
		<polyline fill="#CCFFF6" points="54.716,70.965 62.719,76.339 62.962,78.442 53.356,71.172 		"/>
		<polygon fill="#97FFEB" points="54.472,70.544 62.8,70.544 63.045,53.066 54.472,70.544 		"/>
		<polyline fill="#97FFEB" points="63.289,83.678 63.18,91.867 54.907,77.344 		"/>
		<polyline fill="#00918A" points="62.84,78.747 62.8,70.544 72.761,70.639 73.168,71.246 63.453,78.584 		"/>
		<g>
			<path fill="#282827" d="M73.273,74.17c-3.512,5.948-7.021,11.897-10.533,17.846c-0.324,0.551,0.941,0.79,1.26,0.246
				c3.51-5.948,7.02-11.897,10.532-17.845C74.858,73.864,73.593,73.627,73.273,74.17L73.273,74.17z"/>
		</g>
		<g>
			<path fill="#282827" d="M73.495,74.196c-3.584,2.983-7.166,5.969-10.75,8.953c-0.543,0.45,0.378,1.108,0.925,0.654
				c3.582-2.983,7.165-5.969,10.75-8.952C74.963,74.399,74.044,73.741,73.495,74.196L73.495,74.196z"/>
		</g>
		<g>
			<path fill="#282827" d="M73.177,70.839c-3.377,2.612-6.751,5.223-10.124,7.836c-0.504,0.388,0.633,0.76,1.127,0.377
				c3.376-2.611,6.748-5.223,10.124-7.835C74.806,70.83,73.671,70.456,73.177,70.839L73.177,70.839z"/>
		</g>
		<g>
			<path fill="#282827" d="M62.278,51.84c3.552,6.38,7.095,12.76,10.641,19.14c0.256,0.458,1.518,0.263,1.261-0.198
				c-3.55-6.38-7.092-12.76-10.643-19.14C63.284,51.184,62.022,51.38,62.278,51.84L62.278,51.84z"/>
		</g>
		<g>
			<path fill="#282827" d="M51.946,74.575c3.612,5.899,7.222,11.801,10.835,17.701c0.334,0.548,1.458,0.075,1.126-0.467
				c-3.61-5.901-7.221-11.802-10.833-17.703C52.74,73.56,51.614,74.033,51.946,74.575L51.946,74.575z"/>
		</g>
		<g>
			<path fill="#282827" d="M51.995,74.899c3.585,2.968,7.167,5.937,10.75,8.904c0.55,0.454,1.47-0.206,0.925-0.654
				c-3.584-2.97-7.167-5.938-10.751-8.904C52.369,73.79,51.448,74.448,51.995,74.899L51.995,74.899z"/>
		</g>
		<g>
			<path fill="#282827" d="M52.109,71.255c3.513,2.654,7.023,5.306,10.534,7.961c0.501,0.379,1.637,0.005,1.129-0.378
				c-3.512-2.652-7.021-5.307-10.535-7.96C52.736,70.499,51.601,70.872,52.109,71.255L52.109,71.255z"/>
		</g>
		<g>
			<path fill="#282827" d="M61.789,51.486c-3.187,6.444-6.368,12.89-9.555,19.334c-0.229,0.465,1.032,0.662,1.259,0.199
				c3.185-6.445,6.369-12.89,9.556-19.334C63.277,51.221,62.019,51.023,61.789,51.486L61.789,51.486z"/>
		</g>
	</g>
	<g>
		<path fill="#282827" d="M56.186,57.489c-2.083,0-4.167,0-6.25,0c-0.645,0-0.645,1,0,1c2.083,0,4.167,0,6.25,0
			C56.831,58.489,56.831,57.489,56.186,57.489L56.186,57.489z"/>
	</g>
	<g>
		<path fill="#282827" d="M54.936,55.489c-1.646,0-3.292,0-4.938,0c-0.645,0-0.645,1,0,1c1.646,0,3.292,0,4.938,0
			C55.581,56.489,55.581,55.489,54.936,55.489L54.936,55.489z"/>
	</g>
	<g>
		<path fill="#282827" d="M57.624,52.927c-2.604,0-5.208,0-7.813,0c-0.645,0-0.645,1,0,1c2.604,0,5.208,0,7.813,0
			C58.268,53.927,58.268,52.927,57.624,52.927L57.624,52.927z"/>
	</g>
	<g>
		<path fill="#282827" d="M49.874,51.052c2.771,0,5.542,0,8.313,0c0.645,0,0.645-1,0-1c-2.771,0-5.542,0-8.313,0
			C49.229,50.052,49.229,51.052,49.874,51.052L49.874,51.052z"/>
	</g>
	<g>
		<path fill="#282827" d="M49.999,48.427c3.375,0,6.75,0,10.125,0c0.645,0,0.645-1,0-1c-3.375,0-6.75,0-10.125,0
			C49.354,47.427,49.354,48.427,49.999,48.427L49.999,48.427z"/>
	</g>
	<g>
		<path fill="#282827" d="M50.249,45.427c2.563,0,5.125,0,7.688,0c0.645,0,0.645-1,0-1c-2.563,0-5.125,0-7.688,0
			C49.604,44.427,49.604,45.427,50.249,45.427L50.249,45.427z"/>
	</g>
	<g>
		<polygon fill="#282827" points="96.62,42.35 96.71,42.5 27.71,42.5 28.29,41.5 96.13,41.5 		"/>
	</g>
	<g>
		<path fill="#282827" d="M57.58,27.58v13.67c0,0.65-1,0.65-1,0V27.58H57.58z"/>
	</g>
	<g>
		<path fill="#282827" d="M69.92,27.58c0,4.56,0,9.11,0,13.67c0,0.65-1,0.65-1,0c0-4.56,0-9.11,0-13.67H69.92z"/>
	</g>
	<g>
		<g>
			<path fill="#282827" d="M63.813,71.291c0.878,0,1.755,0,2.633,0c0.645,0,0.645-1,0-1c-0.043,0-0.086,0-0.129,0
				c-0.645,0-0.645,1,0,1c2.29,0,4.58,0,6.87,0c0.645,0,0.645-1,0-1c-2.29,0-4.58,0-6.87,0c-0.645,0-0.645,1,0,1
				c0.043,0,0.086,0,0.129,0c0.645,0,0.645-1,0-1c-0.878,0-1.755,0-2.633,0C63.168,70.291,63.168,71.291,63.813,71.291
				L63.813,71.291z"/>
		</g>
	</g>
	<g>
		<g>
			<path fill="#282827" d="M62.417,72.063c0,0.628,0,1.256,0,1.884c0,0.645,1,0.645,1,0c0-0.03,0-0.061,0-0.092c0-0.645-1-0.645-1,0
				c0,1.639,0,3.277,0,4.916c0,0.645,1,0.645,1,0c0-1.639,0-3.277,0-4.916c0-0.645-1-0.645-1,0c0,0.03,0,0.062,0,0.092
				c0,0.645,1,0.645,1,0c0-0.628,0-1.256,0-1.884C63.417,71.418,62.417,71.418,62.417,72.063L62.417,72.063z"/>
		</g>
	</g>
	<g>
		<g>
			<path fill="#282827" d="M52.583,71.271c0.854,0,1.708,0,2.563,0c0.645,0,0.645-1,0-1c-0.042,0-0.083,0-0.125,0
				c-0.645,0-0.645,1,0,1c2.229,0,4.458,0,6.688,0c0.645,0,0.645-1,0-1c-2.229,0-4.458,0-6.688,0c-0.645,0-0.645,1,0,1
				c0.042,0,0.083,0,0.125,0c0.645,0,0.645-1,0-1c-0.854,0-1.708,0-2.563,0C51.939,70.271,51.939,71.271,52.583,71.271
				L52.583,71.271z"/>
		</g>
	</g>
	<g>
		<g>
			<path fill="#282827" d="M63.271,69.229c0-1.587,0-3.175,0-4.762c0-0.645-1-0.645-1,0c0,0.078,0,0.155,0,0.232
				c0,0.645,1,0.645,1,0c0-4.143,0-8.286,0-12.428c0-0.645-1-0.645-1,0c0,4.143,0,8.286,0,12.428c0,0.645,1,0.645,1,0
				c0-0.078,0-0.155,0-0.232c0-0.645-1-0.645-1,0c0,1.587,0,3.175,0,4.762C62.271,69.874,63.271,69.874,63.271,69.229L63.271,69.229
				z"/>
		</g>
	</g>
	<radialGradient id="SVGID_3_" cx="63.216" cy="69.8776" r="25.9977" gradientUnits="userSpaceOnUse">
		<stop  offset="0" style="stop-color:#FFF4EB"/>
		<stop  offset="0.1667" style="stop-color:#00F4FF"/>
		<stop  offset="1" style="stop-color:#26A9E0;stop-opacity:0"/>
	</radialGradient>
	<circle opacity="0.14" fill="url(#SVGID_3_)" cx="63.216" cy="69.878" r="25.998"/>
</g>
<g id="Layer_2">
	<g id="Layer_6_3_">
		<path opacity="0.13" enable-background="new    " d="M88.12,27.55l-51.749,0.029l-25.84,44.546l25.947,44.595H88.12l25.773-44.585
			L88.12,27.55z M87.05,114.881H37.451L12.65,72.135l24.801-42.747H87.05l24.801,42.747L87.05,114.881z"/>
	</g>
</g>
</svg>
