<svg enable-background="new 0 0 110.979 128.417" height="128.417" viewBox="0 0 110.979 128.417" width="110.979" xmlns="http://www.w3.org/2000/svg" xmlns:xlink="http://www.w3.org/1999/xlink"><linearGradient id="a"><stop offset="0" stop-color="#fff" stop-opacity=".9"/><stop offset="1" stop-color="#f9ed32" stop-opacity="0"/></linearGradient><radialGradient id="b" cx="54.77" cy="58.8774" gradientUnits="userSpaceOnUse" r="40.1006" xlink:href="#a"/><radialGradient id="c" cx="54.27" cy="63.1274" gradientUnits="userSpaceOnUse" r="40.1006" xlink:href="#a"/><path d="m110.849 96.429-55.426 31.988-55.423-31.988v-63.98l55.423-31.989 55.426 31.989z" fill="#f9c553"/><path d="m101.919 38.168v53.121l-.01.01-1.42.811-4.15 2.389-.199.121-1.93 1.109-2.721 1.57-.24.129-.129.051-.111.07-3.029 1.74-.82.469-1.049.602-.041.029-1.23.709-.449.262-.02.02h-.01l-1.541.889-.869.521-1.26.719-.121.07-.08.051-.41.24-.029.01-.16.09v.01l-.779.449-.182.09-.02.021-.039.02-1.01.58-.291.17-.369.209-.24.141h-.01l-.711.42-4.619 2.67-.631.361-.061.029-3.5 2.029-4.039 2.33-.01.01-.43.25-5.711 3.281-.561.33h-.01l-.32.18-.479.289-1.42-.83-.852-.49-.029-.01-1.74-1.01-3.529-2.029-.041-.031-2.07-1.189-5.359-3.109-.689-.391-5.09-2.949-.391-.221-.49-.279-.33-.201-1.85-1.059-.57-.33-1.709-.99-2.51-1.461-2.092-1.199-.818-.471-.09-.049-.5-.291-.012-.01-.209-.119h-.01l-1.041-.602c-.01-.01-.01-.01-.02-.01l-1.859-1.08-1.021-.59-2.109-1.229-.289-.172s-.01 0-.021-.01l-.279-.16-3.301-1.898-3.5-2.021-.078-.039-.031-.02v-53.122l14.33-8.27 1.99-1.16 4.93-2.83 1.58-.91.17-.09 1.66-.95.779-.46.381-.21.439-.27 1.1-.64.521-.3 2.279-1.3.689-.41 1.4-.8h.01l.051-.03 5.721-3.3.189-.11.27-.16 6.07-3.51 1.439-.83 1.061.62 6.49 3.75 2.6 1.5 4.91 2.83 7.02 4.05 1.041.61 2.299 1.3.871.5 1.52.88 1.369.79.801.46.09.06 1.811 1.04 3.779 2.18.041.03v.01l.26.14.66.39 1.459.84 1.941 1.12.779.44.439.25 1.939 1.12z" fill="#e4d15c"/><path d="m101.919 47.208v44.081l-.01.01-1.42.811-4.15 2.389-.199.121-1.93 1.109-2.721 1.57-.24.129-.129.051-.111.07-3.029 1.74-.82.469-1.049.602-.041.029-1.23.709-.449.262-.02.02h-.01l-1.541.889-.869.521-1.26.719-.121.07-.08.051-.41.24-.029.01-.16.09v.01l-.779.449-.182.09-.02.021-.039.02-1.01.58-.291.17-.369.209-.24.141h-.01l-.711.42-4.619 2.67-.631.361-.061.029-3.5 2.029-4.039 2.33-.01.01-.43.25-5.711 3.281-.561.33h-.01l-.32.18-.479.289-1.42-.83-.852-.49-.029-.01-1.74-1.01-3.529-2.029-.041-.031-2.07-1.189-5.359-3.109-.689-.391-5.09-2.949-.391-.221-.49-.279-.33-.201-1.85-1.059-.57-.33-1.709-.99-2.51-1.461-2.092-1.199-.818-.471-.09-.049-.5-.291-.012-.01-.209-.119h-.01l-1.041-.602c-.01-.01-.01-.01-.02-.01l-1.859-1.08-1.021-.59-2.109-1.229-.289-.172s-.01 0-.021-.01l-.279-.16-3.301-1.898-3.5-2.021-.078-.039-.031-.02v-41.602c7.359-2.44 14.99-4.3 22.391-5.92 12.16-2.66 24.57-3.99 37.02-3.19 11.21.72 21.999 3.07 32.588 6.63z" fill="#e0a958"/><path d="m95.412 75.763c.117-.078.229-.166.322-.262.445-.449.93-1.215.662-1.865-.23-.561-.926-.826-1.52-.746-.176-.113-.41-.135-.605.051-.051-.107-.104-.215-.152-.322-.117-.254-.209-.568-.369-.799-.002-.004-.006-.006-.008-.008.076-.408.115-.818.09-1.182.252.092.508.178.758.281.617.252.881-.746.275-.996-.262-.107-.527-.197-.793-.291.045-.109.068-.227.09-.346.273-.02.549-.039.822-.059.662-.047.666-1.08 0-1.033-.289.021-.578.043-.869.063-.021-.094-.041-.189-.066-.275.129-.23.256-.459.383-.688.322-.582-.568-1.104-.893-.52-.084.152-.17.307-.254.459-.049-.004-.098.002-.146.01-.109-.342-.221-.684-.332-1.023-.211-.629-1.207-.359-.996.273.109.328.215.658.322.988-.049.045-.092.092-.137.141-.059-.09-.137-.17-.26-.215-.244-.088-.463-.201-.684-.336-.574-.342-1.092.551-.521.893.299.178.604.32.93.439.021.008.039.004.059.008-.033.109-.059.217-.068.332-.025.102-.045.201-.051.303-.254-.078-.516-.111-.803-.076-.652.08-.658 1.113 0 1.031.285-.035.482-.014.74.123.156.084.305.078.43.025.049.063.088.129.143.186.072.07.15.107.229.129.01.006.018.016.025.021-.039.066-.07.139-.082.227-.066.498-.168.988-.283 1.475-1.408.004-2.361-1.473-2.936-2.781.141-1.23-.084-2.354-.941-2.635.02-.068.025-.146.014-.229-.031-.213-.088-.418-.145-.623.076-.029.143-.078.199-.146.057-.025.113-.045.162-.08.508-.357.629-.999.668-1.579.07-1.03-.459-2.429-1.723-2.228-1.229.197-1.365 1.687-1.063 2.64.051.154.146.252.262.307.092.277.256.529.498.738-.072.107-.1.244-.049.406.07.225.115.449.156.678-.123.023-.242.088-.33.215-.152.217-.303.451-.451.691-.027.016-.055.021-.08.043-.947.77-1.953 1.461-3.057 1.984-.174.08-.244.213-.258.35-.051-.035-.109-.064-.184-.08-.137-.027-.268-.043-.396-.049v-.256c.131-.055.256-.127.365-.219.455-.383.549-1.229-.018-1.557-.094-.055-.186-.09-.277-.111-.109-.064-.236-.088-.367-.035-.078.031-.154.068-.232.109 0 .002-.002.002-.004.002-.146.01-.291.072-.396.225.143-.205.188-.174.035-.102-.109.051-.207.137-.289.221-.203.207-.26.508-.234.785.002.031.021.059.029.09.006.018.01.035.018.051.045.125.117.238.225.307.039.055.08.1.127.141-.002.02-.012.035-.012.059v.514c-.066.047-.119.104-.158.172-.928-.594-1.389-1.938-1.701-3 .203-1.178-.021-2.336-.936-2.658-.021-.212-.035-.425-.063-.636.045-.021.092-.037.135-.062.924-.543.826-2.209.014-2.786-.309-.22-.689-.145-1.02.017-.135-.073-.297-.087-.467.025-.793.521-1.402 1.449-.695 2.312.25.304.619.513 1.01.596.031.253.053.507.078.761-.256.506-.537.998-.803 1.498-.711.379-1.465.656-2.297.73-.137.014-.236.072-.316.148.004-.025.004-.051.008-.076h-.002c.004-.045.016-.09.02-.137.02-.27-.186-.439-.416-.488.006-.004.01-.008.018-.012.17-.102.32-.24.436-.396.654-.521.455-1.438-.127-1.955-.387-.345-.771-.357-1.096-.182-.098.015-.186.073-.258.167-.764.216-1.059 1.433-.488 1.962.012.01.029.014.041.023.045.102.098.199.172.285.184.215.496.287.771.281-.033.049-.057.107-.066.178v.002c-.025.025-.055.039-.078.068-.014.021-.023.045-.039.064-.082-.098-.197-.174-.354-.191-1.229-.146-2.121-1.155-2.439-2.297-.055-.192-.184-.293-.33-.335-.043-.049-.09-.089-.137-.131.193-.142.252-.463.125-.657-.031-.045-.064-.096-.098-.145.033-.175.037-.364.039-.563-.004.005-.01.011-.014.017-.002-.17-.074-.347-.232-.465-.346-.26-1.145-.409-1.484-.128-.09.075-.137.187-.148.304-.104.297-.029.573.156.861-.064.107-.096.235-.066.388.041.205.137.324.26.392-.1.086-.193.184-.275.298-.02.025-.043.042-.061.074-.02.034-.033.071-.051.105-.072.126-.139.26-.195.405-.553 1.285-.621 2.729.465 3.723 0 .338.012.672.025 1.008-.184.02-.369.027-.549.07-.646.154-.373 1.15.273.996.213-.053.42-.072.639-.078.191-.006.32-.102.402-.227.084-.033.152-.094.201-.172.111.141.238.275.393.391.535.4 1.049-.498.521-.891-.516-.385-.453-1.254-.389-1.813.008-.066-.004-.123-.018-.176.127-.24.236-.486.326-.744 0-.004.002-.006.002-.01.057-.162.119-.324.162-.488.611.695 1.443 1.172 2.418 1.307-.129.346-.217.705-.268 1.064-.135.188-.152.443.027.621.027.041.059.078.098.105 0 .021-.008.039-.006.063.029.348.08.691.143 1.033h-.014c-.664-.064-.658.969 0 1.031.27.025.535.029.807 0 .545-.059.635-.779.266-.979-.053-.232-.078-.467-.109-.701.256-.023.496-.248.488-.514-.018-.533-.002-1.066.037-1.598.082.1.207.162.383.146.6-.055 1.16-.199 1.703-.389-.053.156-.119.309-.158.473-.131.545-.021 1.111.277 1.498-.096.08-.166.197-.178.354-.021.254-.023.506-.025.76-.121.004-.242 0-.361.014-.654.072-.662 1.104 0 1.033.289-.031.578-.033.871-.033.383 0 .537-.34.479-.631.02-.053.037-.109.037-.176 0-.287.008-.574.027-.861.098.008.201-.002.307-.016.053.309.113.615.199.918.023.08.059.145.104.197-.18.227-.199.566.135.725.354.166.695.35 1.033.547.574.34 1.094-.553.52-.891-.275-.164-.561-.309-.848-.449.072-.105.1-.242.053-.404-.109-.377-.178-.76-.238-1.145.215-.217.406-.486.572-.793.418 1.012 1.016 1.945 1.951 2.443-.098.215-.152.443-.113.652-.055.08-.096.176-.088.303.02.371.002.723-.08 1.088-.145.648.852.924.996.275.051-.232.086-.465.105-.697.061.012.123.018.184.014.018.186.037.369.07.555.115.654 1.109.377.996-.275-.057-.316-.066-.635-.047-.955.037-.047.074-.092.105-.135.244-.332.436-.723.428-1.123.115-.078.213-.176.287-.314.025-.049.033-.096.043-.145.57-.271 1.113-.59 1.635-.939-.188.588-.291 1.186-.254 1.77.02.299.119.605.273.885-.119.791-.188 1.586-.205 2.383-.018-.008-.035-.014-.053-.023-.578-.332-1.098.561-.52.891.148.084.295.158.451.225.146.064.289.057.412.01.309.121.729-.027.719-.455-.016-.723.039-1.439.121-2.154.039.018.078.021.117.033.08.773.186 1.549.277 2.314.012.088.041.16.08.225-.027.143.002.297.137.432.238.238.479.469.742.678.516.406 1.252-.318.729-.73-.232-.184-.443-.391-.654-.6-.002 0 0-.002 0-.004-.098-.816-.215-1.639-.293-2.461.012-.008.021-.008.033-.016.469-.316.912-1.084 1.213-1.975.719 1.174 1.715 2.162 3.004 2.279-.211.738-.432 1.475-.641 2.217-.166.07-.301.213-.316.439-.07.947-.367 1.947-.41 2.896-.029.666 1.154.605 1.184-.059.031-.684.109-1.365.182-2.047.033-.029.064-.061.094-.1-.027.553-.047 1.107-.049 1.664-.004.664 1.029.664 1.031 0 .006-1.033.064-2.066.129-3.098.01-.125-.029-.221-.084-.299.252-.482.482-.977.674-1.496.121.264.244.527.371.791-.115.668.074 1.336.65 1.598-.012.059-.023.119-.012.189.059.35.268.973.471 1.674-.025.063-.041.137-.037.221.047 1.289-.084 2.523-.832 3.611-.018.023-.018.047-.029.072-.266.279-.543.563-.811.855.131-.52.322-1.031.592-1.537.051-.096.061-.188.055-.273.369-.416.631-1.096.729-1.439.068-.246-.084-.594-.361-.637-.023-.004-.047-.004-.07-.008-.176-.115-.42-.141-.617-.027-.293.021-.568.104-.82.324-.344.301-.436.844-.623 1.24-.215.449.236.857.596.773-.172.377-.318.758-.428 1.143-.064.043-.123.102-.168.191-.5 1.025-3.043 4.084-3.883 4.85.002-.438-.109-.854-.342-1.088-.15-.619-.527-1.09-1.117-.914-.033.008-.066.021-.1.039-.041.016-.078.025-.119.047-.445.236-.555.859-.564 1.381-.029.242-.041.48-.016.689.021.184.082.346.166.484.082.254.207.49.389.662-1.063 1.104-2.521-.006-3.303-1.16-.189-.902-.326-1.811-.219-2.723.018-.025.035-.049.053-.072.002-.002.004-.002.006-.004.445-.258.625-.75.693-1.256.025-.086.031-.18.045-.27.021-.051.043-.104.047-.168.002-.061-.008-.115-.01-.174 0-.018.006-.033.006-.049-.002-.018-.01-.029-.012-.045-.012-.127-.039-.246-.082-.359-.01-.025-.014-.055-.023-.078-.057-.125-.133-.24-.232-.34-.029-.031-.068-.049-.102-.076-.061-.051-.115-.104-.189-.143-.016-.01-.035-.012-.055-.018-.152-.07-.32-.115-.506-.117-.711-.002-1.311.635-1.645 1.193-.283.473-.365 1.027-.23 1.545-.025.244.086.445.311.547.115.078.25.119.389.094.039.004.078.018.117.021-.02.611-.063 1.213-.215 1.814-.117.461-.463.777-.551 1.281-.092.535-.014 1.102.129 1.65-.275.42-.596.809-.992 1.143-.041.033-.059.072-.084.107-1.307 1.252-3.254.42-4.348-.752-.152-.164-.334-.182-.494-.127-.012-.281-.012-.564.006-.844.32-.117.594-.383.771-.668.213-.344.334-.854.135-1.232-.02-.09-.035-.182-.078-.275-.186-.402-.58-.715-1.021-.775-.842-.113-1.311.504-1.391 1.209-.139.195-.211.43-.145.705.059.246.25.488.484.684-.033.371-.07.742-.105 1.115-.096-.043-.209-.059-.342-.01-.996.365-2.004.668-3.043.863-.111-.121-.275-.191-.482-.135-.414.117-.68.383-.924.717-.006 0-.01-.002-.016-.002-2.697-1.932-3.291-1.668-5.203-3.484-.063-.059-.129-.096-.197-.119.008-.051.004-.102.012-.152.018-.125.043-.25.066-.375.039-.195.16-.297-.055-.043.07-.082.1-.172.115-.26.219-.174.424-.383.598-.613.066-.078.121-.158.166-.246.025-.039.053-.078.076-.121.004-.004.01-.006.014-.01.098-.084.205-.229.24-.354-.002.004.031-.424 0-.215.006-.035-.01-.07-.01-.105.063-.605-.371-1.07-1.041-1.135-.82-.078-1.445.393-1.662 1.18-.162.582.035 1.283.598 1.504-.035.123-.057.25-.078.379 0 .004 0 .006-.002.01-.238.014-.465.17-.457.479.008.391.006.762 0 1.131-1.705.959-3.906 1.586-5.318-.133-.061-.295-.178-.582-.338-.875-.289-.529-.736-1.039-.76-1.648 1.041-.473 1.189-2.289 1.199-3.217.004-.43.027-1.219-.307-1.555-.117-.117-.307-.166-.506-.17-.107-.145-.285-.223-.512-.135-1.443.566-2.629 4.262-1.205 5.063-.008.086-.008.174-.012.26-.037.082-.045.178-.014.287v.002c-.041.037-.08.074-.109.133-.168.311-.307.641-.438.977-1.566 1.316-4.047 2.074-5.992 1.322-.316-.123-.527.08-.59.338-.033.045-.061.098-.078.162-.963.484-2.193-.123-2.924-.904.398-.107.752-.389.979-.752.105-.15.197-.313.254-.492.125-.389.1-.777-.014-1.148-.082-.646-.322-1.309-.85-1.527-.041-.051-.098-.096-.174-.131-.082-.039-.158-.057-.236-.078-.014-.004-.023-.018-.037-.02-.096-.051-.201-.063-.305-.031-.666.002-1.139.588-1.375 1.285-.164.482-.225.992-.139 1.461-.014.174-.018.348.014.527.047.277.182.494.367.656-.115.029-.221.104-.291.248-.342.686-.959 1.299-1.641.625-.275-.271-.633-.135-.793.115-.254-.08-.568.002-.672.328-.143.439-.441.922-.951.949-.359.02-.564-.248-.689-.559.238-.193.449-.434.621-.693.018-.018.039-.031.055-.051.07-.09.105-.176.133-.26.076-.143.145-.285.195-.424.33-.898-.352-1.959-1.205-2.264-.854-.303-1.734-.01-2.264.703-.379.506-.324 1.098-.105 1.65-.059.174-.012.377.207.611.047.051.115.078.178.113.096.145.193.283.291.404.031.041.068.061.104.086-.004.145-.008.291-.012.436-.518-.012-1.029-.145-1.514-.332-.377-.148-.619.162-.617.482-1.461-.68-2.301-2.32-2.893-3.734 0-.002-.002-.002-.002-.002-.051-.096-.123-.18-.215-.25-.008-.004-.016-.008-.021-.012-.203-.145-.475-.229-.752-.273-.063-.025-.123-.055-.188-.076-.105-.057-.215-.109-.316-.172-.037-.023-.074-.027-.111-.041-.096-.273-.193-.545-.303-.814.027-.018.053-.025.082-.049.109-.092.189-.227.258-.371.852-.875.072-2.762-1.115-2.85-.906-.064-1.666 1.107-1.957 1.813-.303.738.158 1.273.889 1.373.24.033.482.051.723.078.197.445.371.898.521 1.361-.006.035-.008.072-.01.109-.129.119-.244.256-.348.422-.234.383-.475.926-.51 1.389-.4.871-1.045 1.645-1.959 1.338-.164-.264-.381-.5-.631-.666.002-.115-.029-.229-.088-.322.008-.045.021-.086.018-.139-.02-.252-.029-.504-.039-.756.85-.232 1.055-1.943.365-2.742-.01-.041-.012-.082-.023-.123-.051-.188-.236-.357-.439-.371-.002 0-.002-.002-.004-.002-.006 0-.01 0-.016 0-.012 0-.025-.006-.037-.006-.004 0-.008.002-.01.002-1.303-.168-1.592 1.844-.891 2.793.006.402.029.803.061 1.205.006.07.027.131.053.188-.096.072-.158.176-.238.266-.082-.051-.174-.084-.262-.125-.02-.037-.027-.076-.059-.111-.902-1.023-1.752-2.08-2.178-3.385.094-.137.119-.324.016-.518-.277-.52-.488-1.064-.701-1.611-.063-.301-.123-.602-.209-.898.162.002.326-.055.443-.221.307-.436.588-.887.865-1.342.09.318.16.643.256.959.105.354.455.42.717.307h.006c.057.264.15.508.266.752.281.604 1.17.08.891-.52-.084-.18-.137-.361-.174-.555-.025-.135-.094-.223-.178-.283.07-.061.143-.123.213-.186.389.023.756-.5.412-.887-.395-.449-.777-.908-1.17-1.361.127-.41.227-.826.297-1.248.158.125.338.23.559.287.111.027.199.031.299.049.271.576.527 1.16.781 1.746-.076.121-.154.242-.221.373-.299.592.59 1.115.891.52.098-.191.197-.373.322-.547.15-.207.109-.41-.018-.551.002-.074-.012-.15-.047-.229-.205-.473-.41-.945-.623-1.416.043-.023.094-.037.133-.064.211.408.426.816.633 1.227.107.217.295.283.475.254.125.049.271.051.424-.035.318-.182.611-.379.879-.629.488-.455-.244-1.184-.73-.73-.107.102-.221.186-.34.266-.264-.527-.531-1.051-.809-1.57.045-.627-.068-1.385-.25-2.135.512.246 1.098.336 1.74.174.041-.01.068-.033.104-.051.471.111.949.102 1.395-.047.053.203.135.4.262.582.074.545.189 1.08.348 1.605.191.637 1.188.365.994-.273-.082-.273-.15-.547-.211-.822.031-.025.053-.055.078-.084.188.221.377.441.561.666.426.514 1.152-.223.73-.73-.283-.342-.576-.678-.861-1.02.094-.736-.215-1.434-1.049-1.803-.023-.01-.045-.012-.066-.018-.004-.008-.002-.016-.008-.023-.178-.291-.322-.594-.461-.902.002-.104-.01-.209-.029-.318-.031-.926-.623-1.707-1.469-2.189-.285-.162-.676-.018-.758.309-.068.273-.064.52-.033.76-.064.396-.041.818.047 1.178.156.643.814 1.285 1.523 1.156.088.18.184.357.289.529.02.031.047.049.07.076-.025.076-.031.152-.039.23-.354.195-.725.234-1.125.129-.16-.043-.293-.012-.398.057-.055-.004-.107-.008-.168.008-1.014.256-1.693-.465-2.105-1.307-.107-.311-.199-.57-.26-.752-.029-.096-.082-.164-.143-.221-.008-.053-.014-.105-.037-.16-.252-.566-.627-1.049-1.072-1.473.074-.527-.064-1.115-.314-1.533-.211-.352-.596-.672-1.023-.676-.107-.002-.203.025-.297.051-.107-.084-.25-.119-.424-.059-2.309.805-.539 4.375 1.43 3.234.037-.023.064-.055.098-.08.047.051.1.098.141.148-.055.141-.063.295-.047.453.002.021.004.043.006.064h.002c.006.047.004.094.016.139s.035.08.057.119c-.213.861-.697 2.756-.588 4.264-.102.082-.172.207-.17.381.006.613-.078 1.203-.217 1.785-.018-.02-.035-.037-.053-.057.105-.557-.322-1.145-.891-1.338-.068-.035-.143-.057-.223-.059-.227-.164-.553-.174-.709.15-.301.627-.869 1.902.109 2.26.277.102.592.037.877-.1.08.32.172.635.256.953-.207-.07-.449-.033-.596.209-.299.492-.604.98-.936 1.451-.043.061-.064.119-.078.178-.273-.262-.527-.535-.74-.855-.066-.1-.154-.154-.244-.189-.016-.049-.029-.096-.045-.143.816-.588.545-1.893.09-2.623-.406-.654-1.324-1.359-1.895-.668-.979.795-.707 3.551.818 3.602.094.303.188.605.299.902.021.057.055.098.088.141.152 1.803.252 3.596.055 5.4-.004.047.008.082.014.123-.012.207.094.4.365.439.303.043.561.141.795.271-.02.031-.045.057-.059.094-.174.473-.127 1.061-.123 1.557.004.678.037 1.354.041 2.031.004.666 1.035.666 1.031 0-.002-.406-.014-.813-.025-1.219.018.074.025.152.045.227.164.645 1.16.371.994-.273-.119-.471-.209-.947-.279-1.428.109-.115.164-.271.137-.443.02-.07.025-.145.014-.227-.051-.371-.09-.744-.127-1.117.467.74 1.023 1.428 1.613 2.096.051.113.15.207.307.252.107.031.203.096.301.156-.154.674-.029 1.412.443 1.844 0 .051.01.102.012.152-.031.063-.051.133-.055.215-.018.453-.154.865-.316 1.285-.232.602.734.859.965.266.061-.156.102-.313.148-.471.203-.098.365-.301.322-.58-.025-.172-.041-.346-.049-.518.039-.002.078.002.117-.002-.008.035-.021.064-.021.104v.432c-.068.492-.012.99 0 1.484.016.645 1.016.646 1 0-.004-.146-.016-.297-.027-.449.012-.043.027-.082.027-.133v-.758c.047-.074.078-.164.068-.281-.025-.303-.025-.6 0-.902.012-.123-.023-.213-.074-.291.066-.154.104-.322.117-.492 1.031.039 1.873-.754 2.43-1.756.006.002.012.002.016.004.107 1.301.447 2.6 1.186 3.457.037.043.082.088.125.131.127.906.295 1.807.342 2.721.033.662 1.066.666 1.031 0-.035-.674-.135-1.342-.236-2.008.162.047.328.064.492.059.17 1.146.293 2.297.391 3.455.055.658 1.086.664 1.031 0-.113-1.361-.256-2.717-.475-4.064.217-.502.1-1.197-.045-1.715.014-.133-.025-.271-.148-.393-.027-.027-.047-.061-.072-.09-.145-.313-.32-.609-.537-.887.59.768 1.316 1.412 2.258 1.795.389.158.637-.178.615-.512.529.189 1.07.291 1.621.301-.006.346-.012.691-.018 1.037-.002.004-.004.006-.006.008-.178.537-.367 1.072-.34 1.564-.01.063-.021.123-.033.184-.078.078-.139.176-.154.309-.037.318-.082.646-.117.975-.014.047-.021.098-.035.145-.029.1-.021.188-.002.266-.021.305-.033.607-.012.906.045.639 1.045.643 1 0-.023-.305-.01-.613.014-.922.049-.178.088-.355.125-.537.02-.006.035-.02.053-.029.014.037.02.076.043.115.033.053.064.113.096.174.006.043.01.088.016.131.033.213.164.318.316.354-.014.268-.027.535-.031.803 0 .014-.006.023-.006.037v.156c0 .646 1 .646 1 0 0-1.039.115-2.074.125-3.115 0-.027-.012-.047-.016-.072.004-.035.012-.066.014-.104.008-.314-.102-.639-.199-.932-.076-.227-.107-.465-.146-.701-.035-.199-.16-.395-.133-.604.014-.109-.012-.193-.051-.264.252.197.553.344.922.383.953.104 1.662-.732 1.975-1.539.854.682 1.814.477 2.502-.209.057 1.496.1 2.992.092 4.488-.055.057-.102.129-.127.227-.219.922-.311 1.857-.232 2.803.053.658 1.086.666 1.031 0-.031-.381-.025-.756-.002-1.129.025.025.039.051.066.076.182.158.49.209.684.033.018.713.027 1.426.027 2.139 0 .666 1.031.666 1.031 0 0-.68-.006-1.359-.023-2.039.049-.07.084-.154.084-.264.002-.885.014-1.797-.197-2.66.033-1.072-.141-2.197-.262-3.229 1.025.48 2.191.533 3.154-.195 1.713.449 3.668.018 5.248-.883-.172.699-.311 1.404-.424 2.08-.164.975-.379 2.426.158 3.385-.076 1.842-.199 3.68-.211 5.525-.006.666 1.027.664 1.031 0 .012-1.57.104-3.135.178-4.701.188.053.365.057.535.029.023.049.053.094.092.133-.025 1.412.008 2.824.012 4.238.002.666 1.035.666 1.033 0-.006-1.6-.035-3.197.014-4.795.85-1.672 1.002-3.424 1.047-5.291 1.553 1.121 3.516.859 5.283.014-.072.902-.217 1.791-.492 2.758-.141.49-.15.865-.094 1.223-.078.5-.072 1.004.158 1.377-.373.994-.736 1.994-1.201 2.949-.289.596.602 1.119.891.521.479-.982.855-2.004 1.24-3.025.318-.039.648-.211.949-.432-.049 1.117.041 2.229.352 3.332.182.641 1.178.369.996-.273-.424-1.502-.439-3.012-.172-4.543.014-.084.01-.16-.008-.23.299-1.26-.051-2.611.184-3.861 1.867.768 2.047 2.674 4.078 2.6.205-.006.34-.115.418-.254.166.008.338-.049.459-.217.027-.039.059-.07.086-.104.088.035.182.059.293.041 1.045-.16 2.049-.447 3.043-.793-.207.57-.328 1.15-.369 1.738-.059.352-.076.709-.023 1.074.008.037.02.072.029.107-.033.063-.057.133-.064.215-.084.943-.166 1.889-.172 2.838-.004.666 1.027.666 1.033 0 .004-.631.045-1.258.094-1.887.02.168.035.336.059.504.063.447.086.965.252 1.391.238.615 1.236.348.996-.273-.344-.891-.389-2.094-.369-3.049.201-.447.309-.963.377-1.342.072-.406.078-.816.066-1.227 1.551 1.426 4.061 2.092 5.643.355.029-.031.041-.066.061-.102.205-.184.391-.385.566-.594.035.068.082.125.137.168.137.285.307.572.518.824-.193 1.324-.336 2.652-.484 3.982-.076.662.957.654 1.031 0 .123-1.094.244-2.188.391-3.279.023.008.047.016.07.021.027.861.078 1.723.203 2.578.096.658 1.09.377.996-.273-.123-.846-.16-1.699-.178-2.553.09-.08.178-.172.264-.287.439-.594.057-1.211-.256-1.779-.125-.229-.279-.477-.43-.73.012-.059.018-.121.006-.191-.002-.012-.004-.023-.006-.037.91.68 1.984.986 2.928.533-.035.656.063 1.299.359 1.85.012.033.016.068.031.104.021.051.066.092.1.139 0 .012-.006.021-.006.035.037 1.051-.006 2.096-.129 3.141-.078.66.955.652 1.031 0 .092-.779.125-1.561.129-2.342.041.008.08.008.121.006.041.02.08.035.123.043.008.668.049 1.334.162 2 .111.654.91-.332.799-.984-.156-.924-.195-1.564-.125-2.5.021-.283.055-.016-.156-.055-.033-.137-.121-.246-.23-.318-.074-.785-.33-1.549-.596-2.318.395-.242 2.742-2.531 3.051-2.857-.035.506.01 1.025.344 1.41.156.18.363.271.58.303-.057 1.102 0 2.221.227 3.299.137.65 1.133.375.996-.273-.076-.361-.121-.729-.156-1.096.088.564.996.547.984-.072-.02-.979-.297-1.895-.518-2.84-.023-.1-.072-.17-.129-.227.143-.609-.008-1.289-.303-1.898.336-.641.857-1.172 1.361-1.691-.115.506-.139 1.084-.146 1.584-.012.666 1.02.666 1.031 0 .008-.477.006-1.049.143-1.508.053-.178.012-.322-.076-.432 1.689-1.105.313-4.422-.045-6.168.013-.016.021-.041.043-.059z" fill="#b76d3b"/><path d="m33.199 73.744c.037.15.121.246.223.305.084.229.301.424.605.379.215-.031.43-.064.646-.096.656-.098.375-1.092-.275-.996-.078.012-.154.023-.232.035-.127-.51-.273-1.012-.424-1.514 0-.004-.004-.006-.004-.01.23-.787.051-1.816-.063-2.477-.201-1.162-.525-2.41-1.049-3.475-.078-.16-.199-.234-.328-.256-.029-.121-.057-.244-.104-.363-.039-.096-.1-.164-.166-.219.285-.35.422-.845.377-1.321-.08-.85-.547-1.92-1.352-2.317-.137-.068-.289-.077-.426-.034-.141-.023-.289.003-.426.115-.576.473-.682 1.53-.674 2.215.01.89.422 1.706 1.371 1.806.104.012.199.004.293-.006.004.012.002.023.006.035.08.199.115.385.131.584-.029.049-.055.104-.066.174-.244 1.627-1.172 3.295-.83 4.979.129.631.584 1.191 1.154 1.471.047.426.207.895.238 1.205.02.189.123.318.254.4-.189.133-.365.281-.521.459-.436.5.291 1.232.729.73.154-.176.305-.318.51-.436.383-.221.277-.682-.004-.873.047-.076.078-.164.066-.281-.029-.283-.082-.563-.133-.842-.014-.074-.027-.148-.041-.223.084-.021.166-.066.248-.102.093.316.191.63.267.949zm-.426-2.44c-.006.049-.006.102-.016.148-.018.086-.043.146-.072.205.031-.116.063-.234.088-.353z" fill="#b76d3b"/><path d="m39.964 72.037c.283-.264.592-.42.967-.512.219-.055.324-.207.354-.375.104.031.215.031.322-.004.041.223.193.432.477.461.271.027.518.014.783-.051.646-.158.371-1.152-.275-.996-.178.043-.328.033-.508.016-.043-.006-.076.006-.113.01-.004-.018.002-.033-.002-.051-.15-.666-.23-1.338-.24-2.02.133-.6.176-1.242.1-1.863.125.082.258.15.375.256.496.439 1.229-.287.73-.73-.441-.389-.932-.682-1.486-.85-.139-.275-.326-.518-.543-.734.223-.329-.133-.744-.529-.718 0-.003 0-.006 0-.01-.002-.021-.014-.036-.018-.056.637-.467.918-1.394.588-2.134-.158-.353-.494-.595-.861-.701-.023-.232-.18-.434-.484-.399-.992.113-1.746.789-1.643 1.844.074.755.607 1.601 1.412 1.673.031.253.064.505.092.759-.27.631-.33 1.4-.215 2.174-.086.039-.168.105-.221.225-.336.76-.729 1.486-1.16 2.193-.004.008-.004.012-.008.018-.014-.012-.027-.029-.043-.039-.098-.199-.299-.355-.572-.313-.004-.041 0-.078-.016-.123-.027-.084-.057-.17-.084-.254.201-.25.287-.607.221-.977-.086-.49-.381-.963-.783-1.277-.045-.273-.281-.533-.633-.465-.146.027-.256.092-.373.148-.008.002-.014.006-.021.01-1.211.619-.785 2.643.611 2.885.023.066.045.135.068.205.023.072.061.133.104.182-.42.279-.672.719-.553 1.326.1.512.506.947.982 1.182l.012.006c.061.029.123.045.184.066.023.115.012.225-.105.299-.557.359-.041 1.252.521.893.291-.188.453-.428.539-.693.043.064.076.131.125.193.41.523 1.135-.213.73-.73-.143-.182-.24-.395-.318-.611-.023-.063-.059-.107-.096-.154.076-.346.066-.719-.018-1.018.154-.002.311-.064.416-.236.314-.516.6-1.047.865-1.588.145.352.314.672.512.941-.033.236-.07.469-.127.701-.078.318.127.547.371.619-.422.146-.807.355-1.143.668-.486.455.246 1.184.73.729zm.952-1.563c.004.021.006.043.01.063-.018-.004-.033-.014-.053-.018.015-.016.029-.027.043-.045z" fill="#b76d3b"/><g fill="#ffe783"><path d="m66.81 74.33c-.986 0-.986 1.527 0 1.527s.986-1.527 0-1.527z"/><path d="m70.408 33.047c0-.044 0-.085 0-.128 0-.985-1.529-.985-1.529 0v.128c-.001.984 1.529.984 1.529 0z"/><path d="m44.113 82.175v.064c0 .502.775.502.775 0 0-.021 0-.043 0-.064 0-.5-.775-.5-.775 0z"/><path d="m43.001 70.828c-.986 0-.986 1.529 0 1.529.985 0 .985-1.529 0-1.529z"/><path d="m23.8 61.916h19.158c.078 2.574.957 4.945 2.395 6.88-.223.223-.443.443-.664.664-.697.697.383 1.777 1.08 1.08.191-.189.379-.381.57-.57 1.977 2.068 4.666 3.445 7.676 3.727v4.453c0 .984 1.527.984 1.527 0 0-1.473 0-2.943 0-4.414 2.572-.08 4.943-.955 6.881-2.395.752.752 1.504 1.504 2.256 2.256.697.697 1.777-.383 1.08-1.08-.721-.723-1.441-1.441-2.162-2.162 2.189-2.096 3.596-4.992 3.754-8.216h16.998c.984 0 .984-1.528 0-1.528-5.672 0-11.342 0-17.014 0-.084-1.105-.314-2.167-.674-3.171.098-.007.199-.03.301-.082 11.273-5.591 17.543-8.187 28.814-13.779.883-.438.107-1.755-.771-1.319-11.271 5.592-17.543 8.188-28.814 13.779-.039.02-.059.05-.094.073-.488-.983-1.105-1.89-1.83-2.701 6.014-6.015 12.029-12.029 18.043-18.043.697-.698-.383-1.778-1.08-1.08-6.016 6.016-12.031 12.031-18.047 18.048-2.074-1.812-4.76-2.931-7.705-3.008 0-1.682 0-3.364 0-5.046 0-.986-1.527-.986-1.527 0v5.091c-1.074.106-2.1.363-3.074.729-1.57-3.334-3.143-6.668-4.713-10.003-.418-.891-1.736-.115-1.318.771 1.547 3.283 3.092 6.565 4.639 9.849-.879.464-1.691 1.037-2.43 1.693-1.213-1.213-2.428-2.428-3.641-3.641-.697-.697-1.777.383-1.08 1.08 1.215 1.215 2.43 2.429 3.645 3.644-1.65 1.881-2.736 4.264-2.982 6.893-9.398 0-9.797 0-19.195 0-.988 0-.988 1.528-.002 1.528zm20.686 0h6.502c.029.411.111.804.254 1.172-.131.026-.26.079-.377.197-1.475 1.474-2.949 2.947-4.422 4.421-1.17-1.648-1.881-3.638-1.957-5.79zm10.531-2.816c1.395 0 2.529 1.134 2.529 2.529 0 1.396-1.135 2.53-2.529 2.53s-2.529-1.134-2.529-2.53c0-1.395 1.135-2.529 2.529-2.529zm-7.598 9.792c1.508-1.51 3.016-3.02 4.525-4.527.02-.02.025-.043.041-.064.531.601 1.229 1.041 2.029 1.246v6.619c-2.587-.28-4.893-1.485-6.595-3.274zm8.123 3.316c0-2.191 0-4.383 0-6.574.344-.045.678-.121.99-.248.035.064.064.129.125.189 1.559 1.559 3.117 3.117 4.676 4.676-1.648 1.17-3.638 1.881-5.791 1.957zm6.975-2.933c-1.57-1.57-3.141-3.143-4.711-4.712.66-.628 1.096-1.475 1.217-2.424h6.801c-.158 2.802-1.393 5.318-3.307 7.136zm3.291-8.664c-2.293 0-4.586 0-6.879 0-.121-.464-.313-.9-.578-1.284 1.611-1.612 3.225-3.224 4.836-4.836 1.463 1.666 2.42 3.784 2.621 6.12zm-3.705-7.195c-1.613 1.613-3.227 3.226-4.84 4.838-.527-.352-1.143-.564-1.803-.637.004-.033.018-.058.018-.094 0-2.222 0-4.444 0-6.667 2.523.075 4.83 1.023 6.625 2.56zm-11.969-1.316c.203.428.404.857.605 1.285.42.891 1.738.115 1.32-.771-.178-.375-.354-.751-.531-1.126.771-.279 1.58-.479 2.422-.575v6.61c0 .075.023.133.039.196-.406.107-.791.27-1.137.49-1.572-1.572-3.146-3.145-4.719-4.717.613-.535 1.281-1.006 2.001-1.392zm-3.076 2.475c1.561 1.561 3.121 3.122 4.682 4.682-.248.341-.432.722-.564 1.131-2.217 0-4.432 0-6.646 0 .235-2.208 1.151-4.213 2.528-5.813z"/><path d="m20.998 61.024c0-.105 0-.212 0-.319 0-.985-1.527-.985-1.527 0v.319c-.001.986 1.527.986 1.527 0z"/><path d="m41.156 47.974c.984 0 .984-1.528 0-1.528-.987 0-.987 1.528 0 1.528z"/><path d="m55.542 42.245c0-.042 0-.084 0-.127 0-.985-1.527-.985-1.527 0v.127c0 .985 1.527.985 1.527 0z"/><path d="m86.927 61.661c.984 0 .984-1.528 0-1.528s-.984 1.528 0 1.528z"/><path d="m62.267 47.933c2.266-4.017 4.529-8.035 6.793-12.051.486-.859-.836-1.629-1.318-.771-2.266 4.017-4.529 8.035-6.793 12.051-.487.859.834 1.63 1.318.771z"/><path d="m61.689 75.421c1.076 2.287 2.154 4.574 3.23 6.859.23.488.953.064.725-.422-1.078-2.287-2.156-4.574-3.232-6.859-.231-.488-.954-.064-.723.422z"/><path d="m27.302 51.645c4.373 1.466 8.746 2.932 13.117 4.399.936.315 1.336-1.161.406-1.473-4.373-1.468-8.744-2.934-13.117-4.399-.937-.315-1.335 1.161-.406 1.473z"/><path d="m45.421 81.195c1.15-2.041 2.299-4.08 3.449-6.119.246-.436-.424-.826-.67-.391-1.148 2.039-2.299 4.078-3.449 6.117-.246.436.426.826.67.393z"/><path d="m84.062 33.109c.986 0 .986-1.528 0-1.528-.984.001-.984 1.528 0 1.528z"/></g><circle cx="54.937" cy="61.47" fill="#fff" r="2.865"/><path d="m94.871 58.877c0 22.15-17.951 40.101-40.1 40.101-22.15 0-40.102-17.951-40.102-40.101 0-22.149 17.951-40.101 40.102-40.101 22.148 0 40.1 17.952 40.1 40.101z" fill="url(#b)"/><path d="m94.371 63.127c0 22.15-17.951 40.101-40.1 40.101-22.15 0-40.102-17.951-40.102-40.101 0-22.149 17.951-40.101 40.102-40.101 22.148 0 40.1 17.952 40.1 40.101z" fill="url(#c)"/><path d="m9.826 38.171v53.104l46.072 26.551 46.074-26.551v-53.104l-46.074-26.553zm90.281 1.08v50.954l-44.209 25.48-44.211-25.48v-50.954l44.211-25.481z" opacity=".13"/></svg>