<svg enable-background="new 0 0 110.979 128.417" viewBox="0 0 110.979 128.417" xmlns="http://www.w3.org/2000/svg"><path d="m55.542 128.26-55.334-31.946v-63.894l55.334-31.947 55.333 31.947v63.893z" fill="#0a0f44"/><path d="m55.878 116.944-45.472-26.253v-52.508l45.472-26.253 45.473 26.253v52.507z" fill="#040933"/><g fill="#15ffab"><path d="m55.54 10.585-46.645 26.892v53.783l46.646 26.889 46.648-26.889v-53.783zm44.76 79.591-44.76 25.807-44.761-25.807v-51.606l44.761-25.806 44.76 25.806z"/><path d="m73.226 14.246-1.224-.7-.483.844 1.181.676-.285.498-1.181-.676-.957 1.672-.53-.303 2.01-3.513 1.754 1.004z"/><path d="m73.797 15.634-1.268 2.216-.512-.293 1.268-2.216zm-.062-1.259c.051-.089.128-.148.231-.176s.199-.016.291.036c.092.053.152.131.18.233.029.101.017.198-.036.29-.053.093-.131.153-.233.181-.101.029-.198.017-.29-.036-.093-.053-.153-.131-.181-.233-.028-.103-.016-.201.038-.295z"/><path d="m74.446 16.004.512.293-.113.198c.151-.045.273-.065.366-.059.096.005.195.036.297.094.135.077.251.202.348.374l-.503.334c-.057-.125-.132-.215-.224-.267-.279-.16-.539-.029-.781.393l-.657 1.149-.512-.293z"/><path d="m77.26 18.117-.552-.017c.011-.175-.032-.29-.131-.347-.047-.027-.096-.034-.147-.022s-.091.042-.118.091c-.049.085.002.225.151.422.205.272.326.485.364.637.037.152.009.312-.087.479-.122.214-.304.348-.544.402-.231.049-.455.011-.672-.113-.372-.213-.531-.545-.478-.996l.553.048c0 .141.008.235.023.282.029.093.087.165.174.214.173.099.304.07.395-.088.052-.091.034-.214-.054-.369-.037-.055-.074-.11-.112-.164s-.076-.109-.114-.165c-.107-.158-.17-.291-.189-.398-.024-.137.005-.278.088-.424.11-.193.267-.314.471-.364.207-.049.407-.018.6.092.281.161.408.428.379.8z"/><path d="m78.333 18.864-.995 1.738-.512-.293.995-1.738-.219-.125.273-.478.219.125.465-.812.512.293-.465.812.398.228-.273.478z"/><path d="m80.966 20.785-.816 1.427-.53-.303 2.01-3.513.601.344c.294.168.505.316.631.443.128.128.217.282.268.461.089.313.047.619-.125.919-.184.322-.438.515-.761.58s-.667-.007-1.033-.217zm.282-.492.198.113c.487.279.838.231 1.052-.144.207-.362.06-.687-.442-.975l-.175-.1z"/><path d="m83.306 21.076.512.293-.114.198c.15-.045.272-.065.366-.059.096.005.195.036.296.094.135.077.251.202.348.374l-.502.334c-.057-.125-.132-.214-.224-.267-.279-.16-.539-.029-.781.393l-.657 1.149-.512-.293z"/><path d="m85.561 22.366-1.268 2.216-.512-.293 1.268-2.216zm-.062-1.258c.051-.089.128-.148.231-.176s.199-.016.291.036c.092.053.152.131.18.233.029.101.017.198-.036.29s-.131.153-.233.181c-.101.029-.197.017-.29-.036s-.153-.131-.181-.233c-.029-.103-.016-.201.038-.295z"/><path d="m85.952 24.892 1.317.754-.276.482-2.332-1.335 2.43-.916-1.131-.647.274-.478 2.143 1.227z"/><path d="m90.056 26.57-1.588-.909c-.09.19-.114.368-.071.536.044.166.148.296.312.39.127.073.25.103.368.09.117-.014.274-.072.473-.176l.294.489c-.132.075-.258.133-.379.171-.12.039-.238.06-.353.063-.115.004-.228-.01-.341-.043-.112-.032-.226-.081-.342-.147-.331-.189-.535-.447-.614-.774-.078-.328-.016-.669.186-1.023.201-.35.46-.578.778-.684.318-.102.639-.06.962.124.326.187.524.438.595.754.07.314 0 .654-.209 1.019zm-.286-.719c.085-.314-.009-.549-.282-.705-.062-.036-.126-.059-.191-.072-.065-.012-.131-.013-.196-.003s-.128.031-.188.063c-.061.032-.118.075-.171.129z"/><path d="m23.29 44.478c-2.029 0-3.681-1.651-3.681-3.681 0-2.029 1.651-3.68 3.681-3.68 2.029 0 3.68 1.651 3.68 3.68.001 2.03-1.65 3.681-3.68 3.681zm0-6.479c-1.543 0-2.799 1.255-2.799 2.798s1.256 2.798 2.799 2.798 2.798-1.255 2.798-2.798c0-1.542-1.255-2.798-2.798-2.798z"/><path d="m24.175 43.914v1.191c0 .709 1.103.711 1.103 0 0-.397 0-.794 0-1.191-.001-.709-1.103-.71-1.103 0z"/><path d="m24.884 45.621h2.154c.709 0 .711-1.103 0-1.103-.718 0-1.436 0-2.154 0-.71.001-.711 1.103 0 1.103z"/><path d="m21.408 43.914v1.191c0 .709 1.103.711 1.103 0 0-.397 0-.794 0-1.191 0-.709-1.103-.71-1.103 0z"/><path d="m21.802 44.519c-.648 0-1.296 0-1.944 0-.709 0-.711 1.103 0 1.103h1.944c.709-.001.71-1.103 0-1.103z"/><path d="m27.05 45.635c.822-.024.711 1.543.716 2.082.006.709 1.109.711 1.103 0-.011-1.223-.146-3.232-1.819-3.184-.708.019-.711 1.122 0 1.102z"/><path d="m27.769 47.618v3.506c0 .709 1.103.711 1.103 0 0-1.169 0-2.338 0-3.506-.001-.71-1.103-.711-1.103 0z"/><path d="m27.799 51.198c.044.493.234 1.26-.228 1.603-.288.214-.714.269-.77-.167-.039-.298-.226-.548-.551-.551-.268-.003-.59.256-.551.551.07.539.265 1.026.775 1.286.428.219.939.172 1.368-.016.441-.194.846-.557 1.005-1.023.181-.53.105-1.137.057-1.683-.064-.701-1.167-.707-1.105 0z"/><path d="m25.558 47.994v6.444c0 .709 1.103.711 1.103 0 0-2.148 0-4.296 0-6.444 0-.709-1.103-.71-1.103 0z"/><path d="m21.835 44.519c-.718 0-1.436 0-2.154 0-.709 0-.711 1.103 0 1.103h2.154c.709-.001.71-1.103 0-1.103z"/><path d="m19.668 44.532c-1.672-.048-1.808 1.961-1.819 3.184-.006.71 1.096.71 1.103 0 .005-.54-.105-2.105.716-2.082.71.021.709-1.082 0-1.102z"/><path d="m17.847 47.618v3.506c0 .709 1.103.711 1.103 0 0-1.169 0-2.338 0-3.506 0-.71-1.103-.711-1.103 0z"/><path d="m17.816 51.198c-.048.546-.124 1.153.057 1.683.159.466.564.829 1.005 1.023.428.188.94.235 1.368.016.51-.26.705-.747.775-1.286.039-.298-.281-.548-.551-.551-.33-.003-.513.257-.551.551-.056.435-.482.381-.77.167-.462-.343-.272-1.111-.228-1.603.061-.706-1.042-.702-1.105 0z"/><path d="m20.058 47.994v6.444c0 .709 1.103.711 1.103 0 0-2.148 0-4.296 0-6.444-.001-.709-1.103-.71-1.103 0z"/><path d="m26.074 53.913c-1.83 0-3.66 0-5.489 0-.709 0-.711 1.103 0 1.103h5.489c.71-.001.711-1.103 0-1.103z"/><path d="m31.152 80.916c-2.029 0-3.68-1.651-3.68-3.68s1.651-3.68 3.68-3.68 3.68 1.651 3.68 3.68c.001 2.029-1.65 3.68-3.68 3.68zm0-6.478c-1.543 0-2.798 1.255-2.798 2.798s1.255 2.798 2.798 2.798 2.798-1.255 2.798-2.798c.001-1.543-1.255-2.798-2.798-2.798z"/><path d="m32.037 80.353v1.191c0 .709 1.103.711 1.103 0 0-.397 0-.794 0-1.191 0-.71-1.103-.711-1.103 0z"/><path d="m32.746 82.06h2.154c.709 0 .711-1.103 0-1.103-.718 0-1.436 0-2.154 0-.71 0-.711 1.103 0 1.103z"/><path d="m29.27 80.353v1.191c0 .709 1.103.711 1.103 0 0-.397 0-.794 0-1.191 0-.71-1.103-.711-1.103 0z"/><path d="m29.664 80.957c-.648 0-1.296 0-1.944 0-.709 0-.711 1.103 0 1.103h1.944c.709 0 .711-1.103 0-1.103z"/><path d="m34.913 82.073c.822-.024.711 1.543.716 2.082.006.709 1.109.711 1.103 0-.011-1.223-.146-3.232-1.819-3.184-.708.02-.711 1.122 0 1.102z"/><path d="m35.631 84.056v3.506c0 .709 1.103.711 1.103 0 0-1.169 0-2.338 0-3.506 0-.709-1.103-.71-1.103 0z"/><path d="m35.661 87.637c.044.493.234 1.26-.228 1.603-.288.214-.714.269-.77-.167-.039-.298-.226-.548-.551-.551-.268-.003-.59.256-.551.551.07.539.265 1.026.775 1.286.428.219.939.172 1.368-.016.441-.194.846-.557 1.005-1.023.181-.53.105-1.137.057-1.683-.064-.701-1.167-.708-1.105 0z"/><path d="m33.42 84.433v6.444c0 .709 1.103.711 1.103 0 0-2.148 0-4.296 0-6.444 0-.71-1.103-.711-1.103 0z"/><path d="m29.697 80.957c-.718 0-1.436 0-2.154 0-.709 0-.711 1.103 0 1.103h2.154c.71 0 .711-1.103 0-1.103z"/><path d="m27.53 80.97c-1.672-.048-1.808 1.961-1.819 3.184-.006.71 1.096.71 1.103 0 .005-.54-.105-2.105.716-2.082.71.021.709-1.081 0-1.102z"/><path d="m25.709 84.056v3.506c0 .709 1.103.711 1.103 0 0-1.169 0-2.338 0-3.506 0-.709-1.103-.71-1.103 0z"/><path d="m25.679 87.637c-.048.546-.124 1.153.057 1.683.159.465.564.829 1.005 1.023.428.188.94.235 1.368.016.51-.26.705-.747.775-1.286.039-.298-.281-.548-.551-.551-.33-.003-.513.257-.551.551-.056.435-.482.381-.77.167-.462-.343-.272-1.111-.228-1.603.06-.707-1.043-.703-1.105 0z"/><path d="m27.92 84.433v6.444c0 .709 1.103.711 1.103 0 0-2.148 0-4.296 0-6.444 0-.71-1.103-.711-1.103 0z"/><path d="m33.937 90.351c-1.83 0-3.66 0-5.489 0-.709 0-.711 1.103 0 1.103h5.489c.709 0 .71-1.103 0-1.103z"/><path d="m65.927 70.603c-2.029 0-3.68-1.651-3.68-3.68s1.651-3.681 3.68-3.681c2.03 0 3.681 1.651 3.681 3.681 0 2.029-1.652 3.68-3.681 3.68zm0-6.479c-1.543 0-2.798 1.255-2.798 2.798s1.255 2.798 2.798 2.798 2.799-1.255 2.799-2.798-1.256-2.798-2.799-2.798z"/><path d="m66.811 70.039v1.191c0 .709 1.103.711 1.103 0 0-.397 0-.794 0-1.191 0-.709-1.103-.71-1.103 0z"/><path d="m67.52 71.746h2.154c.709 0 .711-1.103 0-1.103-.718 0-1.436 0-2.154 0-.709.001-.71 1.103 0 1.103z"/><path d="m64.045 70.039v1.191c0 .709 1.103.711 1.103 0 0-.397 0-.794 0-1.191 0-.709-1.103-.71-1.103 0z"/><path d="m64.439 70.644c-.648 0-1.296 0-1.944 0-.709 0-.711 1.103 0 1.103h1.944c.709-.001.71-1.103 0-1.103z"/><path d="m69.687 71.759c.822-.024.712 1.543.716 2.082.006.709 1.108.711 1.103 0-.01-1.223-.147-3.232-1.819-3.184-.708.02-.711 1.123 0 1.102z"/><path d="m70.406 73.743v3.506c0 .709 1.103.711 1.103 0 0-1.169 0-2.338 0-3.506-.001-.71-1.103-.711-1.103 0z"/><path d="m70.436 77.323c.043.493.234 1.26-.228 1.603-.288.214-.714.269-.77-.167-.039-.298-.226-.548-.551-.551-.268-.003-.59.256-.551.551.07.539.265 1.026.775 1.286.428.219.939.172 1.368-.016.441-.194.845-.557 1.005-1.023.181-.53.105-1.137.057-1.683-.064-.701-1.167-.708-1.105 0z"/><path d="m68.195 74.119v6.444c0 .709 1.103.711 1.103 0 0-2.148 0-4.296 0-6.444 0-.709-1.103-.711-1.103 0z"/><path d="m64.472 70.644c-.718 0-1.436 0-2.154 0-.709 0-.711 1.103 0 1.103h2.154c.709-.001.71-1.103 0-1.103z"/><path d="m62.305 70.657c-1.672-.048-1.809 1.961-1.819 3.184-.006.71 1.097.71 1.103 0 .004-.54-.105-2.105.716-2.082.71.021.709-1.082 0-1.102z"/><path d="m60.484 73.743v3.506c0 .709 1.103.711 1.103 0 0-1.169 0-2.338 0-3.506 0-.71-1.103-.711-1.103 0z"/><path d="m60.453 77.323c-.048.546-.124 1.153.057 1.683.159.465.564.829 1.005 1.023.428.188.939.235 1.368.016.51-.26.705-.747.775-1.286.039-.298-.281-.549-.551-.551-.33-.003-.513.257-.551.551-.056.435-.483.381-.77.167-.462-.343-.272-1.11-.228-1.603.06-.706-1.043-.702-1.105 0z"/><path d="m62.694 74.119v6.444c0 .709 1.103.711 1.103 0 0-2.148 0-4.296 0-6.444 0-.709-1.103-.711-1.103 0z"/><path d="m68.711 80.038c-1.83 0-3.66 0-5.49 0-.709 0-.711 1.103 0 1.103h5.49c.71-.001.711-1.103 0-1.103z"/><path d="m43.707 54.458c-2.029 0-3.68-1.651-3.68-3.68s1.651-3.681 3.68-3.681 3.681 1.651 3.681 3.681-1.652 3.68-3.681 3.68zm0-6.478c-1.543 0-2.798 1.255-2.798 2.798s1.255 2.798 2.798 2.798 2.799-1.255 2.799-2.798c-.001-1.543-1.256-2.798-2.799-2.798z"/><path d="m44.592 53.895v1.191c0 .709 1.103.711 1.103 0 0-.397 0-.794 0-1.191-.001-.709-1.103-.71-1.103 0z"/><path d="m45.3 55.602h2.154c.709 0 .711-1.103 0-1.103-.718 0-1.436 0-2.154 0-.709.001-.71 1.103 0 1.103z"/><path d="m41.825 53.895v1.191c0 .709 1.103.711 1.103 0 0-.397 0-.794 0-1.191 0-.709-1.103-.71-1.103 0z"/><path d="m42.219 54.5c-.648 0-1.296 0-1.944 0-.709 0-.711 1.103 0 1.103h1.944c.709-.001.71-1.103 0-1.103z"/><path d="m47.467 55.615c.822-.024.712 1.543.716 2.082.006.709 1.108.711 1.103 0-.01-1.223-.147-3.232-1.819-3.184-.708.02-.711 1.123 0 1.102z"/><path d="m48.186 57.599v3.506c0 .709 1.103.711 1.103 0 0-1.169 0-2.338 0-3.506-.001-.71-1.103-.711-1.103 0z"/><path d="m48.216 61.179c.043.493.234 1.26-.228 1.603-.288.214-.714.269-.77-.167-.039-.298-.226-.548-.551-.551-.268-.003-.59.256-.551.551.07.539.265 1.026.775 1.286.428.219.939.172 1.368-.016.441-.194.845-.557 1.005-1.023.181-.53.105-1.137.057-1.683-.064-.701-1.167-.708-1.105 0z"/><path d="m45.975 57.975v6.443c0 .709 1.103.711 1.103 0 0-2.148 0-4.296 0-6.443 0-.71-1.103-.711-1.103 0z"/><path d="m42.252 54.5c-.718 0-1.436 0-2.154 0-.709 0-.711 1.103 0 1.103h2.154c.709-.001.71-1.103 0-1.103z"/><path d="m40.085 54.513c-1.672-.048-1.809 1.961-1.819 3.184-.006.71 1.097.71 1.103 0 .004-.54-.105-2.105.716-2.082.71.021.709-1.082 0-1.102z"/><path d="m38.264 57.599v3.506c0 .709 1.103.711 1.103 0 0-1.169 0-2.338 0-3.506 0-.71-1.103-.711-1.103 0z"/><path d="m38.233 61.179c-.048.546-.124 1.153.057 1.683.159.465.564.829 1.005 1.023.428.188.939.235 1.368.016.51-.26.705-.747.775-1.286.039-.298-.281-.548-.551-.551-.33-.003-.513.257-.551.551-.056.435-.483.381-.77.167-.462-.343-.272-1.11-.228-1.603.06-.707-1.043-.702-1.105 0z"/><path d="m40.475 57.975v6.443c0 .709 1.103.711 1.103 0 0-2.148 0-4.296 0-6.443-.001-.71-1.103-.711-1.103 0z"/><path d="m46.491 63.893c-1.83 0-3.66 0-5.49 0-.709 0-.711 1.103 0 1.103h5.49c.71 0 .711-1.103 0-1.103z"/><path d="m57.785 29.63c-2.029 0-3.68-1.651-3.68-3.681 0-2.029 1.651-3.68 3.68-3.68s3.68 1.651 3.68 3.68c0 2.03-1.651 3.681-3.68 3.681zm0-6.479c-1.543 0-2.798 1.255-2.798 2.798s1.255 2.798 2.798 2.798 2.798-1.255 2.798-2.798-1.255-2.798-2.798-2.798z"/><path d="m58.669 29.066v1.191c0 .709 1.103.711 1.103 0 0-.397 0-.794 0-1.191 0-.709-1.103-.711-1.103 0z"/><path d="m59.378 30.773h2.154c.709 0 .711-1.103 0-1.103-.718 0-1.436 0-2.154 0-.709 0-.71 1.103 0 1.103z"/><path d="m55.903 29.066v1.191c0 .709 1.103.711 1.103 0 0-.397 0-.794 0-1.191 0-.709-1.103-.711-1.103 0z"/><path d="m56.297 29.67c-.648 0-1.296 0-1.944 0-.709 0-.711 1.103 0 1.103h1.944c.709 0 .71-1.103 0-1.103z"/><path d="m61.545 30.786c.822-.024.712 1.543.716 2.082.006.709 1.108.711 1.103 0-.01-1.223-.147-3.232-1.819-3.184-.708.02-.711 1.123 0 1.102z"/><path d="m62.264 32.769v3.506c0 .709 1.103.711 1.103 0 0-1.169 0-2.338 0-3.506-.001-.709-1.103-.71-1.103 0z"/><path d="m62.294 36.35c.043.493.234 1.26-.228 1.603-.288.214-.714.269-.77-.167-.039-.298-.226-.548-.551-.551-.268-.003-.59.256-.551.551.07.539.265 1.026.775 1.286.428.219.939.172 1.368-.016.441-.194.845-.557 1.005-1.023.181-.53.105-1.137.057-1.683-.064-.701-1.167-.708-1.105 0z"/><path d="m60.053 33.146v6.443c0 .709 1.103.711 1.103 0 0-2.148 0-4.296 0-6.443-.001-.71-1.103-.711-1.103 0z"/><path d="m56.33 29.67c-.718 0-1.436 0-2.154 0-.709 0-.711 1.103 0 1.103h2.154c.709 0 .711-1.103 0-1.103z"/><path d="m54.163 29.684c-1.672-.048-1.809 1.961-1.819 3.184-.006.71 1.097.71 1.103 0 .004-.54-.105-2.105.716-2.082.71.021.709-1.082 0-1.102z"/><path d="m52.342 32.769v3.506c0 .709 1.103.711 1.103 0 0-1.169 0-2.338 0-3.506 0-.709-1.103-.71-1.103 0z"/><path d="m52.311 36.35c-.048.546-.124 1.153.057 1.683.159.465.564.829 1.005 1.023.428.188.939.235 1.368.016.51-.26.705-.747.775-1.286.039-.298-.281-.549-.551-.551-.33-.003-.513.257-.551.551-.056.435-.483.381-.77.167-.462-.343-.272-1.11-.228-1.603.06-.707-1.043-.702-1.105 0z"/><path d="m54.553 33.146v6.443c0 .709 1.103.711 1.103 0 0-2.148 0-4.296 0-6.443-.001-.71-1.103-.711-1.103 0z"/><path d="m60.569 39.064c-1.83 0-3.66 0-5.49 0-.709 0-.711 1.103 0 1.103h5.49c.71 0 .711-1.103 0-1.103z"/><path d="m87.026 80.505c-2.029 0-3.68-1.651-3.68-3.68s1.651-3.68 3.68-3.68 3.681 1.651 3.681 3.68c-.001 2.029-1.652 3.68-3.681 3.68zm0-6.479c-1.543 0-2.798 1.255-2.798 2.798s1.255 2.798 2.798 2.798 2.799-1.255 2.799-2.798c-.001-1.543-1.256-2.798-2.799-2.798z"/><path d="m87.91 79.941v1.191c0 .709 1.103.711 1.103 0 0-.397 0-.794 0-1.191 0-.709-1.103-.711-1.103 0z"/><path d="m88.619 81.648h2.154c.709 0 .711-1.103 0-1.103-.718 0-1.436 0-2.154 0-.709 0-.71 1.103 0 1.103z"/><path d="m85.144 79.941v1.191c0 .709 1.103.711 1.103 0 0-.397 0-.794 0-1.191 0-.709-1.103-.711-1.103 0z"/><path d="m85.538 80.545c-.648 0-1.296 0-1.944 0-.709 0-.711 1.103 0 1.103h1.944c.709 0 .71-1.103 0-1.103z"/><path d="m90.786 81.661c.822-.024.712 1.543.716 2.082.006.709 1.108.711 1.103 0-.01-1.223-.147-3.232-1.819-3.184-.708.02-.711 1.123 0 1.102z"/><path d="m91.505 83.644v3.506c0 .709 1.103.711 1.103 0 0-1.169 0-2.338 0-3.506-.001-.709-1.103-.71-1.103 0z"/><path d="m91.535 87.225c.043.493.234 1.26-.228 1.603-.288.214-.714.269-.77-.167-.039-.298-.226-.548-.551-.551-.268-.003-.59.256-.551.551.07.539.265 1.026.775 1.286.428.219.939.172 1.368-.016.441-.194.845-.557 1.005-1.023.181-.53.105-1.137.057-1.683-.064-.701-1.167-.708-1.105 0z"/><path d="m89.294 84.021v6.444c0 .709 1.103.711 1.103 0 0-2.148 0-4.296 0-6.444-.001-.71-1.103-.711-1.103 0z"/><path d="m85.571 80.545c-.718 0-1.436 0-2.154 0-.709 0-.711 1.103 0 1.103h2.154c.709 0 .71-1.103 0-1.103z"/><path d="m83.404 80.559c-1.672-.048-1.809 1.961-1.819 3.184-.006.71 1.097.71 1.103 0 .004-.54-.105-2.105.716-2.082.709.021.709-1.082 0-1.102z"/><path d="m81.583 83.644v3.506c0 .709 1.103.711 1.103 0 0-1.169 0-2.338 0-3.506 0-.709-1.103-.71-1.103 0z"/><path d="m81.552 87.225c-.048.546-.124 1.153.057 1.683.159.465.564.829 1.005 1.023.428.188.939.235 1.368.016.51-.26.705-.747.775-1.286.039-.298-.281-.548-.551-.551-.33-.003-.513.257-.551.551-.056.435-.482.381-.77.167-.462-.343-.272-1.11-.228-1.603.06-.707-1.043-.702-1.105 0z"/><path d="m83.793 84.021v6.444c0 .709 1.103.711 1.103 0 0-2.148 0-4.296 0-6.444 0-.71-1.103-.711-1.103 0z"/><path d="m89.81 89.939c-1.83 0-3.66 0-5.49 0-.709 0-.711 1.103 0 1.103h5.49c.71 0 .711-1.103 0-1.103z"/><path d="m83.143 46.811c-2.029 0-3.68-1.651-3.68-3.681 0-2.029 1.651-3.68 3.68-3.68s3.681 1.651 3.681 3.68c0 2.03-1.651 3.681-3.681 3.681zm0-6.478c-1.543 0-2.798 1.255-2.798 2.798s1.255 2.798 2.798 2.798 2.799-1.255 2.799-2.798-1.256-2.798-2.799-2.798z"/><path d="m84.028 46.248v1.191c0 .709 1.103.711 1.103 0 0-.397 0-.794 0-1.191 0-.71-1.103-.711-1.103 0z"/><path d="m84.737 47.955h2.154c.709 0 .711-1.103 0-1.103-.718 0-1.436 0-2.154 0-.709 0-.711 1.103 0 1.103z"/><path d="m81.262 46.248v1.191c0 .709 1.103.711 1.103 0 0-.397 0-.794 0-1.191-.001-.71-1.103-.711-1.103 0z"/><path d="m81.655 46.852c-.648 0-1.296 0-1.944 0-.709 0-.711 1.103 0 1.103h1.944c.71 0 .711-1.103 0-1.103z"/><path d="m86.904 47.968c.822-.024.712 1.543.716 2.082.006.709 1.108.711 1.103 0-.01-1.223-.147-3.232-1.819-3.184-.708.02-.711 1.122 0 1.102z"/><path d="m87.622 49.951v3.506c0 .709 1.103.711 1.103 0 0-1.169 0-2.338 0-3.506 0-.709-1.103-.71-1.103 0z"/><path d="m87.653 53.532c.043.493.234 1.26-.228 1.603-.288.214-.714.269-.77-.167-.039-.298-.226-.548-.551-.551-.268-.003-.59.256-.551.551.07.539.265 1.026.775 1.286.428.219.939.172 1.368-.016.441-.194.845-.557 1.005-1.023.181-.53.105-1.137.057-1.683-.064-.701-1.168-.708-1.105 0z"/><path d="m85.412 50.328v6.444c0 .709 1.103.711 1.103 0 0-2.148 0-4.296 0-6.444-.001-.71-1.103-.711-1.103 0z"/><path d="m81.688 46.852c-.718 0-1.436 0-2.154 0-.709 0-.711 1.103 0 1.103h2.154c.71 0 .711-1.103 0-1.103z"/><path d="m79.521 46.865c-1.671-.048-1.809 1.961-1.819 3.184-.006.71 1.097.71 1.103 0 .004-.54-.105-2.105.716-2.082.71.021.71-1.081 0-1.102z"/><path d="m77.701 49.951v3.506c0 .709 1.103.711 1.103 0 0-1.169 0-2.338 0-3.506-.001-.709-1.103-.71-1.103 0z"/><path d="m77.67 53.532c-.048.546-.124 1.153.057 1.683.159.465.564.829 1.005 1.023.428.188.939.235 1.368.016.51-.26.705-.747.775-1.286.039-.298-.281-.548-.551-.551-.33-.003-.513.257-.551.551-.056.435-.482.381-.77.167-.462-.343-.272-1.11-.228-1.603.06-.707-1.043-.703-1.105 0z"/><path d="m79.911 50.328v6.444c0 .709 1.103.711 1.103 0 0-2.148 0-4.296 0-6.444 0-.71-1.103-.711-1.103 0z"/><path d="m85.928 56.246c-1.83 0-3.66 0-5.49 0-.709 0-.711 1.103 0 1.103h5.49c.709 0 .711-1.103 0-1.103z"/><path d="m55.758 97.555c-2.029 0-3.68-1.651-3.68-3.68s1.651-3.68 3.68-3.68 3.68 1.651 3.68 3.68-1.651 3.68-3.68 3.68zm0-6.478c-1.543 0-2.798 1.255-2.798 2.798s1.255 2.798 2.798 2.798 2.798-1.255 2.798-2.798-1.255-2.798-2.798-2.798z"/><path d="m56.643 96.992v1.191c0 .709 1.103.711 1.103 0 0-.397 0-.794 0-1.191-.001-.71-1.103-.711-1.103 0z"/><path d="m57.352 98.698h2.154c.709 0 .711-1.103 0-1.103-.718 0-1.436 0-2.154 0-.71.001-.711 1.103 0 1.103z"/><path d="m53.876 96.992v1.191c0 .709 1.103.711 1.103 0 0-.397 0-.794 0-1.191 0-.71-1.103-.711-1.103 0z"/><path d="m54.27 97.596c-.648 0-1.296 0-1.944 0-.709 0-.711 1.103 0 1.103h1.944c.709-.001.711-1.103 0-1.103z"/><path d="m59.519 98.712c.822-.024.712 1.543.716 2.082.006.709 1.108.711 1.103 0-.01-1.223-.147-3.232-1.819-3.184-.708.019-.711 1.122 0 1.102z"/><path d="m60.237 100.695v3.506c0 .709 1.103.711 1.103 0 0-1.169 0-2.338 0-3.506 0-.71-1.103-.711-1.103 0z"/><path d="m60.267 104.275c.043.493.234 1.26-.228 1.603-.288.214-.714.269-.77-.167-.039-.298-.226-.548-.551-.551-.268-.003-.59.256-.551.551.07.539.265 1.026.775 1.286.428.219.939.172 1.368-.016.441-.194.845-.557 1.005-1.023.181-.53.105-1.137.057-1.683-.064-.701-1.167-.707-1.105 0z"/><path d="m58.026 101.071v6.444c0 .709 1.103.711 1.103 0 0-2.148 0-4.296 0-6.444 0-.709-1.103-.71-1.103 0z"/><path d="m54.303 97.596c-.718 0-1.436 0-2.154 0-.709 0-.711 1.103 0 1.103h2.154c.709-.001.711-1.103 0-1.103z"/><path d="m52.136 97.609c-1.672-.048-1.809 1.961-1.819 3.184-.006.71 1.097.71 1.103 0 .004-.54-.105-2.105.716-2.082.71.021.709-1.082 0-1.102z"/><path d="m50.315 100.695v3.506c0 .709 1.103.711 1.103 0 0-1.169 0-2.338 0-3.506 0-.71-1.103-.711-1.103 0z"/><path d="m50.285 104.275c-.048.546-.124 1.153.057 1.683.159.465.564.829 1.005 1.023.428.188.939.235 1.368.016.51-.26.705-.747.775-1.286.039-.298-.281-.548-.551-.551-.33-.003-.513.257-.551.551-.056.435-.482.381-.77.167-.462-.343-.272-1.11-.228-1.603.06-.706-1.043-.702-1.105 0z"/><path d="m52.526 101.071v6.444c0 .709 1.103.711 1.103 0 0-2.148 0-4.296 0-6.444-.001-.709-1.103-.71-1.103 0z"/><path d="m58.542 106.99c-1.83 0-3.66 0-5.489 0-.709 0-.711 1.103 0 1.103h5.489c.71-.001.711-1.103 0-1.103z"/></g><path d="m59.348 89.235 4.307-4.307c.502-.502-.277-1.282-.78-.78-1.436 1.436-2.872 2.872-4.307 4.307-.502.503.277 1.282.78.78z" fill="#fff"/><path d="m87.651 71.427c-1.192-4.095-2.384-8.191-3.577-12.286-.198-.68-1.262-.391-1.063.293 1.193 4.095 2.385 8.19 3.577 12.286.197.68 1.262.391 1.063-.293z" fill="#fff"/><path d="m29.027 70.587c-1.192-4.095-2.384-8.191-3.577-12.286-.198-.68-1.262-.391-1.063.293 1.193 4.095 2.385 8.19 3.577 12.286.198.68 1.262.391 1.063-.293z" fill="#fff"/><path d="m81.999 73.591c-3.082-1.821-6.163-3.642-9.245-5.463-.612-.362-1.168.591-.557.952 3.082 1.821 6.164 3.642 9.245 5.463.613.362 1.168-.591.557-.952z" fill="#fff"/><path d="m61.173 62.985c-3.072-1.667-6.144-3.334-9.216-5.001-.624-.339-1.181.613-.557.952 3.072 1.667 6.144 3.334 9.216 5.001.624.339 1.181-.613.557-.952z" fill="#fff"/><path d="m37.788 51.443c-1.959-.798-3.918-1.597-5.876-2.395-.657-.268-.943.799-.293 1.063 1.959.798 3.918 1.596 5.876 2.395.657.268.943-.798.293-1.063z" fill="#fff"/><path d="m36.482 65.135c-.99 1.869-1.979 3.739-2.968 5.609-.332.627.62 1.185.952.557.989-1.87 1.979-3.739 2.968-5.609.332-.627-.619-1.185-.952-.557z" fill="#fff"/><path d="m53.739 42.594c-1.763 1.169-3.526 2.338-5.288 3.507-.589.391-.037 1.346.557.952 1.763-1.169 3.525-2.338 5.288-3.507.588-.39.036-1.345-.557-.952z" fill="#fff"/><path d="m74.856 57.513c-1.763 1.169-3.525 2.338-5.288 3.507-.589.391-.037 1.346.557.952 1.763-1.169 3.525-2.338 5.288-3.508.588-.39.036-1.345-.557-.951z" fill="#fff"/><path d="m78.403 39.452c-3.762-2.29-7.525-4.58-11.287-6.869-.608-.37-1.162.583-.557.952 3.762 2.29 7.525 4.58 11.287 6.869.608.37 1.163-.583.557-.952z" fill="#fff"/><path d="m48.645 31.946c-5.944 3.224-11.888 6.447-17.833 9.671-.624.338-.068 1.291.557.952 5.944-3.224 11.888-6.447 17.833-9.671.624-.338.068-1.29-.557-.952z" fill="#fff"/><path d="m65.378 60.361c-1.963-5.519-3.925-11.039-5.888-16.558-.236-.664-1.302-.378-1.063.293 1.963 5.519 3.925 11.039 5.888 16.558.236.664 1.302.378 1.063-.293z" fill="#fff"/><path d="m61.521 92.739c6.146-1.541 12.292-3.082 18.438-4.623.688-.172.396-1.236-.293-1.063-6.146 1.541-12.292 3.082-18.438 4.623-.688.172-.397 1.235.293 1.063z" fill="#fff"/><path d="m51.505 89.714c-4.471-1.518-8.942-3.035-13.413-4.553-.673-.229-.962.836-.293 1.063 4.471 1.518 8.942 3.035 13.413 4.553.674.229.963-.836.293-1.063z" fill="#fff"/><circle cx="92.436" cy="27.384" fill="#15ffab" r=".91"/><circle cx="68.762" cy="13.376" fill="#15ffab" r=".91"/><path d="m10.243 30.118-.283.501c-.16-.093-.289-.14-.386-.141-.104-.005-.215.027-.335.096-.147.085-.245.196-.294.335-.05.138-.039.268.032.393.098.171.305.236.62.194l.432-.058c.351-.048.64-.027.867.063s.41.256.548.497c.185.323.231.651.137.986-.095.337-.303.597-.624.782-.305.175-.608.229-.91.163-.299-.068-.567-.252-.803-.551l.468-.426c.143.192.267.31.373.354.196.089.399.073.608-.047.165-.095.27-.229.316-.402s.02-.345-.078-.515c-.039-.068-.084-.125-.136-.171-.051-.046-.111-.081-.179-.106s-.145-.04-.233-.045-.186-.001-.296.011l-.42.054c-.597.073-1.008-.086-1.232-.477-.151-.264-.177-.542-.078-.835.099-.295.298-.528.598-.7.406-.234.835-.219 1.288.045z" fill="#fff"/><path d="m11.841 31.679c-.184-.32-.225-.657-.125-1.013s.314-.628.643-.817c.33-.19.676-.238 1.036-.144.357.095.63.307.819.636.191.332.236.676.136 1.031-.102.355-.321.629-.656.821-.332.191-.675.236-1.03.138-.354-.095-.628-.313-.823-.652zm.528-.292c.127.221.287.362.479.423.196.06.393.034.592-.08.2-.115.323-.271.369-.469.046-.197.007-.404-.117-.619s-.282-.353-.476-.413c-.196-.061-.394-.034-.592.08-.196.112-.316.269-.363.469-.046.2-.01.403.108.609z" fill="#fff"/><path d="m15.895 28.026.39.68c-.198-.075-.359-.113-.482-.113-.122-.002-.245.032-.368.102-.192.11-.313.27-.363.478s-.016.413.1.617c.119.207.278.343.478.406.201.062.397.038.59-.073.123-.071.216-.159.279-.266.061-.103.111-.265.148-.484l.388.675c-.146.227-.323.4-.53.519-.343.197-.693.251-1.05.162-.358-.091-.632-.301-.822-.631s-.233-.676-.13-1.037.324-.639.663-.835c.219-.127.455-.193.709-.2z" fill="#fff"/><path d="m15.729 26.77c-.051-.089-.063-.185-.035-.288s.087-.18.178-.232c.093-.053.19-.066.293-.038.102.026.179.085.232.178.053.092.066.19.038.292-.026.102-.085.179-.178.232-.092.053-.19.066-.293.038-.103-.027-.181-.088-.235-.182zm1.118.582 1.272 2.214-.511.294-1.272-2.214z" fill="#fff"/><path d="m19.127 26.043.514-.295 1.272 2.214-.514.295-.133-.232c-.097.318-.267.547-.51.686-.306.176-.623.211-.95.104-.328-.112-.589-.337-.783-.675-.191-.332-.25-.665-.179-1.001.072-.335.256-.589.555-.76.257-.148.55-.175.876-.08zm-.582 1.797c.122.212.278.352.468.42.194.068.38.051.557-.051.189-.109.305-.262.347-.459.039-.202-.001-.407-.12-.614-.119-.208-.276-.345-.47-.413-.193-.065-.382-.044-.568.063-.176.101-.284.252-.326.453-.04.202-.002.403.112.601z" fill="#fff"/><path d="m19.864 23.458 2.205 3.839-.511.294-2.205-3.839z" fill="#fff"/><path d="m23.489 22.475 1.73 3.012-.53.304-1.73-3.012-.807.463-.286-.498 2.141-1.23.286.498z" fill="#fff"/><path d="m25.127 22.596.511-.294.114.198c.037-.152.082-.268.134-.346.053-.08.129-.15.231-.208.135-.077.301-.114.499-.111l.035.603c-.137-.014-.252.006-.344.059-.279.16-.297.451-.055.872l.659 1.148-.511.294z" fill="#fff"/><path d="m28.5 20.658.514-.295 1.271 2.214-.514.295-.133-.232c-.097.318-.267.547-.51.686-.306.176-.623.211-.95.104-.328-.112-.589-.337-.783-.675-.191-.332-.25-.665-.179-1.001.071-.335.256-.589.555-.76.258-.148.55-.175.876-.08zm-.582 1.797c.122.212.278.352.468.42.194.068.38.051.557-.051.189-.109.305-.262.347-.459.039-.202-.001-.407-.12-.614-.119-.208-.276-.345-.47-.413-.193-.065-.382-.044-.568.063-.176.101-.284.252-.326.453-.039.203-.002.403.112.601z" fill="#fff"/><path d="m31.437 19.098.39.68c-.198-.075-.359-.113-.482-.113-.122-.002-.245.032-.368.102-.192.11-.313.27-.363.478s-.016.413.1.617c.119.207.278.343.478.405.201.062.398.038.59-.073.123-.071.216-.159.279-.266.061-.103.111-.265.148-.484l.388.675c-.146.227-.323.4-.53.519-.342.197-.692.251-1.05.162-.358-.091-.632-.301-.822-.631s-.233-.676-.131-1.037c.103-.361.324-.639.663-.835.22-.126.456-.192.71-.199z" fill="#fff"/><path d="m31.456 16.799 1.344 2.341.309-1.13.687-.394-.428 1.482 1.77.691-.664.381-1.268-.514-.035.129.49.852-.511.294-2.205-3.839z" fill="#fff"/><path d="m35.159 15.11 2.261 1.821-.491-3.065 2.359 1.991-.377-2.903.575-.33.575 4.633-2.331-1.968.489 3.029-3.636-2.878z" fill="#fff"/><path d="m39.963 12.849c-.051-.089-.063-.185-.035-.288s.087-.18.178-.232c.092-.053.19-.066.292-.038.102.026.179.085.232.178.053.092.066.19.038.292-.026.102-.085.179-.178.232-.092.053-.19.066-.293.038-.101-.027-.18-.088-.234-.182zm1.118.582 1.272 2.214-.511.294-1.272-2.214z" fill="#fff"/><path d="m41.729 13.059.514-.295.117.205c.077-.28.228-.484.452-.613.258-.148.505-.182.742-.103.204.067.395.256.574.568l.78 1.357-.514.295-.71-1.236c-.125-.218-.242-.352-.351-.4-.108-.051-.24-.032-.396.058-.17.098-.258.223-.265.376-.006.151.07.364.228.64l.614 1.068-.514.294z" fill="#fff"/><path d="m44.281 11.593.513-.295.118.205c.077-.28.228-.485.452-.613.258-.148.505-.182.742-.103.204.067.395.256.574.568l.78 1.357-.514.295-.71-1.236c-.125-.218-.242-.352-.351-.4-.108-.051-.24-.031-.396.058-.17.097-.258.223-.265.376-.006.151.07.364.228.64l.614 1.068-.514.295z" fill="#fff"/><path d="m49.554 10.196-1.586.911c.118.174.26.285.427.332.166.046.33.022.494-.072.127-.073.215-.164.264-.273.047-.107.076-.273.086-.497l.57-.007c-.001.152-.016.29-.044.413-.028.124-.069.236-.124.337s-.124.192-.209.273-.185.155-.3.221c-.33.19-.656.236-.978.139-.323-.099-.586-.325-.788-.678-.201-.35-.267-.689-.197-1.017.073-.326.27-.582.593-.767.326-.187.643-.231.952-.132.306.098.564.33.774.695zm-.764-.116c-.228-.232-.478-.27-.751-.113-.062.036-.115.079-.159.129s-.078.106-.102.167-.038.126-.041.194.005.139.025.212z" fill="#fff"/><path d="m49.409 8.648.511-.294.114.198c.037-.152.082-.268.134-.346.053-.08.129-.15.231-.208.135-.078.301-.114.499-.111l.035.603c-.137-.014-.252.006-.344.059-.279.16-.297.451-.055.872l.659 1.148-.511.294z" fill="#fff"/><path d="m74.928 109.88.412-.239.846 1.457c.07-.217.193-.377.37-.479.201-.117.4-.145.597-.085.169.054.325.205.47.454l.635 1.093-.412.239-.612-1.055c-.083-.143-.168-.232-.256-.266-.088-.035-.188-.019-.3.046-.144.084-.22.187-.226.31-.005.124.056.295.184.515l.501.862-.412.239z" fill="#fff"/><path d="m79.059 109.232.414-.24 1.036 1.784-.414.24-.109-.187c-.078.257-.214.442-.409.556-.247.143-.502.173-.767.088-.266-.089-.477-.27-.635-.542-.155-.267-.205-.537-.148-.808.056-.271.205-.476.445-.616.208-.12.443-.143.707-.068zm-.463 1.454c.099.171.226.283.38.338.157.054.307.04.45-.043.153-.089.245-.213.278-.372.031-.163-.002-.328-.099-.496-.097-.167-.224-.278-.381-.332-.156-.052-.308-.034-.459.053-.142.082-.229.205-.262.367-.031.163 0 .325.093.485z" fill="#fff"/><path d="m81.425 107.961.318.547c-.161-.06-.29-.09-.39-.089-.099-.002-.198.027-.296.084-.155.09-.252.219-.292.387-.039.168-.012.334.083.498.097.167.226.276.388.326.162.049.321.029.476-.061.099-.057.174-.13.225-.216.049-.084.088-.215.118-.392l.316.544c-.117.184-.259.324-.426.421-.276.16-.558.205-.847.134-.29-.072-.512-.241-.666-.507-.155-.266-.191-.545-.109-.837s.259-.518.533-.677c.174-.101.364-.156.569-.162z" fill="#fff"/><path d="m81.432 106.104 1.095 1.886.245-.914.553-.321-.34 1.199 1.432.552-.535.31-1.027-.41-.028.104.399.687-.412.239-1.796-3.093z" fill="#fff"/><path d="m84.962 105.804.414-.24 1.036 1.783-.414.24-.109-.187c-.077.257-.214.442-.409.556-.247.143-.502.173-.767.088-.265-.089-.477-.27-.635-.542-.155-.267-.205-.537-.148-.808.056-.271.205-.476.445-.616.207-.12.443-.143.707-.068zm-.463 1.454c.099.171.226.283.38.338.157.054.307.04.45-.043.153-.089.245-.213.278-.372.031-.163-.002-.328-.099-.496-.097-.167-.224-.278-.381-.332-.156-.052-.308-.034-.459.053-.142.082-.229.205-.262.367-.031.164 0 .325.093.485z" fill="#fff"/><path d="m86.544 105.4.812 1.399-.412.239-.812-1.399-.176.102-.223-.385.176-.102-.38-.654.412-.239.38.654.32-.186.223.385z" fill="#fff"/><path d="m86.162 103.358.412-.239.846 1.457c.07-.217.193-.377.37-.479.201-.117.4-.145.597-.085.168.054.325.205.47.454l.635 1.093-.412.239-.612-1.055c-.083-.143-.168-.232-.256-.266-.088-.035-.188-.019-.3.046-.144.084-.219.187-.226.31-.005.124.056.295.184.515l.501.862-.412.239z" fill="#fff"/><path d="m89.404 104.401c-.15-.257-.185-.53-.105-.818.08-.287.252-.508.517-.662.266-.155.545-.195.836-.121.289.076.51.246.664.511.155.267.193.545.114.833-.081.287-.257.509-.527.666-.267.155-.545.194-.832.115-.286-.076-.508-.251-.667-.524zm.425-.238c.103.178.233.292.388.34.158.048.318.026.478-.067.161-.094.26-.22.296-.38s.004-.326-.097-.5c-.101-.173-.229-.284-.386-.332-.159-.048-.318-.026-.478.067-.158.091-.255.218-.291.379-.036.163-.006.327.09.493z" fill="#fff"/><path d="m91.232 102.164.414-.24.096.165c.061-.226.182-.392.363-.497.208-.12.407-.149.599-.086.165.053.32.205.466.457l.635 1.093-.414.24-.578-.996c-.102-.176-.197-.283-.285-.322-.087-.041-.194-.025-.32.048-.137.079-.208.181-.212.305-.004.122.058.294.187.516l.5.861-.414.24z" fill="#fff"/><path d="m95.928 101.286 1.053-.611.233.401-1.899 1.102.292-1.758c.028-.174.049-.324.064-.449.015-.124.023-.226.023-.305.003-.155-.022-.278-.075-.37-.076-.132-.187-.215-.332-.251-.145-.035-.285-.013-.422.066-.286.166-.351.43-.196.792l-.425.247c-.278-.636-.15-1.108.384-1.418.258-.15.521-.193.791-.131.271.062.476.213.617.455.089.154.136.328.14.524.003.101-.005.227-.023.379-.019.152-.047.336-.086.551z" fill="#fff"/><path d="m96.863 99.364c-.262-.451-.365-.871-.311-1.261.047-.352.204-.606.471-.761s.565-.166.895-.032c.366.147.683.451.952.914.268.462.375.888.321 1.278-.047.352-.204.605-.47.76s-.565.166-.897.033c-.365-.147-.686-.457-.961-.931zm.421-.241c.182.314.388.543.617.687.227.141.425.162.593.064.167-.097.247-.279.238-.547-.008-.266-.101-.554-.281-.863-.179-.309-.383-.533-.611-.673-.228-.139-.425-.16-.592-.063-.166.096-.245.278-.238.544.008.266.099.549.274.851z" fill="#fff"/><path d="m99.456 96.527-.489.284.003-.535.681-.396 1.641 2.827-.427.248z" fill="#fff"/><path d="m101.963 96.352c-.293-.026-.512-.165-.659-.418-.133-.23-.166-.467-.097-.712.069-.246.222-.438.457-.574.234-.136.474-.172.72-.109.245.062.435.209.569.441.141.243.153.501.036.775.149-.005.29.032.422.112.134.079.243.192.328.338.145.25.183.503.112.758s-.234.457-.489.605c-.261.152-.523.196-.787.134-.265-.062-.468-.215-.609-.459-.183-.32-.185-.616-.003-.891zm-.259-.653c.07.121.17.198.299.233.131.035.256.018.373-.05.116-.067.191-.167.226-.298s.019-.255-.049-.371c-.067-.116-.167-.191-.298-.226s-.255-.018-.371.049-.191.167-.226.298-.02.253.046.365zm.674 1.284c.076.131.186.217.331.258.145.04.283.021.414-.054.129-.075.213-.185.252-.33.038-.146.019-.284-.056-.413-.076-.13-.186-.215-.331-.254-.145-.038-.282-.02-.411.055-.128.074-.212.184-.252.33-.039.145-.021.281.053.408z" fill="#fff"/><path d="m58.616 122.025c-.018-.031-.037-.063-.055-.094s-.036-.063-.045-.099c-.007-.028-.024-.051-.037-.077-.009-.018-.02-.036-.021-.057 0-.005-.001-.01-.003-.014-.018-.037-.033-.075-.045-.114-.011-.036-.021-.072-.031-.108-.015-.05-.026-.101-.035-.152-.014-.072-.025-.145-.031-.219-.009-.095-.011-.189-.009-.284.001-.072.011-.144.018-.215.006-.064.024-.126.034-.189.013-.081.039-.159.062-.237.037-.121.087-.237.146-.349.039-.074.082-.145.127-.215.025-.039.051-.078.081-.113.029-.034.052-.074.087-.103.013-.01.015-.028.029-.037.012-.007.02-.019.028-.031.013-.02.034-.031.05-.049.026-.03.056-.055.085-.081.034-.03.071-.057.105-.088.032-.029.067-.053.102-.077.075-.053.15-.106.232-.147.104-.053.209-.103.32-.142.041-.015.083-.029.125-.041.034-.01.067-.027.104-.026.025-.015.056-.009.082-.021.02-.01.043-.007.064-.012.047-.011.095-.016.142-.021.09-.009.181-.014.272-.013s.181.012.271.02c.09.009.175.036.264.048.014.002.027.007.041.012.03.01.059.022.089.029.076.017.146.049.216.079.056.024.112.048.165.076.058.03.114.065.169.1.074.047.145.099.212.156.038.032.08.06.111.101.032.015.044.053.076.069.008.004.013.014.018.021.011.015.022.03.038.042.009.006.016.015.022.024.014.019.026.039.047.053.01.007.017.019.023.029.021.032.041.064.066.092.028.031.048.066.069.102.025.042.05.084.075.127.021.035.042.071.055.11.011.033.028.064.044.094.01.018.021.036.021.057 0 .003.001.006.002.009.018.035.03.072.041.11.006.021.015.04.019.063.004.026.015.051.021.077.02.074.034.149.046.225.017.107.025.214.026.322.001.056-.006.112-.003.168-.016.113-.023.227-.052.338-.008.032-.012.065-.021.096-.015.051-.033.102-.048.153-.017.057-.043.11-.065.165-.052.13-.123.25-.197.368-.038.041-.062.093-.101.134-.015.015-.026.034-.041.051-.032.036-.06.076-.095.109-.026.025-.047.056-.079.074-.061.069-.137.12-.206.18-.002.002-.005.004-.007.006-.091.06-.177.128-.276.175-.074.035-.145.076-.223.105-.047.017-.095.035-.141.054-.03.012-.063.019-.094.029-.039.013-.078.024-.118.03-.048.008-.093.026-.142.025-.095.021-.192.028-.288.031-.092.003-.185.004-.277-.009-.043-.006-.087-.007-.13-.014-.053-.008-.104-.021-.157-.03-.1-.015-.193-.054-.289-.081-.051-.015-.098-.041-.148-.06-.073-.029-.142-.066-.21-.104-.084-.047-.164-.101-.242-.158-.043-.032-.084-.067-.124-.102-.039-.034-.075-.072-.113-.107-.028-.026-.048-.058-.08-.08-.006-.004-.01-.012-.015-.018-.017-.025-.033-.049-.058-.068-.013-.01-.021-.027-.03-.042-.018-.028-.037-.055-.06-.079-.011-.011-.02-.024-.029-.038-.023-.042-.047-.083-.071-.123zm1.492-.912c.043-.035.082-.072.126-.101.09-.059.18-.117.281-.157.041-.016.078-.042.119-.057.075-.027.143-.067.211-.107.037-.022.073-.043.103-.075.007-.008.017-.015.026-.02.037-.02.057-.059.091-.081.045-.061.093-.12.119-.194.037-.105.038-.209-.008-.311-.017-.039-.04-.075-.065-.11-.04-.056-.093-.098-.156-.126-.069-.031-.142-.046-.218-.046-.066 0-.13.007-.192.029-.004.002-.009.002-.014.002-.015-.002-.028.006-.04.012-.062.032-.121.068-.179.106-.009.006-.02.011-.024.022-.007.016-.02.023-.033.033-.006.005-.014.009-.018.015-.025.037-.058.069-.084.106-.045.063-.082.131-.107.203-.045.128-.066.26-.061.396.003.084.016.166.037.247.008.03.012.062.028.09.009.017.014.034.019.053.004.025.016.051.039.071zm.263-.016c-.02.012-.04.025-.061.036-.023.012-.04.031-.057.049-.005.006-.013.009-.019.014-.022.017-.05.027-.065.053-.014.024-.049.031-.057.061-.036.04-.062.085-.085.134-.052.107-.049.216-.006.323.027.069.075.125.136.171.075.056.159.082.249.085.08.003.162-.002.237-.04.008-.004.018-.005.027-.007.009-.003.018-.004.027-.008.082-.038.159-.099.225-.169.027-.029.051-.058.075-.089.062-.082.1-.173.13-.27.014-.044.017-.089.026-.134.008-.04.01-.081.01-.121 0-.08-.008-.16-.024-.239-.005-.022-.015-.041-.019-.063-.007-.047-.029-.089-.044-.134-.003-.009-.008-.017-.013-.025-.007-.012-.013-.013-.026-.003-.032.024-.065.045-.093.074-.011.011-.025.02-.038.028-.06.035-.12.071-.18.105-.016.009-.034.017-.052.023-.027.009-.053.021-.078.035-.026.014-.052.031-.08.041-.053.016-.099.042-.145.07z" fill="#fff"/><path d="m69.165 116.216c.155.263.31.526.465.789.012.02.024.039.035.06.017.034.013.049-.02.072-.017.011-.034.021-.052.031-.124.073-.248.147-.372.219-.118.069-.095.075-.164-.039-.015-.025-.029-.05-.044-.074-.004-.007-.009-.015-.016-.02-.006-.005-.015-.007-.022.001-.012.014-.016.03-.018.048-.015.113-.065.213-.129.304-.032.045-.063.096-.117.123-.012.006-.024.017-.033.027-.061.069-.135.115-.226.133-.011.002-.022.007-.032.013-.088.047-.184.053-.281.06-.113.008-.222-.008-.329-.038-.093-.026-.182-.066-.263-.119-.033-.022-.065-.045-.098-.068-.049-.035-.095-.072-.132-.12-.012-.016-.022-.034-.037-.047-.088-.075-.132-.18-.188-.277-.01-.017-.013-.038-.019-.057s-.009-.04-.018-.057c-.044-.089-.055-.185-.066-.281-.017-.162.005-.32.064-.471.036-.093.089-.177.147-.259.042-.06.11-.092.147-.154.086-.051.161-.122.266-.135.008-.001.017-.005.024-.008.108-.049.221-.049.336-.034.046.006.091.014.134.032.019.008.038.011.059.01.011-.001.014-.011.011-.018-.008-.018-.018-.036-.028-.053-.023-.04-.046-.08-.069-.12-.01-.018-.005-.033.012-.044.029-.019.057-.039.087-.057.111-.066.223-.132.335-.197.032-.019.066-.034.1-.05.018-.008.034-.003.044.015.012.02.024.039.036.059.156.266.314.533.471.801zm-1.44.843c.045.083.112.144.191.192.122.075.25.106.391.058.011-.004.022-.007.033-.008.036-.003.065-.021.096-.037.055-.029.082-.088.132-.123.064-.104.104-.214.094-.339-.004-.052-.022-.1-.033-.149-.01-.046-.028-.089-.057-.125-.066-.084-.141-.158-.24-.201-.154-.067-.306-.062-.452.025-.044.027-.081.059-.115.1-.032.038-.059.076-.077.122-.067.168-.048.329.037.485z" fill="#fff"/><path d="m72.504 114.179c.161.273.322.546.483.819.033.055.048.063-.025.107-.149.088-.298.175-.447.263-.005.003-.01.006-.015.009-.039.02-.047.019-.07-.017-.021-.034-.041-.069-.062-.104-.007-.012-.014-.025-.023-.036-.005-.006-.013-.011-.02-.012-.012-.002-.014.009-.014.017-.003.046-.014.09-.028.134-.028.085-.07.159-.128.228-.03.036-.062.066-.099.093-.007.005-.015.01-.02.017-.051.071-.128.109-.203.141-.081.034-.164.071-.254.075-.166.007-.323-.021-.458-.131-.038-.031-.074-.062-.1-.104-.008-.012-.015-.026-.026-.034-.053-.039-.083-.095-.115-.15-.216-.364-.431-.729-.646-1.094-.04-.067-.039-.068.024-.106.144-.085.288-.17.432-.255.01-.006.02-.012.03-.017.031-.015.048-.012.067.015.013.019.024.039.036.059.149.253.298.506.448.759.035.059.072.118.109.176.045.069.133.135.209.171.033.016.069.023.1.018.095-.018.195-.029.254-.123.017-.026.046-.039.063-.069.044-.081.048-.165.032-.251-.016-.085-.047-.164-.092-.239-.163-.272-.322-.546-.483-.819-.066-.112-.067-.096.041-.159.129-.077.258-.152.387-.228.02-.012.04-.023.061-.032.015-.007.029-.002.038.011.015.021.028.044.041.066.157.265.315.534.473.802z" fill="#fff"/><path d="m64.535 119.255c.074-.044.149-.088.223-.132.034-.02.047-.028.079.012.051.064.119.097.202.084s.162-.036.231-.088c.04-.03.067-.071.096-.109.022-.029.026-.067.01-.106-.032-.078-.075-.109-.159-.103-.054.004-.109.012-.162.024-.117.026-.233.061-.351.081-.111.019-.221.051-.336.048-.092-.002-.181-.014-.263-.058-.053-.029-.104-.06-.136-.114-.007-.012-.017-.024-.027-.033-.031-.028-.051-.061-.061-.102-.004-.017-.012-.033-.019-.048-.082-.166-.055-.327.027-.483.031-.059.066-.12.124-.161.023-.05.07-.075.112-.104.012-.008.023-.018.033-.028.092-.1.217-.149.331-.214.046-.005.09-.02.129-.044.038-.024.086-.008.124-.032.133-.015.265-.025.395.028.097.04.182.095.248.177.016.02.034.04.049.06.027.036.023.049-.017.075-.01.006-.02.012-.03.018-.131.077-.263.155-.394.232-.015.009-.029.018-.045.026-.025.012-.043.007-.061-.013-.011-.013-.02-.028-.032-.041-.034-.036-.074-.063-.125-.065-.086-.004-.166.015-.226.083-.028.032-.064.056-.078.101-.029.091.03.195.124.206.042.005.087.004.129-.004.107-.02.213-.046.32-.069.133-.029.264-.071.402-.079.103-.006.205-.002.299.051.038.021.075.044.103.076.06.069.112.143.147.231.072.179.045.347-.028.514-.024.054-.09.142-.136.184-.027.025-.04.062-.076.081-.03.016-.062.034-.084.06-.054.063-.126.099-.195.14-.032.019-.065.036-.102.045-.028.007-.056.017-.08.032-.062.041-.134.052-.203.068-.056.013-.116.023-.177.021-.083-.002-.166-.011-.243-.042-.081-.033-.163-.07-.219-.144-.054-.028-.081-.079-.111-.127-.005-.007-.009-.015-.013-.023-.011-.023-.009-.035.015-.05.047-.029.094-.056.141-.084.031-.02.063-.039.096-.058z" fill="#fff"/><path d="m73.818 112.933c-.067.039-.134.079-.201.118-.017.01-.035.02-.053.029-.015.007-.028.003-.038-.01-.017-.023-.032-.047-.055-.066-.103-.084-.241-.055-.331.023-.021.019-.041.04-.059.063-.062.08-.057.194.061.249.01.005.022.006.033.006.052.001.103.002.154-.009.106-.023.213-.044.319-.071.074-.019.149-.042.224-.054.108-.017.217-.033.329-.011.093.018.169.062.241.12.011.009.018.022.026.035.027.044.054.088.081.133.086.144.086.297.048.454-.026.105-.089.189-.148.276-.055.04-.087.107-.151.137-.018.008-.034.023-.048.037-.087.087-.192.145-.307.185-.024.008-.049.018-.072.03-.138.071-.286.091-.438.084-.11-.005-.213-.039-.305-.103-.084-.058-.154-.128-.203-.218-.018-.034-.015-.05.02-.071.146-.087.292-.173.439-.259.005-.003.01-.006.015-.008.033-.014.053-.012.074.02.041.061.1.083.169.081.099-.002.249-.055.311-.141.029-.04.06-.075.063-.127.002-.047-.042-.11-.086-.126-.042-.015-.085-.017-.127-.009-.082.015-.162.037-.244.052-.09.016-.177.046-.268.055-.042.004-.083.019-.125.026-.095.015-.197.02-.287.008-.134-.018-.236-.088-.312-.194-.093-.13-.139-.275-.116-.438.014-.099.056-.185.112-.265.034-.049.074-.093.113-.138.013-.015.031-.025.047-.037.028-.02.057-.036.075-.069.009-.016.03-.026.047-.037.059-.036.118-.072.177-.107.042-.025.084-.05.134-.055.014-.001.028-.008.04-.015.069-.037.144-.05.221-.059.051-.006.1-.01.152-.01.125.001.237.042.336.113.067.048.129.104.165.183.011.024.009.034-.014.05-.005.003-.01.006-.015.009-.074.043-.148.087-.223.131z" fill="#fff"/><path d="m69.526 115.964c-.076-.129-.152-.258-.228-.387-.01-.017-.02-.035-.031-.052-.019-.028-.037-.033-.066-.018-.046.024-.09.052-.135.078-.02.011-.04.024-.061.033-.03.013-.048.007-.065-.02-.024-.039-.047-.079-.071-.119-.039-.067-.079-.134-.118-.201-.023-.039-.019-.052.021-.077.046-.029.094-.056.141-.084.017-.01.034-.021.051-.032s.02-.029.013-.046c-.008-.021-.02-.041-.032-.061-.074-.127-.149-.253-.223-.38-.043-.074-.043-.074.031-.118.134-.079.268-.158.402-.237.015-.009.03-.018.045-.025.014-.006.03-.002.039.009.014.018.027.037.038.057l.219.372c.057.096.053.083.136.035.077-.045.154-.091.231-.136.02-.012.04-.023.061-.032.014-.006.028-.003.038.011.005.007.01.014.014.022.061.104.123.208.184.313.021.035.018.05-.012.073-.016.012-.033.022-.051.033-.074.044-.149.088-.223.132-.017.01-.034.021-.051.032-.016.011-.02.028-.013.045.005.013.013.026.02.038.117.198.235.396.351.595.03.051.068.092.11.132.024.023.053.036.082.046s.058.011.092.002c.093-.026.177-.067.252-.128.007-.006.014-.01.021-.015.022-.014.038-.012.052.007.007.009.013.019.018.029.061.104.123.208.184.313.007.012.014.025.02.038.011.024.008.038-.013.052-.125.081-.231.19-.368.254-.031.015-.059.034-.095.038-.019.002-.038.012-.056.021-.188.088-.363.069-.53-.055-.086-.064-.158-.139-.212-.232-.07-.118-.141-.237-.212-.355.001-.001 0-.001 0 0z" fill="#fff"/><path d="m66.037 118.013c-.075-.126-.149-.253-.224-.379-.012-.02-.023-.04-.036-.059-.015-.022-.036-.027-.06-.015-.023.011-.045.025-.068.038-.04.023-.079.048-.12.069-.039.02-.057.015-.079-.021-.062-.104-.124-.208-.184-.312-.025-.044-.022-.054.024-.082.054-.033.109-.064.163-.097.048-.029.051-.04.024-.09-.021-.038-.043-.075-.065-.112-.057-.097-.114-.193-.171-.29-.012-.02-.022-.04-.032-.061-.006-.014-.003-.028.011-.038.007-.005.014-.01.022-.014.149-.088.297-.176.446-.263.039-.023.054-.019.079.017.012.016.021.034.031.052.067.114.134.228.202.342.01.017.02.035.031.052.026.039.037.043.077.019.087-.05.174-.102.261-.153.101-.06.092-.051.143.034.053.089.106.178.158.268.026.045.024.055-.017.086-.018.014-.038.026-.058.037-.069.041-.139.082-.208.123-.017.01-.035.021-.051.033s-.018.029-.012.046c.006.016.016.031.024.046.111.188.223.376.333.565.035.061.079.113.132.158.051.044.106.058.174.039.091-.025.171-.066.243-.125.009-.007.019-.014.029-.019.014-.006.029-.004.039.008.009.011.017.023.025.035.062.104.123.208.184.312.006.01.012.02.016.03.012.027.008.042-.015.06-.016.012-.034.022-.05.034-.023.017-.048.032-.069.052-.081.08-.184.128-.28.184-.014.008-.032.013-.049.016-.026.005-.049.015-.073.026-.185.087-.359.066-.523-.054-.084-.062-.156-.135-.209-.226-.072-.124-.146-.248-.219-.372.002.001.001.001.001.001z" fill="#fff"/></svg>