<svg enable-background="new 0 0 110.979 128.417" viewBox="0 0 110.979 128.417" xmlns="http://www.w3.org/2000/svg"><path d="m55.583 128.029-55.25-31.898v-63.797l55.25-31.899 55.25 31.899v63.796z" fill="#0a0f44"/><path d="m56.091 117.77-45.404-26.214v-52.428l45.404-26.214 45.404 26.214v52.428z" fill="#040933"/><path d="m55.582 10.531-46.575 26.852v53.702l46.575 26.849 46.578-26.849v-53.702zm44.692 79.471-44.692 25.768-44.694-25.768v-51.527l44.694-25.767 44.692 25.767z" fill="#15ffab"/><path d="m10.213 30.021-.283.501c-.16-.093-.289-.14-.386-.141-.103-.005-.215.027-.335.095-.147.085-.245.196-.294.335-.05.137-.039.268.032.392.098.171.304.236.619.194l.431-.058c.351-.048.639-.027.866.063s.409.255.547.496c.185.323.231.65.137.984-.095.336-.302.596-.623.781-.304.175-.607.229-.909.162-.298-.068-.566-.251-.802-.55l.468-.426c.143.192.266.31.372.354.196.089.398.073.607-.047.165-.095.27-.228.316-.401s.02-.344-.078-.514c-.039-.068-.084-.125-.136-.171-.051-.046-.111-.081-.178-.106-.068-.025-.145-.039-.232-.044-.088-.005-.186-.001-.295.011l-.419.053c-.596.073-1.006-.086-1.23-.476-.151-.263-.177-.541-.078-.834.099-.294.298-.527.598-.699.404-.232.833-.217 1.285.046z" fill="#fff"/><path d="m11.809 31.58c-.183-.32-.225-.657-.125-1.012s.314-.627.642-.816c.33-.189.675-.238 1.034-.144.357.095.629.307.818.635.19.331.235.675.136 1.03-.102.354-.32.628-.655.82-.331.19-.674.236-1.028.138-.354-.095-.627-.312-.822-.651zm.527-.291c.127.221.286.362.478.423.196.06.393.034.591-.08.2-.115.322-.271.368-.468s.007-.403-.117-.618c-.123-.215-.282-.352-.475-.412-.196-.06-.393-.034-.591.08-.195.112-.316.268-.362.468-.046.199-.01.401.108.607z" fill="#fff"/><path d="m15.857 27.933.39.679c-.198-.075-.359-.113-.481-.113-.122-.002-.244.032-.367.102-.192.111-.313.27-.363.477-.05.208-.017.413.1.616.119.207.278.342.477.405.2.062.397.038.589-.073.123-.071.215-.159.279-.266.061-.103.111-.264.148-.483l.387.674c-.146.227-.322.399-.529.518-.342.196-.692.25-1.048.161-.359-.09-.632-.3-.822-.63-.189-.33-.233-.675-.13-1.036s.323-.638.662-.833c.218-.125.454-.191.708-.198z" fill="#fff"/><path d="m15.691 26.678c-.051-.089-.063-.185-.035-.287s.087-.18.178-.232c.092-.053.19-.066.292-.038.102.026.179.085.232.178.053.092.066.19.038.292-.026.101-.085.179-.178.232-.092.053-.19.066-.292.038-.103-.028-.181-.089-.235-.183zm1.116.582 1.27 2.211-.511.293-1.27-2.21z" fill="#fff"/><path d="m19.083 25.953.513-.295 1.27 2.21-.513.295-.133-.232c-.097.318-.267.546-.509.685-.306.175-.622.21-.948.104-.327-.112-.588-.336-.782-.674-.19-.331-.25-.664-.178-.999.071-.335.256-.588.554-.759.257-.148.549-.174.875-.08zm-.581 1.794c.122.212.278.352.467.42.194.068.379.051.556-.051.189-.109.304-.262.346-.458.039-.202-.001-.406-.12-.613s-.275-.345-.469-.412c-.192-.065-.381-.044-.567.063-.175.101-.284.252-.326.453-.038.2 0 .4.113.598z" fill="#fff"/><path d="m19.819 23.372 2.202 3.833-.51.293-2.202-3.833z" fill="#fff"/><path d="m23.44 22.391 1.727 3.007-.529.304-1.728-3.007-.806.463-.284-.498 2.138-1.228.286.497z" fill="#fff"/><path d="m25.075 22.511.51-.293.114.197c.037-.152.082-.267.134-.346.052-.08.129-.149.231-.208.135-.077.301-.114.498-.111l.035.602c-.137-.014-.251.006-.344.059-.278.16-.297.45-.055.871l.658 1.146-.511.293z" fill="#fff"/><path d="m28.443 20.576.513-.295 1.27 2.211-.513.295-.133-.232c-.097.318-.267.546-.509.685-.306.176-.622.21-.948.104-.328-.112-.589-.336-.782-.674-.19-.331-.25-.664-.179-.999s.256-.588.554-.759c.257-.148.549-.174.875-.08zm-.581 1.795c.122.212.278.352.467.42.194.068.379.051.556-.051.189-.109.305-.262.346-.458.039-.202-.001-.406-.12-.613s-.275-.345-.469-.412c-.192-.065-.381-.044-.567.063-.176.101-.284.252-.326.453-.038.2-.001.4.113.598z" fill="#fff"/><path d="m31.375 19.018.39.679c-.198-.075-.359-.113-.481-.113-.122-.002-.244.032-.367.102-.192.11-.313.27-.363.477-.05.208-.016.413.1.616.119.207.278.342.477.405.201.062.397.038.589-.073.123-.07.215-.159.279-.266.061-.103.111-.265.148-.483l.387.674c-.146.226-.322.399-.529.518-.342.196-.691.25-1.048.161-.358-.09-.631-.3-.821-.63-.189-.33-.233-.675-.13-1.036s.323-.639.663-.833c.217-.125.453-.191.706-.198z" fill="#fff"/><path d="m31.394 16.723 1.343 2.338.309-1.128.685-.394-.427 1.48 1.767.69-.663.381-1.267-.513-.035.129.489.851-.511.293-2.202-3.833z" fill="#fff"/><path d="m35.092 15.037 2.258 1.818-.49-3.06 2.355 1.988-.376-2.899.574-.33.575 4.626-2.327-1.965.488 3.025-3.631-2.874z" fill="#fff"/><path d="m39.889 12.779c-.051-.089-.063-.185-.035-.288.028-.102.087-.18.178-.232.092-.053.19-.066.292-.038.101.026.179.085.232.178.053.092.066.189.038.292-.026.102-.085.179-.178.232-.092.053-.19.066-.292.038-.103-.028-.181-.089-.235-.182zm1.116.581 1.27 2.21-.511.293-1.27-2.211z" fill="#fff"/><path d="m41.651 12.989.513-.295.117.204c.077-.28.227-.484.451-.612.257-.148.504-.182.741-.103.203.066.394.255.573.567l.778 1.355-.512.295-.709-1.234c-.125-.218-.242-.351-.35-.4-.108-.051-.239-.031-.395.058-.17.097-.258.222-.265.375-.006.151.07.363.228.639l.613 1.067-.513.295z" fill="#fff"/><path d="m44.2 11.525.513-.295.117.204c.077-.28.227-.484.451-.612.257-.148.504-.182.741-.103.203.067.394.256.573.567l.778 1.355-.513.295-.709-1.234c-.125-.218-.242-.351-.35-.4-.108-.051-.239-.031-.395.058-.17.097-.258.222-.265.375-.006.151.07.363.228.639l.613 1.067-.513.295z" fill="#fff"/><path d="m49.466 10.13-1.584.91c.118.174.26.284.426.332.165.046.329.022.493-.072.127-.073.215-.164.263-.272.047-.107.076-.273.086-.496l.569-.007c-.002.152-.016.289-.044.413s-.069.236-.124.337-.124.192-.209.272c-.084.081-.184.154-.299.22-.33.189-.655.235-.977.138-.322-.099-.585-.324-.787-.677-.201-.35-.267-.688-.197-1.016.073-.325.27-.581.592-.766.326-.187.642-.231.95-.132.306.098.563.329.773.694zm-.765-.117c-.228-.232-.477-.269-.75-.113-.062.036-.115.079-.158.129-.044.051-.078.106-.102.167s-.038.126-.041.194.005.139.025.212z" fill="#fff"/><path d="m49.32 8.584.511-.293.113.197c.037-.152.082-.267.134-.346.052-.08.129-.15.23-.208.135-.077.301-.114.498-.111l.035.602c-.137-.014-.251.006-.343.059-.278.16-.297.45-.055.871l.658 1.146-.511.293z" fill="#fff"/><g fill="#fecd2e"><path d="m33.675 50.053c-.035 0-.071-.001-.107-.002-.719-.028-1.384-.334-1.872-.862-.489-.528-.742-1.214-.715-1.933.028-.719.334-1.384.861-1.872.528-.489 1.215-.745 1.933-.715.719.028 1.384.333 1.872.861.489.528.743 1.214.715 1.933s-.333 1.384-.861 1.872c-.501.466-1.146.718-1.826.718zm-.005-4.505c-.458 0-.892.17-1.229.482-.355.329-.561.776-.58 1.26-.018.484.152.946.481 1.301s.776.561 1.26.58c.487.017.946-.152 1.301-.481s.561-.776.58-1.26c.019-.484-.152-.946-.481-1.301s-.776-.561-1.26-.58c-.024 0-.048-.001-.072-.001z"/><path d="m34.036 49.565c-.011.276-.021.552-.032.827-.011.288.261.563.55.55.308-.014.539-.242.55-.55.011-.276.021-.552.032-.827.011-.288-.261-.563-.55-.55-.307.013-.538.241-.55.55z"/><path d="m34.665 50.923c.499.019.998.039 1.497.058.709.027.707-1.074 0-1.101-.499-.019-.998-.039-1.497-.058-.709-.028-.707 1.073 0 1.101z"/><path d="m32.114 49.491c-.011.276-.021.552-.032.827-.011.288.261.563.55.55.308-.014.539-.242.55-.55.011-.276.021-.552.032-.827.011-.288-.261-.563-.55-.55-.308.013-.539.241-.55.55z"/><path d="m32.523 49.739c-.45-.017-.9-.035-1.351-.052-.709-.027-.707 1.074 0 1.101.45.017.9.035 1.351.052.709.027.708-1.074 0-1.101z"/><path d="m36.17 50.99c.092.001.063-.01.12.067.078.105.105.27.125.396.046.281.022.568.014.851-.02.709 1.081.708 1.101 0 .027-.966-.079-2.401-1.36-2.414-.708-.008-.709 1.093 0 1.1z"/><path d="m36.434 52.235c-.031.812-.063 1.624-.094 2.436-.027.709 1.074.707 1.101 0 .031-.812.063-1.624.094-2.436.027-.709-1.074-.708-1.101 0z"/><path d="m36.359 54.723c.011.227.032.462.007.689-.005.047-.042.189-.023.151-.015.03-.087.099-.084.096-.104.089-.195.106-.305.089.118.018-.038-.037.013-.005.08.05.002.006.008-.003.001-.001.02.047-.009-.026.023.057-.005-.052-.005-.05-.027-.296-.234-.55-.55-.55-.277 0-.578.253-.55.55.04.437.203.85.615 1.059.329.167.716.158 1.055.026.374-.146.703-.429.842-.813.138-.38.106-.816.087-1.213-.035-.705-1.136-.709-1.101 0z"/><path d="m34.888 52.437c-.058 1.492-.115 2.985-.173 4.477-.027.709 1.074.707 1.101 0 .058-1.492.115-2.985.173-4.477.027-.709-1.074-.707-1.101 0z"/><path d="m32.546 49.74c-.499-.019-.998-.039-1.497-.058-.709-.027-.707 1.074 0 1.101.499.019.998.039 1.497.058.709.027.708-1.074 0-1.101z"/><path d="m31.04 49.691c-1.268-.088-1.458 1.416-1.502 2.346-.034.708 1.067.707 1.101 0 .013-.284.015-.543.083-.816.068-.27.128-.442.318-.429.708.049.705-1.053 0-1.101z"/><path d="m29.54 51.968c-.031.812-.063 1.624-.094 2.436-.027.709 1.074.707 1.101 0 .031-.812.063-1.624.094-2.436.027-.708-1.074-.707-1.101 0z"/><path d="m29.422 54.456c-.05.396-.114.825.004 1.215.106.35.399.652.721.814.746.377 1.632.038 1.778-.829.049-.293-.077-.593-.384-.677-.264-.073-.628.09-.677.384-.01.058-.022.112-.038.168-.014.051.008-.013-.033.054.013-.022.099-.095.012-.029.038-.029.053-.015-.004-.004.114-.022-.02.003-.05-.004.057.013.041.006-.006-.005-.109-.025-.088-.021-.15-.066.034.025-.068-.063-.069-.065-.06-.065-.005.003-.032-.041-.039-.064.008.097-.022-.052.011.053-.007-.088-.007-.1-.009-.255.027-.511.059-.764.038-.295-.28-.55-.55-.55-.33 0-.514.254-.552.551z"/><path d="m31.066 52.289c-.058 1.492-.115 2.985-.173 4.477-.027.709 1.074.707 1.101 0 .058-1.492.115-2.985.173-4.477.027-.708-1.074-.707-1.101 0z"/><path d="m35.24 56.381c-1.271-.049-2.543-.098-3.814-.147-.709-.027-.707 1.074 0 1.101 1.271.049 2.543.098 3.814.147.709.027.708-1.074 0-1.101z"/><path d="m38.161 75.584c-.035 0-.071-.001-.106-.002-.719-.028-1.384-.334-1.872-.862-.489-.528-.742-1.214-.715-1.933.057-1.484 1.316-2.654 2.795-2.587.719.028 1.384.334 1.872.862.489.528.743 1.214.715 1.933s-.333 1.384-.861 1.872c-.503.465-1.148.717-1.828.717zm-.004-4.505c-.967 0-1.772.767-1.81 1.742-.018.484.152.946.481 1.301s.776.561 1.26.58c.996.032 1.842-.742 1.881-1.741.019-.484-.152-.946-.481-1.301s-.776-.561-1.26-.58c-.024-.001-.047-.001-.071-.001z"/><path d="m38.522 75.096c-.011.276-.021.552-.032.827-.011.288.261.563.55.55.308-.014.539-.242.55-.55.011-.276.021-.552.032-.827.011-.288-.261-.563-.55-.55-.308.013-.538.241-.55.55z"/><path d="m39.151 76.453c.499.019.998.039 1.497.058.709.027.707-1.074 0-1.101-.499-.019-.998-.039-1.497-.058-.709-.027-.708 1.074 0 1.101z"/><path d="m36.599 75.021c-.011.276-.021.552-.032.827-.011.288.261.563.55.55.308-.014.539-.242.55-.55.011-.276.021-.552.032-.827.011-.288-.261-.563-.55-.55-.307.014-.538.242-.55.55z"/><path d="m37.009 75.27c-.45-.017-.9-.035-1.351-.052-.709-.027-.707 1.074 0 1.101.45.017.9.035 1.351.052.709.027.708-1.074 0-1.101z"/><path d="m40.656 76.52c.092.001.063-.01.12.067.078.105.105.27.125.396.046.281.022.568.014.851-.02.709 1.081.708 1.101 0 .027-.966-.079-2.401-1.36-2.414-.709-.007-.709 1.094 0 1.1z"/><path d="m40.92 77.765c-.031.812-.063 1.624-.094 2.436-.027.709 1.074.707 1.101 0 .031-.812.063-1.624.094-2.436.027-.708-1.074-.707-1.101 0z"/><path d="m40.845 80.254c.011.227.032.462.007.689-.005.047-.042.189-.023.151-.015.03-.087.099-.084.096-.104.089-.195.106-.305.089.118.018-.038-.037.013-.005.08.05.002.006.009-.003.001-.001.02.047-.009-.026.023.057-.005-.052-.005-.05-.027-.296-.234-.55-.55-.55-.277 0-.578.253-.55.55.04.437.203.85.615 1.059.329.167.716.158 1.055.026.374-.146.703-.429.843-.813.138-.38.106-.816.087-1.213-.037-.705-1.138-.709-1.103 0z"/><path d="m39.373 77.968c-.058 1.492-.115 2.985-.173 4.477-.027.709 1.074.707 1.101 0 .058-1.492.115-2.985.173-4.477.028-.709-1.073-.708-1.101 0z"/><path d="m37.032 75.27c-.499-.019-.998-.039-1.497-.058-.709-.027-.707 1.074 0 1.101.499.019.998.039 1.497.058.709.028.707-1.073 0-1.101z"/><path d="m35.526 75.222c-1.268-.088-1.458 1.416-1.502 2.346-.034.708 1.067.707 1.101 0 .013-.284.015-.543.083-.816.068-.27.128-.442.318-.429.707.048.704-1.053 0-1.101z"/><path d="m34.025 77.499c-.031.812-.063 1.624-.094 2.436-.027.709 1.074.707 1.101 0 .031-.812.063-1.624.094-2.436.028-.708-1.073-.707-1.101 0z"/><path d="m33.908 79.986c-.05.396-.115.825.004 1.215.106.35.399.652.721.814.746.377 1.632.038 1.778-.829.049-.293-.077-.593-.384-.677-.264-.073-.628.09-.677.384-.01.058-.022.112-.038.168-.014.051.008-.013-.033.054.013-.022.099-.095.012-.029.038-.029.053-.015-.003-.004.114-.022-.02.003-.05-.004.057.013.041.006-.006-.005-.109-.025-.088-.021-.15-.066.034.025-.068-.063-.069-.065-.06-.065-.005.003-.032-.041-.039-.064.008.097-.022-.052.011.053-.007-.088-.007-.1-.009-.255.027-.511.059-.764.038-.295-.28-.55-.55-.55-.331.001-.515.255-.553.551z"/><path d="m35.552 77.82c-.058 1.492-.115 2.985-.173 4.477-.027.709 1.074.707 1.101 0 .058-1.492.115-2.985.173-4.477.027-.708-1.074-.707-1.101 0z"/><path d="m39.726 81.912c-1.271-.049-2.543-.098-3.814-.147-.709-.027-.707 1.074 0 1.101 1.271.049 2.543.098 3.814.147.709.027.707-1.074 0-1.101z"/><path d="m62.599 69.35c-.035 0-.07-.001-.105-.002-.719-.028-1.384-.334-1.872-.862-.489-.528-.742-1.214-.715-1.933.028-.719.333-1.384.861-1.872.528-.489 1.218-.748 1.933-.715 1.484.057 2.645 1.311 2.587 2.795-.054 1.449-1.251 2.589-2.689 2.589zm-.003-4.505c-.457 0-.892.17-1.229.482-.355.329-.561.776-.58 1.26-.018.484.152.946.481 1.301s.776.561 1.26.58c.997.037 1.843-.743 1.881-1.741s-.743-1.842-1.741-1.881c-.024 0-.048-.001-.072-.001z"/><path d="m62.962 68.862c-.011.276-.021.552-.032.827-.011.288.261.563.55.55.308-.014.539-.242.55-.55.011-.276.021-.551.032-.827.011-.288-.261-.563-.55-.55-.307.013-.538.241-.55.55z"/><path d="m63.591 70.22c.499.019.998.039 1.497.058.709.027.707-1.074 0-1.101-.499-.019-.998-.039-1.497-.058-.709-.028-.707 1.073 0 1.101z"/><path d="m61.04 68.788c-.011.276-.021.552-.032.827-.011.288.261.563.55.55.308-.014.539-.242.55-.55.011-.276.021-.552.032-.827.011-.288-.261-.563-.55-.55-.308.013-.538.241-.55.55z"/><path d="m61.45 69.036c-.45-.017-.9-.035-1.351-.052-.709-.027-.707 1.074 0 1.101.45.017.9.035 1.351.052.708.027.707-1.074 0-1.101z"/><path d="m65.096 70.287c.092.001.063-.01.12.067.078.105.105.27.125.396.046.281.022.568.014.851-.021.709 1.08.708 1.101 0 .028-.966-.08-2.401-1.36-2.414-.708-.008-.709 1.093 0 1.1z"/><path d="m65.36 71.532c-.031.812-.063 1.624-.094 2.436-.027.709 1.074.707 1.101 0 .031-.812.063-1.624.094-2.436.027-.709-1.074-.708-1.101 0z"/><path d="m65.285 74.02c.011.227.032.462.007.689-.005.047-.042.189-.024.151-.015.03-.087.099-.084.096-.104.089-.195.106-.305.089.118.018-.038-.037.013-.005.08.051.002.005.008-.003.001-.001.02.047-.009-.026.023.057-.005-.052-.005-.05-.027-.296-.234-.55-.55-.55-.277 0-.578.253-.55.55.04.437.203.85.615 1.059.329.167.716.158 1.055.026.374-.146.703-.429.842-.813.138-.38.106-.816.087-1.213-.034-.705-1.135-.709-1.1 0z"/><path d="m63.814 71.734c-.058 1.492-.115 2.985-.173 4.477-.027.709 1.074.707 1.101 0 .058-1.492.115-2.985.173-4.477.027-.709-1.074-.708-1.101 0z"/><path d="m61.472 69.037c-.499-.019-.998-.039-1.497-.058-.709-.027-.707 1.074 0 1.101.499.019.998.039 1.497.058.709.027.708-1.074 0-1.101z"/><path d="m59.966 68.988c-1.268-.088-1.458 1.416-1.502 2.346-.033.708 1.068.707 1.101 0 .013-.284.015-.543.083-.816.068-.27.128-.442.318-.429.708.049.705-1.052 0-1.101z"/><path d="m58.466 71.265c-.031.812-.063 1.624-.094 2.436-.027.709 1.074.707 1.101 0 .031-.812.063-1.624.094-2.436.027-.708-1.074-.707-1.101 0z"/><path d="m58.348 73.753c-.05.396-.115.825.004 1.215.107.35.399.651.721.814.746.377 1.632.038 1.778-.828.049-.293-.077-.593-.384-.677-.264-.073-.628.09-.677.384-.01.058-.022.112-.038.168-.014.051.008-.013-.033.054.013-.022.099-.095.012-.029.038-.029.053-.015-.004-.004.114-.022-.02.003-.05-.004.057.013.041.006-.006-.005-.109-.025-.088-.021-.15-.066.034.025-.068-.063-.069-.065-.06-.065-.005.003-.032-.041-.039-.064.008.097-.023-.052.011.053-.007-.088-.007-.1-.009-.255.027-.511.059-.764.038-.295-.28-.55-.55-.55-.329-.001-.513.253-.551.55z"/><path d="m59.992 71.586c-.058 1.492-.115 2.985-.173 4.477-.027.709 1.074.707 1.101 0 .058-1.492.115-2.985.173-4.477.027-.708-1.074-.707-1.101 0z"/><path d="m64.166 75.678c-1.272-.049-2.543-.098-3.815-.147-.709-.027-.707 1.074 0 1.101 1.272.049 2.543.098 3.815.147.709.027.708-1.074 0-1.101z"/><path d="m47.593 57.536c-.035 0-.07-.001-.105-.002-.719-.028-1.384-.334-1.872-.861-.489-.528-.743-1.215-.715-1.933.028-.719.334-1.384.861-1.872.528-.489 1.213-.744 1.933-.715 1.484.057 2.645 1.311 2.587 2.795-.055 1.448-1.252 2.588-2.689 2.588zm-.003-4.505c-.458 0-.892.17-1.229.482-.355.329-.561.776-.58 1.26s.152.945.481 1.301c.329.355.776.561 1.26.58 1.005.034 1.843-.743 1.881-1.741.018-.484-.152-.946-.481-1.301s-.776-.561-1.26-.58c-.025 0-.049-.001-.072-.001z"/><path d="m47.955 57.048c-.011.276-.021.552-.032.827-.011.288.261.563.55.55.308-.014.539-.242.55-.55.011-.276.021-.552.032-.827.011-.288-.261-.563-.55-.55-.307.013-.538.241-.55.55z"/><path d="m48.584 58.405c.499.019.998.039 1.497.058.709.027.707-1.074 0-1.101-.499-.019-.998-.039-1.497-.058-.708-.027-.707 1.074 0 1.101z"/><path d="m46.033 56.974c-.011.276-.021.552-.032.827-.011.288.261.563.55.55.308-.014.539-.242.55-.55.011-.276.021-.551.032-.827.011-.288-.261-.563-.55-.55-.307.013-.538.241-.55.55z"/><path d="m46.443 57.222c-.45-.017-.9-.035-1.351-.052-.709-.027-.707 1.074 0 1.101.45.017.9.035 1.351.052.708.027.707-1.074 0-1.101z"/><path d="m50.089 58.473c.092.001.063-.01.12.067.078.105.105.27.125.396.046.281.022.568.014.851-.021.709 1.08.708 1.101 0 .028-.966-.08-2.401-1.36-2.414-.708-.008-.709 1.093 0 1.1z"/><path d="m50.353 59.718c-.031.812-.063 1.624-.094 2.436-.027.709 1.074.707 1.101 0 .031-.812.063-1.624.094-2.436.028-.709-1.073-.708-1.101 0z"/><path d="m50.278 62.206c.011.227.032.462.007.689-.005.047-.042.189-.024.151-.015.03-.087.099-.084.096-.104.089-.195.106-.305.089.118.018-.038-.037.013-.005.08.051.002.005.008-.003.001-.001.02.047-.009-.026.023.057-.005-.052-.005-.05-.027-.296-.234-.55-.55-.55-.277 0-.578.253-.55.55.04.437.203.85.615 1.059.329.167.716.158 1.055.026.374-.146.703-.429.842-.813.138-.38.106-.816.087-1.213-.033-.705-1.135-.709-1.1 0z"/><path d="m48.807 59.92c-.058 1.492-.115 2.985-.173 4.477-.027.709 1.074.707 1.101 0 .058-1.492.115-2.985.173-4.477.027-.709-1.074-.708-1.101 0z"/><path d="m46.466 57.223c-.499-.019-.998-.039-1.497-.058-.709-.027-.707 1.074 0 1.101.499.019.998.039 1.497.058.708.027.707-1.074 0-1.101z"/><path d="m44.96 57.174c-1.268-.088-1.458 1.416-1.502 2.346-.033.708 1.068.707 1.101 0 .013-.284.015-.543.083-.816.068-.27.128-.442.318-.429.707.049.704-1.053 0-1.101z"/><path d="m43.459 59.451c-.031.812-.063 1.624-.094 2.436-.027.709 1.074.707 1.101 0 .031-.812.063-1.624.094-2.436.027-.708-1.074-.707-1.101 0z"/><path d="m43.342 61.939c-.05.396-.115.825.004 1.215.107.35.399.651.721.814.746.377 1.632.038 1.778-.828.049-.293-.077-.593-.384-.677-.264-.073-.628.09-.677.384-.01.058-.022.112-.038.168-.014.051.008-.013-.033.054.013-.022.099-.095.012-.029.038-.029.053-.015-.004-.004.114-.022-.02.003-.05-.004.057.013.041.006-.006-.005-.109-.025-.088-.021-.15-.066.034.025-.068-.063-.069-.065-.06-.065-.005.003-.032-.041-.039-.064.008.097-.022-.052.011.053-.007-.088-.007-.1-.009-.255.027-.511.059-.764.038-.295-.28-.55-.55-.55-.33-.001-.515.253-.552.55z"/><path d="m44.985 59.772c-.058 1.492-.115 2.985-.173 4.477-.027.709 1.074.707 1.101 0 .058-1.492.115-2.985.173-4.477.027-.708-1.074-.707-1.101 0z"/><path d="m49.16 63.864c-1.272-.049-2.543-.098-3.815-.147-.709-.027-.707 1.074 0 1.101 1.272.049 2.543.098 3.815.147.708.027.707-1.074 0-1.101z"/><path d="m58.043 40.661c-.035 0-.071-.001-.107-.002-.719-.028-1.384-.334-1.872-.862-.489-.528-.743-1.214-.715-1.933s.334-1.384.862-1.872c.528-.489 1.212-.744 1.933-.715.719.028 1.384.333 1.872.861.489.528.743 1.214.715 1.933s-.334 1.384-.861 1.872c-.502.466-1.148.718-1.827.718zm-.005-4.505c-.458 0-.892.17-1.229.482-.355.329-.561.776-.58 1.26-.038.999.743 1.842 1.741 1.881.485.018.946-.152 1.301-.481s.561-.776.58-1.26c.019-.484-.152-.946-.481-1.301s-.776-.561-1.26-.58c-.024 0-.048-.001-.072-.001z"/><path d="m58.403 40.173c-.011.276-.021.552-.032.827-.011.288.261.563.55.55.308-.014.539-.242.55-.55.011-.276.021-.552.032-.827.011-.288-.261-.563-.55-.55-.307.013-.538.241-.55.55z"/><path d="m59.032 41.53c.499.019.998.039 1.497.058.709.027.707-1.074 0-1.101-.499-.019-.998-.039-1.497-.058-.708-.027-.707 1.074 0 1.101z"/><path d="m56.481 40.098c-.011.276-.021.552-.032.827-.011.288.261.563.55.55.308-.014.539-.242.55-.55.011-.276.021-.552.032-.827.011-.288-.261-.563-.55-.55-.307.014-.538.242-.55.55z"/><path d="m56.891 40.347c-.45-.017-.9-.035-1.351-.052-.709-.027-.707 1.074 0 1.101.45.017.9.035 1.351.052.709.027.707-1.074 0-1.101z"/><path d="m60.538 41.598c.092.001.063-.01.12.067.078.105.105.27.125.396.046.281.022.568.014.851-.021.709 1.08.708 1.101 0 .028-.966-.08-2.401-1.36-2.414-.709-.008-.71 1.093 0 1.1z"/><path d="m60.802 42.842c-.031.812-.063 1.624-.094 2.437-.027.709 1.074.707 1.101 0 .031-.812.063-1.624.094-2.437.027-.708-1.074-.707-1.101 0z"/><path d="m60.727 45.331c.011.227.032.462.007.689-.005.047-.042.189-.024.151-.015.03-.087.099-.084.096-.104.089-.195.106-.305.089.118.018-.038-.037.013-.005.08.051.002.005.008-.003.001-.001.02.047-.009-.026.023.057-.005-.052-.005-.05-.027-.296-.234-.55-.55-.55-.277 0-.578.253-.55.55.04.437.203.85.615 1.059.329.167.716.158 1.055.026.374-.146.703-.429.842-.813.138-.38.106-.816.087-1.213-.034-.705-1.135-.709-1.1 0z"/><path d="m59.255 43.045c-.058 1.492-.115 2.985-.173 4.477-.027.709 1.074.707 1.101 0 .058-1.492.115-2.985.173-4.477.028-.709-1.073-.708-1.101 0z"/><path d="m56.914 40.348c-.499-.019-.998-.039-1.497-.058-.709-.027-.707 1.074 0 1.101.499.019.998.039 1.497.058.709.027.708-1.074 0-1.101z"/><path d="m55.408 40.299c-1.268-.088-1.458 1.416-1.502 2.346-.033.708 1.068.707 1.101 0 .013-.284.015-.543.083-.816.068-.27.128-.442.318-.429.707.048.704-1.053 0-1.101z"/><path d="m53.907 42.576c-.031.812-.063 1.624-.094 2.437-.027.709 1.074.707 1.101 0 .031-.812.063-1.624.094-2.437.028-.708-1.073-.707-1.101 0z"/><path d="m53.79 45.063c-.05.396-.115.825.004 1.215.107.35.399.651.721.814.746.377 1.632.038 1.778-.828.049-.293-.077-.593-.384-.677-.264-.073-.628.09-.677.384-.01.058-.022.112-.038.168-.014.051.008-.013-.033.054.013-.022.099-.095.012-.029.038-.029.053-.015-.003-.004.114-.022-.02.003-.05-.004.057.013.041.006-.006-.005-.109-.025-.088-.021-.15-.066.034.025-.068-.063-.069-.065-.06-.065-.005.003-.032-.041-.039-.064.008.097-.023-.052.011.053-.007-.088-.007-.1-.009-.255.027-.511.059-.764.038-.295-.28-.55-.55-.55-.33 0-.514.254-.552.55z"/><path d="m55.433 42.897c-.058 1.492-.115 2.985-.173 4.477-.027.709 1.074.707 1.101 0 .058-1.492.115-2.985.173-4.477.028-.708-1.073-.707-1.101 0z"/><path d="m59.608 46.989c-1.272-.049-2.543-.098-3.815-.147-.709-.027-.707 1.074 0 1.101 1.271.049 2.543.098 3.815.147.708.027.707-1.074 0-1.101z"/><path d="m76.995 76.797c-.035 0-.07-.001-.105-.002-.719-.028-1.384-.334-1.872-.862-.489-.528-.742-1.215-.715-1.933.058-1.484 1.317-2.65 2.795-2.587 1.484.057 2.645 1.311 2.587 2.795-.056 1.448-1.253 2.589-2.69 2.589zm-.002-4.505c-.967 0-1.772.768-1.81 1.742-.018.484.152.945.481 1.301.329.355.776.561 1.26.58.996.038 1.842-.743 1.881-1.741.038-.998-.743-1.842-1.741-1.881-.024-.001-.048-.001-.071-.001z"/><path d="m77.357 76.308c-.011.276-.021.552-.032.827-.011.288.261.563.55.55.308-.014.539-.242.55-.55.011-.276.021-.552.032-.827.011-.288-.261-.563-.55-.55-.307.013-.538.242-.55.55z"/><path d="m77.986 77.666c.499.019.998.039 1.497.058.709.027.707-1.074 0-1.101-.499-.019-.998-.039-1.497-.058-.708-.027-.707 1.074 0 1.101z"/><path d="m75.435 76.234c-.011.276-.021.552-.032.827-.011.288.261.563.55.55.308-.014.539-.242.55-.55.011-.276.021-.552.032-.827.011-.288-.261-.563-.55-.55-.307.013-.538.241-.55.55z"/><path d="m75.845 76.482c-.45-.017-.9-.035-1.351-.052-.709-.027-.707 1.074 0 1.101.45.017.9.035 1.351.052.708.028.707-1.073 0-1.101z"/><path d="m79.492 77.733c.092.001.063-.01.12.067.078.105.105.27.125.396.046.281.022.568.014.851-.021.709 1.08.708 1.101 0 .028-.966-.08-2.401-1.36-2.414-.709-.008-.71 1.093 0 1.1z"/><path d="m79.755 78.978c-.031.812-.063 1.624-.094 2.436-.027.709 1.074.707 1.101 0 .031-.812.063-1.624.094-2.436.028-.709-1.073-.707-1.101 0z"/><path d="m79.68 81.467c.011.227.032.462.007.689-.005.047-.042.189-.024.151-.015.03-.087.099-.084.096-.104.089-.195.106-.305.089.118.018-.038-.037.013-.005.08.05.002.006.008-.003.001-.001.02.047-.009-.026.023.057-.005-.052-.005-.05-.027-.296-.234-.55-.55-.55-.277 0-.578.253-.55.55.04.437.203.85.615 1.059.329.167.716.158 1.055.026.374-.146.703-.429.842-.813.138-.38.106-.816.087-1.213-.033-.705-1.134-.71-1.1 0z"/><path d="m78.209 79.18c-.058 1.492-.115 2.985-.173 4.477-.027.709 1.074.707 1.101 0 .058-1.492.115-2.985.173-4.477.027-.708-1.074-.707-1.101 0z"/><path d="m75.868 76.483c-.499-.019-.998-.039-1.497-.058-.709-.027-.707 1.074 0 1.101.499.019.998.039 1.497.058.708.027.707-1.074 0-1.101z"/><path d="m74.362 76.434c-1.268-.088-1.458 1.416-1.502 2.346-.033.708 1.068.707 1.101 0 .013-.284.015-.543.083-.816.068-.27.128-.442.318-.429.707.049.704-1.052 0-1.101z"/><path d="m72.861 78.712c-.031.812-.063 1.624-.094 2.436-.027.709 1.074.707 1.101 0 .031-.812.063-1.624.094-2.436.028-.709-1.073-.708-1.101 0z"/><path d="m72.744 81.199c-.05.396-.115.825.004 1.215.107.35.399.651.721.814.746.377 1.632.037 1.778-.829.049-.293-.077-.593-.384-.677-.264-.073-.628.09-.677.384-.01.058-.022.112-.038.168-.014.051.008-.013-.033.054.013-.022.099-.094.012-.029.038-.029.053-.015-.004-.004.114-.022-.02.003-.05-.004.057.013.041.006-.006-.005-.109-.025-.088-.021-.15-.066.034.025-.068-.063-.069-.065-.06-.065-.005.003-.032-.041-.039-.064.008.097-.022-.052.011.053-.007-.088-.007-.1-.009-.255.027-.511.059-.764.038-.295-.28-.55-.55-.55-.33.001-.515.255-.552.551z"/><path d="m74.387 79.033c-.058 1.492-.115 2.985-.173 4.477-.027.709 1.074.707 1.101 0 .058-1.492.115-2.985.173-4.477.027-.709-1.074-.708-1.101 0z"/><path d="m78.562 83.124c-1.272-.049-2.543-.098-3.815-.147-.709-.027-.707 1.074 0 1.101 1.272.049 2.543.098 3.815.147.708.028.707-1.073 0-1.101z"/><path d="m75.201 53.281c-.035 0-.07-.001-.105-.002-1.484-.057-2.644-1.311-2.587-2.795.028-.719.334-1.384.862-1.872.528-.489 1.213-.746 1.933-.715.719.028 1.384.334 1.872.861.489.528.743 1.215.715 1.933-.056 1.449-1.252 2.59-2.69 2.59zm-.003-4.506c-.458 0-.892.17-1.229.482-.355.329-.561.776-.58 1.26-.039.998.743 1.842 1.741 1.881 1.004.035 1.842-.743 1.881-1.741.019-.484-.152-.946-.481-1.301s-.776-.561-1.26-.58c-.024 0-.048-.001-.072-.001z"/><path d="m75.563 52.792c-.011.276-.021.552-.032.827-.011.288.261.563.55.55.308-.014.539-.242.55-.55.011-.276.021-.552.032-.827.011-.288-.261-.563-.55-.55-.307.013-.538.241-.55.55z"/><path d="m76.192 54.15c.499.019.998.039 1.497.058.709.027.707-1.074 0-1.101-.499-.019-.998-.039-1.497-.058-.708-.028-.707 1.073 0 1.101z"/><path d="m73.641 52.718c-.011.276-.021.552-.032.827-.011.288.261.563.55.55.308-.014.539-.242.55-.55.011-.276.021-.552.032-.827.011-.288-.261-.563-.55-.55-.307.013-.538.241-.55.55z"/><path d="m74.051 52.966c-.45-.017-.9-.035-1.351-.052-.709-.027-.707 1.074 0 1.101.45.017.9.035 1.351.052.709.027.707-1.074 0-1.101z"/><path d="m77.698 54.217c.092.001.063-.01.12.067.078.105.105.27.125.396.046.281.022.568.014.851-.021.709 1.08.708 1.101 0 .028-.966-.08-2.401-1.36-2.414-.709-.008-.709 1.093 0 1.1z"/><path d="m77.962 55.462c-.031.812-.063 1.624-.094 2.436-.027.709 1.074.707 1.101 0 .031-.812.063-1.624.094-2.436.027-.709-1.074-.708-1.101 0z"/><path d="m77.887 57.95c.011.227.032.462.007.689-.005.047-.042.189-.024.151-.015.03-.087.099-.084.096-.104.089-.195.106-.305.089.118.018-.038-.037.013-.005.08.05.002.006.008-.003.001-.001.02.047-.009-.026.023.057-.005-.052-.005-.05-.027-.296-.234-.55-.55-.55-.277 0-.578.253-.55.55.04.437.203.85.615 1.059.329.167.716.158 1.055.026.374-.146.703-.429.842-.813.138-.38.106-.816.087-1.213-.034-.705-1.135-.709-1.1 0z"/><path d="m76.415 55.664c-.058 1.492-.115 2.985-.173 4.477-.027.709 1.074.707 1.101 0 .058-1.492.115-2.985.173-4.477.028-.709-1.073-.707-1.101 0z"/><path d="m74.074 52.967c-.499-.019-.998-.039-1.497-.058-.709-.027-.707 1.074 0 1.101.499.019.998.039 1.497.058.708.027.707-1.074 0-1.101z"/><path d="m72.568 52.918c-1.268-.088-1.458 1.416-1.502 2.346-.033.708 1.068.707 1.101 0 .013-.284.015-.543.083-.816.068-.27.128-.442.318-.429.707.049.704-1.053 0-1.101z"/><path d="m71.067 55.195c-.031.812-.063 1.624-.094 2.436-.027.709 1.074.707 1.101 0 .031-.812.063-1.624.094-2.436.028-.708-1.073-.707-1.101 0z"/><path d="m70.95 57.683c-.05.396-.115.825.004 1.215.107.35.399.651.721.814.746.377 1.632.037 1.778-.829.049-.293-.077-.593-.384-.677-.264-.073-.628.09-.677.384-.01.058-.022.112-.038.168-.014.051.008-.013-.033.054.013-.022.099-.095.012-.029.038-.029.053-.015-.004-.004.114-.022-.02.003-.05-.004.057.013.041.006-.006-.005-.109-.025-.088-.021-.15-.066.034.025-.068-.063-.069-.065-.06-.065-.005.003-.032-.041-.039-.064.008.097-.022-.052.011.053-.007-.088-.007-.1-.009-.255.027-.511.059-.764.038-.295-.28-.55-.55-.55-.33 0-.514.254-.552.551z"/><path d="m72.593 55.516c-.058 1.492-.115 2.985-.173 4.477-.027.709 1.074.707 1.101 0 .058-1.492.115-2.985.173-4.477.027-.708-1.074-.707-1.101 0z"/><path d="m76.768 59.608c-1.272-.049-2.543-.098-3.815-.147-.709-.027-.707 1.074 0 1.101 1.272.049 2.543.098 3.815.147.708.027.707-1.074 0-1.101z"/><path d="m54.811 87.806c-.035 0-.07-.001-.106-.002-.719-.028-1.384-.334-1.872-.862-.489-.528-.742-1.214-.715-1.933.028-.719.334-1.384.861-1.872.528-.489 1.218-.747 1.933-.715.719.028 1.384.334 1.872.861.489.528.742 1.214.715 1.933-.055 1.449-1.251 2.59-2.688 2.59zm-.003-4.505c-.457 0-.892.17-1.229.482-.355.329-.561.776-.58 1.26-.018.484.152.946.481 1.301s.776.561 1.26.58c1.004.035 1.842-.743 1.881-1.741.018-.484-.152-.946-.481-1.301s-.776-.561-1.26-.58c-.025-.001-.048-.001-.072-.001z"/><path d="m55.173 87.317c-.011.276-.021.552-.032.827-.011.288.261.563.55.55.308-.014.539-.242.55-.55.011-.276.021-.552.032-.827.011-.288-.261-.563-.55-.55-.307.013-.538.242-.55.55z"/><path d="m55.802 88.675c.499.019.998.039 1.497.058.709.027.707-1.074 0-1.101-.499-.019-.998-.039-1.497-.058-.708-.027-.707 1.074 0 1.101z"/><path d="m53.251 87.243c-.011.276-.021.552-.032.827-.011.288.261.563.55.55.308-.014.539-.242.55-.55.011-.276.021-.552.032-.827.011-.288-.261-.563-.55-.55-.308.013-.538.241-.55.55z"/><path d="m53.661 87.491c-.45-.017-.9-.035-1.351-.052-.709-.027-.707 1.074 0 1.101.45.017.9.035 1.351.052.708.028.707-1.073 0-1.101z"/><path d="m57.307 88.742c.092.001.063-.01.12.067.078.105.105.27.125.396.046.281.022.568.014.851-.021.709 1.08.708 1.101 0 .028-.966-.08-2.401-1.36-2.414-.708-.008-.709 1.093 0 1.1z"/><path d="m57.571 89.987c-.031.812-.063 1.624-.094 2.436-.027.709 1.074.707 1.101 0 .031-.812.063-1.624.094-2.436.028-.709-1.073-.707-1.101 0z"/><path d="m57.496 92.476c.011.227.032.462.007.689-.005.047-.042.189-.024.151-.015.03-.087.099-.084.096-.104.089-.195.106-.305.089.118.018-.038-.037.013-.005.08.05.002.006.008-.003.001-.001.02.047-.009-.026.023.057-.005-.052-.005-.05-.027-.296-.234-.55-.55-.55-.277 0-.578.253-.55.55.04.437.203.85.615 1.059.329.167.716.158 1.055.026.374-.146.703-.429.842-.813.138-.38.106-.816.087-1.213-.033-.705-1.135-.71-1.1 0z"/><path d="m56.025 90.189c-.058 1.492-.115 2.985-.173 4.477-.027.709 1.074.707 1.101 0 .058-1.492.115-2.985.173-4.477.027-.708-1.074-.707-1.101 0z"/><path d="m53.684 87.492c-.499-.019-.998-.039-1.497-.058-.709-.027-.707 1.074 0 1.101.499.019.998.039 1.497.058.708.027.707-1.074 0-1.101z"/><path d="m52.178 87.443c-1.268-.088-1.458 1.416-1.502 2.346-.033.708 1.068.707 1.101 0 .013-.284.015-.543.083-.816.068-.27.128-.442.318-.429.707.049.704-1.052 0-1.101z"/><path d="m50.677 89.721c-.031.812-.063 1.624-.094 2.436-.027.709 1.074.707 1.101 0 .031-.812.063-1.624.094-2.436.027-.709-1.074-.708-1.101 0z"/><path d="m50.56 92.208c-.05.396-.115.825.004 1.215.107.35.399.651.721.814.746.377 1.632.037 1.778-.829.049-.293-.077-.593-.384-.677-.264-.073-.628.09-.677.384-.01.058-.022.112-.038.168-.014.051.008-.013-.033.054.013-.022.099-.095.012-.029.038-.029.053-.015-.004-.004.114-.022-.02.003-.05-.004.057.013.041.006-.006-.005-.109-.025-.088-.021-.15-.066.034.025-.068-.063-.069-.065-.06-.065-.005.003-.032-.041-.039-.064.008.097-.023-.052.011.053-.007-.088-.007-.1-.009-.255.027-.511.059-.764.038-.295-.28-.55-.55-.55-.33.001-.514.255-.551.551z"/><path d="m52.203 90.042c-.058 1.492-.115 2.985-.173 4.477-.027.709 1.074.707 1.101 0 .058-1.492.115-2.985.173-4.477.027-.709-1.074-.708-1.101 0z"/><path d="m56.377 94.133c-1.271-.049-2.543-.098-3.814-.147-.709-.027-.707 1.074 0 1.101 1.271.049 2.543.098 3.814.147.709.028.708-1.073 0-1.101z"/><path d="m57.557 82.093c1.036-.959 2.072-1.918 3.109-2.878.521-.482-.259-1.259-.779-.778-1.036.959-2.072 1.918-3.109 2.878-.521.482.259 1.259.779.778z"/></g><path d="m77.73 70.312c-.719-2.878-1.437-5.755-2.156-8.633-.172-.687-1.234-.396-1.062.293.719 2.878 1.437 5.755 2.156 8.633.172.687 1.234.396 1.062-.293z" fill="#fff"/><path d="m37.017 68.155c-.719-2.878-1.437-5.755-2.156-8.633-.172-.687-1.234-.396-1.062.293.719 2.878 1.437 5.755 2.156 8.633.172.687 1.234.396 1.062-.293z" fill="#fff"/><path d="m73.659 71.57c-2.093-1.348-4.185-2.696-6.278-4.044-.597-.385-1.15.568-.556.951 2.093 1.348 4.185 2.696 6.278 4.044.598.385 1.151-.568.556-.951z" fill="#fff"/><path d="m59.472 63.642c-2.09-1.241-4.18-2.482-6.27-3.723-.611-.363-1.165.589-.556.951l6.27 3.723c.611.362 1.166-.589.556-.951z" fill="#fff"/><path d="m43.623 55.037c-1.34-.607-2.679-1.215-4.019-1.822-.64-.29-1.201.658-.556.951 1.34.607 2.679 1.214 4.019 1.822.64.29 1.201-.659.556-.951z" fill="#fff"/><path d="m42.034 64.554c-.738 1.272-1.475 2.545-2.213 3.818-.356.614.595 1.169.951.556.738-1.273 1.475-2.545 2.213-3.818.356-.615-.595-1.17-.951-.556z" fill="#fff"/><path d="m54.685 49.289c-1.256.765-2.512 1.53-3.769 2.295-.604.368-.052 1.321.556.951 1.256-.765 2.512-1.53 3.769-2.295.604-.369.051-1.321-.556-.951z" fill="#fff"/><path d="m68.958 60.221c-1.256.765-2.512 1.53-3.768 2.295-.604.368-.052 1.321.556.951l3.768-2.295c.604-.368.051-1.32-.556-.951z" fill="#fff"/><path d="m72.076 47.752c-2.553-1.692-5.106-3.384-7.659-5.076-.592-.393-1.144.561-.556.951 2.553 1.692 5.106 3.384 7.659 5.076.593.392 1.144-.561.556-.951z" fill="#fff"/><path d="m51.431 41.753c-4.217 2.081-8.434 4.161-12.651 6.242-.635.313-.078 1.263.556.951 4.217-2.081 8.434-4.161 12.651-6.242.635-.314.078-1.264-.556-.951z" fill="#fff"/><path d="m62.55 62.025c-1.216-3.888-2.431-7.776-3.647-11.664-.211-.674-1.274-.386-1.062.293 1.216 3.888 2.431 7.776 3.647 11.664.211.674 1.275.386 1.062-.293z" fill="#fff"/><path d="m58.903 84.636c4.312-.906 8.624-1.812 12.936-2.717.693-.146.4-1.207-.293-1.062-4.312.906-8.624 1.812-12.936 2.717-.693.145-.399 1.207.293 1.062z" fill="#fff"/><path d="m51.996 81.943c-3.066-1.174-6.132-2.349-9.198-3.523-.662-.254-.949.81-.293 1.062 3.066 1.174 6.132 2.349 9.198 3.523.663.253.949-.811.293-1.062z" fill="#fff"/><path d="m70.814 14.121.231 2.116-.648-.37-.18-2.009-.095-.055-.822 1.436-.529-.303 2.008-3.507.62.355c.463.265.748.544.855.836.116.324.083.645-.099.963-.142.248-.336.421-.58.518-.246.097-.499.104-.761.02zm-.429-.779.168.096c.501.287.862.239 1.081-.145.205-.359.064-.678-.423-.957l-.188-.108z" fill="#fecd2e"/><path d="m73.251 14.563-.727 1.27c-.21.366-.17.633.119.798.289.166.539.065.749-.301l.727-1.27.511.292-.733 1.281c-.101.177-.211.318-.329.421-.108.091-.241.152-.398.185-.258.051-.521 0-.788-.152-.265-.151-.441-.352-.528-.601-.053-.153-.069-.3-.047-.44.017-.127.083-.292.199-.495l.733-1.281z" fill="#fecd2e"/><path d="m75.275 15.722.513.294-.117.204c.28-.075.532-.048.757.08.257.147.411.343.463.587.045.209-.022.469-.2.781l-.776 1.356-.514-.294.707-1.236c.125-.218.181-.386.168-.504-.011-.119-.094-.223-.25-.312-.169-.097-.322-.11-.457-.039-.133.071-.278.244-.436.52l-.611 1.068-.513-.294z" fill="#fecd2e"/><path d="m77.826 17.181.514.294-.117.204c.28-.075.532-.048.756.08.257.147.412.343.463.587.045.209-.021.469-.2.781l-.776 1.356-.513-.294.707-1.236c.125-.218.181-.386.168-.504-.011-.119-.094-.223-.25-.312-.169-.097-.322-.11-.457-.039-.133.071-.278.244-.436.52l-.611 1.068-.514-.294z" fill="#fecd2e"/><path d="m81.69 21.021-1.586-.907c-.09.19-.114.368-.071.535.044.166.147.295.311.389.127.073.25.103.367.09.117-.014.274-.072.472-.176l.294.488c-.132.075-.258.132-.378.171s-.238.06-.353.063c-.115.004-.228-.011-.34-.043s-.226-.081-.341-.147c-.33-.189-.534-.447-.613-.773-.078-.328-.016-.668.186-1.021.2-.35.46-.578.777-.683.317-.102.638-.06.96.124.326.186.524.438.594.753.07.313 0 .653-.208 1.018zm-.286-.718c.085-.313-.009-.548-.282-.704-.062-.035-.126-.059-.191-.072-.065-.012-.131-.013-.195-.003-.065.01-.128.031-.188.063s-.117.075-.17.129z" fill="#fecd2e"/><path d="m82.95 20.114.511.293-.113.197c.15-.045.272-.064.366-.059.096.005.195.036.296.094.135.077.251.201.347.374l-.502.334c-.057-.125-.132-.214-.224-.267-.279-.16-.539-.029-.779.392l-.657 1.147-.511-.293z" fill="#fecd2e"/><path d="m87.494 20.996-1.209 2.112c-.172.301-.25.55-.231.746.032.285.181.504.447.657.268.153.533.171.795.054.176-.078.351-.271.526-.577l1.209-2.112.529.303-1.292 2.258c-.212.369-.501.608-.868.715-.411.118-.806.07-1.183-.146s-.618-.531-.723-.945c-.093-.371-.034-.741.178-1.111l1.292-2.258z" fill="#fecd2e"/><path d="m88.119 27.608-.511-.293 1.955-3.416.511.293-.138.241c.317-.086.603-.056.859.091.304.174.491.43.56.767.072.337.011.675-.183 1.014-.19.332-.447.551-.772.659-.322.107-.634.075-.933-.097-.259-.148-.432-.385-.517-.709zm2.529-1.601c.121-.212.162-.418.124-.617-.04-.201-.148-.353-.325-.454-.188-.108-.377-.129-.569-.066-.191.064-.347.201-.469.413-.119.208-.159.412-.119.613.04.198.154.35.341.458.178.101.362.118.553.051.195-.065.35-.198.464-.398z" fill="#fecd2e"/><circle cx="93.017" cy="27.287" fill="#fecd2e" r=".909"/><circle cx="67.561" cy="11.972" fill="#fecd2e" r=".909"/><path d="m74.745 109.376.411-.239.845 1.455c.07-.217.193-.376.37-.479.201-.117.4-.145.596-.085.168.054.325.205.469.454l.634 1.091-.411.239-.611-1.053c-.083-.142-.168-.231-.256-.266s-.188-.019-.3.046c-.144.083-.219.187-.226.31-.005.124.056.295.184.514l.5.861-.411.239z" fill="#fff"/><path d="m78.87 108.728.413-.24 1.034 1.781-.413.24-.108-.187c-.077.257-.214.442-.408.555-.246.143-.501.172-.766.088-.265-.089-.477-.269-.634-.541-.155-.267-.204-.536-.148-.806.056-.271.205-.476.445-.615.207-.12.443-.143.706-.068zm-.463 1.452c.099.171.226.283.379.337.157.054.307.04.449-.043.152-.088.245-.212.278-.372.031-.163-.002-.328-.099-.495s-.224-.277-.381-.331c-.155-.051-.308-.034-.458.053-.141.082-.229.204-.261.367-.03.163.001.324.093.484z" fill="#fff"/><path d="m81.233 107.459.317.547c-.16-.06-.29-.09-.389-.089-.099-.002-.197.027-.296.084-.155.09-.252.219-.291.386-.039.168-.012.334.083.497.097.167.226.275.387.325.162.049.321.029.475-.061.099-.057.174-.129.224-.216.049-.084.088-.214.118-.391l.315.543c-.117.184-.259.324-.426.421-.275.16-.557.205-.846.134-.289-.072-.511-.24-.665-.506s-.191-.544-.109-.836.259-.517.532-.676c.176-.101.366-.156.571-.162z" fill="#fff"/><path d="m81.239 105.605 1.093 1.883.245-.912.552-.321-.339 1.197 1.43.551-.534.31-1.025-.41-.028.104.398.686-.411.239-1.793-3.088z" fill="#fff"/><path d="m84.764 105.306.413-.24 1.034 1.781-.413.24-.108-.187c-.077.257-.213.442-.408.555-.246.143-.501.172-.766.088-.265-.089-.477-.269-.634-.541-.155-.267-.204-.536-.148-.806.056-.271.205-.476.445-.615.207-.12.443-.143.706-.068zm-.462 1.452c.099.171.226.283.379.337.157.054.307.04.449-.043.152-.088.245-.212.278-.372.031-.163-.002-.328-.099-.495s-.224-.277-.381-.331c-.155-.051-.308-.034-.458.053-.141.082-.229.204-.261.367-.031.163 0 .324.093.484z" fill="#fff"/><path d="m86.344 104.902.811 1.397-.411.239-.811-1.397-.176.102-.223-.384.176-.102-.379-.653.411-.239.379.653.32-.186.223.384z" fill="#fff"/><path d="m85.962 102.863.411-.239.845 1.455c.07-.217.193-.376.37-.479.201-.117.4-.145.596-.085.168.054.324.205.469.454l.634 1.092-.411.239-.611-1.053c-.083-.142-.168-.231-.256-.266-.088-.034-.188-.019-.3.046-.144.083-.219.186-.226.31-.005.123.056.295.184.514l.5.861-.411.239z" fill="#fff"/><path d="m89.199 103.904c-.149-.257-.184-.529-.105-.817.079-.287.251-.508.516-.661.266-.154.544-.194.835-.12.288.076.509.245.663.51.155.267.193.544.113.832-.081.287-.256.508-.526.665-.267.155-.544.194-.83.115-.285-.076-.507-.251-.666-.524zm.425-.236c.103.178.233.291.388.339.158.048.317.026.477-.067.161-.094.259-.22.296-.379.036-.159.004-.326-.097-.499-.1-.173-.229-.283-.385-.331-.158-.048-.317-.026-.477.067-.157.091-.254.218-.291.379s-.007.325.089.491z" fill="#fff"/><path d="m91.025 101.671.413-.24.095.165c.061-.226.182-.391.362-.496.207-.12.407-.149.598-.086.164.053.319.205.465.456l.634 1.091-.413.24-.577-.995c-.102-.175-.197-.283-.284-.321-.087-.041-.193-.025-.319.048-.136.079-.207.181-.212.304-.004.121.058.293.187.515l.499.859-.413.24z" fill="#fff"/><path d="m95.713 100.795 1.051-.61.233.401-1.896 1.101.291-1.756c.028-.174.049-.324.064-.448s.022-.226.023-.304c.003-.155-.022-.278-.075-.369-.076-.132-.187-.215-.331-.25s-.285-.013-.421.066c-.285.166-.351.429-.196.791l-.424.246c-.277-.635-.149-1.107.383-1.416.257-.149.521-.193.79-.131.27.061.476.213.616.454.089.154.136.328.14.523.003.101-.005.227-.023.379-.019.152-.047.335-.086.55z" fill="#fff"/><path d="m96.648 98.876c-.261-.45-.365-.869-.311-1.26.047-.351.204-.605.471-.76s.565-.165.893-.032c.365.147.682.451.95.913.267.461.374.886.32 1.276-.047.351-.203.604-.469.759-.266.154-.564.165-.895.033-.365-.147-.685-.457-.959-.929zm.419-.242c.182.313.387.542.616.686.227.141.424.162.592.064.167-.097.246-.279.238-.546-.008-.266-.101-.553-.28-.862-.179-.308-.383-.533-.61-.672-.227-.138-.424-.159-.591-.062-.166.096-.245.278-.237.543.007.265.098.549.272.849z" fill="#fff"/><path d="m99.237 96.042-.488.283.003-.534.68-.395 1.639 2.823-.426.247z" fill="#fff"/><path d="m101.739 95.868c-.292-.026-.511-.165-.658-.417-.133-.229-.166-.466-.097-.711.069-.246.221-.437.457-.574.234-.136.474-.172.719-.109.244.062.434.208.568.44.141.242.153.501.036.774.149-.005.289.032.422.112.134.079.243.191.328.338.145.25.182.502.112.757-.071.255-.233.456-.488.604-.261.151-.523.196-.786.133-.264-.062-.467-.215-.608-.458-.185-.319-.186-.614-.005-.889zm-.259-.652c.07.12.17.198.299.232.131.035.255.018.372-.05.116-.067.191-.166.226-.297s.019-.254-.049-.37c-.067-.116-.166-.191-.297-.226s-.254-.018-.37.049-.191.166-.226.297c-.035.132-.02.253.045.365zm.674 1.282c.076.13.186.217.331.258.145.039.283.021.413-.054.129-.075.213-.185.251-.329.038-.146.019-.283-.056-.412-.076-.13-.186-.215-.33-.253-.145-.038-.281-.02-.411.055-.128.074-.212.184-.251.329-.039.143-.021.279.053.406z" fill="#fff"/><path d="m58.457 121.502c-.018-.031-.037-.062-.055-.094-.018-.031-.036-.063-.045-.099-.007-.028-.024-.051-.037-.077-.009-.018-.02-.036-.021-.057 0-.005-.001-.01-.003-.014-.018-.037-.033-.074-.045-.114-.011-.036-.021-.072-.031-.108-.015-.05-.026-.1-.035-.151-.014-.072-.024-.145-.031-.218-.009-.094-.011-.189-.009-.284.001-.072.011-.143.018-.215.006-.064.024-.126.034-.188.013-.081.039-.159.062-.237.037-.121.087-.237.146-.349.038-.073.082-.144.127-.214.025-.039.051-.078.081-.113.029-.034.052-.074.087-.103.013-.01.014-.028.029-.037.012-.007.02-.019.028-.031.013-.02.034-.031.05-.049.025-.029.056-.055.085-.081.034-.03.071-.057.105-.088.032-.029.067-.052.101-.077.074-.053.15-.105.232-.147.104-.053.209-.103.319-.142.041-.015.083-.029.125-.041.034-.01.067-.027.104-.026.025-.015.056-.009.081-.021.02-.01.043-.007.064-.012.047-.011.094-.016.142-.021.09-.009.181-.014.271-.013s.18.012.27.02c.09.009.175.036.264.048.014.002.027.007.041.012.03.01.059.022.089.029.075.017.146.049.216.079.056.024.112.048.165.076.058.03.114.065.169.099.074.047.145.099.212.155.038.032.08.06.111.101.032.015.044.053.076.069.008.004.013.014.018.021.011.015.022.03.038.042.009.006.016.015.022.024.014.019.026.039.047.053.01.007.016.019.023.029.021.032.041.064.066.092.028.031.048.066.069.101.025.042.05.084.074.126.021.035.042.071.055.11.011.033.028.063.044.094.01.018.021.036.02.057 0 .003.001.006.002.009.018.035.03.072.041.11.006.021.015.04.019.062.004.026.015.051.021.077.02.074.034.149.046.224.017.107.025.214.026.322.001.056-.006.112-.003.168-.016.113-.023.227-.052.338-.008.032-.012.065-.021.096-.015.051-.033.102-.048.153-.017.057-.043.11-.065.165-.052.13-.123.249-.197.367-.038.041-.062.093-.101.134-.015.015-.026.034-.04.051-.032.036-.06.076-.095.109-.026.025-.047.056-.078.074-.061.069-.137.12-.206.18-.002.002-.005.004-.007.006-.091.06-.177.128-.275.175-.074.035-.145.076-.222.104-.047.017-.094.035-.141.054-.03.012-.063.019-.094.029-.038.013-.078.024-.118.03-.047.008-.093.026-.142.025-.095.021-.191.028-.288.031-.092.003-.184.004-.276-.009-.043-.006-.087-.007-.13-.014-.052-.008-.104-.021-.157-.029-.1-.015-.193-.054-.289-.081-.051-.015-.098-.041-.148-.06-.073-.029-.141-.066-.209-.104-.084-.047-.164-.101-.241-.158-.043-.032-.084-.067-.124-.102-.039-.034-.075-.072-.113-.107-.028-.026-.048-.058-.08-.08-.006-.004-.01-.012-.015-.018-.017-.025-.033-.049-.058-.068-.013-.01-.021-.027-.03-.042-.018-.028-.037-.055-.06-.079-.011-.011-.02-.024-.028-.037-.023-.039-.047-.08-.072-.121.001 0 .001 0 0 0zm1.491-.911c.043-.035.082-.072.126-.101.089-.059.18-.117.28-.156.041-.016.078-.042.119-.057.075-.027.142-.067.21-.107.037-.022.073-.043.102-.075.007-.008.017-.015.026-.02.037-.02.057-.059.091-.081.045-.061.093-.12.119-.194.037-.105.038-.209-.008-.311-.017-.039-.04-.075-.064-.11-.04-.056-.093-.097-.155-.126-.069-.031-.142-.046-.218-.046-.066 0-.13.007-.192.029-.004.002-.009.002-.014.002-.015-.002-.027.006-.04.012-.062.032-.121.068-.179.106-.009.006-.02.011-.024.022-.007.016-.02.023-.033.033-.006.005-.014.009-.018.015-.025.037-.058.069-.084.106-.045.063-.082.131-.107.203-.045.127-.065.26-.061.396.003.084.016.166.036.246.008.03.012.062.028.09.009.016.014.034.019.053.006.026.017.052.041.071zm.262-.015c-.02.012-.04.025-.061.036-.023.012-.04.031-.057.049-.005.006-.013.009-.019.014-.022.017-.05.027-.065.053-.014.024-.049.031-.057.061-.036.04-.062.085-.085.133-.052.107-.048.215-.006.322.027.069.074.125.135.17.075.056.159.082.249.085.08.003.162-.002.236-.04.008-.004.018-.005.027-.007s.018-.004.027-.008c.082-.038.159-.099.224-.168.027-.029.051-.058.075-.089.062-.081.1-.173.13-.269.014-.044.017-.089.026-.133.008-.04.01-.081.01-.121 0-.08-.008-.16-.024-.238-.004-.022-.015-.041-.019-.063-.007-.047-.029-.089-.044-.134-.003-.009-.008-.017-.013-.025-.007-.012-.013-.013-.026-.003-.032.023-.064.045-.092.073-.011.011-.025.02-.038.028-.06.035-.12.071-.18.105-.016.009-.034.017-.052.023-.027.009-.053.021-.078.034-.026.014-.052.031-.08.041-.051.017-.097.043-.143.071z" fill="#fff"/><path d="m68.991 115.702c.155.262.309.525.464.787.012.02.024.039.035.06.017.034.013.049-.02.072-.017.011-.034.021-.052.031-.124.073-.247.146-.372.219-.118.069-.095.075-.164-.039-.015-.025-.029-.05-.044-.074-.004-.007-.009-.015-.016-.02-.006-.005-.015-.007-.022.001-.012.014-.016.03-.018.047-.015.113-.065.213-.129.303-.032.045-.063.096-.117.123-.012.006-.024.017-.033.027-.061.069-.135.115-.226.132-.011.002-.022.007-.032.013-.088.047-.184.053-.28.06-.112.008-.221-.008-.328-.038-.093-.026-.181-.066-.263-.119-.033-.022-.065-.045-.098-.068-.049-.035-.095-.072-.132-.12-.012-.016-.022-.034-.037-.047-.088-.075-.131-.18-.188-.276-.01-.017-.013-.038-.019-.057s-.009-.04-.018-.057c-.044-.088-.055-.184-.066-.281-.017-.162.005-.319.064-.47.036-.093.089-.177.146-.259.042-.06.11-.092.147-.153.086-.051.161-.122.266-.135.008-.001.017-.005.024-.008.108-.049.221-.049.335-.034.045.006.091.013.133.032.019.008.038.011.059.01.011-.001.014-.011.011-.018-.008-.018-.018-.036-.028-.053-.023-.04-.046-.079-.069-.119-.01-.018-.005-.033.012-.044.029-.019.057-.039.086-.057.111-.066.222-.132.334-.197.032-.019.066-.034.1-.05.017-.008.034-.003.044.015.012.02.024.039.036.059.16.267.318.535.475.802zm-1.438.841c.045.083.111.143.19.192.122.075.25.106.39.058.011-.004.022-.007.033-.008.036-.003.065-.021.095-.037.055-.029.082-.088.132-.122.064-.104.103-.213.094-.338-.004-.052-.022-.099-.033-.149-.01-.046-.028-.088-.056-.125-.066-.084-.141-.158-.24-.201-.154-.067-.305-.062-.451.025-.044.026-.081.059-.115.1-.032.038-.059.076-.077.121-.066.168-.047.329.038.484z" fill="#fff"/><path d="m72.325 113.668c.161.273.321.545.482.818.033.055.048.063-.025.107-.149.087-.297.175-.446.263-.005.003-.01.006-.015.008-.039.02-.047.019-.07-.017-.021-.034-.041-.069-.062-.104-.007-.012-.014-.025-.023-.036-.005-.006-.013-.011-.02-.012-.012-.002-.014.009-.014.017-.003.046-.014.09-.028.134-.028.084-.07.159-.127.228-.03.036-.062.066-.099.093-.007.005-.015.01-.02.017-.051.071-.128.109-.203.141-.081.033-.164.071-.253.074-.166.007-.322-.021-.457-.131-.038-.031-.074-.062-.1-.104-.008-.012-.015-.026-.026-.034-.053-.039-.083-.095-.115-.149-.215-.364-.43-.728-.645-1.092-.04-.067-.039-.068.024-.106.143-.085.287-.17.431-.254.01-.006.02-.012.03-.017.031-.015.048-.012.067.015.013.019.024.039.036.059.149.253.298.506.447.758.035.059.072.118.109.176.045.069.133.135.208.171.033.016.069.023.099.018.094-.018.195-.029.254-.123.017-.026.046-.039.063-.069.044-.08.048-.164.032-.25-.016-.085-.047-.164-.092-.239-.163-.271-.322-.545-.482-.818-.066-.111-.066-.095.041-.159.129-.076.258-.152.387-.228.02-.012.04-.022.061-.032.015-.007.029-.002.038.011.015.021.028.043.041.066.157.264.314.532.472.8z" fill="#fff"/><path d="m64.367 118.736c.074-.044.149-.088.223-.131.034-.02.047-.028.079.012.051.064.119.096.201.084.083-.013.162-.036.231-.088.04-.03.067-.071.096-.109.022-.029.026-.067.01-.106-.032-.078-.075-.109-.159-.103-.054.004-.108.012-.161.024-.117.026-.232.061-.35.081-.111.019-.221.05-.336.048-.092-.002-.18-.014-.262-.058-.053-.029-.104-.06-.136-.114-.007-.012-.017-.024-.027-.033-.031-.028-.051-.061-.061-.101-.004-.017-.012-.033-.019-.048-.082-.166-.055-.327.027-.482.031-.059.066-.12.123-.161.023-.05.07-.074.112-.104.012-.008.023-.018.033-.028.092-.1.217-.149.331-.214.046-.005.09-.019.129-.044.038-.024.086-.008.124-.032.133-.015.265-.025.394.028.097.04.182.094.247.177.016.02.033.039.049.06.027.036.023.049-.017.075-.01.006-.02.012-.03.018-.131.077-.263.155-.394.232-.015.009-.029.018-.045.026-.025.012-.043.007-.061-.013-.011-.013-.02-.028-.032-.041-.034-.036-.074-.063-.124-.065-.086-.004-.166.015-.226.083-.028.032-.064.056-.078.101-.029.091.03.194.124.206.042.005.087.004.128-.004.107-.02.213-.046.319-.069.133-.029.264-.071.401-.079.103-.006.204-.002.299.051.038.021.075.044.103.076.06.069.111.142.147.23.072.178.045.346-.028.513-.024.054-.09.142-.136.183-.027.025-.04.062-.075.081-.03.016-.062.034-.084.06-.054.063-.126.099-.195.14-.032.019-.065.036-.102.045-.028.007-.056.017-.08.032-.062.041-.134.052-.202.068-.056.013-.116.023-.177.021-.083-.002-.166-.011-.243-.042-.081-.032-.163-.069-.218-.143-.054-.028-.081-.079-.111-.127-.005-.007-.009-.015-.013-.022-.011-.023-.009-.035.015-.05.046-.029.094-.056.141-.084.032-.022.064-.041.096-.06z" fill="#fff"/><path d="m73.637 112.424c-.067.039-.134.079-.201.118-.017.01-.035.02-.053.029-.015.007-.028.003-.038-.01-.017-.023-.032-.047-.055-.066-.103-.084-.241-.055-.33.023-.021.019-.041.04-.059.063-.062.08-.057.194.061.249.01.005.022.006.033.006.052.001.103.002.154-.009.106-.023.213-.044.318-.071.074-.019.149-.041.224-.054.108-.017.217-.033.328-.011.093.018.169.062.24.12.011.009.018.022.026.034.027.044.054.088.081.133.085.144.086.296.048.453-.025.105-.089.189-.147.276-.055.04-.087.106-.151.137-.018.008-.033.023-.048.037-.087.087-.191.145-.307.185-.024.008-.049.018-.072.03-.138.071-.286.091-.438.084-.11-.005-.213-.039-.305-.103-.084-.058-.154-.128-.203-.218-.018-.034-.015-.05.02-.071.146-.087.292-.173.438-.259.005-.003.01-.006.015-.008.033-.014.053-.012.074.02.041.061.1.083.169.081.099-.002.249-.055.31-.141.029-.04.06-.075.062-.127.002-.047-.042-.11-.085-.126-.042-.015-.085-.017-.127-.009-.081.015-.162.037-.243.052-.09.016-.177.046-.268.054-.042.004-.083.019-.125.026-.095.015-.197.02-.286.008-.133-.018-.236-.088-.311-.194-.093-.13-.139-.274-.116-.437.014-.099.056-.185.112-.265.034-.049.074-.093.113-.138.013-.015.031-.025.047-.037.028-.02.057-.036.075-.069.009-.016.03-.026.047-.037.059-.036.118-.072.177-.107.042-.025.084-.05.134-.055.014-.001.028-.008.04-.015.069-.037.143-.05.221-.059.051-.006.1-.01.152-.009.125.001.236.042.335.112.067.048.129.104.165.182.011.024.009.034-.014.05-.005.003-.01.006-.015.009-.073.046-.148.09-.222.134z" fill="#fff"/><path d="m69.351 115.45c-.076-.129-.152-.258-.228-.386-.01-.017-.02-.035-.031-.052-.019-.027-.037-.033-.066-.018-.046.024-.09.052-.134.077-.02.011-.04.024-.06.033-.03.013-.048.007-.065-.02-.024-.039-.047-.079-.071-.119-.039-.067-.079-.133-.118-.201-.023-.039-.019-.052.021-.077.046-.029.094-.056.141-.084.017-.01.034-.021.051-.032s.02-.029.013-.045c-.008-.021-.02-.041-.032-.061-.074-.126-.149-.252-.223-.379-.043-.074-.043-.074.031-.117.134-.079.267-.158.401-.236.015-.009.03-.018.045-.025.014-.006.03-.002.039.009.014.018.027.037.038.057.073.124.146.247.219.371.056.096.053.083.136.035.077-.045.153-.091.23-.135.02-.012.04-.023.061-.032.014-.006.028-.003.038.011.005.007.01.014.014.022.061.104.123.208.184.312.021.035.018.05-.012.073-.016.012-.033.022-.051.033-.074.044-.149.088-.223.132-.017.01-.034.021-.051.032-.016.011-.02.028-.013.045.005.013.013.026.02.038.117.198.234.396.35.594.029.05.068.092.11.131.024.023.052.036.082.046.029.01.058.011.092.002.093-.026.177-.067.251-.128.007-.005.014-.01.021-.015.022-.014.038-.012.052.007.007.009.013.019.018.029.061.104.123.208.184.312.007.012.014.025.02.038.011.024.008.038-.013.052-.125.081-.231.19-.368.254-.031.015-.059.034-.095.038-.019.002-.038.012-.056.02-.188.088-.363.069-.529-.055-.086-.064-.158-.139-.212-.232-.069-.117-.14-.236-.211-.354.001 0 .001 0 0 0z" fill="#fff"/><path d="m65.868 117.496c-.074-.126-.149-.253-.223-.379-.012-.02-.023-.04-.036-.059-.015-.022-.036-.027-.06-.015-.023.011-.045.025-.068.038-.04.023-.079.048-.12.069-.039.02-.057.015-.079-.021-.062-.103-.123-.207-.184-.312-.025-.044-.022-.054.024-.082.054-.033.109-.064.163-.097.047-.029.051-.04.024-.09-.021-.038-.043-.074-.065-.112-.057-.097-.114-.193-.171-.29-.012-.02-.022-.04-.032-.061-.006-.014-.003-.028.011-.038.007-.005.014-.01.022-.014.148-.088.297-.175.446-.262.039-.023.054-.019.079.017.012.016.021.034.031.052.067.114.134.228.201.342.01.017.02.035.031.052.026.039.037.042.077.019.087-.05.174-.102.26-.153.101-.06.092-.051.143.034.053.089.105.178.157.267.026.044.024.054-.017.086-.018.014-.038.026-.058.037-.069.041-.139.082-.208.123-.017.01-.034.021-.051.032-.016.012-.018.029-.012.046.006.016.016.031.024.046.111.188.223.376.332.565.035.06.079.113.132.158.051.044.105.058.174.039.09-.025.171-.066.243-.125.009-.007.019-.014.029-.019.014-.006.029-.004.039.008.009.011.017.023.025.035.061.104.123.208.184.312.006.01.012.02.016.03.012.027.008.042-.015.059-.016.012-.034.022-.05.034-.023.017-.048.032-.069.052-.081.08-.183.127-.28.184-.014.008-.032.013-.049.016-.026.005-.049.015-.073.026-.185.087-.359.066-.522-.054-.084-.062-.156-.134-.208-.225-.072-.124-.146-.248-.219-.371.002.001.002.001.002.001z" fill="#fff"/></svg>