<svg enable-background="new 0 0 110.979 128.417" viewBox="0 0 110.979 128.417" xmlns="http://www.w3.org/2000/svg"><path d="m55.745 127.772-55.128-31.828v-63.657l55.128-31.829 55.129 31.829v63.657z" fill="#050a32"/><path d="m55.744 10.533-46.473 26.792v53.583l46.473 26.789 46.476-26.789v-53.583zm44.594 79.296-44.594 25.711-44.596-25.711v-51.414l44.595-25.711 44.594 25.711v51.414z" fill="#26ffad"/><path d="m19.254 88.912h74.958c.459 0 .459-.712 0-.712-24.986 0-49.972 0-74.958 0-.459.001-.459.712 0 .712z" fill="#26ffad"/><path d="m19.254 86.967h74.958c.459 0 .459-.712 0-.712-24.986 0-49.972 0-74.958 0-.459 0-.459.712 0 .712z" fill="#26ffad"/><path d="m30.24 75.482h52.44c.459 0 .459-.712 0-.712-17.48 0-34.96 0-52.44 0-.459.001-.459.712 0 .712z" fill="#26ffad"/><path d="m94.25 85.932c-3.773-3.686-7.546-7.372-11.318-11.058-.328-.321-.832.182-.503.503 3.773 3.686 7.546 7.372 11.318 11.058.328.322.832-.181.503-.503z" fill="#26ffad"/><path d="m94.521 88.462c0-.696 0-1.392 0-2.088 0-.459-.712-.459-.712 0v2.088c0 .459.712.459.712 0z" fill="#26ffad"/><path d="m19.221 86.436c3.773-3.686 7.546-7.372 11.318-11.058.329-.321-.175-.824-.503-.503-3.773 3.686-7.546 7.372-11.318 11.058-.329.321.175.824.503.503z" fill="#26ffad"/><path d="m19.159 88.462c0-.696 0-1.392 0-2.088 0-.459-.712-.459-.712 0v2.088c.001.459.712.459.712 0z" fill="#26ffad"/><path d="m82.942 42.286v10.726h-.712v-10.726c0-.459.712-.459.712 0z" fill="#26ffad"/><path d="m82.23 54.72h.712v9.018h-.712z" fill="#26ffad"/><path d="m82.23 65.446h.712v9.3c0 .461-.712.461-.712 0z" fill="#26ffad"/><path d="m30.525 42.643h51.965c.459 0 .459-.712 0-.712-17.322 0-34.643 0-51.965 0-.459 0-.459.712 0 .712z" fill="#26ffad"/><path d="m32.613 45.158h47.172c.459 0 .459-.712 0-.712-15.724 0-31.448 0-47.172 0-.459 0-.459.712 0 .712z" fill="#26ffad"/><path d="m80.046 44.754v8.257h-.712v-8.257c0-.458.712-.458.712 0z" fill="#26ffad"/><path d="m79.334 54.72h.712v9.018h-.712z" fill="#26ffad"/><path d="m79.334 65.446h.712v7.118c0 .458-.712.458-.712 0z" fill="#26ffad"/><path d="m79.596 72.303c-15.692 0-31.385 0-47.077 0-.459 0-.459.712 0 .712h47.077c.459 0 .459-.712 0-.712z" fill="#26ffad"/><path d="m32.827 72.659c0-9.27 0-18.54 0-27.81 0-.459-.712-.459-.712 0v27.81c0 .459.712.459.712 0z" fill="#26ffad"/><path d="m29.79 42.287v32.65c0 .459.712.459.712 0 0-10.884 0-21.767 0-32.65 0-.459-.712-.459-.712 0z" fill="#26ffad"/><path d="m92.931 61.174c0 1.887-1.53 3.417-3.417 3.417h-29.091c-1.887 0-3.417-1.53-3.417-3.417v-3.891c0-1.887 1.53-3.417 3.417-3.417h29.091c1.887 0 3.417 1.53 3.417 3.417z" fill="#fff"/><path d="m60.422 53.012h11.153v-20.407c0-1.885-1.529-3.417-3.417-3.417h-27.241c-1.885 0-3.417 1.532-3.417 3.417v32.366c0 1.888 1.532 3.417 3.417 3.417h27.241c1.725 0 3.152-1.279 3.383-2.941h-11.119c-2.355 0-4.271-1.916-4.271-4.271v-3.892c0-2.356 1.916-4.272 4.271-4.272zm-13.904-21.284c.55 0 .997.447.997.997 0 .549-.447.997-.997.997s-.997-.447-.997-.997c.001-.551.447-.997.997-.997zm-2.443 0c.55 0 .997.447.997.997 0 .549-.447.997-.997.997-.553 0-.997-.447-.997-.997 0-.551.445-.997.997-.997zm-2.469 0c.55 0 .997.447.997.997 0 .549-.447.997-.997.997s-.997-.447-.997-.997c.001-.551.448-.997.997-.997zm-.925 4.746c-.917 0-.917-.974 0-.974h27.477c.917 0 .917.974 0 .974z" fill="#fff"/><g fill="#26ffad"><path d="m26.966 82.423h59.558c.229 0 .229-.356 0-.356-19.853 0-39.705 0-59.558 0-.23 0-.23.356 0 .356z"/><path d="m28.544 80.857h56.45c.229 0 .229-.356 0-.356-18.816 0-37.633 0-56.45 0-.229 0-.229.356 0 .356z"/><path d="m29.647 79.469h54.243c.23 0 .23-.356 0-.356-18.081 0-36.162 0-54.243 0-.229 0-.229.356 0 .356z"/><path d="m30.715 78.33h52.179c.229 0 .229-.356 0-.356-17.393 0-34.786 0-52.179 0-.229 0-.229.356 0 .356z"/><path d="m31.546 77.333h50.47c.23 0 .23-.356 0-.356-16.823 0-33.647 0-50.47 0-.23 0-.23.356 0 .356z"/><path d="m32.139 76.539h49.135c.229 0 .229-.356 0-.356-16.378 0-32.757 0-49.135 0-.23 0-.23.356 0 .356z"/><path d="m81.273 76.582c1.708 1.93 3.417 3.859 5.125 5.789.153.172.403-.081.252-.252-1.708-1.93-3.417-3.859-5.125-5.789-.153-.172-.403.08-.252.252z"/><path d="m31.977 76.33c-1.708 1.93-3.417 3.86-5.125 5.789-.151.171.099.424.252.252 1.708-1.93 3.417-3.86 5.125-5.789.151-.172-.099-.424-.252-.252z"/><path d="m30.687 81.32h1.765v.285h-1.765z" transform="matrix(.5916 -.8063 .8063 .5916 -52.7856 58.726)"/><path d="m32.929 79.878h1.765v.285h-1.765z" transform="matrix(.5916 -.8063 .8063 .5916 -50.7075 59.9452)"/><path d="m36.435 78.606h1.534v.285h-1.534z" transform="matrix(.5994 -.8005 .8005 .5994 -48.1317 61.3289)"/><path d="m35.742 77.523h1.218v.285h-1.218z" transform="matrix(.5452 -.8383 .8383 .5452 -48.5756 65.7977)"/><path d="m39.22 76.589h1.006v.285h-1.006z" transform="matrix(.5722 -.8201 .8201 .5722 -45.9352 65.405)"/><path d="m39.572 77.532h1.067v.285h-1.067z" transform="matrix(.422 -.9066 .9066 .422 -47.2384 81.2523)"/><path d="m40.515 78.582h1.067v.285h-1.067z" transform="matrix(.422 -.9066 .9066 .422 -47.6452 82.7143)"/><path d="m37.022 79.846h1.522v.285h-1.522z" transform="matrix(.4942 -.8693 .8693 .4942 -50.4264 73.3014)"/><path d="m40.795 79.935h1.522v.285h-1.522z" transform="matrix(.4942 -.8693 .8693 .4942 -48.5956 76.6262)"/><path d="m43.994 78.541h1.347v.285h-1.347z" transform="matrix(.2636 -.9646 .9646 .2636 -43.0077 101.0274)"/><path d="m43.105 77.473h1.167v.284h-1.167z" transform="matrix(.3657 -.9307 .9307 .3657 -44.5274 89.8932)"/><path d="m46.441 77.553h1.115v.285h-1.115z" transform="matrix(.1543 -.988 .988 .1543 -37.0166 112.1463)"/><path d="m50.38 77.084h.285v1.114h-.285z" transform="matrix(.9995 -.0304 .0304 .9995 -2.3392 1.5733)"/><path d="m53.815 77.055h.285v1.114h-.285z" transform="matrix(.9995 -.0307 .0307 .9995 -2.3561 1.6922)"/><path d="m52.083 76.225h.285v1.114h-.285z" transform="matrix(.9995 -.0307 .0307 .9995 -2.3315 1.6387)"/><path d="m47.906 76.225h.285v1.114h-.285z" transform="matrix(.9995 -.0309 .0309 .9995 -2.3527 1.5234)"/><path d="m43.73 76.225h.285v1.114h-.285z" transform="matrix(.9995 -.0307 .0307 .9995 -2.3373 1.3836)"/><path d="m56.164 76.391h.285v1.114h-.285z" transform="matrix(.9995 -.0307 .0307 .9995 -2.3347 1.764)"/><path d="m60.245 76.225h.285v1.114h-.285z" transform="matrix(.9995 -.0307 .0307 .9995 -2.3276 1.8892)"/><path d="m64.516 76.225h.285v1.114h-.285z" transform="matrix(.9995 -.0307 .0307 .9995 -2.3256 2.0202)"/><path d="m68.787 76.225h.285v1.114h-.285z" transform="matrix(.9995 -.0307 .0307 .9995 -2.3236 2.1513)"/><path d="m73.058 76.225h.285v1.114h-.285z" transform="matrix(.9995 -.0307 .0307 .9995 -2.3216 2.2823)"/><path d="m55.327 78.188h.285v1.114h-.285z" transform="matrix(.9995 -.0307 .0307 .9995 -2.3902 1.7392)"/><path d="m57.338 77.102h.285v1.114h-.285z" transform="matrix(.9977 -.0676 .0676 .9977 -5.1195 4.0644)"/><path d="m59.118 78.312h.285v1.114h-.285z" transform="matrix(.9977 -.0676 .0676 .9977 -5.1972 4.1875)"/><path d="m60.88 77.067h.285v1.114h-.285z" transform="matrix(.9928 -.12 .12 .9928 -8.8764 7.8861)"/><path d="m62.606 78.241h.285v1.114h-.285z" transform="matrix(.9928 -.12 .12 .9928 -9.0049 8.1018)"/><path d="m64.403 77.138h.285v1.114h-.285z" transform="matrix(.9837 -.1799 .1799 .9837 -12.9254 12.8808)"/><path d="m66.236 78.259h.285v1.114h-.285z" transform="matrix(.9837 -.1799 .1799 .9837 -13.0972 13.2289)"/><path d="m68.675 79.434h.285v1.114h-.285z" transform="matrix(.9837 -.1799 .1799 .9837 -13.2687 13.6867)"/><path d="m67.98 77.156h.285v1.114h-.285z" transform="matrix(.9837 -.1799 .1799 .9837 -12.8702 13.5246)"/><path d="m69.724 78.099h.285v1.114h-.285z" transform="matrix(.9837 -.1799 .1799 .9837 -13.0115 13.8538)"/><path d="m72.484 79.339h.285v1.269h-.285z" transform="matrix(.9765 -.2156 .2156 .9765 -15.5355 17.541)"/><path d="m76.328 79.392h.285v1.269h-.285z" transform="matrix(.9765 -.2156 .2156 .9765 -15.4566 18.3711)"/><path d="m71.88 80.764h.285v1.417h-.285z" transform="matrix(.9862 -.1655 .1655 .9862 -12.4884 13.0407)"/><path d="m76.474 80.701h.285v1.556h-.285z" transform="matrix(.9297 -.3682 .3682 .9297 -24.619 33.9365)"/><path d="m81.03 80.665h.285v1.556h-.285z" transform="matrix(.8277 -.5612 .5612 .8277 -31.7197 59.5945)"/><path d="m71.326 77.102h.285v1.114h-.285z" transform="matrix(.9837 -.1799 .1799 .9837 -12.806 14.1257)"/><path d="m73.408 78.206h.285v1.114h-.285z" transform="matrix(.9837 -.1799 .1799 .9837 -12.9706 14.5183)"/><path d="m77.039 78.117h.285v1.114h-.285z" transform="matrix(.9726 -.2323 .2323 .9726 -16.1654 20.0827)"/><path d="m74.832 77.067h.285v1.114h-.285z" transform="matrix(.9837 -.1799 .1799 .9837 -12.7424 14.7559)"/><path d="m39.688 81.335h1.577v.285h-1.577z" transform="matrix(.4355 -.9002 .9002 .4355 -50.4958 82.4303)"/><path d="m63.042 80.617h.284v1.577h-.284z" transform="matrix(.9559 -.2937 .2937 .9559 -21.1195 22.1434)"/><path d="m67.503 80.665h.285v1.577h-.285z" transform="matrix(.9962 -.0876 .0876 .9962 -6.878 6.2416)"/><path d="m35.002 76.615h.918v.285h-.918z" transform="matrix(.6461 -.7632 .7632 .6461 -46.0358 54.2288)"/><path d="m35.136 81.355h1.765v.285h-1.765z" transform="matrix(.5916 -.8063 .8063 .5916 -50.9971 62.3277)"/><path d="m62.618 85.662h-11.959c-.779 0-1.412-.633-1.412-1.411 0-.779.633-1.412 1.412-1.412h11.959c.778 0 1.412.633 1.412 1.412 0 .778-.634 1.411-1.412 1.411zm-11.959-2.539c-.621 0-1.127.506-1.127 1.127s.506 1.127 1.127 1.127h11.959c.621 0 1.127-.506 1.127-1.127s-.506-1.127-1.127-1.127z"/></g><path d="m67.025 58.271-.353.209c-.066-.115-.129-.189-.189-.224-.062-.039-.143-.06-.241-.06-.121 0-.221.034-.301.103-.08.067-.119.152-.119.254 0 .141.105.254.313.34l.287.118c.234.095.405.21.513.346s.162.303.162.501c0 .265-.088.484-.265.657-.178.174-.399.261-.662.261-.25 0-.457-.074-.62-.222-.16-.148-.261-.356-.3-.625l.44-.097c.02.169.055.286.105.351.09.124.22.187.392.187.136 0 .248-.045.338-.136s.134-.206.134-.345c0-.056-.008-.107-.023-.154-.016-.047-.04-.09-.073-.129s-.076-.076-.128-.11-.115-.067-.187-.098l-.278-.116c-.395-.167-.592-.411-.592-.732 0-.216.083-.398.248-.543.165-.147.371-.22.618-.22.335-.001.594.161.781.484z" fill="#050a32"/><path d="m68.059 57.842v1.736c0 .248.04.429.121.543.121.165.291.248.509.248.22 0 .391-.083.511-.248.081-.111.121-.292.121-.543v-1.736h.435v1.855c0 .304-.095.554-.284.75-.213.219-.474.329-.784.329s-.57-.11-.782-.329c-.189-.197-.284-.447-.284-.75v-1.855z" fill="#050a32"/><path d="m70.448 60.724v-2.882h.433c.193 0 .346.015.461.045.116.03.213.08.293.151.081.074.145.165.192.274.048.111.073.223.073.336 0 .207-.079.381-.237.524.153.052.274.144.362.274.09.13.134.28.134.452 0 .225-.08.416-.239.571-.096.096-.203.162-.323.2-.131.036-.294.054-.491.054h-.658zm.435-1.645h.136c.162 0 .28-.036.356-.107.075-.071.113-.177.113-.316 0-.136-.039-.239-.116-.309s-.189-.105-.336-.105h-.153zm0 1.236h.269c.197 0 .341-.039.433-.116.097-.083.146-.189.146-.318 0-.124-.047-.229-.14-.313-.091-.083-.253-.125-.487-.125h-.22v.872z" fill="#050a32"/><path d="m74.337 58.271-.353.209c-.066-.115-.129-.189-.189-.224-.062-.039-.143-.06-.241-.06-.121 0-.221.034-.301.103-.08.067-.119.152-.119.254 0 .141.105.254.313.34l.288.118c.234.095.405.21.513.346s.162.303.162.501c0 .265-.088.484-.265.657-.178.174-.399.261-.662.261-.25 0-.457-.074-.62-.222-.16-.148-.261-.356-.3-.625l.44-.097c.02.169.055.286.105.351.09.124.22.187.392.187.136 0 .248-.045.338-.136s.134-.206.134-.345c0-.056-.008-.107-.023-.154-.016-.047-.04-.09-.073-.129s-.076-.076-.128-.11-.115-.067-.187-.098l-.278-.116c-.395-.167-.592-.411-.592-.732 0-.216.083-.398.248-.543.165-.147.371-.22.618-.22.334-.001.593.161.78.484z" fill="#050a32"/><path d="m77.066 57.997v.515c-.251-.21-.511-.315-.78-.315-.296 0-.546.106-.748.319-.204.211-.306.47-.306.776 0 .302.102.557.306.765.204.207.454.311.75.311.153 0 .283-.025.39-.075.06-.025.122-.058.186-.101.064-.042.132-.093.202-.153v.524c-.249.14-.51.211-.784.211-.412 0-.763-.144-1.054-.431-.29-.29-.435-.64-.435-1.049 0-.367.121-.694.364-.982.299-.352.685-.528 1.159-.528.258.002.508.072.75.213z" fill="#050a32"/><path d="m78.59 59.496.892 1.228h-.532l-.823-1.18h-.078v1.18h-.435v-2.882h.509c.381 0 .656.072.825.215.187.159.28.37.28.631 0 .204-.058.38-.175.526-.117.147-.271.241-.463.282zm-.541-.331h.138c.412 0 .618-.157.618-.472 0-.295-.2-.442-.601-.442h-.155z" fill="#050a32"/><path d="m80.35 57.842v2.882h-.435v-2.882z" fill="#050a32"/><path d="m81.043 60.724v-2.882h.433c.193 0 .346.015.461.045.116.03.213.08.293.151.081.074.145.165.192.274.048.111.073.223.073.336 0 .207-.079.381-.237.524.153.052.274.144.362.274.09.13.134.28.134.452 0 .225-.08.416-.239.571-.096.096-.203.162-.323.2-.131.036-.294.054-.491.054h-.658zm.435-1.645h.136c.162 0 .28-.036.356-.107.075-.071.113-.177.113-.316 0-.136-.039-.239-.116-.309s-.189-.105-.336-.105h-.153zm0 1.236h.269c.197 0 .341-.039.433-.116.097-.083.146-.189.146-.318 0-.124-.047-.229-.14-.313-.091-.083-.253-.125-.487-.125h-.22v.872z" fill="#050a32"/><path d="m84.893 58.251h-1.155v.692h1.121v.409h-1.121v.963h1.155v.409h-1.59v-2.882h1.59z" fill="#050a32"/><path d="m57.528 41.314h10.251c.459 0 .459-.712 0-.712-3.417 0-6.834 0-10.251 0-.459 0-.459.712 0 .712z" fill="#050a32"/><path d="m41.772 44.541h20.976c.459 0 .459-.712 0-.712-6.992 0-13.984 0-20.976 0-.459 0-.459.712 0 .712z" fill="#050a32"/><path d="m55.82 41.314c.459 0 .459-.712 0-.712s-.459.712 0 .712z" fill="#050a32"/><path d="m64.172 44.541c.459 0 .459-.712 0-.712s-.459.712 0 .712z" fill="#050a32"/><path d="m41.773 49.239h22.494c.459 0 .459-.712 0-.712-7.498 0-14.996 0-22.494 0-.459 0-.459.712 0 .712z" fill="#050a32"/><path d="m41.773 53.225h12.481c.459 0 .459-.712 0-.712-4.16 0-8.321 0-12.481 0-.459.001-.459.712 0 .712z" fill="#050a32"/><path d="m41.773 57.212h12.339c.459 0 .459-.712 0-.712-4.113 0-8.226 0-12.339 0-.459 0-.459.712 0 .712z" fill="#050a32"/><path d="m41.773 61.198h12.481c.459 0 .459-.712 0-.712-4.16 0-8.321 0-12.481 0-.459 0-.459.712 0 .712z" fill="#050a32"/><path d="m9.989 33.895-1.696-2.949.443-.255c.197-.114.364-.189.498-.226.136-.037.266-.043.389-.018.126.027.245.083.358.167.115.085.205.185.272.301.122.212.143.437.066.676.187-.037.365-.014.532.068.168.08.302.207.403.383.132.23.163.472.091.725-.041.154-.113.286-.213.394-.112.114-.269.229-.47.345zm-.523-1.939.139-.08c.166-.095.266-.202.301-.319s.011-.248-.071-.39c-.08-.138-.18-.221-.3-.248-.12-.026-.256.004-.406.09l-.157.09zm.728 1.265.275-.158c.201-.116.326-.24.375-.374.05-.142.038-.279-.038-.41-.073-.127-.182-.207-.328-.238-.142-.032-.333.021-.572.159l-.225.13z" fill="#fff"/><path d="m13.437 30.808-1.333.767c.099.146.219.239.359.279.139.038.278.018.415-.061.107-.061.181-.138.221-.229.039-.091.064-.23.073-.418l.479-.007c-.001.128-.013.244-.036.348s-.058.199-.104.283c-.046.085-.105.162-.176.229-.071.068-.155.13-.251.186-.278.16-.552.199-.823.117-.271-.083-.492-.273-.663-.569-.169-.294-.225-.579-.166-.855.061-.274.227-.489.498-.645.274-.158.54-.195.8-.112.257.082.474.276.651.583zm-.643-.098c-.192-.195-.402-.226-.631-.094-.052.03-.097.066-.133.108s-.065.089-.086.141c-.02.051-.032.106-.034.164-.002.057.004.117.022.178z" fill="#fff"/><path d="m14.577 29.202-.247.393c-.122-.082-.224-.1-.307-.052-.039.023-.066.055-.079.098-.013.042-.008.084.016.124.041.071.164.095.37.069.284-.033.489-.031.616.006s.23.126.311.266c.103.18.123.368.061.565-.063.189-.185.335-.367.44-.312.179-.62.154-.925-.075l.269-.381c.102.06.173.095.214.103.08.019.156.006.229-.035.145-.083.18-.191.103-.324-.044-.077-.141-.115-.291-.117-.056.003-.111.008-.166.012-.055.005-.111.009-.168.013-.16.011-.283 0-.369-.032-.11-.04-.2-.121-.27-.244-.093-.162-.115-.327-.064-.497.052-.171.16-.303.321-.396.238-.137.486-.116.743.064z" fill="#fff"/><path d="m15.574 28.739.839 1.459-.43.247-.839-1.459-.183.106-.231-.401.183-.106-.392-.682.43-.247.392.682.334-.192.231.401z" fill="#fff"/><path d="m17.078 25.892 1.022 1.776c.146.253.294.415.444.484.221.098.443.083.667-.046.226-.13.351-.314.378-.554.018-.161-.048-.37-.196-.627l-1.022-1.776.445-.256 1.092 1.898c.179.311.229.622.152.935-.089.349-.292.615-.609.798-.317.182-.648.224-.993.124-.309-.09-.553-.29-.732-.601l-1.092-1.898z" fill="#fff"/><path d="m21.33 25.317-.247.393c-.122-.082-.224-.1-.307-.052-.039.023-.066.055-.079.098-.013.042-.008.084.016.124.041.071.164.094.37.069.284-.033.489-.031.616.006.127.038.23.126.311.266.103.18.123.368.061.565-.063.189-.185.335-.367.44-.312.179-.62.154-.925-.075l.269-.381c.102.06.173.094.214.103.08.018.156.006.229-.035.145-.083.18-.191.103-.324-.044-.076-.141-.115-.291-.117-.056.003-.111.007-.166.012s-.111.009-.168.013c-.16.011-.283 0-.369-.032-.11-.04-.2-.122-.27-.244-.093-.162-.115-.327-.064-.496.052-.171.16-.303.321-.396.238-.137.486-.117.743.063z" fill="#fff"/><path d="m23.941 24.765-1.333.767c.099.146.219.239.359.279.139.038.277.018.415-.061.107-.061.181-.138.221-.229.039-.09.064-.23.072-.418l.479-.007c-.001.128-.013.244-.036.348s-.058.199-.104.283c-.046.085-.105.162-.176.229-.071.068-.155.13-.252.185-.278.16-.552.199-.822.117-.271-.083-.492-.273-.663-.569-.169-.294-.225-.579-.167-.855.061-.274.227-.489.498-.645.274-.157.541-.195.8-.112.257.082.474.277.651.584zm-.643-.097c-.192-.195-.402-.226-.631-.094-.052.03-.096.066-.133.108s-.065.089-.086.14c-.021.052-.032.106-.034.163-.003.058.004.117.021.179z" fill="#fff"/><path d="m25.464 23.737c-.155-.269-.19-.553-.106-.852s.264-.528.54-.687c.278-.16.568-.2.87-.122.3.08.529.258.688.534.16.279.199.568.115.867-.086.299-.269.529-.551.691-.279.16-.567.199-.866.117-.295-.08-.526-.263-.69-.548zm.444-.245c.107.186.241.304.403.356.165.051.331.028.497-.068.168-.097.271-.228.31-.394.038-.166.005-.34-.099-.52-.104-.181-.237-.296-.4-.347-.165-.051-.331-.028-.497.068-.164.095-.266.226-.305.394-.039.167-.009.338.091.511z" fill="#fff"/><path d="m28.051 21.562.839 1.459-.432.248-.838-1.459-.153.088-.231-.401.153-.088-.413-.718c-.135-.234-.189-.423-.163-.567.034-.199.158-.361.372-.484.076-.044.185-.077.327-.099l.253.439-.057.003c-.12.006-.21.026-.27.061-.076.044-.112.101-.107.171.004.069.05.18.138.333l.353.613.468-.269.231.401z" fill="#fff"/><path d="m31.12 18.399-.238.422c-.135-.078-.243-.118-.325-.118-.087-.004-.181.023-.282.081-.123.071-.206.165-.247.282-.042.116-.033.226.027.33.083.144.256.198.521.163l.363-.049c.295-.041.538-.024.729.052s.345.214.461.417c.156.271.195.547.116.828-.08.283-.254.502-.524.657-.256.147-.511.193-.765.138-.251-.057-.477-.212-.676-.463l.394-.359c.12.162.225.261.314.298.165.075.335.061.511-.04.139-.08.227-.192.266-.338.038-.145.016-.289-.066-.432-.033-.058-.071-.105-.115-.144-.043-.039-.093-.068-.15-.089s-.122-.033-.195-.038c-.074-.004-.157-.001-.249.009l-.353.046c-.502.061-.847-.072-1.036-.401-.127-.221-.149-.455-.066-.702.083-.248.25-.444.502-.589.341-.195.701-.182 1.083.039z" fill="#fff"/><path d="m32.454 18.496.614 1.068c.177.308.388.392.631.252s.276-.363.099-.672l-.614-1.068.43-.247.62 1.077c.086.149.141.288.167.418.02.117.008.24-.035.368-.073.21-.221.379-.445.508-.223.128-.443.171-.661.128-.134-.026-.247-.077-.34-.153-.085-.066-.177-.184-.276-.355l-.62-1.077z" fill="#fff"/><path d="m33.8 15.904.91 1.582c.069-.277.212-.479.43-.604.251-.144.513-.17.788-.08.274.09.491.274.65.551.165.287.217.571.157.855-.06.282-.217.496-.472.643-.215.124-.455.152-.72.083l.112.195-.43.247-1.856-3.226zm2.35 1.721c-.103-.178-.234-.295-.396-.352-.164-.058-.32-.045-.468.04-.158.091-.254.22-.29.388-.035.166-.002.337.099.513.104.181.235.298.394.35.161.055.32.037.478-.054.149-.086.241-.212.275-.379.036-.169.004-.338-.092-.506z" fill="#fff"/><path d="m37.764 15.863-.247.393c-.122-.082-.224-.1-.307-.052-.039.023-.066.055-.079.098-.013.042-.008.084.016.124.041.071.164.094.37.069.284-.033.489-.031.616.006.127.038.23.126.311.266.103.18.123.368.061.565-.063.189-.185.335-.367.44-.312.179-.62.154-.925-.075l.269-.381c.102.06.173.094.214.103.08.018.157.006.229-.035.145-.083.18-.191.103-.324-.044-.076-.141-.115-.291-.117-.056.003-.111.008-.167.012-.055.005-.111.009-.168.013-.16.011-.283 0-.369-.032-.11-.04-.2-.121-.27-.244-.093-.162-.115-.327-.065-.496.053-.171.16-.303.321-.396.24-.138.488-.117.745.063z" fill="#fff"/><path d="m39.582 14.502.328.571c-.167-.063-.302-.095-.405-.095-.103-.002-.206.027-.309.086-.162.093-.263.227-.305.402s-.013.348.085.518c.1.174.234.288.402.341.169.052.334.031.496-.062.103-.059.181-.134.235-.224.051-.087.093-.223.124-.407l.326.567c-.123.191-.271.336-.445.437-.288.166-.582.211-.882.137-.301-.076-.532-.253-.691-.53-.16-.278-.197-.569-.11-.872.086-.304.272-.538.557-.702.182-.106.38-.161.594-.167z" fill="#fff"/><path d="m39.952 14.182.43-.247.096.166c.031-.128.068-.226.112-.291.044-.068.109-.126.194-.175.113-.065.253-.096.419-.093l.029.507c-.115-.012-.211.005-.289.05-.234.135-.25.379-.046.734l.555.964-.43.247z" fill="#fff"/><path d="m40.905 12.604c-.043-.075-.053-.156-.03-.242s.073-.151.15-.195c.078-.045.16-.055.246-.032.086.022.151.072.195.15.044.077.056.16.032.246-.022.085-.072.151-.15.195-.078.045-.16.055-.246.032-.086-.024-.151-.075-.197-.154zm.939.489 1.07 1.86-.43.247-1.07-1.86z" fill="#fff"/><path d="m44.471 15.405-.43.247-1.653-2.872.43-.247.116.202c.072-.267.216-.462.431-.586.256-.147.521-.174.795-.081.276.091.496.279.66.564.161.279.211.559.151.841-.059.28-.215.492-.467.637-.218.125-.463.15-.735.075zm-.089-2.518c-.102-.178-.234-.296-.395-.352-.163-.057-.32-.043-.468.043-.158.091-.254.219-.29.385-.035.166-.001.338.101.516.1.174.232.29.395.347.161.055.32.037.478-.054.149-.086.24-.212.272-.38.035-.169.004-.337-.093-.505z" fill="#fff"/><path d="m45.408 11.577.839 1.459-.43.247-.84-1.459-.183.105-.231-.401.183-.105-.392-.682.43-.247.392.682.334-.192.231.401z" fill="#fff"/><path d="m45.294 10.079c-.043-.075-.053-.156-.03-.242s.073-.151.149-.195c.078-.045.16-.055.246-.032.086.022.151.071.196.149.044.077.055.16.032.246-.022.085-.072.151-.149.195-.078.045-.16.055-.246.032-.087-.023-.153-.073-.198-.153zm.939.489 1.07 1.86-.43.247-1.07-1.86z" fill="#fff"/><path d="m47.217 11.223c-.155-.269-.19-.553-.106-.852s.264-.528.54-.687c.278-.16.568-.2.87-.122.3.08.529.258.688.534.16.279.199.568.115.866-.086.299-.269.529-.551.691-.279.16-.567.199-.866.117-.295-.079-.526-.262-.69-.547zm.444-.246c.107.186.241.305.403.356.165.051.331.028.497-.068.168-.097.271-.228.31-.394.038-.166.005-.34-.099-.52-.104-.181-.237-.296-.4-.347-.165-.051-.331-.028-.497.068-.164.095-.266.226-.305.394s-.009.338.091.511z" fill="#fff"/><path d="m49.129 8.903.432-.248.099.172c.064-.235.191-.407.38-.516.216-.124.424-.153.624-.087.171.056.332.215.483.477l.656 1.14-.433.249-.598-1.04c-.106-.183-.204-.295-.295-.336-.091-.043-.202-.026-.333.049-.143.082-.217.187-.222.316-.005.127.059.306.192.538l.516.898-.432.248z" fill="#fff"/><path d="m52.537 7.364-.247.393c-.122-.082-.224-.1-.307-.052-.039.023-.066.055-.079.098-.013.042-.008.083.016.124.041.072.164.095.37.07.284-.033.489-.031.616.006.127.038.23.127.311.266.103.18.123.368.061.565-.063.189-.185.335-.367.44-.312.179-.62.154-.925-.075l.269-.381c.102.06.174.094.214.103.08.018.156.006.229-.035.145-.084.18-.191.103-.324-.044-.076-.141-.115-.291-.117-.056.003-.111.007-.166.012-.055.004-.111.009-.168.013-.16.011-.283 0-.369-.032-.11-.04-.2-.121-.27-.244-.093-.162-.115-.327-.065-.497.052-.171.16-.303.321-.396.239-.137.487-.116.744.063z" fill="#fff"/><path d="m58.485 120.001-.993.585.351.595.964-.568.207.351-.964.568.488.828.993-.585.207.351-1.367.806-1.459-2.477 1.367-.805z" fill="#fff"/><path d="m59.809 120.433.722 1.226-.361.213-.722-1.226-.154.091-.199-.337.154-.091-.337-.573.361-.213.337.573.281-.165.199.337z" fill="#fff"/><path d="m59.461 118.639.361-.212.752 1.277c.06-.191.168-.333.323-.424.177-.104.351-.13.525-.078.148.046.287.179.415.397l.564.958-.361.213-.544-.924c-.074-.125-.15-.202-.227-.233-.078-.03-.166-.016-.264.042-.126.074-.192.165-.197.274-.004.109.051.26.165.452l.445.755-.361.213z" fill="#fff"/><path d="m62.841 120.298-1.048-2.97 1.984 1.424-.254-2.444 2.038 2.387-.383.226-1.12-1.354.215 2.041-1.661-1.191.616 1.653z" fill="#fff"/><path d="m66.248 116.185.362-.214.921 1.562-.363.214-.096-.164c-.067.226-.186.39-.357.491-.216.127-.44.155-.673.081-.234-.077-.421-.234-.562-.473-.138-.234-.183-.471-.135-.709.048-.239.177-.42.388-.544.182-.107.389-.128.622-.064zm-.399 1.281c.088.15.2.248.336.295.138.046.27.033.395-.041.133-.079.215-.188.242-.329.027-.143-.004-.289-.09-.435-.086-.147-.199-.243-.337-.29-.137-.044-.271-.028-.403.05-.124.073-.2.181-.228.324-.025.144.003.286.085.426z" fill="#fff"/><path d="m69.476 116.338c.044.074.08.14.108.199s.051.112.068.16c.043.133.053.263.028.392-.045.246-.192.442-.439.587-.209.123-.413.168-.614.135-.207-.033-.382-.146-.523-.338l.363-.214c.059.069.117.115.174.137.132.053.27.038.413-.046.264-.156.3-.396.11-.719l-.128-.219c-.057.231-.179.402-.366.512-.212.125-.432.151-.659.077-.229-.075-.412-.23-.55-.465-.134-.228-.185-.459-.151-.693.037-.25.168-.441.393-.573.197-.116.404-.139.621-.069l-.104-.177.361-.212zm-.783-.537c-.09-.152-.202-.25-.336-.293-.137-.044-.27-.029-.398.047-.137.081-.215.195-.234.343-.018.133.015.272.1.416.084.142.189.238.314.287.137.053.274.039.412-.042s.217-.196.238-.344c.02-.133-.012-.272-.096-.414z" fill="#fff"/><path d="m68.596 113.926c-.037-.063-.046-.131-.028-.204.019-.073.061-.128.125-.166.066-.039.135-.048.207-.03.073.018.128.06.166.125s.048.135.029.207c-.018.072-.06.128-.125.166-.065.039-.135.048-.207.029-.072-.017-.128-.06-.167-.127zm.798.405.92 1.562-.361.213-.92-1.562z" fill="#fff"/><path d="m71.107 113.413.283.48c-.142-.052-.256-.078-.343-.077-.086-.001-.173.025-.26.076-.136.08-.221.194-.254.342-.034.148-.008.294.076.437.086.147.201.241.343.284.143.043.283.024.418-.056.087-.051.152-.115.196-.191.043-.074.076-.189.101-.345l.281.477c-.102.162-.226.286-.373.373-.242.143-.49.184-.744.123-.255-.061-.451-.209-.589-.442-.137-.233-.171-.479-.101-.736.07-.258.225-.457.464-.598.154-.092.322-.14.502-.147z" fill="#fff"/><path d="m70.979 112.522c-.037-.063-.046-.131-.028-.204.019-.073.061-.128.125-.166.065-.038.134-.048.207-.029.073.018.128.06.167.125.038.065.048.135.029.207-.018.072-.059.128-.125.166-.065.038-.134.048-.207.029-.072-.019-.128-.062-.168-.128zm.799.405.921 1.562-.361.213-.921-1.562z" fill="#fff"/><path d="m73.387 111.979.363-.214.921 1.563-.362.214-.096-.163c-.067.226-.186.39-.357.491-.216.127-.441.155-.674.081-.234-.077-.421-.234-.562-.473-.138-.234-.183-.471-.135-.709.048-.239.177-.42.388-.544.182-.107.389-.128.622-.064zm-.399 1.281c.088.15.2.248.336.295.138.046.27.033.395-.041.134-.079.215-.188.243-.329.026-.144-.004-.289-.09-.435-.086-.147-.199-.243-.338-.29-.137-.044-.271-.028-.403.049-.124.073-.2.181-.228.325-.026.144.002.286.085.426z" fill="#fff"/><path d="m74.205 111.497.363-.214.085.144c.053-.199.158-.346.316-.439.182-.107.358-.133.526-.078.145.046.283.179.412.399l.564.958-.362.214-.514-.873c-.091-.154-.175-.247-.252-.281-.077-.036-.171-.021-.281.045-.12.071-.181.16-.185.269-.003.107.053.258.167.453l.444.754-.362.214z" fill="#fff"/><path d="m77.071 110.167-.205.335c-.104-.069-.19-.082-.26-.041-.033.019-.055.047-.066.083-.01.036-.006.071.014.105.036.06.14.078.314.055.24-.03.413-.03.521 0 .107.031.195.105.265.222.089.151.107.31.056.477-.051.16-.154.285-.306.375-.262.155-.523.136-.782-.055l.224-.325c.087.05.148.078.182.085.068.015.132.004.193-.032.122-.072.15-.163.085-.275-.038-.064-.12-.096-.247-.096-.047.003-.094.007-.14.011s-.094.008-.142.012c-.135.01-.239.003-.312-.023-.093-.033-.17-.101-.23-.204-.08-.136-.1-.275-.059-.419.043-.145.132-.257.268-.338.199-.117.408-.102.627.048z" fill="#fff"/><path d="m79.792 107.152.261.443c-.323-.054-.6-.012-.83.124-.255.15-.415.368-.482.653-.068.285-.025.559.13.822.153.26.37.427.651.503.281.075.548.038.803-.112.132-.077.231-.165.298-.262.039-.051.075-.112.108-.181.034-.068.066-.146.097-.234l.266.451c-.143.247-.332.439-.567.578-.354.209-.729.263-1.124.164-.396-.102-.698-.33-.905-.681-.186-.316-.247-.658-.184-1.028.078-.454.321-.801.729-1.041.22-.131.47-.198.749-.199z" fill="#fff"/><path d="m81.035 108.509c-.133-.226-.165-.465-.097-.719s.218-.449.45-.586c.233-.137.478-.174.734-.11.254.065.45.213.586.445.138.234.173.478.105.731-.07.253-.223.449-.459.588-.234.138-.477.174-.73.106-.251-.063-.448-.215-.589-.455zm.373-.211c.092.156.206.255.343.297.14.041.279.021.42-.061.141-.083.227-.195.258-.336.031-.14.002-.287-.088-.439s-.203-.249-.341-.289c-.14-.041-.28-.021-.42.061-.138.081-.223.193-.254.336-.031.142-.004.286.082.431z" fill="#fff"/><path d="m82.99 106.32.528.897c.153.259.331.328.535.208s.23-.31.078-.569l-.528-.897.361-.213.533.905c.073.125.122.242.144.351.018.099.009.203-.026.312-.06.178-.183.322-.371.433-.187.11-.373.149-.557.115-.113-.021-.209-.063-.288-.126-.073-.055-.152-.154-.236-.298l-.533-.905z" fill="#fff"/><path d="m84.42 105.477.363-.214.085.144c.053-.199.158-.346.316-.439.182-.107.358-.133.527-.079.145.046.282.179.412.399l.564.958-.363.214-.514-.873c-.09-.154-.175-.247-.252-.281-.077-.035-.171-.02-.281.044-.12.071-.181.16-.185.269-.003.107.053.258.167.453l.444.754-.362.214z" fill="#fff"/><path d="m87.477 103.767.283.48c-.142-.052-.256-.078-.343-.077-.087-.001-.173.025-.26.076-.136.08-.221.194-.254.342-.034.148-.008.294.076.437.086.147.2.242.342.284.143.043.283.024.419-.056.086-.051.152-.115.196-.191.043-.074.076-.189.101-.345l.281.477c-.102.162-.226.286-.373.373-.242.142-.489.184-.744.123s-.452-.209-.589-.442-.171-.479-.101-.736.225-.457.464-.598c.154-.092.322-.14.502-.147z" fill="#fff"/><path d="m87.349 102.876c-.037-.063-.046-.131-.027-.204s.061-.128.125-.166c.065-.038.134-.048.207-.029.072.018.128.059.166.125.038.065.048.135.029.207-.018.072-.059.128-.124.166-.066.038-.135.048-.208.029-.072-.019-.129-.062-.168-.128zm.799.405.921 1.562-.361.213-.921-1.562z" fill="#fff"/><path d="m88.29 101.652 1.596 2.709-.361.212-1.596-2.709z" fill="#fff"/><path d="m90.817 102.745c-.133-.226-.165-.465-.097-.719.068-.253.219-.449.45-.585.233-.137.478-.174.734-.111.254.065.45.213.586.445.138.234.173.478.105.731-.07.253-.223.449-.459.588-.234.138-.477.174-.73.106-.252-.063-.448-.215-.589-.455zm.372-.211c.092.156.206.255.344.297.14.042.279.021.419-.062.141-.083.227-.195.258-.336.031-.14.002-.287-.088-.438-.09-.152-.204-.249-.341-.29-.14-.041-.28-.021-.42.062-.138.081-.222.193-.254.335-.03.143-.003.287.082.432z" fill="#fff"/><path d="m92.984 100.885.722 1.226-.363.214-.722-1.226-.128.076-.199-.337.128-.076-.355-.603c-.116-.197-.164-.356-.143-.477.028-.169.131-.306.311-.412.064-.038.156-.066.275-.087l.217.369-.048.003c-.102.007-.177.025-.228.054-.064.038-.094.086-.089.146.004.058.044.151.12.279l.303.515.393-.232.199.337z" fill="#fff"/><path d="m95.171 99.892.593 1.006-.374.221-1.459-2.477.424-.25c.207-.122.373-.2.496-.234.124-.034.25-.035.379-.003.224.055.399.189.523.401.133.227.164.451.09.673-.073.222-.239.409-.497.561zm-.204-.346.14-.082c.343-.202.437-.435.281-.7-.151-.256-.403-.279-.757-.071l-.123.073z" fill="#fff"/><path d="m96.175 98.551.361-.213.082.14c.026-.108.056-.191.092-.247.037-.058.091-.108.162-.15.095-.056.213-.083.353-.083l.029.428c-.097-.009-.178.006-.244.044-.197.116-.208.323-.033.62l.477.81-.361.213z" fill="#fff"/><path d="m98.555 97.148.362-.214.921 1.562-.363.214-.096-.163c-.067.226-.186.39-.357.491-.216.127-.44.155-.673.082-.234-.077-.422-.234-.562-.473-.138-.234-.183-.471-.135-.709.048-.239.177-.42.388-.544.182-.107.389-.128.622-.063zm-.399 1.281c.088.15.2.248.336.295.138.047.27.033.395-.041.134-.079.215-.189.243-.329.027-.144-.004-.289-.09-.435-.086-.147-.199-.243-.337-.29-.137-.044-.271-.028-.403.05-.124.073-.2.181-.228.324-.027.144.002.286.084.426z" fill="#fff"/><path d="m101.783 97.301c.044.074.08.14.108.199s.051.112.068.16c.043.133.053.263.028.392-.045.246-.192.442-.439.587-.209.123-.413.168-.614.135-.207-.033-.381-.146-.523-.338l.363-.214c.059.069.117.115.174.137.132.053.27.038.413-.047.264-.155.3-.395.11-.719l-.128-.218c-.057.231-.179.401-.366.512-.212.125-.432.152-.659.077-.229-.075-.412-.23-.55-.465-.134-.228-.185-.459-.151-.693.037-.25.168-.441.393-.573.197-.116.404-.139.621-.069l-.104-.177.361-.213zm-.783-.536c-.09-.152-.202-.25-.336-.293-.137-.044-.27-.029-.398.047-.137.081-.215.195-.234.343-.018.133.015.272.1.416.084.142.189.238.314.286.137.053.274.039.412-.042s.217-.196.238-.343c.02-.134-.012-.273-.096-.414z" fill="#fff"/><path d="m101.701 95.295.528.897c.152.259.331.328.535.208s.23-.31.078-.569l-.529-.897.361-.213.533.905c.074.125.122.242.144.351.018.099.009.203-.026.312-.059.178-.184.322-.371.432s-.373.149-.557.115c-.113-.021-.209-.063-.288-.127-.073-.055-.152-.154-.236-.298l-.533-.905z" fill="#fff"/><path d="m105.063 94.48-1.119.66c.085.123.187.2.305.232.118.031.235.013.35-.055.09-.053.151-.118.185-.196.033-.077.052-.194.057-.353l.405-.01c0 .108-.009.206-.028.294-.018.088-.047.169-.085.241s-.087.137-.146.195-.13.111-.211.159c-.233.137-.464.173-.694.106-.23-.068-.418-.226-.565-.475-.145-.247-.195-.487-.148-.721.049-.232.187-.415.415-.549.23-.136.455-.169.675-.102.218.067.403.229.555.487zm-.544-.077c-.164-.163-.342-.187-.534-.074-.044.026-.081.057-.112.093s-.054.076-.071.12-.026.09-.028.138.005.098.02.151z" fill="#fff"/></svg>