<svg enable-background="new 0 0 110.979 128.417" height="128.417" viewBox="0 0 110.979 128.417" width="110.979" xmlns="http://www.w3.org/2000/svg"><path d="m110.849 96.417-55.426 32-55.423-32v-64l55.423-32 55.426 32z" fill="#2f2a5b"/><path d="m101.923 38.139v53.14l-.009.01-1.42.809-6.281 3.62-2.719 1.571-.241.128-.129.051-.111.071-3.029 1.74-.221.131-.96.548-.689.39-.04.03-2.92 1.691-.33.188-.63.381-.24.141-1.38.79-1.46.848-.181.09-.019.022-1.71.978-.96.562-4.01 2.319-.61.351-.35.2-.28.159-.061.03-3.309 1.92-.191.112-.769.438-3.271 1.891-.01.011-.3.167-.129.083-.17.098-.441.25-.42.239-.049.032-.281.16-3.49 2.019-.979.561-.731.42-.49.279-.029.022-.031-.022-.409-.239-.81-.46-1.05-.609-1.79-1.032-.96-.558-1.151-.66-1.369-.792-.04-.03-2.071-1.189-4.199-2.441-.96-.548-.201-.122-.689-.389-2.761-1.601-.96-.558-1.369-.791-.39-.22-.491-.28-.33-.202-1.849-1.058-.571-.33-.409-.241-1.301-.75-2.509-1.458-.65-.372-.961-.548-1.3-.75-.089-.051-.701-.41-.02-.01h-.009l-.98-.57-.551-.321-.96-.551-1.449-.837-2.111-1.232-7.5-4.319v-53.14l1.42-.821.421-.239.239-.141 12.25-7.069 1.991-1.161 4.929-2.83 1.58-.92.17-.089 1.66-.951 1.161-.669 1.54-.911.52-.299 2.279-1.301.69-.409 1.46-.83 3.73-2.15 1.991-1.15.46-.27 6.069-3.511.221-.129 1.219-.701 1.061.62 6.489 3.75 14.53 8.38 1.04.611 2.3 1.309.87.5 1.521.881 1.369.79.801.46.09.06 1.809 1.039 3.78 2.18.041.031v.009l.259.141.66.389 1.46.841.401.23.26.149.11.07.239.131.051.029.09.061h.01l.049.029.021.011.099.06.611.35.779.44.441.25 1.939 1.119z" fill="#fff"/><path d="m28.017 80.748c-.167-.117-.331-.237-.494-.357.028.604.102 1.199.11 1.805v.038c-.052.181.007.373.235.472.096.041.188.086.283.131-.284-.671-.289-1.377-.134-2.089z" fill="#31ffa6"/><path d="m26.554 80.298v20.58l-.96-.551-1.3-.75-.09-.05-.7-.409-.021-.011h-.01l-.979-.569-.551-.32-.96-.551v-17.369c0-.271.19-.42.4-.461v-.188c-.04-.03-.1-.062-.14-.11-.16-.149-.32-.311-.471-.459.141.02.28.039.42.06.881.13 1.761.221 2.641.301.859.079 1.68.26 2.54.09h.01v.399c.1.077.171.198.171.368z" fill="#3e00ff"/><path d="m12.681 71.148c-.259.072-.362.344-.307.579-.083.161-.079.362.086.532.194.201.401.391.61.576-.128-.562-.254-1.127-.389-1.687z" fill="#31ffa6"/><path d="m32.614 80.57c-.048.209-.109.414-.186.617-.021.059-.047.111-.077.165.099-.05.171-.142.211-.249.068-.098.104-.223.079-.368-.01-.056-.017-.11-.027-.165z" fill="#31ffa6"/><path d="m30.59 82.858c-.118.054-.247.087-.379.101 0 .002 0 .006-.002.011-.083.319-.297.538-.559.649.066.034.132.07.197.104.084.092.202.128.322.116.349.017.61-.385.477-.678-.019-.102-.038-.203-.056-.303z" fill="#31ffa6"/><path d="m41.994 64.869v44.93l-.96-.549-.2-.121-.69-.39-2.76-1.601-.96-.561v-41.708c0-.271.189-.431.4-.46v-.2c-.051-.02-.101-.05-.15-.1l-.84-.84c.25.01.5.02.75.03.58.09 1.17.1 1.77.11.05 0 .101.01.16.01.12.08.271.12.44.12.229 0 .47 0 .699.01h.011c.37.09.75.18 1.13.25.359.07.689-.01.95-.18.01 0 .01.01.02.01.07.09.15.18.22.27-.05-.04-.109-.08-.159-.12l-.07.06c.04.06.06.14.06.22v.44c.099.08.179.2.179.37z" fill="#31ffa6"/><path d="m59.234 51.818c-.17.32-.381.6-.609.87-.011-.72-.45-1.45-.88-1.98-.19-.22-.46-.23-.681-.12-.051-.01-.101-.01-.16.01-.239.07-.319.29-.29.51.021.11.04.22.08.32.08.79.479 1.67 1.189 2.03.01.01.021.01.03.01l-.062.03s0 0-.01 0c-.12.06-.26.06-.42-.05 0 0 0 0 0-.01-.14-.1-.29-.2-.43-.3-.16-.12-.33-.24-.49-.35l-.01-.01c-.011-.01-.021-.01-.021-.02-.09-.06-.17-.12-.26-.18l-.061.06c.04.07.061.15.061.23v.44c.101.07.16.17.17.31.01.01.01.03.01.05v63.86l-.49.279-.029.021-.03-.021-.41-.239-.81-.46-1.051-.61-1.79-1.029-.96-.561v-61.24c0-.27.19-.42.4-.45v-.2c-.05-.02-.1-.06-.15-.1-.989-.99-1.979-1.97-2.97-2.95-.439-.44.24-1.11.68-.68.98.98 1.971 1.97 2.961 2.95.06-.03.119-.04.199-.04h3.38c.03-.07.061-.14.12-.19l.58-.58v-5.13c0-.61.96-.61.96 0v3.2c.729.52 1.479 1.01 2.21 1.53.304.21.243.6.044.79z" fill="#ffce08"/><path d="m67.557 51.958v-1.105c0-.618.961-.618.961 0v1.105c0 .62-.961.62-.961 0z" fill="#31ffa6"/><path d="m69.142 51.862v-1.441c0-.618.96-.618.96 0v1.441c0 .619-.96.619-.96 0z" fill="#31ffa6"/><path d="m71.158 51.862v-1.681c0-.619.96-.619.96 0v1.681c0 .619-.96.619-.96 0z" fill="#31ffa6"/><path d="m76.303 51.918c-.3.22-.6.43-.899.64.021.05.029.1.029.15v1.34c0 .24-.159.39-.34.44-.01.09-.05.19-.14.27l-2.98 2.96c-.04.04-.09.08-.14.1v.2c.21.03.399.18.399.45v49.92l-.609.351-.351.2-.279.159-.062.03-3.31 1.92-.19.109-.77.439v-53.13c0-.16.069-.29.17-.36v-.44c0-.09.029-.16.06-.23-.02-.02-.04-.04-.06-.06l-.24.18h-.01c-.011.01-.021.01-.03.02-.16.12-.33.24-.489.36-.011 0-.011.01-.021.01-.13.1-.271.2-.41.29 0 .01-.01.01-.01.01-.08.06-.19.08-.29.06-.011 0-.011 0-.011 0-.159 0-.319-.09-.42-.23-.061-.08-.119-.15-.17-.22.061.01.13.01.199-.01.181-.05.33-.14.46-.25.15.27.57.25.801.08.301-.24.54-.47.63-.86.091-.38.141-.85.051-1.23-.051-.26-.23-.4-.431-.45-.13-.33-.46-.56-.88-.44-.051.01-.091.03-.141.05.22-.15.43-.3.649-.45v-3.2c0-.62.96-.62.96 0v5.13.01l.58.57c.051.05.091.12.109.19h3.391c.069 0 .141.01.189.04.99-.99 1.979-1.97 2.971-2.95.061-.06.13-.1.199-.12v-.62c-.04.01-.09.02-.13.02h-.859c-.271 0-.479-.22-.479-.48 0-.01 0-.02 0-.02-.12-.08-.21-.21-.21-.39v-1.81c0-.61.96-.61.96 0v1.74h.319c.04-.06.091-.12.16-.17.061-.05.119-.09.181-.13.369-.27.739-.53 1.109-.8-.319-.5-.62-1-.939-1.5-.34-.52.489-1 .819-.48.41.63.79 1.28 1.21 1.91.225.312-.015.622-.305.682z" fill="#f9006c"/><path d="m64.418 56.004c.147-.31.326-.633.569-.879-.378.26-.757.52-1.129.785-.302.219-.242.611-.038.805.09.174.192.334.306.49-.04-.408.122-.849.292-1.201z" fill="#31ffa6"/><path d="m80.65 53.919c-1.147-1.512-2.297-3.027-3.445-4.541-.375-.493.459-.971.826-.485 1.04 1.367 2.074 2.732 3.111 4.099.323-.245.648-.491.971-.737-.376-.496-.749-.992-1.127-1.487-.158-.209-.032-.537.173-.657.244-.144.497-.035.655.172.429.565.857 1.129 1.288 1.693.132.173.065.429-.077.578-.013.147-.103.284-.234.384-.433.328-.864.657-1.296.985-.004.001-.007.004-.011.006-.182.221-.599.299-.834-.01z" fill="#31ffa6"/><path d="m96.859 69.768c.352-.177.735-.261 1.096-.212 0-.028-.001-.059-.002-.086-.008-.169-.078-.29-.186-.363 0-.002-.002-.002-.002-.002-.07-.129-.204-.22-.398-.214-.359.012-.724.021-1.086.032-.08.003-.153.022-.216.055-.059-.027-.122-.04-.189-.04-.254 0-.488.216-.479.479.001.062.003.121.005.185.455-.175 1.012-.102 1.457.166z" fill="#31ffa6"/><path d="m78.317 72.025c.245-.053.489-.104.737-.148.025-.022.053-.045.083-.064-.065-.182-.104-.373-.114-.568-.083.002-.165.004-.249.008-.369.016-.518.361-.445.636-.006.044-.009.09-.012.136z" fill="#31ffa6"/><path d="m87.364 77.308v.311c.211.03.399.18.399.45v21.341l-.96.549-.689.391-.039.029-2.921 1.69-.329.188-.631.381v-24.569c0-.17.069-.29.181-.37v-.439c0-.08.02-.16.05-.221-.05-.061-.1-.109-.16-.16.771 0 1.54-.049 2.312-.09.8.021 1.59.09 2.38.189.239.029.42-.061.55-.199.53.01 1.04 0 1.54-.109.03.01.05.01.069.01-.021.011-.039.011-.061.021-.622.097-1.212.177-1.691.607z" fill="#8e2abe"/><g fill="#171650"><path d="m37.383 65.029v42.109l-.96-.561v-41.55c0-.271.189-.43.399-.45.171-.03.36.03.471.169.05.073.09.171.09.283z"/><path d="m41.994 65.029v44.77l-.96-.549v-44.221c0-.109.029-.21.09-.279.16-.21.489-.241.689-.09.101.079.181.199.181.369z"/><path d="m36.918 65.707h4.224c.619 0 .619-.961 0-.961-1.408 0-2.814 0-4.224 0-.618 0-.618.961 0 .961z"/><path d="m37.783 64.168v.578c0 .232-.178.434-.401.471-.026.008-.052.01-.079.01-.258 0-.474-.214-.481-.471v-.586c0-.22.158-.412.365-.465.037-.009.075-.014.116-.014.048 0 .095.007.143.021.194.061.337.246.337.456z"/><path d="m37.542 64.504h3.648c.619 0 .619-.958 0-.958-1.216 0-2.432 0-3.648 0-.618-.001-.618.958 0 .958z"/><path d="m41.815 64.216v.528c0 .163-.087.313-.215.399-.078.049-.167.081-.266.081-.115 0-.223-.042-.306-.114-.105-.088-.175-.221-.175-.366v-.528c0-.112.042-.217.108-.299.088-.109.225-.181.372-.181.104 0 .208.037.287.099.057.042.103.096.136.159.038.065.059.142.059.222z"/><path d="m42.438 63.12c0 .025-.003.048-.008.074 0 .011-.004.021-.005.032-.021.083-.063.162-.125.227-.142.142-.281.283-.424.424l-.152.152c-.022.022-.046.04-.071.057-.187.125-.445.106-.608-.057-.031-.035-.06-.071-.08-.111-.062-.113-.073-.25-.037-.372.023-.072.062-.139.117-.197l.577-.576c.002-.001.002-.001.003-.003.187-.181.492-.179.676.003.091.095.137.221.137.347z"/><path d="m42.583 57.593v5.184c0 .152-.059.267-.146.343-.018.016-.035.03-.054.041-.045.028-.095.049-.149.063-.247.061-.549-.053-.602-.348-.006-.031-.01-.065-.01-.1v-5.184c0-.492.605-.592.856-.301.065.075.105.175.105.302z"/><path d="m42.486 57.209c0 .027-.001.054-.007.082-.041.223-.24.397-.472.397h-.721c-.069 0-.133-.015-.191-.042-.169-.075-.289-.246-.289-.437v-.003c0-.106.037-.203.097-.282.075-.102.19-.173.318-.192.021-.001.042-.003.064-.003h.721c.262 0 .48.218.48.48z"/><path d="m41.095 58.408c0-.368 0-.736 0-1.104 0-.62-.96-.62-.96 0v1.104c0 .619.96.619.96 0z"/><path d="m41.222 56.732c-.002.142-.056.285-.166.375-.063.054-.146.09-.25.1-.016.003-.03.003-.047.003h-1.487c-.203 0-.339-.103-.407-.241-.087-.169-.073-.39.038-.544.039-.051.087-.097.152-.127.062-.031.132-.049.218-.049h1.487c.31-.001.463.241.462.483z"/><path d="m38.551 56.873v1.44c0 .618.959.618.959 0 0-.481 0-.961 0-1.44 0-.62-.959-.62-.959 0z"/><path d="m38.864 56.968c-.062.03-.133.048-.218.048h-1.392c-.073 0-.138-.013-.194-.037-.164-.069-.253-.227-.269-.392-.015-.149.035-.306.144-.412.077-.073.184-.12.319-.12h1.392c.202 0 .337.102.407.241.018.036.033.075.042.115.051.21-.027.456-.231.557z"/><path d="m37.494 56.633v1.68c0 .618-.959.618-.959 0v-1.68c0-.035.002-.066.01-.096.038-.215.208-.334.391-.361.263-.039.558.113.558.457z"/><path d="m37.062 57.017c0 .261-.217.48-.479.48h-.769c-.034 0-.07-.004-.104-.011-.214-.049-.376-.243-.376-.469 0-.104.033-.2.093-.278.006-.014.017-.025.027-.037.09-.102.218-.165.359-.165h.769c.075 0 .146.02.21.051.149.072.256.221.269.392.001.011.001.025.001.037z"/><path d="m35.863 57.161v1.824c0 .186-.087.317-.209.391-.281.171-.751.041-.751-.391v-1.824c0-.304.231-.459.468-.464.027 0 .058.002.085.005.214.027.407.18.407.459z"/><path d="m34.183 59.225v1.344c0 .372-.348.519-.624.443-.185-.05-.336-.198-.336-.443v-1.344c0-.057.008-.108.023-.154.054-.175.204-.275.364-.301.188-.033.396.032.5.199.036.051.06.114.069.187.002.02.004.044.004.069z"/><path d="m37.203 64.361c-.116.055-.252.069-.381.012-.051-.023-.101-.058-.146-.105-.992-.991-1.984-1.985-2.977-2.976-.089-.088-.132-.185-.141-.28-.032-.317.31-.621.624-.522.066.021.134.062.196.123.988.99 1.977 1.979 2.967 2.969.002.001.005.006.008.007.038.039.069.079.091.121.136.249-.015.536-.241.651z"/><path d="m34.183 59.661c-.079-.002-.161-.029-.246-.091-.032-.023-.063-.044-.095-.067v-.002c-.031-.019-.059-.042-.089-.063-.004-.001-.006-.004-.008-.006-.167-.121-.334-.243-.5-.361-.189-.137-.381-.275-.568-.411-.125-.089-.247-.179-.372-.27-.211-.153-.248-.391-.177-.586.092-.266.372-.45.661-.243.479.348.962.696 1.441 1.043.064.044.127.09.191.136.069.052.122.115.155.18.163.32-.07.746-.393.741z"/><path d="m43.441 64.856c-.119.06-.266.056-.414-.052-.003 0-.004-.002-.007-.004-.002-.002-.002-.002-.004-.002-.14-.103-.283-.205-.425-.309-.161-.117-.326-.235-.489-.353-.001-.002-.006-.004-.008-.007-.007-.006-.017-.012-.025-.018-.083-.06-.167-.122-.251-.181-.075-.056-.151-.109-.228-.166-.006-.003-.015-.01-.021-.013-.059-.043-.103-.092-.136-.146-.162-.257-.035-.609.198-.731.121-.062.271-.062.424.047.108.079.218.158.327.237.015.012.029.022.045.033.042.031.084.062.124.092.009.006.018.012.027.018.001.001.003.003.005.006.164.115.328.234.491.353h.002c.006.004.013.008.016.011.044.034.091.066.135.099.092.067.183.133.274.197.004.004.005.006.01.008.35.255.217.743-.07.881z"/><path d="m34.311 59.881h.864c.261 0 .479-.219.479-.48s-.219-.48-.479-.48c-.288 0-.576 0-.864 0-.262 0-.479.219-.479.48-.001.261.217.48.479.48z"/><path d="m35.711 57.485c-.114.228-.371.371-.636.178-.058-.042-.115-.083-.174-.125-.311-.224-.622-.447-.931-.671-.205-.147-.411-.299-.617-.446-.497-.359-.018-1.192.484-.829.058.042.116.082.172.124.454.329.906.655 1.358.98.019.015.037.028.058.042.043.033.087.063.131.097.237.168.256.444.155.65z"/><path d="m44.832 63.164c-.133.127-.324.17-.523.028-.139-.103-.282-.202-.424-.3-.432-.303-.869-.599-1.301-.9-.182-.125-.36-.25-.538-.379-.498-.357-.02-1.19.482-.829.019.014.037.024.056.039.729.521 1.479 1.015 2.21 1.539.3.219.242.61.038.802z"/><path d="m33.971 56.867c-.222.312-.773.353-.836-.111-.083-.609-.034-1.227-.051-1.839-.004-.215-.018-.432-.046-.646-.013-.086-.003-.166.02-.234.031-.097.09-.175.163-.234.184-.153.458-.186.618-.041.063.056.11.14.125.254.079.564.042 1.135.047 1.701.002.264.015.524.049.784.019.143-.017.268-.089.366z"/><path d="m32.677 58.66c-.04.021-.087.036-.138.044-.76.123-1.518.244-2.276.366-.188.03-.343-.039-.449-.151-.003-.004-.011-.01-.013-.015-.219-.25-.205-.694.207-.759.102-.017.206-.033.308-.05.18-.029.356-.058.534-.086.426-.067.853-.136 1.278-.205.051-.009.104-.019.156-.025.553-.091.816.676.393.881z"/><path d="m33.51 54.181c.007.084-.021.177-.088.269-.112.156-.225.312-.337.467-.742 1.03-1.488 2.061-2.234 3.093-.093.13-.188.261-.283.391-.076.108-.154.216-.23.324-.133.184-.333.234-.512.197-.001 0-.006 0-.01-.001-.156-.035-.295-.135-.357-.269-.061-.119-.058-.266.051-.414.116-.159.229-.318.346-.478.913-1.266 1.828-2.531 2.742-3.795.047-.066.101-.114.162-.147.146-.083.32-.078.464-.015.158.068.281.211.286.378z"/><path d="m29.894 58.971c-.022-.018-.046-.033-.068-.05-.008-.005-.016-.011-.022-.017-.116-.084-.23-.167-.345-.253-1.175-.855-2.338-1.727-3.517-2.579-.35-.256-.215-.745.073-.884.12-.058.266-.053.414.054.159.115.317.232.479.35.984.717 1.962 1.448 2.948 2.167.153.111.308.224.462.336.021.015.042.03.063.046.1.071.159.163.188.258.114.388-.272.864-.675.572z"/><path d="m29.986 51.324c-.078.107-.154.217-.233.324-.209.29-.419.578-.626.869-.189.263-.379.523-.57.787-.204.282-.407.566-.612.849-.187.258-.374.518-.561.777-.159.221-.318.442-.479.663-.038.052-.075.101-.11.153-.36.495-1.193.017-.829-.486.017-.024.034-.048.049-.071 1.05-1.449 2.097-2.899 3.146-4.349.022-.033.048-.06.075-.084.384-.352 1.091.098.75.568z"/><path d="m33.839 53.761c-.028.193-.158.368-.329.419-.107.032-.232.016-.357-.075-.03-.023-.063-.046-.095-.069-.1-.072-.203-.146-.301-.219-1.003-.724-2.004-1.445-3.005-2.169-.119-.086-.241-.173-.359-.259-.226-.165-.249-.431-.158-.634.106-.238.372-.392.645-.197 1.254.907 2.506 1.812 3.759 2.717.175.127.229.314.2.486z"/><path d="m44.876 63.079c-.014.029-.028.056-.045.085-.282.55-.706.979-1.077 1.469-.085.108-.193.189-.313.223-.109.028-.227.019-.345-.05-.017-.012-.036-.023-.052-.037-.066-.053-.122-.13-.153-.212-.056-.135-.058-.291.031-.408.055-.071.111-.14.167-.209.039-.05.08-.1.121-.148.003-.007.008-.015.017-.021.232-.286.464-.564.656-.879.06-.094.114-.194.163-.295.273-.558 1.1-.071.83.482z"/><path d="m51.784 53.738v61.73l-.96-.561v-61.17c0-.27.189-.43.399-.46.17-.02.36.03.47.18.051.071.091.162.091.281z"/><path d="m56.393 53.738v63.791l-.49.279-.029.021-.03-.021-.41-.239v-63.831c0-.12.03-.21.09-.28.16-.21.49-.24.69-.09.08.06.14.14.17.25.009.041.009.081.009.12z"/><path d="m51.318 54.413h4.225c.618 0 .618-.959 0-.959-1.407 0-2.815 0-4.225 0-.618 0-.618.959 0 .959z"/><path d="m52.182 52.876v.577c0 .233-.176.433-.399.471-.027.007-.054.009-.079.009-.259 0-.475-.213-.48-.471v-.586c0-.22.157-.412.364-.464.036-.01.076-.016.116-.016.047 0 .095.008.141.023h.002c.192.062.335.247.335.457z"/><path d="m56.052 52.796c-.025.217-.179.417-.462.417h-3.647c-.15 0-.265-.058-.341-.144-.159-.177-.162-.474-.015-.656.041-.053.094-.095.159-.123.057-.023.121-.036.196-.036h3.647c.097 0 .179.022.244.063.065.038.119.094.154.159.013.021.022.044.031.067.032.081.044.168.034.253z"/><path d="m56.215 52.925v.528c0 .163-.087.311-.215.399-.077.049-.168.081-.267.081-.114 0-.223-.044-.306-.115-.104-.087-.175-.219-.175-.365v-.528c0-.112.04-.215.106-.298.091-.111.224-.183.373-.183.105 0 .207.036.286.098.059.042.104.096.137.159.04.069.061.143.061.224z"/><path d="m56.837 51.831c0 .025-.002.048-.009.071 0 .011-.002.023-.008.033-.018.085-.06.163-.123.226l-.575.578c-.022.021-.046.039-.07.059-.188.124-.446.104-.61-.059-.03-.033-.059-.069-.08-.11-.062-.116-.072-.252-.034-.374.022-.073.061-.141.114-.196l.577-.577c.002-.001.002-.001.003-.003.188-.181.493-.178.678.003.093.095.137.222.137.349z"/><path d="m56.983 46.302v5.183c0 .154-.058.269-.146.346-.02.013-.036.027-.053.039-.036.025-.078.043-.121.058-.003.001-.009.001-.012.001-.019.004-.034.009-.052.013-.002.002-.007.002-.008.002-.24.04-.509-.08-.563-.357-.004-.031-.009-.065-.009-.1v-5.183c.003-.622.964-.622.964-.002z"/><path d="m55.687 46.397h.719c.264 0 .479-.218.479-.48 0-.261-.217-.479-.479-.479-.237 0-.479 0-.719 0-.262 0-.479.218-.479.479-.001.262.217.48.479.48z"/><path d="m55.495 47.118c0-.369 0-.736 0-1.104 0-.619-.959-.619-.959 0v1.104c0 .618.959.618.959 0z"/><path d="m53.671 45.917h1.488c.617 0 .617-.959 0-.959-.496 0-.993 0-1.488 0-.619 0-.619.959 0 .959z"/><path d="m52.95 45.582v1.439c0 .619.96.619.96 0 0-.479 0-.96 0-1.439 0-.62-.96-.62-.96 0z"/><path d="m51.655 45.725h1.393c.619 0 .619-.96 0-.96-.464 0-.927 0-1.393 0-.619 0-.619.96 0 .96z"/><path d="m50.935 45.342v1.679c0 .619.961.619.961 0 0-.56 0-1.121 0-1.679 0-.619-.961-.619-.961 0z"/><path d="m50.214 46.206h.768c.264 0 .481-.22.481-.481s-.218-.479-.481-.479c-.255 0-.511 0-.768 0-.261 0-.48.218-.48.479s.219.481.48.481z"/><path d="m49.302 45.869v1.824c0 .619.962.619.962 0 0-.608 0-1.216 0-1.824 0-.619-.962-.619-.962 0z"/><path d="m47.623 47.933v1.344c0 .62.961.62.961 0 0-.448 0-.896 0-1.344 0-.619-.961-.619-.961 0z"/><path d="m51.602 53.069c-.117.058-.251.069-.379.012-.052-.023-.102-.058-.147-.104-.991-.993-1.984-1.983-2.977-2.977-.437-.438.243-1.118.68-.68.988.991 1.979 1.979 2.968 2.969.003.001.006.006.008.007.038.039.07.081.09.123h.002c.132.252-.018.536-.245.65z"/><path d="m46.705 47.099c.544.394 1.088.787 1.632 1.18.501.364.979-.469.482-.829-.06-.044-.122-.088-.183-.133-.503-.363-.981.47-.485.829.063.044.123.088.186.132.162-.276.322-.552.482-.829-.544-.394-1.088-.787-1.632-1.179-.5-.362-.979.47-.482.829z"/><path d="m57.853 53.56c-.002.002-.002.002-.005.002-.12.062-.27.062-.421-.048-.003-.001-.005-.001-.006-.006-.143-.101-.285-.207-.43-.308-.159-.117-.325-.236-.489-.353-.002-.002-.005-.004-.007-.006-.01-.008-.019-.013-.026-.019-.083-.06-.165-.12-.251-.181-.076-.054-.15-.108-.229-.165-.005-.003-.013-.01-.02-.014-.059-.042-.103-.091-.136-.145-.162-.258-.035-.61.195-.732.122-.062.275-.062.428.048.107.079.217.158.327.236.016.012.03.022.044.032.044.031.086.062.126.092.008.007.017.012.023.018.002.001.006.004.007.006.163.117.326.234.486.352.002 0 .002.002.003.002 0 0 .003 0 .003.002.05.036.102.07.149.106.093.068.184.133.273.198.005.003.006.005.011.008.347.249.223.728-.055.875z"/><path d="m48.712 48.589h.863c.262 0 .479-.217.479-.48 0-.261-.218-.479-.479-.479-.288 0-.577 0-.863 0-.262 0-.481.218-.481.479 0 .263.219.48.481.48z"/><path d="m49.959 45.542c-.572-.414-1.146-.827-1.72-1.242-.504-.363-.98.471-.484.829.574.415 1.146.828 1.718 1.242.505.364.983-.469.486-.829z"/><path d="m59.231 51.875c-.13.126-.323.167-.521.025-.141-.102-.28-.202-.424-.299-.433-.304-.87-.599-1.303-.901-.182-.125-.358-.25-.538-.378-.497-.358-.019-1.191.484-.83.018.014.035.025.054.039.729.524 1.48 1.017 2.209 1.54.302.219.244.61.039.804z"/><path d="m59.278 51.79c-.014.029-.028.056-.047.084-.28.549-.704.977-1.077 1.467-.079.105-.187.186-.301.218-.002.002-.002.002-.005.002-.11.034-.23.021-.352-.048-.018-.009-.033-.022-.05-.034-.066-.054-.122-.131-.155-.216-.056-.134-.059-.289.033-.406.054-.072.106-.141.164-.21.04-.05.08-.099.121-.148.004-.007.01-.015.018-.021.231-.286.464-.563.657-.878.06-.094.112-.194.163-.296.271-.556 1.098-.068.831.486z"/><path d="m72.234 58.579v49.81l-.609.351-.351.2v-50.36c0-.12.029-.21.09-.29.109-.13.29-.19.471-.17.208.028.399.189.399.459z"/><path d="m67.624 58.579v52.469l-.19.111-.77.438v-53.02c0-.17.069-.29.17-.37.21-.15.54-.12.7.08.049.082.09.171.09.292z"/><path d="m71.734 58.293c-1.406 0-2.813 0-4.223 0-.619 0-.619.96 0 .96h4.223c.619.001.619-.96 0-.96z"/><path d="m71.831 57.717v.585c-.007.26-.222.471-.48.471-.025 0-.055-.002-.079-.008-.224-.037-.4-.236-.4-.472v-.577c0-.21.145-.395.341-.459h.001c.044-.012.091-.021.139-.021.04 0 .079.006.115.015.206.054.363.246.363.466z"/><path d="m71.452 57.91c-.077.086-.189.144-.342.144h-3.647c-.282 0-.438-.2-.46-.418-.011-.086 0-.175.031-.254.008-.023.021-.044.031-.065 0-.001 0-.001 0-.001.035-.063.087-.12.152-.158.065-.041.146-.063.244-.063h3.647c.073 0 .141.013.197.038.064.029.115.068.157.12.154.18.149.479-.01.657z"/><path d="m67.798 57.765v.528c0 .147-.067.28-.175.367-.083.071-.19.113-.306.113-.099 0-.188-.031-.268-.083-.127-.086-.214-.233-.214-.397v-.528c0-.08.021-.157.059-.225.034-.063.08-.117.139-.16.079-.059.179-.096.284-.096.149 0 .284.071.372.183.071.081.109.186.109.298z"/><path d="m67.691 57.468c-.021.04-.049.076-.081.109-.162.164-.422.183-.606.058-.024-.018-.049-.037-.069-.058-.013-.012-.024-.025-.037-.037-.021-.019-.042-.041-.061-.059-.023-.024-.044-.045-.066-.067-.138-.139-.273-.274-.412-.413-.067-.067-.112-.148-.13-.236-.002-.006-.004-.014-.004-.021-.006-.024-.007-.05-.007-.075-.001-.125.043-.251.141-.345.182-.185.488-.187.673-.004.004.001.004.001.005.004l.575.576c.057.056.094.123.117.195.035.12.022.257-.038.373z"/><path d="m67.03 51.142v5.184c0 .035-.004.069-.01.099-.045.255-.271.375-.492.363-.002 0-.002 0-.002 0-.065-.002-.131-.015-.188-.042-.024-.009-.047-.021-.068-.034-.02-.013-.036-.027-.054-.043-.088-.076-.146-.191-.146-.343v-5.184c0-.619.96-.619.96 0z"/><path d="m67.366 50.278c-.238 0-.479 0-.72 0-.261 0-.479.218-.479.48 0 .261.219.48.479.48h.72c.263 0 .48-.219.48-.48.001-.262-.218-.48-.48-.48z"/><path d="m68.518 50.854v1.105c0 .619-.961.619-.961 0v-1.105c0-.618.961-.618.961 0z"/><path d="m69.381 49.798c-.494 0-.99 0-1.486 0-.618 0-.618.96 0 .96h1.486c.619 0 .619-.96 0-.96z"/><path d="m70.102 50.421v1.441c0 .619-.96.619-.96 0v-1.441c0-.618.96-.618.96 0z"/><path d="m71.398 49.606c-.464 0-.928 0-1.391 0-.62 0-.62.96 0 .96h1.391c.619 0 .619-.96 0-.96z"/><path d="m72.118 50.181v1.681c0 .619-.96.619-.96 0v-1.681c0-.618.96-.618.96 0z"/><path d="m72.838 50.086c-.255 0-.512 0-.768 0-.263 0-.479.217-.479.48 0 .262.218.48.479.48h.768c.262 0 .48-.218.48-.48.002-.262-.218-.48-.48-.48z"/><path d="m73.75 50.709v1.823c0 .433-.467.563-.749.393-.122-.074-.211-.203-.211-.393v-1.823c.001-.618.96-.618.96 0z"/><path d="m75.429 52.773v1.344c0 .246-.151.396-.337.443-.274.079-.622-.072-.622-.443v-1.344c0-.023.002-.046.004-.067.011-.075.033-.138.069-.19.104-.164.31-.231.497-.199h.003c.16.026.311.127.362.302.018.047.024.098.024.154z"/><path d="m75.092 54.561c-.006.095-.052.192-.139.28l-2.977 2.976c-.047.047-.096.082-.146.105-.13.057-.264.045-.379-.012-.229-.114-.379-.4-.241-.652h.001c.021-.042.051-.08.089-.118.002-.003.006-.006.008-.008.988-.991 1.979-1.98 2.968-2.968.063-.062.127-.099.194-.122.318-.103.655.202.622.519z"/><path d="m76.35 51.94c-.016.011-.032.023-.048.035-.301.215-.6.432-.896.645-.167.122-.335.242-.5.363-.004 0-.005.002-.006.004-.029.021-.058.042-.088.063l-.097.069c-.084.062-.167.088-.246.091-.321.008-.557-.423-.394-.74.031-.065.084-.126.155-.179.061-.043.122-.088.184-.132.37-.269.738-.536 1.107-.803.114-.082.228-.163.341-.246.505-.362.984.471.488.83z"/><path d="m67.218 57.157c-.032.054-.077.104-.137.146-.006.003-.011.007-.017.011v.001c-.079.054-.152.11-.229.166-.082.057-.162.117-.244.176-.002.002-.007.004-.009.006-.007.005-.018.012-.024.018-.166.119-.331.24-.497.361-.007.004-.011.007-.016.007-.137.102-.276.202-.413.299-.002.004-.004.004-.006.006-.088.064-.195.081-.298.065-.001 0-.001 0-.003 0-.147-.025-.285-.118-.355-.239-.143-.241-.04-.503.173-.656.001-.002.005-.004.006-.004.093-.067.185-.133.278-.202.047-.036.098-.073.147-.107 0 0 .002 0 .002-.002.002 0 .002-.001.004-.001.162-.118.324-.235.484-.353.003-.001.006-.004.008-.005.009-.005.018-.012.025-.017.043-.032.081-.06.124-.091.015-.012.031-.021.047-.032.109-.079.219-.16.327-.239.152-.109.303-.109.423-.048.235.123.364.474.2.734z"/><path d="m74.823 52.95c0 .036-.004.067-.01.1-.037.173-.174.315-.343.361-.041.012-.083.019-.126.019h-.865c-.263 0-.479-.219-.479-.48 0-.007 0-.017.001-.024.011-.25.222-.456.478-.456h.865c.069 0 .137.017.199.047.164.074.28.243.28.433z"/><path d="m73.579 51.213c.573-.415 1.146-.829 1.721-1.243.496-.358.019-1.192-.486-.829-.571.414-1.146.827-1.72 1.242-.497.36-.018 1.194.485.83z"/><path d="m66.61 55.162c-.18.129-.358.255-.54.38-.432.301-.869.598-1.301.899-.143.1-.285.2-.425.299-.197.142-.392.1-.522-.025-.204-.194-.264-.585.038-.805.729-.522 1.48-1.015 2.21-1.54.019-.013.037-.024.054-.038.504-.36.984.472.486.83z"/><path d="m65.761 58.107c-.032.084-.087.159-.154.213-.016.012-.031.025-.049.035-.078.045-.154.065-.229.065-.001 0-.001 0-.003 0-.166 0-.318-.097-.426-.239-.375-.489-.797-.918-1.079-1.467-.017-.029-.031-.055-.046-.084-.269-.554.56-1.042.829-.485.05.1.104.201.164.295.19.315.426.593.658.879.004.006.011.013.017.021.033.038.063.077.096.117.064.079.128.16.189.241.09.117.089.275.033.409z"/><path d="m21.943 80.598v17.62l-.96-.551v-17.069c0-.279.19-.431.4-.46.18-.02.36.029.47.17.061.07.09.17.09.29z"/><path d="m26.554 80.598v20.28l-.96-.551v-19.729c0-.12.04-.22.09-.29.16-.199.49-.229.7-.08.099.08.17.2.17.37z"/><path d="m21.485 81.269h4.224c.62 0 .62-.959 0-.959-1.408 0-2.815 0-4.224 0-.62 0-.62.959 0 .959z"/><path d="m22.347 79.734v.576c0 .234-.174.434-.401.473-.023.006-.052.008-.078.008-.257 0-.475-.213-.48-.472v-.585c0-.221.158-.413.365-.464.036-.011.075-.017.115-.017.052 0 .097.008.142.022h.002c.194.062.335.248.335.459z"/><path d="m22.107 80.07h3.648c.62 0 .62-.96 0-.96-1.216 0-2.431 0-3.648 0-.617 0-.617.96 0 .96z"/><path d="m26.38 79.783v.527c0 .163-.084.309-.213.396-.077.053-.17.082-.268.082-.115 0-.221-.043-.306-.112-.105-.087-.174-.22-.174-.366v-.527c0-.111.038-.216.105-.298.088-.112.225-.183.373-.183.105 0 .207.035.286.098.058.042.104.096.137.156.039.069.06.145.06.227z"/><path d="m27.001 78.686c0 .024-.001.048-.005.073-.001.011-.005.021-.008.031-.019.084-.061.164-.125.228-.143.142-.282.28-.425.424-.019.021-.037.036-.055.056-.021.021-.041.041-.062.06-.011.014-.022.026-.034.037-.021.021-.047.041-.072.061-.186.123-.443.103-.606-.061-.032-.032-.062-.068-.083-.108-.061-.115-.072-.253-.037-.375.024-.072.063-.141.12-.195l.578-.578c.184-.183.491-.183.676.002.095.091.14.218.138.345z"/><path d="m27.148 73.158v5.184c0 .152-.057.269-.146.346-.018.016-.034.027-.052.039-.046.029-.096.053-.148.063-.015.004-.028.008-.042.01-.241.039-.509-.078-.563-.355-.005-.031-.008-.064-.008-.102v-5.184c0-.49.608-.593.855-.301.064.073.104.174.104.3z"/><path d="m27.052 72.774c0 .028-.002.056-.008.083-.04.223-.237.396-.473.396h-.72c-.066 0-.133-.016-.192-.041-.167-.076-.286-.244-.286-.438v-.001c0-.105.036-.202.095-.284.075-.101.19-.172.321-.19.021-.002.043-.004.063-.004h.72c.263-.003.48.217.48.479z"/><path d="m25.661 73.973c0-.367 0-.735 0-1.104 0-.617-.961-.617-.961 0v1.104c0 .618.961.618.961 0z"/><path d="m25.789 72.298c-.002.142-.057.285-.167.375-.063.055-.146.089-.249.1-.016.001-.031.001-.049.001h-1.488c-.202 0-.336-.103-.407-.239-.087-.17-.073-.391.038-.544.038-.055.09-.099.154-.129.062-.03.131-.048.215-.048h1.488c.311 0 .467.242.465.484z"/><path d="m23.117 72.438v1.44c0 .617.961.617.961 0 0-.48 0-.961 0-1.44 0-.619-.961-.619-.961 0z"/><path d="m23.429 72.535c-.062.03-.133.049-.218.049h-1.391c-.072 0-.138-.016-.193-.037-.164-.071-.252-.229-.267-.396-.015-.147.033-.308.144-.411.076-.072.183-.117.315-.117h1.393c.204 0 .338.103.41.239.02.036.031.076.042.119.046.209-.032.454-.235.554z"/><path d="m22.061 72.198v1.681c0 .617-.961.617-.961 0v-1.681c0-.034.002-.065.009-.095.04-.216.209-.339.396-.363.262-.037.556.116.556.458z"/><path d="m21.629 72.583c0 .261-.217.479-.48.479h-.769c-.035 0-.069-.004-.104-.011-.213-.05-.377-.243-.377-.47 0-.104.035-.199.093-.278.008-.011.018-.022.028-.034.086-.104.217-.166.359-.166h.768c.076 0 .147.018.212.048.147.074.253.226.267.396.003.01.003.024.003.036z"/><path d="m20.428 72.726v1.824c0 .186-.086.314-.209.39-.283.173-.751.042-.751-.39v-1.824c0-.305.232-.457.468-.463.028-.002.056 0 .084.006.214.025.408.178.408.457z"/><path d="m18.748 74.791v1.345c0 .37-.347.521-.622.444-.186-.051-.339-.197-.339-.444v-1.345c0-.057.009-.107.022-.153.054-.175.204-.276.367-.304h.002c.189-.028.391.037.496.199.036.053.059.115.068.188.004.023.006.044.006.07z"/><path d="m21.767 79.925c-.116.058-.253.068-.38.012-.048-.023-.099-.057-.145-.104-.993-.992-1.985-1.983-2.978-2.978-.085-.086-.128-.183-.139-.276-.035-.317.306-.625.622-.525.066.021.134.063.194.123.992.992 1.979 1.979 2.971 2.97.001.001.006.005.007.006.039.04.067.081.089.124h.002c.135.252-.017.536-.243.648z"/><path d="m18.748 75.225c-.079-.002-.161-.028-.246-.09-.032-.022-.064-.046-.095-.069-.028-.021-.061-.041-.089-.063-.168-.123-.34-.244-.509-.367-.24-.174-.478-.346-.717-.518-.076-.057-.148-.107-.225-.162-.297-.215-.244-.603-.046-.8.132-.131.329-.176.53-.03.483.348.962.694 1.441 1.043.063.045.127.09.189.137.072.052.124.111.156.181.17.316-.066.745-.389.738z"/><path d="m27.593 80.371c-.001 0-.005-.004-.007-.004-.009-.01-.02-.016-.028-.021-.008-.008-.016-.012-.022-.021-.007-.002-.011-.006-.017-.01-.119-.085-.236-.172-.357-.258h-.002c-.007-.005-.011-.01-.016-.014-.158-.113-.315-.228-.474-.34-.004-.004-.004-.006-.009-.007-.007-.009-.018-.014-.024-.021-.084-.06-.167-.121-.251-.18-.077-.057-.152-.11-.229-.166l-.001-.002c-.007-.004-.011-.008-.017-.012-.058-.042-.104-.091-.134-.145-.166-.26-.039-.609.193-.732.12-.061.272-.061.425.048.108.079.219.157.328.235.016.013.03.023.046.033.04.029.083.06.123.091.01.006.018.013.026.019.002.004.002.004.004.004.166.12.328.238.493.356.139.099.279.2.417.301.006.005.013.009.018.013.033.025.063.053.088.082.343.387-.105 1.088-.573.751z"/><path d="m18.877 75.446h.863c.262 0 .48-.219.48-.479 0-.262-.219-.479-.48-.479-.288 0-.576 0-.863 0-.264 0-.481.22-.481.479 0 .26.218.479.481.479z"/><path d="m20.276 73.051c-.11.228-.37.368-.636.178-.057-.042-.115-.083-.172-.124-.408-.295-.813-.588-1.219-.88-.111-.081-.221-.16-.329-.238 0 0 0-.002-.002-.002-.205-.149-.242-.382-.179-.575.088-.271.372-.464.666-.253.108.079.216.156.322.233.404.291.808.582 1.208.873.02.014.036.025.056.04.045.032.089.063.132.097.236.168.253.445.153.651z"/><path d="m29.146 78.843c-.085.006-.178-.02-.271-.088-.568-.408-1.151-.801-1.727-1.199-.181-.124-.357-.252-.538-.378-.498-.359-.019-1.192.484-.83.018.015.037.024.054.04.719.512 1.451.994 2.167 1.508.016.011.029.021.043.032.407.288.165.898-.212.915z"/><path d="m18.25 72.225c-.133-.024-.254-.103-.329-.238 0 0 0-.002-.002-.002-.014-.024-.024-.052-.034-.08-.057-.163-.104-.327-.144-.495-.158-.636-.228-1.3-.445-1.921-.021-.056-.031-.11-.031-.159-.002-.383.519-.554.807-.312.063.05.116.123.148.216.245.696.303 1.447.508 2.156.023.086.051.172.081.259.136.395-.24.64-.559.576z"/><path d="m87.763 78.348v21.062l-.96.549v-21.61c0-.12.03-.221.09-.29.11-.14.29-.188.471-.17.21.028.399.18.399.459z"/><path d="m83.154 78.348v23.721l-.329.188-.631.381v-24.29c0-.17.069-.29.181-.37.2-.148.529-.119.689.08.05.07.09.17.09.29z"/><path d="m87.266 78.06c-1.409 0-2.818 0-4.225 0-.619 0-.619.961 0 .961h4.225c.618 0 .618-.961 0-.961z"/><path d="m87.362 77.484v.585c-.006.257-.222.472-.48.472-.027 0-.054-.002-.079-.008-.223-.039-.4-.238-.4-.473v-.576c0-.123.049-.234.126-.32.09-.098.217-.16.354-.16.041 0 .082.007.118.017.205.052.361.242.361.463z"/><path d="m86.641 76.86c-1.216 0-2.431 0-3.646 0-.619 0-.619.96 0 .96h3.646c.619 0 .619-.96 0-.96z"/><path d="m83.33 77.533v.527c0 .146-.068.277-.177.366-.083.069-.188.112-.305.112-.099 0-.188-.029-.265-.08-.13-.088-.215-.235-.215-.398v-.527c0-.082.021-.158.058-.226.033-.063.08-.115.137-.157.077-.063.182-.098.285-.098.149 0 .285.07.373.182.071.083.109.185.109.299z"/><path d="m83.222 77.234c-.021.041-.048.078-.082.109-.163.164-.424.183-.606.059-.025-.02-.049-.037-.069-.059-.013-.012-.025-.025-.036-.036-.182-.181-.358-.359-.54-.54-.09-.09-.138-.209-.14-.329-.003-.127.044-.254.14-.351.183-.183.489-.185.673-.004.004.002.004.002.005.004l.575.576c.056.057.095.123.118.195.033.124.023.261-.038.376z"/><path d="m82.56 70.908v5.184c0 .468-.544.582-.813.348-.088-.078-.146-.191-.146-.348v-5.184c0-.127.041-.227.104-.301.249-.293.855-.19.855.301z"/><path d="m83.377 70.522v.002c0 .194-.119.363-.29.438-.06.024-.123.041-.19.041h-.721c-.232 0-.432-.174-.471-.396-.006-.027-.01-.055-.01-.083 0-.261.221-.479.479-.479h.721c.021 0 .043.002.063.004.132.02.246.091.319.19.063.081.1.178.1.283z"/><path d="m84.049 71.724c0-.368 0-.736 0-1.104 0-.619-.96-.619-.96 0v1.104c0 .619.96.619.96 0z"/><path d="m85.321 70.285c-.068.139-.204.239-.407.239h-1.488c-.018 0-.032 0-.047-.002-.103-.011-.187-.046-.249-.101-.109-.09-.164-.231-.168-.375 0-.24.151-.483.464-.483h1.488c.085 0 .154.019.218.049.063.03.115.074.153.128.11.154.124.374.036.545z"/><path d="m84.674 70.189v1.439c0 .619.96.619.96 0 0-.48 0-.961 0-1.439 0-.62-.96-.62-.96 0z"/><path d="m87.391 69.901c-.015.166-.102.323-.27.396-.055.022-.121.035-.192.035h-1.393c-.081 0-.153-.018-.217-.047-.205-.1-.28-.347-.232-.556.011-.043.021-.08.043-.117.069-.139.206-.241.406-.241h1.393c.135 0 .242.047.318.118.11.102.158.262.144.412z"/><path d="m87.649 69.948v1.681c0 .619-.96.619-.96 0v-1.681c0-.345.295-.495.56-.459.184.026.354.147.392.363.007.03.008.062.008.096z"/><path d="m88.848 70.332c0 .263-.216.48-.479.48h-.769c-.261 0-.479-.219-.479-.48 0-.012 0-.024.001-.035.015-.172.121-.32.27-.396.063-.03.135-.049.21-.049h.769c.145 0 .272.063.359.167.075.084.118.193.118.313z"/><path d="m89.281 70.476v1.822c0 .514-.655.602-.884.267-.047-.069-.075-.158-.075-.267v-1.822c0-.278.193-.432.407-.457.261-.038.552.116.552.457z"/><path d="m90.75 74.241v1.37c0 .051-.005.096-.018.135-.125.471-.899.44-.94-.092-.001-.014-.001-.027-.001-.043v-1.349c.001-.122.039-.222.104-.294.134-.161.378-.204.572-.129.153.061.273.194.283.402z"/><path d="m90.609 76.219c-.448.405-.955.638-1.554.741-.618.107-1.209.182-1.693.617-.004.002-.006.002-.009.006-.126.112-.268.146-.396.121-.26-.041-.472-.293-.432-.543.016-.09.063-.179.149-.259.014-.014.028-.026.043-.038.448-.392.951-.633 1.544-.736.543-.097 1.081-.15 1.528-.476.048-.034.095-.071.141-.112.3-.271.69-.078.801.205.061.152.039.329-.122.474z"/><path d="m82.402 74.169c-.268.002-.533.004-.8.008-.879.012-1.756.037-2.634.085-.188.009-.317-.071-.392-.192-.167-.271-.035-.744.392-.769.125-.005.248-.013.372-.017.751-.037 1.507-.057 2.262-.068.242-.004.484-.006.729-.008.033.192.075.386.127.574-.062.128-.079.262-.056.387z"/><path d="m93.847 74.179h-.015c-.086.004-.172.008-.261.01-.097.004-.191.008-.289.01-.844.028-1.688.043-2.533.043-.207.002-.417.002-.626 0h-.166c-.017-.093-.036-.184-.063-.272-.058-.194-.135-.386-.197-.584-.01-.027-.018-.056-.025-.083v-.003c-.002-.006-.003-.014-.006-.021h.021c1.117.008 2.232.002 3.348-.031.271-.007.544-.018.813-.027.053-.002.101.004.146.016.004 0 .011.001.017.004.45.134.392.916-.164.938z"/><path d="m89.99 73.301c-.287 0-.574 0-.863 0-.263 0-.479.219-.479.479 0 .264.219.48.479.48h.863c.264 0 .48-.219.48-.48 0-.26-.218-.479-.48-.479z"/><path d="m93.981 72.13c-.008 0-.014 0-.021.002-.192.01-.387.019-.576.027-.13.006-.257.01-.383.014-1.235.041-2.473.039-3.709.021h-.011c-.032-.002-.066-.002-.101-.002-.021-.072-.039-.146-.06-.217-.067-.229-.135-.455-.198-.684-.01-.022-.019-.043-.027-.064.129.002.258.003.386.005 1.567.022 3.136.022 4.7-.063.052 0 .098.008.136.028.305.154.259.911-.136.933z"/><path d="m82.349 71.173c-.01.063-.011.121-.017.184-.035.047-.06.107-.064.18-.015.2-.023.399-.023.6-.216.001-.429.003-.643.006-.779.009-1.556.023-2.334.051-.165.004-.328.012-.494.018-.249.011-.398-.141-.445-.323-.071-.273.076-.62.445-.636.941-.039 1.886-.061 2.828-.069.248-.007.499-.008.747-.011z"/><path d="m79.383 73.744c.033.478-.525.584-.807.326-.084-.074-.142-.186-.153-.326-.046-.625-.163-1.229-.096-1.857.002-.02.004-.037.005-.057.032-.259.192-.479.48-.479.237 0 .513.221.479.479-.017.121-.024.241-.025.362-.01.367.032.729.072 1.093.018.151.035.304.045.459z"/><path d="m27.092 54.684c.345.307.716.586 1.121.811.541.301 1.024-.529.484-.83-.335-.186-.642-.406-.928-.661-.195-.172-.484-.192-.678 0-.176.179-.195.506.001.68z"/><path d="m28.403 53.148c.244.274.559.489.866.683.222.14.528.048.657-.172.136-.231.049-.518-.173-.657-.274-.173-.454-.289-.67-.533-.173-.196-.502-.176-.68 0-.192.193-.174.484 0 .679z"/><path d="m88.375 72.376c.041.441.17.883.426 1.25.148.215.418.313.656.174.212-.127.322-.443.173-.658-.157-.227-.271-.504-.295-.766-.024-.26-.2-.48-.479-.48-.245 0-.505.22-.481.48z"/><path d="m94.01 73.801c.006.177-.067.301-.178.378-.016.01-.028.02-.045.025-.152.084-.354.08-.505-.007-.132-.073-.228-.204-.232-.396-.007-.186-.011-.369-.018-.554-.011-.359-.021-.717-.033-1.074-.005-.158-.011-.317-.017-.476-.008-.29.198-.444.421-.463h.004c.253-.021.526.136.537.463.002.146.008.29.014.435 0 .01.002.021.002.029.012.357.021.715.033 1.072v.006c.005.187.011.376.017.562z"/><path d="m95.7 74.147c-.054.002-.108.004-.161.006-.585.017-1.167.034-1.751.054-.021 0-.037.002-.058.002-.057.002-.11-.006-.158-.02-.454-.135-.4-.923.158-.941.087 0 .175-.004.264-.007.004 0 .011-.002.017-.002.499-.016.998-.03 1.499-.046.063-.003.127-.004.19-.006.617-.02.616.939 0 .96z"/><path d="m96.028 71.695c-.027.215-.183.409-.46.419-.028 0-.062.002-.09.002-.508.017-1.014.031-1.518.048-.144.004-.283.01-.426.015-.058.002-.105-.005-.152-.017-.425-.121-.416-.803.021-.926h.004c.037-.011.079-.017.127-.02.191-.006.387-.012.581-.019.442-.015.887-.028 1.33-.042.041-.001.081-.001.121-.003.065-.003.126.009.177.023.22.078.314.307.285.52z"/><path d="m96.513 74.642c.005.133-.035.236-.102.313-.246.277-.845.174-.858-.313 0-.018-.002-.032-.002-.051-.004-.146-.007-.293-.013-.438-.012-.321-.02-.643-.029-.96-.01-.359-.021-.719-.031-1.077-.011-.321-.02-.64-.031-.959-.009-.309-.018-.616-.026-.925v-.038c.011-.315.286-.455.539-.421.01 0 .021.002.029.003.081.017.163.054.229.106.005.004.011.01.016.015.055.047.097.108.121.187.012.033.021.069.024.109 0 .014.002.025.002.039 0 .012 0 .023.001.035.003.076.004.15.007.229.002.063.004.129.005.191.003.021.003.043.003.066.01.318.021.64.03.961.028.975.058 1.95.086 2.928z"/><path d="m96.412 74.955c-.017.098-.063.19-.133.269-.071.077-.144.151-.216.229-.158.168-.315.338-.476.504-.179.192-.497.181-.678 0-.042-.039-.074-.086-.096-.135-.085-.177-.048-.394.096-.542.215-.229.428-.458.641-.688.017-.016.033-.03.049-.049.18-.189.498-.181.68 0 .113.112.154.266.133.412z"/><path d="m97.506 76.214c-.074.095-.192.156-.348.162-.633.021-1.266.039-1.899.059-.374.013-.521-.334-.443-.614.053-.182.199-.338.443-.346.269-.009.538-.017.805-.024.365-.01.731-.021 1.096-.033h.016c.449-.002.562.522.33.796z"/><path d="m98.146 75.781c.012.387-.355.53-.64.434-.173-.055-.313-.201-.321-.434-.004-.121-.006-.24-.011-.363-.038-1.241-.078-2.481-.114-3.723-.006-.181-.011-.361-.017-.544-.004-.137-.008-.278-.014-.416 0-.047-.003-.091-.004-.137-.009-.245-.017-.49-.023-.734 0-.018 0-.036-.001-.055-.001-.108-.006-.218-.01-.328v-.011c-.014-.452.491-.572.773-.365 0 0 .002 0 .002.002.106.073.178.194.186.363.065 2.104.129 4.206.194 6.311z"/><path d="m97.366 69.852c-.05.001-.104.003-.15.003-.011.002-.021.002-.03.002-.062.003-.12.004-.183.007-.045 0-.092.002-.14.005-.025 0-.057.002-.085.002-.136.004-.273.006-.41.012-.029 0-.059.003-.088.003-.017 0-.032 0-.049-.003h-.016c-.097-.008-.175-.043-.235-.09-.007-.006-.014-.015-.021-.02-.222-.208-.186-.643.105-.795.063-.031.136-.052.216-.055.362-.012.727-.021 1.086-.032.194-.006.328.085.398.214 0 0 .002 0 .002.002.156.279.024.73-.4.745z"/><path d="m96.377 70.164v.029c-.003.031-.005.063-.015.092-.01.038-.024.075-.043.108-.01.014-.016.026-.026.04-.087.127-.236.209-.396.209-.257 0-.455-.199-.478-.448 0-.007-.002-.021-.002-.03-.008-.248-.017-.498-.022-.746-.009-.264.227-.479.479-.479.067 0 .132.014.189.04.168.075.284.245.289.438 0 .019.002.037.002.055 0 .021.002.042.002.063.005.115.008.232.011.348.005.063.006.128.007.189.001.031.003.058.003.092z"/><path d="m97.22 70.729c-.34.012-.679.021-1.018.032-.618.02-.619.979 0 .96.339-.011.678-.021 1.018-.032.616-.02.617-.979 0-.96z"/><path d="m97.362 70.583c-.077-.278-.151-.558-.195-.844-.293.122-.585.247-.878.369.083.161-.014-.061.026.068.014.039.023.08.036.119.197-.195.396-.395.592-.592-.121-.039.087.049-.054-.023-.071-.038-.076-.042-.116-.078-.195-.172-.484-.193-.677 0-.179.177-.197.507 0 .682.174.154.367.271.591.348.339.115.703-.252.59-.59-.048-.144-.092-.28-.16-.418-.094-.188-.344-.273-.541-.221-.274.075-.374.332-.334.592.043.285.114.563.193.842.17.595 1.095.342.927-.254z"/><path d="m76.302 51.975c-.182.041-.385-.01-.515-.208-.091-.137-.179-.273-.265-.412-.317-.501-.623-1.012-.944-1.513-.336-.524.496-1.003.829-.486.408.637.789 1.295 1.21 1.926.212.32-.025.625-.315.693z"/><path d="m76.216 50.727c.486-.352 1.004-.66 1.504-.992.515-.339.034-1.171-.483-.829-.501.332-1.018.64-1.505.992-.211.153-.313.414-.171.657.121.209.444.325.655.172z"/><path d="m81.484 53.929c-.182.221-.599.298-.834-.01-1.147-1.512-2.297-3.027-3.445-4.541-.375-.493.459-.971.826-.485 1.04 1.367 2.074 2.732 3.111 4.099.113.148.228.295.338.444.139.182.111.362.004.493z"/><path d="m83.025 52.554c-.013.147-.103.284-.234.384-.433.328-.864.657-1.296.985-.004.001-.007.004-.011.006-.21.147-.529.023-.646-.179-.146-.246-.037-.499.17-.657.044-.034.09-.066.135-.103.323-.245.648-.491.971-.737.063-.047.13-.097.193-.146.209-.16.535-.033.654.173.055.095.075.186.064.274z"/><path d="m83.025 52.554c-.028.031-.063.058-.098.079-.245.143-.498.037-.656-.171-.053-.069-.104-.139-.158-.208-.376-.496-.749-.992-1.127-1.487-.158-.209-.032-.537.173-.657.244-.144.497-.035.655.172.429.565.857 1.129 1.288 1.693.132.174.065.43-.077.579z"/><path d="m80.938 51.361c.54-.41 1.082-.822 1.622-1.232.209-.158.316-.41.172-.656-.119-.206-.447-.332-.655-.173-.541.411-1.081.821-1.62 1.231-.21.159-.317.411-.176.657.121.206.45.331.657.173z"/><path d="m77.083 42.886c1.673 2.204 3.307 4.435 4.978 6.64.369.486 1.203.009.829-.485-1.672-2.203-3.305-4.435-4.978-6.638-.37-.487-1.204-.01-.829.483z"/><path d="m74.974 44.423c1.623 2.138 3.248 4.276 4.871 6.415.37.486 1.205.009.829-.484-1.624-2.139-3.248-4.278-4.871-6.416-.371-.486-1.204-.009-.829.485z"/><path d="m75.831 44.372c.604-.319 1.173-.695 1.731-1.087.502-.353.023-1.186-.483-.829-.56.393-1.128.769-1.732 1.087-.547.289-.062 1.118.484.829z"/><path d="m49.574 40.436c-2.081 3.208-4.16 6.414-6.242 9.621-.337.521.495 1.001.83.484 2.081-3.207 4.16-6.414 6.239-9.62.34-.521-.492-1.003-.827-.485z"/><path d="m43.941 49.758c-.668-2.458-1.337-4.917-2.006-7.376-.163-.597-1.09-.343-.926.256.669 2.458 1.338 4.917 2.008 7.375.162.597 1.087.343.924-.255z"/><path d="m41.599 42.839c2.833-.656 5.697-1.171 8.538-1.8.604-.134.347-1.06-.256-.926-2.84.63-5.704 1.145-8.537 1.8-.602.141-.347 1.066.255.926z"/><path d="m17.111 74.119h-2.303c-.111 0-.2-.031-.271-.082-.329-.229-.238-.879.271-.879h2.303c.622 0 .622.961 0 .961z"/><path d="m14.538 74.037c-.079-.015-.157-.053-.23-.121-.614-.557-1.27-1.063-1.848-1.655-.165-.169-.169-.371-.086-.532.133-.266.495-.42.764-.146.185.188.375.367.571.541.39.353.797.685 1.188 1.035.032.026.06.053.088.078.388.35-.033.884-.447.8z"/><path d="m15.541 71.887c-.049.104-.149.186-.311.209-.511.069-1.016.054-1.521.026-.295-.015-.59-.031-.886-.035-.257-.004-.405-.168-.449-.36-.064-.274.086-.603.449-.599.711.009 1.44.141 2.151.041.008-.002.017-.002.023-.002.433-.042.682.431.544.72z"/><path d="m16.715 70.535c-.009.033-.025.063-.046.094-.265.369-.617.674-.865 1.056-.071.11-.164.175-.264.204-.371.105-.829-.278-.563-.689.008-.01.015-.021.021-.029.238-.359.565-.648.82-.998.008-.01.015-.021.021-.027.15-.213.416-.313.657-.171.182.103.292.355.219.56z"/><path d="m16.784 70.265c.004.107-.023.199-.069.27-.217.329-.87.236-.891-.27-.002-.031-.002-.063-.005-.096-.024-.553-.063-1.104-.146-1.648-.047-.313.174-.531.412-.589.227-.054.467.036.513.331.035.229.066.458.088.688.048.435.079.875.098 1.314z"/><path d="m18.072 69.018c-.054.292-.374.553-.715.366-.03-.021-.061-.036-.092-.055-.201-.115-.388-.248-.579-.379-.157-.109-.315-.218-.48-.313-.296-.172-.281-.499-.12-.707.133-.172.362-.262.604-.12.396.228.749.522 1.152.741.201.113.26.297.23.467z"/><path d="m28.591 82.194c.007.604-.913.618-.958.038 0-.011 0-.025 0-.038-.009-.628-.089-1.25-.114-1.879v-.005c-.003-.064-.005-.132-.005-.2-.001-.017-.001-.036-.001-.053-.004-.265.167-.416.365-.453.057-.013.112-.015.171-.009.039.004.08.014.118.027.167.06.304.203.306.435.008.642.092 1.278.115 1.921.001.07.001.145.003.216z"/><path d="m30.17 83.839c-.067 0-.141-.019-.213-.058-.036-.019-.074-.036-.109-.06-.655-.348-1.298-.729-1.979-1.021-.229-.098-.287-.291-.235-.471.076-.266.385-.501.721-.357.079.032.155.067.232.104.325.149.643.315.958.489.3.16.595.328.896.486.102.055.169.127.206.207.134.297-.128.698-.477.681z"/><path d="m30.17 83.839c-.12.012-.238-.024-.322-.116-.054-.052-.094-.128-.112-.226-.063-.345-.127-.687-.19-1.029-.084-.455-.168-.908-.238-1.365-.002-.003-.002-.004-.002-.006-.067-.43.38-.688.678-.58.102.034.186.111.228.238.01.026.015.054.021.084.015.098.03.197.047.297.111.678.246 1.351.369 2.025.005.025.011.051.016.078.062.352-.223.587-.495.6z"/><path d="m30.657 80.735c-.007.003-.013.006-.018.009-.024.021-.047.045-.073.069-.014.017-.026.028-.038.044-.05.053-.096.104-.142.158-.037.041-.073.082-.11.121-.083.09-.167.17-.269.246-.209.158-.535.033-.657-.172-.021-.037-.037-.073-.045-.107-.002-.003-.002-.004-.002-.006-.056-.195.032-.387.19-.52-.018.015-.028.021-.034.025.008-.012.042-.039.057-.055.027-.028.055-.057.08-.088.063-.066.12-.138.179-.205.105-.119.223-.244.359-.326.002-.002.002-.002.004-.002.01-.008.021-.018.033-.021.23-.126.521-.06.657.172.132.221.058.533-.171.658z"/><path d="m32.563 81.103c-.077.209-.273.357-.547.257-.492-.184-.985-.354-1.486-.503-.08-.025-.161-.05-.241-.072-.028-.008-.054-.018-.078-.029-.116-.055-.19-.139-.228-.237-.08-.2-.012-.453.153-.587.002-.002.002-.002.004-.002.01-.008.021-.018.033-.021.001-.001.003-.002.004-.002.098-.062.22-.089.366-.048.351.101.699.211 1.042.33.231.079.458.161.687.246.303.113.376.431.291.668z"/><path d="m32.278 78.561c-.022.217-.177.408-.458.392-.146-.01-.297-.018-.445-.026-.703-.036-1.406-.067-2.109-.069-.042 0-.082-.003-.118-.013-.501-.114-.459-.948.118-.947h.051c.836.004 1.669.049 2.504.097.332.017.485.308.457.566z"/><path d="m32.563 81.103c-.213.313-.763.35-.847-.113-.046-.268-.088-.535-.132-.803-.066-.421-.132-.843-.211-1.262-.005-.032-.011-.063-.017-.096-.117-.602.793-.858.921-.27.002.004.005.008.005.013.136.718.233 1.441.359 2.161.025.147-.01.272-.078.37z"/></g><path d="m24.497 41.312c.428 0 .428-.662 0-.662s-.428.662 0 .662z" fill="#31ffa6"/><path d="m24.21 42.48v4.057c0 .427.662.427.662 0 0-1.351 0-2.705 0-4.057 0-.426-.662-.426-.662 0z" fill="#171650"/><path d="m24.872 39.569c0-.94 0-1.881 0-2.823 0-.426-.662-.426-.662 0v2.823c0 .427.662.427.662 0z" fill="#171650"/><path d="m24.541 35.754c.426 0 .426-.661 0-.661-.427.001-.427.661 0 .661z" fill="#171650"/><path d="m25.775 41.224h4.411c.426 0 .426-.662 0-.662-1.471 0-2.94 0-4.411 0-.426 0-.426.662 0 .662z" fill="#171650"/><path d="m31.245 41.135c.427 0 .427-.662 0-.662s-.427.662 0 .662z" fill="#171650"/><path d="m23.041 40.562c-1.176 0-2.353 0-3.528 0-.426 0-.426.662 0 .662h3.528c.427 0 .427-.662 0-.662z" fill="#171650"/><path d="m18.278 41.312c.427 0 .427-.662 0-.662-.426 0-.426.662 0 .662z" fill="#171650"/><path d="m26.6 38.453c-.323.324-.646.647-.97.971-.302.302.166.77.468.468.323-.324.646-.646.97-.97.302-.303-.166-.771-.468-.469z" fill="#171650"/><path d="m22.278 39.098c.266.265.529.529.793.794.303.301.771-.166.469-.468-.266-.265-.53-.528-.794-.793-.303-.302-.77.165-.468.467z" fill="#171650"/><path d="m25.542 42.45c.323.323.646.646.971.97.302.302.771-.165.467-.467-.324-.324-.646-.647-.97-.971-.302-.302-.771.166-.468.468z" fill="#171650"/><path d="m22.852 42.159c-.206.206-.412.411-.617.617-.302.302.166.77.469.468.205-.206.41-.412.616-.618.301-.302-.167-.77-.468-.467z" fill="#171650"/><path d="m27.364 44.31c.427 0 .427-.661 0-.661s-.427.661 0 .661z" fill="#171650"/><path d="m27.54 38.4c.426 0 .426-.661 0-.661-.427 0-.427.661 0 .661z" fill="#171650"/><path d="m21.807 37.784c.426 0 .426-.662 0-.662-.427 0-.427.662 0 .662z" fill="#171650"/><path d="m21.322 44.046c.427 0 .427-.663 0-.663s-.427.663 0 .663z" fill="#171650"/><path d="m64.594 29.45c.499 0 .499-.773 0-.773s-.499.773 0 .773z" fill="#31ffa6"/><path d="m64.259 30.818v4.748c0 .498.774.498.774 0 0-1.583 0-3.166 0-4.748.001-.5-.774-.5-.774 0z" fill="#171650"/><path d="m65.034 27.413c0-1.102 0-2.202 0-3.303 0-.5-.774-.5-.774 0v3.303c-.001.498.774.498.774 0z" fill="#171650"/><path d="m64.646 22.949c.499 0 .499-.772 0-.772s-.499.772 0 .772z" fill="#171650"/><path d="m66.09 29.348h5.16c.5 0 .5-.774 0-.774-1.72 0-3.44 0-5.16 0-.499 0-.499.774 0 .774z" fill="#171650"/><path d="m72.489 29.244c.499 0 .499-.774 0-.774s-.499.774 0 .774z" fill="#171650"/><path d="m62.892 28.574c-1.376 0-2.753 0-4.128 0-.499 0-.499.774 0 .774h4.128c.5 0 .5-.774 0-.774z" fill="#171650"/><path d="m57.319 29.45c.499 0 .499-.773 0-.773s-.499.773 0 .773z" fill="#171650"/><path d="m67.056 26.107c-.379.378-.757.757-1.135 1.135-.354.353.192.9.548.547.377-.377.756-.755 1.134-1.135.355-.353-.194-.901-.547-.547z" fill="#171650"/><path d="m61.999 26.86c.311.31.62.619.929.928.354.354.902-.194.548-.547-.31-.31-.619-.619-.929-.929-.354-.353-.901.194-.548.548z" fill="#171650"/><path d="m65.818 30.782c.378.379.758.757 1.135 1.135.354.354.9-.194.548-.547-.378-.378-.757-.757-1.136-1.135-.354-.353-.902.194-.547.547z" fill="#171650"/><path d="m62.669 30.441c-.24.241-.481.481-.723.723-.354.354.193.9.548.547.24-.242.48-.482.724-.723.353-.353-.195-.9-.549-.547z" fill="#171650"/><path d="m67.948 32.96c.5 0 .5-.774 0-.774-.499 0-.499.774 0 .774z" fill="#171650"/><path d="m68.156 26.046c.498 0 .498-.775 0-.775-.5 0-.5.775 0 .775z" fill="#171650"/><path d="m61.446 25.322c.5 0 .5-.773 0-.773-.498 0-.498.773 0 .773z" fill="#171650"/><path d="m60.879 32.65c.499 0 .499-.774 0-.774s-.499.774 0 .774z" fill="#171650"/><path d="m93.841 56.09c.395 0 .395-.615 0-.615-.397.001-.397.615 0 .615z" fill="#31ffa6"/><path d="m93.574 57.176v3.77c0 .396.614.396.614 0 0-1.257 0-2.513 0-3.77.001-.397-.614-.397-.614 0z" fill="#171650"/><path d="m94.189 54.471c0-.874 0-1.749 0-2.623 0-.396-.614-.396-.614 0v2.623c-.001.397.614.397.614 0z" fill="#171650"/><path d="m93.881 50.926c.396 0 .396-.615 0-.615-.395.001-.395.615 0 .615z" fill="#171650"/><path d="m95.03 56.008h4.097c.396 0 .396-.615 0-.615-1.364 0-2.729 0-4.097 0-.397 0-.397.615 0 .615z" fill="#171650"/><path d="m100.111 55.926c.396 0 .396-.615 0-.615-.398 0-.398.615 0 .615z" fill="#171650"/><path d="m92.488 55.393c-1.092 0-2.185 0-3.277 0-.396 0-.396.615 0 .615h3.277c.396 0 .396-.615 0-.615z" fill="#171650"/><path d="m88.062 56.09c.397 0 .397-.615 0-.615-.396.001-.396.615 0 .615z" fill="#171650"/><path d="m95.795 53.434c-.301.301-.603.601-.901.901-.281.28.153.715.435.435.301-.301.603-.602.901-.901.28-.281-.154-.715-.435-.435z" fill="#171650"/><path d="m91.779 54.032c.245.246.492.492.737.738.281.28.716-.155.436-.435-.246-.246-.491-.492-.737-.737-.282-.281-.716.154-.436.434z" fill="#171650"/><path d="m94.812 57.147c.3.301.602.601.901.902.28.28.714-.154.434-.435-.299-.3-.6-.601-.899-.901-.282-.281-.716.154-.436.434z" fill="#171650"/><path d="m92.313 56.876c-.191.191-.384.383-.575.573-.28.281.154.716.437.436.188-.191.382-.382.573-.573.279-.281-.156-.716-.435-.436z" fill="#171650"/><path d="m96.503 58.877c.396 0 .396-.615 0-.615s-.396.615 0 .615z" fill="#171650"/><path d="m96.668 53.385c.396 0 .396-.615 0-.615-.398 0-.398.615 0 .615z" fill="#171650"/><path d="m91.34 52.811c.396 0 .396-.614 0-.614s-.396.614 0 .614z" fill="#171650"/><path d="m90.89 58.63c.396 0 .396-.614 0-.614s-.395.614 0 .614z" fill="#171650"/><path d="m9.826 38.141v53.121l46.071 26.559 46.074-26.559v-53.121l-46.073-26.561zm90.281 1.08v50.971l-44.209 25.489-44.211-25.489v-50.971l44.211-25.489z" opacity=".13"/></svg>