<svg enable-background="new 0 0 110.979 128.417" height="128.417" viewBox="0 0 110.979 128.417" width="110.979" xmlns="http://www.w3.org/2000/svg" xmlns:xlink="http://www.w3.org/1999/xlink"><linearGradient id="a"><stop offset="0" stop-color="#a97b16"/><stop offset=".0138" stop-color="#b6872c"/><stop offset=".0299" stop-color="#bf903d"/><stop offset=".0499" stop-color="#c69648"/><stop offset=".078" stop-color="#ca9a4f"/><stop offset=".1559" stop-color="#cb9b51"/><stop offset=".2849" stop-color="#f6e27a"/><stop offset=".5376" stop-color="#f6ffdc"/><stop offset=".8656" stop-color="#cb9b51"/><stop offset=".9007" stop-color="#c9994e"/><stop offset=".9289" stop-color="#c39444"/><stop offset=".9547" stop-color="#ba8b33"/><stop offset=".9789" stop-color="#ac7e1b"/><stop offset="1" stop-color="#9c6f00"/></linearGradient><linearGradient id="b" gradientUnits="userSpaceOnUse" x1=".1294" x2="110.979" xlink:href="#a" y1="64.4175" y2="64.4175"/><linearGradient id="c"><stop offset="0" stop-color="#fff"/><stop offset=".3548" stop-color="#ffff15"/><stop offset="1" stop-color="#ffda6a" stop-opacity="0"/></linearGradient><radialGradient id="d" cx="69.1323" cy="62.6587" gradientUnits="userSpaceOnUse" r="1.2354" xlink:href="#c"/><radialGradient id="e" cx="64.106" cy="60.3892" gradientUnits="userSpaceOnUse" r="1.7107" xlink:href="#c"/><radialGradient id="f" cx="45.2896" cy="60.7813" gradientUnits="userSpaceOnUse" r="2.1387" xlink:href="#c"/><radialGradient id="g" cx="71.9116" cy="54.9248" gradientUnits="userSpaceOnUse" r=".8076" xlink:href="#c"/><radialGradient id="h" cx="69.0601" cy="53.3564" gradientUnits="userSpaceOnUse" r=".8076" xlink:href="#c"/><radialGradient id="i" cx="48.3315" cy="55.0908" gradientUnits="userSpaceOnUse" r=".8076" xlink:href="#c"/><radialGradient id="j" cx="43.6987" cy="55.02" gradientUnits="userSpaceOnUse" r=".8074" xlink:href="#c"/><radialGradient id="k" cx="40.0991" cy="51.563" gradientUnits="userSpaceOnUse" r="1.2351" xlink:href="#c"/><radialGradient id="l" cx="47.0835" cy="44.2217" gradientUnits="userSpaceOnUse" r=".8076" xlink:href="#c"/><radialGradient id="m" cx="64.6772" cy="50.3994" gradientUnits="userSpaceOnUse" r="1.3779" xlink:href="#c"/><radialGradient id="n" cx="63.5718" cy="47.085" gradientUnits="userSpaceOnUse" r=".8076" xlink:href="#c"/><radialGradient id="o" cx="68.7046" cy="57.9541" gradientUnits="userSpaceOnUse" r="1.2354" xlink:href="#c"/><radialGradient id="p" cx="46.2163" cy="49.5791" gradientUnits="userSpaceOnUse" r="1.2354" xlink:href="#c"/><radialGradient id="q" cx="73.1714" cy="49.9229" gradientUnits="userSpaceOnUse" r=".8076" xlink:href="#c"/><radialGradient id="r" cx="64.1772" cy="54.1411" gradientUnits="userSpaceOnUse" r="1.2351" xlink:href="#c"/><radialGradient id="s" cx="38.7437" cy="57.3721" gradientUnits="userSpaceOnUse" r="1.2354" xlink:href="#c"/><linearGradient id="t" gradientUnits="userSpaceOnUse" x1="36.5337" x2="73.5278" xlink:href="#a" y1="67.9409" y2="67.9409"/><linearGradient id="u" gradientUnits="userSpaceOnUse" x1="54.5166" x2="55.3719" y1="66.4556" y2="35.7597"><stop offset="0" stop-color="#fff42a"/><stop offset=".043" stop-color="#ffe727" stop-opacity=".9204"/><stop offset=".0874" stop-color="#ffe124" stop-opacity=".8777"/><stop offset=".3259" stop-color="#ffc314" stop-opacity=".6483"/><stop offset=".5608" stop-color="#ffad09" stop-opacity=".4224"/><stop offset=".7883" stop-color="#ffa002" stop-opacity=".2036"/><stop offset="1" stop-color="#ff9c00" stop-opacity="0"/></linearGradient><linearGradient id="v" gradientUnits="userSpaceOnUse" x1="38.7095" x2="66.6665" xlink:href="#a" y1="40.5957" y2="40.5957"/><linearGradient id="w" gradientUnits="userSpaceOnUse" x1="50.1519" x2="49.7348" xlink:href="#a" y1="74.7544" y2="80.2548"/><linearGradient id="x" gradientUnits="userSpaceOnUse" x1="60.9897" x2="60.5728" xlink:href="#a" y1="75.5776" y2="81.077"/><linearGradient id="y" gradientUnits="userSpaceOnUse" x1="71.981" x2="71.564" xlink:href="#a" y1="76.4106" y2="81.9107"/><path d="m110.979 96.417-55.426 32-55.424-32v-63.999l55.424-32 55.426 32z" fill="url(#b)"/><path d="m102.053 38.135v53.14l-.01.01-1.42.811-4.15 2.389-.201.121-1.93 1.109-2.719 1.57-.24.131-.131.049-.109.07-3.029 1.74-.82.471-1.051.6-.039.029-1.23.711-.451.26-.01.01-.01.01h-.01l-1.539.891-.871.52-1.26.721-.119.068-.08.051-.41.24-.031.01-.16.09v.01l-.779.451-.18.09-.02.02-.041.02-1.01.58-.289.17-.371.211-.24.139h-.01l-.709.42-4.621 2.67-.629.361-.061.029-3.5 2.029-4.041 2.33-.01.012-.43.25-5.709 3.289-.561.32h-.01l-.32.189-.25.15-.23.131-.139-.08-1.281-.74-.85-.49-.029-.01-1.74-1.01-3.531-2.041-.039-.029-2.07-1.191-5.359-3.109-.691-.391-5.09-2.949-.389-.221-.49-.279-.33-.199-1.85-1.061-.57-.33-1.711-.99-2.51-1.459-2.09-1.201-.82-.469-.09-.051-.5-.291-.01-.01-.209-.119h-.012l-1.039-.6c-.01-.01-.01-.01-.02-.01l-1.861-1.08-1.02-.59-2.109-1.23-.291-.17s-.01 0-.02-.01l-.279-.16-3.301-1.9-3.5-2.02-.08-.041-.029-.02v-53.14l14.33-8.27 1.99-1.16 4.93-2.83 1.58-.92.17-.09 1.66-.95.779-.45.381-.22.439-.261 1.1-.649.52-.3 2.281-1.301.689-.409 1.4-.8h.01l.051-.03 5.719-3.3.189-.11.271-.16 6.07-3.51 1.439-.83 1.061.62 6.488 3.75 2.602 1.5 4.91 2.83 7.02 4.05 1.039.61 2.301 1.31.869.5 1.521.88 1.369.79.801.46.09.061 1.809 1.039 3.781 2.181.039.03v.01l.26.141.66.389 1.461.841 1.939 1.12.779.439.441.25 1.939 1.12z" fill="#ffce08"/><g fill="#db9c00" opacity=".7"><path d="m17.465 41.749c-.137 0-.248-.111-.248-.248v-1.953c0-.137.111-.248.248-.248s.248.111.248.248v1.953c0 .137-.111.248-.248.248"/><path d="m17.096 41.501h.766"/><path d="m17.602 47.633c-2.086 0-3.783-1.696-3.783-3.781 0-2.086 1.697-3.783 3.783-3.783 1.01 0 1.959.395 2.674 1.108l.246.246-1.068 1.007-.463-.492.547-.516c-.549-.438-1.225-.677-1.936-.677-1.713 0-3.107 1.394-3.107 3.106s1.395 3.104 3.107 3.104"/><path d="m19.499 45.69-.484-.471c.357-.369.555-.855.555-1.368 0-.537-.213-1.038-.598-1.412l-.252-.246.271-.256.23.245.223-.228c.516.502.801 1.176.801 1.896 0 .691-.266 1.344-.746 1.84"/><path d="m17.602 44.966c-.615 0-1.117-.5-1.117-1.114 0-.615.502-1.116 1.117-1.116s1.113.501 1.113 1.116c0 .614-.498 1.114-1.113 1.114m0-1.555c-.242 0-.439.197-.439.44 0 .242.197.438.439.438s.439-.196.439-.438c.001-.243-.197-.44-.439-.44"/><path d="m20.036 41.416-1.965 1.815"/><path d="m18.716 40.986h.675v2.675h-.675z" transform="matrix(.6776 .7355 -.7355 .6776 37.2714 -.3661)"/><path d="m20.481 47.633h-2.941v-.677h2.265v-.613l-2.041-1.536.408-.54 2.309 1.738z"/><path d="m16.292 42.432c-.137 0-.248-.111-.248-.248v-2.636c0-.137.111-.248.248-.248.139 0 .248.111.248.248v2.636c0 .136-.11.248-.248.248"/><path d="m26.047 41.749c-.137 0-.246-.111-.246-.248v-1.953c0-.137.109-.248.246-.248.139 0 .248.111.248.248v1.953c0 .137-.109.248-.248.248"/><path d="m25.68 41.501h.766"/><path d="m26.184 47.633c-2.084 0-3.781-1.696-3.781-3.781 0-2.086 1.697-3.783 3.781-3.783 1.01 0 1.961.395 2.674 1.108l.246.246-1.066 1.007-.465-.492.547-.516c-.547-.438-1.223-.677-1.936-.677-1.713 0-3.105 1.394-3.105 3.106s1.393 3.104 3.105 3.104"/><path d="m28.083 45.69-.486-.471c.357-.369.555-.855.555-1.368 0-.537-.211-1.038-.596-1.412l-.254-.246.271-.256.23.245.223-.228c.518.502.801 1.176.801 1.896 0 .691-.264 1.344-.744 1.84"/><path d="m26.184 44.966c-.615 0-1.115-.5-1.115-1.114 0-.615.5-1.116 1.115-1.116s1.115.501 1.115 1.116c0 .614-.5 1.114-1.115 1.114m0-1.555c-.242 0-.439.197-.439.44 0 .242.197.438.439.438s.439-.196.439-.438c.001-.243-.197-.44-.439-.44"/><path d="m28.62 41.416-1.965 1.815"/><path d="m27.299 40.985h.676v2.677h-.676z" transform="matrix(.6791 .734 -.734 .6791 39.935 -6.7056)"/><path d="m29.065 47.633h-2.943v-.677h2.267v-.613l-2.041-1.536.406-.54 2.311 1.738z"/><path d="m24.875 42.432c-.137 0-.248-.111-.248-.248v-2.636c0-.137.111-.248.248-.248s.248.111.248.248v2.636c.001.136-.111.248-.248.248"/><path d="m34.631 41.749c-.137 0-.248-.111-.248-.248v-1.953c0-.137.111-.248.248-.248s.248.111.248.248v1.953c0 .137-.111.248-.248.248"/><path d="m34.262 41.501h.766"/><path d="m34.768 47.633c-2.086 0-3.783-1.696-3.783-3.781 0-2.086 1.697-3.783 3.783-3.783 1.01 0 1.959.395 2.674 1.108l.246.246-1.068 1.007-.463-.492.547-.516c-.549-.438-1.225-.677-1.936-.677-1.713 0-3.107 1.394-3.107 3.106s1.395 3.104 3.107 3.104"/><path d="m36.665 45.69-.485-.47c.357-.369.555-.855.555-1.368 0-.537-.213-1.038-.598-1.412l-.252-.246.271-.256.23.245.223-.228c.516.502.801 1.176.801 1.896.001.69-.265 1.343-.745 1.839"/><path d="m34.768 44.966c-.615 0-1.117-.5-1.117-1.114 0-.615.502-1.116 1.117-1.116s1.113.501 1.113 1.116c0 .614-.498 1.114-1.113 1.114m0-1.555c-.242 0-.439.197-.439.44 0 .242.197.438.439.438s.439-.196.439-.438c.001-.243-.197-.44-.439-.44"/><path d="m37.202 41.416-1.965 1.815"/><path d="m35.882 40.986h.675v2.675h-.675z" transform="matrix(.6776 .7355 -.7355 .6776 42.8064 -12.9912)"/><path d="m37.647 47.633h-2.941v-.677h2.265v-.613l-2.041-1.536.408-.54 2.309 1.738z"/><path d="m33.458 42.432c-.137 0-.248-.111-.248-.248v-2.636c0-.137.111-.248.248-.248.139 0 .248.111.248.248v2.636c0 .136-.11.248-.248.248"/><path d="m43.213 41.749c-.137 0-.246-.111-.246-.248v-1.953c0-.137.109-.248.246-.248.139 0 .248.111.248.248v1.953c0 .137-.109.248-.248.248"/><path d="m42.846 41.501h.766"/><path d="m43.35 47.633c-2.084 0-3.781-1.696-3.781-3.781 0-2.086 1.697-3.783 3.781-3.783 1.01 0 1.961.395 2.674 1.108l.246.246-1.066 1.007-.465-.492.547-.516c-.547-.438-1.223-.677-1.936-.677-1.713 0-3.105 1.394-3.105 3.106s1.393 3.104 3.105 3.104"/><path d="m45.249 45.69-.486-.471c.357-.369.555-.855.555-1.368 0-.537-.211-1.038-.596-1.412l-.254-.246.271-.256.23.245.223-.228c.518.502.801 1.176.801 1.896 0 .691-.264 1.344-.744 1.84"/><path d="m43.35 44.966c-.615 0-1.115-.5-1.115-1.114 0-.615.5-1.116 1.115-1.116s1.115.501 1.115 1.116c0 .614-.5 1.114-1.115 1.114m0-1.555c-.242 0-.439.197-.439.44 0 .242.197.438.439.438s.439-.196.439-.438c.001-.243-.197-.44-.439-.44"/><path d="m45.786 41.416-1.965 1.815"/><path d="m44.465 40.985h.676v2.677h-.676z" transform="matrix(.6791 .734 -.734 .6791 45.4432 -19.3059)"/><path d="m46.231 47.633h-2.943v-.677h2.267v-.613l-2.041-1.536.406-.54 2.311 1.738z"/><path d="m42.042 42.432c-.137 0-.248-.111-.248-.248v-2.636c0-.137.111-.248.248-.248s.248.111.248.248v2.636c0 .136-.112.248-.248.248"/><path d="m51.797 41.749c-.137 0-.248-.111-.248-.248v-1.953c0-.137.111-.248.248-.248s.248.111.248.248v1.953c0 .137-.111.248-.248.248"/><path d="m51.428 41.501h.766"/><path d="m51.934 47.633c-2.086 0-3.783-1.696-3.783-3.781 0-2.086 1.697-3.783 3.783-3.783 1.01 0 1.959.395 2.674 1.108l.246.246-1.068 1.007-.463-.492.547-.516c-.549-.438-1.225-.677-1.936-.677-1.713 0-3.107 1.394-3.107 3.106s1.395 3.104 3.107 3.104"/><path d="m53.831 45.69-.484-.471c.357-.369.555-.855.555-1.368 0-.537-.213-1.038-.598-1.412l-.252-.246.271-.256.23.245.223-.228c.516.502.801 1.176.801 1.896 0 .691-.266 1.344-.746 1.84"/><path d="m51.934 44.966c-.615 0-1.117-.5-1.117-1.114 0-.615.502-1.116 1.117-1.116s1.113.501 1.113 1.116c0 .614-.498 1.114-1.113 1.114m0-1.555c-.242 0-.439.197-.439.44 0 .242.197.438.439.438s.439-.196.439-.438c.001-.243-.197-.44-.439-.44"/><path d="m54.368 41.416-1.965 1.815"/><path d="m53.048 40.986h.675v2.675h-.675z" transform="matrix(.6776 .7355 -.7355 .6776 48.3414 -25.6163)"/><path d="m54.813 47.633h-2.941v-.677h2.265v-.613l-2.041-1.536.408-.54 2.309 1.738z"/><path d="m50.624 42.432c-.137 0-.248-.111-.248-.248v-2.636c0-.137.111-.248.248-.248.139 0 .248.111.248.248v2.636c0 .136-.11.248-.248.248"/></g><g fill="#db9c00" opacity=".7"><path d="m60.368 41.749c-.137 0-.248-.111-.248-.248v-1.953c0-.137.111-.248.248-.248s.248.111.248.248v1.953c0 .137-.112.248-.248.248"/><path d="m59.999 41.501h.765"/><path d="m60.504 47.633c-2.086 0-3.783-1.696-3.783-3.781 0-2.086 1.697-3.783 3.783-3.783 1.01 0 1.959.395 2.674 1.108l.246.246-1.068 1.007-.463-.492.547-.516c-.549-.438-1.225-.677-1.936-.677-1.713 0-3.107 1.394-3.107 3.106s1.395 3.104 3.107 3.104"/><path d="m62.401 45.69-.484-.471c.357-.369.555-.855.555-1.368 0-.537-.213-1.038-.598-1.412l-.252-.246.271-.256.23.245.223-.228c.516.502.801 1.176.801 1.896 0 .691-.266 1.344-.746 1.84"/><path d="m60.504 44.966c-.615 0-1.117-.5-1.117-1.114 0-.615.502-1.116 1.117-1.116s1.113.501 1.113 1.116c.001.614-.497 1.114-1.113 1.114m0-1.555c-.242 0-.439.197-.439.44 0 .242.197.438.439.438s.439-.196.439-.438c.001-.243-.196-.44-.439-.44"/><path d="m62.938 41.416-1.965 1.815"/><path d="m61.618 40.986h.675v2.675h-.675z" transform="matrix(.6776 .7355 -.7355 .6776 51.1049 -31.9195)"/><path d="m63.383 47.633h-2.941v-.677h2.266v-.613l-2.041-1.536.408-.54 2.308 1.738z"/><path d="m59.194 42.432c-.137 0-.248-.111-.248-.248v-2.636c0-.137.111-.248.248-.248.139 0 .248.111.248.248v2.636c0 .136-.109.248-.248.248"/><path d="m68.95 41.749c-.137 0-.246-.111-.246-.248v-1.953c0-.137.109-.248.246-.248.139 0 .248.111.248.248v1.953c0 .137-.11.248-.248.248"/><path d="m68.583 41.501h.765"/><path d="m69.086 47.633c-2.084 0-3.781-1.696-3.781-3.781 0-2.086 1.697-3.783 3.781-3.783 1.01 0 1.961.395 2.674 1.108l.246.246-1.066 1.007-.465-.492.547-.516c-.547-.438-1.223-.677-1.936-.677-1.713 0-3.105 1.394-3.105 3.106s1.393 3.104 3.105 3.104"/><path d="m70.985 45.69-.486-.471c.357-.369.555-.855.555-1.368 0-.537-.211-1.038-.596-1.412l-.254-.246.271-.256.23.245.223-.228c.518.502.801 1.176.801 1.896 0 .691-.264 1.344-.744 1.84"/><path d="m69.086 44.966c-.615 0-1.115-.5-1.115-1.114 0-.615.5-1.116 1.115-1.116s1.115.501 1.115 1.116c.001.614-.499 1.114-1.115 1.114m0-1.555c-.242 0-.439.197-.439.44 0 .242.197.438.439.438s.439-.196.439-.438c.001-.243-.196-.44-.439-.44"/><path d="m71.522 41.416-1.965 1.815"/><path d="m70.202 40.985h.676v2.677h-.676z" transform="matrix(.6791 .734 -.734 .6791 53.7015 -38.1971)"/><path d="m71.967 47.633h-2.943v-.677h2.268v-.613l-2.042-1.536.407-.54 2.31 1.738z"/><path d="m67.778 42.432c-.137 0-.248-.111-.248-.248v-2.636c0-.137.111-.248.248-.248s.248.111.248.248v2.636c0 .136-.111.248-.248.248"/><path d="m77.534 41.749c-.137 0-.248-.111-.248-.248v-1.953c0-.137.111-.248.248-.248s.248.111.248.248v1.953c0 .137-.112.248-.248.248"/><path d="m77.165 41.501h.765"/><path d="m77.67 47.633c-2.086 0-3.783-1.696-3.783-3.781 0-2.086 1.697-3.783 3.783-3.783 1.01 0 1.959.395 2.674 1.108l.246.246-1.068 1.007-.463-.492.547-.516c-.549-.438-1.225-.677-1.936-.677-1.713 0-3.107 1.394-3.107 3.106s1.395 3.104 3.107 3.104"/><path d="m79.567 45.69-.484-.471c.357-.369.555-.855.555-1.368 0-.537-.213-1.038-.598-1.412l-.252-.246.271-.256.23.245.223-.228c.516.502.801 1.176.801 1.896 0 .691-.266 1.344-.746 1.84"/><path d="m77.67 44.966c-.615 0-1.117-.5-1.117-1.114 0-.615.502-1.116 1.117-1.116s1.113.501 1.113 1.116c.001.614-.497 1.114-1.113 1.114m0-1.555c-.242 0-.439.197-.439.44 0 .242.197.438.439.438s.439-.196.439-.438c.001-.243-.196-.44-.439-.44"/><path d="m80.104 41.416-1.965 1.815"/><path d="m78.784 40.986h.675v2.675h-.675z" transform="matrix(.6776 .7355 -.7355 .6776 56.6399 -44.5445)"/><path d="m80.549 47.633h-2.941v-.677h2.266v-.613l-2.041-1.536.408-.54 2.308 1.738z"/><path d="m76.36 42.432c-.137 0-.248-.111-.248-.248v-2.636c0-.137.111-.248.248-.248.139 0 .248.111.248.248v2.636c0 .136-.109.248-.248.248"/><path d="m86.116 41.749c-.137 0-.246-.111-.246-.248v-1.953c0-.137.109-.248.246-.248.139 0 .248.111.248.248v1.953c0 .137-.11.248-.248.248"/><path d="m85.749 41.501h.765"/><path d="m86.252 47.633c-2.084 0-3.781-1.696-3.781-3.781 0-2.086 1.697-3.783 3.781-3.783 1.01 0 1.961.395 2.674 1.108l.246.246-1.066 1.007-.465-.492.547-.516c-.547-.438-1.223-.677-1.936-.677-1.713 0-3.105 1.394-3.105 3.106s1.393 3.104 3.105 3.104"/><path d="m88.151 45.69-.486-.471c.357-.369.555-.855.555-1.368 0-.537-.211-1.038-.596-1.412l-.254-.246.271-.256.23.245.223-.228c.518.502.801 1.176.801 1.896 0 .691-.264 1.344-.744 1.84"/><path d="m86.252 44.966c-.615 0-1.115-.5-1.115-1.114 0-.615.5-1.116 1.115-1.116s1.115.501 1.115 1.116c.001.614-.499 1.114-1.115 1.114m0-1.555c-.242 0-.439.197-.439.44 0 .242.197.438.439.438s.439-.196.439-.438c.001-.243-.196-.44-.439-.44"/><path d="m88.688 41.416-1.965 1.815"/><path d="m87.368 40.985h.676v2.677h-.676z" transform="matrix(.6791 .734 -.734 .6791 59.2097 -50.7974)"/><path d="m89.133 47.633h-2.943v-.677h2.268v-.613l-2.041-1.536.406-.54 2.31 1.738z"/><path d="m84.944 42.432c-.137 0-.248-.111-.248-.248v-2.636c0-.137.111-.248.248-.248s.248.111.248.248v2.636c0 .136-.111.248-.248.248"/><path d="m94.7 41.749c-.137 0-.248-.111-.248-.248v-1.953c0-.137.111-.248.248-.248s.248.111.248.248v1.953c0 .137-.112.248-.248.248"/><path d="m94.331 41.501h.765"/><path d="m94.836 47.633c-2.086 0-3.783-1.696-3.783-3.781 0-2.086 1.697-3.783 3.783-3.783 1.01 0 1.959.395 2.674 1.108l.246.246-1.068 1.007-.463-.492.547-.516c-.549-.438-1.225-.677-1.936-.677-1.713 0-3.107 1.394-3.107 3.106s1.395 3.104 3.107 3.104"/><path d="m96.733 45.69-.484-.471c.357-.369.555-.855.555-1.368 0-.537-.213-1.038-.598-1.412l-.252-.246.271-.256.23.245.223-.228c.516.502.801 1.176.801 1.896 0 .691-.266 1.344-.746 1.84"/><path d="m94.836 44.966c-.615 0-1.117-.5-1.117-1.114 0-.615.502-1.116 1.117-1.116s1.113.501 1.113 1.116c.001.614-.497 1.114-1.113 1.114m0-1.555c-.242 0-.439.197-.439.44 0 .242.197.438.439.438s.439-.196.439-.438c.001-.243-.196-.44-.439-.44"/><path d="m97.27 41.416-1.965 1.815"/><path d="m95.95 40.986h.675v2.675h-.675z" transform="matrix(.6776 .7355 -.7355 .6776 62.1749 -57.1696)"/><path d="m97.715 47.633h-2.941v-.677h2.266v-.613l-2.041-1.536.408-.54 2.308 1.738z"/><path d="m93.526 42.432c-.137 0-.248-.111-.248-.248v-2.636c0-.137.111-.248.248-.248.139 0 .248.111.248.248v2.636c0 .136-.109.248-.248.248"/></g><g fill="#db9c00" opacity=".7"><path d="m31.868 31.499c-.137 0-.248-.111-.248-.248v-1.953c0-.137.111-.248.248-.248s.248.111.248.248v1.953c0 .137-.112.248-.248.248"/><path d="m31.499 31.251h.765"/><path d="m32.004 37.383c-2.086 0-3.783-1.696-3.783-3.781 0-2.086 1.697-3.783 3.783-3.783 1.01 0 1.959.395 2.674 1.108l.246.246-1.068 1.007-.463-.492.547-.516c-.549-.438-1.225-.677-1.936-.677-1.713 0-3.107 1.394-3.107 3.106s1.395 3.104 3.107 3.104"/><path d="m33.901 35.44-.484-.471c.357-.369.555-.855.555-1.368 0-.537-.213-1.038-.598-1.412l-.252-.246.271-.256.23.245.223-.228c.516.502.801 1.176.801 1.896 0 .691-.266 1.344-.746 1.84"/><path d="m32.004 34.716c-.615 0-1.117-.5-1.117-1.114 0-.615.502-1.116 1.117-1.116s1.113.501 1.113 1.116c.001.614-.497 1.114-1.113 1.114m0-1.555c-.242 0-.439.197-.439.44 0 .242.197.438.439.438s.439-.196.439-.438c.001-.243-.196-.44-.439-.44"/><path d="m34.438 31.166-1.965 1.815"/><path d="m33.118 30.736h.675v2.675h-.675z" transform="matrix(.6776 .7355 -.7355 .6776 34.3767 -14.2636)"/><path d="m34.883 37.383h-2.941v-.677h2.266v-.613l-2.041-1.536.408-.54 2.308 1.738z"/><path d="m30.694 32.182c-.137 0-.248-.111-.248-.248v-2.636c0-.137.111-.248.248-.248.139 0 .248.111.248.248v2.636c0 .136-.109.248-.248.248"/><path d="m40.45 31.499c-.137 0-.246-.111-.246-.248v-1.953c0-.137.109-.248.246-.248.139 0 .248.111.248.248v1.953c0 .137-.11.248-.248.248"/><path d="m40.083 31.251h.765"/><path d="m40.586 37.383c-2.084 0-3.781-1.696-3.781-3.781 0-2.086 1.697-3.783 3.781-3.783 1.01 0 1.961.395 2.674 1.108l.246.246-1.066 1.007-.465-.492.547-.516c-.547-.438-1.223-.677-1.936-.677-1.713 0-3.105 1.394-3.105 3.106s1.393 3.104 3.105 3.104"/><path d="m42.485 35.44-.486-.471c.357-.369.555-.855.555-1.368 0-.537-.211-1.038-.596-1.412l-.254-.246.271-.256.23.245.223-.228c.518.502.801 1.176.801 1.896 0 .691-.264 1.344-.744 1.84"/><path d="m40.586 34.716c-.615 0-1.115-.5-1.115-1.114 0-.615.5-1.116 1.115-1.116s1.115.501 1.115 1.116c.001.614-.499 1.114-1.115 1.114m0-1.555c-.242 0-.439.197-.439.44 0 .242.197.438.439.438s.439-.196.439-.438c.001-.243-.196-.44-.439-.44"/><path d="m43.022 31.166-1.965 1.815"/><path d="m41.702 30.735h.676v2.677h-.676z" transform="matrix(.6791 .734 -.734 .6791 37.0327 -20.5664)"/><path d="m43.467 37.383h-2.943v-.677h2.268v-.613l-2.042-1.536.407-.54 2.31 1.738z"/><path d="m39.278 32.182c-.137 0-.248-.111-.248-.248v-2.636c0-.137.111-.248.248-.248s.248.111.248.248v2.636c0 .136-.111.248-.248.248"/><path d="m49.034 31.499c-.137 0-.248-.111-.248-.248v-1.953c0-.137.111-.248.248-.248s.248.111.248.248v1.953c0 .137-.112.248-.248.248"/><path d="m48.665 31.251h.765"/><path d="m49.17 37.383c-2.086 0-3.783-1.696-3.783-3.781 0-2.086 1.697-3.783 3.783-3.783 1.01 0 1.959.395 2.674 1.108l.246.246-1.068 1.007-.463-.492.547-.516c-.549-.438-1.225-.677-1.936-.677-1.713 0-3.107 1.394-3.107 3.106s1.395 3.104 3.107 3.104"/><path d="m51.067 35.44-.484-.471c.357-.369.555-.855.555-1.368 0-.537-.213-1.038-.598-1.412l-.252-.246.271-.256.23.245.223-.228c.516.502.801 1.176.801 1.896 0 .691-.266 1.344-.746 1.84"/><path d="m49.17 34.716c-.615 0-1.117-.5-1.117-1.114 0-.615.502-1.116 1.117-1.116s1.113.501 1.113 1.116c.001.614-.497 1.114-1.113 1.114m0-1.555c-.242 0-.439.197-.439.44 0 .242.197.438.439.438s.439-.196.439-.438c.001-.243-.196-.44-.439-.44"/><path d="m51.604 31.166-1.965 1.815"/><path d="m50.284 30.736h.675v2.675h-.675z" transform="matrix(.6776 .7355 -.7355 .6776 39.9118 -26.8887)"/><path d="m52.049 37.383h-2.941v-.677h2.266v-.613l-2.041-1.536.408-.54 2.308 1.738z"/><path d="m47.86 32.182c-.137 0-.248-.111-.248-.248v-2.636c0-.137.111-.248.248-.248.139 0 .248.111.248.248v2.636c0 .136-.109.248-.248.248"/><path d="m57.616 31.499c-.137 0-.246-.111-.246-.248v-1.953c0-.137.109-.248.246-.248.139 0 .248.111.248.248v1.953c0 .137-.11.248-.248.248"/><path d="m57.249 31.251h.765"/><path d="m57.752 37.383c-2.084 0-3.781-1.696-3.781-3.781 0-2.086 1.697-3.783 3.781-3.783 1.01 0 1.961.395 2.674 1.108l.246.246-1.066 1.007-.465-.492.547-.516c-.547-.438-1.223-.677-1.936-.677-1.713 0-3.105 1.394-3.105 3.106s1.393 3.104 3.105 3.104"/><path d="m59.651 35.44-.486-.471c.357-.369.555-.855.555-1.368 0-.537-.211-1.038-.596-1.412l-.254-.246.271-.256.23.245.223-.228c.518.502.801 1.176.801 1.896 0 .691-.264 1.344-.744 1.84"/><path d="m57.752 34.716c-.615 0-1.115-.5-1.115-1.114 0-.615.5-1.116 1.115-1.116s1.115.501 1.115 1.116c.001.614-.499 1.114-1.115 1.114m0-1.555c-.242 0-.439.197-.439.44 0 .242.197.438.439.438s.439-.196.439-.438c.001-.243-.196-.44-.439-.44"/><path d="m60.188 31.166-1.965 1.815"/><path d="m58.868 30.735h.676v2.677h-.676z" transform="matrix(.6791 .734 -.734 .6791 42.5409 -33.1667)"/><path d="m60.633 37.383h-2.943v-.677h2.268v-.613l-2.041-1.536.406-.54 2.31 1.738z"/><path d="m56.444 32.182c-.137 0-.248-.111-.248-.248v-2.636c0-.137.111-.248.248-.248s.248.111.248.248v2.636c0 .136-.111.248-.248.248"/><path d="m66.2 31.499c-.137 0-.248-.111-.248-.248v-1.953c0-.137.111-.248.248-.248s.248.111.248.248v1.953c0 .137-.112.248-.248.248"/><path d="m65.831 31.251h.765"/><path d="m66.336 37.383c-2.086 0-3.783-1.696-3.783-3.781 0-2.086 1.697-3.783 3.783-3.783 1.01 0 1.959.395 2.674 1.108l.246.246-1.068 1.007-.463-.492.547-.516c-.549-.438-1.225-.677-1.936-.677-1.713 0-3.107 1.394-3.107 3.106s1.395 3.104 3.107 3.104"/><path d="m68.233 35.44-.484-.471c.357-.369.555-.855.555-1.368 0-.537-.213-1.038-.598-1.412l-.252-.246.271-.256.23.245.223-.228c.516.502.801 1.176.801 1.896 0 .691-.266 1.344-.746 1.84"/><path d="m66.336 34.716c-.615 0-1.117-.5-1.117-1.114 0-.615.502-1.116 1.117-1.116s1.113.501 1.113 1.116c.001.614-.497 1.114-1.113 1.114m0-1.555c-.242 0-.439.197-.439.44 0 .242.197.438.439.438s.439-.196.439-.438c.001-.243-.196-.44-.439-.44"/><path d="m68.77 31.166-1.965 1.815"/><path d="m67.45 30.736h.675v2.675h-.675z" transform="matrix(.6776 .7355 -.7355 .6776 45.4468 -39.5138)"/><path d="m69.215 37.383h-2.941v-.677h2.266v-.613l-2.041-1.536.408-.54 2.308 1.738z"/><path d="m65.026 32.182c-.137 0-.248-.111-.248-.248v-2.636c0-.137.111-.248.248-.248.139 0 .248.111.248.248v2.636c0 .136-.109.248-.248.248"/><path d="m75.448 31.499c-.137 0-.246-.111-.246-.248v-1.953c0-.137.109-.248.246-.248.139 0 .248.111.248.248v1.953c0 .137-.11.248-.248.248"/><path d="m75.081 31.251h.765"/><path d="m75.584 37.383c-2.084 0-3.781-1.696-3.781-3.781 0-2.086 1.697-3.783 3.781-3.783 1.01 0 1.961.395 2.674 1.108l.246.246-1.066 1.007-.465-.492.547-.516c-.547-.438-1.223-.677-1.936-.677-1.713 0-3.105 1.394-3.105 3.106s1.393 3.104 3.105 3.104"/><path d="m77.483 35.44-.486-.471c.357-.369.555-.855.555-1.368 0-.537-.211-1.038-.596-1.412l-.254-.246.271-.256.23.245.223-.228c.518.502.801 1.176.801 1.896 0 .691-.264 1.344-.744 1.84"/><path d="m75.584 34.716c-.615 0-1.115-.5-1.115-1.114 0-.615.5-1.116 1.115-1.116s1.115.501 1.115 1.116c.001.614-.499 1.114-1.115 1.114m0-1.555c-.242 0-.439.197-.439.44 0 .242.197.438.439.438s.439-.196.439-.438c.001-.243-.196-.44-.439-.44"/><path d="m78.02 31.166-1.965 1.815"/><path d="m76.7 30.735h.676v2.677h-.676z" transform="matrix(.6791 .734 -.734 .6791 48.2628 -46.2559)"/><path d="m78.465 37.383h-2.943v-.677h2.268v-.613l-2.041-1.536.406-.54 2.31 1.738z"/><path d="m74.276 32.182c-.137 0-.248-.111-.248-.248v-2.636c0-.137.111-.248.248-.248s.248.111.248.248v2.636c0 .136-.111.248-.248.248"/><path d="m49.866 21.167c-.137 0-.246-.111-.246-.248v-1.953c0-.137.109-.248.246-.248.139 0 .248.111.248.248v1.953c0 .137-.11.248-.248.248"/><path d="m49.499 20.919h.765"/><path d="m50.002 27.051c-2.084 0-3.781-1.696-3.781-3.781 0-2.086 1.697-3.783 3.781-3.783 1.01 0 1.961.395 2.674 1.108l.246.246-1.066 1.007-.465-.492.547-.516c-.547-.438-1.223-.677-1.936-.677-1.713 0-3.105 1.394-3.105 3.106s1.393 3.104 3.105 3.104"/><path d="m51.901 25.108-.486-.471c.357-.369.555-.855.555-1.368 0-.537-.211-1.038-.596-1.412l-.254-.246.271-.256.23.245.223-.228c.518.502.801 1.176.801 1.896 0 .691-.264 1.344-.744 1.84"/><path d="m50.002 24.384c-.615 0-1.115-.5-1.115-1.114 0-.615.5-1.116 1.115-1.116s1.115.501 1.115 1.116c.001.614-.499 1.114-1.115 1.114m0-1.555c-.242 0-.439.197-.439.44 0 .242.197.438.439.438s.439-.196.439-.438c.001-.243-.196-.44-.439-.44"/><path d="m52.438 20.834-1.965 1.815"/><path d="m51.118 20.403h.676v2.677h-.676z" transform="matrix(.6791 .734 -.734 .6791 32.4701 -30.7933)"/><path d="m52.883 27.051h-2.943v-.677h2.268v-.613l-2.041-1.536.406-.54 2.31 1.738z"/><path d="m48.694 21.85c-.137 0-.248-.111-.248-.248v-2.636c0-.137.111-.248.248-.248s.248.111.248.248v2.636c0 .136-.111.248-.248.248"/><path d="m61.034 21.458c-.137 0-.248-.111-.248-.248v-1.953c0-.137.111-.248.248-.248s.248.111.248.248v1.953c0 .137-.112.248-.248.248"/><path d="m60.665 21.21h.765"/><path d="m61.17 27.342c-2.086 0-3.783-1.696-3.783-3.781 0-2.086 1.697-3.783 3.783-3.783 1.01 0 1.959.395 2.674 1.108l.246.246-1.068 1.007-.463-.492.547-.516c-.549-.438-1.225-.677-1.936-.677-1.713 0-3.107 1.394-3.107 3.106s1.395 3.104 3.107 3.104"/><path d="m63.067 25.399-.484-.471c.357-.369.555-.855.555-1.368 0-.537-.213-1.038-.598-1.412l-.252-.246.271-.256.23.245.223-.228c.516.502.801 1.176.801 1.896 0 .691-.266 1.344-.746 1.84"/><path d="m61.17 24.675c-.615 0-1.117-.5-1.117-1.114 0-.615.502-1.116 1.117-1.116s1.113.501 1.113 1.116c.001.614-.497 1.114-1.113 1.114m0-1.555c-.242 0-.439.197-.439.44 0 .242.197.438.439.438s.439-.196.439-.438c.001-.243-.196-.44-.439-.44"/><path d="m63.604 21.125-1.965 1.815"/><path d="m62.284 20.695h.675v2.675h-.675z" transform="matrix(.6776 .7355 -.7355 .6776 36.3962 -38.952)"/><path d="m64.049 27.342h-2.941v-.677h2.266v-.613l-2.041-1.536.408-.54 2.308 1.738z"/><path d="m59.86 22.141c-.137 0-.248-.111-.248-.248v-2.636c0-.137.111-.248.248-.248.139 0 .248.111.248.248v2.636c0 .136-.109.248-.248.248"/><path d="m84.346 31.646c-.137 0-.248-.111-.248-.248v-1.953c0-.137.111-.248.248-.248s.248.111.248.248v1.953c0 .136-.111.248-.248.248"/><path d="m83.977 31.397h.766"/><path d="m84.483 37.529c-2.086 0-3.783-1.696-3.783-3.781 0-2.086 1.697-3.783 3.783-3.783 1.01 0 1.959.395 2.674 1.108l.246.246-1.068 1.007-.463-.492.547-.516c-.549-.438-1.225-.677-1.936-.677-1.713 0-3.107 1.394-3.107 3.106s1.395 3.104 3.107 3.104"/><path d="m86.379 35.587-.484-.471c.357-.369.555-.855.555-1.368 0-.537-.213-1.038-.598-1.412l-.252-.246.271-.256.23.245.223-.228c.516.502.801 1.176.801 1.896 0 .691-.265 1.344-.746 1.84"/><path d="m84.483 34.862c-.615 0-1.117-.5-1.117-1.114 0-.615.502-1.116 1.117-1.116s1.113.501 1.113 1.116c0 .614-.498 1.114-1.113 1.114m0-1.554c-.242 0-.439.197-.439.44 0 .242.197.438.439.438s.439-.196.439-.438c0-.243-.197-.44-.439-.44"/><path d="m86.917 31.313-1.965 1.815"/><path d="m85.597 30.883h.675v2.675h-.675z" transform="matrix(.6776 .7355 -.7355 .6776 51.4057 -52.8127)"/><path d="m87.362 37.529h-2.942v-.676h2.266v-.614l-2.041-1.536.408-.54 2.309 1.738z"/><path d="m83.172 32.328c-.137 0-.248-.111-.248-.248v-2.636c0-.137.111-.248.248-.248.139 0 .248.111.248.248v2.636c0 .137-.109.248-.248.248"/></g><g fill="#db9c00" opacity=".7"><path d="m17.465 52.082c-.137 0-.248-.111-.248-.248v-1.953c0-.137.111-.248.248-.248s.248.111.248.248v1.953c0 .137-.111.248-.248.248"/><path d="m17.096 51.834h.766"/><path d="m17.602 57.966c-2.086 0-3.783-1.696-3.783-3.781 0-2.086 1.697-3.783 3.783-3.783 1.01 0 1.959.395 2.674 1.108l.246.246-1.068 1.007-.463-.492.547-.516c-.549-.438-1.225-.677-1.936-.677-1.713 0-3.107 1.394-3.107 3.106s1.395 3.104 3.107 3.104"/><path d="m19.499 56.023-.484-.471c.357-.369.555-.855.555-1.368 0-.537-.213-1.038-.598-1.412l-.252-.246.271-.256.23.245.223-.228c.516.502.801 1.176.801 1.896 0 .691-.266 1.344-.746 1.84"/><path d="m17.602 55.299c-.615 0-1.117-.5-1.117-1.114 0-.615.502-1.116 1.117-1.116s1.113.501 1.113 1.116c0 .614-.498 1.114-1.113 1.114m0-1.555c-.242 0-.439.197-.439.44 0 .242.197.438.439.438s.439-.196.439-.438c.001-.243-.197-.44-.439-.44"/><path d="m20.036 51.749-1.965 1.815"/><path d="m18.716 51.319h.675v2.675h-.675z" transform="matrix(.6776 .7355 -.7355 .6776 44.871 2.9657)"/><path d="m20.481 57.966h-2.941v-.677h2.265v-.613l-2.041-1.536.408-.54 2.309 1.738z"/><path d="m16.292 52.765c-.137 0-.248-.111-.248-.248v-2.636c0-.137.111-.248.248-.248.139 0 .248.111.248.248v2.636c0 .136-.11.248-.248.248"/><path d="m26.047 52.082c-.137 0-.246-.111-.246-.248v-1.953c0-.137.109-.248.246-.248.139 0 .248.111.248.248v1.953c0 .137-.109.248-.248.248"/><path d="m25.68 51.834h.766"/><path d="m26.184 57.966c-2.084 0-3.781-1.696-3.781-3.781 0-2.086 1.697-3.783 3.781-3.783 1.01 0 1.961.395 2.674 1.108l.246.246-1.066 1.007-.465-.492.547-.516c-.547-.438-1.223-.677-1.936-.677-1.713 0-3.105 1.394-3.105 3.106s1.393 3.104 3.105 3.104"/><path d="m28.083 56.023-.486-.471c.357-.369.555-.855.555-1.368 0-.537-.211-1.038-.596-1.412l-.254-.246.271-.256.23.245.223-.228c.518.502.801 1.176.801 1.896 0 .691-.264 1.344-.744 1.84"/><path d="m26.184 55.299c-.615 0-1.115-.5-1.115-1.114 0-.615.5-1.116 1.115-1.116s1.115.501 1.115 1.116c0 .614-.5 1.114-1.115 1.114m0-1.555c-.242 0-.439.197-.439.44 0 .242.197.438.439.438s.439-.196.439-.438c.001-.243-.197-.44-.439-.44"/><path d="m28.62 51.749-1.965 1.815"/><path d="m27.299 51.318h.676v2.677h-.676z" transform="matrix(.6791 .734 -.734 .6791 47.5197 -3.39)"/><path d="m29.065 57.966h-2.943v-.677h2.267v-.613l-2.041-1.536.406-.54 2.311 1.738z"/><path d="m24.875 52.765c-.137 0-.248-.111-.248-.248v-2.636c0-.137.111-.248.248-.248s.248.111.248.248v2.636c.001.136-.111.248-.248.248"/><path d="m34.631 52.082c-.137 0-.248-.111-.248-.248v-1.953c0-.137.111-.248.248-.248s.248.111.248.248v1.953c0 .137-.111.248-.248.248"/><path d="m34.262 51.834h.766"/><path d="m34.768 57.966c-2.086 0-3.783-1.696-3.783-3.781 0-2.086 1.697-3.783 3.783-3.783 1.01 0 1.959.395 2.674 1.108l.246.246-1.068 1.007-.463-.492.547-.516c-.549-.438-1.225-.677-1.936-.677-1.713 0-3.107 1.394-3.107 3.106s1.395 3.104 3.107 3.104"/><path d="m36.665 56.023-.484-.471c.357-.369.555-.855.555-1.368 0-.537-.213-1.038-.598-1.412l-.252-.246.271-.256.23.245.223-.228c.516.502.801 1.176.801 1.896 0 .691-.266 1.344-.746 1.84"/><path d="m34.768 55.299c-.615 0-1.117-.5-1.117-1.114 0-.615.502-1.116 1.117-1.116s1.113.501 1.113 1.116c0 .614-.498 1.114-1.113 1.114m0-1.555c-.242 0-.439.197-.439.44 0 .242.197.438.439.438s.439-.196.439-.438c.001-.243-.197-.44-.439-.44"/><path d="m37.202 51.749-1.965 1.815"/><path d="m35.882 51.319h.675v2.675h-.675z" transform="matrix(.6776 .7355 -.7355 .6776 50.406 -9.6594)"/><path d="m37.647 57.966h-2.941v-.677h2.265v-.613l-2.041-1.536.408-.54 2.309 1.738z"/><path d="m33.458 52.765c-.137 0-.248-.111-.248-.248v-2.636c0-.137.111-.248.248-.248.139 0 .248.111.248.248v2.636c0 .136-.11.248-.248.248"/><path d="m43.213 52.082c-.137 0-.246-.111-.246-.248v-1.953c0-.137.109-.248.246-.248.139 0 .248.111.248.248v1.953c0 .137-.109.248-.248.248"/><path d="m42.846 51.834h.766"/><path d="m43.35 57.966c-2.084 0-3.781-1.696-3.781-3.781 0-2.086 1.697-3.783 3.781-3.783 1.01 0 1.961.395 2.674 1.108l.246.246-1.066 1.007-.465-.492.547-.516c-.547-.438-1.223-.677-1.936-.677-1.713 0-3.105 1.394-3.105 3.106s1.393 3.104 3.105 3.104"/><path d="m45.249 56.023-.486-.471c.357-.369.555-.855.555-1.368 0-.537-.211-1.038-.596-1.412l-.254-.246.271-.256.23.245.223-.228c.518.502.801 1.176.801 1.896 0 .691-.264 1.344-.744 1.84"/><path d="m43.35 55.299c-.615 0-1.115-.5-1.115-1.114 0-.615.5-1.116 1.115-1.116s1.115.501 1.115 1.116c0 .614-.5 1.114-1.115 1.114m0-1.555c-.242 0-.439.197-.439.44 0 .242.197.438.439.438s.439-.196.439-.438c.001-.243-.197-.44-.439-.44"/><path d="m45.786 51.749-1.965 1.815"/><path d="m44.465 51.318h.676v2.677h-.676z" transform="matrix(.6791 .734 -.734 .6791 53.028 -15.9903)"/><path d="m46.231 57.966h-2.943v-.677h2.267v-.613l-2.041-1.536.406-.54 2.311 1.738z"/><path d="m42.042 52.765c-.137 0-.248-.111-.248-.248v-2.636c0-.137.111-.248.248-.248s.248.111.248.248v2.636c0 .136-.112.248-.248.248"/><path d="m51.797 52.082c-.137 0-.248-.111-.248-.248v-1.953c0-.137.111-.248.248-.248s.248.111.248.248v1.953c0 .137-.111.248-.248.248"/><path d="m51.428 51.834h.766"/><path d="m51.934 57.966c-2.086 0-3.783-1.696-3.783-3.781 0-2.086 1.697-3.783 3.783-3.783 1.01 0 1.959.395 2.674 1.108l.246.246-1.068 1.007-.463-.492.547-.516c-.549-.438-1.225-.677-1.936-.677-1.713 0-3.107 1.394-3.107 3.106s1.395 3.104 3.107 3.104"/><path d="m53.831 56.023-.484-.471c.357-.369.555-.855.555-1.368 0-.537-.213-1.038-.598-1.412l-.252-.246.271-.256.23.245.223-.228c.516.502.801 1.176.801 1.896 0 .691-.266 1.344-.746 1.84"/><path d="m51.934 55.299c-.615 0-1.117-.5-1.117-1.114 0-.615.502-1.116 1.117-1.116s1.113.501 1.113 1.116c0 .614-.498 1.114-1.113 1.114m0-1.555c-.242 0-.439.197-.439.44 0 .242.197.438.439.438s.439-.196.439-.438c.001-.243-.197-.44-.439-.44"/><path d="m54.368 51.749-1.965 1.815"/><path d="m53.048 51.319h.675v2.675h-.675z" transform="matrix(.6776 .7355 -.7355 .6776 55.941 -22.2845)"/><path d="m54.813 57.966h-2.941v-.677h2.265v-.613l-2.041-1.536.408-.54 2.309 1.738z"/><path d="m50.624 52.765c-.137 0-.248-.111-.248-.248v-2.636c0-.137.111-.248.248-.248.139 0 .248.111.248.248v2.636c0 .136-.11.248-.248.248"/></g><g fill="#db9c00" opacity=".7"><path d="m60.368 52.082c-.137 0-.248-.111-.248-.248v-1.953c0-.137.111-.248.248-.248s.248.111.248.248v1.953c0 .137-.112.248-.248.248"/><path d="m59.999 51.834h.765"/><path d="m60.504 57.966c-2.086 0-3.783-1.696-3.783-3.781 0-2.086 1.697-3.783 3.783-3.783 1.01 0 1.959.395 2.674 1.108l.246.246-1.068 1.007-.463-.492.547-.516c-.549-.438-1.225-.677-1.936-.677-1.713 0-3.107 1.394-3.107 3.106s1.395 3.104 3.107 3.104"/><path d="m62.401 56.023-.484-.471c.357-.369.555-.855.555-1.368 0-.537-.213-1.038-.598-1.412l-.252-.246.271-.256.23.245.223-.228c.516.502.801 1.176.801 1.896 0 .691-.266 1.344-.746 1.84"/><path d="m60.504 55.299c-.615 0-1.117-.5-1.117-1.114 0-.615.502-1.116 1.117-1.116s1.113.501 1.113 1.116c.001.614-.497 1.114-1.113 1.114m0-1.555c-.242 0-.439.197-.439.44 0 .242.197.438.439.438s.439-.196.439-.438c.001-.243-.196-.44-.439-.44"/><path d="m62.938 51.749-1.965 1.815"/><path d="m61.618 51.319h.675v2.675h-.675z" transform="matrix(.6776 .7355 -.7355 .6776 58.7045 -28.5877)"/><path d="m63.383 57.966h-2.941v-.677h2.266v-.613l-2.041-1.536.408-.54 2.308 1.738z"/><path d="m59.194 52.765c-.137 0-.248-.111-.248-.248v-2.636c0-.137.111-.248.248-.248.139 0 .248.111.248.248v2.636c0 .136-.109.248-.248.248"/><path d="m68.95 52.082c-.137 0-.246-.111-.246-.248v-1.953c0-.137.109-.248.246-.248.139 0 .248.111.248.248v1.953c0 .137-.11.248-.248.248"/><path d="m68.583 51.834h.765"/><path d="m69.086 57.966c-2.084 0-3.781-1.696-3.781-3.781 0-2.086 1.697-3.783 3.781-3.783 1.01 0 1.961.395 2.674 1.108l.246.246-1.066 1.007-.465-.492.547-.516c-.547-.438-1.223-.677-1.936-.677-1.713 0-3.105 1.394-3.105 3.106s1.393 3.104 3.105 3.104"/><path d="m70.985 56.023-.486-.471c.357-.369.555-.855.555-1.368 0-.537-.211-1.038-.596-1.412l-.254-.246.271-.256.23.245.223-.228c.518.502.801 1.176.801 1.896 0 .691-.264 1.344-.744 1.84"/><path d="m69.086 55.299c-.615 0-1.115-.5-1.115-1.114 0-.615.5-1.116 1.115-1.116s1.115.501 1.115 1.116c.001.614-.499 1.114-1.115 1.114m0-1.555c-.242 0-.439.197-.439.44 0 .242.197.438.439.438s.439-.196.439-.438c.001-.243-.196-.44-.439-.44"/><path d="m71.522 51.749-1.965 1.815"/><path d="m70.202 51.318h.676v2.677h-.676z" transform="matrix(.6791 .734 -.734 .6791 61.2862 -34.8815)"/><path d="m71.967 57.966h-2.943v-.677h2.268v-.613l-2.042-1.536.407-.54 2.31 1.738z"/><path d="m67.778 52.765c-.137 0-.248-.111-.248-.248v-2.636c0-.137.111-.248.248-.248s.248.111.248.248v2.636c0 .136-.111.248-.248.248"/><path d="m77.534 52.082c-.137 0-.248-.111-.248-.248v-1.953c0-.137.111-.248.248-.248s.248.111.248.248v1.953c0 .137-.112.248-.248.248"/><path d="m77.165 51.834h.765"/><path d="m77.67 57.966c-2.086 0-3.783-1.696-3.783-3.781 0-2.086 1.697-3.783 3.783-3.783 1.01 0 1.959.395 2.674 1.108l.246.246-1.068 1.007-.463-.492.547-.516c-.549-.438-1.225-.677-1.936-.677-1.713 0-3.107 1.394-3.107 3.106s1.395 3.104 3.107 3.104"/><path d="m79.567 56.023-.484-.471c.357-.369.555-.855.555-1.368 0-.537-.213-1.038-.598-1.412l-.252-.246.271-.256.23.245.223-.228c.516.502.801 1.176.801 1.896 0 .691-.266 1.344-.746 1.84"/><path d="m77.67 55.299c-.615 0-1.117-.5-1.117-1.114 0-.615.502-1.116 1.117-1.116s1.113.501 1.113 1.116c.001.614-.497 1.114-1.113 1.114m0-1.555c-.242 0-.439.197-.439.44 0 .242.197.438.439.438s.439-.196.439-.438c.001-.243-.196-.44-.439-.44"/><path d="m80.104 51.749-1.965 1.815"/><path d="m78.784 51.319h.675v2.675h-.675z" transform="matrix(.6776 .7355 -.7355 .6776 64.2395 -41.2128)"/><path d="m80.549 57.966h-2.941v-.677h2.266v-.613l-2.041-1.536.408-.54 2.308 1.738z"/><path d="m76.36 52.765c-.137 0-.248-.111-.248-.248v-2.636c0-.137.111-.248.248-.248.139 0 .248.111.248.248v2.636c0 .136-.109.248-.248.248"/><path d="m86.116 52.082c-.137 0-.246-.111-.246-.248v-1.953c0-.137.109-.248.246-.248.139 0 .248.111.248.248v1.953c0 .137-.11.248-.248.248"/><path d="m85.749 51.834h.765"/><path d="m86.252 57.966c-2.084 0-3.781-1.696-3.781-3.781 0-2.086 1.697-3.783 3.781-3.783 1.01 0 1.961.395 2.674 1.108l.246.246-1.066 1.007-.465-.492.547-.516c-.547-.438-1.223-.677-1.936-.677-1.713 0-3.105 1.394-3.105 3.106s1.393 3.104 3.105 3.104"/><path d="m88.151 56.023-.486-.471c.357-.369.555-.855.555-1.368 0-.537-.211-1.038-.596-1.412l-.254-.246.271-.256.23.245.223-.228c.518.502.801 1.176.801 1.896 0 .691-.264 1.344-.744 1.84"/><path d="m86.252 55.299c-.615 0-1.115-.5-1.115-1.114 0-.615.5-1.116 1.115-1.116s1.115.501 1.115 1.116c.001.614-.499 1.114-1.115 1.114m0-1.555c-.242 0-.439.197-.439.44 0 .242.197.438.439.438s.439-.196.439-.438c.001-.243-.196-.44-.439-.44"/><path d="m88.688 51.749-1.965 1.815"/><path d="m87.368 51.318h.676v2.677h-.676z" transform="matrix(.6791 .734 -.734 .6791 66.7945 -47.4818)"/><path d="m89.133 57.966h-2.943v-.677h2.268v-.613l-2.041-1.536.406-.54 2.31 1.738z"/><path d="m84.944 52.765c-.137 0-.248-.111-.248-.248v-2.636c0-.137.111-.248.248-.248s.248.111.248.248v2.636c0 .136-.111.248-.248.248"/><path d="m94.7 52.082c-.137 0-.248-.111-.248-.248v-1.953c0-.137.111-.248.248-.248s.248.111.248.248v1.953c0 .137-.112.248-.248.248"/><path d="m94.331 51.834h.765"/><path d="m94.836 57.966c-2.086 0-3.783-1.696-3.783-3.781 0-2.086 1.697-3.783 3.783-3.783 1.01 0 1.959.395 2.674 1.108l.246.246-1.068 1.007-.463-.492.547-.516c-.549-.438-1.225-.677-1.936-.677-1.713 0-3.107 1.394-3.107 3.106s1.395 3.104 3.107 3.104"/><path d="m96.733 56.023-.484-.471c.357-.369.555-.855.555-1.368 0-.537-.213-1.038-.598-1.412l-.252-.246.271-.256.23.245.223-.228c.516.502.801 1.176.801 1.896 0 .691-.266 1.344-.746 1.84"/><path d="m94.836 55.299c-.615 0-1.117-.5-1.117-1.114 0-.615.502-1.116 1.117-1.116s1.113.501 1.113 1.116c.001.614-.497 1.114-1.113 1.114m0-1.555c-.242 0-.439.197-.439.44 0 .242.197.438.439.438s.439-.196.439-.438c.001-.243-.196-.44-.439-.44"/><path d="m97.27 51.749-1.965 1.815"/><path d="m95.95 51.319h.675v2.675h-.675z" transform="matrix(.6776 .7355 -.7355 .6776 69.7746 -53.8378)"/><path d="m97.715 57.966h-2.941v-.677h2.266v-.613l-2.041-1.536.408-.54 2.308 1.738z"/><path d="m93.526 52.765c-.137 0-.248-.111-.248-.248v-2.636c0-.137.111-.248.248-.248.139 0 .248.111.248.248v2.636c0 .136-.109.248-.248.248"/></g><g fill="#db9c00" opacity=".7"><path d="m17.465 62.415c-.137 0-.248-.111-.248-.248v-1.953c0-.137.111-.248.248-.248s.248.111.248.248v1.953c0 .137-.111.248-.248.248"/><path d="m17.096 62.167h.766"/><path d="m17.602 68.298c-2.086 0-3.783-1.695-3.783-3.781 0-2.085 1.697-3.783 3.783-3.783 1.01 0 1.959.395 2.674 1.108l.246.246-1.068 1.006-.463-.492.547-.516c-.549-.438-1.225-.677-1.936-.677-1.713 0-3.107 1.394-3.107 3.106 0 1.713 1.395 3.105 3.107 3.105"/><path d="m19.499 66.357-.484-.471c.357-.369.555-.855.555-1.369 0-.537-.213-1.037-.598-1.412l-.252-.246.271-.256.23.245.223-.228c.516.501.801 1.175.801 1.896 0 .691-.266 1.345-.746 1.841"/><path d="m17.602 65.632c-.615 0-1.117-.5-1.117-1.115s.502-1.115 1.117-1.115 1.113.5 1.113 1.115-.498 1.115-1.113 1.115m0-1.554c-.242 0-.439.197-.439.439s.197.439.439.439.439-.197.439-.439-.197-.439-.439-.439"/><path d="m20.036 62.082-1.965 1.816"/><path d="m18.716 61.652h.675v2.675h-.675z" transform="matrix(.6776 .7355 -.7355 .6776 52.4707 6.2976)"/><path d="m20.481 68.298h-2.941v-.675h2.265v-.614l-2.041-1.537.408-.539 2.309 1.738z"/><path d="m16.292 63.097c-.137 0-.248-.111-.248-.248v-2.636c0-.137.111-.248.248-.248.139 0 .248.111.248.248v2.636c0 .137-.11.248-.248.248"/><path d="m26.047 62.415c-.137 0-.246-.111-.246-.248v-1.953c0-.137.109-.248.246-.248.139 0 .248.111.248.248v1.953c0 .137-.109.248-.248.248"/><path d="m25.68 62.167h.766"/><path d="m26.184 68.298c-2.084 0-3.781-1.695-3.781-3.781 0-2.085 1.697-3.783 3.781-3.783 1.01 0 1.961.395 2.674 1.108l.246.246-1.066 1.006-.465-.492.547-.516c-.547-.438-1.223-.677-1.936-.677-1.713 0-3.105 1.394-3.105 3.106 0 1.713 1.393 3.105 3.105 3.105"/><path d="m28.083 66.357-.486-.471c.357-.369.555-.855.555-1.369 0-.537-.211-1.037-.596-1.412l-.254-.246.271-.256.23.245.223-.228c.518.501.801 1.175.801 1.896 0 .691-.264 1.345-.744 1.841"/><path d="m26.184 65.632c-.615 0-1.115-.5-1.115-1.115s.5-1.115 1.115-1.115 1.115.5 1.115 1.115-.5 1.115-1.115 1.115m0-1.554c-.242 0-.439.197-.439.439s.197.439.439.439.439-.197.439-.439-.197-.439-.439-.439"/><path d="m28.62 62.082-1.965 1.816"/><path d="m27.299 61.652h.676v2.677h-.676z" transform="matrix(.6791 .734 -.734 .6791 55.1046 -.0742)"/><path d="m29.065 68.298h-2.943v-.675h2.267v-.614l-2.041-1.537.406-.539 2.311 1.738z"/><path d="m24.875 63.097c-.137 0-.248-.111-.248-.248v-2.636c0-.137.111-.248.248-.248s.248.111.248.248v2.636c.001.137-.111.248-.248.248"/><path d="m34.631 62.415c-.137 0-.248-.111-.248-.248v-1.953c0-.137.111-.248.248-.248s.248.111.248.248v1.953c0 .137-.111.248-.248.248"/><path d="m34.262 62.167h.766"/><path d="m34.768 68.298c-2.086 0-3.783-1.695-3.783-3.781 0-2.085 1.697-3.783 3.783-3.783 1.01 0 1.959.395 2.674 1.108l.246.246-1.068 1.006-.463-.492.547-.516c-.549-.438-1.225-.677-1.936-.677-1.713 0-3.107 1.394-3.107 3.106 0 1.713 1.395 3.105 3.107 3.105"/><path d="m36.665 66.357-.484-.471c.357-.369.555-.855.555-1.369 0-.537-.213-1.037-.598-1.412l-.252-.246.271-.256.23.245.223-.228c.516.501.801 1.175.801 1.896 0 .691-.266 1.345-.746 1.841"/><path d="m34.768 65.632c-.615 0-1.117-.5-1.117-1.115s.502-1.115 1.117-1.115 1.113.5 1.113 1.115-.498 1.115-1.113 1.115m0-1.554c-.242 0-.439.197-.439.439s.197.439.439.439.439-.197.439-.439-.197-.439-.439-.439"/><path d="m37.202 62.082-1.965 1.816"/><path d="m35.882 61.652h.675v2.675h-.675z" transform="matrix(.6776 .7355 -.7355 .6776 58.0058 -6.3275)"/><path d="m37.647 68.298h-2.941v-.675h2.265v-.614l-2.041-1.537.408-.539 2.309 1.738z"/><path d="m33.458 63.097c-.137 0-.248-.111-.248-.248v-2.636c0-.137.111-.248.248-.248.139 0 .248.111.248.248v2.636c0 .137-.11.248-.248.248"/><path d="m43.213 62.415c-.137 0-.246-.111-.246-.248v-1.953c0-.137.109-.248.246-.248.139 0 .248.111.248.248v1.953c0 .137-.109.248-.248.248"/><path d="m42.846 62.167h.766"/><path d="m43.35 68.298c-2.084 0-3.781-1.695-3.781-3.781 0-2.085 1.697-3.783 3.781-3.783 1.01 0 1.961.395 2.674 1.108l.246.246-1.066 1.006-.465-.492.547-.516c-.547-.438-1.223-.677-1.936-.677-1.713 0-3.105 1.394-3.105 3.106 0 1.713 1.393 3.105 3.105 3.105"/><path d="m45.249 66.357-.486-.471c.357-.369.555-.855.555-1.369 0-.537-.211-1.037-.596-1.412l-.254-.246.271-.256.23.245.223-.228c.518.501.801 1.175.801 1.896 0 .691-.264 1.345-.744 1.841"/><path d="m43.35 65.632c-.615 0-1.115-.5-1.115-1.115s.5-1.115 1.115-1.115 1.115.5 1.115 1.115-.5 1.115-1.115 1.115m0-1.554c-.242 0-.439.197-.439.439s.197.439.439.439.439-.197.439-.439-.197-.439-.439-.439"/><path d="m45.786 62.082-1.965 1.816"/><path d="m44.465 61.652h.676v2.677h-.676z" transform="matrix(.6791 .734 -.734 .6791 60.6128 -12.6746)"/><path d="m46.231 68.298h-2.943v-.675h2.267v-.614l-2.041-1.537.406-.539 2.311 1.738z"/><path d="m42.042 63.097c-.137 0-.248-.111-.248-.248v-2.636c0-.137.111-.248.248-.248s.248.111.248.248v2.636c0 .137-.112.248-.248.248"/><path d="m51.797 62.415c-.137 0-.248-.111-.248-.248v-1.953c0-.137.111-.248.248-.248s.248.111.248.248v1.953c0 .137-.111.248-.248.248"/><path d="m51.428 62.167h.766"/><path d="m51.934 68.298c-2.086 0-3.783-1.695-3.783-3.781 0-2.085 1.697-3.783 3.783-3.783 1.01 0 1.959.395 2.674 1.108l.246.246-1.068 1.006-.463-.492.547-.516c-.549-.438-1.225-.677-1.936-.677-1.713 0-3.107 1.394-3.107 3.106 0 1.713 1.395 3.105 3.107 3.105"/><path d="m53.831 66.357-.484-.471c.357-.369.555-.855.555-1.369 0-.537-.213-1.037-.598-1.412l-.252-.246.271-.256.23.245.223-.228c.516.501.801 1.175.801 1.896 0 .691-.266 1.345-.746 1.841"/><path d="m51.934 65.632c-.615 0-1.117-.5-1.117-1.115s.502-1.115 1.117-1.115 1.113.5 1.113 1.115-.498 1.115-1.113 1.115m0-1.554c-.242 0-.439.197-.439.439s.197.439.439.439.439-.197.439-.439-.197-.439-.439-.439"/><path d="m54.368 62.082-1.965 1.816"/><path d="m53.048 61.652h.675v2.675h-.675z" transform="matrix(.6776 .7355 -.7355 .6776 63.5408 -18.9526)"/><path d="m54.813 68.298h-2.941v-.675h2.265v-.614l-2.041-1.537.408-.539 2.309 1.738z"/><path d="m50.624 63.097c-.137 0-.248-.111-.248-.248v-2.636c0-.137.111-.248.248-.248.139 0 .248.111.248.248v2.636c0 .137-.11.248-.248.248"/></g><g fill="#db9c00" opacity=".7"><path d="m60.368 62.415c-.137 0-.248-.111-.248-.248v-1.953c0-.137.111-.248.248-.248s.248.111.248.248v1.953c0 .137-.112.248-.248.248"/><path d="m59.999 62.167h.765"/><path d="m60.504 68.298c-2.086 0-3.783-1.695-3.783-3.781 0-2.085 1.697-3.783 3.783-3.783 1.01 0 1.959.395 2.674 1.108l.246.246-1.068 1.006-.463-.492.547-.516c-.549-.438-1.225-.677-1.936-.677-1.713 0-3.107 1.394-3.107 3.106 0 1.713 1.395 3.105 3.107 3.105"/><path d="m62.401 66.357-.484-.471c.357-.369.555-.855.555-1.369 0-.537-.213-1.037-.598-1.412l-.252-.246.271-.256.23.245.223-.228c.516.501.801 1.175.801 1.896 0 .691-.266 1.345-.746 1.841"/><path d="m60.504 65.632c-.615 0-1.117-.5-1.117-1.115s.502-1.115 1.117-1.115 1.113.5 1.113 1.115-.497 1.115-1.113 1.115m0-1.554c-.242 0-.439.197-.439.439s.197.439.439.439.439-.197.439-.439-.196-.439-.439-.439"/><path d="m62.938 62.082-1.965 1.816"/><path d="m61.618 61.652h.675v2.675h-.675z" transform="matrix(.6776 .7355 -.7355 .6776 66.3043 -25.2558)"/><path d="m63.383 68.298h-2.941v-.675h2.266v-.614l-2.041-1.537.408-.539 2.308 1.738z"/><path d="m59.194 63.097c-.137 0-.248-.111-.248-.248v-2.636c0-.137.111-.248.248-.248.139 0 .248.111.248.248v2.636c0 .137-.109.248-.248.248"/><path d="m68.95 62.415c-.137 0-.246-.111-.246-.248v-1.953c0-.137.109-.248.246-.248.139 0 .248.111.248.248v1.953c0 .137-.11.248-.248.248"/><path d="m68.583 62.167h.765"/><path d="m69.086 68.298c-2.084 0-3.781-1.695-3.781-3.781 0-2.085 1.697-3.783 3.781-3.783 1.01 0 1.961.395 2.674 1.108l.246.246-1.066 1.006-.465-.492.547-.516c-.547-.438-1.223-.677-1.936-.677-1.713 0-3.105 1.394-3.105 3.106 0 1.713 1.393 3.105 3.105 3.105"/><path d="m70.985 66.357-.486-.471c.357-.369.555-.855.555-1.369 0-.537-.211-1.037-.596-1.412l-.254-.246.271-.256.23.245.223-.228c.518.501.801 1.175.801 1.896 0 .691-.264 1.345-.744 1.841"/><path d="m69.086 65.632c-.615 0-1.115-.5-1.115-1.115s.5-1.115 1.115-1.115 1.115.5 1.115 1.115-.499 1.115-1.115 1.115m0-1.554c-.242 0-.439.197-.439.439s.197.439.439.439.439-.197.439-.439-.196-.439-.439-.439"/><path d="m71.522 62.082-1.965 1.816"/><path d="m70.202 61.652h.676v2.677h-.676z" transform="matrix(.6791 .734 -.734 .6791 68.8711 -31.5657)"/><path d="m71.967 68.298h-2.943v-.675h2.268v-.614l-2.042-1.537.407-.539 2.31 1.738z"/><path d="m67.778 63.097c-.137 0-.248-.111-.248-.248v-2.636c0-.137.111-.248.248-.248s.248.111.248.248v2.636c0 .137-.111.248-.248.248"/><path d="m77.534 62.415c-.137 0-.248-.111-.248-.248v-1.953c0-.137.111-.248.248-.248s.248.111.248.248v1.953c0 .137-.112.248-.248.248"/><path d="m77.165 62.167h.765"/><path d="m77.67 68.298c-2.086 0-3.783-1.695-3.783-3.781 0-2.085 1.697-3.783 3.783-3.783 1.01 0 1.959.395 2.674 1.108l.246.246-1.068 1.006-.463-.492.547-.516c-.549-.438-1.225-.677-1.936-.677-1.713 0-3.107 1.394-3.107 3.106 0 1.713 1.395 3.105 3.107 3.105"/><path d="m79.567 66.357-.484-.471c.357-.369.555-.855.555-1.369 0-.537-.213-1.037-.598-1.412l-.252-.246.271-.256.23.245.223-.228c.516.501.801 1.175.801 1.896 0 .691-.266 1.345-.746 1.841"/><path d="m77.67 65.632c-.615 0-1.117-.5-1.117-1.115s.502-1.115 1.117-1.115 1.113.5 1.113 1.115-.497 1.115-1.113 1.115m0-1.554c-.242 0-.439.197-.439.439s.197.439.439.439.439-.197.439-.439-.196-.439-.439-.439"/><path d="m80.104 62.082-1.965 1.816"/><path d="m78.784 61.652h.675v2.675h-.675z" transform="matrix(.6776 .7355 -.7355 .6776 71.8393 -37.8809)"/><path d="m80.549 68.298h-2.941v-.675h2.266v-.614l-2.041-1.537.408-.539 2.308 1.738z"/><path d="m76.36 63.097c-.137 0-.248-.111-.248-.248v-2.636c0-.137.111-.248.248-.248.139 0 .248.111.248.248v2.636c0 .137-.109.248-.248.248"/><path d="m86.116 62.415c-.137 0-.246-.111-.246-.248v-1.953c0-.137.109-.248.246-.248.139 0 .248.111.248.248v1.953c0 .137-.11.248-.248.248"/><path d="m85.749 62.167h.765"/><path d="m86.252 68.298c-2.084 0-3.781-1.695-3.781-3.781 0-2.085 1.697-3.783 3.781-3.783 1.01 0 1.961.395 2.674 1.108l.246.246-1.066 1.006-.465-.492.547-.516c-.547-.438-1.223-.677-1.936-.677-1.713 0-3.105 1.394-3.105 3.106 0 1.713 1.393 3.105 3.105 3.105"/><path d="m88.151 66.357-.486-.471c.357-.369.555-.855.555-1.369 0-.537-.211-1.037-.596-1.412l-.254-.246.271-.256.23.245.223-.228c.518.501.801 1.175.801 1.896 0 .691-.264 1.345-.744 1.841"/><path d="m86.252 65.632c-.615 0-1.115-.5-1.115-1.115s.5-1.115 1.115-1.115 1.115.5 1.115 1.115-.499 1.115-1.115 1.115m0-1.554c-.242 0-.439.197-.439.439s.197.439.439.439.439-.197.439-.439-.196-.439-.439-.439"/><path d="m88.688 62.082-1.965 1.816"/><path d="m87.368 61.652h.676v2.677h-.676z" transform="matrix(.6791 .734 -.734 .6791 74.3793 -44.1661)"/><path d="m89.133 68.298h-2.943v-.675h2.268v-.614l-2.041-1.537.406-.539 2.31 1.738z"/><path d="m84.944 63.097c-.137 0-.248-.111-.248-.248v-2.636c0-.137.111-.248.248-.248s.248.111.248.248v2.636c0 .137-.111.248-.248.248"/><path d="m94.7 62.415c-.137 0-.248-.111-.248-.248v-1.953c0-.137.111-.248.248-.248s.248.111.248.248v1.953c0 .137-.112.248-.248.248"/><path d="m94.331 62.167h.765"/><path d="m94.836 68.298c-2.086 0-3.783-1.695-3.783-3.781 0-2.085 1.697-3.783 3.783-3.783 1.01 0 1.959.395 2.674 1.108l.246.246-1.068 1.006-.463-.492.547-.516c-.549-.438-1.225-.677-1.936-.677-1.713 0-3.107 1.394-3.107 3.106 0 1.713 1.395 3.105 3.107 3.105"/><path d="m96.733 66.357-.484-.471c.357-.369.555-.855.555-1.369 0-.537-.213-1.037-.598-1.412l-.252-.246.271-.256.23.245.223-.228c.516.501.801 1.175.801 1.896 0 .691-.266 1.345-.746 1.841"/><path d="m94.836 65.632c-.615 0-1.117-.5-1.117-1.115s.502-1.115 1.117-1.115 1.113.5 1.113 1.115-.497 1.115-1.113 1.115m0-1.554c-.242 0-.439.197-.439.439s.197.439.439.439.439-.197.439-.439-.196-.439-.439-.439"/><path d="m97.27 62.082-1.965 1.816"/><path d="m95.95 61.652h.675v2.675h-.675z" transform="matrix(.6776 .7355 -.7355 .6776 77.3743 -50.506)"/><path d="m97.715 68.298h-2.941v-.675h2.266v-.614l-2.041-1.537.408-.539 2.308 1.738z"/><path d="m93.526 63.097c-.137 0-.248-.111-.248-.248v-2.636c0-.137.111-.248.248-.248.139 0 .248.111.248.248v2.636c0 .137-.109.248-.248.248"/></g><g fill="#db9c00" opacity=".7"><path d="m17.465 72.748c-.137 0-.248-.111-.248-.248v-1.953c0-.137.111-.248.248-.248s.248.111.248.248v1.953c0 .136-.111.248-.248.248"/><path d="m17.096 72.5h.766"/><path d="m17.602 78.632c-2.086 0-3.783-1.697-3.783-3.781 0-2.086 1.697-3.783 3.783-3.783 1.01 0 1.959.395 2.674 1.107l.246.246-1.068 1.008-.463-.492.547-.516c-.549-.439-1.225-.678-1.936-.678-1.713 0-3.107 1.395-3.107 3.107 0 1.711 1.395 3.104 3.107 3.104"/><path d="m19.499 76.689-.484-.471c.357-.369.555-.855.555-1.367 0-.537-.213-1.039-.598-1.412l-.252-.246.271-.256.23.244.223-.227c.516.502.801 1.176.801 1.896 0 .691-.266 1.343-.746 1.839"/><path d="m17.602 75.964c-.615 0-1.117-.5-1.117-1.113 0-.615.502-1.117 1.117-1.117s1.113.502 1.113 1.117c0 .613-.498 1.113-1.113 1.113m0-1.554c-.242 0-.439.197-.439.441 0 .242.197.438.439.438s.439-.195.439-.438c.001-.244-.197-.441-.439-.441"/><path d="m20.036 72.416-1.965 1.814"/><path d="m18.716 71.986h.675v2.674h-.675z" transform="matrix(.6776 .7355 -.7355 .6776 60.0702 9.6293)"/><path d="m20.481 78.632h-2.941v-.677h2.265v-.614l-2.041-1.535.408-.541 2.309 1.738z"/><path d="m16.292 73.431c-.137 0-.248-.111-.248-.248v-2.637c0-.137.111-.248.248-.248.139 0 .248.111.248.248v2.637c0 .137-.11.248-.248.248"/><path d="m26.047 72.748c-.137 0-.246-.111-.246-.248v-1.953c0-.137.109-.248.246-.248.139 0 .248.111.248.248v1.953c0 .136-.109.248-.248.248"/><path d="m25.68 72.5h.766"/><path d="m26.184 78.632c-2.084 0-3.781-1.697-3.781-3.781 0-2.086 1.697-3.783 3.781-3.783 1.01 0 1.961.395 2.674 1.107l.246.246-1.066 1.008-.465-.492.547-.516c-.547-.439-1.223-.678-1.936-.678-1.713 0-3.105 1.395-3.105 3.107 0 1.711 1.393 3.104 3.105 3.104"/><path d="m28.083 76.689-.486-.471c.357-.369.555-.855.555-1.367 0-.537-.211-1.039-.596-1.412l-.254-.246.271-.256.23.244.223-.227c.518.502.801 1.176.801 1.896 0 .691-.264 1.343-.744 1.839"/><path d="m26.184 75.964c-.615 0-1.115-.5-1.115-1.113 0-.615.5-1.117 1.115-1.117s1.115.502 1.115 1.117c0 .613-.5 1.113-1.115 1.113m0-1.554c-.242 0-.439.197-.439.441 0 .242.197.438.439.438s.439-.195.439-.438c.001-.244-.197-.441-.439-.441"/><path d="m28.62 72.416-1.965 1.814"/><path d="m27.299 71.985h.676v2.676h-.676z" transform="matrix(.6791 .734 -.734 .6791 62.6891 3.2413)"/><path d="m29.065 78.632h-2.943v-.677h2.267v-.614l-2.041-1.535.406-.541 2.311 1.738z"/><path d="m24.875 73.431c-.137 0-.248-.111-.248-.248v-2.637c0-.137.111-.248.248-.248s.248.111.248.248v2.637c.001.137-.111.248-.248.248"/><path d="m34.631 72.748c-.137 0-.248-.111-.248-.248v-1.953c0-.137.111-.248.248-.248s.248.111.248.248v1.953c0 .136-.111.248-.248.248"/><path d="m34.262 72.5h.766"/><path d="m34.768 78.632c-2.086 0-3.783-1.697-3.783-3.781 0-2.086 1.697-3.783 3.783-3.783 1.01 0 1.959.395 2.674 1.107l.246.246-1.068 1.008-.463-.492.547-.516c-.549-.439-1.225-.678-1.936-.678-1.713 0-3.107 1.395-3.107 3.107 0 1.711 1.395 3.104 3.107 3.104"/><path d="m36.665 76.689-.484-.471c.357-.369.555-.855.555-1.367 0-.537-.213-1.039-.598-1.412l-.252-.246.271-.256.23.244.223-.227c.516.502.801 1.176.801 1.896 0 .691-.266 1.343-.746 1.839"/><path d="m34.768 75.964c-.615 0-1.117-.5-1.117-1.113 0-.615.502-1.117 1.117-1.117s1.113.502 1.113 1.117c0 .613-.498 1.113-1.113 1.113m0-1.554c-.242 0-.439.197-.439.441 0 .242.197.438.439.438s.439-.195.439-.438c.001-.244-.197-.441-.439-.441"/><path d="m37.202 72.416-1.965 1.814"/><path d="m35.882 71.986h.675v2.674h-.675z" transform="matrix(.6776 .7355 -.7355 .6776 65.6052 -2.9958)"/><path d="m37.647 78.632h-2.941v-.677h2.265v-.614l-2.041-1.535.408-.541 2.309 1.738z"/><path d="m33.458 73.431c-.137 0-.248-.111-.248-.248v-2.637c0-.137.111-.248.248-.248.139 0 .248.111.248.248v2.637c0 .137-.11.248-.248.248"/><path d="m43.213 72.748c-.137 0-.246-.111-.246-.248v-1.953c0-.137.109-.248.246-.248.139 0 .248.111.248.248v1.953c0 .136-.109.248-.248.248"/><path d="m42.846 72.5h.766"/><path d="m43.35 78.632c-2.084 0-3.781-1.697-3.781-3.781 0-2.086 1.697-3.783 3.781-3.783 1.01 0 1.961.395 2.674 1.107l.246.246-1.066 1.008-.465-.492.547-.516c-.547-.439-1.223-.678-1.936-.678-1.713 0-3.105 1.395-3.105 3.107 0 1.711 1.393 3.104 3.105 3.104"/><path d="m45.249 76.689-.486-.471c.357-.369.555-.855.555-1.367 0-.537-.211-1.039-.596-1.412l-.254-.246.271-.256.23.244.223-.227c.518.502.801 1.176.801 1.896 0 .691-.264 1.343-.744 1.839"/><path d="m43.35 75.964c-.615 0-1.115-.5-1.115-1.113 0-.615.5-1.117 1.115-1.117s1.115.502 1.115 1.117c0 .613-.5 1.113-1.115 1.113m0-1.554c-.242 0-.439.197-.439.441 0 .242.197.438.439.438s.439-.195.439-.438c.001-.244-.197-.441-.439-.441"/><path d="m45.786 72.416-1.965 1.814"/><path d="m44.465 71.985h.676v2.676h-.676z" transform="matrix(.6791 .734 -.734 .6791 68.1974 -9.359)"/><path d="m46.231 78.632h-2.943v-.677h2.267v-.614l-2.041-1.535.406-.541 2.311 1.738z"/><path d="m42.042 73.431c-.137 0-.248-.111-.248-.248v-2.637c0-.137.111-.248.248-.248s.248.111.248.248v2.637c0 .137-.112.248-.248.248"/><path d="m51.797 72.748c-.137 0-.248-.111-.248-.248v-1.953c0-.137.111-.248.248-.248s.248.111.248.248v1.953c0 .136-.111.248-.248.248"/><path d="m51.428 72.5h.766"/><path d="m51.934 78.632c-2.086 0-3.783-1.697-3.783-3.781 0-2.086 1.697-3.783 3.783-3.783 1.01 0 1.959.395 2.674 1.107l.246.246-1.068 1.008-.463-.492.547-.516c-.549-.439-1.225-.678-1.936-.678-1.713 0-3.107 1.395-3.107 3.107 0 1.711 1.395 3.104 3.107 3.104"/><path d="m53.831 76.689-.484-.471c.357-.369.555-.855.555-1.367 0-.537-.213-1.039-.598-1.412l-.252-.246.271-.256.23.244.223-.227c.516.502.801 1.176.801 1.896 0 .691-.266 1.343-.746 1.839"/><path d="m51.934 75.964c-.615 0-1.117-.5-1.117-1.113 0-.615.502-1.117 1.117-1.117s1.113.502 1.113 1.117c0 .613-.498 1.113-1.113 1.113m0-1.554c-.242 0-.439.197-.439.441 0 .242.197.438.439.438s.439-.195.439-.438c.001-.244-.197-.441-.439-.441"/><path d="m54.368 72.416-1.965 1.814"/><path d="m53.048 71.986h.675v2.674h-.675z" transform="matrix(.6776 .7355 -.7355 .6776 71.1403 -15.6209)"/><path d="m54.813 78.632h-2.941v-.677h2.265v-.614l-2.041-1.535.408-.541 2.309 1.738z"/><path d="m50.624 73.431c-.137 0-.248-.111-.248-.248v-2.637c0-.137.111-.248.248-.248.139 0 .248.111.248.248v2.637c0 .137-.11.248-.248.248"/></g><g fill="#db9c00" opacity=".7"><path d="m60.368 72.748c-.137 0-.248-.111-.248-.248v-1.953c0-.137.111-.248.248-.248s.248.111.248.248v1.953c0 .136-.112.248-.248.248"/><path d="m59.999 72.5h.765"/><path d="m60.504 78.632c-2.086 0-3.783-1.697-3.783-3.781 0-2.086 1.697-3.783 3.783-3.783 1.01 0 1.959.395 2.674 1.107l.246.246-1.068 1.008-.463-.492.547-.516c-.549-.439-1.225-.678-1.936-.678-1.713 0-3.107 1.395-3.107 3.107 0 1.711 1.395 3.104 3.107 3.104"/><path d="m62.401 76.689-.484-.471c.357-.369.555-.855.555-1.367 0-.537-.213-1.039-.598-1.412l-.252-.246.271-.256.23.244.223-.227c.516.502.801 1.176.801 1.896 0 .691-.266 1.343-.746 1.839"/><path d="m60.504 75.964c-.615 0-1.117-.5-1.117-1.113 0-.615.502-1.117 1.117-1.117s1.113.502 1.113 1.117c.001.613-.497 1.113-1.113 1.113m0-1.554c-.242 0-.439.197-.439.441 0 .242.197.438.439.438s.439-.195.439-.438c.001-.244-.196-.441-.439-.441"/><path d="m62.938 72.416-1.965 1.814"/><path d="m61.618 71.986h.675v2.674h-.675z" transform="matrix(.6776 .7355 -.7355 .6776 73.9037 -21.9241)"/><path d="m63.383 78.632h-2.941v-.677h2.266v-.614l-2.041-1.535.408-.541 2.308 1.738z"/><path d="m59.194 73.431c-.137 0-.248-.111-.248-.248v-2.637c0-.137.111-.248.248-.248.139 0 .248.111.248.248v2.637c0 .137-.109.248-.248.248"/><path d="m68.95 72.748c-.137 0-.246-.111-.246-.248v-1.953c0-.137.109-.248.246-.248.139 0 .248.111.248.248v1.953c0 .136-.11.248-.248.248"/><path d="m68.583 72.5h.765"/><path d="m69.086 78.632c-2.084 0-3.781-1.697-3.781-3.781 0-2.086 1.697-3.783 3.781-3.783 1.01 0 1.961.395 2.674 1.107l.246.246-1.066 1.008-.465-.492.547-.516c-.547-.439-1.223-.678-1.936-.678-1.713 0-3.105 1.395-3.105 3.107 0 1.711 1.393 3.104 3.105 3.104"/><path d="m70.985 76.689-.486-.471c.357-.369.555-.855.555-1.367 0-.537-.211-1.039-.596-1.412l-.254-.246.271-.256.23.244.223-.227c.518.502.801 1.176.801 1.896 0 .691-.264 1.343-.744 1.839"/><path d="m69.086 75.964c-.615 0-1.115-.5-1.115-1.113 0-.615.5-1.117 1.115-1.117s1.115.502 1.115 1.117c.001.613-.499 1.113-1.115 1.113m0-1.554c-.242 0-.439.197-.439.441 0 .242.197.438.439.438s.439-.195.439-.438c.001-.244-.196-.441-.439-.441"/><path d="m71.522 72.416-1.965 1.814"/><path d="m70.202 71.985h.676v2.676h-.676z" transform="matrix(.6791 .734 -.734 .6791 76.4556 -28.2502)"/><path d="m71.967 78.632h-2.943v-.677h2.268v-.614l-2.042-1.535.407-.541 2.31 1.738z"/><path d="m67.778 73.431c-.137 0-.248-.111-.248-.248v-2.637c0-.137.111-.248.248-.248s.248.111.248.248v2.637c0 .137-.111.248-.248.248"/><path d="m77.534 72.748c-.137 0-.248-.111-.248-.248v-1.953c0-.137.111-.248.248-.248s.248.111.248.248v1.953c0 .136-.112.248-.248.248"/><path d="m77.165 72.5h.765"/><path d="m77.67 78.632c-2.086 0-3.783-1.697-3.783-3.781 0-2.086 1.697-3.783 3.783-3.783 1.01 0 1.959.395 2.674 1.107l.246.246-1.068 1.008-.463-.492.547-.516c-.549-.439-1.225-.678-1.936-.678-1.713 0-3.107 1.395-3.107 3.107 0 1.711 1.395 3.104 3.107 3.104"/><path d="m79.567 76.689-.484-.471c.357-.369.555-.855.555-1.367 0-.537-.213-1.039-.598-1.412l-.252-.246.271-.256.23.244.223-.227c.516.502.801 1.176.801 1.896 0 .691-.266 1.343-.746 1.839"/><path d="m77.67 75.964c-.615 0-1.117-.5-1.117-1.113 0-.615.502-1.117 1.117-1.117s1.113.502 1.113 1.117c.001.613-.497 1.113-1.113 1.113m0-1.554c-.242 0-.439.197-.439.441 0 .242.197.438.439.438s.439-.195.439-.438c.001-.244-.196-.441-.439-.441"/><path d="m80.104 72.416-1.965 1.814"/><path d="m78.784 71.986h.675v2.674h-.675z" transform="matrix(.6776 .7355 -.7355 .6776 79.4387 -34.5492)"/><path d="m80.549 78.632h-2.941v-.677h2.266v-.614l-2.041-1.535.408-.541 2.308 1.738z"/><path d="m76.36 73.431c-.137 0-.248-.111-.248-.248v-2.637c0-.137.111-.248.248-.248.139 0 .248.111.248.248v2.637c0 .137-.109.248-.248.248"/><path d="m86.116 72.748c-.137 0-.246-.111-.246-.248v-1.953c0-.137.109-.248.246-.248.139 0 .248.111.248.248v1.953c0 .136-.11.248-.248.248"/><path d="m85.749 72.5h.765"/><path d="m86.252 78.632c-2.084 0-3.781-1.697-3.781-3.781 0-2.086 1.697-3.783 3.781-3.783 1.01 0 1.961.395 2.674 1.107l.246.246-1.066 1.008-.465-.492.547-.516c-.547-.439-1.223-.678-1.936-.678-1.713 0-3.105 1.395-3.105 3.107 0 1.711 1.393 3.104 3.105 3.104"/><path d="m88.151 76.689-.486-.471c.357-.369.555-.855.555-1.367 0-.537-.211-1.039-.596-1.412l-.254-.246.271-.256.23.244.223-.227c.518.502.801 1.176.801 1.896 0 .691-.264 1.343-.744 1.839"/><path d="m86.252 75.964c-.615 0-1.115-.5-1.115-1.113 0-.615.5-1.117 1.115-1.117s1.115.502 1.115 1.117c.001.613-.499 1.113-1.115 1.113m0-1.554c-.242 0-.439.197-.439.441 0 .242.197.438.439.438s.439-.195.439-.438c.001-.244-.196-.441-.439-.441"/><path d="m88.688 72.416-1.965 1.814"/><path d="m87.368 71.985h.676v2.676h-.676z" transform="matrix(.6791 .734 -.734 .6791 81.9639 -40.8505)"/><path d="m89.133 78.632h-2.943v-.677h2.268v-.614l-2.041-1.535.406-.541 2.31 1.738z"/><path d="m84.944 73.431c-.137 0-.248-.111-.248-.248v-2.637c0-.137.111-.248.248-.248s.248.111.248.248v2.637c0 .137-.111.248-.248.248"/><path d="m94.7 72.748c-.137 0-.248-.111-.248-.248v-1.953c0-.137.111-.248.248-.248s.248.111.248.248v1.953c0 .136-.112.248-.248.248"/><path d="m94.331 72.5h.765"/><path d="m94.836 78.632c-2.086 0-3.783-1.697-3.783-3.781 0-2.086 1.697-3.783 3.783-3.783 1.01 0 1.959.395 2.674 1.107l.246.246-1.068 1.008-.463-.492.547-.516c-.549-.439-1.225-.678-1.936-.678-1.713 0-3.107 1.395-3.107 3.107 0 1.711 1.395 3.104 3.107 3.104"/><path d="m96.733 76.689-.484-.471c.357-.369.555-.855.555-1.367 0-.537-.213-1.039-.598-1.412l-.252-.246.271-.256.23.244.223-.227c.516.502.801 1.176.801 1.896 0 .691-.266 1.343-.746 1.839"/><path d="m94.836 75.964c-.615 0-1.117-.5-1.117-1.113 0-.615.502-1.117 1.117-1.117s1.113.502 1.113 1.117c.001.613-.497 1.113-1.113 1.113m0-1.554c-.242 0-.439.197-.439.441 0 .242.197.438.439.438s.439-.195.439-.438c.001-.244-.196-.441-.439-.441"/><path d="m97.27 72.416-1.965 1.814"/><path d="m95.95 71.986h.675v2.674h-.675z" transform="matrix(.6776 .7355 -.7355 .6776 84.9738 -47.1742)"/><path d="m97.715 78.632h-2.941v-.677h2.266v-.614l-2.041-1.535.408-.541 2.308 1.738z"/><path d="m93.526 73.431c-.137 0-.248-.111-.248-.248v-2.637c0-.137.111-.248.248-.248.139 0 .248.111.248.248v2.637c0 .137-.109.248-.248.248"/></g><circle cx="69.132" cy="62.658" fill="url(#d)" r="1.235"/><circle cx="64.106" cy="60.389" fill="url(#e)" r="1.711"/><circle cx="45.29" cy="60.781" fill="url(#f)" r="2.139"/><circle cx="71.912" cy="54.926" fill="url(#g)" r=".808"/><circle cx="69.06" cy="53.357" fill="url(#h)" r=".808"/><circle cx="48.332" cy="55.091" fill="url(#i)" r=".808"/><circle cx="43.699" cy="55.02" fill="url(#j)" r=".808"/><circle cx="40.099" cy="51.563" fill="url(#k)" r="1.235"/><circle cx="47.083" cy="44.221" fill="url(#l)" r=".808"/><circle cx="64.677" cy="50.398" fill="url(#m)" r="1.378"/><circle cx="63.572" cy="47.084" fill="url(#n)" r=".808"/><circle cx="68.705" cy="57.954" fill="url(#o)" r="1.235"/><circle cx="46.216" cy="49.579" fill="url(#p)" r="1.235"/><circle cx="73.171" cy="49.924" fill="url(#q)" r=".808"/><circle cx="64.177" cy="54.141" fill="url(#r)" r="1.235"/><circle cx="38.744" cy="57.371" fill="url(#s)" r="1.235"/><path d="m102.053 82.695v8.58l-.01.01-1.42.811-4.15 2.389-.201.121-1.93 1.109-2.719 1.57-.24.131-.131.049-.109.07-3.029 1.74-.82.471-1.051.6-.039.029-1.23.711-.451.26-.01.01-.01.01h-.01l-1.539.891-.871.52-1.26.721-.119.068-.08.051-.41.24-.031.01-.16.09v.01l-.779.451-.18.09-.02.02-.041.02-1.01.58-.289.17-.371.211-.24.139h-.01l-.709.42-4.621 2.67-.629.361-.061.029-3.5 2.029-4.041 2.33-.01.012-.43.25-5.709 3.289-.561.32h-.01l-.32.189-.25.15-.369.051-1.281-.74-.85-.49-.029-.01-1.74-1.01-3.531-2.041-.039-.029-2.07-1.191-5.359-3.109-.691-.391-5.09-2.949-.389-.221-.49-.279-.33-.199-1.85-1.061-.57-.33-1.711-.99-2.51-1.459-2.09-1.201-.82-.469-.09-.051-.5-.291-.01-.01-.209-.119h-.012l-1.039-.6c-.01-.01-.01-.01-.02-.01l-1.861-1.08-1.02-.59-2.109-1.23-.291-.17s-.01 0-.02-.01l-.279-.16-3.301-1.9-3.5-2.02-.08-.041-.029-.02v-7.088z" fill="#db9c00"/><path d="m87.284 95.154-36.551 17.48-2.029.971-2.621-1.51-26.12-15.07-1.42-.82 1.84-1.08 6.34-3.75 9.17 6.791z" fill="#bf8400"/><path d="m26.579 91.609 6.843 9.504 53.981-5.608-51.51 2.657z" fill="#9b4d00"/><path d="m32.995 71.175 3.801.049 1.283.236-.143 19.482.713.666.096 1.662-2.945.998-.381.285.047 3.564-8.744-6.748-.047-2.422 1.426-.096 1.379.096.047-1.807s1.377.143 1.662.189c.285.049 1.236 0 1.236 0v-15.68z" fill="#212121"/><path d="m37.674 71.318.576 20.148.096 2.09-3.021.928-.073 3.137 52.954-2.496.431-3.135-2.59.07-.504-2.779-4.964-.785-.502-17.391z" fill="#595959"/><path d="m36.961 66.708-.428 4.277 36.994.355-.072-4.918c.001.001-15.964-4.417-36.494.286z" fill="url(#t)"/><path d="m72.661 69.757c-5.469-1.123-11.625-.17-17.176-.078-5.783.094-12.166.563-16.967-3.109-.086-.066-.199-.043-.275.02-.096.008-.189.033-.277.076-.322-.133-.764-.031-.836.357-.021.111-.027.234-.037.352-.152.094-.273.234-.307.432-.104.645-.197 1.301-.086 1.945-.008.098-.01.197-.02.295-.035.334.238.588.518.695.684.266 1.35.203 2.027.102 1.16.377 2.367.4 3.588.357.23-.008.4-.111.518-.254.027.004.053.014.08.016.295.033.494-.102.592-.297.014-.004.025-.008.037-.01.098 0 .189.02.287.014.111-.004.207-.045.299-.098 2.252.395 4.635.402 6.561.455 3.338.092 6.695.063 10.033.014 3.582-.055 7.494-.551 11.037.176.949.195 1.363-1.262.404-1.46z" fill="#875607"/><path d="m67.219 89.517c-4.039 0-7.912-.109-11.725-.965-.059-.025-.123-.039-.195-.043-1.613-.373-3.219-.869-4.818-1.57-3.055-1.342-5.113-3.258-7.107-5.896-1.455-1.924-2.902-6.926-1.357-9.199.416-.609-.574-1.18-.984-.576-.09.131-.148.283-.221.428-.031-.016-.061-.037-.098-.047-.049-.012-.096-.023-.143-.035-.105-.027-.207-.016-.301.012-.371 0-.668.051-.918.137-.096-.143-.215-.268-.387-.359-.266-.145-.67-.029-.734.299-.033.176-.055.328-.059.508-.006.219.107.357.258.428-.379.914-.182 2.326-.328 3.707-.254 2.398-.082 4.83.143 7.223.158 1.672.445 2.93.164 4.66-.133.811-.355 1.428-.342 2.254.006.355.361.67.723.549.738-.244 1.561-.367 2.412-.43.072.012.129.027.207.039.145.02.268-.016.373-.074 1.566-.061 3.199.064 4.607.094 1.578.035 3.123.086 4.701-.033.352-.027.697-.078 1.041-.133l.094-.004c.121.09.277.141.463.113.4-.055.793-.125 1.188-.193.092.023.186.045.277.068.014.238.17.471.477.482.469.016.852-.176 1.256-.383.08.102.203.172.369.174.682.014 1.336.09 1.961-.234.121-.063.178-.18.209-.307 2.883.363 5.832.449 8.795.449.734-.002.734-1.143-.001-1.143z" fill="#2d2d2d"/><path d="m50.698 96.921c-.279-.883-.807-1.68-.463-2.619.254-.691-.848-.988-1.1-.303-.01.027-.014.055-.023.084-.082-.033-.16-.055-.24-.082-.084-.16-.236-.289-.469-.314-.414-.051-.83-.088-1.248-.107-.076-.004-.143.008-.205.031-.334-.559-.531-1.266-.229-1.881.322-.658-.66-1.236-.984-.576-.094.189-.141.385-.189.582-.031-.008-.063-.016-.096-.023-.02-.082-.043-.162-.063-.244-.16-.65-1.078-.451-1.107.129-.025.012-.053.023-.074.039-.193-.025-.387-.055-.58-.07-.574-.047-1.182.039-1.781.113-.064-.148-.178-.277-.35-.324-.682-.186-1.383-.117-1.918.221-.293-.07-.656.074-.707.393-.043.271-.074.518-.092.793-.004.045.01.08.016.119-.08.15-.105.332-.01.525l.107.213c.16.32.658.377.896.115.021-.025.031-.049.051-.074.42.123.914.029 1.332.023 1.162-.014 2.502.213 3.574-.33.018.031.045.057.063.088.229.363.619.328.854.113.043.117.109.227.164.34-.084.012-.166.016-.248.027-.111.016-.195.072-.262.145-.102-.041-.215-.063-.346-.037-.385.076-.756.154-1.133.232-.055-.188-.205-.344-.459-.344h-2.416c-.277 0-.428.188-.467.398-1.289-.012-2.549.082-3.475.383-.045-.043-.094-.084-.164-.113-.082-.037-.166-.072-.25-.107-.516-.221-1.057.236-.779.779.02.039.045.064.064.1-.463.516-.488 1.264.191 2.328.223.35.771.391.984 0 .023-.043.027-.078.043-.117.01-.002.016 0 .025-.002.121-.035.234-.09.35-.137.434.268 1.246.271 1.488.303.609.08 1.35-.1 2.029-.271 1.867.164 3.855.195 5.553-.408.088-.031.154-.082.213-.141.635.16 1.271.295 1.953.268.266-.01.439-.186.512-.395.07.023.145.031.221.025.049.139.098.271.143.414.224.698 1.325.4 1.101-.304z" fill="#2d2d2d"/><path d="m38.29 91.962c-.908-.248-1.584-1.004-2.322-1.547-.068-.051-.135-.076-.199-.092-.057-.201-.105-.404-.152-.607.006-.002.014-.006.02-.008.256.16.516.311.785.438.213.625 1.105.426 1.102-.164.283-.082.521-.406.453-.723-.158-.748-.365-1.48-.559-2.215.465.289 1.076-.412.662-.924-3.402-4.184-3.836-9.02-3.184-14.209.084-.666-.859-.707-1.088-.158-.002 0-.004.002-.006.002-.172-.301-.578-.467-.877-.139-.449.492-.297 1.619-.314 2.223-.027.973-.031 1.945-.031 2.92 0 .195.084.336.201.428-.229 1.705-.27 3.641.086 5.285-.096 1.564-.229 3.148-.125 4.684-.086.135-.188.227-.313.244-.65.09-.475 1.119.15 1.119h.713c.004 0 .01-.004.014-.004.336.344.678.688 1.064.924.084.289.154.576.227.863-.484-.262-.957-.566-1.439-.801-.809-.395-1.639-.85-2.242-1.527-.488-.551-1.293.258-.807.807.672.756 1.584 1.254 2.475 1.705.914.465 1.793 1.127 2.803 1.363.18.041.328-.014.453-.1.662.531 1.303 1.08 2.148 1.311.71.195 1.011-.906.302-1.098z" fill="#161616"/><path d="m35.62 95.601c-.033-.029-.07-.053-.104-.082.27-.27.262-.805-.221-.955-.676-.164-1.084-.939-1.74-1.217-.967-.404-1.859-.998-2.846-1.332-.965-.785-1.918-1.568-2.975-2.242-.623-.396-1.193.592-.576.984 1.102.703 2.098 1.525 3.102 2.348.699.752 1.57 1.27 2.277 2.018.686.725 1.234 1.506 2.178 1.908.482.205.891-.158.828-.578.26-.196.336-.623.077-.852z" fill="#161616"/><path d="m80.774 81.484c-.188-2-.475-4.045-.902-6.018.307.033.623-.141.594-.537-.053-.648-.17-1.287-.27-1.93.125-.119.199-.289.207-.453.607-.238.311-1.234-.375-1.064-.416.104-.857-.02-1.273-.068-.088-.012-.162-.002-.229.02-.313-.109-.701.049-.768.371-2.244-.191-4.518-.207-6.756-.367-3.469-.248-6.977-.467-10.447-.547-.736-.016-.734 1.125 0 1.141 2.807.064 5.65.227 8.457.408 2.969.189 6.055.189 9.037.516 1.193 3.822 1.695 8.273 1.846 12.191.018.48.502.635.83.482-.172-1.376-.16-2.776.049-4.145z" fill="#e8e8e8"/><path d="m87.77 93.814c.098-.002.197-.016.305-.041.348-.08.539-.535.34-.836-.01-.016-.021-.029-.031-.045.018-.09.023-.18.002-.268-.002-.008-.006-.018-.008-.027-.096-.373-.443-.463-.727-.365-.033.008-.068.014-.102.02-.063-.049-.125-.098-.195-.137-.172-.1-.35-.092-.5-.025-.133-.057-.256-.129-.395-.176-.445-.146-.725.244-.693.607-.102-.043-.209-.078-.311-.119.02-.113.004-.24-.082-.369-.092-.137-.197-.252-.299-.373.363-.002.625-.41.518-.76.008-.137-.033-.279-.164-.408-.271-.264-.594-.391-.953-.406-.381-.205-.768-.4-1.16-.584-.367-.172-.699.055-.816.342-.441-.193-.898-.369-1.361-.543-.691-.258-.986.846-.303 1.1 1.035.387 2.098.762 2.912 1.486-.455-.102-.914-.189-1.375-.258-.719-.105-1.027.994-.303 1.1 2.016.295 4.043.793 5.404 2.42.471.564 1.273-.246.807-.807-.16-.192-.332-.364-.51-.528z" fill="#f3feff"/><path d="m73.686 67.798c-.588-.938-1.762-1.459-2.811-1.686-.342-.074-.584.137-.672.395-.299-.145-.605-.25-.953-.273-.094-.006-.174.008-.244.035-.391-.164-.797-.297-1.189-.41-1.318-.377-2.654-.801-4.031-.861-.313-.014-.482.188-.529.422-.047-.057-.096-.115-.182-.154-.367-.166-.744-.279-1.133-.389-.32-.09-.551.088-.65.326-1.521-.547-3.234-.584-4.871-.584-.734-.002-.734 1.139 0 1.141 2.115 0 4.514-.051 6.154 1.496.535.504 1.344-.303.807-.807-.1-.094-.209-.164-.313-.248.127-.084.209-.211.254-.346.088.154.236.273.463.283 1.199.053 2.305.471 3.461.75.842.205 1.809.465 2.361 1.174.367.471.955.021.926-.471.1-.086.16-.209.193-.34.715.172 1.58.492 1.975 1.123.39.622 1.377.051.984-.576z" fill="#fffed2"/><path d="m55.803 66.453c.279-.172.445-.58.166-.906-.363-.422-.836-.623-1.344-.813-.436-.162-.713.213-.688.578-1.563-.742-3.328-1.055-4.932-.332-.262.119-.328.34-.277.549-.205-.217-.42-.309-.648-.342-.035-.025-.064-.055-.109-.072-.855-.35-1.842.094-2.717.121-.307.01-.479.213-.529.443-.799-.025-1.609-.02-2.418-.063-.734-.041-.73 1.1 0 1.141 1.977.107 4.029-.221 5.795.871.627.389 1.199-.598.576-.984-.084-.051-.172-.086-.254-.131.293-.068.531-.389.453-.713.162.186.422.293.703.166 1.881-.85 4.16.322 5.65 1.473.58.449 1.148-.541.574-.984z" fill="#fffed2"/><path d="m30.192 35.505 7.697 30.696s16.918-4.275 35.545.096l7.127-30.601c0-.001-18.152-15.301-50.369-.191z" fill="url(#u)"/><path d="m45.879 90.958c-1.104.045-2.012.65-3.141.518-.521-.061-1.391.033-1.217-.064.938-.07 1.877-.344 2.645-.676.004-.002.01-.002.014-.004 0 0-.002 0-.002-.002.039-.016.082-.031.121-.049.551-.248.135-1.01-.385-.914-.416.078-1.949.23-2.932.674-.775-.012-1.463-.229-1.736-.889-.68-1.643-.359-3.426-.324-5.135.012-.646-.988-.645-1 0-.027 1.357-.342 2.678.059 4.002.232.77.188 1.926.938 2.436.363.246.775.398 1.215.486-.004.07.002.143.023.219.174.633 1.355.732 1.824.818 1.309.236 2.111-.166 3.201-.344-.625 1.689-1.822 2.148-3.744 2.277-.83.057-1.789.123-2.719.098-.027-.221-.178-.404-.465-.367-.482.082-.969.125-1.457.125-.559.023-.688.824-.133.982 2.082.592 4.869.301 6.973-.125 1.799-.365 2.326-1.756 2.725-3.434.072-.303-.147-.645-.483-.632z" fill="#2d2d2d"/><g fill="#0f0f0f"><path d="m38.805 91.785c15.577-.498 31.155-.992 46.732-1.49.644-.02.646-1.02 0-1-15.577.498-31.155.992-46.732 1.49-.643.021-.645 1.021 0 1z"/><path d="m38.053 91.324v1.9c0 .645 1 .645 1 0 0-.633 0-1.266 0-1.9 0-.645-1-.645-1 0z"/><path d="m35.44 94.644c17.609-.707 35.215-1.471 52.822-2.211.643-.027.646-1.027 0-1-17.607.74-35.213 1.504-52.822 2.211-.643.025-.646 1.025 0 1z"/><path d="m35.555 98.535c17.597-.977 35.188-2.037 52.781-3.055.641-.037.645-1.037 0-1-17.593 1.018-35.185 2.078-52.781 3.055-.641.035-.644 1.037 0 1z"/><path d="m35.965 98.025c0-1.156 0-2.314 0-3.471 0-.645-1-.645-1 0v3.471c0 .644 1 .644 1 0z"/><path d="m27.426 91.091c0-.615 0-1.231 0-1.848 0-.645-1-.645-1 0v1.848c0 .645 1 .645 1 0z"/><path d="m29.938 88.667c0-.342 0-.685 0-1.027 0-.645-1-.645-1 0v1.027c0 .646 1 .646 1 0z"/><path d="m88.875 94.912c0-.975 0-1.947 0-2.922 0-.645-1-.645-1 0v2.922c0 .644 1 .644 1 0z"/><path d="m86.262 91.917c0-.721 0-1.441 0-2.162 0-.645-1-.645-1 0v2.162c0 .645 1 .645 1 0z"/><path d="m26.637 89.546c2.787 1.725 5.575 3.454 8.363 5.178.55.342 1.052-.523.504-.863-2.787-1.727-5.575-3.453-8.363-5.178-.55-.342-1.052.525-.504.863z"/><path d="m28.991 89.289c2.914 1.502 5.829 3.004 8.744 4.506.572.295 1.078-.568.504-.863-2.914-1.502-5.829-3.004-8.744-4.506-.573-.296-1.078.568-.504.863z"/><path d="m35.797 97.742c-2.819-2.266-5.639-4.529-8.459-6.795-.498-.398-1.21.303-.707.707 2.82 2.266 5.64 4.531 8.459 6.795.497.4 1.21-.303.707-.707z"/><path d="m29.227 87.763c3.002 1.346 6.004 2.693 9.006 4.039.583.262 1.092-.6.504-.863-3.001-1.346-6.003-2.693-9.006-4.039-.583-.262-1.092.6-.504.863z"/><path d="m26.858 89.441h2.584c.645 0 .645-1 0-1-.861 0-1.723 0-2.584 0-.645 0-.645 1 0 1z"/><path d="m29.479 87.857h2.613c.645 0 .645-1 0-1-.871 0-1.742 0-2.613 0-.645 0-.645 1 0 1z"/><path d="m32.924 87.38c0-5.354 0-10.708 0-16.063 0-.645-1-.645-1 0v16.063c0 .645 1 .645 1 0z"/><path d="m37.747 70.675c-1.774 0-3.548 0-5.322 0-.645 0-.645 1 0 1h5.322c.644 0 .644-1 0-1z"/><path d="m38.436 90.564c0-6.416 0-12.83 0-19.246 0-.645-1-.645-1 0v19.246c0 .644 1 .644 1 0z"/><path d="m37.877 71.748h42.34c.645 0 .645-1 0-1-14.113 0-28.227 0-42.34 0-.644 0-.644 1 0 1z"/><path d="m79.872 71.425v17.57c0 .646 1 .646 1 0 0-5.856 0-11.713 0-17.57 0-.644-1-.644-1 0z"/><path d="m85.586 89.194c-1.472-.312-2.944-.622-4.416-.934-.629-.134-.896.831-.266.964 1.472.312 2.944.623 4.416.934.63.133.897-.83.266-.964z"/><path d="m80.846 89.828c.645 0 .645-1 0-1s-.644 1 0 1z"/><path d="m37.106 70.701c0-1.33 0-2.661 0-3.992 0-.645-1-.645-1 0v3.992c0 .645 1 .645 1 0z"/></g><path d="m36.737 66.734s16.297-4.799 36.779-.143" fill="none" stroke="#0f0f0f" stroke-miterlimit="10"/><path d="m72.993 66.591v4.264c0 .646 1 .646 1 0 0-1.421 0-2.842 0-4.264 0-.644-1-.644-1 0z" fill="#0f0f0f"/><path d="m42.522 70.796c0-1.646 0-3.295 0-4.941 0-.646-1-.646-1 0v4.941c0 .646 1 .646 1 0z" fill="#0f0f0f"/><path d="m49.176 70.796c0-1.837 0-3.675 0-5.512 0-.646-1-.646-1 0v5.512c0 .646 1 .646 1 0z" fill="#0f0f0f"/><path d="m56.446 70.796c0-1.837 0-3.675 0-5.512 0-.646-1-.646-1 0v5.512c0 .646 1 .646 1 0z" fill="#0f0f0f"/><path d="m63.717 70.796c0-1.837 0-3.675 0-5.512 0-.646-1-.646-1 0v5.512c0 .646 1 .646 1 0z" fill="#0f0f0f"/><path d="m70.987 70.796c0-1.521 0-3.041 0-4.563 0-.645-1-.645-1 0v4.563c0 .646 1 .646 1 0z" fill="#0f0f0f"/><g enable-background="new"><path d="m66.606 55.436-3.848 1.167-3.966-.063 3.847-1.167z" fill="#5b3600"/><path d="m57.084 50.163-3.847 1.167.15-12.523 3.848-1.167z" fill="#7f4e00"/><path d="m56.95 60.6-3.848 1.167.065-5.3 3.847-1.167z" fill="#7f4e00"/><path d="m62.577 60.682-3.848 1.167-5.627-.082 3.848-1.167z" fill="#5b3600"/><path d="m38.709 55.032-3.847 1.167 24.371-34.522 3.848-1.167z" fill="#7f4e00"/><path d="m57.014 55.3-3.847 1.167-18.305-.268 3.847-1.167z" fill="#5b3600"/><path d="m66.606 55.436-3.967-.063-.063 5.309-5.626-.082.064-5.3-18.305-.268 24.372-34.522-.369 29.735 3.955.053zm-18.119-5.394 8.598.121.15-12.523z" fill="url(#v)"/></g><path d="m50.055 77.187.105 9.857-1.734.018-.104-9.857-2.643.029-.018-1.629 7.008-.074.018 1.629z" fill="#161616"/><path d="m53.708 81.21c-.018-1.617.561-3.012 1.732-4.186 1.168-1.172 2.582-1.768 4.238-1.785 1.637-.016 3.045.553 4.229 1.713 1.188 1.156 1.789 2.557 1.807 4.199.018 1.65-.557 3.059-1.727 4.221-1.172 1.17-2.596 1.762-4.271 1.779-1.484.016-2.822-.482-4.012-1.498-1.313-1.122-1.977-2.603-1.996-4.443zm1.748.004c.014 1.271.451 2.311 1.313 3.119.857.811 1.84 1.209 2.951 1.197 1.205-.014 2.219-.441 3.037-1.283.818-.852 1.223-1.883 1.209-3.092-.014-1.225-.434-2.248-1.26-3.068-.822-.824-1.832-1.23-3.033-1.217-1.195.012-2.199.439-3.014 1.281-.817.833-1.217 1.854-1.203 3.063z" fill="#161616"/><path d="m69.637 82.173.051 4.666-1.734.018-.121-11.486 1.963-.021c.963-.01 1.691.049 2.184.178.496.129.936.377 1.316.744.668.639 1.006 1.449 1.016 2.432.012 1.051-.332 1.887-1.029 2.51s-1.645.939-2.84.953zm-.015-1.605.646-.008c1.592-.018 2.381-.637 2.369-1.863-.014-1.184-.84-1.768-2.48-1.752l-.574.008z" fill="#161616"/><path d="m50.973 76.333.104 9.857-1.732.02-.105-9.857-2.641.027-.018-1.629 7.008-.074.018 1.629z" fill="url(#w)"/><path d="m54.624 80.359c-.016-1.617.563-3.012 1.734-4.186 1.168-1.172 2.58-1.768 4.236-1.785 1.637-.018 3.045.553 4.229 1.711 1.188 1.158 1.791 2.559 1.809 4.199.018 1.652-.559 3.059-1.727 4.223-1.174 1.168-2.598 1.76-4.273 1.777-1.482.016-2.82-.482-4.012-1.498-1.311-1.121-1.977-2.601-1.996-4.441zm1.748.004c.014 1.27.451 2.309 1.313 3.119.857.809 1.842 1.207 2.951 1.195 1.207-.012 2.219-.439 3.037-1.281.82-.854 1.223-1.883 1.211-3.094-.014-1.225-.434-2.248-1.262-3.066-.82-.824-1.832-1.23-3.031-1.219-1.195.012-2.201.439-3.016 1.281-.815.832-1.215 1.854-1.203 3.065z" fill="url(#x)"/><path d="m70.555 81.322.049 4.664-1.732.018-.122-11.487 1.963-.02c.963-.01 1.689.049 2.184.176.496.131.936.379 1.316.746.666.639 1.006 1.449 1.016 2.43.012 1.053-.332 1.889-1.031 2.512-.697.623-1.645.939-2.84.951zm-.017-1.608.648-.006c1.592-.018 2.381-.639 2.367-1.863-.012-1.186-.838-1.77-2.48-1.752l-.573.006z" fill="url(#y)"/><path d="m56.022 11.575-46.068 26.56v53.121l8.59 4.949 1.42.82 26.119 15.07 2.621 1.51 1.568.9 5.521 3.18.229.129.691-.398 15.309-8.82 30.08-17.34v-53.121zm44.211 78.61-29.65 17.09-14.561 8.4-4.689-2.701-.6-.34-2.609-1.51-26.32-15.18-1.42-.82-8.57-4.939v-50.97l44.209-25.49 44.211 25.49v50.97z" opacity=".13"/></svg>