<svg enable-background="new 0 0 110.979 128.417" height="128.417" viewBox="0 0 110.979 128.417" width="110.979" xmlns="http://www.w3.org/2000/svg" xmlns:xlink="http://www.w3.org/1999/xlink"><linearGradient id="a"><stop offset="0" stop-color="#a97b16"/><stop offset=".0138" stop-color="#b6872c"/><stop offset=".0299" stop-color="#bf903d"/><stop offset=".0499" stop-color="#c69648"/><stop offset=".078" stop-color="#ca9a4f"/><stop offset=".1559" stop-color="#cb9b51"/><stop offset=".2849" stop-color="#f6e27a"/><stop offset=".5376" stop-color="#f6ffdc"/><stop offset=".8656" stop-color="#cb9b51"/><stop offset=".9007" stop-color="#c9994e"/><stop offset=".9289" stop-color="#c39444"/><stop offset=".9547" stop-color="#ba8b33"/><stop offset=".9789" stop-color="#ac7e1b"/><stop offset="1" stop-color="#9c6f00"/></linearGradient><linearGradient id="b" gradientUnits="userSpaceOnUse" x1=".1294" x2="110.979" xlink:href="#a" y1="63.9995" y2="63.9995"/><linearGradient id="c"><stop offset="0" stop-color="#fff"/><stop offset=".3548" stop-color="#ffff15"/><stop offset="1" stop-color="#ffda6a" stop-opacity="0"/></linearGradient><radialGradient id="d" cx="69.1323" cy="62.2407" gradientUnits="userSpaceOnUse" r="1.2351" xlink:href="#c"/><radialGradient id="e" cx="64.1079" cy="59.9712" gradientUnits="userSpaceOnUse" r="1.7107" xlink:href="#c"/><radialGradient id="f" cx="45.2905" cy="60.3633" gradientUnits="userSpaceOnUse" r="2.1382" xlink:href="#c"/><radialGradient id="g" cx="71.9116" cy="54.5068" gradientUnits="userSpaceOnUse" r=".8076" xlink:href="#c"/><radialGradient id="h" cx="69.062" cy="52.9385" gradientUnits="userSpaceOnUse" r=".8076" xlink:href="#c"/><radialGradient id="i" cx="48.3315" cy="54.6729" gradientUnits="userSpaceOnUse" r=".8076" xlink:href="#c"/><radialGradient id="j" cx="43.6987" cy="54.6021" gradientUnits="userSpaceOnUse" r=".8074" xlink:href="#c"/><radialGradient id="k" cx="40.0991" cy="51.145" gradientUnits="userSpaceOnUse" r="1.2351" xlink:href="#c"/><radialGradient id="l" cx="47.0845" cy="43.8037" gradientUnits="userSpaceOnUse" r=".8071" xlink:href="#c"/><radialGradient id="m" cx="64.6772" cy="49.9814" gradientUnits="userSpaceOnUse" r="1.3779" xlink:href="#c"/><radialGradient id="n" cx="63.5728" cy="46.667" gradientUnits="userSpaceOnUse" r=".8071" xlink:href="#c"/><radialGradient id="o" cx="68.7046" cy="57.5361" gradientUnits="userSpaceOnUse" r="1.2354" xlink:href="#c"/><radialGradient id="p" cx="46.2163" cy="49.1611" gradientUnits="userSpaceOnUse" r="1.2354" xlink:href="#c"/><radialGradient id="q" cx="73.1714" cy="49.5049" gradientUnits="userSpaceOnUse" r=".8076" xlink:href="#c"/><radialGradient id="r" cx="64.1792" cy="53.7231" gradientUnits="userSpaceOnUse" r="1.2351" xlink:href="#c"/><radialGradient id="s" cx="38.7456" cy="56.9541" gradientUnits="userSpaceOnUse" r="1.2354" xlink:href="#c"/><linearGradient id="t" gradientUnits="userSpaceOnUse" x1="36.5356" x2="73.5278" xlink:href="#a" y1="67.5229" y2="67.5229"/><linearGradient id="u" gradientUnits="userSpaceOnUse" x1="54.5181" x2="55.3733" y1="66.0376" y2="35.3421"><stop offset="0" stop-color="#fff42a"/><stop offset=".043" stop-color="#ffe727" stop-opacity=".9204"/><stop offset=".0874" stop-color="#ffe124" stop-opacity=".8777"/><stop offset=".3259" stop-color="#ffc314" stop-opacity=".6483"/><stop offset=".5608" stop-color="#ffad09" stop-opacity=".4224"/><stop offset=".7883" stop-color="#ffa002" stop-opacity=".2036"/><stop offset="1" stop-color="#ff9c00" stop-opacity="0"/></linearGradient><linearGradient id="v" gradientUnits="userSpaceOnUse" x1="60.7075" x2="51.5404" xlink:href="#a" y1="26.4146" y2="55.081"/><linearGradient id="w" gradientUnits="userSpaceOnUse" x1="50.1533" x2="49.7363" xlink:href="#a" y1="74.3364" y2="79.8369"/><linearGradient id="x" gradientUnits="userSpaceOnUse" x1="60.9897" x2="60.5728" xlink:href="#a" y1="75.1597" y2="80.659"/><linearGradient id="y" gradientUnits="userSpaceOnUse" x1="71.981" x2="71.564" xlink:href="#a" y1="75.9917" y2="81.4917"/><path d="m4982.515 237.96c4.643-6.07 10.823-11.44 18.833-11.587 6.874-.126 13.313 3.591 18.78 7.381 13.691 9.493 24.676 22.405 38.79 31.357 6.114 3.878 12.968 6.887 20.284 7.224 7.432.343 13.466-3.304 18.461-8.532 12.741-13.337 18.739-31.998 33.266-43.852 3.663-2.989 8.464-6.2 13.367-5.953 5.271.267 10.552 1.591 15.699 2.67 6.164 1.293 12.316 2.667 18.529 3.723 4.045.688 8.602 1.634 12.691.8.632-.129.363-1.093-.266-.965-3.264.666-6.885.01-10.125-.474-4.604-.687-9.168-1.646-13.721-2.602-7.734-1.622-15.787-4.021-23.734-4.186-3.115-.064-6.119 1.64-8.727 3.173-3.734 2.196-6.994 5.152-9.932 8.313-6.383 6.868-11.229 15.036-16.246 22.905-4.633 7.268-9.472 15.134-16.598 20.234-6.43 4.603-14.167 4.452-21.43 2.065-7.771-2.554-14.639-7.541-20.947-12.613-6.65-5.346-12.869-11.202-19.369-16.725-7.221-6.135-15.422-12.925-25.025-14.631-9.84-1.749-17.769 4.344-23.445 11.769-.391.514.479 1.011.865.506z" fill="#fff"/><path d="m110.979 96-55.426 32-55.424-32v-64l55.424-32 55.426 32z" fill="url(#b)"/><path d="m102.053 37.717v53.14l-.01.01-1.42.811-4.15 2.389-.199.121-1.93 1.109-2.721 1.57-.24.131-.129.049-.111.07-3.029 1.74-.82.471-1.049.6-.041.029-1.23.711-.449.26-.01.01-.01.01h-.01l-1.541.891-.869.52-1.26.721-.121.068-.08.051-.41.24-.029.01-.16.09v.01l-.779.451-.182.09-.02.02-.039.02-1.01.58-.291.17-.369.211-.24.139h-.01l-.711.42-4.619 2.67-.631.361-.061.029-3.5 2.029-4.039 2.33-.01.012-.43.25-5.711 3.289-.561.32h-.01l-.32.189-.25.15-.229.131-.141-.08-1.279-.74-.852-.49-.029-.01-1.74-1.01-3.529-2.041-.041-.029-2.068-1.191-5.361-3.109-.689-.391-5.09-2.949-.391-.221-.49-.279-.33-.199-1.85-1.061-.57-.33-1.709-.99-2.51-1.459-2.09-1.201-.82-.469-.09-.051-.5-.291-.01-.01-.211-.119h-.01l-1.041-.6c-.01-.01-.01-.01-.02-.01l-1.859-1.08-1.02-.59-2.111-1.23-.289-.17s-.01 0-.02-.01l-.281-.16-3.299-1.9-3.5-2.02-.08-.041-.031-.02v-53.14l14.33-8.27 1.99-1.16 4.93-2.83 1.58-.92.17-.09 1.66-.95.781-.45.379-.22.439-.261 1.102-.649.52-.3 2.279-1.301.691-.409 1.398-.8h.01l.051-.03 5.721-3.3.189-.11.27-.16 6.07-3.51 1.439-.83 1.061.62 6.49 3.75 2.6 1.5 4.91 2.83 7.02 4.05 1.041.61 2.299 1.31.871.5 1.52.88 1.369.79.801.46.09.061 1.811 1.039 3.779 2.181.041.03v.01l.26.141.66.389 1.459.841 1.941 1.12.779.439.439.25 1.939 1.12z" fill="#25e899"/><g fill="#0dba70" opacity=".7"><path d="m17.465 41.331c-.137 0-.246-.111-.246-.248v-1.953c0-.137.109-.248.246-.248.139 0 .248.111.248.248v1.953c0 .137-.109.248-.248.248"/><path d="m17.098 41.083h.766"/><path d="m17.602 47.215c-2.084 0-3.781-1.696-3.781-3.781 0-2.086 1.697-3.783 3.781-3.783 1.01 0 1.961.395 2.674 1.108l.246.246-1.066 1.007-.465-.492.547-.516c-.547-.438-1.223-.677-1.936-.677-1.713 0-3.105 1.394-3.105 3.106s1.393 3.104 3.105 3.104"/><path d="m19.5 45.272-.486-.471c.357-.369.555-.855.555-1.368 0-.537-.211-1.038-.596-1.412l-.254-.246.271-.256.23.245.223-.228c.518.502.801 1.176.801 1.896.001.691-.263 1.344-.744 1.84"/><path d="m17.602 44.548c-.615 0-1.115-.5-1.115-1.114 0-.615.5-1.116 1.115-1.116s1.115.501 1.115 1.116c0 .614-.5 1.114-1.115 1.114m0-1.555c-.242 0-.439.197-.439.44 0 .242.197.438.439.438s.439-.196.439-.438c.001-.243-.197-.44-.439-.44"/><path d="m20.038 40.998-1.965 1.815"/><path d="m18.717 40.567h.676v2.677h-.676z" transform="matrix(.6791 .734 -.734 .6791 36.8744 -.5403)"/><path d="m20.483 47.215h-2.943v-.677h2.267v-.613l-2.041-1.536.406-.54 2.311 1.738z"/><path d="m16.293 42.014c-.137 0-.248-.111-.248-.248v-2.636c0-.137.111-.248.248-.248s.248.111.248.248v2.636c.001.136-.111.248-.248.248"/><path d="m26.049 41.331c-.137 0-.248-.111-.248-.248v-1.953c0-.137.111-.248.248-.248s.248.111.248.248v1.953c0 .137-.111.248-.248.248"/><path d="m25.68 41.083h.766"/><path d="m26.186 47.215c-2.086 0-3.783-1.696-3.783-3.781 0-2.086 1.697-3.783 3.783-3.783 1.01 0 1.959.395 2.674 1.108l.246.246-1.068 1.007-.463-.492.547-.516c-.549-.438-1.225-.677-1.936-.677-1.713 0-3.107 1.394-3.107 3.106s1.395 3.104 3.107 3.104"/><path d="m28.083 45.272-.484-.471c.357-.369.555-.855.555-1.368 0-.537-.213-1.038-.598-1.412l-.252-.246.271-.256.23.245.223-.228c.516.502.801 1.176.801 1.896 0 .691-.266 1.344-.746 1.84"/><path d="m26.186 44.548c-.615 0-1.117-.5-1.117-1.114 0-.615.502-1.116 1.117-1.116s1.113.501 1.113 1.116c0 .614-.498 1.114-1.113 1.114m0-1.555c-.242 0-.439.197-.439.44 0 .242.197.438.439.438s.439-.196.439-.438c0-.243-.197-.44-.439-.44"/><path d="m28.62 40.998-1.965 1.815"/><path d="m27.3 40.568h.675v2.675h-.675z" transform="matrix(.6776 .7355 -.7355 .6776 39.7318 -6.8141)"/><path d="m29.065 47.215h-2.941v-.677h2.265v-.613l-2.041-1.536.408-.54 2.309 1.738z"/><path d="m24.875 42.014c-.137 0-.248-.111-.248-.248v-2.636c0-.137.111-.248.248-.248.139 0 .248.111.248.248v2.636c.001.136-.109.248-.248.248"/><path d="m34.631 41.331c-.137 0-.246-.111-.246-.248v-1.953c0-.137.109-.248.246-.248.139 0 .248.111.248.248v1.953c0 .137-.109.248-.248.248"/><path d="m34.264 41.083h.766"/><path d="m34.768 47.215c-2.084 0-3.781-1.696-3.781-3.781 0-2.086 1.697-3.783 3.781-3.783 1.01 0 1.961.395 2.674 1.108l.246.246-1.066 1.007-.465-.492.547-.516c-.547-.438-1.223-.677-1.936-.677-1.713 0-3.105 1.394-3.105 3.106s1.393 3.104 3.105 3.104"/><path d="m36.667 45.272-.486-.471c.357-.369.555-.855.555-1.368 0-.537-.211-1.038-.596-1.412l-.254-.246.271-.256.23.245.223-.228c.518.502.801 1.176.801 1.896 0 .691-.264 1.344-.744 1.84"/><path d="m34.768 44.548c-.615 0-1.115-.5-1.115-1.114 0-.615.5-1.116 1.115-1.116s1.115.501 1.115 1.116c0 .614-.5 1.114-1.115 1.114m0-1.555c-.242 0-.439.197-.439.44 0 .242.197.438.439.438s.439-.196.439-.438c.001-.243-.197-.44-.439-.44"/><path d="m37.204 40.998-1.965 1.815"/><path d="m35.883 40.567h.676v2.677h-.676z" transform="matrix(.6791 .734 -.734 .6791 42.3826 -13.1406)"/><path d="m37.649 47.215h-2.943v-.677h2.267v-.613l-2.041-1.536.406-.54 2.311 1.738z"/><path d="m33.459 42.014c-.137 0-.248-.111-.248-.248v-2.636c0-.137.111-.248.248-.248s.248.111.248.248v2.636c.001.136-.111.248-.248.248"/><path d="m43.215 41.331c-.137 0-.248-.111-.248-.248v-1.953c0-.137.111-.248.248-.248s.248.111.248.248v1.953c0 .137-.111.248-.248.248"/><path d="m42.846 41.083h.766"/><path d="m43.352 47.215c-2.086 0-3.783-1.696-3.783-3.781 0-2.086 1.697-3.783 3.783-3.783 1.01 0 1.959.395 2.674 1.108l.246.246-1.068 1.007-.463-.492.547-.516c-.549-.438-1.225-.677-1.936-.677-1.713 0-3.107 1.394-3.107 3.106s1.395 3.104 3.107 3.104"/><path d="m45.249 45.272-.484-.471c.357-.369.555-.855.555-1.368 0-.537-.213-1.038-.598-1.412l-.252-.246.271-.256.23.245.223-.228c.516.502.801 1.176.801 1.896 0 .691-.266 1.344-.746 1.84"/><path d="m43.352 44.548c-.615 0-1.117-.5-1.117-1.114 0-.615.502-1.116 1.117-1.116s1.113.501 1.113 1.116c0 .614-.498 1.114-1.113 1.114m0-1.555c-.242 0-.439.197-.439.44 0 .242.197.438.439.438s.439-.196.439-.438c.001-.243-.197-.44-.439-.44"/><path d="m45.786 40.998-1.965 1.815"/><path d="m44.466 40.568h.675v2.675h-.675z" transform="matrix(.6776 .7355 -.7355 .6776 45.2668 -19.4392)"/><path d="m46.231 47.215h-2.941v-.677h2.265v-.613l-2.041-1.536.408-.54 2.309 1.738z"/><path d="m42.042 42.014c-.137 0-.248-.111-.248-.248v-2.636c0-.137.111-.248.248-.248.139 0 .248.111.248.248v2.636c0 .136-.11.248-.248.248"/><path d="m51.797 41.331c-.137 0-.246-.111-.246-.248v-1.953c0-.137.109-.248.246-.248.139 0 .248.111.248.248v1.953c0 .137-.109.248-.248.248"/><path d="m51.43 41.083h.766"/><path d="m51.934 47.215c-2.084 0-3.781-1.696-3.781-3.781 0-2.086 1.697-3.783 3.781-3.783 1.01 0 1.961.395 2.674 1.108l.246.246-1.066 1.007-.465-.492.547-.516c-.547-.438-1.223-.677-1.936-.677-1.713 0-3.105 1.394-3.105 3.106s1.393 3.104 3.105 3.104"/><path d="m53.833 45.272-.486-.471c.357-.369.555-.855.555-1.368 0-.537-.211-1.038-.596-1.412l-.254-.246.271-.256.23.245.223-.228c.518.502.801 1.176.801 1.896 0 .691-.264 1.344-.744 1.84"/><path d="m51.934 44.548c-.615 0-1.115-.5-1.115-1.114 0-.615.5-1.116 1.115-1.116s1.115.501 1.115 1.116c0 .614-.5 1.114-1.115 1.114m0-1.555c-.242 0-.439.197-.439.44 0 .242.197.438.439.438s.439-.196.439-.438c.001-.243-.197-.44-.439-.44"/><path d="m54.37 40.998-1.965 1.815"/><path d="m53.049 40.567h.676v2.677h-.676z" transform="matrix(.6791 .734 -.734 .6791 47.8909 -25.7409)"/><path d="m54.815 47.215h-2.943v-.677h2.267v-.613l-2.041-1.536.406-.54 2.311 1.738z"/><path d="m50.625 42.014c-.137 0-.248-.111-.248-.248v-2.636c0-.137.111-.248.248-.248s.248.111.248.248v2.636c.001.136-.111.248-.248.248"/></g><g fill="#0dba70" opacity=".7"><path d="m60.368 41.331c-.137 0-.246-.111-.246-.248v-1.953c0-.137.109-.248.246-.248.139 0 .248.111.248.248v1.953c0 .137-.11.248-.248.248"/><path d="m60 41.083h.766"/><path d="m60.504 47.215c-2.084 0-3.781-1.696-3.781-3.781 0-2.086 1.697-3.783 3.781-3.783 1.01 0 1.961.395 2.674 1.108l.246.246-1.066 1.007-.465-.492.547-.516c-.547-.438-1.223-.677-1.936-.677-1.713 0-3.105 1.394-3.105 3.106s1.393 3.104 3.105 3.104"/><path d="m62.403 45.272-.486-.471c.357-.369.555-.855.555-1.368 0-.537-.211-1.038-.596-1.412l-.254-.246.271-.256.23.245.223-.228c.518.502.801 1.176.801 1.896 0 .691-.264 1.344-.744 1.84"/><path d="m60.504 44.548c-.615 0-1.115-.5-1.115-1.114 0-.615.5-1.116 1.115-1.116s1.115.501 1.115 1.116c.001.614-.499 1.114-1.115 1.114m0-1.555c-.242 0-.439.197-.439.44 0 .242.197.438.439.438s.439-.196.439-.438c.001-.243-.196-.44-.439-.44"/><path d="m62.94 40.998-1.965 1.815"/><path d="m61.62 40.567h.676v2.677h-.676z" transform="matrix(.6791 .734 -.734 .6791 50.6409 -32.0318)"/><path d="m63.385 47.215h-2.943v-.677h2.267v-.613l-2.041-1.536.407-.54 2.31 1.738z"/><path d="m59.196 42.014c-.137 0-.248-.111-.248-.248v-2.636c0-.137.111-.248.248-.248s.248.111.248.248v2.636c0 .136-.111.248-.248.248"/><path d="m68.952 41.331c-.137 0-.248-.111-.248-.248v-1.953c0-.137.111-.248.248-.248s.248.111.248.248v1.953c0 .137-.112.248-.248.248"/><path d="m68.583 41.083h.765"/><path d="m69.088 47.215c-2.086 0-3.783-1.696-3.783-3.781 0-2.086 1.697-3.783 3.783-3.783 1.01 0 1.959.395 2.674 1.108l.246.246-1.068 1.007-.463-.492.547-.516c-.549-.438-1.225-.677-1.936-.677-1.713 0-3.107 1.394-3.107 3.106s1.395 3.104 3.107 3.104"/><path d="m70.985 45.272-.485-.47c.357-.369.555-.855.555-1.368 0-.537-.213-1.038-.598-1.412l-.252-.246.271-.256.23.245.223-.228c.516.502.801 1.176.801 1.896.001.69-.265 1.343-.745 1.839"/><path d="m69.088 44.548c-.615 0-1.117-.5-1.117-1.114 0-.615.502-1.116 1.117-1.116s1.113.501 1.113 1.116c.001.614-.497 1.114-1.113 1.114m0-1.555c-.242 0-.439.197-.439.44 0 .242.197.438.439.438s.439-.196.439-.438c.001-.243-.196-.44-.439-.44"/><path d="m71.522 40.998-1.965 1.815"/><path d="m70.202 40.568h.675v2.675h-.675z" transform="matrix(.6776 .7355 -.7355 .6776 53.5653 -38.3675)"/><path d="m71.967 47.215h-2.941v-.677h2.266v-.613l-2.042-1.536.409-.54 2.308 1.738z"/><path d="m67.778 42.014c-.137 0-.248-.111-.248-.248v-2.636c0-.137.111-.248.248-.248.139 0 .248.111.248.248v2.636c0 .136-.109.248-.248.248"/><path d="m77.534 41.331c-.137 0-.246-.111-.246-.248v-1.953c0-.137.109-.248.246-.248.139 0 .248.111.248.248v1.953c0 .137-.11.248-.248.248"/><path d="m77.167 41.083h.765"/><path d="m77.67 47.215c-2.084 0-3.781-1.696-3.781-3.781 0-2.086 1.697-3.783 3.781-3.783 1.01 0 1.961.395 2.674 1.108l.246.246-1.066 1.007-.465-.492.547-.516c-.547-.438-1.223-.677-1.936-.677-1.713 0-3.105 1.394-3.105 3.106s1.393 3.104 3.105 3.104"/><path d="m79.569 45.272-.486-.471c.357-.369.555-.855.555-1.368 0-.537-.211-1.038-.596-1.412l-.254-.246.271-.256.23.245.223-.228c.518.502.801 1.176.801 1.896 0 .691-.264 1.344-.744 1.84"/><path d="m77.67 44.548c-.615 0-1.115-.5-1.115-1.114 0-.615.5-1.116 1.115-1.116s1.115.501 1.115 1.116c.001.614-.499 1.114-1.115 1.114m0-1.555c-.242 0-.439.197-.439.44 0 .242.197.438.439.438s.439-.196.439-.438c.001-.243-.196-.44-.439-.44"/><path d="m80.106 40.998-1.965 1.815"/><path d="m78.786 40.567h.676v2.677h-.676z" transform="matrix(.6791 .734 -.734 .6791 56.1491 -44.6321)"/><path d="m80.551 47.215h-2.943v-.677h2.267v-.613l-2.041-1.536.407-.54 2.31 1.738z"/><path d="m76.362 42.014c-.137 0-.248-.111-.248-.248v-2.636c0-.137.111-.248.248-.248s.248.111.248.248v2.636c0 .136-.111.248-.248.248"/><path d="m86.118 41.331c-.137 0-.248-.111-.248-.248v-1.953c0-.137.111-.248.248-.248s.248.111.248.248v1.953c0 .137-.112.248-.248.248"/><path d="m85.749 41.083h.765"/><path d="m86.254 47.215c-2.086 0-3.783-1.696-3.783-3.781 0-2.086 1.697-3.783 3.783-3.783 1.01 0 1.959.395 2.674 1.108l.246.246-1.068 1.007-.463-.492.547-.516c-.549-.438-1.225-.677-1.936-.677-1.713 0-3.107 1.394-3.107 3.106s1.395 3.104 3.107 3.104"/><path d="m88.151 45.272-.484-.471c.357-.369.555-.855.555-1.368 0-.537-.213-1.038-.598-1.412l-.252-.246.271-.256.23.245.223-.228c.516.502.801 1.176.801 1.896 0 .691-.266 1.344-.746 1.84"/><path d="m86.254 44.548c-.615 0-1.117-.5-1.117-1.114 0-.615.502-1.116 1.117-1.116s1.113.501 1.113 1.116c.001.614-.497 1.114-1.113 1.114m0-1.555c-.242 0-.439.197-.439.44 0 .242.197.438.439.438s.439-.196.439-.438c.001-.243-.196-.44-.439-.44"/><path d="m88.688 40.998-1.965 1.815"/><path d="m87.368 40.568h.675v2.675h-.675z" transform="matrix(.6776 .7355 -.7355 .6776 59.1003 -50.9926)"/><path d="m89.133 47.215h-2.941v-.677h2.266v-.613l-2.041-1.536.408-.54 2.308 1.738z"/><path d="m84.944 42.014c-.137 0-.248-.111-.248-.248v-2.636c0-.137.111-.248.248-.248.139 0 .248.111.248.248v2.636c0 .136-.109.248-.248.248"/><path d="m94.7 41.331c-.137 0-.246-.111-.246-.248v-1.953c0-.137.109-.248.246-.248.139 0 .248.111.248.248v1.953c0 .137-.11.248-.248.248"/><path d="m94.333 41.083h.765"/><path d="m94.836 47.215c-2.084 0-3.781-1.696-3.781-3.781 0-2.086 1.697-3.783 3.781-3.783 1.01 0 1.961.395 2.674 1.108l.246.246-1.066 1.007-.465-.492.547-.516c-.547-.438-1.223-.677-1.936-.677-1.713 0-3.105 1.394-3.105 3.106s1.393 3.104 3.105 3.104"/><path d="m96.735 45.272-.486-.471c.357-.369.555-.855.555-1.368 0-.537-.211-1.038-.596-1.412l-.254-.246.271-.256.23.245.223-.228c.518.502.801 1.176.801 1.896 0 .691-.264 1.344-.744 1.84"/><path d="m94.836 44.548c-.615 0-1.115-.5-1.115-1.114 0-.615.5-1.116 1.115-1.116s1.115.501 1.115 1.116c.001.614-.499 1.114-1.115 1.114m0-1.555c-.242 0-.439.197-.439.44 0 .242.197.438.439.438s.439-.196.439-.438c.001-.243-.196-.44-.439-.44"/><path d="m97.272 40.998-1.965 1.815"/><path d="m95.952 40.567h.676v2.677h-.676z" transform="matrix(.6791 .734 -.734 .6791 61.6574 -57.2324)"/><path d="m97.717 47.215h-2.943v-.677h2.268v-.613l-2.042-1.536.407-.54 2.31 1.738z"/><path d="m93.528 42.014c-.137 0-.248-.111-.248-.248v-2.636c0-.137.111-.248.248-.248s.248.111.248.248v2.636c0 .136-.111.248-.248.248"/></g><g fill="#0dba70" opacity=".7"><path d="m31.868 31.081c-.137 0-.246-.111-.246-.248v-1.953c0-.137.109-.248.246-.248.139 0 .248.111.248.248v1.953c0 .137-.11.248-.248.248"/><path d="m31.5 30.833h.766"/><path d="m32.004 36.965c-2.084 0-3.781-1.696-3.781-3.781 0-2.086 1.697-3.783 3.781-3.783 1.01 0 1.961.395 2.674 1.108l.246.246-1.066 1.007-.465-.492.547-.516c-.547-.438-1.223-.677-1.936-.677-1.713 0-3.105 1.394-3.105 3.106s1.393 3.104 3.105 3.104"/><path d="m33.903 35.022-.486-.471c.357-.369.555-.855.555-1.368 0-.537-.211-1.038-.596-1.412l-.254-.246.271-.256.23.245.223-.228c.518.502.801 1.176.801 1.896 0 .691-.264 1.344-.744 1.84"/><path d="m32.004 34.298c-.615 0-1.115-.5-1.115-1.114 0-.615.5-1.116 1.115-1.116s1.115.501 1.115 1.116c.001.614-.499 1.114-1.115 1.114m0-1.555c-.242 0-.439.197-.439.44 0 .242.197.438.439.438s.439-.196.439-.438c.001-.243-.196-.44-.439-.44"/><path d="m34.44 30.748-1.965 1.815"/><path d="m33.12 30.317h.676v2.677h-.676z" transform="matrix(.6791 .734 -.734 .6791 33.972 -14.401)"/><path d="m34.885 36.965h-2.943v-.677h2.267v-.613l-2.041-1.536.407-.54 2.31 1.738z"/><path d="m30.696 31.764c-.137 0-.248-.111-.248-.248v-2.636c0-.137.111-.248.248-.248s.248.111.248.248v2.636c0 .136-.111.248-.248.248"/><path d="m40.452 31.081c-.137 0-.248-.111-.248-.248v-1.953c0-.137.111-.248.248-.248s.248.111.248.248v1.953c0 .137-.112.248-.248.248"/><path d="m40.083 30.833h.765"/><path d="m40.588 36.965c-2.086 0-3.783-1.696-3.783-3.781 0-2.086 1.697-3.783 3.783-3.783 1.01 0 1.959.395 2.674 1.108l.246.246-1.068 1.007-.463-.492.547-.516c-.549-.438-1.225-.677-1.936-.677-1.713 0-3.107 1.394-3.107 3.106s1.395 3.104 3.107 3.104"/><path d="m42.485 35.022-.485-.47c.357-.369.555-.855.555-1.368 0-.537-.213-1.038-.598-1.412l-.252-.246.271-.256.23.245.223-.228c.516.502.801 1.176.801 1.896.001.69-.265 1.343-.745 1.839"/><path d="m40.588 34.298c-.615 0-1.117-.5-1.117-1.114 0-.615.502-1.116 1.117-1.116s1.113.501 1.113 1.116c.001.614-.497 1.114-1.113 1.114m0-1.555c-.242 0-.439.197-.439.44 0 .242.197.438.439.438s.439-.196.439-.438c.001-.243-.196-.44-.439-.44"/><path d="m43.022 30.748-1.965 1.815"/><path d="m41.702 30.318h.675v2.675h-.675z" transform="matrix(.6776 .7355 -.7355 .6776 36.8371 -20.7117)"/><path d="m43.467 36.965h-2.941v-.677h2.266v-.613l-2.042-1.536.409-.54 2.308 1.738z"/><path d="m39.278 31.764c-.137 0-.248-.111-.248-.248v-2.636c0-.137.111-.248.248-.248.139 0 .248.111.248.248v2.636c0 .136-.109.248-.248.248"/><path d="m49.034 31.081c-.137 0-.246-.111-.246-.248v-1.953c0-.137.109-.248.246-.248.139 0 .248.111.248.248v1.953c0 .137-.11.248-.248.248"/><path d="m48.667 30.833h.765"/><path d="m49.17 36.965c-2.084 0-3.781-1.696-3.781-3.781 0-2.086 1.697-3.783 3.781-3.783 1.01 0 1.961.395 2.674 1.108l.246.246-1.066 1.007-.465-.492.547-.516c-.547-.438-1.223-.677-1.936-.677-1.713 0-3.105 1.394-3.105 3.106s1.393 3.104 3.105 3.104"/><path d="m51.069 35.022-.486-.471c.357-.369.555-.855.555-1.368 0-.537-.211-1.038-.596-1.412l-.254-.246.271-.256.23.245.223-.228c.518.502.801 1.176.801 1.896 0 .691-.264 1.344-.744 1.84"/><path d="m49.17 34.298c-.615 0-1.115-.5-1.115-1.114 0-.615.5-1.116 1.115-1.116s1.115.501 1.115 1.116c.001.614-.499 1.114-1.115 1.114m0-1.555c-.242 0-.439.197-.439.44 0 .242.197.438.439.438s.439-.196.439-.438c.001-.243-.196-.44-.439-.44"/><path d="m51.606 30.748-1.965 1.815"/><path d="m50.286 30.317h.676v2.677h-.676z" transform="matrix(.6791 .734 -.734 .6791 39.4803 -27.0014)"/><path d="m52.051 36.965h-2.943v-.677h2.267v-.613l-2.041-1.536.407-.54 2.31 1.738z"/><path d="m47.862 31.764c-.137 0-.248-.111-.248-.248v-2.636c0-.137.111-.248.248-.248s.248.111.248.248v2.636c0 .136-.111.248-.248.248"/><path d="m57.618 31.081c-.137 0-.248-.111-.248-.248v-1.953c0-.137.111-.248.248-.248s.248.111.248.248v1.953c0 .137-.112.248-.248.248"/><path d="m57.249 30.833h.765"/><path d="m57.754 36.965c-2.086 0-3.783-1.696-3.783-3.781 0-2.086 1.697-3.783 3.783-3.783 1.01 0 1.959.395 2.674 1.108l.246.246-1.068 1.007-.463-.492.547-.516c-.549-.438-1.225-.677-1.936-.677-1.713 0-3.107 1.394-3.107 3.106s1.395 3.104 3.107 3.104"/><path d="m59.651 35.022-.484-.471c.357-.369.555-.855.555-1.368 0-.537-.213-1.038-.598-1.412l-.252-.246.271-.256.23.245.223-.228c.516.502.801 1.176.801 1.896 0 .691-.266 1.344-.746 1.84"/><path d="m57.754 34.298c-.615 0-1.117-.5-1.117-1.114 0-.615.502-1.116 1.117-1.116s1.113.501 1.113 1.116c.001.614-.497 1.114-1.113 1.114m0-1.555c-.242 0-.439.197-.439.44 0 .242.197.438.439.438s.439-.196.439-.438c.001-.243-.196-.44-.439-.44"/><path d="m60.188 30.748-1.965 1.815"/><path d="m58.868 30.318h.675v2.675h-.675z" transform="matrix(.6776 .7355 -.7355 .6776 42.3722 -33.3367)"/><path d="m60.633 36.965h-2.941v-.677h2.266v-.613l-2.041-1.536.408-.54 2.308 1.738z"/><path d="m56.444 31.764c-.137 0-.248-.111-.248-.248v-2.636c0-.137.111-.248.248-.248.139 0 .248.111.248.248v2.636c0 .136-.109.248-.248.248"/><path d="m66.2 31.081c-.137 0-.246-.111-.246-.248v-1.953c0-.137.109-.248.246-.248.139 0 .248.111.248.248v1.953c0 .137-.11.248-.248.248"/><path d="m65.833 30.833h.765"/><path d="m66.336 36.965c-2.084 0-3.781-1.696-3.781-3.781 0-2.086 1.697-3.783 3.781-3.783 1.01 0 1.961.395 2.674 1.108l.246.246-1.066 1.007-.465-.492.547-.516c-.547-.438-1.223-.677-1.936-.677-1.713 0-3.105 1.394-3.105 3.106s1.393 3.104 3.105 3.104"/><path d="m68.235 35.022-.486-.471c.357-.369.555-.855.555-1.368 0-.537-.211-1.038-.596-1.412l-.254-.246.271-.256.23.245.223-.228c.518.502.801 1.176.801 1.896 0 .691-.264 1.344-.744 1.84"/><path d="m66.336 34.298c-.615 0-1.115-.5-1.115-1.114 0-.615.5-1.116 1.115-1.116s1.115.501 1.115 1.116c.001.614-.499 1.114-1.115 1.114m0-1.555c-.242 0-.439.197-.439.44 0 .242.197.438.439.438s.439-.196.439-.438c.001-.243-.196-.44-.439-.44"/><path d="m68.772 30.748-1.965 1.815"/><path d="m67.452 30.317h.676v2.677h-.676z" transform="matrix(.6791 .734 -.734 .6791 44.9885 -39.6017)"/><path d="m69.217 36.965h-2.943v-.677h2.268v-.613l-2.042-1.536.407-.54 2.31 1.738z"/><path d="m65.028 31.764c-.137 0-.248-.111-.248-.248v-2.636c0-.137.111-.248.248-.248s.248.111.248.248v2.636c0 .136-.111.248-.248.248"/><path d="m75.45 31.081c-.137 0-.248-.111-.248-.248v-1.953c0-.137.111-.248.248-.248s.248.111.248.248v1.953c0 .137-.112.248-.248.248"/><path d="m75.081 30.833h.765"/><path d="m75.586 36.965c-2.086 0-3.783-1.696-3.783-3.781 0-2.086 1.697-3.783 3.783-3.783 1.01 0 1.959.395 2.674 1.108l.246.246-1.068 1.007-.463-.492.547-.516c-.549-.438-1.225-.677-1.936-.677-1.713 0-3.107 1.394-3.107 3.106s1.395 3.104 3.107 3.104"/><path d="m77.483 35.022-.484-.471c.357-.369.555-.855.555-1.368 0-.537-.213-1.038-.598-1.412l-.252-.246.271-.256.23.245.223-.228c.516.502.801 1.176.801 1.896 0 .691-.266 1.344-.746 1.84"/><path d="m75.586 34.298c-.615 0-1.117-.5-1.117-1.114 0-.615.502-1.116 1.117-1.116s1.113.501 1.113 1.116c.001.614-.497 1.114-1.113 1.114m0-1.555c-.242 0-.439.197-.439.44 0 .242.197.438.439.438s.439-.196.439-.438c.001-.243-.196-.44-.439-.44"/><path d="m78.02 30.748-1.965 1.815"/><path d="m76.7 30.318h.675v2.675h-.675z" transform="matrix(.6776 .7355 -.7355 .6776 48.122 -46.4516)"/><path d="m78.465 36.965h-2.941v-.677h2.266v-.613l-2.041-1.536.408-.54 2.308 1.738z"/><path d="m74.276 31.764c-.137 0-.248-.111-.248-.248v-2.636c0-.137.111-.248.248-.248.139 0 .248.111.248.248v2.636c0 .136-.109.248-.248.248"/><path d="m49.868 20.749c-.137 0-.248-.111-.248-.248v-1.953c0-.137.111-.248.248-.248s.248.111.248.248v1.953c0 .137-.112.248-.248.248"/><path d="m49.499 20.501h.765"/><path d="m50.004 26.633c-2.086 0-3.783-1.696-3.783-3.781 0-2.086 1.697-3.783 3.783-3.783 1.01 0 1.959.395 2.674 1.108l.246.246-1.068 1.007-.463-.492.547-.516c-.549-.438-1.225-.677-1.936-.677-1.713 0-3.107 1.394-3.107 3.106s1.395 3.104 3.107 3.104"/><path d="m51.901 24.69-.484-.471c.357-.369.555-.855.555-1.368 0-.537-.213-1.038-.598-1.412l-.252-.246.271-.256.23.245.223-.228c.516.502.801 1.176.801 1.896 0 .691-.266 1.344-.746 1.84"/><path d="m50.004 23.966c-.615 0-1.117-.5-1.117-1.114 0-.615.502-1.116 1.117-1.116s1.113.501 1.113 1.116c.001.614-.497 1.114-1.113 1.114m0-1.555c-.242 0-.439.197-.439.44 0 .242.197.438.439.438s.439-.196.439-.438c.001-.243-.196-.44-.439-.44"/><path d="m52.438 20.416-1.965 1.815"/><path d="m51.118 19.986h.675v2.675h-.675z" transform="matrix(.6776 .7355 -.7355 .6776 32.2744 -30.9683)"/><path d="m52.883 26.633h-2.941v-.677h2.266v-.613l-2.041-1.536.408-.54 2.308 1.738z"/><path d="m48.694 21.432c-.137 0-.248-.111-.248-.248v-2.636c0-.137.111-.248.248-.248.139 0 .248.111.248.248v2.636c0 .136-.109.248-.248.248"/><path d="m61.034 21.04c-.137 0-.246-.111-.246-.248v-1.953c0-.137.109-.248.246-.248.139 0 .248.111.248.248v1.953c0 .137-.11.248-.248.248"/><path d="m60.667 20.792h.765"/><path d="m61.17 26.924c-2.084 0-3.781-1.696-3.781-3.781 0-2.086 1.697-3.783 3.781-3.783 1.01 0 1.961.395 2.674 1.108l.246.246-1.066 1.007-.465-.492.547-.516c-.547-.438-1.223-.677-1.936-.677-1.713 0-3.105 1.394-3.105 3.106s1.393 3.104 3.105 3.104"/><path d="m63.069 24.981-.486-.471c.357-.369.555-.855.555-1.368 0-.537-.211-1.038-.596-1.412l-.254-.246.271-.256.23.245.223-.228c.518.502.801 1.176.801 1.896 0 .691-.264 1.344-.744 1.84"/><path d="m61.17 24.257c-.615 0-1.115-.5-1.115-1.114 0-.615.5-1.116 1.115-1.116s1.115.501 1.115 1.116c.001.614-.499 1.114-1.115 1.114m0-1.555c-.242 0-.439.197-.439.44 0 .242.197.438.439.438s.439-.196.439-.438c.001-.243-.196-.44-.439-.44"/><path d="m63.606 20.707-1.965 1.815"/><path d="m62.286 20.276h.676v2.677h-.676z" transform="matrix(.6791 .734 -.734 .6791 35.9605 -39.0316)"/><path d="m64.051 26.924h-2.943v-.677h2.267v-.613l-2.041-1.536.407-.54 2.31 1.738z"/><path d="m59.862 21.723c-.137 0-.248-.111-.248-.248v-2.636c0-.137.111-.248.248-.248s.248.111.248.248v2.636c0 .136-.111.248-.248.248"/><path d="m84.346 31.228c-.137 0-.246-.111-.246-.248v-1.953c0-.137.109-.248.246-.248.139 0 .248.111.248.248v1.953c0 .136-.109.248-.248.248"/><path d="m83.979 30.979h.766"/><path d="m84.483 37.111c-2.084 0-3.781-1.696-3.781-3.781 0-2.086 1.697-3.783 3.781-3.783 1.01 0 1.961.395 2.674 1.108l.246.246-1.066 1.007-.465-.492.547-.516c-.547-.438-1.223-.677-1.936-.677-1.713 0-3.105 1.394-3.105 3.106s1.393 3.104 3.105 3.104"/><path d="m86.381 35.169-.486-.471c.357-.369.555-.855.555-1.368 0-.537-.211-1.038-.596-1.412l-.254-.246.271-.256.23.245.223-.228c.518.502.801 1.176.801 1.896 0 .691-.263 1.344-.744 1.84"/><path d="m84.483 34.444c-.615 0-1.115-.5-1.115-1.114 0-.615.5-1.116 1.115-1.116s1.115.501 1.115 1.116c0 .614-.5 1.114-1.115 1.114m0-1.554c-.242 0-.439.197-.439.44 0 .242.197.438.439.438s.439-.196.439-.438c0-.243-.197-.44-.439-.44"/><path d="m86.918 30.895-1.964 1.815"/><path d="m85.598 30.464h.676v2.677h-.676z" transform="matrix(.6791 .734 -.734 .6791 50.9189 -52.8747)"/><path d="m87.364 37.111h-2.944v-.676h2.268v-.614l-2.041-1.536.406-.54 2.311 1.738z"/><path d="m83.174 31.91c-.137 0-.248-.111-.248-.248v-2.636c0-.137.111-.248.248-.248s.248.111.248.248v2.636c0 .137-.111.248-.248.248"/></g><g fill="#0dba70" opacity=".7"><path d="m17.465 51.664c-.137 0-.246-.111-.246-.248v-1.953c0-.137.109-.248.246-.248.139 0 .248.111.248.248v1.953c0 .137-.109.248-.248.248"/><path d="m17.098 51.416h.766"/><path d="m17.602 57.548c-2.084 0-3.781-1.696-3.781-3.781 0-2.086 1.697-3.783 3.781-3.783 1.01 0 1.961.395 2.674 1.108l.246.246-1.066 1.007-.465-.492.547-.516c-.547-.438-1.223-.677-1.936-.677-1.713 0-3.105 1.394-3.105 3.106s1.393 3.104 3.105 3.104"/><path d="m19.5 55.605-.486-.471c.357-.369.555-.855.555-1.368 0-.537-.211-1.038-.596-1.412l-.254-.246.271-.256.23.245.223-.228c.518.502.801 1.176.801 1.896.001.691-.263 1.344-.744 1.84"/><path d="m17.602 54.881c-.615 0-1.115-.5-1.115-1.114 0-.615.5-1.116 1.115-1.116s1.115.501 1.115 1.116c0 .614-.5 1.114-1.115 1.114m0-1.555c-.242 0-.439.197-.439.44 0 .242.197.438.439.438s.439-.196.439-.438c.001-.243-.197-.44-.439-.44"/><path d="m20.038 51.331-1.965 1.815"/><path d="m18.717 50.9h.676v2.677h-.676z" transform="matrix(.6791 .734 -.734 .6791 44.4591 2.7754)"/><path d="m20.483 57.548h-2.943v-.677h2.267v-.613l-2.041-1.536.406-.54 2.311 1.738z"/><path d="m16.293 52.347c-.137 0-.248-.111-.248-.248v-2.636c0-.137.111-.248.248-.248s.248.111.248.248v2.636c.001.136-.111.248-.248.248"/><path d="m26.049 51.664c-.137 0-.248-.111-.248-.248v-1.953c0-.137.111-.248.248-.248s.248.111.248.248v1.953c0 .137-.111.248-.248.248"/><path d="m25.68 51.416h.766"/><path d="m26.186 57.548c-2.086 0-3.783-1.696-3.783-3.781 0-2.086 1.697-3.783 3.783-3.783 1.01 0 1.959.395 2.674 1.108l.246.246-1.068 1.007-.463-.492.547-.516c-.549-.438-1.225-.677-1.936-.677-1.713 0-3.107 1.394-3.107 3.106s1.395 3.104 3.107 3.104"/><path d="m28.083 55.605-.484-.471c.357-.369.555-.855.555-1.368 0-.537-.213-1.038-.598-1.412l-.252-.246.271-.256.23.245.223-.228c.516.502.801 1.176.801 1.896 0 .691-.266 1.344-.746 1.84"/><path d="m26.186 54.881c-.615 0-1.117-.5-1.117-1.114 0-.615.502-1.116 1.117-1.116s1.113.501 1.113 1.116c0 .614-.498 1.114-1.113 1.114m0-1.555c-.242 0-.439.197-.439.44 0 .242.197.438.439.438s.439-.196.439-.438c0-.243-.197-.44-.439-.44"/><path d="m28.62 51.331-1.965 1.815"/><path d="m27.3 50.901h.675v2.675h-.675z" transform="matrix(.6776 .7355 -.7355 .6776 47.3314 -3.4823)"/><path d="m29.065 57.548h-2.941v-.677h2.265v-.613l-2.041-1.536.408-.54 2.309 1.738z"/><path d="m24.875 52.347c-.137 0-.248-.111-.248-.248v-2.636c0-.137.111-.248.248-.248.139 0 .248.111.248.248v2.636c.001.136-.109.248-.248.248"/><path d="m34.631 51.664c-.137 0-.246-.111-.246-.248v-1.953c0-.137.109-.248.246-.248.139 0 .248.111.248.248v1.953c0 .137-.109.248-.248.248"/><path d="m34.264 51.416h.766"/><path d="m34.768 57.548c-2.084 0-3.781-1.696-3.781-3.781 0-2.086 1.697-3.783 3.781-3.783 1.01 0 1.961.395 2.674 1.108l.246.246-1.066 1.007-.465-.492.547-.516c-.547-.438-1.223-.677-1.936-.677-1.713 0-3.105 1.394-3.105 3.106s1.393 3.104 3.105 3.104"/><path d="m36.667 55.605-.486-.471c.357-.369.555-.855.555-1.368 0-.537-.211-1.038-.596-1.412l-.254-.246.271-.256.23.245.223-.228c.518.502.801 1.176.801 1.896 0 .691-.264 1.344-.744 1.84"/><path d="m34.768 54.881c-.615 0-1.115-.5-1.115-1.114 0-.615.5-1.116 1.115-1.116s1.115.501 1.115 1.116c0 .614-.5 1.114-1.115 1.114m0-1.555c-.242 0-.439.197-.439.44 0 .242.197.438.439.438s.439-.196.439-.438c.001-.243-.197-.44-.439-.44"/><path d="m37.204 51.331-1.965 1.815"/><path d="m35.883 50.9h.676v2.677h-.676z" transform="matrix(.6791 .734 -.734 .6791 49.9673 -9.825)"/><path d="m37.649 57.548h-2.943v-.677h2.267v-.613l-2.041-1.536.406-.54 2.311 1.738z"/><path d="m33.459 52.347c-.137 0-.248-.111-.248-.248v-2.636c0-.137.111-.248.248-.248s.248.111.248.248v2.636c.001.136-.111.248-.248.248"/><path d="m43.215 51.664c-.137 0-.248-.111-.248-.248v-1.953c0-.137.111-.248.248-.248s.248.111.248.248v1.953c0 .137-.111.248-.248.248"/><path d="m42.846 51.416h.766"/><path d="m43.352 57.548c-2.086 0-3.783-1.696-3.783-3.781 0-2.086 1.697-3.783 3.783-3.783 1.01 0 1.959.395 2.674 1.108l.246.246-1.068 1.007-.463-.492.547-.516c-.549-.438-1.225-.677-1.936-.677-1.713 0-3.107 1.394-3.107 3.106s1.395 3.104 3.107 3.104"/><path d="m45.249 55.605-.484-.471c.357-.369.555-.855.555-1.368 0-.537-.213-1.038-.598-1.412l-.252-.246.271-.256.23.245.223-.228c.516.502.801 1.176.801 1.896 0 .691-.266 1.344-.746 1.84"/><path d="m43.352 54.881c-.615 0-1.117-.5-1.117-1.114 0-.615.502-1.116 1.117-1.116s1.113.501 1.113 1.116c0 .614-.498 1.114-1.113 1.114m0-1.555c-.242 0-.439.197-.439.44 0 .242.197.438.439.438s.439-.196.439-.438c.001-.243-.197-.44-.439-.44"/><path d="m45.786 51.331-1.965 1.815"/><path d="m44.466 50.901h.675v2.675h-.675z" transform="matrix(.6776 .7355 -.7355 .6776 52.8664 -16.1074)"/><path d="m46.231 57.548h-2.941v-.677h2.265v-.613l-2.041-1.536.408-.54 2.309 1.738z"/><path d="m42.042 52.347c-.137 0-.248-.111-.248-.248v-2.636c0-.137.111-.248.248-.248.139 0 .248.111.248.248v2.636c0 .136-.11.248-.248.248"/><path d="m51.797 51.664c-.137 0-.246-.111-.246-.248v-1.953c0-.137.109-.248.246-.248.139 0 .248.111.248.248v1.953c0 .137-.109.248-.248.248"/><path d="m51.43 51.416h.766"/><path d="m51.934 57.548c-2.084 0-3.781-1.696-3.781-3.781 0-2.086 1.697-3.783 3.781-3.783 1.01 0 1.961.395 2.674 1.108l.246.246-1.066 1.007-.465-.492.547-.516c-.547-.438-1.223-.677-1.936-.677-1.713 0-3.105 1.394-3.105 3.106s1.393 3.104 3.105 3.104"/><path d="m53.833 55.605-.486-.471c.357-.369.555-.855.555-1.368 0-.537-.211-1.038-.596-1.412l-.254-.246.271-.256.23.245.223-.228c.518.502.801 1.176.801 1.896 0 .691-.264 1.344-.744 1.84"/><path d="m51.934 54.881c-.615 0-1.115-.5-1.115-1.114 0-.615.5-1.116 1.115-1.116s1.115.501 1.115 1.116c0 .614-.5 1.114-1.115 1.114m0-1.555c-.242 0-.439.197-.439.44 0 .242.197.438.439.438s.439-.196.439-.438c.001-.243-.197-.44-.439-.44"/><path d="m54.37 51.331-1.965 1.815"/><path d="m53.049 50.9h.676v2.677h-.676z" transform="matrix(.6791 .734 -.734 .6791 55.4756 -22.4253)"/><path d="m54.815 57.548h-2.943v-.677h2.267v-.613l-2.041-1.536.406-.54 2.311 1.738z"/><path d="m50.625 52.347c-.137 0-.248-.111-.248-.248v-2.636c0-.137.111-.248.248-.248s.248.111.248.248v2.636c.001.136-.111.248-.248.248"/></g><g fill="#0dba70" opacity=".7"><path d="m60.368 51.664c-.137 0-.246-.111-.246-.248v-1.953c0-.137.109-.248.246-.248.139 0 .248.111.248.248v1.953c0 .137-.11.248-.248.248"/><path d="m60 51.416h.766"/><path d="m60.504 57.548c-2.084 0-3.781-1.696-3.781-3.781 0-2.086 1.697-3.783 3.781-3.783 1.01 0 1.961.395 2.674 1.108l.246.246-1.066 1.007-.465-.492.547-.516c-.547-.438-1.223-.677-1.936-.677-1.713 0-3.105 1.394-3.105 3.106s1.393 3.104 3.105 3.104"/><path d="m62.403 55.605-.486-.471c.357-.369.555-.855.555-1.368 0-.537-.211-1.038-.596-1.412l-.254-.246.271-.256.23.245.223-.228c.518.502.801 1.176.801 1.896 0 .691-.264 1.344-.744 1.84"/><path d="m60.504 54.881c-.615 0-1.115-.5-1.115-1.114 0-.615.5-1.116 1.115-1.116s1.115.501 1.115 1.116c.001.614-.499 1.114-1.115 1.114m0-1.555c-.242 0-.439.197-.439.44 0 .242.197.438.439.438s.439-.196.439-.438c.001-.243-.196-.44-.439-.44"/><path d="m62.94 51.331-1.965 1.815"/><path d="m61.62 50.9h.676v2.677h-.676z" transform="matrix(.6791 .734 -.734 .6791 58.2256 -28.7161)"/><path d="m63.385 57.548h-2.943v-.677h2.267v-.613l-2.041-1.536.407-.54 2.31 1.738z"/><path d="m59.196 52.347c-.137 0-.248-.111-.248-.248v-2.636c0-.137.111-.248.248-.248s.248.111.248.248v2.636c0 .136-.111.248-.248.248"/><path d="m68.952 51.664c-.137 0-.248-.111-.248-.248v-1.953c0-.137.111-.248.248-.248s.248.111.248.248v1.953c0 .137-.112.248-.248.248"/><path d="m68.583 51.416h.765"/><path d="m69.088 57.548c-2.086 0-3.783-1.696-3.783-3.781 0-2.086 1.697-3.783 3.783-3.783 1.01 0 1.959.395 2.674 1.108l.246.246-1.068 1.007-.463-.492.547-.516c-.549-.438-1.225-.677-1.936-.677-1.713 0-3.107 1.394-3.107 3.106s1.395 3.104 3.107 3.104"/><path d="m70.985 55.605-.485-.47c.357-.369.555-.855.555-1.368 0-.537-.213-1.038-.598-1.412l-.252-.246.271-.256.23.245.223-.228c.516.502.801 1.176.801 1.896.001.69-.265 1.343-.745 1.839"/><path d="m69.088 54.881c-.615 0-1.117-.5-1.117-1.114 0-.615.502-1.116 1.117-1.116s1.113.501 1.113 1.116c.001.614-.497 1.114-1.113 1.114m0-1.555c-.242 0-.439.197-.439.44 0 .242.197.438.439.438s.439-.196.439-.438c.001-.243-.196-.44-.439-.44"/><path d="m71.522 51.331-1.965 1.815"/><path d="m70.202 50.901h.675v2.675h-.675z" transform="matrix(.6776 .7355 -.7355 .6776 61.1649 -35.0357)"/><path d="m71.967 57.548h-2.941v-.677h2.266v-.613l-2.042-1.536.409-.54 2.308 1.738z"/><path d="m67.778 52.347c-.137 0-.248-.111-.248-.248v-2.636c0-.137.111-.248.248-.248.139 0 .248.111.248.248v2.636c0 .136-.109.248-.248.248"/><path d="m77.534 51.664c-.137 0-.246-.111-.246-.248v-1.953c0-.137.109-.248.246-.248.139 0 .248.111.248.248v1.953c0 .137-.11.248-.248.248"/><path d="m77.167 51.416h.765"/><path d="m77.67 57.548c-2.084 0-3.781-1.696-3.781-3.781 0-2.086 1.697-3.783 3.781-3.783 1.01 0 1.961.395 2.674 1.108l.246.246-1.066 1.007-.465-.492.547-.516c-.547-.438-1.223-.677-1.936-.677-1.713 0-3.105 1.394-3.105 3.106s1.393 3.104 3.105 3.104"/><path d="m79.569 55.605-.486-.471c.357-.369.555-.855.555-1.368 0-.537-.211-1.038-.596-1.412l-.254-.246.271-.256.23.245.223-.228c.518.502.801 1.176.801 1.896 0 .691-.264 1.344-.744 1.84"/><path d="m77.67 54.881c-.615 0-1.115-.5-1.115-1.114 0-.615.5-1.116 1.115-1.116s1.115.501 1.115 1.116c.001.614-.499 1.114-1.115 1.114m0-1.555c-.242 0-.439.197-.439.44 0 .242.197.438.439.438s.439-.196.439-.438c.001-.243-.196-.44-.439-.44"/><path d="m80.106 51.331-1.965 1.815"/><path d="m78.786 50.9h.676v2.677h-.676z" transform="matrix(.6791 .734 -.734 .6791 63.7339 -41.3165)"/><path d="m80.551 57.548h-2.943v-.677h2.267v-.613l-2.041-1.536.407-.54 2.31 1.738z"/><path d="m76.362 52.347c-.137 0-.248-.111-.248-.248v-2.636c0-.137.111-.248.248-.248s.248.111.248.248v2.636c0 .136-.111.248-.248.248"/><path d="m86.118 51.664c-.137 0-.248-.111-.248-.248v-1.953c0-.137.111-.248.248-.248s.248.111.248.248v1.953c0 .137-.112.248-.248.248"/><path d="m85.749 51.416h.765"/><path d="m86.254 57.548c-2.086 0-3.783-1.696-3.783-3.781 0-2.086 1.697-3.783 3.783-3.783 1.01 0 1.959.395 2.674 1.108l.246.246-1.068 1.007-.463-.492.547-.516c-.549-.438-1.225-.677-1.936-.677-1.713 0-3.107 1.394-3.107 3.106s1.395 3.104 3.107 3.104"/><path d="m88.151 55.605-.484-.471c.357-.369.555-.855.555-1.368 0-.537-.213-1.038-.598-1.412l-.252-.246.271-.256.23.245.223-.228c.516.502.801 1.176.801 1.896 0 .691-.266 1.344-.746 1.84"/><path d="m86.254 54.881c-.615 0-1.117-.5-1.117-1.114 0-.615.502-1.116 1.117-1.116s1.113.501 1.113 1.116c.001.614-.497 1.114-1.113 1.114m0-1.555c-.242 0-.439.197-.439.44 0 .242.197.438.439.438s.439-.196.439-.438c.001-.243-.196-.44-.439-.44"/><path d="m88.688 51.331-1.965 1.815"/><path d="m87.368 50.901h.675v2.675h-.675z" transform="matrix(.6776 .7355 -.7355 .6776 66.7 -47.6608)"/><path d="m89.133 57.548h-2.941v-.677h2.266v-.613l-2.041-1.536.408-.54 2.308 1.738z"/><path d="m84.944 52.347c-.137 0-.248-.111-.248-.248v-2.636c0-.137.111-.248.248-.248.139 0 .248.111.248.248v2.636c0 .136-.109.248-.248.248"/><path d="m94.7 51.664c-.137 0-.246-.111-.246-.248v-1.953c0-.137.109-.248.246-.248.139 0 .248.111.248.248v1.953c0 .137-.11.248-.248.248"/><path d="m94.333 51.416h.765"/><path d="m94.836 57.548c-2.084 0-3.781-1.696-3.781-3.781 0-2.086 1.697-3.783 3.781-3.783 1.01 0 1.961.395 2.674 1.108l.246.246-1.066 1.007-.465-.492.547-.516c-.547-.438-1.223-.677-1.936-.677-1.713 0-3.105 1.394-3.105 3.106s1.393 3.104 3.105 3.104"/><path d="m96.735 55.605-.486-.471c.357-.369.555-.855.555-1.368 0-.537-.211-1.038-.596-1.412l-.254-.246.271-.256.23.245.223-.228c.518.502.801 1.176.801 1.896 0 .691-.264 1.344-.744 1.84"/><path d="m94.836 54.881c-.615 0-1.115-.5-1.115-1.114 0-.615.5-1.116 1.115-1.116s1.115.501 1.115 1.116c.001.614-.499 1.114-1.115 1.114m0-1.555c-.242 0-.439.197-.439.44 0 .242.197.438.439.438s.439-.196.439-.438c.001-.243-.196-.44-.439-.44"/><path d="m97.272 51.331-1.965 1.815"/><path d="m95.952 50.9h.676v2.677h-.676z" transform="matrix(.6791 .734 -.734 .6791 69.2421 -53.9168)"/><path d="m97.717 57.548h-2.943v-.677h2.268v-.613l-2.042-1.536.407-.54 2.31 1.738z"/><path d="m93.528 52.347c-.137 0-.248-.111-.248-.248v-2.636c0-.137.111-.248.248-.248s.248.111.248.248v2.636c0 .136-.111.248-.248.248"/></g><g fill="#0dba70" opacity=".7"><path d="m17.465 61.997c-.137 0-.246-.111-.246-.248v-1.953c0-.137.109-.248.246-.248.139 0 .248.111.248.248v1.953c0 .137-.109.248-.248.248"/><path d="m17.098 61.749h.766"/><path d="m17.602 67.88c-2.084 0-3.781-1.695-3.781-3.781 0-2.085 1.697-3.783 3.781-3.783 1.01 0 1.961.395 2.674 1.108l.246.246-1.066 1.007-.465-.492.547-.516c-.547-.438-1.223-.677-1.936-.677-1.713 0-3.105 1.394-3.105 3.106 0 1.713 1.393 3.105 3.105 3.105"/><path d="m19.5 65.939-.486-.471c.357-.369.555-.855.555-1.369 0-.537-.211-1.038-.596-1.412l-.254-.246.271-.256.23.245.223-.228c.518.502.801 1.176.801 1.896.001.691-.263 1.345-.744 1.841"/><path d="m17.602 65.214c-.615 0-1.115-.5-1.115-1.115s.5-1.116 1.115-1.116 1.115.501 1.115 1.116-.5 1.115-1.115 1.115m0-1.555c-.242 0-.439.198-.439.44s.197.439.439.439.439-.197.439-.439-.197-.44-.439-.44"/><path d="m20.038 61.664-1.965 1.815"/><path d="m18.717 61.234h.676v2.677h-.676z" transform="matrix(.6788 .7344 -.7344 .6788 52.0717 6.1073)"/><path d="m20.483 67.88h-2.943v-.675h2.267v-.614l-2.041-1.537.406-.539 2.311 1.738z"/><path d="m16.293 62.68c-.137 0-.248-.111-.248-.248v-2.636c0-.137.111-.248.248-.248s.248.111.248.248v2.636c.001.136-.111.248-.248.248"/><path d="m26.049 61.997c-.137 0-.248-.111-.248-.248v-1.953c0-.137.111-.248.248-.248s.248.111.248.248v1.953c0 .137-.111.248-.248.248"/><path d="m25.68 61.749h.766"/><path d="m26.186 67.88c-2.086 0-3.783-1.695-3.783-3.781 0-2.085 1.697-3.783 3.783-3.783 1.01 0 1.959.395 2.674 1.108l.246.246-1.068 1.007-.463-.492.547-.516c-.549-.438-1.225-.677-1.936-.677-1.713 0-3.107 1.394-3.107 3.106 0 1.713 1.395 3.105 3.107 3.105"/><path d="m28.083 65.939-.484-.471c.357-.369.555-.855.555-1.369 0-.537-.213-1.038-.598-1.412l-.252-.246.271-.256.23.245.223-.228c.516.502.801 1.176.801 1.896 0 .691-.266 1.345-.746 1.841"/><path d="m26.186 65.214c-.615 0-1.117-.5-1.117-1.115s.502-1.116 1.117-1.116 1.113.501 1.113 1.116-.498 1.115-1.113 1.115m0-1.555c-.242 0-.439.198-.439.44s.197.439.439.439.439-.197.439-.439-.197-.44-.439-.44"/><path d="m28.62 61.664-1.965 1.815"/><path d="m27.3 61.234h.675v2.675h-.675z" transform="matrix(.6772 .7358 -.7358 .6772 54.9619 -.1371)"/><path d="m29.065 67.88h-2.941v-.675h2.265v-.614l-2.041-1.537.408-.539 2.309 1.738z"/><path d="m24.875 62.68c-.137 0-.248-.111-.248-.248v-2.636c0-.137.111-.248.248-.248.139 0 .248.111.248.248v2.636c.001.136-.109.248-.248.248"/><path d="m34.631 61.997c-.137 0-.246-.111-.246-.248v-1.953c0-.137.109-.248.246-.248.139 0 .248.111.248.248v1.953c0 .137-.109.248-.248.248"/><path d="m34.264 61.749h.766"/><path d="m34.768 67.88c-2.084 0-3.781-1.695-3.781-3.781 0-2.085 1.697-3.783 3.781-3.783 1.01 0 1.961.395 2.674 1.108l.246.246-1.066 1.007-.465-.492.547-.516c-.547-.438-1.223-.677-1.936-.677-1.713 0-3.105 1.394-3.105 3.106 0 1.713 1.393 3.105 3.105 3.105"/><path d="m36.667 65.939-.486-.471c.357-.369.555-.855.555-1.369 0-.537-.211-1.038-.596-1.412l-.254-.246.271-.256.23.245.223-.228c.518.502.801 1.176.801 1.896 0 .691-.264 1.345-.744 1.841"/><path d="m34.768 65.214c-.615 0-1.115-.5-1.115-1.115s.5-1.116 1.115-1.116 1.115.501 1.115 1.116-.5 1.115-1.115 1.115m0-1.555c-.242 0-.439.198-.439.44s.197.439.439.439.439-.197.439-.439-.197-.44-.439-.44"/><path d="m37.204 61.664-1.965 1.815"/><path d="m35.883 61.234h.676v2.677h-.676z" transform="matrix(.6788 .7344 -.7344 .6788 57.5861 -6.4988)"/><path d="m37.649 67.88h-2.943v-.675h2.267v-.614l-2.041-1.537.406-.539 2.311 1.738z"/><path d="m33.459 62.68c-.137 0-.248-.111-.248-.248v-2.636c0-.137.111-.248.248-.248s.248.111.248.248v2.636c.001.136-.111.248-.248.248"/><path d="m43.215 61.997c-.137 0-.248-.111-.248-.248v-1.953c0-.137.111-.248.248-.248s.248.111.248.248v1.953c0 .137-.111.248-.248.248"/><path d="m42.846 61.749h.766"/><path d="m43.352 67.88c-2.086 0-3.783-1.695-3.783-3.781 0-2.085 1.697-3.783 3.783-3.783 1.01 0 1.959.395 2.674 1.108l.246.246-1.068 1.007-.463-.492.547-.516c-.549-.438-1.225-.677-1.936-.677-1.713 0-3.107 1.394-3.107 3.106 0 1.713 1.395 3.105 3.107 3.105"/><path d="m45.249 65.939-.484-.471c.357-.369.555-.855.555-1.369 0-.537-.213-1.038-.598-1.412l-.252-.246.271-.256.23.245.223-.228c.516.502.801 1.176.801 1.896 0 .691-.266 1.345-.746 1.841"/><path d="m43.352 65.214c-.615 0-1.117-.5-1.117-1.115s.502-1.116 1.117-1.116 1.113.501 1.113 1.116-.498 1.115-1.113 1.115m0-1.555c-.242 0-.439.198-.439.44s.197.439.439.439.439-.197.439-.439-.197-.44-.439-.44"/><path d="m45.786 61.664-1.965 1.815"/><path d="m44.466 61.234h.675v2.675h-.675z" transform="matrix(.6772 .7358 -.7358 .6772 60.5032 -12.7679)"/><path d="m46.231 67.88h-2.941v-.675h2.265v-.614l-2.041-1.537.408-.539 2.309 1.738z"/><path d="m42.042 62.68c-.137 0-.248-.111-.248-.248v-2.636c0-.137.111-.248.248-.248.139 0 .248.111.248.248v2.636c0 .136-.11.248-.248.248"/><path d="m51.797 61.997c-.137 0-.246-.111-.246-.248v-1.953c0-.137.109-.248.246-.248.139 0 .248.111.248.248v1.953c0 .137-.109.248-.248.248"/><path d="m51.43 61.749h.766"/><path d="m51.934 67.88c-2.084 0-3.781-1.695-3.781-3.781 0-2.085 1.697-3.783 3.781-3.783 1.01 0 1.961.395 2.674 1.108l.246.246-1.066 1.007-.465-.492.547-.516c-.547-.438-1.223-.677-1.936-.677-1.713 0-3.105 1.394-3.105 3.106 0 1.713 1.393 3.105 3.105 3.105"/><path d="m53.833 65.939-.486-.471c.357-.369.555-.855.555-1.369 0-.537-.211-1.038-.596-1.412l-.254-.246.271-.256.23.245.223-.228c.518.502.801 1.176.801 1.896 0 .691-.264 1.345-.744 1.841"/><path d="m51.934 65.214c-.615 0-1.115-.5-1.115-1.115s.5-1.116 1.115-1.116 1.115.501 1.115 1.116-.5 1.115-1.115 1.115m0-1.555c-.242 0-.439.198-.439.44s.197.439.439.439.439-.197.439-.439-.197-.44-.439-.44"/><path d="m54.37 61.664-1.965 1.815"/><path d="m53.049 61.234h.676v2.677h-.676z" transform="matrix(.6788 .7344 -.7344 .6788 63.1005 -19.1048)"/><path d="m54.815 67.88h-2.943v-.675h2.267v-.614l-2.041-1.537.406-.539 2.311 1.738z"/><path d="m50.625 62.68c-.137 0-.248-.111-.248-.248v-2.636c0-.137.111-.248.248-.248s.248.111.248.248v2.636c.001.136-.111.248-.248.248"/></g><g fill="#0dba70" opacity=".7"><path d="m60.368 61.997c-.137 0-.246-.111-.246-.248v-1.953c0-.137.109-.248.246-.248.139 0 .248.111.248.248v1.953c0 .137-.11.248-.248.248"/><path d="m60 61.749h.766"/><path d="m60.504 67.88c-2.084 0-3.781-1.695-3.781-3.781 0-2.085 1.697-3.783 3.781-3.783 1.01 0 1.961.395 2.674 1.108l.246.246-1.066 1.007-.465-.492.547-.516c-.547-.438-1.223-.677-1.936-.677-1.713 0-3.105 1.394-3.105 3.106 0 1.713 1.393 3.105 3.105 3.105"/><path d="m62.403 65.939-.486-.471c.357-.369.555-.855.555-1.369 0-.537-.211-1.038-.596-1.412l-.254-.246.271-.256.23.245.223-.228c.518.502.801 1.176.801 1.896 0 .691-.264 1.345-.744 1.841"/><path d="m60.504 65.214c-.615 0-1.115-.5-1.115-1.115s.5-1.116 1.115-1.116 1.115.501 1.115 1.116c.001.615-.499 1.115-1.115 1.115m0-1.555c-.242 0-.439.198-.439.44s.197.439.439.439.439-.197.439-.439-.196-.44-.439-.44"/><path d="m62.94 61.664-1.965 1.815"/><path d="m61.619 61.234h.676v2.677h-.676z" transform="matrix(.6788 .7344 -.7344 .6788 65.8537 -25.3985)"/><path d="m63.385 67.88h-2.943v-.675h2.267v-.614l-2.041-1.537.407-.539 2.31 1.738z"/><path d="m59.196 62.68c-.137 0-.248-.111-.248-.248v-2.636c0-.137.111-.248.248-.248s.248.111.248.248v2.636c0 .136-.111.248-.248.248"/><path d="m68.952 61.997c-.137 0-.248-.111-.248-.248v-1.953c0-.137.111-.248.248-.248s.248.111.248.248v1.953c0 .137-.112.248-.248.248"/><path d="m68.583 61.749h.765"/><path d="m69.088 67.88c-2.086 0-3.783-1.695-3.783-3.781 0-2.085 1.697-3.783 3.783-3.783 1.01 0 1.959.395 2.674 1.108l.246.246-1.068 1.007-.463-.492.547-.516c-.549-.438-1.225-.677-1.936-.677-1.713 0-3.107 1.394-3.107 3.106 0 1.713 1.395 3.105 3.107 3.105"/><path d="m70.985 65.939-.485-.471c.357-.369.555-.855.555-1.369 0-.537-.213-1.038-.598-1.412l-.252-.246.271-.256.23.245.223-.228c.516.502.801 1.176.801 1.896.001.691-.265 1.345-.745 1.841"/><path d="m69.088 65.214c-.615 0-1.117-.5-1.117-1.115s.502-1.116 1.117-1.116 1.113.501 1.113 1.116c.001.615-.497 1.115-1.113 1.115m0-1.555c-.242 0-.439.198-.439.44s.197.439.439.439.439-.197.439-.439-.196-.44-.439-.44"/><path d="m71.522 61.664-1.965 1.815"/><path d="m70.202 61.234h.675v2.675h-.675z" transform="matrix(.6772 .7358 -.7358 .6772 68.8109 -31.7047)"/><path d="m71.967 67.88h-2.941v-.675h2.266v-.614l-2.042-1.537.409-.539 2.308 1.738z"/><path d="m67.778 62.68c-.137 0-.248-.111-.248-.248v-2.636c0-.137.111-.248.248-.248.139 0 .248.111.248.248v2.636c0 .136-.109.248-.248.248"/><path d="m77.534 61.997c-.137 0-.246-.111-.246-.248v-1.953c0-.137.109-.248.246-.248.139 0 .248.111.248.248v1.953c0 .137-.11.248-.248.248"/><path d="m77.167 61.749h.765"/><path d="m77.67 67.88c-2.084 0-3.781-1.695-3.781-3.781 0-2.085 1.697-3.783 3.781-3.783 1.01 0 1.961.395 2.674 1.108l.246.246-1.066 1.007-.465-.492.547-.516c-.547-.438-1.223-.677-1.936-.677-1.713 0-3.105 1.394-3.105 3.106 0 1.713 1.393 3.105 3.105 3.105"/><path d="m79.569 65.939-.486-.471c.357-.369.555-.855.555-1.369 0-.537-.211-1.038-.596-1.412l-.254-.246.271-.256.23.245.223-.228c.518.502.801 1.176.801 1.896 0 .691-.264 1.345-.744 1.841"/><path d="m77.67 65.214c-.615 0-1.115-.5-1.115-1.115s.5-1.116 1.115-1.116 1.115.501 1.115 1.116c.001.615-.499 1.115-1.115 1.115m0-1.555c-.242 0-.439.198-.439.44s.197.439.439.439.439-.197.439-.439-.196-.44-.439-.44"/><path d="m80.106 61.664-1.965 1.815"/><path d="m78.785 61.234h.676v2.677h-.676z" transform="matrix(.6788 .7344 -.7344 .6788 71.3681 -38.0045)"/><path d="m80.551 67.88h-2.943v-.675h2.267v-.614l-2.041-1.537.407-.539 2.31 1.738z"/><path d="m76.362 62.68c-.137 0-.248-.111-.248-.248v-2.636c0-.137.111-.248.248-.248s.248.111.248.248v2.636c0 .136-.111.248-.248.248"/><path d="m86.118 61.997c-.137 0-.248-.111-.248-.248v-1.953c0-.137.111-.248.248-.248s.248.111.248.248v1.953c0 .137-.112.248-.248.248"/><path d="m85.749 61.749h.765"/><path d="m86.254 67.88c-2.086 0-3.783-1.695-3.783-3.781 0-2.085 1.697-3.783 3.783-3.783 1.01 0 1.959.395 2.674 1.108l.246.246-1.068 1.007-.463-.492.547-.516c-.549-.438-1.225-.677-1.936-.677-1.713 0-3.107 1.394-3.107 3.106 0 1.713 1.395 3.105 3.107 3.105"/><path d="m88.151 65.939-.484-.471c.357-.369.555-.855.555-1.369 0-.537-.213-1.038-.598-1.412l-.252-.246.271-.256.23.245.223-.228c.516.502.801 1.176.801 1.896 0 .691-.266 1.345-.746 1.841"/><path d="m86.254 65.214c-.615 0-1.117-.5-1.117-1.115s.502-1.116 1.117-1.116 1.113.501 1.113 1.116c.001.615-.497 1.115-1.113 1.115m0-1.555c-.242 0-.439.198-.439.44s.197.439.439.439.439-.197.439-.439-.196-.44-.439-.44"/><path d="m88.688 61.664-1.965 1.815"/><path d="m87.368 61.234h.675v2.675h-.675z" transform="matrix(.6772 .7358 -.7358 .6772 74.3521 -44.3355)"/><path d="m89.133 67.88h-2.941v-.675h2.266v-.614l-2.041-1.537.408-.539 2.308 1.738z"/><path d="m84.944 62.68c-.137 0-.248-.111-.248-.248v-2.636c0-.137.111-.248.248-.248.139 0 .248.111.248.248v2.636c0 .136-.109.248-.248.248"/><path d="m94.7 61.997c-.137 0-.246-.111-.246-.248v-1.953c0-.137.109-.248.246-.248.139 0 .248.111.248.248v1.953c0 .137-.11.248-.248.248"/><path d="m94.333 61.749h.765"/><path d="m94.836 67.88c-2.084 0-3.781-1.695-3.781-3.781 0-2.085 1.697-3.783 3.781-3.783 1.01 0 1.961.395 2.674 1.108l.246.246-1.066 1.007-.465-.492.547-.516c-.547-.438-1.223-.677-1.936-.677-1.713 0-3.105 1.394-3.105 3.106 0 1.713 1.393 3.105 3.105 3.105"/><path d="m96.735 65.939-.486-.471c.357-.369.555-.855.555-1.369 0-.537-.211-1.038-.596-1.412l-.254-.246.271-.256.23.245.223-.228c.518.502.801 1.176.801 1.896 0 .691-.264 1.345-.744 1.841"/><path d="m94.836 65.214c-.615 0-1.115-.5-1.115-1.115s.5-1.116 1.115-1.116 1.115.501 1.115 1.116c.001.615-.499 1.115-1.115 1.115m0-1.555c-.242 0-.439.198-.439.44s.197.439.439.439.439-.197.439-.439-.196-.44-.439-.44"/><path d="m97.272 61.664-1.965 1.815"/><path d="m95.951 61.234h.676v2.677h-.676z" transform="matrix(.6788 .7344 -.7344 .6788 76.8825 -50.6106)"/><path d="m97.717 67.88h-2.943v-.675h2.268v-.614l-2.042-1.537.407-.539 2.31 1.738z"/><path d="m93.528 62.68c-.137 0-.248-.111-.248-.248v-2.636c0-.137.111-.248.248-.248s.248.111.248.248v2.636c0 .136-.111.248-.248.248"/></g><g fill="#0dba70" opacity=".7"><path d="m17.465 72.33c-.137 0-.246-.111-.246-.248v-1.953c0-.137.109-.248.246-.248.139 0 .248.111.248.248v1.953c0 .136-.109.248-.248.248"/><path d="m17.098 72.082h.766"/><path d="m17.602 78.214c-2.084 0-3.781-1.697-3.781-3.781 0-2.086 1.697-3.783 3.781-3.783 1.01 0 1.961.395 2.674 1.107l.246.246-1.066 1.008-.465-.492.547-.516c-.547-.439-1.223-.678-1.936-.678-1.713 0-3.105 1.395-3.105 3.107 0 1.711 1.393 3.104 3.105 3.104"/><path d="m19.5 76.271-.486-.471c.357-.369.555-.855.555-1.367 0-.537-.211-1.039-.596-1.412l-.254-.246.271-.256.23.244.223-.227c.518.502.801 1.176.801 1.896.001.691-.263 1.343-.744 1.839"/><path d="m17.602 75.546c-.615 0-1.115-.5-1.115-1.113 0-.615.5-1.117 1.115-1.117s1.115.502 1.115 1.117c0 .613-.5 1.113-1.115 1.113m0-1.554c-.242 0-.439.197-.439.441 0 .242.197.438.439.438s.439-.195.439-.438c.001-.244-.197-.441-.439-.441"/><path d="m20.038 71.998-1.965 1.814"/><path d="m18.717 71.567h.676v2.676h-.676z" transform="matrix(.6791 .734 -.734 .6791 59.6285 9.4067)"/><path d="m20.483 78.214h-2.943v-.677h2.267v-.614l-2.041-1.535.406-.541 2.311 1.738z"/><path d="m16.293 73.013c-.137 0-.248-.111-.248-.248v-2.637c0-.137.111-.248.248-.248s.248.111.248.248v2.637c.001.137-.111.248-.248.248"/><path d="m26.049 72.33c-.137 0-.248-.111-.248-.248v-1.953c0-.137.111-.248.248-.248s.248.111.248.248v1.953c0 .136-.111.248-.248.248"/><path d="m25.68 72.082h.766"/><path d="m26.186 78.214c-2.086 0-3.783-1.697-3.783-3.781 0-2.086 1.697-3.783 3.783-3.783 1.01 0 1.959.395 2.674 1.107l.246.246-1.068 1.008-.463-.492.547-.516c-.549-.439-1.225-.678-1.936-.678-1.713 0-3.107 1.395-3.107 3.107 0 1.711 1.395 3.104 3.107 3.104"/><path d="m28.083 76.271-.485-.471c.357-.369.555-.855.555-1.367 0-.537-.213-1.039-.598-1.412l-.252-.246.271-.256.23.244.223-.227c.516.502.801 1.176.801 1.896.001.691-.265 1.343-.745 1.839"/><path d="m26.186 75.546c-.615 0-1.117-.5-1.117-1.113 0-.615.502-1.117 1.117-1.117s1.113.502 1.113 1.117c0 .613-.498 1.113-1.113 1.113m0-1.554c-.242 0-.439.197-.439.441 0 .242.197.438.439.438s.439-.195.439-.438c0-.244-.197-.441-.439-.441"/><path d="m28.62 71.998-1.965 1.814"/><path d="m27.3 71.568h.675v2.674h-.675z" transform="matrix(.6776 .7355 -.7355 .6776 62.5306 3.1812)"/><path d="m29.065 78.214h-2.941v-.677h2.265v-.614l-2.041-1.535.408-.541 2.309 1.738z"/><path d="m24.875 73.013c-.137 0-.248-.111-.248-.248v-2.637c0-.137.111-.248.248-.248.139 0 .248.111.248.248v2.637c.001.137-.109.248-.248.248"/><path d="m34.631 72.33c-.137 0-.246-.111-.246-.248v-1.953c0-.137.109-.248.246-.248.139 0 .248.111.248.248v1.953c0 .136-.109.248-.248.248"/><path d="m34.264 72.082h.766"/><path d="m34.768 78.214c-2.084 0-3.781-1.697-3.781-3.781 0-2.086 1.697-3.783 3.781-3.783 1.01 0 1.961.395 2.674 1.107l.246.246-1.066 1.008-.465-.492.547-.516c-.547-.439-1.223-.678-1.936-.678-1.713 0-3.105 1.395-3.105 3.107 0 1.711 1.393 3.104 3.105 3.104"/><path d="m36.667 76.271-.487-.471c.357-.369.555-.855.555-1.367 0-.537-.211-1.039-.596-1.412l-.254-.246.271-.256.23.244.223-.227c.518.502.801 1.176.801 1.896.001.691-.263 1.343-.743 1.839"/><path d="m34.768 75.546c-.615 0-1.115-.5-1.115-1.113 0-.615.5-1.117 1.115-1.117s1.115.502 1.115 1.117c0 .613-.5 1.113-1.115 1.113m0-1.554c-.242 0-.439.197-.439.441 0 .242.197.438.439.438s.439-.195.439-.438c.001-.244-.197-.441-.439-.441"/><path d="m37.204 71.998-1.965 1.814"/><path d="m35.883 71.567h.676v2.676h-.676z" transform="matrix(.6791 .734 -.734 .6791 65.1368 -3.1936)"/><path d="m37.649 78.214h-2.943v-.677h2.267v-.614l-2.041-1.535.406-.541 2.311 1.738z"/><path d="m33.459 73.013c-.137 0-.248-.111-.248-.248v-2.637c0-.137.111-.248.248-.248s.248.111.248.248v2.637c.001.137-.111.248-.248.248"/><path d="m43.215 72.33c-.137 0-.248-.111-.248-.248v-1.953c0-.137.111-.248.248-.248s.248.111.248.248v1.953c0 .136-.111.248-.248.248"/><path d="m42.846 72.082h.766"/><path d="m43.352 78.214c-2.086 0-3.783-1.697-3.783-3.781 0-2.086 1.697-3.783 3.783-3.783 1.01 0 1.959.395 2.674 1.107l.246.246-1.068 1.008-.463-.492.547-.516c-.549-.439-1.225-.678-1.936-.678-1.713 0-3.107 1.395-3.107 3.107 0 1.711 1.395 3.104 3.107 3.104"/><path d="m45.249 76.271-.485-.471c.357-.369.555-.855.555-1.367 0-.537-.213-1.039-.598-1.412l-.252-.246.271-.256.23.244.223-.227c.516.502.801 1.176.801 1.896.001.691-.265 1.343-.745 1.839"/><path d="m43.352 75.546c-.615 0-1.117-.5-1.117-1.113 0-.615.502-1.117 1.117-1.117s1.113.502 1.113 1.117c0 .613-.498 1.113-1.113 1.113m0-1.554c-.242 0-.439.197-.439.441 0 .242.197.438.439.438s.439-.195.439-.438c.001-.244-.197-.441-.439-.441"/><path d="m45.786 71.998-1.965 1.814"/><path d="m44.466 71.568h.675v2.674h-.675z" transform="matrix(.6776 .7355 -.7355 .6776 68.0657 -9.4438)"/><path d="m46.231 78.214h-2.941v-.677h2.265v-.614l-2.041-1.535.408-.541 2.309 1.738z"/><path d="m42.042 73.013c-.137 0-.248-.111-.248-.248v-2.637c0-.137.111-.248.248-.248.139 0 .248.111.248.248v2.637c0 .137-.11.248-.248.248"/><path d="m51.797 72.33c-.137 0-.246-.111-.246-.248v-1.953c0-.137.109-.248.246-.248.139 0 .248.111.248.248v1.953c0 .136-.109.248-.248.248"/><path d="m51.43 72.082h.766"/><path d="m51.934 78.214c-2.084 0-3.781-1.697-3.781-3.781 0-2.086 1.697-3.783 3.781-3.783 1.01 0 1.961.395 2.674 1.107l.246.246-1.066 1.008-.465-.492.547-.516c-.547-.439-1.223-.678-1.936-.678-1.713 0-3.105 1.395-3.105 3.107 0 1.711 1.393 3.104 3.105 3.104"/><path d="m53.833 76.271-.487-.471c.357-.369.555-.855.555-1.367 0-.537-.211-1.039-.596-1.412l-.254-.246.271-.256.23.244.223-.227c.518.502.801 1.176.801 1.896.001.691-.263 1.343-.743 1.839"/><path d="m51.934 75.546c-.615 0-1.115-.5-1.115-1.113 0-.615.5-1.117 1.115-1.117s1.115.502 1.115 1.117c0 .613-.5 1.113-1.115 1.113m0-1.554c-.242 0-.439.197-.439.441 0 .242.197.438.439.438s.439-.195.439-.438c.001-.244-.197-.441-.439-.441"/><path d="m54.37 71.998-1.965 1.814"/><path d="m53.049 71.567h.676v2.676h-.676z" transform="matrix(.6791 .734 -.734 .6791 70.645 -15.794)"/><path d="m54.815 78.214h-2.943v-.677h2.267v-.614l-2.041-1.535.406-.541 2.311 1.738z"/><path d="m50.625 73.013c-.137 0-.248-.111-.248-.248v-2.637c0-.137.111-.248.248-.248s.248.111.248.248v2.637c.001.137-.111.248-.248.248"/></g><g fill="#0dba70" opacity=".7"><path d="m60.368 72.33c-.137 0-.246-.111-.246-.248v-1.953c0-.137.109-.248.246-.248.139 0 .248.111.248.248v1.953c0 .136-.11.248-.248.248"/><path d="m60 72.082h.766"/><path d="m60.504 78.214c-2.084 0-3.781-1.697-3.781-3.781 0-2.086 1.697-3.783 3.781-3.783 1.01 0 1.961.395 2.674 1.107l.246.246-1.066 1.008-.465-.492.547-.516c-.547-.439-1.223-.678-1.936-.678-1.713 0-3.105 1.395-3.105 3.107 0 1.711 1.393 3.104 3.105 3.104"/><path d="m62.403 76.271-.486-.471c.357-.369.555-.855.555-1.367 0-.537-.211-1.039-.596-1.412l-.254-.246.271-.256.23.244.223-.227c.518.502.801 1.176.801 1.896 0 .691-.264 1.343-.744 1.839"/><path d="m60.504 75.546c-.615 0-1.115-.5-1.115-1.113 0-.615.5-1.117 1.115-1.117s1.115.502 1.115 1.117c.001.613-.499 1.113-1.115 1.113m0-1.554c-.242 0-.439.197-.439.441 0 .242.197.438.439.438s.439-.195.439-.438c.001-.244-.196-.441-.439-.441"/><path d="m62.94 71.998-1.965 1.814"/><path d="m61.62 71.567h.676v2.676h-.676z" transform="matrix(.6791 .734 -.734 .6791 73.3951 -22.0848)"/><path d="m63.385 78.214h-2.943v-.677h2.267v-.614l-2.041-1.535.407-.541 2.31 1.738z"/><path d="m59.196 73.013c-.137 0-.248-.111-.248-.248v-2.637c0-.137.111-.248.248-.248s.248.111.248.248v2.637c0 .137-.111.248-.248.248"/><path d="m68.952 72.33c-.137 0-.248-.111-.248-.248v-1.953c0-.137.111-.248.248-.248s.248.111.248.248v1.953c0 .136-.112.248-.248.248"/><path d="m68.583 72.082h.765"/><path d="m69.088 78.214c-2.086 0-3.783-1.697-3.783-3.781 0-2.086 1.697-3.783 3.783-3.783 1.01 0 1.959.395 2.674 1.107l.246.246-1.068 1.008-.463-.492.547-.516c-.549-.439-1.225-.678-1.936-.678-1.713 0-3.107 1.395-3.107 3.107 0 1.711 1.395 3.104 3.107 3.104"/><path d="m70.985 76.271-.485-.471c.357-.369.555-.855.555-1.367 0-.537-.213-1.039-.598-1.412l-.252-.246.271-.256.23.244.223-.227c.516.502.801 1.176.801 1.896.001.691-.265 1.343-.745 1.839"/><path d="m69.088 75.546c-.615 0-1.117-.5-1.117-1.113 0-.615.502-1.117 1.117-1.117s1.113.502 1.113 1.117c.001.613-.497 1.113-1.113 1.113m0-1.554c-.242 0-.439.197-.439.441 0 .242.197.438.439.438s.439-.195.439-.438c.001-.244-.196-.441-.439-.441"/><path d="m71.522 71.998-1.965 1.814"/><path d="m70.202 71.568h.675v2.674h-.675z" transform="matrix(.6776 .7355 -.7355 .6776 76.3641 -28.3721)"/><path d="m71.967 78.214h-2.941v-.677h2.266v-.614l-2.042-1.535.409-.541 2.308 1.738z"/><path d="m67.778 73.013c-.137 0-.248-.111-.248-.248v-2.637c0-.137.111-.248.248-.248.139 0 .248.111.248.248v2.637c0 .137-.109.248-.248.248"/><path d="m77.534 72.33c-.137 0-.246-.111-.246-.248v-1.953c0-.137.109-.248.246-.248.139 0 .248.111.248.248v1.953c0 .136-.11.248-.248.248"/><path d="m77.167 72.082h.765"/><path d="m77.67 78.214c-2.084 0-3.781-1.697-3.781-3.781 0-2.086 1.697-3.783 3.781-3.783 1.01 0 1.961.395 2.674 1.107l.246.246-1.066 1.008-.465-.492.547-.516c-.547-.439-1.223-.678-1.936-.678-1.713 0-3.105 1.395-3.105 3.107 0 1.711 1.393 3.104 3.105 3.104"/><path d="m79.569 76.271-.486-.471c.357-.369.555-.855.555-1.367 0-.537-.211-1.039-.596-1.412l-.254-.246.271-.256.23.244.223-.227c.518.502.801 1.176.801 1.896 0 .691-.264 1.343-.744 1.839"/><path d="m77.67 75.546c-.615 0-1.115-.5-1.115-1.113 0-.615.5-1.117 1.115-1.117s1.115.502 1.115 1.117c.001.613-.499 1.113-1.115 1.113m0-1.554c-.242 0-.439.197-.439.441 0 .242.197.438.439.438s.439-.195.439-.438c.001-.244-.196-.441-.439-.441"/><path d="m80.106 71.998-1.965 1.814"/><path d="m78.786 71.567h.676v2.676h-.676z" transform="matrix(.6791 .734 -.734 .6791 78.9033 -34.6852)"/><path d="m80.551 78.214h-2.943v-.677h2.267v-.614l-2.041-1.535.407-.541 2.31 1.738z"/><path d="m76.362 73.013c-.137 0-.248-.111-.248-.248v-2.637c0-.137.111-.248.248-.248s.248.111.248.248v2.637c0 .137-.111.248-.248.248"/><path d="m86.118 72.33c-.137 0-.248-.111-.248-.248v-1.953c0-.137.111-.248.248-.248s.248.111.248.248v1.953c0 .136-.112.248-.248.248"/><path d="m85.749 72.082h.765"/><path d="m86.254 78.214c-2.086 0-3.783-1.697-3.783-3.781 0-2.086 1.697-3.783 3.783-3.783 1.01 0 1.959.395 2.674 1.107l.246.246-1.068 1.008-.463-.492.547-.516c-.549-.439-1.225-.678-1.936-.678-1.713 0-3.107 1.395-3.107 3.107 0 1.711 1.395 3.104 3.107 3.104"/><path d="m88.151 76.271-.484-.471c.357-.369.555-.855.555-1.367 0-.537-.213-1.039-.598-1.412l-.252-.246.271-.256.23.244.223-.227c.516.502.801 1.176.801 1.896 0 .691-.266 1.343-.746 1.839"/><path d="m86.254 75.546c-.615 0-1.117-.5-1.117-1.113 0-.615.502-1.117 1.117-1.117s1.113.502 1.113 1.117c.001.613-.497 1.113-1.113 1.113m0-1.554c-.242 0-.439.197-.439.441 0 .242.197.438.439.438s.439-.195.439-.438c.001-.244-.196-.441-.439-.441"/><path d="m88.688 71.998-1.965 1.814"/><path d="m87.368 71.568h.675v2.674h-.675z" transform="matrix(.6776 .7355 -.7355 .6776 81.8992 -40.9972)"/><path d="m89.133 78.214h-2.941v-.677h2.266v-.614l-2.041-1.535.408-.541 2.308 1.738z"/><path d="m84.944 73.013c-.137 0-.248-.111-.248-.248v-2.637c0-.137.111-.248.248-.248.139 0 .248.111.248.248v2.637c0 .137-.109.248-.248.248"/><path d="m94.7 72.33c-.137 0-.246-.111-.246-.248v-1.953c0-.137.109-.248.246-.248.139 0 .248.111.248.248v1.953c0 .136-.11.248-.248.248"/><path d="m94.333 72.082h.765"/><path d="m94.836 78.214c-2.084 0-3.781-1.697-3.781-3.781 0-2.086 1.697-3.783 3.781-3.783 1.01 0 1.961.395 2.674 1.107l.246.246-1.066 1.008-.465-.492.547-.516c-.547-.439-1.223-.678-1.936-.678-1.713 0-3.105 1.395-3.105 3.107 0 1.711 1.393 3.104 3.105 3.104"/><path d="m96.735 76.271-.486-.471c.357-.369.555-.855.555-1.367 0-.537-.211-1.039-.596-1.412l-.254-.246.271-.256.23.244.223-.227c.518.502.801 1.176.801 1.896 0 .691-.264 1.343-.744 1.839"/><path d="m94.836 75.546c-.615 0-1.115-.5-1.115-1.113 0-.615.5-1.117 1.115-1.117s1.115.502 1.115 1.117c.001.613-.499 1.113-1.115 1.113m0-1.554c-.242 0-.439.197-.439.441 0 .242.197.438.439.438s.439-.195.439-.438c.001-.244-.196-.441-.439-.441"/><path d="m97.272 71.998-1.965 1.814"/><path d="m95.952 71.567h.676v2.676h-.676z" transform="matrix(.6791 .734 -.734 .6791 84.4115 -47.2855)"/><path d="m97.717 78.214h-2.943v-.677h2.268v-.614l-2.042-1.535.407-.541 2.31 1.738z"/><path d="m93.528 73.013c-.137 0-.248-.111-.248-.248v-2.637c0-.137.111-.248.248-.248s.248.111.248.248v2.637c0 .137-.111.248-.248.248"/></g><circle cx="69.132" cy="62.24" fill="url(#d)" r="1.235"/><circle cx="64.108" cy="59.971" fill="url(#e)" r="1.711"/><circle cx="45.291" cy="60.363" fill="url(#f)" r="2.138"/><circle cx="71.912" cy="54.508" fill="url(#g)" r=".808"/><circle cx="69.062" cy="52.939" fill="url(#h)" r=".808"/><circle cx="48.332" cy="54.673" fill="url(#i)" r=".808"/><circle cx="43.699" cy="54.602" fill="url(#j)" r=".808"/><circle cx="40.099" cy="51.145" fill="url(#k)" r="1.235"/><circle cx="47.084" cy="43.803" fill="url(#l)" r=".807"/><circle cx="64.677" cy="49.98" fill="url(#m)" r="1.378"/><circle cx="63.573" cy="46.666" fill="url(#n)" r=".807"/><circle cx="68.705" cy="57.536" fill="url(#o)" r="1.235"/><circle cx="46.216" cy="49.161" fill="url(#p)" r="1.235"/><circle cx="73.171" cy="49.506" fill="url(#q)" r=".808"/><circle cx="64.179" cy="53.723" fill="url(#r)" r="1.235"/><circle cx="38.746" cy="56.953" fill="url(#s)" r="1.235"/><path d="m102.053 82.277v8.58l-.01.01-1.42.811-4.15 2.389-.199.121-1.93 1.109-2.721 1.57-.24.131-.129.049-.111.07-3.029 1.74-.82.471-1.049.6-.041.029-1.23.711-.449.26-.01.01-.01.01h-.01l-1.541.891-.869.52-1.26.721-.121.068-.08.051-.41.24-.029.01-.16.09v.01l-.779.451-.182.09-.02.02-.039.02-1.01.58-.291.17-.369.211-.24.139h-.01l-.711.42-4.619 2.67-.631.361-.061.029-3.5 2.029-4.039 2.33-.01.012-.43.25-5.711 3.289-.561.32h-.01l-.32.189-.25.15-.369.051-1.279-.74-.852-.49-.029-.01-1.74-1.01-3.529-2.041-.041-.029-2.068-1.191-5.361-3.109-.689-.391-5.09-2.949-.391-.221-.49-.279-.33-.199-1.85-1.061-.57-.33-1.709-.99-2.51-1.459-2.09-1.201-.82-.469-.09-.051-.5-.291-.01-.01-.211-.119h-.01l-1.041-.6c-.01-.01-.01-.01-.02-.01l-1.859-1.08-1.02-.59-2.111-1.23-.289-.17s-.01 0-.02-.01l-.281-.16-3.299-1.9-3.5-2.02-.08-.041-.031-.02v-7.088z" fill="#0dba70"/><path d="m87.284 94.736-36.551 17.48-2.029.971-2.62-1.51-26.121-15.07-1.42-.82 1.84-1.08 6.34-3.75 9.17 6.791z" fill="#009b54"/><path d="m26.581 91.191 6.841 9.504 53.981-5.608-51.51 2.657z" fill="#007c53"/><path d="m32.995 70.757 3.803.049 1.283.236-.143 19.482.713.666.094 1.662-2.945.998-.381.285.049 3.564-8.744-6.748-.047-2.422 1.426-.096 1.377.096.049-1.807s1.377.143 1.662.189c.285.049 1.234 0 1.234 0v-15.68z" fill="#212121"/><path d="m37.674 70.9.576 20.148.096 2.09-3.021.928-.073 3.137 52.956-2.496.431-3.135-2.59.07-.504-2.779-4.964-.785-.504-17.391z" fill="#595959"/><path d="m36.963 66.291-.428 4.277 36.992.355-.07-4.918c.001 0-15.966-4.418-36.494.286z" fill="url(#t)"/><path d="m72.663 69.339c-5.471-1.123-11.627-.17-17.178-.078-5.783.094-12.166.563-16.967-3.109-.084-.066-.199-.043-.273.02-.098.008-.191.033-.277.076-.322-.133-.766-.031-.838.357-.02.111-.025.234-.037.352-.152.094-.273.234-.305.432-.105.645-.199 1.301-.086 1.945-.008.098-.01.197-.02.295-.035.334.236.588.518.695.684.266 1.35.203 2.027.102 1.16.377 2.365.4 3.588.357.23-.008.4-.111.516-.254.029.004.055.014.08.016.295.033.494-.102.594-.297.012-.004.023-.008.037-.01.096 0 .189.02.287.014.109-.004.207-.045.297-.098 2.252.395 4.637.402 6.563.455 3.336.092 6.693.063 10.031.014 3.582-.055 7.496-.551 11.037.176.949.195 1.365-1.262.406-1.46z" fill="#875607"/><path d="m67.221 89.099c-4.039 0-7.912-.109-11.725-.965-.061-.025-.125-.039-.195-.043-1.615-.373-3.219-.869-4.818-1.57-3.057-1.342-5.113-3.258-7.107-5.896-1.457-1.924-2.904-6.926-1.357-9.199.414-.609-.574-1.18-.986-.576-.088.131-.148.283-.219.428-.033-.016-.061-.037-.1-.047-.047-.012-.094-.023-.143-.035-.104-.027-.205-.016-.301.012-.369 0-.668.051-.918.137-.094-.143-.215-.268-.385-.359-.266-.145-.67-.029-.734.299-.035.176-.055.328-.061.508-.006.219.109.357.26.428-.379.914-.182 2.326-.328 3.707-.254 2.398-.082 4.83.143 7.223.156 1.672.443 2.93.162 4.66-.131.811-.354 1.428-.34 2.254.004.355.361.67.721.549.738-.244 1.563-.367 2.414-.43.07.012.127.027.205.039.145.02.268-.016.375-.074 1.566-.061 3.197.064 4.605.094 1.578.035 3.123.086 4.701-.033.352-.027.697-.078 1.043-.133l.094-.004c.119.09.277.141.461.113.4-.055.795-.125 1.189-.193.092.023.184.045.275.068.016.238.172.471.479.482.467.016.852-.176 1.256-.383.08.102.201.172.369.174.682.014 1.334.09 1.961-.234.119-.063.178-.18.209-.307 2.883.363 5.832.449 8.795.449.735-.002.735-1.143 0-1.143z" fill="#2d2d2d"/><path d="m50.7 96.503c-.281-.883-.809-1.68-.463-2.619.254-.691-.85-.988-1.102-.303-.01.027-.012.055-.023.084-.08-.033-.158-.055-.238-.082-.086-.16-.238-.289-.471-.314-.414-.051-.83-.088-1.246-.107-.076-.004-.143.008-.205.031-.336-.559-.531-1.266-.23-1.881.324-.658-.66-1.236-.984-.576-.092.189-.141.385-.188.582-.031-.008-.064-.016-.096-.023-.021-.082-.045-.162-.064-.244-.16-.65-1.076-.451-1.107.129-.025.012-.051.023-.074.039-.191-.025-.385-.055-.58-.07-.574-.047-1.18.039-1.779.113-.066-.148-.178-.277-.35-.324-.682-.186-1.385-.117-1.918.221-.293-.07-.658.074-.709.393-.043.271-.072.518-.092.793-.002.045.01.08.016.119-.08.15-.104.332-.008.525l.107.213c.16.32.658.377.895.115.023-.025.031-.049.051-.074.422.123.914.029 1.334.023 1.16-.014 2.5.213 3.574-.33.018.031.045.057.063.088.229.363.617.328.852.113.045.117.109.227.164.34-.084.012-.164.016-.248.027-.111.016-.193.072-.26.145-.102-.041-.217-.063-.346-.037-.385.076-.758.154-1.135.232-.053-.188-.203-.344-.457-.344h-2.416c-.279 0-.43.188-.467.398-1.289-.012-2.551.082-3.477.383-.043-.043-.094-.084-.164-.113-.082-.037-.166-.072-.248-.107-.516-.221-1.059.236-.781.779.02.039.045.064.064.1-.463.516-.486 1.264.191 2.328.223.35.773.391.986 0 .023-.043.025-.078.041-.117.01-.002.018 0 .027-.002.121-.035.232-.09.35-.137.432.268 1.244.271 1.488.303.607.08 1.35-.1 2.029-.271 1.865.164 3.854.195 5.553-.408.086-.031.154-.082.213-.141.635.16 1.27.295 1.951.268.268-.01.441-.186.512-.395.07.023.146.031.221.025.049.139.1.271.145.414.222.698 1.323.4 1.099-.304z" fill="#2d2d2d"/><path d="m38.292 91.544c-.91-.248-1.584-1.004-2.324-1.547-.066-.051-.133-.076-.199-.092-.057-.201-.105-.404-.15-.607.006-.002.012-.006.02-.008.254.16.516.311.783.438.213.625 1.105.426 1.102-.164.283-.082.523-.406.455-.723-.16-.748-.367-1.48-.561-2.215.465.289 1.078-.412.662-.924-3.4-4.184-3.836-9.02-3.182-14.209.082-.666-.859-.707-1.09-.158-.002 0-.002.002-.004.002-.172-.301-.578-.467-.879-.139-.447.492-.297 1.619-.314 2.223-.025.973-.029 1.945-.029 2.92 0 .195.082.336.201.428-.229 1.705-.27 3.641.086 5.285-.098 1.564-.23 3.148-.127 4.684-.086.135-.188.227-.313.244-.65.09-.473 1.119.152 1.119h.711c.006 0 .01-.004.014-.004.338.344.68.688 1.064.924.086.289.156.576.229.863-.486-.262-.959-.566-1.441-.801-.809-.395-1.637-.85-2.24-1.527-.49-.551-1.293.258-.807.807.672.756 1.582 1.254 2.473 1.705.914.465 1.795 1.127 2.803 1.363.18.041.33-.014.455-.1.662.531 1.303 1.08 2.148 1.311.708.195 1.009-.906.302-1.098z" fill="#161616"/><path d="m35.62 95.183c-.031-.029-.068-.053-.102-.082.268-.27.26-.805-.221-.955-.678-.164-1.086-.939-1.74-1.217-.967-.404-1.859-.998-2.848-1.332-.963-.785-1.918-1.568-2.975-2.242-.621-.396-1.193.592-.574.984 1.1.703 2.098 1.525 3.1 2.348.699.752 1.572 1.27 2.277 2.018.686.725 1.234 1.506 2.178 1.908.482.205.893-.158.828-.578.262-.196.338-.623.077-.852z" fill="#161616"/><path d="m80.774 81.066c-.188-2-.473-4.045-.902-6.018.309.033.625-.141.594-.537-.051-.648-.17-1.287-.27-1.93.127-.119.201-.289.209-.453.605-.238.309-1.234-.375-1.064-.416.104-.857-.02-1.275-.068-.086-.012-.16-.002-.227.02-.314-.109-.703.049-.768.371-2.244-.191-4.518-.207-6.756-.367-3.471-.248-6.977-.467-10.449-.547-.736-.016-.732 1.125 0 1.141 2.807.064 5.652.227 8.459.408 2.967.189 6.055.189 9.037.516 1.191 3.822 1.693 8.273 1.844 12.191.02.48.502.635.832.482-.174-1.376-.162-2.776.047-4.145z" fill="#e8e8e8"/><path d="m87.772 93.396c.096-.002.197-.016.303-.041.348-.08.539-.535.342-.836-.012-.016-.023-.029-.033-.045.02-.09.025-.18.002-.268-.002-.008-.004-.018-.006-.027-.098-.373-.443-.463-.729-.365-.033.008-.066.014-.102.02-.063-.049-.125-.098-.193-.137-.174-.1-.352-.092-.502-.025-.133-.057-.254-.129-.395-.176-.445-.146-.725.244-.691.607-.102-.043-.209-.078-.313-.119.02-.113.006-.24-.082-.369-.09-.137-.197-.252-.299-.373.363-.002.627-.41.518-.76.01-.137-.031-.279-.164-.408-.271-.264-.594-.391-.951-.406-.381-.205-.768-.4-1.16-.584-.367-.172-.701.055-.818.342-.441-.193-.898-.369-1.361-.543-.689-.258-.984.846-.303 1.1 1.035.387 2.098.762 2.914 1.486-.455-.102-.914-.189-1.375-.258-.721-.105-1.029.994-.305 1.1 2.016.295 4.045.793 5.404 2.42.473.564 1.273-.246.807-.807-.16-.192-.332-.364-.508-.528z" fill="#f3feff"/><path d="m73.688 67.38c-.588-.938-1.762-1.459-2.811-1.686-.342-.074-.586.137-.674.395-.299-.145-.604-.25-.951-.273-.094-.006-.176.008-.244.035-.391-.164-.799-.297-1.191-.41-1.318-.377-2.652-.801-4.029-.861-.314-.014-.484.188-.531.422-.047-.057-.094-.115-.18-.154-.369-.166-.746-.279-1.135-.389-.32-.09-.549.088-.648.326-1.521-.547-3.234-.584-4.871-.584-.736-.002-.736 1.139 0 1.141 2.113 0 4.514-.051 6.154 1.496.533.504 1.342-.303.807-.807-.1-.094-.209-.164-.313-.248.127-.084.209-.211.254-.346.086.154.236.273.463.283 1.199.053 2.303.471 3.459.75.844.205 1.809.465 2.363 1.174.367.471.953.021.926-.471.1-.086.16-.209.191-.34.717.172 1.58.492 1.977 1.123.388.622 1.377.051.984-.576z" fill="#fffed2"/><path d="m55.805 66.035c.277-.172.445-.58.164-.906-.361-.422-.834-.623-1.344-.813-.434-.162-.711.213-.688.578-1.561-.742-3.328-1.055-4.932-.332-.262.119-.328.34-.277.549-.203-.217-.42-.309-.646-.342-.035-.025-.066-.055-.111-.072-.855-.35-1.84.094-2.717.121-.307.01-.477.213-.529.443-.799-.025-1.607-.02-2.416-.063-.734-.041-.732 1.1 0 1.141 1.977.107 4.027-.221 5.795.871.627.389 1.199-.598.574-.984-.084-.051-.17-.086-.254-.131.295-.068.531-.389.455-.713.162.186.422.293.701.166 1.883-.85 4.162.322 5.65 1.473.582.449 1.148-.541.574-.984.001 0 .001 0 .001-.002z" fill="#fffed2"/><path d="m30.194 35.087 7.697 30.696s16.916-4.275 35.543.096l7.129-30.601c0-.001-18.152-15.301-50.369-.191z" fill="url(#u)"/><path d="m45.881 90.541c-1.104.045-2.014.65-3.141.518-.523-.061-1.393.033-1.217-.064.936-.07 1.875-.344 2.645-.676.004-.002.008-.002.012-.004 0 0 0 0 0-.002.039-.016.082-.031.119-.049.551-.248.135-1.01-.385-.914-.414.078-1.947.23-2.932.674-.775-.012-1.463-.229-1.734-.889-.68-1.643-.359-3.426-.326-5.135.014-.646-.986-.645-1 0-.027 1.357-.342 2.678.061 4.002.232.77.188 1.926.938 2.436.361.246.775.398 1.213.486-.002.07.004.143.023.219.174.633 1.355.732 1.826.818 1.309.236 2.111-.166 3.199-.344-.623 1.689-1.82 2.148-3.744 2.277-.828.057-1.789.123-2.717.098-.029-.221-.178-.404-.465-.367-.482.082-.969.125-1.459.125-.559.023-.688.824-.133.982 2.084.592 4.869.301 6.975-.125 1.799-.365 2.326-1.756 2.725-3.434.072-.304-.147-.646-.483-.632z" fill="#2d2d2d"/><g fill="#0f0f0f"><path d="m38.807 91.367c15.577-.498 31.154-.987 46.73-1.49.644-.021.646-1.021 0-1-15.576.503-31.154.992-46.73 1.49-.643.02-.645 1.02 0 1z"/><path d="m38.055 90.906v1.9c0 .645 1 .645 1 0 0-.634 0-1.267 0-1.9 0-.645-1-.645-1 0z"/><path d="m35.44 94.226c17.609-.708 35.215-1.472 52.822-2.211.643-.027.646-1.027 0-1-17.607.739-35.213 1.503-52.822 2.211-.643.025-.645 1.026 0 1z"/><path d="m35.555 98.117c17.597-.978 35.188-2.037 52.781-3.055.641-.037.645-1.037 0-1-17.593 1.018-35.185 2.077-52.781 3.055-.641.035-.644 1.036 0 1z"/><path d="m35.967 97.607c0-1.157 0-2.313 0-3.471 0-.645-1-.645-1 0v3.471c0 .644 1 .644 1 0z"/><path d="m27.426 90.673c0-.616 0-1.231 0-1.848 0-.645-1-.645-1 0v1.848c0 .645 1 .645 1 0z"/><path d="m29.94 88.25c0-.343 0-.685 0-1.027 0-.645-1-.645-1 0v1.027c0 .644 1 .644 1 0z"/><path d="m88.877 94.494c0-.974 0-1.948 0-2.922 0-.645-1-.645-1 0v2.922c0 .644 1 .644 1 0z"/><path d="m86.264 91.5c0-.721 0-1.441 0-2.162 0-.645-1-.645-1 0v2.162c0 .644 1 .644 1 0z"/><path d="m26.637 89.128c2.789 1.727 5.577 3.452 8.365 5.178.55.341 1.052-.524.505-.863-2.789-1.727-5.577-3.452-8.365-5.178-.551-.341-1.052.525-.505.863z"/><path d="m28.99 88.871c2.916 1.502 5.831 3.004 8.746 4.506.572.295 1.078-.568.505-.863-2.916-1.502-5.831-3.004-8.746-4.506-.572-.296-1.078.568-.505.863z"/><path d="m35.797 97.324c-2.819-2.265-5.639-4.53-8.459-6.795-.498-.399-1.21.303-.707.707 2.819 2.265 5.639 4.53 8.459 6.795.498.399 1.21-.303.707-.707z"/><path d="m29.229 87.345c3.001 1.346 6.002 2.693 9.004 4.039.583.262 1.092-.6.505-.863-3.001-1.346-6.002-2.693-9.004-4.039-.584-.262-1.093.6-.505.863z"/><path d="m26.86 89.023h2.584c.645 0 .645-1 0-1-.861 0-1.723 0-2.584 0-.645 0-.645 1 0 1z"/><path d="m29.479 87.439h2.613c.645 0 .645-1 0-1-.871 0-1.742 0-2.613 0-.645 0-.645 1 0 1z"/><path d="m32.926 86.962c0-5.354 0-10.708 0-16.063 0-.645-1-.645-1 0v16.063c0 .645 1 .645 1 0z"/><path d="m37.749 70.257c-1.774 0-3.548 0-5.322 0-.645 0-.645 1 0 1h5.322c.645 0 .645-1 0-1z"/><path d="m38.438 90.146c0-6.415 0-12.831 0-19.246 0-.645-1-.645-1 0v19.246c0 .645 1 .645 1 0z"/><path d="m37.879 71.33h42.338c.645 0 .645-1 0-1-14.112 0-28.225 0-42.338 0-.645 0-.645 1 0 1z"/><path d="m79.872 71.007v17.57c0 .645 1 .645 1 0 0-5.856 0-11.714 0-17.57 0-.644-1-.644-1 0z"/><path d="m85.586 88.775c-1.472-.312-2.944-.622-4.416-.934-.629-.133-.896.831-.266.965 1.472.312 2.944.622 4.416.934.63.133.897-.831.266-.965z"/><path d="m80.846 89.41c.645 0 .645-1 0-1s-.644 1 0 1z"/><path d="m37.106 70.283c0-1.331 0-2.661 0-3.992 0-.645-1-.645-1 0v3.992c0 .644 1 .644 1 0z"/></g><path d="m36.737 66.316s16.299-4.799 36.779-.143" fill="none" stroke="#0f0f0f" stroke-miterlimit="10"/><path d="m72.993 66.173v4.264c0 .645 1 .645 1 0 0-1.421 0-2.843 0-4.264 0-.644-1-.644-1 0z" fill="#0f0f0f"/><path d="m42.524 70.378c0-1.647 0-3.294 0-4.941 0-.645-1-.645-1 0v4.941c0 .645 1 .645 1 0z" fill="#0f0f0f"/><path d="m49.176 70.378c0-1.837 0-3.675 0-5.512 0-.645-1-.645-1 0v5.512c0 .645 1 .645 1 0z" fill="#0f0f0f"/><path d="m56.448 70.378c0-1.837 0-3.675 0-5.512 0-.645-1-.645-1 0v5.512c0 .645 1 .645 1 0z" fill="#0f0f0f"/><path d="m63.717 70.378c0-1.837 0-3.675 0-5.512 0-.645-1-.645-1 0v5.512c0 .645 1 .645 1 0z" fill="#0f0f0f"/><path d="m70.989 70.378c0-1.521 0-3.042 0-4.563 0-.645-1-.645-1 0v4.563c0 .645 1 .645 1 0z" fill="#0f0f0f"/><g enable-background="new"><path d="m55.415 28.82-3.848 1.167-6.443-.091 3.847-1.167z" fill="#5b3600"/><path d="m48.971 28.729-3.847 1.167 3.15-5.238 3.848-1.168z" fill="#7f4e00"/><path d="m55.012 60.931-3.847 1.167.402-32.111 3.848-1.167z" fill="#7f4e00"/><path d="m60.639 61.012-3.847 1.168-5.627-.082 3.847-1.167z" fill="#5b3600"/><path d="m61.106 23.621-.467 37.391-5.627-.081.403-32.111-6.444-.091 3.151-5.239z" fill="url(#v)"/></g><path d="m50.057 76.769.104 9.857-1.732.018-.105-9.857-2.641.029-.018-1.629 7.008-.074.018 1.629z" fill="#161616"/><path d="m53.708 80.792c-.016-1.617.563-3.012 1.734-4.186 1.168-1.172 2.58-1.768 4.236-1.785 1.637-.016 3.045.553 4.229 1.713 1.188 1.156 1.791 2.557 1.809 4.199.018 1.65-.559 3.059-1.727 4.221-1.174 1.17-2.598 1.762-4.273 1.779-1.482.016-2.82-.482-4.012-1.498-1.311-1.122-1.977-2.603-1.996-4.443zm1.748.004c.014 1.271.451 2.311 1.313 3.119.857.811 1.842 1.209 2.951 1.197 1.207-.014 2.219-.441 3.037-1.283.82-.852 1.223-1.883 1.211-3.092-.014-1.225-.434-2.248-1.262-3.068-.82-.824-1.832-1.23-3.031-1.217-1.195.012-2.201.439-3.016 1.281-.815.833-1.215 1.854-1.203 3.063z" fill="#161616"/><path d="m69.639 81.755.049 4.666-1.732.018-.121-11.486 1.963-.021c.963-.01 1.689.049 2.184.178.496.129.936.377 1.316.744.666.639 1.006 1.449 1.016 2.432.012 1.051-.332 1.887-1.031 2.51-.697.623-1.645.939-2.84.953zm-.017-1.605.648-.008c1.592-.018 2.381-.637 2.367-1.863-.012-1.184-.838-1.768-2.48-1.752l-.572.008z" fill="#161616"/><path d="m50.973 75.916.105 9.857-1.734.02-.104-9.857-2.643.027-.018-1.629 7.008-.074.018 1.629z" fill="url(#w)"/><path d="m54.625 79.941c-.018-1.617.561-3.012 1.732-4.186 1.168-1.172 2.582-1.768 4.238-1.785 1.637-.018 3.045.553 4.229 1.711 1.188 1.158 1.789 2.559 1.807 4.199.018 1.652-.557 3.059-1.727 4.223-1.172 1.168-2.596 1.76-4.271 1.777-1.484.016-2.822-.482-4.012-1.498-1.312-1.121-1.976-2.601-1.996-4.441zm1.749.004c.014 1.27.451 2.309 1.313 3.119.857.809 1.84 1.207 2.951 1.195 1.205-.012 2.219-.439 3.037-1.281.818-.854 1.223-1.883 1.209-3.094-.014-1.225-.434-2.248-1.26-3.066-.822-.824-1.832-1.23-3.033-1.219-1.195.012-2.199.439-3.014 1.281-.817.832-1.217 1.854-1.203 3.065z" fill="url(#x)"/><path d="m70.555 80.904.051 4.664-1.734.018-.122-11.487 1.963-.02c.963-.01 1.691.049 2.184.176.496.131.936.379 1.316.746.668.639 1.006 1.449 1.016 2.43.012 1.053-.332 1.889-1.029 2.512s-1.645.939-2.84.951zm-.015-1.608.646-.006c1.592-.018 2.381-.639 2.369-1.863-.014-1.186-.84-1.77-2.48-1.752l-.575.006z" fill="url(#y)"/><path d="m56.024 11.157-46.07 26.56v53.121l8.59 4.949 1.42.82 26.121 15.07 2.619 1.51 1.57.9 5.52 3.18.23.129.689-.398 15.311-8.82 30.08-17.34v-53.121zm44.209 78.61-29.648 17.09-14.561 8.4-4.689-2.701-.602-.34-2.609-1.51-26.32-15.18-1.42-.82-8.57-4.939v-50.97l44.211-25.49 44.209 25.49v50.97z" opacity=".13"/></svg>