<svg enable-background="new 0 0 110.979 128.417" height="128.417" viewBox="0 0 110.979 128.417" width="110.979" xmlns="http://www.w3.org/2000/svg" xmlns:xlink="http://www.w3.org/1999/xlink"><linearGradient id="a"><stop offset="0" stop-color="#a97b16"/><stop offset=".0138" stop-color="#b6872c"/><stop offset=".0299" stop-color="#bf903d"/><stop offset=".0499" stop-color="#c69648"/><stop offset=".078" stop-color="#ca9a4f"/><stop offset=".1559" stop-color="#cb9b51"/><stop offset=".2849" stop-color="#f6e27a"/><stop offset=".5376" stop-color="#f6ffdc"/><stop offset=".8656" stop-color="#cb9b51"/><stop offset=".9007" stop-color="#c9994e"/><stop offset=".9289" stop-color="#c39444"/><stop offset=".9547" stop-color="#ba8b33"/><stop offset=".9789" stop-color="#ac7e1b"/><stop offset="1" stop-color="#9c6f00"/></linearGradient><linearGradient id="b" gradientUnits="userSpaceOnUse" x1=".1343" x2="110.9839" xlink:href="#a" y1="64.4175" y2="64.4175"/><linearGradient id="c"><stop offset="0" stop-color="#fff"/><stop offset=".3548" stop-color="#ffff15"/><stop offset="1" stop-color="#ffda6a" stop-opacity="0"/></linearGradient><radialGradient id="d" cx="69.1372" cy="62.6582" gradientUnits="userSpaceOnUse" r="1.2351" xlink:href="#c"/><radialGradient id="e" cx="64.1128" cy="60.3887" gradientUnits="userSpaceOnUse" r="1.7107" xlink:href="#c"/><radialGradient id="f" cx="45.2954" cy="60.7808" gradientUnits="userSpaceOnUse" r="2.1382" xlink:href="#c"/><radialGradient id="g" cx="71.9165" cy="54.9243" gradientUnits="userSpaceOnUse" r=".8076" xlink:href="#c"/><radialGradient id="h" cx="69.0669" cy="53.356" gradientUnits="userSpaceOnUse" r=".8076" xlink:href="#c"/><radialGradient id="i" cx="48.3364" cy="55.0903" gradientUnits="userSpaceOnUse" r=".8076" xlink:href="#c"/><radialGradient id="j" cx="43.7036" cy="55.0195" gradientUnits="userSpaceOnUse" r=".8074" xlink:href="#c"/><radialGradient id="k" cx="40.104" cy="51.5625" gradientUnits="userSpaceOnUse" r="1.2351" xlink:href="#c"/><radialGradient id="l" cx="47.0894" cy="44.2212" gradientUnits="userSpaceOnUse" r=".8071" xlink:href="#c"/><radialGradient id="m" cx="64.6821" cy="50.3989" gradientUnits="userSpaceOnUse" r="1.3779" xlink:href="#c"/><radialGradient id="n" cx="63.5776" cy="47.0845" gradientUnits="userSpaceOnUse" r=".8071" xlink:href="#c"/><radialGradient id="o" cx="68.7095" cy="57.9536" gradientUnits="userSpaceOnUse" r="1.2354" xlink:href="#c"/><radialGradient id="p" cx="46.2212" cy="49.5786" gradientUnits="userSpaceOnUse" r="1.2354" xlink:href="#c"/><radialGradient id="q" cx="73.1763" cy="49.9224" gradientUnits="userSpaceOnUse" r=".8076" xlink:href="#c"/><radialGradient id="r" cx="64.1841" cy="54.1406" gradientUnits="userSpaceOnUse" r="1.2351" xlink:href="#c"/><radialGradient id="s" cx="38.7505" cy="57.3716" gradientUnits="userSpaceOnUse" r="1.2354" xlink:href="#c"/><linearGradient id="t" gradientUnits="userSpaceOnUse" x1="36.5405" x2="73.5327" xlink:href="#a" y1="67.9409" y2="67.9409"/><linearGradient id="u" gradientUnits="userSpaceOnUse" x1="54.5225" x2="55.3777" y1="66.4556" y2="35.7593"><stop offset="0" stop-color="#fff42a"/><stop offset=".043" stop-color="#ffe727" stop-opacity=".9204"/><stop offset=".0874" stop-color="#ffe124" stop-opacity=".8777"/><stop offset=".3259" stop-color="#ffc314" stop-opacity=".6483"/><stop offset=".5608" stop-color="#ffad09" stop-opacity=".4224"/><stop offset=".7883" stop-color="#ffa002" stop-opacity=".2036"/><stop offset="1" stop-color="#ff9c00" stop-opacity="0"/></linearGradient><clipPath id="v"><path d="m60.902 37.252-3.848 1.167c.33-.101.604-.22.824-.358 1.473-.912 2.23-2.398 2.256-4.468.016-1.602-.496-2.908-1.553-3.923l3.848-1.167c1.057 1.015 1.568 2.321 1.553 3.923-.025 2.069-.783 3.556-2.256 4.468-.219.139-.494.258-.824.358z"/></clipPath><clipPath id="w"><path d="m52.417 28.353 3.848-1.167c.617-.188 1.332-.276 2.148-.267 1.658.037 2.996.563 4.016 1.584l-3.848 1.167c-1.02-1.021-2.357-1.547-4.016-1.584-.815-.009-1.53.08-2.148.267z"/></clipPath><clipPath id="x"><path d="m62.46 53.55-3.848 1.167c1.209-1.232 1.826-2.794 1.848-4.702.033-2.519-.846-4.32-2.617-5.412-1.008-.609-2.563-.941-4.658-.988-.063-.001-.123-.003-.188-.004l3.848-1.167c.064.001.125.003.188.004 2.096.047 3.65.379 4.658.987 1.771 1.093 2.65 2.895 2.617 5.413-.021 1.908-.639 3.47-1.848 4.702z"/></clipPath><clipPath id="y"><path d="m60.011 55.017-3.848 1.167c.928-.281 1.74-.771 2.449-1.467l3.848-1.167c-.709.696-1.521 1.186-2.449 1.467z"/></clipPath><clipPath id="z"><path d="m50.404 23.485 3.848-1.167c-1.295.393-2.408 1.001-3.338 1.822-1.82 1.606-3.039 4.171-3.668 7.685l-3.848 1.167c.629-3.514 1.848-6.078 3.668-7.685.93-.821 2.043-1.43 3.338-1.822z"/></clipPath><clipPath id="A"><path d="m61.964 59.86-3.848 1.167c-1.318.4-2.758.589-4.322.565-.061-.001-.121-.003-.18-.004-4.404-.1-7.656-1.802-9.758-5.099-.887-1.405-1.43-3.335-1.641-5.787l3.848-1.167c.211 2.452.754 4.382 1.641 5.787 2.102 3.297 5.354 4.999 9.758 5.099.059.001.119.003.18.004 1.565.024 3.004-.165 4.322-.565z"/></clipPath><linearGradient id="B" gradientUnits="userSpaceOnUse" x1="46.064" x2="69.8315" xlink:href="#a" y1="41.104" y2="41.104"/><linearGradient id="C" gradientUnits="userSpaceOnUse" x1="50.1567" x2="49.7397" xlink:href="#a" y1="74.7544" y2="80.2544"/><linearGradient id="D" gradientUnits="userSpaceOnUse" x1="60.9956" x2="60.5786" xlink:href="#a" y1="75.5767" y2="81.0764"/><linearGradient id="E" gradientUnits="userSpaceOnUse" x1="71.9858" x2="71.5688" xlink:href="#a" y1="76.4097" y2="81.9099"/><path d="m4982.515 237.96c4.643-6.07 10.823-11.44 18.833-11.587 6.874-.126 13.313 3.591 18.78 7.381 13.691 9.493 24.676 22.405 38.79 31.357 6.114 3.878 12.968 6.887 20.284 7.224 7.432.343 13.466-3.304 18.461-8.532 12.741-13.337 18.739-31.998 33.266-43.852 3.663-2.989 8.464-6.2 13.367-5.953 5.271.267 10.552 1.591 15.699 2.67 6.164 1.293 12.316 2.667 18.529 3.723 4.045.688 8.602 1.634 12.691.8.632-.129.363-1.093-.266-.965-3.264.666-6.885.01-10.125-.474-4.604-.687-9.168-1.646-13.721-2.602-7.734-1.622-15.787-4.021-23.734-4.186-3.115-.064-6.119 1.64-8.727 3.173-3.734 2.196-6.994 5.152-9.932 8.313-6.383 6.868-11.229 15.036-16.246 22.905-4.633 7.268-9.472 15.134-16.598 20.234-6.43 4.603-14.167 4.452-21.43 2.065-7.771-2.554-14.639-7.541-20.947-12.613-6.65-5.346-12.869-11.202-19.369-16.725-7.221-6.135-15.422-12.925-25.025-14.631-9.84-1.749-17.769 4.344-23.445 11.769-.391.514.479 1.011.865.506z" fill="#fff"/><path d="m110.984 96.417-55.426 32-55.424-32v-64l55.424-32 55.426 32z" fill="url(#b)"/><path d="m102.058 38.134v53.141l-.01.01-1.42.811-4.15 2.389-.199.121-1.93 1.109-2.721 1.57-.24.13-.129.05-.111.07-3.029 1.74-.82.47-1.049.601-.041.029-1.23.71-.449.261-.01.01-.01.01h-.01l-1.541.89-.869.521-1.26.72-.121.069-.08.051-.41.24-.029.01-.16.09v.01l-.779.45-.182.09-.02.021-.039.02-1.01.58-.291.17-.369.21-.24.14h-.01l-.711.42-4.619 2.67-.631.361-.061.029-3.5 2.029-4.039 2.33-.01.011-.43.25-5.711 3.29-.561.32h-.01l-.32.189-.25.15-.229.13-.141-.08-1.279-.74-.852-.489-.029-.011-1.74-1.01-3.529-2.04-.041-.03-2.068-1.19-5.361-3.109-.689-.391-5.09-2.949-.391-.221-.49-.279-.33-.2-1.85-1.06-.57-.33-1.709-.99-2.51-1.46-2.09-1.2-.82-.47-.09-.05-.5-.291-.01-.01-.211-.119h-.01l-1.041-.601c-.01-.01-.01-.01-.02-.01l-1.859-1.08-1.02-.59-2.111-1.229-.289-.171s-.01 0-.02-.01l-.281-.16-3.299-1.899-3.5-2.021-.08-.04-.031-.02v-53.143l14.33-8.27 1.99-1.16 4.93-2.83 1.58-.92.17-.09 1.66-.95.781-.45.379-.22.439-.261 1.102-.649.52-.3 2.279-1.301.691-.409 1.398-.8h.01l.051-.03 5.721-3.3.189-.11.27-.16 6.07-3.51 1.439-.83 1.061.62 6.49 3.75 2.6 1.5 4.91 2.83 7.02 4.05 1.041.61 2.299 1.31.871.5 1.52.88 1.369.79.801.46.09.061 1.811 1.039 3.779 2.181.041.03v.01l.26.141.66.389 1.459.841 1.941 1.12.779.439.439.25 1.939 1.12z" fill="#f9006c"/><g fill="#990050" opacity=".7"><path d="m17.47 41.749c-.137 0-.246-.111-.246-.248v-1.953c0-.137.109-.248.246-.248.139 0 .248.111.248.248v1.952c0 .137-.109.249-.248.249"/><path d="m17.103 41.5h.766"/><path d="m17.607 47.632c-2.084 0-3.781-1.696-3.781-3.781 0-2.086 1.697-3.783 3.781-3.783 1.01 0 1.961.395 2.674 1.108l.246.246-1.066 1.007-.465-.492.547-.516c-.547-.438-1.223-.677-1.936-.677-1.713 0-3.105 1.394-3.105 3.106s1.393 3.104 3.105 3.104"/><path d="m19.505 45.69-.486-.471c.357-.369.555-.855.555-1.368 0-.537-.211-1.038-.596-1.412l-.254-.246.271-.256.23.245.223-.228c.518.502.801 1.176.801 1.896.001.691-.263 1.344-.744 1.84"/><path d="m17.607 44.965c-.615 0-1.115-.5-1.115-1.114 0-.615.5-1.116 1.115-1.116s1.115.501 1.115 1.116c0 .614-.5 1.114-1.115 1.114m0-1.554c-.242 0-.439.197-.439.44 0 .242.197.438.439.438s.439-.196.439-.438c0-.243-.197-.44-.439-.44"/><path d="m20.042 41.416-1.964 1.815"/><path d="m18.722 40.985h.676v2.677h-.676z" transform="matrix(.6791 .734 -.734 .6791 37.1824 -.4099)"/><path d="m20.488 47.632h-2.944v-.676h2.268v-.614l-2.041-1.536.406-.54 2.311 1.738z"/><path d="m16.298 42.431c-.137 0-.248-.111-.248-.248v-2.636c0-.137.111-.248.248-.248s.248.111.248.248v2.636c0 .137-.111.248-.248.248"/><path d="m26.054 41.749c-.137 0-.248-.111-.248-.248v-1.953c0-.137.111-.248.248-.248s.248.111.248.248v1.952c0 .137-.111.249-.248.249"/><path d="m25.685 41.5h.766"/><path d="m26.191 47.632c-2.086 0-3.783-1.696-3.783-3.781 0-2.086 1.697-3.783 3.783-3.783 1.01 0 1.959.395 2.674 1.108l.246.246-1.068 1.007-.463-.492.547-.516c-.549-.438-1.225-.677-1.936-.677-1.713 0-3.107 1.394-3.107 3.106s1.395 3.104 3.107 3.104"/><path d="m28.087 45.69-.484-.471c.357-.369.555-.855.555-1.368 0-.537-.213-1.038-.598-1.412l-.252-.246.271-.256.23.245.223-.228c.516.502.801 1.176.801 1.896 0 .691-.265 1.344-.746 1.84"/><path d="m26.191 44.965c-.615 0-1.117-.5-1.117-1.114 0-.615.502-1.116 1.117-1.116s1.113.501 1.113 1.116c0 .614-.498 1.114-1.113 1.114m0-1.554c-.242 0-.439.197-.439.44 0 .242.197.438.439.438s.439-.196.439-.438c0-.243-.197-.44-.439-.44"/><path d="m28.625 41.416-1.965 1.815"/><path d="m27.305 40.986h.675v2.675h-.675z" transform="matrix(.6776 .7355 -.7355 .6776 40.0404 -6.6831)"/><path d="m29.07 47.632h-2.942v-.676h2.266v-.614l-2.041-1.536.408-.54 2.309 1.738z"/><path d="m24.88 42.431c-.137 0-.248-.111-.248-.248v-2.636c0-.137.111-.248.248-.248.139 0 .248.111.248.248v2.636c0 .137-.109.248-.248.248"/><path d="m34.636 41.749c-.137 0-.246-.111-.246-.248v-1.953c0-.137.109-.248.246-.248.139 0 .248.111.248.248v1.952c0 .137-.109.249-.248.249"/><path d="m34.269 41.5h.766"/><path d="m34.773 47.632c-2.084 0-3.781-1.696-3.781-3.781 0-2.086 1.697-3.783 3.781-3.783 1.01 0 1.961.395 2.674 1.108l.246.246-1.066 1.007-.465-.492.547-.516c-.547-.438-1.223-.677-1.936-.677-1.713 0-3.105 1.394-3.105 3.106s1.393 3.104 3.105 3.104"/><path d="m36.671 45.69-.486-.471c.357-.369.555-.855.555-1.368 0-.537-.211-1.038-.596-1.412l-.254-.246.271-.256.23.245.223-.228c.518.502.801 1.176.801 1.896.001.691-.263 1.344-.744 1.84"/><path d="m34.773 44.965c-.615 0-1.115-.5-1.115-1.114 0-.615.5-1.116 1.115-1.116s1.115.501 1.115 1.116c0 .614-.5 1.114-1.115 1.114m0-1.554c-.242 0-.439.197-.439.44 0 .242.197.438.439.438s.439-.196.439-.438c0-.243-.197-.44-.439-.44"/><path d="m37.208 41.416-1.964 1.815"/><path d="m35.888 40.985h.676v2.677h-.676z" transform="matrix(.6791 .734 -.734 .6791 42.6906 -13.0102)"/><path d="m37.654 47.632h-2.944v-.676h2.268v-.614l-2.041-1.536.406-.54 2.311 1.738z"/><path d="m33.464 42.431c-.137 0-.248-.111-.248-.248v-2.636c0-.137.111-.248.248-.248s.248.111.248.248v2.636c0 .137-.111.248-.248.248"/><path d="m43.22 41.749c-.137 0-.248-.111-.248-.248v-1.953c0-.137.111-.248.248-.248s.248.111.248.248v1.952c0 .137-.111.249-.248.249"/><path d="m42.851 41.5h.766"/><path d="m43.357 47.632c-2.086 0-3.783-1.696-3.783-3.781 0-2.086 1.697-3.783 3.783-3.783 1.01 0 1.959.395 2.674 1.108l.246.246-1.068 1.007-.463-.492.547-.516c-.549-.438-1.225-.677-1.936-.677-1.713 0-3.107 1.394-3.107 3.106s1.395 3.104 3.107 3.104"/><path d="m45.253 45.69-.484-.471c.357-.369.555-.855.555-1.368 0-.537-.213-1.038-.598-1.412l-.252-.246.271-.256.23.245.223-.228c.516.503.802 1.176.802 1.897 0 .69-.266 1.343-.747 1.839"/><path d="m43.357 44.965c-.615 0-1.117-.5-1.117-1.114 0-.615.502-1.116 1.117-1.116s1.113.501 1.113 1.116c0 .614-.498 1.114-1.113 1.114m0-1.554c-.242 0-.439.197-.439.44 0 .242.197.438.439.438s.439-.196.439-.438c0-.243-.197-.44-.439-.44"/><path d="m45.791 41.416-1.965 1.815"/><path d="m44.471 40.986h.675v2.675h-.675z" transform="matrix(.6776 .7355 -.7355 .6776 45.5754 -19.3082)"/><path d="m46.236 47.632h-2.942v-.676h2.266v-.614l-2.041-1.536.408-.54 2.309 1.738z"/><path d="m42.046 42.431c-.137 0-.248-.111-.248-.248v-2.636c0-.137.111-.248.248-.248.139 0 .248.111.248.248v2.636c0 .137-.109.248-.248.248"/><path d="m51.802 41.749c-.137 0-.246-.111-.246-.248v-1.953c0-.137.109-.248.246-.248.139 0 .248.111.248.248v1.952c0 .137-.109.249-.248.249"/><path d="m51.435 41.5h.766"/><path d="m51.939 47.632c-2.084 0-3.781-1.696-3.781-3.781 0-2.086 1.697-3.783 3.781-3.783 1.01 0 1.961.395 2.674 1.108l.246.246-1.066 1.007-.465-.492.547-.516c-.547-.438-1.223-.677-1.936-.677-1.713 0-3.105 1.394-3.105 3.106s1.393 3.104 3.105 3.104"/><path d="m53.837 45.69-.486-.471c.357-.369.555-.855.555-1.368 0-.537-.211-1.038-.596-1.412l-.254-.246.271-.256.23.245.223-.228c.518.502.801 1.176.801 1.896.001.691-.263 1.344-.744 1.84"/><path d="m51.939 44.965c-.615 0-1.115-.5-1.115-1.114 0-.615.5-1.116 1.115-1.116s1.115.501 1.115 1.116c0 .614-.5 1.114-1.115 1.114m0-1.554c-.242 0-.439.197-.439.44 0 .242.197.438.439.438s.439-.196.439-.438c0-.243-.197-.44-.439-.44"/><path d="m54.375 41.416-1.965 1.815"/><path d="m53.054 40.985h.676v2.677h-.676z" transform="matrix(.6791 .734 -.734 .6791 48.1989 -25.6106)"/><path d="m54.82 47.632h-2.944v-.676h2.268v-.614l-2.041-1.536.406-.54 2.311 1.738z"/><path d="m50.63 42.431c-.137 0-.248-.111-.248-.248v-2.636c0-.137.111-.248.248-.248s.248.111.248.248v2.636c0 .137-.111.248-.248.248"/></g><g fill="#990050" opacity=".7"><path d="m60.373 41.749c-.137 0-.246-.111-.246-.248v-1.953c0-.137.109-.248.246-.248.139 0 .248.111.248.248v1.952c0 .137-.11.249-.248.249"/><path d="m60.005 41.5h.766"/><path d="m60.509 47.632c-2.084 0-3.781-1.696-3.781-3.781 0-2.086 1.697-3.783 3.781-3.783 1.01 0 1.961.395 2.674 1.108l.246.246-1.066 1.007-.465-.492.547-.516c-.547-.438-1.223-.677-1.936-.677-1.713 0-3.105 1.394-3.105 3.106s1.393 3.104 3.105 3.104"/><path d="m62.408 45.69-.486-.471c.357-.369.555-.855.555-1.368 0-.537-.211-1.038-.596-1.412l-.254-.246.271-.256.23.245.223-.228c.518.502.801 1.176.801 1.896 0 .691-.264 1.344-.744 1.84"/><path d="m60.509 44.965c-.615 0-1.115-.5-1.115-1.114 0-.615.5-1.116 1.115-1.116s1.115.501 1.115 1.116c.001.614-.499 1.114-1.115 1.114m0-1.554c-.242 0-.439.197-.439.44 0 .242.197.438.439.438s.439-.196.439-.438c.001-.243-.197-.44-.439-.44"/><path d="m62.945 41.416-1.965 1.815"/><path d="m61.624 40.985h.676v2.677h-.676z" transform="matrix(.6791 .734 -.734 .6791 50.9489 -31.9014)"/><path d="m63.39 47.632h-2.943v-.676h2.267v-.614l-2.041-1.536.407-.54 2.31 1.738z"/><path d="m59.201 42.431c-.137 0-.248-.111-.248-.248v-2.636c0-.137.111-.248.248-.248s.248.111.248.248v2.636c0 .137-.112.248-.248.248"/><path d="m68.957 41.749c-.137 0-.248-.111-.248-.248v-1.953c0-.137.111-.248.248-.248s.248.111.248.248v1.952c0 .137-.112.249-.248.249"/><path d="m68.587 41.5h.766"/><path d="m69.093 47.632c-2.086 0-3.783-1.696-3.783-3.781 0-2.086 1.697-3.783 3.783-3.783 1.01 0 1.959.395 2.674 1.108l.246.246-1.068 1.007-.463-.492.547-.516c-.549-.438-1.225-.677-1.936-.677-1.713 0-3.107 1.394-3.107 3.106s1.395 3.104 3.107 3.104"/><path d="m70.99 45.69-.484-.471c.357-.369.555-.855.555-1.368 0-.537-.213-1.038-.598-1.412l-.252-.246.271-.256.23.245.223-.228c.516.502.801 1.176.801 1.896 0 .691-.266 1.344-.746 1.84"/><path d="m69.093 44.965c-.615 0-1.117-.5-1.117-1.114 0-.615.502-1.116 1.117-1.116s1.113.501 1.113 1.116c.001.614-.498 1.114-1.113 1.114m0-1.554c-.242 0-.439.197-.439.44 0 .242.197.438.439.438s.439-.196.439-.438c.001-.243-.197-.44-.439-.44"/><path d="m71.527 41.416-1.965 1.815"/><path d="m70.207 40.986h.675v2.675h-.675z" transform="matrix(.6776 .7355 -.7355 .6776 53.8739 -38.2365)"/><path d="m71.972 47.632h-2.941v-.676h2.265v-.614l-2.041-1.536.409-.54 2.308 1.738z"/><path d="m67.783 42.431c-.137 0-.248-.111-.248-.248v-2.636c0-.137.111-.248.248-.248.139 0 .248.111.248.248v2.636c0 .137-.11.248-.248.248"/><path d="m77.539 41.749c-.137 0-.246-.111-.246-.248v-1.953c0-.137.109-.248.246-.248.139 0 .248.111.248.248v1.952c0 .137-.11.249-.248.249"/><path d="m77.171 41.5h.766"/><path d="m77.675 47.632c-2.084 0-3.781-1.696-3.781-3.781 0-2.086 1.697-3.783 3.781-3.783 1.01 0 1.961.395 2.674 1.108l.246.246-1.066 1.007-.465-.492.547-.516c-.547-.438-1.223-.677-1.936-.677-1.713 0-3.105 1.394-3.105 3.106s1.393 3.104 3.105 3.104"/><path d="m79.574 45.69-.486-.471c.357-.369.555-.855.555-1.368 0-.537-.211-1.038-.596-1.412l-.254-.246.271-.256.23.245.223-.228c.518.502.801 1.176.801 1.896 0 .691-.264 1.344-.744 1.84"/><path d="m77.675 44.965c-.615 0-1.115-.5-1.115-1.114 0-.615.5-1.116 1.115-1.116s1.115.501 1.115 1.116c.001.614-.499 1.114-1.115 1.114m0-1.554c-.242 0-.439.197-.439.44 0 .242.197.438.439.438s.439-.196.439-.438c.001-.243-.197-.44-.439-.44"/><path d="m80.111 41.416-1.965 1.815"/><path d="m78.79 40.985h.676v2.677h-.676z" transform="matrix(.6791 .734 -.734 .6791 56.4572 -44.5017)"/><path d="m80.556 47.632h-2.943v-.676h2.267v-.614l-2.041-1.536.407-.54 2.31 1.738z"/><path d="m76.367 42.431c-.137 0-.248-.111-.248-.248v-2.636c0-.137.111-.248.248-.248s.248.111.248.248v2.636c0 .137-.112.248-.248.248"/><path d="m86.123 41.749c-.137 0-.248-.111-.248-.248v-1.953c0-.137.111-.248.248-.248s.248.111.248.248v1.952c0 .137-.112.249-.248.249"/><path d="m85.753 41.5h.766"/><path d="m86.259 47.632c-2.086 0-3.783-1.696-3.783-3.781 0-2.086 1.697-3.783 3.783-3.783 1.01 0 1.959.395 2.674 1.108l.246.246-1.068 1.007-.463-.492.547-.516c-.549-.438-1.225-.677-1.936-.677-1.713 0-3.107 1.394-3.107 3.106s1.395 3.104 3.107 3.104"/><path d="m88.156 45.69-.484-.471c.357-.369.555-.855.555-1.368 0-.537-.213-1.038-.598-1.412l-.252-.246.271-.256.23.245.223-.228c.516.502.801 1.176.801 1.896 0 .691-.266 1.344-.746 1.84"/><path d="m86.259 44.965c-.615 0-1.117-.5-1.117-1.114 0-.615.502-1.116 1.117-1.116s1.113.501 1.113 1.116c.001.614-.497 1.114-1.113 1.114m0-1.554c-.242 0-.439.197-.439.44 0 .242.197.438.439.438s.439-.196.439-.438c.001-.243-.197-.44-.439-.44"/><path d="m88.693 41.416-1.965 1.815"/><path d="m87.373 40.986h.675v2.675h-.675z" transform="matrix(.6776 .7355 -.7355 .6776 59.409 -50.8615)"/><path d="m89.138 47.632h-2.941v-.676h2.265v-.614l-2.041-1.536.409-.54 2.308 1.738z"/><path d="m84.949 42.431c-.137 0-.248-.111-.248-.248v-2.636c0-.137.111-.248.248-.248.139 0 .248.111.248.248v2.636c0 .137-.11.248-.248.248"/><path d="m94.705 41.749c-.137 0-.246-.111-.246-.248v-1.953c0-.137.109-.248.246-.248.139 0 .248.111.248.248v1.952c0 .137-.11.249-.248.249"/><path d="m94.337 41.5h.766"/><path d="m94.841 47.632c-2.084 0-3.781-1.696-3.781-3.781 0-2.086 1.697-3.783 3.781-3.783 1.01 0 1.961.395 2.674 1.108l.246.246-1.066 1.007-.465-.492.547-.516c-.547-.438-1.223-.677-1.936-.677-1.713 0-3.105 1.394-3.105 3.106s1.393 3.104 3.105 3.104"/><path d="m96.74 45.69-.486-.471c.357-.369.555-.855.555-1.368 0-.537-.211-1.038-.596-1.412l-.254-.246.271-.256.23.245.223-.228c.518.502.801 1.176.801 1.896 0 .691-.264 1.344-.744 1.84"/><path d="m94.841 44.965c-.615 0-1.115-.5-1.115-1.114 0-.615.5-1.116 1.115-1.116s1.115.501 1.115 1.116c.001.614-.499 1.114-1.115 1.114m0-1.554c-.242 0-.439.197-.439.44 0 .242.197.438.439.438s.439-.196.439-.438c.001-.243-.197-.44-.439-.44"/><path d="m97.277 41.416-1.965 1.815"/><path d="m95.957 40.985h.676v2.677h-.676z" transform="matrix(.6791 .734 -.734 .6791 61.9654 -57.1021)"/><path d="m97.722 47.632h-2.943v-.676h2.267v-.614l-2.041-1.536.407-.54 2.31 1.738z"/><path d="m93.533 42.431c-.137 0-.248-.111-.248-.248v-2.636c0-.137.111-.248.248-.248s.248.111.248.248v2.636c0 .137-.112.248-.248.248"/></g><g fill="#990050" opacity=".7"><path d="m31.873 31.499c-.137 0-.246-.111-.246-.248v-1.953c0-.137.109-.248.246-.248.139 0 .248.111.248.248v1.953c0 .136-.11.248-.248.248"/><path d="m31.505 31.25h.766"/><path d="m32.009 37.382c-2.084 0-3.781-1.696-3.781-3.781 0-2.086 1.697-3.783 3.781-3.783 1.01 0 1.961.395 2.674 1.108l.246.246-1.066 1.007-.465-.492.547-.516c-.547-.438-1.223-.677-1.936-.677-1.713 0-3.105 1.394-3.105 3.106s1.393 3.104 3.105 3.104"/><path d="m33.908 35.44-.486-.471c.357-.369.555-.855.555-1.368 0-.537-.211-1.038-.596-1.412l-.254-.246.271-.256.23.245.223-.228c.518.502.801 1.176.801 1.896 0 .691-.264 1.344-.744 1.84"/><path d="m32.009 34.715c-.615 0-1.115-.5-1.115-1.114 0-.615.5-1.116 1.115-1.116s1.115.501 1.115 1.116c.001.614-.499 1.114-1.115 1.114m0-1.554c-.242 0-.439.197-.439.44 0 .242.197.438.439.438s.439-.196.439-.438c.001-.243-.197-.44-.439-.44"/><path d="m34.445 31.166-1.965 1.815"/><path d="m33.124 30.735h.676v2.677h-.676z" transform="matrix(.6791 .734 -.734 .6791 34.2801 -14.2707)"/><path d="m34.89 37.382h-2.943v-.676h2.267v-.614l-2.041-1.536.407-.54 2.31 1.738z"/><path d="m30.701 32.181c-.137 0-.248-.111-.248-.248v-2.636c0-.137.111-.248.248-.248s.248.111.248.248v2.636c0 .137-.112.248-.248.248"/><path d="m40.457 31.499c-.137 0-.248-.111-.248-.248v-1.953c0-.137.111-.248.248-.248s.248.111.248.248v1.953c0 .136-.112.248-.248.248"/><path d="m40.087 31.25h.766"/><path d="m40.593 37.382c-2.086 0-3.783-1.696-3.783-3.781 0-2.086 1.697-3.783 3.783-3.783 1.01 0 1.959.395 2.674 1.108l.246.246-1.068 1.007-.463-.492.547-.516c-.549-.438-1.225-.677-1.936-.677-1.713 0-3.107 1.394-3.107 3.106s1.395 3.104 3.107 3.104"/><path d="m42.49 35.44-.484-.471c.357-.369.555-.855.555-1.368 0-.537-.213-1.038-.598-1.412l-.252-.246.271-.256.23.245.223-.228c.516.502.801 1.176.801 1.896 0 .691-.266 1.344-.746 1.84"/><path d="m40.593 34.715c-.615 0-1.117-.5-1.117-1.114 0-.615.502-1.116 1.117-1.116s1.113.501 1.113 1.116c.001.614-.498 1.114-1.113 1.114m0-1.554c-.242 0-.439.197-.439.44 0 .242.197.438.439.438s.439-.196.439-.438c.001-.243-.197-.44-.439-.44"/><path d="m43.027 31.166-1.965 1.815"/><path d="m41.707 30.736h.675v2.675h-.675z" transform="matrix(.6776 .7355 -.7355 .6776 37.1458 -20.5806)"/><path d="m43.472 37.382h-2.941v-.676h2.265v-.614l-2.041-1.536.409-.54 2.308 1.738z"/><path d="m39.283 32.181c-.137 0-.248-.111-.248-.248v-2.636c0-.137.111-.248.248-.248.139 0 .248.111.248.248v2.636c0 .137-.11.248-.248.248"/><path d="m49.039 31.499c-.137 0-.246-.111-.246-.248v-1.953c0-.137.109-.248.246-.248.139 0 .248.111.248.248v1.953c0 .136-.11.248-.248.248"/><path d="m48.671 31.25h.766"/><path d="m49.175 37.382c-2.084 0-3.781-1.696-3.781-3.781 0-2.086 1.697-3.783 3.781-3.783 1.01 0 1.961.395 2.674 1.108l.246.246-1.066 1.007-.465-.492.547-.516c-.547-.438-1.223-.677-1.936-.677-1.713 0-3.105 1.394-3.105 3.106s1.393 3.104 3.105 3.104"/><path d="m51.074 35.44-.486-.471c.357-.369.555-.855.555-1.368 0-.537-.211-1.038-.596-1.412l-.254-.246.271-.256.23.245.223-.228c.518.502.801 1.176.801 1.896 0 .691-.264 1.344-.744 1.84"/><path d="m49.175 34.715c-.615 0-1.115-.5-1.115-1.114 0-.615.5-1.116 1.115-1.116s1.115.501 1.115 1.116c.001.614-.499 1.114-1.115 1.114m0-1.554c-.242 0-.439.197-.439.44 0 .242.197.438.439.438s.439-.196.439-.438c.001-.243-.197-.44-.439-.44"/><path d="m51.611 31.166-1.965 1.815"/><path d="m50.29 30.735h.676v2.677h-.676z" transform="matrix(.6791 .734 -.734 .6791 39.7883 -26.871)"/><path d="m52.056 37.382h-2.943v-.676h2.267v-.614l-2.041-1.536.407-.54 2.31 1.738z"/><path d="m47.867 32.181c-.137 0-.248-.111-.248-.248v-2.636c0-.137.111-.248.248-.248s.248.111.248.248v2.636c0 .137-.112.248-.248.248"/><path d="m57.623 31.499c-.137 0-.248-.111-.248-.248v-1.953c0-.137.111-.248.248-.248s.248.111.248.248v1.953c0 .136-.112.248-.248.248"/><path d="m57.253 31.25h.766"/><path d="m57.759 37.382c-2.086 0-3.783-1.696-3.783-3.781 0-2.086 1.697-3.783 3.783-3.783 1.01 0 1.959.395 2.674 1.108l.246.246-1.068 1.007-.463-.492.547-.516c-.549-.438-1.225-.677-1.936-.677-1.713 0-3.107 1.394-3.107 3.106s1.395 3.104 3.107 3.104"/><path d="m59.656 35.44-.484-.471c.357-.369.555-.855.555-1.368 0-.537-.213-1.038-.598-1.412l-.252-.246.271-.256.23.245.223-.228c.516.502.801 1.176.801 1.896 0 .691-.266 1.344-.746 1.84"/><path d="m57.759 34.715c-.615 0-1.117-.5-1.117-1.114 0-.615.502-1.116 1.117-1.116s1.113.501 1.113 1.116c.001.614-.497 1.114-1.113 1.114m0-1.554c-.242 0-.439.197-.439.44 0 .242.197.438.439.438s.439-.196.439-.438c.001-.243-.197-.44-.439-.44"/><path d="m60.193 31.166-1.965 1.815"/><path d="m58.873 30.736h.675v2.675h-.675z" transform="matrix(.6776 .7355 -.7355 .6776 42.6808 -33.2057)"/><path d="m60.638 37.382h-2.941v-.676h2.265v-.614l-2.041-1.536.409-.54 2.308 1.738z"/><path d="m56.449 32.181c-.137 0-.248-.111-.248-.248v-2.636c0-.137.111-.248.248-.248.139 0 .248.111.248.248v2.636c0 .137-.11.248-.248.248"/><path d="m66.205 31.499c-.137 0-.246-.111-.246-.248v-1.953c0-.137.109-.248.246-.248.139 0 .248.111.248.248v1.953c0 .136-.11.248-.248.248"/><path d="m65.837 31.25h.766"/><path d="m66.341 37.382c-2.084 0-3.781-1.696-3.781-3.781 0-2.086 1.697-3.783 3.781-3.783 1.01 0 1.961.395 2.674 1.108l.246.246-1.066 1.007-.465-.492.547-.516c-.547-.438-1.223-.677-1.936-.677-1.713 0-3.105 1.394-3.105 3.106s1.393 3.104 3.105 3.104"/><path d="m68.24 35.44-.486-.471c.357-.369.555-.855.555-1.368 0-.537-.211-1.038-.596-1.412l-.254-.246.271-.256.23.245.223-.228c.518.502.801 1.176.801 1.896 0 .691-.264 1.344-.744 1.84"/><path d="m66.341 34.715c-.615 0-1.115-.5-1.115-1.114 0-.615.5-1.116 1.115-1.116s1.115.501 1.115 1.116c.001.614-.499 1.114-1.115 1.114m0-1.554c-.242 0-.439.197-.439.44 0 .242.197.438.439.438s.439-.196.439-.438c.001-.243-.197-.44-.439-.44"/><path d="m68.777 31.166-1.965 1.815"/><path d="m67.457 30.735h.676v2.677h-.676z" transform="matrix(.6791 .734 -.734 .6791 45.2965 -39.4713)"/><path d="m69.222 37.382h-2.943v-.676h2.267v-.614l-2.041-1.536.407-.54 2.31 1.738z"/><path d="m65.033 32.181c-.137 0-.248-.111-.248-.248v-2.636c0-.137.111-.248.248-.248s.248.111.248.248v2.636c0 .137-.112.248-.248.248"/><path d="m75.455 31.499c-.137 0-.248-.111-.248-.248v-1.953c0-.137.111-.248.248-.248s.248.111.248.248v1.953c0 .136-.112.248-.248.248"/><path d="m75.085 31.25h.766"/><path d="m75.591 37.382c-2.086 0-3.783-1.696-3.783-3.781 0-2.086 1.697-3.783 3.783-3.783 1.01 0 1.959.395 2.674 1.108l.246.246-1.068 1.007-.463-.492.547-.516c-.549-.438-1.225-.677-1.936-.677-1.713 0-3.107 1.394-3.107 3.106s1.395 3.104 3.107 3.104"/><path d="m77.488 35.44-.484-.471c.357-.369.555-.855.555-1.368 0-.537-.213-1.038-.598-1.412l-.252-.246.271-.256.23.245.223-.228c.516.502.801 1.176.801 1.896 0 .691-.266 1.344-.746 1.84"/><path d="m75.591 34.715c-.615 0-1.117-.5-1.117-1.114 0-.615.502-1.116 1.117-1.116s1.113.501 1.113 1.116c.001.614-.497 1.114-1.113 1.114m0-1.554c-.242 0-.439.197-.439.44 0 .242.197.438.439.438s.439-.196.439-.438c.001-.243-.197-.44-.439-.44"/><path d="m78.025 31.166-1.965 1.815"/><path d="m76.705 30.736h.675v2.675h-.675z" transform="matrix(.6776 .7355 -.7355 .6776 48.4306 -46.3206)"/><path d="m78.47 37.382h-2.941v-.676h2.265v-.614l-2.041-1.536.409-.54 2.308 1.738z"/><path d="m74.281 32.181c-.137 0-.248-.111-.248-.248v-2.636c0-.137.111-.248.248-.248.139 0 .248.111.248.248v2.636c0 .137-.11.248-.248.248"/><path d="m49.873 21.167c-.137 0-.248-.111-.248-.248v-1.953c0-.137.111-.248.248-.248s.248.111.248.248v1.953c0 .136-.112.248-.248.248"/><path d="m49.503 20.918h.766"/><path d="m50.009 27.05c-2.086 0-3.783-1.696-3.783-3.781 0-2.086 1.697-3.783 3.783-3.783 1.01 0 1.959.395 2.674 1.108l.246.246-1.068 1.007-.463-.492.547-.516c-.549-.438-1.225-.677-1.936-.677-1.713 0-3.107 1.394-3.107 3.106s1.395 3.104 3.107 3.104"/><path d="m51.906 25.108-.484-.471c.357-.369.555-.855.555-1.368 0-.537-.213-1.038-.598-1.412l-.252-.246.271-.256.23.245.223-.228c.516.502.801 1.176.801 1.896 0 .69-.266 1.344-.746 1.84"/><path d="m50.009 24.383c-.615 0-1.117-.5-1.117-1.114 0-.615.502-1.116 1.117-1.116s1.113.501 1.113 1.116c.001.614-.497 1.114-1.113 1.114m0-1.554c-.242 0-.439.197-.439.44 0 .242.197.438.439.438s.439-.196.439-.438c.001-.243-.197-.44-.439-.44"/><path d="m52.443 20.833-1.965 1.816"/><path d="m51.123 20.404h.675v2.675h-.675z" transform="matrix(.6776 .7355 -.7355 .6776 32.583 -30.8373)"/><path d="m52.888 27.05h-2.941v-.676h2.265v-.614l-2.041-1.536.409-.54 2.308 1.738z"/><path d="m48.699 21.849c-.137 0-.248-.111-.248-.248v-2.636c0-.137.111-.248.248-.248.139 0 .248.111.248.248v2.636c0 .137-.11.248-.248.248"/><path d="m61.039 21.458c-.137 0-.246-.111-.246-.248v-1.953c0-.137.109-.248.246-.248.139 0 .248.111.248.248v1.953c0 .136-.11.248-.248.248"/><path d="m60.671 21.209h.766"/><path d="m61.175 27.341c-2.084 0-3.781-1.696-3.781-3.781 0-2.086 1.697-3.783 3.781-3.783 1.01 0 1.961.395 2.674 1.108l.246.246-1.066 1.007-.465-.492.547-.516c-.547-.438-1.223-.677-1.936-.677-1.713 0-3.105 1.394-3.105 3.106s1.393 3.104 3.105 3.104"/><path d="m63.074 25.399-.486-.471c.357-.369.555-.855.555-1.368 0-.537-.211-1.038-.596-1.412l-.254-.246.271-.256.23.245.223-.228c.518.502.801 1.176.801 1.896 0 .691-.264 1.344-.744 1.84"/><path d="m61.175 24.674c-.615 0-1.115-.5-1.115-1.114 0-.615.5-1.116 1.115-1.116s1.115.501 1.115 1.116c.001.614-.499 1.114-1.115 1.114m0-1.554c-.242 0-.439.197-.439.44 0 .242.197.438.439.438s.439-.196.439-.438c.001-.243-.197-.44-.439-.44"/><path d="m63.611 21.125-1.965 1.815"/><path d="m62.29 20.694h.676v2.677h-.676z" transform="matrix(.6791 .734 -.734 .6791 36.2685 -38.9013)"/><path d="m64.056 27.341h-2.943v-.676h2.267v-.614l-2.041-1.536.407-.54 2.31 1.738z"/><path d="m59.867 22.14c-.137 0-.248-.111-.248-.248v-2.636c0-.137.111-.248.248-.248s.248.111.248.248v2.636c0 .137-.112.248-.248.248"/><path d="m84.351 31.645c-.137 0-.246-.111-.246-.248v-1.953c0-.137.109-.248.246-.248.139 0 .248.111.248.248v1.953c0 .137-.109.248-.248.248"/><path d="m83.984 31.397h.766"/><path d="m84.488 37.529c-2.084 0-3.781-1.696-3.781-3.781 0-2.086 1.697-3.783 3.781-3.783 1.01 0 1.961.395 2.674 1.108l.246.246-1.066 1.007-.465-.492.547-.516c-.547-.438-1.223-.677-1.936-.677-1.713 0-3.105 1.394-3.105 3.106s1.393 3.104 3.105 3.104"/><path d="m86.386 35.586-.486-.47c.357-.369.555-.855.555-1.368 0-.537-.211-1.038-.596-1.412l-.254-.246.271-.256.23.245.223-.228c.518.502.801 1.176.801 1.896 0 .69-.263 1.343-.744 1.839"/><path d="m84.488 34.862c-.615 0-1.115-.5-1.115-1.114 0-.615.5-1.116 1.115-1.116s1.115.501 1.115 1.116c0 .614-.5 1.114-1.115 1.114m0-1.555c-.242 0-.439.197-.439.44 0 .242.197.438.439.438s.439-.196.439-.438c0-.243-.197-.44-.439-.44"/><path d="m86.923 31.312-1.965 1.815"/><path d="m85.603 30.881h.676v2.677h-.676z" transform="matrix(.6791 .734 -.734 .6791 51.2269 -52.7443)"/><path d="m87.369 37.529h-2.944v-.677h2.268v-.613l-2.041-1.536.406-.54 2.311 1.738z"/><path d="m83.179 32.328c-.137 0-.248-.111-.248-.248v-2.636c0-.137.111-.248.248-.248s.248.111.248.248v2.636c0 .136-.111.248-.248.248"/></g><g fill="#990050" opacity=".7"><path d="m17.47 52.082c-.137 0-.246-.111-.246-.248v-1.954c0-.137.109-.248.246-.248.139 0 .248.111.248.248v1.953c0 .137-.109.249-.248.249"/><path d="m17.103 51.833h.766"/><path d="m17.607 57.965c-2.084 0-3.781-1.696-3.781-3.781 0-2.086 1.697-3.783 3.781-3.783 1.01 0 1.961.395 2.674 1.108l.246.246-1.066 1.007-.465-.492.547-.516c-.547-.438-1.223-.677-1.936-.677-1.713 0-3.105 1.394-3.105 3.106s1.393 3.104 3.105 3.104"/><path d="m19.505 56.023-.486-.471c.357-.369.555-.855.555-1.368 0-.537-.211-1.038-.596-1.412l-.254-.246.271-.256.23.245.223-.228c.518.502.801 1.176.801 1.896.001.691-.263 1.344-.744 1.84"/><path d="m17.607 55.298c-.615 0-1.115-.5-1.115-1.114 0-.615.5-1.116 1.115-1.116s1.115.501 1.115 1.116c0 .614-.5 1.114-1.115 1.114m0-1.554c-.242 0-.439.197-.439.44 0 .242.197.438.439.438s.439-.196.439-.438c0-.243-.197-.44-.439-.44"/><path d="m20.042 51.749-1.964 1.815"/><path d="m18.722 51.318h.676v2.677h-.676z" transform="matrix(.6791 .734 -.734 .6791 44.7671 2.9057)"/><path d="m20.488 57.965h-2.944v-.676h2.268v-.614l-2.041-1.536.406-.54 2.311 1.738z"/><path d="m16.298 52.764c-.137 0-.248-.111-.248-.248v-2.636c0-.137.111-.248.248-.248s.248.111.248.248v2.636c0 .137-.111.248-.248.248"/><path d="m26.054 52.082c-.137 0-.248-.111-.248-.248v-1.954c0-.137.111-.248.248-.248s.248.111.248.248v1.953c0 .137-.111.249-.248.249"/><path d="m25.685 51.833h.766"/><path d="m26.191 57.965c-2.086 0-3.783-1.696-3.783-3.781 0-2.086 1.697-3.783 3.783-3.783 1.01 0 1.959.395 2.674 1.108l.246.246-1.068 1.007-.463-.492.547-.516c-.549-.438-1.225-.677-1.936-.677-1.713 0-3.107 1.394-3.107 3.106s1.395 3.104 3.107 3.104"/><path d="m28.087 56.023-.484-.471c.357-.369.555-.855.555-1.368 0-.537-.213-1.038-.598-1.412l-.252-.246.271-.256.23.245.223-.228c.516.502.801 1.176.801 1.896 0 .691-.265 1.344-.746 1.84"/><path d="m26.191 55.298c-.615 0-1.117-.5-1.117-1.114 0-.615.502-1.116 1.117-1.116s1.113.501 1.113 1.116c0 .614-.498 1.114-1.113 1.114m0-1.554c-.242 0-.439.197-.439.44 0 .242.197.438.439.438s.439-.196.439-.438c0-.243-.197-.44-.439-.44"/><path d="m28.625 51.749-1.965 1.815"/><path d="m27.305 51.319h.675v2.675h-.675z" transform="matrix(.6776 .7355 -.7355 .6776 47.64 -3.3513)"/><path d="m29.07 57.965h-2.942v-.676h2.266v-.614l-2.041-1.536.408-.54 2.309 1.738z"/><path d="m24.88 52.764c-.137 0-.248-.111-.248-.248v-2.636c0-.137.111-.248.248-.248.139 0 .248.111.248.248v2.636c0 .137-.109.248-.248.248"/><path d="m34.636 52.082c-.137 0-.246-.111-.246-.248v-1.954c0-.137.109-.248.246-.248.139 0 .248.111.248.248v1.953c0 .137-.109.249-.248.249"/><path d="m34.269 51.833h.766"/><path d="m34.773 57.965c-2.084 0-3.781-1.696-3.781-3.781 0-2.086 1.697-3.783 3.781-3.783 1.01 0 1.961.395 2.674 1.108l.246.246-1.066 1.007-.465-.492.547-.516c-.547-.438-1.223-.677-1.936-.677-1.713 0-3.105 1.394-3.105 3.106s1.393 3.104 3.105 3.104"/><path d="m36.671 56.023-.486-.471c.357-.369.555-.855.555-1.368 0-.537-.211-1.038-.596-1.412l-.254-.246.271-.256.23.245.223-.228c.518.502.801 1.176.801 1.896.001.691-.263 1.344-.744 1.84"/><path d="m34.773 55.298c-.615 0-1.115-.5-1.115-1.114 0-.615.5-1.116 1.115-1.116s1.115.501 1.115 1.116c0 .614-.5 1.114-1.115 1.114m0-1.554c-.242 0-.439.197-.439.44 0 .242.197.438.439.438s.439-.196.439-.438c0-.243-.197-.44-.439-.44"/><path d="m37.208 51.749-1.964 1.815"/><path d="m35.888 51.318h.676v2.677h-.676z" transform="matrix(.6791 .734 -.734 .6791 50.2754 -9.6946)"/><path d="m37.654 57.965h-2.944v-.676h2.268v-.614l-2.041-1.536.406-.54 2.311 1.738z"/><path d="m33.464 52.764c-.137 0-.248-.111-.248-.248v-2.636c0-.137.111-.248.248-.248s.248.111.248.248v2.636c0 .137-.111.248-.248.248"/><path d="m43.22 52.082c-.137 0-.248-.111-.248-.248v-1.954c0-.137.111-.248.248-.248s.248.111.248.248v1.953c0 .137-.111.249-.248.249"/><path d="m42.851 51.833h.766"/><path d="m43.357 57.965c-2.086 0-3.783-1.696-3.783-3.781 0-2.086 1.697-3.783 3.783-3.783 1.01 0 1.959.395 2.674 1.108l.246.246-1.068 1.007-.463-.492.547-.516c-.549-.438-1.225-.677-1.936-.677-1.713 0-3.107 1.394-3.107 3.106s1.395 3.104 3.107 3.104"/><path d="m45.253 56.023-.484-.471c.357-.369.555-.855.555-1.368 0-.537-.213-1.038-.598-1.412l-.252-.246.271-.256.23.245.223-.228c.516.503.802 1.176.802 1.897 0 .69-.266 1.343-.747 1.839"/><path d="m43.357 55.298c-.615 0-1.117-.5-1.117-1.114 0-.615.502-1.116 1.117-1.116s1.113.501 1.113 1.116c0 .614-.498 1.114-1.113 1.114m0-1.554c-.242 0-.439.197-.439.44 0 .242.197.438.439.438s.439-.196.439-.438c0-.243-.197-.44-.439-.44"/><path d="m45.791 51.749-1.965 1.815"/><path d="m44.471 51.319h.675v2.675h-.675z" transform="matrix(.6776 .7355 -.7355 .6776 53.1751 -15.9764)"/><path d="m46.236 57.965h-2.942v-.676h2.266v-.614l-2.041-1.536.408-.54 2.309 1.738z"/><path d="m42.046 52.764c-.137 0-.248-.111-.248-.248v-2.636c0-.137.111-.248.248-.248.139 0 .248.111.248.248v2.636c0 .137-.109.248-.248.248"/><path d="m51.802 52.082c-.137 0-.246-.111-.246-.248v-1.954c0-.137.109-.248.246-.248.139 0 .248.111.248.248v1.953c0 .137-.109.249-.248.249"/><path d="m51.435 51.833h.766"/><path d="m51.939 57.965c-2.084 0-3.781-1.696-3.781-3.781 0-2.086 1.697-3.783 3.781-3.783 1.01 0 1.961.395 2.674 1.108l.246.246-1.066 1.007-.465-.492.547-.516c-.547-.438-1.223-.677-1.936-.677-1.713 0-3.105 1.394-3.105 3.106s1.393 3.104 3.105 3.104"/><path d="m53.837 56.023-.486-.471c.357-.369.555-.855.555-1.368 0-.537-.211-1.038-.596-1.412l-.254-.246.271-.256.23.245.223-.228c.518.502.801 1.176.801 1.896.001.691-.263 1.344-.744 1.84"/><path d="m51.939 55.298c-.615 0-1.115-.5-1.115-1.114 0-.615.5-1.116 1.115-1.116s1.115.501 1.115 1.116c0 .614-.5 1.114-1.115 1.114m0-1.554c-.242 0-.439.197-.439.44 0 .242.197.438.439.438s.439-.196.439-.438c0-.243-.197-.44-.439-.44"/><path d="m54.375 51.749-1.965 1.815"/><path d="m53.054 51.318h.676v2.677h-.676z" transform="matrix(.6791 .734 -.734 .6791 55.7836 -22.2949)"/><path d="m54.82 57.965h-2.944v-.676h2.268v-.614l-2.041-1.536.406-.54 2.311 1.738z"/><path d="m50.63 52.764c-.137 0-.248-.111-.248-.248v-2.636c0-.137.111-.248.248-.248s.248.111.248.248v2.636c0 .137-.111.248-.248.248"/></g><g fill="#990050" opacity=".7"><path d="m60.373 52.082c-.137 0-.246-.111-.246-.248v-1.954c0-.137.109-.248.246-.248.139 0 .248.111.248.248v1.953c0 .137-.11.249-.248.249"/><path d="m60.005 51.833h.766"/><path d="m60.509 57.965c-2.084 0-3.781-1.696-3.781-3.781 0-2.086 1.697-3.783 3.781-3.783 1.01 0 1.961.395 2.674 1.108l.246.246-1.066 1.007-.465-.492.547-.516c-.547-.438-1.223-.677-1.936-.677-1.713 0-3.105 1.394-3.105 3.106s1.393 3.104 3.105 3.104"/><path d="m62.408 56.023-.486-.471c.357-.369.555-.855.555-1.368 0-.537-.211-1.038-.596-1.412l-.254-.246.271-.256.23.245.223-.228c.518.502.801 1.176.801 1.896 0 .691-.264 1.344-.744 1.84"/><path d="m60.509 55.298c-.615 0-1.115-.5-1.115-1.114 0-.615.5-1.116 1.115-1.116s1.115.501 1.115 1.116c.001.614-.499 1.114-1.115 1.114m0-1.554c-.242 0-.439.197-.439.44 0 .242.197.438.439.438s.439-.196.439-.438c.001-.243-.197-.44-.439-.44"/><path d="m62.945 51.749-1.965 1.815"/><path d="m61.624 51.318h.676v2.677h-.676z" transform="matrix(.6791 .734 -.734 .6791 58.5336 -28.5858)"/><path d="m63.39 57.965h-2.943v-.676h2.267v-.614l-2.041-1.536.407-.54 2.31 1.738z"/><path d="m59.201 52.764c-.137 0-.248-.111-.248-.248v-2.636c0-.137.111-.248.248-.248s.248.111.248.248v2.636c0 .137-.112.248-.248.248"/><path d="m68.957 52.082c-.137 0-.248-.111-.248-.248v-1.954c0-.137.111-.248.248-.248s.248.111.248.248v1.953c0 .137-.112.249-.248.249"/><path d="m68.587 51.833h.766"/><path d="m69.093 57.965c-2.086 0-3.783-1.696-3.783-3.781 0-2.086 1.697-3.783 3.783-3.783 1.01 0 1.959.395 2.674 1.108l.246.246-1.068 1.007-.463-.492.547-.516c-.549-.438-1.225-.677-1.936-.677-1.713 0-3.107 1.394-3.107 3.106s1.395 3.104 3.107 3.104"/><path d="m70.99 56.023-.484-.471c.357-.369.555-.855.555-1.368 0-.537-.213-1.038-.598-1.412l-.252-.246.271-.256.23.245.223-.228c.516.502.801 1.176.801 1.896 0 .691-.266 1.344-.746 1.84"/><path d="m69.093 55.298c-.615 0-1.117-.5-1.117-1.114 0-.615.502-1.116 1.117-1.116s1.113.501 1.113 1.116c.001.614-.498 1.114-1.113 1.114m0-1.554c-.242 0-.439.197-.439.44 0 .242.197.438.439.438s.439-.196.439-.438c.001-.243-.197-.44-.439-.44"/><path d="m71.527 51.749-1.965 1.815"/><path d="m70.207 51.319h.675v2.675h-.675z" transform="matrix(.6776 .7355 -.7355 .6776 61.4735 -34.9047)"/><path d="m71.972 57.965h-2.941v-.676h2.265v-.614l-2.041-1.536.409-.54 2.308 1.738z"/><path d="m67.783 52.764c-.137 0-.248-.111-.248-.248v-2.636c0-.137.111-.248.248-.248.139 0 .248.111.248.248v2.636c0 .137-.11.248-.248.248"/><path d="m77.539 52.082c-.137 0-.246-.111-.246-.248v-1.954c0-.137.109-.248.246-.248.139 0 .248.111.248.248v1.953c0 .137-.11.249-.248.249"/><path d="m77.171 51.833h.766"/><path d="m77.675 57.965c-2.084 0-3.781-1.696-3.781-3.781 0-2.086 1.697-3.783 3.781-3.783 1.01 0 1.961.395 2.674 1.108l.246.246-1.066 1.007-.465-.492.547-.516c-.547-.438-1.223-.677-1.936-.677-1.713 0-3.105 1.394-3.105 3.106s1.393 3.104 3.105 3.104"/><path d="m79.574 56.023-.486-.471c.357-.369.555-.855.555-1.368 0-.537-.211-1.038-.596-1.412l-.254-.246.271-.256.23.245.223-.228c.518.502.801 1.176.801 1.896 0 .691-.264 1.344-.744 1.84"/><path d="m77.675 55.298c-.615 0-1.115-.5-1.115-1.114 0-.615.5-1.116 1.115-1.116s1.115.501 1.115 1.116c.001.614-.499 1.114-1.115 1.114m0-1.554c-.242 0-.439.197-.439.44 0 .242.197.438.439.438s.439-.196.439-.438c.001-.243-.197-.44-.439-.44"/><path d="m80.111 51.749-1.965 1.815"/><path d="m78.79 51.318h.676v2.677h-.676z" transform="matrix(.6791 .734 -.734 .6791 64.0419 -41.1861)"/><path d="m80.556 57.965h-2.943v-.676h2.267v-.614l-2.041-1.536.407-.54 2.31 1.738z"/><path d="m76.367 52.764c-.137 0-.248-.111-.248-.248v-2.636c0-.137.111-.248.248-.248s.248.111.248.248v2.636c0 .137-.112.248-.248.248"/><path d="m86.123 52.082c-.137 0-.248-.111-.248-.248v-1.954c0-.137.111-.248.248-.248s.248.111.248.248v1.953c0 .137-.112.249-.248.249"/><path d="m85.753 51.833h.766"/><path d="m86.259 57.965c-2.086 0-3.783-1.696-3.783-3.781 0-2.086 1.697-3.783 3.783-3.783 1.01 0 1.959.395 2.674 1.108l.246.246-1.068 1.007-.463-.492.547-.516c-.549-.438-1.225-.677-1.936-.677-1.713 0-3.107 1.394-3.107 3.106s1.395 3.104 3.107 3.104"/><path d="m88.156 56.023-.484-.471c.357-.369.555-.855.555-1.368 0-.537-.213-1.038-.598-1.412l-.252-.246.271-.256.23.245.223-.228c.516.502.801 1.176.801 1.896 0 .691-.266 1.344-.746 1.84"/><path d="m86.259 55.298c-.615 0-1.117-.5-1.117-1.114 0-.615.502-1.116 1.117-1.116s1.113.501 1.113 1.116c.001.614-.497 1.114-1.113 1.114m0-1.554c-.242 0-.439.197-.439.44 0 .242.197.438.439.438s.439-.196.439-.438c.001-.243-.197-.44-.439-.44"/><path d="m88.693 51.749-1.965 1.815"/><path d="m87.373 51.319h.675v2.675h-.675z" transform="matrix(.6776 .7355 -.7355 .6776 67.0086 -47.5298)"/><path d="m89.138 57.965h-2.941v-.676h2.265v-.614l-2.041-1.536.409-.54 2.308 1.738z"/><path d="m84.949 52.764c-.137 0-.248-.111-.248-.248v-2.636c0-.137.111-.248.248-.248.139 0 .248.111.248.248v2.636c0 .137-.11.248-.248.248"/><path d="m94.705 52.082c-.137 0-.246-.111-.246-.248v-1.954c0-.137.109-.248.246-.248.139 0 .248.111.248.248v1.953c0 .137-.11.249-.248.249"/><path d="m94.337 51.833h.766"/><path d="m94.841 57.965c-2.084 0-3.781-1.696-3.781-3.781 0-2.086 1.697-3.783 3.781-3.783 1.01 0 1.961.395 2.674 1.108l.246.246-1.066 1.007-.465-.492.547-.516c-.547-.438-1.223-.677-1.936-.677-1.713 0-3.105 1.394-3.105 3.106s1.393 3.104 3.105 3.104"/><path d="m96.74 56.023-.486-.471c.357-.369.555-.855.555-1.368 0-.537-.211-1.038-.596-1.412l-.254-.246.271-.256.23.245.223-.228c.518.502.801 1.176.801 1.896 0 .691-.264 1.344-.744 1.84"/><path d="m94.841 55.298c-.615 0-1.115-.5-1.115-1.114 0-.615.5-1.116 1.115-1.116s1.115.501 1.115 1.116c.001.614-.499 1.114-1.115 1.114m0-1.554c-.242 0-.439.197-.439.44 0 .242.197.438.439.438s.439-.196.439-.438c.001-.243-.197-.44-.439-.44"/><path d="m97.277 51.749-1.965 1.815"/><path d="m95.957 51.318h.676v2.677h-.676z" transform="matrix(.6791 .734 -.734 .6791 69.5501 -53.7864)"/><path d="m97.722 57.965h-2.943v-.676h2.267v-.614l-2.041-1.536.407-.54 2.31 1.738z"/><path d="m93.533 52.764c-.137 0-.248-.111-.248-.248v-2.636c0-.137.111-.248.248-.248s.248.111.248.248v2.636c0 .137-.112.248-.248.248"/></g><g fill="#990050" opacity=".7"><path d="m17.47 62.415c-.137 0-.246-.111-.246-.248v-1.953c0-.137.109-.248.246-.248.139 0 .248.111.248.248v1.953c0 .136-.109.248-.248.248"/><path d="m17.103 62.167h.766"/><path d="m17.607 68.298c-2.084 0-3.781-1.696-3.781-3.781 0-2.086 1.697-3.783 3.781-3.783 1.01 0 1.961.395 2.674 1.108l.246.246-1.066 1.007-.465-.492.547-.516c-.547-.438-1.223-.677-1.936-.677-1.713 0-3.105 1.394-3.105 3.106s1.393 3.104 3.105 3.104"/><path d="m19.505 66.356-.486-.471c.357-.369.555-.855.555-1.368 0-.537-.211-1.038-.596-1.412l-.254-.246.271-.256.23.245.223-.228c.518.502.801 1.176.801 1.896.001.691-.263 1.344-.744 1.84"/><path d="m17.607 65.631c-.615 0-1.115-.5-1.115-1.114 0-.615.5-1.116 1.115-1.116s1.115.501 1.115 1.116c0 .614-.5 1.114-1.115 1.114m0-1.554c-.242 0-.439.197-.439.44 0 .242.197.438.439.438s.439-.196.439-.438c0-.243-.197-.44-.439-.44"/><path d="m20.042 62.082-1.964 1.815"/><path d="m18.722 61.651h.676v2.677h-.676z" transform="matrix(.6791 .734 -.734 .6791 52.3518 6.2214)"/><path d="m20.488 68.298h-2.944v-.676h2.268v-.614l-2.041-1.536.406-.54 2.311 1.738z"/><path d="m16.298 63.097c-.137 0-.248-.111-.248-.248v-2.636c0-.137.111-.248.248-.248s.248.111.248.248v2.636c0 .137-.111.248-.248.248"/><path d="m26.054 62.415c-.137 0-.248-.111-.248-.248v-1.953c0-.137.111-.248.248-.248s.248.111.248.248v1.953c0 .136-.111.248-.248.248"/><path d="m25.685 62.167h.766"/><path d="m26.191 68.298c-2.086 0-3.783-1.696-3.783-3.781 0-2.086 1.697-3.783 3.783-3.783 1.01 0 1.959.395 2.674 1.108l.246.246-1.068 1.007-.463-.492.547-.516c-.549-.438-1.225-.677-1.936-.677-1.713 0-3.107 1.394-3.107 3.106s1.395 3.104 3.107 3.104"/><path d="m28.087 66.356-.484-.471c.357-.369.555-.855.555-1.368 0-.537-.213-1.038-.598-1.412l-.252-.246.271-.256.23.245.223-.228c.516.502.801 1.176.801 1.896 0 .691-.265 1.344-.746 1.84"/><path d="m26.191 65.631c-.615 0-1.117-.5-1.117-1.114 0-.615.502-1.116 1.117-1.116s1.113.501 1.113 1.116c0 .614-.498 1.114-1.113 1.114m0-1.554c-.242 0-.439.197-.439.44 0 .242.197.438.439.438s.439-.196.439-.438c0-.243-.197-.44-.439-.44"/><path d="m28.625 62.082-1.965 1.815"/><path d="m27.305 61.652h.675v2.675h-.675z" transform="matrix(.6776 .7355 -.7355 .6776 55.2396 -.0195)"/><path d="m29.07 68.298h-2.942v-.676h2.266v-.614l-2.041-1.536.408-.54 2.309 1.738z"/><path d="m24.88 63.097c-.137 0-.248-.111-.248-.248v-2.636c0-.137.111-.248.248-.248.139 0 .248.111.248.248v2.636c0 .137-.109.248-.248.248"/><path d="m34.636 62.415c-.137 0-.246-.111-.246-.248v-1.953c0-.137.109-.248.246-.248.139 0 .248.111.248.248v1.953c0 .136-.109.248-.248.248"/><path d="m34.269 62.167h.766"/><path d="m34.773 68.298c-2.084 0-3.781-1.696-3.781-3.781 0-2.086 1.697-3.783 3.781-3.783 1.01 0 1.961.395 2.674 1.108l.246.246-1.066 1.007-.465-.492.547-.516c-.547-.438-1.223-.677-1.936-.677-1.713 0-3.105 1.394-3.105 3.106s1.393 3.104 3.105 3.104"/><path d="m36.671 66.356-.486-.471c.357-.369.555-.855.555-1.368 0-.537-.211-1.038-.596-1.412l-.254-.246.271-.256.23.245.223-.228c.518.502.801 1.176.801 1.896.001.691-.263 1.344-.744 1.84"/><path d="m34.773 65.631c-.615 0-1.115-.5-1.115-1.114 0-.615.5-1.116 1.115-1.116s1.115.501 1.115 1.116c0 .614-.5 1.114-1.115 1.114m0-1.554c-.242 0-.439.197-.439.44 0 .242.197.438.439.438s.439-.196.439-.438c0-.243-.197-.44-.439-.44"/><path d="m37.208 62.082-1.964 1.815"/><path d="m35.888 61.651h.676v2.677h-.676z" transform="matrix(.6791 .734 -.734 .6791 57.8601 -6.3789)"/><path d="m37.654 68.298h-2.944v-.676h2.268v-.614l-2.041-1.536.406-.54 2.311 1.738z"/><path d="m33.464 63.097c-.137 0-.248-.111-.248-.248v-2.636c0-.137.111-.248.248-.248s.248.111.248.248v2.636c0 .137-.111.248-.248.248"/><path d="m43.22 62.415c-.137 0-.248-.111-.248-.248v-1.953c0-.137.111-.248.248-.248s.248.111.248.248v1.953c0 .136-.111.248-.248.248"/><path d="m42.851 62.167h.766"/><path d="m43.357 68.298c-2.086 0-3.783-1.696-3.783-3.781 0-2.086 1.697-3.783 3.783-3.783 1.01 0 1.959.395 2.674 1.108l.246.246-1.068 1.007-.463-.492.547-.516c-.549-.438-1.225-.677-1.936-.677-1.713 0-3.107 1.394-3.107 3.106s1.395 3.104 3.107 3.104"/><path d="m45.253 66.356-.484-.471c.357-.369.555-.855.555-1.368 0-.537-.213-1.038-.598-1.412l-.252-.246.271-.256.23.245.223-.228c.516.503.802 1.176.802 1.897 0 .69-.266 1.343-.747 1.839"/><path d="m43.357 65.631c-.615 0-1.117-.5-1.117-1.114 0-.615.502-1.116 1.117-1.116s1.113.501 1.113 1.116c0 .614-.498 1.114-1.113 1.114m0-1.554c-.242 0-.439.197-.439.44 0 .242.197.438.439.438s.439-.196.439-.438c0-.243-.197-.44-.439-.44"/><path d="m45.791 62.082-1.965 1.815"/><path d="m44.471 61.652h.675v2.675h-.675z" transform="matrix(.6776 .7355 -.7355 .6776 60.7747 -12.6446)"/><path d="m46.236 68.298h-2.942v-.676h2.266v-.614l-2.041-1.536.408-.54 2.309 1.738z"/><path d="m42.046 63.097c-.137 0-.248-.111-.248-.248v-2.636c0-.137.111-.248.248-.248.139 0 .248.111.248.248v2.636c0 .137-.109.248-.248.248"/><path d="m51.802 62.415c-.137 0-.246-.111-.246-.248v-1.953c0-.137.109-.248.246-.248.139 0 .248.111.248.248v1.953c0 .136-.109.248-.248.248"/><path d="m51.435 62.167h.766"/><path d="m51.939 68.298c-2.084 0-3.781-1.696-3.781-3.781 0-2.086 1.697-3.783 3.781-3.783 1.01 0 1.961.395 2.674 1.108l.246.246-1.066 1.007-.465-.492.547-.516c-.547-.438-1.223-.677-1.936-.677-1.713 0-3.105 1.394-3.105 3.106s1.393 3.104 3.105 3.104"/><path d="m53.837 66.356-.486-.471c.357-.369.555-.855.555-1.368 0-.537-.211-1.038-.596-1.412l-.254-.246.271-.256.23.245.223-.228c.518.502.801 1.176.801 1.896.001.691-.263 1.344-.744 1.84"/><path d="m51.939 65.631c-.615 0-1.115-.5-1.115-1.114 0-.615.5-1.116 1.115-1.116s1.115.501 1.115 1.116c0 .614-.5 1.114-1.115 1.114m0-1.554c-.242 0-.439.197-.439.44 0 .242.197.438.439.438s.439-.196.439-.438c0-.243-.197-.44-.439-.44"/><path d="m54.375 62.082-1.965 1.815"/><path d="m53.054 61.651h.676v2.677h-.676z" transform="matrix(.6791 .734 -.734 .6791 63.3683 -18.9793)"/><path d="m54.82 68.298h-2.944v-.676h2.268v-.614l-2.041-1.536.406-.54 2.311 1.738z"/><path d="m50.63 63.097c-.137 0-.248-.111-.248-.248v-2.636c0-.137.111-.248.248-.248s.248.111.248.248v2.636c0 .137-.111.248-.248.248"/></g><g fill="#990050" opacity=".7"><path d="m60.373 62.415c-.137 0-.246-.111-.246-.248v-1.953c0-.137.109-.248.246-.248.139 0 .248.111.248.248v1.953c0 .136-.11.248-.248.248"/><path d="m60.005 62.167h.766"/><path d="m60.509 68.298c-2.084 0-3.781-1.696-3.781-3.781 0-2.086 1.697-3.783 3.781-3.783 1.01 0 1.961.395 2.674 1.108l.246.246-1.066 1.007-.465-.492.547-.516c-.547-.438-1.223-.677-1.936-.677-1.713 0-3.105 1.394-3.105 3.106s1.393 3.104 3.105 3.104"/><path d="m62.408 66.356-.486-.471c.357-.369.555-.855.555-1.368 0-.537-.211-1.038-.596-1.412l-.254-.246.271-.256.23.245.223-.228c.518.502.801 1.176.801 1.896 0 .691-.264 1.344-.744 1.84"/><path d="m60.509 65.631c-.615 0-1.115-.5-1.115-1.114 0-.615.5-1.116 1.115-1.116s1.115.501 1.115 1.116c.001.614-.499 1.114-1.115 1.114m0-1.554c-.242 0-.439.197-.439.44 0 .242.197.438.439.438s.439-.196.439-.438c.001-.243-.197-.44-.439-.44"/><path d="m62.945 62.082-1.965 1.815"/><path d="m61.624 61.651h.676v2.677h-.676z" transform="matrix(.6791 .734 -.734 .6791 66.1183 -25.2701)"/><path d="m63.39 68.298h-2.943v-.676h2.267v-.614l-2.041-1.536.407-.54 2.31 1.738z"/><path d="m59.201 63.097c-.137 0-.248-.111-.248-.248v-2.636c0-.137.111-.248.248-.248s.248.111.248.248v2.636c0 .137-.112.248-.248.248"/><path d="m68.957 62.415c-.137 0-.248-.111-.248-.248v-1.953c0-.137.111-.248.248-.248s.248.111.248.248v1.953c0 .136-.112.248-.248.248"/><path d="m68.587 62.167h.766"/><path d="m69.093 68.298c-2.086 0-3.783-1.696-3.783-3.781 0-2.086 1.697-3.783 3.783-3.783 1.01 0 1.959.395 2.674 1.108l.246.246-1.068 1.007-.463-.492.547-.516c-.549-.438-1.225-.677-1.936-.677-1.713 0-3.107 1.394-3.107 3.106s1.395 3.104 3.107 3.104"/><path d="m70.99 66.356-.484-.471c.357-.369.555-.855.555-1.368 0-.537-.213-1.038-.598-1.412l-.252-.246.271-.256.23.245.223-.228c.516.502.801 1.176.801 1.896 0 .691-.266 1.344-.746 1.84"/><path d="m69.093 65.631c-.615 0-1.117-.5-1.117-1.114 0-.615.502-1.116 1.117-1.116s1.113.501 1.113 1.116c.001.614-.498 1.114-1.113 1.114m0-1.554c-.242 0-.439.197-.439.44 0 .242.197.438.439.438s.439-.196.439-.438c.001-.243-.197-.44-.439-.44"/><path d="m71.527 62.082-1.965 1.815"/><path d="m70.207 61.652h.675v2.675h-.675z" transform="matrix(.6776 .7355 -.7355 .6776 69.0731 -31.5729)"/><path d="m71.972 68.298h-2.941v-.676h2.265v-.614l-2.041-1.536.409-.54 2.308 1.738z"/><path d="m67.783 63.097c-.137 0-.248-.111-.248-.248v-2.636c0-.137.111-.248.248-.248.139 0 .248.111.248.248v2.636c0 .137-.11.248-.248.248"/><path d="m77.539 62.415c-.137 0-.246-.111-.246-.248v-1.953c0-.137.109-.248.246-.248.139 0 .248.111.248.248v1.953c0 .136-.11.248-.248.248"/><path d="m77.171 62.167h.766"/><path d="m77.675 68.298c-2.084 0-3.781-1.696-3.781-3.781 0-2.086 1.697-3.783 3.781-3.783 1.01 0 1.961.395 2.674 1.108l.246.246-1.066 1.007-.465-.492.547-.516c-.547-.438-1.223-.677-1.936-.677-1.713 0-3.105 1.394-3.105 3.106s1.393 3.104 3.105 3.104"/><path d="m79.574 66.356-.486-.471c.357-.369.555-.855.555-1.368 0-.537-.211-1.038-.596-1.412l-.254-.246.271-.256.23.245.223-.228c.518.502.801 1.176.801 1.896 0 .691-.264 1.344-.744 1.84"/><path d="m77.675 65.631c-.615 0-1.115-.5-1.115-1.114 0-.615.5-1.116 1.115-1.116s1.115.501 1.115 1.116c.001.614-.499 1.114-1.115 1.114m0-1.554c-.242 0-.439.197-.439.44 0 .242.197.438.439.438s.439-.196.439-.438c.001-.243-.197-.44-.439-.44"/><path d="m80.111 62.082-1.965 1.815"/><path d="m78.79 61.651h.676v2.677h-.676z" transform="matrix(.6791 .734 -.734 .6791 71.6266 -37.8704)"/><path d="m80.556 68.298h-2.943v-.676h2.267v-.614l-2.041-1.536.407-.54 2.31 1.738z"/><path d="m76.367 63.097c-.137 0-.248-.111-.248-.248v-2.636c0-.137.111-.248.248-.248s.248.111.248.248v2.636c0 .137-.112.248-.248.248"/><path d="m86.123 62.415c-.137 0-.248-.111-.248-.248v-1.953c0-.137.111-.248.248-.248s.248.111.248.248v1.953c0 .136-.112.248-.248.248"/><path d="m85.753 62.167h.766"/><path d="m86.259 68.298c-2.086 0-3.783-1.696-3.783-3.781 0-2.086 1.697-3.783 3.783-3.783 1.01 0 1.959.395 2.674 1.108l.246.246-1.068 1.007-.463-.492.547-.516c-.549-.438-1.225-.677-1.936-.677-1.713 0-3.107 1.394-3.107 3.106s1.395 3.104 3.107 3.104"/><path d="m88.156 66.356-.484-.471c.357-.369.555-.855.555-1.368 0-.537-.213-1.038-.598-1.412l-.252-.246.271-.256.23.245.223-.228c.516.502.801 1.176.801 1.896 0 .691-.266 1.344-.746 1.84"/><path d="m86.259 65.631c-.615 0-1.117-.5-1.117-1.114 0-.615.502-1.116 1.117-1.116s1.113.501 1.113 1.116c.001.614-.497 1.114-1.113 1.114m0-1.554c-.242 0-.439.197-.439.44 0 .242.197.438.439.438s.439-.196.439-.438c.001-.243-.197-.44-.439-.44"/><path d="m88.693 62.082-1.965 1.815"/><path d="m87.373 61.652h.675v2.675h-.675z" transform="matrix(.6776 .7355 -.7355 .6776 74.6082 -44.198)"/><path d="m89.138 68.298h-2.941v-.676h2.265v-.614l-2.041-1.536.409-.54 2.308 1.738z"/><path d="m84.949 63.097c-.137 0-.248-.111-.248-.248v-2.636c0-.137.111-.248.248-.248.139 0 .248.111.248.248v2.636c0 .137-.11.248-.248.248"/><path d="m94.705 62.415c-.137 0-.246-.111-.246-.248v-1.953c0-.137.109-.248.246-.248.139 0 .248.111.248.248v1.953c0 .136-.11.248-.248.248"/><path d="m94.337 62.167h.766"/><path d="m94.841 68.298c-2.084 0-3.781-1.696-3.781-3.781 0-2.086 1.697-3.783 3.781-3.783 1.01 0 1.961.395 2.674 1.108l.246.246-1.066 1.007-.465-.492.547-.516c-.547-.438-1.223-.677-1.936-.677-1.713 0-3.105 1.394-3.105 3.106s1.393 3.104 3.105 3.104"/><path d="m96.74 66.356-.486-.471c.357-.369.555-.855.555-1.368 0-.537-.211-1.038-.596-1.412l-.254-.246.271-.256.23.245.223-.228c.518.502.801 1.176.801 1.896 0 .691-.264 1.344-.744 1.84"/><path d="m94.841 65.631c-.615 0-1.115-.5-1.115-1.114 0-.615.5-1.116 1.115-1.116s1.115.501 1.115 1.116c.001.614-.499 1.114-1.115 1.114m0-1.554c-.242 0-.439.197-.439.44 0 .242.197.438.439.438s.439-.196.439-.438c.001-.243-.197-.44-.439-.44"/><path d="m97.277 62.082-1.965 1.815"/><path d="m95.957 61.651h.676v2.677h-.676z" transform="matrix(.6791 .734 -.734 .6791 77.1348 -50.4707)"/><path d="m97.722 68.298h-2.943v-.676h2.267v-.614l-2.041-1.536.407-.54 2.31 1.738z"/><path d="m93.533 63.097c-.137 0-.248-.111-.248-.248v-2.636c0-.137.111-.248.248-.248s.248.111.248.248v2.636c0 .137-.112.248-.248.248"/></g><g fill="#990050" opacity=".7"><path d="m17.47 72.748c-.137 0-.246-.111-.246-.248v-1.953c0-.137.109-.248.246-.248.139 0 .248.111.248.248v1.953c0 .136-.109.248-.248.248"/><path d="m17.103 72.5h.766"/><path d="m17.607 78.631c-2.084 0-3.781-1.696-3.781-3.781 0-2.086 1.697-3.783 3.781-3.783 1.01 0 1.961.395 2.674 1.108l.246.246-1.066 1.007-.465-.492.547-.516c-.547-.438-1.223-.677-1.936-.677-1.713 0-3.105 1.394-3.105 3.106s1.393 3.104 3.105 3.104"/><path d="m19.505 76.689-.486-.471c.357-.369.555-.855.555-1.368 0-.537-.211-1.038-.596-1.412l-.254-.246.271-.256.23.245.223-.228c.518.502.801 1.176.801 1.896.001.691-.263 1.344-.744 1.84"/><path d="m17.607 75.964c-.615 0-1.115-.5-1.115-1.114 0-.615.5-1.116 1.115-1.116s1.115.501 1.115 1.116c0 .614-.5 1.114-1.115 1.114m0-1.554c-.242 0-.439.197-.439.44 0 .242.197.438.439.438s.439-.196.439-.438c0-.243-.197-.44-.439-.44"/><path d="m20.042 72.415-1.964 1.815"/><path d="m18.722 71.984h.676v2.677h-.676z" transform="matrix(.6791 .734 -.734 .6791 59.9365 9.5371)"/><path d="m20.488 78.631h-2.944v-.676h2.268v-.614l-2.041-1.536.406-.54 2.311 1.738z"/><path d="m16.298 73.43c-.137 0-.248-.111-.248-.248v-2.636c0-.137.111-.248.248-.248s.248.111.248.248v2.636c0 .137-.111.248-.248.248"/><path d="m26.054 72.748c-.137 0-.248-.111-.248-.248v-1.953c0-.137.111-.248.248-.248s.248.111.248.248v1.953c0 .136-.111.248-.248.248"/><path d="m25.685 72.5h.766"/><path d="m26.191 78.631c-2.086 0-3.783-1.696-3.783-3.781 0-2.086 1.697-3.783 3.783-3.783 1.01 0 1.959.395 2.674 1.108l.246.246-1.068 1.007-.463-.492.547-.516c-.549-.438-1.225-.677-1.936-.677-1.713 0-3.107 1.394-3.107 3.106s1.395 3.104 3.107 3.104"/><path d="m28.087 76.689-.484-.471c.357-.369.555-.855.555-1.368 0-.537-.213-1.038-.598-1.412l-.252-.246.271-.256.23.245.223-.228c.516.502.801 1.176.801 1.896 0 .691-.265 1.344-.746 1.84"/><path d="m26.191 75.964c-.615 0-1.117-.5-1.117-1.114 0-.615.502-1.116 1.117-1.116s1.113.501 1.113 1.116c0 .614-.498 1.114-1.113 1.114m0-1.554c-.242 0-.439.197-.439.44 0 .242.197.438.439.438s.439-.196.439-.438c0-.243-.197-.44-.439-.44"/><path d="m28.625 72.415-1.965 1.815"/><path d="m27.305 71.985h.675v2.675h-.675z" transform="matrix(.6776 .7355 -.7355 .6776 62.8392 3.3123)"/><path d="m29.07 78.631h-2.942v-.676h2.266v-.614l-2.041-1.536.408-.54 2.309 1.738z"/><path d="m24.88 73.43c-.137 0-.248-.111-.248-.248v-2.636c0-.137.111-.248.248-.248.139 0 .248.111.248.248v2.636c0 .137-.109.248-.248.248"/><path d="m34.636 72.748c-.137 0-.246-.111-.246-.248v-1.953c0-.137.109-.248.246-.248.139 0 .248.111.248.248v1.953c0 .136-.109.248-.248.248"/><path d="m34.269 72.5h.766"/><path d="m34.773 78.631c-2.084 0-3.781-1.696-3.781-3.781 0-2.086 1.697-3.783 3.781-3.783 1.01 0 1.961.395 2.674 1.108l.246.246-1.066 1.007-.465-.492.547-.516c-.547-.438-1.223-.677-1.936-.677-1.713 0-3.105 1.394-3.105 3.106s1.393 3.104 3.105 3.104"/><path d="m36.671 76.689-.486-.471c.357-.369.555-.855.555-1.368 0-.537-.211-1.038-.596-1.412l-.254-.246.271-.256.23.245.223-.228c.518.502.801 1.176.801 1.896.001.691-.263 1.344-.744 1.84"/><path d="m34.773 75.964c-.615 0-1.115-.5-1.115-1.114 0-.615.5-1.116 1.115-1.116s1.115.501 1.115 1.116c0 .614-.5 1.114-1.115 1.114m0-1.554c-.242 0-.439.197-.439.44 0 .242.197.438.439.438s.439-.196.439-.438c0-.243-.197-.44-.439-.44"/><path d="m37.208 72.415-1.964 1.815"/><path d="m35.888 71.984h.676v2.677h-.676z" transform="matrix(.6791 .734 -.734 .6791 65.4448 -3.0633)"/><path d="m37.654 78.631h-2.944v-.676h2.268v-.614l-2.041-1.536.406-.54 2.311 1.738z"/><path d="m33.464 73.43c-.137 0-.248-.111-.248-.248v-2.636c0-.137.111-.248.248-.248s.248.111.248.248v2.636c0 .137-.111.248-.248.248"/><path d="m43.22 72.748c-.137 0-.248-.111-.248-.248v-1.953c0-.137.111-.248.248-.248s.248.111.248.248v1.953c0 .136-.111.248-.248.248"/><path d="m42.851 72.5h.766"/><path d="m43.357 78.631c-2.086 0-3.783-1.696-3.783-3.781 0-2.086 1.697-3.783 3.783-3.783 1.01 0 1.959.395 2.674 1.108l.246.246-1.068 1.007-.463-.492.547-.516c-.549-.438-1.225-.677-1.936-.677-1.713 0-3.107 1.394-3.107 3.106s1.395 3.104 3.107 3.104"/><path d="m45.253 76.689-.484-.471c.357-.369.555-.855.555-1.368 0-.537-.213-1.038-.598-1.412l-.252-.246.271-.256.23.245.223-.228c.516.503.802 1.176.802 1.897 0 .69-.266 1.343-.747 1.839"/><path d="m43.357 75.964c-.615 0-1.117-.5-1.117-1.114 0-.615.502-1.116 1.117-1.116s1.113.501 1.113 1.116c0 .614-.498 1.114-1.113 1.114m0-1.554c-.242 0-.439.197-.439.44 0 .242.197.438.439.438s.439-.196.439-.438c0-.243-.197-.44-.439-.44"/><path d="m45.791 72.415-1.965 1.815"/><path d="m44.471 71.985h.675v2.675h-.675z" transform="matrix(.6776 .7355 -.7355 .6776 68.3743 -9.3128)"/><path d="m46.236 78.631h-2.942v-.676h2.266v-.614l-2.041-1.536.408-.54 2.309 1.738z"/><path d="m42.046 73.43c-.137 0-.248-.111-.248-.248v-2.636c0-.137.111-.248.248-.248.139 0 .248.111.248.248v2.636c0 .137-.109.248-.248.248"/><path d="m51.802 72.748c-.137 0-.246-.111-.246-.248v-1.953c0-.137.109-.248.246-.248.139 0 .248.111.248.248v1.953c0 .136-.109.248-.248.248"/><path d="m51.435 72.5h.766"/><path d="m51.939 78.631c-2.084 0-3.781-1.696-3.781-3.781 0-2.086 1.697-3.783 3.781-3.783 1.01 0 1.961.395 2.674 1.108l.246.246-1.066 1.007-.465-.492.547-.516c-.547-.438-1.223-.677-1.936-.677-1.713 0-3.105 1.394-3.105 3.106s1.393 3.104 3.105 3.104"/><path d="m53.837 76.689-.486-.471c.357-.369.555-.855.555-1.368 0-.537-.211-1.038-.596-1.412l-.254-.246.271-.256.23.245.223-.228c.518.502.801 1.176.801 1.896.001.691-.263 1.344-.744 1.84"/><path d="m51.939 75.964c-.615 0-1.115-.5-1.115-1.114 0-.615.5-1.116 1.115-1.116s1.115.501 1.115 1.116c0 .614-.5 1.114-1.115 1.114m0-1.554c-.242 0-.439.197-.439.44 0 .242.197.438.439.438s.439-.196.439-.438c0-.243-.197-.44-.439-.44"/><path d="m54.375 72.415-1.965 1.815"/><path d="m53.054 71.984h.676v2.677h-.676z" transform="matrix(.6791 .734 -.734 .6791 70.953 -15.6636)"/><path d="m54.82 78.631h-2.944v-.676h2.268v-.614l-2.041-1.536.406-.54 2.311 1.738z"/><path d="m50.63 73.43c-.137 0-.248-.111-.248-.248v-2.636c0-.137.111-.248.248-.248s.248.111.248.248v2.636c0 .137-.111.248-.248.248"/></g><g fill="#990050" opacity=".7"><path d="m60.373 72.748c-.137 0-.246-.111-.246-.248v-1.953c0-.137.109-.248.246-.248.139 0 .248.111.248.248v1.953c0 .136-.11.248-.248.248"/><path d="m60.005 72.5h.766"/><path d="m60.509 78.631c-2.084 0-3.781-1.696-3.781-3.781 0-2.086 1.697-3.783 3.781-3.783 1.01 0 1.961.395 2.674 1.108l.246.246-1.066 1.007-.465-.492.547-.516c-.547-.438-1.223-.677-1.936-.677-1.713 0-3.105 1.394-3.105 3.106s1.393 3.104 3.105 3.104"/><path d="m62.408 76.689-.486-.471c.357-.369.555-.855.555-1.368 0-.537-.211-1.038-.596-1.412l-.254-.246.271-.256.23.245.223-.228c.518.502.801 1.176.801 1.896 0 .691-.264 1.344-.744 1.84"/><path d="m60.509 75.964c-.615 0-1.115-.5-1.115-1.114 0-.615.5-1.116 1.115-1.116s1.115.501 1.115 1.116c.001.614-.499 1.114-1.115 1.114m0-1.554c-.242 0-.439.197-.439.44 0 .242.197.438.439.438s.439-.196.439-.438c.001-.243-.197-.44-.439-.44"/><path d="m62.945 72.415-1.965 1.815"/><path d="m61.624 71.984h.676v2.677h-.676z" transform="matrix(.6791 .734 -.734 .6791 73.7031 -21.9544)"/><path d="m63.39 78.631h-2.943v-.676h2.267v-.614l-2.041-1.536.407-.54 2.31 1.738z"/><path d="m59.201 73.43c-.137 0-.248-.111-.248-.248v-2.636c0-.137.111-.248.248-.248s.248.111.248.248v2.636c0 .137-.112.248-.248.248"/><path d="m68.957 72.748c-.137 0-.248-.111-.248-.248v-1.953c0-.137.111-.248.248-.248s.248.111.248.248v1.953c0 .136-.112.248-.248.248"/><path d="m68.587 72.5h.766"/><path d="m69.093 78.631c-2.086 0-3.783-1.696-3.783-3.781 0-2.086 1.697-3.783 3.783-3.783 1.01 0 1.959.395 2.674 1.108l.246.246-1.068 1.007-.463-.492.547-.516c-.549-.438-1.225-.677-1.936-.677-1.713 0-3.107 1.394-3.107 3.106s1.395 3.104 3.107 3.104"/><path d="m70.99 76.689-.484-.471c.357-.369.555-.855.555-1.368 0-.537-.213-1.038-.598-1.412l-.252-.246.271-.256.23.245.223-.228c.516.502.801 1.176.801 1.896 0 .691-.266 1.344-.746 1.84"/><path d="m69.093 75.964c-.615 0-1.117-.5-1.117-1.114 0-.615.502-1.116 1.117-1.116s1.113.501 1.113 1.116c.001.614-.498 1.114-1.113 1.114m0-1.554c-.242 0-.439.197-.439.44 0 .242.197.438.439.438s.439-.196.439-.438c.001-.243-.197-.44-.439-.44"/><path d="m71.527 72.415-1.965 1.815"/><path d="m70.207 71.985h.675v2.675h-.675z" transform="matrix(.6776 .7355 -.7355 .6776 76.6727 -28.2411)"/><path d="m71.972 78.631h-2.941v-.676h2.265v-.614l-2.041-1.536.409-.54 2.308 1.738z"/><path d="m67.783 73.43c-.137 0-.248-.111-.248-.248v-2.636c0-.137.111-.248.248-.248.139 0 .248.111.248.248v2.636c0 .137-.11.248-.248.248"/><path d="m77.539 72.748c-.137 0-.246-.111-.246-.248v-1.953c0-.137.109-.248.246-.248.139 0 .248.111.248.248v1.953c0 .136-.11.248-.248.248"/><path d="m77.171 72.5h.766"/><path d="m77.675 78.631c-2.084 0-3.781-1.696-3.781-3.781 0-2.086 1.697-3.783 3.781-3.783 1.01 0 1.961.395 2.674 1.108l.246.246-1.066 1.007-.465-.492.547-.516c-.547-.438-1.223-.677-1.936-.677-1.713 0-3.105 1.394-3.105 3.106s1.393 3.104 3.105 3.104"/><path d="m79.574 76.689-.486-.471c.357-.369.555-.855.555-1.368 0-.537-.211-1.038-.596-1.412l-.254-.246.271-.256.23.245.223-.228c.518.502.801 1.176.801 1.896 0 .691-.264 1.344-.744 1.84"/><path d="m77.675 75.964c-.615 0-1.115-.5-1.115-1.114 0-.615.5-1.116 1.115-1.116s1.115.501 1.115 1.116c.001.614-.499 1.114-1.115 1.114m0-1.554c-.242 0-.439.197-.439.44 0 .242.197.438.439.438s.439-.196.439-.438c.001-.243-.197-.44-.439-.44"/><path d="m80.111 72.415-1.965 1.815"/><path d="m78.79 71.984h.676v2.677h-.676z" transform="matrix(.6791 .734 -.734 .6791 79.2113 -34.5548)"/><path d="m80.556 78.631h-2.943v-.676h2.267v-.614l-2.041-1.536.407-.54 2.31 1.738z"/><path d="m76.367 73.43c-.137 0-.248-.111-.248-.248v-2.636c0-.137.111-.248.248-.248s.248.111.248.248v2.636c0 .137-.112.248-.248.248"/><path d="m86.123 72.748c-.137 0-.248-.111-.248-.248v-1.953c0-.137.111-.248.248-.248s.248.111.248.248v1.953c0 .136-.112.248-.248.248"/><path d="m85.753 72.5h.766"/><path d="m86.259 78.631c-2.086 0-3.783-1.696-3.783-3.781 0-2.086 1.697-3.783 3.783-3.783 1.01 0 1.959.395 2.674 1.108l.246.246-1.068 1.007-.463-.492.547-.516c-.549-.438-1.225-.677-1.936-.677-1.713 0-3.107 1.394-3.107 3.106s1.395 3.104 3.107 3.104"/><path d="m88.156 76.689-.484-.471c.357-.369.555-.855.555-1.368 0-.537-.213-1.038-.598-1.412l-.252-.246.271-.256.23.245.223-.228c.516.502.801 1.176.801 1.896 0 .691-.266 1.344-.746 1.84"/><path d="m86.259 75.964c-.615 0-1.117-.5-1.117-1.114 0-.615.502-1.116 1.117-1.116s1.113.501 1.113 1.116c.001.614-.497 1.114-1.113 1.114m0-1.554c-.242 0-.439.197-.439.44 0 .242.197.438.439.438s.439-.196.439-.438c.001-.243-.197-.44-.439-.44"/><path d="m88.693 72.415-1.965 1.815"/><path d="m87.373 71.985h.675v2.675h-.675z" transform="matrix(.6776 .7355 -.7355 .6776 82.2078 -40.8662)"/><path d="m89.138 78.631h-2.941v-.676h2.265v-.614l-2.041-1.536.409-.54 2.308 1.738z"/><path d="m84.949 73.43c-.137 0-.248-.111-.248-.248v-2.636c0-.137.111-.248.248-.248.139 0 .248.111.248.248v2.636c0 .137-.11.248-.248.248"/><path d="m94.705 72.748c-.137 0-.246-.111-.246-.248v-1.953c0-.137.109-.248.246-.248.139 0 .248.111.248.248v1.953c0 .136-.11.248-.248.248"/><path d="m94.337 72.5h.766"/><path d="m94.841 78.631c-2.084 0-3.781-1.696-3.781-3.781 0-2.086 1.697-3.783 3.781-3.783 1.01 0 1.961.395 2.674 1.108l.246.246-1.066 1.007-.465-.492.547-.516c-.547-.438-1.223-.677-1.936-.677-1.713 0-3.105 1.394-3.105 3.106s1.393 3.104 3.105 3.104"/><path d="m96.74 76.689-.486-.471c.357-.369.555-.855.555-1.368 0-.537-.211-1.038-.596-1.412l-.254-.246.271-.256.23.245.223-.228c.518.502.801 1.176.801 1.896 0 .691-.264 1.344-.744 1.84"/><path d="m94.841 75.964c-.615 0-1.115-.5-1.115-1.114 0-.615.5-1.116 1.115-1.116s1.115.501 1.115 1.116c.001.614-.499 1.114-1.115 1.114m0-1.554c-.242 0-.439.197-.439.44 0 .242.197.438.439.438s.439-.196.439-.438c.001-.243-.197-.44-.439-.44"/><path d="m97.277 72.415-1.965 1.815"/><path d="m95.957 71.984h.676v2.677h-.676z" transform="matrix(.6791 .734 -.734 .6791 84.7195 -47.1551)"/><path d="m97.722 78.631h-2.943v-.676h2.267v-.614l-2.041-1.536.407-.54 2.31 1.738z"/><path d="m93.533 73.43c-.137 0-.248-.111-.248-.248v-2.636c0-.137.111-.248.248-.248s.248.111.248.248v2.636c0 .137-.112.248-.248.248"/></g><circle cx="69.137" cy="62.658" fill="url(#d)" r="1.235"/><circle cx="64.113" cy="60.388" fill="url(#e)" r="1.711"/><circle cx="45.295" cy="60.781" fill="url(#f)" r="2.138"/><circle cx="71.917" cy="54.925" fill="url(#g)" r=".808"/><circle cx="69.067" cy="53.357" fill="url(#h)" r=".808"/><circle cx="48.336" cy="55.09" fill="url(#i)" r=".808"/><circle cx="43.704" cy="55.019" fill="url(#j)" r=".808"/><circle cx="40.104" cy="51.562" fill="url(#k)" r="1.235"/><circle cx="47.089" cy="44.22" fill="url(#l)" r=".807"/><circle cx="64.682" cy="50.398" fill="url(#m)" r="1.378"/><circle cx="63.578" cy="47.083" fill="url(#n)" r=".807"/><circle cx="68.709" cy="57.954" fill="url(#o)" r="1.235"/><circle cx="46.221" cy="49.579" fill="url(#p)" r="1.235"/><circle cx="73.176" cy="49.923" fill="url(#q)" r=".808"/><circle cx="64.184" cy="54.14" fill="url(#r)" r="1.235"/><circle cx="38.75" cy="57.371" fill="url(#s)" r="1.235"/><path d="m102.058 82.695v8.58l-.01.01-1.42.811-4.15 2.389-.199.121-1.93 1.109-2.721 1.57-.24.13-.129.05-.111.07-3.029 1.74-.82.47-1.049.601-.041.029-1.23.71-.449.261-.01.01-.01.01h-.01l-1.541.89-.869.521-1.26.72-.121.069-.08.051-.41.24-.029.01-.16.09v.01l-.779.45-.182.09-.02.021-.039.02-1.01.58-.291.17-.369.21-.24.14h-.01l-.711.42-4.619 2.67-.631.361-.061.029-3.5 2.029-4.039 2.33-.01.011-.43.25-5.711 3.29-.561.32h-.01l-.32.189-.25.15-.369.05-1.279-.74-.852-.489-.029-.011-1.74-1.01-3.529-2.04-.041-.03-2.068-1.19-5.361-3.109-.689-.391-5.09-2.949-.391-.221-.49-.279-.33-.2-1.85-1.06-.57-.33-1.709-.99-2.51-1.46-2.09-1.2-.82-.47-.09-.05-.5-.291-.01-.01-.211-.119h-.01l-1.041-.601c-.01-.01-.01-.01-.02-.01l-1.859-1.08-1.02-.59-2.111-1.229-.289-.171s-.01 0-.02-.01l-.281-.16-3.299-1.899-3.5-2.021-.08-.04-.031-.02v-7.088z" fill="#c90262"/><path d="m87.289 95.154-36.551 17.48-2.03.971-2.619-1.51-26.121-15.07-1.42-.82 1.84-1.08 6.34-3.75 9.17 6.79z" fill="#990050"/><path d="m26.585 91.609 6.842 9.504 53.981-5.609-51.51 2.658z" fill="#600037"/><path d="m33 71.175 3.803.049 1.283.236-.143 19.482.713.666.094 1.662-2.945.998-.381.285.049 3.564-8.744-6.748-.047-2.423 1.426-.095 1.377.095.049-1.806s1.377.143 1.662.189c.285.048 1.234 0 1.234 0v-15.68z" fill="#212121"/><path d="m37.679 71.318.576 20.148.096 2.09-3.021.928-.073 3.136 52.955-2.495.432-3.136-2.59.071-.504-2.779-4.965-.785-.503-17.391z" fill="#595959"/><path d="m36.968 66.708-.428 4.277 36.992.355-.07-4.918c0 .001-15.966-4.418-36.494.286z" fill="url(#t)"/><path d="m72.667 69.756c-5.471-1.123-11.627-.17-17.178-.078-5.783.095-12.166.563-16.967-3.109-.084-.065-.199-.042-.273.021-.098.008-.191.033-.277.076-.322-.134-.766-.031-.838.357-.02.111-.025.234-.037.352-.152.093-.273.233-.305.432-.105.645-.199 1.3-.086 1.945-.008.098-.01.196-.02.295-.035.334.236.587.518.695.684.265 1.35.203 2.027.101 1.16.378 2.365.4 3.588.358.23-.008.4-.111.516-.254.029.004.055.014.08.016.295.033.494-.102.594-.297.012-.004.023-.008.037-.01.096 0 .189.02.287.014.109-.005.207-.045.297-.098 2.252.395 4.637.401 6.563.455 3.336.092 6.693.063 10.031.014 3.582-.055 7.496-.551 11.037.176.949.195 1.365-1.263.406-1.461z" fill="#875607"/><path d="m67.226 89.517c-4.039 0-7.912-.109-11.725-.965-.061-.025-.125-.039-.195-.043-1.615-.373-3.219-.869-4.818-1.57-3.057-1.342-5.113-3.258-7.107-5.896-1.457-1.924-2.904-6.927-1.357-9.199.414-.609-.574-1.18-.986-.576-.088.131-.148.283-.219.428-.033-.016-.061-.038-.1-.047-.047-.013-.094-.024-.143-.036-.104-.026-.205-.015-.301.013-.369-.001-.668.05-.918.137-.094-.144-.215-.268-.385-.36-.266-.145-.67-.029-.734.299-.035.176-.055.328-.061.508-.006.219.109.357.26.428-.379.915-.182 2.326-.328 3.708-.254 2.398-.082 4.83.143 7.223.156 1.672.443 2.93.162 4.66-.131.81-.354 1.428-.34 2.254.004.354.361.67.721.549.738-.245 1.563-.368 2.414-.43.07.012.127.027.205.038.145.021.268-.015.375-.073 1.566-.061 3.197.064 4.605.094 1.578.034 3.123.086 4.701-.033.352-.027.697-.078 1.043-.134l.094-.003c.119.09.277.141.461.113.4-.056.795-.125 1.189-.193.092.022.184.045.275.067.016.238.172.472.479.482.467.017.852-.175 1.256-.382.08.101.201.171.369.174.682.014 1.334.089 1.961-.235.119-.062.178-.179.209-.306 2.883.363 5.832.449 8.795.449.734-.002.734-1.143 0-1.143z" fill="#2d2d2d"/><path d="m50.705 96.921c-.281-.883-.809-1.68-.463-2.619.254-.691-.85-.988-1.102-.303-.01.027-.012.055-.023.084-.08-.033-.158-.055-.238-.083-.086-.159-.238-.289-.471-.313-.414-.052-.83-.088-1.246-.107-.076-.004-.143.008-.205.031-.336-.559-.531-1.266-.23-1.881.324-.658-.66-1.236-.984-.576-.092.189-.141.385-.188.581-.031-.008-.064-.015-.096-.022-.021-.082-.045-.162-.064-.244-.16-.65-1.076-.451-1.107.128-.025.013-.051.023-.074.04-.191-.025-.385-.055-.58-.07-.574-.047-1.18.039-1.779.113-.066-.148-.178-.277-.35-.324-.682-.186-1.385-.117-1.918.22-.293-.069-.658.075-.709.393-.043.272-.072.518-.092.793-.002.046.01.081.016.12-.08.15-.104.332-.008.524l.107.214c.16.32.658.377.895.115.023-.025.031-.049.051-.074.422.123.914.029 1.334.023 1.16-.014 2.5.213 3.574-.33.018.031.045.057.063.088.229.362.617.328.852.113.045.117.109.227.164.34-.084.011-.164.016-.248.027-.111.016-.193.072-.26.145-.102-.041-.217-.063-.346-.037-.385.076-.758.154-1.135.232-.053-.188-.203-.345-.457-.345h-2.418c-.279 0-.43.188-.467.399-1.289-.012-2.551.081-3.477.383-.043-.043-.094-.084-.164-.114-.082-.036-.166-.071-.248-.106-.516-.221-1.059.236-.781.779.02.039.045.064.064.1-.463.516-.486 1.264.191 2.328.223.35.773.391.986 0 .023-.044.025-.078.041-.118.01-.002.018.001.027-.002.121-.035.232-.09.35-.137.432.269 1.244.271 1.488.304.607.08 1.35-.1 2.029-.271 1.865.164 3.854.194 5.553-.408.086-.031.154-.082.213-.141.635.16 1.27.295 1.951.268.268-.011.441-.187.512-.396.07.024.146.031.221.026.049.139.1.271.145.414.224.697 1.325.4 1.101-.304z" fill="#2d2d2d"/><path d="m38.296 91.961c-.91-.248-1.584-1.003-2.324-1.546-.066-.051-.133-.076-.199-.092-.057-.201-.105-.404-.15-.607.006-.003.012-.006.02-.008.254.16.516.31.783.438.213.625 1.105.426 1.102-.164.283-.082.523-.406.455-.723-.16-.748-.367-1.48-.561-2.215.465.289 1.078-.413.662-.924-3.4-4.184-3.836-9.02-3.182-14.209.082-.667-.859-.708-1.09-.158-.002 0-.002.001-.004.001-.172-.3-.578-.467-.879-.139-.447.492-.297 1.62-.314 2.224-.025.973-.029 1.945-.029 2.92 0 .195.082.336.201.427-.229 1.706-.27 3.642.086 5.286-.098 1.564-.23 3.148-.127 4.684-.086.135-.188.227-.313.244-.65.09-.473 1.119.152 1.119h.711c.006 0 .01-.004.014-.004.338.343.68.688 1.064.924.086.289.156.576.229.862-.486-.261-.959-.565-1.441-.8-.809-.395-1.637-.85-2.24-1.527-.49-.551-1.293.258-.807.807.672.755 1.582 1.254 2.473 1.705.914.465 1.795 1.127 2.803 1.363.18.041.33-.014.455-.1.662.53 1.303 1.08 2.148 1.311.709.195 1.009-.906.302-1.099z" fill="#161616"/><path d="m35.625 95.601c-.031-.029-.068-.053-.102-.082.268-.27.26-.805-.221-.956-.678-.163-1.086-.939-1.74-1.216-.967-.405-1.859-.999-2.848-1.332-.963-.785-1.918-1.568-2.975-2.242-.621-.396-1.193.591-.574.984 1.1.703 2.098 1.525 3.1 2.347.699.753 1.572 1.271 2.277 2.019.686.725 1.234 1.506 2.178 1.908.482.205.893-.158.828-.578.262-.196.338-.623.077-.852z" fill="#161616"/><path d="m80.779 81.483c-.188-2-.473-4.045-.902-6.017.309.032.625-.142.594-.537-.051-.648-.17-1.287-.27-1.93.127-.119.201-.289.209-.453.605-.239.309-1.235-.375-1.064-.416.103-.857-.02-1.275-.068-.086-.012-.16-.002-.227.02-.314-.109-.703.049-.768.371-2.244-.191-4.518-.207-6.756-.367-3.471-.248-6.977-.468-10.449-.547-.736-.016-.732 1.124 0 1.141 2.807.064 5.652.227 8.459.407 2.967.19 6.055.19 9.037.517 1.191 3.822 1.693 8.272 1.844 12.191.02.479.502.634.832.482-.174-1.376-.162-2.777.047-4.146z" fill="#e8e8e8"/><path d="m87.777 93.813c.096-.002.197-.015.303-.04.348-.08.539-.535.342-.837-.012-.016-.023-.029-.033-.045.02-.089.025-.179.002-.267-.002-.009-.004-.018-.006-.027-.098-.374-.443-.463-.729-.365-.033.008-.066.013-.102.019-.063-.048-.125-.097-.193-.137-.174-.1-.352-.092-.502-.024-.133-.057-.254-.13-.395-.176-.445-.146-.725.244-.691.607-.102-.044-.209-.078-.313-.119.02-.114.006-.24-.082-.369-.09-.137-.197-.252-.299-.373.363-.002.627-.41.518-.76.01-.137-.031-.279-.164-.408-.271-.264-.594-.391-.951-.406-.381-.205-.768-.4-1.16-.585-.367-.172-.701.055-.818.343-.441-.193-.898-.369-1.361-.543-.689-.258-.984.846-.303 1.1 1.035.387 2.098.762 2.914 1.486-.455-.103-.914-.189-1.375-.258-.721-.105-1.029.994-.305 1.1 2.016.295 4.045.792 5.404 2.42.473.564 1.273-.246.807-.807-.16-.192-.332-.364-.508-.529z" fill="#f3feff"/><path d="m73.693 67.798c-.588-.938-1.762-1.459-2.811-1.687-.342-.074-.586.138-.674.396-.299-.145-.604-.25-.951-.273-.094-.007-.176.007-.244.035-.391-.165-.799-.298-1.191-.41-1.318-.378-2.652-.801-4.029-.861-.314-.014-.484.187-.531.421-.047-.056-.094-.114-.18-.153-.369-.166-.746-.279-1.135-.389-.32-.091-.549.088-.648.326-1.521-.547-3.234-.584-4.871-.585-.736-.001-.736 1.14 0 1.141 2.113.001 4.514-.05 6.154 1.496.533.504 1.342-.302.807-.806-.1-.094-.209-.164-.313-.248.127-.084.209-.212.254-.347.086.154.236.274.463.284 1.199.053 2.303.47 3.459.75.844.205 1.809.465 2.363 1.174.367.471.953.021.926-.471.1-.086.16-.21.191-.34.717.172 1.58.492 1.977 1.123.388.622 1.376.05.984-.576z" fill="#fffed2"/><path d="m55.81 66.453c.277-.172.445-.581.164-.907-.361-.421-.834-.622-1.344-.812-.434-.163-.711.213-.688.578-1.561-.742-3.328-1.056-4.932-.332-.262.119-.328.34-.277.549-.203-.217-.42-.309-.646-.342-.035-.025-.066-.055-.111-.073-.855-.35-1.84.095-2.717.122-.307.01-.477.212-.529.443-.799-.026-1.607-.02-2.416-.063-.734-.041-.732 1.1 0 1.14 1.977.108 4.027-.22 5.795.872.627.389 1.199-.599.574-.984-.084-.052-.17-.086-.254-.132.295-.067.531-.388.455-.712.162.185.422.292.701.165 1.883-.849 4.162.323 5.65 1.474.582.449 1.148-.542.574-.984.001 0 .001-.001.001-.002z" fill="#fffed2"/><path d="m30.199 35.504 7.697 30.696s16.916-4.275 35.543.096l7.129-30.602c0 .001-18.152-15.3-50.369-.19z" fill="url(#u)"/><path d="m45.886 90.958c-1.104.045-2.014.651-3.141.519-.523-.062-1.393.033-1.217-.064.936-.07 1.875-.345 2.645-.677l.012-.003c0-.001 0-.001 0-.001.039-.018.082-.033.119-.05.551-.248.135-1.011-.385-.914-.414.077-1.947.23-2.932.673-.775-.011-1.463-.229-1.734-.888-.68-1.644-.359-3.426-.326-5.136.014-.646-.986-.644-1 0-.027 1.358-.342 2.678.061 4.003.232.769.188 1.926.938 2.435.361.246.775.399 1.213.487-.002.07.004.142.023.218.174.633 1.355.733 1.826.818 1.309.237 2.111-.166 3.199-.344-.623 1.69-1.82 2.149-3.744 2.278-.828.056-1.789.122-2.717.097-.029-.22-.178-.404-.465-.367-.482.083-.969.125-1.459.125-.559.024-.688.824-.133.982 2.084.593 4.869.302 6.975-.125 1.799-.365 2.326-1.756 2.725-3.434.072-.304-.147-.646-.483-.632z" fill="#2d2d2d"/><g fill="#0f0f0f"><path d="m38.812 91.785c15.577-.498 31.153-.992 46.73-1.49.644-.021.646-1.021 0-1-15.577.498-31.154.992-46.73 1.49-.643.02-.645 1.02 0 1z"/><path d="m38.06 91.324v1.9c0 .645 1 .645 1 0 0-.634 0-1.267 0-1.9 0-.645-1-.645-1 0z"/><path d="m35.445 94.643c17.609-.706 35.215-1.471 52.822-2.21.643-.027.646-1.027 0-1-17.607.739-35.213 1.504-52.822 2.21-.643.025-.645 1.026 0 1z"/><path d="m35.56 98.535c17.597-.978 35.188-2.037 52.781-3.055.641-.037.645-1.037 0-1-17.593 1.018-35.185 2.077-52.781 3.055-.641.035-.644 1.036 0 1z"/><path d="m35.972 98.024c0-1.156 0-2.313 0-3.47 0-.645-1-.645-1 0v3.47c0 .644 1 .644 1 0z"/><path d="m27.431 91.091c0-.616 0-1.231 0-1.848 0-.645-1-.645-1 0v1.848c0 .645 1 .645 1 0z"/><path d="m29.945 88.667c0-.343 0-.685 0-1.027 0-.645-1-.645-1 0v1.027c0 .645 1 .645 1 0z"/><path d="m88.882 94.912c0-.975 0-1.948 0-2.923 0-.645-1-.645-1 0v2.923c0 .644 1 .644 1 0z"/><path d="m86.269 91.917c0-.721 0-1.441 0-2.162 0-.645-1-.645-1 0v2.162c0 .645 1 .645 1 0z"/><path d="m26.642 89.545c2.789 1.727 5.577 3.452 8.365 5.179.55.341 1.052-.524.505-.863-2.789-1.727-5.577-3.453-8.365-5.179-.551-.341-1.052.525-.505.863z"/><path d="m28.995 89.289c2.916 1.502 5.831 3.003 8.746 4.505.572.295 1.078-.568.505-.863-2.916-1.502-5.831-3.003-8.746-4.505-.572-.296-1.078.568-.505.863z"/><path d="m35.802 97.742c-2.819-2.266-5.639-4.53-8.459-6.795-.498-.399-1.21.303-.707.707 2.82 2.265 5.639 4.53 8.459 6.795.498.399 1.21-.303.707-.707z"/><path d="m29.233 87.763c3.001 1.346 6.003 2.692 9.004 4.039.583.262 1.092-.6.505-.863-3.001-1.347-6.002-2.693-9.004-4.039-.583-.262-1.092.6-.505.863z"/><path d="m26.865 89.441h2.584c.645 0 .645-1 0-1-.861 0-1.723 0-2.584 0-.645 0-.645 1 0 1z"/><path d="m29.484 87.857h2.613c.645 0 .645-1 0-1-.871 0-1.742 0-2.613 0-.645 0-.645 1 0 1z"/><path d="m32.931 87.379c0-5.354 0-10.708 0-16.062 0-.645-1-.645-1 0v16.062c0 .645 1 .645 1 0z"/><path d="m37.753 70.675c-1.774 0-3.548 0-5.322 0-.645 0-.645 1 0 1h5.322c.645 0 .645-1 0-1z"/><path d="m38.443 90.563c0-6.415 0-12.83 0-19.245 0-.645-1-.645-1 0v19.245c0 .645 1 .645 1 0z"/><path d="m37.884 71.748h42.338c.645 0 .645-1 0-1-14.112 0-28.225 0-42.338 0-.645 0-.645 1 0 1z"/><path d="m79.876 71.425v17.57c0 .645 1 .645 1 0 0-5.856 0-11.714 0-17.57 0-.644-1-.644-1 0z"/><path d="m85.591 89.193c-1.472-.312-2.944-.622-4.416-.934-.629-.133-.896.831-.266.965 1.472.312 2.944.622 4.416.934.63.133.897-.831.266-.965z"/><path d="m80.851 89.828c.645 0 .645-1 0-1s-.644 1 0 1z"/><path d="m37.111 70.701c0-1.331 0-2.661 0-3.992 0-.645-1-.645-1 0v3.992c0 .644 1 .644 1 0z"/></g><path d="m36.742 66.734s16.299-4.8 36.779-.143" fill="none" stroke="#0f0f0f" stroke-miterlimit="10"/><path d="m72.998 66.591v4.264c0 .645 1 .645 1 0 0-1.421 0-2.843 0-4.264 0-.644-1-.644-1 0z" fill="#0f0f0f"/><path d="m42.529 70.796c0-1.647 0-3.295 0-4.942 0-.645-1-.645-1 0v4.942c0 .645 1 .645 1 0z" fill="#0f0f0f"/><path d="m49.181 70.796c0-1.838 0-3.675 0-5.513 0-.645-1-.645-1 0v5.513c0 .645 1 .645 1 0z" fill="#0f0f0f"/><path d="m56.453 70.796c0-1.838 0-3.675 0-5.513 0-.645-1-.645-1 0v5.513c0 .645 1 .645 1 0z" fill="#0f0f0f"/><path d="m63.722 70.796c0-1.838 0-3.675 0-5.513 0-.645-1-.645-1 0v5.513c0 .645 1 .645 1 0z" fill="#0f0f0f"/><path d="m70.994 70.796c0-1.521 0-3.042 0-4.563 0-.645-1-.645-1 0v4.563c0 .645 1 .645 1 0z" fill="#0f0f0f"/><g enable-background="new"><g clip-path="url(#v)" enable-background="new"><path d="m60.902 37.252-3.848 1.167c.016-.006.033-.011.051-.016l3.848-1.168c-.018.007-.036.012-.051.017" fill="#8a8600"/><path d="m60.953 37.236-3.848 1.168c.307-.098.564-.212.773-.343 1.473-.912 2.23-2.398 2.256-4.468.016-1.602-.496-2.908-1.553-3.923l3.848-1.167c1.057 1.015 1.568 2.321 1.553 3.923-.025 2.069-.783 3.556-2.256 4.468-.209.131-.467.245-.773.342" fill="#7f4e00"/></g><g clip-path="url(#w)" enable-background="new"><path d="m62.429 28.503-3.848 1.167c-1.02-1.021-2.357-1.547-4.016-1.584-.816-.01-1.531.079-2.148.267l3.848-1.167c.617-.188 1.332-.276 2.148-.267 1.659.038 2.997.563 4.016 1.584" fill="#7f4e00"/></g><g clip-path="url(#x)" enable-background="new"><path d="m62.46 53.55-3.848 1.167c1.209-1.232 1.826-2.794 1.848-4.702.033-2.519-.846-4.32-2.617-5.412-1.008-.609-2.563-.941-4.658-.988-.063-.001-.123-.003-.188-.004l3.848-1.167c.064.001.125.003.188.004 2.096.047 3.65.379 4.658.987 1.771 1.093 2.65 2.895 2.617 5.413-.021 1.908-.639 3.47-1.848 4.702" fill="#7f4e00"/></g><path d="m56.845 42.444-3.847 1.167.064-4.813 3.848-1.168z" fill="#7f4e00"/><g clip-path="url(#y)" enable-background="new"><path d="m60.011 55.017-3.848 1.167c.021-.007.043-.013.063-.02l3.848-1.167c-.02.007-.041.013-.063.02" fill="#8a8600"/><path d="m60.074 54.998-3.848 1.167c.902-.284 1.693-.768 2.387-1.447l3.848-1.167c-.694.679-1.485 1.162-2.387 1.447" fill="#7f4e00"/></g><g clip-path="url(#z)" enable-background="new"><path d="m47.246 31.825-3.848 1.167c.629-3.514 1.848-6.078 3.668-7.685.904-.799 1.98-1.396 3.23-1.789l3.848-1.167c-1.25.394-2.326.99-3.23 1.789-1.821 1.607-3.039 4.171-3.668 7.685" fill="#7f4e00"/><path d="m54.144 22.351-3.848 1.167c.035-.011.072-.022.107-.033l3.848-1.167c-.035.011-.072.022-.107.033" fill="#8a8600"/></g><path d="m52.853 31.906-3.848 1.167-5.607-.081 3.848-1.167z" fill="#5b3600"/><g clip-path="url(#A)" enable-background="new"><path d="m61.964 59.86-3.848 1.167c-1.318.4-2.758.589-4.322.565-.061-.001-.121-.003-.18-.004-4.404-.1-7.656-1.802-9.758-5.099-.887-1.405-1.43-3.335-1.641-5.787l3.848-1.167c.211 2.452.754 4.382 1.641 5.787 2.102 3.297 5.354 4.999 9.758 5.099.059.001.119.003.18.004 1.565.024 3.004-.165 4.322-.565" fill="#5b3600"/></g><path d="m58.511 21.783c3.314.074 5.938 1.078 7.953 3.023 2.041 1.954 3.039 4.441 2.996 7.482-.035 3.419-1.428 6.061-4.148 7.935 3.066 1.869 4.574 4.854 4.518 8.948-.041 3.355-1.203 6.084-3.48 8.183-2.277 2.1-5.18 3.123-8.707 3.071-.061-.001-.121-.003-.18-.004-4.404-.1-7.656-1.802-9.758-5.099-.887-1.405-1.43-3.335-1.641-5.787l5.43.077c.266 1.815.957 3.208 2.059 4.187 1.1.96 2.535 1.462 4.314 1.501 1.873.024 3.385-.563 4.594-1.75 1.209-1.232 1.826-2.794 1.848-4.702.033-2.519-.846-4.32-2.617-5.413-1.008-.608-2.563-.94-4.658-.987-.063-.001-.123-.003-.188-.004l.064-4.813c2.387.036 3.988-.215 4.816-.736 1.473-.912 2.23-2.398 2.256-4.468.016-1.602-.496-2.908-1.553-3.923-1.02-1.021-2.357-1.547-4.016-1.584-1.605-.019-2.816.342-3.676 1.087-.832.765-1.461 2.063-1.885 3.899l-5.607-.081c.629-3.514 1.848-6.078 3.668-7.685 1.829-1.614 4.358-2.403 7.598-2.357z" fill="url(#B)"/></g><path d="m50.062 77.186.104 9.857-1.732.019-.105-9.857-2.641.028-.018-1.629 7.008-.074.018 1.629z" fill="#161616"/><path d="m53.712 81.21c-.016-1.617.563-3.012 1.734-4.186 1.168-1.173 2.58-1.768 4.236-1.785 1.637-.017 3.045.553 4.229 1.712 1.188 1.157 1.791 2.557 1.809 4.199.018 1.65-.559 3.059-1.727 4.221-1.174 1.17-2.598 1.762-4.273 1.779-1.482.016-2.82-.482-4.012-1.498-1.31-1.121-1.976-2.602-1.996-4.442zm1.748.003c.014 1.271.451 2.311 1.313 3.119.857.811 1.842 1.209 2.951 1.197 1.207-.013 2.219-.44 3.037-1.282.82-.853 1.223-1.884 1.211-3.093-.014-1.225-.434-2.248-1.262-3.068-.82-.824-1.832-1.23-3.031-1.217-1.195.012-2.201.439-3.016 1.281-.814.833-1.214 1.854-1.203 3.063z" fill="#161616"/><path d="m69.644 82.172.049 4.666-1.732.018-.122-11.486 1.963-.021c.963-.011 1.689.048 2.184.177.496.13.936.378 1.316.745.666.639 1.006 1.448 1.016 2.431.012 1.051-.332 1.888-1.031 2.511-.697.622-1.645.938-2.84.952zm-.018-1.605.648-.008c1.592-.017 2.381-.637 2.367-1.863-.012-1.184-.838-1.768-2.48-1.751l-.572.007z" fill="#161616"/><path d="m50.978 76.333.105 9.857-1.734.019-.104-9.857-2.643.027-.018-1.629 7.008-.073.018 1.629z" fill="url(#C)"/><path d="m54.63 80.358c-.018-1.617.561-3.012 1.732-4.186 1.168-1.172 2.582-1.768 4.238-1.785 1.637-.018 3.045.553 4.229 1.711 1.188 1.158 1.789 2.559 1.807 4.199.018 1.652-.557 3.06-1.727 4.223-1.172 1.168-2.596 1.761-4.271 1.778-1.484.016-2.822-.483-4.012-1.498-1.312-1.122-1.976-2.602-1.996-4.442zm1.748.004c.014 1.27.451 2.309 1.313 3.119.857.809 1.84 1.208 2.951 1.196 1.205-.013 2.219-.44 3.037-1.282.818-.853 1.223-1.883 1.209-3.094-.014-1.225-.434-2.247-1.26-3.066-.822-.824-1.832-1.23-3.033-1.219-1.195.013-2.199.44-3.014 1.282-.816.832-1.216 1.853-1.203 3.064z" fill="url(#D)"/><path d="m70.56 81.321.051 4.664-1.734.019-.121-11.486 1.963-.021c.963-.01 1.691.049 2.184.177.496.13.936.378 1.316.745.668.639 1.006 1.449 1.016 2.43.012 1.053-.332 1.889-1.029 2.512s-1.645.939-2.84.951zm-.016-1.608.646-.006c1.592-.018 2.381-.639 2.369-1.863-.014-1.186-.84-1.77-2.48-1.752l-.574.006z" fill="url(#E)"/><path d="m56.029 11.575-46.07 26.56v53.12l8.59 4.95 1.42.82 26.121 15.07 2.619 1.51 1.57.899 5.52 3.181.23.129.689-.399 15.311-8.819 30.08-17.341v-53.12zm44.209 78.61-29.648 17.09-14.561 8.399-4.689-2.7-.602-.34-2.609-1.51-26.32-15.18-1.42-.82-8.57-4.939v-50.971l44.211-25.49 44.209 25.49v50.971z" opacity=".13"/></svg>