<svg enable-background="new 0 0 110.979 128.417" viewBox="0 0 110.979 128.417" xmlns="http://www.w3.org/2000/svg"><path d="m55.745 128.375-55.339-31.95v-63.899l55.339-31.95 55.338 31.95v63.899z" fill="#0a0f44"/><path d="m55.861 117.334-45.477-26.256v-52.513l45.477-26.256 45.477 26.256v52.512z" fill="#040933"/><path d="m55.743 10.688-46.65 26.895v53.788l46.65 26.892 46.653-26.892v-53.788zm44.764 79.599-44.764 25.809-44.765-25.809v-51.61l44.766-25.809 44.764 25.809v51.61z" fill="#15ffab"/><path d="m10.742 30.138 1.73 3.012-.53.304-1.73-3.012-.807.464-.285-.498 2.141-1.23.286.498z" fill="#fff"/><path d="m12.381 30.258.511-.294.114.198c.037-.153.082-.268.134-.346.053-.08.129-.15.231-.208.135-.078.301-.114.498-.111l.035.602c-.137-.014-.252.006-.344.059-.279.16-.297.451-.055.872l.659 1.148-.512.294z" fill="#fff"/><path d="m15.754 28.32.514-.295 1.272 2.214-.514.295-.133-.232c-.098.318-.267.547-.51.686-.306.176-.623.211-.95.104-.328-.112-.589-.337-.784-.675-.191-.332-.25-.666-.179-1.001s.256-.589.555-.76c.258-.148.549-.174.876-.08zm-.582 1.798c.122.212.278.352.468.42.194.068.38.051.557-.051.19-.109.305-.262.347-.459.039-.202-.001-.407-.12-.614s-.276-.345-.47-.413c-.193-.065-.382-.044-.568.063-.176.101-.284.252-.326.454-.04.201-.002.401.112.6z" fill="#fff"/><path d="m17.188 27.496 1.287.914-.144-1.571.575-.33.209 3.027-2.501-1.711z" fill="#fff"/><path d="m21.974 26.38-1.587.911c.118.174.26.285.427.333.165.046.33.022.494-.072.127-.073.215-.164.264-.272.047-.107.076-.273.086-.497l.57-.007c-.001.152-.016.29-.044.414s-.069.236-.124.337-.124.192-.209.273-.184.154-.3.221c-.33.19-.656.236-.978.139-.323-.099-.586-.325-.788-.678-.201-.35-.267-.689-.197-1.017.073-.326.271-.582.593-.767.326-.187.643-.231.952-.132.306.098.564.33.774.695zm-.766-.117c-.228-.232-.478-.269-.751-.113-.062.036-.115.079-.159.129s-.078.106-.102.167-.038.126-.041.194.005.139.025.212z" fill="#fff"/><path d="m21.405 22.912 2.205 3.839-.512.294-2.205-3.839z" fill="#fff"/><path d="m25.031 21.93 1.73 3.012-.53.304-1.73-3.012-.807.463-.285-.497 2.141-1.23.286.498z" fill="#fff"/><path d="m26.669 22.05.512-.294.113.198c.037-.153.082-.268.134-.346.053-.08.129-.15.231-.208.135-.077.301-.114.499-.111l.035.602c-.137-.014-.252.006-.344.059-.279.16-.298.451-.056.872l.659 1.148-.512.294z" fill="#fff"/><path d="m30.043 20.112.514-.295 1.272 2.214-.514.295-.133-.232c-.098.318-.267.547-.51.686-.306.176-.623.211-.95.104-.328-.112-.589-.337-.784-.675-.191-.332-.25-.665-.179-1.001.071-.335.256-.589.555-.76.258-.148.55-.175.876-.08zm-.582 1.798c.122.212.278.352.468.42.194.068.38.051.557-.051.19-.109.305-.262.347-.459.039-.202-.001-.406-.12-.614s-.276-.346-.47-.414c-.193-.065-.382-.044-.568.064-.176.101-.284.252-.326.453-.04.202-.002.402.112.601z" fill="#fff"/><path d="m32.98 18.552.39.68c-.198-.075-.359-.113-.482-.113-.122-.002-.245.032-.368.102-.193.111-.314.27-.363.478-.05.208-.017.414.1.617.119.208.279.343.478.406.201.062.398.037.59-.073.123-.071.216-.159.28-.266.061-.104.111-.265.148-.484l.388.675c-.146.227-.322.4-.53.519-.343.197-.692.251-1.05.162-.358-.09-.632-.301-.822-.631s-.233-.676-.13-1.037c.103-.362.324-.64.663-.835.218-.127.454-.193.708-.2z" fill="#fff"/><path d="m32.998 16.253 1.345 2.341.309-1.13.686-.394-.427 1.482 1.77.691-.664.381-1.269-.514-.034.129.489.852-.511.294-2.205-3.839z" fill="#fff"/><path d="m36.702 14.564 2.261 1.821-.491-3.065 2.359 1.991-.377-2.903.575-.33.576 4.633-2.331-1.969.489 3.03-3.637-2.878z" fill="#fff"/><path d="m41.507 12.302c-.051-.09-.063-.185-.035-.288s.087-.18.178-.233c.092-.053.19-.065.293-.038.102.026.179.085.232.178.053.092.066.19.038.293-.026.102-.086.179-.178.232s-.19.066-.292.038c-.104-.027-.182-.088-.236-.182zm1.118.583 1.272 2.214-.511.294-1.272-2.214z" fill="#fff"/><path d="m43.272 12.513.514-.295.118.204c.077-.28.228-.484.452-.613.258-.148.505-.182.742-.103.204.067.395.256.574.568l.78 1.357-.514.295-.71-1.236c-.126-.218-.243-.352-.351-.4-.108-.051-.24-.031-.396.058-.17.098-.258.223-.265.376-.006.151.07.364.228.64l.614 1.068-.514.295z" fill="#fff"/><path d="m45.825 11.046.514-.295.118.204c.077-.28.228-.485.452-.613.258-.148.505-.182.742-.103.204.067.395.256.574.568l.78 1.357-.514.295-.71-1.236c-.125-.218-.242-.352-.351-.4-.108-.051-.24-.031-.396.058-.17.098-.258.223-.265.376-.006.151.07.364.229.64l.614 1.068-.514.295z" fill="#fff"/><path d="m51.099 9.649-1.587.911c.118.174.261.285.427.332.165.046.33.022.494-.072.128-.073.215-.164.264-.272.047-.107.076-.273.086-.497l.57-.007c-.001.152-.016.29-.044.414s-.069.236-.124.337-.124.192-.209.273-.184.154-.3.221c-.33.19-.656.236-.978.139-.323-.099-.586-.325-.788-.678-.201-.35-.267-.689-.197-1.017.073-.326.271-.582.593-.767.326-.187.643-.231.952-.132.306.098.564.33.774.695zm-.765-.116c-.228-.232-.478-.269-.751-.113-.062.036-.115.079-.159.129s-.078.106-.102.167-.038.126-.041.194.005.139.025.213z" fill="#fff"/><path d="m50.954 8.101.511-.294.114.198c.037-.152.082-.268.134-.346.053-.08.13-.15.231-.208.135-.078.301-.114.499-.111l.035.603c-.137-.014-.252.006-.344.059-.279.16-.297.451-.055.872l.659 1.148-.511.294z" fill="#fff"/><path d="m72.877 66.44c.016.141.038.282.07.422.02-.161.037-.323.052-.485-.038.027-.079.048-.122.063z" fill="#fecd2e"/><path d="m72.351 67.487c-.078.474-.176.942-.293 1.402.168.009.337.041.491.101.145-.576.263-1.162.349-1.759-.11.187-.341.286-.547.256z" fill="#fecd2e"/><path d="m55.76 47.94c7.595 0 14.027 5.064 16.105 11.991h.523c-2.094-7.208-8.754-12.492-16.628-12.492-9.548 0-17.315 7.768-17.315 17.315 0 9.548 7.768 17.316 17.315 17.316 2.401 0 4.688-.493 6.768-1.38h-1.407c-1.685.568-3.487.879-5.361.879-9.271 0-16.814-7.543-16.814-16.814 0-9.273 7.542-16.815 16.814-16.815z" fill="#fecd2e"/><path d="m71.517 70.617c-1.337 3.581-3.862 6.586-7.092 8.537h.679c.074 0 .139.015.196.038 3.09-2.048 5.489-5.058 6.761-8.603-.154.104-.384.127-.544.028z" fill="#fecd2e"/><path d="m62.178 73.874c.007-.042.015-.084.023-.125-.038.005-.076.005-.114 0-.318.207-.747-.016-1.032-.173-.638-.352-1.256-.894-1.666-1.497-.248-.364-.427-.767-.556-1.191-.195-.049-.383-.113-.554-.203-.045-.008-.09-.018-.135-.026.043.182.091.362.147.54.389 1.243 1.254 2.153 2.333 2.849.519.334 1.137.524 1.678.281-.098-.112-.153-.269-.124-.455z" fill="#fecd2e"/><path d="m58.541 68.789c-.005-.278-.001-.552.009-.819.031-.832.135-1.673.347-2.483h-.644c-.123.545-.205 1.1-.267 1.649-.067.595-.095 1.202-.07 1.807.176-.075.391-.124.625-.154z" fill="#fecd2e"/><path d="m72.359 65.487c-.266.982-1.205 1.567-2.223 1.968-.051.106-.105.21-.161.313.05.122.045.267-.052.415-.004.006-.007.012-.011.017 1.469-.516 2.807-1.29 3.089-2.713z" fill="#fecd2e"/><path d="m68.206 53.836c-.554 2.214-2.65 3.617-4.382 4.891-1.13.831-2.292 1.684-3.276 2.693.08.085.134.2.14.335.007.145-.016.281-.056.41.008.012.015.025.022.038.753-.845 1.659-1.566 2.551-2.242 2.116-1.602 4.913-3.193 5.606-5.96.097-.39-.507-.557-.605-.165z" fill="#fecd2e"/><path d="m67.485 55.473c-1.365 2.01-3.542 2.646-5.771 3.238-1.923.511-3.959 1.199-5.023 3.017-.125.214-.231.437-.32.665.057.066.112.133.164.203.059.01.119.033.176.073.066.046.124.095.179.146.153-.461.377-.895.687-1.283 1.285-1.603 3.476-1.982 5.343-2.496 2.047-.563 3.88-1.444 5.104-3.247.23-.335-.313-.648-.539-.316z" fill="#fecd2e"/><path d="m58.272 70.406c-.062.211-.295.358-.52.365.558.914 1.251 1.74 2.098 2.455.307.259.752-.182.443-.443-.828-.699-1.49-1.495-2.021-2.377z" fill="#fecd2e"/><path d="m45.601 51.903c4.91-.681 3.077 8.211 2.277 10.689-1.018 3.153-1.938 6.01-.42 9.166.662 1.376 1.571 2.619 2.165 4.029.566 1.342 1.359 3.433.16 4.636-.501.503.278 1.283.78.78 1.758-1.764.682-4.64-.255-6.557-.599-1.224-1.391-2.345-1.962-3.582-.717-1.556-.822-3.18-.435-4.843.584-2.51 1.617-4.833 1.905-7.415.198-1.774.264-3.727-.335-5.437-.67-1.915-2.176-2.806-4.174-2.529-.699.097-.401 1.16.294 1.063z" fill="#fecd2e"/><path d="m50.81 79.144c-.039-.195-.085-.388-.133-.581-.015-.18-.041-.359-.072-.538-.068-.844-.037-1.7-.495-2.464-.074-.123-.21-.164-.332-.141-.001-.07-.028-.144-.093-.215-.102-.111-.202-.224-.298-.34-.06-.15-.118-.3-.174-.452-.11-.373-.211-.748-.33-1.114-.139-.43-.316-.851-.535-1.246-.102-.183-.236-.346-.369-.508-.052-.063-.114-.118-.181-.17-.067-.243-.19-.452-.386-.554-.055-.225-.11-.447-.172-.665-.146-.511-.284-1.023-.431-1.531.146.174.485.098.535-.132.473-2.18 1.033-4.387 1.016-6.631.169.163.531.09.54-.218.015-.534.035-1.067.063-1.6.184.07.437-.022.439-.28.004-.906.049-1.813.044-2.716.109-.919-.033-1.887-.264-2.755-.03-.112-.1-.178-.182-.206-.025-.291-.057-.582-.099-.873 0-.002 0-.004 0-.007-.004-.028-.007-.056-.011-.083-.036-.244-.32-.277-.489-.159-.025-.054-.05-.107-.076-.16.028-.082.028-.174-.01-.256-.134-.287-.311-.484-.55-.69-.04-.034-.085-.055-.131-.067-.009-.012-.019-.024-.028-.037-.016-.021-.032-.043-.049-.063-.092-.115-.22-.122-.328-.07-.242-.189-.52-.286-.854-.314-.045-.004-.085.003-.12.016-.333-.132-.674-.201-.953-.059-.05.025-.093.054-.132.084-.087-.02-.184.002-.269.092-.404.429-.778.882-1.139 1.345-.057.009-.112.033-.156.075-.571.545-1.019 1.19-1.42 1.865-.048.024-.094.062-.132.119-.23.347-.456.698-.674 1.053-.139.182-.281.361-.422.544-.458.597-.729 1.379-.969 2.086-.087.257-.167.517-.237.78-.046.144-.09.288-.13.434-.101.37-.172.748-.22 1.128-.133-.217-.491-.125-.555.106-.293 1.061-.231 2.302-.282 3.396-.057 1.242-.006 2.482.24 3.703.239 1.184.724 2.276 1.411 3.233.238 1.033.803 2 1.407 2.852.345.487.697.969 1.091 1.418.185.21.396.384.613.549.063.083.127.165.193.245-.062.133-.048.306.106.41.788.536 1.299 1.35 2.122 1.861.272.169.549.328.829.483.467.333 1.002.591 1.546.808.256.131.512.263.765.398.114.061.223.047.308-.005.076.026.152.052.226.078.025.008.05.013.073.015l.228.12c.13.068.251.045.337-.022.188.116.475.042.469-.249-.005-.259.042-.511.086-.763.131-.047.231-.178.195-.362zm-3.776-3.54c-.02-.023-.039-.047-.058-.07-.032-.062-.063-.122-.094-.181.004-.005.006-.011.01-.016.08.125.159.251.239.375-.034-.035-.066-.072-.097-.108z" fill="#fecd2e"/><path d="m71.984 59.349c-.023-.086-.07-.143-.127-.179-.101-.827-.695-1.56-1.131-2.322-.162-.312-.325-.622-.413-.965-.044-.171-.182-.235-.316-.222-.142-.229-.285-.458-.425-.688-.039-.064-.091-.106-.149-.129-.091-.181-.183-.361-.269-.539-.148-.308-.54-.122-.581.147-.057.006-.111.026-.154.061.125-.421.157-.87.057-1.344-.078-.371-.615-.246-.612.096-.141-.472-.385-.931-.589-1.34-.18-.362-.721-.044-.541.316.327.655.723 1.388.583 2.144-.165.891-1.326 1.248-2.084 1.384-.78.139-1.589.091-2.376.171-.019.002-.038.005-.057.007-.386-.049-.771-.107-1.151-.14-1.073-.093-2.068.102-3.022.599-.085.044-.165.091-.245.138-.048.012-.095.036-.139.078-.009.009-.017.018-.026.026-.9.587-1.434 1.381-1.745 2.285-.139.265-.264.539-.373.824-.403 1.055-.516 2.248-.499 3.407h.02c-.07.41.007.803.446.965.335.124.707-.223.928-.421.244-.218.473-.412.744-.524.046-.008.095-.015.145-.021h5.906c.015 0 .028.003.042.004v-2.126c-.051-.28.107-.946.475-.946l7.894-.191c-.051-.363-.118-.195-.216-.555zm-11.251-.214c-.004-.002-.009-.004-.013-.006.027-.032.055-.064.082-.097.026-.007.052-.015.077-.022.01.026.023.051.038.073-.061.014-.123.031-.184.052zm4.987-1.397c-.536.274-1.083.487-1.539.871.037-.076.053-.156.035-.238.115-.087.175-.239.124-.363.314-.121.624-.254.929-.404.162-.04.323-.08.482-.125.145-.041.214-.145.222-.258.069-.041.138-.083.206-.126.133-.042.258-.097.371-.172-.282.267-.562.536-.83.815zm2.572-2.64c-.106.051-.179.159-.181.283.002.017-.001.034-.002.051-.212.217-.431.43-.654.641.362-.377.667-.802.86-1.267-.011.097-.02.194-.023.292zm1.712 1.822c-.034-.031-.07-.06-.107-.089.014-.022.025-.046.034-.071.028.049.057.098.085.147-.004.005-.008.009-.012.013z" fill="#fecd2e"/><path d="m61.06 73.946c.037.011.072.019.107.024.129.062.268.102.416.115.345.031.508-.139.567-.378.157-.103.269-.28.345-.487.205.114.473.011.48-.257.002-.084-.007-.169-.026-.252.244-.187.315-.561.31-.963-.733.733-1.466 1.466-2.199 2.198z" fill="#fecd2e"/><path d="m58.826 72.349c.044-.204.093-.408.143-.61-.094.011-.191-.006-.279-.045-.104.075-.231.114-.353.106.147.217.307.422.482.617.002-.023.002-.044.007-.068z" fill="#fecd2e"/><path d="m62.228 69.849c.012-.043.026-.086.039-.128-.028-.003-.056-.006-.084-.009-.062.158-.141.341-.222.537.086-.131.175-.264.267-.4z" fill="#fecd2e"/><path d="m60.674 72.224c-.072-.199-.092-.415-.08-.637-.167.135-.39.133-.561.032-.021.081-.043.163-.063.244-.058.251-.117.501-.177.751-.028.114-.082.197-.15.256.084.022.17.009.241-.029.003.002.005.005.008.008.043.039.091.063.14.075.075.083.157.161.244.235.014.035.031.07.048.104l.696-.696c-.154-.045-.283-.17-.346-.343z" fill="#fecd2e"/><path d="m56.647 48.321c2.186.25 4.283 1.153 6.133 2.318.865.545 1.651 1.175 2.411 1.858.945.849 2.028 1.664 1.045 2.94-.433.562.525 1.111.952.557 1.766-2.291-.993-4.246-2.708-5.523-2.278-1.696-4.998-2.928-7.833-3.252-.704-.081-.698 1.022 0 1.102z" fill="#fecd2e"/><path d="m59.048 48.855c2.847 1.052 6.018 2.125 7.647 4.883.361.611 1.314.056.952-.557-1.788-3.027-5.175-4.233-8.306-5.39-.666-.246-.954.819-.293 1.064z" fill="#fecd2e"/><path d="m65.696 52.012c.176.146.353.292.521.447.061.056.119.114.176.174.058.06.026.064.009.004.006.01.012.019.019.029-.099-.202-.039-.402.181-.601-.264.138-.343.506-.198.754.156.267.49.336.754.198.198-.104.322-.323.321-.544-.001-.208-.107-.379-.233-.535-.219-.269-.504-.485-.769-.705-.229-.191-.556-.224-.78 0-.197.195-.231.588-.001.779z" fill="#fecd2e"/><path d="m54.4 47.488c0-2.213 0-4.427 0-6.64 0-.71-1.103-.711-1.103 0v6.64c.001.709 1.103.711 1.103 0z" fill="#fecd2e"/><path d="m59.579 47.738c0-2.38 0-4.761 0-7.141 0-.71-1.103-.711-1.103 0v7.141c0 .71 1.103.711 1.103 0z" fill="#fecd2e"/><path d="m54.26 41.07c.884-.856 1.768-1.712 2.652-2.568.511-.495-.269-1.274-.78-.78-.884.856-1.768 1.712-2.652 2.568-.511.495.27 1.275.78.78z" fill="#fecd2e"/><path d="m59.376 40.04c-.821-.773-1.643-1.545-2.464-2.318-.517-.486-1.298.292-.78.78.821.773 1.643 1.545 2.464 2.318.517.486 1.298-.292.78-.78z" fill="#fecd2e"/><path d="m57.115 38.091c0-1.023 0-2.046 0-3.07 0-.71-1.103-.711-1.103 0v3.07c0 .71 1.103.711 1.103 0z" fill="#fecd2e"/><path d="m56.397 44.525c-1.026 0-1.861-.835-1.861-1.861s.835-1.861 1.861-1.861 1.861.835 1.861 1.861c-.001 1.026-.835 1.861-1.861 1.861zm0-2.84c-.54 0-.979.439-.979.979s.439.979.979.979.979-.439.979-.979c-.001-.54-.44-.979-.979-.979z" fill="#fecd2e"/><path d="m56.584 34.32c.71 0 .711-1.103 0-1.103-.709 0-.71 1.103 0 1.103z" fill="#15ffab"/><g fill="#fecd2e"><path d="m56.376 43.257c.71 0 .711-1.103 0-1.103-.71.001-.711 1.103 0 1.103z"/><path d="m56.077 43.32.603.603c.204.204.578.219.78 0 .202-.22.218-.562 0-.78-.201-.201-.402-.402-.603-.603-.204-.204-.578-.219-.78 0-.202.221-.218.562 0 .78z"/><path d="m56.747 43.054.971-.971c.503-.502-.277-1.282-.78-.78-.324.324-.647.647-.971.971-.502.503.277 1.283.78.78z"/><path d="m69.134 54.846c.71 0 .711-1.103 0-1.103-.709.001-.711 1.103 0 1.103z"/><path d="m69.562 55.172c1.607-.729 3.213-1.459 4.82-2.189.645-.293.085-1.244-.557-.952-1.607.73-3.213 1.459-4.82 2.189-.645.293-.085 1.244.557.952z"/><path d="m71.081 58.15c1.417-.998 2.834-1.997 4.25-2.995.576-.406.025-1.362-.557-.952-1.417.998-2.834 1.997-4.25 2.995-.575.406-.025 1.362.557.952z"/><path d="m73.132 51.812c.715 1.287 1.431 2.573 2.146 3.86.345.62 1.298.065.952-.557-.715-1.287-1.43-2.573-2.146-3.86-.345-.62-1.298-.064-.952.557z"/><path d="m73.856 51.955c.365-.203.73-.406 1.095-.609.62-.345.065-1.298-.557-.952-.365.203-.73.406-1.095.609-.62.345-.065 1.298.557.952z"/><path d="m74.361 51.057c.741 1.332 1.481 2.665 2.222 3.997.345.62 1.298.065.952-.557-.741-1.332-1.481-2.665-2.222-3.997-.345-.619-1.298-.064-.952.557z"/><path d="m76.096 56.049c.402-.223.803-.446 1.205-.67.62-.345.065-1.298-.557-.952-.402.223-.803.446-1.205.67-.62.345-.064 1.298.557.952z"/><path d="m76.119 52.417c.566-.315 1.132-.629 1.697-.944.62-.345.065-1.298-.557-.952-.566.315-1.132.629-1.697.944-.62.345-.064 1.298.557.952z"/><path d="m76.972 53.95c.584-.325 1.168-.649 1.752-.974.62-.345.065-1.298-.557-.952-.584.325-1.168.649-1.752.974-.62.345-.065 1.298.557.952z"/><path d="m77.135 50.698c.421.757.842 1.515 1.263 2.272.345.62 1.298.065.952-.557-.421-.757-.842-1.515-1.263-2.272-.345-.62-1.297-.065-.952.557z"/><path d="m78.666 51.969c.493-.274.986-.548 1.478-.822.62-.345.065-1.298-.557-.952-.493.274-.986.548-1.478.822-.62.345-.065 1.298.557.952z"/><path d="m80.927 50.489c.71 0 .711-1.103 0-1.103-.709 0-.711 1.103 0 1.103z"/><path d="m72.571 52.863c-.329 1.155-.659 2.31-.989 3.464-.195.684.868.975 1.063.293.33-1.155.659-2.31.989-3.464.195-.683-.869-.975-1.063-.293z"/><path d="m70.437 54.097c-.276.965-.551 1.931-.827 2.897-.195.684.869.975 1.063.293.276-.966.551-1.931.827-2.897.196-.684-.868-.975-1.063-.293z"/><path d="m70.859 54.755c.984.281 1.969.562 2.953.843.684.195.975-.869.293-1.063-.984-.281-1.969-.562-2.953-.843-.684-.196-.975.868-.293 1.063z"/><path d="m72.327 55.977c-1.013-.289-2.026-.578-3.038-.867-.684-.195-.975.869-.293 1.063 1.013.289 2.026.578 3.038.867.684.195.975-.868.293-1.063z"/><path d="m69.739 55.578c-.231-.492-.356-.979-.702-1.411-.37-.462-.782-.887-1.158-1.345-.603-.734-1.245-1.454-2.077-1.918-.033-.069-.097-.125-.197-.147-.063-.014-.125-.028-.188-.042-.33-.073-.579.42-.241.572.884.4 1.526 1.1 2.139 1.831.325.387.657.765.992 1.144.32.362.501.751.681 1.161-.034.141.02.307.162.37.002.006.004.012.007.017.014.028.028.056.042.084.18.364.709.045.54-.316z"/><path d="m40.266 56.93c-.423-.283-.847-.567-1.27-.85-.247-.166-.611-.048-.754.198-.158.271-.05.588.198.754.423.284.847.567 1.27.85.248.166.611.048.754-.198.158-.271.05-.588-.198-.754z"/><path d="m43.038 52.675c-.448-.3-.896-.6-1.344-.9-.248-.166-.611-.048-.754.198-.158.271-.05.588.198.754l1.344.9c.247.166.611.048.754-.198.159-.271.051-.588-.198-.754z"/><path d="m37.139 57.548c-.442 0-.856-.114-1.214-.354-.725-.486-1.083-1.375-1.008-2.504.066-.998.47-2.096 1.137-3.091.667-.996 1.528-1.787 2.426-2.228 1.016-.499 1.974-.507 2.7-.021.725.485 1.083 1.375 1.008 2.504-.066.998-.47 2.096-1.137 3.091-1.097 1.637-2.625 2.603-3.912 2.603zm2.816-7.231c-.26 0-.565.081-.891.241-.682.335-1.378.983-1.91 1.777s-.866 1.684-.917 2.443c-.042.628.113 1.109.424 1.317.662.443 2.176-.223 3.29-1.886.532-.794.866-1.684.916-2.443.042-.629-.113-1.109-.424-1.317-.132-.089-.298-.132-.488-.132z"/><path d="m36.447 53.287c.188-.571.123-1.359-.1-1.917-.11-.276-.368-.47-.678-.385-.263.072-.496.4-.385.678.156.39.231.931.1 1.331-.223.675.842.965 1.063.293z"/><path d="m37.034 50.517c-.361.078-.731.11-1.101.099-.71-.021-.709 1.081 0 1.103.465.014.939-.04 1.394-.138.291-.063.461-.403.385-.678-.083-.302-.386-.449-.678-.386z"/><path d="m35.553 51.756c-.028-.013-.056-.027-.084-.04-.084-.11-.169-.22-.253-.33.001.002.001.004.002.006.084-.208.169-.415.253-.623.119-.042.152-.057.1-.045-.282.061-.473.406-.385.678.096.298.376.45.678.385.057-.012.114-.035.163-.066.2-.126.329-.387.253-.623-.068-.212-.222-.351-.434-.406-.279-.072-.611.091-.678.385-.065.288.086.602.385.679z"/><path d="m35.938 50.721c-.251-.168-.502-.336-.752-.504-.24-.161-.621-.054-.754.198-.147.278-.059.583.198.754.251.168.502.336.752.504.24.161.621.054.754-.198.146-.277.058-.582-.198-.754z"/><path d="m34.231 50.831c.71 0 .711-1.103 0-1.103-.71 0-.711 1.103 0 1.103z"/><path d="m36.245 52.12c-.062.017-.125.016-.186-.004-.124-.032-.209-.104-.254-.215-.052-.058-.076-.125-.072-.202.001.017 0 .034-.001.052-.013.274.22.507.478.542.263.035.538-.127.605-.395.023-.092.049-.171.051-.269s-.021-.198-.046-.293c-.226.226-.452.452-.678.678.141.02.254.044.394.004.219-.062.377-.247.408-.471.019-.143-.01-.262-.078-.389-.013-.024-.041-.085.004.018.042.095.031.068-.033-.08-.029-.038-.058-.076-.088-.113-.206-.262-.732-.191-.866.112-.07.159-.09.277-.053.445.009.039.02.077.03.116.018.066.033.135.058.199.099.259.316.434.605.395.258-.035.492-.266.478-.542.002.035-.024.168-.001.057.004-.018.008-.037.011-.055.005-.026.01-.052.014-.079.041-.248-.006-.517-.255-.65-.211-.112-.444-.093-.631.051-.022.017-.045.034-.066.051-.047.039.086-.061.081-.062-.013-.001-.05.031-.063.038-.26.126-.35.518-.198.754.172.267.476.332.754.198.026-.013.049-.028.073-.045.044-.032.086-.066.129-.1-.087.069-.188.137-.359.142-.093-.025-.186-.05-.278-.075l.002.002c-.084-.11-.169-.22-.253-.33-.014-.035-.036-.208-.001-.254-.01.013-.009.05-.013.066-.018.091-.054.201-.049.291l1.083-.147c-.019-.049-.03-.101-.044-.151-.01-.037-.021-.073-.03-.11-.017-.066-.018-.165.003.074-.025.093-.05.186-.075.278 0 0 0-.001.001-.001-.289.037-.577.074-.866.112 0 .001.001.001.001.002-.047-.081-.095-.162-.142-.243.017.058.039.116.07.168.063.106-.043.042-.048-.214.025-.093.05-.186.075-.278-.001.002-.003.005-.004.007.066-.066.132-.132.198-.198.102-.064.207-.082.315-.055-.202-.029-.384-.011-.536.142-.14.14-.192.345-.142.536.007.027.012.054.02.081.006.03.004.016-.005-.042-.013-.057-.01-.114.009-.171-.014.032-.02.074-.029.108l1.083.147c.009-.195-.055-.4-.197-.537-.194-.187-.434-.198-.684-.157-.128.021-.267.146-.33.253-.069.118-.098.292-.056.425.099.307.371.434.677.383z"/><path d="m35.277 54.57c1.355 1.184 3.264 1.391 4.966.968.688-.171.397-1.235-.293-1.063-1.294.322-2.849.229-3.893-.684-.533-.466-1.316.311-.78.779z"/><path d="m35.846 52.441c1.605 1.351 3.839 1.236 5.756.718.684-.185.394-1.249-.293-1.063-1.486.401-3.412.635-4.683-.435-.54-.454-1.323.322-.78.78z"/><path d="m37.666 51.024c1.257.568 2.466.58 3.811.377.699-.106.402-1.169-.293-1.063-1.019.154-2.004.167-2.961-.266-.642-.29-1.204.66-.557.952z"/><path d="m37.87 74.353c-1.117 0-2.172-.678-2.597-1.781-.551-1.431.165-3.042 1.595-3.592l.317.823c-.976.376-1.465 1.476-1.089 2.452s1.476 1.464 2.452 1.089l.317.823c-.327.126-.664.186-.995.186z"/><path d="m36.422 69.933c-.85 0-1.653-.516-1.977-1.355-.419-1.089.126-2.316 1.214-2.735l.317.823c-.635.244-.952.96-.708 1.595.245.635.96.952 1.594.708l.317.823c-.248.095-.505.141-.757.141z"/><path d="m39.307 77.435c-.292 0-.583-.061-.858-.183-.516-.229-.913-.646-1.116-1.174-.419-1.089.126-2.315 1.214-2.735l.317.823c-.635.244-.952.96-.708 1.594.118.308.35.551.651.684.302.134.636.142.944.024l.317.823c-.246.097-.504.144-.761.144z"/><path d="m40.272 76.792c-1.364-3.543-2.729-7.086-4.093-10.629-.189-.492-.989-.278-.798.22 1.364 3.543 2.729 7.086 4.093 10.629.19.491.99.277.798-.22z"/><path d="m38.797 74.278c.942-.363 1.884-.725 2.825-1.088.492-.189.278-.989-.22-.797-.942.363-1.884.725-2.825 1.088-.491.189-.278.989.22.797z"/><path d="m37.071 69.796c.942-.363 1.884-.725 2.826-1.088.492-.189.278-.989-.22-.798-.942.363-1.884.725-2.826 1.088-.491.19-.278.99.22.798z"/><path d="m35.833 66.581c.942-.363 1.884-.725 2.826-1.088.492-.189.278-.989-.22-.798-.942.363-1.884.725-2.826 1.088-.491.19-.278.99.22.798z"/><path d="m37.379 68.524c.942-.363 1.884-.725 2.826-1.088.328-.126.185-.659-.147-.532-.942.363-1.884.725-2.826 1.088-.327.127-.185.66.147.532z"/><path d="m37.071 67.725c.942-.363 1.884-.725 2.826-1.088.328-.126.185-.66-.147-.532-.942.363-1.884.725-2.826 1.088-.327.126-.185.66.147.532z"/><path d="m36.764 66.926c.942-.363 1.884-.725 2.826-1.088.328-.126.185-.66-.147-.532-.942.363-1.884.725-2.826 1.088-.328.126-.185.66.147.532z"/><path d="m40.322 76.167c.942-.363 1.884-.725 2.826-1.088.328-.126.185-.659-.147-.532-.942.363-1.884.725-2.826 1.088-.327.127-.185.66.147.532z"/><path d="m40.015 75.369c.942-.363 1.884-.725 2.825-1.088.328-.126.185-.659-.147-.532-.942.363-1.884.725-2.825 1.088-.327.126-.185.66.147.532z"/><path d="m39.707 74.57c.942-.363 1.884-.725 2.826-1.088.328-.126.185-.659-.147-.532-.942.363-1.884.725-2.826 1.088-.327.126-.185.659.147.532z"/><path d="m39.011 72.762c.942-.363 1.884-.725 2.826-1.088.328-.126.185-.659-.147-.532-.942.363-1.884.725-2.826 1.088-.327.127-.185.66.147.532z"/><path d="m38.703 71.963c.942-.363 1.884-.725 2.826-1.088.328-.126.185-.659-.147-.532-.942.363-1.884.725-2.826 1.088-.327.127-.184.66.147.532z"/><path d="m38.396 71.164c.942-.363 1.884-.725 2.826-1.088.328-.126.185-.659-.147-.532-.942.363-1.884.725-2.826 1.088-.327.127-.185.66.147.532z"/><path d="m38.101 70.355c.942-.363 1.884-.725 2.826-1.088.328-.126.185-.659-.147-.532-.942.363-1.884.725-2.826 1.088-.327.126-.185.66.147.532z"/><path d="m40.035 77.336c.942-.363 1.884-.725 2.826-1.088.492-.189.278-.989-.22-.798-.942.363-1.884.725-2.826 1.088-.492.189-.278.989.22.798z"/><path d="m67.732 77.997c3.065-1.379 6.128-2.76 9.194-4.137-.186-.317-.371-.635-.557-.952-.008.004-.017.007-.025.011-.646.292-.086 1.242.557.952.008-.004.017-.007.025-.011.646-.292.086-1.241-.557-.952-3.066 1.377-6.129 2.758-9.194 4.137-.646.291-.086 1.241.557.952z"/><path d="m52.932 81.817v7.235c0 .71 1.103.711 1.103 0 0-2.412 0-4.824 0-7.235 0-.71-1.103-.711-1.103 0z"/><path d="m53.64 89.697h4.698c.71 0 .711-1.103 0-1.103-1.566 0-3.132 0-4.698 0-.709.001-.711 1.103 0 1.103z"/><path d="m58.984 89.177c0-2.443 0-4.886 0-7.329 0-.71-1.103-.711-1.103 0v7.329c0 .71 1.103.711 1.103 0z"/><path d="m53.59 89.491v1.253c0 .71 1.103.711 1.103 0 0-.418 0-.835 0-1.253 0-.71-1.103-.711-1.103 0z"/><path d="m54.047 91.514h3.571c.71 0 .711-1.103 0-1.103-1.19 0-2.38 0-3.571 0-.709 0-.71 1.103 0 1.103z"/><path d="m58.263 90.931c0-.491 0-.981 0-1.472 0-.71-1.103-.711-1.103 0v1.472c.001.71 1.103.711 1.103 0z"/><path d="m55.501 91.338v.532c0 .288.254.565.551.551.299-.013.551-.242.551-.551 0-.177 0-.355 0-.532 0-.288-.254-.565-.551-.551-.299.013-.551.242-.551.551z"/><path d="m54.987 88.194c.71 0 .711-1.103 0-1.103-.71 0-.711 1.103 0 1.103z"/><path d="m57.023 88.257c.71 0 .711-1.103 0-1.103-.71 0-.711 1.103 0 1.103z"/><path d="m54.987 86.471c.71 0 .711-1.103 0-1.103-.71 0-.711 1.103 0 1.103z"/><path d="m56.992 86.377c.71 0 .711-1.103 0-1.103-.71 0-.711 1.103 0 1.103z"/><path d="m55.018 84.341c.71 0 .711-1.103 0-1.103-.709.001-.71 1.103 0 1.103z"/><path d="m57.086 84.404c.71 0 .711-1.103 0-1.103-.71 0-.711 1.103 0 1.103z"/></g><path d="m80.265 69.713v7.848c0 1.075-.873 1.948-1.948 1.948h-19.158c-1.076 0-1.948-.873-1.948-1.948v-7.848h9.931c.036.724.633 1.299 1.365 1.299h.893c.732 0 1.33-.575 1.365-1.299z" fill="#fff"/><path d="m78.317 65.047h-6.116v-2.692c0-.498-.359-.912-.833-.998-.159-.062-.338-.098-.527-.098h-3.976c-.181 0-.636.047-.789.104-.041-.005.202-.023.159-.023-.561 0-1.015.454-1.015 1.015v2.692h-6.061c-1.076 0-1.948.873-1.948 1.948v2.273h9.996c.067-.208.184-.394.334-.546.247-.248.588-.401.966-.401h.893c.607 0 1.123.396 1.3.946h9.564v-2.273c.001-1.074-.873-1.947-1.947-1.947zm-11.068 0v-1.88h2.922v1.88z" fill="#fff"/><path d="m70.074 69.695c0 .386-.313.7-.7.7h-.856c-.386 0-.7-.313-.7-.7 0-.386.313-.7.7-.7h.856c.387.001.7.314.7.7z" fill="#fff"/><path d="m71.63 14.621.231 2.12-.648-.371-.18-2.012-.095-.055-.823 1.438-.53-.303 2.011-3.513.621.356c.464.266.749.545.856.837.116.324.083.646-.099.964-.142.249-.336.422-.581.519-.247.097-.501.104-.763.02zm-.429-.78.168.096c.502.287.863.239 1.083-.145.206-.359.064-.679-.424-.959l-.189-.108z" fill="#fecd2e"/><path d="m74.071 15.064-.728 1.272c-.21.367-.17.634.12.799.29.166.54.065.75-.302l.728-1.272.512.293-.734 1.283c-.102.177-.211.318-.329.422-.109.091-.241.153-.399.185-.259.051-.522 0-.789-.152-.265-.152-.442-.353-.529-.602-.053-.153-.069-.3-.047-.441.017-.127.083-.293.199-.496l.734-1.283z" fill="#fecd2e"/><path d="m76.098 16.224.514.294-.117.205c.281-.075.533-.048.758.08.258.148.412.344.463.589.045.209-.021.47-.2.782l-.778 1.358-.514-.294.709-1.238c.125-.218.181-.387.168-.505-.011-.119-.094-.223-.25-.312-.17-.097-.323-.11-.458-.039-.133.071-.279.244-.437.52l-.612 1.069-.514-.293z" fill="#fecd2e"/><path d="m78.653 17.686.514.294-.117.205c.281-.075.533-.048.757.08.258.148.412.344.464.589.046.209-.021.47-.2.782l-.778 1.358-.514-.294.708-1.238c.125-.218.181-.387.168-.505-.011-.119-.094-.223-.25-.312-.17-.097-.323-.11-.458-.039-.133.071-.279.244-.437.52l-.612 1.069-.514-.294z" fill="#fecd2e"/><path d="m82.523 21.532-1.588-.909c-.091.19-.115.369-.072.536.044.166.148.296.312.39.127.073.25.103.368.09.117-.014.274-.073.473-.176l.294.488c-.132.075-.258.133-.379.171-.121.039-.238.06-.353.064s-.229-.011-.341-.043c-.113-.032-.226-.081-.342-.147-.331-.189-.535-.447-.614-.774-.078-.328-.016-.67.187-1.023.201-.35.46-.578.778-.684.318-.102.639-.06.962.125.326.187.524.438.595.754.07.314 0 .654-.209 1.019zm-.286-.719c.085-.314-.009-.549-.282-.705-.062-.036-.126-.059-.191-.072-.065-.012-.131-.013-.196-.003s-.128.031-.189.063-.117.075-.17.129z" fill="#fecd2e"/><path d="m83.786 20.624.512.293-.113.198c.151-.045.272-.064.366-.059.096.005.195.036.297.094.135.077.251.202.348.374l-.503.335c-.057-.125-.132-.215-.224-.267-.279-.16-.539-.029-.781.393l-.658 1.149-.512-.293z" fill="#fecd2e"/><path d="m88.337 21.507-1.211 2.116c-.173.302-.25.551-.231.747.032.286.181.505.448.658.268.154.534.172.796.054.176-.078.351-.271.527-.577l1.211-2.116.53.303-1.294 2.261c-.212.37-.502.609-.869.717-.412.118-.807.07-1.185-.146s-.619-.532-.724-.946c-.093-.372-.034-.742.178-1.112l1.294-2.262z" fill="#fecd2e"/><path d="m88.963 28.129-.512-.293 1.958-3.422.512.293-.138.241c.317-.086.604-.056.86.091.305.174.492.43.56.768.073.337.012.676-.183 1.016-.19.332-.448.552-.773.66-.323.107-.635.075-.935-.097-.26-.148-.432-.385-.518-.71zm2.533-1.603c.121-.212.163-.418.124-.618-.04-.202-.148-.353-.325-.455-.188-.108-.378-.13-.569-.066-.192.064-.348.202-.47.414-.119.208-.159.413-.119.615.04.198.154.351.342.458.178.102.362.118.554.051.194-.066.349-.199.463-.399z" fill="#fecd2e"/><circle cx="93.868" cy="27.808" fill="#fecd2e" r=".911"/><circle cx="68.371" cy="12.468" fill="#fecd2e" r=".911"/><path d="m74.96 109.721.412-.239.846 1.458c.07-.217.193-.377.37-.479.201-.117.401-.145.597-.085.169.054.325.205.47.454l.635 1.093-.412.239-.612-1.055c-.083-.143-.168-.232-.256-.266-.088-.035-.188-.019-.3.046-.144.084-.22.187-.226.31-.005.124.056.295.184.515l.501.863-.412.239z" fill="#fff"/><path d="m79.092 109.073.414-.24 1.036 1.784-.414.24-.109-.187c-.078.257-.214.442-.409.556-.247.143-.502.173-.767.088-.266-.089-.477-.27-.635-.542-.155-.267-.205-.537-.148-.808.056-.271.205-.476.445-.616.208-.121.443-.143.708-.068zm-.463 1.454c.099.171.226.283.38.338.157.054.307.04.45-.043.153-.089.245-.213.278-.373.031-.163-.002-.328-.099-.496-.097-.167-.224-.278-.381-.332-.156-.052-.308-.034-.459.053-.142.082-.229.205-.262.367-.031.165 0 .326.093.486z" fill="#fff"/><path d="m81.458 107.802.318.547c-.161-.06-.291-.09-.39-.089-.099-.002-.198.027-.296.084-.155.09-.252.219-.292.387-.039.168-.012.334.083.498.097.167.226.276.388.326s.321.029.476-.061c.099-.057.174-.13.225-.216.049-.084.088-.215.118-.392l.316.544c-.117.184-.259.324-.426.422-.276.16-.558.205-.847.134-.29-.072-.512-.241-.666-.507-.155-.266-.191-.545-.109-.837s.259-.518.533-.677c.174-.102.364-.157.569-.163z" fill="#fff"/><path d="m81.465 105.945 1.095 1.886.245-.914.553-.321-.34 1.199 1.432.552-.535.31-1.027-.41-.028.104.399.687-.412.239-1.796-3.093z" fill="#fff"/><path d="m84.996 105.645.414-.24 1.036 1.784-.414.24-.109-.187c-.077.257-.214.442-.409.556-.247.143-.502.173-.767.088-.265-.089-.477-.27-.635-.542-.155-.267-.205-.537-.148-.808.056-.271.205-.477.445-.616.207-.12.443-.143.707-.068zm-.464 1.454c.099.171.226.283.38.338.157.054.307.04.45-.043.153-.089.245-.213.278-.372.031-.163-.002-.328-.099-.496-.097-.167-.224-.278-.381-.332-.156-.052-.308-.034-.459.053-.142.082-.229.205-.262.367-.03.164.001.325.093.485z" fill="#fff"/><path d="m86.578 105.241.812 1.399-.412.239-.812-1.399-.176.102-.223-.385.176-.102-.38-.654.412-.239.38.654.32-.186.223.385z" fill="#fff"/><path d="m86.195 103.198.412-.239.846 1.458c.07-.217.193-.377.37-.479.201-.117.401-.145.597-.085.168.054.325.205.47.454l.635 1.093-.412.239-.612-1.055c-.083-.143-.168-.232-.256-.266-.088-.035-.188-.019-.3.046-.144.084-.22.187-.226.31-.005.124.056.295.184.515l.501.863-.412.239z" fill="#fff"/><path d="m89.438 104.241c-.15-.258-.185-.53-.105-.818.08-.287.252-.508.517-.662.266-.155.545-.195.836-.121.289.076.51.246.664.511.155.267.193.545.114.833-.081.287-.257.509-.527.666-.267.155-.545.194-.832.116-.286-.077-.508-.251-.667-.525zm.425-.237c.103.178.233.292.388.34.158.048.318.026.478-.067.161-.094.26-.22.296-.38s.004-.326-.097-.5c-.101-.173-.229-.284-.386-.332-.159-.048-.318-.026-.478.067-.158.091-.255.218-.291.379-.036.163-.006.327.09.493z" fill="#fff"/><path d="m91.266 102.004.414-.24.096.165c.061-.226.182-.392.363-.497.208-.12.407-.149.599-.086.165.053.32.205.466.457l.635 1.093-.414.24-.578-.996c-.102-.176-.197-.283-.285-.322-.087-.041-.194-.025-.32.048-.137.079-.208.181-.212.305-.004.122.058.294.187.516l.5.861-.414.24z" fill="#fff"/><path d="m95.962 101.126 1.053-.611.233.401-1.899 1.103.292-1.758c.028-.174.049-.324.064-.449.015-.124.023-.226.023-.305.003-.155-.022-.278-.075-.37-.077-.132-.187-.215-.332-.251-.145-.035-.285-.013-.422.066-.286.166-.351.43-.196.792l-.425.247c-.278-.636-.15-1.108.384-1.418.258-.15.521-.193.791-.131.271.062.476.213.617.455.089.154.136.328.14.524.003.101-.005.227-.023.379-.019.152-.047.336-.086.551z" fill="#fff"/><path d="m96.898 99.204c-.262-.451-.365-.871-.311-1.262.047-.352.204-.606.472-.761.267-.155.566-.166.895-.032.366.147.683.451.952.914.268.462.375.888.321 1.278-.047.352-.204.605-.47.76s-.565.166-.897.033c-.366-.146-.687-.456-.962-.93zm.421-.241c.182.314.388.543.617.687.227.141.425.162.593.064.167-.097.247-.279.238-.547-.008-.266-.101-.554-.281-.863-.179-.309-.383-.533-.611-.673-.228-.139-.425-.16-.592-.063-.166.096-.245.278-.238.544s.098.549.274.851z" fill="#fff"/><path d="m99.491 96.367-.489.284.003-.535.681-.396 1.642 2.828-.427.248z" fill="#fff"/><path d="m101.998 96.192c-.293-.026-.512-.165-.659-.418-.133-.23-.166-.467-.097-.712.069-.246.222-.438.457-.574.234-.136.474-.172.72-.109.245.062.435.209.569.441.141.243.153.501.036.775.149-.005.29.032.423.112.134.079.243.192.328.338.145.25.183.503.112.758s-.234.457-.489.605c-.261.152-.523.196-.787.134-.265-.062-.468-.215-.609-.459-.184-.32-.186-.616-.004-.891zm-.259-.653c.07.121.17.198.299.233.131.035.256.018.373-.05.116-.067.191-.167.226-.298s.019-.255-.049-.371c-.067-.116-.167-.191-.298-.226s-.255-.018-.371.049-.191.167-.226.298-.019.253.046.365zm.674 1.284c.076.131.186.217.331.258.145.04.283.022.414-.054.129-.075.213-.185.252-.33.038-.146.019-.284-.056-.413-.076-.13-.186-.215-.331-.254-.145-.038-.282-.02-.411.055-.128.074-.212.184-.252.33-.039.145-.021.281.053.408z" fill="#fff"/><path d="m58.646 121.867c-.018-.031-.037-.063-.055-.094s-.036-.063-.045-.099c-.007-.028-.024-.051-.037-.077-.009-.018-.02-.036-.021-.057 0-.005-.001-.01-.003-.014-.018-.037-.033-.075-.045-.114-.011-.036-.021-.072-.031-.109-.015-.05-.026-.101-.035-.152-.014-.072-.025-.145-.031-.219-.009-.095-.011-.189-.009-.284.001-.072.011-.144.018-.215.006-.064.024-.126.034-.189.013-.081.039-.159.062-.237.037-.121.087-.237.146-.349.039-.074.082-.145.127-.215.025-.039.051-.078.081-.113.029-.034.052-.074.087-.103.013-.01.015-.028.029-.037.012-.007.02-.019.028-.031.013-.02.034-.031.05-.049.025-.03.056-.055.085-.081.034-.03.072-.057.105-.088.032-.029.067-.053.102-.077.075-.053.15-.106.232-.147.104-.053.209-.103.32-.142.041-.015.083-.029.125-.041.034-.01.067-.027.104-.026.025-.015.056-.009.082-.021.02-.01.043-.007.064-.012.047-.011.095-.016.142-.021.09-.009.181-.014.272-.013s.181.012.271.02c.09.009.175.036.264.048.014.002.027.007.041.012.03.01.059.022.089.029.076.017.146.049.216.079.056.024.112.048.165.076.058.03.114.065.169.1.074.047.145.099.212.156.038.032.08.06.111.101.032.016.044.053.076.069.008.004.013.014.018.021.011.015.022.03.038.042.009.006.016.015.022.024.014.019.026.039.047.053.01.007.017.019.023.029.021.032.041.064.066.092.028.031.048.066.069.102.025.042.05.084.075.127.021.035.042.071.055.11.011.033.028.064.044.094.01.018.021.036.021.057 0 .003.001.006.002.009.018.035.03.072.041.11.006.021.015.04.019.063.004.026.015.051.022.077.02.074.034.149.046.225.017.107.025.214.026.322.001.056-.006.112-.003.168-.016.113-.023.227-.053.339-.008.032-.012.065-.021.096-.015.051-.033.102-.048.153-.017.057-.043.11-.065.165-.052.13-.123.25-.197.368-.038.041-.062.093-.101.134-.015.015-.026.034-.041.051-.032.036-.06.076-.095.109-.026.025-.047.056-.079.075-.061.069-.137.12-.206.18-.002.002-.005.004-.007.006-.091.06-.177.128-.276.175-.074.035-.145.076-.223.105-.047.017-.095.035-.141.054-.03.012-.063.019-.094.029-.039.013-.078.024-.118.03-.048.008-.093.026-.142.025-.095.021-.192.028-.288.031-.092.003-.185.004-.277-.009-.043-.006-.087-.007-.13-.014-.053-.008-.104-.021-.157-.03-.1-.015-.193-.054-.289-.081-.051-.015-.098-.041-.148-.06-.073-.029-.142-.066-.21-.104-.084-.047-.164-.101-.242-.158-.043-.032-.084-.067-.124-.102-.039-.034-.075-.072-.113-.107-.028-.026-.048-.058-.08-.08-.006-.004-.01-.012-.015-.018-.017-.025-.034-.049-.058-.068-.013-.01-.021-.027-.03-.042-.018-.028-.037-.055-.06-.079-.011-.011-.02-.024-.028-.038-.023-.042-.047-.083-.072-.124.001 0 .001 0 0 0zm1.493-.912c.043-.035.082-.072.126-.101.09-.059.18-.117.281-.157.041-.016.078-.042.119-.057.075-.027.143-.067.211-.107.037-.022.073-.044.103-.075.007-.008.017-.015.026-.02.037-.02.057-.059.091-.081.045-.061.093-.12.119-.194.037-.105.038-.209-.008-.311-.017-.039-.04-.075-.065-.11-.04-.056-.093-.098-.156-.126-.069-.031-.142-.046-.218-.046-.066 0-.13.007-.192.029-.004.002-.009.002-.014.002-.015-.002-.028.006-.04.012-.062.032-.121.068-.179.106-.009.006-.02.011-.024.022-.007.016-.02.023-.033.033-.006.005-.014.009-.018.015-.025.037-.058.069-.084.106-.045.063-.082.131-.107.203-.045.128-.066.26-.061.396.003.084.016.166.037.247.008.03.012.062.028.09.009.016.014.034.019.053.004.025.016.051.039.071zm.263-.015c-.02.012-.04.025-.061.036-.023.012-.04.031-.057.049-.005.006-.013.009-.019.014-.022.017-.05.027-.065.053-.014.024-.049.031-.057.061-.036.04-.062.085-.085.134-.052.107-.049.216-.006.323.027.069.075.125.136.171.075.056.159.082.249.085.08.003.162-.002.237-.04.008-.004.018-.005.027-.007s.018-.004.027-.008c.082-.038.159-.099.225-.169.027-.029.051-.058.075-.089.062-.082.1-.173.13-.27.014-.044.017-.089.026-.134.008-.04.01-.081.01-.121 0-.08-.008-.16-.024-.239-.005-.022-.015-.041-.019-.063-.007-.047-.029-.089-.044-.134-.003-.009-.008-.017-.013-.025-.007-.012-.013-.013-.026-.003-.032.024-.065.045-.093.074-.011.011-.025.02-.038.028-.06.035-.12.071-.18.105-.016.009-.034.017-.052.023-.027.009-.053.021-.078.035-.026.014-.052.031-.08.041-.053.016-.099.042-.145.07z" fill="#fff"/><path d="m69.197 116.058c.155.263.31.526.465.789.012.02.024.039.035.06.017.034.013.049-.02.072-.017.011-.034.021-.052.031-.124.073-.248.147-.372.219-.118.069-.095.075-.165-.039-.015-.025-.029-.05-.044-.074-.004-.007-.009-.015-.016-.02-.006-.005-.015-.007-.022.001-.012.014-.016.03-.018.048-.015.113-.065.213-.129.304-.032.045-.063.096-.117.123-.012.006-.024.017-.033.027-.061.069-.135.115-.226.133-.011.002-.022.007-.032.013-.088.047-.184.053-.281.06-.113.008-.222-.008-.329-.038-.093-.026-.182-.066-.263-.119-.033-.022-.065-.045-.098-.068-.049-.035-.095-.072-.132-.12-.012-.016-.022-.034-.037-.047-.088-.075-.132-.18-.188-.277-.01-.017-.013-.038-.019-.057s-.009-.04-.018-.057c-.044-.089-.055-.185-.066-.281-.017-.162.005-.32.064-.471.036-.093.089-.177.147-.259.042-.06.11-.092.147-.154.086-.051.161-.122.266-.135.008-.001.017-.005.024-.008.108-.049.221-.049.336-.034.046.006.091.013.134.032.019.008.038.011.059.01.011-.001.014-.011.011-.018-.008-.018-.018-.036-.028-.053-.023-.04-.046-.08-.069-.12-.01-.018-.005-.033.012-.044.029-.019.057-.039.087-.057.111-.066.223-.132.335-.197.032-.019.066-.034.1-.05.018-.008.034-.003.044.015.012.02.024.039.036.059.157.265.314.533.472.801zm-1.441.843c.045.083.112.144.191.192.122.075.25.106.391.058.011-.004.022-.007.034-.008.036-.003.065-.021.096-.037.055-.029.082-.088.132-.123.064-.104.104-.214.094-.339-.004-.052-.022-.1-.033-.149-.01-.046-.028-.089-.057-.125-.066-.084-.142-.158-.24-.201-.154-.067-.306-.062-.452.025-.044.026-.081.059-.115.1-.032.038-.059.077-.077.122-.068.168-.049.329.036.485z" fill="#fff"/><path d="m72.537 114.02c.161.273.322.546.483.819.033.055.048.063-.025.107-.149.088-.298.175-.447.263-.005.003-.01.006-.015.008-.039.02-.047.019-.07-.017-.021-.034-.041-.069-.062-.104-.007-.012-.014-.025-.023-.036-.005-.006-.013-.011-.02-.012-.012-.002-.014.009-.014.017-.003.046-.014.09-.028.134-.028.085-.07.159-.128.228-.03.036-.062.066-.099.093-.007.005-.015.01-.02.017-.051.071-.128.11-.203.141-.081.034-.164.071-.254.075-.166.007-.323-.021-.458-.131-.038-.031-.074-.062-.1-.104-.008-.012-.015-.026-.026-.034-.053-.039-.083-.095-.115-.15-.216-.364-.431-.729-.646-1.094-.04-.067-.039-.069.024-.106.144-.085.288-.17.432-.255.01-.006.02-.012.03-.017.031-.015.048-.012.067.015.013.019.024.039.036.059.149.253.298.506.448.759.035.06.072.118.109.176.045.069.133.135.209.171.033.016.069.023.1.018.095-.018.195-.029.254-.123.017-.026.047-.039.063-.069.044-.081.048-.165.032-.251-.016-.085-.047-.164-.092-.239-.163-.272-.322-.546-.483-.819-.066-.112-.067-.096.041-.159.129-.077.258-.152.387-.228.02-.012.04-.023.061-.032.015-.007.029-.002.038.011.015.021.028.044.041.066.157.267.315.535.473.803z" fill="#fff"/><path d="m64.566 119.097c.074-.044.149-.088.223-.132.034-.02.047-.028.079.012.051.064.119.097.202.084s.162-.036.231-.088c.04-.03.067-.071.096-.109.022-.029.026-.067.01-.106-.032-.078-.075-.109-.159-.103-.054.004-.109.012-.162.024-.117.026-.233.061-.351.081-.111.019-.221.051-.336.048-.092-.002-.181-.014-.263-.059-.053-.029-.104-.06-.136-.114-.007-.012-.017-.024-.027-.033-.031-.028-.051-.061-.061-.102-.004-.017-.012-.033-.019-.048-.082-.166-.055-.328.027-.483.031-.059.066-.12.124-.161.023-.05.07-.075.112-.104.012-.008.023-.018.033-.028.092-.1.217-.149.331-.214.046-.005.09-.02.129-.044.038-.024.086-.008.124-.032.133-.015.265-.025.395.028.097.04.182.095.248.177.016.02.034.04.049.06.027.036.023.049-.017.075-.01.006-.02.012-.03.018-.131.077-.263.155-.395.232-.015.009-.029.018-.045.026-.025.012-.043.007-.061-.013-.011-.013-.02-.028-.032-.041-.034-.036-.074-.063-.125-.065-.086-.004-.166.015-.226.083-.028.032-.064.056-.078.101-.029.091.03.195.124.206.042.005.087.004.129-.004.107-.02.213-.046.32-.069.133-.029.264-.071.402-.079.103-.006.205-.002.299.051.038.021.075.044.103.076.06.069.112.143.147.231.072.179.045.347-.028.514-.024.054-.09.142-.136.184-.027.025-.04.062-.076.081-.03.016-.062.034-.084.06-.054.063-.126.099-.195.14-.032.019-.065.036-.102.045-.028.007-.056.017-.08.032-.062.041-.134.052-.203.068-.056.013-.116.023-.177.021-.083-.002-.166-.011-.243-.042-.081-.033-.163-.07-.219-.144-.054-.028-.081-.079-.111-.127-.005-.007-.009-.015-.013-.023-.011-.023-.009-.035.015-.05.047-.029.094-.056.141-.084.032-.019.065-.038.097-.057z" fill="#fff"/><path d="m73.851 112.774c-.067.039-.134.079-.201.118-.017.01-.035.02-.053.029-.015.007-.028.003-.038-.01-.017-.023-.032-.047-.055-.066-.103-.084-.241-.055-.331.023-.021.019-.041.04-.059.063-.062.08-.057.194.061.249.01.005.022.006.033.006.052.001.103.002.154-.009.106-.023.213-.044.319-.071.074-.019.149-.042.224-.054.108-.017.217-.033.329-.011.093.018.17.062.241.12.011.009.018.022.026.035.027.044.054.088.081.133.086.144.086.297.048.454-.026.105-.089.189-.148.276-.055.04-.087.107-.151.137-.018.008-.034.023-.048.037-.087.087-.192.145-.307.185-.024.008-.049.018-.072.03-.138.071-.286.091-.438.084-.11-.005-.213-.039-.305-.103-.084-.058-.154-.128-.203-.218-.018-.034-.015-.05.02-.071.146-.087.292-.173.439-.259.005-.003.01-.006.015-.008.033-.014.053-.012.074.02.041.061.1.083.169.081.099-.002.249-.055.311-.141.029-.04.06-.075.063-.127.002-.047-.042-.11-.086-.126-.042-.015-.085-.017-.127-.009-.082.015-.162.037-.244.052-.09.016-.177.046-.268.055-.042.004-.083.019-.125.026-.095.015-.197.02-.287.008-.134-.018-.236-.088-.312-.194-.093-.13-.139-.275-.116-.438.014-.099.056-.185.112-.265.034-.049.074-.093.113-.138.013-.015.031-.025.047-.037.028-.02.057-.036.075-.069.009-.016.03-.026.047-.037.059-.036.118-.072.177-.107.042-.025.084-.05.135-.055.014-.001.028-.008.04-.015.069-.037.144-.05.221-.059.051-.006.1-.01.152-.01.125.001.237.042.336.113.067.048.129.104.165.183.011.024.009.034-.014.05-.005.003-.01.006-.015.009-.076.044-.15.088-.224.131z" fill="#fff"/><path d="m69.558 115.805c-.076-.129-.152-.258-.228-.387-.01-.017-.02-.035-.031-.052-.019-.028-.037-.033-.066-.018-.046.024-.09.052-.135.078-.02.011-.04.024-.061.033-.03.013-.048.007-.065-.02-.024-.039-.047-.079-.071-.119-.039-.067-.08-.134-.118-.201-.023-.04-.019-.052.021-.077.046-.029.094-.056.141-.084.017-.01.034-.021.051-.032s.02-.029.013-.045c-.008-.021-.02-.041-.032-.061-.074-.127-.149-.253-.223-.38-.043-.074-.043-.074.031-.118.134-.079.268-.158.402-.237.015-.009.03-.018.045-.025.014-.006.03-.002.039.009.014.018.027.037.038.057.073.124.146.248.219.372.057.096.053.083.136.035.077-.045.154-.091.231-.136.02-.012.04-.023.061-.032.014-.006.028-.003.038.011.005.007.01.014.014.022.061.104.123.208.184.313.021.035.018.05-.012.073-.016.012-.033.022-.051.033-.074.044-.149.088-.223.132-.017.01-.034.021-.051.032-.016.011-.02.028-.013.045.005.013.013.026.02.038.117.198.235.396.351.595.03.051.068.092.11.132.024.023.053.036.082.046s.058.011.092.002c.093-.026.177-.067.252-.128.007-.005.014-.01.021-.015.022-.014.038-.012.052.007.007.009.013.019.018.029.061.104.123.208.184.313.007.012.014.025.02.038.011.024.008.038-.013.052-.125.081-.231.19-.368.254-.031.015-.059.034-.095.038-.019.002-.038.012-.056.021-.188.088-.363.069-.53-.055-.086-.064-.158-.139-.212-.232-.07-.118-.141-.237-.212-.356z" fill="#fff"/><path d="m66.069 117.855c-.075-.126-.149-.253-.224-.379-.012-.02-.023-.04-.036-.059-.015-.022-.036-.027-.06-.015-.023.011-.045.025-.068.038-.04.023-.079.048-.12.069-.039.02-.057.015-.079-.021-.062-.104-.124-.208-.184-.312-.025-.044-.022-.054.024-.082.054-.033.109-.064.163-.097.048-.029.051-.04.024-.09-.021-.038-.043-.075-.065-.112-.057-.097-.114-.193-.171-.29-.012-.02-.022-.04-.032-.061-.006-.014-.003-.028.011-.038.007-.005.014-.01.022-.014.149-.088.297-.176.446-.263.039-.023.054-.019.079.017.012.016.021.034.031.052.067.114.134.228.202.342.01.017.02.035.031.052.026.039.037.043.077.019.087-.05.174-.102.261-.153.101-.06.092-.051.143.034.053.089.106.178.158.268.026.045.024.055-.017.086-.018.014-.038.026-.058.037-.069.041-.139.082-.208.123-.017.01-.034.021-.051.033-.016.012-.018.029-.012.046.006.016.016.031.024.046.111.188.223.376.333.566.035.061.079.113.132.158.051.044.106.058.174.039.091-.025.171-.066.244-.125.009-.007.019-.014.029-.019.014-.006.029-.004.039.008.009.011.017.023.025.035.062.104.123.208.184.312.006.01.012.02.016.03.012.027.008.042-.015.06-.016.012-.034.022-.05.034-.023.017-.048.032-.069.052-.081.08-.184.128-.28.184-.014.008-.032.013-.049.016-.026.005-.049.015-.073.026-.185.087-.359.066-.523-.054-.084-.062-.156-.135-.209-.226-.072-.124-.146-.248-.219-.372z" fill="#fff"/></svg>