<svg enable-background="new 0 0 110.979 128.417" viewBox="0 0 110.979 128.417" xmlns="http://www.w3.org/2000/svg"><path d="m55.581 128.296-55.168-31.852v-63.703l55.168-31.852 55.169 31.852v63.703z" fill="#0a0f44"/><path d="m55.684 116.731-45.337-26.175v-52.351l45.337-26.176 45.337 26.176v52.35z" fill="#040933"/><g fill="#15ffab"><path d="m55.58 10.97-46.507 26.812v53.623l46.507 26.809 46.509-26.809v-53.623zm44.626 79.354-44.626 25.73-44.628-25.73v-51.451l44.628-25.73 44.626 25.73z"/><path d="m73.213 14.621-1.22-.698-.482.842 1.177.674-.284.497-1.177-.674-.954 1.667-.529-.303 2.004-3.502 1.749 1.001z"/><path d="m73.783 16.004-1.264 2.209-.51-.292 1.264-2.209zm-.062-1.255c.051-.089.128-.148.23-.176s.199-.016.29.036c.092.053.152.13.18.232.029.101.017.197-.036.29-.053.092-.13.152-.233.18-.1.029-.197.017-.289-.036s-.152-.13-.18-.233c-.029-.101-.016-.199.038-.293z"/><path d="m74.429 16.374.51.292-.113.197c.15-.045.272-.064.365-.059.096.005.194.036.296.094.134.077.25.201.347.373l-.501.333c-.057-.125-.132-.214-.224-.267-.278-.159-.538-.029-.778.392l-.656 1.146-.51-.292z"/><path d="m77.235 18.479-.551-.017c.011-.174-.032-.289-.131-.346-.047-.027-.096-.034-.146-.022-.051.012-.091.042-.118.09-.049.085.001.225.151.421.204.271.325.483.362.635.038.152.009.311-.087.477-.122.213-.303.347-.542.4-.231.049-.454.011-.67-.113-.371-.212-.529-.543-.477-.993l.551.047c0 .14.008.234.023.281.029.093.087.164.173.213.172.099.304.069.394-.088.052-.091.034-.214-.054-.368-.037-.055-.074-.11-.111-.163-.038-.054-.075-.108-.114-.164-.107-.157-.17-.29-.188-.397-.024-.136.005-.277.088-.422.11-.192.267-.313.47-.363.206-.049.406-.018.598.092.282.164.408.43.379.8z"/><path d="m78.305 19.224-.992 1.733-.51-.292.992-1.733-.218-.125.273-.476.218.125.464-.81.51.292-.464.81.397.227-.273.476z"/><path d="m80.931 21.14-.814 1.422-.529-.303 2.004-3.502.599.343c.293.168.503.315.63.442.128.127.217.281.267.46.088.312.047.617-.124.916-.184.321-.436.513-.758.578s-.665-.008-1.03-.216zm.28-.49.197.113c.485.278.835.23 1.049-.144.207-.361.06-.685-.441-.972l-.175-.1z"/><path d="m83.264 21.43.51.292-.113.197c.15-.045.272-.064.365-.059.095.005.194.036.295.094.135.077.25.201.347.373l-.501.333c-.057-.125-.132-.214-.224-.267-.278-.159-.538-.029-.779.392l-.656 1.145-.51-.292z"/><path d="m85.512 22.717-1.264 2.209-.51-.292 1.264-2.209zm-.062-1.255c.051-.089.128-.148.23-.176s.199-.016.289.036c.092.053.152.13.18.232.029.101.017.197-.036.29-.053.092-.13.152-.233.18-.1.029-.197.017-.289-.036s-.152-.13-.18-.233c-.028-.101-.015-.199.039-.293z"/><path d="m85.901 25.234 1.313.752-.275.481-2.325-1.331 2.423-.914-1.127-.645.273-.476 2.136 1.223z"/><path d="m89.993 26.908-1.583-.906c-.09.189-.114.367-.071.534.044.166.147.295.311.389.127.073.249.103.367.09.116-.014.274-.072.471-.176l.293.487c-.131.075-.257.132-.378.171-.12.039-.238.06-.352.063-.114.004-.228-.011-.34-.043s-.225-.081-.341-.147c-.33-.189-.534-.446-.612-.772-.078-.327-.016-.667.186-1.02.2-.349.459-.577.776-.682.317-.101.637-.06.959.124.325.186.523.437.593.752.07.313 0 .652-.208 1.016zm-.285-.717c.085-.313-.009-.547-.281-.703-.062-.035-.125-.059-.191-.071-.065-.012-.13-.013-.195-.003s-.128.031-.188.063c-.061.032-.117.075-.17.129z"/><path d="m79.833 68.248c.024.207.055.413.102.618.029-.236.054-.473.076-.711-.054.04-.114.071-.178.093z"/><path d="m79.062 69.782c-.114.695-.258 1.38-.429 2.055.246.013.494.06.72.148.213-.844.385-1.703.511-2.578-.162.274-.5.419-.802.375z"/><path d="m54.743 41.131c11.133 0 20.56 7.422 23.606 17.576h.766c-3.069-10.565-12.831-18.31-24.372-18.31-13.994 0-25.38 11.385-25.38 25.38s11.385 25.38 25.38 25.38c3.519 0 6.871-.723 9.92-2.023h-2.062c-2.469.833-5.111 1.288-7.858 1.288-13.59 0-24.645-11.056-24.645-24.645 0-13.59 11.056-24.646 24.645-24.646z"/><path d="m77.84 74.371c-1.959 5.249-5.661 9.653-10.396 12.513h.995c.109 0 .204.021.288.056 4.528-3.002 8.045-7.414 9.91-12.609-.226.15-.562.185-.797.04z"/><path d="m64.15 79.144c.01-.062.022-.123.034-.184-.056.007-.112.007-.168 0-.466.304-1.095-.023-1.512-.254-.936-.516-1.841-1.311-2.442-2.195-.363-.534-.626-1.125-.814-1.745-.285-.071-.561-.166-.812-.297-.066-.012-.132-.026-.198-.039.062.266.134.531.215.792.57 1.822 1.838 3.156 3.419 4.175.76.49 1.667.769 2.46.411-.143-.161-.223-.391-.182-.664z"/><path d="m58.82 71.692c-.008-.407-.002-.81.013-1.201.045-1.22.198-2.453.509-3.639h-.944c-.181.798-.3 1.612-.391 2.417-.099.873-.139 1.762-.103 2.648.257-.111.573-.182.916-.225z"/><path d="m79.073 66.852c-.39 1.44-1.766 2.297-3.258 2.884-.075.155-.154.308-.236.459.074.178.066.391-.077.609-.006.008-.011.017-.016.025 2.153-.757 4.115-1.891 4.527-3.977z"/><path d="m72.986 49.774c-.812 3.245-3.885 5.302-6.423 7.169-1.656 1.219-3.359 2.468-4.802 3.947.118.125.196.293.205.492.01.213-.023.411-.082.602.012.018.021.037.032.056 1.104-1.238 2.431-2.296 3.738-3.286 3.102-2.348 7.202-4.68 8.217-8.735.144-.576-.741-.819-.885-.245z"/><path d="m71.93 52.174c-2.001 2.946-5.192 3.878-8.459 4.746-2.818.749-5.802 1.758-7.362 4.422-.184.314-.338.64-.468.975.084.096.164.195.24.297.087.015.174.048.258.107.096.067.181.14.263.215.224-.676.552-1.312 1.007-1.88 1.883-2.349 5.095-2.905 7.832-3.659 3.001-.826 5.687-2.117 7.482-4.759.334-.492-.462-.951-.793-.464z"/><path d="m58.426 74.062c-.09.31-.433.524-.762.535.818 1.34 1.834 2.55 3.075 3.598.449.379 1.102-.267.649-.649-1.214-1.026-2.184-2.193-2.962-3.484z"/><path d="m39.785 46.692c5.683-.835 5.299 7.095 4.848 10.726-.428 3.443-1.83 6.573-2.648 9.918-.458 1.872-.621 3.788-.22 5.686.351 1.657 1.134 3.175 1.971 4.632 1.002 1.744 2.025 3.45 2.694 5.357.647 1.844 1.342 4.37-.263 5.918-.51.492.268 1.269.777.777 2.657-2.562.731-7.115-.686-9.836-.902-1.731-2.037-3.346-2.798-5.149-.915-2.166-1.019-4.426-.506-6.71.553-2.465 1.589-4.789 2.189-7.241.293-1.198.485-2.423.624-3.647.29-2.55.391-5.327-.419-7.798-.893-2.726-2.998-4.113-5.856-3.693-.696.102-.4 1.162.293 1.06z"/><path d="m47.489 86.869c-.057-.286-.125-.569-.195-.851-.022-.263-.06-.526-.106-.788-.1-1.237-.054-2.491-.725-3.612-.108-.18-.307-.24-.487-.206-.001-.102-.04-.211-.136-.315-.15-.163-.295-.329-.437-.499-.088-.22-.173-.44-.256-.662-.161-.546-.31-1.097-.483-1.633-.203-.63-.463-1.248-.784-1.826-.149-.269-.346-.507-.54-.744-.076-.093-.168-.173-.266-.248-.098-.357-.279-.662-.566-.813-.08-.329-.161-.656-.252-.974-.214-.749-.416-1.499-.632-2.244.214.255.711.144.784-.194.693-3.195 1.515-6.43 1.49-9.719.248.239.779.132.792-.319.022-.782.052-1.564.092-2.345.27.103.641-.033.643-.41.006-1.328.071-2.657.064-3.981.16-1.346-.048-2.766-.387-4.037-.044-.165-.147-.26-.267-.302-.037-.427-.084-.854-.144-1.28 0-.003-.001-.006-.001-.01 0 0 0 0-.001 0-.006-.041-.01-.081-.016-.122-.053-.358-.469-.405-.717-.233-.036-.079-.073-.157-.111-.235.04-.12.042-.256-.015-.376-.196-.421-.456-.71-.806-1.011-.058-.051-.124-.081-.192-.098-.014-.018-.028-.036-.042-.054v-.001c-.024-.031-.047-.062-.072-.093-.134-.169-.323-.178-.481-.103-.354-.278-.763-.42-1.251-.46-.066-.006-.124.004-.176.023-.488-.194-.988-.294-1.397-.086-.073.037-.137.079-.193.124-.128-.03-.27.003-.394.135-.592.629-1.141 1.292-1.669 1.972-.084.014-.164.048-.229.11-.838.798-1.494 1.744-2.082 2.734-.071.035-.138.091-.193.174-.338.509-.669 1.023-.988 1.543-.203.266-.412.529-.618.797-.671.875-1.069 2.022-1.42 3.057-.128.377-.245.758-.347 1.143-.067.211-.132.422-.19.637-.148.543-.252 1.096-.322 1.653-.195-.318-.72-.183-.813.155-.43 1.555-.339 3.374-.413 4.978-.084 1.821-.009 3.638.351 5.428.35 1.736 1.062 3.336 2.068 4.738.349 1.514 1.177 2.931 2.062 4.18.506.713 1.021 1.421 1.599 2.078.27.308.58.563.899.805.092.122.187.241.283.359-.09.195-.07.448.156.602 1.155.786 1.903 1.979 3.11 2.728.399.247.805.481 1.216.707.685.488 1.469.866 2.266 1.185.375.192.75.385 1.122.583.167.089.327.07.451-.007.112.038.223.077.332.115.037.012.073.019.107.022.111.059.223.118.334.176.191.1.367.067.493-.032.276.169.696.061.687-.364-.008-.38.061-.748.127-1.118.19-.074.337-.266.284-.536zm-5.536-5.188c-.029-.034-.057-.069-.086-.103-.047-.091-.092-.179-.138-.265.005-.007.009-.015.014-.023.117.184.233.367.351.55-.048-.053-.095-.107-.141-.159z"/><path d="m78.524 57.854c-.034-.125-.103-.21-.186-.262-.148-1.212-1.019-2.286-1.658-3.403-.237-.457-.477-.912-.605-1.415-.064-.25-.267-.345-.464-.325-.209-.336-.418-.671-.624-1.009-.057-.094-.134-.155-.218-.189-.133-.266-.269-.529-.394-.79-.217-.452-.791-.178-.852.215-.084.009-.163.038-.225.09.184-.616.23-1.276.083-1.97-.115-.543-.901-.361-.897.141-.207-.692-.564-1.364-.863-1.965-.265-.53-1.056-.065-.793.463.479.959 1.059 2.035.854 3.142-.241 1.306-1.943 1.83-3.055 2.029-1.143.204-2.33.134-3.483.251-.028.003-.056.007-.084.011-.566-.072-1.131-.157-1.686-.205-1.573-.136-3.031.149-4.43.877-.125.065-.242.133-.359.203-.07.018-.139.053-.204.114-.013.013-.026.026-.039.038-1.319.861-2.102 2.024-2.558 3.35-.203.389-.387.79-.547 1.208-.591 1.547-.756 3.295-.732 4.994h.03c-.103.6.01 1.177.654 1.415.491.181 1.036-.327 1.36-.617.358-.32.693-.604 1.09-.768.068-.011.139-.021.213-.03h8.656c.022 0 .041.005.061.006v-3.116c-.074-.41.158-1.386.696-1.386l11.571-.279c-.071-.536-.168-.29-.312-.818zm-16.491-.313c-.006-.003-.013-.006-.019-.009.04-.047.08-.094.12-.142.038-.01.076-.021.114-.033.015.038.033.075.056.108-.091.02-.181.045-.271.076zm7.31-2.048c-.786.401-1.587.713-2.256 1.277.054-.111.078-.229.051-.349.168-.127.256-.351.182-.532.461-.177.915-.373 1.362-.592.237-.058.474-.117.706-.183.212-.06.314-.213.326-.378.101-.06.202-.122.302-.185.195-.062.379-.143.543-.252-.414.39-.823.786-1.216 1.194zm3.77-3.869c-.155.074-.262.233-.266.414.002.025-.001.05-.003.075-.311.318-.631.63-.958.939.531-.552.978-1.176 1.26-1.858-.016.143-.029.287-.033.43zm2.509 2.671c-.05-.046-.103-.088-.156-.13.021-.032.037-.067.05-.104.042.072.083.144.124.216-.007.005-.012.012-.018.018z"/><path d="m62.512 79.25c.054.016.106.028.157.035.189.09.392.149.609.168.506.045.744-.203.831-.554.23-.151.394-.41.505-.714.3.166.693.015.704-.377.003-.123-.01-.248-.038-.369.357-.274.462-.823.455-1.412-1.074 1.075-2.149 2.149-3.223 3.223z"/><path d="m59.238 76.91c.065-.299.136-.597.21-.895-.138.016-.28-.009-.409-.067-.152.11-.339.167-.518.155.215.317.451.619.706.904.003-.032.004-.063.011-.097z"/><path d="m64.224 73.245c.017-.063.038-.125.057-.188-.041-.005-.082-.009-.123-.014-.091.232-.206.499-.325.786.126-.19.257-.386.391-.584z"/><path d="m61.947 76.726c-.106-.292-.135-.609-.118-.933-.245.198-.572.195-.822.047-.031.119-.062.239-.093.358-.086.367-.171.735-.259 1.101-.04.167-.12.289-.22.375.124.033.249.013.354-.043.004.004.008.007.012.011.063.056.134.092.206.11.11.121.23.235.357.345.021.052.045.103.07.153l1.021-1.021c-.227-.067-.417-.25-.508-.503z"/><path d="m56.044 41.432c3.31.361 6.496 1.754 9.28 3.535 1.348.862 2.545 1.873 3.735 2.935 1.344 1.199 2.772 2.462 1.348 4.237-.438.547.335 1.329.777.777 1.053-1.313 1.326-2.717.28-4.133-1.074-1.454-2.7-2.702-4.143-3.773-3.267-2.424-7.21-4.235-11.278-4.678-.701-.076-.696 1.024.001 1.1z"/><path d="m59.632 42.223c4.216 1.558 8.976 3.164 11.363 7.277.355.612 1.305.059.949-.555-2.543-4.382-7.521-6.119-12.02-7.782-.664-.245-.951.817-.292 1.06z"/><path d="m69.49 46.918c.257.215.517.428.763.655.089.082.176.166.258.255.016.017.109.091.053.058.009.014.018.028.027.042-.076-.179-.019-.355.172-.527-.627.328-.072 1.277.555.949.495-.259.361-.822.076-1.176-.319-.395-.74-.711-1.128-1.034-.228-.19-.554-.223-.777 0-.195.196-.229.587.001.778z"/><path d="m52.492 40.469c0-3.244 0-6.489 0-9.733 0-.707-1.099-.709-1.099 0v9.733c0 .707 1.099.709 1.099 0z"/><path d="m60.083 40.836c0-3.489 0-6.978 0-10.467 0-.707-1.099-.709-1.099 0v10.467c0 .708 1.099.709 1.099 0z"/><path d="m52.362 30.88c1.296-1.255 2.591-2.51 3.887-3.765.509-.493-.269-1.27-.777-.777-1.296 1.255-2.591 2.51-3.887 3.765-.509.493.268 1.27.777.777z"/><path d="m59.861 29.735c-1.204-1.132-2.408-2.265-3.612-3.397-.515-.484-1.294.291-.777.777 1.204 1.132 2.408 2.265 3.612 3.397.514.485 1.293-.291.777-.777z"/><path d="m56.471 26.696c0-1.5 0-2.999 0-4.499 0-.707-1.099-.709-1.099 0v4.499c0 .707 1.099.709 1.099 0z"/><path d="m55.677 35.92c-1.39 0-2.521-1.131-2.521-2.521s1.131-2.521 2.521-2.521 2.521 1.131 2.521 2.521-1.131 2.521-2.521 2.521zm0-4.163c-.905 0-1.641.736-1.641 1.641s.736 1.642 1.641 1.642 1.641-.736 1.641-1.642c0-.904-.736-1.641-1.641-1.641z"/><path d="m55.952 20.91c.707 0 .709-1.099 0-1.099-.707 0-.708 1.099 0 1.099z"/><path d="m55.646 34.01c.707 0 .709-1.099 0-1.099-.707-.001-.708 1.099 0 1.099z"/><path d="m55.391 34.178.884.884c.21.21.567.21.777 0 .211-.211.211-.567 0-.777-.294-.295-.589-.589-.884-.884-.21-.21-.567-.21-.777 0s-.21.566 0 .777z"/><path d="m56.008 33.788c.474-.474.949-.949 1.423-1.423.501-.501-.276-1.278-.777-.777-.474.474-.949.949-1.423 1.423-.501.5.276 1.278.777.777z"/><path d="m74.347 50.996c.707 0 .709-1.099 0-1.099-.708 0-.709 1.099 0 1.099z"/><path d="m74.843 51.509c2.355-1.069 4.71-2.139 7.065-3.208.643-.292.085-1.24-.555-.949-2.355 1.069-4.71 2.139-7.065 3.208-.643.292-.085 1.24.555.949z"/><path d="m77.07 55.874c2.077-1.463 4.153-2.926 6.23-4.39.574-.404.025-1.358-.555-.949-2.077 1.463-4.153 2.926-6.23 4.39-.574.404-.025 1.358.555.949z"/><path d="m80.43 46.677c1.049 1.886 2.097 3.772 3.145 5.658.344.618 1.294.065.949-.555-1.048-1.886-2.097-3.772-3.145-5.658-.344-.618-1.294-.064-.949.555z"/><path d="m81.137 46.794c.535-.297 1.07-.595 1.605-.892.618-.344.065-1.294-.555-.949-.535.297-1.07.595-1.605.892-.618.344-.064 1.293.555.949z"/><path d="m82.231 45.571c1.086 1.953 2.171 3.905 3.257 5.858.344.618 1.294.065.949-.555-1.086-1.953-2.171-3.905-3.257-5.858-.344-.619-1.294-.065-.949.555z"/><path d="m84.421 52.795c.589-.327 1.177-.654 1.766-.982.618-.344.065-1.294-.555-.949-.589.327-1.177.654-1.766.982-.619.344-.065 1.293.555.949z"/><path d="m84.455 47.471c.829-.461 1.658-.922 2.488-1.383.618-.344.065-1.294-.555-.949-.829.461-1.659.922-2.488 1.383-.618.344-.065 1.293.555.949z"/><path d="m85.704 49.718 2.568-1.428c.618-.344.065-1.294-.555-.949-.856.476-1.712.952-2.568 1.428-.618.344-.064 1.293.555.949z"/><path d="m86.297 45.043c.617 1.11 1.234 2.22 1.852 3.33.344.618 1.294.065.949-.555-.617-1.11-1.234-2.22-1.852-3.33-.343-.618-1.293-.064-.949.555z"/><path d="m88.187 46.814c.722-.401 1.445-.803 2.167-1.205.618-.344.065-1.294-.555-.949-.722.402-1.445.803-2.167 1.205-.618.344-.065 1.294.555.949z"/><path d="m91.632 44.61c.707 0 .709-1.099 0-1.099-.707-.001-.708 1.099 0 1.099z"/><path d="m79.633 48.417c-.483 1.693-.966 3.385-1.449 5.078-.195.681.866.972 1.06.292.483-1.693.966-3.385 1.449-5.078.195-.682-.866-.973-1.06-.292z"/><path d="m76.506 50.225c-.404 1.415-.808 2.83-1.212 4.246-.194.682.866.972 1.06.292.404-1.415.808-2.83 1.212-4.246.195-.681-.865-.972-1.06-.292z"/><path d="m76.944 50.871c1.443.412 2.886.824 4.329 1.235.682.195.972-.866.292-1.06-1.443-.412-2.886-.824-4.329-1.235-.682-.194-.973.866-.292 1.06z"/><path d="m78.958 53.161c-1.485-.424-2.969-.848-4.454-1.271-.682-.195-.972.866-.292 1.06 1.485.424 2.969.847 4.454 1.271.681.195.972-.866.292-1.06z"/><path d="m75.233 52.327c-.338-.721-.522-1.435-1.029-2.068-.542-.677-1.146-1.301-1.697-1.971-.883-1.075-1.825-2.131-3.045-2.811-.048-.101-.142-.184-.289-.216-.092-.02-.184-.041-.275-.061-.484-.108-.849.615-.354.839 1.296.586 2.237 1.612 3.136 2.684.476.568.963 1.122 1.454 1.676.47.531.734 1.101.998 1.702-.049.207.029.449.237.542.003.009.005.017.01.026.02.041.041.082.061.122.266.532 1.041.066.793-.464z"/><path d="m31.904 54.531c-.621-.415-1.241-.831-1.861-1.247-.589-.395-1.14.557-.555.949.62.416 1.241.831 1.861 1.247.589.395 1.14-.556.555-.949z"/><path d="m35.967 48.295c-.656-.44-1.313-.88-1.97-1.319-.589-.395-1.14.557-.555.949.657.44 1.313.879 1.97 1.319.59.395 1.14-.557.555-.949z"/><path d="m27.462 54.908c-.591 0-1.142-.152-1.618-.471-.967-.647-1.443-1.852-1.34-3.392.093-1.409.667-2.964 1.615-4.379s2.168-2.538 3.435-3.16c1.386-.681 2.68-.699 3.647-.051.967.647 1.443 1.852 1.341 3.392-.093 1.409-.667 2.964-1.615 4.379-1.549 2.311-3.687 3.682-5.465 3.682zm4.12-10.606c-.548 0-1.097.216-1.447.388-1.062.522-2.099 1.485-2.921 2.71-.821 1.226-1.316 2.551-1.395 3.732-.04.608.005 1.704.758 2.209 1.251.838 3.656-.467 5.252-2.849.821-1.226 1.316-2.551 1.395-3.732.04-.608-.005-1.704-.759-2.209-.269-.181-.576-.249-.883-.249z"/><path d="m26.187 48.9c.263-.797.165-1.894-.146-2.673-.259-.649-1.323-.366-1.06.292.244.611.352 1.461.146 2.088-.222.674.839.963 1.06.293z"/><path d="m27.365 45.158c-.552.119-1.118.171-1.682.154-.708-.021-.707 1.078 0 1.099.66.02 1.33-.054 1.974-.193.692-.149.399-1.209-.292-1.06z"/><path d="m25.195 46.476c.068.018.048.007-.062-.033-.066-.066-.131-.131-.197-.197.001.002.002.004.004.006 0-.185 0-.37 0-.555-.001.002-.002.003-.003.005l.197-.197c.145-.075.143-.054.088-.042-.282.059-.471.406-.384.676.097.298.374.447.676.384.162-.034.286-.134.375-.271.104-.159.099-.395 0-.555-.095-.153-.23-.239-.402-.281-.279-.067-.609.088-.676.384-.064.282.085.604.384.676z"/><path d="m25.559 45.432c-.368-.246-.735-.492-1.103-.739-.247-.165-.609-.048-.752.197-.158.27-.05.586.197.752.368.246.735.492 1.103.739.247.165.609.048.752-.197.158-.27.051-.587-.197-.752z"/><path d="m23.188 45.11c.707 0 .709-1.099 0-1.099-.708 0-.709 1.099 0 1.099z"/><path d="m26.071 47.01c-.094.01-.113.013-.058.008.059.001.033-.004-.078-.015.006.002.012.003.019.005-.112-.03-.199-.097-.262-.202-.069-.123-.045-.124-.031-.062-.04-.179-.013-.091-.017-.027-.015.273.221.505.477.54.262.035.537-.127.603-.394.027-.109.061-.212.065-.326.004-.12-.027-.245-.058-.361-.225.225-.451.451-.676.676.179.027.334.051.506-.021.24-.101.382-.342.347-.602-.014-.101-.047-.2-.104-.286-.036-.054.042.099.037.089-.024-.044-.033-.101-.059-.145-.064-.111-.2-.233-.331-.255-.143-.024-.295-.027-.424.055-.112.072-.231.19-.253.329-.03.193.01.351.06.533.035.126.065.265.128.381.113.204.395.326.621.253.091-.029.172-.077.243-.141.089-.082.177-.265.161-.389-.016.117-.018.139-.004.068.002-.011.005-.023.007-.035.006-.029.012-.059.018-.088.008-.038.015-.076.022-.115.043-.262.002-.522-.254-.672-.251-.147-.494-.062-.698.102-.007.006-.016.012-.023.019-.053.057.12-.084.072-.056-.029.017-.055.036-.085.05-.261.123-.348.518-.197.752.173.268.473.329.752.197.078-.037.146-.094.213-.148.012-.009.024-.019.035-.029-.079.065-.171.145-.348.135-.092-.025-.185-.05-.277-.075.001 0 .002.001.002.001-.066-.066-.131-.131-.197-.197.002.002-.071-.287-.071-.258 0 .054.027-.155.015-.108-.007.027-.01.056-.016.083-.023.113-.08.261-.066.372.341-.092.683-.185 1.024-.277-.003-.006.066.185.048.108-.004-.018-.011-.036-.016-.055-.015-.051-.029-.102-.044-.153-.014-.05-.028-.1-.041-.151-.044-.169.024-.136-.025.182-.225.128-.451.256-.676.384h.001c-.109-.084-.219-.168-.329-.253-.049-.118-.065-.154-.047-.108.017.047.037.093.058.138.006.012.011.023.017.035.006.011.012.022.018.032l.006.012c-.065-.116-.082-.241-.048-.377.047-.081.094-.162.141-.243.359-.1.467-.148.321-.146-.052-.004-.036-.001.05.009-.201-.03-.384-.01-.535.141-.14.14-.192.345-.141.535.011.042.02.084.031.125.023.093-.01-.164-.012-.057.004-.177.02-.133.001-.067-.009.034-.019.067-.027.101.36.049.72.097 1.08.146.012-.218-.05-.446-.21-.602-.21-.204-.484-.213-.755-.166-.284.05-.469.412-.384.676.101.311.374.444.678.39z"/><path d="m24.903 50.667c1.891 1.678 4.645 1.955 7.027 1.352.685-.174.395-1.234-.292-1.06-1.979.501-4.372.337-5.958-1.069-.527-.468-1.307.306-.777.777z"/><path d="m25.739 47.546c2.238 1.937 5.504 1.712 8.186.986.682-.185.393-1.246-.292-1.06-2.257.611-5.204.952-7.116-.704-.534-.46-1.314.314-.778.778z"/><path d="m28.353 45.429c1.772.8 3.49.813 5.386.526.697-.106.401-1.165-.292-1.06-1.569.237-3.065.25-4.539-.415-.64-.29-1.2.658-.555.949z"/><path d="m28.521 79.639c-1.554 0-3.022-.943-3.613-2.478-.371-.964-.345-2.015.074-2.959s1.181-1.668 2.145-2.039l.316.821c-.745.287-1.333.846-1.657 1.576-.324.729-.344 1.541-.058 2.286.592 1.537 2.325 2.306 3.862 1.714l.316.821c-.455.175-.924.258-1.385.258z"/><path d="m26.4 73.161c-1.163 0-2.262-.706-2.704-1.854-.573-1.49.172-3.168 1.661-3.741l.316.821c-1.037.399-1.555 1.568-1.156 2.604.399 1.037 1.568 1.555 2.604 1.156l.316.821c-.342.13-.692.193-1.037.193z"/><path d="m30.629 84.157c-.399 0-.798-.084-1.173-.251-.707-.314-1.249-.884-1.526-1.606-.573-1.489.172-3.167 1.661-3.741l.316.821c-1.037.399-1.555 1.568-1.156 2.604.193.502.571.899 1.063 1.118.492.218 1.039.232 1.541.039l.316.821c-.339.13-.691.195-1.042.195z"/><path d="m31.856 83.472c-2-5.193-3.999-10.386-5.999-15.58-.189-.49-.986-.277-.795.219 2 5.193 3.999 10.386 5.999 15.58.188.49.986.278.795-.219z"/><path d="m29.829 79.55c1.38-.532 2.761-1.063 4.141-1.595.49-.189.277-.986-.219-.795-1.381.532-2.761 1.063-4.141 1.595-.49.189-.277.986.219.795z"/><path d="m27.3 72.981c1.381-.531 2.761-1.063 4.142-1.595.49-.189.277-.986-.219-.795-1.381.532-2.761 1.063-4.142 1.595-.491.188-.278.986.219.795z"/><path d="m25.485 68.268c1.381-.531 2.761-1.063 4.142-1.595.49-.189.277-.986-.219-.795-1.381.532-2.761 1.063-4.142 1.595-.491.189-.278.986.219.795z"/><path d="m27.768 71.178c1.381-.532 2.761-1.063 4.142-1.595.327-.126.185-.657-.146-.53-1.381.532-2.761 1.063-4.142 1.595-.327.126-.185.658.146.53z"/><path d="m27.317 70.007c1.381-.531 2.761-1.063 4.142-1.595.327-.126.185-.657-.146-.53-1.381.532-2.761 1.063-4.142 1.595-.327.126-.185.657.146.53z"/><path d="m26.866 68.836c1.381-.531 2.761-1.063 4.142-1.595.327-.126.185-.658-.146-.53-1.38.532-2.761 1.063-4.142 1.595-.327.125-.185.657.146.53z"/><path d="m32.082 82.381c1.381-.531 2.761-1.063 4.142-1.594.327-.126.185-.657-.146-.53-1.381.532-2.761 1.063-4.142 1.594-.327.126-.185.658.146.53z"/><path d="m31.631 81.21c1.38-.532 2.761-1.063 4.141-1.595.327-.126.185-.657-.146-.53-1.38.532-2.761 1.063-4.141 1.595-.327.126-.185.658.146.53z"/><path d="m31.18 80.039c1.381-.532 2.761-1.063 4.142-1.595.327-.126.185-.657-.146-.53-1.38.532-2.761 1.063-4.142 1.595-.327.126-.185.658.146.53z"/><path d="m30.16 77.39c1.381-.532 2.761-1.063 4.142-1.595.327-.126.185-.657-.146-.53-1.381.531-2.761 1.063-4.142 1.595-.327.126-.185.658.146.53z"/><path d="m29.709 76.219c1.381-.532 2.761-1.063 4.142-1.595.327-.126.185-.657-.146-.53-1.381.532-2.761 1.063-4.142 1.595-.327.126-.185.658.146.53z"/><path d="m29.258 75.048c1.38-.532 2.761-1.063 4.142-1.595.327-.126.185-.657-.146-.53-1.381.531-2.761 1.063-4.142 1.595-.327.126-.185.657.146.53z"/><path d="m28.826 73.861c1.381-.532 2.761-1.063 4.142-1.595.327-.126.185-.657-.146-.53-1.381.532-2.761 1.063-4.142 1.595-.327.126-.185.658.146.53z"/><path d="m31.643 84.031c1.381-.531 2.761-1.063 4.142-1.595.49-.189.277-.986-.219-.795-1.381.532-2.761 1.063-4.142 1.595-.49.189-.277.986.219.795z"/><path d="m72.161 84.964c4.501-2.025 8.997-4.059 13.502-6.075-.185-.316-.37-.633-.555-.949-.021.009-.041.019-.062.028-.644.29-.086 1.237.555.949.021-.009.041-.019.062-.028.645-.29.086-1.236-.555-.949-4.505 2.016-9.001 4.05-13.502 6.075-.644.29-.085 1.238.555.949z"/><path d="m50.857 90.786v10.605c0 .707 1.099.709 1.099 0 0-3.535 0-7.07 0-10.605.001-.707-1.099-.709-1.099 0z"/><path d="m51.637 102.079h6.887c.707 0 .709-1.099 0-1.099-2.295 0-4.591 0-6.887 0-.708-.001-.709 1.099 0 1.099z"/><path d="m59.211 101.575c0-3.581 0-7.162 0-10.743 0-.707-1.099-.709-1.099 0v10.743c-.001.707 1.099.708 1.099 0z"/><path d="m51.822 102.034v1.836c0 .707 1.099.709 1.099 0 0-.612 0-1.224 0-1.836 0-.707-1.099-.709-1.099 0z"/><path d="m52.234 104.741h5.234c.707 0 .709-1.099 0-1.099-1.745 0-3.489 0-5.234 0-.708 0-.709 1.099 0 1.099z"/><path d="m58.155 104.146c0-.719 0-1.438 0-2.158 0-.707-1.099-.709-1.099 0v2.158c-.001.707 1.099.708 1.099 0z"/><path d="m54.622 104.743v.781c0 .288.253.563.55.55.298-.013.55-.242.55-.55 0-.26 0-.52 0-.781 0-.288-.253-.563-.55-.55-.298.013-.55.241-.55.55z"/><path d="m53.611 99.875c.707 0 .709-1.099 0-1.099-.707 0-.709 1.099 0 1.099z"/><path d="m56.595 99.967c.707 0 .709-1.099 0-1.099-.707 0-.709 1.099 0 1.099z"/><path d="m53.611 97.35c.707 0 .709-1.099 0-1.099-.707-.001-.709 1.099 0 1.099z"/><path d="m56.549 97.212c.707 0 .709-1.099 0-1.099-.707 0-.708 1.099 0 1.099z"/><path d="m53.657 94.228c.707 0 .709-1.099 0-1.099-.708 0-.709 1.099 0 1.099z"/><path d="m56.687 94.32c.707 0 .709-1.099 0-1.099-.708 0-.709 1.099 0 1.099z"/></g><path d="m90.661 73.046v11.503c0 1.576-1.28 2.856-2.855 2.856h-28.08c-1.578 0-2.855-1.28-2.855-2.856v-11.503h14.556c.052 1.061.928 1.904 2.001 1.904h1.309c1.073 0 1.949-.842 2.001-1.904z" fill="#fff"/><path d="m87.806 66.206h-8.964v-3.946c0-.73-.527-1.336-1.221-1.462-.234-.091-.495-.144-.773-.144h-5.828c-.265 0-.932.07-1.157.153-.06-.007.296-.034.234-.034-.822 0-1.487.666-1.487 1.487v3.945h-8.883c-1.578 0-2.855 1.28-2.855 2.856v3.331h14.652c.098-.304.269-.578.49-.8.362-.364.862-.588 1.416-.588h1.309c.89 0 1.647.581 1.906 1.387h14.019v-3.331c-.003-1.574-1.283-2.854-2.858-2.854zm-16.222 0v-2.756h4.284v2.756z" fill="#fff"/><path d="m75.724 73.019c0 .566-.459 1.025-1.025 1.025h-1.255c-.566 0-1.025-.459-1.025-1.025 0-.566.459-1.025 1.025-1.025h1.255c.566 0 1.025.459 1.025 1.025z" fill="#fff"/><circle cx="92.139" cy="27.632" fill="#15ffab" r=".908"/><circle cx="68.536" cy="13.665" fill="#15ffab" r=".908"/><path d="m9.879 31.574 1.725 3.003-.528.303-1.725-3.003-.805.462-.285-.496 2.135-1.226.285.496z" fill="#fff"/><path d="m11.512 31.694.51-.293.113.197c.037-.152.082-.267.134-.345.052-.08.129-.15.23-.208.134-.077.3-.114.497-.111l.035.601c-.137-.014-.251.006-.343.059-.278.16-.297.449-.055.869l.657 1.144-.51.293z" fill="#fff"/><path d="m14.875 29.762.512-.294 1.268 2.207-.512.294-.133-.231c-.097.317-.267.545-.508.684-.305.175-.621.21-.947.104-.327-.111-.588-.336-.781-.672-.19-.331-.249-.663-.178-.998.071-.334.256-.587.553-.758.257-.148.548-.174.873-.08zm-.58 1.792c.121.211.277.351.467.419.193.068.379.051.555-.051.189-.108.304-.261.346-.458.039-.201-.001-.405-.12-.612s-.275-.345-.469-.412c-.192-.065-.381-.043-.567.063-.175.101-.283.251-.325.452-.038.201 0 .401.113.599z" fill="#fff"/><path d="m16.305 28.94 1.283.912-.143-1.567.573-.329.208 3.018-2.493-1.706z" fill="#fff"/><path d="m21.076 27.827-1.582.909c.118.174.26.284.426.331.165.046.329.022.492-.072.127-.073.215-.163.263-.272.047-.107.076-.272.086-.495l.569-.007c-.001.152-.016.289-.043.412-.028.123-.069.235-.123.336-.055.101-.124.192-.208.272-.084.081-.184.154-.299.22-.329.189-.654.235-.975.138-.322-.098-.584-.324-.786-.676-.201-.349-.266-.687-.197-1.014.072-.325.269-.58.592-.765.325-.187.641-.231.949-.132.305.098.563.329.772.693zm-.763-.116c-.227-.231-.477-.269-.749-.112-.062.036-.115.078-.158.129-.043.05-.077.106-.102.167-.024.061-.038.126-.041.194s.005.139.025.212z" fill="#fff"/><path d="m20.51 24.37 2.199 3.827-.51.293-2.199-3.827z" fill="#fff"/><path d="m24.124 23.391 1.725 3.003-.528.303-1.725-3.003-.805.462-.285-.496 2.135-1.226.285.496z" fill="#fff"/><path d="m25.758 23.511.51-.293.113.197c.037-.152.082-.267.133-.345.052-.08.129-.15.23-.208.134-.077.3-.114.497-.111l.035.601c-.137-.014-.251.006-.343.059-.278.16-.297.449-.055.869l.657 1.144-.51.293z" fill="#fff"/><path d="m29.121 21.579.512-.294 1.268 2.207-.512.294-.133-.231c-.097.317-.266.545-.508.684-.305.175-.621.21-.947.104-.327-.111-.588-.336-.781-.672-.19-.331-.25-.663-.178-.998.071-.334.256-.587.553-.758.257-.148.548-.174.873-.08zm-.581 1.792c.122.211.277.351.467.419.193.068.379.051.555-.051.189-.109.304-.261.346-.458.039-.202-.001-.405-.12-.612s-.275-.345-.468-.412c-.192-.065-.381-.044-.567.063-.175.101-.284.251-.325.452-.039.202-.001.401.112.599z" fill="#fff"/><path d="m32.049 20.024.389.677c-.198-.075-.358-.113-.481-.113-.122-.002-.244.032-.366.102-.192.11-.313.269-.362.476-.05.208-.016.412.1.615.119.207.277.342.476.404.2.062.396.038.588-.073.122-.07.215-.159.278-.265.061-.103.111-.264.148-.483l.387.673c-.145.226-.321.399-.528.517-.341.196-.69.25-1.047.161-.357-.09-.63-.3-.82-.629-.189-.329-.233-.674-.13-1.034.102-.36.323-.638.661-.832.218-.124.453-.189.707-.196z" fill="#fff"/><path d="m32.067 17.732 1.341 2.334.308-1.127.685-.393-.426 1.477 1.765.689-.662.38-1.265-.512-.035.129.488.85-.51.293-2.199-3.827z" fill="#fff"/><path d="m35.759 16.048 2.255 1.815-.49-3.055 2.352 1.985-.376-2.895.573-.329.574 4.619-2.324-1.963.487 3.02-3.625-2.869z" fill="#fff"/><path d="m40.55 13.793c-.051-.089-.063-.185-.035-.287s.087-.179.177-.232c.092-.053.189-.065.292-.038.101.026.178.085.231.177s.065.189.038.292c-.026.101-.085.179-.177.232s-.189.065-.292.038-.181-.088-.234-.182zm1.114.581 1.268 2.207-.51.293-1.268-2.207z" fill="#fff"/><path d="m42.31 14.003.512-.294.117.204c.077-.279.227-.483.45-.611.257-.148.504-.182.74-.103.203.067.394.255.573.566l.777 1.353-.512.294-.708-1.233c-.125-.218-.242-.35-.35-.399-.108-.051-.239-.031-.395.058-.169.097-.257.222-.264.375-.006.15.07.363.228.638l.612 1.065-.512.294z" fill="#fff"/><path d="m44.855 12.541.512-.294.117.204c.077-.279.227-.483.45-.612.257-.148.503-.181.74-.103.203.067.394.255.573.566l.777 1.353-.512.294-.708-1.233c-.125-.218-.242-.351-.35-.399-.107-.051-.239-.031-.394.058-.169.097-.257.222-.264.375-.006.15.07.363.228.638l.612 1.065-.512.294z" fill="#fff"/><path d="m50.112 11.148-1.582.909c.118.174.259.284.425.331.165.046.329.022.492-.072.127-.073.215-.163.263-.272.047-.107.076-.272.086-.495l.569-.007c-.001.152-.016.289-.044.412-.027.123-.069.235-.123.336-.055.101-.124.192-.208.272-.084.081-.184.154-.299.22-.329.189-.654.235-.975.138-.322-.098-.584-.324-.786-.676-.201-.349-.266-.687-.197-1.014.073-.325.27-.58.591-.765.325-.187.641-.231.949-.132.305.098.563.329.772.693zm-.763-.116c-.227-.231-.477-.269-.749-.112-.062.036-.115.078-.158.129-.044.05-.078.106-.102.167s-.038.126-.041.194.005.139.025.212z" fill="#fff"/><path d="m49.967 9.604.51-.293.113.197c.037-.152.082-.267.133-.345.052-.08.129-.15.23-.208.134-.077.3-.114.497-.111l.035.601c-.137-.014-.251.006-.343.059-.278.16-.296.449-.055.869l.657 1.144-.51.293z" fill="#fff"/><path d="m74.098 110.131.411-.239.844 1.453c.07-.216.193-.375.369-.478.201-.117.399-.145.595-.084.168.054.324.205.468.453l.633 1.09-.411.239-.611-1.052c-.083-.142-.168-.231-.255-.266-.088-.034-.187-.019-.299.046-.144.083-.219.186-.226.309-.005.123.056.294.183.513l.499.86-.411.239z" fill="#fff"/><path d="m78.216 109.485.413-.24 1.032 1.778-.412.24-.108-.186c-.077.256-.213.441-.408.554-.246.143-.501.172-.765.087-.265-.089-.476-.269-.633-.54-.155-.267-.204-.535-.148-.805s.204-.475.444-.614c.207-.12.442-.143.705-.067zm-.461 1.45c.099.17.225.283.379.337.157.054.306.04.448-.043.152-.088.245-.212.278-.371.031-.162-.002-.327-.099-.494s-.223-.277-.38-.331c-.155-.051-.307-.034-.457.053-.141.082-.228.204-.261.366-.032.162-.001.323.092.483z" fill="#fff"/><path d="m80.576 108.217.317.546c-.16-.06-.29-.09-.389-.089-.099-.002-.197.027-.295.084-.155.09-.252.218-.291.386s-.012.333.083.496c.097.167.226.275.387.325.162.049.32.029.475-.061.099-.057.173-.129.224-.215.049-.084.088-.214.117-.391l.315.542c-.117.183-.258.323-.425.42-.275.16-.557.205-.845.134-.289-.071-.51-.24-.664-.505s-.19-.544-.109-.835c.082-.291.258-.516.531-.675.174-.101.364-.155.569-.162z" fill="#fff"/><path d="m80.582 106.366 1.092 1.88.245-.911.551-.32-.339 1.195 1.428.55-.533.31-1.024-.409-.028.104.398.685-.411.239-1.79-3.083z" fill="#fff"/><path d="m84.102 106.067.412-.24 1.033 1.778-.413.24-.108-.186c-.077.256-.213.441-.408.554-.246.143-.501.172-.765.087-.265-.089-.476-.269-.633-.54-.155-.267-.204-.535-.148-.805s.204-.475.444-.614c.207-.12.442-.143.705-.068zm-.462 1.45c.099.17.225.283.379.337.157.054.306.04.448-.043.152-.088.245-.212.278-.371.031-.162-.002-.327-.099-.494s-.223-.277-.38-.331c-.155-.051-.307-.034-.457.053-.141.082-.228.204-.261.366-.031.163 0 .323.092.483z" fill="#fff"/><path d="m85.679 105.664.81 1.395-.411.238-.81-1.395-.175.102-.223-.383.175-.102-.378-.652.411-.238.378.652.319-.186.223.383z" fill="#fff"/><path d="m85.298 103.628.411-.239.844 1.453c.07-.216.193-.375.369-.478.201-.117.399-.145.596-.084.168.054.324.205.468.453l.633 1.09-.411.239-.611-1.052c-.083-.142-.168-.231-.255-.265-.088-.034-.187-.019-.299.046-.144.083-.219.186-.226.309-.005.123.056.294.183.513l.499.86-.411.239z" fill="#fff"/><path d="m88.531 104.668c-.149-.257-.184-.529-.105-.816s.251-.507.515-.66c.265-.154.543-.194.833-.12.288.075.508.245.662.509.155.267.192.543.113.83-.081.286-.256.507-.525.664-.267.155-.543.193-.829.115-.284-.075-.506-.25-.664-.522zm.424-.237c.103.178.232.291.387.339.158.048.317.026.476-.067.161-.093.259-.22.295-.379s.004-.325-.097-.498c-.1-.173-.229-.283-.385-.331-.158-.048-.317-.026-.476.067-.157.091-.254.217-.29.378-.036.162-.006.326.09.491z" fill="#fff"/><path d="m90.353 102.438.413-.24.095.164c.061-.226.181-.391.362-.495.207-.12.406-.149.597-.086.164.053.319.204.465.455l.633 1.09-.413.24-.577-.993c-.102-.175-.196-.282-.284-.321-.087-.041-.193-.024-.319.048-.136.079-.207.18-.212.304-.004.121.058.293.186.514l.498.858-.413.24z" fill="#fff"/><path d="m95.035 101.563 1.05-.61.232.4-1.893 1.099.291-1.753c.028-.174.049-.323.064-.447s.022-.225.023-.304c.003-.155-.022-.277-.075-.369-.076-.131-.186-.215-.331-.25-.144-.035-.284-.013-.421.066-.285.165-.35.428-.196.79l-.424.246c-.277-.634-.149-1.105.383-1.414.257-.149.52-.192.788-.131.27.061.475.213.615.453.089.154.136.327.14.522.003.101-.005.227-.023.378-.019.152-.047.335-.086.549z" fill="#fff"/><path d="m95.968 99.647c-.261-.449-.364-.868-.31-1.258.047-.351.203-.604.47-.759.266-.155.564-.165.892-.032.365.146.681.45.949.911.267.46.374.885.32 1.274-.047.351-.203.604-.468.758s-.563.165-.894.033c-.365-.146-.685-.455-.959-.927zm.419-.241c.182.313.387.541.615.685.226.141.423.162.591.064.167-.097.246-.278.238-.545-.008-.266-.101-.552-.28-.86s-.382-.532-.61-.671c-.227-.138-.424-.159-.59-.062-.166.096-.245.277-.237.543.008.262.099.545.273.846z" fill="#fff"/><path d="m98.553 96.817-.487.283.003-.533.679-.394 1.637 2.819-.425.247z" fill="#fff"/><path d="m101.052 96.643c-.292-.026-.511-.165-.657-.417-.133-.229-.165-.466-.097-.71.069-.245.221-.436.456-.573.234-.136.473-.172.718-.109.244.062.433.208.568.439.141.242.153.5.036.773.148-.005.289.032.421.112.133.079.243.191.327.337.145.25.182.501.112.755s-.233.455-.487.603c-.26.151-.522.196-.784.133-.264-.062-.466-.214-.607-.458-.185-.315-.187-.61-.006-.885zm-.258-.65c.07.12.169.198.298.232.131.035.255.018.372-.05.116-.067.191-.166.225-.297.035-.131.019-.254-.049-.37-.067-.115-.166-.191-.297-.226s-.254-.018-.37.049-.191.166-.226.297c-.033.131-.018.253.047.365zm.672 1.279c.076.13.186.216.33.258.145.039.283.021.413-.054.129-.075.213-.184.251-.329.038-.146.019-.283-.056-.412-.076-.13-.186-.214-.33-.253-.144-.038-.281-.02-.41.055-.128.074-.211.184-.251.329-.038.144-.02.28.053.406z" fill="#fff"/><path d="m57.834 122.24c-.018-.031-.037-.062-.055-.094-.018-.031-.036-.063-.045-.098-.007-.028-.024-.051-.036-.077-.009-.018-.02-.036-.021-.057 0-.005-.001-.01-.003-.014-.018-.037-.032-.074-.044-.114-.011-.036-.021-.072-.031-.108-.015-.05-.025-.1-.035-.151-.014-.072-.024-.145-.031-.218-.009-.094-.011-.189-.009-.283.001-.072.011-.143.018-.215.006-.064.024-.125.034-.188.013-.081.039-.158.062-.236.037-.121.087-.237.145-.348.038-.073.082-.144.127-.214.025-.039.051-.078.081-.113.029-.034.052-.074.087-.103.013-.01.014-.028.029-.037.012-.007.02-.019.028-.031.013-.02.034-.031.05-.049.025-.029.056-.055.085-.081.034-.03.071-.057.105-.088.032-.029.067-.052.101-.077.074-.053.149-.105.231-.147.104-.052.209-.103.319-.142.041-.015.083-.029.125-.041.034-.01.067-.027.104-.026.025-.015.056-.009.081-.021.02-.01.043-.007.064-.012.046-.011.094-.016.142-.021.09-.009.18-.014.271-.013.09.001.18.011.27.02s.175.036.264.048c.014.002.027.007.041.012.03.01.058.022.089.029.075.017.145.048.216.079.055.024.111.048.165.076.058.03.113.065.169.099.074.047.145.098.212.155.038.032.08.06.11.101.032.015.044.053.076.069.008.004.013.014.018.021.011.015.022.03.038.042.009.006.016.015.022.024.014.019.026.039.046.053.01.007.016.019.023.029.021.032.041.064.066.092.028.031.048.066.069.101.025.042.05.084.074.126.021.035.042.071.055.11.011.033.028.063.044.094.009.018.021.036.02.057 0 .003.001.006.002.009.018.035.03.072.041.11.006.021.015.04.019.062.004.026.015.051.021.076.02.074.034.149.046.224.017.107.025.213.026.321.001.056-.006.112-.003.167-.016.113-.023.227-.052.338-.008.032-.012.065-.021.096-.015.051-.033.102-.048.153-.017.057-.043.11-.065.165-.052.13-.123.249-.197.367-.038.041-.062.093-.101.133-.015.015-.026.034-.04.051-.032.036-.06.076-.095.109-.026.025-.047.056-.078.074-.061.068-.137.12-.206.179-.002.002-.005.004-.007.006-.09.06-.177.127-.275.174-.074.035-.145.076-.222.104-.047.017-.094.035-.141.054-.03.012-.063.019-.094.029-.038.013-.078.024-.118.03-.047.008-.093.026-.142.025-.095.021-.191.028-.287.031-.092.003-.184.004-.276-.009-.043-.006-.087-.007-.13-.014-.052-.008-.104-.021-.156-.029-.1-.015-.193-.053-.289-.081-.051-.015-.098-.041-.147-.06-.073-.029-.141-.066-.209-.104-.084-.047-.164-.101-.241-.158-.043-.032-.084-.067-.124-.102-.039-.034-.075-.072-.112-.107-.028-.026-.048-.058-.08-.08-.006-.004-.01-.012-.015-.018-.017-.025-.033-.049-.057-.068-.013-.01-.021-.027-.03-.042-.018-.028-.037-.055-.06-.079-.011-.011-.02-.024-.028-.037-.027-.038-.05-.079-.075-.119zm1.488-.91c.043-.035.081-.072.126-.101.089-.059.18-.117.28-.156.041-.016.078-.042.119-.057.075-.027.142-.067.21-.107.037-.022.073-.043.102-.075.007-.008.017-.015.026-.02.037-.02.057-.059.091-.081.045-.061.093-.12.119-.194.037-.105.038-.208-.008-.31-.017-.039-.04-.075-.064-.11-.04-.056-.093-.097-.155-.125-.069-.031-.141-.046-.218-.046-.066 0-.13.007-.192.029-.004.002-.009.002-.014.002-.015-.002-.027.006-.04.012-.062.032-.121.068-.179.106-.009.006-.02.011-.024.022-.007.016-.02.023-.033.032-.006.005-.014.009-.018.015-.025.037-.058.069-.084.106-.045.063-.082.13-.107.202-.045.127-.065.259-.061.395.003.084.016.166.036.246.008.03.012.062.028.09.009.016.014.034.019.053.006.027.018.053.041.072zm.262-.015c-.02.012-.04.025-.061.036-.023.012-.039.031-.057.049-.005.006-.013.009-.019.014-.022.017-.05.027-.065.053-.014.024-.048.031-.057.061-.036.04-.062.085-.085.133-.052.107-.048.215-.006.322.027.069.074.124.135.17.075.056.159.082.248.085.08.003.161-.002.236-.04.008-.004.018-.005.027-.007s.018-.004.027-.008c.081-.038.159-.098.224-.168.027-.028.051-.058.075-.089.062-.081.1-.173.13-.269.014-.044.017-.089.026-.133.008-.04.01-.081.01-.121 0-.08-.008-.159-.024-.238-.005-.022-.015-.041-.018-.063-.007-.047-.029-.089-.044-.133-.003-.009-.008-.017-.013-.025-.007-.012-.013-.013-.026-.003-.032.023-.064.045-.092.073-.011.011-.025.02-.038.028-.06.035-.119.07-.18.105-.016.009-.034.017-.052.023-.027.009-.053.021-.077.034-.026.014-.052.031-.08.041-.052.016-.098.042-.144.07z" fill="#fff"/><path d="m68.352 116.448c.154.262.309.524.463.786.012.02.024.039.035.06.017.034.013.049-.02.072-.017.011-.034.021-.052.031-.124.073-.247.146-.371.218-.118.069-.095.075-.164-.039-.015-.025-.029-.049-.044-.074-.004-.007-.009-.015-.016-.02-.006-.005-.015-.007-.022.001-.011.014-.016.03-.018.047-.015.113-.065.212-.129.303-.032.045-.063.096-.117.123-.012.006-.024.017-.033.027-.061.069-.135.114-.225.132-.011.002-.022.007-.032.013-.088.047-.183.053-.28.06-.112.008-.221-.008-.328-.038-.093-.026-.181-.066-.262-.119-.033-.022-.065-.045-.098-.068-.048-.035-.094-.072-.131-.119-.012-.016-.022-.034-.037-.047-.088-.075-.131-.18-.187-.276-.01-.017-.013-.038-.019-.057s-.009-.039-.018-.057c-.044-.088-.055-.184-.065-.28-.017-.162.005-.319.064-.469.036-.092.088-.177.146-.259.042-.059.109-.091.147-.153.086-.05.161-.122.265-.134.008-.001.017-.005.024-.008.108-.049.221-.049.335-.034.045.006.091.013.133.031.019.008.038.011.058.01.011-.001.014-.011.011-.018-.008-.018-.018-.036-.028-.053-.023-.04-.046-.079-.069-.119-.01-.018-.005-.033.012-.044.029-.019.057-.039.086-.057.111-.066.222-.132.334-.197.032-.019.066-.034.1-.05.017-.008.034-.003.044.015.012.02.024.039.035.059.159.267.316.534.473.801zm-1.436.84c.045.083.111.143.19.192.122.075.25.105.389.058.011-.004.022-.007.033-.008.036-.003.065-.021.095-.037.055-.029.081-.088.131-.122.064-.103.103-.213.094-.338-.004-.052-.022-.099-.033-.149-.01-.046-.028-.088-.056-.124-.065-.084-.141-.158-.24-.201-.153-.067-.305-.062-.451.025-.044.026-.081.059-.115.1-.031.038-.059.076-.076.121-.065.167-.046.328.039.483z" fill="#fff"/><path d="m71.681 114.417c.16.272.321.544.481.817.033.055.048.063-.025.106-.149.087-.297.175-.445.262-.005.003-.01.006-.015.008-.039.02-.047.019-.07-.017-.021-.034-.041-.069-.062-.104-.007-.012-.014-.025-.023-.036-.005-.006-.013-.011-.02-.012-.012-.002-.014.009-.014.017-.003.046-.014.09-.028.134-.028.084-.07.159-.127.227-.03.036-.062.066-.099.093-.007.005-.015.01-.02.017-.051.071-.127.109-.203.14-.081.033-.164.071-.253.074-.165.007-.322-.021-.456-.131-.038-.031-.074-.062-.1-.104-.008-.012-.015-.026-.026-.034-.052-.039-.083-.095-.115-.149-.215-.363-.43-.727-.644-1.091-.039-.067-.039-.068.024-.106.143-.085.287-.169.43-.254.01-.006.02-.012.03-.017.031-.015.048-.012.067.015.013.019.024.039.036.059.149.252.297.505.446.757.035.059.071.118.109.176.045.069.132.135.208.171.033.016.069.023.099.017.094-.018.194-.029.253-.123.017-.026.046-.039.063-.069.044-.08.048-.164.032-.25-.016-.085-.047-.164-.092-.239-.162-.271-.321-.544-.482-.816-.065-.111-.066-.095.041-.159.128-.076.257-.152.386-.227.02-.012.04-.022.061-.032.015-.007.029-.002.038.011.015.021.028.043.041.066.159.268.317.536.474.803z" fill="#fff"/><path d="m63.735 119.478c.074-.044.148-.087.223-.131.034-.02.047-.028.079.012.05.064.119.096.201.084.083-.013.162-.036.231-.088.039-.03.067-.071.096-.109.022-.029.026-.067.01-.106-.032-.077-.075-.109-.159-.103-.054.004-.108.012-.161.024-.117.026-.232.061-.35.08-.111.019-.22.05-.335.048-.092-.002-.18-.014-.262-.058-.053-.029-.104-.06-.136-.114-.007-.012-.017-.024-.027-.033-.031-.028-.051-.061-.061-.101-.004-.017-.012-.032-.019-.048-.082-.165-.055-.326.027-.481.031-.059.066-.119.123-.161.023-.05.07-.074.112-.104.012-.008.023-.017.033-.028.092-.1.216-.148.33-.214.046-.005.089-.019.129-.044.038-.024.086-.008.123-.032.133-.015.265-.025.394.028.097.04.181.094.247.177.016.02.033.039.049.06.026.036.023.049-.017.075-.01.006-.02.012-.03.018-.131.077-.262.155-.393.232-.015.009-.029.018-.045.026-.025.012-.043.007-.061-.013-.011-.013-.02-.028-.032-.041-.034-.036-.074-.063-.124-.065-.086-.004-.166.015-.225.083-.028.032-.064.056-.078.101-.029.091.03.194.124.205.042.005.087.004.128-.004.107-.02.213-.046.319-.069.133-.029.264-.071.4-.079.103-.006.204-.002.298.051.038.021.075.044.102.076.06.069.111.142.147.23.072.178.045.346-.028.512-.024.054-.09.142-.136.183-.027.025-.04.062-.075.081-.03.016-.062.034-.084.06-.054.063-.126.099-.195.139-.032.019-.065.036-.102.045-.028.007-.056.017-.08.032-.062.041-.134.052-.202.068-.056.013-.116.023-.176.021-.083-.002-.166-.011-.242-.041-.081-.032-.163-.069-.218-.143-.053-.028-.081-.079-.111-.127-.005-.007-.009-.015-.013-.022-.011-.023-.009-.035.015-.05.046-.029.094-.056.141-.084.032-.02.064-.039.096-.058z" fill="#fff"/><path d="m72.991 113.175c-.067.039-.133.079-.2.118-.017.01-.035.02-.053.028-.015.007-.028.003-.038-.01-.017-.023-.032-.047-.055-.066-.103-.084-.24-.055-.33.023-.021.019-.041.04-.058.063-.062.08-.057.193.061.248.01.005.022.006.033.006.051.001.103.002.154-.009.106-.023.212-.044.318-.071.074-.019.149-.041.224-.053.108-.017.217-.033.328-.011.093.018.169.062.24.119.011.009.018.022.026.034l.081.132c.085.144.086.296.048.453-.025.105-.089.188-.147.276-.055.04-.086.106-.151.137-.018.008-.033.023-.048.037-.087.087-.191.145-.306.185-.024.008-.049.018-.071.03-.138.071-.286.091-.437.084-.11-.005-.213-.039-.304-.102-.084-.058-.154-.128-.203-.217-.018-.034-.015-.05.02-.071.145-.087.292-.172.437-.258.005-.003.01-.006.015-.008.033-.014.053-.012.074.02.041.061.1.083.169.081.099-.002.248-.055.31-.141.029-.04.06-.074.062-.127.002-.047-.041-.11-.085-.126-.042-.015-.085-.017-.127-.009-.081.015-.162.037-.243.052-.09.016-.176.045-.267.054-.042.004-.082.019-.125.026-.095.015-.197.02-.286.008-.133-.018-.235-.088-.311-.193-.093-.129-.139-.274-.116-.436.014-.099.056-.184.112-.264.034-.049.074-.093.113-.138.013-.015.031-.025.047-.037.027-.02.057-.036.075-.069.009-.016.03-.026.047-.037.059-.036.117-.072.177-.107.042-.025.084-.05.134-.055.014-.001.028-.008.04-.015.069-.037.143-.05.22-.059.051-.006.1-.01.152-.009.125.001.236.042.334.112.067.047.129.104.164.182.011.024.009.034-.014.05-.005.003-.01.006-.015.009-.076.043-.15.087-.225.131z" fill="#fff"/><path d="m68.712 116.196c-.076-.129-.152-.257-.227-.386-.01-.017-.02-.035-.031-.051-.019-.027-.037-.033-.066-.018-.046.024-.089.052-.134.077-.02.011-.04.024-.06.033-.03.013-.048.007-.065-.02-.024-.039-.047-.079-.07-.118-.039-.067-.079-.133-.118-.2-.023-.039-.019-.052.021-.076.046-.029.094-.056.141-.084.017-.01.034-.021.051-.032s.02-.029.013-.045c-.008-.021-.02-.041-.032-.061-.074-.126-.149-.252-.223-.379-.043-.073-.043-.074.031-.117.133-.079.267-.157.401-.236.015-.009.03-.018.045-.025.014-.006.03-.002.039.009.014.018.027.037.038.057.073.123.146.247.219.371.056.096.053.082.135.035.077-.045.153-.09.23-.135.02-.012.04-.022.061-.032.014-.006.028-.003.038.011.005.007.01.014.014.022.061.104.123.207.183.312.02.035.018.05-.012.073-.016.012-.033.022-.051.033-.074.044-.148.087-.222.131-.017.01-.034.021-.051.032-.016.011-.02.028-.013.045.005.013.013.026.02.038.117.198.234.395.35.593.029.05.068.092.11.131.024.023.052.036.081.046s.058.011.091.002c.093-.026.177-.067.251-.128.007-.006.014-.01.021-.015.022-.014.038-.011.052.007.007.009.012.019.018.029.061.104.122.208.184.312.007.012.014.025.02.038.011.024.008.038-.013.052-.125.081-.231.19-.367.253-.031.014-.059.034-.095.038-.019.002-.038.012-.056.02-.187.088-.362.069-.529-.055-.086-.064-.158-.139-.212-.232-.07-.118-.14-.236-.211-.355z" fill="#fff"/><path d="m65.233 118.24c-.074-.126-.149-.252-.223-.378-.012-.02-.023-.04-.036-.059-.015-.022-.036-.027-.06-.015-.023.011-.045.025-.067.038-.04.023-.079.048-.119.069-.039.02-.057.015-.078-.021-.062-.103-.123-.207-.184-.311-.025-.044-.022-.054.024-.082.054-.033.109-.064.163-.097.047-.029.051-.04.024-.09-.02-.038-.043-.074-.065-.111-.057-.096-.114-.193-.17-.289-.012-.02-.022-.04-.032-.061-.006-.014-.003-.028.011-.038.007-.005.014-.01.022-.014.148-.087.296-.175.445-.262.038-.022.054-.019.079.017.012.016.021.034.031.051.067.114.134.227.201.341.01.017.02.035.031.052.026.039.037.042.077.019.087-.05.173-.101.26-.153.101-.06.092-.051.142.034.053.089.105.178.157.267.026.044.024.054-.017.085-.018.014-.038.025-.058.037-.069.041-.138.082-.208.123-.017.01-.034.021-.051.032-.016.012-.018.029-.012.046.006.016.016.031.024.045.111.188.222.375.332.564.035.06.079.112.132.157.051.043.105.058.173.039.09-.025.171-.066.243-.125.009-.007.019-.014.029-.018.014-.006.029-.004.039.008.009.011.017.023.024.035.061.104.122.208.184.311.006.01.012.02.016.03.012.027.008.042-.015.059-.016.012-.034.022-.05.034-.023.017-.048.032-.068.052-.081.08-.183.127-.28.183-.014.008-.032.013-.049.016-.026.005-.049.015-.072.026-.184.086-.358.066-.521-.054-.084-.061-.155-.134-.208-.225-.072-.124-.145-.247-.218-.371-.001.004-.001.004-.002.004z" fill="#fff"/></svg>