<svg enable-background="new 0 0 110.979 128.417" viewBox="0 0 110.979 128.417" xmlns="http://www.w3.org/2000/svg"><path d="m55.591 127.708-54.992-31.75v-63.499l54.992-31.751 54.992 31.751v63.499z" fill="#050a32"/><path d="m55.59 10.758-46.358 26.726v53.451l46.358 26.723 46.361-26.723v-53.451zm44.484 79.1-44.484 25.648-44.486-25.648v-51.287l44.486-25.647 44.484 25.647z" fill="#26ffad"/><path d="m50.916 112.988c.07.053.143.103.217.152v-9.522c0-.458-.71-.458-.71 0v8.988c.18.101.324.252.493.382z" fill="#fff"/><path d="m44.481 88.536c.782 2.607 1.802 5.12 2.879 7.617 1.096 2.539 2.554 5.162 3.017 7.911.076.451.76.259.685-.189-.419-2.489-1.696-4.877-2.696-7.178-1.191-2.739-2.34-5.486-3.2-8.349-.131-.438-.817-.251-.685.188z" fill="#fff"/><path d="m45.13 88.496c-1.853-3.44-5.383-5.675-7.198-9.175-.162-.313-1.119-3.399-.024-3.11.852.225 1.632 1.326 2.184 1.945 1.62 1.816 3.065 3.89 5.027 5.362.581.435 1.33.812 2.066.592.764-.228 1.172-1.04.862-1.744-.184-.418-.796-.057-.613.358.501 1.139-1.518.479-1.822.276-1.03-.685-1.871-1.701-2.679-2.623-1.329-1.515-2.748-3.94-4.661-4.783-2.172-.957-1.44 2.969-1.085 3.808 1.581 3.734 5.435 5.938 7.329 9.451.218.405.831.046.614-.357z" fill="#fff"/><path d="m48.026 82.452c-.481-3.382-2.335-6.647-3.61-9.778-.594-1.459-1.204-2.956-1.488-4.512-.396-2.172 1.527-1.065 2.382-.057 2.317 2.734 3.18 6.428 4.767 9.577.402.798 1.074 2.522 2.039 2.833 1.175.378.925-1.757.885-2.288-.035-.453-.745-.457-.71 0 .045.587.333 2.123-.439 1.088-.458-.614-.812-1.313-1.161-1.992-.727-1.411-1.267-2.893-1.886-4.351-.752-1.771-3.056-7.834-5.928-6.784-1.97.72.324 5.343.738 6.383 1.29 3.24 3.231 6.58 3.727 10.069.064.452.748.26.684-.188z" fill="#fff"/><path d="m50.844 62.371c-.903 2.18-.391 4.767.01 7.006.54 3.009 1.232 5.961 1.436 9.024.03.454.741.457.71 0-.181-2.704-.69-5.352-1.227-8.003-.495-2.444-1.242-5.431-.245-7.839.176-.422-.511-.605-.684-.188z" fill="#26ffad"/><path d="m51.438 62.717c2.586-2.042 3.903 7.253 4.168 8.698.353 1.921.401 3.877.681 5.809.143.987.495 3.27 1.999 2.804.436-.135.25-.82-.189-.685-1.258.389-1.441-5.379-1.518-6.186-.156-1.629-.51-3.259-.834-4.861-.371-1.83-1.652-8.575-4.809-6.082-.36.284.146.783.502.503z" fill="#fff"/><path d="m58.325 79.937c.888-1.086 1.212-2.522 1.48-3.867.395-1.977.569-3.999.791-6.001.198-1.79.347-3.666.967-5.371.156-.429.469-1.107 1.028-1.014 1.1.184 1.257 1.988 1.342 2.826.216 2.135-.054 4.313-.2 6.444-.168 2.457-.233 4.937-.254 7.399-.022 2.526.017 5.175.753 7.613.193.639.468 1.629 1.094 1.996.717.42 1.518-.275 2.046-.686.361-.281-.145-.779-.502-.502-1.149.893-1.439.411-1.858-.719-.183-.494-.301-1.008-.408-1.523-.279-1.342-.344-2.732-.392-4.098-.095-2.716.062-5.435.169-8.148.085-2.164.334-4.319.323-6.487-.007-1.343-.014-3.685-1.324-4.527-2.544-1.636-3.07 3.418-3.25 4.777-.284 2.141-.46 4.295-.772 6.432-.235 1.61-.467 3.648-1.535 4.954-.287.351.212.857.502.502z" fill="#fff"/><path d="m67.373 89.277c2.351-2.159 5.915-5.573 9.371-3.857 1.743.865-3.084 4.083-3.717 4.574-2.38 1.847-3.521 4.715-5.08 7.211-1.027 1.645-2.297 2.886-3.915 3.934-1.101.713-1.986 1.519-2.233 2.853-.083.447.601.639.685.189.378-2.04 2.749-2.8 4.123-4.12 1.5-1.44 2.485-3.353 3.493-5.143.888-1.576 1.808-3.116 3.228-4.263 1.08-.872 2.228-1.654 3.258-2.589.609-.553 1.353-1.313 1.307-2.202-.048-.926-1.197-1.277-1.918-1.465-3.482-.908-6.772 2.235-9.103 4.376-.339.31.165.811.501.502z" fill="#fff"/><path d="m61.732 112.023c.248-.142.462-.333.706-.478.005-2.499.018-4.998.019-7.497 0-.458-.71-.458-.71 0-.001 2.659-.016 5.319-.02 7.978.001-.001.003-.002.005-.003z" fill="#fff"/><g fill="#26ffad"><path d="m88.056 97.589c0-3.269 0-6.538 0-9.807 0-.458-.71-.458-.71 0v9.807c0 .458.71.458.71 0z"/><path d="m93.312 72.511c-.86 2.864-2.009 5.61-3.2 8.349-1 2.301-2.278 4.689-2.696 7.178-.075.448.609.64.685.189.462-2.747 1.917-5.375 3.016-7.911 1.081-2.494 2.097-5.011 2.879-7.617.133-.439-.552-.625-.684-.188z"/><path d="m93.961 73.018c1.851-3.435 5.383-5.675 7.198-9.175.431-.831 1.361-4.916-.87-4.12-.795.284-1.443 1.048-1.999 1.645-.902.967-1.732 2.001-2.597 3.002-.826.956-1.679 1.939-2.695 2.7-.343.258-.753.52-1.19.565-.356.036-.943-.345-.767-.746.183-.415-.429-.777-.613-.358-.306.696.059 1.406.763 1.703.705.297 1.443-.064 2.03-.455 2-1.331 3.462-3.515 5.023-5.3.628-.718 1.291-1.526 2.124-2.013 1.212-.708.457 2.387.306 2.744-1.58 3.732-5.433 5.934-7.328 9.452-.215.401.398.759.615.356z"/><path d="m91.137 66.804c.495-3.483 2.426-6.84 3.727-10.069.419-1.039 2.706-5.664.739-6.383-2.881-1.053-5.164 5.017-5.928 6.784-.593 1.37-1.101 2.764-1.762 4.105-.349.706-.728 1.398-1.16 2.057-.835 1.271-.626-.103-.564-.908.035-.457-.675-.453-.71 0-.03.386-.284 2.664.794 2.317.977-.315 1.572-1.801 2.002-2.616 1.636-3.097 2.543-6.511 4.577-9.408.602-.857 2.912-2.897 2.736-.631-.119 1.53-.849 3.089-1.409 4.495-1.29 3.24-3.231 6.58-3.727 10.069-.064.447.621.64.685.188z"/><path d="m86.95 46.724c1 2.414.243 5.389-.245 7.839-.528 2.654-1.047 5.296-1.227 8.003-.031.457.68.454.71 0 .204-3.058.873-6.022 1.436-9.024.417-2.228.909-4.836.011-7.006-.173-.418-.861-.236-.685.188z"/><path d="m87.543 46.378c-3.093-2.442-4.363 3.989-4.753 5.813-.342 1.598-.68 3.235-.862 4.86-.094.834-.27 6.851-1.546 6.456-.439-.136-.625.55-.189.685 2.596.804 2.39-7.122 2.651-8.457.284-1.456 1.592-10.911 4.197-8.854.355.28.861-.219.502-.503z"/><path d="m74.495 51.828c-.102.008-.204.008-.305-.007-.065.002-.172.017-.307.08-.037.017-.072.036-.108.053-.041 2.068.24 4.127.31 6.192.09 2.68.239 5.355.191 8.038-.025 1.395-.117 2.792-.34 4.171-.087.538-.219 1.065-.376 1.586-.119.395-.28.786-.453 1.159-.352.762-1.063.178-1.501-.162-.357-.277-.863.221-.502.502 1.619 1.258 2.378.765 3.045-1.032.863-2.327.841-5.029.85-7.473.009-2.516-.098-5.045-.239-7.557-.102-1.852-.298-3.697-.265-5.55z"/><path d="m80.655 63.598c-1.017-1.244-1.245-3.135-1.491-4.666-.343-2.136-.505-4.297-.779-6.442-.085-.668-.206-2.073-.566-3.274-.188.138-.377.275-.568.409-.013.01-.026.019-.038.029.409 1.37.482 2.934.636 4.28.229 2.013.417 4.031.773 6.027.254 1.427.593 2.991 1.531 4.139.29.355.789-.151.502-.502z"/><path d="m64.533 69.112c2.491.482 5.022 2.905 6.572 4.328.336.309.84-.192.502-.502-1.948-1.789-4.325-4.005-7.035-4.425-.009.2-.022.4-.039.599z"/><path d="m72.797 84.886c.23-.135.544-.179.849-.2-1.204-.94-2.211-1.933-3.115-3.318-1.622-2.488-2.693-5.327-5.08-7.211-.216-.17-.769-.545-1.399-1.015-.033.248-.077.495-.133.741.414.31.829.617 1.232.936 1.432 1.13 2.337 2.696 3.228 4.263 1.035 1.818 2.034 3.623 3.493 5.143.252.263.541.498.846.72.026-.02.051-.042.079-.059z"/><path d="m76.021 88.211v15.655c0 .458.71.458.71 0 0-5.218 0-10.436 0-15.655 0-.458-.71-.458-.71 0z"/><path d="m48.761 73.494c.067.285.15.564.24.841v-11.548c0-.458-.71-.458-.71 0v10.037c.218.128.393.344.47.67z"/><path d="m48.29 97.961v13.83c0 .458.71.458.71 0v-12.672c-.237-.385-.475-.771-.71-1.158z"/><path d="m54.257 47.516c-.86 2.864-2.009 5.61-3.2 8.349-1 2.301-2.278 4.689-2.696 7.178-.075.448.609.64.685.189.462-2.747 1.917-5.375 3.016-7.911 1.082-2.494 2.097-5.011 2.879-7.617.133-.439-.553-.626-.684-.188z"/><path d="m54.906 48.023c1.851-3.435 5.383-5.675 7.198-9.175.431-.831 1.361-4.916-.87-4.12-.795.284-1.443 1.048-1.999 1.645-.902.967-1.732 2.001-2.597 3.002-.826.956-1.679 1.939-2.695 2.7-.343.258-.753.52-1.19.565-.356.036-.943-.345-.767-.746.183-.415-.429-.777-.613-.358-.306.696.059 1.406.763 1.703.705.297 1.443-.064 2.03-.455 2-1.331 3.462-3.515 5.023-5.3.628-.718 1.291-1.526 2.124-2.013 1.212-.708.457 2.387.306 2.744-1.58 3.732-5.433 5.934-7.328 9.452-.215.4.398.759.615.356z"/><path d="m52.081 41.809c.495-3.483 2.426-6.84 3.727-10.069.419-1.039 2.706-5.664.739-6.383-2.881-1.053-5.164 5.017-5.928 6.784-.593 1.37-1.101 2.764-1.762 4.105-.349.706-.728 1.398-1.16 2.057-.835 1.271-.626-.103-.564-.908.035-.457-.675-.453-.71 0-.03.386-.284 2.664.794 2.317.977-.315 1.572-1.801 2.002-2.616 1.636-3.097 2.543-6.511 4.577-9.408.602-.857 2.912-2.897 2.736-.631-.119 1.53-.849 3.089-1.409 4.495-1.29 3.24-3.231 6.58-3.727 10.069-.063.447.621.639.685.188z"/><path d="m47.894 21.728c1 2.414.243 5.389-.245 7.839-.528 2.654-1.047 5.296-1.227 8.003-.031.457.68.454.71 0 .204-3.058.873-6.022 1.436-9.024.417-2.228.909-4.836.011-7.006-.173-.417-.86-.235-.685.188z"/><path d="m48.488 21.383c-3.093-2.442-4.363 3.989-4.753 5.813-.342 1.598-.68 3.235-.862 4.86-.094.834-.27 6.851-1.546 6.456-.439-.136-.625.55-.189.685 2.596.804 2.39-7.122 2.651-8.457.283-1.456 1.592-10.911 4.197-8.854.355.279.861-.22.502-.503z"/><path d="m41.6 38.603c-1.017-1.244-1.245-3.135-1.491-4.666-.343-2.136-.505-4.297-.779-6.442-.185-1.449-.535-6.355-3.129-5.157-1.397.645-1.429 3.039-1.476 4.299-.08 2.177.231 4.343.305 6.515.09 2.68.24 5.355.191 8.038-.025 1.395-.117 2.792-.34 4.17-.087.538-.219 1.065-.376 1.586-.119.395-.28.786-.453 1.159-.352.762-1.063.178-1.501-.162-.357-.277-.863.221-.502.502 1.619 1.258 2.378.765 3.045-1.032.863-2.327.841-5.029.85-7.473.009-2.516-.098-5.045-.239-7.557-.125-2.236-.389-4.463-.216-6.705.085-1.107 1.181-4.244 2.27-2.049.776 1.564.84 3.612 1.034 5.311.229 2.012.417 4.031.773 6.027.254 1.426.593 2.991 1.531 4.139.29.354.79-.152.503-.503z"/><path d="m37.624 63.16c-.225-1.215-.954-1.961-1.937-2.656-1.712-1.21-3.046-2.345-4.211-4.131-.199-.305-.388-.615-.574-.928-.011.297-.138.568-.34.766.657 1.07 1.371 2.096 2.255 3.017 1.347 1.404 3.733 2.017 4.123 4.12.083.451.767.259.684-.188z"/><path d="m32.552 47.943c-2.429-2.23-5.526-5.129-9.103-4.376-2.457.517-2.118 2.233-.611 3.667 1.004.955 2.173 1.733 3.258 2.59.54.425 1.002.915 1.42 1.441.039-.257.163-.488.347-.66-.434-.521-.915-1.007-1.466-1.442-.735-.58-5.383-3.532-3.717-4.574 3.2-2.002 7.226 1.887 9.371 3.857.335.308.839-.193.501-.503z"/><path d="m37.676 75.926v-12.71c0-.458-.71-.458-.71 0v13.25c.137-.281.404-.466.71-.54z"/><path d="m37.559 79.57c-.017-.017-.029-.036-.045-.054-.224-.208-.369-.5-.359-.821.002-.071.011-.149.019-.228.002-.016.003-.032.006-.047.004-.037.007-.073.011-.109-.06-.13-.096-.272-.103-.419-.037-.113-.083-.249-.123-.396v28.075c0 .458.71.458.71 0v-25.885c-.038-.038-.077-.077-.116-.116z"/><path d="m17.325 94.473c.035.024.067.049.101.073.081.021.161.053.238.094v-4.301c0-.458-.71-.458-.71 0v3.974c.124.026.249.076.371.16z"/><path d="m11.013 75.256c.782 2.607 1.802 5.12 2.879 7.617 1.095 2.539 2.554 5.162 3.016 7.911.076.451.76.259.685-.189-.419-2.49-1.696-4.877-2.696-7.178-1.191-2.739-2.34-5.486-3.2-8.349-.13-.438-.816-.252-.684.188z"/><path d="m10.836 73.897c-.016.415-.03.831-.039 1.247.086.143.173.284.252.431.217.403.83.045.613-.358-.247-.461-.527-.898-.826-1.32z"/><path d="m14.581 69.087c-.184-.418-.796-.057-.613.358.501 1.139-1.518.479-1.822.276-.439-.292-.842-.645-1.224-1.024.015.324.024.648.028.972.227.198.461.389.702.57.581.435 1.33.812 2.066.592.765-.228 1.173-1.04.863-1.744z"/><path d="m10.949 59.393c-.214-.525-.429-1.055-.631-1.592-.021.536-.058 1.072-.123 1.605 1.29 3.203 3.189 6.506 3.679 9.953.064.452.748.259.685-.189-.482-3.381-2.336-6.646-3.61-9.777z"/><path d="m19.533 64.946c-.035-.453-.745-.457-.71 0 .045.587.333 2.123-.439 1.088-.458-.614-.811-1.313-1.161-1.992-.727-1.411-1.267-2.893-1.886-4.351-.645-1.519-2.433-6.195-4.743-6.83-.006.314-.018.627-.033.941.456.224.949.629 1.281 1.021 2.317 2.734 3.18 6.428 4.767 9.577.402.798 1.074 2.522 2.039 2.833 1.175.38.925-1.756.885-2.287z"/><path d="m17.376 49.091c-.903 2.18-.391 4.767.011 7.006.54 3.009 1.231 5.961 1.436 9.024.03.454.741.457.71 0-.18-2.704-.69-5.352-1.227-8.003-.495-2.444-1.242-5.431-.245-7.839.175-.422-.512-.605-.685-.188z"/><path d="m17.97 49.437c2.586-2.042 3.903 7.253 4.168 8.698.353 1.921.401 3.877.681 5.809.143.987.495 3.27 1.999 2.804.436-.135.25-.82-.189-.685-1.258.389-1.441-5.379-1.518-6.186-.156-1.629-.51-3.259-.834-4.861-.37-1.83-1.652-8.575-4.809-6.082-.36.284.146.783.502.503z"/><path d="m24.858 66.657c.888-1.086 1.212-2.522 1.48-3.867.395-1.977.569-3.999.791-6.001.198-1.79.347-3.666.967-5.371.156-.43.469-1.107 1.028-1.014 1.1.184 1.257 1.988 1.342 2.826.216 2.135-.054 4.313-.2 6.444-.168 2.457-.233 4.937-.254 7.4-.022 2.526.017 5.175.753 7.613.193.639.468 1.629 1.095 1.996.717.42 1.518-.275 2.046-.685.361-.281-.145-.779-.502-.502-1.149.893-1.439.411-1.858-.719-.183-.495-.301-1.008-.408-1.523-.279-1.342-.344-2.732-.392-4.098-.095-2.716.062-5.435.169-8.148.085-2.164.334-4.319.323-6.487-.007-1.343-.014-3.685-1.324-4.528-2.544-1.637-3.07 3.419-3.25 4.777-.284 2.141-.46 4.294-.772 6.432-.235 1.61-.467 3.648-1.535 4.954-.289.35.211.855.501.501z"/><path d="m37.559 79.57c-.017-.017-.029-.036-.045-.054-.096-.09-.174-.197-.235-.313-1.034 1.497-1.838 3.18-2.801 4.722-1.027 1.645-2.297 2.886-3.915 3.934-1.101.713-1.986 1.519-2.233 2.853-.083.447.601.639.685.189.378-2.04 2.749-2.8 4.123-4.12 1.5-1.44 2.485-3.353 3.493-5.143.359-.638.726-1.268 1.126-1.87-.066-.066-.132-.132-.198-.198z"/><path d="m37.622 72.429c-.017-.103-.02-.206-.016-.308-1.581.943-3.017 2.284-4.202 3.373-.338.31.166.811.502.502 1.056-.969 2.358-2.187 3.783-3.084-.019-.161-.041-.322-.067-.483z"/><path d="m28.279 90.767v9.69c0 .458.71.458.71 0 0-3.23 0-6.46 0-9.69 0-.458-.71-.458-.71 0z"/><path d="m61.975 63.647c0-3.269 0-6.538 0-9.807 0-.458-.71-.458-.71 0v9.807c0 .458.71.458.71 0z"/><path d="m55.986 40.487c.133-.209.305-.354.496-.443-.165-.489-.325-.98-.474-1.475-.131-.437-.817-.251-.685.189.186.621.387 1.236.598 1.847.021-.04.041-.079.065-.118z"/><path d="m61.904 54.096c-.419-2.49-1.696-4.877-2.696-7.178-.492-1.131-.975-2.264-1.435-3.406-.149.081-.313.147-.503.206-.054.017-.109.026-.164.032.354.878.722 1.752 1.098 2.623 1.096 2.539 2.554 5.162 3.016 7.911.075.452.759.26.684-.188z"/><path d="m55.972 38.717c-.556-1.031-1.263-1.953-2.029-2.834-.124.227-.249.454-.376.68.679.783 1.303 1.603 1.792 2.512.217.404.83.045.613-.358z"/><path d="m50.537 32.127c-.667-.803-1.277-1.648-1.763-2.584-.074-.143-.314-.866-.449-1.581-.11.47-.244.937-.388 1.399.032.105.064.195.093.264.515 1.216 1.272 2.268 2.123 3.258.123-.255.25-.507.384-.756z"/><path d="m50.935 28.378c.376.422.743.858 1.109 1.296.152-.223.307-.444.464-.664-.984-1.272-2.07-2.611-3.393-3.194-.206-.091-.386-.137-.543-.147.005.041.014.08.015.124.005.208-.001.416-.015.623.052-.006.111-.001.178.016.852.226 1.633 1.327 2.185 1.946z"/><path d="m58.891 32.588c-.184-.418-.796-.057-.613.358.501 1.139-1.518.479-1.822.276-.321-.214-.622-.463-.911-.728-.086.23-.176.459-.271.685.223.194.452.383.689.561.581.435 1.33.812 2.066.592.764-.228 1.172-1.04.862-1.744z"/><path d="m63.843 28.447c-.035-.453-.745-.457-.71 0 .045.587.333 2.123-.439 1.088-.458-.614-.811-1.313-1.161-1.992-.727-1.411-1.267-2.893-1.886-4.351-.752-1.771-3.056-7.834-5.928-6.784-1.97.72.324 5.343.738 6.383.406 1.018.875 2.045 1.344 3.085.286.032.536.114.756.33.217.212.358.523.344.829-.013.281-.11.526-.27.727.703 1.667 1.307 3.364 1.553 5.098.064.452.748.259.685-.189-.481-3.382-2.335-6.647-3.61-9.778-.594-1.459-1.204-2.956-1.488-4.512-.396-2.172 1.527-1.065 2.382-.057 2.317 2.734 3.18 6.428 4.767 9.577.402.798 1.074 2.522 2.039 2.833 1.174.38.924-1.756.884-2.287z"/><path d="m61.903 14.916c-.146-.15-.287-.303-.416-.464-.081-.036-.162-.067-.243-.098-.202 1.734.154 3.585.452 5.245.54 3.009 1.232 5.961 1.436 9.024.03.454.741.457.71 0-.181-2.704-.69-5.352-1.227-8.003-.356-1.76-.84-3.8-.712-5.704z"/><path d="m68.939 29.564c-1.258.389-1.441-5.379-1.518-6.185-.156-1.629-.51-3.259-.834-4.862-.016-.08-.035-.172-.055-.27-.151-.122-.302-.245-.453-.367-.135-.081-.268-.163-.402-.244.417 1.765.67 3.449.771 3.999.353 1.921.401 3.877.681 5.809.143.987.495 3.27 1.999 2.804.436-.134.249-.819-.189-.684z"/><path d="m71.093 21.449c-.157-.082-.31-.171-.463-.258-.129 1.172-.259 2.344-.429 3.511-.235 1.61-.467 3.648-1.535 4.954-.287.351.212.857.502.502.888-1.086 1.212-2.522 1.48-3.867.313-1.568.488-3.164.657-4.756-.071-.022-.142-.049-.212-.086z"/><path d="m77.713 38.996c-1.149.893-1.439.411-1.858-.719-.184-.494-.301-1.008-.409-1.523-.279-1.342-.344-2.732-.392-4.098-.095-2.716.062-5.435.169-8.148.017-.427.041-.853.067-1.28-.227-.165-.454-.335-.681-.509-.011.152-.024.305-.034.457-.168 2.457-.233 4.937-.254 7.399-.022 2.526.017 5.175.753 7.613.193.639.468 1.629 1.094 1.996.717.42 1.518-.275 2.046-.686.363-.281-.144-.78-.501-.502z"/><path d="m78.215 39.498c2.351-2.159 5.915-5.573 9.371-3.857 1.743.865-3.084 4.083-3.717 4.574-2.38 1.847-3.521 4.715-5.08 7.211-1.027 1.645-2.297 2.886-3.915 3.934-1.101.713-1.986 1.519-2.233 2.853-.083.447.601.639.685.189.378-2.04 2.749-2.8 4.123-4.12 1.5-1.44 2.485-3.353 3.493-5.143.888-1.576 1.808-3.116 3.228-4.263 1.08-.872 2.228-1.654 3.258-2.589.609-.553 1.353-1.313 1.307-2.202-.048-.926-1.197-1.277-1.918-1.465-3.482-.908-6.772 2.235-9.103 4.376-.339.31.165.811.501.502z"/><path d="m72.589 54.268v19.347c0 .458.71.458.71 0 0-3.23 0-16.117 0-19.347 0-.458-.71-.458-.71 0z"/></g><path d="m9.965 29.67 2.164 1.711-.379-2.738.529-.304.544 4.272-3.387-2.637z" fill="#fff"/><path d="m13.746 30.395c-.168-.292-.206-.601-.115-.925.091-.325.287-.574.587-.746.302-.173.617-.218.945-.133.326.087.576.281.748.581.174.303.216.617.125.942-.093.324-.293.574-.599.75-.303.174-.616.216-.941.127-.322-.088-.572-.286-.75-.596zm.482-.266c.116.202.262.331.437.386.179.055.359.031.541-.073.183-.105.295-.248.336-.429.042-.18.006-.369-.107-.565s-.258-.322-.435-.377c-.179-.056-.36-.031-.541.073-.178.103-.289.245-.331.428-.041.183-.008.368.1.557z" fill="#fff"/><path d="m15.436 26.122 2.016 3.505-.467.269-2.016-3.505z" fill="#fff"/><path d="m17.348 26.997.667 1.16c.192.335.421.426.685.274s.3-.396.108-.73l-.667-1.16.467-.269.673 1.171c.093.162.154.313.181.454.022.128.009.261-.038.4-.079.228-.24.412-.483.552-.242.139-.482.186-.718.139-.145-.029-.268-.084-.369-.166-.093-.072-.193-.201-.299-.386l-.673-1.17z" fill="#fff"/><path d="m19.197 25.933.469-.27.107.186c.07-.255.207-.442.412-.56.235-.135.461-.167.678-.094.186.06.361.233.525.518l.713 1.239-.469.27-.649-1.129c-.115-.199-.221-.321-.32-.365-.099-.046-.219-.029-.362.053-.155.089-.236.204-.242.343-.006.138.064.332.209.584l.561.975-.469.27z" fill="#fff"/><path d="m22.26 24.751.912 1.586-.467.269-.912-1.586-.199.115-.251-.436.199-.115-.426-.741.467-.269.426.741.363-.209.251.436z" fill="#fff"/><path d="m25.175 23.985-1.448.833c.108.159.238.26.39.303.151.042.301.02.451-.066.116-.067.196-.15.24-.249.043-.099.069-.25.079-.454l.521-.007c-.001.139-.014.265-.04.378-.025.113-.063.216-.113.308s-.114.175-.191.249-.168.141-.274.202c-.302.173-.599.216-.893.127-.295-.09-.535-.296-.72-.619-.184-.32-.244-.629-.181-.929.066-.297.247-.531.541-.701.297-.171.587-.212.869-.122.28.09.516.301.708.635zm-.699-.106c-.209-.212-.437-.246-.686-.103-.057.033-.105.072-.145.118s-.071.097-.093.153-.035.115-.038.178c-.003.062.005.127.023.194z" fill="#fff"/><path d="m27.526 22.633-1.448.833c.108.159.238.26.39.303.151.042.301.02.451-.066.116-.067.197-.15.241-.249.043-.099.069-.25.078-.454l.521-.007c-.001.139-.014.264-.04.378-.025.113-.063.216-.113.308s-.114.175-.191.249-.168.141-.274.202c-.302.173-.599.216-.893.127-.295-.09-.535-.296-.721-.619-.184-.32-.244-.629-.181-.929.066-.298.247-.531.541-.701.297-.171.587-.212.869-.122.28.089.515.301.707.634zm-.699-.106c-.209-.212-.437-.246-.686-.103-.057.033-.105.072-.145.118s-.071.097-.093.153-.034.115-.037.178c-.003.062.005.127.023.194z" fill="#fff"/><path d="m27.392 21.219.467-.269.104.181c.034-.14.075-.245.122-.316.048-.074.118-.137.211-.19.123-.071.275-.105.455-.102l.032.551c-.125-.013-.23.005-.314.054-.255.147-.271.412-.05.797l.603 1.048-.467.269z" fill="#fff"/><path d="m30.456 19.995c-.26-.451-.317-.933-.173-1.447.143-.513.445-.903.908-1.169.457-.263.942-.325 1.457-.186.516.138.905.436 1.169.894.265.461.325.946.181 1.457-.145.513-.452.904-.919 1.173-.414.238-.868.308-1.362.211-.546-.109-.966-.42-1.261-.933zm.491-.275c.204.354.49.577.859.669.368.092.707.049 1.017-.13.336-.193.553-.472.65-.838.096-.368.047-.721-.148-1.058-.197-.341-.475-.563-.837-.662-.361-.102-.708-.056-1.044.136-.333.192-.548.47-.644.834-.096.362-.047.712.147 1.049z" fill="#fff"/><path d="m34.091 17.365.467-.269.104.181c.034-.14.075-.245.122-.316.048-.074.118-.137.211-.19.123-.071.275-.105.455-.102l.032.551c-.125-.013-.23.005-.315.054-.254.146-.271.412-.05.796l.603 1.048-.467.269z" fill="#fff"/><path d="m38.771 17.299c.055.096.1.181.136.258.036.076.064.145.084.207.054.171.065.339.031.505-.062.315-.252.565-.572.749-.27.155-.533.21-.791.165-.266-.046-.489-.193-.668-.441l.469-.27c.075.089.149.149.222.179.169.07.347.052.532-.055.342-.196.392-.504.151-.923l-.163-.282c-.076.297-.235.514-.477.654-.275.158-.558.188-.849.09-.293-.1-.527-.302-.702-.605-.169-.295-.231-.593-.185-.893.051-.32.222-.564.513-.731.255-.146.521-.174.799-.081l-.131-.228.467-.269zm-1-.701c-.113-.196-.256-.323-.429-.38-.176-.059-.347-.041-.513.055-.177.102-.279.248-.306.438-.025.171.016.35.123.536.106.184.239.308.399.373.175.07.352.055.53-.048.179-.103.282-.249.311-.439.03-.172-.009-.351-.115-.535z" fill="#fff"/><path d="m39.715 14.13.469-.27 1.163 2.022-.469.27-.121-.212c-.089.29-.244.5-.465.627-.28.161-.569.192-.868.096-.3-.102-.539-.307-.716-.616-.174-.303-.229-.607-.164-.914.065-.306.234-.538.506-.695.235-.135.502-.16.8-.074zm-.53 1.641c.111.194.254.322.428.384.178.062.347.046.509-.047.173-.1.278-.24.317-.42.036-.184-.001-.371-.11-.561-.109-.189-.252-.315-.43-.377-.176-.059-.349-.04-.519.058-.161.092-.26.23-.298.414-.036.185-.002.368.103.549z" fill="#fff"/><path d="m40.773 13.521.469-.27.108.187c.07-.255.207-.442.412-.56.235-.135.461-.167.678-.094.186.06.361.233.525.518l.713 1.239-.469.27-.65-1.129c-.115-.199-.221-.321-.321-.365-.098-.046-.219-.029-.361.053-.155.089-.235.204-.242.343-.006.138.064.333.209.584l.561.976-.469.27z" fill="#fff"/><path d="m42.55 11.38c-.047-.082-.058-.169-.033-.263.025-.093.079-.164.163-.212.084-.049.173-.06.267-.035.093.024.163.078.212.163.048.084.06.174.035.267-.024.093-.078.164-.163.212-.084.049-.174.06-.267.035-.093-.026-.165-.081-.214-.167zm1.021.531 1.163 2.022-.467.269-1.163-2.021z" fill="#fff"/><path d="m45.742 12.767 1.202-.691.253.44-2.127 1.224.398-2.339-1.032.593-.251-.436 1.955-1.124z" fill="#fff"/><path d="m48.957 10.304-1.448.833c.108.159.238.26.39.303.151.042.301.02.451-.066.116-.067.197-.15.24-.249s.069-.25.079-.454l.521-.007c-.001.139-.014.265-.04.378-.025.113-.063.216-.113.308s-.114.175-.191.249-.168.141-.273.202c-.301.173-.599.216-.893.127-.295-.09-.535-.296-.72-.619-.184-.32-.244-.629-.181-.929.066-.298.247-.531.541-.701.297-.171.587-.212.869-.121.28.089.516.301.708.635zm-.699-.106c-.209-.212-.437-.246-.686-.103-.057.033-.105.072-.145.118s-.071.097-.093.153-.035.115-.038.178c-.003.062.005.127.023.194z" fill="#fff"/><path d="m48.823 8.89.467-.269.104.181c.034-.14.075-.245.122-.316.048-.074.118-.137.211-.19.123-.071.275-.105.455-.102l.032.55c-.125-.013-.23.005-.314.054-.255.146-.271.412-.05.796l.603 1.048-.467.269z" fill="#fff"/><path d="m58.28 119.862-.991.584.35.594.961-.567.207.351-.962.567.487.826.991-.584.206.35-1.363.804-1.456-2.471 1.363-.803z" fill="#fff"/><path d="m59.601 120.293.72 1.223-.36.212-.72-1.223-.154.091-.198-.336.154-.09-.336-.571.36-.212.336.571.28-.165.198.336z" fill="#fff"/><path d="m59.254 118.504.36-.212.751 1.274c.06-.191.167-.332.322-.423.176-.104.35-.13.523-.077.148.046.286.178.414.396l.563.955-.36.212-.543-.922c-.074-.125-.149-.202-.226-.232s-.165-.016-.263.042c-.126.074-.191.165-.197.273-.004.109.051.259.164.451l.444.754-.36.212z" fill="#fff"/><path d="m62.626 120.158-1.045-2.963 1.979 1.42-.253-2.438 2.033 2.381-.383.226-1.117-1.351.214 2.036-1.657-1.188.614 1.649z" fill="#fff"/><path d="m66.024 116.055.361-.213.919 1.559-.362.213-.096-.163c-.067.226-.185.389-.356.49-.216.127-.439.154-.672.081-.234-.077-.42-.234-.56-.472-.138-.234-.183-.469-.135-.707s.177-.419.387-.543c.181-.107.388-.128.62-.064zm-.398 1.278c.088.15.2.248.335.295.138.046.27.033.394-.041.133-.078.214-.188.242-.328.027-.143-.004-.288-.09-.434s-.198-.243-.336-.29c-.137-.044-.271-.028-.402.05-.124.073-.2.181-.227.324-.026.143.002.285.084.424z" fill="#fff"/><path d="m69.245 116.208c.044.074.079.14.107.199s.051.112.067.16c.043.133.053.263.028.391-.045.245-.191.44-.438.586-.208.123-.412.167-.612.135-.206-.033-.381-.146-.522-.337l.362-.213c.059.069.117.115.173.137.132.053.269.038.412-.046.264-.155.3-.395.109-.718l-.128-.218c-.057.23-.179.401-.366.511-.212.125-.431.151-.657.077-.228-.075-.411-.23-.549-.463-.134-.227-.184-.458-.151-.691.037-.249.168-.44.392-.572.196-.115.403-.138.619-.069l-.104-.176.36-.212zm-.782-.535c-.089-.152-.201-.249-.336-.292-.137-.044-.27-.029-.397.047-.137.08-.215.194-.234.342-.018.133.015.271.1.415.084.142.188.237.313.286.136.053.273.039.411-.042s.217-.196.237-.343c.022-.133-.01-.272-.094-.413z" fill="#fff"/><path d="m68.366 113.803c-.037-.063-.046-.131-.027-.204s.06-.128.124-.166c.065-.039.134-.048.207-.03.072.018.128.059.166.124s.048.135.029.207c-.018.072-.059.128-.124.166-.065.039-.134.048-.207.029-.073-.017-.129-.06-.168-.126zm.796.403.918 1.559-.36.212-.918-1.559z" fill="#fff"/><path d="m70.871 113.29.282.479c-.141-.052-.255-.077-.343-.077-.086-.001-.173.025-.259.075-.136.08-.22.193-.254.341s-.008.293.076.436c.086.146.2.241.342.284.143.042.282.024.417-.056.086-.051.152-.114.196-.191.043-.074.076-.189.101-.344l.28.475c-.102.162-.226.286-.372.372-.241.142-.488.183-.743.123-.254-.061-.45-.208-.587-.44-.137-.233-.171-.478-.1-.734.07-.257.224-.456.463-.597.154-.09.321-.139.501-.146z" fill="#fff"/><path d="m70.744 112.402c-.037-.063-.046-.131-.027-.204s.06-.128.125-.166.134-.048.207-.029c.073.018.128.059.166.124s.048.134.029.207c-.018.072-.059.128-.124.166s-.134.048-.207.029c-.074-.018-.13-.061-.169-.127zm.796.403.918 1.559-.36.212-.918-1.559z" fill="#fff"/><path d="m73.145 111.86.362-.213.918 1.559-.361.213-.096-.163c-.067.226-.186.389-.356.49-.216.127-.44.154-.672.081-.233-.077-.42-.234-.56-.472-.138-.234-.183-.47-.135-.708s.177-.419.387-.543c.181-.107.388-.128.621-.064zm-.398 1.278c.088.15.199.247.335.294.138.046.269.033.394-.041.133-.079.214-.188.242-.328.026-.143-.004-.288-.09-.434s-.198-.243-.337-.289c-.136-.044-.271-.028-.402.049-.124.073-.2.181-.227.324-.026.143.003.285.085.425z" fill="#fff"/><path d="m73.961 111.379.362-.213.085.144c.052-.199.158-.345.315-.438.181-.107.357-.133.525-.078.145.045.282.178.411.398l.563.955-.361.213-.513-.871c-.09-.153-.174-.247-.251-.28-.077-.036-.17-.021-.28.044-.12.07-.181.16-.185.268-.003.107.053.258.167.452l.443.752-.361.213z" fill="#fff"/><path d="m76.82 110.052-.204.334c-.103-.069-.19-.082-.259-.041-.033.019-.055.047-.065.083s-.006.071.014.105c.035.06.14.078.313.055.239-.03.412-.03.52 0 .107.031.195.104.264.222.088.15.107.309.056.476-.051.16-.153.284-.306.374-.261.154-.521.136-.781-.055l.223-.324c.087.05.147.078.182.085.067.015.131.004.192-.032.122-.072.15-.163.084-.274-.038-.064-.12-.096-.247-.096-.047.003-.093.007-.14.011-.046.004-.093.008-.141.012-.135.01-.238.003-.311-.023-.093-.033-.169-.101-.23-.204-.08-.135-.1-.274-.059-.418.043-.145.132-.257.267-.337.201-.117.41-.102.628.047z" fill="#fff"/><path d="m79.535 107.045.26.442c-.322-.054-.598-.012-.828.123-.254.15-.414.367-.48.652-.068.285-.025.558.13.82.153.259.369.426.649.502.28.075.547.038.8-.112.131-.077.23-.164.297-.261.039-.051.075-.112.108-.18.034-.068.066-.146.097-.233l.265.45c-.142.246-.331.438-.566.576-.353.208-.727.263-1.122.163-.395-.102-.696-.329-.903-.68-.186-.315-.247-.657-.184-1.025.078-.453.32-.799.727-1.038.222-.132.472-.198.75-.199z" fill="#fff"/><path d="m80.775 108.399c-.133-.225-.165-.464-.097-.717s.218-.448.449-.584c.232-.137.477-.174.733-.11.254.065.449.213.585.444.138.234.173.477.104.73-.07.252-.222.448-.458.587-.234.138-.476.173-.728.106-.252-.065-.448-.217-.588-.456zm.371-.211c.092.156.206.254.343.296.14.041.279.021.419-.061.141-.083.227-.195.257-.335.031-.14.002-.286-.087-.437s-.203-.248-.34-.289c-.14-.041-.279-.021-.419.061-.138.081-.222.193-.254.335-.031.142-.004.285.081.43z" fill="#fff"/><path d="m82.725 106.215.527.895c.152.258.33.327.534.207s.229-.309.077-.567l-.527-.895.36-.212.532.903c.073.125.121.241.144.35.018.099.009.202-.026.311-.059.178-.183.321-.371.432-.187.11-.372.148-.556.114-.113-.021-.209-.063-.287-.126-.073-.055-.151-.154-.235-.297l-.532-.903z" fill="#fff"/><path d="m84.151 105.374.362-.213.085.144c.052-.199.158-.345.315-.438.181-.107.357-.133.525-.079.145.046.282.178.411.398l.563.955-.362.213-.513-.871c-.09-.153-.174-.247-.251-.28-.077-.035-.17-.02-.28.044-.12.07-.181.16-.185.268-.003.107.053.257.167.452l.443.752-.361.213z" fill="#fff"/><path d="m87.201 103.668.282.479c-.141-.052-.255-.077-.343-.077-.087-.001-.173.025-.26.076-.135.08-.22.193-.254.341s-.008.293.076.436c.086.146.2.241.341.284.143.042.282.024.418-.056.086-.051.152-.115.196-.191.043-.074.076-.189.101-.345l.28.475c-.102.162-.225.286-.372.372-.241.142-.488.183-.742.123-.255-.061-.45-.208-.588-.441-.137-.233-.171-.477-.1-.734.07-.257.224-.456.463-.597.155-.09.322-.138.502-.145z" fill="#fff"/><path d="m87.074 102.779c-.037-.063-.046-.131-.027-.204s.06-.128.124-.166c.065-.038.134-.048.207-.029.072.018.128.059.166.124s.048.134.029.207c-.018.072-.059.128-.124.166s-.134.048-.207.029c-.074-.018-.13-.061-.168-.127zm.796.404.918 1.559-.36.212-.918-1.559z" fill="#fff"/><path d="m88.012 101.558 1.592 2.703-.36.212-1.592-2.703z" fill="#fff"/><path d="m90.532 102.649c-.133-.225-.165-.464-.097-.717s.218-.447.449-.584c.232-.137.477-.174.733-.11.254.065.449.213.585.444.138.234.173.477.104.73-.07.252-.222.448-.458.587-.234.138-.476.173-.728.106-.251-.065-.447-.217-.588-.456zm.372-.21c.092.156.206.255.343.296.139.042.278.021.418-.062.141-.083.227-.194.258-.335.031-.14.002-.286-.087-.437-.089-.152-.203-.248-.341-.289-.14-.041-.279-.021-.419.062-.138.081-.222.192-.253.335-.031.141-.004.284.081.43z" fill="#fff"/><path d="m92.694 100.793.721 1.223-.362.213-.721-1.223-.128.075-.198-.336.128-.075-.354-.602c-.116-.196-.163-.355-.143-.476.027-.168.13-.305.31-.411.064-.037.155-.066.275-.087l.217.368-.048.002c-.102.007-.177.025-.227.054-.064.038-.093.086-.089.145.004.058.044.151.119.279l.302.514.392-.231.198.336z" fill="#fff"/><path d="m94.876 99.803.591 1.003-.373.22-1.456-2.471.423-.249c.207-.122.372-.2.494-.233.123-.034.25-.035.378-.002.224.055.398.188.522.4.133.226.163.45.089.671-.073.222-.239.408-.496.56zm-.203-.346.139-.082c.342-.202.436-.434.281-.698-.15-.255-.402-.278-.755-.07l-.123.073z" fill="#fff"/><path d="m95.877 98.465.36-.212.082.139c.026-.108.056-.19.092-.246.037-.058.09-.107.162-.149.095-.056.212-.083.352-.082l.029.427c-.097-.009-.178.006-.243.044-.196.116-.207.322-.032.618l.476.808-.36.212z" fill="#fff"/><path d="m98.252 97.066.361-.213.919 1.558-.362.213-.096-.163c-.067.226-.185.389-.356.49-.216.127-.439.154-.672.082-.234-.077-.421-.234-.561-.472-.138-.234-.183-.47-.135-.708s.177-.419.387-.543c.181-.107.388-.128.62-.063zm-.398 1.278c.088.15.2.247.335.294.138.047.27.033.394-.041.133-.079.214-.188.242-.328.027-.143-.004-.288-.09-.434s-.198-.243-.336-.289c-.137-.044-.271-.028-.402.05-.124.073-.2.181-.227.323-.027.143.001.285.084.425z" fill="#fff"/><path d="m101.472 97.218c.044.074.079.14.107.199s.051.112.067.16c.043.132.053.263.028.391-.045.245-.191.44-.438.586-.208.123-.412.168-.612.135-.207-.033-.381-.146-.522-.337l.362-.213c.059.069.117.115.173.137.132.053.269.038.412-.047.263-.155.3-.394.109-.718l-.128-.218c-.057.23-.179.4-.366.51-.212.125-.431.151-.657.077-.228-.075-.411-.23-.549-.464-.134-.227-.184-.458-.151-.691.037-.249.168-.44.392-.572.196-.116.403-.139.619-.069l-.104-.176.36-.212zm-.781-.535c-.089-.152-.201-.249-.336-.292-.137-.044-.27-.029-.397.047-.137.08-.215.194-.234.343-.018.133.015.271.1.415.084.141.188.237.313.286.136.053.273.039.411-.042s.217-.195.237-.343c.021-.135-.011-.273-.094-.414z" fill="#fff"/><path d="m101.39 95.217.527.895c.152.258.33.327.534.207s.23-.309.078-.568l-.527-.895.36-.212.532.903c.074.125.122.242.144.351.018.099.009.202-.026.311-.059.177-.183.321-.371.431-.187.11-.372.149-.556.115-.113-.021-.209-.063-.288-.126-.072-.055-.151-.154-.235-.297l-.532-.903z" fill="#fff"/><path d="m104.744 94.404-1.117.658c.085.122.186.2.305.232.118.031.234.013.349-.055.089-.053.151-.118.185-.195.032-.077.052-.194.057-.353l.404-.01c0 .108-.009.205-.028.293-.018.088-.047.168-.085.24s-.087.137-.146.195-.13.111-.211.158c-.232.137-.463.172-.692.106-.229-.067-.417-.226-.564-.474-.145-.246-.194-.486-.148-.719.049-.232.187-.414.414-.548.229-.135.454-.169.673-.101.217.067.402.229.554.486zm-.543-.076c-.163-.163-.341-.187-.533-.074-.044.026-.081.057-.111.092-.031.036-.054.076-.071.119-.017.044-.026.09-.027.138-.002.048.005.098.02.15z" fill="#fff"/></svg>