<svg enable-background="new 0 0 110.979 128.417" viewBox="0 0 110.979 128.417" xmlns="http://www.w3.org/2000/svg"><path d="m55.416 127.446-55.167-31.852v-63.701l55.167-31.851 55.167 31.851v63.701z" fill="#050a32"/><path d="m55.415 10.123-46.506 26.811v53.621l46.505 26.808 46.509-26.808v-53.621zm44.625 79.352-44.625 25.729-44.627-25.729v-51.45l44.627-25.729 44.625 25.729z" fill="#26ffad"/><path d="m82.789 90.695h-55.879c-2.191 0-3.974-1.789-3.974-3.989v-38.657c0-2.2 1.783-3.989 3.974-3.989h55.88c2.191 0 3.974 1.79 3.974 3.989v38.657c-.001 2.2-1.783 3.989-3.975 3.989zm-55.879-45.495c-1.563 0-2.834 1.278-2.834 2.849v38.657c0 1.571 1.271 2.849 2.834 2.849h55.88c1.562 0 2.834-1.278 2.834-2.849v-38.657c0-1.571-1.271-2.849-2.834-2.849z" fill="#26ffad"/><g fill="#fff"><path d="m26.949 89.081h1.33c.459 0 .459-.712 0-.712-.443 0-.886 0-1.33 0-.459 0-.459.712 0 .712z"/><path d="m30.701 89.081h1.33c.459 0 .459-.712 0-.712-.443 0-.887 0-1.33 0-.46 0-.46.712 0 .712z"/><path d="m34.452 89.081h1.33c.459 0 .459-.712 0-.712-.443 0-.887 0-1.33 0-.459 0-.459.712 0 .712z"/><path d="m38.204 89.081h1.33c.459 0 .459-.712 0-.712-.443 0-.886 0-1.33 0-.459 0-.459.712 0 .712z"/><path d="m41.956 89.081h1.33c.459 0 .459-.712 0-.712-.443 0-.886 0-1.33 0-.46 0-.46.712 0 .712z"/><path d="m45.707 89.081h1.33c.459 0 .459-.712 0-.712-.443 0-.887 0-1.33 0-.459 0-.459.712 0 .712z"/><path d="m49.459 89.081h1.33c.459 0 .459-.712 0-.712-.443 0-.887 0-1.33 0-.459 0-.459.712 0 .712z"/><path d="m53.211 89.081h1.33c.459 0 .459-.712 0-.712-.443 0-.886 0-1.33 0-.459 0-.459.712 0 .712z"/><path d="m56.963 89.081h1.33c.459 0 .459-.712 0-.712-.443 0-.886 0-1.33 0-.46 0-.46.712 0 .712z"/><path d="m60.714 89.081h1.33c.459 0 .459-.712 0-.712-.443 0-.886 0-1.33 0-.459 0-.459.712 0 .712z"/><path d="m64.466 89.081h1.33c.459 0 .459-.712 0-.712-.443 0-.886 0-1.33 0-.46 0-.46.712 0 .712z"/><path d="m68.217 89.081h1.33c.459 0 .459-.712 0-.712-.443 0-.886 0-1.33 0-.459 0-.459.712 0 .712z"/><path d="m71.969 89.081h1.33c.459 0 .459-.712 0-.712-.443 0-.886 0-1.33 0-.46 0-.46.712 0 .712z"/><path d="m75.72 89.081h1.33c.459 0 .459-.712 0-.712-.443 0-.886 0-1.33 0-.459 0-.459.712 0 .712z"/><path d="m79.472 89.081h1.33c.459 0 .459-.712 0-.712-.443 0-.886 0-1.33 0-.46 0-.46.712 0 .712z"/><path d="m83.072 88.747c.332-.233.693-.418 1.045-.617.399-.227.041-.842-.36-.615-.352.2-.713.385-1.045.617-.372.262-.017.88.36.615z"/><path d="m84.531 86.018c0-.491 0-.981 0-1.472 0-.459-.712-.459-.712 0v1.472c0 .459.712.459.712 0z"/><path d="m84.531 82.551c0-.491 0-.981 0-1.472 0-.459-.712-.459-.712 0v1.472c0 .46.712.46.712 0z"/><path d="m84.531 79.085c0-.491 0-.981 0-1.472 0-.459-.712-.459-.712 0v1.472c0 .459.712.459.712 0z"/><path d="m84.531 75.618c0-.491 0-.981 0-1.472 0-.459-.712-.459-.712 0v1.472c0 .459.712.459.712 0z"/><path d="m84.531 72.151c0-.491 0-.981 0-1.472 0-.459-.712-.459-.712 0v1.472c0 .46.712.46.712 0z"/><path d="m84.531 68.685c0-.491 0-.981 0-1.472 0-.459-.712-.459-.712 0v1.472c0 .459.712.459.712 0z"/><path d="m84.531 65.218c0-.491 0-.981 0-1.472 0-.459-.712-.459-.712 0v1.472c0 .46.712.46.712 0z"/><path d="m84.531 61.752c0-.491 0-.981 0-1.472 0-.459-.712-.459-.712 0v1.472c0 .459.712.459.712 0z"/><path d="m84.531 58.285c0-.491 0-.981 0-1.472 0-.459-.712-.459-.712 0v1.472c0 .459.712.459.712 0z"/><path d="m84.531 55.151c0-.491 0-.982 0-1.473 0-.459-.712-.459-.712 0v1.473c0 .459.712.459.712 0z"/><path d="m84.531 52.349c0-.491 0-.981 0-1.472 0-.459-.712-.459-.712 0v1.472c0 .459.712.459.712 0z"/><path d="m25.691 50.497c0-.491 0-.981 0-1.472 0-.459-.712-.459-.712 0v1.472c-.001.459.712.459.712 0z"/><path d="m25.596 53.299c0-.491 0-.981 0-1.472 0-.459-.712-.459-.712 0v1.472c-.001.459.712.459.712 0z"/><path d="m84.531 49.357c0-.491 0-.981 0-1.472 0-.459-.712-.459-.712 0v1.472c0 .46.712.46.712 0z"/><path d="m82.489 46.104c-.443 0-.887 0-1.33 0-.459 0-.459.712 0 .712h1.33c.46 0 .46-.712 0-.712z"/><path d="m78.737 46.104c-.443 0-.886 0-1.33 0-.459 0-.459.712 0 .712h1.33c.46 0 .46-.712 0-.712z"/><path d="m74.986 46.104c-.443 0-.887 0-1.33 0-.459 0-.459.712 0 .712h1.33c.459 0 .459-.712 0-.712z"/><path d="m71.234 46.104c-.443 0-.886 0-1.33 0-.459 0-.459.712 0 .712h1.33c.459 0 .459-.712 0-.712z"/><path d="m67.483 46.104c-.443 0-.887 0-1.33 0-.459 0-.459.712 0 .712h1.33c.459 0 .459-.712 0-.712z"/><path d="m63.731 46.104c-.443 0-.886 0-1.33 0-.459 0-.459.712 0 .712h1.33c.459 0 .459-.712 0-.712z"/><path d="m59.979 46.104c-.443 0-.887 0-1.33 0-.459 0-.459.712 0 .712h1.33c.46 0 .46-.712 0-.712z"/><path d="m56.227 46.104c-.443 0-.886 0-1.33 0-.459 0-.459.712 0 .712h1.33c.46 0 .46-.712 0-.712z"/><path d="m52.476 46.104c-.443 0-.886 0-1.33 0-.459 0-.459.712 0 .712h1.33c.459 0 .459-.712 0-.712z"/><path d="m48.724 46.104c-.443 0-.886 0-1.33 0-.459 0-.459.712 0 .712h1.33c.46 0 .46-.712 0-.712z"/><path d="m44.973 46.104c-.443 0-.886 0-1.33 0-.459 0-.459.712 0 .712h1.33c.459 0 .459-.712 0-.712z"/><path d="m41.221 46.104c-.443 0-.886 0-1.33 0-.459 0-.459.712 0 .712h1.33c.46 0 .46-.712 0-.712z"/><path d="m37.47 46.104c-.443 0-.886 0-1.33 0-.459 0-.459.712 0 .712h1.33c.459 0 .459-.712 0-.712z"/><path d="m33.718 46.104c-.443 0-.886 0-1.33 0-.459 0-.459.712 0 .712h1.33c.46 0 .46-.712 0-.712z"/><path d="m29.967 46.104c-.443 0-.886 0-1.33 0-.459 0-.459.712 0 .712h1.33c.459 0 .459-.712 0-.712z"/><path d="m26.366 46.438c-.332.233-.693.418-1.045.617-.399.227-.041.842.36.615.352-.2.713-.385 1.045-.617.373-.262.017-.88-.36-.615z"/><path d="m24.907 54.628v1.472c0 .459.712.459.712 0 0-.491 0-.981 0-1.472.001-.459-.712-.459-.712 0z"/><path d="m24.907 58.095v1.472c0 .459.712.459.712 0 0-.491 0-.981 0-1.472.001-.459-.712-.459-.712 0z"/><path d="m24.907 61.562v1.472c0 .459.712.459.712 0 0-.491 0-.981 0-1.472.001-.46-.712-.46-.712 0z"/><path d="m24.907 65.028v1.472c0 .459.712.459.712 0 0-.491 0-.981 0-1.472.001-.459-.712-.459-.712 0z"/><path d="m24.907 68.495v1.472c0 .459.712.459.712 0 0-.491 0-.981 0-1.472.001-.46-.712-.46-.712 0z"/><path d="m24.907 71.961v1.472c0 .459.712.459.712 0 0-.491 0-.981 0-1.472.001-.459-.712-.459-.712 0z"/><path d="m24.907 75.428v1.472c0 .459.712.459.712 0 0-.491 0-.981 0-1.472.001-.459-.712-.459-.712 0z"/><path d="m24.907 78.895v1.472c0 .459.712.459.712 0 0-.491 0-.981 0-1.472.001-.46-.712-.46-.712 0z"/><path d="m24.907 82.361v1.472c0 .459.712.459.712 0 0-.491 0-.981 0-1.472.001-.459-.712-.459-.712 0z"/><path d="m24.907 85.828v1.472c0 .459.712.459.712 0 0-.491 0-.981 0-1.472.001-.46-.712-.46-.712 0z"/><path d="m31.687 69.538c.139.555.288 1.107.427 1.662.112.445.799.256.687-.189-.139-.555-.288-1.107-.427-1.662-.112-.445-.799-.256-.687.189z"/><path d="m32.542 72.91c.102.524.278 1.025.475 1.52.167.422.856.238.687-.189-.196-.495-.373-.996-.475-1.52-.088-.451-.774-.26-.687.189z"/><path d="m33.813 76.367c.215.418.487.805.76 1.187.264.37.883.015.615-.36-.273-.382-.545-.769-.76-1.187-.21-.408-.824-.048-.615.36z"/><path d="m35.428 79.216c.206.358.426.708.665 1.045.263.371.881.016.615-.36-.239-.337-.459-.686-.665-1.045-.229-.397-.845-.039-.615.36z"/><path d="m36.947 81.591c.19.327.407.636.617.95.254.38.872.023.615-.36-.21-.314-.428-.623-.617-.95-.23-.397-.846-.038-.615.36z"/><path d="m38.618 83.658c.34.435.706.834 1.164 1.148.38.26.736-.357.36-.615-.404-.276-.721-.654-1.02-1.037-.12-.153-.379-.125-.504 0-.15.15-.12.351 0 .504z"/><path d="m41.054 85.411c.358.051.732.122 1.091.048.45-.093.259-.78-.189-.687-.197.041-.492-.016-.713-.048-.192-.027-.382.044-.438.249-.046.169.056.411.249.438z"/><path d="m43.348 84.655c.198-.244.419-.468.617-.712.122-.151.148-.356 0-.504-.127-.127-.381-.151-.504 0-.198.244-.419.468-.617.712-.122.151-.148.356 0 .504.127.126.381.151.504 0z"/><path d="m45.057 82.755c.259-.262.503-.551.673-.879.211-.407-.403-.767-.615-.36-.144.279-.342.513-.562.735-.322.327.181.831.504.504z"/><path d="m46.68 80.879c.237-.333.475-.665.712-.997.113-.158.028-.396-.128-.487-.179-.105-.375-.03-.487.128-.237.333-.475.665-.712.997-.113.158-.028.396.128.487.179.104.375.029.487-.128z"/><path d="m48.39 78.599c.219-.35.437-.703.704-1.02.294-.349-.207-.855-.504-.504-.307.364-.564.761-.816 1.164-.243.391.373.748.616.36z"/><path d="m49.767 76.462c.245-.349.454-.722.665-1.092.228-.4-.387-.758-.615-.36-.211.37-.42.743-.665 1.092-.265.377.353.733.615.36z"/><path d="m50.99 74.002c.046-.274.104-.543.19-.807.143-.438-.545-.624-.687-.189-.086.264-.144.533-.19.808-.032.191.048.383.249.438.173.047.406-.058.438-.25z"/></g><path d="m32.824 66.704c1.985 2.527 5.161 3.69 8.19 4.411 3.145.749 6.698 1.099 9.822.097.436-.14.249-.828-.189-.687-3.03.971-6.395.582-9.444-.097-2.916-.649-5.979-1.812-7.876-4.228-.283-.361-.784.147-.503.504z" fill="#26ffad"/><path d="m34.606 67.591c1.111-2.927 5.551-2.935 8.127-2.756 3.617.252 7.225 2.168 6.431 6.318-.086.449.6.64.687.189.845-4.416-2.587-6.684-6.557-7.167-3.059-.372-8.071-.209-9.374 3.226-.164.431.525.615.686.19z" fill="#26ffad"/><path d="m27.187 62.154h54.376c.459 0 .459-.712 0-.712-.032 0-.063 0-.095 0-.459 0-.459.712 0 .712h.095c.459 0 .459-.712 0-.712-18.125 0-36.251 0-54.376 0-.46-.001-.46.712 0 .712z" fill="#26ffad"/><path d="m81.302 61.038v1.187c0 .459.712.459.712 0 0-.396 0-.791 0-1.187 0-.46-.712-.46-.712 0z" fill="#26ffad"/><path d="m26.973 61.513v1.425c0 .459.712.459.712 0 0-.475 0-.95 0-1.425 0-.46-.712-.46-.712 0z" fill="#26ffad"/><path d="m77.669 54.959h-43.976c-2.042 0-3.704 1.662-3.704 3.704v2.897c.226 0 .413.058.57.15v-3.047c0-1.728 1.406-3.134 3.134-3.134h43.976c1.728 0 3.134 1.406 3.134 3.134v3.293c.15-.112.342-.18.57-.197v-3.096c0-2.042-1.662-3.704-3.704-3.704z" fill="#26ffad"/><path d="m26.617 54.175h54.376c.459 0 .459-.712 0-.712-.032 0-.063 0-.095 0-.459 0-.459.712 0 .712h.095c.459 0 .459-.712 0-.712-18.125 0-36.251 0-54.376 0-.46 0-.46.712 0 .712z" fill="#26ffad"/><path d="m80.732 53.06v1.187c0 .459.712.459.712 0 0-.396 0-.791 0-1.187 0-.46-.712-.46-.712 0z" fill="#26ffad"/><path d="m26.403 53.534v1.425c0 .459.712.459.712 0 0-.475 0-.95 0-1.425.001-.459-.712-.459-.712 0z" fill="#26ffad"/><path d="m77.099 48.738h-43.976c-2.042 0-3.704 1.662-3.704 3.704v1.332c.18-.073.376-.093.57-.096v-1.236c0-1.729 1.406-3.134 3.134-3.134h43.976c1.728 0 3.134 1.406 3.134 3.134v1.257c.19-.04.383-.056.57-.049v-1.208c0-2.042-1.662-3.704-3.704-3.704z" fill="#26ffad"/><path d="m48.925 42.255h29.041v.57h-29.041z" fill="#26ffad" transform="matrix(.9894 -.1455 .1455 .9894 -5.515 9.6851)"/><path d="m77.74 40.425h.57v4.279h-.57z" fill="#26ffad" transform="matrix(.9878 -.1554 .1554 .9878 -5.6675 12.6446)"/><path d="m43.94 40.071h31.748v.57h-31.748z" fill="#26ffad" transform="matrix(.9709 -.2393 .2393 .9709 -7.9195 15.4868)"/><path d="m75.36 36.524h.57v4.279h-.57z" fill="#26ffad" transform="matrix(.9684 -.2495 .2495 .9684 -7.2537 20.0942)"/><path d="m38.687 38.191h35.243v.57h-35.243z" fill="#26ffad" transform="matrix(.9446 -.3282 .3282 .9446 -9.5093 20.6144)"/><path d="m73.268 32.612h.57v4.279h-.57z" fill="#26ffad" transform="matrix(.943 -.3327 .3327 .943 -7.3719 26.4529)"/><path d="m8.663 34.045-1.494-2.597.39-.225c.174-.1.32-.166.439-.199.12-.033.234-.038.342-.016.111.024.216.073.316.147.101.075.181.163.24.265.107.186.127.385.058.595.165-.032.321-.013.469.06.148.07.266.183.355.337.117.203.144.416.081.639-.037.136-.1.252-.188.348-.099.1-.237.201-.414.303zm-.46-1.708.123-.071c.146-.084.234-.177.265-.281s.01-.218-.062-.344c-.07-.122-.158-.195-.265-.218-.106-.024-.225.003-.357.079l-.138.079zm.64 1.114.242-.139c.177-.102.287-.211.33-.329.045-.125.033-.246-.033-.361-.065-.112-.161-.182-.289-.21-.125-.028-.293.019-.504.14l-.198.114z" fill="#fff"/><path d="m11.7 31.326-1.174.675c.087.129.193.211.316.246.122.034.244.016.365-.053.094-.054.159-.121.195-.202.035-.08.056-.203.064-.368l.422-.005c-.001.112-.012.215-.032.306-.02.092-.051.175-.091.25-.041.075-.092.142-.155.202s-.137.114-.222.163c-.245.141-.486.175-.724.103-.239-.073-.434-.24-.584-.501-.149-.259-.198-.51-.147-.753.054-.242.2-.431.439-.568.241-.139.476-.171.704-.099.227.072.418.244.574.514zm-.567-.086c-.169-.172-.354-.199-.556-.083-.046.026-.085.058-.117.095s-.057.079-.075.124c-.018.046-.028.094-.03.144s.004.103.019.157z" fill="#fff"/><path d="m12.704 29.911-.217.347c-.107-.073-.198-.088-.27-.046-.035.02-.058.049-.069.086-.012.037-.007.073.014.109.036.063.145.083.326.061.25-.029.431-.027.543.006s.203.111.274.235c.091.158.109.324.053.498-.055.166-.163.295-.323.387-.275.158-.546.136-.815-.066l.237-.336c.09.053.153.083.189.091.071.016.138.006.202-.031.128-.074.158-.169.091-.286-.039-.067-.124-.102-.257-.103-.049.003-.097.007-.146.011-.048.004-.098.008-.148.011-.141.009-.249 0-.325-.028-.097-.036-.176-.107-.238-.215-.082-.143-.101-.289-.057-.438.046-.151.141-.267.283-.349.208-.12.426-.101.653.056z" fill="#fff"/><path d="m13.582 29.505.739 1.285-.378.218-.739-1.285-.161.093-.203-.353.161-.093-.345-.601.378-.218.345.601.294-.169.203.353z" fill="#fff"/><path d="m14.907 26.997.9 1.564c.128.223.258.365.391.427.194.087.39.073.588-.041.199-.114.309-.277.332-.489.015-.142-.042-.326-.172-.552l-.9-1.564.392-.225.962 1.672c.158.274.202.548.134.823-.078.308-.257.542-.536.702-.279.161-.571.197-.875.11-.272-.079-.487-.255-.645-.529l-.962-1.672z" fill="#fff"/><path d="m18.652 26.49-.217.347c-.107-.073-.197-.088-.27-.046-.035.02-.058.049-.069.086-.012.037-.007.074.014.11.036.063.145.083.326.061.25-.029.431-.027.543.006s.203.111.274.235c.091.158.109.324.053.498-.055.166-.163.295-.323.387-.275.158-.547.136-.815-.066l.237-.336c.09.052.153.083.189.091.07.016.138.006.202-.031.127-.073.158-.169.091-.286-.039-.067-.124-.102-.256-.103-.049.003-.098.007-.146.01-.048.004-.098.008-.148.011-.141.009-.249 0-.325-.028-.097-.036-.176-.107-.238-.215-.082-.142-.101-.288-.057-.437.046-.151.141-.267.283-.349.207-.122.425-.103.652.055z" fill="#fff"/><path d="m20.951 26.004-1.174.675c.088.129.193.211.316.246.122.034.244.016.366-.053.094-.054.159-.122.195-.202.035-.08.056-.202.064-.368l.422-.006c-.001.112-.012.215-.032.306-.02.092-.051.175-.091.25-.041.075-.092.142-.155.202s-.137.114-.222.163c-.244.141-.486.175-.724.104-.239-.073-.434-.24-.584-.501-.149-.259-.198-.51-.147-.753.054-.242.2-.431.439-.568.241-.139.476-.171.705-.099.227.072.418.244.574.514zm-.566-.086c-.169-.171-.354-.199-.556-.083-.046.026-.085.058-.117.096-.032.037-.057.078-.075.124s-.028.093-.03.144.004.103.019.157z" fill="#fff"/><path d="m22.292 25.098c-.136-.237-.167-.486-.093-.75.074-.263.233-.465.476-.605.245-.141.5-.176.767-.107.264.07.467.227.606.471.141.246.175.5.101.763-.076.263-.237.466-.485.608-.246.141-.5.176-.763.103-.261-.071-.464-.232-.609-.483zm.391-.216c.094.164.213.268.355.313.145.045.291.025.438-.059.148-.085.239-.201.273-.347s.004-.299-.087-.458c-.092-.159-.209-.261-.353-.305-.145-.045-.291-.025-.438.059-.145.083-.234.199-.268.347s-.007.298.08.45z" fill="#fff"/><path d="m24.571 23.183.74 1.285-.38.219-.74-1.285-.134.077-.203-.353.134-.077-.364-.632c-.119-.206-.167-.373-.144-.5.03-.175.139-.317.328-.426.067-.039.163-.068.288-.087l.222.387-.05.002c-.106.006-.185.023-.238.054-.067.038-.099.089-.095.15s.044.158.121.293l.311.54.412-.237.203.353z" fill="#fff"/><path d="m25.71 20.781 1.675 1.347-.365-2.268 1.747 1.473-.28-2.149.425-.245.428 3.429-1.726-1.456.363 2.242-2.693-2.129z" fill="#fff"/><path d="m30.923 19.059.38-.219.942 1.638-.38.219-.099-.171c-.072.235-.198.404-.377.508-.227.13-.461.156-.703.078-.243-.083-.437-.249-.58-.499-.141-.245-.186-.493-.133-.74.053-.248.19-.436.41-.563.19-.11.407-.129.648-.059zm-.43 1.33c.091.157.206.261.347.311.144.05.281.038.412-.038.14-.081.226-.194.257-.341.029-.149-.001-.301-.089-.454-.088-.154-.204-.255-.348-.306-.142-.048-.283-.032-.42.047-.13.075-.21.187-.241.336-.03.151-.003.299.082.445z" fill="#fff"/><path d="m31.467 17.145 1.634 2.841-.378.218-1.634-2.841z" fill="#fff"/><path d="m32.325 16.651 1.635 2.841-.378.218-1.635-2.841z" fill="#fff"/><path d="m35.511 17.628-1.174.675c.087.129.193.211.316.246.123.034.245.016.366-.053.094-.054.159-.121.195-.202.035-.08.056-.203.064-.368l.422-.006c-.001.112-.012.215-.032.306-.02.092-.051.175-.091.25-.041.075-.092.142-.155.202-.062.06-.136.114-.221.163-.245.141-.486.175-.724.103-.239-.073-.434-.24-.584-.501-.149-.259-.198-.51-.146-.753.054-.242.2-.431.439-.568.241-.139.476-.172.705-.099.227.072.418.244.574.514zm-.567-.086c-.169-.172-.354-.199-.556-.083-.046.026-.085.058-.117.096-.032.037-.058.079-.075.124-.018.045-.028.093-.03.144-.002.05.004.103.019.157z" fill="#fff"/><path d="m35.995 16.611.74 1.285-.378.218-.74-1.285-.161.093-.203-.353.161-.093-.345-.601.378-.218.345.601.294-.169.203.353z" fill="#fff"/><path d="m38.619 13.87-.209.371c-.119-.069-.214-.104-.286-.104-.077-.003-.159.02-.248.071-.109.063-.181.145-.218.248-.037.102-.029.199.024.291.073.127.226.175.459.144l.32-.043c.26-.036.474-.021.642.046s.304.189.406.368c.137.239.171.482.102.729-.07.249-.224.442-.462.579-.225.13-.45.17-.673.121-.221-.05-.42-.186-.595-.407l.347-.316c.105.142.198.229.276.262.145.066.295.054.45-.035.122-.07.2-.17.234-.298.034-.129.014-.255-.058-.381-.029-.05-.063-.093-.101-.127s-.082-.06-.132-.078-.107-.029-.172-.033-.138-.001-.219.008l-.311.04c-.442.054-.746-.063-.912-.353-.112-.195-.132-.401-.058-.618.073-.218.22-.391.442-.519.298-.172.616-.16.952.034z" fill="#fff"/><path d="m40.009 14.302.739 1.285-.378.218-.74-1.285-.162.093-.203-.353.162-.093-.346-.601.378-.218.346.601.295-.169.203.353z" fill="#fff"/><path d="m41.565 12.937.38-.219.943 1.638-.38.219-.099-.171c-.072.235-.198.405-.377.508-.226.13-.461.156-.703.078-.243-.083-.436-.249-.58-.499-.141-.245-.186-.493-.133-.741s.189-.436.41-.563c.191-.11.407-.13.649-.06zm-.43 1.33c.09.157.206.261.347.311.144.05.281.038.412-.038.14-.08.226-.194.257-.34.029-.149-.001-.301-.089-.455s-.205-.255-.348-.306c-.142-.048-.283-.032-.42.047-.13.075-.21.187-.241.336-.03.15-.002.299.082.445z" fill="#fff"/><path d="m42.423 12.443.38-.219.087.151c.057-.207.168-.359.334-.454.191-.11.374-.135.55-.077.151.049.292.189.425.42l.578 1.004-.38.219-.526-.915c-.093-.161-.179-.26-.26-.296-.08-.038-.178-.023-.293.043-.126.072-.191.165-.196.278-.004.112.052.269.169.474l.455.791-.38.218z" fill="#fff"/><path d="m44.828 9.459.38-.218 1.635 2.841-.38.218-.099-.171c-.065.232-.192.402-.38.51-.225.129-.458.154-.7.076-.243-.083-.437-.249-.58-.499-.141-.245-.184-.491-.132-.739.051-.248.187-.437.408-.563.192-.11.408-.131.65-.061zm.262 2.534c.09.157.206.26.347.311.144.05.281.038.412-.038.14-.08.226-.194.257-.34.029-.149-.001-.301-.089-.455-.089-.154-.205-.255-.348-.306-.142-.048-.283-.032-.42.047-.13.075-.21.187-.241.336s-.003.298.082.445z" fill="#fff"/><path d="m47.585 9.474.38-.219.943 1.638-.38.219-.099-.171c-.072.235-.198.405-.377.508-.226.131-.461.156-.703.078-.243-.083-.436-.249-.58-.499-.141-.245-.186-.493-.133-.74.053-.248.19-.436.41-.563.191-.11.407-.13.649-.06zm-.43 1.33c.09.157.206.26.347.311.144.05.281.038.412-.038.14-.081.226-.194.257-.34.029-.149-.001-.301-.089-.455-.089-.154-.205-.255-.348-.306-.142-.048-.283-.032-.42.047-.13.075-.21.187-.241.336-.03.15-.002.299.082.445z" fill="#fff"/><path d="m48.443 8.98.378-.218.084.146c.028-.113.061-.198.099-.256.039-.06.096-.111.171-.154.1-.058.223-.085.369-.082l.026.446c-.101-.01-.186.004-.255.044-.206.119-.22.334-.04.645l.489.85-.378.218z" fill="#fff"/><path d="m50.247 6.341.38-.219 1.635 2.841-.38.219-.099-.171c-.065.232-.192.402-.38.51-.224.129-.458.154-.7.076-.243-.083-.436-.249-.58-.499-.141-.245-.184-.491-.132-.739.051-.249.187-.437.408-.563.192-.11.408-.131.65-.061zm.262 2.534c.09.157.206.26.347.311.144.05.281.038.413-.038.14-.081.225-.194.256-.34.029-.149-.001-.301-.089-.455-.089-.154-.205-.255-.348-.306-.142-.048-.282-.032-.42.047-.13.075-.21.187-.241.336-.03.15-.003.298.082.445z" fill="#fff"/><path d="m52.909 6.782-.217.347c-.107-.073-.197-.088-.27-.046-.035.02-.058.049-.069.086s-.007.073.014.109c.036.063.145.083.326.061.25-.029.431-.027.543.006s.203.111.274.235c.091.158.109.324.053.497-.055.166-.163.295-.323.387-.275.158-.547.136-.815-.066l.237-.335c.09.052.153.083.189.091.07.016.138.006.201-.031.128-.073.158-.169.091-.286-.039-.067-.124-.101-.256-.103-.049.003-.098.006-.146.01s-.098.007-.148.011c-.141.009-.249 0-.325-.028-.097-.036-.176-.107-.238-.215-.082-.143-.101-.289-.057-.437.046-.151.141-.267.283-.349.209-.12.427-.102.653.056z" fill="#fff"/><path d="m57.772 120.228-.994.585.351.595.964-.568.208.352-.965.568.488.828.994-.585.207.351-1.368.806-1.46-2.479 1.368-.806z" fill="#fff"/><path d="m59.097 120.66.723 1.227-.361.213-.723-1.227-.154.091-.199-.337.154-.091-.338-.573.361-.213.338.573.281-.166.199.337z" fill="#fff"/><path d="m58.749 118.866.361-.213.753 1.278c.06-.191.168-.333.323-.424.177-.104.351-.13.525-.078.149.046.287.179.416.397l.565.958-.361.213-.545-.925c-.074-.125-.15-.203-.227-.233-.078-.03-.166-.016-.264.042-.126.074-.192.166-.197.274-.004.109.051.26.165.452l.446.756-.361.213z" fill="#fff"/><path d="m62.131 120.525-1.048-2.972 1.986 1.425-.254-2.445 2.039 2.388-.384.226-1.121-1.355.215 2.042-1.663-1.192.616 1.655z" fill="#fff"/><path d="m65.541 116.409.363-.214.922 1.564-.363.214-.096-.164c-.067.226-.186.39-.357.491-.216.127-.441.155-.674.082-.234-.077-.422-.235-.562-.473-.138-.234-.183-.471-.135-.71s.178-.42.388-.545c.182-.107.389-.128.622-.064zm-.399 1.282c.088.15.2.248.336.296.138.046.27.033.396-.041.134-.079.215-.188.243-.329.027-.144-.004-.289-.09-.435-.086-.147-.199-.243-.337-.291-.137-.044-.272-.028-.403.05-.124.073-.2.181-.228.325-.028.143 0 .285.083.425z" fill="#fff"/><path d="m68.771 116.563c.044.074.08.14.108.2.028.059.051.112.068.16.043.133.053.264.028.392-.045.246-.192.442-.439.587-.209.123-.413.168-.614.135-.207-.033-.382-.146-.524-.338l.363-.214c.059.069.117.115.174.137.132.053.27.038.414-.046.264-.156.301-.396.11-.72l-.129-.219c-.057.231-.179.402-.367.512-.213.126-.432.151-.659.077-.229-.075-.413-.23-.551-.465-.134-.228-.185-.459-.151-.693.037-.25.168-.441.393-.574.197-.116.404-.139.621-.069l-.104-.177.361-.213zm-.783-.537c-.09-.152-.202-.25-.337-.293-.137-.045-.27-.029-.398.047-.137.081-.215.195-.235.343-.018.133.015.272.1.417.084.142.189.238.314.287.137.053.274.039.412-.042.138-.082.217-.196.238-.344.021-.135-.01-.273-.094-.415z" fill="#fff"/><path d="m67.89 114.149c-.037-.063-.046-.131-.028-.204.019-.073.061-.128.125-.166.066-.039.135-.048.208-.03s.128.06.166.125.048.135.029.208c-.018.072-.06.128-.125.166-.065.039-.135.048-.208.029-.072-.018-.128-.061-.167-.128zm.799.405.921 1.564-.361.213-.921-1.564z" fill="#fff"/><path d="m70.403 113.635.283.48c-.142-.052-.256-.078-.344-.077-.087-.001-.174.025-.26.076-.136.08-.221.194-.255.342s-.008.294.076.437c.087.147.201.242.343.285.143.043.283.024.419-.056.087-.051.152-.115.196-.191.043-.074.077-.189.102-.345l.281.477c-.102.162-.227.287-.373.373-.242.143-.49.184-.745.123s-.452-.209-.589-.442-.171-.479-.101-.736c.07-.258.225-.457.465-.599.154-.091.321-.14.502-.147z" fill="#fff"/><path d="m70.275 112.744c-.037-.063-.046-.131-.028-.205.019-.073.061-.128.125-.166.065-.038.134-.048.207-.03s.128.06.167.125c.038.065.048.135.029.208-.018.072-.059.128-.125.166-.065.038-.134.048-.208.029-.071-.018-.128-.061-.167-.127zm.799.405.921 1.564-.361.213-.921-1.564z" fill="#fff"/><path d="m72.684 112.2.363-.214.921 1.564-.363.214-.097-.164c-.067.226-.186.39-.357.491-.216.127-.441.155-.675.082-.234-.077-.421-.234-.562-.473-.138-.234-.183-.471-.135-.71s.178-.42.388-.545c.182-.107.39-.129.622-.064zm-.399 1.282c.088.15.2.248.336.295.138.046.27.033.395-.041.134-.079.215-.188.243-.329.026-.144-.004-.289-.09-.435-.087-.147-.199-.243-.338-.29-.137-.045-.272-.028-.403.05-.124.073-.2.181-.228.325-.026.143.002.285.085.425z" fill="#fff"/><path d="m73.503 111.718.363-.214.085.144c.053-.2.158-.346.316-.44.182-.107.358-.133.527-.078.145.046.283.179.413.399l.565.958-.363.214-.515-.873c-.091-.154-.175-.247-.252-.281-.077-.036-.171-.021-.281.045-.12.071-.181.16-.185.269-.003.107.053.258.168.453l.444.754-.363.214z" fill="#fff"/><path d="m76.371 110.387-.205.335c-.104-.069-.191-.082-.26-.041-.033.019-.055.047-.066.083-.01.036-.006.071.014.105.036.06.14.078.314.055.24-.03.414-.03.521 0 .107.031.195.105.265.222.089.151.107.31.056.477-.051.16-.154.285-.307.375-.262.155-.523.136-.783-.055l.224-.325c.087.05.148.078.183.085.068.015.132.004.193-.032.122-.072.15-.164.085-.275-.038-.064-.12-.097-.247-.096-.047.003-.094.007-.14.011s-.094.008-.142.012c-.135.01-.239.003-.312-.023-.093-.033-.17-.101-.23-.204-.08-.136-.1-.275-.059-.419.043-.145.132-.258.268-.338.2-.117.409-.102.628.048z" fill="#fff"/><path d="m79.094 107.37.261.443c-.323-.054-.6-.012-.831.124-.255.15-.415.368-.482.654-.068.286-.025.56.13.823.153.26.37.428.651.503s.548.038.803-.112c.132-.077.231-.165.298-.262.039-.051.075-.112.109-.181.034-.068.066-.146.097-.234l.266.451c-.143.247-.332.44-.567.578-.354.209-.729.264-1.125.164-.397-.102-.698-.33-.906-.682-.186-.316-.247-.659-.184-1.029.078-.454.321-.802.729-1.042.221-.13.472-.197.751-.198z" fill="#fff"/><path d="m80.338 108.728c-.133-.226-.166-.466-.097-.719.068-.254.218-.449.451-.586s.478-.174.735-.11c.254.065.45.213.587.445.138.234.173.479.105.732-.07.253-.223.45-.46.589-.234.138-.478.174-.731.106-.252-.064-.449-.217-.59-.457zm.373-.211c.092.156.206.255.344.297.14.041.28.021.42-.061.141-.083.228-.195.258-.336.031-.141.002-.287-.088-.439-.089-.152-.203-.249-.341-.29-.14-.041-.28-.021-.42.061-.138.082-.223.193-.254.336-.032.143-.005.287.081.432z" fill="#fff"/><path d="m82.295 106.537.529.897c.153.259.331.328.536.208s.23-.31.078-.569l-.529-.897.361-.213.534.905c.073.125.122.242.144.351.018.099.009.203-.026.312-.06.178-.183.322-.372.433-.188.11-.373.149-.558.115-.114-.021-.209-.063-.288-.126-.073-.055-.152-.154-.236-.298l-.534-.905z" fill="#fff"/><path d="m83.725 105.694.363-.214.085.144c.053-.2.158-.346.316-.439.182-.107.358-.134.527-.079.145.046.283.179.412.399l.565.958-.363.214-.515-.873c-.09-.154-.175-.247-.252-.281-.077-.035-.171-.02-.281.045-.12.071-.181.16-.185.269-.003.107.053.258.168.453l.444.754-.363.214z" fill="#fff"/><path d="m86.784 103.982.283.48c-.142-.052-.256-.078-.344-.077-.087-.001-.174.025-.26.076-.136.08-.221.194-.254.342-.034.148-.008.294.076.437.087.147.201.242.343.285.143.043.283.024.419-.056.087-.051.152-.115.196-.191.043-.074.077-.189.101-.346l.281.477c-.102.162-.226.287-.373.373-.242.142-.49.184-.745.123-.255-.062-.452-.209-.589-.442s-.171-.479-.101-.736c.07-.258.225-.457.465-.599.154-.09.322-.139.502-.146z" fill="#fff"/><path d="m86.657 103.091c-.037-.063-.046-.131-.027-.204s.061-.129.125-.166c.065-.038.134-.048.208-.029.072.018.128.06.166.125s.048.135.029.208c-.018.072-.059.128-.124.166-.066.038-.135.048-.208.029-.074-.02-.13-.063-.169-.129zm.799.405.921 1.564-.361.213-.921-1.564z" fill="#fff"/><path d="m87.598 101.866 1.597 2.711-.361.213-1.597-2.711z" fill="#fff"/><path d="m90.127 102.96c-.133-.226-.166-.466-.097-.719.068-.254.219-.449.451-.585.233-.137.478-.174.735-.111.255.065.45.213.587.446.138.234.173.479.105.732-.07.253-.223.449-.46.589-.234.138-.478.174-.731.107-.252-.067-.449-.219-.59-.459zm.373-.211c.092.156.206.255.344.297.14.042.279.021.42-.062s.228-.195.258-.336c.031-.141.002-.287-.088-.439s-.204-.249-.342-.29c-.14-.041-.28-.021-.42.062-.138.081-.223.193-.254.336s-.004.287.082.432z" fill="#fff"/><path d="m92.295 101.099.723 1.227-.363.214-.723-1.227-.128.076-.199-.337.128-.076-.355-.604c-.116-.197-.164-.356-.143-.478.028-.169.131-.306.311-.412.064-.038.156-.067.275-.087l.217.369-.048.003c-.102.007-.178.025-.228.054-.064.038-.094.086-.089.146.004.058.044.151.12.28l.303.515.393-.232.199.337z" fill="#fff"/><path d="m94.484 100.105.593 1.006-.374.221-1.46-2.478.424-.25c.208-.122.373-.2.496-.234.124-.034.25-.035.379-.002.224.055.399.189.524.401.134.227.164.451.09.673-.073.223-.239.41-.497.562zm-.204-.347.14-.082c.343-.203.437-.436.282-.7-.151-.256-.403-.279-.757-.071l-.124.073z" fill="#fff"/><path d="m95.488 98.763.361-.213.082.14c.026-.109.056-.191.092-.247.037-.058.091-.108.163-.15.095-.056.213-.083.353-.083l.03.428c-.097-.009-.179.006-.244.045-.197.116-.208.323-.033.62l.478.811-.361.213z" fill="#fff"/><path d="m97.871 97.359.363-.214.922 1.563-.363.214-.096-.164c-.067.227-.186.39-.357.491-.216.127-.441.155-.674.082-.234-.077-.422-.235-.562-.473-.138-.234-.183-.471-.135-.71s.178-.42.388-.545c.182-.107.389-.128.622-.063zm-.4 1.282c.089.15.2.248.336.295.138.047.27.033.395-.041.134-.079.215-.189.243-.329.027-.144-.004-.289-.09-.436s-.199-.243-.337-.29c-.137-.045-.272-.028-.403.05-.124.073-.2.181-.228.324-.027.145.002.287.084.427z" fill="#fff"/><path d="m101.101 97.512c.044.074.08.14.108.2.028.059.051.112.068.16.043.133.053.264.028.392-.045.246-.192.442-.439.587-.209.123-.414.168-.614.135-.207-.033-.382-.146-.524-.338l.363-.214c.059.069.117.115.174.137.132.053.27.038.414-.047.264-.156.301-.396.11-.72l-.129-.218c-.057.231-.179.402-.367.512-.213.126-.433.152-.659.077-.229-.075-.412-.23-.55-.465-.134-.228-.185-.459-.151-.693.037-.25.168-.441.393-.574.197-.116.404-.139.621-.069l-.104-.177.361-.213zm-.784-.537c-.09-.152-.202-.25-.337-.293-.137-.045-.27-.029-.398.047-.137.081-.215.195-.235.344-.018.133.015.272.1.417.084.142.189.238.314.287.137.053.274.04.412-.042.138-.081.217-.196.238-.344.022-.135-.01-.274-.094-.416z" fill="#fff"/><path d="m101.018 95.504.529.897c.153.259.331.328.535.208.205-.121.23-.31.078-.569l-.529-.897.361-.213.533.905c.074.125.122.242.144.352.018.099.009.203-.026.312-.06.178-.184.322-.372.433-.188.11-.373.149-.558.115-.114-.021-.21-.063-.289-.127-.073-.055-.152-.154-.236-.298l-.533-.905z" fill="#fff"/><path d="m104.383 94.689-1.12.66c.085.123.187.2.306.233.118.031.235.013.351-.055.09-.053.151-.118.185-.196.033-.077.052-.195.057-.354l.405-.01c0 .108-.009.206-.028.294-.018.088-.047.169-.085.241s-.087.137-.146.195c-.06.058-.13.111-.211.159-.233.137-.464.173-.694.107-.23-.068-.419-.227-.566-.476-.146-.247-.195-.488-.148-.721.049-.232.188-.416.416-.55.23-.136.455-.169.676-.102.218.067.403.23.555.488zm-.545-.077c-.164-.163-.342-.188-.535-.074-.044.026-.081.057-.112.093s-.055.076-.071.12c-.017.044-.026.09-.028.139-.002.048.005.099.02.151z" fill="#fff"/></svg>