<svg enable-background="new 0 0 110.979 128.417" viewBox="0 0 110.979 128.417" xmlns="http://www.w3.org/2000/svg"><path d="m55.399 128.106-55.378-31.973v-63.945l55.378-31.973 55.379 31.973v63.945z" fill="#0a0f44"/><path d="m55.322 117.209-45.51-26.275v-52.55l45.51-26.275 45.509 26.275v52.55z" fill="#040933"/><g fill="#15ffab"><path d="m60.529 65.165c1.57-.997 2.285-2.567 2.011-4.404-.09-.6-.999-.344-.911.251.209 1.399-.397 2.588-1.577 3.338-.511.325-.038 1.143.477.815z"/><path d="m62.129 61.127c.499.598 1.009 1.193 1.605 1.699.461.392 1.132-.273.667-.668-.595-.506-1.105-1.101-1.605-1.699-.391-.468-1.055.204-.667.668z"/><path d="m63.69 62.587c.129 1.935-.59 3.519-2.221 4.596-.505.334-.033 1.152.476.815 1.899-1.254 2.84-3.137 2.688-5.411-.04-.605-.984-.608-.943 0z"/><path d="m59.978 65.185c.388.86.839 1.689 1.227 2.549.25.554 1.064.074.815-.476-.388-.86-.839-1.689-1.227-2.549-.25-.555-1.064-.074-.815.476z"/><path d="m67.505 84.387c.997 2.654 1.898 5.36 2.969 7.984.268.656.595 1.281.898 1.92.141.298.247.611.331.929h.902c-.24-.875-.573-1.695-.994-2.591-1.223-2.606-2.053-5.454-3.065-8.149-2.144-5.706-4.289-11.418-5.911-17.299-.162-.586-1.072-.337-.91.251 1.588 5.762 3.68 11.364 5.78 16.955z"/><path d="m64.508 63.136c4.324 1.061 9.052 1.318 12.915 3.729.518.323.992-.494.476-.815-3.942-2.46-8.73-2.742-13.14-3.824-.591-.146-.842.765-.251.91z"/><path d="m78.886 84.385c.098 1.431.164 2.863.214 4.296.048 1.39.203 2.867.015 4.25-.085.627-.436.989-.796 1.469-.185.246-.312.526-.404.82h1.063c.117-.242.267-.477.463-.716.396-.482.577-1.06.632-1.679.247-2.764-.062-5.677-.243-8.441-.378-5.763-1.219-11.492-2.563-17.109-.142-.592-1.052-.341-.911.251 1.327 5.542 2.14 11.176 2.53 16.859z"/><path d="m77.484 67.271c3.139 3.296 4.336 8.644 5.181 13.35.45 2.505.764 5.044 1.036 7.584.228 2.135.613 4.35.701 6.495.033.793 1.065.797 1.032 0-.093-2.25-.494-4.559-.734-6.799-.285-2.663-.628-5.317-1.1-7.942-.861-4.793-2.199-10.214-5.387-13.562-.498-.523-1.231.348-.729.874z"/><path d="m48.224 60.479c-.761 2.148-.17 4.161 1.632 5.557.475.368 1.148-.295.667-.667-1.557-1.207-2.049-2.776-1.389-4.639.204-.576-.708-.821-.91-.251z"/><path d="m50.001 65.702c0 1.103-.009 2.204-.094 3.304-.047.608.897.603.944 0 .085-1.1.094-2.201.094-3.304 0-.609-.944-.609-.944 0z"/><path d="m47.779 60.176c-2.475 3.086-1.952 7.266 1.606 9.238.533.295 1.009-.52.476-.815-2.985-1.654-3.522-5.127-1.415-7.755.377-.471-.286-1.143-.667-.668z"/><path d="m32.85 69.461c4.727-1.223 8.707-4.123 13.217-5.853.562-.216.319-1.129-.251-.91-4.509 1.73-8.494 4.631-13.217 5.853-.589.152-.339 1.063.251.91z"/><path d="m36.279 92.677c.135.943.075 1.688.181 2.543h.917c-.068-.293-.102-.556-.029-.766.181-.511-.02-1.183-.11-1.69-.449-2.542-.623-5.148-.884-7.714-.512-5.036-1.143-10.099-2.986-14.848-.218-.561-1.131-.318-.91.251 1.856 4.782 2.472 9.87 2.988 14.939.248 2.432.487 4.865.833 7.285z"/><path d="m46.542 95.221h1.083c.301-.633.215-1.44.193-2.11-.084-2.577.068-5.16.328-7.723.532-5.257 1.639-10.443 2.782-15.595.132-.593-.778-.845-.91-.251-1.137 5.125-2.201 10.27-2.778 15.493-.297 2.681-.433 5.38-.365 8.077.016.646.134 1.377-.243 1.942-.036.053-.066.109-.09.167z"/><path d="m50.536 68.423c3.694 1.122 7.624-.128 10.56-2.481.475-.381-.198-1.044-.668-.668-2.675 2.144-6.288 3.258-9.642 2.239-.583-.178-.831.733-.25.91z"/><path d="m32.599 70.061c-1.04.143-1.094 2.269-1.176 2.988-.265 2.33-.273 4.695-.297 7.037-.047 4.65.14 9.314-.48 13.937-.081.602.865.594.944 0 .563-4.201.45-8.429.47-12.656.01-2.289.034-4.581.181-6.866.054-.839.125-1.68.278-2.508.053-.288.123-.572.224-.847.074-.199.13-.179.104-.176.604-.081.348-.991-.248-.909z"/><path d="m44.839 47.243c-.951-1.552-1.99-3.095-2.546-4.843-.489-1.539.092-3.764 1.994-3.626 1.514.11 2.935.687 4.474.717 1.855.036 3.722-.265 5.555-.505 1.96-.257 3.923-.516 5.9-.584 1.706-.059 3.594 0 5.101.896 3.139 1.868 2.521 7.397-.418 9.1-.527.305-.052 1.121.476.815 3.011-1.744 3.69-6.042 2.101-8.966-1.787-3.29-6.39-2.931-9.533-2.638-3.858.359-7.86 1.471-11.712.597-1.197-.272-2.779-.795-3.837.123-1.271 1.103-1.42 3.042-.942 4.545.554 1.743 1.623 3.301 2.57 4.847.319.517 1.136.043.817-.478z"/><path d="m46.98 46.16c.381-3.27 3.973-4.556 6.823-4.746 3.099-.207 7.584 1.069 7.904 4.746.052.602.997.606.944 0-.371-4.271-5.158-5.874-8.848-5.69-3.438.171-7.324 1.888-7.767 5.69-.07.604.875.597.944 0z"/><path d="m51.121 56.815c.744-.722 1.861-1.674 2.939-1.813.595-.076.603-1.021 0-.944-1.366.175-2.647 1.157-3.607 2.089-.437.426.232 1.093.668.668z"/><path d="m55.508 54.814c1.435.185 2.533 1.019 2.943 2.422.17.583 1.081.335.91-.251-.538-1.843-1.992-2.876-3.854-3.116-.602-.077-.594.868.001.945z"/><path d="m53.967 59.174c.023.034.045.097-.007-.035.015.038.026.149.006-.014.007.062.004.125.002.187-.008.21.021.394.16.56.185.219.487.183.718.079.19-.085.365-.246.52-.385.14-.126.231-.278.244-.469.017-.248-.178-.434-.394-.506-.062-.021-.131-.022-.195-.035-.018-.004-.036-.009-.054-.014-.09-.027.11.052.05.021-.08-.042.09.079.043.034.098.097.06.09.037.038-.105-.235-.442-.289-.646-.169-.24.141-.274.411-.169.646.09.203.32.327.53.363.048.008.097.013.145.024.04.01.085.044-.081-.036-.13-.063-.194-.221-.209-.373.005-.037.01-.074.015-.111.046-.097.057-.127.036-.087-.029.051.097-.113.027-.038-.033.035-.07.066-.106.098-.025.021-.051.041-.076.062.091-.073-.022.017-.033.025-.035.026-.068.052-.106.073-.094.051.099-.033.017-.007.131-.041.266.028.365.109.089.074.099.157.108.242-.009-.093.005-.189.002-.283-.004-.161-.038-.338-.131-.474-.145-.212-.412-.307-.646-.169-.212.122-.317.432-.172.644z"/><path d="m62.022 50.754c-.203 1.823-.746 3.55-1.824 5.049-.357.495.463.965.815.476 1.178-1.638 1.732-3.538 1.952-5.525.068-.604-.877-.598-.943 0z"/><path d="m46.431 51.95c.55 1.585 1.408 2.978 2.513 4.236.402.458 1.067-.212.668-.667-.995-1.133-1.775-2.393-2.27-3.82-.2-.572-1.112-.326-.911.251z"/><path d="m46.414 52.58c.055 2.889.681 5.87 2.32 8.292 1.696 2.506 4.491 3.716 7.478 3.527 2.644-.167 4.717-1.856 5.714-4.26.516-1.244.771-2.556.895-3.892.11-1.174.329-2.973-.235-4.03-.287-.537-1.102-.06-.815.476.34.636.187 2.201.139 3.106-.063 1.196-.283 2.377-.669 3.51-.82 2.404-2.709 4-5.269 4.162-6.078.384-8.518-5.792-8.615-10.89-.011-.61-.955-.611-.943-.001z"/><path d="m62.921 53.176c2.323-1.438 2.517-4.311.126-5.787-.201-.124-.542-.062-.646.169-.173.386-.2.849-.441 1.196-.348.502.471.973.815.476.255-.367.262-.797.441-1.196-.215.056-.431.113-.646.169 1.787 1.104 1.586 3.098-.126 4.157-.516.32-.042 1.137.477.816z"/><path d="m46.432 47.578c-.06-.045-.139-.421-.245-.538-.255-.286-.568-.341-.938-.345-.156-.002-.336.089-.407.234-.887 1.796-.674 4.508 1.667 4.973.595.118.848-.792.251-.91-1.704-.338-1.735-2.305-1.103-3.586-.136.078-.272.156-.408.234.295.003.458.569.706.753.489.364.958-.456.477-.815z"/><path d="m52.311 53.055c1.163 1.248 2.759 1.365 4.019.189.446-.416-.223-1.082-.667-.667-.894.834-1.88.673-2.684-.189-.417-.447-1.083.222-.668.667z"/><path d="m50.378 51.588c-1.744 0-3.162-1.419-3.162-3.162 0-1.744 1.419-3.163 3.162-3.163 1.744 0 3.163 1.419 3.163 3.163 0 1.743-1.418 3.162-3.163 3.162zm0-5.57c-1.327 0-2.407 1.08-2.407 2.407s1.08 2.407 2.407 2.407 2.407-1.08 2.407-2.407c.001-1.327-1.079-2.407-2.407-2.407z"/><path d="m58.828 51.588c-1.744 0-3.163-1.419-3.163-3.162 0-1.744 1.419-3.163 3.163-3.163s3.163 1.419 3.163 3.163c-.001 1.743-1.42 3.162-3.163 3.162zm0-5.57c-1.327 0-2.407 1.08-2.407 2.407s1.08 2.407 2.407 2.407 2.407-1.08 2.407-2.407-1.08-2.407-2.407-2.407z"/><path d="m53.447 48.52h2.313c.609 0 .609-.944 0-.944-.771 0-1.542 0-2.313 0-.609 0-.609.944 0 .944z"/><path d="m61.898 48.125c.444-.328.927-.64 1.416-.897.539-.283.062-1.098-.476-.815-.489.257-.972.569-1.416.897-.207.152-.31.406-.169.646.119.204.438.322.645.169z"/><path d="m45.514 47.134c.547.305 1.067.736 1.435 1.247.353.489 1.172.018.815-.476-.465-.644-1.08-1.199-1.774-1.586-.531-.297-1.007.519-.476.815z"/><path d="m45.675 29.985c.496 2.692.702 5.521.361 8.245-.076.603.869.596.944 0 .352-2.81.117-5.72-.395-8.496-.11-.598-1.02-.344-.91.251z"/><path d="m63.641 38.135c.518-1.681 1.064-3.365 1.385-5.098.11-.595-.8-.849-.91-.251-.32 1.732-.867 3.417-1.385 5.098-.18.583.732.831.91.251z"/><path d="m46.464 30.067c2.329-2.194 6.192-2.879 9.267-3.004 1.688-.069 3.367.123 4.883.904 1.823.939 3.163 2.815 3.422 4.85.076.595 1.021.603.944 0-.255-2.007-1.298-3.851-2.942-5.054-1.589-1.163-3.41-1.588-5.349-1.65-3.579-.113-8.197.747-10.892 3.287-.445.418.225 1.085.667.667z"/><path d="m60.03 38.346c.121-.16.31-.272.573-.272.115 0 .215.022.303.059-.002-.049-.011-.1-.034-.155-2.115-5.172-9.769-3.358-13.797-2.029-.575.19-.329 1.102.251.91 2.196-.725 4.483-1.244 6.8-1.323 2.223-.076 4.894.391 5.836 2.693.018.045.042.083.068.117z"/><path d="m53.4 57.017h3.21c.609 0 .609-.944 0-.944-1.07 0-2.14 0-3.21 0-.609 0-.609.944 0 .944z"/><path d="m78.007 69.384c.008-.366.169-.587.535-.678.591-.146.34-1.056-.251-.91-.757.187-1.212.821-1.228 1.588-.012.609.932.608.944 0z"/><path d="m77.458 67.056c-.067.429-.194.842-.315 1.258.309.042.618.084.927.125.008-.174.057-.339.109-.504.125-.394-.347-.748-.693-.533-.274.17-.295.492-.297.785.309-.042.618-.084.927-.125-.076-.237-.163-.548-.172-.756-.015-.358-.39-.588-.71-.407-.25.141-.273.429-.304.682-.026.207-.049.47.024.669.211.577 1.01.347.91-.251-.063-.378-.126-.755-.189-1.133-.088-.529-.948-.4-.927.125.008.206.017.411.024.617.003.08-.027.285.02.051.11-.11.22-.22.33-.33h-.001c.178.072.355.145.533.217.13.266-.039-.091-.085-.13-.161-.137-.381-.191-.572-.074-.296.181-.248.547-.248.844-.001.609.943.609.944 0 0-.109 0-.217.003-.325.004-.131.003-.008-.007.016-.072.094-.145.188-.217.282 0 0 .001 0 .002-.001-.191-.025-.382-.049-.572-.074-.015-.013-.216-.377-.062-.061.086.176.348.287.533.217.498-.189.337-.836.321-1.249-.309.042-.618.084-.927.125.062.377.126.755.189 1.133.303-.084.607-.167.91-.251-.032-.089.003.126-.007-.018-.006-.074-.001-.149.002-.223.001-.028.018-.197.012-.159.01-.067.075-.175-.002-.049-.056.056-.113.113-.169.169.003-.002.006-.004.01-.006-.237-.136-.474-.271-.71-.408.014.338.103.686.206 1.007.16.503.924.419.927-.125 0-.059.044-.26-.019-.129-.056.056-.113.113-.169.169.006-.003.012-.007.017-.01-.231-.178-.462-.356-.693-.533-.078.246-.131.496-.143.755-.023.543.782.628.927.125.121-.416.248-.829.315-1.259.04-.254-.061-.507-.33-.581-.228-.06-.542.078-.582.333z"/><path clip-rule="evenodd" d="m36.296 55.792c-.894-.852-1.778-1.715-2.665-2.574-.537-.52-1.071-1.043-1.614-1.556-.04-.038-.078-.238-.204-.066-.035.092-.076.182-.104.275-.412 1.41-.827 2.818-1.229 4.231-.14.491-.327.971-.402 1.48-.003.159.129.151.227.179.955.271 1.914.526 2.863.816.394.121.638.124.976-.237.699-.746 1.423-1.477 2.164-2.187.15-.146.132-.225-.012-.361z" fill-rule="evenodd"/><path clip-rule="evenodd" d="m36.28 56.715c-.809.812-1.613 1.628-2.418 2.443-1.182-.331-2.364-.664-3.546-.995.019.107.058.156.105.195.972.81 1.941 1.622 2.918 2.425.374.307.718.653 1.137.904.19.193.153-.061.17-.104.602-1.587 1.196-3.177 1.788-4.768.025-.066.114-.155.028-.212-.094-.062-.133.063-.182.112z" fill-rule="evenodd"/><path clip-rule="evenodd" d="m25.726 68.744c-.431-1.157-.85-2.319-1.272-3.48-.255-.703-.508-1.406-.772-2.105-.02-.052.034-.248-.155-.149-.071.068-.148.13-.213.202-.986 1.088-1.975 2.174-2.954 3.269-.341.381-.718.73-1.008 1.156-.072.141.05.193.125.26.741.661 1.493 1.309 2.219 1.984.302.281.52.39.982.214.955-.366 1.926-.707 2.902-1.022.197-.065.215-.143.146-.329z" fill-rule="evenodd"/><path clip-rule="evenodd" d="m25.307 69.568c-1.082.377-2.162.76-3.242 1.141-.919-.815-1.837-1.63-2.756-2.444-.03.105-.016.166.009.221.521 1.153 1.038 2.308 1.566 3.457.202.44.361.901.628 1.31.087.257.164.013.198-.019 1.235-1.165 2.464-2.335 3.692-3.508.051-.049.17-.09.118-.179-.057-.098-.147-.002-.213.021z" fill-rule="evenodd"/></g><path clip-rule="evenodd" d="m25.539 81.982c-1.109-.544-2.211-1.101-3.316-1.654-.668-.335-1.335-.673-2.007-.999-.05-.024-.146-.203-.215-.002-.006.098-.018.196-.016.294.031 1.468.06 2.937.1 4.405.014.511-.02 1.024.062 1.532.045.153.169.105.27.103.992-.029 1.984-.075 2.976-.084.413-.003.646-.074.86-.519.443-.922.913-1.837 1.406-2.737.099-.183.058-.252-.12-.339z" fill="#fff" fill-rule="evenodd"/><path clip-rule="evenodd" d="m25.801 82.868c-.527 1.018-1.049 2.038-1.572 3.057-1.227.039-2.454.078-3.682.118.05.096.102.131.158.154 1.171.48 2.34.963 3.513 1.435.449.181.882.407 1.356.52.239.127.128-.103.131-.15.097-1.695.185-3.39.272-5.085.003-.071.062-.182-.038-.211-.106-.031-.105.1-.138.162z" fill="#fff" fill-rule="evenodd"/><path clip-rule="evenodd" d="m24.802 50.105c-.643-1.054-1.274-2.116-1.909-3.176-.384-.641-.765-1.284-1.157-1.92-.029-.047-.014-.25-.18-.117-.057.079-.12.155-.171.239-.762 1.255-1.527 2.509-2.281 3.769-.262.438-.567.853-.77 1.326-.044.153.086.179.172.231.852.508 1.714 1.002 2.555 1.528.35.219.585.284 1.004.023.869-.54 1.757-1.059 2.655-1.554.183-.1.185-.18.082-.349z" fill="#fff" fill-rule="evenodd"/><path clip-rule="evenodd" d="m24.548 50.993c-.991.575-1.979 1.156-2.967 1.735-1.056-.626-2.113-1.252-3.169-1.877-.009.108.015.166.05.215.73 1.033 1.456 2.069 2.193 3.097.282.393.526.816.865 1.167.134.236.164-.019.191-.057.992-1.378 1.976-2.76 2.959-4.144.041-.058.151-.12.082-.198-.074-.085-.144.027-.204.062z" fill="#fff" fill-rule="evenodd"/><path clip-rule="evenodd" d="m37.746 42.874c-1.102-.557-2.198-1.127-3.296-1.694-.664-.342-1.327-.689-1.995-1.022-.05-.025-.143-.206-.214-.005-.007.098-.02.196-.019.294.013 1.468.024 2.937.047 4.405.008.511-.032 1.023.043 1.532.042.154.167.107.268.106.992-.017 1.985-.051 2.977-.048.413.001.647-.066.866-.509.454-.917.935-1.826 1.439-2.72.102-.18.061-.25-.116-.339z" fill="#fff" fill-rule="evenodd"/><path clip-rule="evenodd" d="m37.998 43.763c-.539 1.011-1.073 2.025-1.608 3.038-1.227.025-2.455.049-3.683.074.049.097.1.132.156.156 1.165.494 2.328.991 3.495 1.477.447.186.877.417 1.35.536.238.13.129-.102.132-.149.117-1.693.226-3.387.332-5.082.005-.071.065-.181-.034-.211-.106-.032-.107.1-.14.161z" fill="#fff" fill-rule="evenodd"/><path clip-rule="evenodd" d="m29.518 36.053c-.729-.997-1.447-2.003-2.168-3.006-.436-.607-.869-1.216-1.313-1.817-.033-.045-.035-.248-.189-.101-.051.084-.107.165-.151.253-.654 1.314-1.312 2.627-1.958 3.946-.225.459-.494.897-.657 1.385-.032.156.1.171.191.216.892.436 1.791.856 2.674 1.309.367.189.606.235 1.003-.061.821-.611 1.662-1.202 2.517-1.77.173-.114.168-.194.051-.354z" fill="#15ffab" fill-rule="evenodd"/><path clip-rule="evenodd" d="m29.339 36.96c-.94.656-1.876 1.317-2.813 1.977-1.105-.536-2.209-1.071-3.314-1.607 0 .109.029.163.068.21.813.969 1.624 1.94 2.443 2.903.314.369.592.77.959 1.091.153.223.162-.033.186-.073.873-1.456 1.74-2.916 2.604-4.377.036-.061.14-.132.065-.204-.081-.077-.141.04-.198.08z" fill="#15ffab" fill-rule="evenodd"/><path clip-rule="evenodd" d="m39.653 33.129c-.31-1.196-.607-2.395-.908-3.593-.182-.725-.36-1.451-.551-2.173-.014-.054.059-.243-.139-.164-.078.059-.16.114-.233.179-1.093.981-2.188 1.959-3.275 2.947-.378.343-.789.652-1.121 1.045-.087.133.03.197.098.271.669.733 1.35 1.456 2.003 2.202.271.311.477.442.954.313.988-.265 1.988-.505 2.992-.718.204-.041.23-.118.18-.309z" fill="#fff" fill-rule="evenodd"/><path clip-rule="evenodd" d="m39.153 33.905c-1.115.264-2.229.533-3.343.801-.83-.905-1.66-1.81-2.489-2.715-.04.101-.033.163-.014.221.399 1.2.795 2.402 1.202 3.599.156.458.267.933.49 1.368.06.264.162.029.199.001 1.348-1.031 2.692-2.069 4.033-3.109.056-.044.178-.071.136-.166-.047-.102-.147-.016-.214 0z" fill="#fff" fill-rule="evenodd"/><path clip-rule="evenodd" d="m74.683 55.131c.894-.852 1.778-1.715 2.665-2.575.537-.52 1.071-1.043 1.614-1.556.04-.038.078-.238.204-.066.035.092.076.182.104.275.412 1.409.826 2.818 1.229 4.23.14.491.327.971.402 1.48.004.159-.129.151-.226.179-.955.271-1.914.526-2.863.816-.394.121-.638.124-.976-.237-.7-.747-1.423-1.477-2.164-2.187-.151-.144-.133-.222.011-.359z" fill="#fff" fill-rule="evenodd"/><path clip-rule="evenodd" d="m74.699 56.054c.809.812 1.613 1.628 2.418 2.443 1.182-.332 2.365-.663 3.547-.995-.019.107-.058.156-.104.195-.972.81-1.941 1.622-2.919 2.425-.374.307-.719.653-1.137.904-.19.193-.153-.06-.17-.104-.602-1.587-1.196-3.177-1.788-4.768-.025-.067-.114-.155-.028-.213.093-.061.132.064.181.113z" fill="#fff" fill-rule="evenodd"/><path clip-rule="evenodd" d="m85.254 68.083c.432-1.157.85-2.32 1.272-3.48.255-.703.507-1.406.772-2.105.02-.052-.034-.248.155-.149.071.067.148.13.214.202.986 1.088 1.975 2.174 2.954 3.268.341.381.718.73 1.008 1.156.073.142-.05.192-.125.26-.741.661-1.492 1.309-2.219 1.984-.302.281-.52.39-.982.214-.955-.366-1.926-.707-2.902-1.022-.199-.064-.217-.142-.147-.328z" fill="#15ffab" fill-rule="evenodd"/><path clip-rule="evenodd" d="m85.672 68.907c1.082.377 2.162.76 3.242 1.141.919-.815 1.837-1.63 2.755-2.444.03.105.016.165-.009.221-.52 1.153-1.037 2.307-1.565 3.457-.202.44-.361.901-.628 1.31-.087.257-.164.013-.198-.02-1.235-1.165-2.464-2.335-3.692-3.508-.051-.049-.17-.089-.118-.179.058-.097.147-.001.213.022z" fill="#15ffab" fill-rule="evenodd"/><path clip-rule="evenodd" d="m87.494 78.871c.839-.907 1.667-1.823 2.498-2.737.503-.553 1.003-1.108 1.513-1.654.038-.04.063-.242.2-.079.04.09.087.176.121.269.499 1.381 1.002 2.761 1.492 4.145.171.482.387.948.493 1.452.014.159-.119.159-.215.193-.936.33-1.878.645-2.806.994-.386.145-.629.164-.99-.175-.745-.701-1.513-1.385-2.296-2.047-.158-.136-.145-.215-.01-.361z" fill="#fff" fill-rule="evenodd"/><path clip-rule="evenodd" d="m87.568 79.792c.858.76 1.712 1.524 2.567 2.287 1.159-.405 2.318-.811 3.477-1.216-.013.108-.048.159-.092.201-.919.869-1.836 1.741-2.761 2.603-.354.33-.676.697-1.078.974-.178.204-.157-.05-.176-.093-.7-1.546-1.393-3.096-2.084-4.647-.029-.065-.124-.147-.041-.21.089-.068.136.055.188.101z" fill="#fff" fill-rule="evenodd"/><path clip-rule="evenodd" d="m86.177 49.444c.643-1.054 1.275-2.116 1.909-3.176.384-.641.765-1.284 1.157-1.92.029-.047.014-.25.18-.117.057.079.12.156.171.239.762 1.255 1.527 2.509 2.281 3.769.262.438.567.853.771 1.326.045.153-.086.179-.173.231-.852.509-1.714 1.002-2.555 1.528-.35.218-.584.285-1.004.023-.869-.54-1.757-1.059-2.655-1.554-.182-.1-.185-.18-.082-.349z" fill="#fff" fill-rule="evenodd"/><path clip-rule="evenodd" d="m86.431 50.332c.991.575 1.979 1.156 2.967 1.735 1.057-.626 2.113-1.252 3.169-1.877.009.108-.015.165-.051.215-.73 1.033-1.456 2.069-2.193 3.097-.282.394-.525.816-.865 1.167-.134.235-.164-.019-.191-.057-.992-1.378-1.977-2.76-2.96-4.144-.041-.058-.15-.12-.082-.198.076-.084.146.027.206.062z" fill="#fff" fill-rule="evenodd"/><path clip-rule="evenodd" d="m73.233 42.213c1.102-.557 2.198-1.127 3.296-1.693.664-.343 1.327-.689 1.995-1.023.05-.025.143-.205.214-.004.007.098.02.196.02.293-.014 1.468-.024 2.937-.047 4.405-.008.511.032 1.023-.044 1.532-.043.153-.167.107-.268.106-.993-.017-1.984-.051-2.977-.048-.413.002-.647-.066-.866-.509-.454-.917-.935-1.825-1.438-2.72-.102-.18-.062-.249.115-.339z" fill="#15ffab" fill-rule="evenodd"/><path clip-rule="evenodd" d="m72.981 43.102c.539 1.011 1.073 2.025 1.608 3.038 1.227.025 2.455.049 3.683.074-.049.097-.1.132-.156.156-1.165.494-2.328.991-3.495 1.477-.447.186-.877.417-1.35.536-.238.13-.129-.102-.132-.149-.117-1.693-.226-3.387-.333-5.081-.004-.071-.064-.181.035-.211.107-.033.107.099.14.16z" fill="#15ffab" fill-rule="evenodd"/><path clip-rule="evenodd" d="m81.461 35.393c.729-.997 1.446-2.003 2.167-3.006.436-.607.869-1.216 1.313-1.817.033-.044.035-.248.189-.101.05.084.107.165.151.252.655 1.314 1.312 2.628 1.958 3.946.225.459.493.897.657 1.386.032.156-.1.171-.191.216-.892.435-1.791.856-2.674 1.309-.367.189-.606.235-1.003-.06-.82-.611-1.662-1.202-2.517-1.77-.171-.115-.167-.196-.05-.355z" fill="#15ffab" fill-rule="evenodd"/><path clip-rule="evenodd" d="m81.641 36.298c.939.656 1.876 1.317 2.812 1.977 1.105-.536 2.21-1.071 3.314-1.607 0 .109-.029.163-.068.21-.813.969-1.624 1.94-2.443 2.903-.314.369-.592.769-.959 1.091-.153.223-.162-.032-.186-.073-.873-1.455-1.74-2.916-2.604-4.377-.036-.061-.14-.132-.065-.204.081-.076.142.041.199.08z" fill="#15ffab" fill-rule="evenodd"/><path clip-rule="evenodd" d="m71.326 32.468c.31-1.195.607-2.395.907-3.593.182-.725.36-1.45.551-2.173.014-.054-.06-.243.138-.164.078.06.16.114.233.179 1.093.98 2.188 1.959 3.274 2.947.378.344.79.652 1.122 1.046.087.133-.03.197-.098.271-.669.734-1.35 1.455-2.003 2.202-.272.311-.477.442-.954.313-.988-.265-1.988-.505-2.992-.718-.202-.042-.228-.118-.178-.31z" fill="#fff" fill-rule="evenodd"/><path clip-rule="evenodd" d="m71.827 33.245c1.115.263 2.229.533 3.343.801.83-.905 1.659-1.81 2.489-2.715.04.101.033.163.014.221-.399 1.2-.795 2.402-1.202 3.599-.156.458-.267.933-.49 1.368-.06.264-.162.029-.199.001-1.348-1.032-2.692-2.069-4.033-3.109-.056-.044-.179-.071-.135-.166.046-.103.145-.017.213 0z" fill="#fff" fill-rule="evenodd"/><path clip-rule="evenodd" d="m91.815 58.658c.784-.954 1.557-1.918 2.333-2.879.47-.581.936-1.165 1.414-1.74.035-.043.048-.246.194-.09.046.087.097.171.136.261.58 1.349 1.162 2.697 1.733 4.05.199.471.442.924.578 1.42.023.158-.11.166-.203.205-.915.385-1.836.754-2.743 1.157-.377.168-.619.2-.997-.117-.785-.656-1.592-1.294-2.413-1.909-.167-.125-.159-.205-.032-.358z" fill="#15ffab" fill-rule="evenodd"/><path clip-rule="evenodd" d="m91.943 59.573c.901.708 1.798 1.42 2.696 2.132 1.133-.472 2.267-.945 3.4-1.417-.006.109-.038.162-.08.206-.866.922-1.73 1.846-2.603 2.761-.334.35-.634.735-1.019 1.035-.166.215-.16-.041-.181-.083-.79-1.502-1.573-3.009-2.353-4.516-.032-.063-.132-.14-.053-.208.084-.073.138.047.193.09z" fill="#15ffab" fill-rule="evenodd"/><path d="m18.907 95.584h57.3 16.052c.71 0 .711-1.104 0-1.104-19.042 0-38.083 0-57.125 0-5.409 0-10.818 0-16.227 0-.71 0-.711 1.104 0 1.104z" fill="#15ffab"/><path clip-rule="evenodd" d="m43.38 103.056h-7.219l1.062-5.633h5.095z" fill="#15ffab" fill-rule="evenodd"/><path clip-rule="evenodd" d="m38.581 99.998c.229.335.453.674.678 1.01.137.204.272.408.411.611.01.015.003.078.065.038.022-.025.045-.048.064-.074.288-.387.577-.773.862-1.161.099-.135.214-.262.292-.408.017-.047-.03-.057-.062-.074-.309-.167-.621-.328-.926-.5-.127-.071-.212-.094-.368-.016-.322.162-.652.317-.984.464-.068.031-.069.056-.032.11z" fill="#040933" fill-rule="evenodd"/><path clip-rule="evenodd" d="m38.68 99.722c.367-.172.733-.345 1.1-.519.383.205.766.41 1.149.615.004-.034-.005-.052-.017-.068-.26-.329-.52-.66-.782-.988-.101-.125-.187-.26-.309-.373-.048-.075-.06.005-.07.016-.373.423-.744.847-1.114 1.272-.015.018-.056.036-.031.061.026.029.052-.005.074-.016z" fill="#040933" fill-rule="evenodd"/><path clip-rule="evenodd" d="m53.387 103.056h-7.219l1.062-5.633h5.095z" fill="#fff" fill-rule="evenodd"/><path clip-rule="evenodd" d="m48.587 99.998c.229.335.453.674.678 1.01.136.204.271.408.411.611.01.015.003.078.065.038.022-.025.045-.048.064-.074.288-.387.577-.773.863-1.161.099-.135.213-.262.291-.408.017-.047-.03-.057-.062-.074-.309-.167-.621-.328-.926-.5-.127-.071-.212-.094-.368-.016-.322.162-.651.317-.984.464-.067.031-.068.056-.032.11z" fill="#040933" fill-rule="evenodd"/><path clip-rule="evenodd" d="m48.687 99.722c.367-.172.733-.345 1.1-.519.383.205.766.41 1.149.615.004-.034-.005-.052-.017-.068-.26-.329-.52-.66-.782-.988-.101-.125-.187-.26-.309-.373-.047-.075-.06.005-.07.016-.373.423-.744.847-1.114 1.272-.015.018-.056.036-.031.061.025.029.052-.005.074-.016z" fill="#040933" fill-rule="evenodd"/><path clip-rule="evenodd" d="m63.394 103.056h-7.219l1.062-5.633h5.095z" fill="#15ffab" fill-rule="evenodd"/><path clip-rule="evenodd" d="m58.595 99.998c.229.335.453.674.678 1.01.137.204.271.408.411.611.01.015.003.078.065.038.021-.025.045-.048.064-.074.288-.387.577-.773.862-1.161.099-.135.214-.262.291-.408.017-.047-.03-.057-.062-.074-.309-.167-.621-.328-.926-.5-.127-.071-.212-.094-.368-.016-.322.162-.652.317-.985.464-.066.031-.067.056-.03.11z" fill="#040933" fill-rule="evenodd"/><path clip-rule="evenodd" d="m58.694 99.722c.367-.172.733-.345 1.1-.519.383.205.766.41 1.149.615.004-.034-.005-.052-.017-.068-.26-.329-.52-.66-.782-.988-.101-.125-.187-.26-.309-.373-.047-.075-.06.005-.07.016-.373.423-.744.847-1.114 1.272-.015.018-.056.036-.031.061.025.029.052-.005.074-.016z" fill="#040933" fill-rule="evenodd"/><path clip-rule="evenodd" d="m73.401 103.056h-7.219l1.061-5.633h5.096z" fill="#fff" fill-rule="evenodd"/><path clip-rule="evenodd" d="m68.601 99.998c.229.335.453.674.678 1.01.137.204.271.408.411.611.01.015.003.078.065.038.022-.025.045-.048.065-.074.288-.387.577-.773.862-1.161.099-.135.214-.262.292-.408.017-.047-.03-.057-.062-.074-.309-.167-.621-.328-.926-.5-.127-.071-.212-.094-.368-.016-.322.162-.652.317-.985.464-.067.031-.068.056-.032.11z" fill="#040933" fill-rule="evenodd"/><path clip-rule="evenodd" d="m68.701 99.722c.367-.172.733-.345 1.1-.519.383.205.766.41 1.149.615.004-.034-.005-.052-.017-.068-.26-.329-.52-.66-.782-.988-.101-.125-.187-.26-.309-.373-.047-.075-.06.005-.07.016-.373.423-.744.847-1.114 1.272-.015.018-.056.036-.031.061.025.029.052-.005.074-.016z" fill="#040933" fill-rule="evenodd"/><path d="m55.398 10.335-46.684 26.914v53.826l46.684 26.911 46.686-26.911v-53.826zm44.796 79.656-44.796 25.828-44.798-25.828v-51.648l44.798-25.827 44.796 25.827z" fill="#15ffab"/><path d="m20.183 23.554 2.263 1.822-.491-3.067 2.361 1.993-.377-2.906.576-.331.576 4.637-2.333-1.97.489 3.032-3.639-2.88z" fill="#fff"/><path d="m24.991 21.291c-.051-.09-.063-.186-.035-.288.028-.103.087-.18.178-.233.093-.053.19-.066.293-.038.102.026.179.086.232.178s.066.19.038.293c-.026.102-.086.179-.178.232-.093.053-.19.066-.293.038-.103-.027-.181-.088-.235-.182zm1.118.583 1.273 2.216-.512.294-1.273-2.216z" fill="#fff"/><path d="m26.335 19.581 2.207 3.842-.512.294-2.207-3.842z" fill="#fff"/><path d="m28.617 18.271.514-.295 2.207 3.842-.514.295-.134-.233c-.088.313-.26.543-.515.689-.303.174-.619.208-.946.102-.328-.112-.59-.337-.784-.675-.19-.331-.249-.664-.178-.999.069-.336.253-.59.552-.762.259-.149.552-.176.879-.081zm.352 3.425c.122.213.278.353.469.421.194.068.38.051.558-.051.189-.109.305-.262.347-.46.039-.202-.001-.407-.12-.615s-.276-.346-.47-.414c-.193-.065-.382-.044-.569.063-.176.101-.285.252-.326.454-.041.203-.003.403.111.602z" fill="#fff"/><path d="m32.49 18.336.391.68c-.198-.075-.36-.113-.482-.113-.122-.002-.245.032-.368.102-.192.111-.314.27-.364.478s-.016.414.1.617c.119.208.279.343.478.406.201.062.398.038.59-.073.123-.07.216-.159.28-.266.061-.104.111-.265.148-.485l.388.676c-.146.227-.323.4-.531.519-.343.197-.693.251-1.05.162-.359-.091-.633-.301-.823-.632s-.233-.677-.13-1.038c.103-.362.324-.64.664-.835.219-.125.455-.191.709-.198z" fill="#fff"/><path d="m34.565 17.017.514-.295 1.273 2.216-.514.295-.133-.232c-.098.318-.268.547-.51.686-.306.176-.623.211-.95.104-.328-.112-.59-.337-.784-.675-.191-.332-.25-.666-.179-1.002.072-.335.257-.589.555-.761.258-.148.55-.175.877-.08zm-.582 1.799c.122.212.278.353.469.42.194.068.38.051.558-.051.19-.109.305-.262.347-.46.039-.202-.001-.407-.12-.614-.119-.208-.276-.346-.47-.414-.193-.065-.382-.044-.569.063-.176.101-.285.252-.327.454-.04.203-.003.403.112.602z" fill="#fff"/><path d="m35.725 16.351.512-.294.114.198c.037-.153.082-.268.134-.346.053-.08.13-.15.231-.209.135-.077.301-.114.499-.111l.035.603c-.137-.014-.252.006-.344.059-.279.16-.298.451-.055.873l.66 1.149-.512.294z" fill="#fff"/><path d="m38.166 12.785.514-.295 2.207 3.842-.514.295-.133-.232c-.088.313-.26.543-.515.689-.303.174-.619.208-.946.102-.328-.112-.59-.337-.784-.675-.19-.331-.249-.664-.178-.999.069-.336.253-.59.552-.761.259-.149.553-.176.879-.081zm.352 3.425c.122.212.278.352.469.421.194.068.38.051.558-.051.19-.109.305-.262.347-.46.039-.202-.001-.407-.12-.614-.119-.208-.276-.346-.47-.414-.193-.065-.382-.044-.569.064-.176.101-.285.252-.326.454-.04.201-.003.402.111.6z" fill="#fff"/><path d="m73.098 13.999-1.225-.701-.483.845 1.182.676-.285.499-1.182-.676-.958 1.674-.531-.304 2.012-3.516 1.755 1.005z" fill="#15ffab"/><path d="m73.67 15.388-1.269 2.218-.512-.293 1.269-2.218zm-.062-1.26c.051-.09.128-.148.231-.176s.2-.016.291.036c.092.053.153.131.181.233.029.101.017.198-.036.291s-.131.153-.234.181c-.101.029-.198.017-.29-.036-.093-.053-.153-.131-.181-.233-.029-.103-.016-.202.038-.296z" fill="#15ffab"/><path d="m74.319 15.759.512.293-.113.198c.15-.045.272-.064.366-.059.096.005.195.036.297.094.135.077.251.202.348.375l-.503.335c-.057-.125-.132-.215-.225-.268-.28-.16-.54-.029-.781.393l-.658 1.15-.512-.293z" fill="#15ffab"/><path d="m77.135 17.873-.553-.017c.011-.175-.032-.291-.131-.347-.047-.027-.096-.034-.147-.022s-.091.042-.119.091c-.049.085.002.225.151.422.205.272.326.485.364.637.038.153.009.312-.087.479-.123.214-.304.348-.544.402-.232.049-.456.011-.673-.113-.372-.213-.531-.545-.478-.996l.553.047c0 .141.008.235.023.282.029.093.087.165.174.214.173.099.305.07.395-.088.052-.091.034-.214-.054-.37-.037-.055-.074-.11-.112-.164-.037-.054-.076-.109-.114-.165-.107-.158-.17-.291-.189-.398-.024-.137.005-.278.088-.424.11-.193.267-.314.472-.365.207-.049.407-.018.6.092.283.163.411.431.381.803z" fill="#15ffab"/><path d="m78.209 18.621-.996 1.74-.512-.293.996-1.739-.219-.125.274-.478.219.125.465-.813.512.293-.465.813.398.228-.274.478z" fill="#15ffab"/><path d="m80.845 20.543-.817 1.428-.531-.304 2.012-3.516.601.344c.294.169.505.316.632.443.128.128.217.282.268.462.089.313.047.619-.125.92-.184.322-.438.515-.761.58s-.667-.007-1.033-.217zm.282-.492.198.113c.487.279.838.231 1.053-.144.208-.363.06-.688-.442-.976l-.175-.1z" fill="#15ffab"/><path d="m83.187 20.835.512.293-.113.198c.151-.045.273-.065.366-.059.096.005.195.036.297.094.135.077.251.202.348.375l-.503.335c-.057-.125-.132-.215-.225-.267-.279-.16-.54-.029-.781.393l-.658 1.15-.512-.293z" fill="#15ffab"/><path d="m85.443 22.126-1.269 2.218-.513-.293 1.269-2.218zm-.062-1.26c.051-.089.128-.148.231-.176s.2-.016.291.036c.092.053.153.131.181.233.029.101.017.198-.036.291-.053.092-.131.153-.234.181-.101.029-.198.017-.29-.036-.093-.053-.153-.131-.181-.233-.028-.103-.015-.201.038-.296z" fill="#15ffab"/><path d="m85.834 24.653 1.318.754-.276.483-2.334-1.336 2.432-.917-1.132-.648.274-.478 2.145 1.227z" fill="#15ffab"/><path d="m89.942 26.333-1.589-.91c-.091.19-.114.369-.071.536.044.166.148.296.312.39.127.073.25.103.368.09.117-.014.275-.072.473-.177l.294.489c-.132.076-.258.133-.379.171-.121.039-.239.06-.354.064s-.228-.011-.341-.043c-.112-.032-.226-.081-.342-.147-.331-.189-.536-.448-.614-.775-.078-.328-.016-.67.187-1.023.201-.351.46-.579.779-.685.319-.102.639-.06.963.125.327.187.525.439.596.755.07.314 0 .654-.209 1.02zm-.286-.72c.085-.314-.009-.549-.282-.706-.062-.036-.126-.06-.191-.072-.066-.012-.131-.013-.196-.003s-.128.031-.188.063c-.061.032-.118.075-.171.129z" fill="#15ffab"/><circle cx="92.201" cy="27.243" fill="#15ffab" r=".911"/><circle cx="68.509" cy="13.224" fill="#15ffab" r=".911"/><path d="m74.126 109.788.412-.239.847 1.459c.07-.217.194-.377.371-.48.202-.117.401-.145.598-.085.169.054.325.205.47.455l.635 1.094-.412.239-.613-1.056c-.083-.143-.169-.232-.256-.267-.088-.035-.188-.019-.301.046-.144.084-.22.187-.227.31-.005.124.056.296.184.515l.501.863-.412.239z" fill="#fff"/><path d="m78.261 109.14.414-.24 1.036 1.785-.414.241-.109-.187c-.078.257-.214.443-.409.556-.247.143-.503.173-.768.088-.266-.089-.478-.27-.636-.542-.156-.268-.205-.537-.148-.808.056-.271.205-.477.446-.617.208-.121.444-.143.708-.068zm-.464 1.455c.099.171.226.284.38.338.157.054.307.04.45-.043.153-.089.246-.213.279-.373.031-.163-.002-.329-.099-.496s-.224-.278-.382-.332c-.156-.052-.309-.034-.459.053-.142.082-.229.205-.262.368-.031.163 0 .325.093.485z" fill="#fff"/><path d="m80.629 107.868.318.548c-.161-.06-.291-.09-.39-.089-.099-.002-.198.027-.297.084-.155.09-.253.219-.292.387-.039.169-.012.335.083.498.097.167.227.276.388.326.163.05.321.029.476-.061.099-.057.174-.13.225-.216.049-.084.088-.215.118-.392l.316.544c-.117.184-.259.325-.427.422-.276.16-.559.205-.848.135-.29-.072-.512-.241-.667-.507s-.191-.546-.109-.838c.082-.293.259-.518.533-.677.177-.104.368-.158.573-.164z" fill="#fff"/><path d="m80.636 106.009 1.096 1.887.246-.914.554-.322-.34 1.2 1.433.552-.535.311-1.027-.411-.028.104.399.687-.412.239-1.797-3.095z" fill="#fff"/><path d="m84.169 105.709.414-.24 1.037 1.785-.414.24-.109-.187c-.077.257-.214.443-.409.556-.247.143-.503.173-.768.088-.266-.089-.478-.27-.636-.542-.156-.268-.205-.537-.148-.808.056-.271.205-.477.446-.617.208-.121.444-.143.708-.068zm-.463 1.456c.099.171.226.284.38.338.157.054.307.04.45-.043.153-.089.246-.213.279-.373.031-.163-.002-.329-.099-.496s-.224-.278-.382-.332c-.156-.052-.309-.034-.459.053-.142.082-.229.205-.262.368-.031.163 0 .324.093.485z" fill="#fff"/><path d="m85.752 105.305.813 1.4-.412.239-.813-1.4-.176.102-.223-.385.176-.102-.38-.654.412-.239.38.654.321-.186.223.385z" fill="#fff"/><path d="m85.369 103.261.412-.239.847 1.459c.07-.217.194-.377.371-.48.202-.117.401-.146.598-.085.169.054.325.205.47.455l.635 1.094-.412.239-.613-1.056c-.083-.143-.169-.232-.256-.266-.088-.035-.188-.019-.301.046-.144.084-.22.187-.227.31-.005.124.056.296.184.515l.501.863-.412.239z" fill="#fff"/><path d="m88.615 104.304c-.15-.258-.185-.531-.105-.819s.252-.509.517-.663c.266-.155.545-.195.837-.121.289.076.51.246.664.511.155.268.193.545.114.833-.081.287-.257.509-.527.666-.268.156-.545.194-.832.116-.287-.074-.51-.249-.668-.523zm.425-.237c.104.178.233.292.389.34.159.048.318.026.478-.067.161-.094.26-.22.296-.38s.004-.327-.097-.5-.229-.284-.386-.332c-.159-.048-.318-.026-.478.067-.158.091-.255.218-.292.38-.036.162-.006.326.09.492z" fill="#fff"/><path d="m90.444 102.066.414-.24.096.165c.061-.227.182-.392.363-.497.208-.121.408-.149.599-.086.165.053.32.205.466.457l.635 1.094-.414.24-.579-.997c-.102-.176-.197-.283-.285-.322-.087-.041-.194-.025-.32.048-.137.079-.208.181-.213.305-.004.122.058.294.187.516l.5.861-.414.24z" fill="#fff"/><path d="m95.143 101.187 1.054-.612.233.401-1.9 1.103.292-1.76c.028-.175.049-.324.064-.449s.023-.226.023-.305c.003-.155-.022-.279-.075-.37-.077-.132-.187-.216-.332-.251s-.285-.013-.422.066c-.286.166-.351.43-.196.793l-.425.247c-.278-.636-.15-1.109.384-1.419.258-.15.522-.193.791-.131.271.062.477.213.617.455.089.154.136.329.14.524.003.101-.005.228-.023.38-.019.152-.048.336-.086.551z" fill="#fff"/><path d="m96.08 99.264c-.262-.451-.366-.871-.312-1.262.047-.352.204-.606.472-.762.267-.155.566-.166.895-.032.366.147.684.452.952.915.268.462.375.888.321 1.279-.047.352-.204.606-.47.76-.266.155-.565.166-.897.033-.365-.147-.686-.457-.961-.931zm.421-.242c.182.314.388.543.617.688.227.141.425.162.594.065.167-.097.247-.28.238-.548-.008-.267-.101-.555-.281-.864-.179-.309-.383-.534-.612-.674-.228-.139-.425-.16-.592-.063-.166.097-.245.278-.238.545.008.266.099.55.274.851z" fill="#fff"/><path d="m98.675 96.424-.489.284.003-.535.682-.396 1.643 2.83-.427.248z" fill="#fff"/><path d="m101.183 96.25c-.293-.026-.513-.165-.66-.418-.133-.23-.166-.467-.098-.713.069-.246.222-.438.458-.575.234-.136.475-.173.721-.109.245.062.435.209.57.441.141.243.153.502.036.776.149-.005.29.032.423.112.134.079.244.192.329.338.146.25.183.503.112.758s-.234.457-.489.605c-.261.152-.524.196-.787.134-.265-.062-.468-.215-.61-.459-.185-.319-.186-.615-.005-.89zm-.259-.654c.07.121.17.199.299.233.131.035.256.018.373-.05.116-.067.191-.167.226-.298s.019-.255-.049-.371c-.067-.116-.167-.191-.298-.226s-.255-.018-.371.049-.191.167-.226.298c-.034.131-.019.253.046.365zm.675 1.285c.076.131.186.217.331.259.145.04.284.022.414-.055.129-.075.213-.185.252-.33.038-.146.019-.284-.056-.413-.076-.131-.186-.215-.331-.254-.145-.038-.282-.02-.411.055-.128.074-.212.185-.252.33-.039.145-.021.281.053.408z" fill="#fff"/><path d="m57.801 121.943c-.018-.031-.037-.063-.055-.094s-.036-.063-.045-.099c-.007-.028-.024-.052-.037-.077-.009-.018-.02-.036-.021-.057 0-.005-.001-.01-.003-.014-.018-.037-.033-.075-.045-.114-.011-.036-.021-.073-.031-.109-.015-.05-.026-.101-.036-.152-.014-.072-.025-.145-.031-.219-.009-.095-.011-.189-.009-.284.001-.072.011-.144.018-.216.006-.064.024-.126.034-.189.013-.082.039-.159.063-.237.037-.121.087-.237.146-.35.039-.074.082-.145.127-.215.025-.039.051-.078.081-.113.029-.034.052-.074.088-.103.013-.01.015-.028.029-.037.012-.007.02-.019.028-.031.013-.02.035-.031.05-.049.026-.03.056-.055.085-.081.034-.03.072-.057.105-.088.032-.029.067-.053.102-.077.075-.053.15-.106.232-.147.104-.053.209-.103.32-.142.042-.015.083-.029.125-.041.034-.01.067-.027.104-.026.025-.015.056-.009.082-.021.02-.01.043-.007.064-.012.047-.011.095-.016.142-.021.09-.009.181-.014.272-.013s.181.012.271.02c.09.009.176.036.265.048.014.002.027.007.041.012.03.01.059.022.089.029.076.017.146.049.216.079.056.024.112.048.165.076.058.031.114.065.169.1.075.047.146.099.212.156.038.032.08.06.111.101.032.016.044.053.076.07.008.004.013.014.018.021.011.015.022.03.038.042.009.006.016.015.022.024.014.019.026.039.047.053.01.007.017.019.023.029.021.032.041.064.067.092.028.031.048.066.069.102.025.042.05.084.075.127.021.035.042.071.055.11.011.033.028.064.044.094.01.018.021.036.021.057 0 .003.001.006.002.009.018.035.03.072.041.11.006.021.015.04.019.063.004.026.015.051.021.077.02.074.034.149.046.225.017.107.025.214.026.322.001.056-.006.112-.003.168-.016.113-.023.228-.053.339-.008.032-.012.065-.021.096-.015.052-.033.102-.048.154-.017.057-.043.11-.065.166-.052.13-.123.25-.197.368-.038.041-.062.093-.101.134-.015.015-.026.034-.041.051-.032.036-.06.076-.095.109-.026.025-.047.056-.079.075-.061.069-.137.12-.207.18-.002.002-.005.004-.007.006-.091.06-.177.128-.276.175-.074.035-.145.076-.223.105-.047.017-.095.035-.141.054-.03.012-.063.019-.095.029-.039.013-.078.024-.118.03-.048.008-.093.026-.142.025-.095.021-.192.028-.288.031-.092.003-.185.004-.277-.009-.043-.006-.087-.007-.13-.014-.053-.008-.104-.021-.157-.03-.1-.015-.193-.054-.29-.081-.051-.015-.098-.041-.148-.06-.073-.029-.142-.066-.21-.104-.084-.047-.164-.101-.242-.159-.043-.032-.084-.067-.124-.102-.039-.034-.075-.072-.113-.107-.028-.026-.048-.058-.08-.08-.006-.004-.011-.012-.015-.018-.017-.025-.034-.049-.058-.068-.013-.01-.021-.027-.03-.042-.018-.028-.037-.055-.06-.079-.011-.011-.02-.024-.029-.038-.021-.042-.045-.083-.07-.124zm1.494-.913c.043-.035.082-.072.126-.101.09-.059.18-.117.281-.157.041-.016.078-.042.119-.057.075-.027.143-.067.211-.107.037-.022.073-.044.103-.076.007-.008.017-.015.026-.02.037-.02.057-.059.091-.081.045-.061.093-.12.119-.194.037-.106.038-.209-.008-.312-.017-.039-.04-.075-.065-.11-.04-.056-.093-.098-.156-.126-.069-.031-.142-.046-.219-.046-.066 0-.13.007-.192.029-.004.002-.009.002-.014.002-.015-.002-.028.006-.04.012-.062.032-.121.068-.179.106-.009.006-.02.011-.024.022-.007.016-.021.023-.033.033-.006.005-.014.009-.018.015-.025.037-.058.069-.084.106-.045.063-.082.131-.107.203-.045.128-.066.26-.061.396.003.084.016.166.037.247.008.03.012.062.028.09.009.017.014.034.019.053.005.028.016.054.04.073zm.263-.015c-.02.012-.04.025-.061.036-.023.012-.04.031-.057.049-.005.006-.013.009-.019.014-.022.017-.05.027-.065.053-.014.024-.049.031-.057.061-.036.04-.062.085-.085.134-.052.107-.049.216-.006.323.027.069.075.125.136.171.075.056.159.082.249.085.081.003.162-.002.237-.04.008-.004.018-.005.027-.007s.018-.004.027-.008c.082-.038.16-.099.225-.169.027-.029.051-.058.075-.089.062-.082.101-.173.13-.27.014-.044.017-.089.026-.134.008-.04.01-.081.01-.121 0-.08-.008-.16-.024-.239-.005-.022-.015-.041-.019-.063-.007-.047-.029-.089-.044-.134-.003-.009-.008-.017-.013-.025-.007-.012-.013-.013-.026-.003-.032.024-.065.045-.093.074-.011.011-.025.02-.038.028-.06.035-.12.071-.18.105-.016.009-.034.017-.052.023-.027.009-.053.021-.078.035-.026.014-.052.031-.08.041-.053.016-.099.042-.145.07z" fill="#fff"/><path d="m68.359 116.13c.155.263.31.526.465.789.012.02.024.039.035.06.017.034.013.049-.02.072-.017.011-.034.021-.052.031-.124.073-.248.147-.372.219-.119.069-.095.075-.165-.039-.015-.025-.029-.05-.044-.074-.004-.007-.009-.015-.016-.02-.006-.005-.015-.007-.022.001-.012.014-.016.031-.018.048-.015.113-.065.213-.129.304-.032.045-.063.096-.117.123-.013.006-.024.017-.033.027-.061.069-.135.115-.226.133-.011.002-.022.007-.032.013-.088.047-.184.053-.281.06-.113.008-.222-.008-.329-.038-.093-.026-.182-.066-.263-.119-.033-.022-.066-.045-.098-.068-.049-.035-.095-.072-.132-.12-.012-.016-.022-.034-.038-.047-.088-.075-.132-.181-.188-.277-.01-.017-.013-.038-.019-.057s-.009-.04-.018-.057c-.044-.089-.056-.185-.066-.281-.017-.162.005-.32.064-.471.036-.093.089-.178.147-.26.042-.06.11-.092.147-.154.086-.051.161-.122.266-.135.008-.001.017-.005.024-.008.108-.049.222-.049.336-.034.046.006.091.014.134.032.019.008.038.011.059.01.011-.001.014-.011.011-.018-.008-.018-.018-.036-.028-.054-.023-.04-.046-.08-.069-.12-.01-.018-.005-.033.012-.044.029-.019.057-.039.087-.057.111-.066.223-.132.335-.197.032-.019.066-.034.1-.05.018-.008.034-.003.044.015.012.02.024.039.036.059.157.267.315.535.473.803zm-1.442.843c.045.083.112.144.191.192.122.075.251.106.391.058.011-.004.022-.007.034-.008.036-.003.065-.021.096-.037.055-.029.082-.089.132-.123.064-.104.104-.214.094-.339-.004-.052-.022-.1-.033-.149-.01-.046-.028-.089-.057-.125-.066-.084-.142-.158-.241-.201-.154-.067-.306-.062-.452.025-.045.027-.081.059-.115.1-.032.038-.059.077-.077.122-.067.168-.048.329.037.485z" fill="#fff"/><path d="m71.701 114.09c.161.273.322.546.483.82.033.055.048.064-.025.107-.149.088-.298.176-.447.263-.005.003-.01.006-.015.008-.039.02-.047.019-.07-.017-.021-.034-.041-.069-.062-.104-.007-.012-.014-.025-.023-.036-.005-.006-.013-.011-.02-.012-.012-.002-.014.009-.014.017-.003.046-.014.09-.028.134-.028.085-.07.159-.128.228-.03.036-.062.066-.099.093-.007.005-.015.01-.02.017-.051.071-.128.11-.204.141-.081.034-.165.071-.254.075-.166.007-.323-.021-.458-.132-.038-.031-.074-.062-.1-.104-.008-.012-.015-.026-.026-.034-.053-.039-.083-.095-.115-.15-.216-.365-.431-.73-.646-1.095-.04-.067-.039-.069.024-.106.144-.085.288-.17.432-.255.01-.006.02-.012.03-.017.031-.015.048-.012.067.015.013.019.024.039.036.059.149.253.298.507.448.76.035.06.072.118.109.176.045.069.133.135.209.172.033.016.069.023.1.018.095-.018.195-.029.254-.123.017-.026.047-.039.063-.069.044-.081.048-.165.032-.251-.016-.085-.047-.164-.092-.24-.163-.272-.323-.546-.483-.819-.066-.112-.067-.096.041-.159.129-.077.258-.152.387-.228.02-.012.04-.023.061-.032.015-.007.029-.002.038.011.015.021.028.044.041.066.158.267.316.535.474.803z" fill="#fff"/><path d="m63.725 119.171c.074-.044.149-.088.223-.132.034-.02.047-.028.079.012.051.064.119.097.202.084s.163-.036.231-.088c.04-.03.067-.071.096-.109.022-.029.026-.067.01-.106-.032-.078-.075-.11-.159-.103-.054.004-.109.012-.162.024-.117.026-.233.061-.351.081-.111.019-.221.051-.336.048-.092-.002-.181-.014-.263-.059-.053-.029-.104-.06-.136-.114-.007-.012-.017-.024-.027-.033-.031-.028-.051-.061-.061-.102-.004-.017-.012-.033-.019-.048-.082-.166-.055-.328.027-.483.031-.059.066-.12.124-.161.023-.05.07-.075.112-.104.012-.008.023-.018.033-.028.092-.1.217-.149.331-.215.046-.005.09-.02.129-.044.038-.024.086-.008.124-.033.133-.015.266-.025.395.028.097.04.182.095.248.177.016.02.034.04.049.06.027.036.023.049-.017.076-.01.006-.02.012-.03.018-.132.078-.263.155-.395.233-.015.009-.03.018-.045.026-.025.012-.043.007-.061-.013-.011-.013-.02-.028-.032-.041-.034-.036-.074-.063-.125-.065-.086-.004-.167.015-.226.083-.028.032-.064.056-.078.101-.029.091.03.195.125.206.042.005.087.004.129-.004.107-.02.214-.046.32-.069.133-.029.265-.071.402-.079.103-.006.205-.002.299.051.038.021.075.044.103.076.06.069.112.143.147.231.072.179.045.347-.028.514-.024.054-.091.142-.136.184-.027.025-.04.062-.076.081-.03.016-.062.034-.084.06-.054.063-.127.099-.196.14-.032.019-.065.036-.102.045-.028.007-.056.017-.08.032-.062.041-.134.052-.203.068-.056.013-.116.023-.177.021-.083-.002-.166-.011-.243-.042-.081-.033-.163-.07-.219-.144-.054-.028-.081-.079-.111-.127-.005-.007-.009-.015-.013-.023-.011-.023-.009-.035.015-.05.047-.029.094-.056.141-.084.032-.019.064-.038.097-.057z" fill="#fff"/><path d="m73.016 112.844c-.067.039-.134.079-.201.118-.017.01-.035.02-.053.029-.015.007-.028.003-.038-.01-.017-.023-.032-.047-.055-.066-.103-.084-.241-.055-.331.023-.021.019-.041.04-.059.063-.062.08-.057.194.061.249.01.005.022.006.033.006.052.001.103.002.154-.009.106-.023.213-.044.319-.071.074-.019.149-.042.225-.054.108-.017.218-.033.329-.011.093.018.17.062.241.12.011.009.018.022.026.035.027.044.054.088.081.133.086.144.086.297.048.454-.026.105-.089.189-.148.277-.055.04-.087.107-.151.137-.018.008-.034.023-.048.037-.087.087-.192.145-.308.185-.024.008-.049.018-.072.03-.138.071-.287.091-.439.084-.11-.005-.214-.039-.306-.103-.084-.058-.154-.128-.203-.218-.018-.034-.015-.05.02-.071.146-.087.293-.173.439-.259.005-.003.01-.006.015-.008.033-.014.053-.012.074.02.041.061.1.083.169.081.099-.002.249-.055.311-.141.029-.04.06-.075.063-.127.002-.047-.042-.11-.086-.126-.042-.015-.085-.017-.127-.009-.082.015-.162.037-.244.052-.09.016-.177.046-.269.055-.042.004-.083.019-.125.026-.095.015-.198.02-.287.008-.134-.018-.236-.088-.312-.194-.093-.13-.14-.275-.117-.438.014-.099.056-.185.112-.265.034-.049.074-.093.113-.138.013-.015.031-.025.047-.037.028-.02.057-.036.076-.069.009-.016.03-.026.047-.037l.177-.108c.042-.025.084-.05.135-.056.014-.001.028-.008.04-.015.069-.037.144-.05.221-.059.051-.006.101-.01.152-.01.125.001.237.042.336.113.067.048.129.104.165.183.011.024.009.034-.014.05-.005.003-.01.006-.015.009-.072.044-.146.088-.221.132z" fill="#fff"/><path d="m68.72 115.877c-.076-.129-.152-.258-.228-.387-.01-.017-.02-.035-.031-.052-.019-.028-.037-.033-.066-.018-.046.024-.09.052-.135.078-.02.011-.04.024-.061.033-.03.013-.048.007-.065-.02-.024-.039-.047-.079-.071-.119-.04-.067-.08-.134-.118-.201-.023-.04-.019-.052.021-.077.046-.029.094-.056.141-.084.017-.01.034-.021.051-.032s.02-.029.013-.046c-.008-.021-.02-.041-.032-.061-.074-.127-.149-.253-.224-.38-.043-.074-.043-.074.031-.118.134-.079.268-.158.402-.237.015-.009.03-.018.045-.025.014-.006.03-.002.039.009.014.018.027.037.038.057.073.124.147.248.219.372.057.096.053.083.136.035.077-.045.154-.091.231-.136.02-.012.04-.023.061-.032.014-.006.028-.003.038.011.005.007.01.014.014.022.061.104.123.208.184.313.021.035.018.05-.012.074-.016.012-.033.022-.051.033-.074.044-.149.088-.223.132-.017.01-.034.021-.051.032-.016.011-.02.028-.013.046.005.013.013.026.02.038.117.199.235.397.351.596.03.051.068.092.11.132.024.023.053.036.082.046s.058.011.092.002c.093-.026.177-.067.252-.129.007-.005.014-.01.021-.015.022-.014.038-.012.052.007.007.009.013.019.018.029.061.104.123.208.184.313.007.012.014.025.02.038.011.024.008.038-.013.052-.125.081-.231.19-.369.254-.031.015-.06.034-.095.038-.019.002-.038.012-.056.021-.188.088-.363.069-.531-.055-.086-.064-.158-.14-.212-.233-.067-.119-.138-.237-.209-.356.001 0 .001 0 0 0z" fill="#fff"/><path d="m65.229 117.928c-.075-.127-.149-.253-.224-.38-.012-.02-.023-.04-.036-.059-.015-.022-.036-.027-.061-.015-.023.011-.045.025-.068.038-.04.023-.079.048-.12.069-.039.02-.057.015-.079-.021-.062-.104-.124-.208-.184-.313-.025-.044-.022-.054.024-.082.054-.033.109-.064.163-.097.048-.029.051-.04.024-.09-.021-.038-.043-.075-.065-.112-.057-.097-.114-.193-.171-.29-.012-.02-.022-.04-.032-.061-.006-.014-.003-.028.011-.038.007-.005.014-.01.022-.014.149-.088.298-.176.447-.263.039-.023.054-.019.079.017.012.016.021.034.031.052.067.114.135.228.202.342.01.017.02.035.031.052.026.039.037.043.077.019.087-.05.174-.102.261-.153.101-.06.092-.051.143.034.053.089.106.178.158.268.026.045.024.055-.017.086-.018.014-.038.026-.058.037-.069.041-.139.082-.208.123-.017.01-.035.021-.051.033s-.018.029-.012.046c.006.016.016.031.024.046.111.189.223.377.333.566.035.061.079.113.132.158.051.044.106.058.174.039.091-.025.171-.066.244-.125.009-.007.019-.014.029-.019.014-.006.029-.004.039.008.009.011.017.023.025.035.062.104.123.208.184.313.006.01.012.02.016.03.012.027.008.042-.015.06-.016.012-.034.022-.05.034-.023.017-.048.032-.069.052-.081.08-.184.128-.281.184-.014.008-.032.013-.049.016-.026.005-.049.015-.073.027-.185.087-.36.066-.523-.054-.084-.062-.156-.135-.209-.226-.072-.125-.146-.248-.219-.372z" fill="#fff"/></svg>