<svg enable-background="new 0 0 110.979 128.417" viewBox="0 0 110.979 128.417" xmlns="http://www.w3.org/2000/svg" xmlns:xlink="http://www.w3.org/1999/xlink"><radialGradient id="a" cx="55.7558" cy="64.4722" gradientUnits="userSpaceOnUse" r="49.6875"><stop offset="0" stop-color="#00aeef"/><stop offset="1" stop-color="#2e3192"/></radialGradient><path d="m110.98 96.317-55.426 32-55.424-32v-64l55.424-32 55.426 32z" fill="#ba1a39"/><path d="m101.756 37.902v53.14l-.01.01-.021.011-.41.239-.37.21-.619.351-4.15 2.39-.01.01-.13.08-.061.03-.55.32-.8.45-.101.06-.439.26-.04.021-.32.18-.62.36-.189.109-.851.49-.739.43-.24.131-.13.05-.11.069-1 .57-.03.021-2 1.149-.51.29-.14.08-.03.021-.14.079-.011.011-1.04.59-.04.03-.069.04-1.16.67-.45.26-.02.02h-.011l-.42.24-1.12.65-.869.52-1.181.67-.08.05-.12.07-.039.03-.04.02-.021.011-.1.06-.29.17-.03.01-.16.091v.01l-.399.229-.271.16-.11.061-.18.09-.02.02-.04.02-.69.39-.06.04-.24.14-.021.011-.29.17-.039.02-.11.061-.22.13-.24.14h-.01l-.141.08-.279.17-.29.17-.011.01-.02.011-.3.17-.141.08-1.22.71-.5.29-.25.14-.7.4-.03.02h-.01l-.31.18-.05.03-.24.15-.311.18-.529.3-.46.26-.17.101-.061.03-.5.29c-.01.01-.01.01-.01 0l-.53.31-.04.02-.069.051-.181.1-.12.07-.17.1-.47.271-.05.029-.05.03-.03.01c0 .011-.01.011-.01.011l-.021.02-.25.14-1 .58-.17.101-.02.01-.021.01-.38.22-.36.211-.17.09-.77.449-.12.07-.36.21-.09.05-.24.141-.8.46-.26.149-.28.16-.01.01-.2.12-.02.011-.21.119-.351.2-.41.24-.42.24-.01.01-.09.05-1.32.76-.02.011-.79.46-.61.35h-.01l-1.41.811-.02.02-.25.14-.091.051-.47.27h-.01l-.13.08-.19.11-.02.01-.25.15h-.011l-.199.119-.061-.029-1.14-.66-.021-.01-.199-.12-.851-.49-.03-.01-.329-.19-.011-.01-1.399-.811-.011-.01-.02-.01-.8-.46-.101-.06-.33-.19-.14-.08-.03-.02h-.01l-.05-.03-.78-.45-.06-.04-.34-.189-.181-.11-.02-.01-.66-.38-.04-.03-.09-.05-.101-.061-.13-.07-.269-.159-.12-.07h-.01l-.721-.42-.239-.13-.391-.23-.05-.029-.03-.021-1.399-.81h-.01l-.11-.07-.37-.22h-.01l-.271-.16-.62-.36-.029-.01-.061-.04-.04-.021-1.29-.75-.39-.229-.28-.16-.399-.229-.38-.221-.2-.109-.11-.06-1-.58-1.72-1c-.01-.01-.021-.02-.03-.02l-1.32-.76-3.92-2.261-.159-.09-.57-.33-.47-.27-.44-.26-.3-.171-.38-.22-.99-.58-.04-.02-2.74-1.59-.1-.061-.18-.1-.671-.38-.819-.471-.09-.05-.19-.109-.21-.12-.1-.06-.011-.01-.08-.05h-.01l-.12-.07h-.01l-.31-.18-.73-.42c-.01-.011-.01-.011-.02-.011l-1.86-1.079-1.02-.591-.471-.27-.04-.03-.29-.16-1.31-.77-.09-.05-.2-.12s-.01 0-.021-.01l-.279-.16-.53-.3-.82-.48-.06-.04h-.01s0 0-.011 0l-.489-.29-.7-.4-.68-.39-1.221-.71-.1-.06h-.01l-.33-.19-.41-.24h-.01l-.431-.25-.989-.569-.08-.04-.03-.02v-53.14l.78-.45 1.59-.92.359-.21 3.381-1.95 1.06-.61 5.78-3.34h.01l.91-.52 1.05-.62 1.82-1.05h.01l.87-.51 3.63-2.08.64-.381.94-.539.17-.091 1.66-.949.779-.45.381-.221.44-.26.67-.39.431-.26.52-.301.5-.279.59-.34 1.19-.681.689-.41.75-.43.65-.37h.01l.05-.03.431-.25 5.29-3.05.109-.059.08-.05.271-.16 5.52-3.19.55-.319 1.44-.83.51.3 1.09.63 2.86 1.65 3.09 1.79 2.6 1.5.221.13 4.689 2.699.98.57 5.13 2.96.91.521 1.04.609 2.3 1.311.87.5.689.399.83.48.49.28.58.34.3.17.8.46.091.06 1.81 1.04 2.16 1.24 1.12.65.5.29.04.029v.011l.26.14.66.39 1.46.84 1.939 1.12.78.441.44.25.489.28 1.45.84.17.1.851.49z" fill="url(#a)"/><path d="m73.616 66.112c0-.01 0-.01 0-.021-.011-.09-.04-.189-.07-.29-.03-.079-.07-.159-.11-.239-.08-.16-.17-.32-.26-.48.034-.034.061-.075.087-.116-.145-.425-.3-.846-.456-1.266-.073-.04-.141-.099-.186-.197-.401-.869-.754-1.76-1.147-2.624-.16-.24-.315-.484-.471-.726-.478-.696-.964-1.386-1.408-2.104-.021.001-.039.005-.064.001-.783-.128-1.154-1.129-1.216-1.951.107-.04.19-.128.221-.256.082-.088.131-.195.11-.345-.015-.106-.042-.203-.07-.3.005-.002.008-.007.013-.009.034-.214.235-.343.453-.359-.132-1.013-.39-2.017-.604-3.011-.225-1.044-.7-2.015-.889-3.061-.015-.084-.009-.16.01-.23-.081-.202-.234-.382-.472-.471-.531-.198-.866-.101-1.075.153-.143.027-.285.042-.427.059-.508-.036-1.026-.035-1.533-.053-.261-.156-.541-.136-.767-.002-.154.039-.275.129-.366.252-.079-.087-.159-.178-.235-.261-.039-.042-.085-.075-.132-.104-.231-.415-.465-.828-.717-1.228-.368-1.258-.824-2.449-1.515-3.527-.038-.138-.072-.277-.107-.415.12-.308.227-.621.341-.914.224-.573.473-1.13.737-1.68.368-.291.687-.643 1.078-.98.547-.392 1.161-.774 1.538-.694.472.101 1.109-.229 1.047-.798-.198-1.824-1.619-1.994-2.958-1.525-.114-.022-.234-.028-.365.006-.122.031-.236.069-.354.104.005-3.062-2.716-4.991-5.288-6.441-1.461-.823-2.978-1.334-4.52-1.555-.169-.162-.416-.242-.723-.154-.052.015-.103.028-.155.043-2.072-.414-4.161-.509-5.985-.285-3.66.449-7.59 1.183-10.452 3.651-2.506 2.161-4.248 4.955-4.578 8.269 0 .001-.001.003-.001.004h.001c-.007.067-.022.131-.027.198-.009.116.01.216.045.306-.203 1.023-.274 2.083-.16 3.179.179 1.724.392 5.016 1.806 6.609.274 2.569 2.11 4.71 4.168 6.651.027.12.076.24.173.352.391.452.789.827 1.223 1.164.538.461 1.103.885 1.718 1.282.048.031.094.042.141.061.306.431.609.864.934 1.28-.004.021-.019.038-.018.061.001.07.012.139.017.208-.201.162-.164.504 0 .671.616.626 1.189 1.301 1.88 1.847.054.042.112.07.172.093.012.587.106 1.145.32 1.712.039.103.095.185.16.254-.13.224-.247.454-.335.697-.091.252.243.513.465.357.619-.435 1.132-1.004 1.657-1.559.049.096.118.176.2.245-.374.377-.746.753-1.148 1.111-.1.091-.16.181-.21.28-.101.03-.21.09-.29.2-.15.21-.32.42-.48.63-.069.05-.149.09-.21.17-.42.5-.62.75-.859 1.12 0 .01 0 .01-.011.02-.06.09-.109.17-.17.27v.01c-.029.05-.069.11-.109.17-.08.11-.17.221-.25.341-.12.17-.15.329-.141.489-.17.101-.31.261-.369.5-.131.45-.24.9-.351 1.351-.05.18-.09.35-.13.529-.05.091-.09.181-.13.271-.01.01-.01.01-.01.02-.561 1.15-.931 2.46-1.17 3.82-.011.01-.011.02-.011.03-.17.89-.279 1.8-.359 2.7 0 .029-.011.05-.011.069-.119 1.17-.189 2.34-.26 3.4-.02.16.021.29.07.399-.061.311-.12.61-.2.91-.03.141-.07.29-.1.431 0 0 0 .01-.011.01-.119.46-.25.899-.38 1.359-.04.15-.029.29 0 .421.011.01 0 .01 0 .01-.01.01 0 .02 0 .02-.029.141-.01.28.061.431.279.58.51 1.159.91 1.67.26.319.609.5.97.66.27.13.54.25.78.43.22.189.439.37.67.54.02.03.05.04.08.05.529.41 1.109.78 1.79 1.06.119.03.229.061.35.08.14.011.27-.01.4-.05.119.04.25.07.38.1.439.14.91.199 1.439.21.12.01.24-.011.34-.051.04-.01.091-.02.131-.04.01 0 .02.011.029.011.01.01.021.01.03.029h.01c.431.351 1.17.261 1.57-.119.06-.061.12-.12.16-.181l.01-.01c.14-.13.25-.26.35-.4.011-.02.021-.04.04-.06.301-.34.53-.74.79-1.11.061-.06.12-.13.17-.22.021-.03.04-.07.061-.1 0-.011 0-.021.01-.021.01-.03.03-.05.05-.08 0-.01 0-.02.01-.03.011-.029.03-.05.04-.079.021 0 .04.01.061.01.17.03.35.02.52-.021.021-.01.04-.01.061-.019.04-.01.08-.03.12-.05.05-.021.1-.051.14-.08.01 0 .03-.011.04-.02.5-.35.9-.819 1.27-1.319.19-.221.37-.44.54-.66.131-.181.261-.37.381-.55l.01-.02c.01-.01.02-.01.02-.02.011 0 .011 0 .021-.011h.01c.18-.04.35-.12.5-.29.17-.19.34-.39.52-.569.011 0 .011 0 .011-.011 1.01-1.109 2.06-2.119 2.93-3.269.021-.021.03-.03.04-.05.37-.5.72-1.03 1.01-1.601.09.07.19.141.28.19.03.03.06.05.09.07s.07.05.101.06c.27.18.55.33.869.41h.011c.12.05.25.08.38.1.109.021.229.021.34-.01.02 0 .04 0 .05-.02.15-.03.28-.12.36-.27.279-.55.62-.79 1.21-.93.359-.09.71-.01 1.069 0h.011.06v.02.11c.01.12.04.229.09.32.051.09.11.159.19.22.01 0 .01.01.01.01.061.03.11.061.16.1.08.04.17.061.26.08.19.021.391 0 .561-.08.05-.01.09-.039.13-.069h.01v-.01c.18-.11.31-.31.33-.58 0-.021 0-.051.01-.07.03-.63.12-1.28.25-1.94 0-.02.01-.029.01-.05.101-.569.23-1.14.391-1.72.13-.14.25-.28.35-.44.01-.01.01-.02.021-.029.109-.17.199-.351.26-.54.03-.101.05-.2.06-.29v-.011c.011-.13.011-.239-.01-.359.03-.03.061-.061.09-.101.08-.09.15-.189.221-.29.01-.01.01-.019.01-.019.49-.63.95-1.37 1.37-2.11.02-.04.05-.09.069-.13l.011-.01c.079-.16.17-.31.25-.47h.01c.109-.2.22-.4.319-.601.011-.019.021-.04.03-.069.04-.07.09-.141.12-.21.13-.24.24-.48.32-.73.01-.02.01-.05.02-.08s.021-.06.021-.09c.029-.07.04-.15.05-.231v-.01c.01-.09.02-.16.02-.25 0-.08-.01-.18-.02-.27 0-.021-.01-.03-.01-.05l.01.01c.03.01.07.03.1.04 0 0 .011.01.021 0l.01.01c.021.01.03.01.05.019.141.051.28.061.41.051.311.029.62 0 .93-.15.41-.189.71-.56.92-.98.021-.051.04-.091.061-.141.05.061.11.12.18.17.05.04.11.07.17.101.011.01.011.01.011.01.22.11.489.14.77.05.01 0 .01-.01.01-.01.04 0 .08-.021.12-.04.561-.26 1.2-.57 1.69-.95 0 0 .01-.01.02-.01.15-.12.271-.24.38-.37l.011-.01c.225-.32.366-.68.276-1.12zm-23.969-14.261c-2.338-.126-4.359-1.468-6.233-2.773-.096-1.17-.215-2.337-.395-3.5-.036-.233-.098-.498-.16-.762.068-.086.123-.186.139-.316.068-.53.033-1.072.067-1.605 0-.008-.003-.014-.003-.023.778-.854 1.562-1.703 2.38-2.522.733-.217 1.459-.421 2.126-.64.778-.039 1.602-.067 2.395-.015.124.33.454.586.939.507.492.019.983.038 1.475.057.219.049.423-.001.592-.105.54.808 1.146 1.562 1.808 2.279.263 1.36.469 2.728.61 4.109-.065.446-.13.893-.195 1.339-.37 1.153-.945 2.085-1.645 2.894-.051.014-.103.025-.15.049-.471.245-.907.511-1.33.79-.726.197-1.518.286-2.42.237zm14.329 18.941c-.21.17-.43.33-.649.47-.181.12-.351.24-.54.32-.011 0-.021.01-.021.021-.11.069-.229.13-.35.18-1.011.49-2.101.74-3.25.66 0 0-.011.01-.021 0-.14-.021-.29-.03-.439-.05-.25-.04-.511-.07-.78-.091h-.01c-.19-.01-.391-.019-.58-.01-.09-.01-.17 0-.26.01-.07 0-.141.011-.21.021 0 0 0 0-.011.01h-.01c-.08.01-.16.021-.24.04-.27.07-.52.18-.739.351-.051.029-.091.06-.131.1-.029-.03-.06-.061-.1-.08-.01-.02-.02-.03-.04-.03-.04-.05-.08-.08-.13-.1-.26-.21-.54-.36-.86-.48l-.02-.01c-.311-.12-.65-.22-.99-.3 0 0 0 0-.01 0-.28-.061-.54-.11-.811-.14-.02 0-.04-.011-.05 0-.04-.011-.08-.02-.12-.02-.239-.03-.47-.05-.689-.07.12-.21.239-.42.359-.63.13-.08.261-.189.351-.359.029-.051.05-.091.08-.141v-.01c.09-.16.18-.32.27-.48.04-.07.09-.15.13-.221.13-.23.261-.46.391-.69.109-.04.229-.11.33-.21.02-.011.05-.04.069-.061.03-.04.061-.08.09-.12.04-.06.08-.109.11-.17v-.01c.37-.57.61-1.231.81-1.91 0-.02 0-.03.011-.05.13-.4.229-.81.34-1.21.1-.08.2-.17.29-.26.13-.13.25-.28.359-.44.12-.17.23-.36.341-.55.01 0 .01-.021.01-.021.09-.189.189-.369.28-.569.119-.25.22-.49.319-.721 0-.01 0-.019.011-.039.02-.03.039-.051.06-.08.34-.24.53-.42.68-.681.021.03.03.05.05.08.07.101.131.19.181.29.479.75.899 1.521 1.319 2.3.04.08.08.17.12.25.431.81.86 1.641 1.341 2.44.539.91 1.029 1.87 1.76 2.56.08.08.16.141.229.2.33.25.69.46 1.12.59.061.021.12.04.18.051.011-.011.011 0 .011 0l.109.029c-.02.011-.03.031-.05.041z" fill="#e53d4d"/><path d="m91.75 68.535c.017-1.211-.086-2.434-.344-3.588.059-1.754-.729-3.698-1.341-5.287-.19-.493-.369-1.093-.608-1.653-.407-1.38-1.057-2.655-2.017-3.514-.006-.005-.012-.006-.018-.011.057-.155.113-.312.169-.464.149-.405-.46-.764-.737-.429-.842 1.017-2.021 2.681-1.257 3.965.063.438.221.797.402 1.195-.057.024-.113.058-.164.112-.512.538-.791 1.182-.94 1.867-.147.329-.205.68-.208 1.052v.001c-.084.327-.145.643-.115.981.029.325.157.617.274.914-.103-.012-.201-.046-.276-.113-.021.239-.059.476-.107.712.032.082.05.172.031.276-.042.234-.074.465-.093.697 0 .001.001.001.001.001.005.01.008.02.013.03.032.031.046.074.071.109-.578.386-1.125 1.165-1.42 1.967-.033.013-.059.036-.094.043.02.027.03.063.048.091-.15.452-.215.9-.156 1.28-.051.011-.102-.006-.153-.009-.013-.25-.159-.467-.374-.668-.098-.091-.203-.116-.301-.103-.006-.007-.011-.015-.016-.022-.044-.007-.088-.008-.127-.025-.182.037-.373-.018-.479-.231 0-.001-.001-.002-.001-.003-.042-.02-.083-.045-.125-.065-.134.071-.302.081-.453.028-.101.018-.211.005-.325-.072-.304-.206-.612-.426-.947-.584-.012.067-.021.135-.033.202-.012-.012-.01-.027-.025-.038-.352-.27-.733-.542-1.079-.831-.545-.879-1.161-1.735-1.648-2.597.074-.132.071-.298-.083-.433-.111-.097-.216-.196-.32-.301-.197-.198-.434-.121-.552.054-.036-.01-.073-.022-.106-.028-.012-.053-.028-.109-.042-.165-.18.14-.384.248-.605.329-.164.413-.358.809-.664 1.19-.049.061-.113.097-.183.119.013.12.025.24.038.361.042.385-.313.533-.614.455.003.004.009.009.009.012.011.011.021.011.021.021.1.1.2.16.31.2-.619 2.04-.649 4.13-.17 6.29v.04c.011.05.021.1.03.149 0 .021.01.03.021.05-.021.08-.03.15-.03.23v.07c-.29 1.77.37 3.85 1.18 5.33 0 0 0 0 .01.01.03.06.061.12.091.17.01.03.01.06.02.09v.019c.02.12.05.25.09.37.03.11.061.21.11.32v.01c.27.761.74 1.511 1.25 2.21.14.19.28.38.42.561.02.029.04.05.06.08v.02s.011 0 0 .01c0 .141.011.261.03.4v.01c0 .05.01.101.021.15.029.24.09.47.159.7v.01c.141.439.351.85.61 1.24.13.189.29.29.46.34h.01c.011 0 .021.01.04.01v.02c.021.05.061.09.08.14l-.01.01c.02.03.04.05.06.08.07.13.15.25.24.36.08.1.16.19.25.27.84.8 2.15.94 3.34 1.021.49.04.96.029 1.42-.04h.011c.79-.09 1.51-.33 2.149-.721l.01-.01c.23-.13.44-.29.65-.47.08.03.15.06.2.11.01.01.02.02.03.02.619.49 1.319.019 1.35-.58v-.01c.02-.04.01-.09.01-.13.351-.07.681-.311.851-.681v-.01c.01-.02.01-.03.02-.05.03-.08.061-.16.07-.25l.149-.87c.051-.28.101-.56.16-.84.021-.12.04-.24.07-.35.02-.101.04-.2.06-.301.03-.149.061-.3.09-.439.04-.2.08-.391.131-.59.04-.221.09-.44.14-.66 0-.01 0-.01 0-.01.49-2.211.99-4.37 1.19-6.54.01-.011.01-.02 0-.03.01-.01.01-.01 0-.021.001-.001-.001-.001 0-.002.214-.36.356-.776.43-1.231.208-.004.405-.131.394-.397-.04-.882-.106-1.794-.194-2.717z" fill="#e53d4d"/><path d="m53.596 71.822c.26.12.521.229.79.28.07.01.14.02.2.02-.311-.12-.65-.22-.99-.3z" fill="#e53d4d"/><path d="m53.596 71.822c.26.12.521.229.79.28.07.01.14.02.2.02-.311-.12-.65-.22-.99-.3z" fill="#e53d4d"/><path d="m53.596 71.822c.26.12.521.229.79.28.07.01.14.02.2.02-.311-.12-.65-.22-.99-.3z" fill="#e53d4d"/><path d="m53.596 71.822c.26.12.521.229.79.28.07.01.14.02.2.02-.311-.12-.65-.22-.99-.3z" fill="#e53d4d"/><path d="m53.596 71.822c.26.12.521.229.79.28.07.01.14.02.2.02-.311-.12-.65-.22-.99-.3z" fill="#e53d4d"/><path d="m60.075 71.302c-.011-.053-.03-.103-.052-.155-.011-.025-.015-.052-.026-.076-.035-.071-.081-.134-.129-.193-.004-.005-.005-.01-.009-.015.001.001.001.003.001.004-.057-.068-.119-.133-.185-.195-.227-.218-.482-.406-.751-.568-.31-.188-.618-.365-.972-.455-.276-.069-.515-.082-.731-.041-.081-.142-.189-.26-.309-.245l-.067-.188c-.29-.226-.703-.183-.998.015-.073-.055-.147-.119-.219-.166-.313-.207-.676-.265-1.008-.104-.463-.289-1.004-.181-1.319.295-.233.354-.479.641-.579 1.063-.029.125-.022.255-.001.384-.054.179-.085.366-.087.552-.003.371.263.755.589.915.239.117.479.124.703.058.297.465.971.575 1.462.446.424-.109.964-.308 1.332-.632.069.35.312.671.7.704.064.006.126.012.19.017.224.02.403-.048.554-.148.036-.011.072-.021.108-.031.005.001.009.003.014.003.204.01.399-.031.563-.123.6.161 1.229-.333 1.24-.93.001-.066 0-.13-.014-.191z" fill="#272d5b"/><path d="m68.649 81.864c.029-.328-.092-.671-.244-.955-.045-.084-.109-.149-.181-.206-.002-.004-.006-.008-.008-.012-.083-.264-.246-.504-.379-.734-.15-.262-.518-.455-.786-.556-.622-.234-1.383-.078-1.88.352-.022.02-.036.041-.056.062-.141.006-.283.029-.425.076-.298.099-.534.3-.76.51-.39.363-.858.964-.946 1.506-.005-.004-.008-.007-.012-.01-.25-.187-.494-.402-.773-.548-.043-.052-.076-.105-.13-.155-.153-.141-.415-.257-.617-.294-.134-.032-.27-.041-.407-.026-.018 0-.025.001-.038.001-.06-.015-.117-.042-.179-.045-.161-.007-.313.022-.456.071-.38-.06-.771.195-.973.506-.063.087-.089.193-.126.294-.1.108-.18.227-.226.355-.066-.057-.142-.105-.233-.14-.258-.094-.496-.146-.738-.183-.044-.06-.093-.116-.135-.178-.392-.559-1.146-.466-1.477.09-.444.742-.865 1.537-1.315 2.309-.141.019-.274.066-.384.153-.252.202-.43.451-.56.726-.038-.016-.063-.044-.108-.052-.5-.091-.783.377-.684.812.001.003.002.007.002.011-.176.058-.354.121-.533.164-.769.185-.476 1.477.297 1.349.297-.05.543-.157.783-.288.005.051.016.101.022.151-.011.035-.028.065-.032.106-.033.321-.145.851.029 1.174.035.065.077.127.122.187-.016.115-.015.232.006.347.219 1.221 1.227 1.611 2.304 1.087.012-.006.022-.014.034-.02.199.127.437.178.678.065.415-.193.672-.416.953-.764.487-.435.991-.898 1.451-1.397.104-.098.193-.213.29-.319.741.697 1.901.47 2.689-.025.12-.076.21-.174.296-.273.167-.027.414-.085.385-.163.04.11.371-.393.533-.657.454.479 1.04.853 1.62 1.09.167.068.346.104.526.122 1.018.32 2.113-.015 2.458-1.179.052-.177.018-.346-.056-.502.055-.196.083-.404.109-.582.095-.641.029-1.368-.232-1.99.323-.398.463-.996.502-1.423z" fill="#008cff"/><path d="m50.496 107.292c.029-.479.029-.979 0-1.479-.07-1.42-.33-2.891-.63-4.29 0-.011 0-.011 0-.02-.011-.05-.021-.1-.03-.149.01-.051.01-.101.02-.15v-.03c.2-1.84.2-3.689-.1-5.54-.021-.159-.05-.33-.09-.5-.03-.17-.061-.35-.101-.52-.02-.11-.069-.19-.109-.271.149-.109.3-.229.43-.359-.02-.15-.03-.3-.05-.45-.021-.05-.04-.09-.061-.16-.04-.11-.02-.21.011-.3-.311-.83-.54-1.68-.641-2.561-.02-.05-.04-.09-.05-.14-.06-.14-.05-.269 0-.36 0-.059-.01-.13-.01-.189-.01-.01-.01-.01-.01-.021 0-.01 0-.01 0-.01v-.05c0-.08.01-.15.05-.21 0-.021.01-.03.02-.04 0-.01 0-.01 0-.01 0-.01.01-.01.01-.01.051-.07.11-.12.19-.16v-.04c-.01-.02-.02-.03-.03-.05-.029.02-.05.029-.08.05-.05.04-.109.069-.159.109-.021.011-.04.021-.051.04-.05.03-.1.061-.14.101-.15.13-.25.27-.31.42-.03.069-.051.13-.07.2-.24.13-.45.34-.54.659-.021.051-.021.091-.03.141-.01.03-.02.069-.03.1h.011c-.011.021-.011.04-.021.07l-.029.149c-.051.191-.101.37-.15.561v.01c-.03.08-.05.17-.07.25-.59.33-1.279.34-2.13.09-.8-.239-1.66-.279-2.5-.38-.2-.05-.399-.1-.59-.16-.12-.02-.23-.05-.35-.08-.54-.119-1.08-.22-1.631-.269-.01 0-.01 0-.02 0-.01-.01-.01-.01-.021-.021-1.149-1.029-2.319-2.05-3.42-3.119.12-.24.12-.53-.06-.82-.05-.14-.11-.26-.18-.39 0 0 .01 0 0-.011-.051-.1-.101-.199-.15-.3.05-.07.1-.14.14-.24.021-.029.03-.06.04-.1.141-.44.25-.89.341-1.34.039-.2.069-.4.1-.601.16-1.09.2-2.17.2-3.26 0-.01 0-.02 0-.02v-.13c.01-.02.02-.051.02-.08 0-.021.01-.04.01-.061.101-.34.181-.689.25-1.04 0-.02.011-.04.011-.069.16-.881.26-1.79.359-2.7 0-.01 0-.021.011-.03.157-1.461.337-2.911.837-4.25-.042.026-.08.063-.123.083-.817.399-2.026.192-2.938.488-1.354.438-2.58 1.173-3.855 1.792-.714.574-1.413 1.188-2.192 1.783-.042.032-.087.05-.132.063-1.364 1.752-2.62 3.588-3.789 5.441-.918 1.041-1.71 2.275-2.23 3.51-.006.014.003.022 0 .035-1.983 3.212-3.993 6.808-4.799 10.394-.02.09-.04.17-.05.25.021-.08.05-.149.09-.22l.471.27 1.02.591 1.86 1.079c.01 0 .01 0 .02.011l.73.42.31.18h.01l.12.07h.01l.08.05.011.01.1.06c-.01.02-.02.04-.03.06-.001.002 0 .003 0 .005.061.034.11.081.147.136.008-.005.016-.004.023-.012.021-.02.051-.04.07-.069l.19.109.09.05.819.471.671.38.18.1.1.061 2.74 1.59.04.02.99.58.38.22.3.171.44.26.47.27.57.33.159.09 3.92 2.261 1.32.76c.01 0 .021.01.03.019l1.72 1 1 .58.11.061.2.109.38.221.399.229.28.16.39.229 1.29.75.04.021.061.04.029.01.62.36.271.16h.01l.37.22.11.07h.01l1.399.81.03.021.05.029.391.23.239.13.721.42h.01l.12.07.27.159.13.07.101.061.09.05.04.03.66.38.02.01.181.11.34.189.06.04.78.45.229.13c.011-.01.011-.021.011-.03.109-.59.18-1.2.239-1.85v-.05c0-.011 0-.011 0-.021.118-1.66.049-3.49-.161-5.29z" fill="#272747"/><path d="m69.686 109.512.04-.02.53-.31c0 .01 0 .01.01 0l.5-.29.061-.03.17-.101.46-.26.529-.3.311-.18.24-.15.05-.03.31-.18h.01l.03-.02.7-.4.25-.14.5-.29 1.22-.71.141-.08.3-.17.02-.011.011-.01.29-.17.279-.17.141-.08h.01l.24-.14.22-.13.11-.061.039-.02.29-.17.021-.011.24-.14.06-.04.69-.39.04-.02.02-.02.18-.09.11-.061.271-.16.399-.229v-.01l.16-.091.03-.01.29-.17.1-.06.021-.011.04-.02.039-.03.12-.07.08-.05 1.181-.67.869-.52 1.12-.65.42-.24h.011l.02-.02.45-.26 1.16-.67.069-.04.04-.03 1.04-.59.011-.011.14-.079.03-.021.14-.08.51-.29 2-1.149.03-.021 1-.57.11-.069.13-.05.24-.131.739-.43.851-.49.189-.109.62-.36c.09-1.29.021-2.62-.05-3.939.28-.101.52-.301.62-.601.01-.01.01-.01.01-.02.03-.11.05-.23.04-.37 0-.09 0-.181-.01-.271-.09-2.779-.67-5.2-2.13-7.54-.07-.149-.17-.3-.29-.46-.011-.02-.03-.04-.04-.069l-.01.01c-.07-.08-.131-.16-.2-.25-.25-.25-.54-.33-.82-.3-.26-.351-.7-.41-1.06-.271-.011 0-.03.01-.04.021-.12.05-.23.12-.311.22-.16.17-.24.42-.18.71.01.04.02.09.02.13.07.33.11.64.11.92 0 .17-.01.34-.04.49-.04.02-.07.04-.11.06-.279.15-.64.33-1.06.521v.01c-.4.18-.86.38-1.35.58-.28.12-.58.24-.881.34l-.01.01c-.689.271-1.43.521-2.149.721h-.011c-.42.12-.83.23-1.229.31-.67-.02-1.34-.09-2.021-.189-.05 0-.1-.011-.14-.021-.27-.28-.66-.439-1.04-.37-.16.03-.31.05-.46.07-.02.01-.04.01-.06.01-.04-.01-.091-.01-.141-.03-.01-.02-.01-.05-.03-.069-.01-.061-.029-.11-.05-.16 0-.09.021-.17 0-.25 0-.021-.01-.05-.01-.07-.02-.13-.03-.25-.05-.359-.05-.271-.11-.49-.19-.74h-.01c-.05-.16-.12-.32-.2-.521-.149-.39-.42-.609-.71-.72-.04-.13-.09-.24-.16-.34 0 0 0 0 0-.01-.08-.11-.18-.2-.279-.28 0-.09-.011-.17-.03-.26-.01-.12-.03-.25-.061-.38-.069-.341-.18-.671-.319-1.011-.16-.38-.351-.76-.561-1.13-.22-.37-.449-.73-.689-1.08v-.01c-.021-.03-.04-.06-.061-.09-.39-.561-.779-1.09-1.109-1.561-.101-.149-.2-.29-.29-.43-.82-1.229-1.931-2.09-2.95-3.16-.96-1.01-1.559-2.229-2.91-2.779-.06-.03-.12-.03-.17-.04-.08-.2-.25-.301-.45-.311-.02-.01-.04-.01-.06-.01-.01 0-.01 0-.021 0h-.069c-.12 0-.25.04-.37.12-.07.04-.13.09-.17.14-.2.25-.2.71-.141 1.061-.04.14-.08.27-.12.409v.011c-.04.149-.079.279-.119.43l-.011.01c-.01.06-.029.11-.04.17-.33 1.08-.689 2.15-1.05 3.23-.47 1.43-1.43 2.7-1.63 4.18v.03c-.01.07.01.13.04.17.06.1.19.13.31.11h.011c.09-.021.17-.08.21-.17.01-.011.02-.021.02-.03v-.01c.09-.16.181-.29.28-.431.36.06.61-.029.88-.12h.01c0-.01.011-.01.021-.01.24-.09.479-.17.81-.149.48.029.98.17 1.48.289h.01c.22.051.42.091.64.12.051.12.09.23.13.351.021.359.051.71.12 1.06v.01c.011.08.03.16.061.24.01.05.02.11.04.16-.011.021-.021.03-.021.05v.01c-.029.061-.06.11-.069.181h-.04c-.011.09 0 .17-.011.26v.03c0 .12-.01.229-.02.34v.01c-.021.271-.061.54-.08.811-.01.09-.021.18-.021.279v.011.229c.021.271.141.48.311.63-.01.05-.01.11-.021.16-.02.16-.029.32-.04.48-.019.18-.029.359-.039.54-.101.14-.191.279-.271.43v.01c-.15.271-.27.55-.36.86-.02.04-.029.09-.04.13-.069.2-.109.41-.149.62-.03.14-.05.27-.061.41-.06.39-.08.79-.09 1.189-.02.93.03 1.87.04 2.7.01.46.23.74.521.89-.011.021-.011.05 0 .07-.011.37-.021.72-.051 1.05-.449 5.391.11 10.32 1.461 15.48z" fill="#272747"/><path d="m50.836 114.782.8.46.02.01.011.01 1.399.811.011.01.329.19.03.01.851.49.199.12.021.01 1.14.66.061.029.199-.119h.011l.25-.15.02-.01.19-.11.13-.08h.01l.47-.27.091-.051.25-.14.02-.02 1.41-.811h.01l.61-.35.79-.46.02-.011 1.32-.76.09-.05.01-.01.42-.24.41-.24.351-.2.21-.119.02-.011.2-.12.01-.01.28-.16.26-.149.8-.46.24-.141.09-.05.36-.21.12-.07.77-.449.17-.09c4.509-2.709.396-.009.446-.938.14.79.124-.272.314.498l.02-.01.17-.101 1-.58.25-.14.021-.02s.01 0 .01-.011l.03-.01.05-.03.05-.029.47-.271.17-.1c-.09-.83-.37-1.67-.54-2.471-.21-.939-.33-1.899-.52-2.85-.11-.56-.34-1.12-.54-1.68-.12-1.53-.2-3.061-.25-4.601.01-.029.03-.06.04-.1.42-2.82-.061-5.54-.16-8.37 0 0 0-.01 0-.02.11-.07.21-.16.3-.271.11-.13.2-.29.26-.49.08-.26 0-.52-.17-.699-.08-.08-.17-.15-.279-.19-.011-.01-.021-.02-.04-.02h-.011c-.17-.061-.369-.061-.559.05-.12.069-.26.1-.4.109-.01.011-.01.011-.02 0 0 0-.01.011-.021 0-.159.03-.309.03-.47.04-.05.011-.09.011-.14.021-.061-.061-.12-.11-.19-.16-.029-.03-.08-.06-.12-.08l-.01-.01c-.41-.28-.89-.5-1.13-.92-.04.06-.08.12-.13.18v.01c-.21-.1-.47-.14-.75-.08-.26.051-.51.15-.75.271-.09.04-.17.09-.25.13-.07.04-.13.07-.191.1-.269.15-.519.271-.779.38-.021.011-.03.011-.051.021 0-.01-.01-.01-.01-.021-.02-.06-.05-.109-.09-.159-.2-.301-.6-.44-1.02-.28-.051.02-.11.04-.16.07 0 0 0 .01-.011 0-.01.01-.02.01-.029.02-.12.05-.23.12-.34.19-.011 0-.011 0-.011.01-.609.36-1.149.89-1.699 1.3-.011.021-.011.021-.021.021-.059.05-.12.1-.18.14-.41.29-.9.43-1.38.56h-.011c-.1.04-.189.07-.29.101h-.01c-.34.109-.66.25-.93.47-.21-.21-.43-.4-.65-.59-.109-.15-.229-.311-.34-.46-.16-.22-.37-.43-.63-.43-.03-.261-.06-.521-.11-.771.181-.12.25-.29.25-.479.141-.211.101-.461-.04-.671-.02-.029-.04-.05-.069-.079 0 0 0 0 0-.011-.19-.21-.48-.34-.78-.25-.11.03-.22.07-.32.101-.12.04-.229.09-.35.149l-.01.011c-.061-.011-.12-.021-.181-.021-.059-.01-.12-.01-.17 0-.21.021-.42.11-.62.28-.01.01-.029.02-.04.04-.55.439-1.04.939-1.479 1.5-.22.13-.38.31-.48.5-.02.02-.029.05-.029.08-.03.04-.051.08-.051.12 0 0-.01 0-.01.01v.01c-.01.01-.02.02-.02.04-.021.08-.04.17-.03.25-.01.01-.01.03-.01.04 0 .06.01.13.01.189.07.381.33.721.78.87h.01c.06.03.13.04.2.061-.05 0-.08.08-.11.22-.13.63-.08 2.51-.04 3.83v.02c.021.54.03.99.03 1.221.01.18.04.33.1.47.141 1.54.37 3.05.61 4.57.06.399.13.79.19 1.189-.021.13-.051.25-.07.38-.17.971-.26 1.96-.3 2.971-.101 2.22.05 4.54.159 6.77v.021.05c.03.7.061 1.39.08 2.07z" fill="#fcfafa"/><path d="m73.07 64.639c-.188-1.56-.729-3.078-1.612-4.367-.986-1.441-2.226-3.444-3.87-4.12-.123-.051-.176.133-.084.2.468.339.928.783 1.372 1.267.011.006.022.005.033.012.603.369 1.101 1.133 1.52 1.962.009.014.02.027.029.041-.007-.009-.015-.017-.021-.026.443.879.796 1.83 1.082 2.47.787 1.761 1.354 3.415 1.203 5.28.126.056.321-.04.342-.202.033-.249.051-.501.065-.752.177-.518.107-1.152-.059-1.765z" fill="#ff6178"/><path d="m69.395 65.595c-.449-.926-1.13-1.774-1.747-2.593-.729-.967-1.332-2.033-2.217-2.867-.107-.102-.3-.003-.254.148.483 1.597 1.441 2.972 2.382 4.331.482.698.921 1.407 1.223 2.204.228.603.11 1.236.202 1.858.021.145.215.198.327.133 1.175-.689.557-2.24.084-3.214z" fill="#ff6178"/><path d="m64.805 65.846c-.704-1.561-1.635-2.884-2.585-4.288-.179-.265-.538-.038-.418.244.538 1.267 1.178 2.434 1.814 3.655.609 1.171.647 2.602 1.288 3.696.075.127.263.126.338 0 .591-.995-.001-2.341-.437-3.307z" fill="#ff6178"/><path d="m57.086 73.591c.055-.146.088-.302.069-.474-.037-.35-.397-.512-.674-.279-.348.294-.559.654-.956.911-.456.295-.975.483-1.451.742-.353.193-.658.455-.966.71-.577.479-1.152.697-1.802 1.031-.127.065-.084.246.038.285 1.168.379 2.42-.896 3.431-1.34.4-.175 1.009-.4 1.512-.719.13.677.291 1.356.356 2.051.163 1.719-.256 3.292-.711 4.927-.057.203.203.354.352.205 1.211-1.217 1.485-2.957 1.479-4.614-.004-.997-.011-2.559-.677-3.436z" fill="#ff6178"/><path d="m57.749 60.61c-1.885-2.181-7.315 1.057-9.146 1.95-1.918.936-3.565 2.21-4.957 3.816-1.031 1.191-2.635 2.104-2.963 3.747-.044.22.284.393.385.162 1.125-2.584 4.842-5.288 7.258-6.477 1.984-.976 6.609-3.455 8.807-2.053.143.091.343.058.459-.06.053-.053.105-.105.158-.157.267-.266.233-.657-.001-.928z" fill="#ff6178"/><path d="m66.155 69.633c-.167.236-.31.489-.443.749-.023-.006-.046-.012-.069-.019-.238-.063-.435.047-.572.233-1.72 2.316-1.807 5.978-2.367 8.675-.018.084.032.136.093.147-.038.35-.06.704-.039 1.073.012.221.302.254.376.051 1.219-3.347 3.405-7.151 3.655-10.738.024-.367-.456-.422-.634-.171z" fill="#ff6178"/><g fill="#b73043"><path d="m65.318 70.253c-.696-.457-1.485-.595-2.163-1.129-.774-.61-1.388-1.499-1.975-2.276-1.222-1.616-1.797-3.62-3.039-5.194-.096-.122-.331-.023-.313.13.255 2.266 4.06 10.859 7.49 8.948.191-.106.169-.369 0-.479z"/><path d="m65.473 64.447c-.548-.821-1.234-1.547-1.742-2.393-.325-.544-.688-.992-1.286-1.187-.207-.067-.361.212-.21.359.481.465.718.999 1.026 1.573.398.743 1.007 1.367 1.428 2.104.818 1.431 1.377 2.908 1.817 4.482.101.358.685.396.762 0 .333-1.713-.881-3.567-1.795-4.938z"/><path d="m70.014 64.103c-.99-1.621-2.53-2.881-3.75-4.322-.111-.132-.294-.013-.307.127-.09.958 1.283 2.089 1.833 2.774.723.898 1.315 1.782 1.853 2.799.474.896.35 1.892.871 2.715.082.129.263.16.374.049 1.1-1.098-.237-3.097-.874-4.142z"/><path d="m50.135 76.76c-.099.219-.163.462-.219.711-.154.19-.278.409-.393.631-.021.039-.04.082-.061.122-.084-.01-.173-.001-.26.05-.472.273-.734.671-.771 1.215-.026.388.316.544.616.481.038.048.08.095.136.125-.363.69-.786 1.36-.832 2.105-.012.188.213.294.364.209.911-.512 1.451-1.842 1.857-2.762.328-.742.581-1.783.587-2.61.005-.516-.792-.795-1.024-.277z"/><path d="m53.337 72.2c-.008-.352-.42-.643-.741-.426-.62.42-.935 1.136-1.221 1.803-.279.65-.692 1.423-.785 2.123-.05.377.487.542.72.298s.384-.56.508-.899c.796-.801 1.544-1.816 1.519-2.899z"/><path d="m58.46 80.729c-.419-.283-.935-.468-1.305-.331-.25.093-.374.408-.162.614.364.355 1.049.354 1.293.852.269.549 1.11.064.822-.48-.03-.058-.073-.117-.119-.176.49-.492 1.112-.767 1.843-.751.696.016.942.71 1.464 1.04.227.143.513-.045.518-.297.045-2.378-3.338-2.063-4.354-.471z"/><path d="m89.019 82.691c-.019-.011-.039-.023-.057-.035-.327-.204-.812-.081-.995.261-.349.651-2.917.993-3.625 1.204-.679.202-1.365.362-2.061.498-1.323.259-2.511-.535-3.725-.167-.219.066-.291.337-.133.503 1.704 1.783 4.219 1.37 6.386.861 1.173-.276 3.919-.781 4.493-2.042.183-.401.11-.837-.283-1.083z"/><path d="m47.1 90.565c-.376-.396-.797-.368-1.317-.371-1.089-.006-2.15-.14-3.213-.379-1.094-.245-2.113-.703-3.062-1.291-.965-.599-1.463-1.618-2.357-2.271-.19-.14-.393.057-.417.239-.273 2.071 2.281 3.758 3.951 4.381 1.363.508 4.942 1.701 6.281.722.345-.251.446-.7.134-1.03z"/></g><path d="m81.367 86.709c-1.108-.169-2.411-.296-3.41-.823-.505-.267-.931-.745-.947-1.329-.018-.64.274-.878.745-1.209.264-.185.363-.676 0-.836-.398-.176-.734-.161-1.012-.028.081-.159.1-.351-.012-.553-2.403-4.368-5.13-8.128-8.938-11.347-.256-.217-.698.064-.49.379 1.131 1.714 2.911 3.082 4.185 4.739 1.628 2.114 2.895 4.521 4.176 6.852.152.277.412.341.646.278-.558.693-.679 2.014-.372 2.728.356.831 1.465 1.386 2.263 1.653 1.086.365 2.122.204 3.165-.188.135-.05.178-.289.001-.316z" fill="#483f8e"/><path d="m68.672 76.756c-.407-1.128-.983-2.513-1.766-3.428-.242-.283-.667.021-.59.344.274 1.151.983 2.241 1.415 3.344.745 1.905 1.141 3.916 1.823 5.818.108.303.576.352.662 0 .492-1.993-.881-4.242-1.544-6.078z" fill="#483f8e"/><path d="m71.918 87.007c-.908-.448-1.966-.507-2.872-.976-.324-.167-.624.227-.384.497.685.773 1.858 1.25 2.868 1.397.518.076.945-.645.388-.918z" fill="#483f8e"/><path d="m91.921 83.002c-.353-.804-1.664-1.553-2.474-1.038-.086.055-.159.178-.115.282.263.625 1.145.733 1.348 1.394.032.106-.874.521-.992.575-.976.442-2.241.63-3.08 1.312-.22.18-.025.511.216.521 1.426.057 3.383-.237 4.544-1.116.655-.498.89-1.162.553-1.93z" fill="#483f8e"/><path d="m48.848 90.424c-.132-.097-.328-.022-.405.106-.345.566-.084 1.286-.537 1.797-.523.589-1.623.526-2.325.499-1.618-.063-3.177-.51-4.722-.962-.126-.037-.227.131-.129.222 1.455 1.364 4.002 1.957 5.942 1.876.843-.035 1.822-.313 2.318-1.052.506-.755.664-1.903-.142-2.486z" fill="#483f8e"/><path d="m36.991 85.395c-.097-.146-.188-.231-.361-.277-.193-.053-.454-.008-.588.155-.304.368-.784.604-.784 1.157 0 .504.254.975.429 1.43.08.21.406.192.406-.055 0-.214-.093-.873.023-1.02.223-.28.52-.416.78-.657.191-.177.241-.515.095-.733z" fill="#483f8e"/><path d="m65.605 79.876c-.944.113-2.653.88-2.681 1.991-.005.21.235.337.411.236 1.159-.662 2.26-1.288 3.631-.905.458.127.327.747.767.868.512.141.784-.519.778-.91-.019-1.303-2.025-1.386-2.906-1.28z" fill="#1db4ff"/><path d="m63.796 84.134c-.202-.914-.889-1.763-1.588-2.349-.604-.506-3.033-1.389-3.07.064-.01.411.499.474.708.191.176-.236 1.001.229 1.187.317.441.208.726.545 1.037.916.734.876 1.104 2.348 1.172 3.468.006.092.134.112.161.021.284-.943.613-1.636.393-2.628z" fill="#1db4ff"/><path d="m59.636 82.505c-.593-.591-2.028-1.352-2.847-.865-.105.063-.127.213-.039.301.602.59 1.509.751 2.152 1.298.503.426 1.212-.255.734-.734z" fill="#1db4ff"/><path d="m55.846 81.407c-.075-.063-.188-.118-.289-.076-.28.116-.393.364-.501.638-.167.417-.401.797-.648 1.17-.268.401-.581.763-.937 1.089-.271.248-.64.407-.86.703-.078.105-.02.277.089.337.799.434 1.801-.755 2.234-1.274.375-.449 1.604-2.006.912-2.587z" fill="#e53d4d"/><path d="m59.426 70.22c-.396-.404-1-.605-1.524-.789-.393-.139-.887-.192-1.289-.031-.349-.313-.866-.385-1.368-.313-.004-.168-.093-.323-.299-.364-.792-.154-2.257.752-2.027 1.675.015.062.055.104.103.139-.228.296-.44.609-.653.941-.202.315.188.657.492.492.585-.318.915-.895 1.438-1.288.34-.256.761-.406 1.183-.428.39-.021.654.113 1.025-.04.043-.018.072-.048.108-.073.334.106.676.192 1.008.31.456.16.864.485 1.346.56.441.066.815-.426.457-.791z" fill="#131344"/><path d="m64.672 37.354c-.357-.655-1.096-.768-1.75-.939-.016-.008-.033-.008-.049-.013-.04-.011-.082-.021-.121-.033-.509-.149-.969.027-1.362.33.126-.185.172-.429.037-.693-.155-.305-.338-.581-.514-.864-.7-2.142-2.693-3.458-4.418-4.812-2.249-1.765-4.13-1.772-6.861-2.263-.234-.042-.423.037-.564.166-1.019-.224-2.048-.348-3.106-.201-.114.016-.172.075-.203.147-.276-.011-.552-.028-.828-.033-2.319-.041-4.591-.143-6.6 1.158-.158.102-.049.309.12.286 4.202-.568 8.331-.43 12.473.651 3.797.992 6.744 2.769 8.944 5.911.008.01.014.022.022.031.119.171.246.329.361.509.096.15.22.23.35.277-.175.105-.262.314-.191.509.049.136.191.19.32.176.036.189.185.325.41.342.095.089.19.177.286.265.242.219.543.479.582.824.054.479.658.58.868.275.022.003.038.012.061.012.307 0 .462-.229.474-.467.108-.026.202-.079.271-.164.079-.014.148-.044.217-.086.325.124.802-.065.781-.488-.006-.12-.024-.237-.051-.349.09-.135.124-.313.041-.464z" fill="#ff8aa0"/><path d="m56.227 59.3c-.904-.477-1.926-.174-2.895.001-1.563.283-3.254.668-4.714 1.314-.417.185-1.329.585-2.131 1.095-.921-1.689-2.589-3.207-3.77-4.536-2.032-2.288-4.44-4.186-6.474-6.461-4.65-5.199-5.744-11.481-2.849-17.802.141-.307-.224-.646-.491-.379-.83.832-1.448 1.784-1.893 2.807-.089.007-.179.046-.258.135-2.484 2.819-1.836 7.405-.99 11.09.13 1.075.41 2.08.803 3.034.017.074.034.149.052.223.029.124.088.212.158.283.894 1.929 2.254 3.637 3.751 5.261.788 1.724 2.126 2.875 3.544 4.184 1.23 1.136 2.258 1.941 2.935 3.546.515 1.22.283 2.528.76 3.671.11.263.512.399.712.212.136.106.375.003.377-.185.002-.294.002-.445-.008-.581.141-.029.278-.101.383-.244.751-.385 1.501-.77 2.252-1.155.352-.009.624-.284.636-.636.004-.133-.013-.272-.031-.411.475.234 1.117-.071.953-.725-.011-.043-.032-.084-.044-.127.182-.082.344-.156.46-.219.998-.547 1.983-.93 3.073-1.241 1.839-.525 3.693-.975 5.583-1.264.419-.061.465-.706.116-.89z" fill="#aa2437"/><path d="m72.752 67.263c-.256-.023-.324.286-.436.451-.282.416-1.151.566-1.584.264-.148-.103-.356.103-.251.251.376.533.903.559 1.516.464.516-.08 1.096-.546 1.078-1.109-.008-.185-.145-.304-.323-.321z" fill="#e53d4d"/><path d="m67.492 56.001c-.123-.085-.278.113-.161.209 2.946 2.405 6.03 8.159 5.076 11.936-.114.451.51.594.678.187 1.613-3.913-2.435-10.152-5.593-12.332z" fill="#ff6178"/><path d="m91.343 65.602c-.525-3.967-1.781-8.836-4.526-11.888-.144-.159-.453.008-.372.217 1.631 4.245 3.618 7.882 4.109 12.503.51 4.806-.702 9.175-1.453 13.869-.054.336.393.466.512.141 1.722-4.692 2.386-9.88 1.73-14.842z" fill="#ff8aa0"/><path d="m82.101 68.393c-1.403-.326-2.643-.988-3.736-1.924-.13-.111-.25-.234-.374-.352.081-.119.105-.273.002-.435-.457-.718-.814-1.429-1.061-2.246-.043-.22-.301-.267-.47-.152-.017-.027-.034-.053-.051-.08-.249-.401-.852-.138-.751.317.03.136.075.222.136.3.005 1.187 1.024 2.39 1.814 3.139 1.217 1.154 2.599 1.97 4.24 2.344.592.136.845-.773.251-.911z" fill="#ff8aa0"/><path d="m88.957 82.905c.165-.337.242-.72.171-1.173-.037-.238-.341-.255-.49-.129-1.553 1.309-3.5 2.051-5.429 2.033-.342-.048-.403-.032-.648-.06-4.218-.469-5.893-5-6.93-8.679-1.044-3.704-.923-7.282-.098-11.006.111-.5-.59-.686-.761-.21-1.107 3.091-1.342 6.482-.816 9.736-.044.043-.075.097-.068.167.311 3.098 1.505 6.654 3.804 8.941-.006.053-.023.099-.017.161.237 2.42 1.947 3.666 4.326 3.317.156-.023.263-.091.345-.177 2.342.237 5.019.124 6.004-1.885.124-.018.249-.029.392-.038.58-.036.656-.83.215-.998z" fill="#aa2437"/><path d="m67.868 51.462c-.137-.504-.244-1.071-.404-1.613.34-.519.14-1.226-.154-1.745-.229-.404-.7-.278-.887.016-.174-.123-.37.049-.377.231-.005-.001-.009-.001-.013-.002-.005 1.207.469 2.518.734 3.691.301 1.33.5 2.793 1.068 4.032.153.333.593.179.7-.091.541-1.368-.296-3.161-.667-4.519z" fill="#ff8aa0"/><path d="m66.223 73.852c-.68.054-1.063.892-1.337 1.437-.319.635-.614 1.355-.5 2.074.031.198.3.188.393.051.372-.551.541-1.223.873-1.802.266-.464.844-.957.817-1.515-.006-.124-.108-.256-.246-.245z" fill="#262024"/><path d="m63.407 76c-1.248 1.563-.705 3.336-.87 5.157-.021.226.363.281.399.054.124-.779.118-1.537.147-2.321.036-.967.48-1.777.63-2.711.026-.158-.178-.34-.306-.179z" fill="#ff6178"/><path d="m69.288 43.289c-.02-.093-.057-.172-.107-.238-.08-.252-.182-.49-.293-.726-.118-.598-.356-1.17-.717-1.62-.697-.871-1.995-1.761-3.172-1.598-.229-.201-.6-.301-1.149-.173-2.133.498-3.377 2.577-3.1 4.619-.036.319-.049.641-.013.958.029.25.07.424.146.593-.112.873.824 1.806 1.634 1.966.01.007.015.018.025.025.929.62 1.761.716 2.598.615.071.206.287.265.472.211.015.01.028.021.048.026.388.108.712.087 1.049-.143.285-.195.517-.462.849-.57.039-.013.071-.034.102-.057.21-.009.414-.11.537-.288.512-.243.887-.341 1.106-1.025.263-.825.158-1.749-.015-2.575z" fill="#fcfafa"/><path d="m54.881 45.861c-.005-.196-.044-.385-.099-.571-.083-.522-.191-1.039-.327-1.545.043-.129.063-.273.02-.448-.088-.36-.185-.536-.397-.777-.527-.871-1.253-1.512-2.138-2.143-.242-.172-.487-.15-.69-.032-.082-.039-.164-.06-.245-.066-.077-.055-.18-.083-.304-.062-.36.059-.817.057-1.283.073-1.843-.42-4.902-.095-5.528 1.849-.116.122-.207.264-.261.432-.26.039-.49.198-.543.5-.011.064-.008.128-.017.192-.003 0-.006-.001-.008-.001-.034.521-.118 1.032-.253 1.535-.051.286.06.512.231.665v.007c-.206.126-.352.337-.33.6.131 1.604 1.154 2.571 2.348 3.576.168.174.326.359.514.513.075.068.167.11.264.142 1.788 1.526 3.566 1.578 5.866.766 1.656-.585 2.142-1.514 2.487-2.816.172-.039.326-.156.39-.393.017-.063.024-.108.036-.161.125-.112.216-.269.228-.479.021-.366-.003-.704-.046-1.032.052-.096.089-.2.085-.324z" fill="#fcfafa"/><path d="m55.05 45.169c-.052-.182-.295-.166-.354 0-.438 1.231-.42 2.55-1.165 3.686-.784 1.195-1.977 1.487-3.092 2.239-.202.137-.148.512.134.495 3.075-.19 5.332-3.435 4.477-6.42z" fill="#c1c1c1"/><path d="m64.843 47.618c-1.408-.779-2.623-1.49-3.138-3.142-.516-1.655.09-2.985.877-4.402.104-.187-.124-.473-.321-.321-3.128 2.415-1.556 8.17 2.366 8.658.433.054.563-.601.216-.793z" fill="#c1c1c1"/><path d="m55.812 11.417-46.07 26.56v53.12l1.67.96.63.37h.011l18.81 10.841 1.04.6 2.18 1.26.49.279.439.261.36.21 3.13 1.8 3.311 1.91 1.289.74v.01l12.711 7.319 46.07-26.56v-53.12zm44.209 78.61-44.209 25.49-12.51-7.211-31.701-18.279v-50.97l44.211-25.49 44.209 25.49z" opacity=".13"/><path d="m47.372 83.294c1.866-.715 2.219-2.607 1.382-4.256-.165-.324-.649-.039-.486.283.313.615.508 1.259.379 1.95-.148.792-.819 1.242-1.416 1.688-.153.113-.07.416.141.335z"/><path d="m48.418 79.172c1.471-.604 2.447-2.875 2.04-4.376-.065-.242-.475-.273-.52 0-.122.739-.07 1.467-.285 2.201-.243.832-.805 1.35-1.354 1.972-.07.082-.003.253.119.203z"/><path d="m50.64 75.023c1.143-1.207 2.586-3.497 2.326-5.23-.045-.297-.452-.229-.535 0-.34.942-.485 1.898-.915 2.827-.346.748-.798 1.427-1.279 2.092-.174.239.205.519.403.311z"/><path d="m52.603 69.973c2.077-.718 3.745-3.484 3.238-5.68-.06-.257-.487-.273-.535 0-.18 1.041-.199 1.988-.67 2.967-.485 1.008-1.351 1.765-2.14 2.53-.076.073.001.219.107.183z"/><path d="m55.491 64.459c1.383-.428 3.494-2.985 2.712-4.517-.093-.182-.351-.118-.407.053-.101.306-.084.595-.14.914-.081.464-.31.896-.54 1.301-.468.823-1.26 1.283-1.807 2.014-.085.115.056.274.182.235z"/><path d="m58.493 60.197c-2.146-1.968-5.021-.197-7.313.761-2.969 1.241-5.725 2.965-8.148 5.077-2.216 1.931-3.441 4.169-4.194 6.572-1.375-.882-4.002.707-5.258 1.357-2.848 1.474-5.178 3.751-7.151 6.25-1.937 2.453-3.474 5.159-4.825 7.97-1.136 2.365-2.62 5.08-3.171 7.723.047.019.094.036.139.072.095.076.188.154.282.232 1.588-4.569 3.841-9.12 6.513-13.124 1.436-2.152 3.105-4.219 5.074-5.91.995-.855 2.096-1.6 3.258-2.209.471-.247 3.94-2.094 4.569-1.545.094.082.196.112.297.119-1.124 4.306-.957 9.08-2.208 13.594-.056.2.246.281.309.086 1.968-6.146.752-13.303 4.895-18.636 1.767-2.274 4.228-3.974 6.689-5.408 2.03-1.184 7.525-4.456 9.779-2.517.318.274.779-.175.464-.464z"/><path d="m50.132 76.562c.32.154.378.087.707-.098.795-.447 1.604-.87 2.397-1.321 1.285-.731 2.989-1.603 3.846-2.849.136-.196-.122-.412-.31-.31-1.459.795-2.775 1.96-4.222 2.82-.602.358-2.391.956-2.422 1.75 0 .004.002.007.004.008z"/><path d="m56.825 72.226c2.025 4.599.314 9.049-3.016 12.503-2.289 2.373-5.179 3.718-6.737 6.768-.213.417.417.785.627.367 1.929-3.828 6.187-5.675 8.49-9.283 2.148-3.367 3.004-6.887 1.007-10.571-.134-.25-.48-.032-.371.216z"/><path d="m36.304 86.305c.21 3.056 3.435 4.88 6.016 5.752.731.247 6.762 1.114 6.094-1.062-.065-.212-.364-.212-.43 0-.124.404-1.886.761-2.267.809-1.264.157-2.517-.161-3.705-.56-2.288-.767-4.855-2.476-5.302-4.994-.04-.23-.422-.177-.406.055z"/><path d="m49.936 94.992v.02c-.06.211-.12.41-.18.62-.03.101-.061.21-.101.311v.01c-.47 1.39-1.17 2.74-1.829 3.96-1.641 3.021-3.75 7.05-6.761 9.21l-.399-.229-.38-.221c1.84-2.41 4.029-4.569 5.659-7.16 2.011-3.17 4.7-7.649 2.79-11.279-.04-.101-.09-.2-.159-.29-.03-.07-.07-.141-.12-.21-.04-.061-.061-.12-.061-.17 0-.011 0-.011 0-.02 0-.01 0-.02.01-.03.011-.14.141-.26.29-.279.131-.03.271.01.37.14 0 0 0 .01.011.01 0 .011.01.011.01.021.02.03.04.05.06.08v.01c.04.04.07.08.09.13.28.41.49.83.641 1.26h.01c.03.091.06.19.09.28.369 1.236.289 2.536-.041 3.826z"/><path d="m35.246 84.772c-.141-.061-.311-.04-.38.12-1.32 3.02-3.62 5.39-5.86 7.739-1.837 1.938-4.242 3.954-5.365 6.42.084.026.159.065.21.125 2.337-2.229 4.486-4.816 6.744-7.175 1.82-1.899 4-4.149 4.8-6.73.01-.04.03-.09.04-.13.05-.168-.049-.309-.189-.369z"/><path d="m35.133 85.228c.23.142.538-.022.772-.092.394-.115.815-.063 1.197-.188.316-.104.338-.567 0-.662-.504-.142-1.126.099-1.588.3-.14.061-.691.451-.381.642z"/><path d="m56.985 106.643c.011 3.399.04 6.81 0 10.21l-.47.27h-.01l-.13.08-.19.11-.02.01c-.05-3.561-.021-7.12-.011-10.68.011-2.931.011-5.851.011-8.78.01-2.44-.19-4.99.21-7.41.02-.14.04-.29.069-.43.011-.061.061-.09.12-.101.03 0 .07.011.101.04.02.011.029.03.04.061.02.1.04.189.05.29.42 2.46.22 5.06.22 7.55.01 2.929.01 5.849.01 8.78z"/><path d="m62.996 113.393-.21.119-.351.2-.41.24c.03-2.31.08-4.61.08-6.9.011-3.27.011-6.54.021-9.819.02-3.07-.2-6.26.12-9.32.01-.1.02-.189.029-.28 0-.029 0-.06.011-.09 0-.04.01-.069.01-.109.03-.21.26-.261.359-.131.03.03.051.061.061.101.01.01.01.02.01.03.01.1.021.189.03.29.35 3.119.12 6.38.14 9.51.01 3.279.01 6.55.021 9.819-.001 2.099.039 4.219.079 6.34z"/><path d="m60.361 92.103c-.529-.13-.703.604-.538.95.129.271.542.489.84.432.277-.053.407-.297.576-.498.213-.256-.109-.58-.365-.365-.093.078-.16.168-.234.264-.033.066-.089.086-.166.057-.506-.124-.194-.34-.089-.441.097-.096.161-.354-.024-.399z"/><path d="m59.89 104.358c-.178.336-.499.436-.451.873.052.465.371.631.788.628.579-.005 1.167-.722 1.079-1.289-.013-.08-.098-.123-.17-.129-.244-.021-.396.128-.549.302-.227.257-.256.392-.639.394.084.035.168.069.251.104-.212-.251-.114-.478-.053-.774.031-.15-.178-.256-.256-.109z"/><path d="m59.11 111.842c-.306.358-.333.86.084 1.151.426.298 1.373-.059 1.422-.563.006-.057-.035-.119-.083-.145-.348-.192-.598.088-.95.128-.217.024-.221-.359-.265-.517-.022-.084-.146-.128-.208-.054z"/><path d="m66.136 103.522c0 2.67.03 5.359.01 8.04l-.77.449c-.021-2.829.01-5.67.01-8.489 0-5.08-.38-10.431.22-15.49 0-.021 0-.03.011-.04v-.01c0-.101.02-.2.029-.3.021-.15.21-.15.23 0 .02.13.029.25.04.38.01.029.02.069.02.109.58 5.012.2 10.311.2 15.351z"/><path d="m51.825 86.928c.538.443 1.646.216 2.255.036.097-.028.189-.108.211-.211.007-.029.013-.059.019-.088.019-.083-.012-.156-.082-.203-.307-.204-.72.076-1.047.148-.43.097-.878-.022-1.291.075-.1.024-.149.173-.065.243z"/><path d="m53.911 85.075c-.013 1.914-1.492 4.809 1.348 5.466.924.213 2.031-.449 2.767-.934.812-.535 1.882-1.483 2.002-2.489.012-.102-.13-.182-.212-.121-.651.484-1.061 1.22-1.694 1.751-.783.656-1.46 1.132-2.491 1.197-2.436.155-1.174-3.578-1.358-4.918-.03-.211-.361-.152-.362.048z"/><path d="m56.896 81.233c.28.31.814.417 1.187.616.358.191.68.551 1.096.573.063.003.111-.065.094-.124-.121-.419-.609-.631-.964-.834-.364-.207-.945-.531-1.366-.407-.08.024-.101.118-.047.176z"/><path d="m58.715 82.002c.099.219.277.38.407.583.164.257.239.557.263.856.02.232.099.518.383.369.072-.038.134-.136.126-.22-.061-.609-.378-1.578-1.063-1.738-.094-.021-.152.069-.116.15z"/><path d="m57.96 84.192c.339-.093.669-.197 1.021-.223.27-.019.457.095.684-.067.058-.042.092-.12.049-.188-.362-.557-1.491-.06-1.871.274-.094.084.005.235.117.204z"/><path d="m58.607 86.306c.374.151 1.047-.032 1.217-.419.036-.083-.005-.181-.104-.183-.248-.006-.41.109-.646.199-.206.077-.344.086-.515.22-.073.057-.017.156.048.183z"/><path d="m59.248 83.823c.143.323.474.437.567.813.106.428-.259.776-.333 1.166-.036.19.168.414.361.278.48-.34.619-1.04.52-1.596-.081-.45-.541-.97-1.02-.896-.112.017-.131.151-.095.235z"/><path d="m59.561 86.066c.065.228.284.281.366.509.092.253-.129.398.021.646.03.05.082.064.137.056.034-.006.068-.012.103-.017.086-.015.153-.1.178-.178.127-.422-.097-1.486-.749-1.152-.048.024-.07.087-.056.136z"/><path d="m59.036 82.059c.543-.668 1.069-1.347 2.027-1.183.779.134 1.4.813 1.829 1.427.506.723.729 1.539.793 2.41.064.873-.444 1.455-.553 2.256-.009.067.038.126.11.11.982-.217 1.11-1.541 1.091-2.366-.025-1.067-.564-2.187-1.203-3.019-1.195-1.556-3.522-2.011-4.427.108-.084.2.168.459.333.257z"/><path d="m59.852 87.353c.868 1.146 3.572.744 3.845-.75.017-.09-.069-.166-.154-.119-.551.302-.969.751-1.58.944-.708.225-1.288-.183-1.956-.276-.102-.013-.238.092-.155.201z"/><path d="m63.754 86.75c1.018 1.171 2.91 1.976 4.241.867.577-.48.797-1.275.879-1.986.081-.702.033-1.954-.611-2.38-.048-.032-.109.001-.126.052-.174.525.099 1.143.134 1.688.042.655-.101 1.315-.451 1.872-.968 1.54-2.799.258-3.838-.407-.189-.121-.362.14-.228.294z"/><path d="m64.012 85.07c.449-.021.893.13 1.333.084.101-.011.166-.126.086-.207-.357-.362-.947-.325-1.419-.283-.257.023-.265.419 0 .406z"/><path d="m63.672 83.453c.424-.104 1.208-.429 1.248-.92.005-.056-.04-.095-.086-.113-.467-.185-1.063.489-1.312.838-.072.1.045.22.15.195z"/><path d="m52.612 71.764c.248.539 1.105.723 1.635.846.701.164 1.582.242 2.25-.054.219-.096.083-.392-.11-.407-.674-.055-1.317.072-2-.046-.575-.1-1.101-.52-1.667-.527-.102-.002-.147.105-.108.188z"/><path d="m57.179 72.707c2.04.199 5.2-.161 6.76-1.622.214-.2-.059-.521-.303-.393-1.082.569-2.1.984-3.298 1.252-1.049.234-2.181.188-3.183.586-.095.038-.08.167.024.177z"/><path d="m57.497 62.349c1.107 1.835 1.739 3.938 2.807 5.807.693 1.215 2.085 3.57 3.863 3.085 4.863-1.327-.357-8.925-2.258-10.729-.124-.117-.314.031-.233.181.874 1.621 2.04 3.057 2.898 4.694.529 1.013 1.028 2.168.941 3.333-.093 1.227-1.22 2.262-2.415 1.663-1.496-.751-2.457-2.84-3.201-4.235-.701-1.316-1.238-2.751-2.038-4.012-.145-.229-.506-.022-.364.213z"/><path d="m76.771 84.576c2.58 3.603 11.859 2.288 13.691-1.491.088-.182-.135-.379-.288-.223-3.268 3.338-9.343 3.809-13.286 1.597-.071-.039-.17.044-.117.117z"/><path d="m77.366 105.082-.11.061-.22.13-.24.14h-.01l-.141.08c-.22-5.24-.939-10.39-1.779-15.58-.421-2.61-.91-6.36 1.819-7.87.061-.04.13-.08.2-.109h.019c.08-.03.15 0 .191.06v.01c.04.04.05.101.021.15-.011.01-.021.03-.03.04l-.12.12c-.021.02-.05.05-.08.08-2.77 3-1.25 7.21-.64 10.819.64 3.829 1.12 7.93 1.12 11.869z"/><path d="m69.616 109.562-.181.1-.12.07-.17.1c-2.04-6.81-2.33-14.81-1.689-21.84v-.03c.02-.18.029-.359.05-.54v-.01c.02-.22.22-.32.38-.28.019 0 .05.011.06.021.091.05.15.13.15.26v.11c.059 1.8.08 3.62.11 5.439-.011.021-.011.05 0 .07.08 5.54.199 11.1 1.479 16.479z"/><path d="m68.632 85.173c1.107.721 2.443 1.561 3.775 1.753.252.037.422-.279.181-.428-1.146-.706-2.506-1.12-3.696-1.771-.293-.16-.538.265-.26.446z"/><path d="m72.956 86.742c-.141 1.53-.29 3.07-.431 4.61-.08.89-.159 1.779-.239 2.67-.391 4.729-.631 9.47-.301 14.18l-.529.3-.46.26c-.57-3 .14-6.609.26-9.369.18-4.17.38-8.37 1.12-12.48.01-.08.029-.16.04-.24.01-.1.069-.149.149-.18.161-.06.401.029.391.249z"/><path d="m76.065 105.842-.02.011-.3.17-.141.08c-.93-2.221-1.51-4.57-2.13-6.9-.45-1.69-.939-3.43-1.189-5.18-.131-.94-.2-1.88-.16-2.82.01-.2.3-.25.35-.05.021.07.03.13.05.2.681 2.83 1.08 5.71 1.891 8.51.58 2.009 1.29 3.939 1.649 5.979z"/><path d="m68.673 84.287c.396.128.947-.144 1.339-.24.44-.11.952-.19 1.347-.418.089-.052.057-.167-.026-.2-.441-.178-1.032-.075-1.483.025-.403.09-1.054.192-1.28.574-.062.102-.004.224.103.259z"/><path d="m67.024 69.939c1.081 1.526 2.597 2.744 3.858 4.119 1.392 1.515 2.495 3.284 3.868 4.776.216.234.591-.011.517-.3-.452-1.751-2.229-3.378-3.427-4.654-1.383-1.476-2.884-3.038-4.507-4.251-.18-.135-.437.13-.309.31z"/><path d="m53.921 68.919c.571.158 1.079.119 1.61.446.49.302.831.842 1.241 1.24.08.077.184-.004.17-.1-.167-1.206-1.829-2.551-3.065-1.922-.146.074-.103.296.044.336z"/><path d="m55.999 69.166c.68.401 1.494.521 2.187.949.843.523 1.401 1.266 1.981 2.046.193.26.589.042.439-.256-.428-.848-1.188-1.503-1.955-2.038-.678-.472-1.775-1.096-2.627-.894-.089.022-.101.148-.025.193z"/><path d="m50.735 114.723-.33-.19-.229-.13c.01-.72-.08-1.66-.06-2.101.039-.949.069-1.899.069-2.85-.01-1.57-.05-3.14-.14-4.71-.061-1.07-.12-2.15-.18-3.22 0-.011 0-.011 0-.021-.011-.09-.011-.2-.011-.3v-.03c-.1-1.739-.17-3.479-.2-5.22v-.01c-.01-.24-.02-.46-.02-.7 0-.04.01-.08.03-.11.04-.1.16-.14.27-.12.101.021.181.101.2.23.18 2.01.38 4.02.54 6.03.05.52.09 1.05.12 1.569.14 1.891.24 3.78.25 5.67.01.95.42 4.711-.21 6.271z"/><path d="m62.772 70.794c-2.059-1.644-3.24-3.844-3.933-6.353-.029-.105-.116-.162-.211-.191-.064-.094-.141-.157-.228-.195.015-.438-.103-.815-.321-1.216-.271-.497-1.077-.216-1.027.293-.117.079-.204.207-.226.385-.521-.151-.896.146-1.244.988-.055.133-.039.259.018.366-.047.169-.094.339-.137.51-.035.138-.005.258.053.362-.004.013-.012.02-.015.032-.1.461-.225 1.194-.509 1.717-.056.064-.111.133-.168.189-.052.053-.07.113-.095.173-.058.056-.116.108-.183.147.001.002.002.003.004.004-.029.022-.062.039-.09.063-.383.32.105.88.512.664.06-.031.11-.076.164-.114.004.003.008.008.012.011.43.305.909.456 1.423.561.148.03.308 0 .443-.07.039.038.074.078.13.109.259.123.51.253.763.376.158.103.329.191.512.266.012.007.024.011.036.019l.001-.003c.05.02.093.047.144.063.038.013.071.009.107.015.02.016.038.032.057.048.525.438.915.996 1.403 1.452.027.103.055.205.071.314.029.188.238.389.423.423.053.01.104.02.157.029.331.06.639-.087.742-.422.211-.048.423-.058.636-.028.525.112 1.075-.59.576-.987z"/><path d="m55.418 47.203c.041-.343.069-.694.077-1.056.045-2.05-.618-4.806-2.435-5.984.898-.661 1.467-1.715.819-2.776-.14-.229-.559-.217-.614.08-.511 2.783-2.869 2.145-4.885 2.144-1.111-.001-2.199.174-3.193.691-.948.493-1.779 1.28-2.178 2.23-.021.005-.028.03-.046.041-.01.05-.012.099-.028.153-.018.061-.048.107-.077.152-.006.014-.013.028-.019.042-.539 2.488-.493 5.34 1.434 7.234 2.034 1.998 5.141 2.207 7.758 1.452 1.8-.519 2.734-1.724 3.161-3.277.37 1.054.112 2.784-.063 3.493-.369 1.503-1.048 2.571-2.518 3.179-.151.062-.144.295.041.299 1.792.038 2.808-2.048 3.17-3.546.243-.999.566-3.671-.404-4.551zm-.747-.371c-.01.099-.034.18-.047.275-.053.087-.074.194-.051.298-.446 2.471-2.022 3.562-4.621 3.75-2.246.162-4.648-.536-5.911-2.544-.861-1.369-.902-2.976-.864-4.552.044-.174.095-.334.147-.49.032-.52.321-1.012.588-1.454.187-.309.406-.583.676-.77.418-.381 1.002-.612 1.567-.729 1.721-.358 3.563-.115 5.314-.324.197-.023.325.061.4.183.026.01.05.019.058.016 2.28 1.182 2.987 3.923 2.744 6.341z"/><path d="m59.055 38.469c.912-.606 1.674-1.47 2.754-1.783 1.736-.504 2.817.481 2.917 2.152.019.325.44.457.619.168.897-1.453-.684-3.096-2.093-3.321-1.81-.29-3.687.911-4.485 2.496-.089.175.1.413.288.288z"/><path d="m65.342 38.401c-2.849.148-5.232 2.325-5.325 5.259-.094 2.95 2.446 4.867 5.255 4.847 5.991-.043 5.51-8.744.39-10.087-.467-.122-.667.601-.199.723 2.089.548 3.466 2.282 3.513 4.452.045 2.06-1.2 3.945-3.354 4.148-2.492.234-4.958-1.444-4.855-4.083.098-2.506 2.126-4.381 4.575-4.509.48-.025.483-.775 0-.75z"/><path d="m55.139 35.901c-.269-.138-.568.142-.417.417.52.942.248 1.869-.126 2.816-.073.185.188.3.313.182.768-.724 1.471-2.778.23-3.415z"/><path d="m49.764 36.648c-1.54.192-2.881.179-4.412.167-.714-.006-1.239.187-1.883.479-1.586.719-2.943 1.759-2.8 3.642.012.155.231.156.242 0 .187-2.567 2.948-3.454 5.041-3.295 1.347.103 2.586-.023 3.901-.333.361-.085.293-.708-.089-.66z"/><path d="m83.369 73.288c-.031-.033-.083.019-.05.05.022.02.044.04.065.06.03.027.071-.014.044-.044-.02-.023-.039-.045-.059-.066z"/><path d="m94.326 87.582c-.156-2.582-1.371-5.915-4.208-6.362 1.235-4.753 2.45-9.929 2.086-14.805-.358-4.799-2.185-9.448-5.082-13.274-.153-.203-.463-.044-.398.162-.048.052-.098.111-.147.168-.924.691-1.609 2.048-1.596 3.276-.09.758.073 1.478.668 2.011-.439.228-.729.746-.931 1.305-.48.922-.694 2.06-.516 3.012-.005.735.085 1.471.346 2.141-.791.693-1.426 1.727-1.862 2.846-.022-.015-.029-.039-.057-.049-.663-.232-1.353-.383-2.019-.609-.54-.183-1.012-.459-1.501-.722-.668-.628-1.053-1.491-1.507-2.283-.087-.451-.398-.904-.589-1.32-.11-.24-.219-.426-.476-.532-.45-.185-.842.003-1.146.303-.818.328-1.335 1.175-1.657 2.228-.116-.944-.424-1.902-.817-2.771-.023-.028-.051-.048-.068-.085-.035-.072-.074-.142-.109-.214-.292-.855-.754-1.701-1.273-2.285-.003-.004-.008-.003-.012-.006-.731-1.188-1.692-2.288-2.753-3.284.211-.203.306-.593.312-.847 0-.019-.013-.03-.016-.047.255-1.31-.046-2.671-.368-3.967-.204-.821-.393-1.664-.659-2.466-.15-.453-.52-.946-.624-1.385-.034-.144-.238-.131-.279 0-.061.197-.047.245-.033.413.018.213.281.617.351.843.136.437.21.92.321 1.363.451 1.814.834 3.486.706 5.331-.061.116-.11.241-.143.367-1.395-1.239-2.932-2.297-4.373-3.107-.085-.048-.151.073-.075.128 3.076 2.208 6.587 5.2 8.248 8.741-.014.012-.022.03-.037.041.843 1.503 1.403 3.224 1.199 4.96-.008.069.025.114.068.15-.417.623-.399 1.318-1.318 1.475-.639.109-1.146-.049-1.743-.186.132-.363.202-.745.17-1.124-.242-2.874-3.192-5.563-4.91-7.694-.073-.092-.215.026-.159.123.851 1.479 1.987 2.799 2.904 4.238.535.842.926 1.74 1.197 2.697.148.523.215 1.027.136 1.568-.135.999-.925 1.479-2.368 1.442-.269-.219-.55-.422-.841-.608-.119-.081-.223.07-.177.177.082.189.176.346.274.488.053.876.126 1.684-.052 2.516-.026.014-.045.036-.068.055-.031.147-.078.288-.139.422.011.032.016.065.039.095-.031.086-.058.17-.096.257-.431.99-1.171 1.833-1.748 2.735-.912 1.426-1.347 2.927-1.405 4.617-.006.178.068.296.173.369-.226.33-.373.696-.397 1.088-.007.107.124.139.193.08.677-.578 1.03-1.323 1.841-1.795.676-.395 1.5-.499 2.25-.294.809.22 1.265.951 1.334 1.748.051.591-.606 1.693-.277 2.163.055.079.148.132.246.101.813-.26.715-2.087.591-2.735-.165-.859-.796-1.475-1.578-1.796-.967-.397-2.368-.092-3.371.616.155-1.214.436-2.37.966-3.488.514-1.085 1.34-1.985 1.77-3.115.015-.038.026-.079.04-.118 1.339 1.168 2.166 3.673 2.782 5.138.735 1.749.992 3.641 1.686 5.386.021.052.096.06.113 0 .527-1.8-.44-4.035-1.137-5.665-.821-1.922-1.862-3.95-3.229-5.568.192-.776.231-1.589-.032-2.313 1.07.704 2.55-.232 3.165-1.537.468.59 1.646.553 2.275.364.349-.105.638-.342.843-.639-.061 1.109-.039 2.123-.033 2.738.024 2.379.348 4.645 1.24 6.863 1.079 2.685 2.889 4.989 4.064 7.628.088.196.403.056.343-.145-.591-1.954-1.917-3.867-2.918-5.671-1.276-2.302-1.993-4.62-2.108-7.253-.138-3.14-.313-6.988 2.067-9.284.093-.026.187-.042.26-.03.196.034.251.175.339.317.025.04.044.083.066.124.012.051.021.101.036.153.302.468.531.99.758 1.514.251.368.522.705.765.97.379.414.763.811 1.152 1.204.009-.007.02-.007.028-.015.303.226.62.432.951.575.593.257 1.255.442 1.897.586-.12.274-.194.567-.242.864-.288.593-.185 1.411.011 2.035-1.067 1.043-1.937 3.472-1.002 4.703.108.142.367.155.414-.054.169-.748-.023-1.518.12-2.281.148-.795.534-1.411.927-2.08.03-.022.055-.05.063-.1.001-.004.001-.007.002-.011.016-.028.032-.055.049-.083.049-.085.034-.158-.002-.219.149-.966.285-1.914.607-2.849.38-1.101 1.022-1.973 1.566-2.966.096.068.268.005.257-.128-.038-.433-.098-.936-.148-1.466.028-.032.045-.073.041-.123-.168-1.86.064-3.297 1.155-4.855.013-.018.014-.038.013-.056.035-.034.056-.081.041-.146-.104-.425-.238-.8-.342-1.174-.122-.763-.153-1.443.151-2.197.263-.653.701-1.147 1.056-1.732 2.948 4.188 4.53 8.887 4.788 14.013.225 4.477-1.776 8.622-2.113 12.987-.224.509-.359 1.087-.46 1.582-.141.69-.275 1.47.187 2.045.098.123.294.043.333-.088.156-.521.057-1.095.053-1.656.062.002.125-.026.145-.104.055-.211.111-.429.167-.642 1.425.757 2.34 1.492 2.949 3.207.561 1.55.55 3.31.53 4.94-.021 2-.23 4.07-.36 6.15l.62-.36.32-.18.04-.021c.01-.55.02-1.1.05-1.63.05-.91.12-1.81.16-2.71.01-.01.01-.01.01-.019.01-.21.021-.431.03-.641.03-.961.05-1.911-.01-2.881z"/><circle cx="51.344" cy="45.75" r="1.354"/><circle cx="66.531" cy="43.292" r="1.125"/><path d="m59.4 50.944c-.058-.065-.18-.065-.238 0-.283.317-.297.935-.145 1.316.103.258.424.258.527 0 .154-.382.14-.999-.144-1.316z"/><path d="m62.22 51.375c-.16-.386-.653-.844-1.091-.811-.047.004-.099.04-.094.094.044.435.548.853.959.943.121.026.283-.087.226-.226z"/><path d="m78.63 73.967c-.753-1.507-1.67-2.733-2.11-4.396-.427-1.614-.439-3.286-.748-4.919-.036-.19-.298-.124-.315.043-.292 2.947.245 7.696 2.933 9.513.156.106.312-.095.24-.241z"/><path d="m65.236 50.294c-1.122-.943-2.033-2.04-2.939-3.187-.145-.184-.456.057-.325.251.448.662.938 1.285 1.477 1.877.475.522.969 1.059 1.65 1.295.13.044.244-.146.137-.236z"/><circle cx="51.948" cy="45.042" fill="#fcfafa" r=".693"/><path d="m49.533 27.949c-1.581-.239-3.163-.364-4.762-.361-.638.001-.64.993 0 .992 1.509-.003 3.006.1 4.498.325.625.095.894-.861.264-.956z" fill="#ff8aa0"/><circle cx="67.135" cy="42.417" fill="#fcfafa" r=".693"/><path d="m41.839 67.98c.939-5.136-3.779-8.526-6.828-11.853-4.368-4.764-7.042-11.546-5.002-17.953 2.241-7.039 8.7-9.662 15.538-10.165 5.414-.398 14.024 1.759 15.56 7.867.043.172.326.14.315-.043-.308-5.14-7.85-7.885-12.044-8.414-5.777-.729-12.835.649-16.916 5.06-4.131 4.466-4.734 11.124-2.646 16.661 1.104 2.926 2.863 5.533 5.01 7.793 3.123 3.288 6.688 6.057 6.708 11.005-.001.171.273.22.305.042z"/></svg>